G04*
G04 #@! TF.GenerationSoftware,Altium Limited,Altium Designer,19.1.6 (110)*
G04*
G04 Layer_Color=65535*
%FSLAX43Y43*%
%MOMM*%
G71*
G01*
G75*
%ADD10C,0.200*%
%ADD11C,0.250*%
%ADD12C,0.600*%
G36*
X32671Y2050D02*
X32693Y2048D01*
X32719Y2043D01*
X32750Y2034D01*
X32782Y2019D01*
X32815Y2000D01*
X32845Y1974D01*
X32848Y1971D01*
X32858Y1959D01*
X32871Y1941D01*
X32887Y1917D01*
X32904Y1884D01*
X32921Y1843D01*
X32934Y1797D01*
X32945Y1741D01*
X32754Y1715D01*
Y1717D01*
Y1721D01*
X32752Y1728D01*
X32750Y1737D01*
X32745Y1759D01*
X32734Y1785D01*
X32721Y1809D01*
X32700Y1832D01*
X32687Y1841D01*
X32674Y1848D01*
X32658Y1852D01*
X32641Y1854D01*
X32639D01*
X32630Y1852D01*
X32619Y1850D01*
X32604Y1845D01*
X32587Y1837D01*
X32571Y1824D01*
X32552Y1808D01*
X32536Y1784D01*
X32534Y1780D01*
X32532Y1776D01*
X32528Y1769D01*
X32526Y1761D01*
X32521Y1750D01*
X32517Y1737D01*
X32513Y1722D01*
X32508Y1704D01*
X32504Y1684D01*
X32499Y1659D01*
X32495Y1634D01*
X32491Y1606D01*
X32487Y1574D01*
X32484Y1539D01*
X32482Y1500D01*
X32484Y1502D01*
X32489Y1510D01*
X32497Y1519D01*
X32506Y1530D01*
X32519Y1543D01*
X32532Y1556D01*
X32547Y1569D01*
X32563Y1580D01*
X32565Y1582D01*
X32571Y1584D01*
X32582Y1589D01*
X32593Y1595D01*
X32608Y1598D01*
X32626Y1604D01*
X32645Y1606D01*
X32665Y1608D01*
X32676D01*
X32686Y1606D01*
X32697Y1604D01*
X32708Y1602D01*
X32737Y1593D01*
X32769Y1580D01*
X32787Y1571D01*
X32804Y1559D01*
X32823Y1547D01*
X32839Y1532D01*
X32858Y1515D01*
X32874Y1495D01*
X32876Y1493D01*
X32878Y1489D01*
X32884Y1484D01*
X32889Y1474D01*
X32895Y1463D01*
X32904Y1450D01*
X32911Y1434D01*
X32921Y1415D01*
X32928Y1395D01*
X32937Y1372D01*
X32945Y1348D01*
X32950Y1322D01*
X32958Y1293D01*
X32961Y1263D01*
X32963Y1230D01*
X32965Y1197D01*
Y1195D01*
Y1187D01*
Y1178D01*
X32963Y1165D01*
X32961Y1148D01*
X32960Y1128D01*
X32958Y1108D01*
X32954Y1084D01*
X32941Y1035D01*
X32924Y984D01*
X32913Y958D01*
X32900Y934D01*
X32886Y910D01*
X32869Y887D01*
X32867Y886D01*
X32865Y882D01*
X32860Y876D01*
X32852Y871D01*
X32843Y861D01*
X32832Y852D01*
X32804Y832D01*
X32771Y811D01*
X32730Y793D01*
X32708Y787D01*
X32684Y782D01*
X32660Y778D01*
X32634Y776D01*
X32626D01*
X32619Y778D01*
X32608D01*
X32595Y780D01*
X32580Y784D01*
X32545Y795D01*
X32524Y802D01*
X32504Y811D01*
X32482Y823D01*
X32461Y837D01*
X32439Y854D01*
X32419Y873D01*
X32399Y895D01*
X32378Y921D01*
X32376Y923D01*
X32374Y928D01*
X32369Y937D01*
X32363Y948D01*
X32356Y965D01*
X32347Y985D01*
X32337Y1008D01*
X32328Y1035D01*
X32319Y1067D01*
X32310Y1104D01*
X32302Y1143D01*
X32293Y1187D01*
X32287Y1235D01*
X32282Y1287D01*
X32280Y1345D01*
X32278Y1406D01*
Y1408D01*
Y1410D01*
Y1421D01*
Y1439D01*
X32280Y1461D01*
X32282Y1491D01*
X32284Y1522D01*
X32287Y1558D01*
X32291Y1597D01*
X32304Y1678D01*
X32323Y1759D01*
X32334Y1798D01*
X32349Y1835D01*
X32363Y1871D01*
X32382Y1900D01*
X32384Y1902D01*
X32387Y1908D01*
X32393Y1915D01*
X32400Y1924D01*
X32411Y1935D01*
X32424Y1948D01*
X32439Y1961D01*
X32456Y1976D01*
X32474Y1991D01*
X32495Y2004D01*
X32541Y2028D01*
X32567Y2037D01*
X32593Y2046D01*
X32623Y2050D01*
X32652Y2052D01*
X32663D01*
X32671Y2050D01*
D02*
G37*
G36*
X22581Y2067D02*
X22596Y2065D01*
X22613Y2063D01*
X22631Y2059D01*
X22651Y2054D01*
X22698Y2039D01*
X22722Y2030D01*
X22746Y2019D01*
X22770Y2004D01*
X22794Y1987D01*
X22818Y1969D01*
X22840Y1948D01*
X22842D01*
X22844Y1945D01*
X22848Y1939D01*
X22853Y1934D01*
X22861Y1924D01*
X22868Y1913D01*
X22877Y1900D01*
X22887Y1885D01*
X22896Y1869D01*
X22907Y1852D01*
X22916Y1832D01*
X22927Y1809D01*
X22937Y1784D01*
X22946Y1758D01*
X22955Y1730D01*
X22962Y1700D01*
X22757Y1641D01*
Y1643D01*
X22755Y1645D01*
Y1650D01*
X22753Y1658D01*
X22748Y1676D01*
X22740Y1698D01*
X22729Y1724D01*
X22714Y1750D01*
X22698Y1774D01*
X22677Y1797D01*
X22675Y1798D01*
X22668Y1806D01*
X22655Y1815D01*
X22638Y1824D01*
X22618Y1835D01*
X22596Y1843D01*
X22570Y1850D01*
X22540Y1852D01*
X22529D01*
X22522Y1850D01*
X22501Y1847D01*
X22475Y1839D01*
X22446Y1828D01*
X22414Y1809D01*
X22400Y1798D01*
X22385Y1785D01*
X22370Y1771D01*
X22355Y1752D01*
Y1750D01*
X22351Y1748D01*
X22350Y1741D01*
X22344Y1734D01*
X22338Y1722D01*
X22333Y1709D01*
X22327Y1693D01*
X22320Y1674D01*
X22313Y1654D01*
X22307Y1630D01*
X22301Y1602D01*
X22296Y1572D01*
X22292Y1541D01*
X22288Y1506D01*
X22285Y1467D01*
Y1426D01*
Y1424D01*
Y1415D01*
Y1404D01*
X22287Y1387D01*
Y1369D01*
X22288Y1347D01*
X22290Y1322D01*
X22294Y1297D01*
X22301Y1241D01*
X22314Y1185D01*
X22322Y1160D01*
X22331Y1134D01*
X22342Y1111D01*
X22353Y1091D01*
Y1089D01*
X22357Y1087D01*
X22366Y1076D01*
X22381Y1060D01*
X22403Y1043D01*
X22429Y1024D01*
X22459Y1008D01*
X22496Y997D01*
X22514Y995D01*
X22535Y993D01*
X22538D01*
X22548Y995D01*
X22564Y997D01*
X22583Y1000D01*
X22605Y1008D01*
X22629Y1019D01*
X22653Y1035D01*
X22675Y1056D01*
X22677Y1060D01*
X22685Y1069D01*
X22696Y1084D01*
X22709Y1106D01*
X22724Y1134D01*
X22737Y1169D01*
X22751Y1210D01*
X22763Y1260D01*
X22964Y1182D01*
Y1180D01*
X22962Y1173D01*
X22959Y1161D01*
X22955Y1147D01*
X22950Y1130D01*
X22944Y1110D01*
X22937Y1087D01*
X22927Y1063D01*
X22905Y1013D01*
X22877Y961D01*
X22846Y913D01*
X22827Y893D01*
X22807Y873D01*
X22805Y871D01*
X22801Y869D01*
X22796Y863D01*
X22787Y858D01*
X22777Y850D01*
X22764Y843D01*
X22750Y834D01*
X22733Y824D01*
X22714Y815D01*
X22694Y806D01*
X22648Y791D01*
X22596Y780D01*
X22568Y778D01*
X22538Y776D01*
X22529D01*
X22520Y778D01*
X22505D01*
X22488Y782D01*
X22468Y784D01*
X22446Y789D01*
X22422Y795D01*
X22396Y804D01*
X22370Y813D01*
X22344Y826D01*
X22316Y841D01*
X22288Y860D01*
X22263Y880D01*
X22237Y902D01*
X22213Y930D01*
X22211Y932D01*
X22207Y937D01*
X22200Y948D01*
X22190Y963D01*
X22179Y980D01*
X22168Y1002D01*
X22155Y1028D01*
X22142Y1058D01*
X22127Y1089D01*
X22114Y1126D01*
X22103Y1165D01*
X22092Y1208D01*
X22083Y1254D01*
X22076Y1304D01*
X22072Y1356D01*
X22070Y1411D01*
Y1413D01*
Y1415D01*
Y1426D01*
X22072Y1443D01*
Y1463D01*
X22074Y1491D01*
X22077Y1522D01*
X22083Y1556D01*
X22088Y1593D01*
X22096Y1634D01*
X22105Y1674D01*
X22116Y1715D01*
X22131Y1758D01*
X22148Y1798D01*
X22166Y1837D01*
X22188Y1876D01*
X22214Y1911D01*
X22216Y1913D01*
X22220Y1919D01*
X22227Y1926D01*
X22237Y1935D01*
X22250Y1948D01*
X22264Y1961D01*
X22283Y1976D01*
X22303Y1991D01*
X22326Y2004D01*
X22351Y2019D01*
X22379Y2032D01*
X22409Y2045D01*
X22442Y2054D01*
X22475Y2061D01*
X22513Y2067D01*
X22551Y2069D01*
X22568D01*
X22581Y2067D01*
D02*
G37*
G36*
X26684Y1097D02*
Y1095D01*
X26681Y1089D01*
X26679Y1080D01*
X26673Y1069D01*
X26668Y1054D01*
X26660Y1037D01*
X26645Y1000D01*
X26625Y960D01*
X26605Y921D01*
X26582Y884D01*
X26571Y867D01*
X26560Y852D01*
X26558Y848D01*
X26549Y841D01*
X26536Y830D01*
X26520Y817D01*
X26499Y804D01*
X26475Y793D01*
X26447Y786D01*
X26416Y782D01*
X26388D01*
X26368Y784D01*
X26345Y786D01*
X26321Y787D01*
X26273Y797D01*
Y984D01*
X26301D01*
X26327Y982D01*
X26362D01*
X26375Y984D01*
X26392Y985D01*
X26408Y989D01*
X26425Y995D01*
X26442Y1002D01*
X26455Y1011D01*
X26457Y1013D01*
X26460Y1019D01*
X26466Y1026D01*
X26475Y1041D01*
X26484Y1060D01*
X26494Y1082D01*
X26505Y1111D01*
X26516Y1148D01*
X26138Y2048D01*
X26370D01*
X26608Y1398D01*
X26816Y2048D01*
X27031D01*
X26684Y1097D01*
D02*
G37*
G36*
X29434Y2050D02*
X29445Y2048D01*
X29458Y2046D01*
X29491Y2039D01*
X29527Y2028D01*
X29564Y2009D01*
X29582Y1998D01*
X29601Y1985D01*
X29617Y1971D01*
X29634Y1952D01*
X29636Y1950D01*
X29638Y1948D01*
X29641Y1943D01*
X29647Y1935D01*
X29653Y1926D01*
X29660Y1915D01*
X29677Y1887D01*
X29691Y1854D01*
X29704Y1817D01*
X29714Y1776D01*
X29717Y1754D01*
Y1732D01*
Y1728D01*
Y1719D01*
X29715Y1702D01*
X29712Y1684D01*
X29708Y1659D01*
X29701Y1635D01*
X29691Y1610D01*
X29678Y1584D01*
X29677Y1580D01*
X29671Y1572D01*
X29664Y1561D01*
X29651Y1545D01*
X29636Y1528D01*
X29615Y1508D01*
X29593Y1487D01*
X29567Y1469D01*
X29569D01*
X29571Y1467D01*
X29582Y1463D01*
X29597Y1458D01*
X29617Y1448D01*
X29640Y1434D01*
X29662Y1417D01*
X29684Y1395D01*
X29706Y1367D01*
X29708Y1363D01*
X29715Y1352D01*
X29725Y1335D01*
X29734Y1313D01*
X29745Y1285D01*
X29753Y1252D01*
X29760Y1213D01*
X29762Y1171D01*
Y1169D01*
Y1163D01*
Y1154D01*
X29760Y1143D01*
X29758Y1128D01*
X29756Y1111D01*
X29753Y1093D01*
X29749Y1071D01*
X29736Y1026D01*
X29717Y980D01*
X29706Y956D01*
X29693Y932D01*
X29677Y910D01*
X29658Y887D01*
X29656Y886D01*
X29654Y882D01*
X29647Y876D01*
X29640Y871D01*
X29630Y861D01*
X29619Y852D01*
X29590Y832D01*
X29554Y811D01*
X29514Y793D01*
X29490Y787D01*
X29466Y782D01*
X29441Y778D01*
X29416Y776D01*
X29403D01*
X29393Y778D01*
X29382Y780D01*
X29367Y782D01*
X29336Y787D01*
X29301Y798D01*
X29262Y817D01*
X29241Y826D01*
X29223Y839D01*
X29204Y854D01*
X29186Y871D01*
X29184Y873D01*
X29182Y874D01*
X29177Y880D01*
X29171Y887D01*
X29164Y898D01*
X29156Y910D01*
X29147Y923D01*
X29138Y939D01*
X29129Y956D01*
X29119Y976D01*
X29110Y997D01*
X29101Y1021D01*
X29088Y1071D01*
X29079Y1130D01*
X29269Y1158D01*
Y1156D01*
Y1154D01*
X29271Y1143D01*
X29273Y1128D01*
X29278Y1108D01*
X29284Y1085D01*
X29293Y1063D01*
X29304Y1041D01*
X29317Y1023D01*
X29319Y1021D01*
X29325Y1015D01*
X29334Y1008D01*
X29345Y1000D01*
X29358Y991D01*
X29375Y984D01*
X29393Y978D01*
X29414Y976D01*
X29425D01*
X29436Y980D01*
X29449Y984D01*
X29466Y989D01*
X29484Y998D01*
X29501Y1011D01*
X29517Y1030D01*
X29519Y1032D01*
X29525Y1041D01*
X29530Y1052D01*
X29540Y1071D01*
X29547Y1091D01*
X29553Y1119D01*
X29558Y1148D01*
X29560Y1184D01*
Y1185D01*
Y1187D01*
Y1198D01*
X29558Y1215D01*
X29554Y1235D01*
X29551Y1258D01*
X29543Y1282D01*
X29532Y1306D01*
X29519Y1326D01*
X29517Y1328D01*
X29512Y1335D01*
X29503Y1343D01*
X29491Y1354D01*
X29477Y1363D01*
X29460Y1372D01*
X29441Y1378D01*
X29421Y1380D01*
X29406D01*
X29397Y1378D01*
X29384Y1376D01*
X29367Y1372D01*
X29351Y1367D01*
X29332Y1361D01*
X29353Y1558D01*
X29366D01*
X29380Y1559D01*
X29397Y1561D01*
X29417Y1567D01*
X29438Y1572D01*
X29456Y1584D01*
X29475Y1597D01*
X29477Y1598D01*
X29482Y1604D01*
X29490Y1615D01*
X29497Y1628D01*
X29504Y1645D01*
X29512Y1665D01*
X29517Y1689D01*
X29519Y1717D01*
Y1721D01*
Y1728D01*
X29517Y1739D01*
X29515Y1754D01*
X29512Y1769D01*
X29504Y1785D01*
X29497Y1802D01*
X29486Y1817D01*
X29484Y1819D01*
X29480Y1822D01*
X29473Y1828D01*
X29464Y1835D01*
X29453Y1843D01*
X29438Y1848D01*
X29421Y1852D01*
X29403Y1854D01*
X29395D01*
X29384Y1852D01*
X29373Y1848D01*
X29360Y1843D01*
X29345Y1835D01*
X29330Y1826D01*
X29316Y1811D01*
X29314Y1809D01*
X29310Y1804D01*
X29304Y1793D01*
X29297Y1780D01*
X29290Y1763D01*
X29282Y1741D01*
X29277Y1717D01*
X29273Y1687D01*
X29091Y1724D01*
Y1726D01*
X29093Y1732D01*
X29095Y1741D01*
X29097Y1752D01*
X29101Y1767D01*
X29104Y1782D01*
X29116Y1819D01*
X29130Y1859D01*
X29149Y1900D01*
X29173Y1939D01*
X29186Y1958D01*
X29201Y1972D01*
X29203Y1974D01*
X29204Y1976D01*
X29216Y1985D01*
X29234Y1998D01*
X29258Y2013D01*
X29288Y2026D01*
X29325Y2039D01*
X29366Y2048D01*
X29388Y2052D01*
X29423D01*
X29434Y2050D01*
D02*
G37*
G36*
X28636Y2050D02*
X28647Y2048D01*
X28660Y2046D01*
X28693Y2039D01*
X28729Y2028D01*
X28766Y2009D01*
X28784Y1998D01*
X28803Y1985D01*
X28819Y1971D01*
X28836Y1952D01*
X28838Y1950D01*
X28840Y1948D01*
X28843Y1943D01*
X28849Y1935D01*
X28854Y1926D01*
X28862Y1915D01*
X28879Y1887D01*
X28893Y1854D01*
X28906Y1817D01*
X28916Y1776D01*
X28919Y1754D01*
Y1732D01*
Y1728D01*
Y1719D01*
X28917Y1702D01*
X28914Y1684D01*
X28910Y1659D01*
X28903Y1635D01*
X28893Y1610D01*
X28880Y1584D01*
X28879Y1580D01*
X28873Y1572D01*
X28866Y1561D01*
X28853Y1545D01*
X28838Y1528D01*
X28817Y1508D01*
X28795Y1487D01*
X28769Y1469D01*
X28771D01*
X28773Y1467D01*
X28784Y1463D01*
X28799Y1458D01*
X28819Y1448D01*
X28841Y1434D01*
X28864Y1417D01*
X28886Y1395D01*
X28908Y1367D01*
X28910Y1363D01*
X28917Y1352D01*
X28927Y1335D01*
X28936Y1313D01*
X28947Y1285D01*
X28954Y1252D01*
X28962Y1213D01*
X28964Y1171D01*
Y1169D01*
Y1163D01*
Y1154D01*
X28962Y1143D01*
X28960Y1128D01*
X28958Y1111D01*
X28954Y1093D01*
X28951Y1071D01*
X28938Y1026D01*
X28919Y980D01*
X28908Y956D01*
X28895Y932D01*
X28879Y910D01*
X28860Y887D01*
X28858Y886D01*
X28856Y882D01*
X28849Y876D01*
X28841Y871D01*
X28832Y861D01*
X28821Y852D01*
X28792Y832D01*
X28756Y811D01*
X28716Y793D01*
X28692Y787D01*
X28667Y782D01*
X28643Y778D01*
X28617Y776D01*
X28604D01*
X28595Y778D01*
X28584Y780D01*
X28569Y782D01*
X28538Y787D01*
X28503Y798D01*
X28464Y817D01*
X28443Y826D01*
X28425Y839D01*
X28406Y854D01*
X28388Y871D01*
X28386Y873D01*
X28384Y874D01*
X28379Y880D01*
X28373Y887D01*
X28366Y898D01*
X28358Y910D01*
X28349Y923D01*
X28340Y939D01*
X28330Y956D01*
X28321Y976D01*
X28312Y997D01*
X28303Y1021D01*
X28290Y1071D01*
X28280Y1130D01*
X28471Y1158D01*
Y1156D01*
Y1154D01*
X28473Y1143D01*
X28475Y1128D01*
X28480Y1108D01*
X28486Y1085D01*
X28495Y1063D01*
X28506Y1041D01*
X28519Y1023D01*
X28521Y1021D01*
X28527Y1015D01*
X28536Y1008D01*
X28547Y1000D01*
X28560Y991D01*
X28577Y984D01*
X28595Y978D01*
X28616Y976D01*
X28627D01*
X28638Y980D01*
X28651Y984D01*
X28667Y989D01*
X28686Y998D01*
X28703Y1011D01*
X28719Y1030D01*
X28721Y1032D01*
X28727Y1041D01*
X28732Y1052D01*
X28742Y1071D01*
X28749Y1091D01*
X28754Y1119D01*
X28760Y1148D01*
X28762Y1184D01*
Y1185D01*
Y1187D01*
Y1198D01*
X28760Y1215D01*
X28756Y1235D01*
X28753Y1258D01*
X28745Y1282D01*
X28734Y1306D01*
X28721Y1326D01*
X28719Y1328D01*
X28714Y1335D01*
X28704Y1343D01*
X28693Y1354D01*
X28679Y1363D01*
X28662Y1372D01*
X28643Y1378D01*
X28623Y1380D01*
X28608D01*
X28599Y1378D01*
X28586Y1376D01*
X28569Y1372D01*
X28553Y1367D01*
X28534Y1361D01*
X28554Y1558D01*
X28567D01*
X28582Y1559D01*
X28599Y1561D01*
X28619Y1567D01*
X28640Y1572D01*
X28658Y1584D01*
X28677Y1597D01*
X28679Y1598D01*
X28684Y1604D01*
X28692Y1615D01*
X28699Y1628D01*
X28706Y1645D01*
X28714Y1665D01*
X28719Y1689D01*
X28721Y1717D01*
Y1721D01*
Y1728D01*
X28719Y1739D01*
X28717Y1754D01*
X28714Y1769D01*
X28706Y1785D01*
X28699Y1802D01*
X28688Y1817D01*
X28686Y1819D01*
X28682Y1822D01*
X28675Y1828D01*
X28666Y1835D01*
X28654Y1843D01*
X28640Y1848D01*
X28623Y1852D01*
X28604Y1854D01*
X28597D01*
X28586Y1852D01*
X28575Y1848D01*
X28562Y1843D01*
X28547Y1835D01*
X28532Y1826D01*
X28517Y1811D01*
X28516Y1809D01*
X28512Y1804D01*
X28506Y1793D01*
X28499Y1780D01*
X28492Y1763D01*
X28484Y1741D01*
X28479Y1717D01*
X28475Y1687D01*
X28293Y1724D01*
Y1726D01*
X28295Y1732D01*
X28297Y1741D01*
X28299Y1752D01*
X28303Y1767D01*
X28306Y1782D01*
X28317Y1819D01*
X28332Y1859D01*
X28351Y1900D01*
X28375Y1939D01*
X28388Y1958D01*
X28403Y1972D01*
X28405Y1974D01*
X28406Y1976D01*
X28417Y1985D01*
X28436Y1998D01*
X28460Y2013D01*
X28490Y2026D01*
X28527Y2039D01*
X28567Y2048D01*
X28590Y2052D01*
X28625D01*
X28636Y2050D01*
D02*
G37*
G36*
X27838D02*
X27849Y2048D01*
X27862Y2046D01*
X27895Y2039D01*
X27930Y2028D01*
X27968Y2009D01*
X27986Y1998D01*
X28005Y1985D01*
X28021Y1971D01*
X28038Y1952D01*
X28040Y1950D01*
X28042Y1948D01*
X28045Y1943D01*
X28051Y1935D01*
X28056Y1926D01*
X28064Y1915D01*
X28080Y1887D01*
X28095Y1854D01*
X28108Y1817D01*
X28118Y1776D01*
X28121Y1754D01*
Y1732D01*
Y1728D01*
Y1719D01*
X28119Y1702D01*
X28116Y1684D01*
X28112Y1659D01*
X28105Y1635D01*
X28095Y1610D01*
X28082Y1584D01*
X28080Y1580D01*
X28075Y1572D01*
X28068Y1561D01*
X28055Y1545D01*
X28040Y1528D01*
X28019Y1508D01*
X27997Y1487D01*
X27971Y1469D01*
X27973D01*
X27975Y1467D01*
X27986Y1463D01*
X28001Y1458D01*
X28021Y1448D01*
X28043Y1434D01*
X28066Y1417D01*
X28088Y1395D01*
X28110Y1367D01*
X28112Y1363D01*
X28119Y1352D01*
X28129Y1335D01*
X28138Y1313D01*
X28149Y1285D01*
X28156Y1252D01*
X28164Y1213D01*
X28166Y1171D01*
Y1169D01*
Y1163D01*
Y1154D01*
X28164Y1143D01*
X28162Y1128D01*
X28160Y1111D01*
X28156Y1093D01*
X28153Y1071D01*
X28140Y1026D01*
X28121Y980D01*
X28110Y956D01*
X28097Y932D01*
X28080Y910D01*
X28062Y887D01*
X28060Y886D01*
X28058Y882D01*
X28051Y876D01*
X28043Y871D01*
X28034Y861D01*
X28023Y852D01*
X27993Y832D01*
X27958Y811D01*
X27918Y793D01*
X27893Y787D01*
X27869Y782D01*
X27845Y778D01*
X27819Y776D01*
X27806D01*
X27797Y778D01*
X27786Y780D01*
X27771Y782D01*
X27740Y787D01*
X27705Y798D01*
X27666Y817D01*
X27645Y826D01*
X27627Y839D01*
X27608Y854D01*
X27590Y871D01*
X27588Y873D01*
X27586Y874D01*
X27581Y880D01*
X27575Y887D01*
X27568Y898D01*
X27560Y910D01*
X27551Y923D01*
X27542Y939D01*
X27532Y956D01*
X27523Y976D01*
X27514Y997D01*
X27505Y1021D01*
X27492Y1071D01*
X27482Y1130D01*
X27673Y1158D01*
Y1156D01*
Y1154D01*
X27675Y1143D01*
X27677Y1128D01*
X27682Y1108D01*
X27688Y1085D01*
X27697Y1063D01*
X27708Y1041D01*
X27721Y1023D01*
X27723Y1021D01*
X27729Y1015D01*
X27738Y1008D01*
X27749Y1000D01*
X27762Y991D01*
X27779Y984D01*
X27797Y978D01*
X27818Y976D01*
X27829D01*
X27840Y980D01*
X27853Y984D01*
X27869Y989D01*
X27888Y998D01*
X27905Y1011D01*
X27921Y1030D01*
X27923Y1032D01*
X27929Y1041D01*
X27934Y1052D01*
X27943Y1071D01*
X27951Y1091D01*
X27956Y1119D01*
X27962Y1148D01*
X27964Y1184D01*
Y1185D01*
Y1187D01*
Y1198D01*
X27962Y1215D01*
X27958Y1235D01*
X27955Y1258D01*
X27947Y1282D01*
X27936Y1306D01*
X27923Y1326D01*
X27921Y1328D01*
X27916Y1335D01*
X27906Y1343D01*
X27895Y1354D01*
X27880Y1363D01*
X27864Y1372D01*
X27845Y1378D01*
X27825Y1380D01*
X27810D01*
X27801Y1378D01*
X27788Y1376D01*
X27771Y1372D01*
X27755Y1367D01*
X27736Y1361D01*
X27756Y1558D01*
X27769D01*
X27784Y1559D01*
X27801Y1561D01*
X27821Y1567D01*
X27842Y1572D01*
X27860Y1584D01*
X27879Y1597D01*
X27880Y1598D01*
X27886Y1604D01*
X27893Y1615D01*
X27901Y1628D01*
X27908Y1645D01*
X27916Y1665D01*
X27921Y1689D01*
X27923Y1717D01*
Y1721D01*
Y1728D01*
X27921Y1739D01*
X27919Y1754D01*
X27916Y1769D01*
X27908Y1785D01*
X27901Y1802D01*
X27890Y1817D01*
X27888Y1819D01*
X27884Y1822D01*
X27877Y1828D01*
X27868Y1835D01*
X27856Y1843D01*
X27842Y1848D01*
X27825Y1852D01*
X27806Y1854D01*
X27799D01*
X27788Y1852D01*
X27777Y1848D01*
X27764Y1843D01*
X27749Y1835D01*
X27734Y1826D01*
X27719Y1811D01*
X27718Y1809D01*
X27714Y1804D01*
X27708Y1793D01*
X27701Y1780D01*
X27693Y1763D01*
X27686Y1741D01*
X27681Y1717D01*
X27677Y1687D01*
X27495Y1724D01*
Y1726D01*
X27497Y1732D01*
X27499Y1741D01*
X27501Y1752D01*
X27505Y1767D01*
X27508Y1782D01*
X27519Y1819D01*
X27534Y1859D01*
X27553Y1900D01*
X27577Y1939D01*
X27590Y1958D01*
X27605Y1972D01*
X27606Y1974D01*
X27608Y1976D01*
X27619Y1985D01*
X27638Y1998D01*
X27662Y2013D01*
X27692Y2026D01*
X27729Y2039D01*
X27769Y2048D01*
X27792Y2052D01*
X27827D01*
X27838Y2050D01*
D02*
G37*
G36*
X34609Y2050D02*
X34622Y2048D01*
X34639Y2045D01*
X34674Y2034D01*
X34695Y2026D01*
X34715Y2017D01*
X34735Y2004D01*
X34758Y1991D01*
X34780Y1974D01*
X34800Y1954D01*
X34821Y1932D01*
X34841Y1906D01*
X34843Y1904D01*
X34845Y1898D01*
X34850Y1891D01*
X34858Y1878D01*
X34865Y1861D01*
X34872Y1841D01*
X34882Y1819D01*
X34893Y1791D01*
X34902Y1759D01*
X34911Y1722D01*
X34919Y1684D01*
X34926Y1639D01*
X34933Y1591D01*
X34939Y1539D01*
X34941Y1482D01*
X34943Y1421D01*
Y1419D01*
Y1417D01*
Y1406D01*
Y1387D01*
X34941Y1365D01*
X34939Y1335D01*
X34937Y1304D01*
X34933Y1269D01*
X34930Y1230D01*
X34917Y1148D01*
X34909Y1108D01*
X34898Y1067D01*
X34885Y1028D01*
X34872Y991D01*
X34856Y956D01*
X34837Y926D01*
X34835Y924D01*
X34832Y921D01*
X34826Y913D01*
X34819Y902D01*
X34808Y891D01*
X34795Y878D01*
X34780Y865D01*
X34763Y852D01*
X34745Y837D01*
X34724Y824D01*
X34678Y800D01*
X34652Y791D01*
X34624Y784D01*
X34596Y778D01*
X34565Y776D01*
X34554D01*
X34546Y778D01*
X34524Y780D01*
X34496Y786D01*
X34467Y795D01*
X34435Y808D01*
X34402Y826D01*
X34372Y852D01*
X34369Y856D01*
X34359Y867D01*
X34346Y886D01*
X34339Y897D01*
X34332Y910D01*
X34324Y926D01*
X34315Y943D01*
X34308Y961D01*
X34300Y984D01*
X34293Y1006D01*
X34285Y1032D01*
X34280Y1058D01*
X34276Y1087D01*
X34467Y1113D01*
Y1111D01*
Y1108D01*
X34469Y1100D01*
X34471Y1091D01*
X34476Y1069D01*
X34485Y1045D01*
X34500Y1019D01*
X34519Y997D01*
X34532Y987D01*
X34545Y980D01*
X34561Y976D01*
X34578Y974D01*
X34582D01*
X34589Y976D01*
X34600Y978D01*
X34615Y984D01*
X34632Y991D01*
X34650Y1004D01*
X34667Y1021D01*
X34683Y1043D01*
X34685Y1047D01*
X34687Y1050D01*
X34691Y1058D01*
X34695Y1065D01*
X34698Y1076D01*
X34702Y1089D01*
X34706Y1104D01*
X34711Y1123D01*
X34715Y1143D01*
X34721Y1165D01*
X34724Y1191D01*
X34730Y1221D01*
X34733Y1252D01*
X34737Y1287D01*
X34739Y1324D01*
X34737Y1322D01*
X34733Y1315D01*
X34724Y1306D01*
X34715Y1295D01*
X34702Y1282D01*
X34689Y1271D01*
X34672Y1258D01*
X34656Y1247D01*
X34654Y1245D01*
X34648Y1243D01*
X34637Y1239D01*
X34626Y1234D01*
X34609Y1228D01*
X34593Y1224D01*
X34572Y1222D01*
X34552Y1221D01*
X34541D01*
X34532Y1222D01*
X34522Y1224D01*
X34511Y1226D01*
X34482Y1235D01*
X34450Y1248D01*
X34434Y1258D01*
X34415Y1267D01*
X34398Y1280D01*
X34380Y1295D01*
X34361Y1311D01*
X34345Y1332D01*
X34343Y1334D01*
X34341Y1337D01*
X34337Y1343D01*
X34332Y1352D01*
X34324Y1363D01*
X34317Y1376D01*
X34309Y1393D01*
X34300Y1411D01*
X34293Y1430D01*
X34284Y1452D01*
X34276Y1478D01*
X34271Y1504D01*
X34263Y1532D01*
X34259Y1561D01*
X34258Y1595D01*
X34256Y1628D01*
Y1630D01*
Y1637D01*
Y1647D01*
X34258Y1661D01*
X34259Y1676D01*
X34261Y1697D01*
X34263Y1717D01*
X34267Y1741D01*
X34278Y1789D01*
X34296Y1841D01*
X34306Y1867D01*
X34319Y1891D01*
X34334Y1915D01*
X34350Y1937D01*
X34352Y1939D01*
X34354Y1943D01*
X34359Y1948D01*
X34367Y1956D01*
X34376Y1963D01*
X34387Y1974D01*
X34415Y1995D01*
X34448Y2015D01*
X34489Y2034D01*
X34511Y2041D01*
X34534Y2046D01*
X34558Y2050D01*
X34583Y2052D01*
X34598D01*
X34609Y2050D01*
D02*
G37*
G36*
X31328Y1808D02*
X30958D01*
X30925Y1593D01*
X30928Y1595D01*
X30936Y1600D01*
X30949Y1606D01*
X30967Y1615D01*
X30988Y1622D01*
X31010Y1628D01*
X31034Y1634D01*
X31060Y1635D01*
X31071D01*
X31080Y1634D01*
X31091Y1632D01*
X31102Y1630D01*
X31132Y1624D01*
X31163Y1611D01*
X31199Y1595D01*
X31217Y1584D01*
X31234Y1571D01*
X31251Y1556D01*
X31267Y1539D01*
X31269Y1537D01*
X31273Y1534D01*
X31276Y1526D01*
X31284Y1517D01*
X31291Y1504D01*
X31301Y1489D01*
X31312Y1472D01*
X31321Y1454D01*
X31330Y1432D01*
X31341Y1408D01*
X31351Y1380D01*
X31358Y1352D01*
X31365Y1321D01*
X31371Y1289D01*
X31373Y1254D01*
X31375Y1217D01*
Y1215D01*
Y1210D01*
Y1200D01*
X31373Y1189D01*
Y1174D01*
X31369Y1158D01*
X31367Y1139D01*
X31363Y1117D01*
X31352Y1071D01*
X31336Y1019D01*
X31325Y993D01*
X31313Y967D01*
X31299Y939D01*
X31282Y913D01*
X31280Y911D01*
X31278Y908D01*
X31273Y900D01*
X31265Y891D01*
X31256Y882D01*
X31245Y871D01*
X31230Y858D01*
X31215Y845D01*
X31199Y832D01*
X31178Y819D01*
X31158Y808D01*
X31134Y798D01*
X31110Y789D01*
X31082Y782D01*
X31054Y778D01*
X31023Y776D01*
X31010D01*
X31001Y778D01*
X30989D01*
X30975Y782D01*
X30943Y787D01*
X30908Y798D01*
X30869Y813D01*
X30832Y836D01*
X30814Y850D01*
X30795Y865D01*
X30793Y867D01*
X30791Y869D01*
X30786Y874D01*
X30780Y882D01*
X30773Y891D01*
X30765Y902D01*
X30756Y915D01*
X30747Y930D01*
X30738Y947D01*
X30728Y967D01*
X30719Y987D01*
X30710Y1010D01*
X30702Y1034D01*
X30695Y1061D01*
X30686Y1119D01*
X30882Y1145D01*
Y1141D01*
X30884Y1132D01*
X30888Y1115D01*
X30891Y1097D01*
X30897Y1076D01*
X30906Y1056D01*
X30917Y1034D01*
X30932Y1015D01*
X30934Y1013D01*
X30939Y1008D01*
X30949Y1000D01*
X30960Y993D01*
X30973Y984D01*
X30989Y976D01*
X31006Y971D01*
X31025Y969D01*
X31026D01*
X31036Y971D01*
X31047Y973D01*
X31060Y976D01*
X31076Y984D01*
X31095Y995D01*
X31112Y1008D01*
X31128Y1028D01*
X31130Y1032D01*
X31136Y1039D01*
X31143Y1054D01*
X31151Y1073D01*
X31158Y1098D01*
X31165Y1130D01*
X31171Y1169D01*
X31173Y1211D01*
Y1213D01*
Y1217D01*
Y1222D01*
Y1232D01*
X31171Y1252D01*
X31167Y1278D01*
X31162Y1306D01*
X31154Y1335D01*
X31143Y1361D01*
X31128Y1385D01*
X31126Y1387D01*
X31121Y1395D01*
X31112Y1404D01*
X31099Y1415D01*
X31084Y1424D01*
X31063Y1434D01*
X31043Y1441D01*
X31019Y1443D01*
X31015D01*
X31004Y1441D01*
X30989Y1437D01*
X30969Y1432D01*
X30945Y1421D01*
X30919Y1404D01*
X30906Y1395D01*
X30893Y1382D01*
X30880Y1369D01*
X30867Y1352D01*
X30708Y1380D01*
X30808Y2032D01*
X31328D01*
Y1808D01*
D02*
G37*
G36*
X33313Y797D02*
X33117D01*
Y1037D01*
X33313D01*
Y797D01*
D02*
G37*
G36*
X30389D02*
X30191D01*
Y1702D01*
X30190Y1700D01*
X30186Y1697D01*
X30180Y1691D01*
X30171Y1682D01*
X30162Y1672D01*
X30149Y1659D01*
X30134Y1647D01*
X30117Y1634D01*
X30080Y1604D01*
X30038Y1572D01*
X29988Y1545D01*
X29936Y1521D01*
Y1739D01*
X29938D01*
X29940Y1741D01*
X29951Y1745D01*
X29965Y1754D01*
X29988Y1765D01*
X30014Y1782D01*
X30041Y1802D01*
X30073Y1826D01*
X30106Y1856D01*
X30108Y1858D01*
X30110Y1859D01*
X30121Y1871D01*
X30136Y1889D01*
X30154Y1913D01*
X30175Y1941D01*
X30195Y1974D01*
X30214Y2011D01*
X30228Y2052D01*
X30389D01*
Y797D01*
D02*
G37*
G36*
X27329Y797D02*
X27132D01*
Y1037D01*
X27329D01*
Y797D01*
D02*
G37*
G36*
X26031D02*
X25823D01*
Y1837D01*
X25418D01*
Y797D01*
X25210D01*
Y2048D01*
X26031D01*
Y797D01*
D02*
G37*
G36*
X24951Y1837D02*
X24390D01*
Y1550D01*
X24699D01*
X24710Y1548D01*
X24723Y1547D01*
X24740Y1545D01*
X24777Y1537D01*
X24820Y1524D01*
X24862Y1506D01*
X24885Y1495D01*
X24905Y1482D01*
X24925Y1465D01*
X24944Y1447D01*
X24946Y1445D01*
X24947Y1441D01*
X24953Y1435D01*
X24959Y1428D01*
X24966Y1417D01*
X24973Y1404D01*
X24983Y1389D01*
X24992Y1372D01*
X25001Y1354D01*
X25010Y1334D01*
X25018Y1311D01*
X25025Y1287D01*
X25036Y1232D01*
X25038Y1202D01*
X25040Y1171D01*
Y1169D01*
Y1163D01*
Y1156D01*
X25038Y1147D01*
Y1134D01*
X25036Y1119D01*
X25033Y1100D01*
X25031Y1082D01*
X25020Y1041D01*
X25005Y998D01*
X24986Y954D01*
X24973Y932D01*
X24959Y910D01*
Y908D01*
X24955Y904D01*
X24949Y898D01*
X24944Y893D01*
X24934Y884D01*
X24923Y874D01*
X24909Y863D01*
X24894Y854D01*
X24875Y843D01*
X24855Y832D01*
X24833Y823D01*
X24809Y815D01*
X24781Y808D01*
X24751Y802D01*
X24718Y798D01*
X24683Y797D01*
X24183D01*
Y2048D01*
X24951D01*
Y1837D01*
D02*
G37*
G36*
X23964Y797D02*
X23757D01*
Y1837D01*
X23351D01*
Y797D01*
X23144D01*
Y2048D01*
X23964D01*
Y797D01*
D02*
G37*
G36*
X33830Y2050D02*
X33843Y2048D01*
X33858Y2045D01*
X33893Y2034D01*
X33911Y2026D01*
X33932Y2017D01*
X33950Y2006D01*
X33971Y1993D01*
X33991Y1976D01*
X34011Y1956D01*
X34030Y1935D01*
X34048Y1909D01*
X34050Y1908D01*
X34052Y1902D01*
X34058Y1895D01*
X34063Y1882D01*
X34071Y1865D01*
X34078Y1847D01*
X34085Y1822D01*
X34095Y1795D01*
X34104Y1761D01*
X34111Y1726D01*
X34119Y1685D01*
X34126Y1639D01*
X34132Y1591D01*
X34137Y1535D01*
X34139Y1478D01*
X34141Y1413D01*
Y1411D01*
Y1410D01*
Y1404D01*
Y1398D01*
Y1380D01*
X34139Y1356D01*
Y1326D01*
X34135Y1295D01*
X34134Y1258D01*
X34130Y1219D01*
X34119Y1137D01*
X34102Y1054D01*
X34091Y1015D01*
X34080Y980D01*
X34065Y947D01*
X34048Y917D01*
X34047Y915D01*
X34045Y911D01*
X34039Y904D01*
X34032Y895D01*
X34022Y884D01*
X34011Y873D01*
X33984Y847D01*
X33948Y821D01*
X33908Y798D01*
X33885Y789D01*
X33861Y782D01*
X33835Y778D01*
X33808Y776D01*
X33800D01*
X33793Y778D01*
X33784D01*
X33771Y780D01*
X33756Y784D01*
X33721Y793D01*
X33702Y800D01*
X33682Y810D01*
X33663Y821D01*
X33643Y836D01*
X33622Y850D01*
X33602Y869D01*
X33584Y891D01*
X33565Y915D01*
X33563Y917D01*
X33561Y923D01*
X33558Y930D01*
X33550Y943D01*
X33545Y960D01*
X33537Y978D01*
X33528Y1002D01*
X33521Y1030D01*
X33511Y1063D01*
X33504Y1098D01*
X33495Y1139D01*
X33489Y1185D01*
X33484Y1235D01*
X33478Y1291D01*
X33476Y1350D01*
X33474Y1415D01*
Y1417D01*
Y1419D01*
Y1424D01*
Y1430D01*
Y1448D01*
X33476Y1472D01*
X33478Y1500D01*
X33480Y1534D01*
X33482Y1571D01*
X33485Y1610D01*
X33497Y1691D01*
X33513Y1772D01*
X33522Y1811D01*
X33535Y1847D01*
X33548Y1880D01*
X33565Y1909D01*
X33567Y1911D01*
X33569Y1915D01*
X33574Y1922D01*
X33582Y1932D01*
X33591Y1943D01*
X33602Y1954D01*
X33630Y1982D01*
X33665Y2008D01*
X33706Y2030D01*
X33728Y2039D01*
X33752Y2046D01*
X33778Y2050D01*
X33806Y2052D01*
X33821D01*
X33830Y2050D01*
D02*
G37*
G36*
X31836D02*
X31849Y2048D01*
X31863Y2045D01*
X31899Y2034D01*
X31917Y2026D01*
X31937Y2017D01*
X31956Y2006D01*
X31976Y1993D01*
X31997Y1976D01*
X32017Y1956D01*
X32036Y1935D01*
X32054Y1909D01*
X32056Y1908D01*
X32058Y1902D01*
X32063Y1895D01*
X32069Y1882D01*
X32076Y1865D01*
X32084Y1847D01*
X32091Y1822D01*
X32100Y1795D01*
X32110Y1761D01*
X32117Y1726D01*
X32124Y1685D01*
X32132Y1639D01*
X32137Y1591D01*
X32143Y1535D01*
X32145Y1478D01*
X32147Y1413D01*
Y1411D01*
Y1410D01*
Y1404D01*
Y1398D01*
Y1380D01*
X32145Y1356D01*
Y1326D01*
X32141Y1295D01*
X32139Y1258D01*
X32136Y1219D01*
X32124Y1137D01*
X32108Y1054D01*
X32097Y1015D01*
X32086Y980D01*
X32071Y947D01*
X32054Y917D01*
X32052Y915D01*
X32050Y911D01*
X32045Y904D01*
X32037Y895D01*
X32028Y884D01*
X32017Y873D01*
X31989Y847D01*
X31954Y821D01*
X31913Y798D01*
X31891Y789D01*
X31867Y782D01*
X31841Y778D01*
X31813Y776D01*
X31806D01*
X31799Y778D01*
X31789D01*
X31776Y780D01*
X31762Y784D01*
X31726Y793D01*
X31708Y800D01*
X31688Y810D01*
X31669Y821D01*
X31649Y836D01*
X31628Y850D01*
X31608Y869D01*
X31589Y891D01*
X31571Y915D01*
X31569Y917D01*
X31567Y923D01*
X31563Y930D01*
X31556Y943D01*
X31550Y960D01*
X31543Y978D01*
X31534Y1002D01*
X31526Y1030D01*
X31517Y1063D01*
X31510Y1098D01*
X31500Y1139D01*
X31495Y1185D01*
X31489Y1235D01*
X31484Y1291D01*
X31482Y1350D01*
X31480Y1415D01*
Y1417D01*
Y1419D01*
Y1424D01*
Y1430D01*
Y1448D01*
X31482Y1472D01*
X31484Y1500D01*
X31486Y1534D01*
X31488Y1571D01*
X31491Y1610D01*
X31502Y1691D01*
X31519Y1772D01*
X31528Y1811D01*
X31541Y1847D01*
X31554Y1880D01*
X31571Y1909D01*
X31573Y1911D01*
X31575Y1915D01*
X31580Y1922D01*
X31588Y1932D01*
X31597Y1943D01*
X31608Y1954D01*
X31636Y1982D01*
X31671Y2008D01*
X31712Y2030D01*
X31734Y2039D01*
X31758Y2046D01*
X31784Y2050D01*
X31812Y2052D01*
X31826D01*
X31836Y2050D01*
D02*
G37*
G36*
X14243Y22995D02*
Y20701D01*
X4978D01*
Y22995D01*
Y25018D01*
X14243D01*
Y22995D01*
D02*
G37*
G36*
X12910Y8562D02*
X12921Y8560D01*
X12935Y8559D01*
X12950Y8557D01*
X12966Y8555D01*
X13003Y8546D01*
X13039Y8533D01*
X13058Y8525D01*
X13076Y8515D01*
X13094Y8504D01*
X13110Y8491D01*
X13111Y8490D01*
X13114Y8488D01*
X13118Y8484D01*
X13124Y8478D01*
X13129Y8470D01*
X13138Y8462D01*
X13146Y8450D01*
X13155Y8438D01*
X13165Y8424D01*
X13173Y8408D01*
X13183Y8391D01*
X13191Y8373D01*
X13200Y8352D01*
X13208Y8330D01*
X13214Y8307D01*
X13220Y8281D01*
X13063Y8246D01*
Y8247D01*
X13062Y8249D01*
X13059Y8259D01*
X13055Y8271D01*
X13048Y8288D01*
X13039Y8305D01*
X13028Y8325D01*
X13014Y8343D01*
X12998Y8359D01*
X12997Y8360D01*
X12990Y8364D01*
X12980Y8371D01*
X12967Y8378D01*
X12950Y8385D01*
X12932Y8392D01*
X12911Y8397D01*
X12887Y8398D01*
X12877D01*
X12870Y8397D01*
X12862Y8395D01*
X12852Y8394D01*
X12829Y8388D01*
X12802Y8378D01*
X12776Y8364D01*
X12762Y8356D01*
X12749Y8346D01*
X12736Y8333D01*
X12723Y8319D01*
Y8318D01*
X12721Y8315D01*
X12718Y8311D01*
X12714Y8305D01*
X12709Y8297D01*
X12704Y8287D01*
X12698Y8274D01*
X12692Y8260D01*
X12687Y8244D01*
X12681Y8228D01*
X12676Y8208D01*
X12671Y8187D01*
X12667Y8163D01*
X12664Y8137D01*
X12663Y8111D01*
X12661Y8081D01*
Y8080D01*
Y8074D01*
Y8064D01*
X12663Y8053D01*
Y8039D01*
X12666Y8022D01*
X12667Y8003D01*
X12670Y7985D01*
X12678Y7943D01*
X12690Y7899D01*
X12707Y7857D01*
X12716Y7838D01*
X12728Y7820D01*
X12729Y7819D01*
X12731Y7817D01*
X12739Y7809D01*
X12752Y7796D01*
X12769Y7782D01*
X12791Y7768D01*
X12819Y7755D01*
X12850Y7747D01*
X12867Y7745D01*
X12886Y7744D01*
X12894D01*
X12903Y7745D01*
X12914Y7747D01*
X12928Y7750D01*
X12945Y7752D01*
X12962Y7758D01*
X12980Y7765D01*
X12983Y7767D01*
X12989Y7769D01*
X12998Y7774D01*
X13011Y7781D01*
X13024Y7789D01*
X13039Y7799D01*
X13055Y7810D01*
X13070Y7824D01*
Y7944D01*
X12890D01*
Y8105D01*
X13230D01*
Y7726D01*
X13227Y7723D01*
X13220Y7716D01*
X13208Y7705D01*
X13191Y7690D01*
X13170Y7674D01*
X13146Y7657D01*
X13117Y7638D01*
X13083Y7621D01*
X13082D01*
X13079Y7620D01*
X13073Y7617D01*
X13067Y7614D01*
X13058Y7612D01*
X13048Y7609D01*
X13024Y7600D01*
X12996Y7593D01*
X12963Y7586D01*
X12929Y7581D01*
X12894Y7579D01*
X12883D01*
X12874Y7581D01*
X12864D01*
X12853Y7582D01*
X12839Y7583D01*
X12825Y7586D01*
X12794Y7593D01*
X12759Y7603D01*
X12723Y7617D01*
X12690Y7635D01*
X12688Y7637D01*
X12685Y7638D01*
X12681Y7641D01*
X12676Y7647D01*
X12659Y7659D01*
X12639Y7678D01*
X12616Y7702D01*
X12592Y7731D01*
X12570Y7765D01*
X12549Y7805D01*
Y7806D01*
X12546Y7810D01*
X12544Y7816D01*
X12540Y7824D01*
X12537Y7836D01*
X12533Y7848D01*
X12528Y7864D01*
X12523Y7881D01*
X12519Y7899D01*
X12513Y7920D01*
X12509Y7941D01*
X12506Y7965D01*
X12501Y8016D01*
X12498Y8071D01*
Y8072D01*
Y8078D01*
Y8087D01*
X12499Y8098D01*
Y8111D01*
X12501Y8127D01*
X12502Y8144D01*
X12505Y8164D01*
X12511Y8206D01*
X12520Y8252D01*
X12533Y8297D01*
X12550Y8340D01*
Y8342D01*
X12553Y8346D01*
X12556Y8352D01*
X12560Y8359D01*
X12564Y8369D01*
X12571Y8378D01*
X12587Y8402D01*
X12606Y8431D01*
X12629Y8457D01*
X12656Y8484D01*
X12685Y8507D01*
X12687D01*
X12690Y8509D01*
X12694Y8512D01*
X12701Y8515D01*
X12708Y8519D01*
X12718Y8525D01*
X12729Y8529D01*
X12742Y8535D01*
X12771Y8545D01*
X12805Y8555D01*
X12843Y8560D01*
X12886Y8563D01*
X12900D01*
X12910Y8562D01*
D02*
G37*
G36*
X13999Y7595D02*
X13840D01*
X13526Y8215D01*
Y7595D01*
X13379D01*
Y8548D01*
X13531D01*
X13853Y7910D01*
Y8548D01*
X13999D01*
Y7595D01*
D02*
G37*
G36*
X12375D02*
X12217D01*
Y8548D01*
X12375D01*
Y7595D01*
D02*
G37*
G36*
X15823Y20752D02*
X15672D01*
Y21441D01*
X15671Y21440D01*
X15668Y21437D01*
X15664Y21433D01*
X15657Y21426D01*
X15650Y21419D01*
X15640Y21409D01*
X15629Y21399D01*
X15616Y21389D01*
X15588Y21366D01*
X15555Y21342D01*
X15517Y21321D01*
X15478Y21303D01*
Y21469D01*
X15479D01*
X15481Y21471D01*
X15489Y21474D01*
X15500Y21481D01*
X15517Y21489D01*
X15537Y21502D01*
X15558Y21517D01*
X15582Y21536D01*
X15608Y21558D01*
X15609Y21560D01*
X15610Y21561D01*
X15619Y21569D01*
X15630Y21584D01*
X15644Y21602D01*
X15660Y21623D01*
X15675Y21648D01*
X15689Y21677D01*
X15701Y21708D01*
X15823D01*
Y20752D01*
D02*
G37*
G36*
X14966Y20913D02*
X15358D01*
Y20752D01*
X14808D01*
Y21698D01*
X14966D01*
Y20913D01*
D02*
G37*
G36*
X37064Y19376D02*
Y19373D01*
Y19367D01*
Y19357D01*
Y19344D01*
Y19329D01*
X37063Y19311D01*
Y19291D01*
X37061Y19268D01*
X37059Y19223D01*
X37056Y19178D01*
X37053Y19156D01*
X37050Y19134D01*
X37047Y19115D01*
X37043Y19098D01*
Y19096D01*
X37042Y19094D01*
X37040Y19089D01*
X37039Y19084D01*
X37033Y19068D01*
X37023Y19048D01*
X37011Y19027D01*
X36995Y19003D01*
X36975Y18981D01*
X36950Y18960D01*
X36949D01*
X36947Y18957D01*
X36943Y18955D01*
X36937Y18951D01*
X36930Y18947D01*
X36922Y18943D01*
X36910Y18939D01*
X36899Y18934D01*
X36872Y18924D01*
X36840Y18916D01*
X36803Y18910D01*
X36761Y18907D01*
X36750D01*
X36741Y18909D01*
X36730D01*
X36719Y18910D01*
X36691Y18913D01*
X36661Y18919D01*
X36629Y18926D01*
X36598Y18937D01*
X36569Y18951D01*
X36568D01*
X36567Y18953D01*
X36558Y18960D01*
X36545Y18970D01*
X36531Y18984D01*
X36514Y19001D01*
X36497Y19022D01*
X36482Y19046D01*
X36469Y19074D01*
Y19075D01*
X36468Y19078D01*
X36466Y19082D01*
X36465Y19089D01*
X36462Y19099D01*
X36459Y19110D01*
X36457Y19125D01*
X36455Y19140D01*
X36452Y19160D01*
X36450Y19181D01*
X36447Y19205D01*
X36444Y19232D01*
X36442Y19261D01*
X36441Y19294D01*
X36440Y19329D01*
Y19367D01*
Y19876D01*
X36598D01*
Y19360D01*
Y19359D01*
Y19354D01*
Y19349D01*
Y19340D01*
Y19332D01*
Y19321D01*
X36599Y19295D01*
Y19270D01*
X36600Y19243D01*
X36602Y19220D01*
Y19212D01*
X36603Y19204D01*
Y19201D01*
X36606Y19194D01*
X36609Y19182D01*
X36613Y19168D01*
X36620Y19151D01*
X36629Y19136D01*
X36638Y19120D01*
X36653Y19106D01*
X36654Y19105D01*
X36660Y19101D01*
X36668Y19095D01*
X36681Y19089D01*
X36695Y19084D01*
X36713Y19078D01*
X36734Y19074D01*
X36757Y19072D01*
X36767D01*
X36777Y19074D01*
X36789Y19075D01*
X36803Y19078D01*
X36817Y19082D01*
X36832Y19088D01*
X36846Y19096D01*
X36847Y19098D01*
X36851Y19101D01*
X36857Y19106D01*
X36864Y19113D01*
X36872Y19123D01*
X36879Y19134D01*
X36887Y19147D01*
X36892Y19163D01*
Y19165D01*
X36895Y19171D01*
Y19177D01*
X36896Y19184D01*
X36898Y19192D01*
X36899Y19202D01*
X36901Y19213D01*
X36902Y19228D01*
X36903Y19243D01*
Y19260D01*
X36905Y19278D01*
X36906Y19299D01*
Y19323D01*
Y19349D01*
Y19876D01*
X37064D01*
Y19376D01*
D02*
G37*
G36*
X37796Y19715D02*
X37565D01*
Y18923D01*
X37407D01*
Y19715D01*
X37174D01*
Y19876D01*
X37796D01*
Y19715D01*
D02*
G37*
G36*
X35956Y19890D02*
X35967D01*
X35981Y19887D01*
X35998Y19884D01*
X36017Y19880D01*
X36036Y19876D01*
X36058Y19869D01*
X36080Y19860D01*
X36103Y19849D01*
X36125Y19838D01*
X36148Y19822D01*
X36170Y19805D01*
X36192Y19786D01*
X36213Y19763D01*
X36214Y19762D01*
X36217Y19758D01*
X36223Y19750D01*
X36230Y19739D01*
X36237Y19727D01*
X36247Y19710D01*
X36256Y19691D01*
X36266Y19670D01*
X36276Y19645D01*
X36285Y19618D01*
X36294Y19588D01*
X36301Y19556D01*
X36309Y19521D01*
X36314Y19483D01*
X36317Y19442D01*
X36318Y19399D01*
Y19397D01*
Y19390D01*
Y19377D01*
X36317Y19360D01*
X36316Y19340D01*
X36313Y19316D01*
X36309Y19291D01*
X36304Y19263D01*
X36299Y19233D01*
X36292Y19204D01*
X36282Y19173D01*
X36270Y19142D01*
X36258Y19110D01*
X36242Y19081D01*
X36225Y19053D01*
X36206Y19026D01*
X36204Y19024D01*
X36201Y19020D01*
X36196Y19015D01*
X36187Y19008D01*
X36177Y18999D01*
X36166Y18988D01*
X36152Y18978D01*
X36135Y18967D01*
X36117Y18955D01*
X36097Y18946D01*
X36076Y18936D01*
X36052Y18926D01*
X36027Y18919D01*
X35998Y18913D01*
X35970Y18909D01*
X35939Y18907D01*
X35932D01*
X35922Y18909D01*
X35911D01*
X35897Y18912D01*
X35880Y18913D01*
X35862Y18917D01*
X35842Y18922D01*
X35821Y18929D01*
X35800Y18936D01*
X35777Y18946D01*
X35755Y18957D01*
X35733Y18971D01*
X35711Y18986D01*
X35691Y19003D01*
X35671Y19024D01*
X35670Y19026D01*
X35667Y19030D01*
X35661Y19039D01*
X35654Y19048D01*
X35646Y19063D01*
X35636Y19079D01*
X35626Y19099D01*
X35616Y19120D01*
X35605Y19146D01*
X35595Y19174D01*
X35585Y19204D01*
X35577Y19236D01*
X35570Y19271D01*
X35564Y19309D01*
X35561Y19350D01*
X35560Y19392D01*
Y19394D01*
Y19399D01*
Y19409D01*
X35561Y19421D01*
Y19435D01*
X35563Y19452D01*
X35564Y19471D01*
X35566Y19491D01*
X35573Y19536D01*
X35581Y19583D01*
X35592Y19629D01*
X35601Y19652D01*
X35609Y19673D01*
Y19674D01*
X35612Y19677D01*
X35615Y19683D01*
X35619Y19691D01*
X35623Y19700D01*
X35629Y19711D01*
X35645Y19735D01*
X35664Y19762D01*
X35685Y19789D01*
X35712Y19814D01*
X35740Y19836D01*
X35742D01*
X35745Y19839D01*
X35749Y19842D01*
X35755Y19845D01*
X35763Y19849D01*
X35773Y19853D01*
X35784Y19859D01*
X35795Y19865D01*
X35825Y19875D01*
X35859Y19883D01*
X35897Y19889D01*
X35939Y19891D01*
X35946D01*
X35956Y19890D01*
D02*
G37*
G36*
X1541Y18593D02*
X1382D01*
X1068Y19213D01*
Y18593D01*
X921D01*
Y19546D01*
X1073D01*
X1395Y18909D01*
Y19546D01*
X1541D01*
Y18593D01*
D02*
G37*
G36*
X767D02*
X610D01*
Y19546D01*
X767D01*
Y18593D01*
D02*
G37*
G36*
X28448Y8790D02*
X28460Y8789D01*
X28474Y8787D01*
X28488Y8786D01*
X28505Y8782D01*
X28539Y8773D01*
X28575Y8759D01*
X28592Y8751D01*
X28610Y8741D01*
X28626Y8730D01*
X28641Y8716D01*
X28643Y8714D01*
X28644Y8713D01*
X28649Y8707D01*
X28654Y8701D01*
X28660Y8694D01*
X28667Y8685D01*
X28674Y8673D01*
X28681Y8661D01*
X28688Y8646D01*
X28696Y8631D01*
X28704Y8613D01*
X28709Y8594D01*
X28715Y8573D01*
X28719Y8552D01*
X28723Y8528D01*
X28725Y8503D01*
X28567Y8494D01*
Y8496D01*
Y8497D01*
X28565Y8501D01*
X28564Y8507D01*
X28561Y8520D01*
X28557Y8537D01*
X28550Y8553D01*
X28543Y8572D01*
X28533Y8587D01*
X28520Y8601D01*
X28519Y8603D01*
X28515Y8606D01*
X28506Y8611D01*
X28495Y8617D01*
X28481Y8623D01*
X28464Y8628D01*
X28444Y8631D01*
X28422Y8632D01*
X28412D01*
X28399Y8631D01*
X28385Y8630D01*
X28369Y8625D01*
X28354Y8621D01*
X28337Y8614D01*
X28323Y8606D01*
X28321Y8604D01*
X28317Y8601D01*
X28312Y8596D01*
X28306Y8587D01*
X28300Y8577D01*
X28295Y8566D01*
X28290Y8553D01*
X28289Y8539D01*
Y8538D01*
Y8534D01*
X28290Y8527D01*
X28293Y8517D01*
X28296Y8507D01*
X28302Y8497D01*
X28310Y8486D01*
X28320Y8476D01*
X28321Y8474D01*
X28327Y8472D01*
X28336Y8466D01*
X28350Y8459D01*
X28360Y8455D01*
X28369Y8449D01*
X28381Y8445D01*
X28395Y8439D01*
X28409Y8434D01*
X28426Y8428D01*
X28444Y8422D01*
X28464Y8417D01*
X28465D01*
X28469Y8415D01*
X28475Y8414D01*
X28484Y8411D01*
X28493Y8407D01*
X28505Y8404D01*
X28530Y8394D01*
X28558Y8383D01*
X28586Y8372D01*
X28613Y8357D01*
X28626Y8350D01*
X28636Y8343D01*
X28639Y8342D01*
X28644Y8336D01*
X28654Y8329D01*
X28667Y8318D01*
X28680Y8304D01*
X28694Y8287D01*
X28706Y8267D01*
X28718Y8246D01*
X28719Y8243D01*
X28722Y8235D01*
X28726Y8222D01*
X28732Y8205D01*
X28737Y8184D01*
X28742Y8159D01*
X28744Y8131D01*
X28746Y8099D01*
Y8098D01*
Y8094D01*
Y8088D01*
X28744Y8078D01*
X28743Y8068D01*
X28742Y8056D01*
X28739Y8042D01*
X28736Y8028D01*
X28727Y7994D01*
X28713Y7959D01*
X28705Y7942D01*
X28694Y7925D01*
X28682Y7908D01*
X28668Y7891D01*
X28667Y7889D01*
X28664Y7887D01*
X28660Y7884D01*
X28654Y7878D01*
X28646Y7871D01*
X28636Y7864D01*
X28623Y7857D01*
X28610Y7850D01*
X28595Y7842D01*
X28577Y7834D01*
X28557Y7827D01*
X28536Y7820D01*
X28512Y7815D01*
X28486Y7812D01*
X28460Y7809D01*
X28430Y7808D01*
X28417D01*
X28403Y7811D01*
X28385Y7813D01*
X28362Y7818D01*
X28337Y7825D01*
X28310Y7834D01*
X28282Y7849D01*
X28254Y7865D01*
X28226Y7888D01*
X28199Y7913D01*
X28186Y7929D01*
X28173Y7946D01*
X28162Y7964D01*
X28152Y7983D01*
X28142Y8004D01*
X28133Y8026D01*
X28126Y8052D01*
X28118Y8077D01*
X28114Y8105D01*
X28110Y8135D01*
X28264Y8153D01*
Y8152D01*
X28265Y8145D01*
X28266Y8136D01*
X28269Y8125D01*
X28274Y8111D01*
X28279Y8095D01*
X28286Y8078D01*
X28295Y8061D01*
X28305Y8045D01*
X28316Y8028D01*
X28330Y8012D01*
X28347Y7998D01*
X28365Y7987D01*
X28385Y7978D01*
X28409Y7971D01*
X28434Y7970D01*
X28446D01*
X28458Y7971D01*
X28475Y7974D01*
X28492Y7978D01*
X28510Y7985D01*
X28529Y7994D01*
X28546Y8006D01*
X28547Y8008D01*
X28553Y8014D01*
X28560Y8022D01*
X28567Y8032D01*
X28575Y8046D01*
X28581Y8061D01*
X28586Y8080D01*
X28588Y8099D01*
Y8101D01*
Y8105D01*
X28586Y8111D01*
Y8119D01*
X28581Y8136D01*
X28578Y8146D01*
X28572Y8154D01*
Y8156D01*
X28570Y8159D01*
X28561Y8167D01*
X28555Y8173D01*
X28548Y8180D01*
X28539Y8185D01*
X28529Y8191D01*
X28527Y8193D01*
X28523Y8194D01*
X28513Y8198D01*
X28500Y8204D01*
X28492Y8207D01*
X28482Y8209D01*
X28471Y8214D01*
X28457Y8218D01*
X28443Y8224D01*
X28426Y8229D01*
X28407Y8235D01*
X28388Y8240D01*
X28386D01*
X28383Y8242D01*
X28378Y8243D01*
X28371Y8246D01*
X28362Y8249D01*
X28354Y8252D01*
X28331Y8260D01*
X28307Y8270D01*
X28282Y8281D01*
X28259Y8294D01*
X28240Y8307D01*
X28238Y8308D01*
X28233Y8314D01*
X28224Y8321D01*
X28213Y8332D01*
X28202Y8345D01*
X28189Y8360D01*
X28176Y8379D01*
X28165Y8400D01*
X28164Y8403D01*
X28161Y8410D01*
X28157Y8422D01*
X28152Y8438D01*
X28147Y8456D01*
X28142Y8477D01*
X28140Y8501D01*
X28138Y8525D01*
Y8527D01*
Y8528D01*
Y8532D01*
Y8538D01*
X28140Y8553D01*
X28142Y8572D01*
X28147Y8593D01*
X28154Y8617D01*
X28162Y8641D01*
X28173Y8665D01*
Y8666D01*
X28175Y8668D01*
X28181Y8675D01*
X28188Y8686D01*
X28199Y8700D01*
X28213Y8716D01*
X28230Y8731D01*
X28248Y8747D01*
X28271Y8759D01*
X28272D01*
X28274Y8761D01*
X28282Y8765D01*
X28296Y8769D01*
X28314Y8776D01*
X28337Y8782D01*
X28362Y8786D01*
X28393Y8790D01*
X28426Y8792D01*
X28438D01*
X28448Y8790D01*
D02*
G37*
G36*
X27720D02*
X27731Y8789D01*
X27745Y8787D01*
X27759Y8786D01*
X27776Y8782D01*
X27810Y8773D01*
X27846Y8759D01*
X27863Y8751D01*
X27882Y8741D01*
X27897Y8730D01*
X27913Y8716D01*
X27914Y8714D01*
X27915Y8713D01*
X27920Y8707D01*
X27925Y8701D01*
X27931Y8694D01*
X27938Y8685D01*
X27945Y8673D01*
X27952Y8661D01*
X27959Y8646D01*
X27968Y8631D01*
X27975Y8613D01*
X27980Y8594D01*
X27986Y8573D01*
X27990Y8552D01*
X27994Y8528D01*
X27996Y8503D01*
X27838Y8494D01*
Y8496D01*
Y8497D01*
X27837Y8501D01*
X27835Y8507D01*
X27832Y8520D01*
X27828Y8537D01*
X27821Y8553D01*
X27814Y8572D01*
X27804Y8587D01*
X27791Y8601D01*
X27790Y8603D01*
X27786Y8606D01*
X27777Y8611D01*
X27766Y8617D01*
X27752Y8623D01*
X27735Y8628D01*
X27715Y8631D01*
X27693Y8632D01*
X27683D01*
X27670Y8631D01*
X27656Y8630D01*
X27641Y8625D01*
X27625Y8621D01*
X27608Y8614D01*
X27594Y8606D01*
X27593Y8604D01*
X27588Y8601D01*
X27583Y8596D01*
X27577Y8587D01*
X27572Y8577D01*
X27566Y8566D01*
X27562Y8553D01*
X27560Y8539D01*
Y8538D01*
Y8534D01*
X27562Y8527D01*
X27564Y8517D01*
X27567Y8507D01*
X27573Y8497D01*
X27581Y8486D01*
X27591Y8476D01*
X27593Y8474D01*
X27598Y8472D01*
X27607Y8466D01*
X27621Y8459D01*
X27631Y8455D01*
X27641Y8449D01*
X27652Y8445D01*
X27666Y8439D01*
X27680Y8434D01*
X27697Y8428D01*
X27715Y8422D01*
X27735Y8417D01*
X27736D01*
X27741Y8415D01*
X27746Y8414D01*
X27755Y8411D01*
X27765Y8407D01*
X27776Y8404D01*
X27801Y8394D01*
X27829Y8383D01*
X27858Y8372D01*
X27884Y8357D01*
X27897Y8350D01*
X27907Y8343D01*
X27910Y8342D01*
X27915Y8336D01*
X27925Y8329D01*
X27938Y8318D01*
X27951Y8304D01*
X27965Y8287D01*
X27978Y8267D01*
X27989Y8246D01*
X27990Y8243D01*
X27993Y8235D01*
X27997Y8222D01*
X28003Y8205D01*
X28009Y8184D01*
X28013Y8159D01*
X28016Y8131D01*
X28017Y8099D01*
Y8098D01*
Y8094D01*
Y8088D01*
X28016Y8078D01*
X28014Y8068D01*
X28013Y8056D01*
X28010Y8042D01*
X28007Y8028D01*
X27999Y7994D01*
X27985Y7959D01*
X27976Y7942D01*
X27965Y7925D01*
X27954Y7908D01*
X27939Y7891D01*
X27938Y7889D01*
X27935Y7887D01*
X27931Y7884D01*
X27925Y7878D01*
X27917Y7871D01*
X27907Y7864D01*
X27894Y7857D01*
X27882Y7850D01*
X27866Y7842D01*
X27848Y7834D01*
X27828Y7827D01*
X27807Y7820D01*
X27783Y7815D01*
X27758Y7812D01*
X27731Y7809D01*
X27701Y7808D01*
X27689D01*
X27674Y7811D01*
X27656Y7813D01*
X27634Y7818D01*
X27608Y7825D01*
X27581Y7834D01*
X27553Y7849D01*
X27525Y7865D01*
X27497Y7888D01*
X27470Y7913D01*
X27457Y7929D01*
X27445Y7946D01*
X27433Y7964D01*
X27423Y7983D01*
X27414Y8004D01*
X27404Y8026D01*
X27397Y8052D01*
X27390Y8077D01*
X27385Y8105D01*
X27381Y8135D01*
X27535Y8153D01*
Y8152D01*
X27536Y8145D01*
X27538Y8136D01*
X27541Y8125D01*
X27545Y8111D01*
X27550Y8095D01*
X27557Y8078D01*
X27566Y8061D01*
X27576Y8045D01*
X27587Y8028D01*
X27601Y8012D01*
X27618Y7998D01*
X27636Y7987D01*
X27656Y7978D01*
X27680Y7971D01*
X27705Y7970D01*
X27717D01*
X27729Y7971D01*
X27746Y7974D01*
X27763Y7978D01*
X27782Y7985D01*
X27800Y7994D01*
X27817Y8006D01*
X27818Y8008D01*
X27824Y8014D01*
X27831Y8022D01*
X27838Y8032D01*
X27846Y8046D01*
X27852Y8061D01*
X27858Y8080D01*
X27859Y8099D01*
Y8101D01*
Y8105D01*
X27858Y8111D01*
Y8119D01*
X27852Y8136D01*
X27849Y8146D01*
X27844Y8154D01*
Y8156D01*
X27841Y8159D01*
X27832Y8167D01*
X27827Y8173D01*
X27820Y8180D01*
X27810Y8185D01*
X27800Y8191D01*
X27798Y8193D01*
X27794Y8194D01*
X27784Y8198D01*
X27772Y8204D01*
X27763Y8207D01*
X27753Y8209D01*
X27742Y8214D01*
X27728Y8218D01*
X27714Y8224D01*
X27697Y8229D01*
X27679Y8235D01*
X27659Y8240D01*
X27657D01*
X27655Y8242D01*
X27649Y8243D01*
X27642Y8246D01*
X27634Y8249D01*
X27625Y8252D01*
X27603Y8260D01*
X27579Y8270D01*
X27553Y8281D01*
X27531Y8294D01*
X27511Y8307D01*
X27509Y8308D01*
X27504Y8314D01*
X27495Y8321D01*
X27484Y8332D01*
X27473Y8345D01*
X27460Y8360D01*
X27447Y8379D01*
X27436Y8400D01*
X27435Y8403D01*
X27432Y8410D01*
X27428Y8422D01*
X27423Y8438D01*
X27418Y8456D01*
X27414Y8477D01*
X27411Y8501D01*
X27409Y8525D01*
Y8527D01*
Y8528D01*
Y8532D01*
Y8538D01*
X27411Y8553D01*
X27414Y8572D01*
X27418Y8593D01*
X27425Y8617D01*
X27433Y8641D01*
X27445Y8665D01*
Y8666D01*
X27446Y8668D01*
X27452Y8675D01*
X27459Y8686D01*
X27470Y8700D01*
X27484Y8716D01*
X27501Y8731D01*
X27519Y8747D01*
X27542Y8759D01*
X27543D01*
X27545Y8761D01*
X27553Y8765D01*
X27567Y8769D01*
X27586Y8776D01*
X27608Y8782D01*
X27634Y8786D01*
X27665Y8790D01*
X27697Y8792D01*
X27710D01*
X27720Y8790D01*
D02*
G37*
G36*
X30839Y7823D02*
X30680D01*
X30366Y8443D01*
Y7823D01*
X30219D01*
Y8776D01*
X30371D01*
X30693Y8139D01*
Y8776D01*
X30839D01*
Y7823D01*
D02*
G37*
G36*
X30068Y8615D02*
X29645D01*
Y8404D01*
X30038D01*
Y8243D01*
X29645D01*
Y7984D01*
X30082D01*
Y7823D01*
X29487D01*
Y8776D01*
X30068D01*
Y8615D01*
D02*
G37*
G36*
X29415Y7657D02*
X28791D01*
Y7723D01*
X29415D01*
Y7657D01*
D02*
G37*
G36*
X19773Y8485D02*
X19784Y8484D01*
X19798Y8483D01*
X19812Y8481D01*
X19829Y8477D01*
X19863Y8469D01*
X19900Y8454D01*
X19917Y8446D01*
X19935Y8436D01*
X19950Y8425D01*
X19966Y8411D01*
X19967Y8409D01*
X19969Y8408D01*
X19973Y8402D01*
X19979Y8397D01*
X19984Y8390D01*
X19991Y8380D01*
X19998Y8368D01*
X20005Y8356D01*
X20013Y8342D01*
X20021Y8326D01*
X20028Y8308D01*
X20034Y8290D01*
X20039Y8268D01*
X20044Y8247D01*
X20048Y8223D01*
X20049Y8198D01*
X19891Y8189D01*
Y8191D01*
Y8192D01*
X19890Y8196D01*
X19888Y8202D01*
X19886Y8215D01*
X19881Y8232D01*
X19874Y8249D01*
X19867Y8267D01*
X19857Y8282D01*
X19845Y8297D01*
X19843Y8298D01*
X19839Y8301D01*
X19831Y8306D01*
X19819Y8312D01*
X19805Y8318D01*
X19788Y8323D01*
X19769Y8326D01*
X19746Y8328D01*
X19736D01*
X19724Y8326D01*
X19709Y8325D01*
X19694Y8321D01*
X19678Y8316D01*
X19662Y8309D01*
X19647Y8301D01*
X19646Y8299D01*
X19642Y8297D01*
X19636Y8291D01*
X19630Y8282D01*
X19625Y8273D01*
X19619Y8261D01*
X19615Y8249D01*
X19614Y8235D01*
Y8233D01*
Y8229D01*
X19615Y8222D01*
X19618Y8212D01*
X19621Y8202D01*
X19626Y8192D01*
X19635Y8181D01*
X19645Y8171D01*
X19646Y8170D01*
X19652Y8167D01*
X19660Y8161D01*
X19674Y8154D01*
X19684Y8150D01*
X19694Y8144D01*
X19705Y8140D01*
X19719Y8134D01*
X19733Y8129D01*
X19750Y8123D01*
X19769Y8118D01*
X19788Y8112D01*
X19790D01*
X19794Y8110D01*
X19800Y8109D01*
X19808Y8106D01*
X19818Y8102D01*
X19829Y8099D01*
X19855Y8089D01*
X19883Y8078D01*
X19911Y8067D01*
X19938Y8053D01*
X19950Y8046D01*
X19960Y8039D01*
X19963Y8037D01*
X19969Y8032D01*
X19979Y8024D01*
X19991Y8013D01*
X20004Y7999D01*
X20018Y7982D01*
X20031Y7962D01*
X20042Y7941D01*
X20044Y7938D01*
X20046Y7930D01*
X20051Y7917D01*
X20056Y7900D01*
X20062Y7879D01*
X20066Y7854D01*
X20069Y7826D01*
X20070Y7795D01*
Y7793D01*
Y7789D01*
Y7783D01*
X20069Y7774D01*
X20067Y7764D01*
X20066Y7751D01*
X20063Y7737D01*
X20060Y7723D01*
X20052Y7689D01*
X20038Y7654D01*
X20029Y7637D01*
X20018Y7620D01*
X20007Y7603D01*
X19993Y7586D01*
X19991Y7585D01*
X19989Y7582D01*
X19984Y7579D01*
X19979Y7573D01*
X19970Y7566D01*
X19960Y7559D01*
X19948Y7552D01*
X19935Y7545D01*
X19919Y7537D01*
X19901Y7530D01*
X19881Y7523D01*
X19860Y7516D01*
X19836Y7510D01*
X19811Y7507D01*
X19784Y7504D01*
X19755Y7503D01*
X19742D01*
X19728Y7506D01*
X19709Y7509D01*
X19687Y7513D01*
X19662Y7520D01*
X19635Y7530D01*
X19607Y7544D01*
X19578Y7561D01*
X19550Y7583D01*
X19523Y7609D01*
X19511Y7624D01*
X19498Y7641D01*
X19487Y7659D01*
X19477Y7678D01*
X19467Y7699D01*
X19457Y7721D01*
X19450Y7747D01*
X19443Y7772D01*
X19439Y7800D01*
X19435Y7830D01*
X19588Y7848D01*
Y7847D01*
X19590Y7840D01*
X19591Y7831D01*
X19594Y7820D01*
X19598Y7806D01*
X19604Y7790D01*
X19611Y7774D01*
X19619Y7757D01*
X19629Y7740D01*
X19640Y7723D01*
X19654Y7707D01*
X19671Y7693D01*
X19690Y7682D01*
X19709Y7673D01*
X19733Y7666D01*
X19759Y7665D01*
X19770D01*
X19783Y7666D01*
X19800Y7669D01*
X19817Y7673D01*
X19835Y7681D01*
X19853Y7689D01*
X19870Y7702D01*
X19872Y7703D01*
X19877Y7709D01*
X19884Y7717D01*
X19891Y7727D01*
X19900Y7741D01*
X19905Y7757D01*
X19911Y7775D01*
X19912Y7795D01*
Y7796D01*
Y7800D01*
X19911Y7806D01*
Y7814D01*
X19905Y7831D01*
X19903Y7841D01*
X19897Y7850D01*
Y7851D01*
X19894Y7854D01*
X19886Y7862D01*
X19880Y7868D01*
X19873Y7875D01*
X19863Y7881D01*
X19853Y7886D01*
X19852Y7888D01*
X19848Y7889D01*
X19838Y7893D01*
X19825Y7899D01*
X19817Y7902D01*
X19807Y7905D01*
X19795Y7909D01*
X19781Y7913D01*
X19767Y7919D01*
X19750Y7924D01*
X19732Y7930D01*
X19712Y7936D01*
X19711D01*
X19708Y7937D01*
X19702Y7938D01*
X19695Y7941D01*
X19687Y7944D01*
X19678Y7947D01*
X19656Y7955D01*
X19632Y7965D01*
X19607Y7977D01*
X19584Y7989D01*
X19564Y8002D01*
X19563Y8003D01*
X19557Y8009D01*
X19549Y8016D01*
X19537Y8027D01*
X19526Y8040D01*
X19513Y8056D01*
X19501Y8074D01*
X19490Y8095D01*
X19488Y8098D01*
X19485Y8105D01*
X19481Y8118D01*
X19477Y8133D01*
X19471Y8151D01*
X19467Y8172D01*
X19464Y8196D01*
X19463Y8220D01*
Y8222D01*
Y8223D01*
Y8227D01*
Y8233D01*
X19464Y8249D01*
X19467Y8267D01*
X19471Y8288D01*
X19478Y8312D01*
X19487Y8336D01*
X19498Y8360D01*
Y8361D01*
X19499Y8363D01*
X19505Y8370D01*
X19512Y8381D01*
X19523Y8395D01*
X19537Y8411D01*
X19554Y8426D01*
X19573Y8442D01*
X19595Y8454D01*
X19597D01*
X19598Y8456D01*
X19607Y8460D01*
X19621Y8464D01*
X19639Y8471D01*
X19662Y8477D01*
X19687Y8481D01*
X19718Y8485D01*
X19750Y8487D01*
X19763D01*
X19773Y8485D01*
D02*
G37*
G36*
X19074Y8470D02*
X19106Y8469D01*
X19136Y8466D01*
X19150Y8464D01*
X19162Y8461D01*
X19174Y8460D01*
X19184Y8457D01*
X19185D01*
X19186Y8456D01*
X19195Y8453D01*
X19208Y8446D01*
X19225Y8438D01*
X19241Y8425D01*
X19261Y8408D01*
X19279Y8388D01*
X19298Y8363D01*
Y8361D01*
X19299Y8360D01*
X19302Y8356D01*
X19305Y8350D01*
X19309Y8343D01*
X19312Y8335D01*
X19316Y8325D01*
X19322Y8312D01*
X19330Y8285D01*
X19337Y8254D01*
X19343Y8218D01*
X19344Y8177D01*
Y8175D01*
Y8172D01*
Y8167D01*
Y8160D01*
X19343Y8151D01*
Y8140D01*
X19340Y8116D01*
X19334Y8089D01*
X19327Y8060D01*
X19318Y8032D01*
X19305Y8003D01*
Y8002D01*
X19303Y8001D01*
X19298Y7992D01*
X19289Y7979D01*
X19278Y7965D01*
X19264Y7950D01*
X19247Y7933D01*
X19227Y7919D01*
X19206Y7906D01*
X19203Y7905D01*
X19201Y7903D01*
X19195Y7902D01*
X19188Y7899D01*
X19181Y7898D01*
X19171Y7895D01*
X19160Y7892D01*
X19147Y7889D01*
X19131Y7886D01*
X19116Y7885D01*
X19098Y7882D01*
X19078Y7881D01*
X19055Y7879D01*
X19031Y7878D01*
X18903D01*
Y7518D01*
X18745D01*
Y8471D01*
X19045D01*
X19074Y8470D01*
D02*
G37*
G36*
X4909Y8460D02*
X4920Y8459D01*
X4934Y8457D01*
X4949Y8456D01*
X4965Y8453D01*
X5002Y8445D01*
X5038Y8432D01*
X5057Y8423D01*
X5075Y8414D01*
X5093Y8402D01*
X5109Y8390D01*
X5110Y8388D01*
X5113Y8387D01*
X5117Y8383D01*
X5123Y8377D01*
X5128Y8368D01*
X5137Y8360D01*
X5145Y8349D01*
X5154Y8336D01*
X5164Y8322D01*
X5172Y8306D01*
X5182Y8289D01*
X5190Y8271D01*
X5199Y8250D01*
X5207Y8229D01*
X5213Y8205D01*
X5219Y8180D01*
X5062Y8144D01*
Y8146D01*
X5061Y8147D01*
X5058Y8157D01*
X5054Y8170D01*
X5047Y8187D01*
X5038Y8203D01*
X5027Y8223D01*
X5013Y8242D01*
X4997Y8257D01*
X4996Y8258D01*
X4989Y8263D01*
X4979Y8270D01*
X4966Y8277D01*
X4949Y8284D01*
X4931Y8291D01*
X4910Y8295D01*
X4886Y8297D01*
X4876D01*
X4869Y8295D01*
X4861Y8294D01*
X4851Y8292D01*
X4828Y8287D01*
X4801Y8277D01*
X4775Y8263D01*
X4761Y8254D01*
X4748Y8244D01*
X4735Y8232D01*
X4722Y8218D01*
Y8216D01*
X4720Y8213D01*
X4717Y8209D01*
X4713Y8203D01*
X4708Y8195D01*
X4703Y8185D01*
X4697Y8172D01*
X4691Y8158D01*
X4686Y8143D01*
X4680Y8126D01*
X4675Y8106D01*
X4670Y8085D01*
X4666Y8061D01*
X4663Y8036D01*
X4662Y8009D01*
X4660Y7979D01*
Y7978D01*
Y7972D01*
Y7962D01*
X4662Y7951D01*
Y7937D01*
X4665Y7920D01*
X4666Y7902D01*
X4669Y7883D01*
X4677Y7841D01*
X4689Y7798D01*
X4706Y7755D01*
X4715Y7737D01*
X4727Y7719D01*
X4728Y7717D01*
X4730Y7716D01*
X4738Y7707D01*
X4751Y7695D01*
X4768Y7680D01*
X4790Y7666D01*
X4818Y7654D01*
X4849Y7645D01*
X4866Y7644D01*
X4885Y7642D01*
X4893D01*
X4902Y7644D01*
X4913Y7645D01*
X4927Y7648D01*
X4944Y7651D01*
X4961Y7657D01*
X4979Y7664D01*
X4982Y7665D01*
X4988Y7668D01*
X4997Y7672D01*
X5010Y7679D01*
X5023Y7688D01*
X5038Y7697D01*
X5054Y7709D01*
X5069Y7723D01*
Y7843D01*
X4889D01*
Y8003D01*
X5229D01*
Y7624D01*
X5226Y7621D01*
X5219Y7614D01*
X5207Y7603D01*
X5190Y7589D01*
X5169Y7572D01*
X5145Y7555D01*
X5116Y7537D01*
X5082Y7520D01*
X5081D01*
X5078Y7518D01*
X5072Y7516D01*
X5066Y7513D01*
X5057Y7510D01*
X5047Y7507D01*
X5023Y7499D01*
X4995Y7492D01*
X4962Y7485D01*
X4928Y7479D01*
X4893Y7477D01*
X4882D01*
X4873Y7479D01*
X4863D01*
X4852Y7480D01*
X4838Y7482D01*
X4824Y7485D01*
X4793Y7492D01*
X4758Y7501D01*
X4722Y7516D01*
X4689Y7534D01*
X4687Y7535D01*
X4684Y7537D01*
X4680Y7540D01*
X4675Y7545D01*
X4658Y7558D01*
X4638Y7576D01*
X4615Y7600D01*
X4591Y7630D01*
X4569Y7664D01*
X4548Y7703D01*
Y7704D01*
X4545Y7709D01*
X4543Y7714D01*
X4539Y7723D01*
X4536Y7734D01*
X4532Y7747D01*
X4527Y7762D01*
X4522Y7779D01*
X4518Y7798D01*
X4512Y7819D01*
X4508Y7840D01*
X4505Y7864D01*
X4500Y7915D01*
X4497Y7969D01*
Y7971D01*
Y7977D01*
Y7985D01*
X4498Y7996D01*
Y8009D01*
X4500Y8026D01*
X4501Y8043D01*
X4504Y8063D01*
X4510Y8105D01*
X4519Y8150D01*
X4532Y8195D01*
X4549Y8239D01*
Y8240D01*
X4552Y8244D01*
X4555Y8250D01*
X4559Y8257D01*
X4563Y8267D01*
X4570Y8277D01*
X4586Y8301D01*
X4605Y8329D01*
X4628Y8356D01*
X4655Y8383D01*
X4684Y8405D01*
X4686D01*
X4689Y8408D01*
X4693Y8411D01*
X4700Y8414D01*
X4707Y8418D01*
X4717Y8423D01*
X4728Y8428D01*
X4741Y8433D01*
X4770Y8443D01*
X4804Y8453D01*
X4842Y8459D01*
X4885Y8461D01*
X4899D01*
X4909Y8460D01*
D02*
G37*
G36*
X5998Y7493D02*
X5839D01*
X5525Y8113D01*
Y7493D01*
X5378D01*
Y8446D01*
X5530D01*
X5852Y7809D01*
Y8446D01*
X5998D01*
Y7493D01*
D02*
G37*
G36*
X8258D02*
X8090D01*
X7934Y8205D01*
X7779Y7493D01*
X7607D01*
X7422Y8446D01*
X7583D01*
X7700Y7790D01*
X7842Y8446D01*
X8030D01*
X8168Y7779D01*
X8288Y8446D01*
X8447D01*
X8258Y7493D01*
D02*
G37*
G36*
X9479Y7654D02*
X9871D01*
Y7493D01*
X9321D01*
Y8439D01*
X9479D01*
Y7654D01*
D02*
G37*
G36*
X8894Y8445D02*
X8906D01*
X8933Y8443D01*
X8963Y8439D01*
X8992Y8435D01*
X9021Y8428D01*
X9033Y8423D01*
X9045Y8419D01*
X9047Y8418D01*
X9054Y8415D01*
X9064Y8408D01*
X9077Y8398D01*
X9091Y8387D01*
X9105Y8371D01*
X9121Y8353D01*
X9135Y8330D01*
X9136Y8328D01*
X9140Y8319D01*
X9146Y8305D01*
X9153Y8288D01*
X9159Y8266D01*
X9164Y8239D01*
X9169Y8211D01*
X9170Y8178D01*
Y8177D01*
Y8174D01*
Y8167D01*
X9169Y8160D01*
Y8150D01*
X9167Y8139D01*
X9163Y8113D01*
X9157Y8085D01*
X9148Y8055D01*
X9133Y8026D01*
X9115Y7998D01*
Y7996D01*
X9112Y7995D01*
X9105Y7986D01*
X9093Y7975D01*
X9076Y7962D01*
X9054Y7947D01*
X9028Y7933D01*
X8998Y7922D01*
X8963Y7913D01*
X8966Y7912D01*
X8971Y7906D01*
X8981Y7899D01*
X8992Y7889D01*
X9005Y7878D01*
X9019Y7864D01*
X9033Y7848D01*
X9046Y7833D01*
X9047Y7831D01*
X9052Y7824D01*
X9060Y7813D01*
X9070Y7798D01*
X9083Y7776D01*
X9090Y7764D01*
X9098Y7750D01*
X9107Y7734D01*
X9117Y7717D01*
X9126Y7697D01*
X9136Y7678D01*
X9232Y7493D01*
X9042D01*
X8929Y7700D01*
Y7702D01*
X8926Y7706D01*
X8923Y7712D01*
X8919Y7719D01*
X8914Y7727D01*
X8908Y7737D01*
X8895Y7759D01*
X8881Y7783D01*
X8867Y7807D01*
X8861Y7817D01*
X8854Y7826D01*
X8849Y7834D01*
X8844Y7840D01*
X8843Y7841D01*
X8840Y7844D01*
X8836Y7850D01*
X8830Y7855D01*
X8816Y7868D01*
X8808Y7875D01*
X8798Y7879D01*
X8797D01*
X8794Y7881D01*
X8788Y7883D01*
X8780Y7885D01*
X8768Y7888D01*
X8754Y7889D01*
X8739Y7891D01*
X8688D01*
Y7493D01*
X8530D01*
Y8446D01*
X8884D01*
X8894Y8445D01*
D02*
G37*
G36*
X7098D02*
X7130Y8443D01*
X7160Y8440D01*
X7174Y8439D01*
X7187Y8436D01*
X7198Y8435D01*
X7208Y8432D01*
X7209D01*
X7211Y8430D01*
X7219Y8428D01*
X7232Y8421D01*
X7249Y8412D01*
X7266Y8399D01*
X7285Y8383D01*
X7304Y8363D01*
X7322Y8337D01*
Y8336D01*
X7323Y8335D01*
X7326Y8330D01*
X7329Y8325D01*
X7333Y8318D01*
X7336Y8309D01*
X7340Y8299D01*
X7346Y8287D01*
X7354Y8260D01*
X7361Y8229D01*
X7367Y8192D01*
X7368Y8151D01*
Y8150D01*
Y8147D01*
Y8141D01*
Y8134D01*
X7367Y8126D01*
Y8115D01*
X7364Y8091D01*
X7359Y8064D01*
X7352Y8034D01*
X7342Y8006D01*
X7329Y7978D01*
Y7977D01*
X7328Y7975D01*
X7322Y7967D01*
X7314Y7954D01*
X7302Y7940D01*
X7288Y7924D01*
X7271Y7907D01*
X7251Y7893D01*
X7230Y7881D01*
X7228Y7879D01*
X7225Y7878D01*
X7219Y7876D01*
X7212Y7874D01*
X7205Y7872D01*
X7195Y7869D01*
X7184Y7867D01*
X7171Y7864D01*
X7156Y7861D01*
X7140Y7860D01*
X7122Y7857D01*
X7102Y7855D01*
X7080Y7854D01*
X7056Y7852D01*
X6927D01*
Y7493D01*
X6769D01*
Y8446D01*
X7070D01*
X7098Y8445D01*
D02*
G37*
G36*
X4374Y7493D02*
X4216D01*
Y8446D01*
X4374D01*
Y7493D01*
D02*
G37*
G36*
X6699Y7327D02*
X6074D01*
Y7393D01*
X6699D01*
Y7327D01*
D02*
G37*
G36*
X33143Y22200D02*
X32992D01*
Y22889D01*
X32991Y22888D01*
X32988Y22885D01*
X32984Y22880D01*
X32977Y22873D01*
X32970Y22866D01*
X32960Y22857D01*
X32949Y22847D01*
X32936Y22837D01*
X32908Y22814D01*
X32875Y22790D01*
X32837Y22769D01*
X32798Y22751D01*
Y22917D01*
X32799D01*
X32800Y22919D01*
X32809Y22921D01*
X32820Y22928D01*
X32837Y22937D01*
X32857Y22950D01*
X32878Y22965D01*
X32902Y22983D01*
X32927Y23006D01*
X32929Y23007D01*
X32930Y23009D01*
X32939Y23017D01*
X32950Y23031D01*
X32964Y23050D01*
X32980Y23071D01*
X32995Y23096D01*
X33009Y23124D01*
X33020Y23155D01*
X33143D01*
Y22200D01*
D02*
G37*
G36*
X32368Y23151D02*
X32380D01*
X32407Y23150D01*
X32437Y23146D01*
X32466Y23141D01*
X32495Y23134D01*
X32507Y23130D01*
X32519Y23126D01*
X32521Y23124D01*
X32528Y23122D01*
X32538Y23115D01*
X32551Y23105D01*
X32565Y23093D01*
X32579Y23078D01*
X32595Y23060D01*
X32609Y23037D01*
X32610Y23034D01*
X32614Y23026D01*
X32620Y23012D01*
X32627Y22995D01*
X32633Y22972D01*
X32638Y22945D01*
X32643Y22917D01*
X32644Y22885D01*
Y22883D01*
Y22880D01*
Y22873D01*
X32643Y22866D01*
Y22857D01*
X32641Y22845D01*
X32637Y22820D01*
X32631Y22792D01*
X32621Y22762D01*
X32607Y22732D01*
X32589Y22704D01*
Y22703D01*
X32586Y22701D01*
X32579Y22693D01*
X32566Y22682D01*
X32550Y22669D01*
X32528Y22654D01*
X32502Y22639D01*
X32472Y22628D01*
X32437Y22620D01*
X32440Y22618D01*
X32445Y22613D01*
X32455Y22606D01*
X32466Y22596D01*
X32479Y22584D01*
X32493Y22570D01*
X32507Y22555D01*
X32520Y22539D01*
X32521Y22538D01*
X32526Y22531D01*
X32534Y22520D01*
X32544Y22504D01*
X32557Y22483D01*
X32564Y22470D01*
X32572Y22456D01*
X32581Y22441D01*
X32590Y22424D01*
X32600Y22404D01*
X32610Y22384D01*
X32706Y22200D01*
X32516D01*
X32403Y22407D01*
Y22408D01*
X32400Y22412D01*
X32397Y22418D01*
X32393Y22425D01*
X32387Y22434D01*
X32382Y22443D01*
X32369Y22466D01*
X32355Y22490D01*
X32341Y22514D01*
X32335Y22524D01*
X32328Y22532D01*
X32323Y22541D01*
X32318Y22546D01*
X32317Y22548D01*
X32314Y22551D01*
X32310Y22556D01*
X32304Y22562D01*
X32290Y22575D01*
X32282Y22582D01*
X32272Y22586D01*
X32270D01*
X32268Y22587D01*
X32262Y22590D01*
X32254Y22591D01*
X32242Y22594D01*
X32228Y22596D01*
X32213Y22597D01*
X32162D01*
Y22200D01*
X32004D01*
Y23153D01*
X32358D01*
X32368Y23151D01*
D02*
G37*
G36*
X27904Y22200D02*
X27746D01*
Y22617D01*
X27437D01*
Y22200D01*
X27280D01*
Y23153D01*
X27437D01*
Y22778D01*
X27746D01*
Y23153D01*
X27904D01*
Y22200D01*
D02*
G37*
G36*
X29085D02*
X28935D01*
Y22889D01*
X28933Y22888D01*
X28930Y22885D01*
X28926Y22880D01*
X28919Y22873D01*
X28912Y22866D01*
X28902Y22857D01*
X28891Y22847D01*
X28878Y22837D01*
X28850Y22814D01*
X28818Y22790D01*
X28780Y22769D01*
X28740Y22751D01*
Y22917D01*
X28741D01*
X28743Y22919D01*
X28751Y22921D01*
X28763Y22928D01*
X28780Y22937D01*
X28799Y22950D01*
X28820Y22965D01*
X28844Y22983D01*
X28870Y23006D01*
X28871Y23007D01*
X28873Y23009D01*
X28881Y23017D01*
X28892Y23031D01*
X28906Y23050D01*
X28922Y23071D01*
X28937Y23096D01*
X28951Y23124D01*
X28963Y23155D01*
X29085D01*
Y22200D01*
D02*
G37*
G36*
X28228Y22360D02*
X28620D01*
Y22200D01*
X28070D01*
Y23146D01*
X28228D01*
Y22360D01*
D02*
G37*
G36*
X19302Y9042D02*
X19151D01*
Y9732D01*
X19150Y9730D01*
X19147Y9728D01*
X19143Y9723D01*
X19136Y9716D01*
X19129Y9709D01*
X19119Y9699D01*
X19108Y9689D01*
X19095Y9680D01*
X19067Y9657D01*
X19034Y9633D01*
X18996Y9612D01*
X18957Y9594D01*
Y9760D01*
X18958D01*
X18960Y9761D01*
X18968Y9764D01*
X18979Y9771D01*
X18996Y9780D01*
X19016Y9792D01*
X19037Y9808D01*
X19061Y9826D01*
X19086Y9849D01*
X19088Y9850D01*
X19089Y9852D01*
X19098Y9860D01*
X19109Y9874D01*
X19123Y9892D01*
X19139Y9914D01*
X19154Y9939D01*
X19168Y9967D01*
X19179Y9998D01*
X19302D01*
Y9042D01*
D02*
G37*
G36*
X18476Y9994D02*
X18486D01*
X18510Y9993D01*
X18537Y9990D01*
X18563Y9984D01*
X18590Y9978D01*
X18613Y9970D01*
X18616Y9969D01*
X18623Y9966D01*
X18632Y9959D01*
X18647Y9950D01*
X18662Y9939D01*
X18680Y9925D01*
X18697Y9908D01*
X18716Y9888D01*
X18718Y9885D01*
X18724Y9878D01*
X18733Y9866D01*
X18742Y9847D01*
X18755Y9826D01*
X18768Y9801D01*
X18779Y9771D01*
X18790Y9737D01*
Y9736D01*
X18792Y9733D01*
X18793Y9728D01*
X18795Y9720D01*
X18796Y9712D01*
X18799Y9701D01*
X18802Y9688D01*
X18804Y9674D01*
X18806Y9658D01*
X18809Y9642D01*
X18811Y9623D01*
X18813Y9602D01*
X18816Y9558D01*
X18817Y9509D01*
Y9508D01*
Y9503D01*
Y9496D01*
Y9488D01*
X18816Y9478D01*
Y9465D01*
X18814Y9451D01*
Y9436D01*
X18810Y9402D01*
X18806Y9365D01*
X18799Y9329D01*
X18789Y9293D01*
Y9292D01*
X18788Y9289D01*
X18786Y9285D01*
X18783Y9278D01*
X18778Y9261D01*
X18769Y9241D01*
X18759Y9217D01*
X18747Y9193D01*
X18733Y9169D01*
X18717Y9148D01*
X18716Y9145D01*
X18710Y9140D01*
X18700Y9130D01*
X18689Y9119D01*
X18673Y9106D01*
X18656Y9093D01*
X18637Y9080D01*
X18614Y9069D01*
X18611Y9068D01*
X18603Y9065D01*
X18590Y9061D01*
X18572Y9057D01*
X18549Y9051D01*
X18523Y9047D01*
X18491Y9044D01*
X18458Y9042D01*
X18162D01*
Y9995D01*
X18468D01*
X18476Y9994D01*
D02*
G37*
G36*
X17688D02*
X17698D01*
X17722Y9993D01*
X17749Y9990D01*
X17775Y9984D01*
X17802Y9978D01*
X17825Y9970D01*
X17828Y9969D01*
X17835Y9966D01*
X17844Y9959D01*
X17859Y9950D01*
X17874Y9939D01*
X17892Y9925D01*
X17909Y9908D01*
X17928Y9888D01*
X17930Y9885D01*
X17936Y9878D01*
X17945Y9866D01*
X17954Y9847D01*
X17967Y9826D01*
X17980Y9801D01*
X17991Y9771D01*
X18002Y9737D01*
Y9736D01*
X18004Y9733D01*
X18005Y9728D01*
X18007Y9720D01*
X18008Y9712D01*
X18011Y9701D01*
X18014Y9688D01*
X18016Y9674D01*
X18018Y9658D01*
X18021Y9642D01*
X18023Y9623D01*
X18025Y9602D01*
X18028Y9558D01*
X18029Y9509D01*
Y9508D01*
Y9503D01*
Y9496D01*
Y9488D01*
X18028Y9478D01*
Y9465D01*
X18026Y9451D01*
Y9436D01*
X18022Y9402D01*
X18018Y9365D01*
X18011Y9329D01*
X18001Y9293D01*
Y9292D01*
X18000Y9289D01*
X17998Y9285D01*
X17995Y9278D01*
X17990Y9261D01*
X17981Y9241D01*
X17971Y9217D01*
X17959Y9193D01*
X17945Y9169D01*
X17929Y9148D01*
X17928Y9145D01*
X17922Y9140D01*
X17912Y9130D01*
X17901Y9119D01*
X17885Y9106D01*
X17868Y9093D01*
X17849Y9080D01*
X17826Y9069D01*
X17823Y9068D01*
X17815Y9065D01*
X17802Y9061D01*
X17784Y9057D01*
X17761Y9051D01*
X17734Y9047D01*
X17703Y9044D01*
X17670Y9042D01*
X17374D01*
Y9995D01*
X17680D01*
X17688Y9994D01*
D02*
G37*
G36*
X28152Y10715D02*
X28158Y10712D01*
X28164Y10706D01*
X28172Y10701D01*
X28181Y10694D01*
X28192Y10686D01*
X28205Y10678D01*
X28220Y10668D01*
X28236Y10658D01*
X28254Y10648D01*
X28272Y10637D01*
X28293Y10626D01*
X28316Y10613D01*
X28340Y10602D01*
X28365Y10589D01*
X28367D01*
X28371Y10586D01*
X28379Y10584D01*
X28389Y10578D01*
X28402Y10574D01*
X28417Y10567D01*
X28436Y10560D01*
X28456Y10553D01*
X28477Y10544D01*
X28499Y10536D01*
X28525Y10529D01*
X28551Y10520D01*
X28606Y10503D01*
X28666Y10489D01*
X28667D01*
X28673Y10488D01*
X28681Y10486D01*
X28692Y10483D01*
X28706Y10481D01*
X28723Y10478D01*
X28742Y10475D01*
X28761Y10472D01*
X28784Y10468D01*
X28807Y10465D01*
X28856Y10460D01*
X28907Y10455D01*
X28956Y10454D01*
Y10310D01*
X28953D01*
X28948D01*
X28936Y10312D01*
X28921D01*
X28902Y10313D01*
X28881Y10314D01*
X28856Y10317D01*
X28829Y10320D01*
X28800Y10324D01*
X28769Y10328D01*
X28735Y10334D01*
X28699Y10340D01*
X28626Y10355D01*
X28551Y10376D01*
X28549Y10378D01*
X28543Y10379D01*
X28532Y10383D01*
X28518Y10388D01*
X28499Y10395D01*
X28478Y10402D01*
X28456Y10412D01*
X28429Y10421D01*
X28402Y10433D01*
X28372Y10445D01*
X28312Y10475D01*
X28247Y10507D01*
X28185Y10546D01*
Y10206D01*
X28016D01*
Y10717D01*
X28150D01*
X28151D01*
X28152Y10715D01*
D02*
G37*
G36*
X28670Y10103D02*
X28678Y10100D01*
X28690Y10097D01*
X28702Y10093D01*
X28718Y10089D01*
X28735Y10083D01*
X28753Y10076D01*
X28791Y10059D01*
X28831Y10038D01*
X28867Y10014D01*
X28883Y10000D01*
X28898Y9984D01*
X28900Y9983D01*
X28901Y9980D01*
X28905Y9976D01*
X28909Y9969D01*
X28915Y9962D01*
X28921Y9952D01*
X28928Y9941D01*
X28935Y9928D01*
X28942Y9914D01*
X28949Y9898D01*
X28960Y9863D01*
X28969Y9824D01*
X28970Y9803D01*
X28972Y9780D01*
Y9773D01*
X28970Y9766D01*
Y9755D01*
X28967Y9742D01*
X28966Y9726D01*
X28962Y9710D01*
X28957Y9691D01*
X28950Y9672D01*
X28943Y9652D01*
X28933Y9632D01*
X28922Y9611D01*
X28908Y9590D01*
X28893Y9570D01*
X28876Y9550D01*
X28854Y9532D01*
X28853Y9531D01*
X28849Y9528D01*
X28840Y9522D01*
X28829Y9515D01*
X28816Y9507D01*
X28800Y9498D01*
X28780Y9488D01*
X28757Y9478D01*
X28733Y9467D01*
X28705Y9457D01*
X28675Y9449D01*
X28643Y9440D01*
X28608Y9433D01*
X28570Y9428D01*
X28530Y9425D01*
X28488Y9423D01*
X28487D01*
X28485D01*
X28477D01*
X28464Y9425D01*
X28449D01*
X28427Y9426D01*
X28403Y9429D01*
X28378Y9433D01*
X28350Y9438D01*
X28319Y9443D01*
X28288Y9450D01*
X28257Y9459D01*
X28224Y9470D01*
X28193Y9483D01*
X28164Y9497D01*
X28134Y9514D01*
X28107Y9533D01*
X28106Y9535D01*
X28102Y9538D01*
X28096Y9543D01*
X28089Y9550D01*
X28079Y9560D01*
X28069Y9571D01*
X28058Y9586D01*
X28047Y9601D01*
X28037Y9618D01*
X28026Y9638D01*
X28016Y9659D01*
X28006Y9681D01*
X27999Y9707D01*
X27993Y9732D01*
X27989Y9760D01*
X27988Y9790D01*
Y9803D01*
X27989Y9812D01*
X27990Y9824D01*
X27992Y9836D01*
X27995Y9851D01*
X27999Y9866D01*
X28010Y9901D01*
X28017Y9920D01*
X28026Y9938D01*
X28037Y9956D01*
X28050Y9975D01*
X28064Y9993D01*
X28079Y10010D01*
Y10011D01*
X28082Y10013D01*
X28086Y10015D01*
X28090Y10020D01*
X28097Y10025D01*
X28106Y10031D01*
X28116Y10038D01*
X28127Y10045D01*
X28140Y10052D01*
X28152Y10061D01*
X28168Y10068D01*
X28185Y10076D01*
X28205Y10083D01*
X28224Y10090D01*
X28246Y10097D01*
X28268Y10103D01*
X28313Y9946D01*
X28312D01*
X28310Y9945D01*
X28306D01*
X28300Y9944D01*
X28286Y9939D01*
X28269Y9934D01*
X28250Y9925D01*
X28230Y9914D01*
X28212Y9901D01*
X28195Y9886D01*
X28193Y9884D01*
X28188Y9879D01*
X28181Y9869D01*
X28174Y9856D01*
X28165Y9841D01*
X28160Y9824D01*
X28154Y9804D01*
X28152Y9781D01*
Y9773D01*
X28154Y9767D01*
X28157Y9752D01*
X28162Y9732D01*
X28171Y9710D01*
X28185Y9686D01*
X28193Y9674D01*
X28203Y9663D01*
X28215Y9652D01*
X28229Y9640D01*
X28230D01*
X28231Y9638D01*
X28237Y9636D01*
X28243Y9632D01*
X28251Y9628D01*
X28261Y9624D01*
X28274Y9619D01*
X28288Y9614D01*
X28303Y9608D01*
X28322Y9604D01*
X28343Y9600D01*
X28365Y9595D01*
X28389Y9593D01*
X28416Y9590D01*
X28446Y9587D01*
X28477D01*
X28478D01*
X28485D01*
X28494D01*
X28506Y9588D01*
X28520D01*
X28537Y9590D01*
X28556Y9591D01*
X28575Y9594D01*
X28618Y9600D01*
X28660Y9609D01*
X28680Y9615D01*
X28699Y9622D01*
X28716Y9631D01*
X28732Y9639D01*
X28733D01*
X28735Y9642D01*
X28743Y9649D01*
X28756Y9660D01*
X28769Y9677D01*
X28783Y9697D01*
X28795Y9719D01*
X28804Y9748D01*
X28805Y9762D01*
X28807Y9777D01*
Y9780D01*
X28805Y9787D01*
X28804Y9800D01*
X28801Y9814D01*
X28795Y9831D01*
X28787Y9849D01*
X28774Y9867D01*
X28759Y9884D01*
X28756Y9886D01*
X28749Y9891D01*
X28737Y9900D01*
X28721Y9910D01*
X28699Y9921D01*
X28673Y9931D01*
X28642Y9942D01*
X28604Y9951D01*
X28663Y10104D01*
X28664D01*
X28670Y10103D01*
D02*
G37*
G36*
X26643Y11591D02*
X26656Y11590D01*
X26672Y11588D01*
X26687Y11587D01*
X26705Y11584D01*
X26742Y11574D01*
X26782Y11561D01*
X26801Y11553D01*
X26820Y11543D01*
X26838Y11532D01*
X26855Y11519D01*
X26856Y11518D01*
X26859Y11516D01*
X26863Y11512D01*
X26868Y11506D01*
X26875Y11499D01*
X26882Y11491D01*
X26897Y11470D01*
X26913Y11444D01*
X26927Y11413D01*
X26931Y11396D01*
X26935Y11378D01*
X26938Y11360D01*
X26940Y11340D01*
Y11334D01*
X26938Y11329D01*
Y11320D01*
X26937Y11310D01*
X26934Y11299D01*
X26925Y11272D01*
X26920Y11257D01*
X26913Y11241D01*
X26904Y11224D01*
X26893Y11209D01*
X26880Y11192D01*
X26866Y11177D01*
X26849Y11161D01*
X26830Y11146D01*
X26828Y11144D01*
X26824Y11143D01*
X26817Y11138D01*
X26808Y11134D01*
X26796Y11129D01*
X26780Y11122D01*
X26763Y11114D01*
X26742Y11107D01*
X26718Y11100D01*
X26690Y11093D01*
X26660Y11088D01*
X26627Y11081D01*
X26590Y11076D01*
X26550Y11072D01*
X26507Y11071D01*
X26460Y11069D01*
X26459D01*
X26457D01*
X26449D01*
X26435D01*
X26418Y11071D01*
X26395Y11072D01*
X26371Y11074D01*
X26345Y11076D01*
X26315Y11079D01*
X26253Y11089D01*
X26191Y11103D01*
X26161Y11112D01*
X26133Y11123D01*
X26106Y11134D01*
X26084Y11148D01*
X26082Y11150D01*
X26078Y11153D01*
X26073Y11157D01*
X26065Y11162D01*
X26057Y11171D01*
X26047Y11181D01*
X26037Y11192D01*
X26026Y11205D01*
X26015Y11219D01*
X26005Y11234D01*
X25987Y11270D01*
X25979Y11289D01*
X25972Y11309D01*
X25970Y11332D01*
X25968Y11354D01*
Y11363D01*
X25970Y11368D01*
X25971Y11385D01*
X25975Y11405D01*
X25982Y11429D01*
X25994Y11453D01*
X26008Y11478D01*
X26027Y11501D01*
X26030Y11504D01*
X26039Y11511D01*
X26053Y11520D01*
X26071Y11533D01*
X26097Y11546D01*
X26128Y11559D01*
X26163Y11568D01*
X26205Y11577D01*
X26225Y11432D01*
X26223D01*
X26221D01*
X26215Y11430D01*
X26208Y11429D01*
X26191Y11425D01*
X26171Y11416D01*
X26153Y11406D01*
X26136Y11391D01*
X26129Y11381D01*
X26123Y11371D01*
X26120Y11358D01*
X26119Y11346D01*
Y11344D01*
X26120Y11337D01*
X26122Y11329D01*
X26126Y11317D01*
X26132Y11305D01*
X26142Y11292D01*
X26154Y11278D01*
X26173Y11265D01*
X26175Y11264D01*
X26178Y11263D01*
X26184Y11260D01*
X26190Y11258D01*
X26198Y11254D01*
X26208Y11251D01*
X26219Y11248D01*
X26233Y11244D01*
X26249Y11241D01*
X26267Y11237D01*
X26287Y11234D01*
X26308Y11231D01*
X26332Y11229D01*
X26359Y11226D01*
X26388Y11224D01*
X26387Y11226D01*
X26381Y11230D01*
X26374Y11236D01*
X26366Y11243D01*
X26356Y11253D01*
X26346Y11263D01*
X26336Y11274D01*
X26328Y11286D01*
X26326Y11288D01*
X26325Y11292D01*
X26321Y11301D01*
X26316Y11309D01*
X26314Y11320D01*
X26309Y11334D01*
X26308Y11349D01*
X26307Y11364D01*
Y11372D01*
X26308Y11380D01*
X26309Y11388D01*
X26311Y11396D01*
X26318Y11419D01*
X26328Y11443D01*
X26335Y11457D01*
X26343Y11470D01*
X26353Y11484D01*
X26364Y11497D01*
X26377Y11511D01*
X26393Y11523D01*
X26394Y11525D01*
X26397Y11526D01*
X26401Y11530D01*
X26408Y11535D01*
X26417Y11539D01*
X26426Y11546D01*
X26439Y11552D01*
X26453Y11559D01*
X26469Y11564D01*
X26486Y11571D01*
X26504Y11577D01*
X26524Y11581D01*
X26546Y11587D01*
X26569Y11590D01*
X26594Y11591D01*
X26619Y11592D01*
X26621D01*
X26627D01*
X26634D01*
X26643Y11591D01*
D02*
G37*
G36*
X26638Y10966D02*
X26646Y10964D01*
X26658Y10961D01*
X26670Y10957D01*
X26686Y10952D01*
X26703Y10947D01*
X26721Y10940D01*
X26759Y10923D01*
X26799Y10902D01*
X26835Y10878D01*
X26851Y10864D01*
X26866Y10848D01*
X26868Y10847D01*
X26869Y10844D01*
X26873Y10840D01*
X26877Y10833D01*
X26883Y10826D01*
X26889Y10816D01*
X26896Y10804D01*
X26903Y10792D01*
X26910Y10778D01*
X26917Y10762D01*
X26928Y10727D01*
X26937Y10687D01*
X26938Y10666D01*
X26940Y10644D01*
Y10637D01*
X26938Y10630D01*
Y10618D01*
X26935Y10606D01*
X26934Y10590D01*
X26930Y10573D01*
X26925Y10555D01*
X26918Y10535D01*
X26911Y10515D01*
X26901Y10496D01*
X26890Y10474D01*
X26876Y10453D01*
X26861Y10434D01*
X26844Y10414D01*
X26823Y10396D01*
X26821Y10394D01*
X26817Y10391D01*
X26808Y10386D01*
X26797Y10379D01*
X26784Y10370D01*
X26768Y10362D01*
X26748Y10352D01*
X26725Y10342D01*
X26701Y10331D01*
X26673Y10321D01*
X26643Y10312D01*
X26611Y10304D01*
X26576Y10297D01*
X26538Y10291D01*
X26498Y10288D01*
X26456Y10287D01*
X26455D01*
X26453D01*
X26445D01*
X26432Y10288D01*
X26417D01*
X26395Y10290D01*
X26371Y10293D01*
X26346Y10297D01*
X26318Y10301D01*
X26287Y10307D01*
X26256Y10314D01*
X26225Y10322D01*
X26192Y10334D01*
X26161Y10346D01*
X26132Y10360D01*
X26102Y10377D01*
X26075Y10397D01*
X26074Y10398D01*
X26070Y10401D01*
X26064Y10407D01*
X26057Y10414D01*
X26047Y10424D01*
X26037Y10435D01*
X26026Y10449D01*
X26015Y10465D01*
X26005Y10482D01*
X25994Y10501D01*
X25984Y10522D01*
X25974Y10545D01*
X25967Y10570D01*
X25961Y10596D01*
X25957Y10624D01*
X25956Y10654D01*
Y10666D01*
X25957Y10676D01*
X25958Y10687D01*
X25960Y10700D01*
X25963Y10714D01*
X25967Y10730D01*
X25978Y10765D01*
X25985Y10783D01*
X25994Y10802D01*
X26005Y10820D01*
X26018Y10838D01*
X26032Y10857D01*
X26047Y10873D01*
Y10875D01*
X26050Y10876D01*
X26054Y10879D01*
X26058Y10883D01*
X26065Y10889D01*
X26074Y10895D01*
X26084Y10902D01*
X26095Y10909D01*
X26108Y10916D01*
X26120Y10924D01*
X26136Y10931D01*
X26153Y10940D01*
X26173Y10947D01*
X26192Y10954D01*
X26214Y10961D01*
X26236Y10966D01*
X26281Y10810D01*
X26280D01*
X26278Y10809D01*
X26274D01*
X26268Y10807D01*
X26254Y10803D01*
X26237Y10797D01*
X26218Y10789D01*
X26198Y10778D01*
X26180Y10765D01*
X26163Y10749D01*
X26161Y10748D01*
X26156Y10742D01*
X26149Y10732D01*
X26142Y10720D01*
X26133Y10704D01*
X26128Y10687D01*
X26122Y10668D01*
X26120Y10645D01*
Y10637D01*
X26122Y10631D01*
X26125Y10615D01*
X26130Y10596D01*
X26139Y10573D01*
X26153Y10549D01*
X26161Y10538D01*
X26171Y10527D01*
X26183Y10515D01*
X26197Y10504D01*
X26198D01*
X26199Y10501D01*
X26205Y10500D01*
X26211Y10496D01*
X26219Y10491D01*
X26229Y10487D01*
X26242Y10483D01*
X26256Y10477D01*
X26271Y10472D01*
X26290Y10467D01*
X26311Y10463D01*
X26333Y10459D01*
X26357Y10456D01*
X26384Y10453D01*
X26414Y10451D01*
X26445D01*
X26446D01*
X26453D01*
X26462D01*
X26474Y10452D01*
X26488D01*
X26505Y10453D01*
X26524Y10455D01*
X26543Y10458D01*
X26586Y10463D01*
X26628Y10473D01*
X26648Y10479D01*
X26667Y10486D01*
X26684Y10494D01*
X26700Y10503D01*
X26701D01*
X26703Y10505D01*
X26711Y10513D01*
X26724Y10524D01*
X26737Y10541D01*
X26751Y10560D01*
X26763Y10583D01*
X26772Y10611D01*
X26773Y10625D01*
X26775Y10641D01*
Y10644D01*
X26773Y10651D01*
X26772Y10663D01*
X26769Y10677D01*
X26763Y10694D01*
X26755Y10713D01*
X26742Y10731D01*
X26727Y10748D01*
X26724Y10749D01*
X26717Y10755D01*
X26705Y10763D01*
X26689Y10773D01*
X26667Y10785D01*
X26641Y10794D01*
X26610Y10806D01*
X26572Y10814D01*
X26631Y10968D01*
X26632D01*
X26638Y10966D01*
D02*
G37*
G36*
X22690Y8206D02*
X22702Y8205D01*
X22714Y8203D01*
X22728Y8200D01*
X22744Y8196D01*
X22779Y8185D01*
X22797Y8178D01*
X22816Y8169D01*
X22834Y8158D01*
X22852Y8145D01*
X22871Y8131D01*
X22888Y8116D01*
X22889D01*
X22890Y8113D01*
X22893Y8109D01*
X22897Y8105D01*
X22903Y8098D01*
X22909Y8089D01*
X22916Y8079D01*
X22923Y8068D01*
X22930Y8055D01*
X22938Y8043D01*
X22945Y8027D01*
X22954Y8010D01*
X22961Y7990D01*
X22968Y7971D01*
X22975Y7949D01*
X22981Y7927D01*
X22824Y7882D01*
Y7883D01*
X22823Y7885D01*
Y7889D01*
X22821Y7895D01*
X22817Y7909D01*
X22812Y7926D01*
X22803Y7945D01*
X22792Y7965D01*
X22779Y7983D01*
X22764Y8000D01*
X22762Y8002D01*
X22757Y8007D01*
X22747Y8014D01*
X22734Y8021D01*
X22718Y8030D01*
X22702Y8035D01*
X22682Y8041D01*
X22659Y8043D01*
X22651D01*
X22645Y8041D01*
X22630Y8038D01*
X22610Y8033D01*
X22587Y8024D01*
X22563Y8010D01*
X22552Y8002D01*
X22541Y7992D01*
X22530Y7981D01*
X22518Y7966D01*
Y7965D01*
X22515Y7964D01*
X22514Y7958D01*
X22510Y7952D01*
X22506Y7944D01*
X22501Y7934D01*
X22497Y7921D01*
X22492Y7907D01*
X22486Y7892D01*
X22482Y7873D01*
X22477Y7852D01*
X22473Y7830D01*
X22470Y7806D01*
X22468Y7779D01*
X22465Y7749D01*
Y7718D01*
Y7717D01*
Y7710D01*
Y7701D01*
X22466Y7689D01*
Y7675D01*
X22468Y7658D01*
X22469Y7639D01*
X22472Y7620D01*
X22477Y7577D01*
X22487Y7535D01*
X22493Y7515D01*
X22500Y7496D01*
X22508Y7479D01*
X22517Y7463D01*
Y7462D01*
X22520Y7460D01*
X22527Y7452D01*
X22538Y7439D01*
X22555Y7426D01*
X22575Y7412D01*
X22597Y7400D01*
X22625Y7391D01*
X22640Y7390D01*
X22655Y7388D01*
X22658D01*
X22665Y7390D01*
X22678Y7391D01*
X22692Y7394D01*
X22709Y7400D01*
X22727Y7408D01*
X22745Y7421D01*
X22762Y7436D01*
X22764Y7439D01*
X22769Y7446D01*
X22778Y7457D01*
X22788Y7474D01*
X22799Y7496D01*
X22809Y7522D01*
X22820Y7553D01*
X22828Y7591D01*
X22982Y7532D01*
Y7531D01*
X22981Y7525D01*
X22978Y7517D01*
X22975Y7505D01*
X22971Y7493D01*
X22967Y7477D01*
X22961Y7460D01*
X22954Y7442D01*
X22937Y7404D01*
X22916Y7364D01*
X22892Y7328D01*
X22878Y7312D01*
X22862Y7297D01*
X22861Y7295D01*
X22858Y7294D01*
X22854Y7290D01*
X22847Y7286D01*
X22840Y7280D01*
X22830Y7274D01*
X22819Y7267D01*
X22806Y7260D01*
X22792Y7253D01*
X22776Y7246D01*
X22741Y7235D01*
X22702Y7226D01*
X22680Y7225D01*
X22658Y7223D01*
X22651D01*
X22644Y7225D01*
X22632D01*
X22620Y7228D01*
X22604Y7229D01*
X22587Y7233D01*
X22569Y7238D01*
X22549Y7245D01*
X22530Y7252D01*
X22510Y7262D01*
X22489Y7273D01*
X22468Y7287D01*
X22448Y7302D01*
X22428Y7319D01*
X22410Y7340D01*
X22408Y7342D01*
X22406Y7346D01*
X22400Y7355D01*
X22393Y7366D01*
X22384Y7379D01*
X22376Y7395D01*
X22366Y7415D01*
X22356Y7438D01*
X22345Y7462D01*
X22335Y7490D01*
X22327Y7520D01*
X22318Y7552D01*
X22311Y7587D01*
X22305Y7625D01*
X22303Y7665D01*
X22301Y7707D01*
Y7708D01*
Y7710D01*
Y7718D01*
X22303Y7731D01*
Y7746D01*
X22304Y7768D01*
X22307Y7792D01*
X22311Y7817D01*
X22315Y7845D01*
X22321Y7876D01*
X22328Y7907D01*
X22336Y7938D01*
X22348Y7971D01*
X22360Y8002D01*
X22375Y8031D01*
X22391Y8061D01*
X22411Y8088D01*
X22413Y8089D01*
X22415Y8093D01*
X22421Y8099D01*
X22428Y8106D01*
X22438Y8116D01*
X22449Y8126D01*
X22463Y8137D01*
X22479Y8148D01*
X22496Y8158D01*
X22515Y8169D01*
X22537Y8179D01*
X22559Y8189D01*
X22585Y8196D01*
X22610Y8202D01*
X22638Y8206D01*
X22668Y8207D01*
X22680D01*
X22690Y8206D01*
D02*
G37*
G36*
X23576Y8009D02*
X23294D01*
X23268Y7845D01*
X23271Y7847D01*
X23277Y7851D01*
X23287Y7855D01*
X23301Y7862D01*
X23316Y7868D01*
X23333Y7872D01*
X23351Y7876D01*
X23371Y7878D01*
X23380D01*
X23387Y7876D01*
X23395Y7875D01*
X23404Y7873D01*
X23426Y7869D01*
X23450Y7859D01*
X23477Y7847D01*
X23491Y7838D01*
X23504Y7828D01*
X23516Y7817D01*
X23529Y7804D01*
X23530Y7803D01*
X23533Y7800D01*
X23536Y7794D01*
X23542Y7787D01*
X23547Y7778D01*
X23554Y7766D01*
X23563Y7754D01*
X23570Y7739D01*
X23577Y7723D01*
X23585Y7704D01*
X23592Y7683D01*
X23598Y7662D01*
X23604Y7638D01*
X23608Y7614D01*
X23609Y7587D01*
X23611Y7559D01*
Y7558D01*
Y7553D01*
Y7546D01*
X23609Y7538D01*
Y7527D01*
X23607Y7514D01*
X23605Y7500D01*
X23602Y7483D01*
X23594Y7448D01*
X23581Y7408D01*
X23573Y7388D01*
X23564Y7369D01*
X23553Y7348D01*
X23540Y7328D01*
X23539Y7326D01*
X23538Y7324D01*
X23533Y7318D01*
X23528Y7311D01*
X23521Y7304D01*
X23512Y7295D01*
X23501Y7286D01*
X23490Y7276D01*
X23477Y7266D01*
X23461Y7256D01*
X23446Y7247D01*
X23428Y7240D01*
X23409Y7233D01*
X23388Y7228D01*
X23367Y7225D01*
X23343Y7223D01*
X23333D01*
X23326Y7225D01*
X23318D01*
X23306Y7228D01*
X23282Y7232D01*
X23256Y7240D01*
X23226Y7252D01*
X23198Y7269D01*
X23184Y7280D01*
X23170Y7291D01*
X23168Y7293D01*
X23167Y7294D01*
X23163Y7298D01*
X23158Y7304D01*
X23153Y7311D01*
X23147Y7319D01*
X23140Y7329D01*
X23133Y7340D01*
X23126Y7353D01*
X23119Y7369D01*
X23112Y7384D01*
X23105Y7401D01*
X23099Y7419D01*
X23093Y7441D01*
X23086Y7484D01*
X23236Y7504D01*
Y7501D01*
X23237Y7494D01*
X23240Y7481D01*
X23243Y7467D01*
X23247Y7452D01*
X23254Y7436D01*
X23263Y7419D01*
X23274Y7405D01*
X23275Y7404D01*
X23280Y7400D01*
X23287Y7394D01*
X23295Y7388D01*
X23305Y7381D01*
X23318Y7376D01*
X23330Y7372D01*
X23344Y7370D01*
X23346D01*
X23353Y7372D01*
X23361Y7373D01*
X23371Y7376D01*
X23384Y7381D01*
X23398Y7390D01*
X23411Y7400D01*
X23423Y7415D01*
X23425Y7418D01*
X23429Y7424D01*
X23435Y7435D01*
X23440Y7449D01*
X23446Y7469D01*
X23452Y7493D01*
X23456Y7522D01*
X23457Y7555D01*
Y7556D01*
Y7559D01*
Y7563D01*
Y7570D01*
X23456Y7586D01*
X23453Y7606D01*
X23449Y7627D01*
X23443Y7649D01*
X23435Y7669D01*
X23423Y7687D01*
X23422Y7689D01*
X23418Y7694D01*
X23411Y7701D01*
X23401Y7710D01*
X23389Y7717D01*
X23374Y7724D01*
X23358Y7730D01*
X23340Y7731D01*
X23337D01*
X23329Y7730D01*
X23318Y7727D01*
X23302Y7723D01*
X23284Y7714D01*
X23264Y7701D01*
X23254Y7694D01*
X23244Y7684D01*
X23234Y7675D01*
X23225Y7662D01*
X23103Y7683D01*
X23179Y8179D01*
X23576D01*
Y8009D01*
D02*
G37*
G36*
X28383Y18798D02*
X28575D01*
Y18652D01*
X28383D01*
Y18332D01*
X28224D01*
X27619Y18671D01*
Y18798D01*
X28223D01*
Y18895D01*
X28383D01*
Y18798D01*
D02*
G37*
G36*
X28289Y18256D02*
X28297Y18253D01*
X28309Y18251D01*
X28321Y18246D01*
X28337Y18242D01*
X28354Y18237D01*
X28372Y18229D01*
X28410Y18213D01*
X28450Y18191D01*
X28486Y18167D01*
X28502Y18153D01*
X28517Y18138D01*
X28519Y18136D01*
X28520Y18134D01*
X28524Y18129D01*
X28528Y18122D01*
X28534Y18115D01*
X28540Y18105D01*
X28547Y18094D01*
X28554Y18081D01*
X28561Y18067D01*
X28568Y18052D01*
X28579Y18017D01*
X28588Y17977D01*
X28589Y17956D01*
X28591Y17933D01*
Y17926D01*
X28589Y17919D01*
Y17908D01*
X28586Y17895D01*
X28585Y17880D01*
X28581Y17863D01*
X28576Y17845D01*
X28569Y17825D01*
X28562Y17805D01*
X28552Y17785D01*
X28541Y17764D01*
X28527Y17743D01*
X28512Y17723D01*
X28495Y17704D01*
X28473Y17685D01*
X28472Y17684D01*
X28468Y17681D01*
X28459Y17675D01*
X28448Y17668D01*
X28435Y17660D01*
X28419Y17652D01*
X28399Y17642D01*
X28376Y17632D01*
X28352Y17621D01*
X28324Y17611D01*
X28294Y17602D01*
X28262Y17594D01*
X28227Y17587D01*
X28189Y17581D01*
X28149Y17578D01*
X28107Y17577D01*
X28106D01*
X28104D01*
X28096D01*
X28083Y17578D01*
X28068D01*
X28046Y17580D01*
X28022Y17582D01*
X27997Y17587D01*
X27969Y17591D01*
X27938Y17597D01*
X27907Y17604D01*
X27876Y17612D01*
X27843Y17623D01*
X27812Y17636D01*
X27783Y17650D01*
X27753Y17667D01*
X27726Y17687D01*
X27725Y17688D01*
X27721Y17691D01*
X27715Y17697D01*
X27708Y17704D01*
X27698Y17714D01*
X27688Y17725D01*
X27677Y17739D01*
X27666Y17754D01*
X27656Y17771D01*
X27645Y17791D01*
X27635Y17812D01*
X27625Y17835D01*
X27618Y17860D01*
X27612Y17886D01*
X27608Y17914D01*
X27607Y17943D01*
Y17956D01*
X27608Y17966D01*
X27609Y17977D01*
X27611Y17990D01*
X27614Y18004D01*
X27618Y18019D01*
X27629Y18055D01*
X27636Y18073D01*
X27645Y18091D01*
X27656Y18110D01*
X27669Y18128D01*
X27683Y18146D01*
X27698Y18163D01*
Y18165D01*
X27701Y18166D01*
X27705Y18169D01*
X27709Y18173D01*
X27716Y18179D01*
X27725Y18184D01*
X27735Y18191D01*
X27746Y18198D01*
X27759Y18206D01*
X27771Y18214D01*
X27787Y18221D01*
X27804Y18229D01*
X27824Y18237D01*
X27843Y18244D01*
X27865Y18251D01*
X27887Y18256D01*
X27932Y18100D01*
X27931D01*
X27929Y18098D01*
X27925D01*
X27919Y18097D01*
X27905Y18093D01*
X27888Y18087D01*
X27869Y18079D01*
X27849Y18067D01*
X27831Y18055D01*
X27814Y18039D01*
X27812Y18038D01*
X27807Y18032D01*
X27800Y18022D01*
X27793Y18010D01*
X27784Y17994D01*
X27779Y17977D01*
X27773Y17957D01*
X27771Y17935D01*
Y17926D01*
X27773Y17921D01*
X27776Y17905D01*
X27781Y17886D01*
X27790Y17863D01*
X27804Y17839D01*
X27812Y17828D01*
X27822Y17816D01*
X27833Y17805D01*
X27848Y17794D01*
X27849D01*
X27850Y17791D01*
X27856Y17790D01*
X27862Y17785D01*
X27870Y17781D01*
X27880Y17777D01*
X27893Y17773D01*
X27907Y17767D01*
X27922Y17761D01*
X27941Y17757D01*
X27962Y17753D01*
X27984Y17749D01*
X28008Y17746D01*
X28035Y17743D01*
X28065Y17740D01*
X28096D01*
X28097D01*
X28104D01*
X28113D01*
X28125Y17742D01*
X28139D01*
X28156Y17743D01*
X28175Y17745D01*
X28194Y17747D01*
X28237Y17753D01*
X28279Y17763D01*
X28299Y17769D01*
X28318Y17776D01*
X28335Y17784D01*
X28351Y17792D01*
X28352D01*
X28354Y17795D01*
X28362Y17802D01*
X28375Y17814D01*
X28388Y17831D01*
X28402Y17850D01*
X28414Y17873D01*
X28423Y17901D01*
X28424Y17915D01*
X28426Y17931D01*
Y17933D01*
X28424Y17941D01*
X28423Y17953D01*
X28420Y17967D01*
X28414Y17984D01*
X28406Y18003D01*
X28393Y18021D01*
X28378Y18038D01*
X28375Y18039D01*
X28368Y18045D01*
X28357Y18053D01*
X28340Y18063D01*
X28318Y18074D01*
X28292Y18084D01*
X28261Y18096D01*
X28223Y18104D01*
X28282Y18258D01*
X28283D01*
X28289Y18256D01*
D02*
G37*
G36*
X14113Y16917D02*
X14124Y16915D01*
X14137Y16914D01*
X14151Y16911D01*
X14168Y16908D01*
X14202Y16898D01*
X14237Y16884D01*
X14255Y16876D01*
X14273Y16866D01*
X14290Y16853D01*
X14307Y16839D01*
X14309Y16838D01*
X14312Y16836D01*
X14316Y16831D01*
X14320Y16825D01*
X14327Y16818D01*
X14334Y16809D01*
X14350Y16787D01*
X14365Y16760D01*
X14379Y16729D01*
X14383Y16711D01*
X14388Y16692D01*
X14391Y16674D01*
X14392Y16654D01*
Y16644D01*
X14391Y16637D01*
X14389Y16629D01*
X14388Y16618D01*
X14383Y16594D01*
X14375Y16567D01*
X14361Y16537D01*
X14354Y16522D01*
X14344Y16508D01*
X14333Y16494D01*
X14320Y16480D01*
X14319Y16478D01*
X14317Y16477D01*
X14313Y16472D01*
X14307Y16468D01*
X14299Y16463D01*
X14290Y16457D01*
X14281Y16450D01*
X14268Y16443D01*
X14255Y16436D01*
X14240Y16429D01*
X14224Y16422D01*
X14206Y16415D01*
X14168Y16405D01*
X14123Y16398D01*
X14102Y16543D01*
X14103D01*
X14104D01*
X14113Y16544D01*
X14124Y16546D01*
X14140Y16550D01*
X14156Y16554D01*
X14173Y16561D01*
X14190Y16570D01*
X14204Y16580D01*
X14206Y16581D01*
X14210Y16585D01*
X14216Y16592D01*
X14221Y16601D01*
X14228Y16611D01*
X14234Y16623D01*
X14238Y16637D01*
X14240Y16653D01*
Y16661D01*
X14237Y16670D01*
X14234Y16680D01*
X14230Y16692D01*
X14223Y16706D01*
X14213Y16719D01*
X14199Y16732D01*
X14197Y16733D01*
X14190Y16737D01*
X14182Y16742D01*
X14168Y16749D01*
X14152Y16754D01*
X14131Y16759D01*
X14109Y16763D01*
X14082Y16764D01*
X14080D01*
X14079D01*
X14071D01*
X14058Y16763D01*
X14042Y16760D01*
X14025Y16757D01*
X14007Y16752D01*
X13989Y16743D01*
X13973Y16733D01*
X13972Y16732D01*
X13966Y16728D01*
X13961Y16721D01*
X13952Y16712D01*
X13945Y16701D01*
X13938Y16688D01*
X13934Y16674D01*
X13932Y16659D01*
Y16647D01*
X13934Y16640D01*
X13935Y16630D01*
X13938Y16618D01*
X13942Y16605D01*
X13946Y16591D01*
X13797Y16606D01*
Y16616D01*
X13796Y16628D01*
X13794Y16640D01*
X13790Y16656D01*
X13786Y16671D01*
X13777Y16685D01*
X13767Y16699D01*
X13766Y16701D01*
X13762Y16705D01*
X13753Y16711D01*
X13743Y16716D01*
X13731Y16722D01*
X13715Y16728D01*
X13697Y16732D01*
X13676Y16733D01*
X13673D01*
X13667D01*
X13659Y16732D01*
X13648Y16730D01*
X13636Y16728D01*
X13624Y16722D01*
X13611Y16716D01*
X13600Y16708D01*
X13598Y16706D01*
X13595Y16704D01*
X13591Y16698D01*
X13586Y16691D01*
X13580Y16683D01*
X13576Y16671D01*
X13573Y16659D01*
X13571Y16644D01*
Y16639D01*
X13573Y16630D01*
X13576Y16622D01*
X13580Y16612D01*
X13586Y16601D01*
X13593Y16589D01*
X13604Y16578D01*
X13605Y16577D01*
X13610Y16574D01*
X13618Y16570D01*
X13628Y16564D01*
X13641Y16558D01*
X13657Y16553D01*
X13676Y16549D01*
X13698Y16546D01*
X13670Y16408D01*
X13669D01*
X13665Y16409D01*
X13657Y16410D01*
X13649Y16412D01*
X13638Y16415D01*
X13626Y16417D01*
X13598Y16426D01*
X13567Y16437D01*
X13536Y16451D01*
X13507Y16470D01*
X13493Y16480D01*
X13481Y16491D01*
X13480Y16492D01*
X13478Y16494D01*
X13471Y16502D01*
X13462Y16516D01*
X13450Y16534D01*
X13440Y16557D01*
X13430Y16585D01*
X13423Y16616D01*
X13421Y16633D01*
Y16660D01*
X13422Y16668D01*
X13423Y16677D01*
X13425Y16687D01*
X13430Y16712D01*
X13439Y16739D01*
X13453Y16767D01*
X13462Y16781D01*
X13471Y16795D01*
X13483Y16808D01*
X13497Y16821D01*
X13498Y16822D01*
X13500Y16823D01*
X13504Y16826D01*
X13509Y16831D01*
X13516Y16835D01*
X13525Y16840D01*
X13546Y16853D01*
X13571Y16864D01*
X13600Y16874D01*
X13631Y16881D01*
X13648Y16884D01*
X13665D01*
X13667D01*
X13674D01*
X13687Y16883D01*
X13701Y16880D01*
X13719Y16877D01*
X13738Y16871D01*
X13758Y16864D01*
X13777Y16854D01*
X13780Y16853D01*
X13786Y16849D01*
X13794Y16843D01*
X13807Y16833D01*
X13820Y16822D01*
X13835Y16807D01*
X13851Y16790D01*
X13865Y16770D01*
Y16771D01*
X13866Y16773D01*
X13869Y16781D01*
X13873Y16792D01*
X13880Y16808D01*
X13891Y16825D01*
X13904Y16842D01*
X13921Y16859D01*
X13942Y16876D01*
X13945Y16877D01*
X13953Y16883D01*
X13966Y16890D01*
X13983Y16897D01*
X14004Y16905D01*
X14030Y16911D01*
X14059Y16917D01*
X14092Y16918D01*
X14093D01*
X14097D01*
X14104D01*
X14113Y16917D01*
D02*
G37*
G36*
X14090Y16300D02*
X14099Y16298D01*
X14110Y16295D01*
X14123Y16291D01*
X14138Y16286D01*
X14155Y16281D01*
X14173Y16274D01*
X14211Y16257D01*
X14251Y16236D01*
X14288Y16212D01*
X14303Y16198D01*
X14319Y16182D01*
X14320Y16181D01*
X14321Y16178D01*
X14326Y16174D01*
X14330Y16167D01*
X14336Y16160D01*
X14341Y16150D01*
X14348Y16138D01*
X14355Y16126D01*
X14362Y16112D01*
X14369Y16096D01*
X14381Y16061D01*
X14389Y16021D01*
X14391Y16000D01*
X14392Y15978D01*
Y15971D01*
X14391Y15964D01*
Y15952D01*
X14388Y15940D01*
X14386Y15924D01*
X14382Y15907D01*
X14378Y15889D01*
X14371Y15869D01*
X14364Y15849D01*
X14354Y15830D01*
X14343Y15808D01*
X14328Y15787D01*
X14313Y15768D01*
X14296Y15748D01*
X14275Y15730D01*
X14273Y15728D01*
X14269Y15725D01*
X14261Y15720D01*
X14250Y15713D01*
X14237Y15704D01*
X14220Y15696D01*
X14200Y15686D01*
X14178Y15676D01*
X14154Y15665D01*
X14125Y15655D01*
X14096Y15646D01*
X14063Y15638D01*
X14028Y15631D01*
X13990Y15625D01*
X13951Y15622D01*
X13908Y15621D01*
X13907D01*
X13906D01*
X13897D01*
X13884Y15622D01*
X13869D01*
X13848Y15624D01*
X13824Y15627D01*
X13798Y15631D01*
X13770Y15635D01*
X13739Y15641D01*
X13708Y15648D01*
X13677Y15656D01*
X13645Y15668D01*
X13614Y15680D01*
X13584Y15694D01*
X13555Y15711D01*
X13528Y15731D01*
X13526Y15732D01*
X13522Y15735D01*
X13516Y15741D01*
X13509Y15748D01*
X13500Y15758D01*
X13490Y15769D01*
X13478Y15783D01*
X13467Y15799D01*
X13457Y15816D01*
X13446Y15835D01*
X13436Y15856D01*
X13426Y15879D01*
X13419Y15904D01*
X13414Y15930D01*
X13409Y15958D01*
X13408Y15988D01*
Y16000D01*
X13409Y16010D01*
X13411Y16021D01*
X13412Y16034D01*
X13415Y16048D01*
X13419Y16064D01*
X13430Y16099D01*
X13438Y16117D01*
X13446Y16136D01*
X13457Y16154D01*
X13470Y16172D01*
X13484Y16191D01*
X13500Y16207D01*
Y16209D01*
X13502Y16210D01*
X13507Y16213D01*
X13511Y16217D01*
X13518Y16223D01*
X13526Y16229D01*
X13536Y16236D01*
X13547Y16243D01*
X13560Y16250D01*
X13573Y16258D01*
X13588Y16265D01*
X13605Y16274D01*
X13625Y16281D01*
X13645Y16288D01*
X13666Y16295D01*
X13688Y16300D01*
X13734Y16144D01*
X13732D01*
X13731Y16143D01*
X13727D01*
X13721Y16141D01*
X13707Y16137D01*
X13690Y16131D01*
X13670Y16123D01*
X13650Y16112D01*
X13632Y16099D01*
X13615Y16083D01*
X13614Y16082D01*
X13608Y16076D01*
X13601Y16066D01*
X13594Y16054D01*
X13586Y16038D01*
X13580Y16021D01*
X13574Y16002D01*
X13573Y15979D01*
Y15971D01*
X13574Y15965D01*
X13577Y15949D01*
X13583Y15930D01*
X13591Y15907D01*
X13605Y15883D01*
X13614Y15872D01*
X13624Y15861D01*
X13635Y15849D01*
X13649Y15838D01*
X13650D01*
X13652Y15835D01*
X13657Y15834D01*
X13663Y15830D01*
X13672Y15825D01*
X13681Y15821D01*
X13694Y15817D01*
X13708Y15811D01*
X13724Y15806D01*
X13742Y15801D01*
X13763Y15797D01*
X13786Y15793D01*
X13810Y15790D01*
X13836Y15787D01*
X13866Y15785D01*
X13897D01*
X13899D01*
X13906D01*
X13914D01*
X13927Y15786D01*
X13941D01*
X13958Y15787D01*
X13976Y15789D01*
X13996Y15792D01*
X14038Y15797D01*
X14080Y15807D01*
X14100Y15813D01*
X14120Y15820D01*
X14137Y15828D01*
X14152Y15837D01*
X14154D01*
X14155Y15840D01*
X14164Y15847D01*
X14176Y15858D01*
X14189Y15875D01*
X14203Y15894D01*
X14216Y15917D01*
X14224Y15945D01*
X14226Y15959D01*
X14227Y15975D01*
Y15978D01*
X14226Y15985D01*
X14224Y15997D01*
X14221Y16011D01*
X14216Y16028D01*
X14207Y16047D01*
X14195Y16065D01*
X14179Y16082D01*
X14176Y16083D01*
X14169Y16089D01*
X14158Y16097D01*
X14141Y16107D01*
X14120Y16119D01*
X14093Y16128D01*
X14062Y16140D01*
X14024Y16148D01*
X14083Y16302D01*
X14085D01*
X14090Y16300D01*
D02*
G37*
G36*
X13106Y10338D02*
X13105D01*
X13102D01*
X13097Y10340D01*
X13089D01*
X13081Y10341D01*
X13071Y10344D01*
X13047Y10348D01*
X13020Y10354D01*
X12989Y10364D01*
X12957Y10375D01*
X12925Y10389D01*
X12923D01*
X12920Y10392D01*
X12916Y10393D01*
X12909Y10398D01*
X12901Y10403D01*
X12889Y10409D01*
X12878Y10417D01*
X12864Y10427D01*
X12848Y10437D01*
X12832Y10450D01*
X12813Y10462D01*
X12792Y10478D01*
X12771Y10495D01*
X12748Y10515D01*
X12723Y10534D01*
X12698Y10557D01*
X12696Y10558D01*
X12692Y10561D01*
X12686Y10567D01*
X12679Y10572D01*
X12671Y10581D01*
X12660Y10589D01*
X12636Y10609D01*
X12610Y10630D01*
X12586Y10650D01*
X12564Y10667D01*
X12554Y10674D01*
X12545Y10680D01*
X12543Y10681D01*
X12535Y10685D01*
X12524Y10691D01*
X12509Y10697D01*
X12492Y10702D01*
X12472Y10708D01*
X12451Y10712D01*
X12430Y10713D01*
X12428D01*
X12427D01*
X12420D01*
X12409Y10712D01*
X12394Y10711D01*
X12379Y10706D01*
X12363Y10702D01*
X12348Y10695D01*
X12335Y10685D01*
X12334Y10684D01*
X12330Y10680D01*
X12325Y10674D01*
X12318Y10665D01*
X12313Y10656D01*
X12309Y10643D01*
X12304Y10627D01*
X12303Y10612D01*
Y10608D01*
X12304Y10602D01*
X12306Y10596D01*
X12311Y10580D01*
X12316Y10571D01*
X12321Y10561D01*
X12330Y10551D01*
X12340Y10541D01*
X12351Y10533D01*
X12366Y10525D01*
X12383Y10517D01*
X12403Y10512D01*
X12426Y10508D01*
X12452Y10505D01*
X12433Y10355D01*
X12431D01*
X12426Y10357D01*
X12418D01*
X12409Y10358D01*
X12397Y10361D01*
X12383Y10362D01*
X12368Y10367D01*
X12351Y10371D01*
X12317Y10381D01*
X12282Y10395D01*
X12248Y10413D01*
X12234Y10423D01*
X12220Y10436D01*
X12218Y10437D01*
X12217Y10439D01*
X12213Y10443D01*
X12208Y10448D01*
X12204Y10455D01*
X12197Y10462D01*
X12184Y10484D01*
X12172Y10509D01*
X12162Y10540D01*
X12153Y10575D01*
X12152Y10595D01*
X12151Y10615D01*
Y10626D01*
X12152Y10634D01*
X12153Y10646D01*
X12155Y10657D01*
X12160Y10685D01*
X12170Y10715D01*
X12176Y10730D01*
X12184Y10746D01*
X12194Y10761D01*
X12204Y10775D01*
X12217Y10788D01*
X12231Y10801D01*
X12232Y10802D01*
X12235Y10804D01*
X12239Y10806D01*
X12245Y10811D01*
X12252Y10815D01*
X12262Y10821D01*
X12285Y10833D01*
X12311Y10845D01*
X12342Y10854D01*
X12376Y10861D01*
X12394Y10864D01*
X12414D01*
X12417D01*
X12424D01*
X12435Y10863D01*
X12451D01*
X12468Y10860D01*
X12488Y10857D01*
X12507Y10853D01*
X12528Y10847D01*
X12531D01*
X12538Y10845D01*
X12548Y10840D01*
X12562Y10836D01*
X12579Y10829D01*
X12597Y10821D01*
X12617Y10809D01*
X12638Y10798D01*
X12641Y10797D01*
X12648Y10792D01*
X12661Y10784D01*
X12676Y10773D01*
X12698Y10757D01*
X12722Y10737D01*
X12750Y10715D01*
X12781Y10688D01*
X12782Y10687D01*
X12784Y10685D01*
X12788Y10681D01*
X12793Y10677D01*
X12808Y10664D01*
X12824Y10650D01*
X12843Y10634D01*
X12860Y10619D01*
X12875Y10606D01*
X12888Y10596D01*
X12889Y10595D01*
X12892Y10594D01*
X12898Y10589D01*
X12903Y10585D01*
X12919Y10575D01*
X12937Y10565D01*
Y10864D01*
X13106D01*
Y10338D01*
D02*
G37*
G36*
X12820Y10255D02*
X12829Y10252D01*
X12840Y10250D01*
X12853Y10245D01*
X12868Y10241D01*
X12885Y10236D01*
X12903Y10228D01*
X12941Y10212D01*
X12981Y10190D01*
X13018Y10166D01*
X13033Y10152D01*
X13049Y10137D01*
X13050Y10135D01*
X13051Y10133D01*
X13056Y10128D01*
X13060Y10121D01*
X13066Y10114D01*
X13071Y10104D01*
X13078Y10093D01*
X13085Y10080D01*
X13092Y10066D01*
X13099Y10051D01*
X13111Y10016D01*
X13119Y9976D01*
X13120Y9955D01*
X13122Y9932D01*
Y9925D01*
X13120Y9918D01*
Y9907D01*
X13118Y9894D01*
X13116Y9879D01*
X13112Y9862D01*
X13108Y9844D01*
X13101Y9824D01*
X13094Y9804D01*
X13084Y9784D01*
X13073Y9763D01*
X13058Y9742D01*
X13043Y9722D01*
X13026Y9703D01*
X13005Y9684D01*
X13003Y9683D01*
X12999Y9680D01*
X12991Y9674D01*
X12980Y9667D01*
X12967Y9659D01*
X12950Y9651D01*
X12930Y9641D01*
X12908Y9631D01*
X12884Y9620D01*
X12855Y9610D01*
X12826Y9601D01*
X12793Y9593D01*
X12758Y9586D01*
X12720Y9580D01*
X12681Y9577D01*
X12638Y9576D01*
X12637D01*
X12636D01*
X12627D01*
X12614Y9577D01*
X12599D01*
X12578Y9579D01*
X12554Y9581D01*
X12528Y9586D01*
X12500Y9590D01*
X12469Y9596D01*
X12438Y9603D01*
X12407Y9611D01*
X12375Y9622D01*
X12344Y9635D01*
X12314Y9649D01*
X12285Y9666D01*
X12258Y9686D01*
X12256Y9687D01*
X12252Y9690D01*
X12246Y9696D01*
X12239Y9703D01*
X12230Y9713D01*
X12220Y9724D01*
X12208Y9738D01*
X12197Y9753D01*
X12187Y9770D01*
X12176Y9790D01*
X12166Y9811D01*
X12156Y9834D01*
X12149Y9859D01*
X12144Y9885D01*
X12139Y9913D01*
X12138Y9942D01*
Y9955D01*
X12139Y9965D01*
X12141Y9976D01*
X12142Y9989D01*
X12145Y10003D01*
X12149Y10018D01*
X12160Y10054D01*
X12168Y10072D01*
X12176Y10090D01*
X12187Y10109D01*
X12200Y10127D01*
X12214Y10145D01*
X12230Y10162D01*
Y10164D01*
X12232Y10165D01*
X12237Y10168D01*
X12241Y10172D01*
X12248Y10178D01*
X12256Y10183D01*
X12266Y10190D01*
X12278Y10197D01*
X12290Y10205D01*
X12303Y10213D01*
X12318Y10220D01*
X12335Y10228D01*
X12355Y10236D01*
X12375Y10243D01*
X12396Y10250D01*
X12418Y10255D01*
X12464Y10099D01*
X12462D01*
X12461Y10097D01*
X12457D01*
X12451Y10096D01*
X12437Y10092D01*
X12420Y10086D01*
X12400Y10078D01*
X12380Y10066D01*
X12362Y10054D01*
X12345Y10038D01*
X12344Y10037D01*
X12338Y10031D01*
X12331Y10021D01*
X12324Y10009D01*
X12316Y9993D01*
X12310Y9976D01*
X12304Y9956D01*
X12303Y9934D01*
Y9925D01*
X12304Y9920D01*
X12307Y9904D01*
X12313Y9885D01*
X12321Y9862D01*
X12335Y9838D01*
X12344Y9827D01*
X12354Y9815D01*
X12365Y9804D01*
X12379Y9793D01*
X12380D01*
X12382Y9790D01*
X12387Y9789D01*
X12393Y9784D01*
X12402Y9780D01*
X12411Y9776D01*
X12424Y9772D01*
X12438Y9766D01*
X12454Y9760D01*
X12472Y9756D01*
X12493Y9752D01*
X12516Y9748D01*
X12540Y9745D01*
X12566Y9742D01*
X12596Y9739D01*
X12627D01*
X12629D01*
X12636D01*
X12644D01*
X12657Y9741D01*
X12671D01*
X12688Y9742D01*
X12706Y9744D01*
X12726Y9746D01*
X12768Y9752D01*
X12810Y9762D01*
X12830Y9768D01*
X12850Y9775D01*
X12867Y9783D01*
X12882Y9791D01*
X12884D01*
X12885Y9794D01*
X12894Y9801D01*
X12906Y9813D01*
X12919Y9830D01*
X12933Y9849D01*
X12946Y9872D01*
X12954Y9900D01*
X12956Y9914D01*
X12957Y9930D01*
Y9932D01*
X12956Y9939D01*
X12954Y9952D01*
X12951Y9966D01*
X12946Y9983D01*
X12937Y10002D01*
X12925Y10020D01*
X12909Y10037D01*
X12906Y10038D01*
X12899Y10044D01*
X12888Y10052D01*
X12871Y10062D01*
X12850Y10073D01*
X12823Y10083D01*
X12792Y10095D01*
X12754Y10103D01*
X12813Y10257D01*
X12815D01*
X12820Y10255D01*
D02*
G37*
G36*
X15138Y10567D02*
X14449D01*
X14450Y10565D01*
X14453Y10563D01*
X14458Y10558D01*
X14465Y10551D01*
X14472Y10544D01*
X14481Y10534D01*
X14491Y10523D01*
X14501Y10510D01*
X14524Y10482D01*
X14548Y10450D01*
X14569Y10412D01*
X14587Y10372D01*
X14421D01*
Y10374D01*
X14419Y10375D01*
X14417Y10384D01*
X14410Y10395D01*
X14401Y10412D01*
X14388Y10431D01*
X14373Y10453D01*
X14355Y10477D01*
X14332Y10502D01*
X14331Y10503D01*
X14329Y10505D01*
X14321Y10513D01*
X14307Y10524D01*
X14288Y10539D01*
X14267Y10554D01*
X14242Y10570D01*
X14214Y10584D01*
X14183Y10595D01*
Y10718D01*
X15138D01*
Y10567D01*
D02*
G37*
G36*
X14852Y10230D02*
X14861Y10227D01*
X14872Y10224D01*
X14885Y10220D01*
X14900Y10216D01*
X14917Y10210D01*
X14935Y10203D01*
X14973Y10186D01*
X15013Y10165D01*
X15050Y10141D01*
X15065Y10127D01*
X15081Y10111D01*
X15082Y10110D01*
X15083Y10107D01*
X15088Y10103D01*
X15092Y10096D01*
X15098Y10089D01*
X15103Y10079D01*
X15110Y10068D01*
X15117Y10055D01*
X15124Y10041D01*
X15131Y10025D01*
X15143Y9990D01*
X15151Y9951D01*
X15153Y9930D01*
X15154Y9907D01*
Y9900D01*
X15153Y9893D01*
Y9882D01*
X15150Y9869D01*
X15148Y9853D01*
X15144Y9837D01*
X15140Y9818D01*
X15133Y9799D01*
X15126Y9779D01*
X15116Y9759D01*
X15105Y9738D01*
X15090Y9717D01*
X15075Y9697D01*
X15058Y9677D01*
X15037Y9659D01*
X15035Y9658D01*
X15031Y9655D01*
X15023Y9649D01*
X15012Y9642D01*
X14999Y9634D01*
X14982Y9625D01*
X14962Y9615D01*
X14940Y9605D01*
X14916Y9594D01*
X14887Y9584D01*
X14858Y9576D01*
X14825Y9567D01*
X14790Y9560D01*
X14752Y9555D01*
X14713Y9552D01*
X14670Y9550D01*
X14669D01*
X14668D01*
X14659D01*
X14646Y9552D01*
X14631D01*
X14610Y9553D01*
X14586Y9556D01*
X14560Y9560D01*
X14532Y9564D01*
X14501Y9570D01*
X14470Y9577D01*
X14439Y9586D01*
X14407Y9597D01*
X14376Y9610D01*
X14346Y9624D01*
X14317Y9641D01*
X14290Y9660D01*
X14288Y9662D01*
X14284Y9665D01*
X14278Y9670D01*
X14271Y9677D01*
X14262Y9687D01*
X14252Y9698D01*
X14240Y9713D01*
X14229Y9728D01*
X14219Y9745D01*
X14208Y9765D01*
X14198Y9786D01*
X14188Y9808D01*
X14181Y9834D01*
X14176Y9859D01*
X14171Y9887D01*
X14170Y9917D01*
Y9930D01*
X14171Y9939D01*
X14173Y9951D01*
X14174Y9963D01*
X14177Y9978D01*
X14181Y9993D01*
X14192Y10028D01*
X14200Y10047D01*
X14208Y10065D01*
X14219Y10083D01*
X14232Y10102D01*
X14246Y10120D01*
X14262Y10137D01*
Y10138D01*
X14264Y10140D01*
X14269Y10142D01*
X14273Y10147D01*
X14280Y10152D01*
X14288Y10158D01*
X14298Y10165D01*
X14309Y10172D01*
X14322Y10179D01*
X14335Y10188D01*
X14350Y10195D01*
X14367Y10203D01*
X14387Y10210D01*
X14407Y10217D01*
X14428Y10224D01*
X14450Y10230D01*
X14496Y10073D01*
X14494D01*
X14493Y10072D01*
X14489D01*
X14483Y10071D01*
X14469Y10066D01*
X14452Y10061D01*
X14432Y10052D01*
X14412Y10041D01*
X14394Y10028D01*
X14377Y10013D01*
X14376Y10011D01*
X14370Y10006D01*
X14363Y9996D01*
X14356Y9983D01*
X14348Y9968D01*
X14342Y9951D01*
X14336Y9931D01*
X14335Y9908D01*
Y9900D01*
X14336Y9894D01*
X14339Y9879D01*
X14345Y9859D01*
X14353Y9837D01*
X14367Y9813D01*
X14376Y9801D01*
X14386Y9790D01*
X14397Y9779D01*
X14411Y9767D01*
X14412D01*
X14414Y9765D01*
X14419Y9763D01*
X14425Y9759D01*
X14434Y9755D01*
X14443Y9751D01*
X14456Y9746D01*
X14470Y9741D01*
X14486Y9735D01*
X14504Y9731D01*
X14525Y9727D01*
X14548Y9722D01*
X14572Y9720D01*
X14598Y9717D01*
X14628Y9714D01*
X14659D01*
X14661D01*
X14668D01*
X14676D01*
X14689Y9715D01*
X14703D01*
X14720Y9717D01*
X14738Y9718D01*
X14758Y9721D01*
X14800Y9727D01*
X14842Y9736D01*
X14862Y9742D01*
X14882Y9749D01*
X14899Y9758D01*
X14914Y9766D01*
X14916D01*
X14917Y9769D01*
X14926Y9776D01*
X14938Y9787D01*
X14951Y9804D01*
X14965Y9824D01*
X14978Y9846D01*
X14986Y9875D01*
X14988Y9889D01*
X14989Y9904D01*
Y9907D01*
X14988Y9914D01*
X14986Y9927D01*
X14983Y9941D01*
X14978Y9958D01*
X14969Y9976D01*
X14957Y9994D01*
X14941Y10011D01*
X14938Y10013D01*
X14931Y10018D01*
X14920Y10027D01*
X14903Y10037D01*
X14882Y10048D01*
X14855Y10058D01*
X14824Y10069D01*
X14786Y10078D01*
X14845Y10231D01*
X14847D01*
X14852Y10230D01*
D02*
G37*
%LPC*%
G36*
X32636Y1430D02*
X32626D01*
X32615Y1428D01*
X32602Y1422D01*
X32587Y1417D01*
X32571Y1408D01*
X32554Y1395D01*
X32539Y1376D01*
X32537Y1374D01*
X32534Y1367D01*
X32526Y1354D01*
X32521Y1335D01*
X32513Y1313D01*
X32506Y1287D01*
X32502Y1254D01*
X32500Y1217D01*
Y1215D01*
Y1211D01*
Y1206D01*
Y1198D01*
X32502Y1176D01*
X32506Y1150D01*
X32511Y1123D01*
X32519Y1093D01*
X32528Y1063D01*
X32543Y1037D01*
X32545Y1035D01*
X32550Y1028D01*
X32560Y1019D01*
X32573Y1008D01*
X32587Y995D01*
X32604Y985D01*
X32624Y978D01*
X32645Y976D01*
X32654D01*
X32663Y978D01*
X32676Y982D01*
X32691Y989D01*
X32706Y997D01*
X32721Y1010D01*
X32736Y1026D01*
X32737Y1028D01*
X32741Y1035D01*
X32747Y1048D01*
X32754Y1067D01*
X32761Y1091D01*
X32767Y1121D01*
X32771Y1156D01*
X32773Y1197D01*
Y1198D01*
Y1202D01*
Y1208D01*
Y1217D01*
X32771Y1237D01*
X32767Y1263D01*
X32763Y1293D01*
X32756Y1322D01*
X32745Y1348D01*
X32732Y1372D01*
X32730Y1374D01*
X32724Y1382D01*
X32717Y1391D01*
X32706Y1402D01*
X32691Y1411D01*
X32674Y1421D01*
X32656Y1428D01*
X32636Y1430D01*
D02*
G37*
G36*
X34576Y1852D02*
X34567D01*
X34556Y1850D01*
X34545Y1847D01*
X34530Y1839D01*
X34513Y1830D01*
X34498Y1817D01*
X34484Y1800D01*
X34482Y1798D01*
X34478Y1791D01*
X34472Y1778D01*
X34467Y1759D01*
X34459Y1735D01*
X34454Y1706D01*
X34450Y1671D01*
X34448Y1628D01*
Y1626D01*
Y1622D01*
Y1617D01*
Y1608D01*
X34450Y1587D01*
X34454Y1561D01*
X34458Y1532D01*
X34465Y1504D01*
X34474Y1476D01*
X34487Y1452D01*
X34489Y1450D01*
X34495Y1443D01*
X34504Y1435D01*
X34515Y1424D01*
X34530Y1415D01*
X34546Y1406D01*
X34565Y1398D01*
X34585Y1397D01*
X34595D01*
X34606Y1400D01*
X34619Y1404D01*
X34633Y1410D01*
X34650Y1419D01*
X34665Y1432D01*
X34682Y1448D01*
X34683Y1450D01*
X34687Y1458D01*
X34695Y1471D01*
X34702Y1489D01*
X34709Y1511D01*
X34717Y1539D01*
X34721Y1572D01*
X34722Y1610D01*
Y1611D01*
Y1615D01*
Y1621D01*
Y1628D01*
X34721Y1650D01*
X34717Y1676D01*
X34711Y1704D01*
X34702Y1735D01*
X34691Y1763D01*
X34676Y1789D01*
X34674Y1791D01*
X34669Y1798D01*
X34659Y1809D01*
X34646Y1821D01*
X34632Y1832D01*
X34615Y1843D01*
X34596Y1850D01*
X34576Y1852D01*
D02*
G37*
G36*
X24616Y1339D02*
X24390D01*
Y1008D01*
X24636D01*
X24655Y1010D01*
X24694Y1013D01*
X24712Y1015D01*
X24729Y1019D01*
X24731D01*
X24736Y1021D01*
X24742Y1024D01*
X24751Y1030D01*
X24762Y1037D01*
X24773Y1045D01*
X24785Y1058D01*
X24796Y1071D01*
X24797Y1073D01*
X24801Y1078D01*
X24805Y1087D01*
X24810Y1098D01*
X24816Y1113D01*
X24822Y1130D01*
X24823Y1148D01*
X24825Y1169D01*
Y1171D01*
Y1176D01*
X24823Y1185D01*
X24822Y1195D01*
X24820Y1208D01*
X24814Y1222D01*
X24809Y1237D01*
X24799Y1254D01*
X24788Y1271D01*
X24773Y1285D01*
X24757Y1300D01*
X24736Y1313D01*
X24712Y1324D01*
X24685Y1332D01*
X24653Y1337D01*
X24616Y1339D01*
D02*
G37*
G36*
X33808Y1852D02*
X33806D01*
X33798Y1850D01*
X33787Y1848D01*
X33774Y1843D01*
X33760Y1834D01*
X33743Y1819D01*
X33728Y1800D01*
X33715Y1774D01*
X33713Y1771D01*
X33711Y1765D01*
X33710Y1758D01*
X33708Y1748D01*
X33704Y1735D01*
X33702Y1719D01*
X33698Y1700D01*
X33695Y1678D01*
X33693Y1652D01*
X33689Y1622D01*
X33687Y1589D01*
X33685Y1552D01*
X33684Y1511D01*
X33682Y1465D01*
Y1413D01*
Y1410D01*
Y1400D01*
Y1387D01*
Y1367D01*
X33684Y1345D01*
Y1319D01*
X33685Y1291D01*
Y1261D01*
X33689Y1200D01*
X33693Y1169D01*
X33697Y1141D01*
X33700Y1113D01*
X33704Y1089D01*
X33710Y1069D01*
X33715Y1052D01*
X33717Y1048D01*
X33721Y1041D01*
X33728Y1028D01*
X33739Y1015D01*
X33752Y1000D01*
X33769Y987D01*
X33787Y980D01*
X33808Y976D01*
X33810D01*
X33817Y978D01*
X33828Y980D01*
X33841Y985D01*
X33856Y995D01*
X33871Y1008D01*
X33885Y1026D01*
X33898Y1052D01*
Y1054D01*
X33900Y1056D01*
X33902Y1061D01*
X33904Y1069D01*
X33906Y1078D01*
X33909Y1091D01*
X33913Y1108D01*
X33917Y1126D01*
X33919Y1148D01*
X33922Y1174D01*
X33926Y1204D01*
X33928Y1237D01*
X33930Y1274D01*
X33932Y1315D01*
X33934Y1361D01*
Y1413D01*
Y1417D01*
Y1426D01*
Y1441D01*
Y1460D01*
X33932Y1482D01*
Y1508D01*
X33930Y1535D01*
Y1565D01*
X33924Y1626D01*
X33922Y1658D01*
X33919Y1685D01*
X33915Y1713D01*
X33909Y1737D01*
X33904Y1758D01*
X33898Y1774D01*
X33897Y1778D01*
X33893Y1787D01*
X33885Y1798D01*
X33874Y1813D01*
X33861Y1828D01*
X33847Y1839D01*
X33828Y1848D01*
X33808Y1852D01*
D02*
G37*
G36*
X31813D02*
X31812D01*
X31804Y1850D01*
X31793Y1848D01*
X31780Y1843D01*
X31765Y1834D01*
X31749Y1819D01*
X31734Y1800D01*
X31721Y1774D01*
X31719Y1771D01*
X31717Y1765D01*
X31715Y1758D01*
X31713Y1748D01*
X31710Y1735D01*
X31708Y1719D01*
X31704Y1700D01*
X31700Y1678D01*
X31699Y1652D01*
X31695Y1622D01*
X31693Y1589D01*
X31691Y1552D01*
X31689Y1511D01*
X31688Y1465D01*
Y1413D01*
Y1410D01*
Y1400D01*
Y1387D01*
Y1367D01*
X31689Y1345D01*
Y1319D01*
X31691Y1291D01*
Y1261D01*
X31695Y1200D01*
X31699Y1169D01*
X31702Y1141D01*
X31706Y1113D01*
X31710Y1089D01*
X31715Y1069D01*
X31721Y1052D01*
X31723Y1048D01*
X31726Y1041D01*
X31734Y1028D01*
X31745Y1015D01*
X31758Y1000D01*
X31775Y987D01*
X31793Y980D01*
X31813Y976D01*
X31815D01*
X31823Y978D01*
X31834Y980D01*
X31847Y985D01*
X31862Y995D01*
X31876Y1008D01*
X31891Y1026D01*
X31904Y1052D01*
Y1054D01*
X31906Y1056D01*
X31908Y1061D01*
X31910Y1069D01*
X31912Y1078D01*
X31915Y1091D01*
X31919Y1108D01*
X31923Y1126D01*
X31925Y1148D01*
X31928Y1174D01*
X31932Y1204D01*
X31934Y1237D01*
X31936Y1274D01*
X31937Y1315D01*
X31939Y1361D01*
Y1413D01*
Y1417D01*
Y1426D01*
Y1441D01*
Y1460D01*
X31937Y1482D01*
Y1508D01*
X31936Y1535D01*
Y1565D01*
X31930Y1626D01*
X31928Y1658D01*
X31925Y1685D01*
X31921Y1713D01*
X31915Y1737D01*
X31910Y1758D01*
X31904Y1774D01*
X31902Y1778D01*
X31899Y1787D01*
X31891Y1798D01*
X31880Y1813D01*
X31867Y1828D01*
X31852Y1839D01*
X31834Y1848D01*
X31813Y1852D01*
D02*
G37*
G36*
X13494Y24243D02*
X13055D01*
X13344D01*
X13145Y24102D01*
Y23923D01*
X13055D01*
D01*
Y22995D01*
Y23732D01*
X13145D01*
Y23336D01*
Y23308D01*
Y23284D01*
X13147Y23261D01*
Y23239D01*
Y23221D01*
X13149Y23206D01*
Y23191D01*
X13151Y23178D01*
X13153Y23158D01*
X13155Y23145D01*
X13157Y23136D01*
Y23134D01*
X13164Y23110D01*
X13171Y23089D01*
X13182Y23071D01*
X13192Y23056D01*
X13201Y23045D01*
X13208Y23037D01*
X13214Y23032D01*
X13216Y23030D01*
X13234Y23019D01*
X13255Y23010D01*
X13275Y23004D01*
X13294Y22999D01*
X13312Y22997D01*
X13325Y22995D01*
X13338D01*
X13370Y22997D01*
X13399Y23000D01*
X13425Y23006D01*
X13449Y23013D01*
X13468Y23019D01*
X13482Y23024D01*
X13490Y23028D01*
X13494Y23030D01*
X13475Y23217D01*
X13457Y23210D01*
X13442Y23204D01*
X13429Y23200D01*
X13418Y23199D01*
X13408Y23197D01*
X13403Y23195D01*
X13397D01*
X13384Y23197D01*
X13375Y23200D01*
X13366Y23206D01*
X13360Y23211D01*
X13351Y23223D01*
X13349Y23226D01*
Y23228D01*
Y23234D01*
X13347Y23239D01*
X13345Y23258D01*
Y23280D01*
X13344Y23304D01*
Y23326D01*
Y23347D01*
Y23354D01*
Y23360D01*
Y23363D01*
Y23365D01*
Y23732D01*
X13477D01*
Y23923D01*
X13344D01*
Y24243D01*
X13494D01*
D02*
G37*
G36*
X12966Y23943D02*
X12271D01*
X12610D01*
X12557Y23939D01*
X12510Y23930D01*
X12470Y23919D01*
X12436Y23904D01*
X12410Y23889D01*
X12392Y23878D01*
X12386Y23873D01*
X12381Y23869D01*
X12379Y23867D01*
X12377Y23865D01*
X12362Y23850D01*
X12351Y23835D01*
X12331Y23802D01*
X12318Y23769D01*
X12307Y23736D01*
X12301Y23708D01*
X12299Y23695D01*
Y23684D01*
X12297Y23676D01*
Y23669D01*
Y23665D01*
Y23663D01*
X12299Y23641D01*
X12301Y23619D01*
X12310Y23580D01*
X12323Y23545D01*
X12338Y23517D01*
X12353Y23495D01*
X12366Y23478D01*
X12375Y23469D01*
X12379Y23465D01*
X12394Y23454D01*
X12410Y23443D01*
X12431Y23432D01*
X12455Y23423D01*
X12505Y23402D01*
X12558Y23382D01*
X12583Y23374D01*
X12607Y23367D01*
X12629Y23360D01*
X12649Y23354D01*
X12666Y23349D01*
X12677Y23347D01*
X12686Y23343D01*
X12688D01*
X12705Y23337D01*
X12718Y23334D01*
X12729Y23328D01*
X12736Y23323D01*
X12744Y23319D01*
X12747Y23317D01*
X12751Y23313D01*
X12760Y23299D01*
X12766Y23284D01*
X12768Y23273D01*
Y23269D01*
Y23267D01*
X12766Y23250D01*
X12762Y23237D01*
X12757Y23224D01*
X12751Y23215D01*
X12744Y23206D01*
X12738Y23200D01*
X12734Y23197D01*
X12733Y23195D01*
X12718Y23186D01*
X12701Y23180D01*
X12666Y23173D01*
X12651Y23171D01*
X12638Y23169D01*
X12627D01*
X12603Y23171D01*
X12583Y23174D01*
X12562Y23182D01*
X12546Y23191D01*
X12531Y23202D01*
X12518Y23213D01*
X12499Y23241D01*
X12484Y23267D01*
X12475Y23289D01*
X12473Y23299D01*
X12471Y23306D01*
X12470Y23310D01*
Y23311D01*
X12271Y23274D01*
X12284Y23226D01*
X12301Y23184D01*
X12321Y23149D01*
X12342Y23119D01*
X12360Y23095D01*
X12375Y23078D01*
X12386Y23069D01*
X12388Y23065D01*
X12390D01*
X12427Y23041D01*
X12466Y23024D01*
X12507Y23012D01*
X12544Y23004D01*
X12577Y22999D01*
X12590Y22997D01*
X12603D01*
X12614Y22995D01*
X12271D01*
X12614D01*
D01*
X12627D01*
X12645D01*
X12627D01*
X12657Y22997D01*
X12683Y22999D01*
X12733Y23008D01*
X12775Y23023D01*
X12810Y23037D01*
X12825Y23045D01*
X12838Y23052D01*
X12849Y23060D01*
X12858Y23067D01*
X12866Y23073D01*
X12871Y23076D01*
X12873Y23080D01*
X12875D01*
X12892Y23097D01*
X12905Y23113D01*
X12918Y23132D01*
X12927Y23150D01*
X12944Y23186D01*
X12955Y23221D01*
X12960Y23250D01*
X12964Y23263D01*
Y23274D01*
X12966Y23284D01*
Y23300D01*
Y23297D01*
X12964Y23336D01*
X12957Y23371D01*
X12947Y23400D01*
X12936Y23426D01*
X12925Y23447D01*
X12916Y23460D01*
X12908Y23469D01*
X12907Y23473D01*
X12894Y23484D01*
X12881Y23497D01*
X12847Y23517D01*
X12810Y23536D01*
X12773Y23552D01*
X12738Y23565D01*
X12723Y23571D01*
X12708Y23576D01*
X12697Y23578D01*
X12690Y23582D01*
X12684Y23584D01*
X12683D01*
X12657Y23591D01*
X12633Y23598D01*
X12612Y23604D01*
X12594Y23610D01*
X12577Y23615D01*
X12564Y23621D01*
X12551Y23626D01*
X12540Y23630D01*
X12525Y23636D01*
X12516Y23641D01*
X12510Y23645D01*
X12508D01*
X12499Y23652D01*
X12492Y23661D01*
X12488Y23669D01*
X12484Y23678D01*
X12483Y23684D01*
X12481Y23689D01*
Y23693D01*
Y23695D01*
X12483Y23706D01*
X12486Y23717D01*
X12496Y23734D01*
X12507Y23745D01*
X12508Y23748D01*
X12510D01*
X12523Y23756D01*
X12540Y23761D01*
X12573Y23769D01*
X12590D01*
X12603Y23771D01*
X12614D01*
X12634Y23769D01*
X12653Y23765D01*
X12671Y23761D01*
X12686Y23754D01*
X12710Y23736D01*
X12729Y23717D01*
X12742Y23697D01*
X12751Y23678D01*
X12753Y23671D01*
X12755Y23667D01*
X12757Y23663D01*
Y23661D01*
X12942Y23702D01*
X12929Y23747D01*
X12912Y23784D01*
X12894Y23815D01*
X12875Y23841D01*
X12858Y23861D01*
X12845Y23874D01*
X12836Y23884D01*
X12833Y23885D01*
X12801Y23904D01*
X12766Y23919D01*
X12729Y23928D01*
X12694Y23935D01*
X12660Y23939D01*
X12647Y23941D01*
X12634Y23943D01*
X12966D01*
D01*
D02*
G37*
G36*
X8296Y23943D02*
X7594D01*
X7953D01*
X7924Y23941D01*
X7896Y23937D01*
X7870Y23932D01*
X7844Y23924D01*
X7800Y23904D01*
X7781Y23893D01*
X7763Y23882D01*
X7746Y23871D01*
X7733Y23860D01*
X7720Y23848D01*
X7711Y23839D01*
X7703Y23832D01*
X7698Y23826D01*
X7694Y23823D01*
X7692Y23821D01*
X7676Y23797D01*
X7661Y23771D01*
X7646Y23743D01*
X7635Y23713D01*
X7618Y23654D01*
X7607Y23597D01*
X7602Y23571D01*
X7600Y23545D01*
X7598Y23523D01*
X7596Y23504D01*
X7594Y23487D01*
Y23465D01*
X7596Y23430D01*
X7598Y23395D01*
X7607Y23332D01*
X7615Y23302D01*
X7622Y23274D01*
X7629Y23249D01*
X7639Y23226D01*
X7646Y23204D01*
X7653Y23186D01*
X7661Y23171D01*
X7668Y23156D01*
X7674Y23147D01*
X7677Y23137D01*
X7681Y23134D01*
Y23132D01*
X7698Y23108D01*
X7718Y23087D01*
X7739Y23069D01*
X7761Y23052D01*
X7783Y23039D01*
X7805Y23028D01*
X7827Y23019D01*
X7850Y23011D01*
X7889Y23002D01*
X7907Y22999D01*
X7922Y22997D01*
X7935D01*
X7944Y22995D01*
X7952D01*
X7977Y22997D01*
X8002Y22999D01*
X8048Y23010D01*
X8089Y23024D01*
X8126Y23047D01*
X8157Y23071D01*
X8185Y23099D01*
X8209Y23128D01*
X8229Y23160D01*
X8248Y23189D01*
X8263Y23219D01*
X8274Y23247D01*
X8281Y23271D01*
X8289Y23293D01*
X8292Y23308D01*
X8296Y23319D01*
Y23323D01*
X8102Y23363D01*
X8094Y23330D01*
X8087Y23300D01*
X8077Y23278D01*
X8068Y23260D01*
X8061Y23245D01*
X8053Y23236D01*
X8050Y23230D01*
X8048Y23228D01*
X8035Y23215D01*
X8020Y23206D01*
X8003Y23200D01*
X7990Y23197D01*
X7977Y23193D01*
X7968Y23191D01*
X7959D01*
X7931Y23195D01*
X7909Y23202D01*
X7887Y23211D01*
X7870Y23224D01*
X7857Y23236D01*
X7846Y23247D01*
X7840Y23254D01*
X7839Y23256D01*
X7831Y23269D01*
X7824Y23286D01*
X7815Y23319D01*
X7807Y23358D01*
X7802Y23395D01*
X7798Y23430D01*
Y23445D01*
X7796Y23458D01*
Y23469D01*
Y23476D01*
Y23482D01*
Y23484D01*
Y23510D01*
X7798Y23536D01*
X7800Y23558D01*
X7803Y23578D01*
X7807Y23597D01*
X7811Y23613D01*
X7818Y23643D01*
X7826Y23663D01*
X7833Y23680D01*
X7839Y23687D01*
X7840Y23691D01*
X7859Y23711D01*
X7877Y23728D01*
X7898Y23739D01*
X7916Y23747D01*
X7931Y23750D01*
X7946Y23754D01*
X7957D01*
X7977Y23752D01*
X7996Y23748D01*
X8011Y23741D01*
X8026Y23732D01*
X8050Y23710D01*
X8066Y23684D01*
X8079Y23656D01*
X8087Y23634D01*
X8090Y23624D01*
Y23617D01*
X8092Y23613D01*
Y23611D01*
X8287Y23654D01*
X8279Y23682D01*
X8270Y23706D01*
X8263Y23730D01*
X8252Y23752D01*
X8233Y23789D01*
X8213Y23819D01*
X8194Y23843D01*
X8179Y23860D01*
X8170Y23869D01*
X8168Y23873D01*
X8166D01*
X8133Y23897D01*
X8100Y23913D01*
X8063Y23926D01*
X8029Y23934D01*
X8000Y23939D01*
X7987Y23941D01*
X7976D01*
X7966Y23943D01*
X8296D01*
D02*
G37*
G36*
X9564Y23589D02*
X9175D01*
Y23349D01*
X9564D01*
Y23589D01*
D02*
G37*
G36*
X7435Y23923D02*
X7237D01*
Y23539D01*
Y23506D01*
Y23476D01*
X7235Y23448D01*
Y23424D01*
X7233Y23402D01*
Y23382D01*
X7231Y23365D01*
X7229Y23350D01*
X7228Y23337D01*
Y23326D01*
X7226Y23319D01*
X7224Y23311D01*
X7222Y23302D01*
Y23300D01*
X7216Y23282D01*
X7209Y23263D01*
X7200Y23249D01*
X7191Y23236D01*
X7181Y23226D01*
X7176Y23217D01*
X7170Y23213D01*
X7168Y23211D01*
X7153Y23200D01*
X7137Y23193D01*
X7122Y23186D01*
X7107Y23182D01*
X7096Y23180D01*
X7087Y23178D01*
X7078D01*
X7063Y23180D01*
X7048Y23182D01*
X7035Y23186D01*
X7024Y23191D01*
X7016Y23197D01*
X7009Y23200D01*
X7005Y23202D01*
X7003Y23204D01*
X6994Y23215D01*
X6985Y23226D01*
X6974Y23250D01*
X6968Y23261D01*
X6966Y23271D01*
X6965Y23276D01*
Y23278D01*
X6963Y23289D01*
Y23302D01*
X6961Y23317D01*
Y23334D01*
X6959Y23371D01*
Y23410D01*
X6957Y23447D01*
Y23463D01*
Y23476D01*
Y23489D01*
Y23498D01*
Y23504D01*
Y23506D01*
Y23923D01*
X7097D01*
X6759D01*
Y23347D01*
X6761Y23300D01*
X6763Y23258D01*
X6768Y23223D01*
X6774Y23195D01*
X6778Y23171D01*
X6783Y23154D01*
X6785Y23145D01*
X6787Y23141D01*
X6798Y23117D01*
X6813Y23095D01*
X6826Y23076D01*
X6841Y23060D01*
X6852Y23049D01*
X6863Y23039D01*
X6870Y23034D01*
X6872Y23032D01*
X6894Y23019D01*
X6918Y23010D01*
X6941Y23004D01*
X6961Y23000D01*
X6978Y22997D01*
X6991Y22995D01*
X6759D01*
X7435D01*
Y23923D01*
D02*
G37*
G36*
X10429Y24267D02*
X9703D01*
Y23015D01*
X9887D01*
Y23147D01*
X9903Y23121D01*
X9920Y23099D01*
X9938Y23078D01*
X9955Y23063D01*
X9968Y23050D01*
X9981Y23041D01*
X9988Y23036D01*
X9990Y23034D01*
X10014Y23021D01*
X10037Y23011D01*
X10059Y23004D01*
X10077Y23000D01*
X10094Y22997D01*
X10107Y22995D01*
X10118D01*
X10140Y22997D01*
X10162Y23000D01*
X10185Y23006D01*
X10205Y23015D01*
X10240Y23034D01*
X10274Y23058D01*
X10299Y23080D01*
X10318Y23100D01*
X10325Y23108D01*
X10331Y23113D01*
X10333Y23117D01*
X10335Y23119D01*
X10351Y23143D01*
X10366Y23169D01*
X10379Y23199D01*
X10390Y23226D01*
X10407Y23286D01*
X10418Y23343D01*
X10422Y23369D01*
X10424Y23393D01*
X10425Y23415D01*
X10427Y23436D01*
X10429Y23450D01*
Y23117D01*
Y23473D01*
X10427Y23515D01*
X10425Y23554D01*
X10422Y23591D01*
X10414Y23624D01*
X10409Y23656D01*
X10401Y23686D01*
X10392Y23711D01*
X10385Y23734D01*
X10375Y23756D01*
X10368Y23773D01*
X10359Y23787D01*
X10353Y23800D01*
X10348Y23810D01*
X10342Y23817D01*
X10340Y23821D01*
X10338Y23823D01*
X10322Y23843D01*
X10303Y23861D01*
X10285Y23878D01*
X10266Y23893D01*
X10246Y23904D01*
X10229Y23913D01*
X10194Y23928D01*
X10162Y23937D01*
X10149Y23939D01*
X10138Y23941D01*
X10129Y23943D01*
X10116D01*
X10094Y23941D01*
X10072Y23937D01*
X10051Y23932D01*
X10035Y23926D01*
X10020Y23921D01*
X10009Y23915D01*
X10001Y23911D01*
X9999Y23910D01*
X9979Y23897D01*
X9962Y23882D01*
X9946Y23865D01*
X9931Y23850D01*
X9918Y23837D01*
X9909Y23826D01*
X9903Y23819D01*
X9901Y23815D01*
Y24267D01*
X10429D01*
D01*
D02*
G37*
G36*
X9116D02*
X8429D01*
Y23015D01*
X8627D01*
Y23306D01*
X8716Y23423D01*
X8905Y23015D01*
X9116D01*
X8844Y23589D01*
X9098Y23923D01*
X8855D01*
X8627Y23604D01*
Y24267D01*
X9116D01*
D02*
G37*
G36*
X6180D02*
X5728D01*
Y23015D01*
X6589D01*
X6154D01*
X6187Y23017D01*
X6217D01*
X6244Y23019D01*
X6268Y23021D01*
X6289D01*
X6307Y23023D01*
X6322Y23024D01*
X6335Y23026D01*
X6344D01*
X6354Y23028D01*
X6359D01*
X6363Y23030D01*
X6367D01*
X6398Y23041D01*
X6428Y23058D01*
X6455Y23076D01*
X6478Y23097D01*
X6496Y23115D01*
X6511Y23132D01*
X6518Y23143D01*
X6522Y23145D01*
Y23147D01*
X6544Y23184D01*
X6561Y23223D01*
X6572Y23261D01*
X6581Y23299D01*
X6585Y23330D01*
X6587Y23343D01*
Y23356D01*
X6589Y23365D01*
Y23378D01*
X6587Y23419D01*
X6581Y23456D01*
X6572Y23487D01*
X6563Y23515D01*
X6554Y23539D01*
X6544Y23556D01*
X6539Y23565D01*
X6537Y23569D01*
X6517Y23597D01*
X6492Y23621D01*
X6468Y23639D01*
X6446Y23654D01*
X6424Y23665D01*
X6407Y23674D01*
X6396Y23678D01*
X6394Y23680D01*
X6392D01*
X6417Y23695D01*
X6437Y23711D01*
X6454Y23730D01*
X6470Y23747D01*
X6481Y23763D01*
X6491Y23776D01*
X6496Y23784D01*
X6498Y23787D01*
X6511Y23815D01*
X6522Y23845D01*
X6529Y23873D01*
X6533Y23898D01*
X6537Y23919D01*
X6539Y23937D01*
Y23948D01*
Y23950D01*
Y23952D01*
X6537Y23987D01*
X6531Y24021D01*
X6524Y24050D01*
X6515Y24076D01*
X6505Y24097D01*
X6498Y24113D01*
X6492Y24122D01*
X6491Y24126D01*
X6472Y24154D01*
X6454Y24176D01*
X6433Y24195D01*
X6417Y24210D01*
X6400Y24221D01*
X6387Y24230D01*
X6379Y24234D01*
X6376Y24235D01*
X6361Y24241D01*
X6346Y24247D01*
X6309Y24254D01*
X6270Y24260D01*
X6231Y24263D01*
X6196Y24265D01*
X6180Y24267D01*
D02*
G37*
%LPD*%
G36*
X12627Y22995D02*
D01*
D01*
D01*
D02*
G37*
%LPC*%
G36*
X11816Y23943D02*
X11799D01*
X11760Y23941D01*
X11723Y23934D01*
X11692Y23926D01*
X11662Y23915D01*
X11640Y23906D01*
X11622Y23897D01*
X11610Y23889D01*
X11609Y23887D01*
X11607D01*
X11577Y23865D01*
X11549Y23837D01*
X11525Y23811D01*
X11505Y23784D01*
X11490Y23760D01*
X11477Y23741D01*
X11473Y23734D01*
X11470Y23728D01*
X11468Y23724D01*
Y23723D01*
X11451Y23680D01*
X11438Y23639D01*
X11429Y23598D01*
X11423Y23560D01*
X11420Y23528D01*
X11418Y23515D01*
X11416Y23502D01*
Y23480D01*
X11418Y23437D01*
X11422Y23399D01*
X11425Y23360D01*
X11433Y23326D01*
X11442Y23293D01*
X11451Y23263D01*
X11460Y23237D01*
X11472Y23213D01*
X11481Y23191D01*
X11490Y23173D01*
X11499Y23158D01*
X11509Y23145D01*
X11516Y23134D01*
X11520Y23126D01*
X11523Y23123D01*
X11525Y23121D01*
X11546Y23099D01*
X11568Y23080D01*
X11592Y23063D01*
X11614Y23049D01*
X11638Y23036D01*
X11660Y23026D01*
X11703Y23011D01*
X11723Y23006D01*
X11742Y23002D01*
X11759Y22999D01*
X11772Y22997D01*
X11783Y22995D01*
X11416D01*
X12184D01*
Y23473D01*
X12183Y23508D01*
X12181Y23541D01*
X12168Y23604D01*
X12160Y23634D01*
X12151Y23660D01*
X12142Y23686D01*
X12133Y23708D01*
X12123Y23730D01*
X12114Y23748D01*
X12105Y23763D01*
X12097Y23778D01*
X12090Y23787D01*
X12084Y23797D01*
X12083Y23800D01*
X12081Y23802D01*
X12060Y23826D01*
X12040Y23848D01*
X12018Y23867D01*
X11994Y23884D01*
X11970Y23897D01*
X11947Y23908D01*
X11923Y23919D01*
X11901Y23926D01*
X11881Y23932D01*
X11862Y23935D01*
X11844Y23939D01*
X11829Y23941D01*
X11816Y23943D01*
D02*
G37*
G36*
X10940D02*
X10923D01*
X10885Y23941D01*
X10848Y23934D01*
X10816Y23926D01*
X10786Y23915D01*
X10764Y23906D01*
X10746Y23897D01*
X10735Y23889D01*
X10733Y23887D01*
X10731D01*
X10701Y23865D01*
X10673Y23837D01*
X10649Y23811D01*
X10629Y23784D01*
X10614Y23760D01*
X10601Y23741D01*
X10598Y23734D01*
X10594Y23728D01*
X10592Y23724D01*
Y23723D01*
X10575Y23680D01*
X10562Y23639D01*
X10553Y23598D01*
X10548Y23560D01*
X10544Y23528D01*
X10542Y23515D01*
X10540Y23502D01*
Y23480D01*
X10542Y23437D01*
X10546Y23399D01*
X10549Y23360D01*
X10557Y23326D01*
X10566Y23293D01*
X10575Y23263D01*
X10585Y23237D01*
X10596Y23213D01*
X10605Y23191D01*
X10614Y23173D01*
X10623Y23158D01*
X10633Y23145D01*
X10640Y23134D01*
X10644Y23126D01*
X10648Y23123D01*
X10649Y23121D01*
X10670Y23099D01*
X10692Y23080D01*
X10716Y23063D01*
X10738Y23049D01*
X10762Y23036D01*
X10785Y23026D01*
X10827Y23011D01*
X10848Y23006D01*
X10866Y23002D01*
X10883Y22999D01*
X10896Y22997D01*
X10907Y22995D01*
X10540D01*
X11309D01*
Y23473D01*
X11307Y23508D01*
X11305Y23541D01*
X11292Y23604D01*
X11285Y23634D01*
X11275Y23660D01*
X11266Y23686D01*
X11257Y23708D01*
X11248Y23730D01*
X11238Y23748D01*
X11229Y23763D01*
X11222Y23778D01*
X11214Y23787D01*
X11209Y23797D01*
X11207Y23800D01*
X11205Y23802D01*
X11185Y23826D01*
X11164Y23848D01*
X11142Y23867D01*
X11118Y23884D01*
X11094Y23897D01*
X11072Y23908D01*
X11048Y23919D01*
X11025Y23926D01*
X11005Y23932D01*
X10986Y23935D01*
X10968Y23939D01*
X10953Y23941D01*
X10940Y23943D01*
D02*
G37*
G36*
X8684Y22728D02*
X7945D01*
D01*
X8389D01*
X7945Y21933D01*
Y21935D01*
Y21472D01*
Y21724D01*
X8365D01*
Y21472D01*
X8556D01*
Y21724D01*
X8684D01*
Y21943D01*
Y21935D01*
X8556D01*
Y22728D01*
X8684D01*
D01*
D02*
G37*
G36*
X12065Y22724D02*
X11110D01*
X11474Y21472D01*
X11110D01*
X11700D01*
X12065Y22724D01*
D02*
G37*
G36*
X10639Y22728D02*
X9949D01*
X10311D01*
X10286Y22726D01*
X10260Y22724D01*
X10213Y22713D01*
X10173Y22700D01*
X10139Y22683D01*
X10112Y22667D01*
X10102Y22657D01*
X10093Y22652D01*
X10086Y22646D01*
X10080Y22641D01*
X10078Y22639D01*
X10076Y22637D01*
X10060Y22619D01*
X10047Y22600D01*
X10023Y22556D01*
X10004Y22509D01*
X9991Y22465D01*
X9986Y22443D01*
X9980Y22422D01*
X9978Y22404D01*
X9974Y22389D01*
X9973Y22376D01*
Y22367D01*
X9971Y22359D01*
Y22358D01*
X10167Y22332D01*
X10171Y22367D01*
X10176Y22396D01*
X10184Y22422D01*
X10193Y22445D01*
X10204Y22465D01*
X10215Y22480D01*
X10228Y22493D01*
X10241Y22504D01*
X10254Y22511D01*
X10265Y22517D01*
X10287Y22524D01*
X10295Y22526D01*
X10302Y22528D01*
X10308D01*
X10328Y22526D01*
X10349Y22520D01*
X10365Y22515D01*
X10378Y22507D01*
X10389Y22498D01*
X10397Y22493D01*
X10402Y22487D01*
X10404Y22485D01*
X10417Y22469D01*
X10426Y22448D01*
X10432Y22428D01*
X10437Y22407D01*
X10439Y22389D01*
X10441Y22374D01*
Y22365D01*
Y22363D01*
Y22361D01*
X10439Y22333D01*
X10434Y22306D01*
X10426Y22280D01*
X10419Y22258D01*
X10411Y22237D01*
X10404Y22222D01*
X10399Y22213D01*
X10397Y22209D01*
X10389Y22198D01*
X10380Y22185D01*
X10358Y22156D01*
X10332Y22124D01*
X10304Y22091D01*
X10278Y22059D01*
X10267Y22045D01*
X10256Y22033D01*
X10249Y22024D01*
X10241Y22017D01*
X10237Y22011D01*
X10236Y22009D01*
X10206Y21976D01*
X10180Y21943D01*
X10154Y21913D01*
X10132Y21885D01*
X10112Y21858D01*
X10095Y21833D01*
X10078Y21811D01*
X10065Y21791D01*
X10052Y21772D01*
X10041Y21758D01*
X10034Y21743D01*
X10026Y21732D01*
X10021Y21722D01*
X10019Y21717D01*
X10015Y21713D01*
Y21711D01*
X9997Y21669D01*
X9982Y21626D01*
X9969Y21585D01*
X9962Y21550D01*
X9956Y21519D01*
X9952Y21506D01*
X9950Y21495D01*
Y21485D01*
X9949Y21478D01*
Y21472D01*
X10639D01*
Y22407D01*
X10636Y22432D01*
X10626Y22476D01*
X10613Y22517D01*
X10598Y22552D01*
X10582Y22582D01*
X10574Y22595D01*
X10569Y22604D01*
X10563Y22611D01*
X10560Y22617D01*
X10558Y22620D01*
X10556Y22622D01*
X10539Y22641D01*
X10523Y22657D01*
X10504Y22670D01*
X10484Y22683D01*
X10463Y22694D01*
X10443Y22702D01*
X10404Y22715D01*
X10367Y22722D01*
X10352Y22724D01*
X10337Y22726D01*
X10326Y22728D01*
X10639D01*
D01*
D02*
G37*
G36*
X9682D02*
X9228D01*
X9521D01*
X9506Y22687D01*
X9488Y22650D01*
X9467Y22617D01*
X9447Y22589D01*
X9428Y22565D01*
X9413Y22546D01*
X9402Y22535D01*
X9400Y22533D01*
X9399Y22532D01*
X9365Y22502D01*
X9334Y22478D01*
X9306Y22457D01*
X9280Y22441D01*
X9258Y22430D01*
X9243Y22420D01*
X9232Y22417D01*
X9230Y22415D01*
X9228D01*
Y22196D01*
X9280Y22220D01*
X9330Y22248D01*
X9373Y22280D01*
X9410Y22309D01*
X9426Y22322D01*
X9441Y22335D01*
X9454Y22348D01*
X9463Y22358D01*
X9473Y22367D01*
X9478Y22372D01*
X9482Y22376D01*
X9484Y22378D01*
Y21472D01*
X9228D01*
X9682D01*
Y22728D01*
D02*
G37*
G36*
X7847D02*
X7156D01*
X7519D01*
X7493Y22726D01*
X7467Y22724D01*
X7421Y22713D01*
X7380Y22700D01*
X7347Y22683D01*
X7319Y22667D01*
X7310Y22657D01*
X7301Y22652D01*
X7293Y22646D01*
X7288Y22641D01*
X7286Y22639D01*
X7284Y22637D01*
X7267Y22619D01*
X7254Y22600D01*
X7230Y22556D01*
X7212Y22509D01*
X7199Y22465D01*
X7193Y22443D01*
X7188Y22422D01*
X7186Y22404D01*
X7182Y22389D01*
X7180Y22376D01*
Y22367D01*
X7178Y22359D01*
Y22358D01*
X7375Y22332D01*
X7378Y22367D01*
X7384Y22396D01*
X7391Y22422D01*
X7401Y22445D01*
X7412Y22465D01*
X7423Y22480D01*
X7436Y22493D01*
X7449Y22504D01*
X7462Y22511D01*
X7473Y22517D01*
X7495Y22524D01*
X7503Y22526D01*
X7510Y22528D01*
X7515D01*
X7536Y22526D01*
X7556Y22520D01*
X7573Y22515D01*
X7586Y22507D01*
X7597Y22498D01*
X7604Y22493D01*
X7610Y22487D01*
X7612Y22485D01*
X7625Y22469D01*
X7634Y22448D01*
X7640Y22428D01*
X7645Y22407D01*
X7647Y22389D01*
X7649Y22374D01*
Y22365D01*
Y22363D01*
Y22361D01*
X7647Y22333D01*
X7641Y22306D01*
X7634Y22280D01*
X7627Y22258D01*
X7619Y22237D01*
X7612Y22222D01*
X7606Y22213D01*
X7604Y22209D01*
X7597Y22198D01*
X7588Y22185D01*
X7565Y22156D01*
X7540Y22124D01*
X7512Y22091D01*
X7486Y22059D01*
X7475Y22045D01*
X7464Y22033D01*
X7456Y22024D01*
X7449Y22017D01*
X7445Y22011D01*
X7443Y22009D01*
X7414Y21976D01*
X7388Y21943D01*
X7362Y21913D01*
X7340Y21885D01*
X7319Y21858D01*
X7303Y21833D01*
X7286Y21811D01*
X7273Y21791D01*
X7260Y21772D01*
X7249Y21758D01*
X7241Y21743D01*
X7234Y21732D01*
X7228Y21722D01*
X7227Y21717D01*
X7223Y21713D01*
Y21711D01*
X7204Y21669D01*
X7190Y21626D01*
X7177Y21585D01*
X7169Y21550D01*
X7164Y21519D01*
X7160Y21506D01*
X7158Y21495D01*
Y21485D01*
X7156Y21478D01*
Y21472D01*
X7847D01*
Y22407D01*
X7843Y22432D01*
X7834Y22476D01*
X7821Y22517D01*
X7806Y22552D01*
X7790Y22582D01*
X7782Y22595D01*
X7777Y22604D01*
X7771Y22611D01*
X7767Y22617D01*
X7765Y22620D01*
X7764Y22622D01*
X7747Y22641D01*
X7730Y22657D01*
X7712Y22670D01*
X7691Y22683D01*
X7671Y22694D01*
X7651Y22702D01*
X7612Y22715D01*
X7575Y22722D01*
X7560Y22724D01*
X7545Y22726D01*
X7534Y22728D01*
X7847D01*
D01*
D02*
G37*
G36*
X9117Y22744D02*
X8715D01*
X8969D01*
X8715Y21452D01*
X8860D01*
X9117Y22744D01*
D01*
D02*
G37*
%LPD*%
G36*
X7250Y23015D02*
X7435D01*
Y22995D01*
X7003D01*
X7029Y22997D01*
X7055Y23000D01*
X7079Y23008D01*
X7100Y23015D01*
X7118Y23023D01*
X7131Y23030D01*
X7139Y23034D01*
X7142Y23036D01*
X7166Y23052D01*
X7187Y23071D01*
X7205Y23089D01*
X7222Y23108D01*
X7233Y23124D01*
X7242Y23137D01*
X7248Y23147D01*
X7250Y23150D01*
Y23015D01*
D02*
G37*
G36*
X10088Y23756D02*
X10111Y23748D01*
X10131Y23737D01*
X10148Y23724D01*
X10161Y23711D01*
X10172Y23700D01*
X10177Y23693D01*
X10179Y23689D01*
X10188Y23676D01*
X10196Y23660D01*
X10207Y23626D01*
X10216Y23587D01*
X10222Y23552D01*
X10225Y23519D01*
Y23504D01*
X10227Y23491D01*
Y23480D01*
Y23473D01*
Y23467D01*
Y23465D01*
X10225Y23413D01*
X10220Y23371D01*
X10212Y23334D01*
X10205Y23302D01*
X10196Y23280D01*
X10188Y23263D01*
X10183Y23254D01*
X10181Y23250D01*
X10162Y23228D01*
X10144Y23211D01*
X10125Y23200D01*
X10109Y23193D01*
X10092Y23187D01*
X10081Y23186D01*
X10074Y23184D01*
X10070D01*
X10053Y23186D01*
X10038Y23189D01*
X10024Y23193D01*
X10011Y23200D01*
X9999Y23206D01*
X9990Y23210D01*
X9985Y23213D01*
X9983Y23215D01*
X9968Y23228D01*
X9955Y23243D01*
X9946Y23258D01*
X9937Y23273D01*
X9929Y23287D01*
X9924Y23299D01*
X9922Y23306D01*
X9920Y23308D01*
X9912Y23334D01*
X9909Y23363D01*
X9905Y23393D01*
X9901Y23421D01*
Y23447D01*
X9899Y23469D01*
Y23476D01*
Y23482D01*
Y23486D01*
Y23487D01*
X9901Y23536D01*
X9907Y23576D01*
X9914Y23611D01*
X9924Y23641D01*
X9931Y23663D01*
X9938Y23678D01*
X9944Y23687D01*
X9946Y23691D01*
X9964Y23713D01*
X9985Y23730D01*
X10003Y23743D01*
X10022Y23750D01*
X10038Y23756D01*
X10051Y23758D01*
X10059Y23760D01*
X10062D01*
X10088Y23756D01*
D02*
G37*
G36*
X6154Y24056D02*
X6172D01*
X6189Y24054D01*
X6215D01*
X6224Y24052D01*
X6233D01*
X6244Y24050D01*
X6250Y24048D01*
X6252D01*
X6265Y24045D01*
X6276Y24037D01*
X6294Y24023D01*
X6302Y24015D01*
X6307Y24010D01*
X6309Y24006D01*
X6311Y24004D01*
X6320Y23991D01*
X6326Y23976D01*
X6333Y23948D01*
X6335Y23935D01*
X6337Y23926D01*
Y23919D01*
Y23917D01*
X6335Y23895D01*
X6331Y23874D01*
X6328Y23858D01*
X6322Y23843D01*
X6315Y23832D01*
X6311Y23824D01*
X6307Y23819D01*
X6305Y23817D01*
X6294Y23806D01*
X6279Y23795D01*
X6267Y23787D01*
X6254Y23782D01*
X6242Y23778D01*
X6233Y23776D01*
X6226Y23774D01*
X6217D01*
X6209Y23773D01*
X6163D01*
X6137Y23771D01*
X5935D01*
Y24058D01*
X6133D01*
X6154Y24056D01*
D02*
G37*
G36*
X6168Y23560D02*
X6185D01*
X6217Y23556D01*
X6241Y23554D01*
X6257Y23550D01*
X6268Y23547D01*
X6276Y23545D01*
X6278D01*
X6292Y23537D01*
X6307Y23530D01*
X6318Y23521D01*
X6328Y23511D01*
X6335Y23502D01*
X6341Y23497D01*
X6344Y23491D01*
X6346Y23489D01*
X6355Y23474D01*
X6363Y23458D01*
X6367Y23441D01*
X6370Y23424D01*
X6372Y23411D01*
X6374Y23400D01*
Y23391D01*
Y23389D01*
X6372Y23369D01*
X6370Y23349D01*
X6367Y23332D01*
X6361Y23319D01*
X6355Y23306D01*
X6352Y23299D01*
X6350Y23293D01*
X6348Y23291D01*
X6339Y23278D01*
X6328Y23267D01*
X6318Y23258D01*
X6309Y23250D01*
X6300Y23245D01*
X6292Y23241D01*
X6289Y23239D01*
X6287D01*
X6279Y23237D01*
X6270Y23236D01*
X6246Y23232D01*
X6220Y23230D01*
X6192Y23228D01*
X6168Y23226D01*
X5935D01*
Y23561D01*
X6148D01*
X6168Y23560D01*
D02*
G37*
G36*
X11825Y23743D02*
X11851Y23736D01*
X11872Y23724D01*
X11892Y23711D01*
X11907Y23697D01*
X11918Y23686D01*
X11925Y23678D01*
X11927Y23674D01*
X11946Y23645D01*
X11959Y23613D01*
X11970Y23578D01*
X11975Y23545D01*
X11979Y23515D01*
X11981Y23502D01*
X11983Y23491D01*
Y23482D01*
Y23474D01*
Y23471D01*
Y23469D01*
X11981Y23421D01*
X11975Y23378D01*
X11966Y23343D01*
X11957Y23313D01*
X11946Y23291D01*
X11938Y23274D01*
X11931Y23265D01*
X11929Y23261D01*
X11909Y23237D01*
X11886Y23221D01*
X11864Y23208D01*
X11846Y23200D01*
X11827Y23195D01*
X11814Y23193D01*
X11805Y23191D01*
X11801D01*
X11773Y23195D01*
X11749Y23202D01*
X11727Y23213D01*
X11709Y23226D01*
X11692Y23237D01*
X11681Y23249D01*
X11673Y23256D01*
X11672Y23260D01*
X11653Y23289D01*
X11640Y23323D01*
X11631Y23356D01*
X11625Y23391D01*
X11622Y23421D01*
X11620Y23434D01*
X11618Y23447D01*
Y23456D01*
Y23463D01*
Y23467D01*
Y23469D01*
X11620Y23517D01*
X11625Y23558D01*
X11634Y23593D01*
X11644Y23623D01*
X11653Y23645D01*
X11662Y23661D01*
X11668Y23671D01*
X11670Y23674D01*
X11690Y23698D01*
X11712Y23717D01*
X11734Y23730D01*
X11755Y23737D01*
X11773Y23743D01*
X11786Y23745D01*
X11796Y23747D01*
X11799D01*
X11825Y23743D01*
D02*
G37*
G36*
X12184Y22995D02*
X11799D01*
X11838Y22997D01*
X11873Y23004D01*
X11905Y23013D01*
X11934Y23023D01*
X11957Y23034D01*
X11975Y23041D01*
X11986Y23049D01*
X11988Y23050D01*
X11990D01*
X12021Y23074D01*
X12049Y23100D01*
X12073Y23130D01*
X12094Y23158D01*
X12109Y23182D01*
X12121Y23202D01*
X12125Y23210D01*
X12129Y23215D01*
X12131Y23219D01*
Y23221D01*
X12149Y23263D01*
X12162Y23308D01*
X12171Y23350D01*
X12177Y23389D01*
X12183Y23423D01*
Y23437D01*
X12184Y23448D01*
Y22995D01*
D02*
G37*
G36*
X10949Y23743D02*
X10975Y23736D01*
X10996Y23724D01*
X11016Y23711D01*
X11031Y23697D01*
X11042Y23686D01*
X11049Y23678D01*
X11051Y23674D01*
X11070Y23645D01*
X11083Y23613D01*
X11094Y23578D01*
X11099Y23545D01*
X11103Y23515D01*
X11105Y23502D01*
X11107Y23491D01*
Y23482D01*
Y23474D01*
Y23471D01*
Y23469D01*
X11105Y23421D01*
X11099Y23378D01*
X11090Y23343D01*
X11081Y23313D01*
X11070Y23291D01*
X11062Y23274D01*
X11055Y23265D01*
X11053Y23261D01*
X11033Y23237D01*
X11010Y23221D01*
X10988Y23208D01*
X10970Y23200D01*
X10951Y23195D01*
X10938Y23193D01*
X10929Y23191D01*
X10925D01*
X10898Y23195D01*
X10873Y23202D01*
X10851Y23213D01*
X10833Y23226D01*
X10816Y23237D01*
X10805Y23249D01*
X10798Y23256D01*
X10796Y23260D01*
X10777Y23289D01*
X10764Y23323D01*
X10755Y23356D01*
X10749Y23391D01*
X10746Y23421D01*
X10744Y23434D01*
X10742Y23447D01*
Y23456D01*
Y23463D01*
Y23467D01*
Y23469D01*
X10744Y23517D01*
X10749Y23558D01*
X10759Y23593D01*
X10768Y23623D01*
X10777Y23645D01*
X10786Y23661D01*
X10792Y23671D01*
X10794Y23674D01*
X10814Y23698D01*
X10836Y23717D01*
X10859Y23730D01*
X10879Y23737D01*
X10898Y23743D01*
X10910Y23745D01*
X10920Y23747D01*
X10923D01*
X10949Y23743D01*
D02*
G37*
G36*
X11309Y22995D02*
X10923D01*
X10962Y22997D01*
X10998Y23004D01*
X11029Y23013D01*
X11059Y23023D01*
X11081Y23034D01*
X11099Y23041D01*
X11110Y23049D01*
X11112Y23050D01*
X11114D01*
X11146Y23074D01*
X11173Y23100D01*
X11198Y23130D01*
X11218Y23158D01*
X11233Y23182D01*
X11246Y23202D01*
X11249Y23210D01*
X11253Y23215D01*
X11255Y23219D01*
Y23221D01*
X11273Y23263D01*
X11286Y23308D01*
X11296Y23350D01*
X11301Y23389D01*
X11307Y23423D01*
Y23437D01*
X11309Y23448D01*
Y22995D01*
D02*
G37*
G36*
X8365Y21935D02*
X8128D01*
X8365Y22361D01*
Y21935D01*
D02*
G37*
G36*
X11593Y21796D02*
X11334Y22724D01*
X11843D01*
X11593Y21796D01*
D02*
G37*
G36*
X10639Y21695D02*
X10247D01*
X10260Y21719D01*
X10273Y21739D01*
X10278Y21746D01*
X10284Y21754D01*
X10286Y21758D01*
X10287Y21759D01*
X10300Y21776D01*
X10317Y21796D01*
X10337Y21819D01*
X10358Y21843D01*
X10376Y21865D01*
X10393Y21883D01*
X10399Y21891D01*
X10404Y21896D01*
X10406Y21898D01*
X10408Y21900D01*
X10443Y21941D01*
X10473Y21978D01*
X10498Y22009D01*
X10519Y22037D01*
X10534Y22058D01*
X10545Y22074D01*
X10550Y22083D01*
X10552Y22087D01*
X10567Y22115D01*
X10582Y22141D01*
X10593Y22165D01*
X10602Y22187D01*
X10608Y22206D01*
X10613Y22219D01*
X10617Y22228D01*
Y22232D01*
X10624Y22259D01*
X10630Y22285D01*
X10634Y22311D01*
X10637Y22333D01*
Y22354D01*
X10639Y22369D01*
Y21695D01*
D02*
G37*
G36*
X7847D02*
X7454D01*
X7467Y21719D01*
X7480Y21739D01*
X7486Y21746D01*
X7491Y21754D01*
X7493Y21758D01*
X7495Y21759D01*
X7508Y21776D01*
X7525Y21796D01*
X7545Y21819D01*
X7565Y21843D01*
X7584Y21865D01*
X7601Y21883D01*
X7606Y21891D01*
X7612Y21896D01*
X7614Y21898D01*
X7615Y21900D01*
X7651Y21941D01*
X7680Y21978D01*
X7706Y22009D01*
X7727Y22037D01*
X7741Y22058D01*
X7752Y22074D01*
X7758Y22083D01*
X7760Y22087D01*
X7775Y22115D01*
X7790Y22141D01*
X7801Y22165D01*
X7810Y22187D01*
X7815Y22206D01*
X7821Y22219D01*
X7825Y22228D01*
Y22232D01*
X7832Y22259D01*
X7838Y22285D01*
X7841Y22311D01*
X7845Y22333D01*
Y22354D01*
X7847Y22369D01*
Y21695D01*
D02*
G37*
%LPC*%
G36*
X35939Y19727D02*
X35929D01*
X35924Y19725D01*
X35915Y19724D01*
X35905Y19722D01*
X35884Y19717D01*
X35859Y19707D01*
X35846Y19701D01*
X35833Y19693D01*
X35819Y19683D01*
X35807Y19673D01*
X35794Y19660D01*
X35783Y19646D01*
Y19645D01*
X35780Y19642D01*
X35777Y19638D01*
X35773Y19631D01*
X35769Y19622D01*
X35764Y19612D01*
X35759Y19600D01*
X35753Y19586D01*
X35747Y19569D01*
X35742Y19550D01*
X35738Y19531D01*
X35733Y19508D01*
X35729Y19484D01*
X35726Y19457D01*
X35725Y19429D01*
X35724Y19399D01*
Y19398D01*
Y19392D01*
Y19384D01*
X35725Y19373D01*
Y19359D01*
X35726Y19343D01*
X35729Y19326D01*
X35732Y19308D01*
X35739Y19268D01*
X35750Y19228D01*
X35766Y19188D01*
X35774Y19171D01*
X35786Y19154D01*
X35787Y19153D01*
X35788Y19151D01*
X35793Y19147D01*
X35797Y19142D01*
X35810Y19129D01*
X35828Y19113D01*
X35850Y19098D01*
X35877Y19085D01*
X35891Y19079D01*
X35907Y19077D01*
X35922Y19074D01*
X35939Y19072D01*
X35948D01*
X35955Y19074D01*
X35963Y19075D01*
X35972Y19077D01*
X35993Y19082D01*
X36018Y19092D01*
X36031Y19099D01*
X36044Y19106D01*
X36056Y19116D01*
X36069Y19126D01*
X36082Y19139D01*
X36093Y19153D01*
X36094Y19154D01*
X36096Y19157D01*
X36099Y19161D01*
X36103Y19168D01*
X36107Y19177D01*
X36113Y19188D01*
X36118Y19201D01*
X36124Y19215D01*
X36130Y19232D01*
X36135Y19250D01*
X36141Y19270D01*
X36145Y19292D01*
X36149Y19318D01*
X36152Y19343D01*
X36155Y19371D01*
Y19402D01*
Y19404D01*
Y19409D01*
Y19418D01*
X36153Y19429D01*
Y19443D01*
X36152Y19459D01*
X36149Y19476D01*
X36148Y19495D01*
X36141Y19535D01*
X36130Y19574D01*
X36114Y19614D01*
X36106Y19631D01*
X36094Y19646D01*
Y19648D01*
X36091Y19649D01*
X36089Y19653D01*
X36083Y19659D01*
X36070Y19672D01*
X36053Y19687D01*
X36031Y19701D01*
X36004Y19714D01*
X35989Y19719D01*
X35973Y19724D01*
X35956Y19725D01*
X35939Y19727D01*
D02*
G37*
G36*
X19013Y8311D02*
X18903D01*
Y8039D01*
X19019D01*
X19037Y8040D01*
X19057Y8041D01*
X19076Y8043D01*
X19093Y8046D01*
X19107Y8050D01*
X19109D01*
X19113Y8053D01*
X19119Y8056D01*
X19126Y8060D01*
X19134Y8067D01*
X19143Y8074D01*
X19151Y8084D01*
X19160Y8095D01*
X19161Y8096D01*
X19162Y8101D01*
X19167Y8108D01*
X19171Y8118D01*
X19174Y8129D01*
X19178Y8141D01*
X19179Y8157D01*
X19181Y8174D01*
Y8177D01*
Y8182D01*
X19179Y8191D01*
X19178Y8202D01*
X19175Y8215D01*
X19172Y8227D01*
X19167Y8242D01*
X19160Y8254D01*
X19158Y8256D01*
X19155Y8260D01*
X19151Y8266D01*
X19146Y8273D01*
X19137Y8280D01*
X19129Y8288D01*
X19119Y8294D01*
X19107Y8299D01*
X19106D01*
X19102Y8301D01*
X19093Y8304D01*
X19081Y8305D01*
X19064Y8308D01*
X19041Y8309D01*
X19027D01*
X19013Y8311D01*
D02*
G37*
G36*
X8846Y8285D02*
X8688D01*
Y8043D01*
X8839D01*
X8861Y8044D01*
X8884D01*
X8906Y8047D01*
X8926Y8048D01*
X8933Y8050D01*
X8940Y8051D01*
X8942D01*
X8946Y8053D01*
X8950Y8055D01*
X8957Y8060D01*
X8966Y8065D01*
X8973Y8071D01*
X8981Y8079D01*
X8988Y8089D01*
X8990Y8091D01*
X8991Y8095D01*
X8994Y8101D01*
X8998Y8110D01*
X9001Y8120D01*
X9004Y8134D01*
X9005Y8149D01*
X9007Y8165D01*
Y8167D01*
Y8172D01*
X9005Y8181D01*
X9004Y8192D01*
X9000Y8216D01*
X8994Y8227D01*
X8988Y8239D01*
X8987Y8240D01*
X8985Y8243D01*
X8981Y8249D01*
X8976Y8254D01*
X8969Y8260D01*
X8960Y8267D01*
X8950Y8273D01*
X8939Y8277D01*
X8937D01*
X8933Y8278D01*
X8926Y8280D01*
X8915Y8281D01*
X8906Y8282D01*
X8898D01*
X8887Y8284D01*
X8861D01*
X8846Y8285D01*
D02*
G37*
G36*
X7037D02*
X6927D01*
Y8013D01*
X7043D01*
X7061Y8015D01*
X7081Y8016D01*
X7101Y8017D01*
X7118Y8020D01*
X7132Y8024D01*
X7133D01*
X7137Y8027D01*
X7143Y8030D01*
X7150Y8034D01*
X7158Y8041D01*
X7167Y8048D01*
X7175Y8058D01*
X7184Y8070D01*
X7185Y8071D01*
X7187Y8075D01*
X7191Y8082D01*
X7195Y8092D01*
X7198Y8103D01*
X7202Y8116D01*
X7204Y8132D01*
X7205Y8149D01*
Y8151D01*
Y8157D01*
X7204Y8165D01*
X7202Y8177D01*
X7199Y8189D01*
X7197Y8202D01*
X7191Y8216D01*
X7184Y8229D01*
X7182Y8230D01*
X7180Y8234D01*
X7175Y8240D01*
X7170Y8247D01*
X7161Y8254D01*
X7153Y8263D01*
X7143Y8268D01*
X7132Y8274D01*
X7130D01*
X7126Y8275D01*
X7118Y8278D01*
X7105Y8280D01*
X7088Y8282D01*
X7065Y8284D01*
X7051D01*
X7037Y8285D01*
D02*
G37*
G36*
X32320Y22992D02*
X32162D01*
Y22749D01*
X32313D01*
X32335Y22751D01*
X32358D01*
X32380Y22754D01*
X32400Y22755D01*
X32407Y22756D01*
X32414Y22758D01*
X32416D01*
X32420Y22759D01*
X32424Y22762D01*
X32431Y22766D01*
X32440Y22772D01*
X32447Y22778D01*
X32455Y22786D01*
X32462Y22796D01*
X32464Y22797D01*
X32465Y22802D01*
X32468Y22807D01*
X32472Y22817D01*
X32475Y22827D01*
X32478Y22841D01*
X32479Y22855D01*
X32480Y22872D01*
Y22873D01*
Y22879D01*
X32479Y22888D01*
X32478Y22899D01*
X32473Y22923D01*
X32468Y22934D01*
X32462Y22945D01*
X32461Y22947D01*
X32459Y22950D01*
X32455Y22955D01*
X32449Y22961D01*
X32442Y22966D01*
X32434Y22974D01*
X32424Y22979D01*
X32413Y22983D01*
X32411D01*
X32407Y22985D01*
X32400Y22986D01*
X32389Y22988D01*
X32380Y22989D01*
X32372D01*
X32361Y22990D01*
X32335D01*
X32320Y22992D01*
D02*
G37*
G36*
X18422Y9835D02*
X18320D01*
Y9203D01*
X18449D01*
X18462Y9205D01*
X18479D01*
X18497Y9206D01*
X18515Y9209D01*
X18532Y9213D01*
X18546Y9217D01*
X18548Y9219D01*
X18552Y9220D01*
X18558Y9223D01*
X18566Y9228D01*
X18585Y9241D01*
X18601Y9259D01*
X18603Y9261D01*
X18606Y9265D01*
X18610Y9272D01*
X18614Y9282D01*
X18620Y9295D01*
X18627Y9310D01*
X18632Y9330D01*
X18638Y9351D01*
Y9353D01*
X18640Y9354D01*
X18641Y9362D01*
X18644Y9377D01*
X18647Y9395D01*
X18649Y9419D01*
X18651Y9447D01*
X18654Y9479D01*
Y9516D01*
Y9517D01*
Y9520D01*
Y9526D01*
Y9533D01*
Y9543D01*
X18652Y9553D01*
Y9577D01*
X18649Y9603D01*
X18647Y9630D01*
X18644Y9658D01*
X18638Y9682D01*
Y9684D01*
Y9685D01*
X18635Y9692D01*
X18632Y9704D01*
X18627Y9718D01*
X18621Y9733D01*
X18613Y9750D01*
X18604Y9766D01*
X18593Y9780D01*
X18592Y9781D01*
X18587Y9785D01*
X18580Y9791D01*
X18572Y9799D01*
X18561Y9806D01*
X18548Y9815D01*
X18534Y9821D01*
X18518Y9826D01*
X18517D01*
X18511Y9828D01*
X18503Y9829D01*
X18490Y9830D01*
X18472Y9832D01*
X18451Y9833D01*
X18422Y9835D01*
D02*
G37*
G36*
X17634D02*
X17531D01*
Y9203D01*
X17661D01*
X17674Y9205D01*
X17691D01*
X17709Y9206D01*
X17727Y9209D01*
X17744Y9213D01*
X17758Y9217D01*
X17760Y9219D01*
X17764Y9220D01*
X17770Y9223D01*
X17778Y9228D01*
X17797Y9241D01*
X17813Y9259D01*
X17815Y9261D01*
X17818Y9265D01*
X17822Y9272D01*
X17826Y9282D01*
X17832Y9295D01*
X17839Y9310D01*
X17844Y9330D01*
X17850Y9351D01*
Y9353D01*
X17851Y9354D01*
X17853Y9362D01*
X17856Y9377D01*
X17859Y9395D01*
X17861Y9419D01*
X17863Y9447D01*
X17866Y9479D01*
Y9516D01*
Y9517D01*
Y9520D01*
Y9526D01*
Y9533D01*
Y9543D01*
X17864Y9553D01*
Y9577D01*
X17861Y9603D01*
X17859Y9630D01*
X17856Y9658D01*
X17850Y9682D01*
Y9684D01*
Y9685D01*
X17847Y9692D01*
X17844Y9704D01*
X17839Y9718D01*
X17833Y9733D01*
X17825Y9750D01*
X17816Y9766D01*
X17805Y9780D01*
X17804Y9781D01*
X17799Y9785D01*
X17792Y9791D01*
X17784Y9799D01*
X17773Y9806D01*
X17760Y9815D01*
X17746Y9821D01*
X17730Y9826D01*
X17729D01*
X17723Y9828D01*
X17715Y9829D01*
X17702Y9830D01*
X17684Y9832D01*
X17663Y9833D01*
X17634Y9835D01*
D02*
G37*
G36*
X26619Y11446D02*
X26618D01*
X26615D01*
X26611D01*
X26604D01*
X26588Y11444D01*
X26569Y11442D01*
X26546Y11439D01*
X26524Y11433D01*
X26504Y11425D01*
X26486Y11415D01*
X26484Y11413D01*
X26479Y11409D01*
X26471Y11403D01*
X26463Y11395D01*
X26456Y11384D01*
X26449Y11371D01*
X26443Y11357D01*
X26442Y11341D01*
Y11334D01*
X26443Y11326D01*
X26448Y11316D01*
X26452Y11305D01*
X26459Y11292D01*
X26469Y11279D01*
X26483Y11268D01*
X26484Y11267D01*
X26490Y11264D01*
X26500Y11258D01*
X26514Y11254D01*
X26531Y11248D01*
X26550Y11243D01*
X26576Y11240D01*
X26604Y11239D01*
X26605D01*
X26608D01*
X26612D01*
X26618D01*
X26635Y11240D01*
X26655Y11243D01*
X26676Y11247D01*
X26698Y11253D01*
X26721Y11260D01*
X26741Y11271D01*
X26742Y11272D01*
X26748Y11277D01*
X26755Y11284D01*
X26763Y11294D01*
X26773Y11305D01*
X26780Y11317D01*
X26786Y11333D01*
X26787Y11349D01*
Y11356D01*
X26786Y11363D01*
X26783Y11372D01*
X26777Y11384D01*
X26772Y11395D01*
X26762Y11406D01*
X26749Y11418D01*
X26748Y11419D01*
X26742Y11422D01*
X26732Y11426D01*
X26718Y11432D01*
X26700Y11437D01*
X26677Y11442D01*
X26651Y11444D01*
X26619Y11446D01*
D02*
G37*
G36*
X28223Y18652D02*
X27898D01*
X28223Y18472D01*
Y18652D01*
D02*
G37*
%LPD*%
D10*
X29198Y10450D02*
G03*
X29698Y10950I-0J500D01*
G01*
X27198D02*
G03*
X27698Y10450I500J-0D01*
G01*
Y14950D02*
G03*
X27198Y14450I0J-500D01*
G01*
X29698Y14450D02*
G03*
X29198Y14950I-500J0D01*
G01*
X26735Y22109D02*
G03*
X26735Y22109I-50J0D01*
G01*
X21690Y8945D02*
G03*
X22190Y8445I500J0D01*
G01*
Y9945D02*
G03*
X21690Y9445I0J-500D01*
G01*
X24690Y9445D02*
G03*
X24190Y9945I-500J0D01*
G01*
Y8445D02*
G03*
X24690Y8945I-0J500D01*
G01*
X15605Y14129D02*
G03*
X15205Y14529I-400J0D01*
G01*
X14005Y14529D02*
G03*
X13605Y14129I0J-400D01*
G01*
Y11729D02*
G03*
X14005Y11329I400J0D01*
G01*
X15205Y11329D02*
G03*
X15605Y11729I0J400D01*
G01*
X12823Y11378D02*
G03*
X13323Y11878I0J500D01*
G01*
X11823D02*
G03*
X12323Y11378I500J0D01*
G01*
X12323Y14378D02*
G03*
X11823Y13878I0J-500D01*
G01*
X13323D02*
G03*
X12823Y14378I-500J-0D01*
G01*
X15693Y14934D02*
G03*
X16193Y15434I0J500D01*
G01*
X14693D02*
G03*
X15193Y14934I500J0D01*
G01*
X15193Y17934D02*
G03*
X14693Y17434I0J-500D01*
G01*
X16193D02*
G03*
X15693Y17934I-500J-0D01*
G01*
X33861Y3431D02*
G03*
X33861Y3431I-100J0D01*
G01*
X26616Y12487D02*
G03*
X26916Y12787I0J300D01*
G01*
X25916Y12787D02*
G03*
X26216Y12487I300J0D01*
G01*
X26216Y14487D02*
G03*
X25916Y14187I0J-300D01*
G01*
X26916Y14187D02*
G03*
X26616Y14487I-300J0D01*
G01*
X26793Y16636D02*
G03*
X27293Y17136I0J500D01*
G01*
X25793D02*
G03*
X26293Y16636I500J0D01*
G01*
X26293Y19636D02*
G03*
X25793Y19136I0J-500D01*
G01*
X27293D02*
G03*
X26793Y19636I-500J-0D01*
G01*
X27198Y10950D02*
Y14450D01*
X29698Y10950D02*
Y14450D01*
X27698Y14950D02*
X29198D01*
X27698Y10450D02*
X29198D01*
X12262Y7115D02*
X14362D01*
Y5115D02*
Y7115D01*
X12262Y1115D02*
X14362D01*
Y3115D01*
X625Y17721D02*
X9425D01*
Y10321D02*
Y17721D01*
X625Y10321D02*
X9425D01*
X625D02*
Y17721D01*
X19131Y16963D02*
X22831D01*
X19131Y10363D02*
X22831D01*
X31189Y20509D02*
Y21909D01*
Y20509D02*
X34089D01*
Y21909D01*
X31189D02*
X34089D01*
X29785Y20509D02*
Y21909D01*
X26985Y20509D02*
Y21909D01*
X29785D01*
X26985Y20509D02*
X29785D01*
X31323Y10121D02*
Y18321D01*
X38523D01*
Y10121D02*
Y18321D01*
X31323Y10121D02*
X38523D01*
X21690Y8945D02*
Y9445D01*
X22190Y9945D02*
X24190D01*
X22190Y8445D02*
X24190D01*
X24690Y8945D02*
Y9445D01*
X17181Y24613D02*
X24781D01*
X17181Y17713D02*
X24781D01*
X17181Y23138D02*
Y24613D01*
X24781Y23138D02*
Y24613D01*
X17181Y17713D02*
Y19188D01*
X24781Y17713D02*
Y19188D01*
X15605Y11729D02*
Y14129D01*
X14005Y11329D02*
X15205D01*
X13605Y11729D02*
Y14129D01*
X14005Y14529D02*
X15205D01*
X12323Y11378D02*
X12823D01*
X11823Y11878D02*
Y13878D01*
X13323Y11878D02*
Y13878D01*
X12323Y14378D02*
X12823D01*
X15193Y14934D02*
X15693D01*
X14693Y15434D02*
Y17434D01*
X16193Y15434D02*
Y17434D01*
X15193Y17934D02*
X15693D01*
X6166Y7115D02*
X8266D01*
Y5115D02*
Y7115D01*
X6166Y1115D02*
X8266D01*
Y3115D01*
X18226Y7115D02*
X20326D01*
Y5115D02*
Y7115D01*
X18226Y1115D02*
X20326D01*
Y3115D01*
X33006Y2871D02*
Y4031D01*
X25516Y2871D02*
X33006D01*
X25516D02*
Y4031D01*
X33006Y6231D02*
Y7391D01*
X25516D02*
X33006D01*
X25516Y6231D02*
Y7391D01*
X26216Y14487D02*
X26616D01*
X25916Y12787D02*
Y14187D01*
X26216Y12487D02*
X26616D01*
X26916Y12787D02*
Y14187D01*
X26293Y16636D02*
X26793D01*
X25793Y17136D02*
Y19136D01*
X27293Y17136D02*
Y19136D01*
X26293Y19636D02*
X26793D01*
D11*
X11387Y7015D02*
G03*
X11387Y7015I-125J0D01*
G01*
X17306Y17363D02*
G03*
X17306Y17363I-125J0D01*
G01*
X5291Y7015D02*
G03*
X5291Y7015I-125J0D01*
G01*
X17351D02*
G03*
X17351Y7015I-125J0D01*
G01*
D12*
X8926Y17021D02*
G03*
X8926Y17021I-1J0D01*
G01*
X38349Y9526D02*
G03*
X38349Y9526I-1J0D01*
G01*
M02*
