G04*
G04 #@! TF.GenerationSoftware,Altium Limited,Altium Designer,19.1.6 (110)*
G04*
G04 Layer_Physical_Order=1*
G04 Layer_Color=255*
%FSLAX43Y43*%
%MOMM*%
G71*
G01*
G75*
%ADD10C,0.200*%
%ADD11C,0.250*%
%ADD29R,1.900X1.900*%
%ADD30C,1.900*%
G04:AMPARAMS|DCode=31|XSize=1.8mm|YSize=1mm|CornerRadius=0.25mm|HoleSize=0mm|Usage=FLASHONLY|Rotation=0.000|XOffset=0mm|YOffset=0mm|HoleType=Round|Shape=RoundedRectangle|*
%AMROUNDEDRECTD31*
21,1,1.800,0.500,0,0,0.0*
21,1,1.300,1.000,0,0,0.0*
1,1,0.500,0.650,-0.250*
1,1,0.500,-0.650,-0.250*
1,1,0.500,-0.650,0.250*
1,1,0.500,0.650,0.250*
%
%ADD31ROUNDEDRECTD31*%
%ADD32R,1.250X1.200*%
%ADD33R,1.400X0.400*%
%ADD34O,1.400X0.400*%
%ADD35R,2.960X2.960*%
%ADD36R,0.850X0.900*%
%ADD37R,0.800X0.950*%
G04:AMPARAMS|DCode=38|XSize=0.9mm|YSize=0.8mm|CornerRadius=0.2mm|HoleSize=0mm|Usage=FLASHONLY|Rotation=270.000|XOffset=0mm|YOffset=0mm|HoleType=Round|Shape=RoundedRectangle|*
%AMROUNDEDRECTD38*
21,1,0.900,0.400,0,0,270.0*
21,1,0.500,0.800,0,0,270.0*
1,1,0.400,-0.200,-0.250*
1,1,0.400,-0.200,0.250*
1,1,0.400,0.200,0.250*
1,1,0.400,0.200,-0.250*
%
%ADD38ROUNDEDRECTD38*%
%ADD39R,3.200X3.150*%
G04:AMPARAMS|DCode=40|XSize=1.4mm|YSize=1mm|CornerRadius=0.25mm|HoleSize=0mm|Usage=FLASHONLY|Rotation=0.000|XOffset=0mm|YOffset=0mm|HoleType=Round|Shape=RoundedRectangle|*
%AMROUNDEDRECTD40*
21,1,1.400,0.500,0,0,0.0*
21,1,0.900,1.000,0,0,0.0*
1,1,0.500,0.450,-0.250*
1,1,0.500,-0.450,-0.250*
1,1,0.500,-0.450,0.250*
1,1,0.500,0.450,0.250*
%
%ADD40ROUNDEDRECTD40*%
G04:AMPARAMS|DCode=41|XSize=0.9mm|YSize=0.8mm|CornerRadius=0.2mm|HoleSize=0mm|Usage=FLASHONLY|Rotation=0.000|XOffset=0mm|YOffset=0mm|HoleType=Round|Shape=RoundedRectangle|*
%AMROUNDEDRECTD41*
21,1,0.900,0.400,0,0,0.0*
21,1,0.500,0.800,0,0,0.0*
1,1,0.400,0.250,-0.200*
1,1,0.400,-0.250,-0.200*
1,1,0.400,-0.250,0.200*
1,1,0.400,0.250,0.200*
%
%ADD41ROUNDEDRECTD41*%
%ADD42R,2.150X1.500*%
G04:AMPARAMS|DCode=43|XSize=0.5mm|YSize=0.5mm|CornerRadius=0.125mm|HoleSize=0mm|Usage=FLASHONLY|Rotation=180.000|XOffset=0mm|YOffset=0mm|HoleType=Round|Shape=RoundedRectangle|*
%AMROUNDEDRECTD43*
21,1,0.500,0.250,0,0,180.0*
21,1,0.250,0.500,0,0,180.0*
1,1,0.250,-0.125,0.125*
1,1,0.250,0.125,0.125*
1,1,0.250,0.125,-0.125*
1,1,0.250,-0.125,-0.125*
%
%ADD43ROUNDEDRECTD43*%
%ADD44C,0.381*%
%ADD45C,3.300*%
%ADD46R,1.800X1.800*%
%ADD47C,1.800*%
%ADD48C,0.600*%
G36*
X38745Y25729D02*
Y329D01*
X38655Y239D01*
X255Y255D01*
Y25655D01*
X345Y25745D01*
X38745Y25729D01*
D02*
G37*
%LPC*%
G36*
X37500Y25290D02*
Y24500D01*
X38290D01*
X38213Y24644D01*
X37957Y24957D01*
X37644Y25213D01*
X37500Y25290D01*
D02*
G37*
G36*
X35500D02*
X35356Y25213D01*
X35043Y24957D01*
X34787Y24644D01*
X34710Y24500D01*
X35500D01*
Y25290D01*
D02*
G37*
G36*
X3500D02*
Y24500D01*
X4290D01*
X4213Y24644D01*
X3957Y24957D01*
X3644Y25213D01*
X3500Y25290D01*
D02*
G37*
G36*
X1500D02*
X1356Y25213D01*
X1043Y24957D01*
X787Y24644D01*
X710Y24500D01*
X1500D01*
Y25290D01*
D02*
G37*
G36*
X38290Y22500D02*
X37500D01*
Y21710D01*
X37644Y21787D01*
X37957Y22043D01*
X38213Y22356D01*
X38290Y22500D01*
D02*
G37*
G36*
X35500D02*
X34710D01*
X34787Y22356D01*
X35043Y22043D01*
X35356Y21787D01*
X35500Y21710D01*
Y22500D01*
D02*
G37*
G36*
X4290D02*
X3500D01*
Y21710D01*
X3644Y21787D01*
X3957Y22043D01*
X4213Y22356D01*
X4290Y22500D01*
D02*
G37*
G36*
X1500D02*
X710D01*
X787Y22356D01*
X1043Y22043D01*
X1356Y21787D01*
X1500Y21710D01*
Y22500D01*
D02*
G37*
G36*
X29810Y21884D02*
X28610D01*
Y20534D01*
X29810D01*
Y20811D01*
X31239D01*
Y20559D01*
X32489D01*
Y21859D01*
X31239D01*
Y21607D01*
X29810D01*
Y21884D01*
D02*
G37*
G36*
X34323Y17063D02*
X34218Y17020D01*
X33968Y16827D01*
X33775Y16577D01*
X33732Y16471D01*
X34323D01*
Y17063D01*
D02*
G37*
G36*
X19981Y22938D02*
X16381D01*
Y22513D01*
X16281Y22404D01*
X15138D01*
X15060Y22388D01*
X14994Y22344D01*
X14950Y22278D01*
X14934Y22200D01*
Y17837D01*
X14936Y17827D01*
X14935Y17817D01*
X14944Y17788D01*
X14950Y17759D01*
X14956Y17750D01*
X14959Y17740D01*
X14905Y17672D01*
X14816Y17540D01*
X14785Y17384D01*
Y16984D01*
X14816Y16828D01*
X14905Y16695D01*
X15037Y16607D01*
X15193Y16576D01*
X15693D01*
X15742Y16586D01*
X15776Y16476D01*
X15780Y16467D01*
X15782Y16457D01*
X15799Y16432D01*
X15813Y16406D01*
X15821Y16400D01*
X15824Y16395D01*
X15820Y16377D01*
X15770Y16276D01*
X15693Y16292D01*
X15193D01*
X15037Y16261D01*
X14905Y16172D01*
X14817Y16040D01*
X14786Y15884D01*
Y15484D01*
X14817Y15328D01*
X14905Y15195D01*
X14951Y15165D01*
X14913Y15038D01*
X12226D01*
X10380Y16883D01*
X10314Y16927D01*
X10236Y16943D01*
X6299D01*
X6261Y16935D01*
X6223Y16928D01*
X6197Y16917D01*
X3988D01*
X3988Y16917D01*
X3910Y16902D01*
X3844Y16857D01*
X3132Y16146D01*
X3088Y16080D01*
X3073Y16002D01*
Y14834D01*
Y5385D01*
X3073Y5385D01*
X3088Y5307D01*
X3132Y5241D01*
X3132Y5241D01*
X3640Y4733D01*
X3640Y4733D01*
X3707Y4688D01*
X3785Y4673D01*
X8141Y4673D01*
Y3315D01*
X9791D01*
Y3717D01*
X10085D01*
X10194Y3644D01*
X10389Y3605D01*
X10584Y3644D01*
X10749Y3754D01*
X10860Y3920D01*
X10898Y4115D01*
X10860Y4310D01*
X10749Y4475D01*
X10643Y4546D01*
X10682Y4673D01*
X14237D01*
Y3315D01*
X15887D01*
Y3691D01*
X16079D01*
X16188Y3618D01*
X16383Y3580D01*
X16578Y3618D01*
X16743Y3729D01*
X16854Y3894D01*
X16893Y4089D01*
X16854Y4284D01*
X16743Y4450D01*
X16600Y4546D01*
X16611Y4647D01*
X16621Y4673D01*
X18644D01*
X18722Y4688D01*
X18788Y4733D01*
X18832Y4799D01*
X18848Y4877D01*
Y6579D01*
X18832Y6657D01*
X18788Y6723D01*
X18788Y6723D01*
X18534Y6977D01*
X18468Y7021D01*
X18390Y7037D01*
X18322D01*
X17924Y7434D01*
X17858Y7478D01*
X17780Y7494D01*
X8466Y7494D01*
X6330Y9630D01*
X6375Y13050D01*
X6745Y13690D01*
X6895D01*
X6957Y13563D01*
X6833Y13401D01*
X6800Y13321D01*
X7925D01*
Y12771D01*
X8475D01*
Y11646D01*
X8556Y11679D01*
X8817Y11879D01*
X9017Y12140D01*
X9143Y12444D01*
X9186Y12771D01*
X9147Y13067D01*
X9254Y13140D01*
X9635Y12759D01*
X9701Y12715D01*
X9779Y12699D01*
X11948D01*
X12005Y12572D01*
X11946Y12484D01*
X11928Y12393D01*
X13218D01*
X13200Y12484D01*
X13141Y12572D01*
X13198Y12699D01*
X13709D01*
X13777Y12572D01*
X13731Y12504D01*
X13706Y12379D01*
X15504D01*
X15479Y12504D01*
X15379Y12653D01*
X15356Y12668D01*
X15344Y12795D01*
X15381Y12832D01*
X15387Y12841D01*
X15395Y12847D01*
X15409Y12874D01*
X15426Y12898D01*
X15427Y12908D01*
X15432Y12917D01*
X15435Y12947D01*
X15441Y12977D01*
X15439Y12986D01*
X15440Y12997D01*
X15431Y13025D01*
X15426Y13055D01*
X15420Y13063D01*
X15417Y13073D01*
X15417Y13073D01*
X15511Y13167D01*
X15511Y13167D01*
X15521Y13164D01*
X15529Y13158D01*
X15558Y13152D01*
X15587Y13144D01*
X15597Y13145D01*
X15607Y13143D01*
X15636Y13148D01*
X15666Y13151D01*
X15680Y13157D01*
X15685Y13158D01*
X15805Y13116D01*
X15817Y13103D01*
X15822Y13097D01*
X15870Y13025D01*
X16036Y12915D01*
X16231Y12876D01*
X16270Y12754D01*
X16254Y12675D01*
X16293Y12480D01*
X16404Y12314D01*
X16569Y12204D01*
X16760Y12166D01*
X16772Y12149D01*
X16821Y12047D01*
X15799Y11025D01*
X15570D01*
X15570Y11025D01*
X15453Y11001D01*
X15354Y10935D01*
X15354Y10935D01*
X13272Y8854D01*
X13208Y8866D01*
X13013Y8828D01*
X12848Y8717D01*
X12737Y8552D01*
X12698Y8357D01*
X12737Y8162D01*
X12848Y7996D01*
X13013Y7886D01*
X13208Y7847D01*
X13403Y7886D01*
X13568Y7996D01*
X13679Y8162D01*
X13718Y8357D01*
X13705Y8421D01*
X15697Y10413D01*
X15926D01*
X15926Y10413D01*
X16043Y10436D01*
X16097Y10472D01*
X16208Y10426D01*
X16216Y10421D01*
X16226Y10410D01*
X16247Y10303D01*
X16314Y10203D01*
X21485Y5032D01*
X21436Y4915D01*
X20201D01*
Y3315D01*
X21851D01*
Y3666D01*
X21997D01*
X22106Y3593D01*
X22301Y3554D01*
X22496Y3593D01*
X22662Y3704D01*
X22772Y3869D01*
X22811Y4064D01*
X22772Y4259D01*
X22662Y4424D01*
X22496Y4535D01*
X22301Y4574D01*
X22106Y4535D01*
X21997Y4462D01*
X21851D01*
Y4825D01*
X23861D01*
Y4181D01*
X26411D01*
Y6081D01*
X23861D01*
Y5437D01*
X21945D01*
X16836Y10546D01*
Y10609D01*
X17001Y10774D01*
X17069Y10754D01*
X17127Y10720D01*
X17154Y10582D01*
X17243Y10449D01*
X17375Y10361D01*
X17531Y10330D01*
X17901D01*
Y10738D01*
X18031D01*
Y10868D01*
X18913D01*
X18908Y10894D01*
X18820Y11026D01*
Y11099D01*
X18908Y11232D01*
X18939Y11388D01*
X18908Y11544D01*
X18820Y11676D01*
Y11749D01*
X18908Y11882D01*
X18939Y12038D01*
X18908Y12194D01*
X18820Y12326D01*
Y12399D01*
X18908Y12532D01*
X18939Y12688D01*
X18908Y12844D01*
X18820Y12976D01*
Y13049D01*
X18908Y13182D01*
X18939Y13338D01*
X18908Y13494D01*
X18820Y13626D01*
Y13699D01*
X18908Y13832D01*
X18939Y13988D01*
X18908Y14144D01*
X18820Y14276D01*
Y14349D01*
X18908Y14482D01*
X18939Y14638D01*
X18908Y14794D01*
X18820Y14926D01*
Y14999D01*
X18908Y15132D01*
X18939Y15288D01*
X18908Y15444D01*
X18820Y15576D01*
Y15649D01*
X18908Y15782D01*
X18939Y15938D01*
X18915Y16061D01*
X18931Y16188D01*
X18931D01*
X18931Y16188D01*
Y16458D01*
X18031D01*
Y16718D01*
X18931D01*
Y16796D01*
X18950Y16799D01*
X19016Y16844D01*
X19061Y16910D01*
X19076Y16988D01*
Y17754D01*
X19202D01*
X19280Y17769D01*
X19347Y17814D01*
X19391Y17880D01*
X19406Y17958D01*
Y19288D01*
X19516Y19388D01*
X19981D01*
Y22938D01*
D02*
G37*
G36*
X22661Y15343D02*
X21881D01*
Y14563D01*
X22661D01*
Y15343D01*
D02*
G37*
G36*
X20081D02*
X19301D01*
Y14563D01*
X20081D01*
Y15343D01*
D02*
G37*
G36*
X26864Y12822D02*
X26581D01*
Y12539D01*
X26668Y12556D01*
X26775Y12628D01*
X26847Y12736D01*
X26864Y12822D01*
D02*
G37*
G36*
X26251D02*
X25968D01*
X25985Y12736D01*
X26057Y12628D01*
X26164Y12556D01*
X26251Y12539D01*
Y12822D01*
D02*
G37*
G36*
X22661Y12763D02*
X21881D01*
Y11983D01*
X22661D01*
Y12763D01*
D02*
G37*
G36*
X20081D02*
X19301D01*
Y11983D01*
X20081D01*
Y12763D01*
D02*
G37*
G36*
X7375Y12221D02*
X6800D01*
X6833Y12140D01*
X7034Y11879D01*
X7295Y11679D01*
X7375Y11646D01*
Y12221D01*
D02*
G37*
G36*
X13218Y11863D02*
X12838D01*
Y11523D01*
X12979Y11551D01*
X13112Y11639D01*
X13200Y11772D01*
X13218Y11863D01*
D02*
G37*
G36*
X12308D02*
X11928D01*
X11946Y11772D01*
X12035Y11639D01*
X12167Y11551D01*
X12308Y11523D01*
Y11863D01*
D02*
G37*
G36*
X29098Y11909D02*
X28748D01*
Y11500D01*
X29547D01*
X29522Y11626D01*
X29422Y11774D01*
X29274Y11874D01*
X29098Y11909D01*
D02*
G37*
G36*
X28148D02*
X27798D01*
X27622Y11874D01*
X27474Y11774D01*
X27374Y11626D01*
X27349Y11500D01*
X28148D01*
Y11909D01*
D02*
G37*
G36*
X15504Y11779D02*
X14905D01*
Y11370D01*
X15055D01*
X15231Y11405D01*
X15379Y11504D01*
X15479Y11653D01*
X15504Y11779D01*
D02*
G37*
G36*
X14305D02*
X13706D01*
X13731Y11653D01*
X13831Y11504D01*
X13979Y11405D01*
X14155Y11370D01*
X14305D01*
Y11779D01*
D02*
G37*
G36*
X29547Y10900D02*
X28748D01*
Y10491D01*
X29098D01*
X29274Y10526D01*
X29422Y10626D01*
X29522Y10774D01*
X29547Y10900D01*
D02*
G37*
G36*
X28148D02*
X27349D01*
X27374Y10774D01*
X27474Y10626D01*
X27622Y10526D01*
X27798Y10491D01*
X28148D01*
Y10900D01*
D02*
G37*
G36*
X25581Y22938D02*
X21981D01*
Y19388D01*
X22445D01*
X22554Y19288D01*
Y16879D01*
X22558Y16859D01*
Y16839D01*
X22566Y16821D01*
X22570Y16801D01*
X22581Y16784D01*
X22589Y16766D01*
X22603Y16752D01*
X22614Y16735D01*
X22631Y16724D01*
X22645Y16710D01*
X22695Y16676D01*
X22748Y16596D01*
X22805Y16540D01*
X22878Y16509D01*
X22958D01*
X23053Y16439D01*
X23054Y16432D01*
X23143Y16299D01*
Y16226D01*
X23054Y16094D01*
X23023Y15938D01*
X23054Y15782D01*
X23143Y15649D01*
Y15576D01*
X23054Y15444D01*
X23049Y15418D01*
X23931D01*
Y15158D01*
X23049D01*
X23054Y15132D01*
X23143Y14999D01*
Y14926D01*
X23054Y14794D01*
X23023Y14638D01*
X23054Y14482D01*
X23143Y14349D01*
Y14276D01*
X23054Y14144D01*
X23023Y13988D01*
X23054Y13832D01*
X23143Y13699D01*
Y13626D01*
X23054Y13494D01*
X23023Y13338D01*
X23054Y13182D01*
X23143Y13049D01*
Y12976D01*
X23054Y12844D01*
X23023Y12688D01*
X23054Y12532D01*
X23143Y12399D01*
Y12326D01*
X23054Y12194D01*
X23049Y12168D01*
X23931D01*
Y11908D01*
X23049D01*
X23054Y11882D01*
X23143Y11749D01*
Y11676D01*
X23054Y11544D01*
X23023Y11388D01*
X23054Y11232D01*
X23143Y11099D01*
Y11026D01*
X23054Y10894D01*
X23023Y10738D01*
X23054Y10582D01*
X23143Y10449D01*
X23275Y10361D01*
X23431Y10330D01*
X23538D01*
Y9790D01*
X23452Y9733D01*
X23363Y9601D01*
X23332Y9445D01*
Y8945D01*
X23363Y8789D01*
X23452Y8656D01*
X23584Y8568D01*
X23740Y8537D01*
X24140D01*
X24296Y8568D01*
X24429Y8656D01*
X24517Y8789D01*
X24548Y8945D01*
Y9445D01*
X24517Y9601D01*
X24429Y9733D01*
X24334Y9796D01*
Y10330D01*
X24431D01*
X24587Y10361D01*
X24720Y10449D01*
X24808Y10582D01*
X24839Y10738D01*
X24808Y10894D01*
X24765Y10959D01*
X24828Y11086D01*
X24828Y11086D01*
X24945Y11109D01*
X25044Y11175D01*
X25515Y11646D01*
X25515Y11646D01*
X25581Y11745D01*
X25604Y11862D01*
Y12395D01*
X25581Y12512D01*
X25515Y12611D01*
X25515Y12611D01*
X25388Y12739D01*
X25405Y12794D01*
X25438Y12867D01*
X25589Y12968D01*
X25700Y13133D01*
X25738Y13329D01*
X25732Y13363D01*
X25812Y13461D01*
X25891D01*
X25912Y13465D01*
X25933Y13466D01*
X25950Y13473D01*
X25969Y13477D01*
X25986Y13489D01*
X26006Y13497D01*
X26019Y13510D01*
X26035Y13521D01*
X26058Y13527D01*
X26077Y13513D01*
X26072Y13357D01*
X26057Y13347D01*
X25985Y13239D01*
X25968Y13152D01*
X26416D01*
X26864D01*
X26847Y13239D01*
X26775Y13347D01*
X26760Y13357D01*
X26755Y13513D01*
X26774Y13527D01*
X26797Y13521D01*
X26813Y13510D01*
X26826Y13497D01*
X26846Y13489D01*
X26863Y13477D01*
X26882Y13473D01*
X26899Y13466D01*
X26920Y13465D01*
X26941Y13461D01*
X27316D01*
X27345Y13467D01*
X27375Y13470D01*
X27384Y13475D01*
X27394Y13477D01*
X27419Y13493D01*
X27445Y13508D01*
X27452Y13515D01*
X27460Y13521D01*
X27596Y13544D01*
X27622Y13526D01*
X27798Y13491D01*
X29098D01*
X29252Y13522D01*
X29255Y13515D01*
X29269Y13501D01*
X29280Y13484D01*
X32368Y10397D01*
X32434Y10353D01*
X32512Y10337D01*
X36576D01*
X36654Y10353D01*
X36720Y10397D01*
X36764Y10463D01*
X36780Y10541D01*
Y14986D01*
X36764Y15064D01*
X36720Y15130D01*
X36654Y15174D01*
X36576Y15190D01*
X36437D01*
Y20151D01*
X36407Y20304D01*
X36320Y20433D01*
X35441Y21313D01*
X35311Y21399D01*
X35159Y21429D01*
X34039D01*
Y21859D01*
X32789D01*
Y20559D01*
X34039D01*
Y20633D01*
X34994D01*
X35641Y19986D01*
Y17000D01*
X35527Y16944D01*
X35429Y17020D01*
X35323Y17063D01*
Y15971D01*
X34823D01*
Y15471D01*
X33732D01*
X33775Y15366D01*
X33823Y15304D01*
X33767Y15190D01*
X29317Y15190D01*
X29315Y15189D01*
X29312Y15190D01*
X29276Y15182D01*
X29239Y15174D01*
X29237Y15173D01*
X29235Y15173D01*
X29204Y15151D01*
X29173Y15130D01*
X29171Y15128D01*
X29169Y15127D01*
X29149Y15095D01*
X29129Y15064D01*
X29128Y15062D01*
X29127Y15060D01*
X29119Y15039D01*
X29114Y15014D01*
X29106Y14990D01*
X29097Y14909D01*
X27799D01*
X27790Y14990D01*
X27782Y15014D01*
X27777Y15039D01*
X27769Y15060D01*
X27768Y15062D01*
X27767Y15064D01*
X27747Y15095D01*
X27727Y15127D01*
X27725Y15128D01*
X27723Y15130D01*
X27692Y15151D01*
X27661Y15173D01*
X27659Y15173D01*
X27657Y15174D01*
X27620Y15182D01*
X27584Y15190D01*
X27581Y15189D01*
X27579Y15190D01*
X24949D01*
X24839Y15288D01*
X24821Y15380D01*
X24832Y15409D01*
X24839Y15419D01*
X24915Y15492D01*
X24918Y15493D01*
X27559D01*
X27637Y15509D01*
X27703Y15553D01*
X27747Y15619D01*
X27763Y15697D01*
Y17653D01*
X27747Y17731D01*
X27764Y17820D01*
X27830Y17864D01*
X27874Y17931D01*
X27890Y18009D01*
X27890Y19507D01*
Y20041D01*
X27874Y20119D01*
X27830Y20185D01*
X27764Y20229D01*
X27686Y20245D01*
X26391Y20245D01*
Y20669D01*
X26422Y20694D01*
X26617Y20732D01*
X26730Y20808D01*
X26960D01*
Y20534D01*
X28160D01*
Y21884D01*
X26960D01*
Y21604D01*
X26722D01*
X26617Y21674D01*
X26422Y21713D01*
X26391Y21738D01*
Y22174D01*
X26376Y22252D01*
X26332Y22318D01*
X26265Y22363D01*
X26187Y22378D01*
X25681D01*
X25581Y22479D01*
Y22938D01*
D02*
G37*
G36*
X18913Y10608D02*
X18161D01*
Y10330D01*
X18531D01*
X18687Y10361D01*
X18820Y10449D01*
X18908Y10582D01*
X18913Y10608D01*
D02*
G37*
G36*
X22705Y9840D02*
Y9460D01*
X23045D01*
X23017Y9601D01*
X22929Y9733D01*
X22796Y9821D01*
X22705Y9840D01*
D02*
G37*
G36*
X22175D02*
X22084Y9821D01*
X21952Y9733D01*
X21863Y9601D01*
X21835Y9460D01*
X22175D01*
Y9840D01*
D02*
G37*
G36*
X23045Y8930D02*
X22705D01*
Y8550D01*
X22796Y8568D01*
X22929Y8656D01*
X23017Y8789D01*
X23045Y8930D01*
D02*
G37*
G36*
X22175D02*
X21835D01*
X21863Y8789D01*
X21952Y8656D01*
X22084Y8568D01*
X22175Y8550D01*
Y8930D01*
D02*
G37*
G36*
X34661Y6081D02*
X33886D01*
Y5631D01*
X34661D01*
Y6081D01*
D02*
G37*
G36*
X32886D02*
X32111D01*
Y5631D01*
X32886D01*
Y6081D01*
D02*
G37*
G36*
X34661Y4631D02*
X33886D01*
Y4181D01*
X34661D01*
Y4631D01*
D02*
G37*
G36*
X32886D02*
X32111D01*
Y4181D01*
X32886D01*
Y4631D01*
D02*
G37*
G36*
X37500Y4290D02*
Y3500D01*
X38290D01*
X38213Y3644D01*
X37957Y3957D01*
X37644Y4213D01*
X37500Y4290D01*
D02*
G37*
G36*
X35500D02*
X35356Y4213D01*
X35043Y3957D01*
X34787Y3644D01*
X34710Y3500D01*
X35500D01*
Y4290D01*
D02*
G37*
G36*
X1500D02*
X1356Y4213D01*
X1043Y3957D01*
X787Y3644D01*
X710Y3500D01*
X1500D01*
Y4290D01*
D02*
G37*
G36*
X18051Y3165D02*
X17656D01*
Y2795D01*
X18051D01*
Y3165D01*
D02*
G37*
G36*
X12087D02*
X11692D01*
Y2795D01*
X12087D01*
Y3165D01*
D02*
G37*
G36*
X5991D02*
X5596D01*
Y2795D01*
X5991D01*
Y3165D01*
D02*
G37*
G36*
X16796D02*
X16401D01*
Y2795D01*
X16796D01*
Y3165D01*
D02*
G37*
G36*
X10832D02*
X10437D01*
Y2795D01*
X10832D01*
Y3165D01*
D02*
G37*
G36*
X18051Y1935D02*
X17656D01*
Y1565D01*
X18051D01*
Y1935D01*
D02*
G37*
G36*
X16796D02*
X16401D01*
Y1565D01*
X16796D01*
Y1935D01*
D02*
G37*
G36*
X12087D02*
X11692D01*
Y1565D01*
X12087D01*
Y1935D01*
D02*
G37*
G36*
X10832D02*
X10437D01*
Y1565D01*
X10832D01*
Y1935D01*
D02*
G37*
G36*
X5991D02*
X5596D01*
Y1565D01*
X5991D01*
Y1935D01*
D02*
G37*
G36*
X38290Y1500D02*
X37500D01*
Y710D01*
X37644Y787D01*
X37957Y1043D01*
X38213Y1356D01*
X38290Y1500D01*
D02*
G37*
G36*
X35500D02*
X34710D01*
X34787Y1356D01*
X35043Y1043D01*
X35356Y787D01*
X35500Y710D01*
Y1500D01*
D02*
G37*
G36*
X3500Y4290D02*
Y2500D01*
Y710D01*
X3644Y787D01*
X3957Y1043D01*
X4213Y1356D01*
X4270Y1462D01*
X4341Y1565D01*
Y1565D01*
X4341Y1565D01*
X4736D01*
Y2365D01*
Y3165D01*
X4441D01*
X4403Y3288D01*
X4213Y3644D01*
X3957Y3957D01*
X3644Y4213D01*
X3500Y4290D01*
D02*
G37*
G36*
X1500Y1500D02*
X710D01*
X787Y1356D01*
X1043Y1043D01*
X1356Y787D01*
X1500Y710D01*
Y1500D01*
D02*
G37*
%LPD*%
G36*
X12116Y14859D02*
Y14834D01*
X17040D01*
X17090Y14768D01*
X18031D01*
Y14508D01*
X17149D01*
X17154Y14482D01*
X17243Y14349D01*
Y14276D01*
X17154Y14144D01*
X17149Y14118D01*
X18031D01*
Y13858D01*
X17149D01*
X17152Y13843D01*
X17148Y13811D01*
X17097Y13716D01*
X16611D01*
X16591Y13746D01*
X16426Y13857D01*
X16231Y13896D01*
X16036Y13857D01*
X15870Y13746D01*
X15850Y13716D01*
X15796D01*
X15766Y13591D01*
X15760Y13581D01*
X15748Y13523D01*
Y13523D01*
X15739Y13479D01*
X15607Y13346D01*
X15490Y13409D01*
X15504Y13479D01*
X14905D01*
Y13070D01*
X15055D01*
X15175Y13094D01*
X15237Y12977D01*
X15113Y12852D01*
X15062Y12903D01*
X12887D01*
X12874Y13030D01*
X12979Y13051D01*
X13111Y13139D01*
X13200Y13272D01*
X13218Y13363D01*
X11928D01*
X11946Y13272D01*
X12035Y13139D01*
X12167Y13051D01*
X12272Y13030D01*
X12259Y12903D01*
X9779D01*
X8788Y13894D01*
X8333D01*
X8323Y13904D01*
X8374Y14021D01*
X9175D01*
Y14721D01*
X7925D01*
X6675D01*
Y14021D01*
X7477D01*
X7527Y13904D01*
X7517Y13894D01*
X6627D01*
X6172Y13106D01*
X6125Y9547D01*
X8382Y7290D01*
X17780Y7290D01*
X18237Y6833D01*
X18390D01*
X18644Y6579D01*
Y4877D01*
X15887D01*
Y4915D01*
X14237D01*
Y4877D01*
X9791D01*
Y4915D01*
X8141D01*
Y4877D01*
X3785Y4877D01*
X3277Y5385D01*
Y14834D01*
Y16002D01*
X3988Y16713D01*
X6220D01*
X6245Y16573D01*
X6247Y16718D01*
X6299Y16739D01*
X10236D01*
X12116Y14859D01*
D02*
G37*
G36*
X16281Y22163D02*
X18181D01*
Y21163D01*
X19181D01*
Y19288D01*
X19202D01*
Y17958D01*
X18898D01*
X18872Y17932D01*
Y16988D01*
X17131D01*
Y16188D01*
X17131Y16188D01*
X17147Y16068D01*
X18031D01*
Y15808D01*
X17149D01*
X17154Y15782D01*
X17160Y15773D01*
X17092Y15646D01*
X16358D01*
Y16535D01*
X15971D01*
X15932Y16662D01*
X15982Y16695D01*
X16070Y16828D01*
X16088Y16919D01*
X15443D01*
Y17184D01*
X15178D01*
Y17804D01*
X15138Y17837D01*
Y22200D01*
X16281D01*
Y22163D01*
D02*
G37*
%LPC*%
G36*
X9175Y16521D02*
X8475D01*
Y15821D01*
X9175D01*
Y16521D01*
D02*
G37*
G36*
X7375D02*
X6675D01*
Y15821D01*
X7375D01*
Y16521D01*
D02*
G37*
G36*
X15055Y14487D02*
X14905D01*
Y14079D01*
X15504D01*
X15479Y14204D01*
X15379Y14353D01*
X15231Y14452D01*
X15055Y14487D01*
D02*
G37*
G36*
X14305D02*
X14155D01*
X13979Y14452D01*
X13831Y14353D01*
X13731Y14204D01*
X13706Y14079D01*
X14305D01*
Y14487D01*
D02*
G37*
G36*
X12838Y14233D02*
Y13893D01*
X13218D01*
X13200Y13984D01*
X13111Y14116D01*
X12979Y14205D01*
X12838Y14233D01*
D02*
G37*
G36*
X12308D02*
X12167Y14205D01*
X12035Y14116D01*
X11946Y13984D01*
X11928Y13893D01*
X12308D01*
Y14233D01*
D02*
G37*
G36*
X14305Y13479D02*
X13706D01*
X13731Y13353D01*
X13831Y13204D01*
X13979Y13105D01*
X14155Y13070D01*
X14305D01*
Y13479D01*
D02*
G37*
G36*
X18051Y6665D02*
X17656D01*
Y6295D01*
X18051D01*
Y6665D01*
D02*
G37*
G36*
X12087D02*
X11692D01*
Y6295D01*
X12087D01*
Y6665D01*
D02*
G37*
G36*
X5991D02*
X5596D01*
Y6295D01*
X5991D01*
Y6665D01*
D02*
G37*
G36*
X16796D02*
X16401D01*
Y6295D01*
X16796D01*
Y6665D01*
D02*
G37*
G36*
X10832D02*
X10437D01*
Y6295D01*
X10832D01*
Y6665D01*
D02*
G37*
G36*
X4736D02*
X4341D01*
Y6295D01*
X4736D01*
Y6665D01*
D02*
G37*
G36*
X18051Y5435D02*
X17656D01*
Y5065D01*
X18051D01*
Y5435D01*
D02*
G37*
G36*
X16796D02*
X16401D01*
Y5065D01*
X16796D01*
Y5435D01*
D02*
G37*
G36*
X12087D02*
X11692D01*
Y5065D01*
X12087D01*
Y5435D01*
D02*
G37*
G36*
X10832D02*
X10437D01*
Y5065D01*
X10832D01*
Y5435D01*
D02*
G37*
G36*
X5991D02*
X5596D01*
Y5065D01*
X5991D01*
Y5435D01*
D02*
G37*
G36*
X4736D02*
X4341D01*
Y5065D01*
X4736D01*
Y5435D01*
D02*
G37*
G36*
X17181Y20163D02*
X16281D01*
Y19288D01*
X17181D01*
Y20163D01*
D02*
G37*
G36*
X15708Y17789D02*
Y17449D01*
X16088D01*
X16070Y17540D01*
X15982Y17672D01*
X15849Y17761D01*
X15708Y17789D01*
D02*
G37*
%LPD*%
G36*
X27559Y15697D02*
X24893D01*
X24826Y15808D01*
X23931D01*
Y16068D01*
X24849D01*
X24909Y16154D01*
X25400D01*
X25603Y16358D01*
Y17653D01*
X25830D01*
X25832Y17651D01*
X27254D01*
X27256Y17653D01*
X27559D01*
Y15697D01*
D02*
G37*
G36*
X26187Y22174D02*
Y21648D01*
X26061Y21564D01*
X25951Y21398D01*
X25912Y21203D01*
X25951Y21008D01*
X26061Y20843D01*
X26187Y20759D01*
Y20041D01*
X27686Y20041D01*
Y19507D01*
X27686Y18009D01*
X25629D01*
X25222Y17602D01*
Y16358D01*
X24909D01*
X24862Y16392D01*
X24836Y16427D01*
X24821Y16458D01*
X23931D01*
Y16588D01*
X23801D01*
Y16996D01*
X23431D01*
X23275Y16965D01*
X23143Y16876D01*
X23054Y16744D01*
X23053Y16736D01*
X22918Y16709D01*
X22842Y16823D01*
X22758Y16879D01*
Y19288D01*
X22781D01*
Y21163D01*
X23781D01*
Y22163D01*
X25681D01*
Y22174D01*
X26187D01*
D02*
G37*
G36*
X36576Y10541D02*
X32512D01*
X29424Y13629D01*
X29522Y13774D01*
X29547Y13900D01*
X27349D01*
X27371Y13792D01*
X27337Y13705D01*
X27316Y13665D01*
X26941D01*
X26858Y13792D01*
X26864Y13822D01*
X26416D01*
X25968D01*
X25974Y13792D01*
X25891Y13665D01*
X25605D01*
X25589Y13689D01*
X25424Y13800D01*
X25229Y13838D01*
X25034Y13800D01*
X24951Y13744D01*
X24909Y13754D01*
X24808Y13832D01*
X24813Y13858D01*
X23931D01*
Y14118D01*
X24813D01*
X24808Y14144D01*
X24720Y14276D01*
Y14349D01*
X24808Y14482D01*
X24813Y14508D01*
X23931D01*
Y14768D01*
X24813D01*
X24808Y14794D01*
X24764Y14859D01*
X24832Y14986D01*
X27579D01*
X27587Y14965D01*
X27600Y14859D01*
X27474Y14774D01*
X27374Y14626D01*
X27349Y14500D01*
X29547D01*
X29522Y14626D01*
X29422Y14774D01*
X29296Y14859D01*
X29309Y14965D01*
X29317Y14986D01*
X34328Y14986D01*
X34536Y14900D01*
X34823Y14862D01*
X35111Y14900D01*
X35319Y14986D01*
X36576D01*
Y10541D01*
D02*
G37*
%LPC*%
G36*
X27188Y17121D02*
X26808D01*
Y16781D01*
X26949Y16809D01*
X27082Y16897D01*
X27170Y17030D01*
X27188Y17121D01*
D02*
G37*
G36*
X26278D02*
X25898D01*
X25916Y17030D01*
X26005Y16897D01*
X26137Y16809D01*
X26278Y16781D01*
Y17121D01*
D02*
G37*
G36*
X25681Y20163D02*
X24781D01*
Y19288D01*
X25681D01*
Y20163D01*
D02*
G37*
G36*
X26808Y19490D02*
Y19151D01*
X27188D01*
X27170Y19242D01*
X27081Y19374D01*
X26949Y19462D01*
X26808Y19490D01*
D02*
G37*
G36*
X26278D02*
X26137Y19462D01*
X26005Y19374D01*
X25916Y19242D01*
X25898Y19151D01*
X26278D01*
Y19490D01*
D02*
G37*
G36*
X27188Y18621D02*
X26808D01*
Y18281D01*
X26949Y18309D01*
X27081Y18397D01*
X27170Y18530D01*
X27188Y18621D01*
D02*
G37*
G36*
X26278D02*
X25898D01*
X25916Y18530D01*
X26005Y18397D01*
X26137Y18309D01*
X26278Y18281D01*
Y18621D01*
D02*
G37*
G36*
X24431Y16996D02*
X24061D01*
Y16718D01*
X24813D01*
X24808Y16744D01*
X24720Y16876D01*
X24587Y16965D01*
X24431Y16996D01*
D02*
G37*
G36*
X26581Y14436D02*
Y14152D01*
X26864D01*
X26847Y14239D01*
X26775Y14347D01*
X26668Y14419D01*
X26581Y14436D01*
D02*
G37*
G36*
X26251D02*
X26164Y14419D01*
X26057Y14347D01*
X25985Y14239D01*
X25968Y14152D01*
X26251D01*
Y14436D01*
D02*
G37*
G36*
X36023Y13671D02*
X35323D01*
Y12971D01*
X36023D01*
Y13671D01*
D02*
G37*
G36*
X34323D02*
X33623D01*
Y12971D01*
X34323D01*
Y13671D01*
D02*
G37*
G36*
X36023Y11971D02*
X35323D01*
Y11271D01*
X36023D01*
Y11971D01*
D02*
G37*
G36*
X34323D02*
X33623D01*
Y11271D01*
X34323D01*
Y11971D01*
D02*
G37*
%LPD*%
D10*
X24828Y11391D02*
X25298Y11862D01*
X23935Y11391D02*
X24828D01*
X25298Y11862D02*
Y12395D01*
X25009Y12684D02*
X25298Y12395D01*
X23935Y12684D02*
X25009D01*
X16530Y10420D02*
X21819Y5131D01*
X16530Y10420D02*
Y10735D01*
X21819Y5131D02*
X25136D01*
X16530Y10735D02*
X17179Y11384D01*
X17522D01*
X15926Y10719D02*
X17241Y12034D01*
X18028D01*
X15570Y10719D02*
X15926D01*
X13208Y8357D02*
X15570Y10719D01*
X16774Y12684D02*
X18028D01*
X16307Y13310D02*
X17907D01*
X23935Y13334D02*
X25223D01*
D11*
X15498Y15684D02*
X15894Y15288D01*
X18031D01*
D29*
X7925Y15271D02*
D03*
D30*
Y12771D02*
D03*
D31*
X28448Y11200D02*
D03*
Y14200D02*
D03*
D32*
X11262Y5865D02*
D03*
Y2365D02*
D03*
X15062Y4115D02*
D03*
X5166Y5865D02*
D03*
Y2365D02*
D03*
X8966Y4115D02*
D03*
X17226Y5865D02*
D03*
Y2365D02*
D03*
X21026Y4115D02*
D03*
D33*
X18031Y16588D02*
D03*
D34*
Y15938D02*
D03*
Y15288D02*
D03*
Y14638D02*
D03*
Y13988D02*
D03*
Y13338D02*
D03*
Y12688D02*
D03*
Y12038D02*
D03*
Y11388D02*
D03*
Y10738D02*
D03*
X23931Y16588D02*
D03*
Y15938D02*
D03*
Y15288D02*
D03*
Y14638D02*
D03*
Y13988D02*
D03*
Y13338D02*
D03*
Y12688D02*
D03*
Y12038D02*
D03*
Y11388D02*
D03*
Y10738D02*
D03*
D35*
X20981Y13663D02*
D03*
D36*
X31864Y21209D02*
D03*
X33414D02*
D03*
D37*
X27560D02*
D03*
X29210D02*
D03*
D38*
X22440Y9195D02*
D03*
X23940Y9195D02*
D03*
D39*
X18181Y21163D02*
D03*
X23781D02*
D03*
D40*
X14605Y12079D02*
D03*
Y13779D02*
D03*
D41*
X12573Y12128D02*
D03*
X12573Y13628D02*
D03*
X15443Y15684D02*
D03*
X15443Y17184D02*
D03*
X26543Y17386D02*
D03*
X26543Y18886D02*
D03*
D42*
X33386Y5131D02*
D03*
X25136D02*
D03*
D43*
X26416Y12987D02*
D03*
Y13987D02*
D03*
D44*
X23931Y11388D02*
X23935Y11391D01*
X23931Y12688D02*
X23935Y12684D01*
X17522Y11384D02*
X17526Y11388D01*
X18031D01*
X18028Y12034D02*
X18031Y12038D01*
X35159Y21031D02*
X36039Y20151D01*
Y15081D02*
Y20151D01*
X35533Y14575D02*
X36039Y15081D01*
X35533Y13181D02*
Y14575D01*
X34823Y12471D02*
X35533Y13181D01*
X33592Y21031D02*
X35159D01*
X33414Y21209D02*
X33592Y21031D01*
X26543Y17385D02*
X26543Y17386D01*
X16764Y12675D02*
X16774Y12684D01*
X13208Y8357D02*
X13267D01*
X17526Y12038D02*
X18031D01*
X23931Y10738D02*
Y11388D01*
X29210Y21209D02*
X31864D01*
X23931Y10738D02*
X23936Y10733D01*
Y9199D02*
Y10733D01*
Y9199D02*
X23940Y9195D01*
X16231Y13386D02*
X16307Y13310D01*
X18028Y12684D02*
X18031Y12688D01*
X26422Y21203D02*
X26424Y21206D01*
X27557D01*
X27560Y21209D01*
X25223Y13334D02*
X25229Y13329D01*
X23931Y13338D02*
X23935Y13334D01*
X21026Y4115D02*
X21077Y4064D01*
X22301D01*
X8966Y4115D02*
X10389D01*
X15062D02*
X15088Y4089D01*
X16383D01*
X18028Y13991D02*
X18031Y13988D01*
X18028Y14641D02*
X18031Y14638D01*
X26416Y18809D02*
Y18898D01*
X26428Y18886D02*
X26486D01*
Y18893D01*
X23781Y21163D02*
X23806D01*
X25191Y19778D01*
X26486Y18886D02*
X26543D01*
X26416Y18898D02*
X26428Y18886D01*
X23931Y15938D02*
X23935Y15941D01*
X15488Y17184D02*
X15493D01*
X18156Y21163D02*
X18181D01*
X16772Y19778D02*
X18156Y21163D01*
X15697Y17393D02*
Y17437D01*
X15488Y17184D02*
X15697Y17393D01*
X15443Y17184D02*
X15488D01*
X15443Y15684D02*
X15498D01*
D45*
X36500Y2500D02*
D03*
X2500D02*
D03*
X36500Y23500D02*
D03*
X2500D02*
D03*
D46*
X34823Y12471D02*
D03*
D47*
Y15971D02*
D03*
D48*
X35981Y8663D02*
D03*
Y6163D02*
D03*
X33481Y23663D02*
D03*
Y18663D02*
D03*
Y16163D02*
D03*
Y8663D02*
D03*
Y3663D02*
D03*
Y1163D02*
D03*
X30981Y23663D02*
D03*
Y18663D02*
D03*
Y16163D02*
D03*
Y11163D02*
D03*
Y8663D02*
D03*
Y6163D02*
D03*
Y3663D02*
D03*
Y1163D02*
D03*
X28481Y23663D02*
D03*
Y18663D02*
D03*
Y16163D02*
D03*
Y8663D02*
D03*
Y6163D02*
D03*
Y3663D02*
D03*
Y1163D02*
D03*
X25981Y23663D02*
D03*
Y11163D02*
D03*
Y8663D02*
D03*
Y3663D02*
D03*
Y1163D02*
D03*
X23481Y23663D02*
D03*
Y6163D02*
D03*
Y3663D02*
D03*
Y1163D02*
D03*
X20981Y23663D02*
D03*
Y21163D02*
D03*
Y18663D02*
D03*
Y8663D02*
D03*
Y1163D02*
D03*
X18481Y23663D02*
D03*
Y3663D02*
D03*
Y1163D02*
D03*
X15981Y23663D02*
D03*
Y1163D02*
D03*
X13481Y23663D02*
D03*
Y21163D02*
D03*
Y18663D02*
D03*
Y16163D02*
D03*
Y3663D02*
D03*
Y1163D02*
D03*
X10981Y23663D02*
D03*
Y21163D02*
D03*
Y18663D02*
D03*
Y8663D02*
D03*
Y1163D02*
D03*
X8481Y23663D02*
D03*
Y21163D02*
D03*
Y18663D02*
D03*
Y11163D02*
D03*
Y8663D02*
D03*
Y1163D02*
D03*
X5981Y23663D02*
D03*
Y21163D02*
D03*
Y18663D02*
D03*
Y3663D02*
D03*
Y1163D02*
D03*
X3481Y21163D02*
D03*
Y18663D02*
D03*
X981Y21163D02*
D03*
Y18663D02*
D03*
Y16163D02*
D03*
Y13663D02*
D03*
Y11163D02*
D03*
Y8663D02*
D03*
Y6163D02*
D03*
X30181Y11563D02*
D03*
Y10863D02*
D03*
Y10163D02*
D03*
X29481D02*
D03*
X28781D02*
D03*
X28081D02*
D03*
X27381D02*
D03*
X26681Y11563D02*
D03*
Y10863D02*
D03*
Y10163D02*
D03*
X14481Y10863D02*
D03*
X13681D02*
D03*
Y10063D02*
D03*
X12881Y10863D02*
D03*
Y10063D02*
D03*
X12081Y10863D02*
D03*
Y10063D02*
D03*
X11281Y11663D02*
D03*
Y10863D02*
D03*
Y10063D02*
D03*
X19281Y10863D02*
D03*
Y11663D02*
D03*
X16764Y12675D02*
D03*
X21856Y12764D02*
D03*
X20956D02*
D03*
X20056D02*
D03*
Y14564D02*
D03*
X21856D02*
D03*
X20956D02*
D03*
X20056Y13664D02*
D03*
X20956D02*
D03*
X21856D02*
D03*
X22481Y11663D02*
D03*
Y16463D02*
D03*
Y15663D02*
D03*
Y10863D02*
D03*
X21681Y16463D02*
D03*
Y15663D02*
D03*
Y11663D02*
D03*
Y10863D02*
D03*
X20881Y16463D02*
D03*
Y15663D02*
D03*
Y11663D02*
D03*
Y10863D02*
D03*
X20081Y16463D02*
D03*
Y15663D02*
D03*
Y11663D02*
D03*
Y10863D02*
D03*
X19281Y16463D02*
D03*
Y15663D02*
D03*
X16231Y13386D02*
D03*
X26422Y21203D02*
D03*
X25229Y13329D02*
D03*
X13208Y8357D02*
D03*
X10389Y4115D02*
D03*
X22301Y4064D02*
D03*
X16383Y4089D02*
D03*
M02*
