G04*
G04 #@! TF.GenerationSoftware,Altium Limited,Altium Designer,19.1.6 (110)*
G04*
G04 Layer_Physical_Order=2*
G04 Layer_Color=16711680*
%FSLAX43Y43*%
%MOMM*%
G71*
G01*
G75*
%ADD29R,1.900X1.900*%
%ADD30C,1.900*%
%ADD44C,0.381*%
%ADD45C,3.300*%
%ADD46R,1.800X1.800*%
%ADD47C,1.800*%
%ADD48C,0.600*%
G36*
X38745Y25729D02*
Y329D01*
X38655Y239D01*
X255Y255D01*
Y25655D01*
X345Y25745D01*
X38745Y25729D01*
D02*
G37*
%LPC*%
G36*
X37500Y25290D02*
Y24500D01*
X38290D01*
X38213Y24644D01*
X37957Y24957D01*
X37644Y25213D01*
X37500Y25290D01*
D02*
G37*
G36*
X35500D02*
X35356Y25213D01*
X35043Y24957D01*
X34787Y24644D01*
X34710Y24500D01*
X35500D01*
Y25290D01*
D02*
G37*
G36*
X3500D02*
Y24500D01*
X4290D01*
X4213Y24644D01*
X3957Y24957D01*
X3644Y25213D01*
X3500Y25290D01*
D02*
G37*
G36*
X1500D02*
X1356Y25213D01*
X1043Y24957D01*
X787Y24644D01*
X710Y24500D01*
X1500D01*
Y25290D01*
D02*
G37*
G36*
X4290Y22500D02*
X3500D01*
Y21710D01*
X3644Y21787D01*
X3957Y22043D01*
X4213Y22356D01*
X4290Y22500D01*
D02*
G37*
G36*
X1500D02*
X710D01*
X787Y22356D01*
X1043Y22043D01*
X1356Y21787D01*
X1500Y21710D01*
Y22500D01*
D02*
G37*
G36*
X38290D02*
X37500D01*
Y21710D01*
X37644Y21787D01*
X37957Y22043D01*
X38213Y22356D01*
X38290Y22500D01*
D02*
G37*
G36*
X35500D02*
X34710D01*
X34787Y22356D01*
X35043Y22043D01*
X35356Y21787D01*
X35500Y21710D01*
Y22500D01*
D02*
G37*
G36*
X35323Y17063D02*
Y16471D01*
X35915D01*
X35872Y16577D01*
X35679Y16827D01*
X35429Y17020D01*
X35323Y17063D01*
D02*
G37*
G36*
X34323D02*
X34218Y17020D01*
X33968Y16827D01*
X33775Y16577D01*
X33732Y16471D01*
X34323D01*
Y17063D01*
D02*
G37*
G36*
X35915Y15471D02*
X35323D01*
Y14880D01*
X35429Y14923D01*
X35679Y15116D01*
X35872Y15366D01*
X35915Y15471D01*
D02*
G37*
G36*
X34323D02*
X33732D01*
X33775Y15366D01*
X33968Y15116D01*
X34218Y14923D01*
X34323Y14880D01*
Y15471D01*
D02*
G37*
G36*
X9075Y16421D02*
X6775D01*
Y14121D01*
X7630D01*
X7638Y13994D01*
X7599Y13989D01*
X7295Y13863D01*
X7034Y13662D01*
X6833Y13401D01*
X6800Y13321D01*
X7925D01*
X9050D01*
X9017Y13401D01*
X8817Y13662D01*
X8556Y13863D01*
X8252Y13989D01*
X8212Y13994D01*
X8221Y14121D01*
X9075D01*
Y16421D01*
D02*
G37*
G36*
X26422Y21713D02*
X26227Y21674D01*
X26061Y21564D01*
X25951Y21398D01*
X25925Y21270D01*
X24947Y20292D01*
X24861Y20163D01*
X24830Y20010D01*
Y13633D01*
X24758Y13524D01*
X24719Y13329D01*
X24758Y13133D01*
X24868Y12968D01*
X25034Y12858D01*
X25229Y12819D01*
X25424Y12858D01*
X25589Y12968D01*
X25700Y13133D01*
X25738Y13329D01*
X25700Y13524D01*
X25627Y13633D01*
Y19846D01*
X26488Y20707D01*
X26617Y20732D01*
X26782Y20843D01*
X26893Y21008D01*
X26931Y21203D01*
X26893Y21398D01*
X26782Y21564D01*
X26617Y21674D01*
X26422Y21713D01*
D02*
G37*
G36*
X7375Y12221D02*
X6800D01*
X6833Y12140D01*
X7034Y11879D01*
X7295Y11679D01*
X7375Y11646D01*
Y12221D01*
D02*
G37*
G36*
X9050D02*
X8475D01*
Y11646D01*
X8556Y11679D01*
X8817Y11879D01*
X9017Y12140D01*
X9050Y12221D01*
D02*
G37*
G36*
X35923Y13571D02*
X33723D01*
Y11371D01*
X35923D01*
Y13571D01*
D02*
G37*
G36*
X13208Y8866D02*
X13013Y8828D01*
X12848Y8717D01*
X12737Y8552D01*
X12698Y8357D01*
X12737Y8162D01*
X12810Y8052D01*
Y7099D01*
X10322Y4611D01*
X10194Y4586D01*
X10028Y4475D01*
X9918Y4310D01*
X9879Y4115D01*
X9918Y3920D01*
X10028Y3754D01*
X10194Y3644D01*
X10389Y3605D01*
X10584Y3644D01*
X10749Y3754D01*
X10860Y3920D01*
X10885Y4048D01*
X13490Y6653D01*
X13576Y6782D01*
X13606Y6934D01*
Y8052D01*
X13679Y8162D01*
X13718Y8357D01*
X13679Y8552D01*
X13568Y8717D01*
X13403Y8828D01*
X13208Y8866D01*
D02*
G37*
G36*
X16231Y13896D02*
X16036Y13857D01*
X15870Y13746D01*
X15760Y13581D01*
X15721Y13386D01*
X15760Y13191D01*
X15791Y13144D01*
Y13097D01*
X15781Y13082D01*
X15750Y12930D01*
Y4383D01*
X15781Y4231D01*
X15867Y4102D01*
X15874Y4094D01*
X15873Y4089D01*
X15912Y3894D01*
X16023Y3729D01*
X16188Y3618D01*
X16383Y3580D01*
X16578Y3618D01*
X16743Y3729D01*
X16854Y3894D01*
X16893Y4089D01*
X16854Y4284D01*
X16743Y4450D01*
X16578Y4560D01*
X16547Y4567D01*
Y9090D01*
X16664Y9138D01*
X21805Y3997D01*
X21830Y3869D01*
X21941Y3704D01*
X22106Y3593D01*
X22301Y3554D01*
X22496Y3593D01*
X22662Y3704D01*
X22772Y3869D01*
X22811Y4064D01*
X22772Y4259D01*
X22662Y4424D01*
X22496Y4535D01*
X22368Y4561D01*
X17162Y9766D01*
Y12370D01*
X17235Y12480D01*
X17274Y12675D01*
X17235Y12870D01*
X17124Y13035D01*
X16959Y13146D01*
X16764Y13184D01*
X16725Y13306D01*
X16740Y13386D01*
X16702Y13581D01*
X16591Y13746D01*
X16426Y13857D01*
X16231Y13896D01*
D02*
G37*
G36*
X37500Y4290D02*
Y3500D01*
X38290D01*
X38213Y3644D01*
X37957Y3957D01*
X37644Y4213D01*
X37500Y4290D01*
D02*
G37*
G36*
X35500D02*
X35356Y4213D01*
X35043Y3957D01*
X34787Y3644D01*
X34710Y3500D01*
X35500D01*
Y4290D01*
D02*
G37*
G36*
X3500D02*
Y3500D01*
X4290D01*
X4213Y3644D01*
X3957Y3957D01*
X3644Y4213D01*
X3500Y4290D01*
D02*
G37*
G36*
X1500D02*
X1356Y4213D01*
X1043Y3957D01*
X787Y3644D01*
X710Y3500D01*
X1500D01*
Y4290D01*
D02*
G37*
G36*
X38290Y1500D02*
X37500D01*
Y710D01*
X37644Y787D01*
X37957Y1043D01*
X38213Y1356D01*
X38290Y1500D01*
D02*
G37*
G36*
X35500D02*
X34710D01*
X34787Y1356D01*
X35043Y1043D01*
X35356Y787D01*
X35500Y710D01*
Y1500D01*
D02*
G37*
G36*
X4290D02*
X3500D01*
Y710D01*
X3644Y787D01*
X3957Y1043D01*
X4213Y1356D01*
X4290Y1500D01*
D02*
G37*
G36*
X1500D02*
X710D01*
X787Y1356D01*
X1043Y1043D01*
X1356Y787D01*
X1500Y710D01*
Y1500D01*
D02*
G37*
%LPD*%
D29*
X7925Y15271D02*
D03*
D30*
Y12771D02*
D03*
D44*
X16764Y9601D02*
X22301Y4064D01*
X16764Y9601D02*
Y12675D01*
X16383Y4089D02*
Y4149D01*
X16149Y4383D02*
X16383Y4149D01*
X16149Y4383D02*
Y12930D01*
X16189Y12970D01*
Y13344D01*
X16231Y13386D01*
X25229Y13329D02*
Y20010D01*
X26422Y21203D01*
X16148Y13386D02*
X16231D01*
X13208Y6934D02*
Y8357D01*
X10389Y4115D02*
X13208Y6934D01*
D45*
X36500Y2500D02*
D03*
X2500D02*
D03*
X36500Y23500D02*
D03*
X2500D02*
D03*
D46*
X34823Y12471D02*
D03*
D47*
Y15971D02*
D03*
D48*
X35981Y8663D02*
D03*
Y6163D02*
D03*
X33481Y23663D02*
D03*
Y18663D02*
D03*
Y16163D02*
D03*
Y8663D02*
D03*
Y3663D02*
D03*
Y1163D02*
D03*
X30981Y23663D02*
D03*
Y18663D02*
D03*
Y16163D02*
D03*
Y11163D02*
D03*
Y8663D02*
D03*
Y6163D02*
D03*
Y3663D02*
D03*
Y1163D02*
D03*
X28481Y23663D02*
D03*
Y18663D02*
D03*
Y16163D02*
D03*
Y8663D02*
D03*
Y6163D02*
D03*
Y3663D02*
D03*
Y1163D02*
D03*
X25981Y23663D02*
D03*
Y11163D02*
D03*
Y8663D02*
D03*
Y3663D02*
D03*
Y1163D02*
D03*
X23481Y23663D02*
D03*
Y6163D02*
D03*
Y3663D02*
D03*
Y1163D02*
D03*
X20981Y23663D02*
D03*
Y21163D02*
D03*
Y18663D02*
D03*
Y8663D02*
D03*
Y1163D02*
D03*
X18481Y23663D02*
D03*
Y3663D02*
D03*
Y1163D02*
D03*
X15981Y23663D02*
D03*
Y1163D02*
D03*
X13481Y23663D02*
D03*
Y21163D02*
D03*
Y18663D02*
D03*
Y16163D02*
D03*
Y3663D02*
D03*
Y1163D02*
D03*
X10981Y23663D02*
D03*
Y21163D02*
D03*
Y18663D02*
D03*
Y8663D02*
D03*
Y1163D02*
D03*
X8481Y23663D02*
D03*
Y21163D02*
D03*
Y18663D02*
D03*
Y11163D02*
D03*
Y8663D02*
D03*
Y1163D02*
D03*
X5981Y23663D02*
D03*
Y21163D02*
D03*
Y18663D02*
D03*
Y3663D02*
D03*
Y1163D02*
D03*
X3481Y21163D02*
D03*
Y18663D02*
D03*
X981Y21163D02*
D03*
Y18663D02*
D03*
Y16163D02*
D03*
Y13663D02*
D03*
Y11163D02*
D03*
Y8663D02*
D03*
Y6163D02*
D03*
X30181Y11563D02*
D03*
Y10863D02*
D03*
Y10163D02*
D03*
X29481D02*
D03*
X28781D02*
D03*
X28081D02*
D03*
X27381D02*
D03*
X26681Y11563D02*
D03*
Y10863D02*
D03*
Y10163D02*
D03*
X14481Y10863D02*
D03*
X13681D02*
D03*
Y10063D02*
D03*
X12881Y10863D02*
D03*
Y10063D02*
D03*
X12081Y10863D02*
D03*
Y10063D02*
D03*
X11281Y11663D02*
D03*
Y10863D02*
D03*
Y10063D02*
D03*
X19281Y10863D02*
D03*
Y11663D02*
D03*
X16764Y12675D02*
D03*
X21856Y12764D02*
D03*
X20956D02*
D03*
X20056D02*
D03*
Y14564D02*
D03*
X21856D02*
D03*
X20956D02*
D03*
X20056Y13664D02*
D03*
X20956D02*
D03*
X21856D02*
D03*
X22481Y11663D02*
D03*
Y16463D02*
D03*
Y15663D02*
D03*
Y10863D02*
D03*
X21681Y16463D02*
D03*
Y15663D02*
D03*
Y11663D02*
D03*
Y10863D02*
D03*
X20881Y16463D02*
D03*
Y15663D02*
D03*
Y11663D02*
D03*
Y10863D02*
D03*
X20081Y16463D02*
D03*
Y15663D02*
D03*
Y11663D02*
D03*
Y10863D02*
D03*
X19281Y16463D02*
D03*
Y15663D02*
D03*
X16231Y13386D02*
D03*
X26422Y21203D02*
D03*
X25229Y13329D02*
D03*
X13208Y8357D02*
D03*
X10389Y4115D02*
D03*
X22301Y4064D02*
D03*
X16383Y4089D02*
D03*
M02*
