G04*
G04 #@! TF.GenerationSoftware,Altium Limited,Altium Designer,19.1.6 (110)*
G04*
G04 Layer_Color=8388736*
%FSLAX43Y43*%
%MOMM*%
G71*
G01*
G75*
G04:AMPARAMS|DCode=13|XSize=1.9mm|YSize=1.1mm|CornerRadius=0.3mm|HoleSize=0mm|Usage=FLASHONLY|Rotation=0.000|XOffset=0mm|YOffset=0mm|HoleType=Round|Shape=RoundedRectangle|*
%AMROUNDEDRECTD13*
21,1,1.900,0.500,0,0,0.0*
21,1,1.300,1.100,0,0,0.0*
1,1,0.600,0.650,-0.250*
1,1,0.600,-0.650,-0.250*
1,1,0.600,-0.650,0.250*
1,1,0.600,0.650,0.250*
%
%ADD13ROUNDEDRECTD13*%
%ADD14R,1.350X1.300*%
%ADD15R,1.500X0.500*%
%ADD16O,1.500X0.500*%
%ADD17R,3.060X3.060*%
%ADD18R,0.950X1.000*%
%ADD19R,0.900X1.050*%
G04:AMPARAMS|DCode=20|XSize=1mm|YSize=0.9mm|CornerRadius=0.25mm|HoleSize=0mm|Usage=FLASHONLY|Rotation=270.000|XOffset=0mm|YOffset=0mm|HoleType=Round|Shape=RoundedRectangle|*
%AMROUNDEDRECTD20*
21,1,1.000,0.400,0,0,270.0*
21,1,0.500,0.900,0,0,270.0*
1,1,0.500,-0.200,-0.250*
1,1,0.500,-0.200,0.250*
1,1,0.500,0.200,0.250*
1,1,0.500,0.200,-0.250*
%
%ADD20ROUNDEDRECTD20*%
%ADD21R,3.300X3.250*%
G04:AMPARAMS|DCode=22|XSize=1.5mm|YSize=1.1mm|CornerRadius=0.3mm|HoleSize=0mm|Usage=FLASHONLY|Rotation=0.000|XOffset=0mm|YOffset=0mm|HoleType=Round|Shape=RoundedRectangle|*
%AMROUNDEDRECTD22*
21,1,1.500,0.500,0,0,0.0*
21,1,0.900,1.100,0,0,0.0*
1,1,0.600,0.450,-0.250*
1,1,0.600,-0.450,-0.250*
1,1,0.600,-0.450,0.250*
1,1,0.600,0.450,0.250*
%
%ADD22ROUNDEDRECTD22*%
G04:AMPARAMS|DCode=23|XSize=1mm|YSize=0.9mm|CornerRadius=0.25mm|HoleSize=0mm|Usage=FLASHONLY|Rotation=0.000|XOffset=0mm|YOffset=0mm|HoleType=Round|Shape=RoundedRectangle|*
%AMROUNDEDRECTD23*
21,1,1.000,0.400,0,0,0.0*
21,1,0.500,0.900,0,0,0.0*
1,1,0.500,0.250,-0.200*
1,1,0.500,-0.250,-0.200*
1,1,0.500,-0.250,0.200*
1,1,0.500,0.250,0.200*
%
%ADD23ROUNDEDRECTD23*%
%ADD24R,2.250X1.600*%
G04:AMPARAMS|DCode=25|XSize=0.6mm|YSize=0.6mm|CornerRadius=0.175mm|HoleSize=0mm|Usage=FLASHONLY|Rotation=180.000|XOffset=0mm|YOffset=0mm|HoleType=Round|Shape=RoundedRectangle|*
%AMROUNDEDRECTD25*
21,1,0.600,0.250,0,0,180.0*
21,1,0.250,0.600,0,0,180.0*
1,1,0.350,-0.125,0.125*
1,1,0.350,0.125,0.125*
1,1,0.350,0.125,-0.125*
1,1,0.350,-0.125,-0.125*
%
%ADD25ROUNDEDRECTD25*%
%ADD26C,3.400*%
%ADD27R,2.000X2.000*%
%ADD28C,2.000*%
%ADD29R,1.900X1.900*%
%ADD30C,1.900*%
D13*
X28448Y11200D02*
D03*
Y14200D02*
D03*
D14*
X11262Y5865D02*
D03*
Y2365D02*
D03*
X15062Y4115D02*
D03*
X5166Y5865D02*
D03*
Y2365D02*
D03*
X8966Y4115D02*
D03*
X17226Y5865D02*
D03*
Y2365D02*
D03*
X21026Y4115D02*
D03*
D15*
X18031Y16588D02*
D03*
D16*
Y15938D02*
D03*
Y15288D02*
D03*
Y14638D02*
D03*
Y13988D02*
D03*
Y13338D02*
D03*
Y12688D02*
D03*
Y12038D02*
D03*
Y11388D02*
D03*
Y10738D02*
D03*
X23931Y16588D02*
D03*
Y15938D02*
D03*
Y15288D02*
D03*
Y14638D02*
D03*
Y13988D02*
D03*
Y13338D02*
D03*
Y12688D02*
D03*
Y12038D02*
D03*
Y11388D02*
D03*
Y10738D02*
D03*
D17*
X20981Y13663D02*
D03*
D18*
X31864Y21209D02*
D03*
X33414D02*
D03*
D19*
X27560D02*
D03*
X29210D02*
D03*
D20*
X22440Y9195D02*
D03*
X23940Y9195D02*
D03*
D21*
X18181Y21163D02*
D03*
X23781D02*
D03*
D22*
X14605Y12079D02*
D03*
Y13779D02*
D03*
D23*
X12573Y12128D02*
D03*
X12573Y13628D02*
D03*
X15443Y15684D02*
D03*
X15443Y17184D02*
D03*
X26543Y17386D02*
D03*
X26543Y18886D02*
D03*
D24*
X33386Y5131D02*
D03*
X25136D02*
D03*
D25*
X26416Y12987D02*
D03*
Y13987D02*
D03*
D26*
X36500Y2500D02*
D03*
X2500D02*
D03*
X36500Y23500D02*
D03*
X2500D02*
D03*
D27*
X7925Y15271D02*
D03*
D28*
Y12771D02*
D03*
D29*
X34823Y12471D02*
D03*
D30*
Y15971D02*
D03*
M02*
