M48
;Layer_Color=9474304
;FILE_FORMAT=4:3
METRIC,LZ
;TYPE=PLATED
T1F00S00C0.300
T2F00S00C1.000
T3F00S00C1.200
T4F00S00C1.600
%
T01
X0018481Y0001163
X0020981
X0023481
X0025981
X0028481
X0030981
X0033481
Y0003663
X0030981
Y0006163
Y0008663
X0030181Y0010163
Y0010863
Y0011563
X0030981Y0011163
X0029481Y0010163
X0028781
X0028081
X0027381
X0026681
Y0010863
Y0011563
X0025981Y0011163
Y0008663
X0028481
Y0006163
Y0003663
X0025981
X0023481
X0022301Y0004064
X0023481Y0006163
X0020981Y0008663
X0020881Y0010863
X0021681
X0022481
Y0011663
X0021681
X0020881
X0020081
X0019281
Y0010863
X0020081
X0020056Y0012764
X0020956
X0021856
Y0013664
X0020956
Y0014564
X0021856
X0021681Y0015663
X0022481
Y0016463
X0021681
X0020881
Y0015663
X0020081
Y0016463
X0019281
Y0015663
X0020056Y0014564
Y0013664
X0025229Y0013329
X0028481Y0016163
X0030981
X0033481
Y0018663
X0030981
X0028481
X0026422Y0021203
X0020981Y0021163
Y0018663
X0018481Y0003663
X0035981Y0006163
Y0008663
X0033481
X0013208Y0008357
X0012881Y0010063
X0013681
Y0010863
X0014481
X0012881
X0012081
Y0010063
X0011281
Y0010863
Y0011663
X0010981Y0008663
X0008481
Y0011163
Y0018663
X0010981
X0013481
Y0021163
X0010981
X0008481
X0005981
Y0018663
X0003481
Y0021163
X0000981
Y0018663
Y0016163
Y0013663
Y0011163
Y0008663
Y0006163
X0005981Y0003663
Y0001163
X0008481
X0010981
X0013481
X0015981
X0016383Y0004089
X0013481Y0003663
X0010389Y0004115
X0016764Y0012675
X0016231Y0013386
X0013481Y0016163
Y0023663
X0015981
X0010981
X0008481
X0005981
X0018481
X0020981
X0023481
X0025981
X0028481
X0030981
X0033481
T02
X0007925Y0012771
Y0015271
T03
X0034823Y0012471
Y0015971
T04
X00365Y00025
X00025
Y00235
X00365
M30
