G04*
G04 #@! TF.GenerationSoftware,Altium Limited,Altium Designer,19.1.6 (110)*
G04*
G04 Layer_Color=32896*
%FSLAX43Y43*%
%MOMM*%
G71*
G01*
G75*
G36*
X12078Y2439D02*
X12119Y2429D01*
X12156Y2417D01*
X12186Y2404D01*
X12210Y2389D01*
X12228Y2376D01*
X12240Y2367D01*
X12241Y2365D01*
X12243Y2363D01*
X12258Y2348D01*
X12271Y2329D01*
X12295Y2291D01*
X12314Y2250D01*
X12328Y2209D01*
X12340Y2172D01*
X12343Y2157D01*
X12347Y2142D01*
X12349Y2131D01*
X12351Y2122D01*
X12353Y2117D01*
Y2115D01*
X12171Y2078D01*
X12167Y2107D01*
X12162Y2131D01*
X12154Y2154D01*
X12147Y2170D01*
X12140Y2183D01*
X12134Y2194D01*
X12130Y2200D01*
X12128Y2202D01*
X12114Y2217D01*
X12099Y2226D01*
X12084Y2233D01*
X12071Y2239D01*
X12060Y2242D01*
X12049Y2244D01*
X12041D01*
X12023Y2242D01*
X12006Y2239D01*
X11991Y2233D01*
X11980Y2226D01*
X11971Y2218D01*
X11964Y2213D01*
X11960Y2209D01*
X11958Y2207D01*
X11947Y2192D01*
X11940Y2176D01*
X11932Y2159D01*
X11929Y2144D01*
X11927Y2130D01*
X11925Y2118D01*
Y2111D01*
Y2107D01*
X11927Y2080D01*
X11932Y2055D01*
X11940Y2035D01*
X11947Y2018D01*
X11954Y2005D01*
X11962Y1994D01*
X11967Y1989D01*
X11969Y1987D01*
X11988Y1974D01*
X12006Y1963D01*
X12027Y1957D01*
X12047Y1952D01*
X12064Y1950D01*
X12078Y1948D01*
X12091D01*
X12112Y1752D01*
X12093Y1757D01*
X12077Y1763D01*
X12060Y1767D01*
X12047Y1768D01*
X12038Y1770D01*
X12023D01*
X12003Y1768D01*
X11984Y1763D01*
X11967Y1754D01*
X11953Y1744D01*
X11941Y1733D01*
X11932Y1726D01*
X11927Y1718D01*
X11925Y1717D01*
X11912Y1696D01*
X11901Y1672D01*
X11893Y1648D01*
X11890Y1626D01*
X11886Y1605D01*
X11884Y1589D01*
Y1578D01*
Y1576D01*
Y1574D01*
X11886Y1539D01*
X11891Y1509D01*
X11897Y1481D01*
X11904Y1461D01*
X11914Y1443D01*
X11919Y1431D01*
X11925Y1422D01*
X11927Y1420D01*
X11943Y1402D01*
X11960Y1389D01*
X11979Y1380D01*
X11995Y1374D01*
X12008Y1370D01*
X12019Y1367D01*
X12030D01*
X12051Y1368D01*
X12069Y1374D01*
X12086Y1381D01*
X12099Y1391D01*
X12110Y1398D01*
X12119Y1406D01*
X12125Y1411D01*
X12127Y1413D01*
X12140Y1431D01*
X12151Y1454D01*
X12160Y1476D01*
X12166Y1498D01*
X12171Y1518D01*
X12173Y1533D01*
X12175Y1544D01*
Y1546D01*
Y1548D01*
X12366Y1520D01*
X12356Y1461D01*
X12343Y1411D01*
X12334Y1387D01*
X12325Y1367D01*
X12316Y1346D01*
X12306Y1330D01*
X12297Y1313D01*
X12288Y1300D01*
X12280Y1289D01*
X12273Y1278D01*
X12267Y1270D01*
X12262Y1265D01*
X12260Y1263D01*
X12258Y1261D01*
X12240Y1244D01*
X12221Y1230D01*
X12203Y1217D01*
X12182Y1207D01*
X12143Y1189D01*
X12108Y1178D01*
X12077Y1172D01*
X12062Y1170D01*
X12051Y1168D01*
X12041Y1167D01*
X12028D01*
X12003Y1168D01*
X11979Y1172D01*
X11954Y1178D01*
X11930Y1183D01*
X11890Y1202D01*
X11854Y1222D01*
X11825Y1243D01*
X11814Y1252D01*
X11804Y1261D01*
X11797Y1267D01*
X11790Y1272D01*
X11788Y1276D01*
X11786Y1278D01*
X11767Y1300D01*
X11751Y1322D01*
X11738Y1346D01*
X11727Y1370D01*
X11708Y1417D01*
X11695Y1461D01*
X11691Y1483D01*
X11688Y1502D01*
X11686Y1518D01*
X11684Y1533D01*
X11682Y1544D01*
Y1554D01*
Y1559D01*
Y1561D01*
X11684Y1604D01*
X11691Y1643D01*
X11699Y1676D01*
X11710Y1704D01*
X11719Y1726D01*
X11729Y1743D01*
X11736Y1754D01*
X11738Y1757D01*
X11760Y1785D01*
X11782Y1807D01*
X11804Y1824D01*
X11827Y1839D01*
X11847Y1848D01*
X11862Y1854D01*
X11873Y1857D01*
X11875Y1859D01*
X11877D01*
X11851Y1878D01*
X11829Y1898D01*
X11808Y1918D01*
X11793Y1935D01*
X11780Y1952D01*
X11773Y1963D01*
X11767Y1970D01*
X11766Y1974D01*
X11753Y2000D01*
X11743Y2026D01*
X11736Y2050D01*
X11732Y2074D01*
X11729Y2092D01*
X11727Y2109D01*
Y2118D01*
Y2122D01*
Y2144D01*
X11730Y2167D01*
X11740Y2207D01*
X11753Y2244D01*
X11767Y2278D01*
X11784Y2305D01*
X11791Y2317D01*
X11797Y2326D01*
X11803Y2333D01*
X11806Y2339D01*
X11808Y2341D01*
X11810Y2342D01*
X11827Y2361D01*
X11843Y2376D01*
X11862Y2389D01*
X11880Y2400D01*
X11917Y2418D01*
X11953Y2429D01*
X11986Y2437D01*
X11999Y2439D01*
X12010Y2441D01*
X12021Y2442D01*
X12056D01*
X12078Y2439D01*
D02*
G37*
G36*
X11280D02*
X11321Y2429D01*
X11358Y2417D01*
X11388Y2404D01*
X11412Y2389D01*
X11430Y2376D01*
X11442Y2367D01*
X11443Y2365D01*
X11445Y2363D01*
X11460Y2348D01*
X11473Y2329D01*
X11497Y2291D01*
X11516Y2250D01*
X11530Y2209D01*
X11542Y2172D01*
X11545Y2157D01*
X11549Y2142D01*
X11551Y2131D01*
X11553Y2122D01*
X11554Y2117D01*
Y2115D01*
X11373Y2078D01*
X11369Y2107D01*
X11364Y2131D01*
X11356Y2154D01*
X11349Y2170D01*
X11342Y2183D01*
X11336Y2194D01*
X11332Y2200D01*
X11330Y2202D01*
X11316Y2217D01*
X11301Y2226D01*
X11286Y2233D01*
X11273Y2239D01*
X11262Y2242D01*
X11251Y2244D01*
X11243D01*
X11225Y2242D01*
X11208Y2239D01*
X11193Y2233D01*
X11182Y2226D01*
X11173Y2218D01*
X11166Y2213D01*
X11162Y2209D01*
X11160Y2207D01*
X11149Y2192D01*
X11142Y2176D01*
X11134Y2159D01*
X11130Y2144D01*
X11129Y2130D01*
X11127Y2118D01*
Y2111D01*
Y2107D01*
X11129Y2080D01*
X11134Y2055D01*
X11142Y2035D01*
X11149Y2018D01*
X11156Y2005D01*
X11164Y1994D01*
X11169Y1989D01*
X11171Y1987D01*
X11190Y1974D01*
X11208Y1963D01*
X11229Y1957D01*
X11249Y1952D01*
X11266Y1950D01*
X11280Y1948D01*
X11293D01*
X11314Y1752D01*
X11295Y1757D01*
X11279Y1763D01*
X11262Y1767D01*
X11249Y1768D01*
X11240Y1770D01*
X11225D01*
X11205Y1768D01*
X11186Y1763D01*
X11169Y1754D01*
X11155Y1744D01*
X11143Y1733D01*
X11134Y1726D01*
X11129Y1718D01*
X11127Y1717D01*
X11114Y1696D01*
X11103Y1672D01*
X11095Y1648D01*
X11092Y1626D01*
X11088Y1605D01*
X11086Y1589D01*
Y1578D01*
Y1576D01*
Y1574D01*
X11088Y1539D01*
X11093Y1509D01*
X11099Y1481D01*
X11106Y1461D01*
X11116Y1443D01*
X11121Y1431D01*
X11127Y1422D01*
X11129Y1420D01*
X11145Y1402D01*
X11162Y1389D01*
X11180Y1380D01*
X11197Y1374D01*
X11210Y1370D01*
X11221Y1367D01*
X11232D01*
X11253Y1368D01*
X11271Y1374D01*
X11288Y1381D01*
X11301Y1391D01*
X11312Y1398D01*
X11321Y1406D01*
X11327Y1411D01*
X11329Y1413D01*
X11342Y1431D01*
X11353Y1454D01*
X11362Y1476D01*
X11367Y1498D01*
X11373Y1518D01*
X11375Y1533D01*
X11377Y1544D01*
Y1546D01*
Y1548D01*
X11567Y1520D01*
X11558Y1461D01*
X11545Y1411D01*
X11536Y1387D01*
X11527Y1367D01*
X11517Y1346D01*
X11508Y1330D01*
X11499Y1313D01*
X11490Y1300D01*
X11482Y1289D01*
X11475Y1278D01*
X11469Y1270D01*
X11464Y1265D01*
X11462Y1263D01*
X11460Y1261D01*
X11442Y1244D01*
X11423Y1230D01*
X11404Y1217D01*
X11384Y1207D01*
X11345Y1189D01*
X11310Y1178D01*
X11279Y1172D01*
X11264Y1170D01*
X11253Y1168D01*
X11243Y1167D01*
X11230D01*
X11205Y1168D01*
X11180Y1172D01*
X11156Y1178D01*
X11132Y1183D01*
X11092Y1202D01*
X11056Y1222D01*
X11027Y1243D01*
X11016Y1252D01*
X11006Y1261D01*
X10999Y1267D01*
X10992Y1272D01*
X10990Y1276D01*
X10988Y1278D01*
X10969Y1300D01*
X10953Y1322D01*
X10940Y1346D01*
X10929Y1370D01*
X10910Y1417D01*
X10897Y1461D01*
X10893Y1483D01*
X10890Y1502D01*
X10888Y1518D01*
X10886Y1533D01*
X10884Y1544D01*
Y1554D01*
Y1559D01*
Y1561D01*
X10886Y1604D01*
X10893Y1643D01*
X10901Y1676D01*
X10912Y1704D01*
X10921Y1726D01*
X10930Y1743D01*
X10938Y1754D01*
X10940Y1757D01*
X10962Y1785D01*
X10984Y1807D01*
X11006Y1824D01*
X11029Y1839D01*
X11049Y1848D01*
X11064Y1854D01*
X11075Y1857D01*
X11077Y1859D01*
X11079D01*
X11053Y1878D01*
X11030Y1898D01*
X11010Y1918D01*
X10995Y1935D01*
X10982Y1952D01*
X10975Y1963D01*
X10969Y1970D01*
X10967Y1974D01*
X10955Y2000D01*
X10945Y2026D01*
X10938Y2050D01*
X10934Y2074D01*
X10930Y2092D01*
X10929Y2109D01*
Y2118D01*
Y2122D01*
Y2144D01*
X10932Y2167D01*
X10942Y2207D01*
X10955Y2244D01*
X10969Y2278D01*
X10986Y2305D01*
X10993Y2317D01*
X10999Y2326D01*
X11005Y2333D01*
X11008Y2339D01*
X11010Y2341D01*
X11012Y2342D01*
X11029Y2361D01*
X11045Y2376D01*
X11064Y2389D01*
X11082Y2400D01*
X11119Y2418D01*
X11155Y2429D01*
X11188Y2437D01*
X11201Y2439D01*
X11212Y2441D01*
X11223Y2442D01*
X11258D01*
X11280Y2439D01*
D02*
G37*
G36*
X10482Y2439D02*
X10523Y2429D01*
X10560Y2417D01*
X10590Y2404D01*
X10614Y2389D01*
X10632Y2376D01*
X10643Y2367D01*
X10645Y2365D01*
X10647Y2363D01*
X10662Y2348D01*
X10675Y2329D01*
X10699Y2291D01*
X10718Y2250D01*
X10732Y2209D01*
X10743Y2172D01*
X10747Y2157D01*
X10751Y2142D01*
X10753Y2131D01*
X10755Y2122D01*
X10756Y2117D01*
Y2115D01*
X10575Y2078D01*
X10571Y2107D01*
X10566Y2131D01*
X10558Y2154D01*
X10551Y2170D01*
X10543Y2183D01*
X10538Y2194D01*
X10534Y2200D01*
X10532Y2202D01*
X10518Y2217D01*
X10503Y2226D01*
X10488Y2233D01*
X10475Y2239D01*
X10464Y2242D01*
X10453Y2244D01*
X10445D01*
X10427Y2242D01*
X10410Y2239D01*
X10395Y2233D01*
X10384Y2226D01*
X10375Y2218D01*
X10368Y2213D01*
X10364Y2209D01*
X10362Y2207D01*
X10351Y2192D01*
X10343Y2176D01*
X10336Y2159D01*
X10332Y2144D01*
X10331Y2130D01*
X10329Y2118D01*
Y2111D01*
Y2107D01*
X10331Y2080D01*
X10336Y2055D01*
X10343Y2035D01*
X10351Y2018D01*
X10358Y2005D01*
X10366Y1994D01*
X10371Y1989D01*
X10373Y1987D01*
X10392Y1974D01*
X10410Y1963D01*
X10431Y1957D01*
X10451Y1952D01*
X10468Y1950D01*
X10482Y1948D01*
X10495D01*
X10516Y1752D01*
X10497Y1757D01*
X10481Y1763D01*
X10464Y1767D01*
X10451Y1768D01*
X10442Y1770D01*
X10427D01*
X10406Y1768D01*
X10388Y1763D01*
X10371Y1754D01*
X10356Y1744D01*
X10345Y1733D01*
X10336Y1726D01*
X10331Y1718D01*
X10329Y1717D01*
X10316Y1696D01*
X10305Y1672D01*
X10297Y1648D01*
X10293Y1626D01*
X10290Y1605D01*
X10288Y1589D01*
Y1578D01*
Y1576D01*
Y1574D01*
X10290Y1539D01*
X10295Y1509D01*
X10301Y1481D01*
X10308Y1461D01*
X10318Y1443D01*
X10323Y1431D01*
X10329Y1422D01*
X10331Y1420D01*
X10347Y1402D01*
X10364Y1389D01*
X10382Y1380D01*
X10399Y1374D01*
X10412Y1370D01*
X10423Y1367D01*
X10434D01*
X10455Y1368D01*
X10473Y1374D01*
X10490Y1381D01*
X10503Y1391D01*
X10514Y1398D01*
X10523Y1406D01*
X10529Y1411D01*
X10531Y1413D01*
X10543Y1431D01*
X10555Y1454D01*
X10564Y1476D01*
X10569Y1498D01*
X10575Y1518D01*
X10577Y1533D01*
X10579Y1544D01*
Y1546D01*
Y1548D01*
X10769Y1520D01*
X10760Y1461D01*
X10747Y1411D01*
X10738Y1387D01*
X10729Y1367D01*
X10719Y1346D01*
X10710Y1330D01*
X10701Y1313D01*
X10692Y1300D01*
X10684Y1289D01*
X10677Y1278D01*
X10671Y1270D01*
X10666Y1265D01*
X10664Y1263D01*
X10662Y1261D01*
X10643Y1244D01*
X10625Y1230D01*
X10606Y1217D01*
X10586Y1207D01*
X10547Y1189D01*
X10512Y1178D01*
X10481Y1172D01*
X10466Y1170D01*
X10455Y1168D01*
X10445Y1167D01*
X10432D01*
X10406Y1168D01*
X10382Y1172D01*
X10358Y1178D01*
X10334Y1183D01*
X10293Y1202D01*
X10258Y1222D01*
X10229Y1243D01*
X10218Y1252D01*
X10208Y1261D01*
X10201Y1267D01*
X10194Y1272D01*
X10192Y1276D01*
X10190Y1278D01*
X10171Y1300D01*
X10155Y1322D01*
X10142Y1346D01*
X10131Y1370D01*
X10112Y1417D01*
X10099Y1461D01*
X10095Y1483D01*
X10092Y1502D01*
X10090Y1518D01*
X10088Y1533D01*
X10086Y1544D01*
Y1554D01*
Y1559D01*
Y1561D01*
X10088Y1604D01*
X10095Y1643D01*
X10103Y1676D01*
X10114Y1704D01*
X10123Y1726D01*
X10132Y1743D01*
X10140Y1754D01*
X10142Y1757D01*
X10164Y1785D01*
X10186Y1807D01*
X10208Y1824D01*
X10231Y1839D01*
X10251Y1848D01*
X10266Y1854D01*
X10277Y1857D01*
X10279Y1859D01*
X10281D01*
X10255Y1878D01*
X10232Y1898D01*
X10212Y1918D01*
X10197Y1935D01*
X10184Y1952D01*
X10177Y1963D01*
X10171Y1970D01*
X10169Y1974D01*
X10156Y2000D01*
X10147Y2026D01*
X10140Y2050D01*
X10136Y2074D01*
X10132Y2092D01*
X10131Y2109D01*
Y2118D01*
Y2122D01*
Y2144D01*
X10134Y2167D01*
X10144Y2207D01*
X10156Y2244D01*
X10171Y2278D01*
X10188Y2305D01*
X10195Y2317D01*
X10201Y2326D01*
X10206Y2333D01*
X10210Y2339D01*
X10212Y2341D01*
X10214Y2342D01*
X10231Y2361D01*
X10247Y2376D01*
X10266Y2389D01*
X10284Y2400D01*
X10321Y2418D01*
X10356Y2429D01*
X10390Y2437D01*
X10403Y2439D01*
X10414Y2441D01*
X10425Y2442D01*
X10460D01*
X10482Y2439D01*
D02*
G37*
G36*
X9140Y1770D02*
X8981Y1743D01*
X8968Y1759D01*
X8955Y1772D01*
X8942Y1785D01*
X8929Y1794D01*
X8903Y1811D01*
X8879Y1822D01*
X8858Y1828D01*
X8844Y1831D01*
X8833Y1833D01*
X8829D01*
X8805Y1831D01*
X8784Y1824D01*
X8764Y1815D01*
X8749Y1805D01*
X8736Y1794D01*
X8727Y1785D01*
X8721Y1778D01*
X8720Y1776D01*
X8705Y1752D01*
X8694Y1726D01*
X8686Y1696D01*
X8681Y1668D01*
X8677Y1643D01*
X8675Y1622D01*
Y1613D01*
Y1607D01*
Y1604D01*
Y1602D01*
X8677Y1559D01*
X8683Y1520D01*
X8690Y1489D01*
X8697Y1463D01*
X8705Y1444D01*
X8712Y1430D01*
X8718Y1422D01*
X8720Y1418D01*
X8736Y1398D01*
X8753Y1385D01*
X8771Y1374D01*
X8788Y1367D01*
X8801Y1363D01*
X8812Y1361D01*
X8821Y1359D01*
X8823D01*
X8842Y1361D01*
X8858Y1367D01*
X8875Y1374D01*
X8888Y1383D01*
X8899Y1391D01*
X8908Y1398D01*
X8914Y1404D01*
X8916Y1406D01*
X8931Y1424D01*
X8942Y1446D01*
X8951Y1467D01*
X8957Y1487D01*
X8960Y1505D01*
X8964Y1522D01*
X8966Y1531D01*
Y1535D01*
X9162Y1509D01*
X9153Y1452D01*
X9145Y1424D01*
X9138Y1400D01*
X9129Y1378D01*
X9120Y1357D01*
X9110Y1337D01*
X9101Y1320D01*
X9092Y1306D01*
X9083Y1293D01*
X9075Y1281D01*
X9068Y1272D01*
X9062Y1265D01*
X9057Y1259D01*
X9055Y1257D01*
X9053Y1256D01*
X9034Y1241D01*
X9016Y1226D01*
X8979Y1204D01*
X8940Y1189D01*
X8905Y1178D01*
X8873Y1172D01*
X8858Y1168D01*
X8847D01*
X8838Y1167D01*
X8825D01*
X8794Y1168D01*
X8766Y1172D01*
X8738Y1180D01*
X8714Y1189D01*
X8690Y1198D01*
X8670Y1209D01*
X8649Y1222D01*
X8633Y1235D01*
X8618Y1248D01*
X8603Y1261D01*
X8592Y1272D01*
X8583Y1281D01*
X8575Y1291D01*
X8570Y1298D01*
X8568Y1302D01*
X8566Y1304D01*
X8549Y1330D01*
X8534Y1357D01*
X8523Y1383D01*
X8512Y1409D01*
X8496Y1461D01*
X8484Y1507D01*
X8481Y1530D01*
X8479Y1548D01*
X8475Y1565D01*
Y1580D01*
X8473Y1591D01*
Y1600D01*
Y1605D01*
Y1607D01*
X8475Y1644D01*
X8477Y1680D01*
X8483Y1711D01*
X8490Y1743D01*
X8497Y1770D01*
X8507Y1798D01*
X8518Y1822D01*
X8527Y1844D01*
X8536Y1863D01*
X8547Y1880D01*
X8557Y1894D01*
X8564Y1907D01*
X8571Y1917D01*
X8575Y1924D01*
X8579Y1928D01*
X8581Y1930D01*
X8597Y1946D01*
X8614Y1961D01*
X8631Y1974D01*
X8649Y1985D01*
X8684Y2002D01*
X8716Y2015D01*
X8746Y2020D01*
X8757Y2022D01*
X8768Y2024D01*
X8777Y2026D01*
X8788D01*
X8814Y2024D01*
X8838Y2018D01*
X8860Y2013D01*
X8881Y2005D01*
X8899Y1996D01*
X8912Y1991D01*
X8920Y1985D01*
X8923Y1983D01*
X8890Y2198D01*
X8520D01*
Y2422D01*
X9040D01*
X9140Y1770D01*
D02*
G37*
G36*
X9634Y2402D02*
X9653Y2365D01*
X9673Y2331D01*
X9694Y2304D01*
X9712Y2280D01*
X9727Y2261D01*
X9738Y2250D01*
X9740Y2248D01*
X9742Y2246D01*
X9775Y2217D01*
X9807Y2192D01*
X9834Y2172D01*
X9860Y2155D01*
X9882Y2144D01*
X9897Y2135D01*
X9908Y2131D01*
X9910Y2130D01*
X9912D01*
Y1911D01*
X9860Y1935D01*
X9810Y1963D01*
X9768Y1994D01*
X9731Y2024D01*
X9714Y2037D01*
X9699Y2050D01*
X9686Y2063D01*
X9677Y2072D01*
X9668Y2081D01*
X9662Y2087D01*
X9658Y2091D01*
X9657Y2092D01*
Y1187D01*
X9458D01*
Y2442D01*
X9619D01*
X9634Y2402D01*
D02*
G37*
G36*
X5246D02*
X5264Y2365D01*
X5285Y2331D01*
X5305Y2304D01*
X5324Y2280D01*
X5338Y2261D01*
X5350Y2250D01*
X5351Y2248D01*
X5353Y2246D01*
X5387Y2217D01*
X5418Y2192D01*
X5446Y2172D01*
X5472Y2155D01*
X5494Y2144D01*
X5509Y2135D01*
X5520Y2131D01*
X5522Y2130D01*
X5524D01*
Y1911D01*
X5472Y1935D01*
X5422Y1963D01*
X5379Y1994D01*
X5342Y2024D01*
X5325Y2037D01*
X5311Y2050D01*
X5298Y2063D01*
X5288Y2072D01*
X5279Y2081D01*
X5274Y2087D01*
X5270Y2091D01*
X5268Y2092D01*
Y1187D01*
X5070D01*
Y2442D01*
X5231D01*
X5246Y2402D01*
D02*
G37*
G36*
X7225Y2441D02*
X7255Y2437D01*
X7281Y2428D01*
X7307Y2418D01*
X7353Y2394D01*
X7373Y2381D01*
X7392Y2367D01*
X7409Y2352D01*
X7423Y2339D01*
X7436Y2326D01*
X7447Y2315D01*
X7455Y2305D01*
X7460Y2298D01*
X7464Y2292D01*
X7466Y2291D01*
X7485Y2261D01*
X7499Y2226D01*
X7514Y2189D01*
X7525Y2150D01*
X7544Y2068D01*
X7557Y1987D01*
X7560Y1948D01*
X7564Y1913D01*
X7566Y1881D01*
X7568Y1852D01*
X7570Y1830D01*
Y1811D01*
Y1800D01*
Y1798D01*
Y1796D01*
X7568Y1735D01*
X7566Y1678D01*
X7560Y1626D01*
X7555Y1578D01*
X7546Y1533D01*
X7538Y1494D01*
X7529Y1457D01*
X7520Y1426D01*
X7510Y1398D01*
X7501Y1376D01*
X7492Y1356D01*
X7485Y1339D01*
X7479Y1328D01*
X7473Y1318D01*
X7472Y1313D01*
X7470Y1311D01*
X7449Y1285D01*
X7429Y1263D01*
X7409Y1244D01*
X7386Y1228D01*
X7366Y1213D01*
X7344Y1202D01*
X7323Y1193D01*
X7303Y1185D01*
X7268Y1174D01*
X7253Y1170D01*
X7240Y1168D01*
X7229D01*
X7222Y1167D01*
X7214D01*
X7188Y1168D01*
X7164Y1172D01*
X7140Y1178D01*
X7118Y1183D01*
X7077Y1202D01*
X7044Y1222D01*
X7016Y1243D01*
X7005Y1252D01*
X6996Y1261D01*
X6988Y1267D01*
X6983Y1272D01*
X6981Y1276D01*
X6979Y1278D01*
X6962Y1300D01*
X6948Y1324D01*
X6935Y1348D01*
X6923Y1374D01*
X6907Y1426D01*
X6894Y1474D01*
X6890Y1498D01*
X6888Y1518D01*
X6886Y1539D01*
X6885Y1556D01*
X6883Y1568D01*
Y1578D01*
Y1585D01*
Y1587D01*
X6885Y1620D01*
X6886Y1654D01*
X6890Y1683D01*
X6898Y1713D01*
X6903Y1739D01*
X6911Y1763D01*
X6920Y1785D01*
X6927Y1805D01*
X6936Y1824D01*
X6944Y1841D01*
X6953Y1854D01*
X6959Y1865D01*
X6964Y1874D01*
X6970Y1880D01*
X6972Y1883D01*
X6973Y1885D01*
X6990Y1905D01*
X7009Y1922D01*
X7025Y1937D01*
X7044Y1950D01*
X7061Y1961D01*
X7079Y1970D01*
X7110Y1983D01*
X7140Y1992D01*
X7151Y1994D01*
X7162Y1996D01*
X7172Y1998D01*
X7183D01*
X7203Y1996D01*
X7222Y1994D01*
X7240Y1989D01*
X7255Y1985D01*
X7266Y1980D01*
X7277Y1974D01*
X7283Y1972D01*
X7285Y1970D01*
X7301Y1959D01*
X7316Y1946D01*
X7329Y1933D01*
X7342Y1920D01*
X7351Y1909D01*
X7359Y1900D01*
X7364Y1893D01*
X7366Y1891D01*
X7364Y1930D01*
X7360Y1965D01*
X7357Y1996D01*
X7353Y2024D01*
X7349Y2050D01*
X7344Y2074D01*
X7340Y2094D01*
X7335Y2113D01*
X7331Y2128D01*
X7327Y2141D01*
X7322Y2152D01*
X7320Y2159D01*
X7316Y2167D01*
X7314Y2170D01*
X7312Y2174D01*
X7296Y2198D01*
X7277Y2215D01*
X7260Y2228D01*
X7244Y2235D01*
X7229Y2241D01*
X7218Y2242D01*
X7209Y2244D01*
X7207D01*
X7190Y2242D01*
X7173Y2239D01*
X7160Y2231D01*
X7148Y2222D01*
X7127Y2200D01*
X7114Y2176D01*
X7103Y2150D01*
X7098Y2128D01*
X7096Y2118D01*
X7094Y2111D01*
Y2107D01*
Y2105D01*
X6903Y2131D01*
X6914Y2187D01*
X6927Y2233D01*
X6944Y2274D01*
X6961Y2307D01*
X6977Y2331D01*
X6990Y2350D01*
X6999Y2361D01*
X7003Y2365D01*
X7033Y2391D01*
X7066Y2409D01*
X7098Y2424D01*
X7129Y2433D01*
X7155Y2439D01*
X7177Y2441D01*
X7185Y2442D01*
X7196D01*
X7225Y2441D01*
D02*
G37*
G36*
X13332Y1539D02*
X13343Y1502D01*
X13354Y1472D01*
X13364Y1450D01*
X13373Y1431D01*
X13382Y1417D01*
X13388Y1409D01*
X13391Y1404D01*
X13393Y1402D01*
X13406Y1393D01*
X13423Y1385D01*
X13439Y1380D01*
X13456Y1376D01*
X13473Y1374D01*
X13486Y1372D01*
X13521D01*
X13547Y1374D01*
X13575D01*
Y1187D01*
X13526Y1178D01*
X13502Y1176D01*
X13480Y1174D01*
X13460Y1172D01*
X13432D01*
X13401Y1176D01*
X13373Y1183D01*
X13349Y1194D01*
X13328Y1207D01*
X13312Y1220D01*
X13299Y1231D01*
X13289Y1239D01*
X13288Y1243D01*
X13277Y1257D01*
X13265Y1274D01*
X13243Y1311D01*
X13223Y1350D01*
X13202Y1391D01*
X13188Y1428D01*
X13180Y1444D01*
X13175Y1459D01*
X13169Y1470D01*
X13167Y1480D01*
X13164Y1485D01*
Y1487D01*
X12817Y2439D01*
X13032D01*
X13239Y1789D01*
X13478Y2439D01*
X13710D01*
X13332Y1539D01*
D02*
G37*
G36*
X17335Y2457D02*
X17372Y2452D01*
X17406Y2444D01*
X17439Y2435D01*
X17469Y2422D01*
X17496Y2409D01*
X17522Y2394D01*
X17545Y2381D01*
X17565Y2367D01*
X17583Y2352D01*
X17598Y2339D01*
X17611Y2326D01*
X17621Y2317D01*
X17628Y2309D01*
X17632Y2304D01*
X17633Y2302D01*
X17659Y2267D01*
X17682Y2228D01*
X17700Y2189D01*
X17717Y2148D01*
X17732Y2105D01*
X17743Y2065D01*
X17752Y2024D01*
X17759Y1983D01*
X17765Y1946D01*
X17771Y1913D01*
X17774Y1881D01*
X17776Y1854D01*
Y1833D01*
X17778Y1817D01*
Y1805D01*
Y1804D01*
Y1802D01*
X17776Y1746D01*
X17772Y1694D01*
X17765Y1644D01*
X17756Y1598D01*
X17745Y1556D01*
X17733Y1517D01*
X17721Y1480D01*
X17706Y1448D01*
X17693Y1418D01*
X17680Y1393D01*
X17669Y1370D01*
X17658Y1354D01*
X17648Y1339D01*
X17641Y1328D01*
X17637Y1322D01*
X17635Y1320D01*
X17611Y1293D01*
X17585Y1270D01*
X17559Y1250D01*
X17532Y1231D01*
X17504Y1217D01*
X17478Y1204D01*
X17452Y1194D01*
X17426Y1185D01*
X17402Y1180D01*
X17380Y1174D01*
X17359Y1172D01*
X17343Y1168D01*
X17328D01*
X17319Y1167D01*
X17309D01*
X17280Y1168D01*
X17252Y1170D01*
X17200Y1181D01*
X17154Y1196D01*
X17134Y1206D01*
X17115Y1215D01*
X17098Y1224D01*
X17084Y1233D01*
X17071Y1241D01*
X17061Y1248D01*
X17052Y1254D01*
X17046Y1259D01*
X17043Y1261D01*
X17041Y1263D01*
X17021Y1283D01*
X17002Y1304D01*
X16971Y1352D01*
X16943Y1404D01*
X16921Y1454D01*
X16911Y1478D01*
X16904Y1500D01*
X16898Y1520D01*
X16893Y1537D01*
X16889Y1552D01*
X16885Y1563D01*
X16884Y1570D01*
Y1572D01*
X17085Y1650D01*
X17096Y1600D01*
X17111Y1559D01*
X17124Y1524D01*
X17139Y1496D01*
X17152Y1474D01*
X17163Y1459D01*
X17171Y1450D01*
X17172Y1446D01*
X17195Y1426D01*
X17219Y1409D01*
X17243Y1398D01*
X17265Y1391D01*
X17284Y1387D01*
X17300Y1385D01*
X17309Y1383D01*
X17313D01*
X17334Y1385D01*
X17352Y1387D01*
X17389Y1398D01*
X17419Y1415D01*
X17445Y1433D01*
X17467Y1450D01*
X17482Y1467D01*
X17491Y1478D01*
X17495Y1480D01*
Y1481D01*
X17506Y1502D01*
X17517Y1524D01*
X17526Y1550D01*
X17533Y1576D01*
X17546Y1631D01*
X17554Y1687D01*
X17558Y1713D01*
X17559Y1737D01*
X17561Y1759D01*
Y1778D01*
X17563Y1794D01*
Y1805D01*
Y1815D01*
Y1817D01*
Y1857D01*
X17559Y1896D01*
X17556Y1931D01*
X17552Y1963D01*
X17546Y1992D01*
X17541Y2020D01*
X17535Y2044D01*
X17528Y2065D01*
X17521Y2083D01*
X17515Y2100D01*
X17509Y2113D01*
X17504Y2124D01*
X17498Y2131D01*
X17496Y2139D01*
X17493Y2141D01*
Y2142D01*
X17478Y2161D01*
X17463Y2176D01*
X17448Y2189D01*
X17434Y2200D01*
X17402Y2218D01*
X17372Y2230D01*
X17346Y2237D01*
X17326Y2241D01*
X17319Y2242D01*
X17308D01*
X17278Y2241D01*
X17252Y2233D01*
X17230Y2226D01*
X17209Y2215D01*
X17193Y2205D01*
X17180Y2196D01*
X17172Y2189D01*
X17171Y2187D01*
X17150Y2165D01*
X17134Y2141D01*
X17119Y2115D01*
X17108Y2089D01*
X17100Y2067D01*
X17095Y2048D01*
X17093Y2041D01*
Y2035D01*
X17091Y2033D01*
Y2031D01*
X16885Y2091D01*
X16893Y2120D01*
X16902Y2148D01*
X16911Y2174D01*
X16921Y2200D01*
X16932Y2222D01*
X16941Y2242D01*
X16952Y2259D01*
X16961Y2276D01*
X16971Y2291D01*
X16980Y2304D01*
X16987Y2315D01*
X16995Y2324D01*
X17000Y2329D01*
X17004Y2335D01*
X17006Y2339D01*
X17008D01*
X17030Y2359D01*
X17054Y2378D01*
X17078Y2394D01*
X17102Y2409D01*
X17126Y2420D01*
X17150Y2429D01*
X17196Y2444D01*
X17217Y2450D01*
X17235Y2454D01*
X17252Y2455D01*
X17267Y2457D01*
X17280Y2459D01*
X17296D01*
X17335Y2457D01*
D02*
G37*
G36*
X16704Y1187D02*
X16497D01*
Y2228D01*
X16091D01*
Y1187D01*
X15884D01*
Y2439D01*
X16704D01*
Y1187D01*
D02*
G37*
G36*
X15665D02*
X15165D01*
X15130Y1189D01*
X15097Y1193D01*
X15067Y1198D01*
X15039Y1206D01*
X15015Y1213D01*
X14993Y1222D01*
X14973Y1233D01*
X14954Y1244D01*
X14939Y1254D01*
X14925Y1265D01*
X14913Y1274D01*
X14904Y1283D01*
X14899Y1289D01*
X14893Y1294D01*
X14889Y1298D01*
Y1300D01*
X14875Y1322D01*
X14862Y1344D01*
X14843Y1389D01*
X14828Y1431D01*
X14817Y1472D01*
X14815Y1491D01*
X14812Y1509D01*
X14810Y1524D01*
Y1537D01*
X14808Y1546D01*
Y1554D01*
Y1559D01*
Y1561D01*
X14810Y1593D01*
X14812Y1622D01*
X14823Y1678D01*
X14830Y1702D01*
X14837Y1724D01*
X14847Y1744D01*
X14856Y1763D01*
X14865Y1780D01*
X14875Y1794D01*
X14882Y1807D01*
X14889Y1818D01*
X14895Y1826D01*
X14900Y1831D01*
X14902Y1835D01*
X14904Y1837D01*
X14923Y1855D01*
X14943Y1872D01*
X14963Y1885D01*
X14986Y1896D01*
X15028Y1915D01*
X15071Y1928D01*
X15108Y1935D01*
X15124Y1937D01*
X15137Y1939D01*
X15149Y1941D01*
X15458D01*
Y2228D01*
X14897D01*
Y2439D01*
X15665D01*
Y1187D01*
D02*
G37*
G36*
X14637D02*
X14430D01*
Y2228D01*
X14025D01*
Y1187D01*
X13817D01*
Y2439D01*
X14637D01*
Y1187D01*
D02*
G37*
G36*
X12715D02*
X12519D01*
Y1428D01*
X12715D01*
Y1187D01*
D02*
G37*
G36*
X6731Y1187D02*
X6535D01*
Y1428D01*
X6731D01*
Y1187D01*
D02*
G37*
G36*
X8064Y2441D02*
X8090Y2437D01*
X8114Y2429D01*
X8136Y2420D01*
X8177Y2398D01*
X8212Y2372D01*
X8240Y2344D01*
X8251Y2333D01*
X8260Y2322D01*
X8268Y2313D01*
X8273Y2305D01*
X8275Y2302D01*
X8277Y2300D01*
X8294Y2270D01*
X8307Y2237D01*
X8320Y2202D01*
X8329Y2163D01*
X8346Y2081D01*
X8357Y2000D01*
X8360Y1961D01*
X8362Y1924D01*
X8364Y1891D01*
X8366Y1863D01*
X8368Y1839D01*
Y1820D01*
Y1815D01*
Y1809D01*
Y1807D01*
Y1805D01*
X8366Y1741D01*
X8364Y1681D01*
X8359Y1626D01*
X8353Y1576D01*
X8347Y1530D01*
X8338Y1489D01*
X8331Y1454D01*
X8321Y1420D01*
X8314Y1393D01*
X8305Y1368D01*
X8297Y1350D01*
X8292Y1333D01*
X8284Y1320D01*
X8281Y1313D01*
X8279Y1307D01*
X8277Y1306D01*
X8259Y1281D01*
X8240Y1259D01*
X8220Y1241D01*
X8199Y1226D01*
X8179Y1211D01*
X8160Y1200D01*
X8140Y1191D01*
X8122Y1183D01*
X8086Y1174D01*
X8071Y1170D01*
X8059Y1168D01*
X8049D01*
X8042Y1167D01*
X8034D01*
X8007Y1168D01*
X7981Y1172D01*
X7957Y1180D01*
X7934Y1189D01*
X7894Y1211D01*
X7859Y1237D01*
X7831Y1263D01*
X7820Y1274D01*
X7810Y1285D01*
X7803Y1294D01*
X7797Y1302D01*
X7796Y1306D01*
X7794Y1307D01*
X7777Y1337D01*
X7762Y1370D01*
X7751Y1406D01*
X7740Y1444D01*
X7723Y1528D01*
X7712Y1609D01*
X7709Y1648D01*
X7707Y1685D01*
X7703Y1717D01*
Y1746D01*
X7701Y1770D01*
Y1789D01*
Y1794D01*
Y1800D01*
Y1802D01*
Y1804D01*
X7703Y1868D01*
X7705Y1926D01*
X7710Y1981D01*
X7716Y2030D01*
X7723Y2076D01*
X7731Y2117D01*
X7738Y2152D01*
X7747Y2185D01*
X7757Y2213D01*
X7764Y2237D01*
X7772Y2255D01*
X7779Y2272D01*
X7785Y2285D01*
X7790Y2292D01*
X7792Y2298D01*
X7794Y2300D01*
X7812Y2326D01*
X7831Y2346D01*
X7851Y2367D01*
X7872Y2383D01*
X7892Y2396D01*
X7910Y2407D01*
X7931Y2417D01*
X7949Y2424D01*
X7984Y2435D01*
X7999Y2439D01*
X8012Y2441D01*
X8022Y2442D01*
X8036D01*
X8064Y2441D01*
D02*
G37*
G36*
X6070D02*
X6096Y2437D01*
X6120Y2429D01*
X6142Y2420D01*
X6183Y2398D01*
X6218Y2372D01*
X6246Y2344D01*
X6257Y2333D01*
X6266Y2322D01*
X6274Y2313D01*
X6279Y2305D01*
X6281Y2302D01*
X6283Y2300D01*
X6299Y2270D01*
X6312Y2237D01*
X6325Y2202D01*
X6335Y2163D01*
X6351Y2081D01*
X6362Y2000D01*
X6366Y1961D01*
X6368Y1924D01*
X6370Y1891D01*
X6372Y1863D01*
X6374Y1839D01*
Y1820D01*
Y1815D01*
Y1809D01*
Y1807D01*
Y1805D01*
X6372Y1741D01*
X6370Y1681D01*
X6364Y1626D01*
X6359Y1576D01*
X6353Y1530D01*
X6344Y1489D01*
X6337Y1454D01*
X6327Y1420D01*
X6320Y1393D01*
X6311Y1368D01*
X6303Y1350D01*
X6298Y1333D01*
X6290Y1320D01*
X6286Y1313D01*
X6285Y1307D01*
X6283Y1306D01*
X6264Y1281D01*
X6246Y1259D01*
X6225Y1241D01*
X6205Y1226D01*
X6185Y1211D01*
X6166Y1200D01*
X6146Y1191D01*
X6127Y1183D01*
X6092Y1174D01*
X6077Y1170D01*
X6064Y1168D01*
X6055D01*
X6048Y1167D01*
X6040D01*
X6012Y1168D01*
X5987Y1172D01*
X5962Y1180D01*
X5940Y1189D01*
X5900Y1211D01*
X5864Y1237D01*
X5837Y1263D01*
X5825Y1274D01*
X5816Y1285D01*
X5809Y1294D01*
X5803Y1302D01*
X5801Y1306D01*
X5800Y1307D01*
X5783Y1337D01*
X5768Y1370D01*
X5757Y1406D01*
X5746Y1444D01*
X5729Y1528D01*
X5718Y1609D01*
X5714Y1648D01*
X5712Y1685D01*
X5709Y1717D01*
Y1746D01*
X5707Y1770D01*
Y1789D01*
Y1794D01*
Y1800D01*
Y1802D01*
Y1804D01*
X5709Y1868D01*
X5711Y1926D01*
X5716Y1981D01*
X5722Y2030D01*
X5729Y2076D01*
X5737Y2117D01*
X5744Y2152D01*
X5753Y2185D01*
X5762Y2213D01*
X5770Y2237D01*
X5777Y2255D01*
X5785Y2272D01*
X5790Y2285D01*
X5796Y2292D01*
X5798Y2298D01*
X5800Y2300D01*
X5818Y2326D01*
X5837Y2346D01*
X5857Y2367D01*
X5877Y2383D01*
X5898Y2396D01*
X5916Y2407D01*
X5937Y2417D01*
X5955Y2424D01*
X5990Y2435D01*
X6005Y2439D01*
X6018Y2441D01*
X6027Y2442D01*
X6042D01*
X6070Y2441D01*
D02*
G37*
G36*
X4470D02*
X4494Y2439D01*
X4539Y2429D01*
X4577Y2415D01*
X4609Y2398D01*
X4635Y2381D01*
X4653Y2368D01*
X4659Y2361D01*
X4664Y2357D01*
X4666Y2355D01*
X4668Y2354D01*
X4683Y2337D01*
X4696Y2318D01*
X4716Y2281D01*
X4731Y2242D01*
X4740Y2204D01*
X4748Y2172D01*
X4750Y2157D01*
Y2144D01*
X4751Y2135D01*
Y2128D01*
Y2122D01*
Y2120D01*
X4750Y2087D01*
X4746Y2057D01*
X4740Y2031D01*
X4733Y2009D01*
X4727Y1991D01*
X4722Y1976D01*
X4718Y1968D01*
X4716Y1965D01*
X4701Y1942D01*
X4683Y1922D01*
X4666Y1904D01*
X4648Y1889D01*
X4631Y1878D01*
X4618Y1870D01*
X4611Y1865D01*
X4607Y1863D01*
X4637Y1846D01*
X4663Y1826D01*
X4685Y1805D01*
X4701Y1785D01*
X4716Y1767D01*
X4727Y1752D01*
X4733Y1743D01*
X4735Y1741D01*
Y1739D01*
X4750Y1707D01*
X4759Y1674D01*
X4766Y1643D01*
X4772Y1613D01*
X4776Y1585D01*
X4777Y1565D01*
Y1557D01*
Y1552D01*
Y1548D01*
Y1546D01*
X4776Y1515D01*
X4774Y1485D01*
X4763Y1430D01*
X4755Y1406D01*
X4748Y1381D01*
X4739Y1361D01*
X4729Y1343D01*
X4720Y1326D01*
X4711Y1311D01*
X4703Y1298D01*
X4696Y1287D01*
X4690Y1280D01*
X4685Y1274D01*
X4683Y1270D01*
X4681Y1268D01*
X4663Y1250D01*
X4642Y1235D01*
X4622Y1222D01*
X4601Y1209D01*
X4561Y1191D01*
X4522Y1180D01*
X4489Y1172D01*
X4474Y1170D01*
X4461Y1168D01*
X4452Y1167D01*
X4437D01*
X4402Y1168D01*
X4370Y1174D01*
X4340Y1181D01*
X4316Y1191D01*
X4296Y1198D01*
X4279Y1206D01*
X4270Y1211D01*
X4266Y1213D01*
X4239Y1231D01*
X4216Y1254D01*
X4196Y1276D01*
X4179Y1298D01*
X4165Y1318D01*
X4155Y1333D01*
X4150Y1344D01*
X4148Y1346D01*
Y1348D01*
X4133Y1383D01*
X4122Y1418D01*
X4115Y1452D01*
X4109Y1485D01*
X4105Y1513D01*
Y1524D01*
X4103Y1533D01*
Y1543D01*
Y1548D01*
Y1552D01*
Y1554D01*
X4105Y1594D01*
X4111Y1631D01*
X4118Y1663D01*
X4126Y1691D01*
X4133Y1713D01*
X4140Y1730D01*
X4146Y1739D01*
X4148Y1743D01*
X4166Y1770D01*
X4187Y1794D01*
X4209Y1815D01*
X4229Y1831D01*
X4250Y1846D01*
X4264Y1855D01*
X4276Y1861D01*
X4277Y1863D01*
X4279D01*
X4257Y1878D01*
X4235Y1894D01*
X4218Y1911D01*
X4203Y1928D01*
X4190Y1942D01*
X4183Y1954D01*
X4177Y1961D01*
X4176Y1965D01*
X4163Y1991D01*
X4153Y2018D01*
X4146Y2044D01*
X4142Y2068D01*
X4139Y2091D01*
X4137Y2107D01*
Y2118D01*
Y2120D01*
Y2122D01*
Y2146D01*
X4140Y2170D01*
X4150Y2213D01*
X4163Y2252D01*
X4176Y2285D01*
X4190Y2311D01*
X4198Y2322D01*
X4203Y2331D01*
X4209Y2339D01*
X4213Y2344D01*
X4214Y2346D01*
X4216Y2348D01*
X4231Y2365D01*
X4248Y2379D01*
X4266Y2392D01*
X4285Y2404D01*
X4322Y2420D01*
X4359Y2431D01*
X4392Y2437D01*
X4407Y2439D01*
X4420Y2441D01*
X4429Y2442D01*
X4444D01*
X4470Y2441D01*
D02*
G37*
%LPC*%
G36*
X7222Y1820D02*
X7212D01*
X7192Y1818D01*
X7173Y1811D01*
X7157Y1802D01*
X7142Y1793D01*
X7131Y1781D01*
X7123Y1772D01*
X7118Y1765D01*
X7116Y1763D01*
X7103Y1739D01*
X7092Y1713D01*
X7085Y1683D01*
X7081Y1654D01*
X7077Y1628D01*
X7075Y1607D01*
Y1598D01*
Y1593D01*
Y1589D01*
Y1587D01*
X7077Y1546D01*
X7081Y1511D01*
X7086Y1481D01*
X7094Y1457D01*
X7101Y1439D01*
X7107Y1426D01*
X7110Y1418D01*
X7112Y1417D01*
X7127Y1400D01*
X7142Y1387D01*
X7157Y1380D01*
X7172Y1372D01*
X7185Y1368D01*
X7194Y1367D01*
X7203D01*
X7223Y1368D01*
X7244Y1376D01*
X7260Y1385D01*
X7275Y1398D01*
X7288Y1409D01*
X7298Y1418D01*
X7303Y1426D01*
X7305Y1428D01*
X7320Y1454D01*
X7329Y1483D01*
X7336Y1513D01*
X7342Y1541D01*
X7346Y1567D01*
X7347Y1589D01*
Y1596D01*
Y1602D01*
Y1605D01*
Y1607D01*
X7346Y1644D01*
X7342Y1678D01*
X7335Y1704D01*
X7327Y1726D01*
X7322Y1744D01*
X7314Y1757D01*
X7310Y1765D01*
X7309Y1767D01*
X7294Y1785D01*
X7277Y1798D01*
X7260Y1807D01*
X7246Y1813D01*
X7233Y1818D01*
X7222Y1820D01*
D02*
G37*
G36*
X15458Y1730D02*
X15232D01*
X15195Y1728D01*
X15163Y1722D01*
X15136Y1715D01*
X15112Y1704D01*
X15091Y1691D01*
X15074Y1676D01*
X15060Y1661D01*
X15049Y1644D01*
X15039Y1628D01*
X15034Y1613D01*
X15028Y1598D01*
X15026Y1585D01*
X15024Y1576D01*
X15023Y1567D01*
Y1561D01*
Y1559D01*
X15024Y1539D01*
X15026Y1520D01*
X15032Y1504D01*
X15037Y1489D01*
X15043Y1478D01*
X15047Y1468D01*
X15050Y1463D01*
X15052Y1461D01*
X15063Y1448D01*
X15074Y1435D01*
X15086Y1428D01*
X15097Y1420D01*
X15106Y1415D01*
X15112Y1411D01*
X15117Y1409D01*
X15119D01*
X15136Y1406D01*
X15154Y1404D01*
X15193Y1400D01*
X15212Y1398D01*
X15458D01*
Y1730D01*
D02*
G37*
G36*
X8036Y2242D02*
X8034D01*
X8014Y2239D01*
X7996Y2230D01*
X7981Y2218D01*
X7968Y2204D01*
X7957Y2189D01*
X7949Y2178D01*
X7946Y2168D01*
X7944Y2165D01*
X7938Y2148D01*
X7933Y2128D01*
X7927Y2104D01*
X7923Y2076D01*
X7920Y2048D01*
X7918Y2017D01*
X7912Y1955D01*
Y1926D01*
X7910Y1898D01*
Y1872D01*
X7909Y1850D01*
Y1831D01*
Y1817D01*
Y1807D01*
Y1804D01*
Y1752D01*
X7910Y1705D01*
X7912Y1665D01*
X7914Y1628D01*
X7916Y1594D01*
X7920Y1565D01*
X7923Y1539D01*
X7925Y1517D01*
X7929Y1498D01*
X7933Y1481D01*
X7936Y1468D01*
X7938Y1459D01*
X7940Y1452D01*
X7942Y1446D01*
X7944Y1444D01*
Y1443D01*
X7957Y1417D01*
X7972Y1398D01*
X7986Y1385D01*
X8001Y1376D01*
X8014Y1370D01*
X8025Y1368D01*
X8033Y1367D01*
X8034D01*
X8055Y1370D01*
X8073Y1378D01*
X8090Y1391D01*
X8103Y1406D01*
X8114Y1418D01*
X8122Y1431D01*
X8125Y1439D01*
X8127Y1443D01*
X8133Y1459D01*
X8138Y1480D01*
X8142Y1504D01*
X8146Y1531D01*
X8149Y1559D01*
X8153Y1591D01*
X8157Y1652D01*
Y1681D01*
X8159Y1709D01*
Y1735D01*
X8160Y1757D01*
Y1778D01*
Y1791D01*
Y1800D01*
Y1804D01*
Y1855D01*
X8159Y1902D01*
X8157Y1942D01*
X8155Y1980D01*
X8153Y2013D01*
X8149Y2042D01*
X8147Y2068D01*
X8144Y2091D01*
X8140Y2109D01*
X8138Y2126D01*
X8134Y2139D01*
X8133Y2148D01*
X8131Y2155D01*
X8129Y2161D01*
X8127Y2165D01*
X8114Y2191D01*
X8099Y2209D01*
X8083Y2224D01*
X8068Y2233D01*
X8055Y2239D01*
X8044Y2241D01*
X8036Y2242D01*
D02*
G37*
G36*
X6042D02*
X6040D01*
X6020Y2239D01*
X6001Y2230D01*
X5987Y2218D01*
X5974Y2204D01*
X5962Y2189D01*
X5955Y2178D01*
X5951Y2168D01*
X5950Y2165D01*
X5944Y2148D01*
X5938Y2128D01*
X5933Y2104D01*
X5929Y2076D01*
X5925Y2048D01*
X5924Y2017D01*
X5918Y1955D01*
Y1926D01*
X5916Y1898D01*
Y1872D01*
X5914Y1850D01*
Y1831D01*
Y1817D01*
Y1807D01*
Y1804D01*
Y1752D01*
X5916Y1705D01*
X5918Y1665D01*
X5920Y1628D01*
X5922Y1594D01*
X5925Y1565D01*
X5929Y1539D01*
X5931Y1517D01*
X5935Y1498D01*
X5938Y1481D01*
X5942Y1468D01*
X5944Y1459D01*
X5946Y1452D01*
X5948Y1446D01*
X5950Y1444D01*
Y1443D01*
X5962Y1417D01*
X5977Y1398D01*
X5992Y1385D01*
X6007Y1376D01*
X6020Y1370D01*
X6031Y1368D01*
X6038Y1367D01*
X6040D01*
X6061Y1370D01*
X6079Y1378D01*
X6096Y1391D01*
X6109Y1406D01*
X6120Y1418D01*
X6127Y1431D01*
X6131Y1439D01*
X6133Y1443D01*
X6138Y1459D01*
X6144Y1480D01*
X6148Y1504D01*
X6151Y1531D01*
X6155Y1559D01*
X6159Y1591D01*
X6162Y1652D01*
Y1681D01*
X6164Y1709D01*
Y1735D01*
X6166Y1757D01*
Y1778D01*
Y1791D01*
Y1800D01*
Y1804D01*
Y1855D01*
X6164Y1902D01*
X6162Y1942D01*
X6161Y1980D01*
X6159Y2013D01*
X6155Y2042D01*
X6153Y2068D01*
X6149Y2091D01*
X6146Y2109D01*
X6144Y2126D01*
X6140Y2139D01*
X6138Y2148D01*
X6137Y2155D01*
X6135Y2161D01*
X6133Y2165D01*
X6120Y2191D01*
X6105Y2209D01*
X6088Y2224D01*
X6074Y2233D01*
X6061Y2239D01*
X6049Y2241D01*
X6042Y2242D01*
D02*
G37*
G36*
X4452Y2252D02*
X4442D01*
X4424Y2250D01*
X4407Y2246D01*
X4392Y2239D01*
X4379Y2233D01*
X4370Y2226D01*
X4363Y2218D01*
X4359Y2215D01*
X4357Y2213D01*
X4346Y2196D01*
X4337Y2180D01*
X4331Y2161D01*
X4326Y2144D01*
X4324Y2128D01*
X4322Y2115D01*
Y2107D01*
Y2104D01*
X4324Y2078D01*
X4327Y2055D01*
X4333Y2035D01*
X4339Y2020D01*
X4346Y2007D01*
X4352Y1998D01*
X4355Y1992D01*
X4357Y1991D01*
X4370Y1978D01*
X4385Y1968D01*
X4400Y1963D01*
X4414Y1959D01*
X4426Y1955D01*
X4435Y1954D01*
X4444D01*
X4463Y1955D01*
X4481Y1959D01*
X4496Y1965D01*
X4507Y1972D01*
X4518Y1980D01*
X4526Y1985D01*
X4529Y1989D01*
X4531Y1991D01*
X4542Y2007D01*
X4550Y2024D01*
X4557Y2044D01*
X4561Y2061D01*
X4563Y2078D01*
X4564Y2091D01*
Y2100D01*
Y2104D01*
X4563Y2128D01*
X4559Y2150D01*
X4553Y2168D01*
X4548Y2183D01*
X4542Y2194D01*
X4537Y2204D01*
X4533Y2209D01*
X4531Y2211D01*
X4516Y2224D01*
X4502Y2235D01*
X4487Y2242D01*
X4474Y2246D01*
X4461Y2250D01*
X4452Y2252D01*
D02*
G37*
G36*
X4453Y1761D02*
X4444D01*
X4422Y1759D01*
X4402Y1754D01*
X4385Y1744D01*
X4370Y1735D01*
X4359Y1724D01*
X4350Y1717D01*
X4344Y1709D01*
X4342Y1707D01*
X4327Y1687D01*
X4318Y1663D01*
X4311Y1641D01*
X4305Y1618D01*
X4302Y1598D01*
X4300Y1581D01*
Y1570D01*
Y1568D01*
Y1567D01*
X4302Y1530D01*
X4305Y1498D01*
X4313Y1472D01*
X4320Y1450D01*
X4327Y1433D01*
X4335Y1420D01*
X4339Y1413D01*
X4340Y1411D01*
X4357Y1394D01*
X4374Y1381D01*
X4390Y1372D01*
X4405Y1367D01*
X4420Y1363D01*
X4431Y1359D01*
X4440D01*
X4463Y1361D01*
X4483Y1368D01*
X4500Y1376D01*
X4514Y1387D01*
X4527Y1396D01*
X4537Y1406D01*
X4542Y1411D01*
X4544Y1413D01*
X4557Y1435D01*
X4568Y1459D01*
X4576Y1485D01*
X4579Y1511D01*
X4583Y1533D01*
X4585Y1552D01*
Y1559D01*
Y1565D01*
Y1567D01*
Y1568D01*
X4583Y1600D01*
X4579Y1628D01*
X4572Y1650D01*
X4564Y1670D01*
X4557Y1687D01*
X4550Y1698D01*
X4546Y1705D01*
X4544Y1707D01*
X4527Y1726D01*
X4511Y1739D01*
X4494Y1748D01*
X4479Y1754D01*
X4464Y1759D01*
X4453Y1761D01*
D02*
G37*
%LPD*%
M02*
