M48
;Layer_Color=9474304
;FILE_FORMAT=4:3
METRIC,LZ
;TYPE=PLATED
T1F00S00C0.300
T2F00S00C1.200
T3F00S00C1.600
%
T01
X00105Y00015
Y00025
Y00034
X00119Y00035
X0011915Y00025
X00119Y00016
X00125Y0005
X001225Y0008
X001375
Y00095
X001225
X000885Y0007125
X00078Y00076
X0007Y00085
X001725Y000775
X00175Y00054
Y00045
Y00035
X00189Y00036
X0018915Y00045
X00189Y00055
X0019085Y00102
Y00112
Y00121
X0020485Y00122
X00205Y00112
X0020485Y00103
X0020785Y00143
X00208Y00152
X0020785Y00162
X0019385Y00161
Y00152
Y00142
X0017285Y00145
X00173Y00154
X0017285Y00164
X0015885Y00163
Y00154
Y00144
X0013Y0016
X00117Y00159
X0012Y00172
X0011Y0018475
X00114Y0021385
X00123
X00133
X00132Y0022785
X00123Y00228
X00113Y0022785
X00092
X00083Y00228
X00073Y0022785
X00074Y0021385
X00083
X00093
X0009Y0020025
X0014Y00175
X0015885Y00207
Y00217
Y00226
X0017285Y00227
X00173Y00217
X0017285Y00208
X0025785Y00155
Y00146
Y00136
Y00122
Y00113
Y00103
X0027185Y00104
X00272Y00113
X0027185Y00123
Y00137
X00272Y00146
X0027185Y00156
X00317Y0018
X0036Y00177
X00361Y00167
X00368Y00173
Y00183
X0035985Y00188
X00354Y00211
X00345Y0021
X00367Y00159
X00349Y00085
X0034915Y00075
X00349Y00066
X00335Y00065
Y00075
Y00084
X0032285Y00082
X00323Y00072
X0032285Y00063
X0032885Y00051
Y00042
Y00032
X0034285Y00033
X00343Y00042
X0034285Y00052
X0027915Y0005
X00279Y00041
X00265Y0004
Y0005
Y00059
X00279Y0006
X003Y000225
X0043385Y00022
Y00031
X0044785Y00032
X00448Y00022
X0044785Y00013
X0043385Y00012
X004225Y000425
X004575Y000695
X00471
X0048375
Y0010025
X0049575
X005125Y0010025
X00471Y001005
X0045825Y001
X00422Y00108
X0042Y0012
Y0013
Y0014
Y0015
X00405
Y0014
Y0013
Y0012
X0043215Y0013525
X0045285Y00145
X0045283Y0015125
X0045285Y00158
X00457Y00175
X00468Y00178
X00506Y00179
X00446Y00213
X00436Y00209
X00418Y0021385
X00408
X00399
X00398Y0022785
X00408Y00228
X00417Y0022785
X0049885Y00031
Y00022
Y00012
X0051285Y00013
X00513Y00022
X0051285Y00032
X0059885Y00077
Y00087
Y00096
X0061285Y00097
X00613Y00087
X0061285Y00078
T02
X000485Y0007
Y00105
X00604Y00135
Y0017
T03
X0002Y0002
Y0022
X0063
Y0002
M30
