G04*
G04 #@! TF.GenerationSoftware,Altium Limited,Altium Designer,19.1.6 (110)*
G04*
G04 Layer_Color=8388736*
%FSLAX43Y43*%
%MOMM*%
G71*
G01*
G75*
G04:AMPARAMS|DCode=13|XSize=1.5mm|YSize=1.1mm|CornerRadius=0.3mm|HoleSize=0mm|Usage=FLASHONLY|Rotation=90.000|XOffset=0mm|YOffset=0mm|HoleType=Round|Shape=RoundedRectangle|*
%AMROUNDEDRECTD13*
21,1,1.500,0.500,0,0,90.0*
21,1,0.900,1.100,0,0,90.0*
1,1,0.600,0.250,0.450*
1,1,0.600,0.250,-0.450*
1,1,0.600,-0.250,-0.450*
1,1,0.600,-0.250,0.450*
%
%ADD13ROUNDEDRECTD13*%
G04:AMPARAMS|DCode=14|XSize=1.9mm|YSize=1.1mm|CornerRadius=0.3mm|HoleSize=0mm|Usage=FLASHONLY|Rotation=180.000|XOffset=0mm|YOffset=0mm|HoleType=Round|Shape=RoundedRectangle|*
%AMROUNDEDRECTD14*
21,1,1.900,0.500,0,0,180.0*
21,1,1.300,1.100,0,0,180.0*
1,1,0.600,-0.650,0.250*
1,1,0.600,0.650,0.250*
1,1,0.600,0.650,-0.250*
1,1,0.600,-0.650,-0.250*
%
%ADD14ROUNDEDRECTD14*%
%ADD15R,1.900X1.800*%
%ADD16R,1.450X0.500*%
%ADD17O,1.450X0.500*%
%ADD18R,2.760X2.560*%
%ADD19R,2.450X5.550*%
%ADD20R,3.950X1.900*%
%ADD21R,3.300X3.250*%
%ADD22R,3.060X3.060*%
%ADD23O,1.500X0.500*%
%ADD24R,1.500X0.500*%
%ADD25R,0.950X1.000*%
%ADD26R,0.900X1.050*%
G04:AMPARAMS|DCode=27|XSize=2.8mm|YSize=1.1mm|CornerRadius=0.3mm|HoleSize=0mm|Usage=FLASHONLY|Rotation=90.000|XOffset=0mm|YOffset=0mm|HoleType=Round|Shape=RoundedRectangle|*
%AMROUNDEDRECTD27*
21,1,2.800,0.500,0,0,90.0*
21,1,2.200,1.100,0,0,90.0*
1,1,0.600,0.250,1.100*
1,1,0.600,0.250,-1.100*
1,1,0.600,-0.250,-1.100*
1,1,0.600,-0.250,1.100*
%
%ADD27ROUNDEDRECTD27*%
G04:AMPARAMS|DCode=28|XSize=1mm|YSize=0.9mm|CornerRadius=0.25mm|HoleSize=0mm|Usage=FLASHONLY|Rotation=90.000|XOffset=0mm|YOffset=0mm|HoleType=Round|Shape=RoundedRectangle|*
%AMROUNDEDRECTD28*
21,1,1.000,0.400,0,0,90.0*
21,1,0.500,0.900,0,0,90.0*
1,1,0.500,0.200,0.250*
1,1,0.500,0.200,-0.250*
1,1,0.500,-0.200,-0.250*
1,1,0.500,-0.200,0.250*
%
%ADD28ROUNDEDRECTD28*%
G04:AMPARAMS|DCode=29|XSize=1mm|YSize=0.9mm|CornerRadius=0.25mm|HoleSize=0mm|Usage=FLASHONLY|Rotation=180.000|XOffset=0mm|YOffset=0mm|HoleType=Round|Shape=RoundedRectangle|*
%AMROUNDEDRECTD29*
21,1,1.000,0.400,0,0,180.0*
21,1,0.500,0.900,0,0,180.0*
1,1,0.500,-0.250,0.200*
1,1,0.500,0.250,0.200*
1,1,0.500,0.250,-0.200*
1,1,0.500,-0.250,-0.200*
%
%ADD29ROUNDEDRECTD29*%
G04:AMPARAMS|DCode=30|XSize=1.9mm|YSize=1.1mm|CornerRadius=0.3mm|HoleSize=0mm|Usage=FLASHONLY|Rotation=90.000|XOffset=0mm|YOffset=0mm|HoleType=Round|Shape=RoundedRectangle|*
%AMROUNDEDRECTD30*
21,1,1.900,0.500,0,0,90.0*
21,1,1.300,1.100,0,0,90.0*
1,1,0.600,0.250,0.650*
1,1,0.600,0.250,-0.650*
1,1,0.600,-0.250,-0.650*
1,1,0.600,-0.250,0.650*
%
%ADD30ROUNDEDRECTD30*%
%ADD31R,1.800X1.900*%
%ADD32R,1.000X0.950*%
G04:AMPARAMS|DCode=33|XSize=2.2mm|YSize=1.5mm|CornerRadius=0.4mm|HoleSize=0mm|Usage=FLASHONLY|Rotation=90.000|XOffset=0mm|YOffset=0mm|HoleType=Round|Shape=RoundedRectangle|*
%AMROUNDEDRECTD33*
21,1,2.200,0.700,0,0,90.0*
21,1,1.400,1.500,0,0,90.0*
1,1,0.800,0.350,0.700*
1,1,0.800,0.350,-0.700*
1,1,0.800,-0.350,-0.700*
1,1,0.800,-0.350,0.700*
%
%ADD33ROUNDEDRECTD33*%
%ADD34C,3.100*%
%ADD35R,1.900X1.900*%
%ADD36C,1.900*%
D13*
X39850Y7500D02*
D03*
X38150D02*
D03*
D14*
X10000Y13500D02*
D03*
Y16500D02*
D03*
D15*
X4750Y19450D02*
D03*
Y16050D02*
D03*
D16*
X10050Y11025D02*
D03*
D17*
Y10375D02*
D03*
Y9725D02*
D03*
Y9075D02*
D03*
Y8425D02*
D03*
Y7775D02*
D03*
Y7125D02*
D03*
Y6475D02*
D03*
X15950Y11025D02*
D03*
Y10375D02*
D03*
Y9725D02*
D03*
Y9075D02*
D03*
Y8425D02*
D03*
Y7775D02*
D03*
Y7125D02*
D03*
Y6475D02*
D03*
D18*
X13000Y8750D02*
D03*
D19*
X23250Y3850D02*
D03*
Y12650D02*
D03*
D20*
X55000Y5500D02*
D03*
X60500D02*
D03*
D21*
X47000Y14500D02*
D03*
X52600D02*
D03*
D22*
X41250Y13500D02*
D03*
D23*
X44200Y10575D02*
D03*
Y11225D02*
D03*
Y11875D02*
D03*
Y12525D02*
D03*
Y13175D02*
D03*
Y13825D02*
D03*
Y14475D02*
D03*
Y15125D02*
D03*
Y15775D02*
D03*
Y16425D02*
D03*
X38300Y10575D02*
D03*
Y11225D02*
D03*
Y11875D02*
D03*
Y12525D02*
D03*
Y13175D02*
D03*
Y13825D02*
D03*
Y14475D02*
D03*
Y15125D02*
D03*
Y15775D02*
D03*
D24*
Y16425D02*
D03*
D25*
X48025Y4250D02*
D03*
X46475D02*
D03*
X41250D02*
D03*
X39700D02*
D03*
X27725Y21250D02*
D03*
X29275D02*
D03*
X34275Y22000D02*
D03*
X32725D02*
D03*
Y20000D02*
D03*
X34275D02*
D03*
X32725Y18000D02*
D03*
X34275D02*
D03*
Y16000D02*
D03*
X32725D02*
D03*
X34275Y14000D02*
D03*
X32725D02*
D03*
D26*
X41325Y2500D02*
D03*
X39675D02*
D03*
X48075D02*
D03*
X46425D02*
D03*
D27*
X41250Y18750D02*
D03*
X44250D02*
D03*
X52500Y20000D02*
D03*
X55500D02*
D03*
X48950Y19800D02*
D03*
X45950D02*
D03*
D28*
X36250Y22000D02*
D03*
X37750Y22000D02*
D03*
Y20000D02*
D03*
X36250Y20000D02*
D03*
X11250Y5000D02*
D03*
X9750Y5000D02*
D03*
X44500Y9000D02*
D03*
X43000Y9000D02*
D03*
D29*
X29250Y17250D02*
D03*
X29250Y18750D02*
D03*
X12750Y13500D02*
D03*
X12750Y15000D02*
D03*
D30*
X22750Y18000D02*
D03*
X25750D02*
D03*
X22750Y21000D02*
D03*
X25750D02*
D03*
D31*
X47050Y8500D02*
D03*
X50450D02*
D03*
X16800Y19000D02*
D03*
X20200D02*
D03*
D32*
X14000Y18475D02*
D03*
Y20025D02*
D03*
X12000Y18475D02*
D03*
Y20025D02*
D03*
X10000D02*
D03*
Y18475D02*
D03*
X8000D02*
D03*
Y20025D02*
D03*
X50750Y19225D02*
D03*
Y20775D02*
D03*
D33*
X31260Y2200D02*
D03*
Y11300D02*
D03*
X35740D02*
D03*
Y2200D02*
D03*
D34*
X2000Y2000D02*
D03*
Y22000D02*
D03*
X63000Y2000D02*
D03*
Y22000D02*
D03*
D35*
X4850Y10500D02*
D03*
X60400Y13500D02*
D03*
D36*
X4850Y7000D02*
D03*
X60400Y17000D02*
D03*
M02*
