G04*
G04 #@! TF.GenerationSoftware,Altium Limited,Altium Designer,19.1.6 (110)*
G04*
G04 Layer_Color=8388736*
%FSLAX43Y43*%
%MOMM*%
G71*
G01*
G75*
G04:AMPARAMS|DCode=15|XSize=1.9mm|YSize=1.1mm|CornerRadius=0.3mm|HoleSize=0mm|Usage=FLASHONLY|Rotation=0.000|XOffset=0mm|YOffset=0mm|HoleType=Round|Shape=RoundedRectangle|*
%AMROUNDEDRECTD15*
21,1,1.900,0.500,0,0,0.0*
21,1,1.300,1.100,0,0,0.0*
1,1,0.600,0.650,-0.250*
1,1,0.600,-0.650,-0.250*
1,1,0.600,-0.650,0.250*
1,1,0.600,0.650,0.250*
%
%ADD15ROUNDEDRECTD15*%
%ADD16R,1.900X1.800*%
G04:AMPARAMS|DCode=17|XSize=2.8mm|YSize=1.1mm|CornerRadius=0.3mm|HoleSize=0mm|Usage=FLASHONLY|Rotation=90.000|XOffset=0mm|YOffset=0mm|HoleType=Round|Shape=RoundedRectangle|*
%AMROUNDEDRECTD17*
21,1,2.800,0.500,0,0,90.0*
21,1,2.200,1.100,0,0,90.0*
1,1,0.600,0.250,1.100*
1,1,0.600,0.250,-1.100*
1,1,0.600,-0.250,-1.100*
1,1,0.600,-0.250,1.100*
%
%ADD17ROUNDEDRECTD17*%
G04:AMPARAMS|DCode=18|XSize=1.5mm|YSize=1.1mm|CornerRadius=0.3mm|HoleSize=0mm|Usage=FLASHONLY|Rotation=90.000|XOffset=0mm|YOffset=0mm|HoleType=Round|Shape=RoundedRectangle|*
%AMROUNDEDRECTD18*
21,1,1.500,0.500,0,0,90.0*
21,1,0.900,1.100,0,0,90.0*
1,1,0.600,0.250,0.450*
1,1,0.600,0.250,-0.450*
1,1,0.600,-0.250,-0.450*
1,1,0.600,-0.250,0.450*
%
%ADD18ROUNDEDRECTD18*%
G04:AMPARAMS|DCode=19|XSize=0.35mm|YSize=1.925mm|CornerRadius=0.113mm|HoleSize=0mm|Usage=FLASHONLY|Rotation=270.000|XOffset=0mm|YOffset=0mm|HoleType=Round|Shape=RoundedRectangle|*
%AMROUNDEDRECTD19*
21,1,0.350,1.700,0,0,270.0*
21,1,0.125,1.925,0,0,270.0*
1,1,0.225,-0.850,-0.063*
1,1,0.225,-0.850,0.063*
1,1,0.225,0.850,0.063*
1,1,0.225,0.850,-0.063*
%
%ADD19ROUNDEDRECTD19*%
G04:AMPARAMS|DCode=20|XSize=0.35mm|YSize=0.7mm|CornerRadius=0.113mm|HoleSize=0mm|Usage=FLASHONLY|Rotation=0.000|XOffset=0mm|YOffset=0mm|HoleType=Round|Shape=RoundedRectangle|*
%AMROUNDEDRECTD20*
21,1,0.350,0.475,0,0,0.0*
21,1,0.125,0.700,0,0,0.0*
1,1,0.225,0.063,-0.238*
1,1,0.225,-0.063,-0.238*
1,1,0.225,-0.063,0.238*
1,1,0.225,0.063,0.238*
%
%ADD20ROUNDEDRECTD20*%
G04:AMPARAMS|DCode=21|XSize=0.35mm|YSize=0.7mm|CornerRadius=0.113mm|HoleSize=0mm|Usage=FLASHONLY|Rotation=270.000|XOffset=0mm|YOffset=0mm|HoleType=Round|Shape=RoundedRectangle|*
%AMROUNDEDRECTD21*
21,1,0.350,0.475,0,0,270.0*
21,1,0.125,0.700,0,0,270.0*
1,1,0.225,-0.238,-0.063*
1,1,0.225,-0.238,0.063*
1,1,0.225,0.238,0.063*
1,1,0.225,0.238,-0.063*
%
%ADD21ROUNDEDRECTD21*%
%ADD22R,0.350X0.700*%
G04:AMPARAMS|DCode=23|XSize=0.6mm|YSize=0.6mm|CornerRadius=0.175mm|HoleSize=0mm|Usage=FLASHONLY|Rotation=0.000|XOffset=0mm|YOffset=0mm|HoleType=Round|Shape=RoundedRectangle|*
%AMROUNDEDRECTD23*
21,1,0.600,0.250,0,0,0.0*
21,1,0.250,0.600,0,0,0.0*
1,1,0.350,0.125,-0.125*
1,1,0.350,-0.125,-0.125*
1,1,0.350,-0.125,0.125*
1,1,0.350,0.125,0.125*
%
%ADD23ROUNDEDRECTD23*%
%ADD24R,0.950X1.000*%
G04:AMPARAMS|DCode=25|XSize=1mm|YSize=1.2mm|CornerRadius=0.2mm|HoleSize=0mm|Usage=FLASHONLY|Rotation=0.000|XOffset=0mm|YOffset=0mm|HoleType=Round|Shape=RoundedRectangle|*
%AMROUNDEDRECTD25*
21,1,1.000,0.800,0,0,0.0*
21,1,0.600,1.200,0,0,0.0*
1,1,0.400,0.300,-0.400*
1,1,0.400,-0.300,-0.400*
1,1,0.400,-0.300,0.400*
1,1,0.400,0.300,0.400*
%
%ADD25ROUNDEDRECTD25*%
G04:AMPARAMS|DCode=26|XSize=1mm|YSize=0.9mm|CornerRadius=0.25mm|HoleSize=0mm|Usage=FLASHONLY|Rotation=270.000|XOffset=0mm|YOffset=0mm|HoleType=Round|Shape=RoundedRectangle|*
%AMROUNDEDRECTD26*
21,1,1.000,0.400,0,0,270.0*
21,1,0.500,0.900,0,0,270.0*
1,1,0.500,-0.200,-0.250*
1,1,0.500,-0.200,0.250*
1,1,0.500,0.200,0.250*
1,1,0.500,0.200,-0.250*
%
%ADD26ROUNDEDRECTD26*%
%ADD27R,3.280X13.400*%
%ADD28C,2.600*%
%ADD29R,2.600X2.600*%
%ADD30C,0.700*%
D15*
X43750Y7250D02*
D03*
Y4250D02*
D03*
Y15600D02*
D03*
Y18600D02*
D03*
D16*
X10000Y19800D02*
D03*
Y23200D02*
D03*
D17*
X22800Y17650D02*
D03*
X19800D02*
D03*
X19050Y6350D02*
D03*
X22050D02*
D03*
D18*
X20450Y14700D02*
D03*
X22150D02*
D03*
X19700Y9250D02*
D03*
X21400D02*
D03*
D19*
X19939Y11950D02*
D03*
D20*
X20200Y11050D02*
D03*
X19550Y11050D02*
D03*
X18900D02*
D03*
X18400D02*
D03*
Y12850D02*
D03*
X18900D02*
D03*
X19550D02*
D03*
D21*
X17750Y11450D02*
D03*
Y11950D02*
D03*
Y12450D02*
D03*
D22*
X20200Y12850D02*
D03*
D23*
X16650Y9650D02*
D03*
Y10650D02*
D03*
D24*
X13675Y6350D02*
D03*
X15225D02*
D03*
Y8000D02*
D03*
X13675D02*
D03*
Y9650D02*
D03*
X15225D02*
D03*
X6525Y5850D02*
D03*
X8075D02*
D03*
X4925Y4150D02*
D03*
X6475D02*
D03*
X7025Y23150D02*
D03*
X5475D02*
D03*
D25*
X4825Y2450D02*
D03*
X6475D02*
D03*
X7150Y21550D02*
D03*
X5500D02*
D03*
D26*
X18500Y14700D02*
D03*
X17000Y14700D02*
D03*
X16000Y13100D02*
D03*
X14500Y13100D02*
D03*
D27*
X38150Y11450D02*
D03*
X27550D02*
D03*
D28*
X4000Y14450D02*
D03*
Y10250D02*
D03*
X9500D02*
D03*
X49000Y14750D02*
D03*
X54500D02*
D03*
Y10550D02*
D03*
D29*
X9500Y14450D02*
D03*
X49000Y10550D02*
D03*
D30*
X54000Y22000D02*
D03*
X16950Y15950D02*
D03*
X15900D02*
D03*
X14700Y16025D02*
D03*
X15250Y18300D02*
D03*
X16675Y18325D02*
D03*
X17250Y7025D02*
D03*
X17275Y6050D02*
D03*
X16600Y6525D02*
D03*
X16575Y5450D02*
D03*
X15625Y4975D02*
D03*
X14800Y5000D02*
D03*
X13550Y14625D02*
D03*
X17975Y16800D02*
D03*
X13775Y15300D02*
D03*
X14375Y11325D02*
D03*
Y12000D02*
D03*
X16250Y11375D02*
D03*
Y12000D02*
D03*
X15625Y11300D02*
D03*
Y12000D02*
D03*
X15000Y11325D02*
D03*
X58000Y22000D02*
D03*
X59000Y20000D02*
D03*
X58000Y18000D02*
D03*
X59000Y16000D02*
D03*
X58000Y14000D02*
D03*
X59000Y12000D02*
D03*
X58000Y10000D02*
D03*
X59000Y8000D02*
D03*
X58000Y6000D02*
D03*
X59000Y4000D02*
D03*
X58000Y2000D02*
D03*
X56000Y22000D02*
D03*
X57000Y20000D02*
D03*
X56000Y18000D02*
D03*
X57000Y16000D02*
D03*
Y12000D02*
D03*
Y8000D02*
D03*
X56000Y6000D02*
D03*
X57000Y4000D02*
D03*
X56000Y2000D02*
D03*
X55000Y20000D02*
D03*
X54000Y18000D02*
D03*
X55000Y8000D02*
D03*
X54000Y6000D02*
D03*
X55000Y4000D02*
D03*
X54000Y2000D02*
D03*
X52000Y22000D02*
D03*
X53000Y20000D02*
D03*
X52000Y18000D02*
D03*
X53000Y16000D02*
D03*
Y12000D02*
D03*
Y8000D02*
D03*
X52000Y6000D02*
D03*
X53000Y4000D02*
D03*
X52000Y2000D02*
D03*
X50000Y22000D02*
D03*
X51000Y20000D02*
D03*
Y4000D02*
D03*
X50000Y2000D02*
D03*
X48000Y22000D02*
D03*
X49000Y20000D02*
D03*
Y4000D02*
D03*
X48000Y2000D02*
D03*
X46000Y22000D02*
D03*
X47000Y20000D02*
D03*
Y4000D02*
D03*
X46000Y2000D02*
D03*
X44000Y22000D02*
D03*
X45000Y20000D02*
D03*
X44000Y2000D02*
D03*
X42000Y22000D02*
D03*
X43000Y20000D02*
D03*
X42000Y2000D02*
D03*
X40000Y22000D02*
D03*
X41000Y20000D02*
D03*
X40000Y2000D02*
D03*
X38000Y22000D02*
D03*
X39000Y20000D02*
D03*
X38000Y2000D02*
D03*
X36000Y22000D02*
D03*
X37000Y20000D02*
D03*
X36000Y2000D02*
D03*
X34000Y22000D02*
D03*
X35000Y20000D02*
D03*
X34000Y2000D02*
D03*
X32000Y22000D02*
D03*
X33000Y20000D02*
D03*
X32000Y2000D02*
D03*
X30000Y22000D02*
D03*
X31000Y20000D02*
D03*
X30000Y2000D02*
D03*
X28000Y22000D02*
D03*
X29000Y20000D02*
D03*
X28000Y2000D02*
D03*
X26000Y22000D02*
D03*
X27000Y20000D02*
D03*
X26000Y2000D02*
D03*
X24000Y22000D02*
D03*
X25000Y20000D02*
D03*
X24000Y18000D02*
D03*
Y2000D02*
D03*
X22000Y22000D02*
D03*
X23000Y20000D02*
D03*
Y4000D02*
D03*
X22000Y2000D02*
D03*
X20000Y22000D02*
D03*
X21000Y4000D02*
D03*
X18000Y18000D02*
D03*
X15000Y12000D02*
D03*
X8000Y2000D02*
D03*
X7000Y20000D02*
D03*
X6000Y18000D02*
D03*
Y14000D02*
D03*
Y10000D02*
D03*
X4000Y22000D02*
D03*
X5000Y20000D02*
D03*
X4000Y18000D02*
D03*
X5000Y12000D02*
D03*
Y8000D02*
D03*
X2000Y22000D02*
D03*
X3000Y20000D02*
D03*
X2000Y18000D02*
D03*
Y14000D02*
D03*
X3000Y12000D02*
D03*
X2000Y10000D02*
D03*
X3000Y8000D02*
D03*
X2000Y6000D02*
D03*
X3000Y4000D02*
D03*
X2000Y2000D02*
D03*
X11225Y12100D02*
D03*
X14400Y3850D02*
D03*
X17650Y8800D02*
D03*
X4350Y5950D02*
D03*
X17550Y9800D02*
D03*
X17050Y8000D02*
D03*
X46350Y6100D02*
D03*
M02*
