M48
;Layer_Color=9474304
;FILE_FORMAT=4:3
METRIC,LZ
;TYPE=PLATED
T1F00S00C0.300
T2F00S00C1.400
%
T01
X003Y0002
X0032
X0034
X0036
X0038
X004
X0042
X0044
X0046
X0048
X005
X0052
X0054
X0056
X0058
X0059Y0004
X0057
X0055
X0053
X0051
X0049
X0047
X004635Y00061
X0052Y0006
X0054
X0056
X0058
X0059Y0008
X0057
X0055
X0053
Y0012
X0057
X0059
X0058Y0014
X0059Y0016
X0057
X0058Y0018
X0056
X0054
X0052
X0053Y002
X0055
X0057
X0059
X0058Y0022
X0056
X0054
X0052
X005
X0048
X0046
X0044
X0042
X004
X0038
X0036
X0034
X0032
X003
X0031Y002
X0033
X0035
X0037
X0039
X0041
X0043
X0045
X0047
X0049
X0051
X0053Y0016
X0058Y001
X0028Y0002
X0026
X0024
X0022
X0023Y0004
X0021
X0017275Y000605
X001725Y0007025
X00166Y0006525
X0016575Y000545
X0015625Y0004975
X00148Y0005
X00144Y000385
X001705Y0008
X001765Y00088
X001755Y00098
X001625Y0011375
Y0012
X0015625
X0015Y0012
X0014375Y0012
Y0011325
X0015
X0015625Y00113
X00159Y001595
X001695
X0017975Y00168
X0018Y0018
X0016675Y0018325
X001525Y00183
X00147Y0016025
X0013775Y00153
X001355Y0014625
X0011225Y00121
X0005Y0012
X0003
X0002Y0014
X0006
Y0018
X0004
X0002
X0003Y002
X0005
X0007
X0004Y0022
X0002
Y001
X0003Y0008
X0005
X000435Y000595
X0002Y0006
X0003Y0004
X0002Y0002
X0008
X0006Y001
X0024Y0018
X0025Y002
X0027
X0029
X0028Y0022
X0026
X0024
X0022
X002
X0023Y002
T02
X0049Y001055
Y001475
X00545
Y001055
X00095Y001025
Y001445
X0004
Y001025
M30
