G04*
G04 #@! TF.GenerationSoftware,Altium Limited,Altium Designer,19.1.6 (110)*
G04*
G04 Layer_Color=32896*
%FSLAX43Y43*%
%MOMM*%
G71*
G01*
G75*
%ADD10C,0.200*%
%ADD11C,0.250*%
%ADD56C,0.600*%
%ADD57C,0.400*%
G36*
X34461Y2290D02*
X34502Y2282D01*
X34537Y2269D01*
X34568Y2255D01*
X34592Y2241D01*
X34609Y2228D01*
X34621Y2220D01*
X34625Y2216D01*
X34640Y2200D01*
X34652Y2183D01*
X34675Y2144D01*
X34695Y2103D01*
X34711Y2062D01*
X34720Y2025D01*
X34724Y2009D01*
X34728Y1994D01*
X34730Y1982D01*
X34732Y1974D01*
X34734Y1968D01*
Y1966D01*
X34553Y1929D01*
X34549Y1958D01*
X34543Y1984D01*
X34537Y2005D01*
X34529Y2023D01*
X34521Y2036D01*
X34515Y2046D01*
X34512Y2052D01*
X34510Y2054D01*
X34496Y2068D01*
X34480Y2079D01*
X34467Y2087D01*
X34453Y2091D01*
X34441Y2095D01*
X34432Y2097D01*
X34424D01*
X34406Y2095D01*
X34389Y2091D01*
X34375Y2085D01*
X34363Y2079D01*
X34354Y2072D01*
X34348Y2066D01*
X34344Y2062D01*
X34342Y2060D01*
X34330Y2044D01*
X34322Y2029D01*
X34316Y2011D01*
X34313Y1994D01*
X34311Y1980D01*
X34309Y1968D01*
Y1960D01*
Y1956D01*
X34311Y1929D01*
X34316Y1906D01*
X34322Y1886D01*
X34330Y1869D01*
X34340Y1855D01*
X34346Y1845D01*
X34352Y1839D01*
X34354Y1837D01*
X34371Y1824D01*
X34391Y1812D01*
X34412Y1806D01*
X34432Y1800D01*
X34447Y1798D01*
X34463Y1796D01*
X34474D01*
X34494Y1599D01*
X34459Y1611D01*
X34443Y1615D01*
X34432Y1617D01*
X34420Y1619D01*
X34406D01*
X34385Y1617D01*
X34365Y1611D01*
X34350Y1601D01*
X34336Y1594D01*
X34324Y1584D01*
X34316Y1574D01*
X34311Y1568D01*
X34309Y1566D01*
X34295Y1545D01*
X34285Y1521D01*
X34277Y1498D01*
X34274Y1475D01*
X34270Y1455D01*
X34268Y1440D01*
Y1428D01*
Y1426D01*
Y1424D01*
X34270Y1389D01*
X34274Y1358D01*
X34281Y1332D01*
X34289Y1309D01*
X34297Y1293D01*
X34305Y1280D01*
X34309Y1272D01*
X34311Y1270D01*
X34326Y1252D01*
X34344Y1239D01*
X34361Y1229D01*
X34377Y1223D01*
X34391Y1219D01*
X34402Y1215D01*
X34412D01*
X34432Y1217D01*
X34449Y1223D01*
X34467Y1229D01*
X34480Y1239D01*
X34492Y1246D01*
X34500Y1252D01*
X34506Y1258D01*
X34508Y1260D01*
X34521Y1280D01*
X34533Y1301D01*
X34541Y1324D01*
X34547Y1346D01*
X34551Y1365D01*
X34553Y1381D01*
X34554Y1393D01*
Y1397D01*
X34748Y1371D01*
X34740Y1313D01*
X34724Y1260D01*
X34707Y1215D01*
X34689Y1178D01*
X34679Y1163D01*
X34672Y1149D01*
X34662Y1137D01*
X34656Y1127D01*
X34648Y1120D01*
X34644Y1114D01*
X34642Y1112D01*
X34640Y1110D01*
X34623Y1094D01*
X34603Y1079D01*
X34564Y1055D01*
X34527Y1040D01*
X34490Y1028D01*
X34459Y1022D01*
X34445Y1018D01*
X34434D01*
X34424Y1016D01*
X34410D01*
X34385Y1018D01*
X34359Y1020D01*
X34336Y1026D01*
X34313Y1034D01*
X34272Y1051D01*
X34236Y1073D01*
X34207Y1092D01*
X34196Y1102D01*
X34186Y1110D01*
X34178Y1118D01*
X34172Y1124D01*
X34170Y1125D01*
X34168Y1127D01*
X34151Y1149D01*
X34133Y1172D01*
X34119Y1196D01*
X34108Y1219D01*
X34090Y1266D01*
X34078Y1311D01*
X34073Y1330D01*
X34071Y1350D01*
X34069Y1367D01*
X34067Y1381D01*
X34065Y1395D01*
Y1402D01*
Y1408D01*
Y1410D01*
X34067Y1453D01*
X34073Y1492D01*
X34082Y1525D01*
X34092Y1553D01*
X34102Y1576D01*
X34112Y1594D01*
X34118Y1603D01*
X34119Y1607D01*
X34141Y1635D01*
X34164Y1656D01*
X34188Y1674D01*
X34209Y1687D01*
X34231Y1697D01*
X34246Y1705D01*
X34256Y1707D01*
X34258Y1709D01*
X34260D01*
X34235Y1728D01*
X34211Y1748D01*
X34192Y1767D01*
X34176Y1785D01*
X34164Y1800D01*
X34157Y1812D01*
X34151Y1822D01*
X34149Y1824D01*
X34135Y1849D01*
X34125Y1875D01*
X34119Y1900D01*
X34114Y1923D01*
X34112Y1943D01*
X34110Y1958D01*
Y1968D01*
Y1972D01*
Y1995D01*
X34114Y2017D01*
X34123Y2058D01*
X34137Y2095D01*
X34151Y2128D01*
X34166Y2155D01*
X34180Y2175D01*
X34186Y2183D01*
X34190Y2189D01*
X34192Y2191D01*
X34194Y2193D01*
X34209Y2210D01*
X34227Y2226D01*
X34244Y2239D01*
X34262Y2251D01*
X34299Y2269D01*
X34336Y2282D01*
X34367Y2288D01*
X34381Y2290D01*
X34393Y2292D01*
X34402Y2294D01*
X34416D01*
X34461Y2290D01*
D02*
G37*
G36*
X33663D02*
X33704Y2282D01*
X33739Y2269D01*
X33770Y2255D01*
X33794Y2241D01*
X33811Y2228D01*
X33823Y2220D01*
X33827Y2216D01*
X33842Y2200D01*
X33854Y2183D01*
X33878Y2144D01*
X33897Y2103D01*
X33913Y2062D01*
X33922Y2025D01*
X33926Y2009D01*
X33930Y1994D01*
X33932Y1982D01*
X33934Y1974D01*
X33936Y1968D01*
Y1966D01*
X33755Y1929D01*
X33751Y1958D01*
X33745Y1984D01*
X33739Y2005D01*
X33731Y2023D01*
X33723Y2036D01*
X33718Y2046D01*
X33714Y2052D01*
X33712Y2054D01*
X33698Y2068D01*
X33682Y2079D01*
X33669Y2087D01*
X33655Y2091D01*
X33643Y2095D01*
X33634Y2097D01*
X33626D01*
X33608Y2095D01*
X33591Y2091D01*
X33577Y2085D01*
X33565Y2079D01*
X33556Y2072D01*
X33550Y2066D01*
X33546Y2062D01*
X33544Y2060D01*
X33532Y2044D01*
X33524Y2029D01*
X33519Y2011D01*
X33515Y1994D01*
X33513Y1980D01*
X33511Y1968D01*
Y1960D01*
Y1956D01*
X33513Y1929D01*
X33519Y1906D01*
X33524Y1886D01*
X33532Y1869D01*
X33542Y1855D01*
X33548Y1845D01*
X33554Y1839D01*
X33556Y1837D01*
X33573Y1824D01*
X33593Y1812D01*
X33614Y1806D01*
X33634Y1800D01*
X33649Y1798D01*
X33665Y1796D01*
X33677D01*
X33696Y1599D01*
X33661Y1611D01*
X33645Y1615D01*
X33634Y1617D01*
X33622Y1619D01*
X33608D01*
X33587Y1617D01*
X33567Y1611D01*
X33552Y1601D01*
X33538Y1594D01*
X33526Y1584D01*
X33519Y1574D01*
X33513Y1568D01*
X33511Y1566D01*
X33497Y1545D01*
X33487Y1521D01*
X33480Y1498D01*
X33476Y1475D01*
X33472Y1455D01*
X33470Y1440D01*
Y1428D01*
Y1426D01*
Y1424D01*
X33472Y1389D01*
X33476Y1358D01*
X33484Y1332D01*
X33491Y1309D01*
X33499Y1293D01*
X33507Y1280D01*
X33511Y1272D01*
X33513Y1270D01*
X33528Y1252D01*
X33546Y1239D01*
X33563Y1229D01*
X33579Y1223D01*
X33593Y1219D01*
X33604Y1215D01*
X33614D01*
X33634Y1217D01*
X33651Y1223D01*
X33669Y1229D01*
X33682Y1239D01*
X33694Y1246D01*
X33702Y1252D01*
X33708Y1258D01*
X33710Y1260D01*
X33723Y1280D01*
X33735Y1301D01*
X33743Y1324D01*
X33749Y1346D01*
X33753Y1365D01*
X33755Y1381D01*
X33757Y1393D01*
Y1397D01*
X33950Y1371D01*
X33942Y1313D01*
X33926Y1260D01*
X33909Y1215D01*
X33891Y1178D01*
X33881Y1163D01*
X33874Y1149D01*
X33864Y1137D01*
X33858Y1127D01*
X33850Y1120D01*
X33846Y1114D01*
X33844Y1112D01*
X33842Y1110D01*
X33825Y1094D01*
X33805Y1079D01*
X33766Y1055D01*
X33729Y1040D01*
X33692Y1028D01*
X33661Y1022D01*
X33647Y1018D01*
X33636D01*
X33626Y1016D01*
X33612D01*
X33587Y1018D01*
X33562Y1020D01*
X33538Y1026D01*
X33515Y1034D01*
X33474Y1051D01*
X33439Y1073D01*
X33409Y1092D01*
X33398Y1102D01*
X33388Y1110D01*
X33380Y1118D01*
X33374Y1124D01*
X33372Y1125D01*
X33370Y1127D01*
X33353Y1149D01*
X33335Y1172D01*
X33322Y1196D01*
X33310Y1219D01*
X33292Y1266D01*
X33281Y1311D01*
X33275Y1330D01*
X33273Y1350D01*
X33271Y1367D01*
X33269Y1381D01*
X33267Y1395D01*
Y1402D01*
Y1408D01*
Y1410D01*
X33269Y1453D01*
X33275Y1492D01*
X33285Y1525D01*
X33294Y1553D01*
X33304Y1576D01*
X33314Y1594D01*
X33320Y1603D01*
X33322Y1607D01*
X33343Y1635D01*
X33366Y1656D01*
X33390Y1674D01*
X33411Y1687D01*
X33433Y1697D01*
X33448Y1705D01*
X33458Y1707D01*
X33460Y1709D01*
X33462D01*
X33437Y1728D01*
X33413Y1748D01*
X33394Y1767D01*
X33378Y1785D01*
X33366Y1800D01*
X33359Y1812D01*
X33353Y1822D01*
X33351Y1824D01*
X33337Y1849D01*
X33327Y1875D01*
X33322Y1900D01*
X33316Y1923D01*
X33314Y1943D01*
X33312Y1958D01*
Y1968D01*
Y1972D01*
Y1995D01*
X33316Y2017D01*
X33326Y2058D01*
X33339Y2095D01*
X33353Y2128D01*
X33368Y2155D01*
X33382Y2175D01*
X33388Y2183D01*
X33392Y2189D01*
X33394Y2191D01*
X33396Y2193D01*
X33411Y2210D01*
X33429Y2226D01*
X33446Y2239D01*
X33464Y2251D01*
X33501Y2269D01*
X33538Y2282D01*
X33569Y2288D01*
X33583Y2290D01*
X33595Y2292D01*
X33604Y2294D01*
X33618D01*
X33663Y2290D01*
D02*
G37*
G36*
X32865Y2290D02*
X32906Y2282D01*
X32941Y2269D01*
X32972Y2255D01*
X32996Y2241D01*
X33013Y2228D01*
X33025Y2220D01*
X33029Y2216D01*
X33045Y2200D01*
X33056Y2183D01*
X33080Y2144D01*
X33099Y2103D01*
X33115Y2062D01*
X33125Y2025D01*
X33128Y2009D01*
X33132Y1994D01*
X33134Y1982D01*
X33136Y1974D01*
X33138Y1968D01*
Y1966D01*
X32957Y1929D01*
X32953Y1958D01*
X32947Y1984D01*
X32941Y2005D01*
X32933Y2023D01*
X32926Y2036D01*
X32920Y2046D01*
X32916Y2052D01*
X32914Y2054D01*
X32900Y2068D01*
X32885Y2079D01*
X32871Y2087D01*
X32857Y2091D01*
X32846Y2095D01*
X32836Y2097D01*
X32828D01*
X32811Y2095D01*
X32793Y2091D01*
X32779Y2085D01*
X32768Y2079D01*
X32758Y2072D01*
X32752Y2066D01*
X32748Y2062D01*
X32746Y2060D01*
X32734Y2044D01*
X32727Y2029D01*
X32721Y2011D01*
X32717Y1994D01*
X32715Y1980D01*
X32713Y1968D01*
Y1960D01*
Y1956D01*
X32715Y1929D01*
X32721Y1906D01*
X32727Y1886D01*
X32734Y1869D01*
X32744Y1855D01*
X32750Y1845D01*
X32756Y1839D01*
X32758Y1837D01*
X32775Y1824D01*
X32795Y1812D01*
X32816Y1806D01*
X32836Y1800D01*
X32851Y1798D01*
X32867Y1796D01*
X32879D01*
X32898Y1599D01*
X32863Y1611D01*
X32848Y1615D01*
X32836Y1617D01*
X32824Y1619D01*
X32811D01*
X32789Y1617D01*
X32770Y1611D01*
X32754Y1601D01*
X32740Y1594D01*
X32729Y1584D01*
X32721Y1574D01*
X32715Y1568D01*
X32713Y1566D01*
X32699Y1545D01*
X32690Y1521D01*
X32682Y1498D01*
X32678Y1475D01*
X32674Y1455D01*
X32672Y1440D01*
Y1428D01*
Y1426D01*
Y1424D01*
X32674Y1389D01*
X32678Y1358D01*
X32686Y1332D01*
X32693Y1309D01*
X32701Y1293D01*
X32709Y1280D01*
X32713Y1272D01*
X32715Y1270D01*
X32731Y1252D01*
X32748Y1239D01*
X32766Y1229D01*
X32781Y1223D01*
X32795Y1219D01*
X32807Y1215D01*
X32816D01*
X32836Y1217D01*
X32853Y1223D01*
X32871Y1229D01*
X32885Y1239D01*
X32896Y1246D01*
X32904Y1252D01*
X32910Y1258D01*
X32912Y1260D01*
X32926Y1280D01*
X32937Y1301D01*
X32945Y1324D01*
X32951Y1346D01*
X32955Y1365D01*
X32957Y1381D01*
X32959Y1393D01*
Y1397D01*
X33152Y1371D01*
X33144Y1313D01*
X33128Y1260D01*
X33111Y1215D01*
X33093Y1178D01*
X33084Y1163D01*
X33076Y1149D01*
X33066Y1137D01*
X33060Y1127D01*
X33052Y1120D01*
X33049Y1114D01*
X33047Y1112D01*
X33045Y1110D01*
X33027Y1094D01*
X33008Y1079D01*
X32969Y1055D01*
X32931Y1040D01*
X32894Y1028D01*
X32863Y1022D01*
X32850Y1018D01*
X32838D01*
X32828Y1016D01*
X32814D01*
X32789Y1018D01*
X32764Y1020D01*
X32740Y1026D01*
X32717Y1034D01*
X32676Y1051D01*
X32641Y1073D01*
X32612Y1092D01*
X32600Y1102D01*
X32590Y1110D01*
X32582Y1118D01*
X32576Y1123D01*
X32574Y1125D01*
X32573Y1127D01*
X32555Y1149D01*
X32537Y1172D01*
X32524Y1196D01*
X32512Y1219D01*
X32494Y1266D01*
X32483Y1311D01*
X32477Y1330D01*
X32475Y1350D01*
X32473Y1367D01*
X32471Y1381D01*
X32469Y1395D01*
Y1402D01*
Y1408D01*
Y1410D01*
X32471Y1453D01*
X32477Y1492D01*
X32487Y1525D01*
X32496Y1553D01*
X32506Y1576D01*
X32516Y1594D01*
X32522Y1603D01*
X32524Y1607D01*
X32545Y1635D01*
X32569Y1656D01*
X32592Y1674D01*
X32613Y1687D01*
X32635Y1697D01*
X32651Y1705D01*
X32660Y1707D01*
X32662Y1709D01*
X32664D01*
X32639Y1728D01*
X32615Y1748D01*
X32596Y1767D01*
X32580Y1785D01*
X32569Y1800D01*
X32561Y1812D01*
X32555Y1822D01*
X32553Y1824D01*
X32539Y1849D01*
X32530Y1875D01*
X32524Y1900D01*
X32518Y1923D01*
X32516Y1943D01*
X32514Y1958D01*
Y1968D01*
Y1972D01*
Y1995D01*
X32518Y2017D01*
X32528Y2058D01*
X32541Y2095D01*
X32555Y2128D01*
X32571Y2155D01*
X32584Y2175D01*
X32590Y2183D01*
X32594Y2189D01*
X32596Y2191D01*
X32598Y2193D01*
X32613Y2210D01*
X32631Y2226D01*
X32649Y2239D01*
X32666Y2251D01*
X32703Y2269D01*
X32740Y2282D01*
X32771Y2288D01*
X32785Y2290D01*
X32797Y2292D01*
X32807Y2294D01*
X32820D01*
X32865Y2290D01*
D02*
G37*
G36*
X31523Y1617D02*
X31363Y1592D01*
X31349Y1607D01*
X31338Y1623D01*
X31310Y1644D01*
X31285Y1662D01*
X31262Y1672D01*
X31242Y1679D01*
X31225Y1681D01*
X31215Y1683D01*
X31211D01*
X31188Y1681D01*
X31166Y1676D01*
X31147Y1666D01*
X31131Y1656D01*
X31119Y1644D01*
X31109Y1637D01*
X31104Y1629D01*
X31102Y1627D01*
X31086Y1603D01*
X31076Y1576D01*
X31069Y1547D01*
X31063Y1520D01*
X31059Y1494D01*
X31057Y1473D01*
Y1465D01*
Y1459D01*
Y1455D01*
Y1453D01*
X31059Y1410D01*
X31065Y1371D01*
X31070Y1340D01*
X31078Y1315D01*
X31088Y1293D01*
X31094Y1280D01*
X31100Y1270D01*
X31102Y1268D01*
X31119Y1248D01*
X31137Y1235D01*
X31152Y1223D01*
X31170Y1217D01*
X31184Y1213D01*
X31195Y1211D01*
X31203Y1209D01*
X31205D01*
X31225Y1211D01*
X31242Y1217D01*
X31258Y1225D01*
X31273Y1233D01*
X31285Y1241D01*
X31293Y1248D01*
X31299Y1254D01*
X31301Y1256D01*
X31314Y1276D01*
X31326Y1295D01*
X31336Y1317D01*
X31342Y1338D01*
X31346Y1356D01*
X31347Y1371D01*
X31349Y1381D01*
Y1385D01*
X31546Y1360D01*
X31537Y1301D01*
X31521Y1250D01*
X31504Y1205D01*
X31486Y1170D01*
X31476Y1155D01*
X31466Y1141D01*
X31459Y1129D01*
X31451Y1122D01*
X31445Y1114D01*
X31441Y1108D01*
X31437Y1106D01*
Y1104D01*
X31420Y1088D01*
X31400Y1075D01*
X31363Y1053D01*
X31324Y1038D01*
X31289Y1028D01*
X31258Y1020D01*
X31244Y1018D01*
X31232D01*
X31223Y1016D01*
X31209D01*
X31178Y1018D01*
X31149Y1022D01*
X31121Y1030D01*
X31096Y1038D01*
X31051Y1059D01*
X31031Y1073D01*
X31014Y1086D01*
X30998Y1098D01*
X30985Y1112D01*
X30975Y1123D01*
X30965Y1133D01*
X30957Y1141D01*
X30951Y1149D01*
X30950Y1153D01*
X30948Y1155D01*
X30932Y1180D01*
X30916Y1207D01*
X30895Y1260D01*
X30877Y1311D01*
X30868Y1358D01*
X30864Y1379D01*
X30860Y1399D01*
X30858Y1414D01*
Y1430D01*
X30856Y1441D01*
Y1449D01*
Y1455D01*
Y1457D01*
X30858Y1494D01*
X30860Y1529D01*
X30866Y1562D01*
X30873Y1592D01*
X30881Y1621D01*
X30889Y1648D01*
X30899Y1672D01*
X30909Y1693D01*
X30920Y1713D01*
X30930Y1730D01*
X30938Y1746D01*
X30946Y1757D01*
X30953Y1767D01*
X30959Y1773D01*
X30961Y1777D01*
X30963Y1779D01*
X30979Y1796D01*
X30996Y1812D01*
X31014Y1824D01*
X31031Y1836D01*
X31067Y1853D01*
X31098Y1865D01*
X31127Y1871D01*
X31150Y1875D01*
X31158Y1876D01*
X31170D01*
X31195Y1875D01*
X31221Y1871D01*
X31242Y1863D01*
X31264Y1855D01*
X31279Y1847D01*
X31293Y1839D01*
X31301Y1836D01*
X31305Y1834D01*
X31271Y2048D01*
X30903D01*
Y2272D01*
X31422D01*
X31523Y1617D01*
D02*
G37*
G36*
X32019Y2253D02*
X32036Y2216D01*
X32058Y2181D01*
X32077Y2152D01*
X32097Y2128D01*
X32112Y2111D01*
X32122Y2099D01*
X32124Y2097D01*
X32126Y2095D01*
X32159Y2066D01*
X32190Y2042D01*
X32217Y2021D01*
X32243Y2005D01*
X32264Y1994D01*
X32282Y1984D01*
X32292Y1980D01*
X32296Y1978D01*
Y1759D01*
X32243Y1783D01*
X32194Y1812D01*
X32151Y1841D01*
X32114Y1871D01*
X32083Y1898D01*
X32069Y1910D01*
X32059Y1921D01*
X32052Y1929D01*
X32046Y1935D01*
X32042Y1939D01*
X32040Y1941D01*
Y1038D01*
X31843D01*
Y2294D01*
X32003D01*
X32019Y2253D01*
D02*
G37*
G36*
X29611Y2292D02*
X29639Y2288D01*
X29666Y2280D01*
X29693Y2271D01*
X29738Y2245D01*
X29777Y2218D01*
X29795Y2204D01*
X29808Y2191D01*
X29822Y2177D01*
X29832Y2165D01*
X29840Y2155D01*
X29845Y2148D01*
X29849Y2144D01*
X29851Y2142D01*
X29869Y2111D01*
X29884Y2077D01*
X29900Y2040D01*
X29912Y2001D01*
X29929Y1919D01*
X29941Y1837D01*
X29947Y1798D01*
X29949Y1763D01*
X29951Y1730D01*
X29953Y1703D01*
X29955Y1679D01*
Y1662D01*
Y1650D01*
Y1648D01*
Y1646D01*
X29953Y1586D01*
X29951Y1529D01*
X29945Y1477D01*
X29939Y1428D01*
X29931Y1385D01*
X29923Y1346D01*
X29914Y1309D01*
X29904Y1278D01*
X29896Y1250D01*
X29886Y1227D01*
X29879Y1207D01*
X29871Y1190D01*
X29865Y1178D01*
X29859Y1170D01*
X29857Y1164D01*
X29855Y1163D01*
X29836Y1137D01*
X29814Y1114D01*
X29795Y1094D01*
X29773Y1079D01*
X29752Y1063D01*
X29730Y1051D01*
X29709Y1042D01*
X29689Y1034D01*
X29654Y1024D01*
X29639Y1020D01*
X29625Y1018D01*
X29615D01*
X29605Y1016D01*
X29600D01*
X29574Y1018D01*
X29549Y1020D01*
X29525Y1026D01*
X29504Y1034D01*
X29463Y1051D01*
X29428Y1073D01*
X29401Y1092D01*
X29381Y1110D01*
X29373Y1118D01*
X29368Y1123D01*
X29366Y1125D01*
X29364Y1127D01*
X29346Y1149D01*
X29332Y1174D01*
X29319Y1198D01*
X29309Y1225D01*
X29291Y1276D01*
X29280Y1326D01*
X29276Y1350D01*
X29274Y1371D01*
X29270Y1391D01*
Y1406D01*
X29268Y1420D01*
Y1432D01*
Y1438D01*
Y1440D01*
Y1473D01*
X29272Y1506D01*
X29282Y1564D01*
X29289Y1592D01*
X29297Y1615D01*
X29305Y1638D01*
X29313Y1658D01*
X29323Y1676D01*
X29330Y1693D01*
X29338Y1707D01*
X29346Y1717D01*
X29352Y1726D01*
X29356Y1732D01*
X29358Y1736D01*
X29360Y1738D01*
X29377Y1757D01*
X29395Y1775D01*
X29412Y1791D01*
X29430Y1804D01*
X29447Y1814D01*
X29465Y1824D01*
X29498Y1837D01*
X29527Y1845D01*
X29551Y1849D01*
X29559Y1851D01*
X29570D01*
X29590Y1849D01*
X29609Y1847D01*
X29625Y1843D01*
X29641Y1837D01*
X29652Y1832D01*
X29662Y1828D01*
X29668Y1826D01*
X29670Y1824D01*
X29685Y1812D01*
X29701Y1800D01*
X29715Y1787D01*
X29728Y1773D01*
X29738Y1761D01*
X29746Y1752D01*
X29750Y1746D01*
X29752Y1744D01*
X29750Y1783D01*
X29746Y1818D01*
X29744Y1849D01*
X29740Y1878D01*
X29734Y1904D01*
X29730Y1927D01*
X29726Y1947D01*
X29723Y1964D01*
X29717Y1980D01*
X29713Y1994D01*
X29709Y2003D01*
X29705Y2013D01*
X29703Y2019D01*
X29701Y2023D01*
X29699Y2027D01*
X29682Y2050D01*
X29664Y2068D01*
X29646Y2079D01*
X29631Y2089D01*
X29615Y2093D01*
X29604Y2095D01*
X29596Y2097D01*
X29594D01*
X29576Y2095D01*
X29561Y2091D01*
X29547Y2083D01*
X29533Y2075D01*
X29514Y2054D01*
X29500Y2029D01*
X29490Y2001D01*
X29485Y1980D01*
X29483Y1972D01*
X29481Y1964D01*
Y1960D01*
Y1958D01*
X29288Y1984D01*
X29297Y2038D01*
X29313Y2085D01*
X29328Y2126D01*
X29346Y2159D01*
X29362Y2183D01*
X29375Y2202D01*
X29385Y2212D01*
X29389Y2216D01*
X29420Y2241D01*
X29451Y2261D01*
X29485Y2274D01*
X29514Y2284D01*
X29541Y2290D01*
X29561Y2292D01*
X29568Y2294D01*
X29580D01*
X29611Y2292D01*
D02*
G37*
G36*
X27618D02*
X27645Y2288D01*
X27672Y2280D01*
X27700Y2271D01*
X27744Y2245D01*
X27784Y2218D01*
X27801Y2204D01*
X27815Y2191D01*
X27828Y2177D01*
X27838Y2165D01*
X27846Y2155D01*
X27852Y2148D01*
X27856Y2144D01*
X27858Y2142D01*
X27875Y2111D01*
X27891Y2077D01*
X27906Y2040D01*
X27918Y2001D01*
X27936Y1919D01*
X27947Y1837D01*
X27953Y1798D01*
X27955Y1763D01*
X27957Y1730D01*
X27959Y1703D01*
X27961Y1679D01*
Y1662D01*
Y1650D01*
Y1648D01*
Y1646D01*
X27959Y1586D01*
X27957Y1529D01*
X27951Y1477D01*
X27945Y1428D01*
X27938Y1385D01*
X27930Y1346D01*
X27920Y1309D01*
X27910Y1278D01*
X27903Y1250D01*
X27893Y1227D01*
X27885Y1207D01*
X27877Y1190D01*
X27871Y1178D01*
X27865Y1170D01*
X27863Y1164D01*
X27862Y1163D01*
X27842Y1137D01*
X27821Y1114D01*
X27801Y1094D01*
X27780Y1079D01*
X27758Y1063D01*
X27737Y1051D01*
X27715Y1042D01*
X27696Y1034D01*
X27661Y1024D01*
X27645Y1020D01*
X27631Y1018D01*
X27622D01*
X27612Y1016D01*
X27606D01*
X27581Y1018D01*
X27555Y1020D01*
X27532Y1026D01*
X27510Y1034D01*
X27469Y1051D01*
X27434Y1073D01*
X27407Y1092D01*
X27388Y1110D01*
X27380Y1118D01*
X27374Y1123D01*
X27372Y1125D01*
X27370Y1127D01*
X27352Y1149D01*
X27339Y1174D01*
X27325Y1198D01*
X27315Y1225D01*
X27298Y1276D01*
X27286Y1326D01*
X27282Y1350D01*
X27280Y1371D01*
X27276Y1391D01*
Y1406D01*
X27274Y1420D01*
Y1432D01*
Y1438D01*
Y1440D01*
Y1473D01*
X27278Y1506D01*
X27288Y1564D01*
X27296Y1592D01*
X27304Y1615D01*
X27311Y1638D01*
X27319Y1658D01*
X27329Y1676D01*
X27337Y1693D01*
X27345Y1707D01*
X27352Y1717D01*
X27358Y1726D01*
X27362Y1732D01*
X27364Y1736D01*
X27366Y1738D01*
X27384Y1757D01*
X27401Y1775D01*
X27419Y1791D01*
X27436Y1804D01*
X27454Y1814D01*
X27471Y1824D01*
X27505Y1837D01*
X27534Y1845D01*
X27557Y1849D01*
X27565Y1851D01*
X27577D01*
X27596Y1849D01*
X27616Y1847D01*
X27631Y1843D01*
X27647Y1837D01*
X27659Y1832D01*
X27668Y1828D01*
X27674Y1826D01*
X27676Y1824D01*
X27692Y1812D01*
X27707Y1800D01*
X27721Y1787D01*
X27735Y1773D01*
X27744Y1761D01*
X27752Y1752D01*
X27756Y1746D01*
X27758Y1744D01*
X27756Y1783D01*
X27752Y1818D01*
X27750Y1849D01*
X27746Y1878D01*
X27741Y1904D01*
X27737Y1927D01*
X27733Y1947D01*
X27729Y1964D01*
X27723Y1980D01*
X27719Y1994D01*
X27715Y2003D01*
X27711Y2013D01*
X27709Y2019D01*
X27707Y2023D01*
X27705Y2027D01*
X27688Y2050D01*
X27670Y2068D01*
X27653Y2079D01*
X27637Y2089D01*
X27622Y2093D01*
X27610Y2095D01*
X27602Y2097D01*
X27600D01*
X27583Y2095D01*
X27567Y2091D01*
X27553Y2083D01*
X27540Y2075D01*
X27520Y2054D01*
X27507Y2029D01*
X27497Y2001D01*
X27491Y1980D01*
X27489Y1972D01*
X27487Y1964D01*
Y1960D01*
Y1958D01*
X27294Y1984D01*
X27304Y2038D01*
X27319Y2085D01*
X27335Y2126D01*
X27352Y2159D01*
X27368Y2183D01*
X27382Y2202D01*
X27391Y2212D01*
X27395Y2216D01*
X27427Y2241D01*
X27458Y2261D01*
X27491Y2274D01*
X27520Y2284D01*
X27547Y2290D01*
X27567Y2292D01*
X27575Y2294D01*
X27586D01*
X27618Y2292D01*
D02*
G37*
G36*
X35715Y1389D02*
X35727Y1354D01*
X35737Y1322D01*
X35746Y1299D01*
X35756Y1282D01*
X35764Y1268D01*
X35770Y1258D01*
X35774Y1254D01*
X35776Y1252D01*
X35789Y1242D01*
X35805Y1235D01*
X35822Y1229D01*
X35840Y1225D01*
X35856Y1223D01*
X35869Y1221D01*
X35904D01*
X35928Y1223D01*
X35957D01*
Y1038D01*
X35908Y1028D01*
X35885Y1026D01*
X35861Y1024D01*
X35844Y1022D01*
X35815D01*
X35783Y1026D01*
X35756Y1034D01*
X35733Y1044D01*
X35711Y1057D01*
X35694Y1071D01*
X35680Y1081D01*
X35672Y1088D01*
X35670Y1092D01*
X35659Y1106D01*
X35647Y1124D01*
X35625Y1161D01*
X35604Y1200D01*
X35584Y1241D01*
X35569Y1278D01*
X35563Y1293D01*
X35557Y1309D01*
X35551Y1321D01*
X35547Y1328D01*
X35545Y1334D01*
Y1336D01*
X35200Y2288D01*
X35415D01*
X35621Y1638D01*
X35859Y2288D01*
X36092D01*
X35715Y1389D01*
D02*
G37*
G36*
X39716Y2308D02*
X39751Y2304D01*
X39786Y2296D01*
X39819Y2284D01*
X39849Y2272D01*
X39876Y2259D01*
X39901Y2245D01*
X39925Y2232D01*
X39944Y2216D01*
X39964Y2202D01*
X39979Y2189D01*
X39991Y2177D01*
X40001Y2167D01*
X40009Y2159D01*
X40013Y2153D01*
X40015Y2152D01*
X40040Y2116D01*
X40061Y2077D01*
X40081Y2038D01*
X40096Y1997D01*
X40110Y1955D01*
X40122Y1914D01*
X40132Y1873D01*
X40139Y1834D01*
X40145Y1796D01*
X40149Y1761D01*
X40153Y1730D01*
X40155Y1703D01*
Y1681D01*
X40157Y1664D01*
Y1654D01*
Y1650D01*
X40155Y1596D01*
X40151Y1543D01*
X40143Y1494D01*
X40135Y1447D01*
X40124Y1404D01*
X40112Y1365D01*
X40098Y1330D01*
X40085Y1297D01*
X40073Y1268D01*
X40059Y1242D01*
X40048Y1221D01*
X40036Y1203D01*
X40028Y1188D01*
X40020Y1178D01*
X40016Y1172D01*
X40015Y1170D01*
X39991Y1143D01*
X39964Y1120D01*
X39938Y1098D01*
X39911Y1081D01*
X39884Y1067D01*
X39857Y1053D01*
X39829Y1044D01*
X39804Y1036D01*
X39780Y1030D01*
X39759Y1024D01*
X39739Y1020D01*
X39722Y1018D01*
X39708D01*
X39699Y1016D01*
X39689D01*
X39659Y1018D01*
X39632Y1020D01*
X39580Y1032D01*
X39535Y1047D01*
X39496Y1065D01*
X39480Y1073D01*
X39464Y1083D01*
X39451Y1090D01*
X39441Y1096D01*
X39433Y1104D01*
X39427Y1108D01*
X39423Y1110D01*
X39422Y1112D01*
X39402Y1131D01*
X39382Y1153D01*
X39351Y1202D01*
X39324Y1252D01*
X39301Y1303D01*
X39293Y1326D01*
X39285Y1348D01*
X39277Y1367D01*
X39273Y1385D01*
X39269Y1401D01*
X39265Y1410D01*
X39264Y1418D01*
Y1420D01*
X39464Y1498D01*
X39476Y1449D01*
X39490Y1408D01*
X39503Y1373D01*
X39519Y1344D01*
X39531Y1322D01*
X39542Y1307D01*
X39550Y1299D01*
X39552Y1295D01*
X39576Y1274D01*
X39599Y1260D01*
X39622Y1248D01*
X39644Y1241D01*
X39663Y1237D01*
X39679Y1235D01*
X39689Y1233D01*
X39693D01*
X39712Y1235D01*
X39732Y1237D01*
X39769Y1248D01*
X39798Y1264D01*
X39825Y1283D01*
X39847Y1301D01*
X39860Y1317D01*
X39870Y1328D01*
X39874Y1330D01*
Y1332D01*
X39886Y1352D01*
X39897Y1375D01*
X39905Y1401D01*
X39913Y1426D01*
X39925Y1482D01*
X39935Y1537D01*
X39937Y1564D01*
X39938Y1588D01*
X39940Y1609D01*
Y1629D01*
X39942Y1646D01*
Y1658D01*
Y1666D01*
Y1668D01*
Y1709D01*
X39938Y1748D01*
X39937Y1783D01*
X39931Y1814D01*
X39927Y1843D01*
X39921Y1871D01*
X39913Y1894D01*
X39907Y1916D01*
X39901Y1935D01*
X39894Y1951D01*
X39888Y1964D01*
X39884Y1974D01*
X39878Y1984D01*
X39876Y1990D01*
X39872Y1992D01*
Y1994D01*
X39858Y2011D01*
X39843Y2027D01*
X39827Y2040D01*
X39814Y2052D01*
X39782Y2070D01*
X39753Y2081D01*
X39726Y2087D01*
X39706Y2091D01*
X39699Y2093D01*
X39687D01*
X39658Y2091D01*
X39632Y2085D01*
X39609Y2075D01*
X39589Y2066D01*
X39572Y2056D01*
X39560Y2046D01*
X39552Y2040D01*
X39550Y2038D01*
X39531Y2017D01*
X39513Y1992D01*
X39500Y1964D01*
X39488Y1941D01*
X39480Y1917D01*
X39474Y1900D01*
X39470Y1886D01*
Y1884D01*
Y1882D01*
X39265Y1943D01*
X39281Y2001D01*
X39301Y2050D01*
X39322Y2093D01*
X39342Y2128D01*
X39359Y2155D01*
X39375Y2175D01*
X39381Y2183D01*
X39384Y2187D01*
X39386Y2191D01*
X39388D01*
X39410Y2212D01*
X39433Y2230D01*
X39459Y2245D01*
X39482Y2259D01*
X39505Y2271D01*
X39531Y2280D01*
X39576Y2294D01*
X39597Y2300D01*
X39617Y2304D01*
X39634Y2306D01*
X39648Y2308D01*
X39659Y2310D01*
X39677D01*
X39716Y2308D01*
D02*
G37*
G36*
X39084Y1038D02*
X38877D01*
Y2075D01*
X38472D01*
Y1038D01*
X38265D01*
Y2288D01*
X39084D01*
Y1038D01*
D02*
G37*
G36*
X38048D02*
X37549D01*
X37514Y1040D01*
X37481Y1044D01*
X37451Y1047D01*
X37424Y1055D01*
X37399Y1063D01*
X37375Y1073D01*
X37356Y1084D01*
X37338Y1094D01*
X37323Y1104D01*
X37309Y1116D01*
X37299Y1125D01*
X37289Y1133D01*
X37282Y1141D01*
X37278Y1147D01*
X37274Y1149D01*
Y1151D01*
X37246Y1194D01*
X37227Y1239D01*
X37211Y1283D01*
X37202Y1324D01*
X37196Y1360D01*
X37194Y1375D01*
Y1387D01*
X37192Y1399D01*
Y1406D01*
Y1410D01*
Y1412D01*
X37194Y1443D01*
X37196Y1473D01*
X37207Y1527D01*
X37221Y1574D01*
X37231Y1594D01*
X37239Y1613D01*
X37248Y1629D01*
X37256Y1644D01*
X37266Y1656D01*
X37272Y1666D01*
X37278Y1676D01*
X37284Y1681D01*
X37285Y1683D01*
X37287Y1685D01*
X37307Y1705D01*
X37326Y1720D01*
X37348Y1734D01*
X37369Y1746D01*
X37412Y1765D01*
X37453Y1777D01*
X37490Y1785D01*
X37508Y1787D01*
X37521Y1789D01*
X37533Y1791D01*
X37841D01*
Y2075D01*
X37282D01*
Y2288D01*
X38048D01*
Y1038D01*
D02*
G37*
G36*
X37018D02*
X36811D01*
Y2075D01*
X36406D01*
Y1038D01*
X36199D01*
Y2288D01*
X37018D01*
Y1038D01*
D02*
G37*
G36*
X35099D02*
X34902D01*
Y1278D01*
X35099D01*
Y1038D01*
D02*
G37*
G36*
X29116Y1038D02*
X28919D01*
Y1278D01*
X29116D01*
Y1038D01*
D02*
G37*
G36*
X30448Y2292D02*
X30474Y2288D01*
X30499Y2280D01*
X30520Y2272D01*
X30561Y2249D01*
X30596Y2224D01*
X30624Y2196D01*
X30643Y2173D01*
X30651Y2165D01*
X30657Y2157D01*
X30659Y2153D01*
X30661Y2152D01*
X30676Y2122D01*
X30690Y2089D01*
X30704Y2052D01*
X30713Y2015D01*
X30729Y1933D01*
X30741Y1851D01*
X30745Y1812D01*
X30747Y1775D01*
X30751Y1742D01*
Y1713D01*
X30753Y1689D01*
Y1672D01*
Y1660D01*
Y1658D01*
Y1656D01*
X30751Y1592D01*
X30749Y1531D01*
X30745Y1477D01*
X30739Y1426D01*
X30731Y1381D01*
X30723Y1340D01*
X30715Y1303D01*
X30706Y1272D01*
X30698Y1244D01*
X30690Y1221D01*
X30682Y1200D01*
X30674Y1184D01*
X30669Y1172D01*
X30665Y1163D01*
X30661Y1159D01*
Y1157D01*
X30643Y1131D01*
X30624Y1110D01*
X30604Y1092D01*
X30585Y1075D01*
X30563Y1061D01*
X30544Y1051D01*
X30524Y1042D01*
X30505Y1034D01*
X30472Y1024D01*
X30456Y1020D01*
X30444Y1018D01*
X30433D01*
X30425Y1016D01*
X30419D01*
X30392Y1018D01*
X30366Y1022D01*
X30341Y1030D01*
X30319Y1038D01*
X30278Y1061D01*
X30243Y1086D01*
X30216Y1112D01*
X30195Y1135D01*
X30189Y1143D01*
X30183Y1151D01*
X30181Y1155D01*
X30179Y1157D01*
X30163Y1186D01*
X30148Y1219D01*
X30136Y1256D01*
X30124Y1295D01*
X30109Y1377D01*
X30097Y1459D01*
X30093Y1498D01*
X30089Y1535D01*
X30087Y1568D01*
Y1596D01*
X30085Y1621D01*
Y1638D01*
Y1650D01*
Y1654D01*
X30087Y1718D01*
X30089Y1777D01*
X30093Y1832D01*
X30099Y1882D01*
X30107Y1927D01*
X30115Y1968D01*
X30122Y2003D01*
X30132Y2036D01*
X30140Y2064D01*
X30150Y2087D01*
X30158Y2109D01*
X30163Y2124D01*
X30171Y2136D01*
X30175Y2146D01*
X30177Y2150D01*
X30179Y2152D01*
X30197Y2177D01*
X30216Y2198D01*
X30236Y2218D01*
X30255Y2233D01*
X30277Y2247D01*
X30296Y2259D01*
X30316Y2269D01*
X30335Y2276D01*
X30368Y2286D01*
X30384Y2290D01*
X30396Y2292D01*
X30407Y2294D01*
X30421D01*
X30448Y2292D01*
D02*
G37*
G36*
X28455D02*
X28480Y2288D01*
X28505Y2280D01*
X28527Y2272D01*
X28568Y2249D01*
X28603Y2224D01*
X28630Y2196D01*
X28650Y2173D01*
X28657Y2165D01*
X28663Y2157D01*
X28665Y2153D01*
X28667Y2152D01*
X28683Y2122D01*
X28696Y2089D01*
X28710Y2052D01*
X28720Y2015D01*
X28735Y1933D01*
X28747Y1851D01*
X28751Y1812D01*
X28753Y1775D01*
X28757Y1742D01*
Y1713D01*
X28759Y1689D01*
Y1672D01*
Y1660D01*
Y1658D01*
Y1656D01*
X28757Y1592D01*
X28755Y1531D01*
X28751Y1477D01*
X28745Y1426D01*
X28737Y1381D01*
X28730Y1340D01*
X28722Y1303D01*
X28712Y1272D01*
X28704Y1244D01*
X28696Y1221D01*
X28689Y1200D01*
X28681Y1184D01*
X28675Y1172D01*
X28671Y1163D01*
X28667Y1159D01*
Y1157D01*
X28650Y1131D01*
X28630Y1110D01*
X28611Y1092D01*
X28591Y1075D01*
X28570Y1061D01*
X28550Y1051D01*
X28531Y1042D01*
X28511Y1034D01*
X28478Y1024D01*
X28462Y1020D01*
X28451Y1018D01*
X28439D01*
X28431Y1016D01*
X28425D01*
X28398Y1018D01*
X28373Y1022D01*
X28347Y1030D01*
X28326Y1038D01*
X28285Y1061D01*
X28250Y1086D01*
X28222Y1112D01*
X28201Y1135D01*
X28195Y1143D01*
X28189Y1151D01*
X28187Y1155D01*
X28185Y1157D01*
X28170Y1186D01*
X28154Y1219D01*
X28142Y1256D01*
X28131Y1295D01*
X28115Y1377D01*
X28103Y1459D01*
X28100Y1498D01*
X28096Y1535D01*
X28094Y1568D01*
Y1596D01*
X28092Y1621D01*
Y1638D01*
Y1650D01*
Y1654D01*
X28094Y1718D01*
X28096Y1777D01*
X28100Y1832D01*
X28105Y1882D01*
X28113Y1927D01*
X28121Y1968D01*
X28129Y2003D01*
X28139Y2036D01*
X28146Y2064D01*
X28156Y2087D01*
X28164Y2109D01*
X28170Y2124D01*
X28178Y2136D01*
X28181Y2146D01*
X28183Y2150D01*
X28185Y2152D01*
X28203Y2177D01*
X28222Y2198D01*
X28242Y2218D01*
X28261Y2233D01*
X28283Y2247D01*
X28302Y2259D01*
X28322Y2269D01*
X28341Y2276D01*
X28375Y2286D01*
X28390Y2290D01*
X28402Y2292D01*
X28414Y2294D01*
X28427D01*
X28455Y2292D01*
D02*
G37*
G36*
X12088Y6802D02*
X12112Y6797D01*
X12133Y6789D01*
X12152Y6781D01*
X12166Y6772D01*
X12177Y6764D01*
X12184Y6760D01*
X12186Y6757D01*
X12195Y6748D01*
X12202Y6737D01*
X12217Y6714D01*
X12228Y6689D01*
X12238Y6665D01*
X12243Y6642D01*
X12246Y6633D01*
X12248Y6624D01*
X12249Y6617D01*
X12250Y6612D01*
X12252Y6609D01*
Y6607D01*
X12143Y6585D01*
X12140Y6603D01*
X12137Y6618D01*
X12133Y6631D01*
X12129Y6641D01*
X12124Y6650D01*
X12120Y6655D01*
X12118Y6659D01*
X12117Y6660D01*
X12109Y6668D01*
X12099Y6675D01*
X12091Y6680D01*
X12083Y6682D01*
X12076Y6685D01*
X12070Y6686D01*
X12065D01*
X12055Y6685D01*
X12044Y6682D01*
X12036Y6679D01*
X12029Y6675D01*
X12023Y6671D01*
X12020Y6667D01*
X12017Y6665D01*
X12016Y6664D01*
X12009Y6654D01*
X12005Y6645D01*
X12001Y6634D01*
X11999Y6624D01*
X11998Y6616D01*
X11996Y6609D01*
Y6604D01*
Y6602D01*
X11998Y6585D01*
X12001Y6571D01*
X12005Y6559D01*
X12009Y6549D01*
X12015Y6541D01*
X12019Y6535D01*
X12022Y6531D01*
X12023Y6530D01*
X12034Y6522D01*
X12046Y6515D01*
X12058Y6511D01*
X12070Y6508D01*
X12080Y6507D01*
X12089Y6505D01*
X12096D01*
X12108Y6387D01*
X12087Y6394D01*
X12077Y6397D01*
X12070Y6398D01*
X12063Y6399D01*
X12055D01*
X12042Y6398D01*
X12030Y6394D01*
X12021Y6388D01*
X12013Y6384D01*
X12006Y6378D01*
X12001Y6372D01*
X11998Y6369D01*
X11996Y6367D01*
X11988Y6354D01*
X11982Y6340D01*
X11978Y6326D01*
X11975Y6312D01*
X11973Y6301D01*
X11972Y6291D01*
Y6284D01*
Y6283D01*
Y6282D01*
X11973Y6261D01*
X11975Y6242D01*
X11980Y6227D01*
X11985Y6213D01*
X11989Y6203D01*
X11994Y6195D01*
X11996Y6191D01*
X11998Y6189D01*
X12007Y6179D01*
X12017Y6171D01*
X12028Y6165D01*
X12037Y6161D01*
X12046Y6159D01*
X12053Y6157D01*
X12058D01*
X12070Y6158D01*
X12081Y6161D01*
X12091Y6165D01*
X12099Y6171D01*
X12106Y6175D01*
X12111Y6179D01*
X12115Y6182D01*
X12116Y6183D01*
X12124Y6195D01*
X12131Y6208D01*
X12136Y6222D01*
X12139Y6235D01*
X12142Y6247D01*
X12143Y6256D01*
X12144Y6263D01*
Y6265D01*
X12260Y6250D01*
X12255Y6215D01*
X12246Y6183D01*
X12235Y6157D01*
X12225Y6134D01*
X12219Y6125D01*
X12214Y6117D01*
X12208Y6110D01*
X12205Y6104D01*
X12200Y6099D01*
X12198Y6096D01*
X12197Y6095D01*
X12195Y6093D01*
X12185Y6084D01*
X12173Y6075D01*
X12150Y6061D01*
X12128Y6051D01*
X12105Y6044D01*
X12087Y6041D01*
X12078Y6038D01*
X12071D01*
X12065Y6037D01*
X12057D01*
X12042Y6038D01*
X12027Y6039D01*
X12013Y6043D01*
X11999Y6048D01*
X11974Y6058D01*
X11953Y6071D01*
X11936Y6083D01*
X11928Y6089D01*
X11923Y6093D01*
X11918Y6098D01*
X11914Y6102D01*
X11913Y6103D01*
X11912Y6104D01*
X11902Y6117D01*
X11891Y6131D01*
X11883Y6145D01*
X11876Y6159D01*
X11865Y6187D01*
X11858Y6214D01*
X11855Y6226D01*
X11854Y6237D01*
X11852Y6248D01*
X11851Y6256D01*
X11850Y6264D01*
Y6269D01*
Y6272D01*
Y6274D01*
X11851Y6299D01*
X11855Y6323D01*
X11861Y6343D01*
X11866Y6359D01*
X11872Y6373D01*
X11878Y6384D01*
X11882Y6390D01*
X11883Y6392D01*
X11896Y6408D01*
X11910Y6421D01*
X11924Y6432D01*
X11937Y6440D01*
X11950Y6446D01*
X11959Y6450D01*
X11965Y6452D01*
X11966Y6453D01*
X11967D01*
X11952Y6465D01*
X11938Y6476D01*
X11926Y6488D01*
X11917Y6498D01*
X11910Y6508D01*
X11905Y6515D01*
X11902Y6521D01*
X11900Y6522D01*
X11892Y6537D01*
X11886Y6552D01*
X11883Y6568D01*
X11879Y6582D01*
X11878Y6593D01*
X11877Y6603D01*
Y6609D01*
Y6611D01*
Y6625D01*
X11879Y6638D01*
X11885Y6662D01*
X11893Y6685D01*
X11902Y6705D01*
X11911Y6721D01*
X11919Y6733D01*
X11923Y6737D01*
X11925Y6741D01*
X11926Y6742D01*
X11927Y6743D01*
X11937Y6754D01*
X11947Y6763D01*
X11958Y6771D01*
X11968Y6778D01*
X11991Y6789D01*
X12013Y6797D01*
X12032Y6801D01*
X12040Y6802D01*
X12047Y6803D01*
X12053Y6804D01*
X12061D01*
X12088Y6802D01*
D02*
G37*
G36*
X12850Y6050D02*
X12726D01*
Y6364D01*
X12686D01*
X12673Y6363D01*
X12663Y6361D01*
X12654Y6359D01*
X12647Y6358D01*
X12643Y6356D01*
X12640Y6354D01*
X12639D01*
X12632Y6351D01*
X12625Y6346D01*
X12613Y6336D01*
X12609Y6331D01*
X12605Y6328D01*
X12603Y6325D01*
X12602Y6324D01*
X12598Y6319D01*
X12594Y6312D01*
X12584Y6297D01*
X12574Y6280D01*
X12562Y6260D01*
X12553Y6242D01*
X12548Y6234D01*
X12544Y6227D01*
X12541Y6221D01*
X12539Y6216D01*
X12536Y6214D01*
Y6213D01*
X12447Y6050D01*
X12297D01*
X12372Y6196D01*
X12380Y6213D01*
X12389Y6227D01*
X12396Y6240D01*
X12403Y6253D01*
X12414Y6274D01*
X12425Y6290D01*
X12433Y6303D01*
X12439Y6311D01*
X12443Y6317D01*
X12444Y6318D01*
X12454Y6331D01*
X12465Y6343D01*
X12475Y6353D01*
X12486Y6363D01*
X12495Y6371D01*
X12502Y6377D01*
X12507Y6380D01*
X12509Y6381D01*
X12482Y6388D01*
X12458Y6398D01*
X12438Y6408D01*
X12420Y6420D01*
X12407Y6431D01*
X12398Y6440D01*
X12392Y6446D01*
X12390Y6448D01*
X12376Y6469D01*
X12365Y6493D01*
X12357Y6517D01*
X12352Y6539D01*
X12349Y6559D01*
X12348Y6568D01*
Y6576D01*
X12347Y6582D01*
Y6586D01*
Y6589D01*
Y6590D01*
X12348Y6616D01*
X12351Y6638D01*
X12356Y6659D01*
X12361Y6676D01*
X12365Y6690D01*
X12370Y6701D01*
X12373Y6707D01*
X12375Y6709D01*
X12385Y6727D01*
X12398Y6742D01*
X12410Y6754D01*
X12420Y6763D01*
X12431Y6770D01*
X12439Y6776D01*
X12444Y6778D01*
X12446Y6780D01*
X12454Y6783D01*
X12465Y6787D01*
X12486Y6791D01*
X12509Y6796D01*
X12533Y6798D01*
X12555Y6799D01*
X12564D01*
X12572Y6801D01*
X12850D01*
Y6050D01*
D02*
G37*
G36*
X16728Y8304D02*
X16720Y8287D01*
X16711Y8273D01*
X16704Y8260D01*
X16697Y8247D01*
X16686Y8226D01*
X16675Y8210D01*
X16667Y8197D01*
X16661Y8189D01*
X16657Y8183D01*
X16656Y8182D01*
X16646Y8169D01*
X16635Y8157D01*
X16625Y8147D01*
X16614Y8137D01*
X16605Y8129D01*
X16598Y8123D01*
X16593Y8120D01*
X16591Y8119D01*
X16618Y8112D01*
X16642Y8102D01*
X16662Y8092D01*
X16680Y8080D01*
X16693Y8069D01*
X16702Y8060D01*
X16708Y8054D01*
X16710Y8052D01*
X16724Y8031D01*
X16735Y8007D01*
X16743Y7983D01*
X16748Y7961D01*
X16751Y7941D01*
X16752Y7932D01*
Y7924D01*
X16753Y7918D01*
Y7914D01*
Y7911D01*
Y7910D01*
X16752Y7884D01*
X16749Y7862D01*
X16744Y7841D01*
X16739Y7824D01*
X16735Y7809D01*
X16730Y7799D01*
X16727Y7793D01*
X16725Y7791D01*
X16715Y7773D01*
X16702Y7758D01*
X16690Y7746D01*
X16680Y7737D01*
X16669Y7730D01*
X16661Y7724D01*
X16656Y7722D01*
X16654Y7720D01*
X16646Y7717D01*
X16635Y7713D01*
X16614Y7709D01*
X16591Y7704D01*
X16567Y7702D01*
X16545Y7701D01*
X16536D01*
X16528Y7699D01*
X16250D01*
Y8450D01*
X16374D01*
Y8136D01*
X16414D01*
X16427Y8137D01*
X16437Y8139D01*
X16446Y8141D01*
X16453Y8142D01*
X16457Y8144D01*
X16460Y8146D01*
X16461D01*
X16468Y8149D01*
X16475Y8154D01*
X16487Y8164D01*
X16491Y8169D01*
X16495Y8172D01*
X16497Y8175D01*
X16498Y8176D01*
X16502Y8181D01*
X16506Y8188D01*
X16516Y8203D01*
X16526Y8220D01*
X16538Y8240D01*
X16547Y8258D01*
X16552Y8266D01*
X16556Y8273D01*
X16559Y8279D01*
X16561Y8284D01*
X16564Y8286D01*
Y8287D01*
X16653Y8450D01*
X16803D01*
X16728Y8304D01*
D02*
G37*
G36*
X17190Y8299D02*
X17266D01*
Y8171D01*
X17190D01*
Y7696D01*
X17090D01*
X16824Y8172D01*
Y8299D01*
X17076D01*
Y8450D01*
X17190D01*
Y8299D01*
D02*
G37*
G36*
X13304Y15476D02*
X13208D01*
X13199Y15500D01*
X13188Y15523D01*
X13175Y15544D01*
X13163Y15561D01*
X13152Y15575D01*
X13142Y15586D01*
X13137Y15593D01*
X13135Y15594D01*
X13134Y15595D01*
X13114Y15613D01*
X13096Y15627D01*
X13079Y15640D01*
X13064Y15649D01*
X13051Y15656D01*
X13041Y15662D01*
X13035Y15664D01*
X13032Y15666D01*
Y15797D01*
X13064Y15783D01*
X13093Y15765D01*
X13119Y15747D01*
X13141Y15730D01*
X13160Y15714D01*
X13168Y15707D01*
X13174Y15699D01*
X13179Y15695D01*
X13182Y15691D01*
X13185Y15689D01*
X13186Y15688D01*
Y16230D01*
X13304D01*
Y15476D01*
D02*
G37*
G36*
X12764Y15607D02*
X12947D01*
Y15479D01*
X12457D01*
Y15607D01*
X12640D01*
Y16230D01*
X12764D01*
Y15607D01*
D02*
G37*
G36*
X12439Y15479D02*
X12305D01*
X12155Y16036D01*
X12000Y15479D01*
X11865D01*
X12084Y16230D01*
X12219D01*
X12439Y15479D01*
D02*
G37*
G36*
X21330Y14817D02*
X21095D01*
X21103Y14802D01*
X21110Y14790D01*
X21113Y14785D01*
X21116Y14781D01*
X21118Y14779D01*
Y14778D01*
X21125Y14769D01*
X21136Y14756D01*
X21147Y14742D01*
X21160Y14728D01*
X21172Y14713D01*
X21181Y14703D01*
X21185Y14698D01*
X21188Y14695D01*
X21189Y14694D01*
X21191Y14692D01*
X21212Y14668D01*
X21230Y14647D01*
X21244Y14627D01*
X21257Y14612D01*
X21266Y14599D01*
X21273Y14589D01*
X21276Y14583D01*
X21277Y14581D01*
X21287Y14565D01*
X21295Y14548D01*
X21302Y14534D01*
X21308Y14520D01*
X21311Y14510D01*
X21315Y14500D01*
X21317Y14496D01*
Y14493D01*
X21322Y14477D01*
X21324Y14461D01*
X21326Y14446D01*
X21329Y14432D01*
Y14421D01*
X21330Y14413D01*
Y14407D01*
Y14404D01*
Y14389D01*
X21328Y14375D01*
X21322Y14347D01*
X21314Y14322D01*
X21305Y14301D01*
X21296Y14284D01*
X21291Y14277D01*
X21288Y14270D01*
X21284Y14265D01*
X21282Y14261D01*
X21281Y14260D01*
X21280Y14259D01*
X21270Y14247D01*
X21260Y14238D01*
X21248Y14230D01*
X21236Y14223D01*
X21212Y14211D01*
X21188Y14204D01*
X21167Y14199D01*
X21158Y14198D01*
X21151Y14197D01*
X21144Y14196D01*
X21118D01*
X21103Y14198D01*
X21075Y14204D01*
X21050Y14213D01*
X21030Y14223D01*
X21014Y14232D01*
X21002Y14242D01*
X20999Y14245D01*
X20995Y14247D01*
X20994Y14249D01*
X20993Y14250D01*
X20983Y14260D01*
X20975Y14272D01*
X20961Y14299D01*
X20949Y14326D01*
X20941Y14354D01*
X20935Y14379D01*
X20933Y14389D01*
X20932Y14398D01*
X20931Y14407D01*
Y14413D01*
X20929Y14416D01*
Y14417D01*
X21045Y14432D01*
X21048Y14411D01*
X21051Y14394D01*
X21056Y14379D01*
X21061Y14365D01*
X21068Y14353D01*
X21075Y14343D01*
X21082Y14336D01*
X21090Y14329D01*
X21097Y14325D01*
X21105Y14321D01*
X21117Y14318D01*
X21123Y14317D01*
X21126Y14315D01*
X21130D01*
X21143Y14317D01*
X21154Y14319D01*
X21164Y14324D01*
X21173Y14328D01*
X21179Y14333D01*
X21185Y14338D01*
X21187Y14340D01*
X21188Y14341D01*
X21196Y14352D01*
X21202Y14363D01*
X21206Y14375D01*
X21209Y14387D01*
X21211Y14398D01*
X21212Y14407D01*
Y14413D01*
Y14415D01*
X21211Y14432D01*
X21207Y14449D01*
X21203Y14465D01*
X21199Y14478D01*
X21193Y14491D01*
X21189Y14499D01*
X21186Y14505D01*
X21185Y14507D01*
X21180Y14513D01*
X21175Y14521D01*
X21161Y14539D01*
X21146Y14559D01*
X21130Y14579D01*
X21114Y14598D01*
X21107Y14606D01*
X21102Y14613D01*
X21096Y14619D01*
X21092Y14623D01*
X21090Y14626D01*
X21089Y14627D01*
X21071Y14647D01*
X21055Y14667D01*
X21040Y14684D01*
X21027Y14702D01*
X21014Y14718D01*
X21003Y14732D01*
X20994Y14746D01*
X20986Y14759D01*
X20977Y14770D01*
X20972Y14779D01*
X20967Y14787D01*
X20962Y14794D01*
X20959Y14800D01*
X20956Y14804D01*
X20955Y14806D01*
Y14807D01*
X20944Y14833D01*
X20934Y14857D01*
X20928Y14882D01*
X20922Y14904D01*
X20919Y14923D01*
X20918Y14930D01*
X20917Y14937D01*
Y14943D01*
X20915Y14946D01*
Y14949D01*
Y14950D01*
X21330D01*
Y14817D01*
D02*
G37*
G36*
X20596Y14949D02*
X20619Y14946D01*
X20640Y14943D01*
X20659Y14939D01*
X20673Y14936D01*
X20684Y14932D01*
X20689Y14930D01*
X20692Y14929D01*
X20709Y14920D01*
X20725Y14910D01*
X20739Y14900D01*
X20750Y14889D01*
X20761Y14880D01*
X20768Y14873D01*
X20773Y14868D01*
X20774Y14866D01*
X20785Y14848D01*
X20797Y14831D01*
X20807Y14811D01*
X20815Y14793D01*
X20821Y14777D01*
X20826Y14764D01*
X20828Y14759D01*
X20829Y14756D01*
X20830Y14753D01*
Y14752D01*
X20837Y14724D01*
X20843Y14696D01*
X20846Y14668D01*
X20850Y14641D01*
Y14629D01*
X20851Y14617D01*
Y14608D01*
X20852Y14600D01*
Y14593D01*
Y14588D01*
Y14585D01*
Y14583D01*
X20851Y14545D01*
X20849Y14510D01*
X20845Y14478D01*
X20844Y14464D01*
X20842Y14452D01*
X20839Y14441D01*
X20838Y14430D01*
X20836Y14422D01*
X20835Y14415D01*
X20833Y14409D01*
X20832Y14406D01*
X20831Y14403D01*
Y14402D01*
X20823Y14376D01*
X20814Y14353D01*
X20803Y14333D01*
X20794Y14315D01*
X20785Y14302D01*
X20778Y14292D01*
X20774Y14286D01*
X20773Y14284D01*
X20759Y14267D01*
X20744Y14254D01*
X20732Y14243D01*
X20719Y14235D01*
X20708Y14228D01*
X20699Y14223D01*
X20694Y14220D01*
X20692Y14219D01*
X20674Y14212D01*
X20653Y14208D01*
X20632Y14204D01*
X20611Y14202D01*
X20591Y14201D01*
X20583Y14199D01*
X20336D01*
Y14950D01*
X20569D01*
X20596Y14949D01*
D02*
G37*
G36*
X20274Y14199D02*
X20140D01*
X19990Y14756D01*
X19835Y14199D01*
X19700D01*
X19919Y14950D01*
X20054D01*
X20274Y14199D01*
D02*
G37*
G36*
X21051Y20152D02*
X21075Y20147D01*
X21096Y20139D01*
X21115Y20131D01*
X21129Y20122D01*
X21140Y20114D01*
X21147Y20110D01*
X21149Y20107D01*
X21158Y20098D01*
X21165Y20087D01*
X21180Y20064D01*
X21191Y20039D01*
X21201Y20015D01*
X21206Y19992D01*
X21209Y19983D01*
X21211Y19974D01*
X21212Y19967D01*
X21213Y19962D01*
X21215Y19959D01*
Y19957D01*
X21106Y19935D01*
X21103Y19953D01*
X21100Y19968D01*
X21096Y19981D01*
X21092Y19991D01*
X21087Y20000D01*
X21084Y20005D01*
X21081Y20009D01*
X21080Y20010D01*
X21072Y20018D01*
X21062Y20025D01*
X21054Y20030D01*
X21046Y20032D01*
X21039Y20035D01*
X21033Y20036D01*
X21028D01*
X21018Y20035D01*
X21007Y20032D01*
X20999Y20029D01*
X20992Y20025D01*
X20986Y20021D01*
X20983Y20017D01*
X20980Y20015D01*
X20979Y20014D01*
X20972Y20004D01*
X20968Y19995D01*
X20964Y19984D01*
X20962Y19974D01*
X20961Y19966D01*
X20959Y19959D01*
Y19954D01*
Y19952D01*
X20961Y19935D01*
X20964Y19921D01*
X20968Y19909D01*
X20972Y19899D01*
X20978Y19891D01*
X20982Y19885D01*
X20985Y19881D01*
X20986Y19880D01*
X20997Y19872D01*
X21009Y19865D01*
X21021Y19861D01*
X21033Y19858D01*
X21043Y19857D01*
X21052Y19855D01*
X21059D01*
X21071Y19737D01*
X21050Y19744D01*
X21040Y19747D01*
X21033Y19748D01*
X21026Y19749D01*
X21018D01*
X21005Y19748D01*
X20993Y19744D01*
X20984Y19738D01*
X20976Y19734D01*
X20969Y19728D01*
X20964Y19722D01*
X20961Y19718D01*
X20959Y19717D01*
X20951Y19704D01*
X20945Y19690D01*
X20941Y19676D01*
X20938Y19662D01*
X20936Y19651D01*
X20935Y19641D01*
Y19634D01*
Y19633D01*
Y19632D01*
X20936Y19611D01*
X20938Y19592D01*
X20943Y19577D01*
X20948Y19563D01*
X20952Y19553D01*
X20957Y19545D01*
X20959Y19541D01*
X20961Y19539D01*
X20970Y19529D01*
X20980Y19521D01*
X20991Y19515D01*
X21000Y19511D01*
X21009Y19509D01*
X21016Y19507D01*
X21021D01*
X21033Y19508D01*
X21044Y19511D01*
X21054Y19515D01*
X21062Y19521D01*
X21069Y19525D01*
X21074Y19529D01*
X21078Y19532D01*
X21079Y19533D01*
X21087Y19545D01*
X21094Y19558D01*
X21099Y19572D01*
X21102Y19585D01*
X21105Y19597D01*
X21106Y19606D01*
X21107Y19613D01*
Y19615D01*
X21223Y19600D01*
X21218Y19565D01*
X21209Y19533D01*
X21198Y19507D01*
X21188Y19484D01*
X21182Y19475D01*
X21177Y19467D01*
X21171Y19460D01*
X21168Y19454D01*
X21163Y19449D01*
X21161Y19446D01*
X21160Y19444D01*
X21158Y19443D01*
X21148Y19434D01*
X21136Y19425D01*
X21113Y19411D01*
X21091Y19401D01*
X21068Y19394D01*
X21050Y19391D01*
X21041Y19388D01*
X21034D01*
X21028Y19387D01*
X21020D01*
X21005Y19388D01*
X20990Y19389D01*
X20976Y19393D01*
X20962Y19398D01*
X20937Y19408D01*
X20916Y19421D01*
X20899Y19433D01*
X20891Y19439D01*
X20886Y19443D01*
X20881Y19448D01*
X20877Y19452D01*
X20876Y19453D01*
X20875Y19454D01*
X20865Y19467D01*
X20854Y19481D01*
X20846Y19495D01*
X20839Y19509D01*
X20828Y19537D01*
X20821Y19564D01*
X20818Y19576D01*
X20817Y19587D01*
X20815Y19598D01*
X20814Y19606D01*
X20813Y19614D01*
Y19619D01*
Y19622D01*
Y19624D01*
X20814Y19649D01*
X20818Y19673D01*
X20824Y19693D01*
X20829Y19709D01*
X20835Y19723D01*
X20841Y19734D01*
X20845Y19740D01*
X20846Y19742D01*
X20859Y19758D01*
X20873Y19771D01*
X20887Y19782D01*
X20900Y19790D01*
X20913Y19796D01*
X20922Y19800D01*
X20928Y19802D01*
X20929Y19803D01*
X20930D01*
X20915Y19815D01*
X20901Y19826D01*
X20889Y19838D01*
X20880Y19848D01*
X20873Y19858D01*
X20868Y19865D01*
X20865Y19871D01*
X20863Y19872D01*
X20855Y19887D01*
X20849Y19902D01*
X20846Y19918D01*
X20842Y19932D01*
X20841Y19943D01*
X20840Y19953D01*
Y19959D01*
Y19961D01*
Y19975D01*
X20842Y19988D01*
X20848Y20012D01*
X20856Y20035D01*
X20865Y20055D01*
X20874Y20071D01*
X20882Y20083D01*
X20886Y20087D01*
X20888Y20091D01*
X20889Y20092D01*
X20890Y20093D01*
X20900Y20104D01*
X20910Y20113D01*
X20921Y20121D01*
X20931Y20128D01*
X20954Y20139D01*
X20976Y20147D01*
X20995Y20151D01*
X21003Y20152D01*
X21010Y20153D01*
X21016Y20154D01*
X21024D01*
X21051Y20152D01*
D02*
G37*
G36*
X22231Y19400D02*
X22096D01*
X21876Y20151D01*
X22010D01*
X22160Y19594D01*
X22315Y20151D01*
X22450D01*
X22231Y19400D01*
D02*
G37*
G36*
X21814D02*
X21581D01*
X21554Y19401D01*
X21531Y19404D01*
X21510Y19407D01*
X21491Y19411D01*
X21477Y19414D01*
X21466Y19418D01*
X21461Y19420D01*
X21458Y19421D01*
X21441Y19430D01*
X21425Y19440D01*
X21411Y19450D01*
X21400Y19461D01*
X21389Y19470D01*
X21382Y19477D01*
X21377Y19482D01*
X21376Y19484D01*
X21365Y19502D01*
X21353Y19519D01*
X21343Y19539D01*
X21335Y19557D01*
X21329Y19573D01*
X21324Y19586D01*
X21322Y19591D01*
X21321Y19594D01*
X21320Y19597D01*
Y19598D01*
X21313Y19626D01*
X21307Y19654D01*
X21304Y19682D01*
X21300Y19709D01*
Y19721D01*
X21299Y19733D01*
Y19742D01*
X21298Y19750D01*
Y19757D01*
Y19762D01*
Y19765D01*
Y19767D01*
X21299Y19805D01*
X21301Y19840D01*
X21305Y19872D01*
X21306Y19886D01*
X21308Y19898D01*
X21311Y19909D01*
X21312Y19920D01*
X21314Y19928D01*
X21315Y19935D01*
X21317Y19941D01*
X21318Y19944D01*
X21319Y19947D01*
Y19948D01*
X21327Y19974D01*
X21336Y19997D01*
X21347Y20017D01*
X21356Y20035D01*
X21365Y20048D01*
X21372Y20058D01*
X21376Y20064D01*
X21377Y20066D01*
X21391Y20083D01*
X21406Y20096D01*
X21418Y20107D01*
X21431Y20115D01*
X21442Y20122D01*
X21451Y20127D01*
X21456Y20129D01*
X21458Y20131D01*
X21476Y20138D01*
X21497Y20142D01*
X21518Y20146D01*
X21539Y20148D01*
X21559Y20149D01*
X21567Y20151D01*
X21814D01*
Y19400D01*
D02*
G37*
G36*
X10250Y12476D02*
X9936D01*
Y12436D01*
X9937Y12423D01*
X9939Y12413D01*
X9941Y12404D01*
X9942Y12397D01*
X9944Y12393D01*
X9946Y12390D01*
Y12389D01*
X9949Y12382D01*
X9954Y12375D01*
X9964Y12363D01*
X9969Y12359D01*
X9972Y12355D01*
X9975Y12353D01*
X9976Y12352D01*
X9981Y12348D01*
X9988Y12344D01*
X10003Y12334D01*
X10021Y12324D01*
X10040Y12312D01*
X10058Y12303D01*
X10066Y12298D01*
X10073Y12294D01*
X10079Y12291D01*
X10084Y12289D01*
X10086Y12286D01*
X10087D01*
X10250Y12197D01*
Y12047D01*
X10104Y12122D01*
X10087Y12130D01*
X10073Y12139D01*
X10060Y12146D01*
X10047Y12153D01*
X10026Y12164D01*
X10010Y12175D01*
X9997Y12183D01*
X9989Y12189D01*
X9983Y12193D01*
X9982Y12194D01*
X9969Y12204D01*
X9957Y12215D01*
X9947Y12225D01*
X9937Y12236D01*
X9929Y12245D01*
X9923Y12252D01*
X9920Y12257D01*
X9919Y12259D01*
X9912Y12232D01*
X9902Y12208D01*
X9892Y12188D01*
X9880Y12170D01*
X9869Y12157D01*
X9860Y12148D01*
X9854Y12142D01*
X9852Y12140D01*
X9831Y12126D01*
X9807Y12115D01*
X9783Y12107D01*
X9761Y12102D01*
X9741Y12099D01*
X9732Y12098D01*
X9724D01*
X9718Y12097D01*
X9714D01*
X9711D01*
X9710D01*
X9684Y12098D01*
X9662Y12101D01*
X9641Y12106D01*
X9624Y12111D01*
X9609Y12115D01*
X9599Y12120D01*
X9593Y12123D01*
X9591Y12125D01*
X9573Y12135D01*
X9558Y12148D01*
X9546Y12160D01*
X9537Y12170D01*
X9530Y12181D01*
X9524Y12189D01*
X9522Y12194D01*
X9521Y12196D01*
X9517Y12204D01*
X9513Y12215D01*
X9509Y12236D01*
X9504Y12259D01*
X9502Y12283D01*
X9501Y12305D01*
Y12314D01*
X9499Y12322D01*
Y12600D01*
X10250D01*
Y12476D01*
D02*
G37*
G36*
Y11607D02*
X10117D01*
Y11842D01*
X10102Y11834D01*
X10090Y11827D01*
X10085Y11824D01*
X10081Y11821D01*
X10079Y11819D01*
X10078D01*
X10068Y11812D01*
X10056Y11801D01*
X10042Y11790D01*
X10028Y11777D01*
X10013Y11765D01*
X10003Y11756D01*
X9998Y11752D01*
X9995Y11749D01*
X9994Y11748D01*
X9992Y11746D01*
X9968Y11725D01*
X9947Y11707D01*
X9927Y11693D01*
X9912Y11680D01*
X9899Y11671D01*
X9889Y11664D01*
X9884Y11661D01*
X9881Y11660D01*
X9865Y11650D01*
X9848Y11642D01*
X9834Y11635D01*
X9820Y11629D01*
X9810Y11626D01*
X9800Y11622D01*
X9796Y11620D01*
X9793D01*
X9777Y11615D01*
X9761Y11613D01*
X9747Y11611D01*
X9732Y11608D01*
X9721D01*
X9713Y11607D01*
X9707D01*
X9704D01*
X9689D01*
X9675Y11609D01*
X9647Y11615D01*
X9622Y11623D01*
X9601Y11632D01*
X9584Y11641D01*
X9577Y11646D01*
X9570Y11649D01*
X9565Y11653D01*
X9561Y11655D01*
X9560Y11656D01*
X9559Y11657D01*
X9547Y11667D01*
X9538Y11677D01*
X9530Y11689D01*
X9523Y11701D01*
X9511Y11725D01*
X9504Y11749D01*
X9499Y11770D01*
X9498Y11779D01*
X9497Y11786D01*
X9496Y11793D01*
Y11819D01*
X9498Y11834D01*
X9504Y11862D01*
X9513Y11887D01*
X9523Y11907D01*
X9532Y11923D01*
X9542Y11935D01*
X9545Y11938D01*
X9547Y11942D01*
X9549Y11943D01*
X9550Y11944D01*
X9560Y11954D01*
X9572Y11962D01*
X9599Y11976D01*
X9626Y11988D01*
X9654Y11996D01*
X9679Y12002D01*
X9689Y12004D01*
X9698Y12005D01*
X9707Y12006D01*
X9713D01*
X9716Y12008D01*
X9717D01*
X9732Y11892D01*
X9711Y11889D01*
X9694Y11886D01*
X9679Y11881D01*
X9665Y11876D01*
X9653Y11869D01*
X9643Y11862D01*
X9636Y11855D01*
X9629Y11847D01*
X9625Y11840D01*
X9621Y11832D01*
X9618Y11820D01*
X9617Y11814D01*
X9615Y11811D01*
Y11807D01*
X9617Y11794D01*
X9619Y11783D01*
X9624Y11773D01*
X9628Y11764D01*
X9633Y11758D01*
X9638Y11752D01*
X9640Y11750D01*
X9641Y11749D01*
X9652Y11741D01*
X9663Y11735D01*
X9675Y11731D01*
X9687Y11728D01*
X9698Y11726D01*
X9707Y11725D01*
X9713D01*
X9715D01*
X9732Y11726D01*
X9749Y11730D01*
X9765Y11734D01*
X9778Y11738D01*
X9791Y11744D01*
X9799Y11748D01*
X9805Y11751D01*
X9807Y11752D01*
X9813Y11757D01*
X9821Y11762D01*
X9839Y11776D01*
X9859Y11791D01*
X9879Y11807D01*
X9898Y11823D01*
X9906Y11830D01*
X9913Y11835D01*
X9919Y11841D01*
X9923Y11845D01*
X9926Y11847D01*
X9927Y11848D01*
X9947Y11866D01*
X9967Y11882D01*
X9984Y11897D01*
X10002Y11910D01*
X10018Y11923D01*
X10032Y11934D01*
X10046Y11943D01*
X10059Y11951D01*
X10070Y11960D01*
X10079Y11965D01*
X10087Y11970D01*
X10094Y11975D01*
X10100Y11978D01*
X10104Y11981D01*
X10106Y11982D01*
X10107D01*
X10133Y11993D01*
X10158Y12003D01*
X10182Y12009D01*
X10204Y12015D01*
X10223Y12018D01*
X10230Y12019D01*
X10237Y12020D01*
X10243D01*
X10246Y12022D01*
X10249D01*
X10250D01*
Y11607D01*
D02*
G37*
%LPC*%
G36*
X29609Y1674D02*
X29600D01*
X29578Y1672D01*
X29559Y1666D01*
X29543Y1656D01*
X29529Y1646D01*
X29518Y1635D01*
X29510Y1627D01*
X29504Y1619D01*
X29502Y1617D01*
X29488Y1594D01*
X29479Y1564D01*
X29471Y1535D01*
X29467Y1506D01*
X29463Y1479D01*
X29461Y1457D01*
Y1449D01*
Y1443D01*
Y1440D01*
Y1438D01*
X29463Y1397D01*
X29467Y1361D01*
X29473Y1330D01*
X29479Y1307D01*
X29486Y1289D01*
X29492Y1276D01*
X29496Y1268D01*
X29498Y1266D01*
X29512Y1248D01*
X29527Y1237D01*
X29543Y1227D01*
X29559Y1221D01*
X29570Y1217D01*
X29580Y1215D01*
X29590D01*
X29611Y1217D01*
X29629Y1225D01*
X29646Y1235D01*
X29662Y1246D01*
X29674Y1258D01*
X29684Y1268D01*
X29689Y1276D01*
X29691Y1278D01*
X29705Y1303D01*
X29717Y1332D01*
X29724Y1363D01*
X29728Y1393D01*
X29732Y1418D01*
X29734Y1440D01*
Y1447D01*
Y1453D01*
Y1457D01*
Y1459D01*
X29732Y1496D01*
X29728Y1529D01*
X29723Y1557D01*
X29715Y1578D01*
X29707Y1596D01*
X29701Y1609D01*
X29697Y1617D01*
X29695Y1619D01*
X29680Y1637D01*
X29664Y1650D01*
X29648Y1660D01*
X29633Y1668D01*
X29619Y1672D01*
X29609Y1674D01*
D02*
G37*
G36*
X27616D02*
X27606D01*
X27585Y1672D01*
X27565Y1666D01*
X27549Y1656D01*
X27536Y1646D01*
X27524Y1635D01*
X27516Y1627D01*
X27510Y1619D01*
X27508Y1617D01*
X27495Y1594D01*
X27485Y1564D01*
X27477Y1535D01*
X27473Y1506D01*
X27469Y1479D01*
X27467Y1457D01*
Y1449D01*
Y1443D01*
Y1440D01*
Y1438D01*
X27469Y1397D01*
X27473Y1361D01*
X27479Y1330D01*
X27485Y1307D01*
X27493Y1289D01*
X27499Y1276D01*
X27503Y1268D01*
X27505Y1266D01*
X27518Y1248D01*
X27534Y1237D01*
X27549Y1227D01*
X27565Y1221D01*
X27577Y1217D01*
X27586Y1215D01*
X27596D01*
X27618Y1217D01*
X27635Y1225D01*
X27653Y1235D01*
X27668Y1246D01*
X27680Y1258D01*
X27690Y1268D01*
X27696Y1276D01*
X27698Y1278D01*
X27711Y1303D01*
X27723Y1332D01*
X27731Y1363D01*
X27735Y1393D01*
X27739Y1418D01*
X27741Y1440D01*
Y1447D01*
Y1453D01*
Y1457D01*
Y1459D01*
X27739Y1496D01*
X27735Y1529D01*
X27729Y1557D01*
X27721Y1578D01*
X27713Y1596D01*
X27707Y1609D01*
X27704Y1617D01*
X27702Y1619D01*
X27686Y1637D01*
X27670Y1650D01*
X27655Y1660D01*
X27639Y1668D01*
X27625Y1672D01*
X27616Y1674D01*
D02*
G37*
G36*
X37841Y1578D02*
X37617D01*
X37580Y1576D01*
X37547Y1570D01*
X37520Y1562D01*
X37496Y1553D01*
X37475Y1539D01*
X37457Y1525D01*
X37443Y1510D01*
X37432Y1494D01*
X37424Y1479D01*
X37418Y1463D01*
X37412Y1449D01*
X37410Y1436D01*
X37408Y1426D01*
X37406Y1418D01*
Y1412D01*
Y1410D01*
X37408Y1391D01*
X37410Y1371D01*
X37416Y1356D01*
X37420Y1342D01*
X37426Y1328D01*
X37432Y1321D01*
X37434Y1315D01*
X37436Y1313D01*
X37447Y1299D01*
X37459Y1287D01*
X37469Y1278D01*
X37481Y1272D01*
X37488Y1266D01*
X37496Y1262D01*
X37500Y1260D01*
X37502D01*
X37518Y1256D01*
X37537Y1254D01*
X37578Y1252D01*
X37596Y1250D01*
X37841D01*
Y1578D01*
D02*
G37*
G36*
X30421Y2095D02*
X30419D01*
X30397Y2091D01*
X30380Y2083D01*
X30364Y2070D01*
X30351Y2056D01*
X30341Y2042D01*
X30333Y2029D01*
X30329Y2021D01*
X30327Y2017D01*
X30321Y2001D01*
X30316Y1980D01*
X30312Y1955D01*
X30308Y1929D01*
X30304Y1900D01*
X30300Y1869D01*
X30296Y1806D01*
X30294Y1777D01*
Y1750D01*
Y1722D01*
X30292Y1701D01*
Y1681D01*
Y1666D01*
Y1658D01*
Y1654D01*
Y1603D01*
X30294Y1557D01*
X30296Y1514D01*
X30298Y1477D01*
X30300Y1443D01*
X30304Y1414D01*
X30306Y1387D01*
X30310Y1365D01*
X30314Y1346D01*
X30316Y1330D01*
X30319Y1319D01*
X30321Y1307D01*
X30323Y1301D01*
X30325Y1295D01*
X30327Y1293D01*
Y1291D01*
X30341Y1266D01*
X30355Y1246D01*
X30370Y1235D01*
X30386Y1225D01*
X30399Y1219D01*
X30409Y1217D01*
X30417Y1215D01*
X30419D01*
X30440Y1219D01*
X30458Y1227D01*
X30474Y1239D01*
X30487Y1254D01*
X30499Y1268D01*
X30507Y1280D01*
X30511Y1287D01*
X30513Y1291D01*
X30518Y1309D01*
X30524Y1328D01*
X30528Y1354D01*
X30532Y1381D01*
X30534Y1408D01*
X30538Y1440D01*
X30542Y1502D01*
X30544Y1531D01*
Y1559D01*
Y1586D01*
X30546Y1607D01*
Y1627D01*
Y1642D01*
Y1650D01*
Y1654D01*
Y1705D01*
X30544Y1752D01*
X30542Y1795D01*
X30540Y1832D01*
X30538Y1865D01*
X30536Y1894D01*
X30532Y1921D01*
X30528Y1943D01*
X30526Y1962D01*
X30522Y1978D01*
X30520Y1990D01*
X30518Y2001D01*
X30516Y2007D01*
X30515Y2013D01*
X30513Y2017D01*
X30499Y2042D01*
X30483Y2062D01*
X30468Y2075D01*
X30452Y2085D01*
X30438Y2091D01*
X30429Y2093D01*
X30421Y2095D01*
D02*
G37*
G36*
X28427D02*
X28425D01*
X28404Y2091D01*
X28386Y2083D01*
X28371Y2070D01*
X28357Y2056D01*
X28347Y2042D01*
X28339Y2029D01*
X28336Y2021D01*
X28334Y2017D01*
X28328Y2001D01*
X28322Y1980D01*
X28318Y1955D01*
X28314Y1929D01*
X28310Y1900D01*
X28306Y1869D01*
X28302Y1806D01*
X28300Y1777D01*
Y1750D01*
Y1722D01*
X28299Y1701D01*
Y1681D01*
Y1666D01*
Y1658D01*
Y1654D01*
Y1603D01*
X28300Y1557D01*
X28302Y1514D01*
X28304Y1477D01*
X28306Y1443D01*
X28310Y1414D01*
X28312Y1387D01*
X28316Y1365D01*
X28320Y1346D01*
X28322Y1330D01*
X28326Y1319D01*
X28328Y1307D01*
X28330Y1301D01*
X28332Y1295D01*
X28334Y1293D01*
Y1291D01*
X28347Y1266D01*
X28361Y1246D01*
X28377Y1235D01*
X28392Y1225D01*
X28406Y1219D01*
X28416Y1217D01*
X28423Y1215D01*
X28425D01*
X28447Y1219D01*
X28464Y1227D01*
X28480Y1239D01*
X28494Y1254D01*
X28505Y1268D01*
X28513Y1280D01*
X28517Y1287D01*
X28519Y1291D01*
X28525Y1309D01*
X28531Y1328D01*
X28535Y1354D01*
X28538Y1381D01*
X28540Y1408D01*
X28544Y1440D01*
X28548Y1502D01*
X28550Y1531D01*
Y1559D01*
Y1586D01*
X28552Y1607D01*
Y1627D01*
Y1642D01*
Y1650D01*
Y1654D01*
Y1705D01*
X28550Y1752D01*
X28548Y1795D01*
X28546Y1832D01*
X28544Y1865D01*
X28542Y1894D01*
X28538Y1921D01*
X28535Y1943D01*
X28533Y1962D01*
X28529Y1978D01*
X28527Y1990D01*
X28525Y2001D01*
X28523Y2007D01*
X28521Y2013D01*
X28519Y2017D01*
X28505Y2042D01*
X28490Y2062D01*
X28474Y2075D01*
X28458Y2085D01*
X28445Y2091D01*
X28435Y2093D01*
X28427Y2095D01*
D02*
G37*
G36*
X12726Y6673D02*
X12590D01*
X12580Y6672D01*
X12570D01*
X12562Y6671D01*
X12548D01*
X12539Y6669D01*
X12533Y6668D01*
X12530Y6667D01*
X12529D01*
X12521Y6664D01*
X12513Y6659D01*
X12501Y6648D01*
X12496Y6644D01*
X12493Y6640D01*
X12492Y6638D01*
X12491Y6637D01*
X12486Y6628D01*
X12481Y6619D01*
X12478Y6600D01*
X12476Y6592D01*
X12475Y6585D01*
Y6580D01*
Y6579D01*
X12476Y6566D01*
X12478Y6555D01*
X12480Y6544D01*
X12482Y6536D01*
X12486Y6529D01*
X12488Y6524D01*
X12489Y6521D01*
X12491Y6520D01*
X12496Y6513D01*
X12502Y6505D01*
X12508Y6501D01*
X12514Y6496D01*
X12520Y6494D01*
X12524Y6491D01*
X12527Y6490D01*
X12528D01*
X12533Y6489D01*
X12539Y6488D01*
X12554Y6487D01*
X12571Y6484D01*
X12590D01*
X12606Y6483D01*
X12726D01*
Y6673D01*
D02*
G37*
G36*
X16494Y8017D02*
X16374D01*
Y7827D01*
X16510D01*
X16520Y7828D01*
X16530D01*
X16538Y7829D01*
X16552D01*
X16561Y7831D01*
X16567Y7832D01*
X16570Y7833D01*
X16571D01*
X16579Y7836D01*
X16587Y7841D01*
X16599Y7852D01*
X16604Y7856D01*
X16607Y7860D01*
X16608Y7862D01*
X16609Y7863D01*
X16614Y7872D01*
X16619Y7881D01*
X16622Y7900D01*
X16624Y7908D01*
X16625Y7915D01*
Y7920D01*
Y7921D01*
X16624Y7934D01*
X16622Y7945D01*
X16620Y7956D01*
X16618Y7964D01*
X16614Y7971D01*
X16612Y7976D01*
X16611Y7979D01*
X16609Y7980D01*
X16604Y7987D01*
X16598Y7995D01*
X16592Y7999D01*
X16586Y8004D01*
X16580Y8006D01*
X16576Y8009D01*
X16573Y8010D01*
X16572D01*
X16567Y8011D01*
X16561Y8012D01*
X16546Y8013D01*
X16529Y8016D01*
X16510D01*
X16494Y8017D01*
D02*
G37*
G36*
X17076Y8171D02*
X16934D01*
X17076Y7916D01*
Y8171D01*
D02*
G37*
G36*
X20562Y14822D02*
X20460D01*
Y14327D01*
X20542D01*
X20563Y14328D01*
X20581Y14329D01*
X20595Y14331D01*
X20604Y14332D01*
X20611Y14333D01*
X20616Y14334D01*
X20617D01*
X20630Y14339D01*
X20640Y14343D01*
X20651Y14350D01*
X20659Y14356D01*
X20666Y14362D01*
X20671Y14367D01*
X20674Y14370D01*
X20675Y14372D01*
X20684Y14382D01*
X20692Y14395D01*
X20698Y14407D01*
X20702Y14420D01*
X20707Y14430D01*
X20709Y14438D01*
X20712Y14444D01*
Y14446D01*
X20715Y14466D01*
X20719Y14487D01*
X20721Y14509D01*
X20722Y14530D01*
X20723Y14548D01*
Y14557D01*
Y14564D01*
Y14569D01*
Y14574D01*
Y14576D01*
Y14578D01*
Y14606D01*
X20721Y14632D01*
X20720Y14654D01*
X20718Y14671D01*
X20715Y14687D01*
X20714Y14697D01*
X20712Y14704D01*
Y14706D01*
X20707Y14724D01*
X20702Y14738D01*
X20698Y14751D01*
X20693Y14760D01*
X20688Y14769D01*
X20686Y14773D01*
X20684Y14777D01*
X20682Y14778D01*
X20668Y14793D01*
X20654Y14804D01*
X20648Y14807D01*
X20644Y14809D01*
X20640Y14812D01*
X20639D01*
X20627Y14815D01*
X20615Y14818D01*
X20600Y14820D01*
X20585Y14821D01*
X20572D01*
X20562Y14822D01*
D02*
G37*
G36*
X21690Y20023D02*
X21608D01*
X21587Y20022D01*
X21569Y20021D01*
X21555Y20019D01*
X21546Y20018D01*
X21539Y20017D01*
X21534Y20016D01*
X21533D01*
X21520Y20011D01*
X21510Y20007D01*
X21499Y20000D01*
X21491Y19994D01*
X21484Y19988D01*
X21479Y19983D01*
X21476Y19980D01*
X21475Y19978D01*
X21466Y19968D01*
X21458Y19955D01*
X21452Y19943D01*
X21448Y19930D01*
X21443Y19920D01*
X21441Y19912D01*
X21438Y19906D01*
Y19903D01*
X21435Y19884D01*
X21431Y19863D01*
X21429Y19841D01*
X21428Y19820D01*
X21427Y19802D01*
Y19793D01*
Y19786D01*
Y19781D01*
Y19776D01*
Y19774D01*
Y19772D01*
Y19744D01*
X21429Y19718D01*
X21430Y19696D01*
X21432Y19679D01*
X21435Y19663D01*
X21436Y19653D01*
X21438Y19646D01*
Y19644D01*
X21443Y19626D01*
X21448Y19612D01*
X21452Y19599D01*
X21457Y19590D01*
X21462Y19581D01*
X21464Y19577D01*
X21466Y19573D01*
X21468Y19572D01*
X21482Y19557D01*
X21496Y19546D01*
X21502Y19543D01*
X21506Y19541D01*
X21510Y19538D01*
X21511D01*
X21523Y19535D01*
X21535Y19532D01*
X21550Y19530D01*
X21565Y19529D01*
X21578D01*
X21588Y19528D01*
X21690D01*
Y20023D01*
D02*
G37*
G36*
X9817Y12476D02*
X9627D01*
Y12340D01*
X9628Y12330D01*
Y12320D01*
X9629Y12312D01*
Y12298D01*
X9631Y12289D01*
X9632Y12283D01*
X9633Y12280D01*
Y12279D01*
X9636Y12271D01*
X9641Y12263D01*
X9652Y12251D01*
X9656Y12246D01*
X9660Y12243D01*
X9662Y12242D01*
X9663Y12241D01*
X9672Y12236D01*
X9681Y12231D01*
X9700Y12228D01*
X9708Y12226D01*
X9715Y12225D01*
X9720D01*
X9721D01*
X9734Y12226D01*
X9745Y12228D01*
X9756Y12230D01*
X9764Y12232D01*
X9771Y12236D01*
X9776Y12238D01*
X9779Y12239D01*
X9780Y12241D01*
X9787Y12246D01*
X9795Y12252D01*
X9799Y12258D01*
X9804Y12264D01*
X9806Y12270D01*
X9809Y12274D01*
X9810Y12277D01*
Y12278D01*
X9811Y12283D01*
X9812Y12289D01*
X9813Y12304D01*
X9816Y12321D01*
Y12340D01*
X9817Y12356D01*
Y12476D01*
D02*
G37*
%LPD*%
D10*
X13100Y7000D02*
X16000D01*
X13100Y5600D02*
Y7000D01*
Y5600D02*
X16000D01*
Y7000D01*
X13100Y7500D02*
X16000D01*
Y8900D01*
X13100D02*
X16000D01*
X13100Y7500D02*
Y8900D01*
X17230Y16600D02*
X17400D01*
X12000D02*
X12170D01*
X17230Y23000D02*
X17400D01*
X12000D02*
X12170D01*
X17400Y16600D02*
Y23000D01*
X12000Y16600D02*
Y23000D01*
X14675Y13400D02*
Y15600D01*
X19350D01*
Y13400D02*
Y15600D01*
X14675Y13400D02*
X19350D01*
X23050Y14000D02*
Y18500D01*
X19450Y14000D02*
Y18500D01*
X22825Y14000D02*
X23050D01*
X22825Y18500D02*
X23050D01*
X19450Y14000D02*
X19675D01*
X19450Y18500D02*
X19675D01*
X10550Y12800D02*
X13450D01*
X10550Y11400D02*
Y12800D01*
Y11400D02*
X13450D01*
Y12800D01*
D11*
X22700Y13350D02*
G03*
X22700Y13350I-125J0D01*
G01*
D56*
X17525Y16025D02*
G03*
X17525Y16025I-0J0D01*
G01*
D57*
X14650Y13000D02*
G03*
X14650Y13000I-50J0D01*
G01*
M02*
