G04*
G04 #@! TF.GenerationSoftware,Altium Limited,Altium Designer,19.1.6 (110)*
G04*
G04 Layer_Color=32896*
%FSLAX43Y43*%
%MOMM*%
G71*
G01*
G75*
G36*
X38184Y2369D02*
X38219Y2363D01*
X38251Y2353D01*
X38278Y2344D01*
X38299Y2332D01*
X38317Y2324D01*
X38327Y2316D01*
X38331Y2314D01*
X38362Y2289D01*
X38387Y2262D01*
X38411Y2231D01*
X38428Y2201D01*
X38442Y2176D01*
X38452Y2154D01*
X38455Y2147D01*
X38457Y2141D01*
X38459Y2137D01*
Y2135D01*
X38463Y2115D01*
X38461Y2106D01*
X38459Y2096D01*
X38452Y2080D01*
X38446Y2071D01*
X38442Y2067D01*
X38424Y2057D01*
X38407Y2051D01*
X38401D01*
X38395Y2049D01*
X38389D01*
X38373Y2053D01*
X38362Y2057D01*
X38354Y2059D01*
X38352Y2061D01*
X38340Y2073D01*
X38333Y2082D01*
X38329Y2090D01*
X38327Y2094D01*
X38313Y2121D01*
X38299Y2145D01*
X38286Y2164D01*
X38274Y2180D01*
X38262Y2192D01*
X38253Y2199D01*
X38247Y2203D01*
X38245Y2205D01*
X38225Y2217D01*
X38208Y2225D01*
X38190Y2231D01*
X38174Y2234D01*
X38159Y2236D01*
X38149Y2238D01*
X38139D01*
X38110Y2236D01*
X38083Y2231D01*
X38073Y2227D01*
X38065Y2223D01*
X38059Y2221D01*
X38057D01*
X38028Y2207D01*
X38007Y2195D01*
X37997Y2190D01*
X37991Y2184D01*
X37987Y2182D01*
X37985Y2180D01*
X37962Y2156D01*
X37946Y2131D01*
X37935Y2106D01*
X37925Y2082D01*
X37921Y2063D01*
X37919Y2047D01*
X37917Y2035D01*
Y2033D01*
Y2032D01*
X37919Y2008D01*
X37921Y1989D01*
X37923Y1981D01*
X37925Y1975D01*
X37927Y1971D01*
Y1969D01*
X37938Y1938D01*
X37958Y1903D01*
X38469Y1130D01*
X38473Y1121D01*
X38475Y1109D01*
X38477Y1103D01*
Y1099D01*
X38475Y1082D01*
X38467Y1066D01*
X38461Y1056D01*
X38459Y1054D01*
Y1052D01*
X38442Y1041D01*
X38424Y1035D01*
X38412Y1033D01*
X37853D01*
X37829Y1037D01*
X37814Y1043D01*
X37804Y1048D01*
X37800Y1052D01*
X37790Y1068D01*
X37784Y1082D01*
X37782Y1091D01*
Y1095D01*
Y1103D01*
X37786Y1113D01*
X37792Y1126D01*
X37800Y1136D01*
X37802Y1140D01*
X37804D01*
X37812Y1148D01*
X37821Y1152D01*
X37837Y1160D01*
X37849Y1162D01*
X38284D01*
X37839Y1835D01*
X37825Y1856D01*
X37816Y1875D01*
X37806Y1893D01*
X37800Y1909D01*
X37794Y1920D01*
X37790Y1930D01*
X37788Y1936D01*
Y1938D01*
X37780Y1973D01*
X37779Y1989D01*
X37777Y2002D01*
X37775Y2014D01*
Y2024D01*
Y2030D01*
Y2032D01*
X37777Y2057D01*
X37780Y2082D01*
X37784Y2106D01*
X37792Y2129D01*
X37812Y2170D01*
X37831Y2205D01*
X37853Y2234D01*
X37862Y2246D01*
X37872Y2256D01*
X37880Y2264D01*
X37884Y2270D01*
X37888Y2271D01*
X37890Y2273D01*
X37911Y2291D01*
X37933Y2307D01*
X37954Y2318D01*
X37976Y2330D01*
X38018Y2348D01*
X38059Y2359D01*
X38095Y2365D01*
X38108Y2369D01*
X38122D01*
X38132Y2371D01*
X38145D01*
X38184Y2369D01*
D02*
G37*
G36*
X43406Y2365D02*
X43422Y2359D01*
X43432Y2351D01*
X43436Y2350D01*
Y2348D01*
X43715Y2067D01*
X43724Y2047D01*
X43730Y2035D01*
X43732Y2028D01*
Y2026D01*
X43728Y2008D01*
X43722Y1994D01*
X43716Y1985D01*
X43713Y1981D01*
X43697Y1969D01*
X43679Y1963D01*
X43668Y1961D01*
X43662D01*
X43652Y1963D01*
X43642Y1965D01*
X43627Y1973D01*
X43617Y1979D01*
X43613Y1983D01*
X43455Y2141D01*
Y1095D01*
X43453Y1084D01*
X43451Y1076D01*
X43443Y1060D01*
X43436Y1052D01*
X43432Y1048D01*
X43410Y1039D01*
X43397Y1035D01*
X43387Y1033D01*
X43385D01*
X43363Y1035D01*
X43348Y1043D01*
X43338Y1048D01*
X43334Y1050D01*
X43322Y1064D01*
X43317Y1080D01*
X43315Y1091D01*
Y1093D01*
Y1095D01*
Y2305D01*
Y2314D01*
X43319Y2324D01*
X43324Y2338D01*
X43332Y2346D01*
X43334Y2350D01*
X43336D01*
X43354Y2361D01*
X43369Y2367D01*
X43381Y2369D01*
X43397D01*
X43406Y2365D01*
D02*
G37*
G36*
X47265Y2365D02*
X47280Y2357D01*
X47290Y2350D01*
X47294Y2348D01*
Y2346D01*
X47306Y2330D01*
X47312Y2316D01*
X47314Y2309D01*
Y2305D01*
Y1885D01*
X47312Y1856D01*
X47306Y1825D01*
X47292Y1774D01*
X47271Y1737D01*
X47259Y1719D01*
X47249Y1706D01*
X47239Y1694D01*
X47232Y1684D01*
X47228Y1678D01*
X47226Y1677D01*
X47206Y1661D01*
X47189Y1647D01*
X47150Y1626D01*
X47115Y1610D01*
X47081Y1600D01*
X47052Y1593D01*
X47031Y1591D01*
X47023Y1589D01*
X46754D01*
Y1327D01*
X46756Y1302D01*
X46762Y1279D01*
X46769Y1257D01*
X46779Y1242D01*
X46789Y1228D01*
X46797Y1216D01*
X46803Y1210D01*
X46804Y1208D01*
X46824Y1193D01*
X46843Y1181D01*
X46861Y1173D01*
X46879Y1167D01*
X46894Y1163D01*
X46906Y1162D01*
X47150D01*
X47163Y1160D01*
X47173Y1158D01*
X47191Y1150D01*
X47200Y1140D01*
X47204Y1138D01*
Y1136D01*
X47214Y1119D01*
X47218Y1107D01*
X47220Y1097D01*
Y1095D01*
X47218Y1078D01*
X47212Y1064D01*
X47206Y1054D01*
X47204Y1052D01*
Y1050D01*
X47187Y1041D01*
X47169Y1035D01*
X47161D01*
X47156Y1033D01*
X46918D01*
X46894Y1035D01*
X46873Y1037D01*
X46830Y1046D01*
X46795Y1060D01*
X46764Y1078D01*
X46738Y1093D01*
X46719Y1107D01*
X46707Y1117D01*
X46703Y1121D01*
X46687Y1138D01*
X46674Y1156D01*
X46652Y1191D01*
X46637Y1224D01*
X46627Y1257D01*
X46619Y1284D01*
X46617Y1308D01*
X46615Y1316D01*
Y1321D01*
Y1325D01*
Y1327D01*
Y2305D01*
Y2314D01*
X46619Y2324D01*
X46625Y2340D01*
X46633Y2348D01*
X46635Y2351D01*
X46637D01*
X46654Y2361D01*
X46670Y2367D01*
X46682Y2369D01*
X46695D01*
X46705Y2365D01*
X46721Y2357D01*
X46730Y2350D01*
X46734Y2348D01*
Y2346D01*
X46746Y2330D01*
X46752Y2316D01*
X46754Y2309D01*
Y2305D01*
Y1719D01*
X47011D01*
X47035Y1721D01*
X47058Y1727D01*
X47078Y1735D01*
X47093Y1743D01*
X47107Y1751D01*
X47119Y1758D01*
X47124Y1764D01*
X47126Y1766D01*
X47142Y1786D01*
X47154Y1805D01*
X47161Y1825D01*
X47167Y1844D01*
X47171Y1860D01*
X47173Y1874D01*
Y1881D01*
Y1885D01*
Y2305D01*
Y2314D01*
X47177Y2324D01*
X47185Y2340D01*
X47193Y2348D01*
X47195Y2351D01*
X47197D01*
X47212Y2361D01*
X47228Y2367D01*
X47239Y2369D01*
X47255D01*
X47265Y2365D01*
D02*
G37*
G36*
X50497D02*
X50540Y2355D01*
X50577Y2340D01*
X50608Y2324D01*
X50634Y2309D01*
X50653Y2293D01*
X50665Y2283D01*
X50667Y2281D01*
X50669Y2279D01*
X50684Y2262D01*
X50696Y2244D01*
X50718Y2209D01*
X50733Y2174D01*
X50743Y2143D01*
X50751Y2113D01*
X50753Y2092D01*
X50755Y2084D01*
Y2078D01*
Y2074D01*
Y2073D01*
Y1327D01*
X50753Y1306D01*
X50751Y1284D01*
X50741Y1243D01*
X50725Y1208D01*
X50708Y1177D01*
X50692Y1154D01*
X50677Y1134D01*
X50667Y1123D01*
X50663Y1121D01*
Y1119D01*
X50645Y1103D01*
X50628Y1091D01*
X50591Y1070D01*
X50554Y1054D01*
X50521Y1044D01*
X50493Y1037D01*
X50470Y1035D01*
X50462Y1033D01*
X50220D01*
X50197Y1037D01*
X50181Y1043D01*
X50171Y1048D01*
X50168Y1052D01*
X50158Y1068D01*
X50152Y1082D01*
X50150Y1091D01*
Y1095D01*
Y1103D01*
X50154Y1113D01*
X50160Y1126D01*
X50168Y1136D01*
X50169Y1140D01*
X50171D01*
X50179Y1148D01*
X50189Y1152D01*
X50205Y1160D01*
X50216Y1162D01*
X50450D01*
X50474Y1163D01*
X50497Y1169D01*
X50517Y1177D01*
X50532Y1187D01*
X50546Y1195D01*
X50558Y1202D01*
X50564Y1208D01*
X50565Y1210D01*
X50581Y1230D01*
X50593Y1249D01*
X50603Y1269D01*
X50608Y1286D01*
X50612Y1304D01*
X50614Y1316D01*
Y1323D01*
Y1327D01*
Y2073D01*
X50612Y2098D01*
X50606Y2121D01*
X50599Y2143D01*
X50589Y2158D01*
X50581Y2172D01*
X50573Y2184D01*
X50567Y2190D01*
X50565Y2192D01*
X50546Y2207D01*
X50526Y2219D01*
X50507Y2229D01*
X50489Y2234D01*
X50474Y2238D01*
X50462Y2240D01*
X50220D01*
X50197Y2244D01*
X50181Y2250D01*
X50171Y2256D01*
X50168Y2260D01*
X50158Y2275D01*
X50152Y2291D01*
X50150Y2301D01*
Y2303D01*
Y2305D01*
Y2312D01*
X50154Y2322D01*
X50160Y2336D01*
X50168Y2344D01*
X50169Y2348D01*
X50171D01*
X50179Y2355D01*
X50189Y2359D01*
X50205Y2367D01*
X50216Y2369D01*
X50474D01*
X50497Y2365D01*
D02*
G37*
G36*
X49918Y2367D02*
X49935Y2359D01*
X49947Y2350D01*
X49955Y2338D01*
X49961Y2324D01*
X49963Y2314D01*
X49965Y2307D01*
Y2305D01*
Y1095D01*
X49963Y1084D01*
X49961Y1076D01*
X49953Y1060D01*
X49945Y1052D01*
X49941Y1048D01*
X49920Y1039D01*
X49906Y1035D01*
X49896Y1033D01*
X49894D01*
X49873Y1035D01*
X49857Y1043D01*
X49848Y1048D01*
X49844Y1050D01*
X49832Y1064D01*
X49826Y1080D01*
X49824Y1091D01*
Y1093D01*
Y1095D01*
Y2240D01*
X49405D01*
Y1095D01*
X49403Y1084D01*
X49401Y1076D01*
X49393Y1060D01*
X49387Y1052D01*
X49383Y1048D01*
X49362Y1039D01*
X49348Y1035D01*
X49338Y1033D01*
X49337D01*
X49315Y1035D01*
X49298Y1043D01*
X49288Y1048D01*
X49284Y1050D01*
X49274Y1064D01*
X49268Y1080D01*
X49266Y1091D01*
Y1093D01*
Y1095D01*
Y2305D01*
X49270Y2326D01*
X49278Y2342D01*
X49288Y2353D01*
X49301Y2361D01*
X49315Y2365D01*
X49325Y2369D01*
X49894D01*
X49918Y2367D01*
D02*
G37*
G36*
X49034D02*
X49052Y2359D01*
X49063Y2350D01*
X49071Y2338D01*
X49077Y2324D01*
X49079Y2314D01*
X49081Y2307D01*
Y2305D01*
Y1095D01*
X49077Y1074D01*
X49069Y1060D01*
X49060Y1048D01*
X49046Y1041D01*
X49032Y1037D01*
X49022Y1035D01*
X49015Y1033D01*
X48685D01*
X48662Y1035D01*
X48640Y1037D01*
X48597Y1046D01*
X48562Y1060D01*
X48531Y1078D01*
X48506Y1093D01*
X48486Y1107D01*
X48474Y1117D01*
X48470Y1121D01*
X48455Y1138D01*
X48441Y1156D01*
X48420Y1191D01*
X48404Y1224D01*
X48394Y1257D01*
X48387Y1284D01*
X48385Y1308D01*
X48383Y1316D01*
Y1321D01*
Y1325D01*
Y1327D01*
Y1515D01*
X48385Y1546D01*
X48388Y1575D01*
X48404Y1626D01*
X48414Y1647D01*
X48424Y1665D01*
X48435Y1682D01*
X48445Y1696D01*
X48455Y1708D01*
X48463Y1716D01*
X48468Y1721D01*
X48470Y1723D01*
X48488Y1739D01*
X48506Y1753D01*
X48543Y1774D01*
X48578Y1790D01*
X48611Y1799D01*
X48640Y1807D01*
X48654Y1809D01*
X48664D01*
X48673Y1811D01*
X48941D01*
Y2240D01*
X48500D01*
X48476Y2244D01*
X48461Y2250D01*
X48451Y2256D01*
X48447Y2260D01*
X48437Y2275D01*
X48431Y2291D01*
X48429Y2301D01*
Y2303D01*
Y2305D01*
Y2312D01*
X48433Y2322D01*
X48439Y2336D01*
X48447Y2344D01*
X48449Y2348D01*
X48451D01*
X48459Y2355D01*
X48468Y2359D01*
X48484Y2367D01*
X48496Y2369D01*
X49011D01*
X49034Y2367D01*
D02*
G37*
G36*
X48150D02*
X48168Y2359D01*
X48180Y2350D01*
X48188Y2338D01*
X48193Y2324D01*
X48195Y2314D01*
X48197Y2307D01*
Y2305D01*
Y1095D01*
X48195Y1084D01*
X48193Y1076D01*
X48186Y1060D01*
X48178Y1052D01*
X48174Y1048D01*
X48152Y1039D01*
X48139Y1035D01*
X48129Y1033D01*
X48127D01*
X48106Y1035D01*
X48090Y1043D01*
X48080Y1048D01*
X48076Y1050D01*
X48065Y1064D01*
X48059Y1080D01*
X48057Y1091D01*
Y1093D01*
Y1095D01*
Y2240D01*
X47637D01*
Y1095D01*
X47636Y1084D01*
X47634Y1076D01*
X47626Y1060D01*
X47620Y1052D01*
X47616Y1048D01*
X47595Y1039D01*
X47581Y1035D01*
X47571Y1033D01*
X47569D01*
X47548Y1035D01*
X47530Y1043D01*
X47520Y1048D01*
X47516Y1050D01*
X47507Y1064D01*
X47501Y1080D01*
X47499Y1091D01*
Y1093D01*
Y1095D01*
Y2305D01*
X47503Y2326D01*
X47511Y2342D01*
X47520Y2353D01*
X47534Y2361D01*
X47548Y2365D01*
X47557Y2369D01*
X48127D01*
X48150Y2367D01*
D02*
G37*
G36*
X46373Y1160D02*
X46383Y1158D01*
X46401Y1150D01*
X46410Y1140D01*
X46414Y1138D01*
Y1136D01*
X46424Y1119D01*
X46428Y1107D01*
X46430Y1097D01*
Y1095D01*
X46428Y1078D01*
X46420Y1064D01*
X46414Y1054D01*
X46412Y1052D01*
Y1050D01*
X46397Y1041D01*
X46379Y1035D01*
X46371D01*
X46366Y1033D01*
X46360D01*
X46336Y1037D01*
X46321Y1043D01*
X46311Y1048D01*
X46307Y1052D01*
X46297Y1068D01*
X46291Y1082D01*
X46290Y1091D01*
Y1095D01*
Y1103D01*
X46293Y1113D01*
X46299Y1126D01*
X46307Y1136D01*
X46309Y1140D01*
X46311D01*
X46319Y1148D01*
X46329Y1152D01*
X46344Y1160D01*
X46356Y1162D01*
X46360D01*
X46373Y1160D01*
D02*
G37*
G36*
X46048Y2367D02*
X46057Y2365D01*
X46075Y2357D01*
X46085Y2348D01*
X46089Y2346D01*
Y2344D01*
X46098Y2326D01*
X46102Y2314D01*
X46104Y2307D01*
Y2305D01*
X46102Y2287D01*
X46094Y2273D01*
X46089Y2264D01*
X46087Y2260D01*
X46071Y2248D01*
X46053Y2242D01*
X46046D01*
X46040Y2240D01*
X45849D01*
X45823Y2238D01*
X45802Y2232D01*
X45782Y2225D01*
X45765Y2217D01*
X45751Y2207D01*
X45741Y2199D01*
X45735Y2193D01*
X45734Y2192D01*
X45718Y2172D01*
X45706Y2152D01*
X45696Y2133D01*
X45691Y2113D01*
X45687Y2098D01*
X45685Y2084D01*
Y2076D01*
Y2073D01*
Y1979D01*
X45687Y1954D01*
X45693Y1930D01*
X45700Y1909D01*
X45708Y1891D01*
X45718Y1877D01*
X45726Y1868D01*
X45732Y1860D01*
X45734Y1858D01*
X45751Y1842D01*
X45771Y1831D01*
X45790Y1823D01*
X45808Y1817D01*
X45825Y1813D01*
X45837Y1811D01*
X45849D01*
X45862Y1809D01*
X45872Y1807D01*
X45890Y1799D01*
X45899Y1790D01*
X45903Y1788D01*
Y1786D01*
X45913Y1770D01*
X45917Y1758D01*
X45919Y1749D01*
Y1747D01*
X45917Y1729D01*
X45909Y1716D01*
X45903Y1706D01*
X45901Y1704D01*
Y1702D01*
X45884Y1690D01*
X45866Y1684D01*
X45860D01*
X45854Y1682D01*
X45802D01*
X45776Y1680D01*
X45755Y1675D01*
X45735Y1667D01*
X45718Y1659D01*
X45704Y1649D01*
X45695Y1641D01*
X45689Y1636D01*
X45687Y1634D01*
X45671Y1614D01*
X45659Y1595D01*
X45652Y1575D01*
X45646Y1556D01*
X45642Y1540D01*
X45640Y1526D01*
Y1519D01*
Y1515D01*
Y1327D01*
X45642Y1302D01*
X45648Y1279D01*
X45656Y1259D01*
X45663Y1242D01*
X45673Y1228D01*
X45681Y1218D01*
X45687Y1210D01*
X45689Y1208D01*
X45706Y1193D01*
X45726Y1181D01*
X45745Y1173D01*
X45763Y1167D01*
X45778Y1163D01*
X45790Y1162D01*
X46034D01*
X46048Y1160D01*
X46057Y1158D01*
X46075Y1150D01*
X46085Y1140D01*
X46089Y1138D01*
Y1136D01*
X46098Y1119D01*
X46102Y1107D01*
X46104Y1097D01*
Y1095D01*
X46102Y1078D01*
X46094Y1064D01*
X46089Y1054D01*
X46087Y1052D01*
Y1050D01*
X46071Y1041D01*
X46053Y1035D01*
X46046D01*
X46040Y1033D01*
X45802D01*
X45778Y1035D01*
X45757Y1037D01*
X45714Y1046D01*
X45679Y1060D01*
X45648Y1076D01*
X45622Y1091D01*
X45603Y1105D01*
X45591Y1115D01*
X45587Y1119D01*
X45572Y1136D01*
X45558Y1154D01*
X45537Y1189D01*
X45521Y1224D01*
X45511Y1255D01*
X45503Y1284D01*
X45501Y1308D01*
X45499Y1316D01*
Y1321D01*
Y1325D01*
Y1327D01*
Y1515D01*
X45501Y1546D01*
X45507Y1573D01*
X45515Y1600D01*
X45523Y1624D01*
X45531Y1643D01*
X45538Y1657D01*
X45544Y1667D01*
X45546Y1671D01*
X45564Y1696D01*
X45579Y1717D01*
X45595Y1733D01*
X45609Y1747D01*
X45620Y1757D01*
X45630Y1762D01*
X45636Y1764D01*
X45638Y1766D01*
X45613Y1794D01*
X45593Y1821D01*
X45585Y1833D01*
X45579Y1842D01*
X45577Y1848D01*
X45576Y1850D01*
X45564Y1872D01*
X45558Y1891D01*
X45556Y1899D01*
X45554Y1905D01*
Y1907D01*
Y1909D01*
X45548Y1926D01*
X45546Y1948D01*
Y1979D01*
Y2073D01*
Y2096D01*
X45550Y2117D01*
X45560Y2156D01*
X45574Y2193D01*
X45589Y2223D01*
X45607Y2248D01*
X45620Y2266D01*
X45630Y2277D01*
X45632Y2281D01*
X45634D01*
X45650Y2297D01*
X45667Y2310D01*
X45704Y2332D01*
X45739Y2348D01*
X45773Y2357D01*
X45804Y2365D01*
X45815Y2367D01*
X45827D01*
X45837Y2369D01*
X46034D01*
X46048Y2367D01*
D02*
G37*
G36*
X45258D02*
X45267Y2365D01*
X45285Y2357D01*
X45295Y2348D01*
X45299Y2346D01*
Y2344D01*
X45308Y2326D01*
X45312Y2314D01*
X45314Y2307D01*
Y2305D01*
X45312Y2287D01*
X45304Y2273D01*
X45299Y2264D01*
X45297Y2260D01*
X45281Y2248D01*
X45263Y2242D01*
X45256D01*
X45250Y2240D01*
X45059D01*
X45033Y2238D01*
X45012Y2232D01*
X44992Y2225D01*
X44975Y2217D01*
X44961Y2207D01*
X44951Y2199D01*
X44945Y2193D01*
X44944Y2192D01*
X44928Y2172D01*
X44916Y2152D01*
X44906Y2133D01*
X44901Y2113D01*
X44897Y2098D01*
X44895Y2084D01*
Y2076D01*
Y2073D01*
Y1979D01*
X44897Y1954D01*
X44903Y1930D01*
X44910Y1909D01*
X44918Y1891D01*
X44928Y1877D01*
X44936Y1868D01*
X44942Y1860D01*
X44944Y1858D01*
X44961Y1842D01*
X44981Y1831D01*
X45000Y1823D01*
X45018Y1817D01*
X45035Y1813D01*
X45047Y1811D01*
X45059D01*
X45072Y1809D01*
X45082Y1807D01*
X45100Y1799D01*
X45109Y1790D01*
X45113Y1788D01*
Y1786D01*
X45123Y1770D01*
X45127Y1758D01*
X45129Y1749D01*
Y1747D01*
X45127Y1729D01*
X45119Y1716D01*
X45113Y1706D01*
X45111Y1704D01*
Y1702D01*
X45094Y1690D01*
X45076Y1684D01*
X45070D01*
X45064Y1682D01*
X45012D01*
X44986Y1680D01*
X44965Y1675D01*
X44945Y1667D01*
X44928Y1659D01*
X44914Y1649D01*
X44904Y1641D01*
X44899Y1636D01*
X44897Y1634D01*
X44881Y1614D01*
X44869Y1595D01*
X44862Y1575D01*
X44856Y1556D01*
X44852Y1540D01*
X44850Y1526D01*
Y1519D01*
Y1515D01*
Y1327D01*
X44852Y1302D01*
X44858Y1279D01*
X44865Y1259D01*
X44873Y1242D01*
X44883Y1228D01*
X44891Y1218D01*
X44897Y1210D01*
X44899Y1208D01*
X44916Y1193D01*
X44936Y1181D01*
X44955Y1173D01*
X44973Y1167D01*
X44988Y1163D01*
X45000Y1162D01*
X45244D01*
X45258Y1160D01*
X45267Y1158D01*
X45285Y1150D01*
X45295Y1140D01*
X45299Y1138D01*
Y1136D01*
X45308Y1119D01*
X45312Y1107D01*
X45314Y1097D01*
Y1095D01*
X45312Y1078D01*
X45304Y1064D01*
X45299Y1054D01*
X45297Y1052D01*
Y1050D01*
X45281Y1041D01*
X45263Y1035D01*
X45256D01*
X45250Y1033D01*
X45012D01*
X44988Y1035D01*
X44967Y1037D01*
X44924Y1046D01*
X44889Y1060D01*
X44858Y1076D01*
X44832Y1091D01*
X44813Y1105D01*
X44801Y1115D01*
X44797Y1119D01*
X44782Y1136D01*
X44768Y1154D01*
X44746Y1189D01*
X44731Y1224D01*
X44721Y1255D01*
X44713Y1284D01*
X44711Y1308D01*
X44709Y1316D01*
Y1321D01*
Y1325D01*
Y1327D01*
Y1515D01*
X44711Y1546D01*
X44717Y1573D01*
X44725Y1600D01*
X44733Y1624D01*
X44741Y1643D01*
X44748Y1657D01*
X44754Y1667D01*
X44756Y1671D01*
X44774Y1696D01*
X44789Y1717D01*
X44805Y1733D01*
X44819Y1747D01*
X44830Y1757D01*
X44840Y1762D01*
X44846Y1764D01*
X44848Y1766D01*
X44823Y1794D01*
X44803Y1821D01*
X44795Y1833D01*
X44789Y1842D01*
X44787Y1848D01*
X44785Y1850D01*
X44774Y1872D01*
X44768Y1891D01*
X44766Y1899D01*
X44764Y1905D01*
Y1907D01*
Y1909D01*
X44758Y1926D01*
X44756Y1948D01*
Y1979D01*
Y2073D01*
Y2096D01*
X44760Y2117D01*
X44770Y2156D01*
X44784Y2193D01*
X44799Y2223D01*
X44817Y2248D01*
X44830Y2266D01*
X44840Y2277D01*
X44842Y2281D01*
X44844D01*
X44860Y2297D01*
X44877Y2310D01*
X44914Y2332D01*
X44949Y2348D01*
X44983Y2357D01*
X45014Y2365D01*
X45025Y2367D01*
X45037D01*
X45047Y2369D01*
X45244D01*
X45258Y2367D01*
D02*
G37*
G36*
X44468D02*
X44477Y2365D01*
X44495Y2357D01*
X44505Y2348D01*
X44508Y2346D01*
Y2344D01*
X44518Y2326D01*
X44522Y2314D01*
X44524Y2307D01*
Y2305D01*
X44522Y2287D01*
X44514Y2273D01*
X44508Y2264D01*
X44507Y2260D01*
X44491Y2248D01*
X44473Y2242D01*
X44466D01*
X44460Y2240D01*
X44269D01*
X44243Y2238D01*
X44222Y2232D01*
X44202Y2225D01*
X44185Y2217D01*
X44171Y2207D01*
X44161Y2199D01*
X44155Y2193D01*
X44153Y2192D01*
X44138Y2172D01*
X44126Y2152D01*
X44116Y2133D01*
X44111Y2113D01*
X44107Y2098D01*
X44105Y2084D01*
Y2076D01*
Y2073D01*
Y1979D01*
X44107Y1954D01*
X44112Y1930D01*
X44120Y1909D01*
X44128Y1891D01*
X44138Y1877D01*
X44146Y1868D01*
X44152Y1860D01*
X44153Y1858D01*
X44171Y1842D01*
X44191Y1831D01*
X44210Y1823D01*
X44228Y1817D01*
X44245Y1813D01*
X44257Y1811D01*
X44269D01*
X44282Y1809D01*
X44292Y1807D01*
X44310Y1799D01*
X44319Y1790D01*
X44323Y1788D01*
Y1786D01*
X44333Y1770D01*
X44337Y1758D01*
X44339Y1749D01*
Y1747D01*
X44337Y1729D01*
X44329Y1716D01*
X44323Y1706D01*
X44321Y1704D01*
Y1702D01*
X44304Y1690D01*
X44286Y1684D01*
X44280D01*
X44274Y1682D01*
X44222D01*
X44196Y1680D01*
X44175Y1675D01*
X44155Y1667D01*
X44138Y1659D01*
X44124Y1649D01*
X44114Y1641D01*
X44109Y1636D01*
X44107Y1634D01*
X44091Y1614D01*
X44079Y1595D01*
X44072Y1575D01*
X44066Y1556D01*
X44062Y1540D01*
X44060Y1526D01*
Y1519D01*
Y1515D01*
Y1327D01*
X44062Y1302D01*
X44068Y1279D01*
X44075Y1259D01*
X44083Y1242D01*
X44093Y1228D01*
X44101Y1218D01*
X44107Y1210D01*
X44109Y1208D01*
X44126Y1193D01*
X44146Y1181D01*
X44165Y1173D01*
X44183Y1167D01*
X44198Y1163D01*
X44210Y1162D01*
X44454D01*
X44468Y1160D01*
X44477Y1158D01*
X44495Y1150D01*
X44505Y1140D01*
X44508Y1138D01*
Y1136D01*
X44518Y1119D01*
X44522Y1107D01*
X44524Y1097D01*
Y1095D01*
X44522Y1078D01*
X44514Y1064D01*
X44508Y1054D01*
X44507Y1052D01*
Y1050D01*
X44491Y1041D01*
X44473Y1035D01*
X44466D01*
X44460Y1033D01*
X44222D01*
X44198Y1035D01*
X44177Y1037D01*
X44134Y1046D01*
X44099Y1060D01*
X44068Y1076D01*
X44042Y1091D01*
X44023Y1105D01*
X44011Y1115D01*
X44007Y1119D01*
X43992Y1136D01*
X43978Y1154D01*
X43956Y1189D01*
X43941Y1224D01*
X43931Y1255D01*
X43923Y1284D01*
X43921Y1308D01*
X43919Y1316D01*
Y1321D01*
Y1325D01*
Y1327D01*
Y1515D01*
X43921Y1546D01*
X43927Y1573D01*
X43935Y1600D01*
X43943Y1624D01*
X43951Y1643D01*
X43958Y1657D01*
X43964Y1667D01*
X43966Y1671D01*
X43984Y1696D01*
X43999Y1717D01*
X44015Y1733D01*
X44029Y1747D01*
X44040Y1757D01*
X44050Y1762D01*
X44056Y1764D01*
X44058Y1766D01*
X44033Y1794D01*
X44013Y1821D01*
X44005Y1833D01*
X43999Y1842D01*
X43997Y1848D01*
X43995Y1850D01*
X43984Y1872D01*
X43978Y1891D01*
X43976Y1899D01*
X43974Y1905D01*
Y1907D01*
Y1909D01*
X43968Y1926D01*
X43966Y1948D01*
Y1979D01*
Y2073D01*
Y2096D01*
X43970Y2117D01*
X43980Y2156D01*
X43993Y2193D01*
X44009Y2223D01*
X44027Y2248D01*
X44040Y2266D01*
X44050Y2277D01*
X44052Y2281D01*
X44054D01*
X44070Y2297D01*
X44087Y2310D01*
X44124Y2332D01*
X44159Y2348D01*
X44192Y2357D01*
X44224Y2365D01*
X44235Y2367D01*
X44247D01*
X44257Y2369D01*
X44454D01*
X44468Y2367D01*
D02*
G37*
G36*
X43083Y2367D02*
X43100Y2359D01*
X43112Y2350D01*
X43120Y2338D01*
X43125Y2324D01*
X43127Y2314D01*
X43129Y2307D01*
Y2305D01*
Y1745D01*
X43125Y1723D01*
X43118Y1708D01*
X43108Y1696D01*
X43094Y1688D01*
X43081Y1684D01*
X43071Y1682D01*
X43063Y1680D01*
X42825D01*
X42802Y1678D01*
X42780Y1673D01*
X42761Y1665D01*
X42745Y1657D01*
X42731Y1647D01*
X42722Y1639D01*
X42716Y1634D01*
X42714Y1632D01*
X42698Y1614D01*
X42687Y1595D01*
X42677Y1575D01*
X42671Y1556D01*
X42667Y1540D01*
X42665Y1526D01*
Y1519D01*
Y1515D01*
Y1327D01*
X42667Y1302D01*
X42673Y1279D01*
X42681Y1259D01*
X42688Y1242D01*
X42698Y1228D01*
X42706Y1218D01*
X42712Y1210D01*
X42714Y1208D01*
X42731Y1193D01*
X42751Y1181D01*
X42770Y1173D01*
X42786Y1167D01*
X42802Y1163D01*
X42813Y1162D01*
X43059D01*
X43073Y1160D01*
X43083Y1158D01*
X43100Y1150D01*
X43110Y1140D01*
X43114Y1138D01*
Y1136D01*
X43123Y1119D01*
X43127Y1107D01*
X43129Y1097D01*
Y1095D01*
X43127Y1078D01*
X43120Y1064D01*
X43114Y1054D01*
X43112Y1052D01*
Y1050D01*
X43096Y1041D01*
X43079Y1035D01*
X43071D01*
X43065Y1033D01*
X42825D01*
X42802Y1035D01*
X42780Y1037D01*
X42739Y1046D01*
X42702Y1060D01*
X42671Y1078D01*
X42647Y1093D01*
X42628Y1107D01*
X42616Y1117D01*
X42612Y1121D01*
X42597Y1138D01*
X42583Y1156D01*
X42562Y1191D01*
X42546Y1224D01*
X42536Y1257D01*
X42529Y1284D01*
X42527Y1308D01*
X42525Y1316D01*
Y1321D01*
Y1325D01*
Y1327D01*
Y1515D01*
Y1536D01*
X42529Y1558D01*
X42538Y1598D01*
X42552Y1634D01*
X42568Y1665D01*
X42585Y1690D01*
X42599Y1708D01*
X42608Y1719D01*
X42610Y1723D01*
X42612D01*
X42630Y1739D01*
X42647Y1753D01*
X42683Y1774D01*
X42718Y1790D01*
X42751Y1799D01*
X42780Y1807D01*
X42794Y1809D01*
X42804D01*
X42813Y1811D01*
X42989D01*
Y2240D01*
X42595D01*
X42571Y2244D01*
X42556Y2250D01*
X42546Y2256D01*
X42542Y2260D01*
X42532Y2275D01*
X42527Y2291D01*
X42525Y2301D01*
Y2303D01*
Y2305D01*
Y2312D01*
X42529Y2322D01*
X42534Y2336D01*
X42542Y2344D01*
X42544Y2348D01*
X42546D01*
X42554Y2355D01*
X42564Y2359D01*
X42579Y2367D01*
X42591Y2369D01*
X43059D01*
X43083Y2367D01*
D02*
G37*
G36*
X42084Y2365D02*
X42125Y2355D01*
X42162Y2340D01*
X42193Y2324D01*
X42218Y2309D01*
X42238Y2293D01*
X42250Y2283D01*
X42252Y2281D01*
X42253Y2279D01*
X42269Y2262D01*
X42281Y2244D01*
X42302Y2209D01*
X42318Y2174D01*
X42328Y2143D01*
X42335Y2113D01*
X42337Y2092D01*
X42339Y2084D01*
Y2078D01*
Y2074D01*
Y2073D01*
Y1327D01*
X42337Y1304D01*
X42335Y1282D01*
X42326Y1243D01*
X42310Y1206D01*
X42292Y1177D01*
X42277Y1152D01*
X42261Y1134D01*
X42252Y1123D01*
X42248Y1121D01*
Y1119D01*
X42230Y1103D01*
X42212Y1091D01*
X42175Y1070D01*
X42140Y1054D01*
X42107Y1044D01*
X42078Y1037D01*
X42056Y1035D01*
X42049Y1033D01*
X41943D01*
X41920Y1035D01*
X41898Y1037D01*
X41856Y1046D01*
X41820Y1060D01*
X41789Y1078D01*
X41764Y1093D01*
X41744Y1107D01*
X41733Y1117D01*
X41729Y1121D01*
X41713Y1138D01*
X41699Y1156D01*
X41678Y1191D01*
X41662Y1224D01*
X41653Y1257D01*
X41645Y1284D01*
X41643Y1308D01*
X41641Y1316D01*
Y1321D01*
Y1325D01*
Y1327D01*
Y2073D01*
Y2096D01*
X41645Y2117D01*
X41655Y2156D01*
X41670Y2193D01*
X41686Y2223D01*
X41701Y2248D01*
X41717Y2266D01*
X41727Y2277D01*
X41729Y2281D01*
X41731D01*
X41748Y2297D01*
X41766Y2310D01*
X41801Y2332D01*
X41836Y2348D01*
X41869Y2357D01*
X41898Y2365D01*
X41912Y2367D01*
X41922D01*
X41932Y2369D01*
X42060D01*
X42084Y2365D01*
D02*
G37*
G36*
X41038D02*
X41075Y2350D01*
X41110Y2332D01*
X41142Y2312D01*
X41173Y2291D01*
X41200Y2270D01*
X41227Y2248D01*
X41251Y2227D01*
X41270Y2205D01*
X41290Y2186D01*
X41305Y2166D01*
X41321Y2151D01*
X41331Y2135D01*
X41341Y2123D01*
X41346Y2113D01*
X41350Y2108D01*
X41352Y2106D01*
X41370Y2074D01*
X41385Y2043D01*
X41401Y2010D01*
X41413Y1979D01*
X41430Y1918D01*
X41442Y1862D01*
X41448Y1836D01*
X41450Y1813D01*
X41452Y1794D01*
X41454Y1776D01*
X41456Y1762D01*
Y1753D01*
Y1745D01*
Y1743D01*
Y1327D01*
X41454Y1304D01*
X41452Y1282D01*
X41442Y1243D01*
X41426Y1206D01*
X41409Y1177D01*
X41393Y1152D01*
X41378Y1134D01*
X41368Y1123D01*
X41364Y1121D01*
Y1119D01*
X41346Y1103D01*
X41329Y1091D01*
X41292Y1070D01*
X41257Y1054D01*
X41223Y1044D01*
X41194Y1037D01*
X41173Y1035D01*
X41165Y1033D01*
X41060D01*
X41036Y1035D01*
X41015Y1037D01*
X40972Y1046D01*
X40937Y1060D01*
X40906Y1076D01*
X40880Y1091D01*
X40861Y1105D01*
X40849Y1115D01*
X40845Y1119D01*
X40829Y1136D01*
X40816Y1154D01*
X40794Y1189D01*
X40779Y1224D01*
X40769Y1255D01*
X40761Y1284D01*
X40759Y1308D01*
X40757Y1316D01*
Y1321D01*
Y1325D01*
Y1327D01*
Y1515D01*
Y1538D01*
X40761Y1559D01*
X40771Y1598D01*
X40785Y1636D01*
X40800Y1665D01*
X40818Y1690D01*
X40831Y1708D01*
X40841Y1719D01*
X40843Y1723D01*
X40845D01*
X40863Y1739D01*
X40880Y1753D01*
X40915Y1774D01*
X40952Y1790D01*
X40985Y1799D01*
X41015Y1807D01*
X41028Y1809D01*
X41038D01*
X41048Y1811D01*
X41313D01*
X41311Y1827D01*
X41309Y1844D01*
X41302Y1879D01*
X41298Y1893D01*
X41294Y1905D01*
X41290Y1914D01*
Y1916D01*
X41280Y1942D01*
X41270Y1965D01*
X41262Y1985D01*
X41253Y2004D01*
X41245Y2018D01*
X41239Y2030D01*
X41235Y2037D01*
X41233Y2039D01*
X41214Y2069D01*
X41194Y2092D01*
X41177Y2113D01*
X41159Y2131D01*
X41145Y2145D01*
X41136Y2154D01*
X41128Y2160D01*
X41126Y2162D01*
X41103Y2182D01*
X41081Y2195D01*
X41073Y2201D01*
X41067Y2205D01*
X41064Y2209D01*
X41062D01*
X41023Y2229D01*
X41005Y2238D01*
X40985Y2244D01*
X40970Y2256D01*
X40960Y2266D01*
X40954Y2271D01*
X40952Y2273D01*
X40948Y2283D01*
X40945Y2293D01*
Y2301D01*
Y2303D01*
X40946Y2320D01*
X40952Y2336D01*
X40960Y2346D01*
X40962Y2350D01*
X40970Y2357D01*
X40978Y2361D01*
X40993Y2369D01*
X41001D01*
X41007Y2371D01*
X41013D01*
X41038Y2365D01*
D02*
G37*
G36*
X40515Y1160D02*
X40525Y1158D01*
X40543Y1150D01*
X40552Y1140D01*
X40556Y1138D01*
Y1136D01*
X40566Y1119D01*
X40570Y1107D01*
X40572Y1097D01*
Y1095D01*
X40570Y1078D01*
X40562Y1064D01*
X40556Y1054D01*
X40554Y1052D01*
Y1050D01*
X40539Y1041D01*
X40521Y1035D01*
X40513D01*
X40508Y1033D01*
X40502D01*
X40478Y1037D01*
X40463Y1043D01*
X40453Y1048D01*
X40449Y1052D01*
X40439Y1068D01*
X40433Y1082D01*
X40431Y1091D01*
Y1095D01*
Y1103D01*
X40435Y1113D01*
X40441Y1126D01*
X40449Y1136D01*
X40451Y1140D01*
X40453D01*
X40461Y1148D01*
X40471Y1152D01*
X40486Y1160D01*
X40498Y1162D01*
X40502D01*
X40515Y1160D01*
D02*
G37*
G36*
X39991Y2365D02*
X40032Y2355D01*
X40069Y2340D01*
X40100Y2324D01*
X40125Y2309D01*
X40145Y2293D01*
X40156Y2283D01*
X40158Y2281D01*
X40160Y2279D01*
X40176Y2262D01*
X40188Y2244D01*
X40209Y2209D01*
X40225Y2174D01*
X40234Y2143D01*
X40242Y2113D01*
X40244Y2092D01*
X40246Y2084D01*
Y2078D01*
Y2074D01*
Y2073D01*
Y1327D01*
X40244Y1304D01*
X40242Y1282D01*
X40233Y1243D01*
X40217Y1206D01*
X40199Y1177D01*
X40184Y1152D01*
X40168Y1134D01*
X40158Y1123D01*
X40154Y1121D01*
Y1119D01*
X40137Y1103D01*
X40119Y1091D01*
X40082Y1070D01*
X40047Y1054D01*
X40014Y1044D01*
X39985Y1037D01*
X39963Y1035D01*
X39956Y1033D01*
X39850D01*
X39827Y1035D01*
X39805Y1037D01*
X39762Y1046D01*
X39727Y1060D01*
X39696Y1078D01*
X39671Y1093D01*
X39651Y1107D01*
X39639Y1117D01*
X39636Y1121D01*
X39620Y1138D01*
X39606Y1156D01*
X39585Y1191D01*
X39569Y1224D01*
X39560Y1257D01*
X39552Y1284D01*
X39550Y1308D01*
X39548Y1316D01*
Y1321D01*
Y1325D01*
Y1327D01*
Y2073D01*
Y2096D01*
X39552Y2117D01*
X39561Y2156D01*
X39577Y2193D01*
X39593Y2223D01*
X39608Y2248D01*
X39624Y2266D01*
X39634Y2277D01*
X39636Y2281D01*
X39638D01*
X39655Y2297D01*
X39673Y2310D01*
X39708Y2332D01*
X39743Y2348D01*
X39776Y2357D01*
X39805Y2365D01*
X39819Y2367D01*
X39829D01*
X39838Y2369D01*
X39967D01*
X39991Y2365D01*
D02*
G37*
G36*
X39107D02*
X39148Y2355D01*
X39185Y2340D01*
X39216Y2324D01*
X39242Y2309D01*
X39261Y2293D01*
X39273Y2283D01*
X39275Y2281D01*
X39277Y2279D01*
X39292Y2262D01*
X39304Y2244D01*
X39325Y2209D01*
X39341Y2174D01*
X39351Y2143D01*
X39359Y2113D01*
X39361Y2092D01*
X39362Y2084D01*
Y2078D01*
Y2074D01*
Y2073D01*
Y1327D01*
X39361Y1304D01*
X39359Y1282D01*
X39349Y1243D01*
X39333Y1206D01*
X39316Y1177D01*
X39300Y1152D01*
X39284Y1134D01*
X39275Y1123D01*
X39271Y1121D01*
Y1119D01*
X39253Y1103D01*
X39236Y1091D01*
X39199Y1070D01*
X39164Y1054D01*
X39130Y1044D01*
X39101Y1037D01*
X39080Y1035D01*
X39072Y1033D01*
X38966D01*
X38943Y1035D01*
X38922Y1037D01*
X38879Y1046D01*
X38844Y1060D01*
X38812Y1078D01*
X38787Y1093D01*
X38768Y1107D01*
X38756Y1117D01*
X38752Y1121D01*
X38736Y1138D01*
X38723Y1156D01*
X38701Y1191D01*
X38686Y1224D01*
X38676Y1257D01*
X38668Y1284D01*
X38666Y1308D01*
X38664Y1316D01*
Y1321D01*
Y1325D01*
Y1327D01*
Y2073D01*
Y2096D01*
X38668Y2117D01*
X38678Y2156D01*
X38693Y2193D01*
X38709Y2223D01*
X38725Y2248D01*
X38740Y2266D01*
X38750Y2277D01*
X38752Y2281D01*
X38754D01*
X38771Y2297D01*
X38789Y2310D01*
X38824Y2332D01*
X38859Y2348D01*
X38892Y2357D01*
X38922Y2365D01*
X38935Y2367D01*
X38945D01*
X38955Y2369D01*
X39084D01*
X39107Y2365D01*
D02*
G37*
%LPC*%
G36*
X48941Y1680D02*
X48685D01*
X48662Y1678D01*
X48640Y1673D01*
X48623Y1665D01*
X48605Y1655D01*
X48591Y1645D01*
X48582Y1638D01*
X48574Y1632D01*
X48572Y1630D01*
X48554Y1610D01*
X48543Y1591D01*
X48533Y1571D01*
X48527Y1554D01*
X48523Y1538D01*
X48521Y1526D01*
Y1519D01*
Y1515D01*
Y1327D01*
X48523Y1302D01*
X48529Y1279D01*
X48537Y1257D01*
X48546Y1242D01*
X48556Y1228D01*
X48564Y1216D01*
X48570Y1210D01*
X48572Y1208D01*
X48591Y1193D01*
X48611Y1181D01*
X48628Y1173D01*
X48646Y1167D01*
X48662Y1163D01*
X48673Y1162D01*
X48941D01*
Y1680D01*
D02*
G37*
G36*
X42049Y2240D02*
X41943D01*
X41920Y2238D01*
X41896Y2232D01*
X41877Y2225D01*
X41861Y2215D01*
X41848Y2205D01*
X41836Y2197D01*
X41830Y2192D01*
X41828Y2190D01*
X41813Y2170D01*
X41801Y2151D01*
X41791Y2131D01*
X41785Y2113D01*
X41781Y2096D01*
X41779Y2084D01*
Y2076D01*
Y2073D01*
Y1327D01*
X41781Y1302D01*
X41787Y1279D01*
X41795Y1257D01*
X41805Y1242D01*
X41815Y1228D01*
X41822Y1216D01*
X41828Y1210D01*
X41830Y1208D01*
X41850Y1193D01*
X41869Y1181D01*
X41887Y1173D01*
X41904Y1167D01*
X41920Y1163D01*
X41932Y1162D01*
X42037D01*
X42060Y1163D01*
X42082Y1169D01*
X42099Y1177D01*
X42117Y1187D01*
X42131Y1195D01*
X42140Y1202D01*
X42148Y1208D01*
X42150Y1210D01*
X42166Y1230D01*
X42177Y1249D01*
X42187Y1269D01*
X42193Y1286D01*
X42197Y1304D01*
X42199Y1316D01*
Y1323D01*
Y1327D01*
Y2073D01*
X42197Y2098D01*
X42191Y2121D01*
X42183Y2141D01*
X42175Y2158D01*
X42168Y2172D01*
X42160Y2184D01*
X42154Y2190D01*
X42152Y2192D01*
X42133Y2207D01*
X42113Y2219D01*
X42093Y2229D01*
X42076Y2234D01*
X42060Y2238D01*
X42049Y2240D01*
D02*
G37*
G36*
X41315Y1682D02*
X41060D01*
X41036Y1680D01*
X41015Y1675D01*
X40995Y1667D01*
X40978Y1659D01*
X40964Y1649D01*
X40954Y1641D01*
X40948Y1636D01*
X40946Y1634D01*
X40931Y1614D01*
X40919Y1595D01*
X40909Y1575D01*
X40904Y1556D01*
X40900Y1540D01*
X40898Y1526D01*
Y1519D01*
Y1515D01*
Y1327D01*
X40900Y1302D01*
X40906Y1279D01*
X40913Y1259D01*
X40921Y1242D01*
X40931Y1228D01*
X40939Y1218D01*
X40945Y1210D01*
X40946Y1208D01*
X40964Y1193D01*
X40984Y1181D01*
X41003Y1173D01*
X41021Y1167D01*
X41036Y1163D01*
X41048Y1162D01*
X41153D01*
X41177Y1163D01*
X41198Y1169D01*
X41216Y1177D01*
X41233Y1187D01*
X41247Y1195D01*
X41257Y1202D01*
X41264Y1208D01*
X41266Y1210D01*
X41282Y1230D01*
X41294Y1249D01*
X41303Y1269D01*
X41309Y1286D01*
X41313Y1304D01*
X41315Y1316D01*
Y1323D01*
Y1327D01*
Y1682D01*
D02*
G37*
G36*
X39956Y2240D02*
X39850D01*
X39827Y2238D01*
X39803Y2232D01*
X39784Y2225D01*
X39768Y2215D01*
X39755Y2205D01*
X39743Y2197D01*
X39737Y2192D01*
X39735Y2190D01*
X39719Y2170D01*
X39708Y2151D01*
X39698Y2131D01*
X39692Y2113D01*
X39688Y2096D01*
X39686Y2084D01*
Y2076D01*
Y2073D01*
Y1327D01*
X39688Y1302D01*
X39694Y1279D01*
X39702Y1257D01*
X39712Y1242D01*
X39721Y1228D01*
X39729Y1216D01*
X39735Y1210D01*
X39737Y1208D01*
X39757Y1193D01*
X39776Y1181D01*
X39794Y1173D01*
X39811Y1167D01*
X39827Y1163D01*
X39838Y1162D01*
X39944D01*
X39967Y1163D01*
X39989Y1169D01*
X40006Y1177D01*
X40024Y1187D01*
X40037Y1195D01*
X40047Y1202D01*
X40055Y1208D01*
X40057Y1210D01*
X40073Y1230D01*
X40084Y1249D01*
X40094Y1269D01*
X40100Y1286D01*
X40104Y1304D01*
X40106Y1316D01*
Y1323D01*
Y1327D01*
Y2073D01*
X40104Y2098D01*
X40098Y2121D01*
X40090Y2141D01*
X40082Y2158D01*
X40075Y2172D01*
X40067Y2184D01*
X40061Y2190D01*
X40059Y2192D01*
X40039Y2207D01*
X40020Y2219D01*
X40000Y2229D01*
X39983Y2234D01*
X39967Y2238D01*
X39956Y2240D01*
D02*
G37*
G36*
X39072D02*
X38966D01*
X38943Y2238D01*
X38920Y2232D01*
X38900Y2225D01*
X38885Y2215D01*
X38871Y2205D01*
X38859Y2197D01*
X38853Y2192D01*
X38851Y2190D01*
X38836Y2170D01*
X38824Y2151D01*
X38814Y2131D01*
X38808Y2113D01*
X38805Y2096D01*
X38803Y2084D01*
Y2076D01*
Y2073D01*
Y1327D01*
X38805Y1302D01*
X38810Y1279D01*
X38818Y1257D01*
X38828Y1242D01*
X38838Y1228D01*
X38846Y1216D01*
X38851Y1210D01*
X38853Y1208D01*
X38873Y1193D01*
X38892Y1181D01*
X38910Y1173D01*
X38927Y1167D01*
X38943Y1163D01*
X38955Y1162D01*
X39060D01*
X39084Y1163D01*
X39105Y1169D01*
X39123Y1177D01*
X39140Y1187D01*
X39154Y1195D01*
X39164Y1202D01*
X39171Y1208D01*
X39173Y1210D01*
X39189Y1230D01*
X39201Y1249D01*
X39210Y1269D01*
X39216Y1286D01*
X39220Y1304D01*
X39222Y1316D01*
Y1323D01*
Y1327D01*
Y2073D01*
X39220Y2098D01*
X39214Y2121D01*
X39206Y2141D01*
X39199Y2158D01*
X39191Y2172D01*
X39183Y2184D01*
X39177Y2190D01*
X39175Y2192D01*
X39156Y2207D01*
X39136Y2219D01*
X39117Y2229D01*
X39099Y2234D01*
X39084Y2238D01*
X39072Y2240D01*
D02*
G37*
%LPD*%
M02*
