G04*
G04 #@! TF.GenerationSoftware,Altium Limited,Altium Designer,19.1.6 (110)*
G04*
G04 Layer_Color=8388736*
%FSLAX43Y43*%
%MOMM*%
G71*
G01*
G75*
%ADD15R,0.950X1.000*%
%ADD16R,1.000X0.950*%
G04:AMPARAMS|DCode=17|XSize=1.9mm|YSize=1.1mm|CornerRadius=0.3mm|HoleSize=0mm|Usage=FLASHONLY|Rotation=0.000|XOffset=0mm|YOffset=0mm|HoleType=Round|Shape=RoundedRectangle|*
%AMROUNDEDRECTD17*
21,1,1.900,0.500,0,0,0.0*
21,1,1.300,1.100,0,0,0.0*
1,1,0.600,0.650,-0.250*
1,1,0.600,-0.650,-0.250*
1,1,0.600,-0.650,0.250*
1,1,0.600,0.650,0.250*
%
%ADD17ROUNDEDRECTD17*%
G04:AMPARAMS|DCode=18|XSize=1mm|YSize=0.9mm|CornerRadius=0.25mm|HoleSize=0mm|Usage=FLASHONLY|Rotation=270.000|XOffset=0mm|YOffset=0mm|HoleType=Round|Shape=RoundedRectangle|*
%AMROUNDEDRECTD18*
21,1,1.000,0.400,0,0,270.0*
21,1,0.500,0.900,0,0,270.0*
1,1,0.500,-0.200,-0.250*
1,1,0.500,-0.200,0.250*
1,1,0.500,0.200,0.250*
1,1,0.500,0.200,-0.250*
%
%ADD18ROUNDEDRECTD18*%
%ADD19R,1.500X0.500*%
%ADD20O,1.500X0.500*%
%ADD21R,3.060X3.060*%
%ADD22R,1.900X1.800*%
G04:AMPARAMS|DCode=23|XSize=1.9mm|YSize=1.1mm|CornerRadius=0.3mm|HoleSize=0mm|Usage=FLASHONLY|Rotation=90.000|XOffset=0mm|YOffset=0mm|HoleType=Round|Shape=RoundedRectangle|*
%AMROUNDEDRECTD23*
21,1,1.900,0.500,0,0,90.0*
21,1,1.300,1.100,0,0,90.0*
1,1,0.600,0.250,0.650*
1,1,0.600,0.250,-0.650*
1,1,0.600,-0.250,-0.650*
1,1,0.600,-0.250,0.650*
%
%ADD23ROUNDEDRECTD23*%
%ADD24R,0.900X1.050*%
%ADD25R,1.400X1.500*%
G04:AMPARAMS|DCode=26|XSize=4.62mm|YSize=3.95mm|CornerRadius=0.531mm|HoleSize=0mm|Usage=FLASHONLY|Rotation=0.000|XOffset=0mm|YOffset=0mm|HoleType=Round|Shape=RoundedRectangle|*
%AMROUNDEDRECTD26*
21,1,4.620,2.888,0,0,0.0*
21,1,3.558,3.950,0,0,0.0*
1,1,1.063,1.779,-1.444*
1,1,1.063,-1.779,-1.444*
1,1,1.063,-1.779,1.444*
1,1,1.063,1.779,1.444*
%
%ADD26ROUNDEDRECTD26*%
G04:AMPARAMS|DCode=27|XSize=0.81mm|YSize=1.472mm|CornerRadius=0.139mm|HoleSize=0mm|Usage=FLASHONLY|Rotation=0.000|XOffset=0mm|YOffset=0mm|HoleType=Round|Shape=RoundedRectangle|*
%AMROUNDEDRECTD27*
21,1,0.810,1.195,0,0,0.0*
21,1,0.532,1.472,0,0,0.0*
1,1,0.278,0.266,-0.597*
1,1,0.278,-0.266,-0.597*
1,1,0.278,-0.266,0.597*
1,1,0.278,0.266,0.597*
%
%ADD27ROUNDEDRECTD27*%
%ADD28R,0.810X1.472*%
%ADD29R,3.300X3.250*%
G04:AMPARAMS|DCode=30|XSize=1mm|YSize=0.9mm|CornerRadius=0.25mm|HoleSize=0mm|Usage=FLASHONLY|Rotation=180.000|XOffset=0mm|YOffset=0mm|HoleType=Round|Shape=RoundedRectangle|*
%AMROUNDEDRECTD30*
21,1,1.000,0.400,0,0,180.0*
21,1,0.500,0.900,0,0,180.0*
1,1,0.500,-0.250,0.200*
1,1,0.500,0.250,0.200*
1,1,0.500,0.250,-0.200*
1,1,0.500,-0.250,-0.200*
%
%ADD30ROUNDEDRECTD30*%
%ADD31O,1.400X0.900*%
%ADD32R,1.750X2.750*%
%ADD33C,2.600*%
%ADD34R,2.600X2.600*%
%ADD35C,5.300*%
%ADD36C,0.700*%
D15*
X41770Y15049D02*
D03*
X43320D02*
D03*
X24961Y12007D02*
D03*
X26511D02*
D03*
X41885Y12890D02*
D03*
X43435D02*
D03*
X41922Y10934D02*
D03*
X43472D02*
D03*
X33363Y15227D02*
D03*
X34913D02*
D03*
X39891Y15049D02*
D03*
X38341D02*
D03*
X43447Y17208D02*
D03*
X41897D02*
D03*
D16*
X14986Y16790D02*
D03*
Y15240D02*
D03*
X16891Y16777D02*
D03*
Y15227D02*
D03*
X12954Y19317D02*
D03*
Y17767D02*
D03*
X11049Y19304D02*
D03*
Y17754D02*
D03*
D17*
X15621Y19455D02*
D03*
Y22455D02*
D03*
X30988Y18899D02*
D03*
Y15899D02*
D03*
X27686Y18899D02*
D03*
Y15899D02*
D03*
D18*
X19062Y11938D02*
D03*
X20562Y11938D02*
D03*
D19*
X19148Y19562D02*
D03*
D20*
Y18912D02*
D03*
Y18262D02*
D03*
Y17612D02*
D03*
Y16962D02*
D03*
Y16312D02*
D03*
Y15662D02*
D03*
Y15012D02*
D03*
Y14362D02*
D03*
Y13712D02*
D03*
X25048Y19562D02*
D03*
Y18912D02*
D03*
Y18262D02*
D03*
Y17612D02*
D03*
Y16962D02*
D03*
Y16312D02*
D03*
Y15662D02*
D03*
Y15012D02*
D03*
Y14362D02*
D03*
Y13712D02*
D03*
D21*
X22000Y16637D02*
D03*
D22*
X19050Y9193D02*
D03*
Y5793D02*
D03*
D23*
X36726Y12382D02*
D03*
X39726D02*
D03*
D24*
X41872Y8445D02*
D03*
X43522D02*
D03*
D25*
X11123Y12142D02*
D03*
X14023Y12192D02*
D03*
D26*
X13335Y5461D02*
D03*
D27*
X11430Y3641D02*
D03*
X12700D02*
D03*
X13970D02*
D03*
X15240D02*
D03*
X11430Y9181D02*
D03*
X12700D02*
D03*
X13970D02*
D03*
D28*
X15240D02*
D03*
D29*
X40761Y25590D02*
D03*
X46361D02*
D03*
D30*
X41910Y20879D02*
D03*
X41910Y19379D02*
D03*
D31*
X33918Y20828D02*
D03*
Y19558D02*
D03*
Y18288D02*
D03*
Y17018D02*
D03*
X39918Y20828D02*
D03*
Y19558D02*
D03*
Y18288D02*
D03*
Y17018D02*
D03*
D32*
X36918Y18923D02*
D03*
D33*
X5550Y15000D02*
D03*
Y11040D02*
D03*
X52950Y20940D02*
D03*
Y16980D02*
D03*
Y13020D02*
D03*
D34*
X5550Y18960D02*
D03*
X52950Y9060D02*
D03*
D35*
X56000Y3500D02*
D03*
X4000Y26500D02*
D03*
D36*
X22500Y15200D02*
D03*
X36900Y17700D02*
D03*
X36400Y18500D02*
D03*
X37400D02*
D03*
X36887Y19271D02*
D03*
X37400Y20000D02*
D03*
X36400D02*
D03*
X21500Y15200D02*
D03*
X23000Y16100D02*
D03*
X22000D02*
D03*
X21000D02*
D03*
X22500Y16900D02*
D03*
X21500D02*
D03*
X23000Y17800D02*
D03*
X22000D02*
D03*
X21000D02*
D03*
M02*
