M48
;Layer_Color=9474304
;FILE_FORMAT=4:3
METRIC,LZ
;TYPE=PLATED
T1F00S00C0.300
T2F00S00C1.650
T3F00S00C2.200
%
T01
X00304Y00016
X00316
X00328
X0034
X00352
X00364
X00376
X00388
X004
X00412
X00424
X00436
X00448
X0046
X00472
X00484
X00496
X00508
X0052
X00532
X00526Y00028
X00514
X00502
X0049
X00478
X00466
X00454
X00442
X0043
X00418
X00406
X00394
X00382
X0037
X00358
X00346
X00334
X00322
X0031
X00298
X00304Y0004
X00316
X00328
X0034
X00352
X00364
X00376
X00388
X004
X00412
X00424
X00436
X00448
X0046
X00472
X00484
X00496
X00508
X0052
X00526Y00052
X00514
X00502
X0049
X00478
X00466
X00454
X00442
X0043
X00418
X00406
X00394
X00382
X0037
X00358
X00346
X00334
X00322
X0031
X00298
X00304Y00064
X00316
X00328
X0034
X00352
X00364
X00376
X00388
X004
X00412
X00424
X00436
X00448
X0046
X00472
X00484
X00496
X00508
X0052
X00532
X00544
X00562Y00076
X00574
X00586
X0058Y00088
X00592
X00586Y001
X00574
X00562
X00568Y00112
X0058
X00592
X00586Y00124
X00574
X00562
X00568Y00136
X0058
X00592
X00586Y00148
X00574
X00562
X00556Y0016
X00568
X0058
X00592
X00586Y00172
X00574
X00562
X0055
X00556Y00184
X00568
X0058
X00592
X00586Y00196
X00574
X00562
X0055
X00538
X00526
X00514
X00502
X00496Y00208
X00508
X00502Y0022
X00496Y00232
X00508
X0052
X00526Y00244
X00538
X0055
X00562
X00574
X00586
X0058Y00256
X00592
X00586Y00268
X00574
X00562
X0055
X00538
X00526
X00514
X00502
X00496Y0028
X00508
X0052
X00532
X00544
X00556
X00568
X0058
X00592
Y00232
X0058
X00568
X00556
X00544
X0055Y0022
X00562
X00574
X00586
X0058Y00208
X00592
X00568
X00556
Y00256
X00568
X00544
X00532
X0052
X00508
X00496
X00502Y00244
X00514
X00508Y00184
X00496
X00502Y00172
X00496Y0016
X00508
X0046
X00448
X00454Y00172
X00466
X0046Y00184
X00448
X00436
X00424
X00412
X0043Y00196
X00442
X00454
X00466
X0046Y00208
X00448
X00436
X00442Y0022
X00436Y00232
Y0028
X00376
X00364
X00352
X0034
X00328
X00316
X00304
X0031Y00268
X00322
X00334
X00346
X00358
X0037
X00364Y00256
X00376
X0037Y00244
X00358
X00346
X00334
X00322
X0031
X00298
X00304Y00256
X00316
X00328
X0034
X00352
Y00232
X00364
X00376
X0037Y0022
X00358
X00346
X00334
X00322
X0031
X00298
X00304Y00232
X00316
X00328
X0034
X00352Y00208
X00364
X00364Y002
X00374
X00376Y00208
X0036887Y0019271
X00364Y00185
X00374
X00369Y00177
X00382Y00172
X00376Y0016
X00364
X0037Y00148
X00376Y00136
X00388
X00382Y00124
X00376Y00112
X00388
X00394Y001
X00406
X004Y00088
X00388
X00376
X00364
X00352
X0034
X00328
X00316
X00304
X0031Y001
X00322
X00334
X00346
X00358
X0037
X00382
Y00076
X00394
X00406
X0037
X00358
X00346
X00334
X00322
X0031
X00298
Y001
X00304Y00112
X00316
X00328
X0034
X00352
X00346Y00124
X00334
X00322
X0031
X00298
X00304Y00136
X00316
X00328
X0034
X00352
X00322Y00148
X0031
X00298
Y00172
X0031
X00322
X00316Y00208
X00304
X00298Y00268
X00352Y00184
X00454Y00148
X00466
Y001
X00454
X00448Y00088
X0046
X00472
X00478Y00076
X00466
X00454
X00568Y00088
X00592Y00064
X00292
X0028
X00268
X00256
X00244
X00232
X0022
X00226Y00076
X00238
X0025
X00262
X00274
X00286
X0028Y00088
X00292
X00286Y001
X00274
X00262
X0025
X00238
X00226
X00214
X00208Y00088
X0022
X00232
X00244
X00256
X00268
X0028Y00112
X00292
X00286Y00124
X0028Y00136
X00292
X00286Y00148
X00274
X00268Y00136
X00232
X0022
X00208
X00215Y00152
X00225
X0023Y00161
X0022
X0021
X00215Y00169
X00225
X0023Y00178
X0022
X0021
X00214Y00196
X00226
X0022Y00208
X00232
X00244
X00256
X00268
X0028
X00292
X00286Y0022
X00274
X00262
X0025
X00238
X00226
X00214
X00202
X0019
X00178
X00172Y00232
X00184
X00196
X00208
X0022
X00232
X00244
X00256
X00268
X0028
X00292
X00286Y00244
X00274
X00262
X0025
X00238
X00226
X00214
X00202
X0019
X00178
X00166
X00154
X00142
X0013
X00118
X00106
X00094
X00082
X0007
X00064Y00232
X00076
X00088
X001
X00112
X00124
X00136
X0013Y0022
X00118
X00106
X00094
X00082
X0007
X00058
X00046
X00034
X00022
X00016Y00232
X00028
X0004
X00052
Y00208
X00064
X00028
X00016
X00022Y00196
X00016Y00184
X00022Y00172
X00016Y0016
X00022Y00148
X00016Y00136
X00022Y00124
X00016Y00112
X00022Y001
X00016Y00088
X00028
X00034Y00076
X00046
X0004Y00064
X00052
X00058Y00052
X0007
X00064Y0004
X00076
X00082Y00028
X00094
X00088Y00016
X001
X00112
X00124
X00136
X00148
X0016
X00172
X00184
X00196
X00208
X0022
X00232
X00244
X00256
X00268
X0028
X00292
X00286Y00028
X00274
X00262
X0025
X00238
X00226
X00214
X00202
X0019
X00178
X0022Y0004
X00232
X00244
X00256
X00268
X0028
X00292
X00286Y00052
X00274
X00262
X0025
X00238
X00226
X00214
Y00076
X0022Y00112
X00232
X00238Y00124
X00226
X00178
X00166
X00154
X00148Y00136
X0016
X00172
X00136
X00124
X0013Y00148
X00118
X00124Y0016
X00136
X001
X00088
X00094Y00172
Y00148
X00088Y00136
X001
X00094Y00124
X00088Y00112
X00094Y001
X00088Y00088
X001
X00127Y00105
X00134
X00141
X00148
X00155
X00164Y001
Y00093
X00172
Y00086
Y001
X00124Y00112
X0007Y00028
X00058
X00046
X00034
X00022
X00016Y0004
X00028
X0004
X00052
X00046Y00052
X00034
X00022
X00016Y00064
X00028
X00022Y00076
X00016Y00016
X00028
X0004
X00052
X00064
X00076
Y00256
X00088
X001
X00112
X00124
X00136
X00148
X0016
X00172
X00184
X00196
X00208
X0022
X00232
X00244
X00256
X00268
X0028
X00292
X00286Y00268
X00274
X00262
X0025
X00238
X00226
X00214
X00202
X0019
X00178
X00166
X00154
X00142
X0013
X00118
X00106
X00094
X00082
X00076Y0028
X00088
X001
X00112
X00124
X00136
X00148
X0016
X00172
X00184
X00196
X00208
X0022
X00232
X00244
X00256
X00268
X0028
X00292
X00286Y00172
X00274
X00292Y0016
X00208Y00208
T02
X005295Y000906
Y001302
Y001698
Y002094
X000555Y001896
Y0015
Y001104
T03
X0056Y00035
X0004Y00265
M30
