G04*
G04 #@! TF.GenerationSoftware,Altium Limited,Altium Designer,19.1.6 (110)*
G04*
G04 Layer_Physical_Order=2*
G04 Layer_Color=16711680*
%FSLAX43Y43*%
%MOMM*%
G71*
G01*
G75*
%ADD51C,0.300*%
%ADD53C,2.500*%
%ADD54R,2.500X2.500*%
%ADD55C,0.600*%
%ADD56C,1.000*%
G36*
X122245Y50255D02*
X50255D01*
Y78745D01*
X58000D01*
Y77000D01*
X58250D01*
Y78745D01*
X113500D01*
Y77250D01*
X113750D01*
Y78745D01*
X122245D01*
Y50255D01*
D02*
G37*
%LPC*%
G36*
X112200Y76687D02*
Y75850D01*
X113037D01*
X112895Y76115D01*
X112701Y76351D01*
X112465Y76545D01*
X112200Y76687D01*
D02*
G37*
G36*
X111000Y76687D02*
X110735Y76545D01*
X110499Y76351D01*
X110305Y76115D01*
X110163Y75850D01*
X111000D01*
Y75984D01*
Y76687D01*
D02*
G37*
G36*
X62450Y76500D02*
X61500D01*
Y75550D01*
X62450D01*
Y76500D01*
D02*
G37*
G36*
X60300D02*
X59350D01*
Y75550D01*
X60300D01*
Y76500D01*
D02*
G37*
G36*
X113037Y74650D02*
X112200D01*
Y73813D01*
X112465Y73955D01*
X112701Y74149D01*
X112895Y74385D01*
X113037Y74650D01*
D02*
G37*
G36*
X111000D02*
X110163D01*
X110305Y74385D01*
X110499Y74149D01*
X110735Y73955D01*
X111000Y73813D01*
Y74650D01*
D02*
G37*
G36*
X117100Y76713D02*
X116721Y76663D01*
X116369Y76517D01*
X116066Y76284D01*
X115833Y75981D01*
X115687Y75629D01*
X115637Y75250D01*
X115687Y74871D01*
X115833Y74519D01*
X116066Y74216D01*
X116369Y73983D01*
X116721Y73837D01*
X117100Y73787D01*
X117479Y73837D01*
X117831Y73983D01*
X118134Y74216D01*
X118367Y74519D01*
X118513Y74871D01*
X118563Y75250D01*
X118513Y75629D01*
X118367Y75981D01*
X118134Y76284D01*
X117831Y76517D01*
X117479Y76663D01*
X117100Y76713D01*
D02*
G37*
G36*
X55400Y76413D02*
X55021Y76363D01*
X54669Y76217D01*
X54366Y75984D01*
X54133Y75681D01*
X53987Y75329D01*
X53937Y74950D01*
X53987Y74571D01*
X54133Y74219D01*
X54366Y73916D01*
X54669Y73683D01*
X55021Y73537D01*
X55400Y73487D01*
X55779Y73537D01*
X56131Y73683D01*
X56434Y73916D01*
X56667Y74219D01*
X56813Y74571D01*
X56863Y74950D01*
X56813Y75329D01*
X56667Y75681D01*
X56434Y75984D01*
X56131Y76217D01*
X55779Y76363D01*
X55400Y76413D01*
D02*
G37*
G36*
X62450Y74350D02*
X61500D01*
Y73400D01*
X62450D01*
Y74350D01*
D02*
G37*
G36*
X60300D02*
X59350D01*
Y73400D01*
X60300D01*
Y74350D01*
D02*
G37*
G36*
X103000Y74010D02*
X102805Y73971D01*
X102640Y73860D01*
X102529Y73695D01*
X102490Y73500D01*
X102529Y73305D01*
X102640Y73140D01*
X102805Y73029D01*
X103000Y72990D01*
X103195Y73029D01*
X103360Y73140D01*
X103471Y73305D01*
X103510Y73500D01*
X103471Y73695D01*
X103360Y73860D01*
X103195Y73971D01*
X103000Y74010D01*
D02*
G37*
G36*
X113150Y72600D02*
X112200D01*
Y71650D01*
X113150D01*
Y72600D01*
D02*
G37*
G36*
X111000D02*
X110050D01*
Y71650D01*
X111000D01*
Y72600D01*
D02*
G37*
G36*
X61500Y72187D02*
Y71350D01*
X62337D01*
X62195Y71615D01*
X62001Y71851D01*
X61765Y72045D01*
X61500Y72187D01*
D02*
G37*
G36*
X60300Y72187D02*
X60035Y72045D01*
X59799Y71851D01*
X59605Y71615D01*
X59463Y71350D01*
X60300D01*
Y72187D01*
D02*
G37*
G36*
X117100Y72513D02*
X116721Y72463D01*
X116369Y72317D01*
X116066Y72084D01*
X115833Y71781D01*
X115687Y71429D01*
X115637Y71050D01*
X115687Y70671D01*
X115833Y70319D01*
X116066Y70016D01*
X116369Y69783D01*
X116721Y69637D01*
X117100Y69587D01*
X117479Y69637D01*
X117831Y69783D01*
X118134Y70016D01*
X118367Y70319D01*
X118513Y70671D01*
X118563Y71050D01*
X118513Y71429D01*
X118367Y71781D01*
X118134Y72084D01*
X117831Y72317D01*
X117479Y72463D01*
X117100Y72513D01*
D02*
G37*
G36*
X113150Y70450D02*
X112200D01*
Y69500D01*
X113150D01*
Y70450D01*
D02*
G37*
G36*
X111000D02*
X110050D01*
Y69500D01*
X111000D01*
Y70450D01*
D02*
G37*
G36*
X101500Y72010D02*
X101305Y71971D01*
X101140Y71860D01*
X101029Y71695D01*
X100990Y71500D01*
X101029Y71305D01*
X101140Y71140D01*
X101305Y71029D01*
X101500Y70990D01*
X101695Y71029D01*
X101860Y71140D01*
X101863Y71143D01*
X104852D01*
X106490Y69505D01*
X106444Y69379D01*
X106355Y69364D01*
X106195Y69471D01*
X106000Y69510D01*
X105805Y69471D01*
X105640Y69360D01*
X105529Y69195D01*
X105490Y69000D01*
X105529Y68805D01*
X105640Y68640D01*
X105805Y68529D01*
X106000Y68490D01*
X106195Y68529D01*
X106360Y68640D01*
X106363Y68643D01*
X110352D01*
X113991Y65004D01*
X113990Y65000D01*
X114029Y64805D01*
X114140Y64640D01*
X114305Y64529D01*
X114500Y64490D01*
X114695Y64529D01*
X114860Y64640D01*
X114971Y64805D01*
X115010Y65000D01*
X114971Y65195D01*
X114860Y65360D01*
X114695Y65471D01*
X114500Y65510D01*
X114496Y65509D01*
X110752Y69252D01*
X110637Y69330D01*
X110500Y69357D01*
X107648D01*
X105252Y71752D01*
X105137Y71830D01*
X105000Y71857D01*
X101863D01*
X101860Y71860D01*
X101695Y71971D01*
X101500Y72010D01*
D02*
G37*
G36*
X60300Y70150D02*
X59463D01*
X59605Y69885D01*
X59799Y69649D01*
X60035Y69455D01*
X60300Y69313D01*
Y70150D01*
D02*
G37*
G36*
X62337D02*
X61500D01*
Y69313D01*
X61765Y69455D01*
X62001Y69649D01*
X62195Y69885D01*
X62337Y70150D01*
D02*
G37*
G36*
X55400Y72213D02*
X55021Y72163D01*
X54669Y72017D01*
X54366Y71784D01*
X54133Y71481D01*
X53987Y71129D01*
X53937Y70750D01*
X53987Y70371D01*
X54133Y70019D01*
X54366Y69716D01*
X54669Y69483D01*
X55021Y69337D01*
X55400Y69287D01*
X55779Y69337D01*
X56131Y69483D01*
X56434Y69716D01*
X56667Y70019D01*
X56813Y70371D01*
X56863Y70750D01*
X56813Y71129D01*
X56667Y71481D01*
X56434Y71784D01*
X56131Y72017D01*
X55779Y72163D01*
X55400Y72213D01*
D02*
G37*
G36*
X67675Y77685D02*
X67480Y77646D01*
X67315Y77535D01*
X67291Y77500D01*
X62750D01*
Y77000D01*
X63000D01*
Y77250D01*
X67066D01*
X67118Y77123D01*
X66673Y76677D01*
X66595Y76562D01*
X66568Y76425D01*
Y71788D01*
X66565Y71785D01*
X66454Y71620D01*
X66415Y71425D01*
X66454Y71230D01*
X66565Y71065D01*
X66730Y70954D01*
X66925Y70915D01*
X67120Y70954D01*
X67285Y71065D01*
X67396Y71230D01*
X67435Y71425D01*
X67396Y71620D01*
X67285Y71785D01*
X67282Y71788D01*
Y76277D01*
X67671Y76666D01*
X67675Y76665D01*
X67870Y76704D01*
X68035Y76815D01*
X68146Y76980D01*
X68185Y77175D01*
X68246Y77250D01*
X86750D01*
X93250Y70750D01*
Y67500D01*
X93250D01*
X94750Y66000D01*
X95750D01*
Y68000D01*
X94500Y69250D01*
Y70120D01*
X94627Y70158D01*
X94640Y70140D01*
X94805Y70029D01*
X95000Y69990D01*
X95195Y70029D01*
X95360Y70140D01*
X95363Y70143D01*
X96952D01*
X101191Y65904D01*
X101190Y65900D01*
X101229Y65705D01*
X101340Y65540D01*
X101505Y65429D01*
X101700Y65390D01*
X101895Y65429D01*
X102060Y65540D01*
X102171Y65705D01*
X102210Y65900D01*
X102171Y66095D01*
X102060Y66260D01*
X101895Y66371D01*
X101700Y66410D01*
X101696Y66409D01*
X97352Y70752D01*
X97237Y70830D01*
X97100Y70857D01*
X95363D01*
X95360Y70860D01*
X95195Y70971D01*
X95000Y71010D01*
X94805Y70971D01*
X94640Y70860D01*
X94627Y70842D01*
X94500Y70880D01*
Y71250D01*
X88627Y77123D01*
X88680Y77250D01*
X109500D01*
Y77500D01*
X88000D01*
X94250Y71250D01*
Y69250D01*
X95500Y68000D01*
Y66250D01*
X94750D01*
X93500Y67500D01*
Y70750D01*
X89500Y74750D01*
X89250Y75000D01*
X86750Y77500D01*
X68059D01*
X68035Y77535D01*
X67870Y77646D01*
X67675Y77685D01*
D02*
G37*
G36*
X78000Y66704D02*
X59000D01*
X58922Y66688D01*
X58856Y66644D01*
X58812Y66578D01*
X58796Y66500D01*
Y58000D01*
X58812Y57922D01*
X58856Y57856D01*
X58922Y57812D01*
X59000Y57796D01*
X78000D01*
X78078Y57812D01*
X78144Y57856D01*
X78188Y57922D01*
X78204Y58000D01*
Y66500D01*
X78188Y66578D01*
X78144Y66644D01*
X78078Y66688D01*
X78000Y66704D01*
D02*
G37*
%LPD*%
G36*
Y58000D02*
X59000D01*
Y66500D01*
X78000D01*
Y58000D01*
D02*
G37*
D51*
X107500Y69000D02*
X110500D01*
X106000D02*
X107500D01*
X105000Y71500D02*
X107500Y69000D01*
X101500Y71500D02*
X105000D01*
X110500Y69000D02*
X114500Y65000D01*
X97100Y70500D02*
X101700Y65900D01*
X95000Y70500D02*
X97100D01*
X66925Y76425D02*
X67675Y77175D01*
X66925Y71425D02*
Y76425D01*
D53*
X117100Y71050D02*
D03*
X117100Y75250D02*
D03*
X111600D02*
D03*
X55400Y74950D02*
D03*
X55400Y70750D02*
D03*
X60900D02*
D03*
D54*
X111600Y71050D02*
D03*
X60900Y74950D02*
D03*
D55*
X90000Y61500D02*
D03*
X95000Y60000D02*
D03*
X93000D02*
D03*
X91000D02*
D03*
X98000Y62750D02*
D03*
Y63750D02*
D03*
X99000Y62750D02*
D03*
Y63750D02*
D03*
X98000Y64500D02*
D03*
X99000D02*
D03*
X98000Y65250D02*
D03*
X99000D02*
D03*
Y66250D02*
D03*
X98000D02*
D03*
X120000Y66000D02*
D03*
Y64000D02*
D03*
Y62000D02*
D03*
Y60000D02*
D03*
Y58000D02*
D03*
Y56000D02*
D03*
Y54000D02*
D03*
Y52000D02*
D03*
X118000Y64000D02*
D03*
Y62000D02*
D03*
Y60000D02*
D03*
Y58000D02*
D03*
Y56000D02*
D03*
Y54000D02*
D03*
Y52000D02*
D03*
X116000Y54000D02*
D03*
Y52000D02*
D03*
X114000D02*
D03*
X112000D02*
D03*
X110000Y74000D02*
D03*
Y68000D02*
D03*
Y52000D02*
D03*
X108000Y76000D02*
D03*
Y74000D02*
D03*
Y72000D02*
D03*
Y70000D02*
D03*
Y68000D02*
D03*
Y52000D02*
D03*
X106000Y76000D02*
D03*
Y74000D02*
D03*
Y72000D02*
D03*
Y66000D02*
D03*
Y62000D02*
D03*
Y60000D02*
D03*
Y54000D02*
D03*
Y52000D02*
D03*
X104000Y76000D02*
D03*
Y74000D02*
D03*
Y54000D02*
D03*
Y52000D02*
D03*
X102000Y76000D02*
D03*
Y74000D02*
D03*
Y54000D02*
D03*
Y52000D02*
D03*
X100000Y76000D02*
D03*
Y74000D02*
D03*
Y72000D02*
D03*
Y70000D02*
D03*
Y54000D02*
D03*
Y52000D02*
D03*
X98000Y76000D02*
D03*
Y74000D02*
D03*
Y72000D02*
D03*
Y60000D02*
D03*
Y58000D02*
D03*
Y56000D02*
D03*
Y54000D02*
D03*
Y52000D02*
D03*
X96000Y76000D02*
D03*
Y74000D02*
D03*
Y72000D02*
D03*
Y60000D02*
D03*
Y58000D02*
D03*
Y56000D02*
D03*
Y54000D02*
D03*
Y52000D02*
D03*
X94000Y76000D02*
D03*
Y74000D02*
D03*
Y60000D02*
D03*
Y58000D02*
D03*
Y56000D02*
D03*
Y54000D02*
D03*
Y52000D02*
D03*
X92000Y76000D02*
D03*
Y70000D02*
D03*
Y68000D02*
D03*
Y60000D02*
D03*
Y58000D02*
D03*
Y56000D02*
D03*
Y54000D02*
D03*
Y52000D02*
D03*
X90000Y72000D02*
D03*
Y70000D02*
D03*
Y68000D02*
D03*
Y60000D02*
D03*
Y58000D02*
D03*
Y56000D02*
D03*
Y54000D02*
D03*
Y52000D02*
D03*
X88000Y74000D02*
D03*
Y72000D02*
D03*
Y70000D02*
D03*
Y68000D02*
D03*
Y62000D02*
D03*
Y60000D02*
D03*
Y58000D02*
D03*
Y56000D02*
D03*
Y54000D02*
D03*
Y52000D02*
D03*
X86000Y76000D02*
D03*
Y74000D02*
D03*
Y72000D02*
D03*
Y70000D02*
D03*
Y68000D02*
D03*
Y60000D02*
D03*
Y58000D02*
D03*
Y56000D02*
D03*
Y54000D02*
D03*
Y52000D02*
D03*
X84000Y76000D02*
D03*
Y74000D02*
D03*
Y72000D02*
D03*
Y70000D02*
D03*
Y68000D02*
D03*
Y58000D02*
D03*
X82000Y76000D02*
D03*
Y74000D02*
D03*
Y72000D02*
D03*
Y70000D02*
D03*
Y68000D02*
D03*
Y58000D02*
D03*
X80000Y76000D02*
D03*
Y74000D02*
D03*
Y72000D02*
D03*
Y70000D02*
D03*
Y68000D02*
D03*
Y58000D02*
D03*
Y56000D02*
D03*
Y54000D02*
D03*
Y52000D02*
D03*
X78000Y76000D02*
D03*
Y74000D02*
D03*
Y72000D02*
D03*
Y70000D02*
D03*
Y56000D02*
D03*
Y54000D02*
D03*
Y52000D02*
D03*
X76000Y76000D02*
D03*
Y74000D02*
D03*
Y72000D02*
D03*
Y70000D02*
D03*
Y56000D02*
D03*
Y54000D02*
D03*
Y52000D02*
D03*
X74000Y76000D02*
D03*
Y74000D02*
D03*
Y72000D02*
D03*
Y54000D02*
D03*
X72000Y76000D02*
D03*
Y74000D02*
D03*
Y72000D02*
D03*
Y54000D02*
D03*
X70000Y76000D02*
D03*
Y74000D02*
D03*
Y72000D02*
D03*
Y70000D02*
D03*
Y68000D02*
D03*
Y54000D02*
D03*
Y52000D02*
D03*
X68000Y76000D02*
D03*
Y74000D02*
D03*
Y72000D02*
D03*
Y70000D02*
D03*
Y68000D02*
D03*
Y54000D02*
D03*
Y52000D02*
D03*
X66000Y76000D02*
D03*
Y74000D02*
D03*
Y72000D02*
D03*
Y54000D02*
D03*
Y52000D02*
D03*
X64000Y76000D02*
D03*
Y74000D02*
D03*
Y72000D02*
D03*
Y54000D02*
D03*
X62000Y56000D02*
D03*
Y54000D02*
D03*
Y52000D02*
D03*
X60000Y56000D02*
D03*
Y54000D02*
D03*
Y52000D02*
D03*
X58000Y64000D02*
D03*
Y62000D02*
D03*
Y60000D02*
D03*
Y58000D02*
D03*
Y56000D02*
D03*
Y54000D02*
D03*
Y52000D02*
D03*
X56000Y60000D02*
D03*
Y58000D02*
D03*
Y56000D02*
D03*
Y54000D02*
D03*
Y52000D02*
D03*
X54000Y64000D02*
D03*
Y62000D02*
D03*
Y60000D02*
D03*
Y58000D02*
D03*
Y56000D02*
D03*
Y54000D02*
D03*
Y52000D02*
D03*
X52000Y76000D02*
D03*
Y74000D02*
D03*
Y72000D02*
D03*
Y70000D02*
D03*
Y68000D02*
D03*
Y66000D02*
D03*
Y64000D02*
D03*
Y62000D02*
D03*
Y60000D02*
D03*
Y58000D02*
D03*
Y56000D02*
D03*
Y54000D02*
D03*
Y52000D02*
D03*
X95000Y67500D02*
D03*
X95000Y66750D02*
D03*
X108500Y66750D02*
D03*
X114500Y65000D02*
D03*
X106000Y69000D02*
D03*
X106500Y67500D02*
D03*
Y64500D02*
D03*
X101700Y65900D02*
D03*
X95000Y70500D02*
D03*
X101500Y71500D02*
D03*
X108500Y66000D02*
D03*
Y65250D02*
D03*
Y64500D02*
D03*
Y63750D02*
D03*
Y63000D02*
D03*
Y62250D02*
D03*
Y61500D02*
D03*
X67675Y77175D02*
D03*
X66925Y71425D02*
D03*
X74500Y59500D02*
D03*
X76000D02*
D03*
X77500D02*
D03*
Y61000D02*
D03*
Y62500D02*
D03*
Y64000D02*
D03*
X76000D02*
D03*
X74500D02*
D03*
X73500D02*
D03*
X71500Y59000D02*
D03*
X70000D02*
D03*
Y60500D02*
D03*
X68500D02*
D03*
Y59000D02*
D03*
X67000D02*
D03*
Y60500D02*
D03*
X65500D02*
D03*
Y59000D02*
D03*
X70000Y61500D02*
D03*
X69000D02*
D03*
X68000D02*
D03*
X69700Y62800D02*
D03*
X68300D02*
D03*
X69000Y63500D02*
D03*
X69700Y64200D02*
D03*
X68300D02*
D03*
X70000Y65500D02*
D03*
X69000D02*
D03*
X68000D02*
D03*
X60000Y63500D02*
D03*
Y62500D02*
D03*
Y59500D02*
D03*
Y60500D02*
D03*
Y61500D02*
D03*
D56*
X111600Y75250D02*
X111600Y75250D01*
X111500Y75150D02*
X111600Y75250D01*
M02*
