G04*
G04 #@! TF.GenerationSoftware,Altium Limited,Altium Designer,19.1.6 (110)*
G04*
G04 Layer_Color=32896*
%FSLAX43Y43*%
%MOMM*%
G71*
G01*
G75*
G36*
X114330Y51940D02*
X114371Y51932D01*
X114406Y51919D01*
X114437Y51905D01*
X114461Y51891D01*
X114478Y51878D01*
X114490Y51870D01*
X114494Y51866D01*
X114509Y51850D01*
X114521Y51833D01*
X114544Y51794D01*
X114564Y51753D01*
X114580Y51712D01*
X114589Y51675D01*
X114593Y51659D01*
X114597Y51644D01*
X114599Y51632D01*
X114601Y51624D01*
X114603Y51618D01*
Y51616D01*
X114422Y51579D01*
X114418Y51608D01*
X114412Y51634D01*
X114406Y51655D01*
X114398Y51673D01*
X114390Y51686D01*
X114384Y51696D01*
X114381Y51702D01*
X114379Y51704D01*
X114365Y51718D01*
X114349Y51729D01*
X114336Y51737D01*
X114322Y51741D01*
X114310Y51745D01*
X114301Y51747D01*
X114293D01*
X114275Y51745D01*
X114258Y51741D01*
X114244Y51735D01*
X114232Y51729D01*
X114223Y51722D01*
X114217Y51716D01*
X114213Y51712D01*
X114211Y51710D01*
X114199Y51694D01*
X114191Y51679D01*
X114186Y51661D01*
X114182Y51644D01*
X114180Y51630D01*
X114178Y51618D01*
Y51610D01*
Y51606D01*
X114180Y51579D01*
X114186Y51556D01*
X114191Y51536D01*
X114199Y51519D01*
X114209Y51505D01*
X114215Y51495D01*
X114221Y51489D01*
X114223Y51487D01*
X114240Y51474D01*
X114260Y51462D01*
X114281Y51456D01*
X114301Y51450D01*
X114316Y51448D01*
X114332Y51446D01*
X114344D01*
X114363Y51249D01*
X114328Y51261D01*
X114312Y51265D01*
X114301Y51267D01*
X114289Y51269D01*
X114275D01*
X114254Y51267D01*
X114234Y51261D01*
X114219Y51251D01*
X114205Y51244D01*
X114193Y51234D01*
X114186Y51224D01*
X114180Y51218D01*
X114178Y51216D01*
X114164Y51195D01*
X114154Y51171D01*
X114146Y51148D01*
X114143Y51125D01*
X114139Y51105D01*
X114137Y51090D01*
Y51078D01*
Y51076D01*
Y51074D01*
X114139Y51039D01*
X114143Y51008D01*
X114150Y50982D01*
X114158Y50959D01*
X114166Y50943D01*
X114174Y50930D01*
X114178Y50922D01*
X114180Y50920D01*
X114195Y50902D01*
X114213Y50889D01*
X114230Y50879D01*
X114246Y50873D01*
X114260Y50869D01*
X114271Y50865D01*
X114281D01*
X114301Y50867D01*
X114318Y50873D01*
X114336Y50879D01*
X114349Y50889D01*
X114361Y50896D01*
X114369Y50902D01*
X114375Y50908D01*
X114377Y50910D01*
X114390Y50930D01*
X114402Y50951D01*
X114410Y50974D01*
X114416Y50996D01*
X114420Y51015D01*
X114422Y51031D01*
X114424Y51043D01*
Y51047D01*
X114617Y51021D01*
X114609Y50963D01*
X114593Y50910D01*
X114576Y50865D01*
X114558Y50828D01*
X114548Y50813D01*
X114541Y50799D01*
X114531Y50787D01*
X114525Y50777D01*
X114517Y50770D01*
X114513Y50764D01*
X114511Y50762D01*
X114509Y50760D01*
X114492Y50744D01*
X114472Y50729D01*
X114433Y50705D01*
X114396Y50690D01*
X114359Y50678D01*
X114328Y50672D01*
X114314Y50668D01*
X114303D01*
X114293Y50666D01*
X114279D01*
X114254Y50668D01*
X114228Y50670D01*
X114205Y50676D01*
X114182Y50684D01*
X114141Y50701D01*
X114106Y50723D01*
X114076Y50742D01*
X114065Y50752D01*
X114055Y50760D01*
X114047Y50768D01*
X114041Y50774D01*
X114039Y50775D01*
X114037Y50777D01*
X114020Y50799D01*
X114002Y50822D01*
X113988Y50846D01*
X113977Y50869D01*
X113959Y50916D01*
X113948Y50961D01*
X113942Y50980D01*
X113940Y51000D01*
X113938Y51017D01*
X113936Y51031D01*
X113934Y51045D01*
Y51052D01*
Y51058D01*
Y51060D01*
X113936Y51103D01*
X113942Y51142D01*
X113951Y51175D01*
X113961Y51203D01*
X113971Y51226D01*
X113981Y51244D01*
X113987Y51253D01*
X113988Y51257D01*
X114010Y51285D01*
X114033Y51306D01*
X114057Y51324D01*
X114078Y51337D01*
X114100Y51347D01*
X114115Y51355D01*
X114125Y51357D01*
X114127Y51359D01*
X114129D01*
X114104Y51378D01*
X114080Y51398D01*
X114061Y51417D01*
X114045Y51435D01*
X114033Y51450D01*
X114026Y51462D01*
X114020Y51472D01*
X114018Y51474D01*
X114004Y51499D01*
X113994Y51525D01*
X113988Y51550D01*
X113983Y51573D01*
X113981Y51593D01*
X113979Y51608D01*
Y51618D01*
Y51622D01*
Y51645D01*
X113983Y51667D01*
X113992Y51708D01*
X114006Y51745D01*
X114020Y51778D01*
X114035Y51805D01*
X114049Y51825D01*
X114055Y51833D01*
X114059Y51839D01*
X114061Y51841D01*
X114063Y51842D01*
X114078Y51860D01*
X114096Y51876D01*
X114113Y51889D01*
X114131Y51901D01*
X114168Y51919D01*
X114205Y51932D01*
X114236Y51938D01*
X114250Y51940D01*
X114262Y51942D01*
X114271Y51944D01*
X114285D01*
X114330Y51940D01*
D02*
G37*
G36*
X113532D02*
X113573Y51932D01*
X113608Y51919D01*
X113639Y51905D01*
X113663Y51891D01*
X113680Y51878D01*
X113692Y51870D01*
X113696Y51866D01*
X113711Y51850D01*
X113723Y51833D01*
X113747Y51794D01*
X113766Y51753D01*
X113782Y51712D01*
X113791Y51675D01*
X113795Y51659D01*
X113799Y51644D01*
X113801Y51632D01*
X113803Y51624D01*
X113805Y51618D01*
Y51616D01*
X113624Y51579D01*
X113620Y51608D01*
X113614Y51634D01*
X113608Y51655D01*
X113600Y51673D01*
X113592Y51686D01*
X113587Y51696D01*
X113583Y51702D01*
X113581Y51704D01*
X113567Y51718D01*
X113552Y51729D01*
X113538Y51737D01*
X113524Y51741D01*
X113513Y51745D01*
X113503Y51747D01*
X113495D01*
X113477Y51745D01*
X113460Y51741D01*
X113446Y51735D01*
X113434Y51729D01*
X113425Y51722D01*
X113419Y51716D01*
X113415Y51712D01*
X113413Y51710D01*
X113401Y51694D01*
X113394Y51679D01*
X113388Y51661D01*
X113384Y51644D01*
X113382Y51630D01*
X113380Y51618D01*
Y51610D01*
Y51606D01*
X113382Y51579D01*
X113388Y51556D01*
X113394Y51536D01*
X113401Y51519D01*
X113411Y51505D01*
X113417Y51495D01*
X113423Y51489D01*
X113425Y51487D01*
X113442Y51474D01*
X113462Y51462D01*
X113483Y51456D01*
X113503Y51450D01*
X113518Y51448D01*
X113534Y51446D01*
X113546D01*
X113565Y51249D01*
X113530Y51261D01*
X113514Y51265D01*
X113503Y51267D01*
X113491Y51269D01*
X113477D01*
X113456Y51267D01*
X113436Y51261D01*
X113421Y51251D01*
X113407Y51244D01*
X113395Y51234D01*
X113388Y51224D01*
X113382Y51218D01*
X113380Y51216D01*
X113366Y51195D01*
X113356Y51171D01*
X113349Y51148D01*
X113345Y51125D01*
X113341Y51105D01*
X113339Y51090D01*
Y51078D01*
Y51076D01*
Y51074D01*
X113341Y51039D01*
X113345Y51008D01*
X113353Y50982D01*
X113360Y50959D01*
X113368Y50943D01*
X113376Y50930D01*
X113380Y50922D01*
X113382Y50920D01*
X113397Y50902D01*
X113415Y50889D01*
X113433Y50879D01*
X113448Y50873D01*
X113462Y50869D01*
X113474Y50865D01*
X113483D01*
X113503Y50867D01*
X113520Y50873D01*
X113538Y50879D01*
X113552Y50889D01*
X113563Y50896D01*
X113571Y50902D01*
X113577Y50908D01*
X113579Y50910D01*
X113592Y50930D01*
X113604Y50951D01*
X113612Y50974D01*
X113618Y50996D01*
X113622Y51015D01*
X113624Y51031D01*
X113626Y51043D01*
Y51047D01*
X113819Y51021D01*
X113811Y50963D01*
X113795Y50910D01*
X113778Y50865D01*
X113760Y50828D01*
X113751Y50813D01*
X113743Y50799D01*
X113733Y50787D01*
X113727Y50777D01*
X113719Y50770D01*
X113715Y50764D01*
X113713Y50762D01*
X113711Y50760D01*
X113694Y50744D01*
X113674Y50729D01*
X113635Y50705D01*
X113598Y50690D01*
X113561Y50678D01*
X113530Y50672D01*
X113516Y50668D01*
X113505D01*
X113495Y50666D01*
X113481D01*
X113456Y50668D01*
X113431Y50670D01*
X113407Y50676D01*
X113384Y50684D01*
X113343Y50701D01*
X113308Y50723D01*
X113278Y50742D01*
X113267Y50752D01*
X113257Y50760D01*
X113249Y50768D01*
X113243Y50774D01*
X113241Y50775D01*
X113239Y50777D01*
X113222Y50799D01*
X113204Y50822D01*
X113191Y50846D01*
X113179Y50869D01*
X113161Y50916D01*
X113150Y50961D01*
X113144Y50980D01*
X113142Y51000D01*
X113140Y51017D01*
X113138Y51031D01*
X113136Y51045D01*
Y51052D01*
Y51058D01*
Y51060D01*
X113138Y51103D01*
X113144Y51142D01*
X113154Y51175D01*
X113163Y51203D01*
X113173Y51226D01*
X113183Y51244D01*
X113189Y51253D01*
X113191Y51257D01*
X113212Y51285D01*
X113236Y51306D01*
X113259Y51324D01*
X113280Y51337D01*
X113302Y51347D01*
X113317Y51355D01*
X113327Y51357D01*
X113329Y51359D01*
X113331D01*
X113306Y51378D01*
X113282Y51398D01*
X113263Y51417D01*
X113247Y51435D01*
X113236Y51450D01*
X113228Y51462D01*
X113222Y51472D01*
X113220Y51474D01*
X113206Y51499D01*
X113197Y51525D01*
X113191Y51550D01*
X113185Y51573D01*
X113183Y51593D01*
X113181Y51608D01*
Y51618D01*
Y51622D01*
Y51645D01*
X113185Y51667D01*
X113195Y51708D01*
X113208Y51745D01*
X113222Y51778D01*
X113237Y51805D01*
X113251Y51825D01*
X113257Y51833D01*
X113261Y51839D01*
X113263Y51841D01*
X113265Y51842D01*
X113280Y51860D01*
X113298Y51876D01*
X113315Y51889D01*
X113333Y51901D01*
X113370Y51919D01*
X113407Y51932D01*
X113438Y51938D01*
X113452Y51940D01*
X113464Y51942D01*
X113474Y51944D01*
X113487D01*
X113532Y51940D01*
D02*
G37*
G36*
X112734Y51940D02*
X112775Y51932D01*
X112810Y51919D01*
X112841Y51905D01*
X112865Y51891D01*
X112882Y51878D01*
X112894Y51870D01*
X112898Y51866D01*
X112914Y51850D01*
X112925Y51833D01*
X112949Y51794D01*
X112968Y51753D01*
X112984Y51712D01*
X112994Y51675D01*
X112998Y51659D01*
X113001Y51644D01*
X113003Y51632D01*
X113005Y51624D01*
X113007Y51618D01*
Y51616D01*
X112826Y51579D01*
X112822Y51608D01*
X112816Y51634D01*
X112810Y51655D01*
X112802Y51673D01*
X112795Y51686D01*
X112789Y51696D01*
X112785Y51702D01*
X112783Y51704D01*
X112769Y51718D01*
X112754Y51729D01*
X112740Y51737D01*
X112726Y51741D01*
X112715Y51745D01*
X112705Y51747D01*
X112697D01*
X112680Y51745D01*
X112662Y51741D01*
X112648Y51735D01*
X112637Y51729D01*
X112627Y51722D01*
X112621Y51716D01*
X112617Y51712D01*
X112615Y51710D01*
X112603Y51694D01*
X112596Y51679D01*
X112590Y51661D01*
X112586Y51644D01*
X112584Y51630D01*
X112582Y51618D01*
Y51610D01*
Y51606D01*
X112584Y51579D01*
X112590Y51556D01*
X112596Y51536D01*
X112603Y51519D01*
X112613Y51505D01*
X112619Y51495D01*
X112625Y51489D01*
X112627Y51487D01*
X112644Y51474D01*
X112664Y51462D01*
X112685Y51456D01*
X112705Y51450D01*
X112721Y51448D01*
X112736Y51446D01*
X112748D01*
X112767Y51249D01*
X112732Y51261D01*
X112717Y51265D01*
X112705Y51267D01*
X112693Y51269D01*
X112680D01*
X112658Y51267D01*
X112639Y51261D01*
X112623Y51251D01*
X112609Y51244D01*
X112598Y51234D01*
X112590Y51224D01*
X112584Y51218D01*
X112582Y51216D01*
X112568Y51195D01*
X112559Y51171D01*
X112551Y51148D01*
X112547Y51125D01*
X112543Y51105D01*
X112541Y51090D01*
Y51078D01*
Y51076D01*
Y51074D01*
X112543Y51039D01*
X112547Y51008D01*
X112555Y50982D01*
X112563Y50959D01*
X112570Y50943D01*
X112578Y50930D01*
X112582Y50922D01*
X112584Y50920D01*
X112600Y50902D01*
X112617Y50889D01*
X112635Y50879D01*
X112650Y50873D01*
X112664Y50869D01*
X112676Y50865D01*
X112685D01*
X112705Y50867D01*
X112722Y50873D01*
X112740Y50879D01*
X112754Y50889D01*
X112765Y50896D01*
X112773Y50902D01*
X112779Y50908D01*
X112781Y50910D01*
X112795Y50930D01*
X112806Y50951D01*
X112814Y50974D01*
X112820Y50996D01*
X112824Y51015D01*
X112826Y51031D01*
X112828Y51043D01*
Y51047D01*
X113021Y51021D01*
X113013Y50963D01*
X112998Y50910D01*
X112980Y50865D01*
X112962Y50828D01*
X112953Y50813D01*
X112945Y50799D01*
X112935Y50787D01*
X112929Y50777D01*
X112921Y50770D01*
X112918Y50764D01*
X112916Y50762D01*
X112914Y50760D01*
X112896Y50744D01*
X112877Y50729D01*
X112838Y50705D01*
X112801Y50690D01*
X112763Y50678D01*
X112732Y50672D01*
X112719Y50668D01*
X112707D01*
X112697Y50666D01*
X112683D01*
X112658Y50668D01*
X112633Y50670D01*
X112609Y50676D01*
X112586Y50684D01*
X112545Y50701D01*
X112510Y50723D01*
X112481Y50742D01*
X112469Y50752D01*
X112459Y50760D01*
X112451Y50768D01*
X112445Y50773D01*
X112444Y50775D01*
X112442Y50777D01*
X112424Y50799D01*
X112406Y50822D01*
X112393Y50846D01*
X112381Y50869D01*
X112364Y50916D01*
X112352Y50961D01*
X112346Y50980D01*
X112344Y51000D01*
X112342Y51017D01*
X112340Y51031D01*
X112338Y51045D01*
Y51052D01*
Y51058D01*
Y51060D01*
X112340Y51103D01*
X112346Y51142D01*
X112356Y51175D01*
X112366Y51203D01*
X112375Y51226D01*
X112385Y51244D01*
X112391Y51253D01*
X112393Y51257D01*
X112414Y51285D01*
X112438Y51306D01*
X112461Y51324D01*
X112483Y51337D01*
X112504Y51347D01*
X112520Y51355D01*
X112529Y51357D01*
X112531Y51359D01*
X112533D01*
X112508Y51378D01*
X112484Y51398D01*
X112465Y51417D01*
X112449Y51435D01*
X112438Y51450D01*
X112430Y51462D01*
X112424Y51472D01*
X112422Y51474D01*
X112408Y51499D01*
X112399Y51525D01*
X112393Y51550D01*
X112387Y51573D01*
X112385Y51593D01*
X112383Y51608D01*
Y51618D01*
Y51622D01*
Y51645D01*
X112387Y51667D01*
X112397Y51708D01*
X112410Y51745D01*
X112424Y51778D01*
X112440Y51805D01*
X112453Y51825D01*
X112459Y51833D01*
X112463Y51839D01*
X112465Y51841D01*
X112467Y51842D01*
X112483Y51860D01*
X112500Y51876D01*
X112518Y51889D01*
X112535Y51901D01*
X112572Y51919D01*
X112609Y51932D01*
X112641Y51938D01*
X112654Y51940D01*
X112666Y51942D01*
X112676Y51944D01*
X112689D01*
X112734Y51940D01*
D02*
G37*
G36*
X106751D02*
X106792Y51932D01*
X106827Y51919D01*
X106859Y51905D01*
X106882Y51891D01*
X106900Y51878D01*
X106911Y51870D01*
X106915Y51866D01*
X106931Y51850D01*
X106942Y51833D01*
X106966Y51794D01*
X106985Y51753D01*
X107001Y51712D01*
X107011Y51675D01*
X107015Y51659D01*
X107019Y51644D01*
X107021Y51632D01*
X107022Y51624D01*
X107024Y51618D01*
Y51616D01*
X106843Y51579D01*
X106839Y51608D01*
X106833Y51634D01*
X106827Y51655D01*
X106820Y51673D01*
X106812Y51686D01*
X106806Y51696D01*
X106802Y51702D01*
X106800Y51704D01*
X106786Y51718D01*
X106771Y51729D01*
X106757Y51737D01*
X106744Y51741D01*
X106732Y51745D01*
X106722Y51747D01*
X106714D01*
X106697Y51745D01*
X106679Y51741D01*
X106665Y51735D01*
X106654Y51729D01*
X106644Y51722D01*
X106638Y51716D01*
X106634Y51712D01*
X106632Y51710D01*
X106621Y51694D01*
X106613Y51679D01*
X106607Y51661D01*
X106603Y51644D01*
X106601Y51630D01*
X106599Y51618D01*
Y51610D01*
Y51606D01*
X106601Y51579D01*
X106607Y51556D01*
X106613Y51536D01*
X106621Y51519D01*
X106630Y51505D01*
X106636Y51495D01*
X106642Y51489D01*
X106644Y51487D01*
X106662Y51474D01*
X106681Y51462D01*
X106703Y51456D01*
X106722Y51450D01*
X106738Y51448D01*
X106753Y51446D01*
X106765D01*
X106784Y51249D01*
X106749Y51261D01*
X106734Y51265D01*
X106722Y51267D01*
X106710Y51269D01*
X106697D01*
X106675Y51267D01*
X106656Y51261D01*
X106640Y51251D01*
X106626Y51244D01*
X106615Y51234D01*
X106607Y51224D01*
X106601Y51218D01*
X106599Y51216D01*
X106586Y51195D01*
X106576Y51171D01*
X106568Y51148D01*
X106564Y51125D01*
X106560Y51105D01*
X106558Y51090D01*
Y51078D01*
Y51076D01*
Y51074D01*
X106560Y51039D01*
X106564Y51008D01*
X106572Y50982D01*
X106580Y50959D01*
X106587Y50943D01*
X106595Y50930D01*
X106599Y50922D01*
X106601Y50920D01*
X106617Y50902D01*
X106634Y50889D01*
X106652Y50879D01*
X106667Y50873D01*
X106681Y50869D01*
X106693Y50865D01*
X106703D01*
X106722Y50867D01*
X106740Y50873D01*
X106757Y50879D01*
X106771Y50889D01*
X106783Y50896D01*
X106790Y50902D01*
X106796Y50908D01*
X106798Y50910D01*
X106812Y50930D01*
X106824Y50951D01*
X106831Y50974D01*
X106837Y50996D01*
X106841Y51015D01*
X106843Y51031D01*
X106845Y51043D01*
Y51047D01*
X107038Y51021D01*
X107030Y50963D01*
X107015Y50910D01*
X106997Y50865D01*
X106980Y50828D01*
X106970Y50813D01*
X106962Y50799D01*
X106952Y50787D01*
X106946Y50777D01*
X106939Y50770D01*
X106935Y50764D01*
X106933Y50762D01*
X106931Y50760D01*
X106913Y50744D01*
X106894Y50729D01*
X106855Y50705D01*
X106818Y50690D01*
X106781Y50678D01*
X106749Y50672D01*
X106736Y50668D01*
X106724D01*
X106714Y50666D01*
X106701D01*
X106675Y50668D01*
X106650Y50670D01*
X106626Y50676D01*
X106603Y50684D01*
X106562Y50701D01*
X106527Y50723D01*
X106498Y50742D01*
X106486Y50752D01*
X106476Y50760D01*
X106468Y50768D01*
X106463Y50773D01*
X106461Y50775D01*
X106459Y50777D01*
X106441Y50799D01*
X106424Y50822D01*
X106410Y50846D01*
X106398Y50869D01*
X106381Y50916D01*
X106369Y50961D01*
X106363Y50980D01*
X106361Y51000D01*
X106359Y51017D01*
X106357Y51031D01*
X106355Y51045D01*
Y51052D01*
Y51058D01*
Y51060D01*
X106357Y51103D01*
X106363Y51142D01*
X106373Y51175D01*
X106383Y51203D01*
X106392Y51226D01*
X106402Y51244D01*
X106408Y51253D01*
X106410Y51257D01*
X106431Y51285D01*
X106455Y51306D01*
X106478Y51324D01*
X106500Y51337D01*
X106521Y51347D01*
X106537Y51355D01*
X106547Y51357D01*
X106548Y51359D01*
X106550D01*
X106525Y51378D01*
X106502Y51398D01*
X106482Y51417D01*
X106467Y51435D01*
X106455Y51450D01*
X106447Y51462D01*
X106441Y51472D01*
X106439Y51474D01*
X106426Y51499D01*
X106416Y51525D01*
X106410Y51550D01*
X106404Y51573D01*
X106402Y51593D01*
X106400Y51608D01*
Y51618D01*
Y51622D01*
Y51645D01*
X106404Y51667D01*
X106414Y51708D01*
X106427Y51745D01*
X106441Y51778D01*
X106457Y51805D01*
X106470Y51825D01*
X106476Y51833D01*
X106480Y51839D01*
X106482Y51841D01*
X106484Y51842D01*
X106500Y51860D01*
X106517Y51876D01*
X106535Y51889D01*
X106552Y51901D01*
X106589Y51919D01*
X106626Y51932D01*
X106658Y51938D01*
X106671Y51940D01*
X106683Y51942D01*
X106693Y51944D01*
X106706D01*
X106751Y51940D01*
D02*
G37*
G36*
X111392Y51267D02*
X111232Y51242D01*
X111218Y51257D01*
X111207Y51273D01*
X111179Y51294D01*
X111154Y51312D01*
X111131Y51322D01*
X111111Y51329D01*
X111094Y51331D01*
X111084Y51333D01*
X111080D01*
X111057Y51331D01*
X111035Y51326D01*
X111016Y51316D01*
X111000Y51306D01*
X110988Y51294D01*
X110979Y51287D01*
X110973Y51279D01*
X110971Y51277D01*
X110955Y51253D01*
X110945Y51226D01*
X110938Y51197D01*
X110932Y51169D01*
X110928Y51144D01*
X110926Y51123D01*
Y51115D01*
Y51109D01*
Y51105D01*
Y51103D01*
X110928Y51060D01*
X110934Y51021D01*
X110940Y50990D01*
X110947Y50965D01*
X110957Y50943D01*
X110963Y50930D01*
X110969Y50920D01*
X110971Y50918D01*
X110988Y50898D01*
X111006Y50885D01*
X111021Y50873D01*
X111039Y50867D01*
X111053Y50863D01*
X111064Y50861D01*
X111072Y50859D01*
X111074D01*
X111094Y50861D01*
X111111Y50867D01*
X111127Y50875D01*
X111142Y50883D01*
X111154Y50891D01*
X111162Y50898D01*
X111168Y50904D01*
X111170Y50906D01*
X111183Y50926D01*
X111195Y50945D01*
X111205Y50967D01*
X111211Y50988D01*
X111215Y51006D01*
X111217Y51021D01*
X111218Y51031D01*
Y51035D01*
X111415Y51010D01*
X111406Y50951D01*
X111390Y50900D01*
X111373Y50855D01*
X111355Y50820D01*
X111345Y50805D01*
X111336Y50791D01*
X111328Y50779D01*
X111320Y50772D01*
X111314Y50764D01*
X111310Y50758D01*
X111306Y50756D01*
Y50754D01*
X111289Y50738D01*
X111269Y50725D01*
X111232Y50703D01*
X111193Y50688D01*
X111158Y50678D01*
X111127Y50670D01*
X111113Y50668D01*
X111101D01*
X111092Y50666D01*
X111078D01*
X111047Y50668D01*
X111018Y50672D01*
X110990Y50680D01*
X110965Y50688D01*
X110920Y50709D01*
X110900Y50723D01*
X110883Y50736D01*
X110867Y50748D01*
X110854Y50762D01*
X110844Y50773D01*
X110834Y50783D01*
X110826Y50791D01*
X110821Y50799D01*
X110819Y50803D01*
X110817Y50805D01*
X110801Y50830D01*
X110785Y50857D01*
X110764Y50910D01*
X110746Y50961D01*
X110737Y51008D01*
X110733Y51029D01*
X110729Y51049D01*
X110727Y51064D01*
Y51080D01*
X110725Y51091D01*
Y51099D01*
Y51105D01*
Y51107D01*
X110727Y51144D01*
X110729Y51179D01*
X110735Y51212D01*
X110743Y51242D01*
X110750Y51271D01*
X110758Y51298D01*
X110768Y51322D01*
X110778Y51343D01*
X110789Y51363D01*
X110799Y51380D01*
X110807Y51396D01*
X110815Y51407D01*
X110822Y51417D01*
X110828Y51423D01*
X110830Y51427D01*
X110832Y51429D01*
X110848Y51446D01*
X110865Y51462D01*
X110883Y51474D01*
X110900Y51486D01*
X110936Y51503D01*
X110967Y51515D01*
X110996Y51521D01*
X111020Y51525D01*
X111027Y51526D01*
X111039D01*
X111064Y51525D01*
X111090Y51521D01*
X111111Y51513D01*
X111133Y51505D01*
X111148Y51497D01*
X111162Y51489D01*
X111170Y51486D01*
X111174Y51484D01*
X111140Y51698D01*
X110772D01*
Y51922D01*
X111291D01*
X111392Y51267D01*
D02*
G37*
G36*
X111888Y51903D02*
X111905Y51866D01*
X111927Y51831D01*
X111946Y51802D01*
X111966Y51778D01*
X111981Y51761D01*
X111991Y51749D01*
X111993Y51747D01*
X111995Y51745D01*
X112028Y51716D01*
X112059Y51692D01*
X112087Y51671D01*
X112112Y51655D01*
X112133Y51644D01*
X112151Y51634D01*
X112161Y51630D01*
X112165Y51628D01*
Y51409D01*
X112112Y51433D01*
X112063Y51462D01*
X112020Y51491D01*
X111983Y51521D01*
X111952Y51548D01*
X111938Y51560D01*
X111929Y51571D01*
X111921Y51579D01*
X111915Y51585D01*
X111911Y51589D01*
X111909Y51591D01*
Y50688D01*
X111712D01*
Y51944D01*
X111872D01*
X111888Y51903D01*
D02*
G37*
G36*
X107500D02*
X107518Y51866D01*
X107539Y51831D01*
X107559Y51802D01*
X107578Y51778D01*
X107594Y51761D01*
X107604Y51749D01*
X107606Y51747D01*
X107608Y51745D01*
X107641Y51716D01*
X107672Y51692D01*
X107699Y51671D01*
X107725Y51655D01*
X107746Y51644D01*
X107764Y51634D01*
X107773Y51630D01*
X107777Y51628D01*
Y51409D01*
X107725Y51433D01*
X107676Y51462D01*
X107633Y51491D01*
X107596Y51521D01*
X107565Y51548D01*
X107551Y51560D01*
X107541Y51571D01*
X107534Y51579D01*
X107528Y51585D01*
X107524Y51589D01*
X107522Y51591D01*
Y50688D01*
X107325D01*
Y51944D01*
X107485D01*
X107500Y51903D01*
D02*
G37*
G36*
X109480Y51942D02*
X109508Y51938D01*
X109535Y51930D01*
X109562Y51921D01*
X109607Y51895D01*
X109646Y51868D01*
X109664Y51854D01*
X109677Y51841D01*
X109691Y51827D01*
X109701Y51815D01*
X109709Y51805D01*
X109714Y51798D01*
X109718Y51794D01*
X109720Y51792D01*
X109738Y51761D01*
X109753Y51727D01*
X109769Y51690D01*
X109781Y51651D01*
X109798Y51569D01*
X109810Y51487D01*
X109816Y51448D01*
X109818Y51413D01*
X109820Y51380D01*
X109822Y51353D01*
X109824Y51329D01*
Y51312D01*
Y51300D01*
Y51298D01*
Y51296D01*
X109822Y51236D01*
X109820Y51179D01*
X109814Y51127D01*
X109808Y51078D01*
X109800Y51035D01*
X109793Y50996D01*
X109783Y50959D01*
X109773Y50928D01*
X109765Y50900D01*
X109755Y50877D01*
X109748Y50857D01*
X109740Y50840D01*
X109734Y50828D01*
X109728Y50820D01*
X109726Y50814D01*
X109724Y50813D01*
X109705Y50787D01*
X109683Y50764D01*
X109664Y50744D01*
X109642Y50729D01*
X109621Y50713D01*
X109599Y50701D01*
X109578Y50692D01*
X109558Y50684D01*
X109523Y50674D01*
X109508Y50670D01*
X109494Y50668D01*
X109484D01*
X109475Y50666D01*
X109469D01*
X109443Y50668D01*
X109418Y50670D01*
X109395Y50676D01*
X109373Y50684D01*
X109332Y50701D01*
X109297Y50723D01*
X109270Y50742D01*
X109250Y50760D01*
X109242Y50768D01*
X109237Y50773D01*
X109235Y50775D01*
X109233Y50777D01*
X109215Y50799D01*
X109201Y50824D01*
X109188Y50848D01*
X109178Y50875D01*
X109160Y50926D01*
X109149Y50976D01*
X109145Y51000D01*
X109143Y51021D01*
X109139Y51041D01*
Y51056D01*
X109137Y51070D01*
Y51082D01*
Y51088D01*
Y51090D01*
Y51123D01*
X109141Y51156D01*
X109151Y51214D01*
X109159Y51242D01*
X109166Y51265D01*
X109174Y51288D01*
X109182Y51308D01*
X109192Y51326D01*
X109199Y51343D01*
X109207Y51357D01*
X109215Y51367D01*
X109221Y51376D01*
X109225Y51382D01*
X109227Y51386D01*
X109229Y51388D01*
X109246Y51407D01*
X109264Y51425D01*
X109281Y51441D01*
X109299Y51454D01*
X109317Y51464D01*
X109334Y51474D01*
X109367Y51487D01*
X109396Y51495D01*
X109420Y51499D01*
X109428Y51501D01*
X109439D01*
X109459Y51499D01*
X109478Y51497D01*
X109494Y51493D01*
X109510Y51487D01*
X109521Y51482D01*
X109531Y51478D01*
X109537Y51476D01*
X109539Y51474D01*
X109555Y51462D01*
X109570Y51450D01*
X109584Y51437D01*
X109597Y51423D01*
X109607Y51411D01*
X109615Y51402D01*
X109619Y51396D01*
X109621Y51394D01*
X109619Y51433D01*
X109615Y51468D01*
X109613Y51499D01*
X109609Y51528D01*
X109603Y51554D01*
X109599Y51577D01*
X109595Y51597D01*
X109592Y51614D01*
X109586Y51630D01*
X109582Y51644D01*
X109578Y51653D01*
X109574Y51663D01*
X109572Y51669D01*
X109570Y51673D01*
X109568Y51677D01*
X109551Y51700D01*
X109533Y51718D01*
X109515Y51729D01*
X109500Y51739D01*
X109484Y51743D01*
X109473Y51745D01*
X109465Y51747D01*
X109463D01*
X109445Y51745D01*
X109430Y51741D01*
X109416Y51733D01*
X109402Y51725D01*
X109383Y51704D01*
X109369Y51679D01*
X109359Y51651D01*
X109354Y51630D01*
X109352Y51622D01*
X109350Y51614D01*
Y51610D01*
Y51608D01*
X109157Y51634D01*
X109166Y51688D01*
X109182Y51735D01*
X109198Y51776D01*
X109215Y51809D01*
X109231Y51833D01*
X109244Y51852D01*
X109254Y51862D01*
X109258Y51866D01*
X109289Y51891D01*
X109320Y51911D01*
X109354Y51924D01*
X109383Y51934D01*
X109410Y51940D01*
X109430Y51942D01*
X109437Y51944D01*
X109449D01*
X109480Y51942D01*
D02*
G37*
G36*
X115584Y51039D02*
X115596Y51004D01*
X115606Y50972D01*
X115615Y50949D01*
X115625Y50932D01*
X115633Y50918D01*
X115639Y50908D01*
X115643Y50904D01*
X115645Y50902D01*
X115658Y50893D01*
X115674Y50885D01*
X115691Y50879D01*
X115709Y50875D01*
X115725Y50873D01*
X115738Y50871D01*
X115773D01*
X115797Y50873D01*
X115826D01*
Y50688D01*
X115777Y50678D01*
X115754Y50676D01*
X115730Y50674D01*
X115713Y50672D01*
X115684D01*
X115652Y50676D01*
X115625Y50684D01*
X115602Y50694D01*
X115580Y50707D01*
X115563Y50721D01*
X115549Y50731D01*
X115541Y50738D01*
X115539Y50742D01*
X115528Y50756D01*
X115516Y50774D01*
X115494Y50811D01*
X115473Y50850D01*
X115453Y50891D01*
X115438Y50928D01*
X115432Y50943D01*
X115426Y50959D01*
X115420Y50971D01*
X115416Y50978D01*
X115414Y50984D01*
Y50986D01*
X115069Y51938D01*
X115284D01*
X115491Y51289D01*
X115729Y51938D01*
X115961D01*
X115584Y51039D01*
D02*
G37*
G36*
X119585Y51958D02*
X119620Y51954D01*
X119655Y51946D01*
X119688Y51934D01*
X119718Y51922D01*
X119745Y51909D01*
X119770Y51895D01*
X119794Y51882D01*
X119813Y51866D01*
X119833Y51852D01*
X119848Y51839D01*
X119860Y51827D01*
X119870Y51817D01*
X119878Y51809D01*
X119882Y51803D01*
X119884Y51802D01*
X119909Y51766D01*
X119930Y51727D01*
X119950Y51688D01*
X119965Y51647D01*
X119979Y51605D01*
X119991Y51564D01*
X120001Y51523D01*
X120008Y51484D01*
X120014Y51446D01*
X120018Y51411D01*
X120022Y51380D01*
X120024Y51353D01*
Y51331D01*
X120026Y51314D01*
Y51304D01*
Y51300D01*
X120024Y51246D01*
X120020Y51193D01*
X120012Y51144D01*
X120005Y51097D01*
X119993Y51054D01*
X119981Y51015D01*
X119967Y50980D01*
X119954Y50947D01*
X119942Y50918D01*
X119928Y50893D01*
X119917Y50871D01*
X119905Y50853D01*
X119897Y50838D01*
X119889Y50828D01*
X119886Y50822D01*
X119884Y50820D01*
X119860Y50793D01*
X119833Y50770D01*
X119807Y50748D01*
X119780Y50731D01*
X119753Y50717D01*
X119726Y50703D01*
X119698Y50694D01*
X119673Y50686D01*
X119649Y50680D01*
X119628Y50674D01*
X119609Y50670D01*
X119591Y50668D01*
X119577D01*
X119568Y50666D01*
X119558D01*
X119529Y50668D01*
X119501Y50670D01*
X119449Y50682D01*
X119404Y50697D01*
X119365Y50715D01*
X119349Y50723D01*
X119333Y50733D01*
X119320Y50740D01*
X119310Y50746D01*
X119302Y50754D01*
X119296Y50758D01*
X119293Y50760D01*
X119291Y50762D01*
X119271Y50781D01*
X119252Y50803D01*
X119220Y50852D01*
X119193Y50902D01*
X119170Y50953D01*
X119162Y50976D01*
X119154Y50998D01*
X119146Y51017D01*
X119142Y51035D01*
X119138Y51051D01*
X119134Y51060D01*
X119133Y51068D01*
Y51070D01*
X119333Y51148D01*
X119345Y51099D01*
X119359Y51058D01*
X119372Y51023D01*
X119388Y50994D01*
X119400Y50972D01*
X119411Y50957D01*
X119419Y50949D01*
X119421Y50945D01*
X119445Y50924D01*
X119468Y50910D01*
X119491Y50898D01*
X119513Y50891D01*
X119532Y50887D01*
X119548Y50885D01*
X119558Y50883D01*
X119562D01*
X119581Y50885D01*
X119601Y50887D01*
X119638Y50898D01*
X119667Y50914D01*
X119694Y50933D01*
X119716Y50951D01*
X119729Y50967D01*
X119739Y50978D01*
X119743Y50980D01*
Y50982D01*
X119755Y51002D01*
X119767Y51025D01*
X119774Y51051D01*
X119782Y51076D01*
X119794Y51132D01*
X119804Y51187D01*
X119806Y51214D01*
X119807Y51238D01*
X119809Y51259D01*
Y51279D01*
X119811Y51296D01*
Y51308D01*
Y51316D01*
Y51318D01*
Y51359D01*
X119807Y51398D01*
X119806Y51433D01*
X119800Y51464D01*
X119796Y51493D01*
X119790Y51521D01*
X119782Y51544D01*
X119776Y51565D01*
X119770Y51585D01*
X119763Y51601D01*
X119757Y51614D01*
X119753Y51624D01*
X119747Y51634D01*
X119745Y51640D01*
X119741Y51642D01*
Y51644D01*
X119728Y51661D01*
X119712Y51677D01*
X119696Y51690D01*
X119683Y51702D01*
X119651Y51720D01*
X119622Y51731D01*
X119595Y51737D01*
X119575Y51741D01*
X119568Y51743D01*
X119556D01*
X119527Y51741D01*
X119501Y51735D01*
X119478Y51725D01*
X119458Y51716D01*
X119441Y51706D01*
X119429Y51696D01*
X119421Y51690D01*
X119419Y51688D01*
X119400Y51667D01*
X119382Y51642D01*
X119369Y51614D01*
X119357Y51591D01*
X119349Y51567D01*
X119343Y51550D01*
X119339Y51536D01*
Y51534D01*
Y51532D01*
X119134Y51593D01*
X119150Y51651D01*
X119170Y51700D01*
X119191Y51743D01*
X119211Y51778D01*
X119228Y51805D01*
X119244Y51825D01*
X119250Y51833D01*
X119253Y51837D01*
X119255Y51841D01*
X119257D01*
X119279Y51862D01*
X119302Y51880D01*
X119328Y51895D01*
X119351Y51909D01*
X119374Y51921D01*
X119400Y51930D01*
X119445Y51944D01*
X119466Y51950D01*
X119486Y51954D01*
X119503Y51956D01*
X119517Y51958D01*
X119529Y51960D01*
X119546D01*
X119585Y51958D01*
D02*
G37*
G36*
X118953Y50688D02*
X118746D01*
Y51725D01*
X118341D01*
Y50688D01*
X118134D01*
Y51938D01*
X118953D01*
Y50688D01*
D02*
G37*
G36*
X117917D02*
X117418D01*
X117383Y50690D01*
X117350Y50694D01*
X117320Y50697D01*
X117293Y50705D01*
X117268Y50713D01*
X117244Y50723D01*
X117225Y50734D01*
X117207Y50744D01*
X117192Y50754D01*
X117178Y50766D01*
X117168Y50775D01*
X117158Y50783D01*
X117151Y50791D01*
X117147Y50797D01*
X117143Y50799D01*
Y50801D01*
X117116Y50844D01*
X117096Y50889D01*
X117080Y50933D01*
X117071Y50974D01*
X117065Y51010D01*
X117063Y51025D01*
Y51037D01*
X117061Y51049D01*
Y51056D01*
Y51060D01*
Y51062D01*
X117063Y51093D01*
X117065Y51123D01*
X117076Y51177D01*
X117090Y51224D01*
X117100Y51244D01*
X117108Y51263D01*
X117117Y51279D01*
X117125Y51294D01*
X117135Y51306D01*
X117141Y51316D01*
X117147Y51326D01*
X117153Y51331D01*
X117155Y51333D01*
X117156Y51335D01*
X117176Y51355D01*
X117195Y51370D01*
X117217Y51384D01*
X117238Y51396D01*
X117281Y51415D01*
X117322Y51427D01*
X117359Y51435D01*
X117377Y51437D01*
X117391Y51439D01*
X117402Y51441D01*
X117710D01*
Y51725D01*
X117151D01*
Y51938D01*
X117917D01*
Y50688D01*
D02*
G37*
G36*
X116887D02*
X116680D01*
Y51725D01*
X116275D01*
Y50688D01*
X116068D01*
Y51938D01*
X116887D01*
Y50688D01*
D02*
G37*
G36*
X114968D02*
X114771D01*
Y50928D01*
X114968D01*
Y50688D01*
D02*
G37*
G36*
X108985Y50688D02*
X108788D01*
Y50928D01*
X108985D01*
Y50688D01*
D02*
G37*
G36*
X110317Y51942D02*
X110343Y51938D01*
X110368Y51930D01*
X110389Y51922D01*
X110430Y51899D01*
X110465Y51874D01*
X110493Y51846D01*
X110512Y51823D01*
X110520Y51815D01*
X110526Y51807D01*
X110528Y51803D01*
X110530Y51802D01*
X110545Y51772D01*
X110559Y51739D01*
X110573Y51702D01*
X110583Y51665D01*
X110598Y51583D01*
X110610Y51501D01*
X110614Y51462D01*
X110616Y51425D01*
X110620Y51392D01*
Y51363D01*
X110622Y51339D01*
Y51322D01*
Y51310D01*
Y51308D01*
Y51306D01*
X110620Y51242D01*
X110618Y51181D01*
X110614Y51127D01*
X110608Y51076D01*
X110600Y51031D01*
X110592Y50990D01*
X110584Y50953D01*
X110575Y50922D01*
X110567Y50894D01*
X110559Y50871D01*
X110551Y50850D01*
X110544Y50834D01*
X110538Y50822D01*
X110534Y50813D01*
X110530Y50809D01*
Y50807D01*
X110512Y50781D01*
X110493Y50760D01*
X110473Y50742D01*
X110454Y50725D01*
X110432Y50711D01*
X110413Y50701D01*
X110393Y50692D01*
X110374Y50684D01*
X110341Y50674D01*
X110325Y50670D01*
X110313Y50668D01*
X110302D01*
X110294Y50666D01*
X110288D01*
X110261Y50668D01*
X110235Y50672D01*
X110210Y50680D01*
X110188Y50688D01*
X110148Y50711D01*
X110112Y50736D01*
X110085Y50762D01*
X110064Y50785D01*
X110058Y50793D01*
X110052Y50801D01*
X110050Y50805D01*
X110048Y50807D01*
X110032Y50836D01*
X110017Y50869D01*
X110005Y50906D01*
X109993Y50945D01*
X109978Y51027D01*
X109966Y51109D01*
X109962Y51148D01*
X109958Y51185D01*
X109956Y51218D01*
Y51246D01*
X109954Y51271D01*
Y51288D01*
Y51300D01*
Y51304D01*
X109956Y51368D01*
X109958Y51427D01*
X109962Y51482D01*
X109968Y51532D01*
X109976Y51577D01*
X109984Y51618D01*
X109991Y51653D01*
X110001Y51686D01*
X110009Y51714D01*
X110019Y51737D01*
X110027Y51759D01*
X110032Y51774D01*
X110040Y51786D01*
X110044Y51796D01*
X110046Y51800D01*
X110048Y51802D01*
X110066Y51827D01*
X110085Y51848D01*
X110105Y51868D01*
X110124Y51883D01*
X110146Y51897D01*
X110165Y51909D01*
X110185Y51919D01*
X110204Y51926D01*
X110237Y51936D01*
X110253Y51940D01*
X110265Y51942D01*
X110276Y51944D01*
X110290D01*
X110317Y51942D01*
D02*
G37*
G36*
X108324D02*
X108349Y51938D01*
X108374Y51930D01*
X108396Y51922D01*
X108437Y51899D01*
X108472Y51874D01*
X108499Y51846D01*
X108519Y51823D01*
X108526Y51815D01*
X108532Y51807D01*
X108534Y51803D01*
X108536Y51802D01*
X108552Y51772D01*
X108565Y51739D01*
X108579Y51702D01*
X108589Y51665D01*
X108605Y51583D01*
X108616Y51501D01*
X108620Y51462D01*
X108622Y51425D01*
X108626Y51392D01*
Y51363D01*
X108628Y51339D01*
Y51322D01*
Y51310D01*
Y51308D01*
Y51306D01*
X108626Y51242D01*
X108624Y51181D01*
X108620Y51127D01*
X108614Y51076D01*
X108606Y51031D01*
X108599Y50990D01*
X108591Y50953D01*
X108581Y50922D01*
X108573Y50894D01*
X108565Y50871D01*
X108558Y50850D01*
X108550Y50834D01*
X108544Y50822D01*
X108540Y50813D01*
X108536Y50809D01*
Y50807D01*
X108519Y50781D01*
X108499Y50760D01*
X108480Y50742D01*
X108460Y50725D01*
X108439Y50711D01*
X108419Y50701D01*
X108400Y50692D01*
X108380Y50684D01*
X108347Y50674D01*
X108331Y50670D01*
X108320Y50668D01*
X108308D01*
X108300Y50666D01*
X108294D01*
X108267Y50668D01*
X108242Y50672D01*
X108216Y50680D01*
X108195Y50688D01*
X108154Y50711D01*
X108119Y50736D01*
X108091Y50762D01*
X108070Y50785D01*
X108064Y50793D01*
X108058Y50801D01*
X108056Y50805D01*
X108054Y50807D01*
X108039Y50836D01*
X108023Y50869D01*
X108011Y50906D01*
X108000Y50945D01*
X107984Y51027D01*
X107972Y51109D01*
X107969Y51148D01*
X107965Y51185D01*
X107963Y51218D01*
Y51246D01*
X107961Y51271D01*
Y51288D01*
Y51300D01*
Y51304D01*
X107963Y51368D01*
X107965Y51427D01*
X107969Y51482D01*
X107974Y51532D01*
X107982Y51577D01*
X107990Y51618D01*
X107998Y51653D01*
X108008Y51686D01*
X108015Y51714D01*
X108025Y51737D01*
X108033Y51759D01*
X108039Y51774D01*
X108047Y51786D01*
X108050Y51796D01*
X108052Y51800D01*
X108054Y51802D01*
X108072Y51827D01*
X108091Y51848D01*
X108111Y51868D01*
X108130Y51883D01*
X108152Y51897D01*
X108171Y51909D01*
X108191Y51919D01*
X108210Y51926D01*
X108244Y51936D01*
X108259Y51940D01*
X108271Y51942D01*
X108283Y51944D01*
X108296D01*
X108324Y51942D01*
D02*
G37*
%LPC*%
G36*
X109478Y51324D02*
X109469D01*
X109447Y51322D01*
X109428Y51316D01*
X109412Y51306D01*
X109398Y51296D01*
X109387Y51285D01*
X109379Y51277D01*
X109373Y51269D01*
X109371Y51267D01*
X109357Y51244D01*
X109348Y51214D01*
X109340Y51185D01*
X109336Y51156D01*
X109332Y51129D01*
X109330Y51107D01*
Y51099D01*
Y51093D01*
Y51090D01*
Y51088D01*
X109332Y51047D01*
X109336Y51011D01*
X109342Y50980D01*
X109348Y50957D01*
X109356Y50939D01*
X109361Y50926D01*
X109365Y50918D01*
X109367Y50916D01*
X109381Y50898D01*
X109396Y50887D01*
X109412Y50877D01*
X109428Y50871D01*
X109439Y50867D01*
X109449Y50865D01*
X109459D01*
X109480Y50867D01*
X109498Y50875D01*
X109515Y50885D01*
X109531Y50896D01*
X109543Y50908D01*
X109553Y50918D01*
X109558Y50926D01*
X109560Y50928D01*
X109574Y50953D01*
X109586Y50982D01*
X109594Y51013D01*
X109597Y51043D01*
X109601Y51068D01*
X109603Y51090D01*
Y51097D01*
Y51103D01*
Y51107D01*
Y51109D01*
X109601Y51146D01*
X109597Y51179D01*
X109592Y51207D01*
X109584Y51228D01*
X109576Y51246D01*
X109570Y51259D01*
X109566Y51267D01*
X109564Y51269D01*
X109549Y51287D01*
X109533Y51300D01*
X109517Y51310D01*
X109502Y51318D01*
X109488Y51322D01*
X109478Y51324D01*
D02*
G37*
G36*
X117710Y51228D02*
X117486D01*
X117449Y51226D01*
X117416Y51220D01*
X117389Y51212D01*
X117365Y51203D01*
X117344Y51189D01*
X117326Y51175D01*
X117313Y51160D01*
X117301Y51144D01*
X117293Y51129D01*
X117287Y51113D01*
X117281Y51099D01*
X117279Y51086D01*
X117277Y51076D01*
X117275Y51068D01*
Y51062D01*
Y51060D01*
X117277Y51041D01*
X117279Y51021D01*
X117285Y51006D01*
X117289Y50992D01*
X117295Y50978D01*
X117301Y50971D01*
X117303Y50965D01*
X117305Y50963D01*
X117316Y50949D01*
X117328Y50937D01*
X117338Y50928D01*
X117350Y50922D01*
X117357Y50916D01*
X117365Y50912D01*
X117369Y50910D01*
X117371D01*
X117387Y50906D01*
X117406Y50904D01*
X117447Y50902D01*
X117465Y50900D01*
X117710D01*
Y51228D01*
D02*
G37*
G36*
X110290Y51745D02*
X110288D01*
X110267Y51741D01*
X110249Y51733D01*
X110233Y51720D01*
X110220Y51706D01*
X110210Y51692D01*
X110202Y51679D01*
X110198Y51671D01*
X110196Y51667D01*
X110190Y51651D01*
X110185Y51630D01*
X110181Y51605D01*
X110177Y51579D01*
X110173Y51550D01*
X110169Y51519D01*
X110165Y51456D01*
X110163Y51427D01*
Y51400D01*
Y51372D01*
X110161Y51351D01*
Y51331D01*
Y51316D01*
Y51308D01*
Y51304D01*
Y51253D01*
X110163Y51207D01*
X110165Y51164D01*
X110167Y51127D01*
X110169Y51093D01*
X110173Y51064D01*
X110175Y51037D01*
X110179Y51015D01*
X110183Y50996D01*
X110185Y50980D01*
X110188Y50969D01*
X110190Y50957D01*
X110192Y50951D01*
X110194Y50945D01*
X110196Y50943D01*
Y50941D01*
X110210Y50916D01*
X110224Y50896D01*
X110239Y50885D01*
X110255Y50875D01*
X110268Y50869D01*
X110278Y50867D01*
X110286Y50865D01*
X110288D01*
X110309Y50869D01*
X110327Y50877D01*
X110343Y50889D01*
X110356Y50904D01*
X110368Y50918D01*
X110376Y50930D01*
X110380Y50937D01*
X110382Y50941D01*
X110387Y50959D01*
X110393Y50978D01*
X110397Y51004D01*
X110401Y51031D01*
X110403Y51058D01*
X110407Y51090D01*
X110411Y51152D01*
X110413Y51181D01*
Y51209D01*
Y51236D01*
X110415Y51257D01*
Y51277D01*
Y51292D01*
Y51300D01*
Y51304D01*
Y51355D01*
X110413Y51402D01*
X110411Y51445D01*
X110409Y51482D01*
X110407Y51515D01*
X110405Y51544D01*
X110401Y51571D01*
X110397Y51593D01*
X110395Y51612D01*
X110391Y51628D01*
X110389Y51640D01*
X110387Y51651D01*
X110386Y51657D01*
X110384Y51663D01*
X110382Y51667D01*
X110368Y51692D01*
X110352Y51712D01*
X110337Y51725D01*
X110321Y51735D01*
X110307Y51741D01*
X110298Y51743D01*
X110290Y51745D01*
D02*
G37*
G36*
X108296D02*
X108294D01*
X108273Y51741D01*
X108255Y51733D01*
X108240Y51720D01*
X108226Y51706D01*
X108216Y51692D01*
X108209Y51679D01*
X108205Y51671D01*
X108203Y51667D01*
X108197Y51651D01*
X108191Y51630D01*
X108187Y51605D01*
X108183Y51579D01*
X108179Y51550D01*
X108175Y51519D01*
X108171Y51456D01*
X108170Y51427D01*
Y51400D01*
Y51372D01*
X108168Y51351D01*
Y51331D01*
Y51316D01*
Y51308D01*
Y51304D01*
Y51253D01*
X108170Y51207D01*
X108171Y51164D01*
X108173Y51127D01*
X108175Y51093D01*
X108179Y51064D01*
X108181Y51037D01*
X108185Y51015D01*
X108189Y50996D01*
X108191Y50980D01*
X108195Y50969D01*
X108197Y50957D01*
X108199Y50951D01*
X108201Y50945D01*
X108203Y50943D01*
Y50941D01*
X108216Y50916D01*
X108230Y50896D01*
X108246Y50885D01*
X108261Y50875D01*
X108275Y50869D01*
X108285Y50867D01*
X108292Y50865D01*
X108294D01*
X108316Y50869D01*
X108333Y50877D01*
X108349Y50889D01*
X108363Y50904D01*
X108374Y50918D01*
X108382Y50930D01*
X108386Y50937D01*
X108388Y50941D01*
X108394Y50959D01*
X108400Y50978D01*
X108404Y51004D01*
X108407Y51031D01*
X108409Y51058D01*
X108413Y51090D01*
X108417Y51152D01*
X108419Y51181D01*
Y51209D01*
Y51236D01*
X108421Y51257D01*
Y51277D01*
Y51292D01*
Y51300D01*
Y51304D01*
Y51355D01*
X108419Y51402D01*
X108417Y51445D01*
X108415Y51482D01*
X108413Y51515D01*
X108411Y51544D01*
X108407Y51571D01*
X108404Y51593D01*
X108402Y51612D01*
X108398Y51628D01*
X108396Y51640D01*
X108394Y51651D01*
X108392Y51657D01*
X108390Y51663D01*
X108388Y51667D01*
X108374Y51692D01*
X108359Y51712D01*
X108343Y51725D01*
X108327Y51735D01*
X108314Y51741D01*
X108304Y51743D01*
X108296Y51745D01*
D02*
G37*
%LPD*%
M02*
