G04*
G04 #@! TF.GenerationSoftware,Altium Limited,Altium Designer,19.1.6 (110)*
G04*
G04 Layer_Color=65535*
%FSLAX43Y43*%
%MOMM*%
G71*
G01*
G75*
%ADD10C,0.250*%
%ADD11C,0.200*%
%ADD12C,0.254*%
G36*
X121114Y71977D02*
X121128Y71971D01*
X121144Y71961D01*
X121148Y71957D01*
X121153Y71948D01*
X121161Y71932D01*
X121163Y71920D01*
X121165Y71909D01*
Y71791D01*
X121938D01*
X121940D01*
X121941D01*
X121953Y71790D01*
X121969Y71784D01*
X121982Y71774D01*
X121984Y71770D01*
X121990Y71760D01*
X121998Y71743D01*
X122000Y71723D01*
Y71721D01*
X121998Y71712D01*
X121994Y71698D01*
X121984Y71676D01*
X121980Y71672D01*
X121973Y71665D01*
X121957Y71657D01*
X121949Y71655D01*
X121938Y71653D01*
X121165D01*
Y71626D01*
X121163Y71620D01*
Y71612D01*
X121157Y71594D01*
X121146Y71579D01*
X121144D01*
X121142Y71577D01*
X121132Y71571D01*
X121118Y71563D01*
X121101Y71561D01*
X121099D01*
X121089Y71563D01*
X121077Y71567D01*
X121060Y71577D01*
X121058D01*
X121056Y71581D01*
X121046Y71591D01*
X121038Y71608D01*
X121036Y71618D01*
X121034Y71632D01*
Y71653D01*
X120728D01*
X120724D01*
X120716Y71655D01*
X120703Y71661D01*
X120687Y71672D01*
X120685D01*
X120683Y71676D01*
X120675Y71686D01*
X120668Y71702D01*
X120664Y71712D01*
Y71727D01*
X120666Y71739D01*
X120672Y71754D01*
X120681Y71770D01*
Y71772D01*
X120685Y71774D01*
X120693Y71782D01*
X120709Y71788D01*
X120718Y71791D01*
X120728D01*
X121034D01*
Y71914D01*
X121036Y71926D01*
X121044Y71942D01*
X121048Y71949D01*
X121056Y71957D01*
Y71959D01*
X121060Y71961D01*
X121070Y71969D01*
X121083Y71975D01*
X121093Y71979D01*
X121101D01*
X121105D01*
X121114Y71977D01*
D02*
G37*
G36*
X121947Y71372D02*
X121957Y71370D01*
X121969Y71366D01*
X121980Y71356D01*
X121990Y71345D01*
X121998Y71327D01*
X122000Y71304D01*
Y70974D01*
X121998Y70964D01*
X121996Y70947D01*
X121992Y70927D01*
X121986Y70904D01*
X121975Y70879D01*
X121961Y70853D01*
X121941Y70830D01*
X121940Y70828D01*
X121932Y70820D01*
X121918Y70810D01*
X121901Y70801D01*
X121881Y70789D01*
X121856Y70779D01*
X121828Y70771D01*
X121797Y70769D01*
X121101D01*
X121099D01*
X121097D01*
X121087Y70771D01*
X121073Y70777D01*
X121058Y70789D01*
X121056D01*
X121054Y70793D01*
X121046Y70802D01*
X121038Y70818D01*
X121034Y70828D01*
Y70843D01*
X121036Y70855D01*
X121042Y70871D01*
X121054Y70886D01*
Y70888D01*
X121058Y70890D01*
X121066Y70898D01*
X121081Y70906D01*
X121091Y70910D01*
X121101D01*
X121797D01*
X121799D01*
X121803D01*
X121809Y70912D01*
X121817D01*
X121834Y70918D01*
X121852Y70929D01*
Y70931D01*
X121856Y70933D01*
X121862Y70943D01*
X121867Y70959D01*
X121871Y70978D01*
Y71234D01*
X121101D01*
X121099D01*
X121097D01*
X121087Y71236D01*
X121073Y71241D01*
X121058Y71253D01*
X121056D01*
X121054Y71257D01*
X121046Y71267D01*
X121038Y71282D01*
X121034Y71292D01*
Y71308D01*
X121036Y71319D01*
X121042Y71335D01*
X121054Y71353D01*
Y71355D01*
X121058Y71356D01*
X121066Y71364D01*
X121081Y71370D01*
X121091Y71374D01*
X121101D01*
X121938D01*
X121940D01*
X121947Y71372D01*
D02*
G37*
G36*
X121826Y70580D02*
X121848Y70576D01*
X121869Y70568D01*
X121895Y70559D01*
X121918Y70543D01*
X121941Y70524D01*
X121943Y70522D01*
X121951Y70512D01*
X121959Y70500D01*
X121971Y70483D01*
X121980Y70461D01*
X121990Y70436D01*
X121998Y70406D01*
X122000Y70375D01*
Y70184D01*
X121998Y70174D01*
X121996Y70157D01*
X121992Y70137D01*
X121986Y70114D01*
X121975Y70089D01*
X121961Y70063D01*
X121941Y70040D01*
X121940Y70038D01*
X121932Y70030D01*
X121918Y70020D01*
X121901Y70010D01*
X121881Y69999D01*
X121856Y69989D01*
X121828Y69981D01*
X121797Y69979D01*
X121239D01*
X121235D01*
X121228Y69981D01*
X121212Y69983D01*
X121194Y69987D01*
X121173Y69993D01*
X121149Y70005D01*
X121124Y70018D01*
X121101Y70038D01*
X121099Y70040D01*
X121091Y70048D01*
X121079Y70061D01*
X121068Y70079D01*
X121056Y70100D01*
X121044Y70126D01*
X121036Y70155D01*
X121034Y70188D01*
Y70391D01*
X121038Y70406D01*
X121042Y70426D01*
X121050Y70449D01*
X121060Y70475D01*
X121075Y70500D01*
X121095Y70524D01*
X121097Y70525D01*
X121105Y70533D01*
X121118Y70543D01*
X121134Y70555D01*
X121155Y70564D01*
X121181Y70574D01*
X121208Y70582D01*
X121239Y70584D01*
X121797D01*
X121801D01*
X121811D01*
X121826Y70580D01*
D02*
G37*
G36*
X120746Y69788D02*
X121945Y69462D01*
X121947D01*
X121953Y69458D01*
X121963Y69455D01*
X121973Y69449D01*
X121982Y69439D01*
X121992Y69427D01*
X121998Y69414D01*
X122000Y69396D01*
Y69388D01*
X121996Y69378D01*
X121992Y69369D01*
X121986Y69357D01*
X121977Y69345D01*
X121963Y69336D01*
X121945Y69328D01*
X120746Y69002D01*
X120730Y69000D01*
X120728D01*
X120726D01*
X120714Y69002D01*
X120701Y69008D01*
X120685Y69020D01*
Y69021D01*
X120681Y69023D01*
X120675Y69033D01*
X120670Y69051D01*
X120666Y69070D01*
Y69074D01*
X120668Y69082D01*
X120670Y69094D01*
X120675Y69107D01*
X120677Y69109D01*
X120683Y69117D01*
X120695Y69127D01*
X120705Y69131D01*
X120714Y69137D01*
X121664Y69396D01*
X120714Y69653D01*
X120713D01*
X120705Y69657D01*
X120693Y69663D01*
X120681Y69673D01*
X120679Y69677D01*
X120675Y69685D01*
X120670Y69700D01*
X120666Y69718D01*
Y69724D01*
X120668Y69735D01*
X120674Y69753D01*
X120683Y69769D01*
Y69771D01*
X120687Y69772D01*
X120695Y69780D01*
X120711Y69786D01*
X120720Y69790D01*
X120730D01*
X120746Y69788D01*
D02*
G37*
G36*
X108277Y78834D02*
X108293Y78828D01*
X108311Y78819D01*
X108313D01*
X108314Y78815D01*
X108322Y78807D01*
X108328Y78791D01*
X108332Y78782D01*
Y78772D01*
Y77562D01*
Y77560D01*
X108330Y77551D01*
X108324Y77537D01*
X108314Y77518D01*
X108313D01*
X108311Y77516D01*
X108299Y77510D01*
X108279Y77502D01*
X108258Y77500D01*
X108225Y77508D01*
X108199Y77535D01*
X107774Y78456D01*
Y77562D01*
Y77560D01*
Y77559D01*
X107772Y77547D01*
X107766Y77531D01*
X107755Y77518D01*
X107751Y77516D01*
X107741Y77510D01*
X107725Y77502D01*
X107704Y77500D01*
X107702D01*
X107692Y77502D01*
X107679Y77506D01*
X107657Y77516D01*
X107653Y77520D01*
X107645Y77527D01*
X107638Y77543D01*
X107636Y77551D01*
X107634Y77562D01*
Y78772D01*
Y78776D01*
X107636Y78784D01*
X107641Y78797D01*
X107653Y78813D01*
Y78815D01*
X107657Y78817D01*
X107667Y78825D01*
X107682Y78832D01*
X107692Y78836D01*
X107708D01*
X107716Y78834D01*
X107725Y78832D01*
X107739Y78826D01*
X107743Y78825D01*
X107749Y78821D01*
X107759Y78811D01*
X107766Y78797D01*
X108194Y77878D01*
Y78772D01*
Y78776D01*
X108195Y78784D01*
X108201Y78797D01*
X108213Y78813D01*
Y78815D01*
X108217Y78817D01*
X108227Y78825D01*
X108242Y78832D01*
X108252Y78836D01*
X108266D01*
X108277Y78834D01*
D02*
G37*
G36*
X108935D02*
X108945D01*
X108958Y78832D01*
X108987Y78825D01*
X109021Y78815D01*
X109056Y78799D01*
X109091Y78778D01*
X109108Y78764D01*
X109126Y78748D01*
X109128D01*
X109130Y78745D01*
X109140Y78733D01*
X109155Y78715D01*
X109171Y78690D01*
X109186Y78661D01*
X109202Y78624D01*
X109212Y78585D01*
X109216Y78563D01*
Y78540D01*
Y77795D01*
Y77793D01*
Y77789D01*
Y77783D01*
X109214Y77775D01*
X109212Y77752D01*
X109204Y77724D01*
X109194Y77691D01*
X109179Y77658D01*
X109157Y77623D01*
X109144Y77605D01*
X109128Y77588D01*
X109124Y77584D01*
X109112Y77574D01*
X109093Y77560D01*
X109067Y77545D01*
X109036Y77527D01*
X109001Y77514D01*
X108958Y77504D01*
X108937Y77502D01*
X108913Y77500D01*
X108584D01*
X108576Y77502D01*
X108566Y77504D01*
X108552Y77508D01*
X108539Y77516D01*
X108529Y77527D01*
X108521Y77541D01*
X108517Y77562D01*
Y78772D01*
Y78774D01*
X108519Y78782D01*
X108521Y78791D01*
X108527Y78805D01*
X108535Y78817D01*
X108547Y78826D01*
X108564Y78834D01*
X108588Y78836D01*
X108925D01*
X108935Y78834D01*
D02*
G37*
G36*
X107394D02*
X107409Y78826D01*
X107419Y78823D01*
X107427Y78815D01*
X107429D01*
X107431Y78811D01*
X107439Y78803D01*
X107444Y78789D01*
X107448Y78780D01*
Y78772D01*
Y78770D01*
Y78768D01*
X107446Y78758D01*
X107441Y78743D01*
X107429Y78727D01*
X107425Y78723D01*
X107415Y78717D01*
X107400Y78711D01*
X107378Y78707D01*
X107041D01*
X107029Y78706D01*
X107013Y78702D01*
X106996Y78696D01*
X106976Y78686D01*
X106957Y78674D01*
X106937Y78659D01*
X106935Y78657D01*
X106929Y78651D01*
X106922Y78639D01*
X106914Y78626D01*
X106906Y78608D01*
X106898Y78589D01*
X106892Y78565D01*
X106890Y78540D01*
Y77795D01*
Y77791D01*
Y77783D01*
X106892Y77771D01*
X106896Y77754D01*
X106902Y77736D01*
X106912Y77717D01*
X106924Y77697D01*
X106939Y77678D01*
X106941Y77676D01*
X106949Y77670D01*
X106959Y77662D01*
X106972Y77654D01*
X106990Y77644D01*
X107007Y77637D01*
X107029Y77631D01*
X107052Y77629D01*
X107308D01*
Y78148D01*
X107187D01*
X107181Y78150D01*
X107173D01*
X107156Y78157D01*
X107148Y78161D01*
X107140Y78169D01*
X107138Y78173D01*
X107132Y78183D01*
X107125Y78196D01*
X107123Y78212D01*
Y78214D01*
X107125Y78224D01*
X107128Y78235D01*
X107138Y78253D01*
Y78255D01*
X107142Y78257D01*
X107152Y78267D01*
X107169Y78274D01*
X107179Y78276D01*
X107193Y78278D01*
X107390D01*
X107400Y78274D01*
X107413Y78271D01*
X107427Y78263D01*
X107437Y78251D01*
X107444Y78233D01*
X107448Y78212D01*
Y77562D01*
Y77560D01*
X107446Y77553D01*
X107444Y77543D01*
X107441Y77531D01*
X107431Y77520D01*
X107419Y77510D01*
X107402Y77502D01*
X107378Y77500D01*
X107041D01*
X107033Y77502D01*
X107011Y77504D01*
X106982Y77512D01*
X106949Y77521D01*
X106914Y77537D01*
X106877Y77559D01*
X106859Y77570D01*
X106842Y77586D01*
Y77588D01*
X106838Y77590D01*
X106828Y77601D01*
X106812Y77619D01*
X106797Y77644D01*
X106779Y77674D01*
X106764Y77711D01*
X106754Y77750D01*
X106752Y77771D01*
X106750Y77795D01*
Y78540D01*
Y78542D01*
Y78546D01*
Y78551D01*
X106752Y78559D01*
X106754Y78581D01*
X106762Y78610D01*
X106771Y78641D01*
X106787Y78676D01*
X106809Y78711D01*
X106820Y78729D01*
X106836Y78747D01*
X106838Y78748D01*
X106840Y78750D01*
X106851Y78760D01*
X106871Y78776D01*
X106896Y78791D01*
X106928Y78807D01*
X106965Y78823D01*
X107006Y78832D01*
X107029Y78836D01*
X107382D01*
X107394Y78834D01*
D02*
G37*
G36*
X121114Y77227D02*
X121128Y77221D01*
X121144Y77211D01*
X121148Y77207D01*
X121153Y77198D01*
X121161Y77182D01*
X121163Y77170D01*
X121165Y77159D01*
Y77041D01*
X121938D01*
X121940D01*
X121941D01*
X121953Y77040D01*
X121969Y77034D01*
X121982Y77024D01*
X121984Y77020D01*
X121990Y77010D01*
X121998Y76993D01*
X122000Y76973D01*
Y76971D01*
X121998Y76962D01*
X121994Y76948D01*
X121984Y76926D01*
X121980Y76922D01*
X121973Y76915D01*
X121957Y76907D01*
X121949Y76905D01*
X121938Y76903D01*
X121165D01*
Y76876D01*
X121163Y76870D01*
Y76862D01*
X121157Y76844D01*
X121146Y76829D01*
X121144D01*
X121142Y76827D01*
X121132Y76821D01*
X121118Y76813D01*
X121101Y76811D01*
X121099D01*
X121089Y76813D01*
X121077Y76817D01*
X121060Y76827D01*
X121058D01*
X121056Y76831D01*
X121046Y76841D01*
X121038Y76858D01*
X121036Y76868D01*
X121034Y76882D01*
Y76903D01*
X120728D01*
X120724D01*
X120716Y76905D01*
X120703Y76911D01*
X120687Y76922D01*
X120685D01*
X120683Y76926D01*
X120675Y76936D01*
X120668Y76952D01*
X120664Y76962D01*
Y76977D01*
X120666Y76989D01*
X120672Y77004D01*
X120681Y77020D01*
Y77022D01*
X120685Y77024D01*
X120693Y77032D01*
X120709Y77038D01*
X120718Y77041D01*
X120728D01*
X121034D01*
Y77164D01*
X121036Y77176D01*
X121044Y77192D01*
X121048Y77199D01*
X121056Y77207D01*
Y77209D01*
X121060Y77211D01*
X121070Y77219D01*
X121083Y77225D01*
X121093Y77229D01*
X121101D01*
X121105D01*
X121114Y77227D01*
D02*
G37*
G36*
X121947Y76622D02*
X121957Y76620D01*
X121969Y76616D01*
X121980Y76606D01*
X121990Y76595D01*
X121998Y76577D01*
X122000Y76554D01*
Y76224D01*
X121998Y76214D01*
X121996Y76197D01*
X121992Y76177D01*
X121986Y76154D01*
X121975Y76129D01*
X121961Y76103D01*
X121941Y76080D01*
X121940Y76078D01*
X121932Y76070D01*
X121918Y76060D01*
X121901Y76051D01*
X121881Y76039D01*
X121856Y76029D01*
X121828Y76021D01*
X121797Y76019D01*
X121101D01*
X121099D01*
X121097D01*
X121087Y76021D01*
X121073Y76027D01*
X121058Y76039D01*
X121056D01*
X121054Y76043D01*
X121046Y76052D01*
X121038Y76068D01*
X121034Y76078D01*
Y76093D01*
X121036Y76105D01*
X121042Y76121D01*
X121054Y76136D01*
Y76138D01*
X121058Y76140D01*
X121066Y76148D01*
X121081Y76156D01*
X121091Y76160D01*
X121101D01*
X121797D01*
X121799D01*
X121803D01*
X121809Y76162D01*
X121817D01*
X121834Y76168D01*
X121852Y76179D01*
Y76181D01*
X121856Y76183D01*
X121862Y76193D01*
X121867Y76209D01*
X121871Y76228D01*
Y76484D01*
X121101D01*
X121099D01*
X121097D01*
X121087Y76486D01*
X121073Y76491D01*
X121058Y76503D01*
X121056D01*
X121054Y76507D01*
X121046Y76517D01*
X121038Y76532D01*
X121034Y76542D01*
Y76558D01*
X121036Y76569D01*
X121042Y76585D01*
X121054Y76603D01*
Y76605D01*
X121058Y76606D01*
X121066Y76614D01*
X121081Y76620D01*
X121091Y76624D01*
X121101D01*
X121938D01*
X121940D01*
X121947Y76622D01*
D02*
G37*
G36*
X121826Y75830D02*
X121848Y75826D01*
X121869Y75818D01*
X121895Y75809D01*
X121918Y75793D01*
X121941Y75774D01*
X121943Y75772D01*
X121951Y75762D01*
X121959Y75750D01*
X121971Y75733D01*
X121980Y75711D01*
X121990Y75686D01*
X121998Y75656D01*
X122000Y75625D01*
Y75434D01*
X121998Y75424D01*
X121996Y75407D01*
X121992Y75387D01*
X121986Y75364D01*
X121975Y75339D01*
X121961Y75313D01*
X121941Y75290D01*
X121940Y75288D01*
X121932Y75280D01*
X121918Y75270D01*
X121901Y75260D01*
X121881Y75249D01*
X121856Y75239D01*
X121828Y75231D01*
X121797Y75229D01*
X121239D01*
X121235D01*
X121228Y75231D01*
X121212Y75233D01*
X121194Y75237D01*
X121173Y75243D01*
X121149Y75255D01*
X121124Y75268D01*
X121101Y75288D01*
X121099Y75290D01*
X121091Y75298D01*
X121079Y75311D01*
X121068Y75329D01*
X121056Y75350D01*
X121044Y75376D01*
X121036Y75405D01*
X121034Y75438D01*
Y75641D01*
X121038Y75656D01*
X121042Y75676D01*
X121050Y75699D01*
X121060Y75725D01*
X121075Y75750D01*
X121095Y75774D01*
X121097Y75775D01*
X121105Y75783D01*
X121118Y75793D01*
X121134Y75805D01*
X121155Y75814D01*
X121181Y75824D01*
X121208Y75832D01*
X121239Y75834D01*
X121797D01*
X121801D01*
X121811D01*
X121826Y75830D01*
D02*
G37*
G36*
X120746Y75038D02*
X121945Y74712D01*
X121947D01*
X121953Y74708D01*
X121963Y74705D01*
X121973Y74699D01*
X121982Y74689D01*
X121992Y74677D01*
X121998Y74664D01*
X122000Y74646D01*
Y74638D01*
X121996Y74628D01*
X121992Y74619D01*
X121986Y74607D01*
X121977Y74595D01*
X121963Y74586D01*
X121945Y74578D01*
X120746Y74252D01*
X120730Y74250D01*
X120728D01*
X120726D01*
X120714Y74252D01*
X120701Y74258D01*
X120685Y74270D01*
Y74271D01*
X120681Y74273D01*
X120675Y74283D01*
X120670Y74301D01*
X120666Y74320D01*
Y74324D01*
X120668Y74332D01*
X120670Y74344D01*
X120675Y74357D01*
X120677Y74359D01*
X120683Y74367D01*
X120695Y74377D01*
X120705Y74381D01*
X120714Y74387D01*
X121664Y74646D01*
X120714Y74903D01*
X120713D01*
X120705Y74907D01*
X120693Y74913D01*
X120681Y74923D01*
X120679Y74927D01*
X120675Y74935D01*
X120670Y74950D01*
X120666Y74968D01*
Y74974D01*
X120668Y74985D01*
X120674Y75003D01*
X120683Y75019D01*
Y75021D01*
X120687Y75022D01*
X120695Y75030D01*
X120711Y75036D01*
X120720Y75040D01*
X120730D01*
X120746Y75038D01*
D02*
G37*
G36*
X51786Y76248D02*
X51799Y76242D01*
X51815Y76230D01*
Y76229D01*
X51819Y76227D01*
X51825Y76217D01*
X51830Y76199D01*
X51834Y76180D01*
Y76176D01*
X51832Y76168D01*
X51830Y76156D01*
X51825Y76143D01*
X51823Y76141D01*
X51817Y76133D01*
X51805Y76123D01*
X51795Y76119D01*
X51786Y76113D01*
X50836Y75854D01*
X51786Y75597D01*
X51787D01*
X51795Y75593D01*
X51807Y75587D01*
X51819Y75577D01*
X51821Y75573D01*
X51825Y75565D01*
X51830Y75550D01*
X51834Y75532D01*
Y75526D01*
X51832Y75515D01*
X51826Y75497D01*
X51817Y75481D01*
Y75479D01*
X51813Y75478D01*
X51805Y75470D01*
X51789Y75464D01*
X51780Y75460D01*
X51770D01*
X51754Y75462D01*
X50555Y75788D01*
X50553D01*
X50547Y75792D01*
X50537Y75795D01*
X50527Y75801D01*
X50518Y75811D01*
X50508Y75823D01*
X50502Y75836D01*
X50500Y75854D01*
Y75862D01*
X50504Y75872D01*
X50508Y75881D01*
X50514Y75893D01*
X50523Y75905D01*
X50537Y75914D01*
X50555Y75922D01*
X51754Y76248D01*
X51770Y76250D01*
X51772D01*
X51774D01*
X51786Y76248D01*
D02*
G37*
G36*
X51782Y75267D02*
X51793Y75263D01*
X51811Y75253D01*
X51813D01*
X51815Y75249D01*
X51825Y75241D01*
X51832Y75224D01*
X51834Y75214D01*
X51836Y75201D01*
Y75197D01*
X51834Y75185D01*
X51828Y75171D01*
X51817Y75154D01*
Y75152D01*
X51813Y75150D01*
X51805Y75142D01*
X51791Y75134D01*
X51782Y75130D01*
X51772D01*
X51770D01*
X51768D01*
X51758Y75132D01*
X51743Y75138D01*
X51727Y75148D01*
X51723Y75152D01*
X51717Y75161D01*
X51711Y75177D01*
X51708Y75201D01*
Y75206D01*
X51709Y75212D01*
Y75220D01*
X51715Y75238D01*
X51727Y75253D01*
X51731Y75255D01*
X51741Y75261D01*
X51754Y75267D01*
X51772Y75269D01*
X51774D01*
X51782Y75267D01*
D02*
G37*
G36*
X51413D02*
X51427Y75261D01*
X51442Y75249D01*
X51444D01*
X51446Y75245D01*
X51454Y75236D01*
X51462Y75220D01*
X51466Y75210D01*
Y75197D01*
X51464Y75185D01*
X51458Y75169D01*
X51448Y75152D01*
Y75150D01*
X51444Y75148D01*
X51436Y75140D01*
X51421Y75134D01*
X51411Y75130D01*
X51401D01*
X50562D01*
X50559D01*
X50549Y75132D01*
X50535Y75138D01*
X50518Y75150D01*
Y75152D01*
X50516Y75154D01*
X50510Y75165D01*
X50502Y75181D01*
X50500Y75201D01*
Y75202D01*
X50502Y75210D01*
X50506Y75226D01*
X50516Y75245D01*
X50520Y75249D01*
X50527Y75257D01*
X50543Y75265D01*
X50551Y75267D01*
X50562Y75269D01*
X51401D01*
X51405D01*
X51413Y75267D01*
D02*
G37*
G36*
X51409Y74943D02*
X51421Y74941D01*
X51432Y74935D01*
X51444Y74927D01*
X51456Y74916D01*
X51464Y74898D01*
X51466Y74875D01*
Y74533D01*
X51462Y74518D01*
X51458Y74498D01*
X51450Y74475D01*
X51440Y74449D01*
X51425Y74424D01*
X51405Y74401D01*
X51403Y74399D01*
X51395Y74391D01*
X51382Y74381D01*
X51366Y74370D01*
X51345Y74360D01*
X51319Y74350D01*
X51292Y74342D01*
X51261Y74340D01*
X50562D01*
X50560D01*
X50559D01*
X50547Y74342D01*
X50531Y74348D01*
X50518Y74360D01*
X50516Y74364D01*
X50510Y74373D01*
X50502Y74389D01*
X50500Y74410D01*
Y74412D01*
X50502Y74422D01*
X50506Y74436D01*
X50516Y74457D01*
X50520Y74461D01*
X50527Y74469D01*
X50543Y74477D01*
X50551Y74479D01*
X50562Y74481D01*
X51261D01*
X51263D01*
X51267D01*
X51272Y74483D01*
X51278D01*
X51296Y74490D01*
X51306Y74494D01*
X51313Y74502D01*
X51315D01*
X51317Y74506D01*
X51325Y74516D01*
X51331Y74529D01*
X51335Y74539D01*
Y74805D01*
X50562D01*
X50560D01*
X50559D01*
X50547Y74806D01*
X50531Y74812D01*
X50518Y74824D01*
X50516Y74828D01*
X50510Y74838D01*
X50502Y74853D01*
X50500Y74875D01*
Y74877D01*
X50502Y74886D01*
X50506Y74900D01*
X50516Y74922D01*
X50520Y74925D01*
X50527Y74933D01*
X50543Y74941D01*
X50551Y74943D01*
X50562Y74945D01*
X51399D01*
X51401D01*
X51409Y74943D01*
D02*
G37*
G36*
X117070Y51942D02*
X117090Y51940D01*
X117117Y51934D01*
X117146Y51924D01*
X117180Y51911D01*
X117211Y51891D01*
X117242Y51866D01*
X117246Y51862D01*
X117256Y51852D01*
X117269Y51833D01*
X117285Y51809D01*
X117302Y51776D01*
X117318Y51735D01*
X117334Y51688D01*
X117343Y51634D01*
X117150Y51608D01*
Y51610D01*
Y51614D01*
X117148Y51622D01*
X117146Y51630D01*
X117141Y51651D01*
X117131Y51679D01*
X117117Y51704D01*
X117098Y51725D01*
X117084Y51733D01*
X117070Y51741D01*
X117055Y51745D01*
X117037Y51747D01*
X117035D01*
X117027Y51745D01*
X117016Y51743D01*
X117000Y51739D01*
X116984Y51729D01*
X116967Y51718D01*
X116949Y51700D01*
X116932Y51677D01*
X116930Y51673D01*
X116928Y51669D01*
X116926Y51663D01*
X116922Y51653D01*
X116918Y51644D01*
X116914Y51630D01*
X116908Y51614D01*
X116905Y51597D01*
X116901Y51577D01*
X116897Y51554D01*
X116891Y51528D01*
X116887Y51499D01*
X116885Y51468D01*
X116881Y51433D01*
X116879Y51394D01*
X116881Y51396D01*
X116885Y51402D01*
X116893Y51411D01*
X116903Y51423D01*
X116916Y51437D01*
X116930Y51450D01*
X116945Y51462D01*
X116961Y51474D01*
X116963Y51476D01*
X116969Y51478D01*
X116979Y51482D01*
X116990Y51487D01*
X117006Y51493D01*
X117022Y51497D01*
X117041Y51499D01*
X117061Y51501D01*
X117072D01*
X117080Y51499D01*
X117104Y51495D01*
X117133Y51487D01*
X117166Y51474D01*
X117183Y51464D01*
X117201Y51454D01*
X117219Y51441D01*
X117236Y51425D01*
X117254Y51407D01*
X117271Y51388D01*
X117273Y51386D01*
X117275Y51382D01*
X117279Y51376D01*
X117285Y51367D01*
X117293Y51357D01*
X117301Y51343D01*
X117308Y51326D01*
X117318Y51308D01*
X117326Y51289D01*
X117334Y51265D01*
X117341Y51242D01*
X117349Y51214D01*
X117359Y51156D01*
X117363Y51123D01*
Y51090D01*
Y51088D01*
Y51082D01*
Y51070D01*
X117361Y51056D01*
Y51041D01*
X117357Y51021D01*
X117355Y51000D01*
X117351Y50976D01*
X117340Y50926D01*
X117322Y50875D01*
X117312Y50848D01*
X117299Y50824D01*
X117285Y50799D01*
X117267Y50777D01*
X117265Y50775D01*
X117263Y50774D01*
X117258Y50768D01*
X117250Y50760D01*
X117230Y50742D01*
X117203Y50723D01*
X117168Y50701D01*
X117127Y50684D01*
X117105Y50676D01*
X117082Y50670D01*
X117057Y50668D01*
X117031Y50666D01*
X117025D01*
X117016Y50668D01*
X117006D01*
X116992Y50670D01*
X116977Y50674D01*
X116942Y50684D01*
X116922Y50692D01*
X116901Y50701D01*
X116879Y50713D01*
X116858Y50729D01*
X116836Y50744D01*
X116817Y50764D01*
X116795Y50787D01*
X116776Y50813D01*
X116774Y50814D01*
X116772Y50820D01*
X116766Y50828D01*
X116760Y50840D01*
X116752Y50857D01*
X116745Y50877D01*
X116735Y50900D01*
X116727Y50928D01*
X116717Y50959D01*
X116707Y50996D01*
X116700Y51035D01*
X116692Y51078D01*
X116686Y51127D01*
X116680Y51179D01*
X116678Y51236D01*
X116676Y51296D01*
Y51298D01*
Y51300D01*
Y51312D01*
Y51329D01*
X116678Y51353D01*
X116680Y51380D01*
X116682Y51413D01*
X116684Y51448D01*
X116690Y51487D01*
X116702Y51569D01*
X116719Y51651D01*
X116731Y51690D01*
X116747Y51727D01*
X116762Y51761D01*
X116780Y51792D01*
X116782Y51794D01*
X116786Y51798D01*
X116791Y51805D01*
X116799Y51815D01*
X116809Y51827D01*
X116823Y51841D01*
X116836Y51854D01*
X116854Y51868D01*
X116893Y51895D01*
X116938Y51921D01*
X116965Y51930D01*
X116992Y51938D01*
X117020Y51942D01*
X117051Y51944D01*
X117063D01*
X117070Y51942D01*
D02*
G37*
G36*
X106983Y51958D02*
X106997Y51956D01*
X107014Y51954D01*
X107034Y51950D01*
X107055Y51944D01*
X107100Y51930D01*
X107126Y51921D01*
X107149Y51909D01*
X107172Y51895D01*
X107198Y51880D01*
X107221Y51862D01*
X107243Y51841D01*
X107245D01*
X107247Y51837D01*
X107250Y51833D01*
X107256Y51825D01*
X107272Y51805D01*
X107289Y51778D01*
X107309Y51743D01*
X107330Y51700D01*
X107350Y51651D01*
X107366Y51593D01*
X107161Y51532D01*
Y51534D01*
Y51536D01*
X107157Y51550D01*
X107151Y51567D01*
X107143Y51591D01*
X107131Y51614D01*
X107118Y51642D01*
X107100Y51667D01*
X107081Y51688D01*
X107079Y51690D01*
X107071Y51696D01*
X107059Y51706D01*
X107042Y51716D01*
X107022Y51725D01*
X106999Y51735D01*
X106973Y51741D01*
X106944Y51743D01*
X106932D01*
X106925Y51741D01*
X106905Y51737D01*
X106878Y51731D01*
X106849Y51720D01*
X106817Y51702D01*
X106804Y51690D01*
X106788Y51677D01*
X106772Y51661D01*
X106759Y51644D01*
Y51642D01*
X106755Y51640D01*
X106753Y51634D01*
X106747Y51624D01*
X106743Y51614D01*
X106737Y51601D01*
X106730Y51585D01*
X106724Y51565D01*
X106718Y51544D01*
X106710Y51521D01*
X106704Y51493D01*
X106700Y51464D01*
X106694Y51433D01*
X106692Y51398D01*
X106689Y51359D01*
Y51318D01*
Y51316D01*
Y51308D01*
Y51296D01*
X106691Y51279D01*
Y51259D01*
X106692Y51238D01*
X106694Y51214D01*
X106696Y51187D01*
X106706Y51132D01*
X106718Y51076D01*
X106726Y51051D01*
X106733Y51025D01*
X106745Y51002D01*
X106757Y50982D01*
Y50980D01*
X106761Y50978D01*
X106771Y50967D01*
X106784Y50951D01*
X106806Y50933D01*
X106833Y50914D01*
X106862Y50898D01*
X106899Y50887D01*
X106919Y50885D01*
X106938Y50883D01*
X106942D01*
X106952Y50885D01*
X106968Y50887D01*
X106987Y50891D01*
X107009Y50898D01*
X107032Y50910D01*
X107055Y50924D01*
X107079Y50945D01*
X107081Y50949D01*
X107089Y50957D01*
X107100Y50972D01*
X107112Y50994D01*
X107128Y51023D01*
X107141Y51058D01*
X107155Y51099D01*
X107167Y51148D01*
X107367Y51070D01*
Y51068D01*
X107366Y51060D01*
X107362Y51051D01*
X107358Y51035D01*
X107354Y51017D01*
X107346Y50998D01*
X107338Y50976D01*
X107330Y50953D01*
X107307Y50902D01*
X107280Y50852D01*
X107248Y50803D01*
X107229Y50781D01*
X107209Y50762D01*
X107207Y50760D01*
X107204Y50758D01*
X107198Y50754D01*
X107190Y50746D01*
X107180Y50740D01*
X107167Y50733D01*
X107151Y50723D01*
X107135Y50715D01*
X107096Y50697D01*
X107051Y50682D01*
X106999Y50670D01*
X106971Y50668D01*
X106942Y50666D01*
X106932D01*
X106923Y50668D01*
X106909D01*
X106891Y50670D01*
X106872Y50674D01*
X106851Y50680D01*
X106827Y50686D01*
X106802Y50694D01*
X106774Y50703D01*
X106747Y50717D01*
X106720Y50731D01*
X106692Y50748D01*
X106667Y50770D01*
X106640Y50793D01*
X106616Y50820D01*
X106614Y50822D01*
X106611Y50828D01*
X106603Y50838D01*
X106595Y50853D01*
X106583Y50871D01*
X106572Y50893D01*
X106558Y50918D01*
X106546Y50947D01*
X106533Y50980D01*
X106519Y51015D01*
X106507Y51054D01*
X106495Y51097D01*
X106488Y51144D01*
X106480Y51193D01*
X106476Y51246D01*
X106474Y51300D01*
Y51304D01*
Y51314D01*
X106476Y51331D01*
Y51353D01*
X106478Y51380D01*
X106482Y51411D01*
X106486Y51446D01*
X106492Y51484D01*
X106499Y51523D01*
X106509Y51564D01*
X106521Y51605D01*
X106535Y51647D01*
X106550Y51688D01*
X106570Y51727D01*
X106591Y51766D01*
X106616Y51802D01*
X106618Y51803D01*
X106622Y51809D01*
X106630Y51817D01*
X106640Y51827D01*
X106652Y51839D01*
X106667Y51852D01*
X106687Y51866D01*
X106706Y51882D01*
X106730Y51895D01*
X106755Y51909D01*
X106782Y51922D01*
X106812Y51934D01*
X106845Y51946D01*
X106880Y51954D01*
X106915Y51958D01*
X106954Y51960D01*
X106971D01*
X106983Y51958D01*
D02*
G37*
G36*
X111086Y50986D02*
Y50984D01*
X111084Y50978D01*
X111080Y50971D01*
X111074Y50959D01*
X111068Y50943D01*
X111062Y50928D01*
X111047Y50891D01*
X111027Y50850D01*
X111006Y50811D01*
X110984Y50774D01*
X110972Y50756D01*
X110961Y50742D01*
X110959Y50738D01*
X110951Y50731D01*
X110937Y50721D01*
X110920Y50707D01*
X110898Y50694D01*
X110875Y50684D01*
X110848Y50676D01*
X110816Y50672D01*
X110787D01*
X110770Y50674D01*
X110746Y50676D01*
X110723Y50678D01*
X110674Y50688D01*
Y50873D01*
X110703D01*
X110727Y50871D01*
X110762D01*
X110775Y50873D01*
X110791Y50875D01*
X110809Y50879D01*
X110826Y50885D01*
X110842Y50893D01*
X110855Y50902D01*
X110857Y50904D01*
X110861Y50908D01*
X110867Y50918D01*
X110875Y50932D01*
X110885Y50949D01*
X110894Y50972D01*
X110904Y51004D01*
X110916Y51039D01*
X110539Y51938D01*
X110771D01*
X111009Y51289D01*
X111216Y51938D01*
X111431D01*
X111086Y50986D01*
D02*
G37*
G36*
X119817Y51942D02*
X119829Y51940D01*
X119842Y51938D01*
X119874Y51932D01*
X119911Y51919D01*
X119948Y51901D01*
X119965Y51889D01*
X119983Y51876D01*
X120000Y51860D01*
X120016Y51842D01*
X120018Y51841D01*
X120020Y51839D01*
X120024Y51833D01*
X120030Y51825D01*
X120043Y51805D01*
X120059Y51778D01*
X120072Y51745D01*
X120086Y51708D01*
X120096Y51667D01*
X120100Y51645D01*
Y51622D01*
Y51618D01*
Y51608D01*
X120098Y51593D01*
X120096Y51573D01*
X120090Y51550D01*
X120084Y51525D01*
X120074Y51499D01*
X120061Y51474D01*
X120059Y51472D01*
X120053Y51462D01*
X120045Y51450D01*
X120033Y51435D01*
X120018Y51417D01*
X119998Y51398D01*
X119975Y51378D01*
X119950Y51359D01*
X119952D01*
X119953Y51357D01*
X119963Y51355D01*
X119979Y51347D01*
X120000Y51337D01*
X120022Y51324D01*
X120045Y51306D01*
X120069Y51285D01*
X120090Y51257D01*
X120092Y51253D01*
X120098Y51244D01*
X120108Y51226D01*
X120117Y51203D01*
X120127Y51175D01*
X120137Y51142D01*
X120143Y51103D01*
X120145Y51060D01*
Y51058D01*
Y51052D01*
Y51045D01*
X120143Y51031D01*
X120141Y51017D01*
X120139Y51000D01*
X120137Y50980D01*
X120131Y50961D01*
X120119Y50916D01*
X120102Y50869D01*
X120090Y50846D01*
X120076Y50822D01*
X120059Y50799D01*
X120041Y50777D01*
X120039Y50775D01*
X120037Y50774D01*
X120032Y50768D01*
X120024Y50760D01*
X120014Y50752D01*
X120002Y50742D01*
X119973Y50723D01*
X119938Y50701D01*
X119897Y50684D01*
X119874Y50676D01*
X119850Y50670D01*
X119825Y50668D01*
X119799Y50666D01*
X119786D01*
X119776Y50668D01*
X119764D01*
X119751Y50672D01*
X119719Y50678D01*
X119682Y50690D01*
X119645Y50705D01*
X119606Y50729D01*
X119587Y50744D01*
X119569Y50760D01*
X119567Y50762D01*
X119565Y50764D01*
X119561Y50770D01*
X119554Y50777D01*
X119548Y50787D01*
X119538Y50799D01*
X119530Y50813D01*
X119520Y50828D01*
X119503Y50865D01*
X119485Y50910D01*
X119470Y50963D01*
X119462Y51021D01*
X119655Y51047D01*
Y51043D01*
X119657Y51031D01*
X119659Y51015D01*
X119663Y50996D01*
X119669Y50974D01*
X119676Y50951D01*
X119688Y50930D01*
X119702Y50910D01*
X119704Y50908D01*
X119710Y50902D01*
X119717Y50896D01*
X119729Y50889D01*
X119743Y50879D01*
X119760Y50873D01*
X119778Y50867D01*
X119797Y50865D01*
X119807D01*
X119819Y50869D01*
X119833Y50873D01*
X119848Y50879D01*
X119866Y50889D01*
X119883Y50902D01*
X119899Y50920D01*
X119901Y50922D01*
X119905Y50930D01*
X119913Y50943D01*
X119920Y50959D01*
X119928Y50982D01*
X119936Y51008D01*
X119940Y51039D01*
X119942Y51074D01*
Y51076D01*
Y51078D01*
Y51090D01*
X119940Y51105D01*
X119936Y51125D01*
X119932Y51148D01*
X119924Y51171D01*
X119914Y51195D01*
X119901Y51216D01*
X119899Y51218D01*
X119893Y51224D01*
X119885Y51234D01*
X119874Y51244D01*
X119860Y51251D01*
X119844Y51261D01*
X119825Y51267D01*
X119803Y51269D01*
X119790D01*
X119778Y51267D01*
X119766Y51265D01*
X119751Y51261D01*
X119716Y51249D01*
X119735Y51447D01*
X119747D01*
X119762Y51448D01*
X119778Y51450D01*
X119797Y51456D01*
X119819Y51462D01*
X119838Y51474D01*
X119856Y51487D01*
X119858Y51489D01*
X119864Y51495D01*
X119870Y51505D01*
X119879Y51519D01*
X119887Y51536D01*
X119893Y51556D01*
X119899Y51579D01*
X119901Y51606D01*
Y51610D01*
Y51618D01*
X119899Y51630D01*
X119897Y51644D01*
X119893Y51661D01*
X119887Y51679D01*
X119879Y51694D01*
X119868Y51710D01*
X119866Y51712D01*
X119862Y51716D01*
X119856Y51722D01*
X119846Y51729D01*
X119835Y51735D01*
X119821Y51741D01*
X119803Y51745D01*
X119786Y51747D01*
X119778D01*
X119768Y51745D01*
X119756Y51741D01*
X119743Y51737D01*
X119729Y51729D01*
X119714Y51718D01*
X119700Y51704D01*
X119698Y51702D01*
X119694Y51696D01*
X119688Y51686D01*
X119680Y51673D01*
X119673Y51655D01*
X119667Y51634D01*
X119661Y51608D01*
X119657Y51579D01*
X119476Y51616D01*
Y51618D01*
X119478Y51624D01*
X119479Y51632D01*
X119481Y51644D01*
X119485Y51659D01*
X119489Y51675D01*
X119499Y51712D01*
X119515Y51753D01*
X119534Y51794D01*
X119558Y51833D01*
X119569Y51850D01*
X119585Y51866D01*
X119589Y51870D01*
X119600Y51878D01*
X119618Y51891D01*
X119641Y51905D01*
X119673Y51919D01*
X119708Y51932D01*
X119749Y51940D01*
X119794Y51944D01*
X119807D01*
X119817Y51942D01*
D02*
G37*
G36*
X113834D02*
X113846Y51940D01*
X113859Y51938D01*
X113891Y51932D01*
X113928Y51919D01*
X113965Y51901D01*
X113982Y51889D01*
X114000Y51876D01*
X114017Y51860D01*
X114033Y51842D01*
X114035Y51841D01*
X114037Y51839D01*
X114041Y51833D01*
X114047Y51825D01*
X114060Y51805D01*
X114076Y51778D01*
X114090Y51745D01*
X114103Y51708D01*
X114113Y51667D01*
X114117Y51645D01*
Y51622D01*
Y51618D01*
Y51608D01*
X114115Y51593D01*
X114113Y51573D01*
X114107Y51550D01*
X114101Y51525D01*
X114092Y51499D01*
X114078Y51474D01*
X114076Y51472D01*
X114070Y51462D01*
X114062Y51450D01*
X114051Y51435D01*
X114035Y51417D01*
X114016Y51398D01*
X113992Y51378D01*
X113967Y51359D01*
X113969D01*
X113971Y51357D01*
X113980Y51355D01*
X113996Y51347D01*
X114017Y51337D01*
X114039Y51324D01*
X114062Y51306D01*
X114086Y51285D01*
X114107Y51257D01*
X114109Y51253D01*
X114115Y51244D01*
X114125Y51226D01*
X114134Y51203D01*
X114144Y51175D01*
X114154Y51142D01*
X114160Y51103D01*
X114162Y51060D01*
Y51058D01*
Y51052D01*
Y51045D01*
X114160Y51031D01*
X114158Y51017D01*
X114156Y51000D01*
X114154Y50980D01*
X114148Y50961D01*
X114136Y50916D01*
X114119Y50869D01*
X114107Y50846D01*
X114094Y50822D01*
X114076Y50799D01*
X114058Y50777D01*
X114056Y50775D01*
X114055Y50774D01*
X114049Y50768D01*
X114041Y50760D01*
X114031Y50752D01*
X114019Y50742D01*
X113990Y50723D01*
X113955Y50701D01*
X113914Y50684D01*
X113891Y50676D01*
X113867Y50670D01*
X113842Y50668D01*
X113817Y50666D01*
X113803D01*
X113793Y50668D01*
X113781D01*
X113768Y50672D01*
X113737Y50678D01*
X113699Y50690D01*
X113662Y50705D01*
X113623Y50729D01*
X113604Y50744D01*
X113586Y50760D01*
X113584Y50762D01*
X113582Y50764D01*
X113579Y50770D01*
X113571Y50777D01*
X113565Y50787D01*
X113555Y50799D01*
X113547Y50813D01*
X113538Y50828D01*
X113520Y50865D01*
X113502Y50910D01*
X113487Y50963D01*
X113479Y51021D01*
X113672Y51047D01*
Y51043D01*
X113674Y51031D01*
X113676Y51015D01*
X113680Y50996D01*
X113686Y50974D01*
X113694Y50951D01*
X113705Y50930D01*
X113719Y50910D01*
X113721Y50908D01*
X113727Y50902D01*
X113735Y50896D01*
X113746Y50889D01*
X113760Y50879D01*
X113778Y50873D01*
X113795Y50867D01*
X113815Y50865D01*
X113824D01*
X113836Y50869D01*
X113850Y50873D01*
X113865Y50879D01*
X113883Y50889D01*
X113900Y50902D01*
X113916Y50920D01*
X113918Y50922D01*
X113922Y50930D01*
X113930Y50943D01*
X113937Y50959D01*
X113945Y50982D01*
X113953Y51008D01*
X113957Y51039D01*
X113959Y51074D01*
Y51076D01*
Y51078D01*
Y51090D01*
X113957Y51105D01*
X113953Y51125D01*
X113949Y51148D01*
X113941Y51171D01*
X113932Y51195D01*
X113918Y51216D01*
X113916Y51218D01*
X113910Y51224D01*
X113902Y51234D01*
X113891Y51244D01*
X113877Y51251D01*
X113861Y51261D01*
X113842Y51267D01*
X113820Y51269D01*
X113807D01*
X113795Y51267D01*
X113783Y51265D01*
X113768Y51261D01*
X113733Y51249D01*
X113752Y51447D01*
X113764D01*
X113779Y51448D01*
X113795Y51450D01*
X113815Y51456D01*
X113836Y51462D01*
X113856Y51474D01*
X113873Y51487D01*
X113875Y51489D01*
X113881Y51495D01*
X113887Y51505D01*
X113897Y51519D01*
X113904Y51536D01*
X113910Y51556D01*
X113916Y51579D01*
X113918Y51606D01*
Y51610D01*
Y51618D01*
X113916Y51630D01*
X113914Y51644D01*
X113910Y51661D01*
X113904Y51679D01*
X113897Y51694D01*
X113885Y51710D01*
X113883Y51712D01*
X113879Y51716D01*
X113873Y51722D01*
X113863Y51729D01*
X113852Y51735D01*
X113838Y51741D01*
X113820Y51745D01*
X113803Y51747D01*
X113795D01*
X113785Y51745D01*
X113774Y51741D01*
X113760Y51737D01*
X113746Y51729D01*
X113731Y51718D01*
X113717Y51704D01*
X113715Y51702D01*
X113711Y51696D01*
X113705Y51686D01*
X113698Y51673D01*
X113690Y51655D01*
X113684Y51634D01*
X113678Y51608D01*
X113674Y51579D01*
X113493Y51616D01*
Y51618D01*
X113495Y51624D01*
X113497Y51632D01*
X113499Y51644D01*
X113502Y51659D01*
X113506Y51675D01*
X113516Y51712D01*
X113532Y51753D01*
X113551Y51794D01*
X113575Y51833D01*
X113586Y51850D01*
X113602Y51866D01*
X113606Y51870D01*
X113618Y51878D01*
X113635Y51891D01*
X113659Y51905D01*
X113690Y51919D01*
X113725Y51932D01*
X113766Y51940D01*
X113811Y51944D01*
X113824D01*
X113834Y51942D01*
D02*
G37*
G36*
X113036Y51942D02*
X113048Y51940D01*
X113062Y51938D01*
X113093Y51932D01*
X113130Y51919D01*
X113167Y51901D01*
X113185Y51889D01*
X113202Y51876D01*
X113220Y51860D01*
X113235Y51842D01*
X113237Y51841D01*
X113239Y51839D01*
X113243Y51833D01*
X113249Y51825D01*
X113263Y51805D01*
X113278Y51778D01*
X113292Y51745D01*
X113305Y51708D01*
X113315Y51667D01*
X113319Y51645D01*
Y51622D01*
Y51618D01*
Y51608D01*
X113317Y51593D01*
X113315Y51573D01*
X113309Y51550D01*
X113303Y51525D01*
X113294Y51499D01*
X113280Y51474D01*
X113278Y51472D01*
X113272Y51462D01*
X113264Y51450D01*
X113253Y51435D01*
X113237Y51417D01*
X113218Y51398D01*
X113194Y51378D01*
X113169Y51359D01*
X113171D01*
X113173Y51357D01*
X113183Y51355D01*
X113198Y51347D01*
X113220Y51337D01*
X113241Y51324D01*
X113264Y51306D01*
X113288Y51285D01*
X113309Y51257D01*
X113311Y51253D01*
X113317Y51244D01*
X113327Y51226D01*
X113337Y51203D01*
X113346Y51175D01*
X113356Y51142D01*
X113362Y51103D01*
X113364Y51060D01*
Y51058D01*
Y51052D01*
Y51045D01*
X113362Y51031D01*
X113360Y51017D01*
X113358Y51000D01*
X113356Y50980D01*
X113350Y50961D01*
X113339Y50916D01*
X113321Y50869D01*
X113309Y50846D01*
X113296Y50822D01*
X113278Y50799D01*
X113261Y50777D01*
X113259Y50775D01*
X113257Y50774D01*
X113251Y50768D01*
X113243Y50760D01*
X113233Y50752D01*
X113222Y50742D01*
X113192Y50723D01*
X113157Y50701D01*
X113116Y50684D01*
X113093Y50676D01*
X113069Y50670D01*
X113044Y50668D01*
X113019Y50666D01*
X113005D01*
X112995Y50668D01*
X112984D01*
X112970Y50672D01*
X112939Y50678D01*
X112902Y50690D01*
X112865Y50705D01*
X112826Y50729D01*
X112806Y50744D01*
X112788Y50760D01*
X112787Y50762D01*
X112785Y50764D01*
X112781Y50770D01*
X112773Y50777D01*
X112767Y50787D01*
X112757Y50799D01*
X112749Y50813D01*
X112740Y50828D01*
X112722Y50865D01*
X112705Y50910D01*
X112689Y50963D01*
X112681Y51021D01*
X112874Y51047D01*
Y51043D01*
X112876Y51031D01*
X112878Y51015D01*
X112882Y50996D01*
X112888Y50974D01*
X112896Y50951D01*
X112908Y50930D01*
X112921Y50910D01*
X112923Y50908D01*
X112929Y50902D01*
X112937Y50896D01*
X112948Y50889D01*
X112962Y50879D01*
X112980Y50873D01*
X112997Y50867D01*
X113017Y50865D01*
X113026D01*
X113038Y50869D01*
X113052Y50873D01*
X113067Y50879D01*
X113085Y50889D01*
X113103Y50902D01*
X113118Y50920D01*
X113120Y50922D01*
X113124Y50930D01*
X113132Y50943D01*
X113140Y50959D01*
X113147Y50982D01*
X113155Y51008D01*
X113159Y51039D01*
X113161Y51074D01*
Y51076D01*
Y51078D01*
Y51090D01*
X113159Y51105D01*
X113155Y51125D01*
X113151Y51148D01*
X113144Y51171D01*
X113134Y51195D01*
X113120Y51216D01*
X113118Y51218D01*
X113112Y51224D01*
X113105Y51234D01*
X113093Y51244D01*
X113079Y51251D01*
X113064Y51261D01*
X113044Y51267D01*
X113023Y51269D01*
X113009D01*
X112997Y51267D01*
X112986Y51265D01*
X112970Y51261D01*
X112935Y51249D01*
X112954Y51446D01*
X112966D01*
X112982Y51448D01*
X112997Y51450D01*
X113017Y51456D01*
X113038Y51462D01*
X113058Y51474D01*
X113075Y51487D01*
X113077Y51489D01*
X113083Y51495D01*
X113089Y51505D01*
X113099Y51519D01*
X113106Y51536D01*
X113112Y51556D01*
X113118Y51579D01*
X113120Y51606D01*
Y51610D01*
Y51618D01*
X113118Y51630D01*
X113116Y51644D01*
X113112Y51661D01*
X113106Y51679D01*
X113099Y51694D01*
X113087Y51710D01*
X113085Y51712D01*
X113081Y51716D01*
X113075Y51722D01*
X113066Y51729D01*
X113054Y51735D01*
X113040Y51741D01*
X113023Y51745D01*
X113005Y51747D01*
X112997D01*
X112987Y51745D01*
X112976Y51741D01*
X112962Y51737D01*
X112948Y51729D01*
X112933Y51718D01*
X112919Y51704D01*
X112917Y51702D01*
X112913Y51696D01*
X112908Y51686D01*
X112900Y51673D01*
X112892Y51655D01*
X112886Y51634D01*
X112880Y51608D01*
X112876Y51579D01*
X112695Y51616D01*
Y51618D01*
X112697Y51624D01*
X112699Y51632D01*
X112701Y51644D01*
X112705Y51659D01*
X112709Y51675D01*
X112718Y51712D01*
X112734Y51753D01*
X112753Y51794D01*
X112777Y51833D01*
X112788Y51850D01*
X112804Y51866D01*
X112808Y51870D01*
X112820Y51878D01*
X112837Y51891D01*
X112861Y51905D01*
X112892Y51919D01*
X112927Y51932D01*
X112968Y51940D01*
X113013Y51944D01*
X113026D01*
X113036Y51942D01*
D02*
G37*
G36*
X112238D02*
X112250Y51940D01*
X112264Y51938D01*
X112295Y51932D01*
X112332Y51919D01*
X112369Y51901D01*
X112387Y51889D01*
X112404Y51876D01*
X112422Y51860D01*
X112437Y51842D01*
X112439Y51841D01*
X112441Y51839D01*
X112445Y51833D01*
X112451Y51825D01*
X112465Y51805D01*
X112480Y51778D01*
X112494Y51745D01*
X112508Y51708D01*
X112517Y51667D01*
X112521Y51645D01*
Y51622D01*
Y51618D01*
Y51608D01*
X112519Y51593D01*
X112517Y51573D01*
X112511Y51550D01*
X112506Y51525D01*
X112496Y51499D01*
X112482Y51474D01*
X112480Y51472D01*
X112474Y51462D01*
X112467Y51450D01*
X112455Y51435D01*
X112439Y51417D01*
X112420Y51398D01*
X112396Y51378D01*
X112371Y51359D01*
X112373D01*
X112375Y51357D01*
X112385Y51355D01*
X112400Y51347D01*
X112422Y51337D01*
X112443Y51324D01*
X112467Y51306D01*
X112490Y51285D01*
X112511Y51257D01*
X112513Y51253D01*
X112519Y51244D01*
X112529Y51226D01*
X112539Y51203D01*
X112549Y51175D01*
X112558Y51142D01*
X112564Y51103D01*
X112566Y51060D01*
Y51058D01*
Y51052D01*
Y51045D01*
X112564Y51031D01*
X112562Y51017D01*
X112560Y51000D01*
X112558Y50980D01*
X112552Y50961D01*
X112541Y50916D01*
X112523Y50869D01*
X112511Y50846D01*
X112498Y50822D01*
X112480Y50799D01*
X112463Y50777D01*
X112461Y50775D01*
X112459Y50774D01*
X112453Y50768D01*
X112445Y50760D01*
X112435Y50752D01*
X112424Y50742D01*
X112394Y50723D01*
X112359Y50701D01*
X112318Y50684D01*
X112295Y50676D01*
X112272Y50670D01*
X112246Y50668D01*
X112221Y50666D01*
X112207D01*
X112197Y50668D01*
X112186D01*
X112172Y50672D01*
X112141Y50678D01*
X112104Y50690D01*
X112067Y50705D01*
X112028Y50729D01*
X112008Y50744D01*
X111991Y50760D01*
X111989Y50762D01*
X111987Y50764D01*
X111983Y50770D01*
X111975Y50777D01*
X111969Y50787D01*
X111959Y50799D01*
X111952Y50813D01*
X111942Y50828D01*
X111924Y50865D01*
X111907Y50910D01*
X111891Y50963D01*
X111883Y51021D01*
X112076Y51047D01*
Y51043D01*
X112078Y51031D01*
X112080Y51015D01*
X112084Y50996D01*
X112090Y50974D01*
X112098Y50951D01*
X112110Y50930D01*
X112123Y50910D01*
X112125Y50908D01*
X112131Y50902D01*
X112139Y50896D01*
X112151Y50889D01*
X112164Y50879D01*
X112182Y50873D01*
X112199Y50867D01*
X112219Y50865D01*
X112229D01*
X112240Y50869D01*
X112254Y50873D01*
X112270Y50879D01*
X112287Y50889D01*
X112305Y50902D01*
X112320Y50920D01*
X112322Y50922D01*
X112326Y50930D01*
X112334Y50943D01*
X112342Y50959D01*
X112350Y50982D01*
X112357Y51008D01*
X112361Y51039D01*
X112363Y51074D01*
Y51076D01*
Y51078D01*
Y51090D01*
X112361Y51105D01*
X112357Y51125D01*
X112353Y51148D01*
X112346Y51171D01*
X112336Y51195D01*
X112322Y51216D01*
X112320Y51218D01*
X112314Y51224D01*
X112307Y51234D01*
X112295Y51244D01*
X112281Y51251D01*
X112266Y51261D01*
X112246Y51267D01*
X112225Y51269D01*
X112211D01*
X112199Y51267D01*
X112188Y51265D01*
X112172Y51261D01*
X112137Y51249D01*
X112156Y51446D01*
X112168D01*
X112184Y51448D01*
X112199Y51450D01*
X112219Y51456D01*
X112240Y51462D01*
X112260Y51474D01*
X112277Y51487D01*
X112279Y51489D01*
X112285Y51495D01*
X112291Y51505D01*
X112301Y51519D01*
X112309Y51536D01*
X112314Y51556D01*
X112320Y51579D01*
X112322Y51606D01*
Y51610D01*
Y51618D01*
X112320Y51630D01*
X112318Y51644D01*
X112314Y51661D01*
X112309Y51679D01*
X112301Y51694D01*
X112289Y51710D01*
X112287Y51712D01*
X112283Y51716D01*
X112277Y51722D01*
X112268Y51729D01*
X112256Y51735D01*
X112242Y51741D01*
X112225Y51745D01*
X112207Y51747D01*
X112199D01*
X112190Y51745D01*
X112178Y51741D01*
X112164Y51737D01*
X112151Y51729D01*
X112135Y51718D01*
X112121Y51704D01*
X112119Y51702D01*
X112116Y51696D01*
X112110Y51686D01*
X112102Y51673D01*
X112094Y51655D01*
X112088Y51634D01*
X112082Y51608D01*
X112078Y51579D01*
X111897Y51616D01*
Y51618D01*
X111899Y51624D01*
X111901Y51632D01*
X111903Y51644D01*
X111907Y51659D01*
X111911Y51675D01*
X111920Y51712D01*
X111936Y51753D01*
X111956Y51794D01*
X111979Y51833D01*
X111991Y51850D01*
X112006Y51866D01*
X112010Y51870D01*
X112022Y51878D01*
X112039Y51891D01*
X112063Y51905D01*
X112094Y51919D01*
X112129Y51932D01*
X112170Y51940D01*
X112215Y51944D01*
X112229D01*
X112238Y51942D01*
D02*
G37*
G36*
X115728Y51698D02*
X115360D01*
X115326Y51484D01*
X115330Y51486D01*
X115338Y51489D01*
X115352Y51497D01*
X115367Y51505D01*
X115389Y51513D01*
X115410Y51521D01*
X115436Y51525D01*
X115461Y51526D01*
X115473D01*
X115480Y51525D01*
X115504Y51521D01*
X115533Y51515D01*
X115564Y51503D01*
X115599Y51486D01*
X115617Y51474D01*
X115635Y51462D01*
X115652Y51447D01*
X115668Y51429D01*
X115670Y51427D01*
X115672Y51423D01*
X115678Y51417D01*
X115685Y51407D01*
X115693Y51396D01*
X115701Y51380D01*
X115711Y51363D01*
X115722Y51343D01*
X115732Y51322D01*
X115742Y51298D01*
X115750Y51271D01*
X115757Y51242D01*
X115765Y51212D01*
X115771Y51179D01*
X115773Y51144D01*
X115775Y51107D01*
Y51105D01*
Y51099D01*
Y51091D01*
X115773Y51080D01*
Y51064D01*
X115771Y51049D01*
X115767Y51029D01*
X115763Y51008D01*
X115754Y50961D01*
X115736Y50910D01*
X115715Y50857D01*
X115699Y50830D01*
X115683Y50805D01*
X115681Y50803D01*
X115679Y50799D01*
X115674Y50791D01*
X115666Y50783D01*
X115656Y50774D01*
X115646Y50762D01*
X115633Y50748D01*
X115617Y50736D01*
X115599Y50723D01*
X115580Y50709D01*
X115535Y50688D01*
X115510Y50680D01*
X115482Y50672D01*
X115453Y50668D01*
X115422Y50666D01*
X115408D01*
X115399Y50668D01*
X115387D01*
X115373Y50670D01*
X115342Y50678D01*
X115307Y50688D01*
X115268Y50703D01*
X115231Y50725D01*
X115211Y50738D01*
X115194Y50754D01*
Y50756D01*
X115190Y50758D01*
X115186Y50764D01*
X115180Y50772D01*
X115172Y50779D01*
X115164Y50791D01*
X115155Y50805D01*
X115145Y50820D01*
X115127Y50855D01*
X115110Y50900D01*
X115094Y50951D01*
X115085Y51010D01*
X115282Y51035D01*
Y51031D01*
X115283Y51021D01*
X115285Y51006D01*
X115289Y50988D01*
X115295Y50967D01*
X115305Y50945D01*
X115317Y50926D01*
X115330Y50906D01*
X115332Y50904D01*
X115338Y50898D01*
X115346Y50891D01*
X115358Y50883D01*
X115373Y50875D01*
X115389Y50867D01*
X115406Y50861D01*
X115426Y50859D01*
X115428D01*
X115436Y50861D01*
X115447Y50863D01*
X115461Y50867D01*
X115479Y50873D01*
X115494Y50885D01*
X115512Y50898D01*
X115529Y50918D01*
X115531Y50920D01*
X115537Y50930D01*
X115543Y50943D01*
X115553Y50965D01*
X115560Y50990D01*
X115566Y51021D01*
X115572Y51060D01*
X115574Y51103D01*
Y51105D01*
Y51109D01*
Y51115D01*
Y51123D01*
X115572Y51144D01*
X115568Y51169D01*
X115562Y51197D01*
X115555Y51226D01*
X115545Y51253D01*
X115529Y51277D01*
X115527Y51279D01*
X115521Y51287D01*
X115512Y51294D01*
X115500Y51306D01*
X115484Y51316D01*
X115465Y51326D01*
X115443Y51331D01*
X115420Y51333D01*
X115416D01*
X115406Y51331D01*
X115389Y51329D01*
X115369Y51322D01*
X115346Y51312D01*
X115321Y51294D01*
X115293Y51273D01*
X115282Y51257D01*
X115268Y51242D01*
X115108Y51267D01*
X115209Y51922D01*
X115728D01*
Y51698D01*
D02*
G37*
G36*
X119175Y50688D02*
X118978D01*
Y51591D01*
X118976Y51589D01*
X118972Y51585D01*
X118966Y51579D01*
X118959Y51571D01*
X118949Y51560D01*
X118935Y51548D01*
X118904Y51521D01*
X118867Y51491D01*
X118824Y51462D01*
X118775Y51433D01*
X118723Y51409D01*
Y51628D01*
X118727Y51630D01*
X118736Y51634D01*
X118754Y51644D01*
X118775Y51655D01*
X118801Y51671D01*
X118828Y51692D01*
X118859Y51716D01*
X118892Y51745D01*
X118894Y51747D01*
X118896Y51749D01*
X118906Y51761D01*
X118922Y51778D01*
X118941Y51802D01*
X118961Y51831D01*
X118982Y51866D01*
X119000Y51903D01*
X119015Y51944D01*
X119175D01*
Y50688D01*
D02*
G37*
G36*
X117712D02*
X117515D01*
Y50928D01*
X117712D01*
Y50688D01*
D02*
G37*
G36*
X114788D02*
X114591D01*
Y51591D01*
X114589Y51589D01*
X114585Y51585D01*
X114579Y51579D01*
X114571Y51571D01*
X114562Y51560D01*
X114548Y51548D01*
X114517Y51521D01*
X114480Y51491D01*
X114437Y51462D01*
X114388Y51433D01*
X114335Y51409D01*
Y51628D01*
X114339Y51630D01*
X114349Y51634D01*
X114367Y51644D01*
X114388Y51655D01*
X114413Y51671D01*
X114441Y51692D01*
X114472Y51716D01*
X114505Y51745D01*
X114507Y51747D01*
X114509Y51749D01*
X114519Y51761D01*
X114534Y51778D01*
X114554Y51802D01*
X114573Y51831D01*
X114595Y51866D01*
X114612Y51903D01*
X114628Y51944D01*
X114788D01*
Y50688D01*
D02*
G37*
G36*
X111729Y50688D02*
X111532D01*
Y50928D01*
X111729D01*
Y50688D01*
D02*
G37*
G36*
X110432D02*
X110225D01*
Y51725D01*
X109820D01*
Y50688D01*
X109613D01*
Y51938D01*
X110432D01*
Y50688D01*
D02*
G37*
G36*
X109349Y51725D02*
X108790D01*
Y51441D01*
X109098D01*
X109109Y51439D01*
X109123Y51437D01*
X109141Y51435D01*
X109178Y51427D01*
X109219Y51415D01*
X109262Y51396D01*
X109283Y51384D01*
X109305Y51370D01*
X109324Y51355D01*
X109344Y51335D01*
X109345Y51333D01*
X109347Y51331D01*
X109353Y51326D01*
X109359Y51316D01*
X109365Y51306D01*
X109375Y51294D01*
X109383Y51279D01*
X109392Y51263D01*
X109400Y51244D01*
X109410Y51224D01*
X109424Y51177D01*
X109435Y51123D01*
X109437Y51093D01*
X109439Y51062D01*
Y51060D01*
Y51056D01*
Y51049D01*
X109437Y51037D01*
Y51025D01*
X109435Y51010D01*
X109429Y50974D01*
X109420Y50933D01*
X109404Y50889D01*
X109384Y50844D01*
X109357Y50801D01*
Y50799D01*
X109353Y50797D01*
X109349Y50791D01*
X109342Y50783D01*
X109332Y50775D01*
X109322Y50766D01*
X109308Y50754D01*
X109293Y50744D01*
X109275Y50734D01*
X109256Y50723D01*
X109232Y50713D01*
X109207Y50705D01*
X109180Y50697D01*
X109150Y50694D01*
X109117Y50690D01*
X109082Y50688D01*
X108583D01*
Y51938D01*
X109349D01*
Y51725D01*
D02*
G37*
G36*
X108366Y50688D02*
X108159D01*
Y51725D01*
X107754D01*
Y50688D01*
X107547D01*
Y51938D01*
X108366D01*
Y50688D01*
D02*
G37*
G36*
X118229Y51942D02*
X118241Y51940D01*
X118256Y51936D01*
X118290Y51926D01*
X118309Y51919D01*
X118329Y51909D01*
X118348Y51897D01*
X118370Y51883D01*
X118389Y51868D01*
X118409Y51848D01*
X118428Y51827D01*
X118446Y51802D01*
X118448Y51800D01*
X118449Y51796D01*
X118453Y51786D01*
X118461Y51774D01*
X118467Y51759D01*
X118475Y51737D01*
X118485Y51714D01*
X118492Y51686D01*
X118502Y51653D01*
X118510Y51618D01*
X118518Y51577D01*
X118526Y51532D01*
X118531Y51482D01*
X118535Y51427D01*
X118537Y51368D01*
X118539Y51304D01*
Y51300D01*
Y51289D01*
Y51271D01*
X118537Y51246D01*
Y51218D01*
X118535Y51185D01*
X118531Y51148D01*
X118528Y51109D01*
X118516Y51027D01*
X118500Y50945D01*
X118489Y50906D01*
X118477Y50869D01*
X118461Y50836D01*
X118446Y50807D01*
X118444Y50805D01*
X118442Y50801D01*
X118436Y50793D01*
X118430Y50785D01*
X118409Y50762D01*
X118381Y50736D01*
X118346Y50711D01*
X118305Y50688D01*
X118284Y50680D01*
X118258Y50672D01*
X118233Y50668D01*
X118206Y50666D01*
X118200D01*
X118192Y50668D01*
X118180D01*
X118169Y50670D01*
X118153Y50674D01*
X118120Y50684D01*
X118100Y50692D01*
X118081Y50701D01*
X118061Y50711D01*
X118040Y50725D01*
X118020Y50742D01*
X118001Y50760D01*
X117981Y50781D01*
X117964Y50807D01*
Y50809D01*
X117960Y50813D01*
X117956Y50822D01*
X117950Y50834D01*
X117942Y50850D01*
X117935Y50871D01*
X117927Y50894D01*
X117919Y50922D01*
X117909Y50953D01*
X117901Y50990D01*
X117894Y51031D01*
X117886Y51076D01*
X117880Y51127D01*
X117876Y51181D01*
X117874Y51242D01*
X117872Y51306D01*
Y51308D01*
Y51310D01*
Y51322D01*
Y51339D01*
X117874Y51363D01*
Y51392D01*
X117878Y51425D01*
X117880Y51462D01*
X117884Y51501D01*
X117895Y51583D01*
X117911Y51665D01*
X117921Y51702D01*
X117935Y51739D01*
X117948Y51772D01*
X117964Y51802D01*
X117966Y51803D01*
X117968Y51807D01*
X117974Y51815D01*
X117981Y51823D01*
X118001Y51846D01*
X118028Y51874D01*
X118063Y51899D01*
X118104Y51922D01*
X118126Y51930D01*
X118151Y51938D01*
X118176Y51942D01*
X118204Y51944D01*
X118217D01*
X118229Y51942D01*
D02*
G37*
G36*
X116235D02*
X116247Y51940D01*
X116263Y51936D01*
X116296Y51926D01*
X116315Y51919D01*
X116335Y51909D01*
X116354Y51897D01*
X116376Y51883D01*
X116395Y51868D01*
X116415Y51848D01*
X116434Y51827D01*
X116452Y51802D01*
X116454Y51800D01*
X116456Y51796D01*
X116460Y51786D01*
X116468Y51774D01*
X116473Y51759D01*
X116481Y51737D01*
X116491Y51714D01*
X116499Y51686D01*
X116509Y51653D01*
X116516Y51618D01*
X116524Y51577D01*
X116532Y51532D01*
X116538Y51482D01*
X116542Y51427D01*
X116544Y51368D01*
X116546Y51304D01*
Y51300D01*
Y51289D01*
Y51271D01*
X116544Y51246D01*
Y51218D01*
X116542Y51185D01*
X116538Y51148D01*
X116534Y51109D01*
X116522Y51027D01*
X116507Y50945D01*
X116495Y50906D01*
X116483Y50869D01*
X116468Y50836D01*
X116452Y50807D01*
X116450Y50805D01*
X116448Y50801D01*
X116442Y50793D01*
X116436Y50785D01*
X116415Y50762D01*
X116388Y50736D01*
X116352Y50711D01*
X116312Y50688D01*
X116290Y50680D01*
X116265Y50672D01*
X116239Y50668D01*
X116212Y50666D01*
X116206D01*
X116198Y50668D01*
X116187D01*
X116175Y50670D01*
X116159Y50674D01*
X116126Y50684D01*
X116107Y50692D01*
X116087Y50701D01*
X116068Y50711D01*
X116046Y50725D01*
X116027Y50742D01*
X116007Y50760D01*
X115988Y50781D01*
X115970Y50807D01*
Y50809D01*
X115966Y50813D01*
X115962Y50822D01*
X115956Y50834D01*
X115949Y50850D01*
X115941Y50871D01*
X115933Y50894D01*
X115925Y50922D01*
X115916Y50953D01*
X115908Y50990D01*
X115900Y51031D01*
X115892Y51076D01*
X115886Y51127D01*
X115882Y51181D01*
X115880Y51242D01*
X115878Y51306D01*
Y51308D01*
Y51310D01*
Y51322D01*
Y51339D01*
X115880Y51363D01*
Y51392D01*
X115884Y51425D01*
X115886Y51462D01*
X115890Y51501D01*
X115902Y51583D01*
X115917Y51665D01*
X115927Y51702D01*
X115941Y51739D01*
X115955Y51772D01*
X115970Y51802D01*
X115972Y51803D01*
X115974Y51807D01*
X115980Y51815D01*
X115988Y51823D01*
X116007Y51846D01*
X116035Y51874D01*
X116070Y51899D01*
X116111Y51922D01*
X116132Y51930D01*
X116157Y51938D01*
X116183Y51942D01*
X116210Y51944D01*
X116224D01*
X116235Y51942D01*
D02*
G37*
G36*
X51786Y71498D02*
X51799Y71492D01*
X51815Y71480D01*
Y71479D01*
X51819Y71477D01*
X51825Y71467D01*
X51830Y71449D01*
X51834Y71430D01*
Y71426D01*
X51832Y71418D01*
X51830Y71406D01*
X51825Y71393D01*
X51823Y71391D01*
X51817Y71383D01*
X51805Y71373D01*
X51795Y71369D01*
X51786Y71363D01*
X50836Y71104D01*
X51786Y70847D01*
X51787D01*
X51795Y70843D01*
X51807Y70837D01*
X51819Y70827D01*
X51821Y70823D01*
X51825Y70815D01*
X51830Y70800D01*
X51834Y70782D01*
Y70776D01*
X51832Y70765D01*
X51826Y70747D01*
X51817Y70731D01*
Y70729D01*
X51813Y70728D01*
X51805Y70720D01*
X51789Y70714D01*
X51780Y70710D01*
X51770D01*
X51754Y70712D01*
X50555Y71038D01*
X50553D01*
X50547Y71042D01*
X50537Y71045D01*
X50527Y71051D01*
X50518Y71061D01*
X50508Y71073D01*
X50502Y71086D01*
X50500Y71104D01*
Y71112D01*
X50504Y71122D01*
X50508Y71131D01*
X50514Y71143D01*
X50523Y71155D01*
X50537Y71164D01*
X50555Y71172D01*
X51754Y71498D01*
X51770Y71500D01*
X51772D01*
X51774D01*
X51786Y71498D01*
D02*
G37*
G36*
X51782Y70517D02*
X51793Y70513D01*
X51811Y70503D01*
X51813D01*
X51815Y70499D01*
X51825Y70491D01*
X51832Y70474D01*
X51834Y70464D01*
X51836Y70451D01*
Y70447D01*
X51834Y70435D01*
X51828Y70421D01*
X51817Y70404D01*
Y70402D01*
X51813Y70400D01*
X51805Y70392D01*
X51791Y70384D01*
X51782Y70380D01*
X51772D01*
X51770D01*
X51768D01*
X51758Y70382D01*
X51743Y70388D01*
X51727Y70398D01*
X51723Y70402D01*
X51717Y70412D01*
X51711Y70427D01*
X51707Y70451D01*
Y70456D01*
X51709Y70462D01*
Y70470D01*
X51715Y70488D01*
X51727Y70503D01*
X51731Y70505D01*
X51741Y70511D01*
X51754Y70517D01*
X51772Y70519D01*
X51774D01*
X51782Y70517D01*
D02*
G37*
G36*
X51413D02*
X51427Y70511D01*
X51442Y70499D01*
X51444D01*
X51446Y70495D01*
X51454Y70486D01*
X51462Y70470D01*
X51466Y70460D01*
Y70447D01*
X51464Y70435D01*
X51458Y70419D01*
X51448Y70402D01*
Y70400D01*
X51444Y70398D01*
X51436Y70390D01*
X51421Y70384D01*
X51411Y70380D01*
X51401D01*
X50562D01*
X50559D01*
X50549Y70382D01*
X50535Y70388D01*
X50518Y70400D01*
Y70402D01*
X50516Y70404D01*
X50510Y70415D01*
X50502Y70431D01*
X50500Y70451D01*
Y70452D01*
X50502Y70460D01*
X50506Y70476D01*
X50516Y70495D01*
X50520Y70499D01*
X50527Y70507D01*
X50543Y70515D01*
X50551Y70517D01*
X50562Y70519D01*
X51401D01*
X51405D01*
X51413Y70517D01*
D02*
G37*
G36*
X51409Y70193D02*
X51421Y70191D01*
X51432Y70185D01*
X51444Y70177D01*
X51456Y70166D01*
X51464Y70148D01*
X51466Y70125D01*
Y69783D01*
X51462Y69768D01*
X51458Y69748D01*
X51450Y69725D01*
X51440Y69699D01*
X51425Y69674D01*
X51405Y69651D01*
X51403Y69649D01*
X51395Y69641D01*
X51382Y69631D01*
X51366Y69620D01*
X51345Y69610D01*
X51319Y69600D01*
X51292Y69592D01*
X51261Y69590D01*
X50562D01*
X50560D01*
X50559D01*
X50547Y69592D01*
X50531Y69598D01*
X50518Y69610D01*
X50516Y69614D01*
X50510Y69623D01*
X50502Y69639D01*
X50500Y69660D01*
Y69662D01*
X50502Y69672D01*
X50506Y69686D01*
X50516Y69707D01*
X50520Y69711D01*
X50527Y69719D01*
X50543Y69727D01*
X50551Y69729D01*
X50562Y69731D01*
X51261D01*
X51263D01*
X51267D01*
X51272Y69733D01*
X51278D01*
X51296Y69740D01*
X51306Y69744D01*
X51313Y69752D01*
X51315D01*
X51317Y69756D01*
X51325Y69766D01*
X51331Y69779D01*
X51335Y69789D01*
Y70055D01*
X50562D01*
X50560D01*
X50559D01*
X50547Y70056D01*
X50531Y70062D01*
X50518Y70074D01*
X50516Y70078D01*
X50510Y70088D01*
X50502Y70103D01*
X50500Y70125D01*
Y70127D01*
X50502Y70136D01*
X50506Y70150D01*
X50516Y70172D01*
X50520Y70175D01*
X50527Y70183D01*
X50543Y70191D01*
X50551Y70193D01*
X50562Y70195D01*
X51399D01*
X51401D01*
X51409Y70193D01*
D02*
G37*
G36*
X74200Y77250D02*
X70000D01*
Y78750D01*
X74200D01*
Y77250D01*
D02*
G37*
G36*
X79600D02*
X74500D01*
Y78750D01*
X79600D01*
Y77250D01*
D02*
G37*
G36*
X86422Y76163D02*
X86443Y76154D01*
X86466Y76139D01*
X86469Y76133D01*
X86478Y76122D01*
X86486Y76104D01*
X86489Y76084D01*
Y76081D01*
Y76075D01*
X86486Y76057D01*
X86173Y74801D01*
Y74798D01*
X86167Y74786D01*
X86161Y74772D01*
X86150Y74757D01*
X86132Y74739D01*
X86112Y74725D01*
X86082Y74713D01*
X86047Y74710D01*
X85552D01*
X85535Y74713D01*
X85511Y74716D01*
X85482Y74722D01*
X85447Y74734D01*
X85412Y74751D01*
X85379Y74772D01*
X85350Y74804D01*
X85347Y74807D01*
X85344Y74816D01*
X85336Y74827D01*
X85327Y74845D01*
X85318Y74865D01*
X85312Y74889D01*
X85306Y74915D01*
X85303Y74944D01*
Y74947D01*
Y74950D01*
X85306Y74968D01*
X85309Y74994D01*
X85315Y75024D01*
X85576Y76069D01*
Y76072D01*
X85579Y76075D01*
X85584Y76090D01*
X85599Y76110D01*
X85620Y76133D01*
X85622Y76136D01*
X85625Y76139D01*
X85643Y76151D01*
X85666Y76160D01*
X85684Y76166D01*
X85707D01*
X85725Y76163D01*
X85748Y76154D01*
X85772Y76136D01*
X85778Y76131D01*
X85786Y76116D01*
X85792Y76090D01*
Y76075D01*
X85789Y76057D01*
X85526Y75012D01*
Y75009D01*
Y75003D01*
X85523Y74985D01*
X85526Y74959D01*
X85529Y74947D01*
X85535Y74936D01*
X85538Y74933D01*
X85549Y74924D01*
X85567Y74912D01*
X85593Y74909D01*
X85983D01*
X86273Y76069D01*
Y76072D01*
X86276Y76075D01*
X86281Y76090D01*
X86296Y76110D01*
X86317Y76133D01*
X86320Y76136D01*
X86322Y76139D01*
X86340Y76151D01*
X86363Y76160D01*
X86381Y76166D01*
X86404D01*
X86422Y76163D01*
D02*
G37*
G36*
X88170Y76719D02*
X88194Y76710D01*
X88217Y76693D01*
X88223Y76687D01*
X88232Y76672D01*
X88238Y76649D01*
Y76634D01*
X88235Y76617D01*
X87971Y75571D01*
X88621Y76133D01*
X88624Y76136D01*
X88627Y76139D01*
X88636Y76145D01*
X88648Y76151D01*
X88674Y76163D01*
X88689Y76169D01*
X88715D01*
X88733Y76163D01*
X88756Y76154D01*
X88768Y76142D01*
X88780Y76131D01*
X88782Y76128D01*
X88788Y76116D01*
X88794Y76098D01*
X88797Y76081D01*
Y76078D01*
Y76075D01*
Y76057D01*
Y76054D01*
X88794Y76051D01*
X88788Y76037D01*
X88774Y76016D01*
X88753Y75996D01*
X88214Y75530D01*
X88478Y74851D01*
Y74804D01*
Y74801D01*
X88475Y74798D01*
X88469Y74783D01*
X88454Y74763D01*
X88431Y74739D01*
X88428D01*
X88425Y74734D01*
X88408Y74725D01*
X88381Y74716D01*
X88352Y74710D01*
X88346D01*
X88334Y74713D01*
X88317Y74716D01*
X88299Y74725D01*
X88296Y74728D01*
X88288Y74734D01*
X88276Y74745D01*
X88267Y74760D01*
X88033Y75372D01*
X87892Y75246D01*
X87781Y74801D01*
Y74798D01*
X87778Y74795D01*
X87772Y74778D01*
X87757Y74757D01*
X87737Y74737D01*
X87734D01*
X87731Y74734D01*
X87714Y74725D01*
X87687Y74713D01*
X87655Y74710D01*
X87652D01*
X87637Y74713D01*
X87617Y74722D01*
X87588Y74737D01*
X87585Y74739D01*
X87576Y74748D01*
X87564Y74763D01*
X87561Y74783D01*
Y74786D01*
Y74792D01*
X87564Y74804D01*
X87567Y74816D01*
X88021Y76628D01*
X88024Y76634D01*
X88030Y76646D01*
X88044Y76666D01*
X88065Y76690D01*
X88068Y76693D01*
X88071Y76696D01*
X88088Y76707D01*
X88112Y76716D01*
X88129Y76722D01*
X88153D01*
X88170Y76719D01*
D02*
G37*
G36*
X87617Y76163D02*
X87637Y76151D01*
X87649Y76142D01*
X87661Y76131D01*
X87664Y76125D01*
X87673Y76113D01*
X87678Y76098D01*
X87681Y76078D01*
Y76072D01*
Y76057D01*
X87678Y76051D01*
X87673Y76037D01*
X87658Y76016D01*
X87637Y75993D01*
X87632Y75987D01*
X87614Y75978D01*
X87591Y75969D01*
X87555Y75964D01*
X87058D01*
X87052Y75961D01*
X87040D01*
X87011Y75949D01*
X86996Y75943D01*
X86981Y75931D01*
X86978D01*
X86976Y75926D01*
X86961Y75908D01*
X86943Y75885D01*
X86929Y75849D01*
X86721Y75012D01*
Y75009D01*
X86718Y75003D01*
X86715Y74985D01*
X86718Y74959D01*
X86721Y74947D01*
X86727Y74936D01*
X86730Y74933D01*
X86744Y74924D01*
X86762Y74912D01*
X86788Y74909D01*
X87283D01*
X87301Y74906D01*
X87324Y74895D01*
X87336Y74886D01*
X87347Y74874D01*
Y74871D01*
X87350Y74868D01*
X87359Y74851D01*
X87365Y74827D01*
X87368Y74816D01*
X87365Y74801D01*
X87362Y74795D01*
X87356Y74780D01*
X87345Y74763D01*
X87324Y74739D01*
X87318Y74734D01*
X87301Y74725D01*
X87274Y74716D01*
X87239Y74710D01*
X86747D01*
X86730Y74713D01*
X86706Y74716D01*
X86674Y74722D01*
X86642Y74734D01*
X86607Y74751D01*
X86571Y74772D01*
X86542Y74804D01*
X86539Y74807D01*
X86536Y74816D01*
X86527Y74827D01*
X86519Y74845D01*
X86510Y74865D01*
X86504Y74889D01*
X86498Y74915D01*
X86495Y74944D01*
Y74947D01*
Y74950D01*
X86498Y74968D01*
X86501Y74994D01*
X86507Y75024D01*
X86715Y75861D01*
X86718Y75867D01*
X86721Y75879D01*
X86730Y75902D01*
X86744Y75928D01*
X86762Y75961D01*
X86788Y75996D01*
X86817Y76034D01*
X86855Y76069D01*
X86861Y76072D01*
X86876Y76084D01*
X86896Y76098D01*
X86929Y76119D01*
X86964Y76136D01*
X87008Y76151D01*
X87052Y76163D01*
X87101Y76166D01*
X87599D01*
X87617Y76163D01*
D02*
G37*
G36*
X85034Y76719D02*
X85069Y76716D01*
X85110Y76705D01*
X85160Y76690D01*
X85207Y76664D01*
X85256Y76631D01*
X85277Y76608D01*
X85297Y76585D01*
X85300Y76582D01*
X85306Y76573D01*
X85315Y76561D01*
X85327Y76544D01*
X85336Y76523D01*
X85347Y76497D01*
X85356Y76470D01*
X85362Y76438D01*
X85365Y76362D01*
X85362Y76315D01*
X85353Y76268D01*
X85315Y76128D01*
Y76122D01*
X85309Y76110D01*
X85303Y76090D01*
X85295Y76063D01*
X85283Y76034D01*
X85268Y76002D01*
X85251Y75969D01*
X85230Y75937D01*
X85227Y75934D01*
X85218Y75923D01*
X85207Y75908D01*
X85192Y75890D01*
X85171Y75870D01*
X85151Y75849D01*
X85128Y75829D01*
X85104Y75811D01*
X85107Y75808D01*
X85113Y75805D01*
X85125Y75794D01*
X85139Y75779D01*
X85154Y75759D01*
X85171Y75732D01*
X85189Y75700D01*
X85204Y75662D01*
X85207Y75656D01*
X85210Y75641D01*
X85215Y75621D01*
X85221Y75589D01*
X85224Y75554D01*
Y75516D01*
X85221Y75472D01*
X85212Y75428D01*
X85142Y75149D01*
Y75147D01*
X85139Y75141D01*
X85136Y75132D01*
X85133Y75120D01*
X85119Y75088D01*
X85101Y75044D01*
X85072Y74997D01*
X85034Y74944D01*
X84987Y74892D01*
X84961Y74868D01*
X84928Y74842D01*
X84925D01*
X84920Y74836D01*
X84911Y74830D01*
X84899Y74821D01*
X84884Y74813D01*
X84864Y74801D01*
X84820Y74778D01*
X84767Y74751D01*
X84709Y74731D01*
X84647Y74716D01*
X84615Y74713D01*
X84583Y74710D01*
X84079D01*
X84064Y74713D01*
X84047Y74719D01*
X84029Y74728D01*
X84015Y74739D01*
X84003Y74757D01*
X84000Y74780D01*
Y74783D01*
Y74792D01*
X84003Y74804D01*
X84006Y74816D01*
X84460Y76628D01*
Y76631D01*
X84466Y76643D01*
X84472Y76658D01*
X84483Y76675D01*
X84498Y76693D01*
X84521Y76707D01*
X84548Y76719D01*
X84583Y76722D01*
X85019D01*
X85034Y76719D01*
D02*
G37*
G36*
X88413Y73113D02*
X88437Y73104D01*
X88449Y73092D01*
X88460Y73081D01*
X88463Y73078D01*
X88469Y73066D01*
X88475Y73051D01*
X88478Y73034D01*
Y73031D01*
Y73028D01*
Y73013D01*
Y73010D01*
X88475Y73007D01*
X88469Y72993D01*
X88454Y72969D01*
X88434Y72946D01*
X88428Y72940D01*
X88411Y72931D01*
X88387Y72923D01*
X88352Y72917D01*
X87506D01*
X87497Y72920D01*
X87485Y72923D01*
X87459Y72931D01*
X87447Y72940D01*
X87435Y72952D01*
X87432Y72955D01*
X87429Y72966D01*
X87424Y72981D01*
X87421Y72999D01*
Y73002D01*
Y73007D01*
X87427Y73025D01*
X87429Y73028D01*
X87432Y73040D01*
X87444Y73057D01*
X87465Y73081D01*
X87468Y73084D01*
X87470Y73087D01*
X87488Y73101D01*
X87514Y73113D01*
X87532Y73116D01*
X87550Y73119D01*
X88396D01*
X88413Y73113D01*
D02*
G37*
G36*
X91251Y74299D02*
X91263D01*
X91289Y74287D01*
X91301Y74281D01*
X91313Y74270D01*
X91316Y74267D01*
X91322Y74255D01*
X91327Y74240D01*
X91330Y74220D01*
Y74217D01*
Y74214D01*
X91327Y74197D01*
X91319Y74173D01*
X90382Y72372D01*
X90379Y72369D01*
X90373Y72360D01*
X90364Y72346D01*
X90349Y72334D01*
X90332Y72319D01*
X90311Y72305D01*
X90288Y72296D01*
X90261Y72293D01*
X90259D01*
X90247Y72296D01*
X90235Y72299D01*
X90218Y72305D01*
X90203Y72316D01*
X90188Y72331D01*
X90176Y72354D01*
X90174Y72384D01*
X90135Y74185D01*
X90138Y74208D01*
Y74211D01*
X90141Y74214D01*
X90147Y74232D01*
X90162Y74252D01*
X90182Y74273D01*
X90185D01*
X90188Y74279D01*
X90206Y74287D01*
X90232Y74296D01*
X90264Y74302D01*
X90270D01*
X90282Y74299D01*
X90300Y74296D01*
X90317Y74284D01*
X90320Y74281D01*
X90332Y74273D01*
X90343Y74252D01*
X90349Y74240D01*
X90355Y74223D01*
X90384Y72814D01*
X91125Y74232D01*
X91128Y74235D01*
X91134Y74246D01*
X91146Y74261D01*
X91163Y74279D01*
X91169Y74281D01*
X91184Y74287D01*
X91204Y74296D01*
X91234Y74302D01*
X91243D01*
X91251Y74299D01*
D02*
G37*
G36*
X87500D02*
X87511D01*
X87538Y74287D01*
X87550Y74281D01*
X87561Y74270D01*
X87564Y74267D01*
X87570Y74255D01*
X87576Y74240D01*
X87579Y74220D01*
Y74217D01*
Y74214D01*
X87576Y74197D01*
X87567Y74173D01*
X86630Y72372D01*
X86627Y72369D01*
X86621Y72360D01*
X86612Y72346D01*
X86598Y72334D01*
X86580Y72319D01*
X86560Y72305D01*
X86536Y72296D01*
X86510Y72293D01*
X86507D01*
X86495Y72296D01*
X86484Y72299D01*
X86466Y72305D01*
X86451Y72316D01*
X86437Y72331D01*
X86425Y72354D01*
X86422Y72384D01*
X86384Y74185D01*
X86387Y74208D01*
Y74211D01*
X86390Y74214D01*
X86396Y74232D01*
X86410Y74252D01*
X86431Y74273D01*
X86434D01*
X86437Y74279D01*
X86454Y74287D01*
X86481Y74296D01*
X86513Y74302D01*
X86519D01*
X86530Y74299D01*
X86548Y74296D01*
X86566Y74284D01*
X86568Y74281D01*
X86580Y74273D01*
X86592Y74252D01*
X86598Y74240D01*
X86604Y74223D01*
X86633Y72814D01*
X87374Y74232D01*
X87377Y74235D01*
X87383Y74246D01*
X87394Y74261D01*
X87412Y74279D01*
X87418Y74281D01*
X87432Y74287D01*
X87453Y74296D01*
X87482Y74302D01*
X87491D01*
X87500Y74299D01*
D02*
G37*
G36*
X94567Y74299D02*
X94581Y74293D01*
X94599Y74281D01*
X94613Y74267D01*
X94622Y74243D01*
X94628Y74211D01*
X94666Y72410D01*
X94663Y72384D01*
X94660Y72378D01*
X94654Y72363D01*
X94640Y72346D01*
X94616Y72322D01*
X94613D01*
X94610Y72316D01*
X94590Y72308D01*
X94567Y72299D01*
X94537Y72293D01*
X94531D01*
X94514Y72296D01*
X94493Y72302D01*
X94473Y72313D01*
X94470Y72316D01*
X94461Y72328D01*
X94452Y72346D01*
X94446Y72372D01*
X94438Y72849D01*
X93931D01*
X93676Y72363D01*
X93673Y72357D01*
X93664Y72346D01*
X93650Y72328D01*
X93629Y72313D01*
X93623Y72310D01*
X93609Y72305D01*
X93588Y72296D01*
X93562Y72293D01*
X93553D01*
X93536Y72296D01*
X93512Y72305D01*
X93489Y72322D01*
X93486Y72325D01*
X93480Y72337D01*
X93471Y72354D01*
X93468Y72372D01*
Y72375D01*
Y72381D01*
X93474Y72398D01*
X93480Y72419D01*
X94420Y74223D01*
X94423Y74226D01*
X94429Y74235D01*
X94438Y74249D01*
X94452Y74264D01*
X94467Y74279D01*
X94487Y74293D01*
X94511Y74302D01*
X94537Y74305D01*
X94552D01*
X94567Y74299D01*
D02*
G37*
G36*
X93237Y74305D02*
X93257Y74302D01*
X93278Y74299D01*
X93328Y74290D01*
X93383Y74273D01*
X93442Y74246D01*
X93471Y74229D01*
X93500Y74208D01*
X93530Y74185D01*
X93556Y74158D01*
X93559Y74153D01*
X93571Y74138D01*
X93588Y74115D01*
X93606Y74085D01*
X93623Y74047D01*
X93641Y74003D01*
X93653Y73956D01*
X93656Y73904D01*
Y73901D01*
Y73895D01*
Y73883D01*
X93653Y73868D01*
X93650Y73833D01*
X93638Y73789D01*
Y73786D01*
X93635Y73778D01*
X93632Y73763D01*
X93626Y73745D01*
X93618Y73725D01*
X93609Y73702D01*
X93582Y73649D01*
X93580Y73646D01*
X93574Y73637D01*
X93565Y73622D01*
X93553Y73605D01*
X93536Y73581D01*
X93518Y73555D01*
X93495Y73526D01*
X93468Y73494D01*
X92557Y72492D01*
X93193D01*
X93211Y72489D01*
X93234Y72477D01*
X93246Y72469D01*
X93257Y72457D01*
Y72454D01*
X93260Y72451D01*
X93269Y72433D01*
X93275Y72410D01*
Y72398D01*
X93272Y72384D01*
Y72378D01*
X93266Y72363D01*
X93254Y72346D01*
X93234Y72322D01*
X93228Y72316D01*
X93211Y72308D01*
X93187Y72299D01*
X93152Y72293D01*
X92309D01*
X92291Y72299D01*
X92265Y72308D01*
X92253Y72316D01*
X92241Y72328D01*
X92238Y72331D01*
X92235Y72343D01*
X92229Y72360D01*
X92227Y72378D01*
Y72381D01*
Y72384D01*
X92229Y72401D01*
Y72407D01*
X92235Y72416D01*
X92244Y72433D01*
X92256Y72448D01*
X93310Y73605D01*
X93351Y73661D01*
X93383Y73707D01*
Y73710D01*
X93389Y73716D01*
X93392Y73725D01*
X93398Y73737D01*
X93410Y73766D01*
X93421Y73801D01*
Y73804D01*
Y73807D01*
X93424Y73822D01*
X93427Y73848D01*
Y73877D01*
X93424Y73910D01*
X93416Y73948D01*
X93398Y73983D01*
X93375Y74018D01*
X93372Y74021D01*
X93369Y74024D01*
X93351Y74041D01*
X93322Y74059D01*
X93287Y74079D01*
X93284D01*
X93278Y74082D01*
X93266Y74088D01*
X93252Y74091D01*
X93216Y74100D01*
X93172Y74103D01*
X93158D01*
X93140Y74100D01*
X93120Y74097D01*
X93093Y74091D01*
X93064Y74082D01*
X93032Y74071D01*
X93000Y74053D01*
X92997Y74050D01*
X92985Y74044D01*
X92967Y74033D01*
X92947Y74015D01*
X92921Y73992D01*
X92891Y73962D01*
X92862Y73927D01*
X92833Y73883D01*
X92830Y73877D01*
X92821Y73866D01*
X92806Y73851D01*
X92789Y73839D01*
X92786Y73836D01*
X92774Y73830D01*
X92754Y73825D01*
X92730Y73819D01*
X92721D01*
X92713Y73822D01*
X92701D01*
X92675Y73830D01*
X92648Y73848D01*
Y73851D01*
X92645Y73854D01*
X92637Y73871D01*
X92631Y73895D01*
Y73910D01*
X92634Y73927D01*
X92645Y73956D01*
Y73959D01*
X92651Y73965D01*
X92657Y73974D01*
X92663Y73986D01*
X92686Y74018D01*
X92719Y74056D01*
X92754Y74100D01*
X92798Y74147D01*
X92847Y74188D01*
X92903Y74226D01*
X92906D01*
X92909Y74229D01*
X92918Y74235D01*
X92926Y74238D01*
X92956Y74252D01*
X92994Y74267D01*
X93038Y74281D01*
X93088Y74296D01*
X93143Y74305D01*
X93202Y74308D01*
X93222D01*
X93237Y74305D01*
D02*
G37*
G36*
X89890Y74299D02*
X89913Y74290D01*
X89925Y74279D01*
X89936Y74267D01*
X89939Y74264D01*
X89945Y74252D01*
X89951Y74238D01*
X89954Y74220D01*
Y74217D01*
Y74214D01*
X89951Y74199D01*
X89948Y74194D01*
X89942Y74179D01*
X89930Y74158D01*
X89910Y74135D01*
X89904Y74129D01*
X89887Y74120D01*
X89863Y74112D01*
X89828Y74106D01*
X89231D01*
X89069Y73467D01*
X89321D01*
X89336Y73464D01*
X89371Y73461D01*
X89412Y73450D01*
X89459Y73435D01*
X89509Y73409D01*
X89556Y73376D01*
X89576Y73353D01*
X89597Y73330D01*
Y73327D01*
X89603Y73324D01*
X89611Y73306D01*
X89626Y73277D01*
X89644Y73239D01*
X89655Y73192D01*
X89664Y73139D01*
Y73078D01*
X89661Y73046D01*
X89655Y73013D01*
X89585Y72735D01*
Y72732D01*
X89582Y72726D01*
X89579Y72718D01*
X89576Y72706D01*
X89561Y72671D01*
X89544Y72627D01*
X89515Y72580D01*
X89479Y72527D01*
X89433Y72474D01*
X89377Y72422D01*
X89374D01*
X89371Y72416D01*
X89359Y72410D01*
X89348Y72401D01*
X89333Y72392D01*
X89315Y72381D01*
X89272Y72357D01*
X89219Y72334D01*
X89160Y72313D01*
X89096Y72299D01*
X89061Y72296D01*
X89026Y72293D01*
X88668D01*
X88659Y72296D01*
X88648D01*
X88621Y72308D01*
X88607Y72313D01*
X88595Y72325D01*
X88592Y72328D01*
X88589Y72340D01*
X88586Y72354D01*
X88583Y72372D01*
Y72375D01*
Y72381D01*
X88586Y72398D01*
X88589Y72401D01*
X88592Y72413D01*
X88604Y72431D01*
X88624Y72454D01*
X88627Y72457D01*
X88630Y72460D01*
X88648Y72474D01*
X88674Y72486D01*
X88692Y72489D01*
X88712Y72492D01*
X89078D01*
X89099Y72495D01*
X89122Y72501D01*
X89154Y72510D01*
X89187Y72524D01*
X89219Y72542D01*
X89254Y72565D01*
X89257Y72568D01*
X89269Y72580D01*
X89283Y72595D01*
X89304Y72615D01*
X89324Y72641D01*
X89342Y72674D01*
X89359Y72709D01*
X89374Y72747D01*
X89441Y73025D01*
Y73031D01*
X89444Y73043D01*
X89447Y73060D01*
Y73084D01*
Y73113D01*
X89441Y73139D01*
X89433Y73169D01*
X89415Y73195D01*
X89412Y73198D01*
X89406Y73207D01*
X89395Y73218D01*
X89377Y73230D01*
X89356Y73242D01*
X89333Y73253D01*
X89304Y73262D01*
X89269Y73265D01*
X88914D01*
X88903Y73268D01*
X88885Y73271D01*
X88864Y73280D01*
X88847Y73292D01*
X88835Y73309D01*
X88826Y73335D01*
X88829Y73353D01*
X88832Y73371D01*
X89040Y74211D01*
Y74214D01*
X89046Y74226D01*
X89052Y74240D01*
X89064Y74258D01*
X89081Y74276D01*
X89102Y74290D01*
X89128Y74302D01*
X89163Y74305D01*
X89872D01*
X89890Y74299D01*
D02*
G37*
G36*
X85766Y74305D02*
X85786Y74302D01*
X85807Y74299D01*
X85857Y74290D01*
X85912Y74273D01*
X85971Y74246D01*
X86000Y74229D01*
X86030Y74208D01*
X86059Y74185D01*
X86085Y74158D01*
X86088Y74153D01*
X86100Y74138D01*
X86117Y74115D01*
X86135Y74085D01*
X86153Y74047D01*
X86170Y74003D01*
X86182Y73956D01*
X86185Y73904D01*
Y73901D01*
Y73895D01*
Y73883D01*
X86182Y73868D01*
X86179Y73833D01*
X86167Y73789D01*
Y73786D01*
X86164Y73778D01*
X86161Y73763D01*
X86156Y73745D01*
X86147Y73725D01*
X86138Y73702D01*
X86112Y73649D01*
X86109Y73646D01*
X86103Y73637D01*
X86094Y73622D01*
X86082Y73605D01*
X86065Y73581D01*
X86047Y73555D01*
X86024Y73526D01*
X85997Y73494D01*
X85087Y72492D01*
X85722D01*
X85740Y72489D01*
X85763Y72477D01*
X85775Y72469D01*
X85786Y72457D01*
Y72454D01*
X85789Y72451D01*
X85798Y72433D01*
X85804Y72410D01*
Y72398D01*
X85801Y72384D01*
Y72378D01*
X85795Y72363D01*
X85784Y72346D01*
X85763Y72322D01*
X85757Y72316D01*
X85740Y72308D01*
X85716Y72299D01*
X85681Y72293D01*
X84838D01*
X84820Y72299D01*
X84794Y72308D01*
X84782Y72316D01*
X84770Y72328D01*
X84767Y72331D01*
X84764Y72343D01*
X84759Y72360D01*
X84756Y72378D01*
Y72381D01*
Y72384D01*
X84759Y72401D01*
Y72407D01*
X84764Y72416D01*
X84773Y72433D01*
X84785Y72448D01*
X85839Y73605D01*
X85880Y73661D01*
X85912Y73707D01*
Y73710D01*
X85918Y73716D01*
X85921Y73725D01*
X85927Y73737D01*
X85939Y73766D01*
X85951Y73801D01*
Y73804D01*
Y73807D01*
X85953Y73822D01*
X85956Y73848D01*
Y73877D01*
X85953Y73910D01*
X85945Y73948D01*
X85927Y73983D01*
X85904Y74018D01*
X85901Y74021D01*
X85898Y74024D01*
X85880Y74041D01*
X85851Y74059D01*
X85816Y74079D01*
X85813D01*
X85807Y74082D01*
X85795Y74088D01*
X85781Y74091D01*
X85745Y74100D01*
X85702Y74103D01*
X85687D01*
X85669Y74100D01*
X85649Y74097D01*
X85622Y74091D01*
X85593Y74082D01*
X85561Y74071D01*
X85529Y74053D01*
X85526Y74050D01*
X85514Y74044D01*
X85497Y74033D01*
X85476Y74015D01*
X85450Y73992D01*
X85420Y73962D01*
X85391Y73927D01*
X85362Y73883D01*
X85359Y73877D01*
X85350Y73866D01*
X85336Y73851D01*
X85318Y73839D01*
X85315Y73836D01*
X85303Y73830D01*
X85283Y73825D01*
X85259Y73819D01*
X85251D01*
X85242Y73822D01*
X85230D01*
X85204Y73830D01*
X85177Y73848D01*
Y73851D01*
X85174Y73854D01*
X85166Y73871D01*
X85160Y73895D01*
Y73910D01*
X85163Y73927D01*
X85174Y73956D01*
Y73959D01*
X85180Y73965D01*
X85186Y73974D01*
X85192Y73986D01*
X85215Y74018D01*
X85248Y74056D01*
X85283Y74100D01*
X85327Y74147D01*
X85377Y74188D01*
X85432Y74226D01*
X85435D01*
X85438Y74229D01*
X85447Y74235D01*
X85456Y74238D01*
X85485Y74252D01*
X85523Y74267D01*
X85567Y74281D01*
X85617Y74296D01*
X85672Y74305D01*
X85731Y74308D01*
X85751D01*
X85766Y74305D01*
D02*
G37*
G36*
X84674Y74302D02*
X84700Y74290D01*
X84712Y74284D01*
X84723Y74273D01*
X84726Y74270D01*
X84735Y74258D01*
X84741Y74240D01*
X84744Y74223D01*
Y74220D01*
Y74217D01*
X84738Y74199D01*
X84284Y72384D01*
Y72381D01*
X84281Y72378D01*
X84275Y72360D01*
X84264Y72340D01*
X84243Y72319D01*
X84240D01*
X84237Y72316D01*
X84220Y72308D01*
X84193Y72296D01*
X84161Y72293D01*
X84158D01*
X84144Y72296D01*
X84123Y72305D01*
X84094Y72319D01*
X84088Y72325D01*
X84079Y72340D01*
X84070Y72363D01*
Y72378D01*
Y72395D01*
X84460Y73945D01*
X84173Y73716D01*
X84170D01*
X84167Y73710D01*
X84149Y73702D01*
X84126Y73693D01*
X84097Y73687D01*
X84088D01*
X84079Y73690D01*
X84067Y73693D01*
X84041Y73702D01*
X84029Y73710D01*
X84018Y73722D01*
X84015Y73725D01*
X84009Y73737D01*
X84003Y73751D01*
X84000Y73772D01*
Y73775D01*
Y73781D01*
X84006Y73795D01*
Y73798D01*
X84012Y73807D01*
X84023Y73827D01*
X84032Y73839D01*
X84044Y73854D01*
X84571Y74276D01*
X84574D01*
X84577Y74281D01*
X84592Y74290D01*
X84618Y74299D01*
X84647Y74305D01*
X84656D01*
X84674Y74302D01*
D02*
G37*
G36*
X91231Y72474D02*
X91257Y72463D01*
X91269Y72457D01*
X91281Y72445D01*
X91284Y72442D01*
X91289Y72431D01*
X91295Y72413D01*
X91298Y72395D01*
Y72392D01*
Y72390D01*
X91295Y72372D01*
X91286Y72349D01*
X91146Y72073D01*
Y72070D01*
X91143Y72067D01*
X91131Y72053D01*
X91114Y72035D01*
X91093Y72018D01*
X91087Y72015D01*
X91076Y72009D01*
X91055Y72003D01*
X91032Y72000D01*
X91023D01*
X91005Y72006D01*
X90982Y72015D01*
X90970Y72023D01*
X90958Y72035D01*
X90956Y72038D01*
X90950Y72050D01*
X90944Y72067D01*
X90941Y72085D01*
Y72088D01*
Y72091D01*
X90944Y72105D01*
X90953Y72129D01*
X91087Y72404D01*
Y72407D01*
X91090Y72410D01*
X91102Y72425D01*
X91117Y72442D01*
X91137Y72457D01*
X91143Y72460D01*
X91158Y72469D01*
X91178Y72474D01*
X91204Y72477D01*
X91213D01*
X91231Y72474D01*
D02*
G37*
%LPC*%
G36*
X121809Y70444D02*
X121797D01*
X121239D01*
X121237D01*
X121233D01*
X121228Y70442D01*
X121222D01*
X121204Y70434D01*
X121194Y70430D01*
X121187Y70422D01*
X121185D01*
X121183Y70418D01*
X121175Y70408D01*
X121169Y70395D01*
X121165Y70385D01*
Y70184D01*
X121167Y70172D01*
X121175Y70157D01*
X121179Y70147D01*
X121187Y70139D01*
X121190Y70135D01*
X121200Y70129D01*
X121218Y70124D01*
X121239Y70120D01*
X121797D01*
X121799D01*
X121803D01*
X121809Y70122D01*
X121817D01*
X121834Y70128D01*
X121852Y70139D01*
Y70141D01*
X121856Y70143D01*
X121862Y70153D01*
X121867Y70168D01*
X121871Y70188D01*
Y70379D01*
X121869Y70391D01*
X121863Y70406D01*
X121852Y70422D01*
X121850Y70424D01*
X121848Y70426D01*
X121836Y70434D01*
X121821Y70440D01*
X121809Y70444D01*
D02*
G37*
G36*
X108913Y78707D02*
X108658D01*
Y77629D01*
X108925D01*
X108937Y77631D01*
X108952Y77635D01*
X108970Y77640D01*
X108987Y77648D01*
X109007Y77660D01*
X109026Y77676D01*
X109028Y77678D01*
X109034Y77683D01*
X109042Y77695D01*
X109052Y77709D01*
X109062Y77724D01*
X109069Y77746D01*
X109075Y77769D01*
X109077Y77795D01*
Y78540D01*
Y78544D01*
Y78551D01*
X109075Y78563D01*
X109071Y78581D01*
X109065Y78598D01*
X109056Y78618D01*
X109044Y78637D01*
X109028Y78657D01*
X109026Y78659D01*
X109021Y78665D01*
X109009Y78672D01*
X108995Y78682D01*
X108980Y78692D01*
X108960Y78700D01*
X108937Y78706D01*
X108913Y78707D01*
D02*
G37*
G36*
X121809Y75694D02*
X121797D01*
X121239D01*
X121237D01*
X121233D01*
X121228Y75692D01*
X121222D01*
X121204Y75684D01*
X121194Y75680D01*
X121187Y75672D01*
X121185D01*
X121183Y75668D01*
X121175Y75658D01*
X121169Y75645D01*
X121165Y75635D01*
Y75434D01*
X121167Y75422D01*
X121175Y75407D01*
X121179Y75397D01*
X121187Y75389D01*
X121190Y75385D01*
X121200Y75379D01*
X121218Y75374D01*
X121239Y75370D01*
X121797D01*
X121799D01*
X121803D01*
X121809Y75372D01*
X121817D01*
X121834Y75378D01*
X121852Y75389D01*
Y75391D01*
X121856Y75393D01*
X121862Y75403D01*
X121867Y75418D01*
X121871Y75438D01*
Y75629D01*
X121869Y75641D01*
X121863Y75656D01*
X121852Y75672D01*
X121850Y75674D01*
X121848Y75676D01*
X121836Y75684D01*
X121821Y75690D01*
X121809Y75694D01*
D02*
G37*
G36*
X117031Y51324D02*
X117022D01*
X117012Y51322D01*
X116998Y51318D01*
X116983Y51310D01*
X116967Y51300D01*
X116951Y51287D01*
X116936Y51269D01*
X116934Y51267D01*
X116930Y51259D01*
X116924Y51246D01*
X116916Y51228D01*
X116908Y51207D01*
X116903Y51179D01*
X116899Y51146D01*
X116897Y51109D01*
Y51107D01*
Y51103D01*
Y51097D01*
Y51090D01*
X116899Y51068D01*
X116903Y51043D01*
X116906Y51013D01*
X116914Y50982D01*
X116926Y50953D01*
X116940Y50928D01*
X116942Y50926D01*
X116947Y50918D01*
X116957Y50908D01*
X116969Y50896D01*
X116984Y50885D01*
X117002Y50875D01*
X117020Y50867D01*
X117041Y50865D01*
X117051D01*
X117061Y50867D01*
X117072Y50871D01*
X117088Y50877D01*
X117104Y50887D01*
X117119Y50898D01*
X117133Y50916D01*
X117135Y50918D01*
X117139Y50926D01*
X117144Y50939D01*
X117152Y50957D01*
X117158Y50980D01*
X117164Y51012D01*
X117168Y51047D01*
X117170Y51088D01*
Y51090D01*
Y51093D01*
Y51099D01*
Y51107D01*
X117168Y51129D01*
X117164Y51156D01*
X117160Y51185D01*
X117152Y51214D01*
X117143Y51244D01*
X117129Y51267D01*
X117127Y51269D01*
X117121Y51277D01*
X117113Y51285D01*
X117102Y51296D01*
X117088Y51306D01*
X117072Y51316D01*
X117053Y51322D01*
X117031Y51324D01*
D02*
G37*
G36*
X109014Y51228D02*
X108790D01*
Y50900D01*
X109035D01*
X109053Y50902D01*
X109094Y50904D01*
X109113Y50906D01*
X109129Y50910D01*
X109131D01*
X109135Y50912D01*
X109143Y50916D01*
X109150Y50922D01*
X109162Y50928D01*
X109172Y50937D01*
X109184Y50949D01*
X109195Y50963D01*
X109197Y50965D01*
X109199Y50971D01*
X109205Y50978D01*
X109211Y50992D01*
X109215Y51006D01*
X109221Y51021D01*
X109223Y51041D01*
X109225Y51060D01*
Y51062D01*
Y51068D01*
X109223Y51076D01*
X109221Y51086D01*
X109219Y51099D01*
X109213Y51113D01*
X109207Y51129D01*
X109199Y51144D01*
X109187Y51160D01*
X109174Y51175D01*
X109156Y51189D01*
X109135Y51203D01*
X109111Y51212D01*
X109084Y51220D01*
X109051Y51226D01*
X109014Y51228D01*
D02*
G37*
G36*
X118206Y51745D02*
X118204D01*
X118196Y51743D01*
X118186Y51741D01*
X118172Y51735D01*
X118157Y51725D01*
X118141Y51712D01*
X118126Y51692D01*
X118112Y51667D01*
X118110Y51663D01*
X118108Y51657D01*
X118106Y51651D01*
X118104Y51640D01*
X118102Y51628D01*
X118098Y51612D01*
X118096Y51593D01*
X118093Y51571D01*
X118089Y51544D01*
X118087Y51515D01*
X118085Y51482D01*
X118083Y51445D01*
X118081Y51402D01*
X118079Y51355D01*
Y51304D01*
Y51300D01*
Y51292D01*
Y51277D01*
Y51257D01*
X118081Y51236D01*
Y51209D01*
Y51181D01*
X118083Y51152D01*
X118087Y51090D01*
X118091Y51058D01*
X118093Y51031D01*
X118096Y51004D01*
X118100Y50978D01*
X118106Y50959D01*
X118112Y50941D01*
X118114Y50937D01*
X118118Y50930D01*
X118126Y50918D01*
X118137Y50904D01*
X118151Y50889D01*
X118167Y50877D01*
X118184Y50869D01*
X118206Y50865D01*
X118208D01*
X118215Y50867D01*
X118225Y50869D01*
X118239Y50875D01*
X118254Y50885D01*
X118270Y50896D01*
X118284Y50916D01*
X118297Y50941D01*
Y50943D01*
X118299Y50945D01*
X118301Y50951D01*
X118303Y50957D01*
X118305Y50969D01*
X118309Y50980D01*
X118311Y50996D01*
X118315Y51015D01*
X118319Y51037D01*
X118321Y51064D01*
X118325Y51093D01*
X118327Y51127D01*
X118329Y51164D01*
X118330Y51207D01*
X118332Y51253D01*
Y51304D01*
Y51308D01*
Y51316D01*
Y51331D01*
Y51351D01*
X118330Y51372D01*
Y51400D01*
Y51427D01*
X118329Y51456D01*
X118325Y51519D01*
X118321Y51550D01*
X118317Y51579D01*
X118313Y51605D01*
X118309Y51630D01*
X118303Y51651D01*
X118297Y51667D01*
X118295Y51671D01*
X118291Y51679D01*
X118284Y51692D01*
X118274Y51706D01*
X118260Y51720D01*
X118245Y51733D01*
X118227Y51741D01*
X118206Y51745D01*
D02*
G37*
G36*
X116212D02*
X116210D01*
X116202Y51743D01*
X116193Y51741D01*
X116179Y51735D01*
X116163Y51725D01*
X116148Y51712D01*
X116132Y51692D01*
X116118Y51667D01*
X116116Y51663D01*
X116114Y51657D01*
X116113Y51651D01*
X116111Y51640D01*
X116109Y51628D01*
X116105Y51612D01*
X116103Y51593D01*
X116099Y51571D01*
X116095Y51544D01*
X116093Y51515D01*
X116091Y51482D01*
X116089Y51445D01*
X116087Y51402D01*
X116085Y51355D01*
Y51304D01*
Y51300D01*
Y51292D01*
Y51277D01*
Y51257D01*
X116087Y51236D01*
Y51209D01*
Y51181D01*
X116089Y51152D01*
X116093Y51090D01*
X116097Y51058D01*
X116099Y51031D01*
X116103Y51004D01*
X116107Y50978D01*
X116113Y50959D01*
X116118Y50941D01*
X116120Y50937D01*
X116124Y50930D01*
X116132Y50918D01*
X116144Y50904D01*
X116157Y50889D01*
X116173Y50877D01*
X116191Y50869D01*
X116212Y50865D01*
X116214D01*
X116222Y50867D01*
X116232Y50869D01*
X116245Y50875D01*
X116261Y50885D01*
X116276Y50896D01*
X116290Y50916D01*
X116304Y50941D01*
Y50943D01*
X116306Y50945D01*
X116308Y50951D01*
X116310Y50957D01*
X116312Y50969D01*
X116315Y50980D01*
X116317Y50996D01*
X116321Y51015D01*
X116325Y51037D01*
X116327Y51064D01*
X116331Y51093D01*
X116333Y51127D01*
X116335Y51164D01*
X116337Y51207D01*
X116339Y51253D01*
Y51304D01*
Y51308D01*
Y51316D01*
Y51331D01*
Y51351D01*
X116337Y51372D01*
Y51400D01*
Y51427D01*
X116335Y51456D01*
X116331Y51519D01*
X116327Y51550D01*
X116323Y51579D01*
X116319Y51605D01*
X116315Y51630D01*
X116310Y51651D01*
X116304Y51667D01*
X116302Y51671D01*
X116298Y51679D01*
X116290Y51692D01*
X116280Y51706D01*
X116267Y51720D01*
X116251Y51733D01*
X116233Y51741D01*
X116212Y51745D01*
D02*
G37*
G36*
X73837Y78509D02*
X73827D01*
X73819Y78506D01*
X73807Y78500D01*
X73800Y78494D01*
X73797Y78493D01*
Y78491D01*
X73788Y78479D01*
X73784Y78469D01*
X73782Y78463D01*
Y78460D01*
Y77779D01*
X73457Y78479D01*
X73451Y78490D01*
X73443Y78497D01*
X73439Y78500D01*
X73436Y78501D01*
X73425Y78506D01*
X73418Y78507D01*
X73412Y78509D01*
X73400D01*
X73393Y78506D01*
X73381Y78500D01*
X73373Y78494D01*
X73370Y78493D01*
Y78491D01*
X73362Y78479D01*
X73357Y78469D01*
X73356Y78463D01*
Y77539D01*
X73357Y77530D01*
X73359Y77524D01*
X73365Y77512D01*
X73370Y77506D01*
X73373Y77503D01*
X73390Y77496D01*
X73400Y77493D01*
X73408Y77491D01*
X73409D01*
X73425Y77493D01*
X73437Y77499D01*
X73445Y77503D01*
X73448Y77504D01*
X73457Y77515D01*
X73461Y77527D01*
X73463Y77536D01*
Y77537D01*
Y77539D01*
Y78219D01*
X73786Y77518D01*
X73806Y77497D01*
X73831Y77491D01*
X73847Y77493D01*
X73862Y77499D01*
X73871Y77503D01*
X73873Y77504D01*
X73874D01*
X73882Y77519D01*
X73886Y77530D01*
X73888Y77537D01*
Y78467D01*
X73885Y78475D01*
X73880Y78487D01*
X73874Y78493D01*
X73873Y78496D01*
X73871D01*
X73858Y78503D01*
X73846Y78507D01*
X73837Y78509D01*
D02*
G37*
G36*
X71818D02*
X71813D01*
X71800Y78507D01*
X71789Y78503D01*
X71782Y78499D01*
X71779Y78497D01*
X71770Y78488D01*
X71764Y78479D01*
X71763Y78472D01*
X71761Y78470D01*
Y78469D01*
X71623Y77753D01*
X71474Y78198D01*
X71466Y78212D01*
X71458Y78222D01*
X71449Y78228D01*
X71442Y78234D01*
X71436Y78237D01*
X71430Y78238D01*
X71425D01*
X71412Y78237D01*
X71402Y78233D01*
X71393Y78225D01*
X71387Y78218D01*
X71381Y78210D01*
X71378Y78203D01*
X71375Y78198D01*
Y78197D01*
X71226Y77753D01*
X71088Y78469D01*
X71082Y78482D01*
X71075Y78493D01*
X71067Y78499D01*
X71057Y78504D01*
X71049Y78507D01*
X71042Y78509D01*
X71027D01*
X71020Y78506D01*
X71008Y78501D01*
X71000Y78496D01*
X70999Y78494D01*
X70997Y78493D01*
X70989Y78481D01*
X70984Y78470D01*
X70983Y78464D01*
Y78452D01*
X71161Y77534D01*
X71177Y77504D01*
X71194Y77497D01*
X71204Y77493D01*
X71211Y77491D01*
X71213D01*
X71225Y77493D01*
X71235Y77497D01*
X71244Y77503D01*
X71252Y77510D01*
X71257Y77518D01*
X71260Y77524D01*
X71263Y77528D01*
Y77530D01*
X71425Y78016D01*
X71587Y77530D01*
X71593Y77516D01*
X71601Y77507D01*
X71610Y77500D01*
X71619Y77496D01*
X71626Y77493D01*
X71633Y77491D01*
X71639D01*
X71654Y77494D01*
X71665Y77500D01*
X71672Y77504D01*
X71674Y77506D01*
X71682Y77516D01*
X71687Y77525D01*
X71690Y77533D01*
Y77536D01*
X71865Y78452D01*
X71867Y78460D01*
Y78469D01*
X71864Y78476D01*
X71859Y78487D01*
X71853Y78494D01*
X71852Y78496D01*
X71850D01*
X71838Y78503D01*
X71827Y78507D01*
X71818Y78509D01*
D02*
G37*
G36*
X73164D02*
X73152D01*
X73145Y78506D01*
X73133Y78500D01*
X73125Y78494D01*
X73122Y78493D01*
Y78491D01*
X73113Y78479D01*
X73109Y78469D01*
X73107Y78463D01*
Y77539D01*
X73109Y77530D01*
X73110Y77524D01*
X73116Y77512D01*
X73122Y77506D01*
X73125Y77503D01*
X73142Y77496D01*
X73152Y77493D01*
X73159Y77491D01*
X73161D01*
X73177Y77493D01*
X73189Y77499D01*
X73197Y77503D01*
X73200Y77504D01*
X73208Y77515D01*
X73213Y77527D01*
X73214Y77536D01*
Y78467D01*
X73211Y78475D01*
X73206Y78487D01*
X73200Y78493D01*
X73198Y78496D01*
X73197D01*
X73185Y78503D01*
X73173Y78507D01*
X73164Y78509D01*
D02*
G37*
G36*
X72320D02*
X72063D01*
X72045Y78507D01*
X72032Y78501D01*
X72023Y78494D01*
X72017Y78485D01*
X72012Y78475D01*
X72011Y78467D01*
X72009Y78461D01*
Y77539D01*
X72011Y77530D01*
X72012Y77524D01*
X72018Y77512D01*
X72024Y77506D01*
X72027Y77503D01*
X72044Y77496D01*
X72054Y77493D01*
X72061Y77491D01*
X72063D01*
X72079Y77493D01*
X72091Y77499D01*
X72099Y77503D01*
X72101Y77504D01*
X72110Y77515D01*
X72115Y77527D01*
X72116Y77536D01*
Y77537D01*
Y77539D01*
Y77915D01*
X72208D01*
X72442Y77516D01*
X72448Y77509D01*
X72454Y77503D01*
X72458Y77499D01*
X72460Y77497D01*
X72470Y77494D01*
X72477Y77493D01*
X72483Y77491D01*
X72486D01*
X72503Y77493D01*
X72515Y77499D01*
X72523Y77503D01*
X72525Y77504D01*
X72526D01*
X72535Y77516D01*
X72540Y77528D01*
X72541Y77536D01*
Y77539D01*
X72540Y77548D01*
X72538Y77556D01*
X72537Y77562D01*
X72535Y77564D01*
X72329Y77915D01*
X72311D01*
X72329Y77916D01*
X72345Y77918D01*
X72378Y77925D01*
X72405Y77935D01*
X72428Y77949D01*
X72448Y77961D01*
X72463Y77971D01*
X72471Y77978D01*
X72474Y77981D01*
X72486Y77995D01*
X72497Y78008D01*
X72513Y78035D01*
X72525Y78062D01*
X72532Y78085D01*
X72538Y78108D01*
X72540Y78126D01*
X72541Y78132D01*
Y78301D01*
X72538Y78317D01*
X72531Y78347D01*
X72519Y78375D01*
X72507Y78397D01*
X72495Y78417D01*
X72483Y78430D01*
X72476Y78439D01*
X72474Y78442D01*
X72473D01*
X72460Y78454D01*
X72446Y78464D01*
X72419Y78481D01*
X72393Y78493D01*
X72367Y78500D01*
X72345Y78506D01*
X72335Y78507D01*
X72327D01*
X72320Y78509D01*
D02*
G37*
G36*
X70620D02*
X70363D01*
X70345Y78507D01*
X70332Y78501D01*
X70323Y78493D01*
X70317Y78484D01*
X70312Y78475D01*
X70311Y78466D01*
X70309Y78460D01*
Y77540D01*
X70311Y77531D01*
X70312Y77524D01*
X70318Y77513D01*
X70324Y77506D01*
X70327Y77503D01*
X70344Y77496D01*
X70354Y77493D01*
X70361Y77491D01*
X70363D01*
X70379Y77493D01*
X70391Y77499D01*
X70399Y77503D01*
X70402Y77504D01*
X70411Y77516D01*
X70415Y77527D01*
X70416Y77537D01*
Y77539D01*
Y77540D01*
Y77915D01*
X70611D01*
X70629Y77916D01*
X70645Y77918D01*
X70678Y77925D01*
X70705Y77935D01*
X70729Y77949D01*
X70748Y77961D01*
X70763Y77971D01*
X70772Y77978D01*
X70775Y77981D01*
X70786Y77995D01*
X70797Y78008D01*
X70813Y78035D01*
X70825Y78062D01*
X70833Y78085D01*
X70838Y78108D01*
X70840Y78126D01*
X70841Y78132D01*
Y78283D01*
X70840Y78305D01*
X70837Y78329D01*
X70825Y78368D01*
X70818Y78384D01*
X70810Y78397D01*
X70801Y78411D01*
X70794Y78421D01*
X70786Y78430D01*
X70781Y78436D01*
X70776Y78441D01*
X70775Y78442D01*
X70761Y78454D01*
X70748Y78464D01*
X70720Y78481D01*
X70693Y78493D01*
X70668Y78500D01*
X70645Y78506D01*
X70635Y78507D01*
X70627D01*
X70620Y78509D01*
D02*
G37*
%LPD*%
G36*
X72329Y78409D02*
X72347Y78405D01*
X72362Y78399D01*
X72373Y78392D01*
X72384Y78384D01*
X72393Y78378D01*
X72397Y78374D01*
X72399Y78372D01*
X72411Y78357D01*
X72419Y78342D01*
X72427Y78328D01*
X72431Y78314D01*
X72434Y78301D01*
X72436Y78292D01*
Y78286D01*
Y78283D01*
Y78140D01*
X72434Y78121D01*
X72430Y78103D01*
X72424Y78087D01*
X72416Y78075D01*
X72409Y78065D01*
X72403Y78056D01*
X72399Y78051D01*
X72397Y78050D01*
X72382Y78038D01*
X72367Y78029D01*
X72354Y78023D01*
X72341Y78019D01*
X72329Y78016D01*
X72320Y78014D01*
X72116D01*
Y78411D01*
X72311D01*
X72329Y78409D01*
D02*
G37*
G36*
X70629Y78408D02*
X70647Y78403D01*
X70662Y78397D01*
X70674Y78392D01*
X70684Y78384D01*
X70693Y78378D01*
X70697Y78374D01*
X70699Y78372D01*
X70711Y78357D01*
X70720Y78342D01*
X70727Y78328D01*
X70731Y78314D01*
X70734Y78301D01*
X70736Y78292D01*
Y78286D01*
Y78283D01*
Y78140D01*
X70734Y78121D01*
X70730Y78103D01*
X70724Y78087D01*
X70717Y78075D01*
X70709Y78065D01*
X70703Y78056D01*
X70699Y78051D01*
X70697Y78050D01*
X70682Y78038D01*
X70668Y78029D01*
X70654Y78023D01*
X70641Y78019D01*
X70629Y78016D01*
X70620Y78014D01*
X70416D01*
Y78409D01*
X70611D01*
X70629Y78408D01*
D02*
G37*
%LPC*%
G36*
X76219Y78509D02*
X76214D01*
X76201Y78507D01*
X76190Y78503D01*
X76183Y78499D01*
X76180Y78497D01*
X76171Y78488D01*
X76165Y78479D01*
X76164Y78472D01*
X76162Y78470D01*
Y78469D01*
X76024Y77753D01*
X75875Y78198D01*
X75866Y78212D01*
X75859Y78222D01*
X75850Y78228D01*
X75843Y78234D01*
X75837Y78237D01*
X75831Y78238D01*
X75826D01*
X75813Y78237D01*
X75803Y78233D01*
X75794Y78225D01*
X75788Y78218D01*
X75782Y78210D01*
X75779Y78203D01*
X75776Y78198D01*
Y78197D01*
X75627Y77753D01*
X75489Y78469D01*
X75483Y78482D01*
X75476Y78493D01*
X75468Y78499D01*
X75458Y78504D01*
X75450Y78507D01*
X75443Y78509D01*
X75428D01*
X75421Y78506D01*
X75409Y78501D01*
X75401Y78496D01*
X75400Y78494D01*
X75398Y78493D01*
X75390Y78481D01*
X75385Y78470D01*
X75384Y78464D01*
Y78452D01*
X75562Y77534D01*
X75578Y77504D01*
X75595Y77497D01*
X75605Y77493D01*
X75612Y77491D01*
X75614D01*
X75626Y77493D01*
X75636Y77497D01*
X75645Y77503D01*
X75653Y77510D01*
X75658Y77518D01*
X75661Y77524D01*
X75664Y77528D01*
Y77530D01*
X75826Y78016D01*
X75988Y77530D01*
X75994Y77516D01*
X76002Y77507D01*
X76011Y77500D01*
X76020Y77496D01*
X76027Y77493D01*
X76034Y77491D01*
X76040D01*
X76055Y77494D01*
X76066Y77500D01*
X76073Y77504D01*
X76075Y77506D01*
X76083Y77516D01*
X76088Y77525D01*
X76091Y77533D01*
Y77536D01*
X76266Y78452D01*
X76268Y78460D01*
Y78469D01*
X76265Y78476D01*
X76260Y78487D01*
X76254Y78494D01*
X76253Y78496D01*
X76251D01*
X76239Y78503D01*
X76228Y78507D01*
X76219Y78509D01*
D02*
G37*
G36*
X78663D02*
X78653D01*
X78645Y78506D01*
X78633Y78500D01*
X78626Y78494D01*
X78623Y78493D01*
Y78491D01*
X78614Y78479D01*
X78609Y78469D01*
X78608Y78463D01*
Y78460D01*
Y77715D01*
X78606Y77696D01*
X78602Y77678D01*
X78596Y77662D01*
X78589Y77650D01*
X78581Y77640D01*
X78575Y77631D01*
X78571Y77626D01*
X78569Y77625D01*
X78554Y77613D01*
X78540Y77604D01*
X78526Y77598D01*
X78513Y77594D01*
X78501Y77591D01*
X78492Y77589D01*
X78412D01*
X78394Y77591D01*
X78378Y77595D01*
X78364Y77601D01*
X78351Y77608D01*
X78340Y77614D01*
X78333Y77620D01*
X78327Y77625D01*
X78326Y77626D01*
X78314Y77641D01*
X78305Y77656D01*
X78297Y77671D01*
X78293Y77684D01*
X78290Y77698D01*
X78288Y77707D01*
Y77712D01*
Y77715D01*
Y78460D01*
Y78467D01*
X78286Y78475D01*
X78280Y78487D01*
X78274Y78493D01*
X78272Y78496D01*
X78271D01*
X78259Y78503D01*
X78247Y78507D01*
X78238Y78509D01*
X78226D01*
X78219Y78506D01*
X78207Y78500D01*
X78199Y78494D01*
X78196Y78493D01*
Y78491D01*
X78187Y78479D01*
X78183Y78469D01*
X78182Y78463D01*
Y77715D01*
X78183Y77698D01*
X78184Y77681D01*
X78192Y77652D01*
X78204Y77623D01*
X78217Y77601D01*
X78229Y77582D01*
X78241Y77568D01*
X78248Y77559D01*
X78251Y77558D01*
Y77556D01*
X78265Y77545D01*
X78278Y77536D01*
X78306Y77519D01*
X78333Y77507D01*
X78358Y77500D01*
X78381Y77494D01*
X78397Y77493D01*
X78403Y77491D01*
X78483D01*
X78501Y77493D01*
X78517Y77494D01*
X78550Y77501D01*
X78577Y77512D01*
X78601Y77525D01*
X78620Y77537D01*
X78635Y77548D01*
X78644Y77555D01*
X78647Y77558D01*
X78658Y77571D01*
X78669Y77585D01*
X78685Y77611D01*
X78697Y77637D01*
X78705Y77662D01*
X78710Y77683D01*
X78712Y77701D01*
X78713Y77707D01*
Y78467D01*
X78710Y78475D01*
X78706Y78487D01*
X78700Y78493D01*
X78699Y78496D01*
X78697D01*
X78684Y78503D01*
X78672Y78507D01*
X78663Y78509D01*
D02*
G37*
G36*
X79338D02*
X78908D01*
X78898Y78507D01*
X78890Y78506D01*
X78877Y78500D01*
X78869Y78493D01*
X78867Y78491D01*
Y78490D01*
X78859Y78476D01*
X78856Y78467D01*
X78855Y78461D01*
Y78460D01*
X78856Y78447D01*
X78862Y78436D01*
X78867Y78429D01*
X78868Y78426D01*
X78880Y78417D01*
X78893Y78412D01*
X78899D01*
X78904Y78411D01*
X79067D01*
Y77539D01*
X79069Y77530D01*
X79070Y77524D01*
X79076Y77512D01*
X79082Y77506D01*
X79085Y77503D01*
X79101Y77496D01*
X79112Y77493D01*
X79119Y77491D01*
X79121D01*
X79137Y77493D01*
X79149Y77499D01*
X79156Y77503D01*
X79159Y77504D01*
X79168Y77515D01*
X79173Y77527D01*
X79174Y77536D01*
Y77537D01*
Y77539D01*
Y78411D01*
X79333D01*
X79351Y78414D01*
X79363Y78418D01*
X79370Y78423D01*
X79373Y78426D01*
X79381Y78438D01*
X79385Y78449D01*
X79387Y78457D01*
Y78466D01*
X79384Y78473D01*
X79379Y78484D01*
X79373Y78490D01*
X79372Y78493D01*
X79370D01*
X79364Y78499D01*
X79358Y78501D01*
X79346Y78507D01*
X79338Y78509D01*
D02*
G37*
G36*
X77819D02*
X77721D01*
X77703Y78506D01*
X77672Y78499D01*
X77644Y78487D01*
X77620Y78475D01*
X77601Y78463D01*
X77586Y78451D01*
X77577Y78444D01*
X77575Y78442D01*
X77574Y78441D01*
X77562Y78427D01*
X77553Y78414D01*
X77537Y78387D01*
X77525Y78360D01*
X77517Y78337D01*
X77511Y78314D01*
X77510Y78298D01*
X77508Y78292D01*
Y77715D01*
X77510Y77698D01*
X77511Y77681D01*
X77519Y77652D01*
X77531Y77623D01*
X77544Y77601D01*
X77556Y77582D01*
X77568Y77568D01*
X77575Y77559D01*
X77578Y77558D01*
Y77556D01*
X77592Y77545D01*
X77605Y77536D01*
X77633Y77519D01*
X77660Y77507D01*
X77685Y77500D01*
X77708Y77494D01*
X77724Y77493D01*
X77730Y77491D01*
X77810D01*
X77828Y77493D01*
X77844Y77494D01*
X77877Y77501D01*
X77904Y77512D01*
X77927Y77525D01*
X77947Y77537D01*
X77962Y77548D01*
X77971Y77555D01*
X77973Y77558D01*
X77985Y77571D01*
X77996Y77585D01*
X78012Y77611D01*
X78024Y77637D01*
X78031Y77662D01*
X78037Y77683D01*
X78039Y77701D01*
X78040Y77707D01*
Y78301D01*
X78037Y78317D01*
X78030Y78347D01*
X78018Y78375D01*
X78006Y78397D01*
X77994Y78417D01*
X77982Y78430D01*
X77975Y78439D01*
X77973Y78442D01*
X77972D01*
X77959Y78454D01*
X77945Y78464D01*
X77919Y78481D01*
X77892Y78493D01*
X77867Y78500D01*
X77844Y78506D01*
X77834Y78507D01*
X77826D01*
X77819Y78509D01*
D02*
G37*
G36*
X76721D02*
X76464D01*
X76446Y78507D01*
X76433Y78501D01*
X76424Y78494D01*
X76418Y78485D01*
X76413Y78475D01*
X76412Y78467D01*
X76410Y78461D01*
Y77539D01*
X76412Y77530D01*
X76413Y77524D01*
X76419Y77512D01*
X76425Y77506D01*
X76428Y77503D01*
X76445Y77496D01*
X76455Y77493D01*
X76462Y77491D01*
X76464D01*
X76480Y77493D01*
X76492Y77499D01*
X76499Y77503D01*
X76502Y77504D01*
X76511Y77515D01*
X76516Y77527D01*
X76517Y77536D01*
Y77537D01*
Y77539D01*
Y77915D01*
X76609D01*
X76843Y77516D01*
X76849Y77509D01*
X76855Y77503D01*
X76859Y77499D01*
X76861Y77497D01*
X76871Y77494D01*
X76878Y77493D01*
X76884Y77491D01*
X76887D01*
X76904Y77493D01*
X76916Y77499D01*
X76924Y77503D01*
X76926Y77504D01*
X76927D01*
X76936Y77516D01*
X76941Y77528D01*
X76942Y77536D01*
Y77539D01*
X76941Y77548D01*
X76939Y77556D01*
X76938Y77562D01*
X76936Y77564D01*
X76730Y77915D01*
X76712D01*
X76730Y77916D01*
X76746Y77918D01*
X76779Y77925D01*
X76806Y77935D01*
X76829Y77949D01*
X76849Y77961D01*
X76864Y77971D01*
X76872Y77978D01*
X76875Y77981D01*
X76887Y77995D01*
X76898Y78008D01*
X76914Y78035D01*
X76926Y78062D01*
X76933Y78085D01*
X76939Y78108D01*
X76941Y78126D01*
X76942Y78132D01*
Y78301D01*
X76939Y78317D01*
X76932Y78347D01*
X76920Y78375D01*
X76908Y78397D01*
X76896Y78417D01*
X76884Y78430D01*
X76877Y78439D01*
X76875Y78442D01*
X76874D01*
X76861Y78454D01*
X76847Y78464D01*
X76820Y78481D01*
X76794Y78493D01*
X76768Y78500D01*
X76746Y78506D01*
X76736Y78507D01*
X76728D01*
X76721Y78509D01*
D02*
G37*
G36*
X75021D02*
X74764D01*
X74746Y78507D01*
X74733Y78501D01*
X74724Y78493D01*
X74718Y78484D01*
X74713Y78475D01*
X74712Y78466D01*
X74710Y78460D01*
Y77540D01*
X74712Y77531D01*
X74713Y77524D01*
X74719Y77513D01*
X74725Y77506D01*
X74728Y77503D01*
X74745Y77496D01*
X74755Y77493D01*
X74762Y77491D01*
X74764D01*
X74780Y77493D01*
X74792Y77499D01*
X74800Y77503D01*
X74803Y77504D01*
X74811Y77516D01*
X74816Y77527D01*
X74817Y77537D01*
Y77539D01*
Y77540D01*
Y77915D01*
X75012D01*
X75030Y77916D01*
X75046Y77918D01*
X75079Y77925D01*
X75106Y77935D01*
X75129Y77949D01*
X75149Y77961D01*
X75164Y77971D01*
X75173Y77978D01*
X75176Y77981D01*
X75187Y77995D01*
X75198Y78008D01*
X75214Y78035D01*
X75226Y78062D01*
X75233Y78085D01*
X75239Y78108D01*
X75241Y78126D01*
X75242Y78132D01*
Y78283D01*
X75241Y78305D01*
X75238Y78329D01*
X75226Y78368D01*
X75219Y78384D01*
X75211Y78397D01*
X75202Y78411D01*
X75195Y78421D01*
X75187Y78430D01*
X75181Y78436D01*
X75177Y78441D01*
X75176Y78442D01*
X75162Y78454D01*
X75149Y78464D01*
X75121Y78481D01*
X75094Y78493D01*
X75069Y78500D01*
X75046Y78506D01*
X75036Y78507D01*
X75028D01*
X75021Y78509D01*
D02*
G37*
%LPD*%
G36*
X77828Y78409D02*
X77846Y78405D01*
X77861Y78399D01*
X77872Y78392D01*
X77883Y78384D01*
X77892Y78378D01*
X77896Y78374D01*
X77898Y78372D01*
X77910Y78357D01*
X77919Y78342D01*
X77926Y78328D01*
X77930Y78314D01*
X77933Y78301D01*
X77935Y78292D01*
Y78286D01*
Y78283D01*
Y77715D01*
X77933Y77696D01*
X77929Y77678D01*
X77923Y77662D01*
X77916Y77650D01*
X77908Y77640D01*
X77902Y77631D01*
X77898Y77626D01*
X77896Y77625D01*
X77881Y77613D01*
X77867Y77604D01*
X77853Y77598D01*
X77840Y77594D01*
X77828Y77591D01*
X77819Y77589D01*
X77739D01*
X77721Y77591D01*
X77705Y77595D01*
X77691Y77601D01*
X77678Y77608D01*
X77667Y77614D01*
X77660Y77620D01*
X77654Y77625D01*
X77653Y77626D01*
X77641Y77641D01*
X77632Y77656D01*
X77624Y77671D01*
X77620Y77684D01*
X77617Y77698D01*
X77615Y77707D01*
Y77712D01*
Y77715D01*
Y78283D01*
X77617Y78302D01*
X77621Y78320D01*
X77627Y78335D01*
X77633Y78348D01*
X77639Y78359D01*
X77645Y78368D01*
X77650Y78372D01*
X77651Y78374D01*
X77666Y78386D01*
X77681Y78395D01*
X77696Y78402D01*
X77709Y78406D01*
X77721Y78409D01*
X77730Y78411D01*
X77810D01*
X77828Y78409D01*
D02*
G37*
G36*
X76730D02*
X76748Y78405D01*
X76762Y78399D01*
X76774Y78392D01*
X76785Y78384D01*
X76794Y78378D01*
X76798Y78374D01*
X76800Y78372D01*
X76812Y78357D01*
X76820Y78342D01*
X76828Y78328D01*
X76832Y78314D01*
X76835Y78301D01*
X76837Y78292D01*
Y78286D01*
Y78283D01*
Y78140D01*
X76835Y78121D01*
X76831Y78103D01*
X76825Y78087D01*
X76817Y78075D01*
X76810Y78065D01*
X76804Y78056D01*
X76800Y78051D01*
X76798Y78050D01*
X76783Y78038D01*
X76768Y78029D01*
X76755Y78023D01*
X76742Y78019D01*
X76730Y78016D01*
X76721Y78014D01*
X76517D01*
Y78411D01*
X76712D01*
X76730Y78409D01*
D02*
G37*
G36*
X75030Y78408D02*
X75048Y78403D01*
X75063Y78397D01*
X75075Y78392D01*
X75085Y78384D01*
X75094Y78378D01*
X75098Y78374D01*
X75100Y78372D01*
X75112Y78357D01*
X75121Y78342D01*
X75128Y78328D01*
X75132Y78314D01*
X75135Y78301D01*
X75137Y78292D01*
Y78286D01*
Y78283D01*
Y78140D01*
X75135Y78121D01*
X75131Y78103D01*
X75125Y78087D01*
X75118Y78075D01*
X75110Y78065D01*
X75104Y78056D01*
X75100Y78051D01*
X75098Y78050D01*
X75083Y78038D01*
X75069Y78029D01*
X75055Y78023D01*
X75042Y78019D01*
X75030Y78016D01*
X75021Y78014D01*
X74817D01*
Y78409D01*
X75012D01*
X75030Y78408D01*
D02*
G37*
%LPC*%
G36*
X84966Y76523D02*
X84647D01*
X84489Y75885D01*
X84808D01*
X84826Y75887D01*
X84852Y75893D01*
X84882Y75902D01*
X84914Y75917D01*
X84946Y75934D01*
X84981Y75958D01*
X84984Y75961D01*
X84996Y75972D01*
X85013Y75987D01*
X85031Y76010D01*
X85051Y76037D01*
X85072Y76066D01*
X85089Y76101D01*
X85104Y76139D01*
X85139Y76280D01*
Y76286D01*
X85142Y76298D01*
X85145Y76315D01*
Y76341D01*
X85142Y76368D01*
X85139Y76397D01*
X85128Y76426D01*
X85113Y76453D01*
X85110Y76456D01*
X85104Y76464D01*
X85092Y76476D01*
X85075Y76488D01*
X85054Y76500D01*
X85031Y76511D01*
X85002Y76520D01*
X84966Y76523D01*
D02*
G37*
G36*
X84826Y75682D02*
X84439D01*
X84243Y74909D01*
X84636D01*
X84653Y74912D01*
X84679Y74918D01*
X84709Y74927D01*
X84741Y74939D01*
X84773Y74956D01*
X84808Y74980D01*
X84811Y74983D01*
X84823Y74994D01*
X84841Y75009D01*
X84858Y75029D01*
X84879Y75056D01*
X84899Y75088D01*
X84917Y75123D01*
X84931Y75161D01*
X85002Y75442D01*
Y75445D01*
X85005Y75460D01*
X85007Y75477D01*
Y75501D01*
X85005Y75524D01*
X84999Y75554D01*
X84987Y75583D01*
X84969Y75609D01*
X84966Y75612D01*
X84961Y75621D01*
X84949Y75633D01*
X84931Y75647D01*
X84911Y75659D01*
X84887Y75671D01*
X84858Y75680D01*
X84826Y75682D01*
D02*
G37*
G36*
X94420Y73792D02*
X94034Y73051D01*
X94435D01*
X94420Y73792D01*
D02*
G37*
%LPD*%
D10*
X101625Y61200D02*
G03*
X101625Y61200I-125J0D01*
G01*
X57450Y66400D02*
G03*
X57450Y66400I-125J0D01*
G01*
X65325Y66500D02*
G03*
X65325Y66500I-125J0D01*
G01*
X72725Y69825D02*
G03*
X72725Y69825I-125J0D01*
G01*
D11*
X95750Y69250D02*
G03*
X95250Y69750I-500J-0D01*
G01*
X94750D02*
G03*
X94250Y69250I0J-500D01*
G01*
X94250Y67250D02*
G03*
X94750Y66750I500J0D01*
G01*
X95250Y66750D02*
G03*
X95750Y67250I0J500D01*
G01*
X79350Y78900D02*
G03*
X79350Y78900I-50J0D01*
G01*
X109500Y67250D02*
G03*
X109000Y66750I0J-500D01*
G01*
Y66250D02*
G03*
X109500Y65750I500J0D01*
G01*
X111500D02*
G03*
X112000Y66250I-0J500D01*
G01*
Y66750D02*
G03*
X111500Y67250I-500J0D01*
G01*
X90750Y64500D02*
G03*
X90250Y65000I-500J-0D01*
G01*
X89750D02*
G03*
X89250Y64500I0J-500D01*
G01*
X89250Y62500D02*
G03*
X89750Y62000I500J0D01*
G01*
X90250D02*
G03*
X90750Y62500I0J500D01*
G01*
X93250Y64750D02*
G03*
X92750Y65250I-500J0D01*
G01*
X91250D02*
G03*
X90750Y64750I0J-500D01*
G01*
X90750Y61250D02*
G03*
X91250Y60750I500J0D01*
G01*
X92750D02*
G03*
X93250Y61250I-0J500D01*
G01*
X95750Y64750D02*
G03*
X95250Y65250I-500J0D01*
G01*
X93750D02*
G03*
X93250Y64750I0J-500D01*
G01*
Y61250D02*
G03*
X93750Y60750I500J0D01*
G01*
X95250D02*
G03*
X95750Y61250I-0J500D01*
G01*
X109500Y62750D02*
G03*
X109000Y62250I0J-500D01*
G01*
Y61750D02*
G03*
X109500Y61250I500J0D01*
G01*
X111500Y61250D02*
G03*
X112000Y61750I-0J500D01*
G01*
Y62250D02*
G03*
X111500Y62750I-500J0D01*
G01*
X109500Y64250D02*
G03*
X109000Y63750I0J-500D01*
G01*
Y63250D02*
G03*
X109500Y62750I500J0D01*
G01*
X111500D02*
G03*
X112000Y63250I-0J500D01*
G01*
Y63750D02*
G03*
X111500Y64250I-500J0D01*
G01*
X109500Y65750D02*
G03*
X109000Y65250I0J-500D01*
G01*
X109000Y64750D02*
G03*
X109500Y64250I500J0D01*
G01*
X111500Y64250D02*
G03*
X112000Y64750I-0J500D01*
G01*
X112000Y65250D02*
G03*
X111500Y65750I-500J0D01*
G01*
X103000Y65250D02*
G03*
X102500Y64750I0J-500D01*
G01*
X102500Y64250D02*
G03*
X103000Y63750I500J0D01*
G01*
X105000Y63750D02*
G03*
X105500Y64250I-0J500D01*
G01*
X105500Y64750D02*
G03*
X105000Y65250I-500J0D01*
G01*
X103000Y63750D02*
G03*
X102500Y63250I0J-500D01*
G01*
Y62750D02*
G03*
X103000Y62250I500J0D01*
G01*
X105000Y62250D02*
G03*
X105500Y62750I-0J500D01*
G01*
Y63250D02*
G03*
X105000Y63750I-500J0D01*
G01*
X102000Y70700D02*
G03*
X101700Y71000I-300J0D01*
G01*
X101300Y71000D02*
G03*
X101000Y70700I0J-300D01*
G01*
X101000Y69300D02*
G03*
X101300Y69000I300J0D01*
G01*
X101700Y69000D02*
G03*
X102000Y69300I0J300D01*
G01*
X70250Y77100D02*
G03*
X70250Y77100I-50J0D01*
G01*
X64000Y58750D02*
G03*
X64500Y59250I-0J500D01*
G01*
X64500Y59750D02*
G03*
X64000Y60250I-500J0D01*
G01*
X62000Y60250D02*
G03*
X61500Y59750I0J-500D01*
G01*
Y59250D02*
G03*
X62000Y58750I500J0D01*
G01*
X63750Y71050D02*
G03*
X63250Y70550I0J-500D01*
G01*
X65750D02*
G03*
X65250Y71050I-500J0D01*
G01*
Y66550D02*
G03*
X65750Y67050I-0J500D01*
G01*
X63250Y67050D02*
G03*
X63750Y66550I500J-0D01*
G01*
X76800Y63150D02*
G03*
X76300Y63650I-500J0D01*
G01*
Y62150D02*
G03*
X76800Y62650I-0J500D01*
G01*
X73800D02*
G03*
X74300Y62150I500J-0D01*
G01*
Y63650D02*
G03*
X73800Y63150I0J-500D01*
G01*
X109500Y68000D02*
X109500Y78000D01*
X109500Y68000D02*
X115000Y68000D01*
X109500Y78000D02*
X115000D01*
X99775Y67700D02*
X100700D01*
Y67525D02*
Y67700D01*
X96300D02*
X97225D01*
X96300Y67525D02*
Y67700D01*
Y61300D02*
Y61475D01*
Y61300D02*
X97225Y61300D01*
X99775Y61300D02*
X100700D01*
X100700Y61475D01*
X63000Y68000D02*
Y78000D01*
X57500Y78000D02*
X63000Y78000D01*
X57500Y68000D02*
X63000D01*
X110100Y54050D02*
Y55525D01*
X102500D02*
X102500Y54050D01*
X110100Y59475D02*
Y60950D01*
X102500Y59475D02*
Y60950D01*
X102500Y54050D02*
X110100D01*
X102500Y60950D02*
X110100D01*
X94750Y69750D02*
X95250D01*
X95750Y67250D02*
Y69250D01*
X94250Y67250D02*
Y69250D01*
X94750Y66750D02*
X95250D01*
X114050Y65800D02*
X116950D01*
X114050D02*
Y67200D01*
X116950D01*
Y65800D02*
Y67200D01*
X79600Y77300D02*
X82400D01*
X79600Y78700D02*
X82400D01*
X79600Y77300D02*
Y78700D01*
X82400Y77300D02*
Y78700D01*
X109000Y66250D02*
Y66750D01*
X109500Y67250D02*
X111500Y67250D01*
X109500Y65750D02*
X111500D01*
X112000Y66250D02*
Y66750D01*
X89750Y65000D02*
X90250D01*
X90750Y62500D02*
Y64500D01*
X89250Y62500D02*
Y64500D01*
X89750Y62000D02*
X90250D01*
X91250Y60750D02*
X92750D01*
X91250Y65250D02*
X92750D01*
X93250Y61250D02*
Y64750D01*
X90750Y61250D02*
Y64750D01*
X93750Y60750D02*
X95250Y60750D01*
X93750Y65250D02*
X95250D01*
X95750Y61250D02*
Y64750D01*
X93250Y64750D02*
X93250Y61250D01*
X109000Y61750D02*
Y62250D01*
X109500Y62750D02*
X111500D01*
X109500Y61250D02*
X111500Y61250D01*
X112000Y61750D02*
Y62250D01*
X109000Y63250D02*
Y63750D01*
X109500Y64250D02*
X111500D01*
X109500Y62750D02*
X111500D01*
X112000Y63250D02*
Y63750D01*
X109000Y64750D02*
Y65250D01*
X109500Y65750D02*
X111500Y65750D01*
X109500Y64250D02*
X111500D01*
X112000Y64750D02*
Y65250D01*
X102550Y66800D02*
X105450D01*
X102550D02*
Y68200D01*
X105450D01*
Y66800D02*
Y68200D01*
X102550Y65300D02*
X105450D01*
X102550D02*
Y66700D01*
X105450D01*
Y65300D02*
Y66700D01*
X102500Y64250D02*
Y64750D01*
X103000Y65250D02*
X105000Y65250D01*
X103000Y63750D02*
X105000D01*
X105500Y64250D02*
Y64750D01*
X102500Y62750D02*
Y63250D01*
X103000Y63750D02*
X105000D01*
X103000Y62250D02*
X105000D01*
X105500Y62750D02*
Y63250D01*
X102550Y72700D02*
X105450D01*
Y71300D02*
Y72700D01*
X102550Y71300D02*
X105450Y71300D01*
X102550Y71300D02*
Y72700D01*
Y69800D02*
X105450D01*
X102550D02*
Y71200D01*
X105450D01*
Y69800D02*
Y71200D01*
X102550Y69700D02*
X105450D01*
Y68300D02*
Y69700D01*
X102550Y68300D02*
X105450D01*
X102550D02*
Y69700D01*
X102000Y69300D02*
Y70700D01*
X101300Y69000D02*
X101700D01*
X101000Y69300D02*
Y70700D01*
X101300Y71000D02*
X101700D01*
X67100Y78700D02*
X69900D01*
X67100Y77300D02*
X69900D01*
Y78700D01*
X67100Y77300D02*
Y78700D01*
X57800Y61250D02*
Y65750D01*
X54200Y61250D02*
Y65750D01*
X57575D02*
X57800D01*
X57575Y61250D02*
X57800Y61250D01*
X54200Y65750D02*
X54425D01*
X54200Y61250D02*
X54425D01*
X65300Y57600D02*
X71700D01*
X65300Y51200D02*
X71700D01*
X65300D02*
Y57600D01*
X71700Y51200D02*
Y57600D01*
X67150Y60950D02*
X70850D01*
X67150Y66050D02*
X70850D01*
Y60950D02*
Y66050D01*
X67150Y60950D02*
Y66050D01*
X73850Y60500D02*
X76750D01*
X73850D02*
Y61900D01*
X76750D01*
Y60500D02*
Y61900D01*
X64500Y59250D02*
Y59750D01*
X62000Y58750D02*
X64000D01*
X62000Y60250D02*
X64000D01*
X61500Y59250D02*
Y59750D01*
X61550Y60800D02*
Y62200D01*
Y60800D02*
X64450D01*
Y62200D01*
X61550D02*
X64450D01*
Y62800D02*
Y64200D01*
X61550D02*
X64450D01*
X61550Y62800D02*
Y64200D01*
Y62800D02*
X64450D01*
Y64750D02*
Y66150D01*
X61550D02*
X64450D01*
X61550Y64750D02*
Y66150D01*
Y64750D02*
X64450D01*
X77650Y52950D02*
Y61412D01*
Y52950D02*
X81425D01*
X84375D02*
X88150D01*
Y61412D01*
X79688Y63450D02*
X81425D01*
X77650Y61412D02*
X79688Y63450D01*
X86113D02*
X88150Y61412D01*
X84375Y63450D02*
X86113D01*
X65750Y67050D02*
Y70550D01*
X63250Y67050D02*
Y70550D01*
X63750Y66550D02*
X65250D01*
X63750Y71050D02*
X65250D01*
X66100Y66600D02*
Y70400D01*
Y66600D02*
X72100D01*
Y70400D01*
X66100D02*
X72100D01*
X77750Y66700D02*
Y66925D01*
X73250Y66700D02*
Y66925D01*
X77750Y70075D02*
Y70300D01*
X73250Y70075D02*
Y70300D01*
Y66700D02*
X77750D01*
X73250Y70300D02*
X77750D01*
X76800Y62650D02*
Y63150D01*
X74300Y62150D02*
X76300D01*
X74300Y63650D02*
X76300D01*
X73800Y62650D02*
Y63150D01*
D12*
X112125Y66375D02*
X113500Y65000D01*
Y65000D02*
Y65000D01*
Y62500D02*
X118250D01*
X113500Y60000D02*
X118250D01*
X113500Y57500D02*
X118250D01*
X113500Y55000D02*
Y65000D01*
Y55000D02*
X118250D01*
Y65000D01*
X113500D02*
X118250D01*
X92500Y66000D02*
X93250Y65250D01*
X89000Y66000D02*
Y68500D01*
X85500Y66000D02*
Y68500D01*
X82000Y66000D02*
Y68500D01*
Y66000D02*
X92500D01*
Y68500D01*
X82000D02*
X92500D01*
X106000Y77274D02*
X107016Y75750D01*
Y77274D02*
X106000Y75750D01*
X108539D02*
X107524D01*
X108539Y76766D01*
Y77020D01*
X108285Y77274D01*
X107777D01*
X107524Y77020D01*
X96000Y60524D02*
Y59000D01*
X96762D01*
X97016Y59254D01*
Y60270D01*
X96762Y60524D01*
X96000D01*
X97524D02*
Y59000D01*
X98285D01*
X98539Y59254D01*
Y60270D01*
X98285Y60524D01*
X97524D01*
X100063Y59000D02*
X99047D01*
X100063Y60016D01*
Y60270D01*
X99809Y60524D01*
X99301D01*
X99047Y60270D01*
X63500Y78024D02*
X64516Y76500D01*
Y78024D02*
X63500Y76500D01*
X65024D02*
X65531D01*
X65277D01*
Y78024D01*
X65024Y77770D01*
X99000Y55524D02*
Y54000D01*
X100016D01*
X100524D02*
X101031D01*
X100777D01*
Y55524D01*
X100524Y55270D01*
X91016Y70270D02*
X90762Y70524D01*
X90254D01*
X90000Y70270D01*
Y69254D01*
X90254Y69000D01*
X90762D01*
X91016Y69254D01*
X91524Y69000D02*
X92031D01*
X91777D01*
Y70524D01*
X91524Y70270D01*
X92793D02*
X93047Y70524D01*
X93555D01*
X93809Y70270D01*
Y69254D01*
X93555Y69000D01*
X93047D01*
X92793Y69254D01*
Y70270D01*
X117500Y65500D02*
Y67024D01*
X118262D01*
X118516Y66770D01*
Y66262D01*
X118262Y66008D01*
X117500D01*
X118008D02*
X118516Y65500D01*
X119024D02*
X119531D01*
X119277D01*
Y67024D01*
X119024Y66770D01*
X120293Y65500D02*
X120801D01*
X120547D01*
Y67024D01*
X120293Y66770D01*
X78000Y77024D02*
Y75500D01*
Y76262D01*
X79016D01*
Y77024D01*
Y75500D01*
X79524Y77024D02*
Y75500D01*
X80539D01*
X82063D02*
X81047D01*
X82063Y76516D01*
Y76770D01*
X81809Y77024D01*
X81301D01*
X81047Y76770D01*
X115016Y64270D02*
X114762Y64524D01*
X114254D01*
X114000Y64270D01*
Y63254D01*
X114254Y63000D01*
X114762D01*
X115016Y63254D01*
X115524Y63000D02*
X116031D01*
X115777D01*
Y64524D01*
X115524Y64270D01*
X117809Y63000D02*
X116793D01*
X117809Y64016D01*
Y64270D01*
X117555Y64524D01*
X117047D01*
X116793Y64270D01*
X83516Y67770D02*
X83262Y68024D01*
X82754D01*
X82500Y67770D01*
Y66754D01*
X82754Y66500D01*
X83262D01*
X83516Y66754D01*
X85039Y68024D02*
X84024D01*
Y67262D01*
X84531Y67516D01*
X84785D01*
X85039Y67262D01*
Y66754D01*
X84785Y66500D01*
X84277D01*
X84024Y66754D01*
X87016Y67770D02*
X86762Y68024D01*
X86254D01*
X86000Y67770D01*
Y66754D01*
X86254Y66500D01*
X86762D01*
X87016Y66754D01*
X88285Y66500D02*
Y68024D01*
X87524Y67262D01*
X88539D01*
X90516Y67770D02*
X90262Y68024D01*
X89754D01*
X89500Y67770D01*
Y66754D01*
X89754Y66500D01*
X90262D01*
X90516Y66754D01*
X91024Y67770D02*
X91277Y68024D01*
X91785D01*
X92039Y67770D01*
Y67516D01*
X91785Y67262D01*
X91531D01*
X91785D01*
X92039Y67008D01*
Y66754D01*
X91785Y66500D01*
X91277D01*
X91024Y66754D01*
X115016Y56770D02*
X114762Y57024D01*
X114254D01*
X114000Y56770D01*
Y55754D01*
X114254Y55500D01*
X114762D01*
X115016Y55754D01*
X115524Y55500D02*
X116031D01*
X115777D01*
Y57024D01*
X115524Y56770D01*
X117809Y57024D02*
X116793D01*
Y56262D01*
X117301Y56516D01*
X117555D01*
X117809Y56262D01*
Y55754D01*
X117555Y55500D01*
X117047D01*
X116793Y55754D01*
X115016Y59270D02*
X114762Y59524D01*
X114254D01*
X114000Y59270D01*
Y58254D01*
X114254Y58000D01*
X114762D01*
X115016Y58254D01*
X115524Y58000D02*
X116031D01*
X115777D01*
Y59524D01*
X115524Y59270D01*
X117555Y58000D02*
Y59524D01*
X116793Y58762D01*
X117809D01*
X115016Y61770D02*
X114762Y62024D01*
X114254D01*
X114000Y61770D01*
Y60754D01*
X114254Y60500D01*
X114762D01*
X115016Y60754D01*
X115524Y60500D02*
X116031D01*
X115777D01*
Y62024D01*
X115524Y61770D01*
X116793D02*
X117047Y62024D01*
X117555D01*
X117809Y61770D01*
Y61516D01*
X117555Y61262D01*
X117301D01*
X117555D01*
X117809Y61008D01*
Y60754D01*
X117555Y60500D01*
X117047D01*
X116793Y60754D01*
X106000Y67500D02*
Y69024D01*
X106762D01*
X107016Y68770D01*
Y68262D01*
X106762Y68008D01*
X106000D01*
X106508D02*
X107016Y67500D01*
X108285D02*
Y69024D01*
X107524Y68262D01*
X108539D01*
X106000Y65500D02*
Y67024D01*
X106762D01*
X107016Y66770D01*
Y66262D01*
X106762Y66008D01*
X106000D01*
X106508D02*
X107016Y65500D01*
X108539Y67024D02*
X107524D01*
Y66262D01*
X108031Y66516D01*
X108285D01*
X108539Y66262D01*
Y65754D01*
X108285Y65500D01*
X107777D01*
X107524Y65754D01*
X107016Y64770D02*
X106762Y65024D01*
X106254D01*
X106000Y64770D01*
Y63754D01*
X106254Y63500D01*
X106762D01*
X107016Y63754D01*
X107524Y64770D02*
X107777Y65024D01*
X108285D01*
X108539Y64770D01*
Y64516D01*
X108285Y64262D01*
X108539Y64008D01*
Y63754D01*
X108285Y63500D01*
X107777D01*
X107524Y63754D01*
Y64008D01*
X107777Y64262D01*
X107524Y64516D01*
Y64770D01*
X107777Y64262D02*
X108285D01*
X107016Y62770D02*
X106762Y63024D01*
X106254D01*
X106000Y62770D01*
Y61754D01*
X106254Y61500D01*
X106762D01*
X107016Y61754D01*
X107524D02*
X107777Y61500D01*
X108285D01*
X108539Y61754D01*
Y62770D01*
X108285Y63024D01*
X107777D01*
X107524Y62770D01*
Y62516D01*
X107777Y62262D01*
X108539D01*
X106000Y73500D02*
Y75024D01*
X106762D01*
X107016Y74770D01*
Y74262D01*
X106762Y74008D01*
X106000D01*
X106508D02*
X107016Y73500D01*
X107524Y73754D02*
X107777Y73500D01*
X108285D01*
X108539Y73754D01*
Y74770D01*
X108285Y75024D01*
X107777D01*
X107524Y74770D01*
Y74516D01*
X107777Y74262D01*
X108539D01*
X106000Y71500D02*
Y73024D01*
X106762D01*
X107016Y72770D01*
Y72262D01*
X106762Y72008D01*
X106000D01*
X106508D02*
X107016Y71500D01*
X107524Y72770D02*
X107777Y73024D01*
X108285D01*
X108539Y72770D01*
Y72516D01*
X108285Y72262D01*
X108539Y72008D01*
Y71754D01*
X108285Y71500D01*
X107777D01*
X107524Y71754D01*
Y72008D01*
X107777Y72262D01*
X107524Y72516D01*
Y72770D01*
X107777Y72262D02*
X108285D01*
X106000Y69500D02*
Y71024D01*
X106762D01*
X107016Y70770D01*
Y70262D01*
X106762Y70008D01*
X106000D01*
X106508D02*
X107016Y69500D01*
X107524Y71024D02*
X108539D01*
Y70770D01*
X107524Y69754D01*
Y69500D01*
X99516Y72770D02*
X99262Y73024D01*
X98754D01*
X98500Y72770D01*
Y71754D01*
X98754Y71500D01*
X99262D01*
X99516Y71754D01*
X100024Y71500D02*
X100531D01*
X100277D01*
Y73024D01*
X100024Y72770D01*
X101293Y71500D02*
X101801D01*
X101547D01*
Y73024D01*
X101293Y72770D01*
X72592Y72906D02*
Y71891D01*
X73100Y71383D01*
X73607Y71891D01*
Y72906D01*
X74115D02*
Y71383D01*
X74877D01*
X75131Y71637D01*
Y72652D01*
X74877Y72906D01*
X74115D01*
X76654Y71383D02*
X75639D01*
X76654Y72399D01*
Y72652D01*
X76400Y72906D01*
X75893D01*
X75639Y72652D01*
X52076Y62700D02*
X53092D01*
X53600Y63208D01*
X53092Y63716D01*
X52076D01*
Y64224D02*
X53600D01*
Y64985D01*
X53346Y65239D01*
X52330D01*
X52076Y64985D01*
Y64224D01*
X53600Y65747D02*
Y66255D01*
Y66001D01*
X52076D01*
X52330Y65747D01*
X60916Y57670D02*
X60662Y57924D01*
X60154D01*
X59900Y57670D01*
Y57416D01*
X60154Y57162D01*
X60662D01*
X60916Y56908D01*
Y56654D01*
X60662Y56400D01*
X60154D01*
X59900Y56654D01*
X61424Y56400D02*
X61931D01*
X61677D01*
Y57924D01*
X61424Y57670D01*
X66243Y71256D02*
Y72779D01*
X67004D01*
X67258Y72525D01*
Y72018D01*
X67004Y71764D01*
X66243D01*
X66750D02*
X67258Y71256D01*
X67766D02*
X68274D01*
X68020D01*
Y72779D01*
X67766Y72525D01*
X69036D02*
X69290Y72779D01*
X69797D01*
X70051Y72525D01*
Y71510D01*
X69797Y71256D01*
X69290D01*
X69036Y71510D01*
Y72525D01*
X74000Y58500D02*
Y60024D01*
X74762D01*
X75016Y59770D01*
Y59262D01*
X74762Y59008D01*
X74000D01*
X74508D02*
X75016Y58500D01*
X76539Y60024D02*
X76031Y59770D01*
X75524Y59262D01*
Y58754D01*
X75777Y58500D01*
X76285D01*
X76539Y58754D01*
Y59008D01*
X76285Y59262D01*
X75524D01*
X58500Y60500D02*
Y62024D01*
X59262D01*
X59516Y61770D01*
Y61262D01*
X59262Y61008D01*
X58500D01*
X59008D02*
X59516Y60500D01*
X60024Y61770D02*
X60277Y62024D01*
X60785D01*
X61039Y61770D01*
Y61516D01*
X60785Y61262D01*
X60531D01*
X60785D01*
X61039Y61008D01*
Y60754D01*
X60785Y60500D01*
X60277D01*
X60024Y60754D01*
X58500Y62500D02*
Y64024D01*
X59262D01*
X59516Y63770D01*
Y63262D01*
X59262Y63008D01*
X58500D01*
X59008D02*
X59516Y62500D01*
X61039D02*
X60024D01*
X61039Y63516D01*
Y63770D01*
X60785Y64024D01*
X60277D01*
X60024Y63770D01*
X58500Y64500D02*
Y66024D01*
X59262D01*
X59516Y65770D01*
Y65262D01*
X59262Y65008D01*
X58500D01*
X59008D02*
X59516Y64500D01*
X60024D02*
X60531D01*
X60277D01*
Y66024D01*
X60024Y65770D01*
X67500Y77024D02*
Y75500D01*
Y76262D01*
X68516D01*
Y77024D01*
Y75500D01*
X69023Y77024D02*
Y75500D01*
X70039D01*
X70547D02*
X71055D01*
X70801D01*
Y77024D01*
X70547Y76770D01*
X65500Y60424D02*
Y58900D01*
X66262D01*
X66516Y59154D01*
Y60170D01*
X66262Y60424D01*
X65500D01*
X67024D02*
Y58900D01*
X67785D01*
X68039Y59154D01*
Y60170D01*
X67785Y60424D01*
X67024D01*
X68547Y58900D02*
X69055D01*
X68801D01*
Y60424D01*
X68547Y60170D01*
X79766Y67770D02*
X79512Y68024D01*
X79004D01*
X78750Y67770D01*
Y66754D01*
X79004Y66500D01*
X79512D01*
X79766Y66754D01*
X80274Y68024D02*
X81289D01*
Y67770D01*
X80274Y66754D01*
Y66500D01*
X59516Y59770D02*
X59262Y60024D01*
X58754D01*
X58500Y59770D01*
Y58754D01*
X58754Y58500D01*
X59262D01*
X59516Y58754D01*
X61039Y60024D02*
X60531Y59770D01*
X60024Y59262D01*
Y58754D01*
X60277Y58500D01*
X60785D01*
X61039Y58754D01*
Y59008D01*
X60785Y59262D01*
X60024D01*
X74982Y65782D02*
X74728Y66036D01*
X74220D01*
X73966Y65782D01*
Y64767D01*
X74220Y64513D01*
X74728D01*
X74982Y64767D01*
X76506Y64513D02*
X75490D01*
X76506Y65529D01*
Y65782D01*
X76252Y66036D01*
X75744D01*
X75490Y65782D01*
X64413Y73179D02*
X64159Y73433D01*
X63651D01*
X63397Y73179D01*
Y72164D01*
X63651Y71910D01*
X64159D01*
X64413Y72164D01*
X64921Y71910D02*
X65428D01*
X65174D01*
Y73433D01*
X64921Y73179D01*
M02*
