M48
;Layer_Color=9474304
;FILE_FORMAT=4:3
METRIC,LZ
;TYPE=PLATED
T1F00S00C0.300
T2F00S00C1.400
%
T01
X012Y0052
Y0054
Y0056
Y0058
Y006
Y0062
Y0064
Y0066
X0118Y0064
Y0062
Y006
Y0058
Y0056
Y0054
Y0052
X0116
Y0054
X0114Y0052
X0112
X011
X0108
X0106
Y0054
X0104
Y0052
X0102
Y0054
X01
Y0052
X0098
Y0054
Y0056
Y0058
Y006
X0096
X0095Y006
X0094Y006
X0093Y006
X0092Y006
X0091Y006
X009Y006
X009Y00615
X0088Y0062
Y006
Y0058
X009
X0092
X0094
X0096
Y0056
Y0054
Y0052
X0094
Y0054
Y0056
X0092
Y0054
Y0052
X009
Y0054
Y0056
X0088
Y0054
Y0052
X0086
Y0054
Y0056
Y0058
Y006
X0084Y0058
X0082
X008
Y0056
Y0054
Y0052
Y0068
X0082
X0084
X0086
X0088
X009
X0092
Y007
X009
Y0072
X0088
Y0074
X0086
Y0076
X0084
Y0074
Y0072
X0086
Y007
X0088
X0084
X0082
Y0072
Y0074
Y0076
X008
Y0074
Y0072
Y007
X0095Y00705
X0096Y0072
X0098
X01
X01015Y00715
X01Y007
Y0074
X0102
X0104
X0106
X0108
X011
X0108Y0076
X0106
X0104
X0102
X01
X0098
Y0074
X0096
Y0076
X0094
Y0074
X0092Y0076
X0095Y00675
X0095Y006675
X0098Y006625
Y006525
Y00645
Y006375
Y006275
X0099
Y006375
Y00645
Y006525
Y006625
X01017Y00659
X0106Y0066
X01065Y00675
X0106Y0069
X0108Y0068
X01085Y006675
Y0066
Y006525
Y00645
Y006375
Y0063
Y006225
Y00615
X0106Y0062
Y006
X01065Y00645
X011Y0068
X0108Y007
Y0072
X0106
X01145Y0065
X00775Y0064
Y00625
Y0061
Y00595
X0076
X00745
X00715Y0059
X007
Y00605
Y00615
X0069
X0068
X00685Y00605
Y0059
X0067
Y00605
X00655
Y0059
X0066Y0054
X0068
X007
X0072
X0074
X0076
X0078
Y0056
X0076
Y0052
X0078
X007
X0068
X0066
X0064Y0054
X0062
Y0056
X006
Y0054
Y0052
X0062
X0058
Y0054
Y0056
Y0058
Y006
Y0062
Y0064
X006Y00635
Y00625
Y00615
Y00605
Y00595
X0056Y006
Y0058
Y0056
Y0054
Y0052
X0054
Y0054
Y0056
Y0058
Y006
Y0062
Y0064
X0052
Y0066
Y0068
Y007
Y0072
Y0074
Y0076
X0064
X0066
X0068
X0067675Y0077175
X007Y0076
X0072
X0074
X0076
X0078
Y0074
Y0072
Y007
X0076
Y0072
Y0074
X0074
Y0072
X0072
Y0074
X007
Y0072
Y007
Y0068
X0068
Y007
Y0072
X0066925Y0071425
X0066Y0072
Y0074
X0068
X0064
Y0072
X0068Y00655
X0069
X007
X00697Y00642
Y00628
X00683
X0069Y00635
X00683Y00642
X00735Y0064
X00745
X0076
X0052Y0062
Y006
Y0058
Y0056
Y0054
Y0052
T02
X01116Y007105
X01116Y007525
X01171
X01171Y007105
X00609Y007075
Y007495
X00554
X00554Y007075
M30
