G04*
G04 #@! TF.GenerationSoftware,Altium Limited,Altium Designer,19.1.6 (110)*
G04*
G04 Layer_Physical_Order=1*
G04 Layer_Color=255*
%FSLAX43Y43*%
%MOMM*%
G71*
G01*
G75*
%ADD11C,0.200*%
%ADD12C,0.254*%
%ADD33R,2.200X4.600*%
%ADD34O,0.250X0.700*%
%ADD35O,0.700X0.250*%
%ADD36R,3.200X3.150*%
G04:AMPARAMS|DCode=37|XSize=0.9mm|YSize=0.8mm|CornerRadius=0.2mm|HoleSize=0mm|Usage=FLASHONLY|Rotation=0.000|XOffset=0mm|YOffset=0mm|HoleType=Round|Shape=RoundedRectangle|*
%AMROUNDEDRECTD37*
21,1,0.900,0.400,0,0,0.0*
21,1,0.500,0.800,0,0,0.0*
1,1,0.400,0.250,-0.200*
1,1,0.400,-0.250,-0.200*
1,1,0.400,-0.250,0.200*
1,1,0.400,0.250,0.200*
%
%ADD37ROUNDEDRECTD37*%
%ADD38R,0.850X0.900*%
%ADD39R,0.800X0.950*%
G04:AMPARAMS|DCode=40|XSize=0.9mm|YSize=0.8mm|CornerRadius=0.2mm|HoleSize=0mm|Usage=FLASHONLY|Rotation=90.000|XOffset=0mm|YOffset=0mm|HoleType=Round|Shape=RoundedRectangle|*
%AMROUNDEDRECTD40*
21,1,0.900,0.400,0,0,90.0*
21,1,0.500,0.800,0,0,90.0*
1,1,0.400,0.200,0.250*
1,1,0.400,0.200,-0.250*
1,1,0.400,-0.200,-0.250*
1,1,0.400,-0.200,0.250*
%
%ADD40ROUNDEDRECTD40*%
G04:AMPARAMS|DCode=41|XSize=1.8mm|YSize=1mm|CornerRadius=0.25mm|HoleSize=0mm|Usage=FLASHONLY|Rotation=0.000|XOffset=0mm|YOffset=0mm|HoleType=Round|Shape=RoundedRectangle|*
%AMROUNDEDRECTD41*
21,1,1.800,0.500,0,0,0.0*
21,1,1.300,1.000,0,0,0.0*
1,1,0.500,0.650,-0.250*
1,1,0.500,-0.650,-0.250*
1,1,0.500,-0.650,0.250*
1,1,0.500,0.650,0.250*
%
%ADD41ROUNDEDRECTD41*%
G04:AMPARAMS|DCode=42|XSize=0.5mm|YSize=0.5mm|CornerRadius=0.125mm|HoleSize=0mm|Usage=FLASHONLY|Rotation=180.000|XOffset=0mm|YOffset=0mm|HoleType=Round|Shape=RoundedRectangle|*
%AMROUNDEDRECTD42*
21,1,0.500,0.250,0,0,180.0*
21,1,0.250,0.500,0,0,180.0*
1,1,0.250,-0.125,0.125*
1,1,0.250,0.125,0.125*
1,1,0.250,0.125,-0.125*
1,1,0.250,-0.125,-0.125*
%
%ADD42ROUNDEDRECTD42*%
%ADD43R,1.800X1.700*%
G04:AMPARAMS|DCode=44|XSize=2.1mm|YSize=1.4mm|CornerRadius=0.35mm|HoleSize=0mm|Usage=FLASHONLY|Rotation=0.000|XOffset=0mm|YOffset=0mm|HoleType=Round|Shape=RoundedRectangle|*
%AMROUNDEDRECTD44*
21,1,2.100,0.700,0,0,0.0*
21,1,1.400,1.400,0,0,0.0*
1,1,0.700,0.700,-0.350*
1,1,0.700,-0.700,-0.350*
1,1,0.700,-0.700,0.350*
1,1,0.700,0.700,0.350*
%
%ADD44ROUNDEDRECTD44*%
%ADD45R,2.660X2.460*%
%ADD46O,1.400X0.450*%
%ADD47R,1.400X0.450*%
%ADD48R,2.350X5.450*%
%ADD49R,1.050X3.200*%
%ADD50R,1.700X1.800*%
%ADD51C,0.300*%
%ADD52C,0.500*%
%ADD53C,2.500*%
%ADD54R,2.500X2.500*%
%ADD55C,0.600*%
G36*
X122245Y50255D02*
X50255D01*
Y78745D01*
X122245D01*
Y50255D01*
D02*
G37*
%LPC*%
G36*
X80775Y78675D02*
X80440D01*
Y78265D01*
X80775D01*
Y78675D01*
D02*
G37*
G36*
X79910D02*
X79575D01*
Y78265D01*
X79910D01*
Y78675D01*
D02*
G37*
G36*
X69925D02*
X69590D01*
Y78265D01*
X69925D01*
Y78675D01*
D02*
G37*
G36*
X69060D02*
X68725D01*
Y78265D01*
X69060D01*
Y78675D01*
D02*
G37*
G36*
X80775Y77735D02*
X80440D01*
Y77325D01*
X80775D01*
Y77735D01*
D02*
G37*
G36*
X79910D02*
X79575D01*
Y77325D01*
X79910D01*
Y77735D01*
D02*
G37*
G36*
X69925Y77735D02*
X69590D01*
Y77325D01*
X69925D01*
Y77735D01*
D02*
G37*
G36*
X69060D02*
X68725D01*
Y77325D01*
X69060D01*
Y77735D01*
D02*
G37*
G36*
X68329Y78729D02*
X67021D01*
Y77271D01*
X67129D01*
X67110Y77175D01*
X67153Y76959D01*
X67276Y76776D01*
X67459Y76653D01*
X67675Y76610D01*
X67891Y76653D01*
X68074Y76776D01*
X68197Y76959D01*
X68240Y77175D01*
X68221Y77271D01*
X68329D01*
Y78729D01*
D02*
G37*
G36*
X112200Y76687D02*
Y75850D01*
X113037D01*
X112895Y76115D01*
X112701Y76351D01*
X112465Y76545D01*
X112200Y76687D01*
D02*
G37*
G36*
X111000Y76687D02*
X110735Y76545D01*
X110499Y76351D01*
X110305Y76115D01*
X110163Y75850D01*
X111000D01*
Y76687D01*
D02*
G37*
G36*
X62450Y76500D02*
X61500D01*
Y75550D01*
X62450D01*
Y76500D01*
D02*
G37*
G36*
X60300D02*
X59350D01*
Y75550D01*
X60300D01*
Y76500D01*
D02*
G37*
G36*
X113037Y74650D02*
X112200D01*
Y73813D01*
X112465Y73955D01*
X112701Y74149D01*
X112895Y74385D01*
X113037Y74650D01*
D02*
G37*
G36*
X111000D02*
X110163D01*
X110305Y74385D01*
X110499Y74149D01*
X110735Y73955D01*
X111000Y73813D01*
Y74650D01*
D02*
G37*
G36*
X62450Y74350D02*
X61500D01*
Y73400D01*
X62450D01*
Y74350D01*
D02*
G37*
G36*
X60300D02*
X59350D01*
Y73400D01*
X60300D01*
Y74350D01*
D02*
G37*
G36*
X103850Y72650D02*
X103525D01*
Y72300D01*
X103850D01*
Y72650D01*
D02*
G37*
G36*
X102925D02*
X102600D01*
Y72300D01*
X102925D01*
Y72650D01*
D02*
G37*
G36*
X113150Y72600D02*
X112200D01*
Y71650D01*
X113150D01*
Y72600D01*
D02*
G37*
G36*
X111000D02*
X110050D01*
Y71650D01*
X111000D01*
Y72600D01*
D02*
G37*
G36*
X61500Y72187D02*
Y71350D01*
X62337D01*
X62195Y71615D01*
X62001Y71851D01*
X61765Y72045D01*
X61500Y72187D01*
D02*
G37*
G36*
X103850Y71700D02*
X103525D01*
Y71350D01*
X103850D01*
Y71700D01*
D02*
G37*
G36*
X102925D02*
X102600D01*
Y71350D01*
X102925D01*
Y71700D01*
D02*
G37*
G36*
X60300Y72187D02*
X60035Y72045D01*
X59799Y71851D01*
X59605Y71615D01*
X59463Y71350D01*
X60300D01*
Y72187D01*
D02*
G37*
G36*
X65150Y71009D02*
X64800D01*
Y70600D01*
X65599D01*
X65574Y70726D01*
X65474Y70874D01*
X65326Y70974D01*
X65150Y71009D01*
D02*
G37*
G36*
X64200D02*
X63850D01*
X63674Y70974D01*
X63526Y70874D01*
X63426Y70726D01*
X63401Y70600D01*
X64200D01*
Y71009D01*
D02*
G37*
G36*
X65599Y70000D02*
X64800D01*
Y69591D01*
X65150D01*
X65326Y69626D01*
X65474Y69726D01*
X65574Y69874D01*
X65599Y70000D01*
D02*
G37*
G36*
X64200D02*
X63401D01*
X63426Y69874D01*
X63526Y69726D01*
X63674Y69626D01*
X63850Y69591D01*
X64200D01*
Y70000D01*
D02*
G37*
G36*
X113150Y70450D02*
X112200D01*
Y69500D01*
X113150D01*
Y70450D01*
D02*
G37*
G36*
X111000D02*
X110050D01*
Y69500D01*
X111000D01*
Y70450D01*
D02*
G37*
G36*
X60300Y70150D02*
X59463D01*
X59605Y69885D01*
X59799Y69649D01*
X60035Y69455D01*
X60300Y69313D01*
Y70150D01*
D02*
G37*
G36*
X62337D02*
X61500D01*
Y69313D01*
X61765Y69455D01*
X62001Y69649D01*
X62195Y69885D01*
X62337Y70150D01*
D02*
G37*
G36*
X78250Y69600D02*
X77800D01*
Y69100D01*
X78250D01*
Y69600D01*
D02*
G37*
G36*
X76600D02*
X76150D01*
Y69100D01*
X76600D01*
Y69600D01*
D02*
G37*
G36*
X82479Y78729D02*
X81171D01*
Y77271D01*
X82479D01*
Y77588D01*
X114009D01*
X113991Y77500D01*
Y69607D01*
X112393Y68009D01*
X111000D01*
X110901Y67989D01*
X110817Y67933D01*
X110317Y67433D01*
X110261Y67349D01*
X110241Y67250D01*
Y67034D01*
X110238Y67038D01*
X110106Y67127D01*
X110015Y67145D01*
Y66500D01*
Y65855D01*
X110106Y65873D01*
X110238Y65962D01*
X110241Y65966D01*
Y65534D01*
X110238Y65538D01*
X110106Y65627D01*
X110015Y65645D01*
Y65000D01*
Y64355D01*
X110106Y64373D01*
X110238Y64462D01*
X110241Y64466D01*
Y64034D01*
X110238Y64038D01*
X110106Y64127D01*
X110015Y64145D01*
Y63500D01*
Y62855D01*
X110106Y62873D01*
X110238Y62962D01*
X110241Y62966D01*
Y62534D01*
X110238Y62538D01*
X110106Y62627D01*
X110015Y62645D01*
Y62000D01*
Y61355D01*
X110106Y61373D01*
X110238Y61462D01*
X110241Y61466D01*
Y61009D01*
X107500D01*
X107401Y60989D01*
X107317Y60933D01*
X106067Y59683D01*
X106011Y59599D01*
X106000Y59545D01*
X105989Y59599D01*
X105933Y59683D01*
X104259Y61357D01*
Y62399D01*
X104373Y62323D01*
X104550Y62287D01*
X104950D01*
X105127Y62323D01*
X105277Y62423D01*
X105378Y62573D01*
X105413Y62750D01*
Y63250D01*
X105378Y63427D01*
X105277Y63577D01*
X105127Y63678D01*
X104950Y63713D01*
X104598D01*
X104448Y63863D01*
X104485Y63855D01*
Y64235D01*
X104145D01*
X104168Y64122D01*
X104113Y64158D01*
X103975Y64186D01*
X103900D01*
X103913Y64250D01*
Y64750D01*
X103878Y64927D01*
X103777Y65077D01*
X103627Y65178D01*
X103450Y65213D01*
X103050D01*
X102873Y65178D01*
X102723Y65077D01*
X102622Y64927D01*
X102609Y64861D01*
X102150D01*
X101669Y65341D01*
X101700Y65335D01*
X101916Y65378D01*
X102099Y65501D01*
X102210Y65665D01*
X102342Y65639D01*
X102546D01*
Y65296D01*
X103904D01*
Y66313D01*
X104096Y66121D01*
Y65296D01*
X105454D01*
Y66704D01*
X104679D01*
X104533Y66850D01*
X105400D01*
Y67200D01*
X104775D01*
Y67500D01*
X104475D01*
Y68150D01*
X104161D01*
X104163Y68151D01*
X104172Y68162D01*
X104183Y68169D01*
X104204Y68200D01*
X104228Y68229D01*
X104232Y68242D01*
X104239Y68253D01*
X104247Y68290D01*
X104248Y68296D01*
X105454D01*
Y68588D01*
X105619D01*
X105784Y68478D01*
X106000Y68435D01*
X106216Y68478D01*
X106399Y68601D01*
X106522Y68784D01*
X106565Y69000D01*
X106522Y69216D01*
X106399Y69399D01*
X106216Y69522D01*
X106000Y69565D01*
X105784Y69522D01*
X105619Y69412D01*
X105454D01*
Y69704D01*
X104259D01*
Y69796D01*
X105454D01*
Y71204D01*
X105289D01*
Y71296D01*
X105454D01*
Y72704D01*
X104096D01*
Y71296D01*
X104261D01*
Y71204D01*
X104152D01*
X104099Y71239D01*
X104000Y71259D01*
X103850D01*
X103751Y71239D01*
X103698Y71204D01*
X102604D01*
X102548Y71221D01*
X102510Y71225D01*
X102473Y71232D01*
X102460Y71229D01*
X102447Y71231D01*
X102411Y71220D01*
X102374Y71212D01*
X102363Y71205D01*
X102350Y71201D01*
X102321Y71177D01*
X102290Y71156D01*
X101952Y70818D01*
X101912Y70878D01*
Y71119D01*
X102022Y71284D01*
X102065Y71500D01*
X102022Y71716D01*
X101899Y71899D01*
X101716Y72022D01*
X101500Y72065D01*
X101284Y72022D01*
X101101Y71899D01*
X100978Y71716D01*
X100935Y71500D01*
X100978Y71284D01*
X101088Y71119D01*
Y70878D01*
X101018Y70773D01*
X100989Y70625D01*
Y70375D01*
X100993Y70352D01*
X100985Y70344D01*
X100971Y70336D01*
X100965Y70329D01*
X100958Y70324D01*
X98930Y68296D01*
X98920Y68282D01*
X98907Y68270D01*
X98892Y68240D01*
X98873Y68212D01*
X98870Y68195D01*
X98863Y68180D01*
X98860Y68146D01*
X98854Y68113D01*
X98857Y68096D01*
X98856Y68079D01*
X98860Y68051D01*
D01*
D01*
X98860Y68050D01*
X98876Y68003D01*
X98891Y67958D01*
Y67947D01*
X98877Y67956D01*
X98850Y67961D01*
Y67425D01*
X98650D01*
Y67961D01*
X98623Y67956D01*
X98516Y67884D01*
X98500Y67861D01*
X98484Y67884D01*
X98377Y67956D01*
X98350Y67961D01*
Y67425D01*
X98150D01*
Y67961D01*
X98123Y67956D01*
X98016Y67884D01*
X98000Y67861D01*
X97984Y67884D01*
X97877Y67956D01*
X97850Y67961D01*
Y67425D01*
X97750D01*
Y67325D01*
X97419D01*
Y67200D01*
X97444Y67073D01*
X97493Y67000D01*
X97286D01*
X97257Y67148D01*
X97173Y67273D01*
X97048Y67357D01*
X96900Y67386D01*
X96828D01*
X96809Y67480D01*
X96725Y67606D01*
X96068Y68263D01*
X95942Y68347D01*
X95793Y68377D01*
X95434D01*
X95577Y68473D01*
X95677Y68623D01*
X95713Y68800D01*
Y69200D01*
X95677Y69377D01*
X95577Y69527D01*
X95427Y69628D01*
X95412Y69631D01*
Y70119D01*
X95522Y70284D01*
X95565Y70500D01*
X95522Y70716D01*
X95399Y70899D01*
X95216Y71022D01*
X95000Y71065D01*
X94784Y71022D01*
X94601Y70899D01*
X94478Y70716D01*
X94435Y70500D01*
X94478Y70284D01*
X94588Y70119D01*
Y69631D01*
X94573Y69628D01*
X94423Y69527D01*
X94322Y69377D01*
X94287Y69200D01*
Y68800D01*
X94322Y68623D01*
X94423Y68473D01*
X94573Y68372D01*
X94584Y68370D01*
X94470Y68347D01*
X94344Y68263D01*
X93908Y67827D01*
X93828D01*
X93679Y67797D01*
X93553Y67713D01*
X93469Y67587D01*
X93454Y67509D01*
X78250D01*
Y67900D01*
X77200D01*
Y68500D01*
D01*
Y67900D01*
X76150D01*
Y67509D01*
X75259D01*
Y70500D01*
X75239Y70599D01*
X75183Y70683D01*
X75099Y70739D01*
X75000Y70759D01*
X70571D01*
X70524Y70750D01*
X70477Y70741D01*
X70475Y70740D01*
X70472Y70739D01*
X70432Y70713D01*
X70392Y70687D01*
X70390Y70685D01*
X70388Y70683D01*
X70362Y70643D01*
X70334Y70604D01*
X70300Y70526D01*
X70295Y70505D01*
X70286Y70486D01*
X70284Y70456D01*
X70278Y70427D01*
X70282Y70406D01*
X70281Y70385D01*
X70291Y70357D01*
X70296Y70327D01*
X70307Y70310D01*
X70314Y70290D01*
X70386Y70168D01*
X70408Y70144D01*
X70426Y70117D01*
X70441Y70107D01*
X70454Y70093D01*
X70483Y70079D01*
X70496Y70070D01*
Y66828D01*
X70477Y66799D01*
X70477Y66799D01*
X70428Y66682D01*
X70428Y66682D01*
X70415Y66616D01*
X70408Y66583D01*
Y66583D01*
Y66583D01*
X70415Y66550D01*
X70428Y66484D01*
X70484Y66400D01*
X70484D01*
Y66400D01*
X70741Y66143D01*
Y66090D01*
X70739Y66099D01*
X70683Y66183D01*
X70599Y66239D01*
X70500Y66259D01*
X67500D01*
X67401Y66239D01*
X67317Y66183D01*
X67261Y66099D01*
X67241Y66000D01*
Y64930D01*
X67261Y64831D01*
X67317Y64747D01*
X67320Y64745D01*
X66941Y64714D01*
X66884Y64800D01*
X66976Y64938D01*
X67013Y65125D01*
X66979Y65296D01*
X67004D01*
Y65951D01*
X67038Y65956D01*
X67043Y65960D01*
X67049Y65961D01*
X67086Y65985D01*
X67124Y66008D01*
X67128Y66013D01*
X67133Y66017D01*
X67158Y66054D01*
X67184Y66090D01*
X67234Y66196D01*
X67236Y66202D01*
X67239Y66207D01*
X67248Y66251D01*
X67259Y66294D01*
X67258Y66300D01*
X67259Y66306D01*
Y66410D01*
X67239Y66509D01*
X67183Y66593D01*
X67130Y66646D01*
X67704D01*
Y70354D01*
X67337D01*
Y71044D01*
X67447Y71209D01*
X67490Y71425D01*
X67447Y71641D01*
X67324Y71824D01*
X67141Y71947D01*
X66925Y71990D01*
X66709Y71947D01*
X66526Y71824D01*
X66403Y71641D01*
X66360Y71425D01*
X66403Y71209D01*
X66513Y71044D01*
Y70354D01*
X66146D01*
Y67220D01*
X65909Y67457D01*
X65909D01*
Y67457D01*
X65893Y67468D01*
X65825Y67513D01*
X65726Y67533D01*
X65726D01*
X65726D01*
X65687Y67525D01*
X65664Y67520D01*
Y67550D01*
X65625Y67747D01*
X65513Y67913D01*
X65347Y68025D01*
X65150Y68064D01*
X63850D01*
X63743Y68043D01*
X63731Y68080D01*
X63726Y68089D01*
X63724Y68099D01*
X63702Y68133D01*
X63682Y68168D01*
X63674Y68174D01*
X63668Y68183D01*
X63634Y68206D01*
X63603Y68231D01*
X63593Y68233D01*
X63584Y68239D01*
X63544Y68247D01*
X63505Y68258D01*
X63495Y68257D01*
X63485Y68259D01*
X58259D01*
Y76500D01*
X58239Y76599D01*
X58183Y76683D01*
X58099Y76739D01*
X58000Y76759D01*
X56058D01*
X56039Y76755D01*
X56020Y76756D01*
X55990Y76745D01*
X55959Y76739D01*
X55943Y76729D01*
X55925Y76722D01*
X55901Y76701D01*
X55875Y76683D01*
X55864Y76667D01*
X55850Y76654D01*
X55836Y76626D01*
X55818Y76599D01*
X55815Y76580D01*
X55806Y76563D01*
X55775Y76436D01*
X55774Y76417D01*
X55771Y76409D01*
X55695Y76432D01*
X55400Y76461D01*
X55105Y76432D01*
X55029Y76409D01*
X55026Y76417D01*
X55025Y76436D01*
X54994Y76563D01*
X54985Y76580D01*
X54982Y76599D01*
X54964Y76626D01*
X54950Y76654D01*
X54936Y76667D01*
X54925Y76683D01*
X54899Y76701D01*
X54875Y76722D01*
X54857Y76729D01*
X54841Y76739D01*
X54810Y76745D01*
X54780Y76756D01*
X54761Y76755D01*
X54742Y76759D01*
X53000D01*
X52901Y76739D01*
X52817Y76683D01*
X52761Y76599D01*
X52741Y76500D01*
Y66000D01*
X52761Y65901D01*
X52817Y65817D01*
X54590Y64044D01*
X54674Y63988D01*
X54773Y63968D01*
X54872Y63988D01*
X54999Y64040D01*
X55082Y64096D01*
X56918D01*
X57001Y64040D01*
X57128Y63988D01*
X57227Y63968D01*
X57227D01*
D01*
X57326Y63988D01*
X57410Y64044D01*
X58683Y65317D01*
X59107Y65741D01*
X61473Y65741D01*
X61483Y65743D01*
X61494Y65742D01*
X61533Y65753D01*
X61546Y65756D01*
Y64746D01*
X62647D01*
X62648Y64745D01*
X62667Y64717D01*
X62667D01*
Y64717D01*
X62695Y64698D01*
X62751Y64661D01*
X62774Y64656D01*
X62321Y64204D01*
X61663D01*
X61625Y64225D01*
X61586Y64249D01*
X61581Y64250D01*
X61576Y64252D01*
X61531Y64257D01*
X61486Y64264D01*
X61481Y64263D01*
X61476Y64264D01*
X58979Y64058D01*
X58940Y64047D01*
X58901Y64039D01*
X58892Y64033D01*
X58882Y64030D01*
X58850Y64005D01*
X58817Y63983D01*
X58811Y63974D01*
X58802Y63967D01*
X58783Y63932D01*
X58761Y63899D01*
X58759Y63889D01*
X58753Y63879D01*
X58749Y63839D01*
X58741Y63800D01*
Y58500D01*
X58761Y58401D01*
X58817Y58317D01*
X58901Y58261D01*
X59000Y58241D01*
X61791D01*
X61890Y58261D01*
X61974Y58317D01*
X62030Y58401D01*
X62050Y58500D01*
Y58842D01*
X62450D01*
Y58500D01*
X62470Y58401D01*
X62526Y58317D01*
X62610Y58261D01*
X62709Y58241D01*
X63338D01*
Y57606D01*
X63250D01*
X63014Y57559D01*
X62815Y57425D01*
X62681Y57226D01*
X62634Y56990D01*
Y56290D01*
X62681Y56054D01*
X62815Y55855D01*
X63014Y55721D01*
X63250Y55674D01*
X64650D01*
X64886Y55721D01*
X65085Y55855D01*
X65219Y56054D01*
X65254Y56228D01*
X71746D01*
X71781Y56054D01*
X71915Y55855D01*
X72114Y55721D01*
X72350Y55674D01*
X73750D01*
X73986Y55721D01*
X74185Y55855D01*
X74319Y56054D01*
X74366Y56290D01*
Y56990D01*
X74319Y57226D01*
X74185Y57425D01*
X73986Y57559D01*
X73750Y57606D01*
X72350D01*
X72114Y57559D01*
X71915Y57425D01*
X71781Y57226D01*
X71746Y57052D01*
X65254D01*
X65219Y57226D01*
X65085Y57425D01*
X64886Y57559D01*
X64650Y57606D01*
X64162D01*
Y58241D01*
X73168D01*
X73267Y58261D01*
X73351Y58317D01*
X73407Y58401D01*
X73461Y58530D01*
X73481Y58629D01*
X73461Y58728D01*
X73405Y58812D01*
X71827Y60391D01*
X71770Y60475D01*
X71750Y60576D01*
Y60792D01*
X71785D01*
Y61225D01*
X72115D01*
Y60792D01*
X72256D01*
X72240Y60737D01*
X72236Y60699D01*
X72229Y60661D01*
X72231Y60649D01*
X72230Y60636D01*
X72241Y60600D01*
X72248Y60562D01*
X72255Y60552D01*
X72259Y60539D01*
X72283Y60510D01*
X72304Y60478D01*
X74466Y58317D01*
X74550Y58261D01*
X74649Y58241D01*
X78000D01*
X78099Y58261D01*
X78183Y58317D01*
X78239Y58401D01*
X78259Y58500D01*
Y61875D01*
X80817Y59317D01*
X80901Y59261D01*
X81000Y59241D01*
X84750D01*
X84849Y59261D01*
X84933Y59317D01*
X87683Y62067D01*
X87739Y62151D01*
X87759Y62250D01*
Y63491D01*
X89317D01*
X89354Y63498D01*
X89392Y63502D01*
X89403Y63508D01*
X89416Y63511D01*
X89447Y63532D01*
X89481Y63550D01*
X89489Y63560D01*
X89500Y63567D01*
X89521Y63599D01*
X89545Y63628D01*
X89550Y63638D01*
X89573Y63622D01*
X89750Y63587D01*
X90250D01*
X90427Y63622D01*
X90450Y63638D01*
X90455Y63628D01*
X90479Y63599D01*
X90500Y63567D01*
X90511Y63560D01*
X90519Y63550D01*
X90553Y63532D01*
X90584Y63511D01*
X90597Y63508D01*
X90608Y63502D01*
X90646Y63498D01*
X90683Y63491D01*
X91060D01*
X91072Y63494D01*
X91085Y63492D01*
X91122Y63503D01*
X91159Y63511D01*
X91170Y63518D01*
X91182Y63522D01*
X91211Y63546D01*
X91243Y63567D01*
X91250Y63578D01*
X91260Y63586D01*
X91278Y63619D01*
X91299Y63651D01*
X91302Y63663D01*
X91308Y63675D01*
X91328Y63741D01*
X91350Y63736D01*
X92650D01*
X92672Y63741D01*
X92692Y63675D01*
X92699Y63663D01*
X92701Y63651D01*
X92722Y63619D01*
X92740Y63586D01*
X92750Y63578D01*
X92757Y63567D01*
X92789Y63546D01*
X92818Y63522D01*
X92830Y63518D01*
X92841Y63511D01*
X92878Y63503D01*
X92915Y63492D01*
X92928Y63494D01*
X92940Y63491D01*
X93560D01*
X93572Y63494D01*
X93585Y63492D01*
X93622Y63503D01*
X93659Y63511D01*
X93670Y63518D01*
X93682Y63522D01*
X93711Y63546D01*
X93743Y63567D01*
X93750Y63578D01*
X93760Y63586D01*
X93778Y63619D01*
X93799Y63651D01*
X93802Y63663D01*
X93808Y63675D01*
X93828Y63741D01*
X93850Y63736D01*
X95150D01*
X95172Y63741D01*
X95192Y63675D01*
X95199Y63663D01*
X95201Y63651D01*
X95222Y63619D01*
X95240Y63586D01*
X95250Y63578D01*
X95257Y63567D01*
X95289Y63546D01*
X95318Y63522D01*
X95330Y63518D01*
X95341Y63511D01*
X95378Y63503D01*
X95415Y63492D01*
X95428Y63494D01*
X95440Y63491D01*
X96065D01*
X96093Y63352D01*
X96177Y63227D01*
X96200Y63211D01*
X96144Y63127D01*
X96139Y63100D01*
X96675D01*
Y62900D01*
X96139D01*
X96144Y62873D01*
X96216Y62766D01*
X96239Y62750D01*
X96216Y62734D01*
X96144Y62627D01*
X96139Y62600D01*
X96675D01*
Y62400D01*
X96139D01*
X96144Y62373D01*
X96216Y62266D01*
X96239Y62250D01*
X96216Y62234D01*
X96144Y62127D01*
X96139Y62100D01*
X96675D01*
Y62000D01*
X96775D01*
Y61669D01*
X96900D01*
X97027Y61694D01*
X97134Y61766D01*
X97206Y61873D01*
X97231Y62000D01*
X97493D01*
X97444Y61927D01*
X97419Y61800D01*
Y61675D01*
X97750D01*
Y61575D01*
X97850D01*
Y61039D01*
X97877Y61044D01*
X97984Y61116D01*
X98000Y61139D01*
X98016Y61116D01*
X98123Y61044D01*
X98150Y61039D01*
Y61575D01*
X98350D01*
Y61039D01*
X98377Y61044D01*
X98484Y61116D01*
X98500Y61139D01*
X98516Y61116D01*
X98623Y61044D01*
X98650Y61039D01*
Y61575D01*
X98850D01*
Y61039D01*
X98877Y61044D01*
X98984Y61116D01*
X99000Y61139D01*
X99016Y61116D01*
X99123Y61044D01*
X99150Y61039D01*
Y61575D01*
X99350D01*
Y61039D01*
X99377Y61044D01*
X99484Y61116D01*
X99491Y61126D01*
Y55000D01*
X99511Y54901D01*
X99567Y54817D01*
X99651Y54761D01*
X99750Y54741D01*
X105250D01*
X105349Y54761D01*
X105433Y54817D01*
X105933Y55317D01*
X105989Y55401D01*
X106000Y55455D01*
X106011Y55401D01*
X106067Y55317D01*
X107317Y54067D01*
X107401Y54011D01*
X107500Y53991D01*
X115500D01*
X115599Y54011D01*
X115683Y54067D01*
X115739Y54151D01*
X115759Y54250D01*
Y65796D01*
X116954D01*
Y66088D01*
X117750D01*
X117908Y66119D01*
X118041Y66209D01*
X120291Y68459D01*
X120381Y68592D01*
X120412Y68750D01*
Y77824D01*
X120381Y77982D01*
X120291Y78116D01*
X120116Y78291D01*
X119982Y78381D01*
X119824Y78412D01*
X119500D01*
X119500Y78412D01*
X82479D01*
Y78729D01*
D02*
G37*
G36*
X105400Y68150D02*
X105075D01*
Y67800D01*
X105400D01*
Y68150D01*
D02*
G37*
G36*
X97650Y67961D02*
X97623Y67956D01*
X97516Y67884D01*
X97444Y67777D01*
X97419Y67650D01*
Y67525D01*
X97650D01*
Y67961D01*
D02*
G37*
G36*
X109485Y67145D02*
X109394Y67127D01*
X109262Y67038D01*
X109173Y66906D01*
X109145Y66765D01*
X109485D01*
Y67145D01*
D02*
G37*
G36*
Y66235D02*
X109145D01*
X109173Y66094D01*
X109262Y65962D01*
X109394Y65873D01*
X109485Y65855D01*
Y66235D01*
D02*
G37*
G36*
Y65645D02*
X109394Y65627D01*
X109262Y65538D01*
X109173Y65406D01*
X109145Y65265D01*
X109485D01*
Y65645D01*
D02*
G37*
G36*
X105015Y65145D02*
Y64765D01*
X105355D01*
X105327Y64906D01*
X105238Y65039D01*
X105106Y65127D01*
X105015Y65145D01*
D02*
G37*
G36*
X104485D02*
X104394Y65127D01*
X104262Y65039D01*
X104173Y64906D01*
X104145Y64765D01*
X104485D01*
Y65145D01*
D02*
G37*
G36*
X109485Y64735D02*
X109145D01*
X109173Y64594D01*
X109262Y64462D01*
X109394Y64373D01*
X109485Y64355D01*
Y64735D01*
D02*
G37*
G36*
X105355Y64235D02*
X105015D01*
Y63855D01*
X105106Y63873D01*
X105238Y63962D01*
X105327Y64094D01*
X105355Y64235D01*
D02*
G37*
G36*
X109485Y64145D02*
X109394Y64127D01*
X109262Y64038D01*
X109173Y63906D01*
X109145Y63765D01*
X109485D01*
Y64145D01*
D02*
G37*
G36*
X90265Y63355D02*
Y63015D01*
X90645D01*
X90627Y63106D01*
X90539Y63238D01*
X90406Y63327D01*
X90265Y63355D01*
D02*
G37*
G36*
X89735D02*
X89594Y63327D01*
X89462Y63238D01*
X89373Y63106D01*
X89355Y63015D01*
X89735D01*
Y63355D01*
D02*
G37*
G36*
X109485Y63235D02*
X109145D01*
X109173Y63094D01*
X109262Y62962D01*
X109394Y62873D01*
X109485Y62855D01*
Y63235D01*
D02*
G37*
G36*
X57100Y62850D02*
X56600D01*
Y62400D01*
X57100D01*
Y62850D01*
D02*
G37*
G36*
X55400D02*
X54900D01*
Y62400D01*
X55400D01*
Y62850D01*
D02*
G37*
G36*
X109485Y62645D02*
X109394Y62627D01*
X109262Y62538D01*
X109173Y62406D01*
X109145Y62265D01*
X109485D01*
Y62645D01*
D02*
G37*
G36*
X90645Y62485D02*
X90265D01*
Y62145D01*
X90406Y62173D01*
X90539Y62262D01*
X90627Y62394D01*
X90645Y62485D01*
D02*
G37*
G36*
X89735D02*
X89355D01*
X89373Y62394D01*
X89462Y62262D01*
X89594Y62173D01*
X89735Y62145D01*
Y62485D01*
D02*
G37*
G36*
X95150Y62209D02*
X94800D01*
Y61800D01*
X95599D01*
X95574Y61926D01*
X95474Y62074D01*
X95326Y62174D01*
X95150Y62209D01*
D02*
G37*
G36*
X94200D02*
X93850D01*
X93674Y62174D01*
X93526Y62074D01*
X93426Y61926D01*
X93401Y61800D01*
X94200D01*
Y62209D01*
D02*
G37*
G36*
X92650D02*
X92300D01*
Y61800D01*
X93099D01*
X93074Y61926D01*
X92974Y62074D01*
X92826Y62174D01*
X92650Y62209D01*
D02*
G37*
G36*
X91700D02*
X91350D01*
X91174Y62174D01*
X91026Y62074D01*
X90926Y61926D01*
X90901Y61800D01*
X91700D01*
Y62209D01*
D02*
G37*
G36*
X96575Y61900D02*
X96139D01*
X96144Y61873D01*
X96216Y61766D01*
X96323Y61694D01*
X96450Y61669D01*
X96575D01*
Y61900D01*
D02*
G37*
G36*
X109485Y61735D02*
X109145D01*
X109173Y61594D01*
X109262Y61462D01*
X109394Y61373D01*
X109485Y61355D01*
Y61735D01*
D02*
G37*
G36*
X97650Y61475D02*
X97419D01*
Y61350D01*
X97444Y61223D01*
X97516Y61116D01*
X97623Y61044D01*
X97650Y61039D01*
Y61475D01*
D02*
G37*
G36*
X95599Y61200D02*
X94800D01*
Y60791D01*
X95150D01*
X95326Y60826D01*
X95474Y60926D01*
X95574Y61074D01*
X95599Y61200D01*
D02*
G37*
G36*
X94200D02*
X93401D01*
X93426Y61074D01*
X93526Y60926D01*
X93674Y60826D01*
X93850Y60791D01*
X94200D01*
Y61200D01*
D02*
G37*
G36*
X93099D02*
X92300D01*
Y60791D01*
X92650D01*
X92826Y60826D01*
X92974Y60926D01*
X93074Y61074D01*
X93099Y61200D01*
D02*
G37*
G36*
X91700D02*
X90901D01*
X90926Y61074D01*
X91026Y60926D01*
X91174Y60826D01*
X91350Y60791D01*
X91700D01*
Y61200D01*
D02*
G37*
G36*
X57100Y61200D02*
X56600D01*
Y60750D01*
X57100D01*
Y61200D01*
D02*
G37*
G36*
X55400D02*
X54900D01*
Y60750D01*
X55400D01*
Y61200D01*
D02*
G37*
G36*
X84275Y56725D02*
X83600D01*
Y54500D01*
X84275D01*
Y56725D01*
D02*
G37*
G36*
X82200D02*
X81525D01*
Y54500D01*
X82200D01*
Y56725D01*
D02*
G37*
G36*
X73750Y53071D02*
X73550D01*
Y52660D01*
X74281D01*
X74268Y52725D01*
X74147Y52907D01*
X73965Y53028D01*
X73750Y53071D01*
D02*
G37*
G36*
X72550D02*
X72350D01*
X72135Y53028D01*
X71953Y52907D01*
X71832Y52725D01*
X71819Y52660D01*
X72550D01*
Y53071D01*
D02*
G37*
G36*
X64650D02*
X64450D01*
Y52660D01*
X65181D01*
X65168Y52725D01*
X65047Y52907D01*
X64865Y53028D01*
X64650Y53071D01*
D02*
G37*
G36*
X63450D02*
X63250D01*
X63035Y53028D01*
X62853Y52907D01*
X62732Y52725D01*
X62719Y52660D01*
X63450D01*
Y53071D01*
D02*
G37*
G36*
X74281Y51660D02*
X73550D01*
Y51249D01*
X73750D01*
X73965Y51292D01*
X74147Y51413D01*
X74268Y51595D01*
X74281Y51660D01*
D02*
G37*
G36*
X72550D02*
X71819D01*
X71832Y51595D01*
X71953Y51413D01*
X72135Y51292D01*
X72350Y51249D01*
X72550D01*
Y51660D01*
D02*
G37*
G36*
X65181D02*
X64450D01*
Y51249D01*
X64650D01*
X64865Y51292D01*
X65047Y51413D01*
X65168Y51595D01*
X65181Y51660D01*
D02*
G37*
G36*
X63450D02*
X62719D01*
X62732Y51595D01*
X62853Y51413D01*
X63035Y51292D01*
X63250Y51249D01*
X63450D01*
Y51660D01*
D02*
G37*
G36*
X84275Y53100D02*
X83600D01*
Y50875D01*
X84275D01*
Y53100D01*
D02*
G37*
G36*
X82200D02*
X81525D01*
Y50875D01*
X82200D01*
Y53100D01*
D02*
G37*
%LPD*%
G36*
X58000Y68000D02*
X63485D01*
X63526Y67874D01*
X63426Y67726D01*
X63401Y67600D01*
X64500D01*
Y67300D01*
X64800D01*
Y66591D01*
X65150D01*
X65326Y66626D01*
X65474Y66726D01*
X65574Y66874D01*
X65609Y67050D01*
Y67225D01*
X65726Y67274D01*
X66200Y66800D01*
Y66700D01*
X66300D01*
X66500Y66500D01*
X66910Y66500D01*
X67000Y66410D01*
Y66306D01*
X66950Y66200D01*
X66215D01*
Y65775D01*
X66050D01*
Y65610D01*
X65150D01*
Y65350D01*
X65150Y65350D01*
X65155Y65290D01*
X66050D01*
Y64960D01*
X65115D01*
X65073Y64900D01*
X64400D01*
Y66100D01*
X63150D01*
Y64900D01*
X62850Y64900D01*
Y65150D01*
X62225D01*
Y65450D01*
X61925D01*
Y66100D01*
X61600D01*
Y66065D01*
X61473Y66000D01*
X59000Y66000D01*
X58500Y65500D01*
X57227Y64227D01*
X57100Y64280D01*
Y64600D01*
X54900D01*
Y64280D01*
X54773Y64227D01*
X53000Y66000D01*
Y76500D01*
X54742D01*
X54774Y76373D01*
X54535Y76245D01*
X54299Y76051D01*
X54105Y75815D01*
X53963Y75550D01*
X55400D01*
X56837D01*
X56695Y75815D01*
X56501Y76051D01*
X56265Y76245D01*
X56026Y76373D01*
X56058Y76500D01*
X58000D01*
Y68000D01*
D02*
G37*
G36*
X104000Y68352D02*
X103975Y68345D01*
X103951Y68351D01*
X103850Y68440D01*
Y68700D01*
X103225D01*
X102600D01*
Y68377D01*
X102600Y68350D01*
X102535Y68250D01*
X102500D01*
X101250Y67000D01*
X100881D01*
X100856Y67127D01*
X100784Y67234D01*
X100677Y67306D01*
X100550Y67331D01*
X100100D01*
X99973Y67306D01*
X99866Y67234D01*
X99794Y67127D01*
X99769Y67000D01*
X99648D01*
X99567Y67127D01*
X99581Y67200D01*
Y67325D01*
X99250D01*
Y67425D01*
X99150D01*
Y68058D01*
X99117Y68084D01*
X99113Y68113D01*
X101141Y70141D01*
X101141Y70141D01*
X101248Y70069D01*
X101269Y70065D01*
Y69935D01*
X101248Y69931D01*
X101141Y69859D01*
X101069Y69752D01*
X101052Y69665D01*
X101500D01*
X101948D01*
X101931Y69752D01*
X101859Y69859D01*
X101752Y69931D01*
X101731Y69935D01*
Y70065D01*
X101752Y70069D01*
X101859Y70141D01*
X101931Y70248D01*
X101956Y70375D01*
Y70456D01*
X102473Y70973D01*
X102600Y70935D01*
Y70800D01*
X103225D01*
X103850D01*
Y71000D01*
X104000D01*
X104000Y68352D01*
D02*
G37*
G36*
X70500Y64930D02*
X69700D01*
Y64200D01*
X70530D01*
Y64500D01*
X71021D01*
X71042Y64475D01*
X71075Y64309D01*
X71169Y64169D01*
Y64131D01*
X71075Y63991D01*
X71042Y63825D01*
X71075Y63659D01*
X71169Y63519D01*
Y63481D01*
X71075Y63341D01*
X71042Y63175D01*
X71075Y63009D01*
X71108Y62959D01*
X71160Y62850D01*
X71108Y62741D01*
X71075Y62691D01*
X71042Y62525D01*
X71075Y62359D01*
X71169Y62219D01*
Y62181D01*
X71075Y62041D01*
X71042Y61875D01*
X71075Y61709D01*
X71169Y61569D01*
Y61531D01*
X71075Y61391D01*
X71042Y61225D01*
X71075Y61059D01*
X71169Y60919D01*
X71309Y60825D01*
X71475Y60792D01*
X71491D01*
Y60550D01*
X71526Y60374D01*
X71626Y60226D01*
X73222Y58629D01*
X73168Y58500D01*
X64107D01*
Y58874D01*
X64238Y58962D01*
X64327Y59094D01*
X64358Y59250D01*
Y59626D01*
X64752Y60021D01*
X64830Y60136D01*
X64857Y60273D01*
Y61352D01*
X64985Y61480D01*
X65078Y61470D01*
X65129Y61390D01*
X66050D01*
X66925D01*
X66925Y61391D01*
X66831Y61531D01*
Y61569D01*
X66925Y61709D01*
X66958Y61875D01*
X66925Y62041D01*
X66831Y62181D01*
Y62219D01*
X66925Y62359D01*
X66925Y62360D01*
X66050D01*
Y62690D01*
X66925D01*
X66925Y62691D01*
X66831Y62831D01*
Y62869D01*
X66925Y63009D01*
X66958Y63175D01*
X66925Y63341D01*
X66831Y63481D01*
Y63519D01*
X66925Y63659D01*
X66958Y63825D01*
X66925Y63991D01*
X66892Y64041D01*
X66840Y64150D01*
X66892Y64259D01*
X66925Y64309D01*
X66954Y64455D01*
X67367Y64489D01*
X67470Y64394D01*
Y64200D01*
X68300D01*
Y64930D01*
X67500D01*
Y66000D01*
X70500D01*
Y64930D01*
D02*
G37*
G36*
X75000Y67250D02*
X93750D01*
X94750Y66250D01*
X94951D01*
X95000Y66240D01*
X95049Y66250D01*
X95192D01*
X95241Y66217D01*
X95358Y66194D01*
X95358Y66194D01*
X96048D01*
X96110Y66100D01*
X96675D01*
Y65900D01*
X96139D01*
X96144Y65873D01*
X96216Y65766D01*
Y65734D01*
X96144Y65627D01*
X96119Y65500D01*
X96144Y65373D01*
X96160Y65350D01*
X96208Y65250D01*
X96160Y65150D01*
X96144Y65127D01*
X96139Y65100D01*
X96675D01*
Y64900D01*
X96139D01*
X96144Y64873D01*
X96216Y64766D01*
Y64734D01*
X96144Y64627D01*
X96139Y64600D01*
X96675D01*
Y64400D01*
X96139D01*
X96144Y64373D01*
X96216Y64266D01*
Y64234D01*
X96144Y64127D01*
X96139Y64100D01*
X96675D01*
Y63900D01*
X96139D01*
X96143Y63877D01*
X96144Y63873D01*
X96073Y63750D01*
X95440D01*
X95402Y63877D01*
X95474Y63926D01*
X95574Y64074D01*
X95599Y64200D01*
X93401D01*
X93426Y64074D01*
X93526Y63926D01*
X93598Y63877D01*
X93560Y63750D01*
X92940D01*
X92902Y63877D01*
X92974Y63926D01*
X93074Y64074D01*
X93099Y64200D01*
X90901D01*
X90926Y64074D01*
X91026Y63926D01*
X91098Y63877D01*
X91060Y63750D01*
X90683D01*
X90615Y63877D01*
X90627Y63894D01*
X90645Y63985D01*
X89355D01*
X89373Y63894D01*
X89385Y63877D01*
X89317Y63750D01*
X87250D01*
X87500Y63500D01*
Y62250D01*
X84750Y59500D01*
X81000D01*
X78250Y62250D01*
Y63750D01*
Y64750D01*
X72838D01*
X72770Y64877D01*
X72825Y64959D01*
X72826Y64960D01*
X71950D01*
Y65290D01*
X72826D01*
X72825Y65291D01*
X72731Y65431D01*
Y65469D01*
X72825Y65609D01*
X72826Y65610D01*
X71950D01*
Y65775D01*
X71785D01*
Y66208D01*
X71475D01*
X71309Y66175D01*
X71169Y66081D01*
X71127Y66019D01*
X71000Y66058D01*
Y66250D01*
X70667Y66583D01*
X70716Y66700D01*
X70845D01*
Y68500D01*
Y70300D01*
X70609D01*
X70537Y70422D01*
X70571Y70500D01*
X75000D01*
Y67250D01*
D02*
G37*
G36*
X78000Y58500D02*
X74649D01*
X72488Y60661D01*
X72534Y60813D01*
X72591Y60825D01*
X72731Y60919D01*
X72825Y61059D01*
X72858Y61225D01*
X72825Y61391D01*
X72798Y61432D01*
X72798Y61432D01*
X72966D01*
X72972Y61423D01*
X73448Y60948D01*
X73563Y60870D01*
X73700Y60843D01*
X73900D01*
Y60550D01*
X75150D01*
Y61850D01*
X73900D01*
Y61703D01*
X73760Y61645D01*
X73582Y61823D01*
Y62174D01*
X73554Y62311D01*
X73493Y62403D01*
X73535Y62543D01*
X73963D01*
X73973Y62494D01*
X74062Y62362D01*
X74194Y62273D01*
X74350Y62242D01*
X74750D01*
X74906Y62273D01*
X75038Y62362D01*
X75127Y62494D01*
X75158Y62650D01*
Y63150D01*
X75127Y63306D01*
X75038Y63438D01*
X74906Y63527D01*
X74750Y63558D01*
X74350D01*
X74194Y63527D01*
X74062Y63438D01*
X73973Y63306D01*
X73963Y63257D01*
X73248D01*
X73106Y63399D01*
X72990Y63476D01*
X72885Y63497D01*
X72833Y63578D01*
X72815Y63643D01*
X72825Y63659D01*
X72858Y63825D01*
X72825Y63991D01*
X72731Y64131D01*
Y64169D01*
X72825Y64309D01*
X72858Y64475D01*
X72879Y64500D01*
X78000D01*
Y58500D01*
D02*
G37*
G36*
X101999Y63609D02*
X102098Y63542D01*
X102215Y63519D01*
X102215Y63519D01*
X102231D01*
X102250Y63500D01*
X102595D01*
X102667Y63373D01*
X102645Y63265D01*
X103250D01*
Y63000D01*
X103515D01*
Y62355D01*
X103606Y62373D01*
X103738Y62462D01*
X103827Y62594D01*
X103858Y62750D01*
Y63230D01*
X103905Y63273D01*
X103976Y63307D01*
X104000Y63293D01*
Y61250D01*
X105750Y59500D01*
Y55500D01*
X105250Y55000D01*
X99750D01*
Y61710D01*
X99823Y61745D01*
X99877Y61758D01*
X99973Y61694D01*
X100100Y61669D01*
X100225D01*
Y62000D01*
X100325D01*
Y62100D01*
X100861D01*
X100856Y62127D01*
X100784Y62234D01*
Y62266D01*
X100856Y62373D01*
X100861Y62400D01*
X100325D01*
Y62600D01*
X100861D01*
X100856Y62627D01*
X100784Y62734D01*
Y62766D01*
X100856Y62873D01*
X100861Y62900D01*
X100325D01*
Y63100D01*
X100861D01*
X100856Y63127D01*
X100784Y63234D01*
Y63266D01*
X100856Y63373D01*
X100861Y63400D01*
X100325D01*
Y63600D01*
X100861D01*
X100856Y63627D01*
X100784Y63734D01*
Y63766D01*
X100856Y63873D01*
X100861Y63900D01*
X100325D01*
Y64100D01*
X100890D01*
X100952Y64194D01*
X101414D01*
X101999Y63609D01*
D02*
G37*
G36*
X61600Y63911D02*
Y62850D01*
X62850D01*
Y63645D01*
X63021Y63816D01*
X63150Y63762D01*
Y62850D01*
X63418D01*
Y62150D01*
X63150D01*
Y60850D01*
X64143D01*
Y60421D01*
X63880Y60158D01*
X63550D01*
X63394Y60127D01*
X63262Y60038D01*
X63173Y59906D01*
X63142Y59750D01*
Y59250D01*
X63173Y59094D01*
X63262Y58962D01*
X63393Y58874D01*
Y58500D01*
X62709D01*
Y58942D01*
X62738Y58961D01*
X62827Y59094D01*
X62858Y59250D01*
Y59750D01*
X62827Y59906D01*
X62738Y60038D01*
X62606Y60127D01*
X62450Y60158D01*
X62050D01*
X61894Y60127D01*
X61762Y60038D01*
X61673Y59906D01*
X61642Y59750D01*
Y59250D01*
X61673Y59094D01*
X61762Y58961D01*
X61791Y58942D01*
Y58500D01*
X59000D01*
Y63800D01*
X61497Y64006D01*
X61600Y63911D01*
D02*
G37*
G36*
X119500Y69000D02*
X117750Y67250D01*
X115500D01*
Y54250D01*
X107500D01*
X106250Y55500D01*
Y59500D01*
X107500Y60750D01*
X110500D01*
Y67250D01*
X111000Y67750D01*
X112500D01*
Y67750D01*
X114250Y69500D01*
Y77500D01*
X119500D01*
Y69000D01*
D02*
G37*
%LPC*%
G36*
X54800Y74350D02*
X53963D01*
X54105Y74085D01*
X54299Y73849D01*
X54535Y73655D01*
X54800Y73513D01*
Y74350D01*
D02*
G37*
G36*
X56837D02*
X56000D01*
Y73513D01*
X56265Y73655D01*
X56501Y73849D01*
X56695Y74085D01*
X56837Y74350D01*
D02*
G37*
G36*
X56000Y72187D02*
Y71350D01*
X56837D01*
X56695Y71615D01*
X56501Y71851D01*
X56265Y72045D01*
X56000Y72187D01*
D02*
G37*
G36*
X54800Y72187D02*
X54535Y72045D01*
X54299Y71851D01*
X54105Y71615D01*
X53963Y71350D01*
X54800D01*
Y72187D01*
D02*
G37*
G36*
Y70150D02*
X53963D01*
X54105Y69885D01*
X54299Y69649D01*
X54535Y69455D01*
X54800Y69313D01*
Y70150D01*
D02*
G37*
G36*
X56837D02*
X56000D01*
Y69313D01*
X56265Y69455D01*
X56501Y69649D01*
X56695Y69885D01*
X56837Y70150D01*
D02*
G37*
G36*
X64200Y67000D02*
X63401D01*
X63426Y66874D01*
X63526Y66726D01*
X63674Y66626D01*
X63850Y66591D01*
X64200D01*
Y67000D01*
D02*
G37*
G36*
X65885Y66200D02*
X65150D01*
Y65940D01*
X65885D01*
Y66200D01*
D02*
G37*
G36*
X57100Y66250D02*
X56600D01*
Y65800D01*
X57100D01*
Y66250D01*
D02*
G37*
G36*
X55400D02*
X54900D01*
Y65800D01*
X55400D01*
Y66250D01*
D02*
G37*
G36*
X62850Y66100D02*
X62525D01*
Y65750D01*
X62850D01*
Y66100D01*
D02*
G37*
G36*
X103850Y70200D02*
X103525D01*
Y69850D01*
X103850D01*
Y70200D01*
D02*
G37*
G36*
X102925D02*
X102600D01*
Y69850D01*
X102925D01*
Y70200D01*
D02*
G37*
G36*
X103850Y69650D02*
X103525D01*
Y69300D01*
X103850D01*
Y69650D01*
D02*
G37*
G36*
X102925D02*
X102600D01*
Y69300D01*
X102925D01*
Y69650D01*
D02*
G37*
G36*
X101948Y69335D02*
X101665D01*
Y69052D01*
X101752Y69069D01*
X101859Y69141D01*
X101931Y69248D01*
X101948Y69335D01*
D02*
G37*
G36*
X101335D02*
X101052D01*
X101069Y69248D01*
X101141Y69141D01*
X101248Y69069D01*
X101335Y69052D01*
Y69335D01*
D02*
G37*
G36*
X99350Y67961D02*
Y67525D01*
X99581D01*
Y67650D01*
X99556Y67777D01*
X99484Y67884D01*
X99377Y67956D01*
X99350Y67961D01*
D02*
G37*
G36*
X70530Y62800D02*
X69700D01*
Y62070D01*
X70530D01*
Y62800D01*
D02*
G37*
G36*
X68300D02*
X67470D01*
Y62070D01*
X68300D01*
Y62800D01*
D02*
G37*
G36*
X66925Y61060D02*
X66215D01*
Y60792D01*
X66525D01*
X66691Y60825D01*
X66831Y60919D01*
X66925Y61059D01*
X66925Y61060D01*
D02*
G37*
G36*
X65885D02*
X65174D01*
X65175Y61059D01*
X65269Y60919D01*
X65409Y60825D01*
X65575Y60792D01*
X65885D01*
Y61060D01*
D02*
G37*
G36*
X74850Y69600D02*
X74400D01*
Y69100D01*
X74850D01*
Y69600D01*
D02*
G37*
G36*
X73200D02*
X72750D01*
Y69100D01*
X73200D01*
Y69600D01*
D02*
G37*
G36*
X71705Y70300D02*
Y68930D01*
X72000D01*
Y70300D01*
X71705D01*
D02*
G37*
G36*
X74850Y67900D02*
X74400D01*
Y67400D01*
X74850D01*
Y67900D01*
D02*
G37*
G36*
X73200D02*
X72750D01*
Y67400D01*
X73200D01*
Y67900D01*
D02*
G37*
G36*
X72000Y68070D02*
X71705D01*
Y66700D01*
X72000D01*
Y68070D01*
D02*
G37*
G36*
X72425Y66208D02*
X72115D01*
Y65940D01*
X72826D01*
X72825Y65941D01*
X72731Y66081D01*
X72591Y66175D01*
X72425Y66208D01*
D02*
G37*
G36*
X95150Y65209D02*
X94800D01*
Y64800D01*
X95599D01*
X95574Y64926D01*
X95474Y65074D01*
X95326Y65174D01*
X95150Y65209D01*
D02*
G37*
G36*
X94200D02*
X93850D01*
X93674Y65174D01*
X93526Y65074D01*
X93426Y64926D01*
X93401Y64800D01*
X94200D01*
Y65209D01*
D02*
G37*
G36*
X92650D02*
X92300D01*
Y64800D01*
X93099D01*
X93074Y64926D01*
X92974Y65074D01*
X92826Y65174D01*
X92650Y65209D01*
D02*
G37*
G36*
X91700D02*
X91350D01*
X91174Y65174D01*
X91026Y65074D01*
X90926Y64926D01*
X90901Y64800D01*
X91700D01*
Y65209D01*
D02*
G37*
G36*
X90265Y64855D02*
Y64515D01*
X90645D01*
X90627Y64606D01*
X90538Y64738D01*
X90406Y64827D01*
X90265Y64855D01*
D02*
G37*
G36*
X89735D02*
X89594Y64827D01*
X89462Y64738D01*
X89373Y64606D01*
X89355Y64515D01*
X89735D01*
Y64855D01*
D02*
G37*
G36*
X84275Y65525D02*
X83600D01*
Y63300D01*
X84275D01*
Y63750D01*
Y65525D01*
D02*
G37*
G36*
X82200D02*
X81525D01*
Y63750D01*
Y63300D01*
X82200D01*
Y65525D01*
D02*
G37*
G36*
X84275Y61900D02*
X83600D01*
Y59675D01*
X84275D01*
Y61900D01*
D02*
G37*
G36*
X82200D02*
X81525D01*
Y59675D01*
X82200D01*
Y61900D01*
D02*
G37*
G36*
X76315Y63545D02*
Y63165D01*
X76655D01*
X76627Y63306D01*
X76538Y63439D01*
X76406Y63527D01*
X76315Y63545D01*
D02*
G37*
G36*
X75785D02*
X75694Y63527D01*
X75562Y63439D01*
X75473Y63306D01*
X75445Y63165D01*
X75785D01*
Y63545D01*
D02*
G37*
G36*
Y62635D02*
X75445D01*
X75473Y62494D01*
X75562Y62362D01*
X75694Y62273D01*
X75785Y62255D01*
Y62635D01*
D02*
G37*
G36*
X76655D02*
X76315D01*
Y62255D01*
X76406Y62273D01*
X76538Y62362D01*
X76627Y62494D01*
X76655Y62635D01*
D02*
G37*
G36*
X76700Y61850D02*
X76375D01*
Y61500D01*
X76700D01*
Y61850D01*
D02*
G37*
G36*
X75775D02*
X75450D01*
Y61500D01*
X75775D01*
Y61850D01*
D02*
G37*
G36*
X76700Y60900D02*
X76375D01*
Y60550D01*
X76700D01*
Y60900D01*
D02*
G37*
G36*
X75775D02*
X75450D01*
Y60550D01*
X75775D01*
Y60900D01*
D02*
G37*
G36*
X102985Y62735D02*
X102645D01*
X102673Y62594D01*
X102762Y62462D01*
X102894Y62373D01*
X102985Y62355D01*
Y62735D01*
D02*
G37*
G36*
X100861Y61900D02*
X100425D01*
Y61669D01*
X100550D01*
X100677Y61694D01*
X100784Y61766D01*
X100856Y61873D01*
X100861Y61900D01*
D02*
G37*
G36*
X105400Y59375D02*
X104500D01*
Y58500D01*
X105400D01*
Y59375D01*
D02*
G37*
G36*
X102500D02*
X101600D01*
Y58500D01*
X102500D01*
Y59375D01*
D02*
G37*
G36*
X105400Y56500D02*
X104500D01*
Y55625D01*
X105400D01*
Y56500D01*
D02*
G37*
G36*
X102500D02*
X101600D01*
Y55625D01*
X102500D01*
Y56500D01*
D02*
G37*
G36*
X62850Y62150D02*
X62525D01*
Y61800D01*
X62850D01*
Y62150D01*
D02*
G37*
G36*
X61925D02*
X61600D01*
Y61800D01*
X61925D01*
Y62150D01*
D02*
G37*
G36*
X62850Y61200D02*
X62525D01*
Y60850D01*
X62850D01*
Y61200D01*
D02*
G37*
G36*
X61925D02*
X61600D01*
Y60850D01*
X61925D01*
Y61200D01*
D02*
G37*
G36*
X117700Y76687D02*
Y75850D01*
X118537D01*
X118395Y76115D01*
X118201Y76351D01*
X117965Y76545D01*
X117700Y76687D01*
D02*
G37*
G36*
X116500Y76687D02*
X116235Y76545D01*
X115999Y76351D01*
X115805Y76115D01*
X115663Y75850D01*
X116500D01*
Y76687D01*
D02*
G37*
G36*
Y74650D02*
X115663D01*
X115805Y74385D01*
X115999Y74149D01*
X116235Y73955D01*
X116500Y73813D01*
Y74650D01*
D02*
G37*
G36*
X118537D02*
X117700D01*
Y73813D01*
X117965Y73955D01*
X118201Y74149D01*
X118395Y74385D01*
X118537Y74650D01*
D02*
G37*
G36*
X117700Y72487D02*
Y71650D01*
X118537D01*
X118395Y71915D01*
X118201Y72151D01*
X117965Y72345D01*
X117700Y72487D01*
D02*
G37*
G36*
X116500Y72487D02*
X116235Y72345D01*
X115999Y72151D01*
X115805Y71915D01*
X115663Y71650D01*
X116500D01*
Y72487D01*
D02*
G37*
G36*
Y70450D02*
X115663D01*
X115805Y70185D01*
X115999Y69949D01*
X116235Y69755D01*
X116500Y69613D01*
Y70450D01*
D02*
G37*
G36*
X118537D02*
X117700D01*
Y69613D01*
X117965Y69755D01*
X118201Y69949D01*
X118395Y70185D01*
X118537Y70450D01*
D02*
G37*
G36*
X115350Y67150D02*
X115025D01*
Y66800D01*
X115350D01*
Y67150D01*
D02*
G37*
G36*
X114425D02*
X114100D01*
Y66800D01*
X114425D01*
Y67150D01*
D02*
G37*
G36*
X111515Y67145D02*
Y66765D01*
X111855D01*
X111827Y66906D01*
X111738Y67039D01*
X111606Y67127D01*
X111515Y67145D01*
D02*
G37*
G36*
X110985D02*
X110894Y67127D01*
X110762Y67039D01*
X110673Y66906D01*
X110645Y66765D01*
X110985D01*
Y67145D01*
D02*
G37*
G36*
X111855Y66235D02*
X111515D01*
Y65855D01*
X111606Y65873D01*
X111738Y65962D01*
X111827Y66094D01*
X111855Y66235D01*
D02*
G37*
G36*
X110985D02*
X110645D01*
X110673Y66094D01*
X110762Y65962D01*
X110894Y65873D01*
X110985Y65855D01*
Y66235D01*
D02*
G37*
G36*
X115350Y66200D02*
X115025D01*
Y65850D01*
X115350D01*
Y66200D01*
D02*
G37*
G36*
X114425D02*
X114100D01*
Y65850D01*
X114425D01*
Y66200D01*
D02*
G37*
G36*
X111515Y65645D02*
Y65265D01*
X111855D01*
X111827Y65406D01*
X111738Y65539D01*
X111606Y65627D01*
X111515Y65645D01*
D02*
G37*
G36*
X110985D02*
X110894Y65627D01*
X110762Y65539D01*
X110673Y65406D01*
X110645Y65265D01*
X110985D01*
Y65645D01*
D02*
G37*
G36*
X111855Y64735D02*
X111515D01*
Y64355D01*
X111606Y64373D01*
X111738Y64462D01*
X111827Y64594D01*
X111855Y64735D01*
D02*
G37*
G36*
X110985D02*
X110645D01*
X110673Y64594D01*
X110762Y64462D01*
X110894Y64373D01*
X110985Y64355D01*
Y64735D01*
D02*
G37*
G36*
X111515Y64145D02*
Y63765D01*
X111855D01*
X111827Y63906D01*
X111738Y64039D01*
X111606Y64127D01*
X111515Y64145D01*
D02*
G37*
G36*
X110985D02*
X110894Y64127D01*
X110762Y64039D01*
X110673Y63906D01*
X110645Y63765D01*
X110985D01*
Y64145D01*
D02*
G37*
G36*
X111855Y63235D02*
X111515D01*
Y62855D01*
X111606Y62873D01*
X111738Y62962D01*
X111827Y63094D01*
X111855Y63235D01*
D02*
G37*
G36*
X110985D02*
X110645D01*
X110673Y63094D01*
X110762Y62962D01*
X110894Y62873D01*
X110985Y62855D01*
Y63235D01*
D02*
G37*
G36*
X111515Y62645D02*
Y62265D01*
X111855D01*
X111827Y62406D01*
X111738Y62539D01*
X111606Y62627D01*
X111515Y62645D01*
D02*
G37*
G36*
X110985D02*
X110894Y62627D01*
X110762Y62539D01*
X110673Y62406D01*
X110645Y62265D01*
X110985D01*
Y62645D01*
D02*
G37*
G36*
Y61735D02*
X110645D01*
X110673Y61594D01*
X110762Y61462D01*
X110894Y61373D01*
X110985Y61355D01*
Y61735D01*
D02*
G37*
G36*
X111855D02*
X111515D01*
Y61355D01*
X111606Y61373D01*
X111738Y61462D01*
X111827Y61594D01*
X111855Y61735D01*
D02*
G37*
G36*
X111000Y59375D02*
X110100D01*
Y58500D01*
X111000D01*
Y59375D01*
D02*
G37*
G36*
X108100D02*
X107200D01*
Y58500D01*
X108100D01*
Y59375D01*
D02*
G37*
G36*
X111000Y56500D02*
X110100D01*
Y55625D01*
X111000D01*
Y56500D01*
D02*
G37*
G36*
X108100D02*
X107200D01*
Y55625D01*
X108100D01*
Y56500D01*
D02*
G37*
%LPD*%
D11*
X98250Y61575D02*
X99250D01*
X97750D02*
X98250D01*
X95000Y66750D02*
X95108D01*
X95000D02*
X95000Y66750D01*
X95108Y66750D02*
X95358Y66500D01*
X96675D01*
X95000Y66750D02*
Y67500D01*
X95000Y67500D01*
X104750Y63000D02*
Y63050D01*
X103975Y63825D02*
X104750Y63050D01*
X102215Y63825D02*
X103975D01*
X101540Y64500D02*
X102215Y63825D01*
X100325Y64500D02*
X101540D01*
X100325Y66500D02*
X101842D01*
X102225Y66117D01*
Y66117D02*
Y66117D01*
Y66117D02*
X102342Y66000D01*
X103225D01*
X101592Y65900D02*
X101700D01*
X101492Y66000D02*
X101592Y65900D01*
X100325Y66000D02*
X101492D01*
X101000Y65500D02*
X102000Y64500D01*
X100325Y65500D02*
X101000D01*
X102000Y64500D02*
X103250D01*
D12*
X95793Y67988D02*
X96450Y67331D01*
X94619Y67988D02*
X95793D01*
X94069Y67438D02*
X94619Y67988D01*
X93828Y67438D02*
X94069D01*
D33*
X98500Y64500D02*
D03*
D34*
X99250Y61575D02*
D03*
X98750Y61575D02*
D03*
X98250Y61575D02*
D03*
X97750D02*
D03*
Y67425D02*
D03*
X98250D02*
D03*
X98750Y67425D02*
D03*
X99250Y67425D02*
D03*
D35*
X96675Y62000D02*
D03*
Y62500D02*
D03*
Y63000D02*
D03*
Y63500D02*
D03*
Y64000D02*
D03*
Y64500D02*
D03*
Y65000D02*
D03*
Y65500D02*
D03*
Y66000D02*
D03*
Y66500D02*
D03*
Y67000D02*
D03*
X100325D02*
D03*
X100325Y66500D02*
D03*
X100325Y66000D02*
D03*
Y65500D02*
D03*
Y65000D02*
D03*
Y64500D02*
D03*
Y64000D02*
D03*
Y63500D02*
D03*
Y63000D02*
D03*
Y62500D02*
D03*
Y62000D02*
D03*
D36*
X109100Y57500D02*
D03*
X103500Y57500D02*
D03*
D37*
X95000Y69000D02*
D03*
X95000Y67500D02*
D03*
X90000Y64250D02*
D03*
X90000Y62750D02*
D03*
D38*
X114725Y66500D02*
D03*
X116275D02*
D03*
X103225Y67500D02*
D03*
X104775D02*
D03*
X103225Y66000D02*
D03*
X104775D02*
D03*
Y72000D02*
D03*
X103225D02*
D03*
Y70500D02*
D03*
X104775D02*
D03*
Y69000D02*
D03*
X103225D02*
D03*
X74525Y61200D02*
D03*
X76075D02*
D03*
X62225Y61500D02*
D03*
X63775D02*
D03*
Y63500D02*
D03*
X62225D02*
D03*
X63775Y65450D02*
D03*
X62225D02*
D03*
D39*
X81825Y78000D02*
D03*
X80175D02*
D03*
X67675D02*
D03*
X69325D02*
D03*
D40*
X109750Y66500D02*
D03*
X111250Y66500D02*
D03*
X109750Y62000D02*
D03*
X111250Y62000D02*
D03*
X109750Y63500D02*
D03*
X111250Y63500D02*
D03*
X109750Y65000D02*
D03*
X111250Y65000D02*
D03*
X103250Y64500D02*
D03*
X104750Y64500D02*
D03*
X103250Y63000D02*
D03*
X104750Y63000D02*
D03*
X63750Y59500D02*
D03*
X62250Y59500D02*
D03*
X76050Y62900D02*
D03*
X74550Y62900D02*
D03*
D41*
X92000Y64500D02*
D03*
X92000Y61500D02*
D03*
X94500Y64500D02*
D03*
Y61500D02*
D03*
X64500Y70300D02*
D03*
Y67300D02*
D03*
D42*
X101500Y70500D02*
D03*
Y69500D02*
D03*
D43*
X56000Y65200D02*
D03*
Y61800D02*
D03*
D44*
X63950Y52160D02*
D03*
X73050D02*
D03*
Y56640D02*
D03*
X63950D02*
D03*
D45*
X69000Y63500D02*
D03*
D46*
X71950Y61225D02*
D03*
Y61875D02*
D03*
Y62525D02*
D03*
Y63175D02*
D03*
Y63825D02*
D03*
Y64475D02*
D03*
Y65125D02*
D03*
Y65775D02*
D03*
X66050Y61225D02*
D03*
Y61875D02*
D03*
Y62525D02*
D03*
Y63175D02*
D03*
Y63825D02*
D03*
Y64475D02*
D03*
Y65125D02*
D03*
D47*
Y65775D02*
D03*
D48*
X82900Y53800D02*
D03*
Y62600D02*
D03*
D49*
X66925Y68500D02*
D03*
X71275D02*
D03*
D50*
X77200D02*
D03*
X73800D02*
D03*
D51*
X120000Y68750D02*
Y77824D01*
X119824Y78000D02*
X120000Y77824D01*
X119500Y78000D02*
X119824D01*
X119500Y78000D02*
X119500Y78000D01*
X81825Y78000D02*
X119500D01*
X117750Y66500D02*
X120000Y68750D01*
X116275Y66500D02*
X117750D01*
X101500Y70500D02*
Y71500D01*
X104775Y69000D02*
X106000D01*
X104775Y69000D02*
X104775Y69000D01*
X95000D02*
X95000Y69000D01*
Y70500D01*
X103225Y67475D02*
Y67500D01*
Y67475D02*
X103500Y67200D01*
X103600D01*
X104775Y66025D01*
Y66000D02*
Y66025D01*
X67675Y77175D02*
Y78000D01*
X66925Y68500D02*
Y71425D01*
X63800Y64475D02*
X66050D01*
X63175D02*
X63800D01*
X63775Y64500D02*
X63800Y64475D01*
X63775Y64500D02*
Y65450D01*
X62225Y63525D02*
X63175Y64475D01*
X62225Y63500D02*
Y63525D01*
X73225Y61675D02*
X73700Y61200D01*
X73225Y61675D02*
Y62174D01*
X72845Y62554D02*
X73225Y62174D01*
X71979Y62554D02*
X72845D01*
X73700Y61200D02*
X74525D01*
X71950Y62525D02*
X71979Y62554D01*
X72854Y63146D02*
X73100Y62900D01*
X74550D01*
X71979Y63146D02*
X72854D01*
X71950Y63175D02*
X71979Y63146D01*
X63950Y56640D02*
X73050D01*
X63750Y56840D02*
X63950Y56640D01*
X63750Y56840D02*
Y59500D01*
X64500Y60273D02*
Y61500D01*
X63750Y59500D02*
Y59523D01*
X64500Y60273D01*
Y61500D02*
X64875Y61875D01*
X63775Y63500D02*
X64500D01*
X64825Y63175D01*
X66050D01*
X63775Y61500D02*
Y63500D01*
X64875Y61875D02*
X66050D01*
D52*
X104775Y70500D02*
Y72000D01*
X71950Y60550D02*
X74500Y58000D01*
X71950Y60550D02*
Y61000D01*
X62250Y58000D02*
Y59500D01*
D53*
X117100Y71050D02*
D03*
X117100Y75250D02*
D03*
X111600D02*
D03*
X55400Y74950D02*
D03*
X55400Y70750D02*
D03*
X60900D02*
D03*
D54*
X111600Y71050D02*
D03*
X60900Y74950D02*
D03*
D55*
X90000Y61500D02*
D03*
X95000Y60000D02*
D03*
X93000D02*
D03*
X91000D02*
D03*
X98000Y62750D02*
D03*
Y63750D02*
D03*
X99000Y62750D02*
D03*
Y63750D02*
D03*
X98000Y64500D02*
D03*
X99000D02*
D03*
X98000Y65250D02*
D03*
X99000D02*
D03*
Y66250D02*
D03*
X98000D02*
D03*
X120000Y66000D02*
D03*
Y64000D02*
D03*
Y62000D02*
D03*
Y60000D02*
D03*
Y58000D02*
D03*
Y56000D02*
D03*
Y54000D02*
D03*
Y52000D02*
D03*
X118000Y64000D02*
D03*
Y62000D02*
D03*
Y60000D02*
D03*
Y58000D02*
D03*
Y56000D02*
D03*
Y54000D02*
D03*
Y52000D02*
D03*
X116000Y54000D02*
D03*
Y52000D02*
D03*
X114000D02*
D03*
X112000D02*
D03*
X110000Y74000D02*
D03*
Y68000D02*
D03*
Y52000D02*
D03*
X108000Y76000D02*
D03*
Y74000D02*
D03*
Y72000D02*
D03*
Y70000D02*
D03*
Y68000D02*
D03*
Y52000D02*
D03*
X106000Y76000D02*
D03*
Y74000D02*
D03*
Y72000D02*
D03*
Y66000D02*
D03*
Y62000D02*
D03*
Y60000D02*
D03*
Y54000D02*
D03*
Y52000D02*
D03*
X104000Y76000D02*
D03*
Y74000D02*
D03*
Y54000D02*
D03*
Y52000D02*
D03*
X102000Y76000D02*
D03*
Y74000D02*
D03*
Y54000D02*
D03*
Y52000D02*
D03*
X100000Y76000D02*
D03*
Y74000D02*
D03*
Y72000D02*
D03*
Y70000D02*
D03*
Y54000D02*
D03*
Y52000D02*
D03*
X98000Y76000D02*
D03*
Y74000D02*
D03*
Y72000D02*
D03*
Y60000D02*
D03*
Y58000D02*
D03*
Y56000D02*
D03*
Y54000D02*
D03*
Y52000D02*
D03*
X96000Y76000D02*
D03*
Y74000D02*
D03*
Y72000D02*
D03*
Y60000D02*
D03*
Y58000D02*
D03*
Y56000D02*
D03*
Y54000D02*
D03*
Y52000D02*
D03*
X94000Y76000D02*
D03*
Y74000D02*
D03*
Y60000D02*
D03*
Y58000D02*
D03*
Y56000D02*
D03*
Y54000D02*
D03*
Y52000D02*
D03*
X92000Y76000D02*
D03*
Y70000D02*
D03*
Y68000D02*
D03*
Y60000D02*
D03*
Y58000D02*
D03*
Y56000D02*
D03*
Y54000D02*
D03*
Y52000D02*
D03*
X90000Y72000D02*
D03*
Y70000D02*
D03*
Y68000D02*
D03*
Y60000D02*
D03*
Y58000D02*
D03*
Y56000D02*
D03*
Y54000D02*
D03*
Y52000D02*
D03*
X88000Y74000D02*
D03*
Y72000D02*
D03*
Y70000D02*
D03*
Y68000D02*
D03*
Y62000D02*
D03*
Y60000D02*
D03*
Y58000D02*
D03*
Y56000D02*
D03*
Y54000D02*
D03*
Y52000D02*
D03*
X86000Y76000D02*
D03*
Y74000D02*
D03*
Y72000D02*
D03*
Y70000D02*
D03*
Y68000D02*
D03*
Y60000D02*
D03*
Y58000D02*
D03*
Y56000D02*
D03*
Y54000D02*
D03*
Y52000D02*
D03*
X84000Y76000D02*
D03*
Y74000D02*
D03*
Y72000D02*
D03*
Y70000D02*
D03*
Y68000D02*
D03*
Y58000D02*
D03*
X82000Y76000D02*
D03*
Y74000D02*
D03*
Y72000D02*
D03*
Y70000D02*
D03*
Y68000D02*
D03*
Y58000D02*
D03*
X80000Y76000D02*
D03*
Y74000D02*
D03*
Y72000D02*
D03*
Y70000D02*
D03*
Y68000D02*
D03*
Y58000D02*
D03*
Y56000D02*
D03*
Y54000D02*
D03*
Y52000D02*
D03*
X78000Y76000D02*
D03*
Y74000D02*
D03*
Y72000D02*
D03*
Y70000D02*
D03*
Y56000D02*
D03*
Y54000D02*
D03*
Y52000D02*
D03*
X76000Y76000D02*
D03*
Y74000D02*
D03*
Y72000D02*
D03*
Y70000D02*
D03*
Y56000D02*
D03*
Y54000D02*
D03*
Y52000D02*
D03*
X74000Y76000D02*
D03*
Y74000D02*
D03*
Y72000D02*
D03*
Y54000D02*
D03*
X72000Y76000D02*
D03*
Y74000D02*
D03*
Y72000D02*
D03*
Y54000D02*
D03*
X70000Y76000D02*
D03*
Y74000D02*
D03*
Y72000D02*
D03*
Y70000D02*
D03*
Y68000D02*
D03*
Y54000D02*
D03*
Y52000D02*
D03*
X68000Y76000D02*
D03*
Y74000D02*
D03*
Y72000D02*
D03*
Y70000D02*
D03*
Y68000D02*
D03*
Y54000D02*
D03*
Y52000D02*
D03*
X66000Y76000D02*
D03*
Y74000D02*
D03*
Y72000D02*
D03*
Y54000D02*
D03*
Y52000D02*
D03*
X64000Y76000D02*
D03*
Y74000D02*
D03*
Y72000D02*
D03*
Y54000D02*
D03*
X62000Y56000D02*
D03*
Y54000D02*
D03*
Y52000D02*
D03*
X60000Y56000D02*
D03*
Y54000D02*
D03*
Y52000D02*
D03*
X58000Y64000D02*
D03*
Y62000D02*
D03*
Y60000D02*
D03*
Y58000D02*
D03*
Y56000D02*
D03*
Y54000D02*
D03*
Y52000D02*
D03*
X56000Y60000D02*
D03*
Y58000D02*
D03*
Y56000D02*
D03*
Y54000D02*
D03*
Y52000D02*
D03*
X54000Y64000D02*
D03*
Y62000D02*
D03*
Y60000D02*
D03*
Y58000D02*
D03*
Y56000D02*
D03*
Y54000D02*
D03*
Y52000D02*
D03*
X52000Y76000D02*
D03*
Y74000D02*
D03*
Y72000D02*
D03*
Y70000D02*
D03*
Y68000D02*
D03*
Y66000D02*
D03*
Y64000D02*
D03*
Y62000D02*
D03*
Y60000D02*
D03*
Y58000D02*
D03*
Y56000D02*
D03*
Y54000D02*
D03*
Y52000D02*
D03*
X95000Y67500D02*
D03*
X95000Y66750D02*
D03*
X108500Y66750D02*
D03*
X114500Y65000D02*
D03*
X106000Y69000D02*
D03*
X106500Y67500D02*
D03*
Y64500D02*
D03*
X101700Y65900D02*
D03*
X95000Y70500D02*
D03*
X101500Y71500D02*
D03*
X108500Y66000D02*
D03*
Y65250D02*
D03*
Y64500D02*
D03*
Y63750D02*
D03*
Y63000D02*
D03*
Y62250D02*
D03*
Y61500D02*
D03*
X67675Y77175D02*
D03*
X66925Y71425D02*
D03*
X74500Y59500D02*
D03*
X76000D02*
D03*
X77500D02*
D03*
Y61000D02*
D03*
Y62500D02*
D03*
Y64000D02*
D03*
X76000D02*
D03*
X74500D02*
D03*
X73500D02*
D03*
X71500Y59000D02*
D03*
X70000D02*
D03*
Y60500D02*
D03*
X68500D02*
D03*
Y59000D02*
D03*
X67000D02*
D03*
Y60500D02*
D03*
X65500D02*
D03*
Y59000D02*
D03*
X70000Y61500D02*
D03*
X69000D02*
D03*
X68000D02*
D03*
X69700Y62800D02*
D03*
X68300D02*
D03*
X69000Y63500D02*
D03*
X69700Y64200D02*
D03*
X68300D02*
D03*
X70000Y65500D02*
D03*
X69000D02*
D03*
X68000D02*
D03*
X60000Y63500D02*
D03*
Y62500D02*
D03*
Y59500D02*
D03*
Y60500D02*
D03*
Y61500D02*
D03*
M02*
