G04*
G04 #@! TF.GenerationSoftware,Altium Limited,Altium Designer,19.1.6 (110)*
G04*
G04 Layer_Color=8388736*
%FSLAX43Y43*%
%MOMM*%
G71*
G01*
G75*
%ADD17R,0.900X1.050*%
%ADD18R,1.900X1.750*%
%ADD19R,1.000X0.950*%
%ADD20R,2.500X3.200*%
%ADD21O,2.250X0.550*%
%ADD22R,1.500X1.400*%
%ADD23R,0.950X1.000*%
%ADD24R,1.100X1.250*%
%ADD25R,1.750X1.900*%
%ADD26R,1.250X1.100*%
%ADD27R,3.300X3.250*%
%ADD28R,3.250X2.550*%
%ADD29R,2.550X3.250*%
%ADD30R,0.810X1.472*%
G04:AMPARAMS|DCode=31|XSize=0.81mm|YSize=1.472mm|CornerRadius=0.139mm|HoleSize=0mm|Usage=FLASHONLY|Rotation=0.000|XOffset=0mm|YOffset=0mm|HoleType=Round|Shape=RoundedRectangle|*
%AMROUNDEDRECTD31*
21,1,0.810,1.195,0,0,0.0*
21,1,0.532,1.472,0,0,0.0*
1,1,0.278,0.266,-0.597*
1,1,0.278,-0.266,-0.597*
1,1,0.278,-0.266,0.597*
1,1,0.278,0.266,0.597*
%
%ADD31ROUNDEDRECTD31*%
G04:AMPARAMS|DCode=32|XSize=4.62mm|YSize=3.95mm|CornerRadius=0.531mm|HoleSize=0mm|Usage=FLASHONLY|Rotation=0.000|XOffset=0mm|YOffset=0mm|HoleType=Round|Shape=RoundedRectangle|*
%AMROUNDEDRECTD32*
21,1,4.620,2.888,0,0,0.0*
21,1,3.558,3.950,0,0,0.0*
1,1,1.063,1.779,-1.444*
1,1,1.063,-1.779,-1.444*
1,1,1.063,-1.779,1.444*
1,1,1.063,1.779,1.444*
%
%ADD32ROUNDEDRECTD32*%
%ADD33C,1.608*%
%ADD34R,1.608X1.608*%
%ADD35C,2.600*%
%ADD36R,2.600X2.600*%
%ADD37C,6.300*%
%ADD38C,0.700*%
D17*
X13900Y21000D02*
D03*
X12250D02*
D03*
X50800Y2475D02*
D03*
X49150D02*
D03*
D18*
X18750Y9025D02*
D03*
Y11475D02*
D03*
X23750D02*
D03*
Y9025D02*
D03*
X21250Y11475D02*
D03*
Y9025D02*
D03*
X16250Y11475D02*
D03*
Y9025D02*
D03*
D19*
X16000Y20725D02*
D03*
Y22275D02*
D03*
X27250Y4750D02*
D03*
Y6300D02*
D03*
X20750D02*
D03*
Y4750D02*
D03*
X24000Y4725D02*
D03*
Y6275D02*
D03*
X7000Y9725D02*
D03*
Y11275D02*
D03*
D20*
X30000Y11250D02*
D03*
D21*
X32875Y9345D02*
D03*
Y10615D02*
D03*
Y11885D02*
D03*
Y13155D02*
D03*
X27125Y9345D02*
D03*
Y10615D02*
D03*
Y11885D02*
D03*
Y13155D02*
D03*
D22*
X6900Y13550D02*
D03*
Y15850D02*
D03*
X10500Y6800D02*
D03*
Y4500D02*
D03*
D23*
X49225Y4300D02*
D03*
X50775D02*
D03*
X43425Y4750D02*
D03*
X41875D02*
D03*
X41900Y2750D02*
D03*
X43450D02*
D03*
X34275Y6300D02*
D03*
X32725D02*
D03*
D24*
X27000Y15250D02*
D03*
Y16650D02*
D03*
X30500Y4750D02*
D03*
Y6150D02*
D03*
D25*
X35350Y4100D02*
D03*
X32900D02*
D03*
D26*
X48000Y22800D02*
D03*
X49400D02*
D03*
X48000Y20800D02*
D03*
X49400D02*
D03*
X47950Y18800D02*
D03*
X49350D02*
D03*
X48000Y16800D02*
D03*
X49400D02*
D03*
D27*
X42600Y12200D02*
D03*
X48200D02*
D03*
D28*
X37300Y14550D02*
D03*
Y20250D02*
D03*
X11500Y11500D02*
D03*
Y17200D02*
D03*
D29*
X1650Y3500D02*
D03*
X7350D02*
D03*
D30*
X17020Y6500D02*
D03*
D31*
X15750D02*
D03*
X14480D02*
D03*
X13210D02*
D03*
X17020Y960D02*
D03*
X15750D02*
D03*
X14480D02*
D03*
X13210D02*
D03*
D32*
X15115Y2780D02*
D03*
D33*
X3100Y10730D02*
D03*
D34*
Y13270D02*
D03*
D35*
X54500Y15750D02*
D03*
X58700D02*
D03*
Y21250D02*
D03*
D36*
X54500D02*
D03*
D37*
X3500Y20250D02*
D03*
X59100Y3000D02*
D03*
D38*
X29250Y11250D02*
D03*
X30750D02*
D03*
Y10250D02*
D03*
X29250D02*
D03*
X30750Y12250D02*
D03*
X29250D02*
D03*
M02*
