M48
;Layer_Color=9474304
;FILE_FORMAT=4:3
METRIC,LZ
;TYPE=PLATED
T1F00S00C0.300
T2F00S00C1.000
T3F00S00C1.400
T4F00S00C2.700
%
T01
X0032675Y00075
X003075Y001025
Y001125
Y001225
X003475Y00105
X00368Y00126
X002925Y001225
Y001125
Y001025
X002525Y00115
X00247Y00076
X002275Y000725
X00193Y0007
X002725Y00035
X0027Y00185
T02
X00031Y001073
Y001327
T03
X00545Y001575
X00587
Y002125
X00545
T04
X00591Y0003
X00035Y002025
M30
