G04*
G04 #@! TF.GenerationSoftware,Altium Limited,Altium Designer,19.1.6 (110)*
G04*
G04 Layer_Physical_Order=1*
G04 Layer_Color=255*
%FSLAX43Y43*%
%MOMM*%
G71*
G01*
G75*
%ADD39R,0.800X0.950*%
%ADD40R,1.800X1.650*%
%ADD41R,0.900X0.850*%
%ADD42R,2.400X3.100*%
%ADD43O,2.150X0.450*%
%ADD44R,1.400X1.300*%
%ADD45R,0.850X0.900*%
%ADD46R,1.000X1.150*%
%ADD47R,1.650X1.800*%
%ADD48R,1.150X1.000*%
%ADD49R,3.200X3.150*%
%ADD50R,3.150X2.450*%
%ADD51R,2.450X3.150*%
%ADD52R,0.710X1.372*%
G04:AMPARAMS|DCode=53|XSize=0.71mm|YSize=1.372mm|CornerRadius=0.089mm|HoleSize=0mm|Usage=FLASHONLY|Rotation=0.000|XOffset=0mm|YOffset=0mm|HoleType=Round|Shape=RoundedRectangle|*
%AMROUNDEDRECTD53*
21,1,0.710,1.195,0,0,0.0*
21,1,0.532,1.372,0,0,0.0*
1,1,0.178,0.266,-0.597*
1,1,0.178,-0.266,-0.597*
1,1,0.178,-0.266,0.597*
1,1,0.178,0.266,0.597*
%
%ADD53ROUNDEDRECTD53*%
G04:AMPARAMS|DCode=54|XSize=4.52mm|YSize=3.85mm|CornerRadius=0.481mm|HoleSize=0mm|Usage=FLASHONLY|Rotation=0.000|XOffset=0mm|YOffset=0mm|HoleType=Round|Shape=RoundedRectangle|*
%AMROUNDEDRECTD54*
21,1,4.520,2.888,0,0,0.0*
21,1,3.558,3.850,0,0,0.0*
1,1,0.963,1.779,-1.444*
1,1,0.963,-1.779,-1.444*
1,1,0.963,-1.779,1.444*
1,1,0.963,1.779,1.444*
%
%ADD54ROUNDEDRECTD54*%
%ADD55C,0.300*%
%ADD56C,0.500*%
%ADD57C,1.508*%
%ADD58R,1.508X1.508*%
%ADD59C,2.500*%
%ADD60R,2.500X2.500*%
%ADD61C,6.200*%
%ADD62C,0.600*%
G36*
X61700Y23800D02*
X61700Y19600D01*
X59024D01*
X59004Y19722D01*
X59296Y19811D01*
X59565Y19955D01*
X59801Y20149D01*
X59995Y20385D01*
X60137Y20650D01*
X57263D01*
X57405Y20385D01*
X57599Y20149D01*
X57835Y19955D01*
X58104Y19811D01*
X58396Y19722D01*
X58376Y19600D01*
X56115Y19600D01*
X56050Y19727D01*
Y20650D01*
X52950D01*
Y19727D01*
X52950Y19700D01*
X52885Y19600D01*
X52200D01*
X52200Y10200D01*
X50105D01*
X50100Y10325D01*
X50100Y10327D01*
Y11200D01*
X48200D01*
X46300D01*
Y10327D01*
X46300Y10325D01*
X46295Y10200D01*
X45800D01*
Y14500D01*
X47000Y15400D01*
X48700D01*
Y16100D01*
X49100D01*
Y16800D01*
Y17500D01*
X48700D01*
Y18100D01*
X49050D01*
Y18800D01*
Y19500D01*
X48700D01*
Y20100D01*
X49100D01*
Y20800D01*
Y21500D01*
X48700D01*
Y22100D01*
X49100D01*
Y22800D01*
Y23500D01*
X48700D01*
Y23945D01*
X61555D01*
X61700Y23800D01*
D02*
G37*
G36*
X62445Y4402D02*
X62318Y4377D01*
X62228Y4594D01*
X61940Y5064D01*
X61583Y5483D01*
X61164Y5840D01*
X60694Y6128D01*
X60185Y6339D01*
X60100Y6359D01*
Y3000D01*
X59100D01*
Y2000D01*
X55741D01*
X55761Y1915D01*
X55972Y1406D01*
X56260Y936D01*
X56617Y517D01*
X57036Y160D01*
X57506Y-128D01*
X57965Y-318D01*
X57939Y-445D01*
X-45D01*
Y19480D01*
X82Y19495D01*
X161Y19165D01*
X372Y18656D01*
X660Y18186D01*
X1017Y17767D01*
X1436Y17410D01*
X1906Y17122D01*
X2415Y16911D01*
X2500Y16891D01*
Y20250D01*
Y23609D01*
X2415Y23589D01*
X1906Y23378D01*
X1436Y23090D01*
X1017Y22733D01*
X660Y22314D01*
X372Y21844D01*
X161Y21335D01*
X82Y21005D01*
X-45Y21020D01*
Y23945D01*
X48496D01*
Y23500D01*
X48300D01*
Y22800D01*
Y22100D01*
X48496D01*
Y21500D01*
X48300D01*
Y20800D01*
Y20100D01*
X48496D01*
Y19500D01*
X48250D01*
Y18800D01*
Y18100D01*
X48496D01*
Y17500D01*
X48300D01*
Y16800D01*
Y16100D01*
X48496D01*
Y15604D01*
X47000D01*
X46975Y15599D01*
X46949Y15598D01*
X46936Y15591D01*
X46922Y15588D01*
X46901Y15574D01*
X46878Y15563D01*
X45678Y14663D01*
X45668Y14652D01*
X45656Y14644D01*
X45642Y14623D01*
X45625Y14604D01*
X45620Y14590D01*
X45612Y14578D01*
X45607Y14553D01*
X45598Y14529D01*
X45599Y14514D01*
X45596Y14500D01*
Y10200D01*
X45612Y10122D01*
X45656Y10056D01*
X45722Y10012D01*
X45800Y9996D01*
X46295D01*
X46330Y10003D01*
X46366Y10009D01*
X46369Y10011D01*
X46373Y10012D01*
X46403Y10032D01*
X46434Y10050D01*
X46436Y10054D01*
X46439Y10056D01*
X46459Y10086D01*
X46480Y10115D01*
X46481Y10119D01*
X46484Y10122D01*
X46491Y10157D01*
X46499Y10192D01*
X46504Y10317D01*
X46539Y10372D01*
X46579Y10425D01*
X49820D01*
X49861Y10372D01*
X49896Y10317D01*
X49901Y10192D01*
X49909Y10157D01*
X49916Y10122D01*
X49919Y10119D01*
X49920Y10115D01*
X49941Y10086D01*
X49961Y10056D01*
X49964Y10054D01*
X49966Y10050D01*
X49997Y10032D01*
X50027Y10012D01*
X50031Y10011D01*
X50034Y10009D01*
X50070Y10003D01*
X50105Y9996D01*
X52200D01*
X52278Y10012D01*
X52344Y10056D01*
X52388Y10122D01*
X52404Y10200D01*
X52404Y19396D01*
X52885D01*
X52906Y19400D01*
X52927Y19400D01*
X52944Y19408D01*
X52963Y19412D01*
X52981Y19423D01*
X53000Y19432D01*
X53013Y19445D01*
X53029Y19456D01*
X53041Y19473D01*
X53056Y19489D01*
X53121Y19589D01*
X53128Y19606D01*
X53138Y19622D01*
X53143Y19643D01*
X53150Y19663D01*
X53150Y19674D01*
X53159Y19731D01*
X53246Y19800D01*
X55759D01*
X55847Y19710D01*
X55855Y19680D01*
X55862Y19649D01*
X55866Y19642D01*
X55869Y19634D01*
X55934Y19507D01*
X55953Y19482D01*
X55971Y19456D01*
X55978Y19451D01*
X55983Y19445D01*
X56011Y19429D01*
X56037Y19412D01*
X56045Y19410D01*
X56053Y19406D01*
X56084Y19402D01*
X56115Y19396D01*
X58376Y19396D01*
X58400Y19401D01*
X58423Y19402D01*
X58438Y19408D01*
X58454Y19412D01*
X58474Y19425D01*
X58496Y19435D01*
X58507Y19447D01*
X58520Y19456D01*
X58534Y19475D01*
X58550Y19493D01*
X58556Y19508D01*
X58565Y19522D01*
X58569Y19545D01*
X58578Y19567D01*
X58597Y19690D01*
X58621Y19714D01*
X58779D01*
X58803Y19690D01*
X58822Y19567D01*
X58831Y19545D01*
X58835Y19522D01*
X58844Y19508D01*
X58850Y19493D01*
X58866Y19475D01*
X58880Y19456D01*
X58893Y19447D01*
X58904Y19435D01*
X58926Y19425D01*
X58946Y19412D01*
X58962Y19408D01*
X58977Y19402D01*
X59000Y19401D01*
X59024Y19396D01*
X60643D01*
Y12348D01*
X55552Y7257D01*
X47600D01*
X47463Y7230D01*
X47348Y7152D01*
X45448Y5252D01*
X45370Y5137D01*
X45343Y5000D01*
Y3057D01*
X44105D01*
X44080Y3187D01*
X44075Y3194D01*
Y3400D01*
X43784D01*
X43750Y3407D01*
X43725D01*
X43691Y3400D01*
X42825D01*
Y2100D01*
X44075D01*
Y2343D01*
X45524D01*
X45661Y2370D01*
X45777Y2448D01*
X45952Y2623D01*
X46030Y2739D01*
X46057Y2876D01*
Y4852D01*
X47748Y6543D01*
X49373D01*
X49421Y6426D01*
X48973Y5977D01*
X48895Y5862D01*
X48868Y5725D01*
Y4950D01*
X48600D01*
Y3650D01*
X49850D01*
Y4950D01*
X49582D01*
Y5577D01*
X50548Y6543D01*
X55700D01*
X55837Y6570D01*
X55952Y6648D01*
X61252Y11948D01*
X61330Y12063D01*
X61357Y12200D01*
Y19396D01*
X61700D01*
X61778Y19412D01*
X61844Y19456D01*
X61888Y19522D01*
X61904Y19600D01*
X61904Y23800D01*
X61904Y23800D01*
X61900Y23818D01*
X61977Y23934D01*
X61995Y23945D01*
X62445D01*
Y4402D01*
D02*
G37*
G36*
Y1598D02*
Y-445D01*
X60261D01*
X60235Y-318D01*
X60694Y-128D01*
X61164Y160D01*
X61583Y517D01*
X61940Y936D01*
X62228Y1406D01*
X62318Y1623D01*
X62445Y1598D01*
D02*
G37*
%LPC*%
G36*
X50175Y23500D02*
X49700D01*
Y23100D01*
X50175D01*
Y23500D01*
D02*
G37*
G36*
Y22500D02*
X49700D01*
Y22100D01*
X50175D01*
Y22500D01*
D02*
G37*
G36*
X59300Y22687D02*
Y21850D01*
X60137D01*
X59995Y22115D01*
X59801Y22351D01*
X59565Y22545D01*
X59300Y22687D01*
D02*
G37*
G36*
X58100D02*
X57835Y22545D01*
X57599Y22351D01*
X57405Y22115D01*
X57263Y21850D01*
X58100D01*
Y22687D01*
D02*
G37*
G36*
X56050Y22800D02*
X55100D01*
Y21850D01*
X56050D01*
Y22800D01*
D02*
G37*
G36*
X53900D02*
X52950D01*
Y21850D01*
X53900D01*
Y22800D01*
D02*
G37*
G36*
X50175Y21500D02*
X49700D01*
Y21100D01*
X50175D01*
Y21500D01*
D02*
G37*
G36*
Y20500D02*
X49700D01*
Y20100D01*
X50175D01*
Y20500D01*
D02*
G37*
G36*
X50125Y19500D02*
X49650D01*
Y19100D01*
X50125D01*
Y19500D01*
D02*
G37*
G36*
Y18500D02*
X49650D01*
Y18100D01*
X50125D01*
Y18500D01*
D02*
G37*
G36*
X50175Y17500D02*
X49700D01*
Y17100D01*
X50175D01*
Y17500D01*
D02*
G37*
G36*
Y16500D02*
X49700D01*
Y16100D01*
X50175D01*
Y16500D01*
D02*
G37*
G36*
X50100Y14075D02*
X49200D01*
Y13200D01*
X50100D01*
Y14075D01*
D02*
G37*
G36*
X47200D02*
X46300D01*
Y13200D01*
X47200D01*
Y14075D01*
D02*
G37*
G36*
X47700Y23500D02*
X47225D01*
Y23100D01*
X47700D01*
Y23500D01*
D02*
G37*
G36*
X16650Y22900D02*
X16300D01*
Y22575D01*
X16650D01*
Y22900D01*
D02*
G37*
G36*
X15700D02*
X15350D01*
Y22575D01*
X15700D01*
Y22900D01*
D02*
G37*
G36*
X47700Y22500D02*
X47225D01*
Y22100D01*
X47700D01*
Y22500D01*
D02*
G37*
G36*
X16650Y21975D02*
X16300D01*
Y21650D01*
X16650D01*
Y21975D01*
D02*
G37*
G36*
X15700D02*
X15350D01*
Y21650D01*
X15700D01*
Y21975D01*
D02*
G37*
G36*
X4500Y23609D02*
Y21250D01*
X6859D01*
X6839Y21335D01*
X6628Y21844D01*
X6340Y22314D01*
X5983Y22733D01*
X5564Y23090D01*
X5094Y23378D01*
X4585Y23589D01*
X4500Y23609D01*
D02*
G37*
G36*
X47700Y21500D02*
X47225D01*
Y21100D01*
X47700D01*
Y21500D01*
D02*
G37*
G36*
X39075Y21675D02*
X38000D01*
Y20950D01*
X39075D01*
Y21675D01*
D02*
G37*
G36*
X36600D02*
X35525D01*
Y20950D01*
X36600D01*
Y21675D01*
D02*
G37*
G36*
X47700Y20500D02*
X47225D01*
Y20100D01*
X47700D01*
Y20500D01*
D02*
G37*
G36*
X14500Y21675D02*
X13300D01*
Y20325D01*
X14500D01*
Y20404D01*
X15350D01*
Y20100D01*
X16650D01*
Y21350D01*
X15350D01*
Y21321D01*
X14500D01*
Y21675D01*
D02*
G37*
G36*
X47650Y19500D02*
X47175D01*
Y19100D01*
X47650D01*
Y19500D01*
D02*
G37*
G36*
X39075Y19550D02*
X38000D01*
Y18825D01*
X39075D01*
Y19550D01*
D02*
G37*
G36*
X36600D02*
X35525D01*
Y18825D01*
X36600D01*
Y19550D01*
D02*
G37*
G36*
X47650Y18500D02*
X47175D01*
Y18100D01*
X47650D01*
Y18500D01*
D02*
G37*
G36*
X47700Y17500D02*
X47225D01*
Y17100D01*
X47700D01*
Y17500D01*
D02*
G37*
G36*
X6859Y19250D02*
X4500D01*
Y16891D01*
X4585Y16911D01*
X5094Y17122D01*
X5564Y17410D01*
X5983Y17767D01*
X6340Y18186D01*
X6628Y18656D01*
X6839Y19165D01*
X6859Y19250D01*
D02*
G37*
G36*
X59300Y17187D02*
Y16350D01*
X60137D01*
X59995Y16615D01*
X59801Y16851D01*
X59565Y17045D01*
X59300Y17187D01*
D02*
G37*
G36*
X58100D02*
X57835Y17045D01*
X57599Y16851D01*
X57405Y16615D01*
X57263Y16350D01*
X58100D01*
Y17187D01*
D02*
G37*
G36*
X55100D02*
Y16350D01*
X55937D01*
X55795Y16615D01*
X55601Y16851D01*
X55365Y17045D01*
X55100Y17187D01*
D02*
G37*
G36*
X53900D02*
X53635Y17045D01*
X53399Y16851D01*
X53205Y16615D01*
X53063Y16350D01*
X53900D01*
Y17187D01*
D02*
G37*
G36*
X7800Y16700D02*
X7330D01*
Y16280D01*
X7800D01*
Y16700D01*
D02*
G37*
G36*
X6470D02*
X6000D01*
Y16280D01*
X6470D01*
Y16700D01*
D02*
G37*
G36*
X47700Y16500D02*
X47225D01*
Y16100D01*
X47700D01*
Y16500D01*
D02*
G37*
G36*
X12850Y21675D02*
X11650D01*
Y20325D01*
X11791D01*
Y18625D01*
X9725D01*
Y15775D01*
X13275D01*
Y18625D01*
X12709D01*
Y20325D01*
X12850D01*
Y21675D01*
D02*
G37*
G36*
X7800Y15420D02*
X7330D01*
Y15000D01*
X7800D01*
Y15420D01*
D02*
G37*
G36*
X6470D02*
X6000D01*
Y15000D01*
X6470D01*
Y15420D01*
D02*
G37*
G36*
X60137Y15150D02*
X59300D01*
Y14313D01*
X59565Y14455D01*
X59801Y14649D01*
X59995Y14885D01*
X60137Y15150D01*
D02*
G37*
G36*
X58100D02*
X57263D01*
X57405Y14885D01*
X57599Y14649D01*
X57835Y14455D01*
X58100Y14313D01*
Y15150D01*
D02*
G37*
G36*
X55937D02*
X55100D01*
Y14313D01*
X55365Y14455D01*
X55601Y14649D01*
X55795Y14885D01*
X55937Y15150D01*
D02*
G37*
G36*
X53900D02*
X53063D01*
X53205Y14885D01*
X53399Y14649D01*
X53635Y14455D01*
X53900Y14313D01*
Y15150D01*
D02*
G37*
G36*
X44600Y16804D02*
X32300D01*
X32222Y16788D01*
X32156Y16744D01*
X32112Y16678D01*
X32096Y16600D01*
Y13588D01*
X32025D01*
X31859Y13555D01*
X31719Y13461D01*
X31625Y13321D01*
X31592Y13155D01*
X31625Y12989D01*
X31719Y12849D01*
X31859Y12755D01*
X32025Y12722D01*
X32096D01*
Y12500D01*
X32107Y12445D01*
X32062Y12360D01*
X32028Y12318D01*
X32025D01*
X31859Y12285D01*
X31719Y12191D01*
X31625Y12051D01*
X31625Y12050D01*
X32875D01*
X34126D01*
X34125Y12051D01*
X34046Y12169D01*
X34072Y12251D01*
X34103Y12296D01*
X34815D01*
X35181Y12034D01*
X38261Y9834D01*
X38283Y9825D01*
X38252Y9702D01*
X35628D01*
X35604Y9829D01*
X35644Y9856D01*
X35688Y9922D01*
X35704Y10000D01*
Y11000D01*
X35688Y11078D01*
X35644Y11144D01*
X35578Y11188D01*
X35500Y11204D01*
X34125D01*
X34092Y11197D01*
X34058Y11193D01*
X34053Y11190D01*
X34047Y11188D01*
X34019Y11169D01*
X33989Y11152D01*
X33986Y11147D01*
X33981Y11144D01*
X33964Y11119D01*
X33960Y11113D01*
X33941Y11089D01*
X33939Y11083D01*
X33891Y11015D01*
X33725Y11048D01*
X32025D01*
X31859Y11015D01*
X31719Y10921D01*
X31625Y10781D01*
X31592Y10615D01*
X31625Y10449D01*
X31719Y10309D01*
X31859Y10215D01*
X32025Y10182D01*
X32796D01*
Y10000D01*
X32812Y9922D01*
X32823Y9905D01*
X32761Y9778D01*
X32025D01*
X31859Y9745D01*
X31719Y9651D01*
X31625Y9511D01*
X31592Y9345D01*
X31625Y9179D01*
X31719Y9039D01*
X31859Y8945D01*
X32025Y8912D01*
X33725D01*
X33891Y8945D01*
X33956Y8988D01*
X38307D01*
X41518Y5777D01*
Y5400D01*
X41250D01*
Y4100D01*
X41531D01*
Y3400D01*
X41275D01*
Y2100D01*
X42525D01*
Y3400D01*
X42244D01*
Y4100D01*
X42500D01*
Y5400D01*
X42232D01*
Y5925D01*
X42205Y6062D01*
X42127Y6177D01*
X38707Y9597D01*
X38600Y9669D01*
X38599Y9678D01*
X38673Y9796D01*
X44600D01*
X44678Y9812D01*
X44744Y9856D01*
X44788Y9922D01*
X44804Y10000D01*
Y10260D01*
X44800Y10281D01*
X44800Y10302D01*
X44792Y10319D01*
X44788Y10338D01*
X44777Y10356D01*
X44768Y10375D01*
X44755Y10388D01*
X44744Y10404D01*
X44727Y10416D01*
X44711Y10431D01*
X44611Y10496D01*
X44594Y10503D01*
X44578Y10513D01*
X44557Y10518D01*
X44537Y10525D01*
X44526Y10525D01*
X44469Y10534D01*
X44400Y10621D01*
Y13779D01*
X44469Y13866D01*
X44526Y13875D01*
X44537Y13875D01*
X44557Y13882D01*
X44578Y13887D01*
X44594Y13897D01*
X44611Y13904D01*
X44711Y13969D01*
X44727Y13984D01*
X44744Y13996D01*
X44755Y14012D01*
X44768Y14025D01*
X44777Y14045D01*
X44788Y14062D01*
X44792Y14081D01*
X44800Y14098D01*
X44800Y14119D01*
X44804Y14140D01*
Y16600D01*
X44788Y16678D01*
X44744Y16744D01*
X44678Y16788D01*
X44600Y16804D01*
D02*
G37*
G36*
X27000Y19010D02*
X26805Y18971D01*
X26640Y18860D01*
X26529Y18695D01*
X26490Y18500D01*
X26529Y18305D01*
X26541Y18287D01*
Y17425D01*
X26300D01*
Y15875D01*
Y14475D01*
X26541D01*
Y13588D01*
X26275D01*
X26109Y13555D01*
X25969Y13461D01*
X25875Y13321D01*
X25842Y13155D01*
X25872Y13003D01*
X25848Y12944D01*
X25810Y12881D01*
X25057Y12950D01*
X24591Y13182D01*
X24584Y13184D01*
X24578Y13188D01*
X24546Y13195D01*
X24514Y13203D01*
X24507Y13202D01*
X24500Y13204D01*
X13371D01*
X13344Y13199D01*
X13316Y13196D01*
X13305Y13191D01*
X13293Y13188D01*
X13270Y13173D01*
X13245Y13161D01*
X13149Y13086D01*
X13141Y13076D01*
X13131Y13069D01*
X13115Y13046D01*
X13097Y13025D01*
X13094Y13013D01*
X13087Y13003D01*
X13081Y12976D01*
X13073Y12950D01*
X12948Y12925D01*
X10047D01*
X9926Y12957D01*
X9907Y13076D01*
X9899Y13099D01*
X9894Y13122D01*
X9885Y13136D01*
X9880Y13151D01*
X9863Y13168D01*
X9850Y13188D01*
X8294Y14744D01*
X8294Y14744D01*
X8228Y14788D01*
X8150Y14804D01*
X1700Y14804D01*
X1622Y14788D01*
X1556Y14744D01*
X1512Y14678D01*
X1496Y14600D01*
X1496Y12100D01*
X1512Y12022D01*
X1556Y11956D01*
X1622Y11912D01*
X1700Y11896D01*
X2019D01*
X2036Y11899D01*
X2054Y11899D01*
X2075Y11907D01*
X2097Y11912D01*
X2112Y11921D01*
X2128Y11927D01*
X2145Y11943D01*
X2164Y11956D01*
X2173Y11970D01*
X2186Y11982D01*
X2195Y12003D01*
X2208Y12022D01*
X2211Y12039D01*
X2218Y12055D01*
X2245Y12171D01*
X2245Y12193D01*
X2250Y12216D01*
X2250Y12227D01*
X2332Y12316D01*
X3950D01*
Y12227D01*
X3954Y12206D01*
X3954Y12185D01*
X3981Y12058D01*
X3988Y12041D01*
X3992Y12022D01*
X4004Y12004D01*
X4012Y11985D01*
X4026Y11972D01*
X4036Y11956D01*
X4054Y11944D01*
X4069Y11929D01*
X4087Y11922D01*
X4103Y11912D01*
X4123Y11907D01*
X4143Y11900D01*
X4162Y11900D01*
X4181Y11896D01*
X5796Y11896D01*
X5796Y10750D01*
X5812Y10672D01*
X5856Y10606D01*
X5915Y10566D01*
X5922Y10510D01*
Y10490D01*
X5915Y10434D01*
X5856Y10394D01*
X5812Y10328D01*
X5796Y10250D01*
Y9250D01*
X5812Y9172D01*
X5856Y9106D01*
X5856Y9106D01*
X8856Y6106D01*
X8922Y6062D01*
X9000Y6046D01*
X9600D01*
Y5950D01*
X11400D01*
Y5950D01*
X11459Y6004D01*
X12537Y5906D01*
X12545Y5905D01*
X12546Y5905D01*
X12621Y5903D01*
X12669Y5802D01*
X12672Y5790D01*
X12736Y5695D01*
X12831Y5631D01*
X12944Y5608D01*
X13476D01*
X13589Y5631D01*
X13684Y5695D01*
X13748Y5790D01*
X13771Y5903D01*
Y7097D01*
X13796Y7115D01*
X13811Y7113D01*
X13919Y7047D01*
Y5903D01*
X13942Y5790D01*
X14006Y5695D01*
X14101Y5631D01*
X14214Y5608D01*
X14746D01*
X14799Y5619D01*
X14826Y5546D01*
X14844Y5518D01*
X14860Y5489D01*
X14875Y5470D01*
X14883Y5464D01*
X14888Y5456D01*
X14913Y5439D01*
X14937Y5420D01*
X14946Y5417D01*
X14954Y5412D01*
X14984Y5406D01*
X15013Y5397D01*
X15023Y5398D01*
X15032Y5396D01*
X15198D01*
X15207Y5398D01*
X15217Y5397D01*
X15246Y5406D01*
X15276Y5412D01*
X15284Y5417D01*
X15293Y5420D01*
X15317Y5439D01*
X15342Y5456D01*
X15347Y5464D01*
X15355Y5470D01*
X15370Y5489D01*
X15386Y5518D01*
X15404Y5546D01*
X15431Y5619D01*
X15484Y5608D01*
X16016D01*
X16069Y5619D01*
X16096Y5546D01*
X16114Y5518D01*
X16130Y5489D01*
X16145Y5470D01*
X16153Y5464D01*
X16158Y5456D01*
X16183Y5439D01*
X16207Y5420D01*
X16216Y5417D01*
X16224Y5412D01*
X16254Y5406D01*
X16283Y5397D01*
X16293Y5398D01*
X16302Y5396D01*
X16344D01*
X16355Y5398D01*
X16367Y5397D01*
X16488Y5411D01*
X16515Y5420D01*
X16543Y5426D01*
X16553Y5432D01*
X16564Y5436D01*
X16586Y5454D01*
X16609Y5470D01*
X16616Y5480D01*
X16625Y5487D01*
X16638Y5512D01*
X16653Y5536D01*
X16656Y5548D01*
X16661Y5558D01*
X16663Y5586D01*
X16669Y5614D01*
X17575D01*
Y7294D01*
X17618Y7340D01*
X17620Y7343D01*
X17623Y7345D01*
X17641Y7377D01*
X17660Y7407D01*
X17660Y7411D01*
X17662Y7414D01*
X17667Y7450D01*
X17673Y7486D01*
X17778Y7544D01*
X18971Y7534D01*
X19009Y7407D01*
X18940Y7360D01*
X18829Y7195D01*
X18790Y7000D01*
X18829Y6805D01*
X18940Y6640D01*
X19105Y6529D01*
X19300Y6490D01*
X19460Y6522D01*
X19854D01*
X20100Y6276D01*
Y5675D01*
X21400D01*
Y6925D01*
X20749D01*
X20369Y7305D01*
X20329Y7332D01*
X20296Y7504D01*
X20310Y7524D01*
X22181Y7510D01*
X22267Y7382D01*
X22240Y7250D01*
X22279Y7055D01*
X22390Y6890D01*
X22555Y6779D01*
X22750Y6740D01*
X22945Y6779D01*
X22963Y6791D01*
X23317D01*
X23341Y6767D01*
Y6450D01*
X23350Y6406D01*
Y5650D01*
X24650D01*
Y6900D01*
X24725Y6996D01*
X24900D01*
X24978Y7012D01*
X25044Y7056D01*
X25099Y7110D01*
X25216Y7062D01*
Y5265D01*
X25135Y5184D01*
X24650D01*
Y5350D01*
X23350D01*
Y5196D01*
X21400D01*
Y5375D01*
X20100D01*
Y4125D01*
X21400D01*
Y4279D01*
X23350D01*
Y4100D01*
X24650D01*
Y4266D01*
X25325D01*
X25501Y4301D01*
X25649Y4401D01*
X25999Y4751D01*
X26099Y4899D01*
X26134Y5075D01*
Y8840D01*
X26232Y8920D01*
X26275Y8912D01*
X26666D01*
Y6925D01*
X26600D01*
Y5675D01*
X27900D01*
Y6925D01*
X27584D01*
Y8912D01*
X27975D01*
X28141Y8945D01*
X28281Y9039D01*
X28375Y9179D01*
X28408Y9345D01*
X28375Y9511D01*
X28281Y9651D01*
X28141Y9745D01*
X27975Y9778D01*
X27253D01*
X27125Y9804D01*
X26997Y9778D01*
X26317D01*
X26261Y9888D01*
X26260Y9901D01*
X26515Y10156D01*
X27125D01*
X27253Y10182D01*
X27975D01*
X28141Y10215D01*
X28281Y10309D01*
X28375Y10449D01*
X28408Y10615D01*
X28375Y10781D01*
X28281Y10921D01*
X28141Y11015D01*
X27975Y11048D01*
X27253D01*
X27125Y11074D01*
X26325D01*
X26149Y11039D01*
X26116Y11017D01*
X26109Y11015D01*
X25969Y10921D01*
X25941Y10879D01*
X25351Y10289D01*
X25251Y10141D01*
X25244Y10103D01*
X25202Y10090D01*
X25109Y10076D01*
X25055Y10111D01*
X24977Y10127D01*
X24899Y10111D01*
X24772Y10059D01*
X24759Y10050D01*
X22844D01*
X22838Y10078D01*
X22794Y10144D01*
X22728Y10188D01*
X22650Y10204D01*
X22350D01*
X22272Y10188D01*
X22206Y10144D01*
X22162Y10078D01*
X22156Y10050D01*
X20344D01*
X20338Y10078D01*
X20294Y10144D01*
X20228Y10188D01*
X20150Y10204D01*
X19850D01*
X19772Y10188D01*
X19706Y10144D01*
X19662Y10078D01*
X19656Y10050D01*
X17844D01*
X17838Y10078D01*
X17794Y10144D01*
X17728Y10188D01*
X17650Y10204D01*
X17350D01*
X17272Y10188D01*
X17206Y10144D01*
X17162Y10078D01*
X17156Y10050D01*
X15268D01*
X15215Y10177D01*
X15240Y10201D01*
X15257Y10227D01*
X15277Y10251D01*
X15331Y10356D01*
X15333Y10364D01*
X15338Y10372D01*
X15344Y10402D01*
X15353Y10432D01*
X15479Y10450D01*
X17350D01*
Y10546D01*
X17650D01*
Y10450D01*
X19850D01*
Y10546D01*
X20150D01*
Y10450D01*
X22350D01*
Y10546D01*
X22650D01*
Y10450D01*
X24850D01*
Y10546D01*
X25250D01*
X25328Y10562D01*
X25394Y10606D01*
X25394Y10606D01*
X26087Y11299D01*
X26099Y11316D01*
X26114Y11331D01*
X26121Y11349D01*
X26131Y11365D01*
X26236Y11459D01*
X26275Y11452D01*
X27975D01*
X28141Y11485D01*
X28281Y11579D01*
X28375Y11719D01*
X28408Y11885D01*
X28375Y12051D01*
X28281Y12191D01*
X28141Y12285D01*
X27975Y12318D01*
X27954D01*
Y12500D01*
X27948Y12530D01*
X27945Y12561D01*
X27940Y12569D01*
X27938Y12578D01*
X27927Y12595D01*
X27937Y12638D01*
X27961Y12692D01*
X27963Y12695D01*
X27989Y12724D01*
X28141Y12755D01*
X28281Y12849D01*
X28375Y12989D01*
X28408Y13155D01*
X28375Y13321D01*
X28281Y13461D01*
X28141Y13555D01*
X27975Y13588D01*
X27459D01*
Y14475D01*
X27700D01*
Y15875D01*
Y17425D01*
X27459D01*
Y18287D01*
X27471Y18305D01*
X27510Y18500D01*
X27471Y18695D01*
X27360Y18860D01*
X27195Y18971D01*
X27000Y19010D01*
D02*
G37*
G36*
X31400Y13000D02*
X30700D01*
Y11950D01*
X31400D01*
Y13000D01*
D02*
G37*
G36*
X29300D02*
X28600D01*
Y11950D01*
X29300D01*
Y13000D01*
D02*
G37*
G36*
X34125Y11720D02*
X33040D01*
Y11452D01*
X33725D01*
X33891Y11485D01*
X34031Y11579D01*
X34125Y11719D01*
X34125Y11720D01*
D02*
G37*
G36*
X32710D02*
X31625D01*
X31625Y11719D01*
X31719Y11579D01*
X31859Y11485D01*
X32025Y11452D01*
X32710D01*
Y11720D01*
D02*
G37*
G36*
X3500Y11705D02*
Y11130D01*
X4075D01*
X4021Y11262D01*
X3852Y11482D01*
X3632Y11651D01*
X3500Y11705D01*
D02*
G37*
G36*
X2700Y11705D02*
X2568Y11651D01*
X2348Y11482D01*
X2179Y11262D01*
X2125Y11130D01*
X2700D01*
Y11705D01*
D02*
G37*
G36*
Y10330D02*
X2125D01*
X2179Y10198D01*
X2348Y9978D01*
X2568Y9809D01*
X2700Y9755D01*
Y10330D01*
D02*
G37*
G36*
X4075D02*
X3500D01*
Y9755D01*
X3632Y9809D01*
X3852Y9978D01*
X4021Y10198D01*
X4075Y10330D01*
D02*
G37*
G36*
X31400Y10550D02*
X30700D01*
Y9500D01*
X31400D01*
Y10550D01*
D02*
G37*
G36*
X29300D02*
X28600D01*
Y9500D01*
X29300D01*
Y10550D01*
D02*
G37*
G36*
X32675Y8010D02*
X32480Y7971D01*
X32315Y7860D01*
X32204Y7695D01*
X32165Y7500D01*
X32204Y7305D01*
X32216Y7287D01*
Y6950D01*
X32100D01*
Y6684D01*
X31200D01*
Y6925D01*
X29800D01*
Y5209D01*
X27900D01*
Y5375D01*
X26600D01*
Y4125D01*
X26791D01*
Y3713D01*
X26779Y3695D01*
X26740Y3500D01*
X26779Y3305D01*
X26890Y3140D01*
X27055Y3029D01*
X27250Y2990D01*
X27445Y3029D01*
X27610Y3140D01*
X27721Y3305D01*
X27760Y3500D01*
X27721Y3695D01*
X27709Y3713D01*
Y4125D01*
X27900D01*
Y4291D01*
X29800D01*
Y3975D01*
X31200D01*
Y4291D01*
X31875D01*
Y3000D01*
X33925D01*
Y5200D01*
X32369D01*
X32325Y5209D01*
X31200D01*
Y5766D01*
X32100D01*
Y5650D01*
X33350D01*
Y6950D01*
X33134D01*
Y7287D01*
X33146Y7305D01*
X33185Y7500D01*
X33146Y7695D01*
X33035Y7860D01*
X32870Y7971D01*
X32675Y8010D01*
D02*
G37*
G36*
X11750Y5454D02*
X11400D01*
X11322Y5438D01*
X11256Y5394D01*
X11226Y5350D01*
X9774D01*
X9744Y5394D01*
X9678Y5438D01*
X9600Y5454D01*
X8775D01*
X8697Y5438D01*
X8631Y5394D01*
X8587Y5328D01*
X8576Y5275D01*
X5925D01*
Y1725D01*
X8576D01*
X8587Y1672D01*
X8631Y1606D01*
X8697Y1562D01*
X8775Y1546D01*
X11250D01*
X11328Y1562D01*
X11394Y1606D01*
X11394Y1606D01*
X11894Y2106D01*
X11938Y2172D01*
X11954Y2250D01*
Y5250D01*
X11938Y5328D01*
X11894Y5394D01*
X11828Y5438D01*
X11750Y5454D01*
D02*
G37*
G36*
X44050Y5400D02*
X43725D01*
Y5050D01*
X44050D01*
Y5400D01*
D02*
G37*
G36*
X43125D02*
X42800D01*
Y5050D01*
X43125D01*
Y5400D01*
D02*
G37*
G36*
X3075Y5275D02*
X2350D01*
Y4200D01*
X3075D01*
Y5275D01*
D02*
G37*
G36*
X950D02*
X225D01*
Y4200D01*
X950D01*
Y5275D01*
D02*
G37*
G36*
X44050Y4450D02*
X43725D01*
Y4100D01*
X44050D01*
Y4450D01*
D02*
G37*
G36*
X43125D02*
X42800D01*
Y4100D01*
X43125D01*
Y4450D01*
D02*
G37*
G36*
X58100Y6359D02*
X58015Y6339D01*
X57506Y6128D01*
X57036Y5840D01*
X56617Y5483D01*
X56260Y5064D01*
X55972Y4594D01*
X55761Y4085D01*
X55741Y4000D01*
X58100D01*
Y6359D01*
D02*
G37*
G36*
X16894Y5012D02*
X16115D01*
Y3780D01*
X17682D01*
Y4224D01*
X17655Y4428D01*
X17576Y4618D01*
X17451Y4781D01*
X17288Y4906D01*
X17098Y4985D01*
X16894Y5012D01*
D02*
G37*
G36*
X14115D02*
X13336D01*
X13132Y4985D01*
X12942Y4906D01*
X12779Y4781D01*
X12654Y4618D01*
X12575Y4428D01*
X12548Y4224D01*
Y3780D01*
X14115D01*
Y5012D01*
D02*
G37*
G36*
X34900Y6950D02*
X33650D01*
Y5650D01*
X34900D01*
Y5841D01*
X35217D01*
X35241Y5817D01*
Y5200D01*
X34325D01*
Y3000D01*
X36375D01*
Y5200D01*
X36159D01*
Y6007D01*
X36124Y6183D01*
X36024Y6332D01*
X35732Y6624D01*
X35583Y6724D01*
X35407Y6759D01*
X34900D01*
Y6950D01*
D02*
G37*
G36*
X49750Y3150D02*
X49415D01*
Y2740D01*
X49750D01*
Y3150D01*
D02*
G37*
G36*
X48885D02*
X48550D01*
Y2740D01*
X48885D01*
Y3150D01*
D02*
G37*
G36*
X51400Y4950D02*
X50150D01*
Y3650D01*
X50443D01*
Y3150D01*
X50200D01*
Y1800D01*
X51400D01*
Y3150D01*
X51157D01*
Y3650D01*
X51400D01*
Y4950D01*
D02*
G37*
G36*
X49750Y2210D02*
X49415D01*
Y1800D01*
X49750D01*
Y2210D01*
D02*
G37*
G36*
X48885D02*
X48550D01*
Y1800D01*
X48885D01*
Y2210D01*
D02*
G37*
G36*
X3075Y2800D02*
X2350D01*
Y1725D01*
X3075D01*
Y2800D01*
D02*
G37*
G36*
X950D02*
X225D01*
Y1725D01*
X950D01*
Y2800D01*
D02*
G37*
G36*
X17682Y1780D02*
X12548D01*
Y1336D01*
X12575Y1132D01*
X12649Y953D01*
Y363D01*
X12672Y250D01*
X12736Y155D01*
X12831Y91D01*
X12944Y68D01*
X12945D01*
Y960D01*
X13475D01*
Y68D01*
X13476D01*
X13589Y91D01*
X13684Y155D01*
X13748Y250D01*
X13771Y363D01*
Y548D01*
X13919D01*
Y363D01*
X13942Y250D01*
X14006Y155D01*
X14101Y91D01*
X14214Y68D01*
X14215D01*
Y960D01*
X14745D01*
Y68D01*
X14746D01*
X14859Y91D01*
X14954Y155D01*
X15018Y250D01*
X15041Y363D01*
Y548D01*
X15189D01*
Y363D01*
X15212Y250D01*
X15276Y155D01*
X15371Y91D01*
X15484Y68D01*
X15485D01*
Y960D01*
X16015D01*
Y68D01*
X16016D01*
X16129Y91D01*
X16224Y155D01*
X16288Y250D01*
X16311Y363D01*
Y548D01*
X16459D01*
Y363D01*
X16482Y250D01*
X16546Y155D01*
X16641Y91D01*
X16754Y68D01*
X16755D01*
Y960D01*
X17285D01*
Y68D01*
X17286D01*
X17399Y91D01*
X17494Y155D01*
X17558Y250D01*
X17581Y363D01*
Y953D01*
X17655Y1132D01*
X17682Y1336D01*
Y1780D01*
D02*
G37*
%LPD*%
G36*
X44600Y14140D02*
X44500Y14075D01*
X44473Y14075D01*
X43600D01*
Y12200D01*
Y10325D01*
X44473D01*
X44500Y10325D01*
X44600Y10260D01*
Y10000D01*
X38380D01*
X35300Y12200D01*
X34880Y12500D01*
X32300D01*
Y12722D01*
X32710D01*
Y13155D01*
Y13588D01*
X32300D01*
Y16600D01*
X44600D01*
Y14140D01*
D02*
G37*
G36*
X35500Y10000D02*
X33000D01*
Y10182D01*
X33725D01*
X33891Y10215D01*
X34031Y10309D01*
X34125Y10449D01*
X34125Y10450D01*
X32875D01*
Y10780D01*
X34126D01*
X34125Y10781D01*
X34064Y10873D01*
X34125Y11000D01*
X35500D01*
Y10000D01*
D02*
G37*
%LPC*%
G36*
X39075Y15975D02*
X38000D01*
Y15250D01*
X39075D01*
Y15975D01*
D02*
G37*
G36*
X36600D02*
X35525D01*
Y15250D01*
X36600D01*
Y15975D01*
D02*
G37*
G36*
X33725Y13588D02*
X33040D01*
Y13320D01*
X34126D01*
X34125Y13321D01*
X34031Y13461D01*
X33891Y13555D01*
X33725Y13588D01*
D02*
G37*
G36*
X41600Y14075D02*
X40700D01*
Y13200D01*
X41600D01*
Y14075D01*
D02*
G37*
G36*
X39075Y13850D02*
X38000D01*
Y13125D01*
X39075D01*
Y13850D01*
D02*
G37*
G36*
X36600D02*
X35525D01*
Y13125D01*
X36600D01*
Y13850D01*
D02*
G37*
G36*
X34125Y12990D02*
X33040D01*
Y12722D01*
X33725D01*
X33891Y12755D01*
X34031Y12849D01*
X34125Y12989D01*
X34125Y12990D01*
D02*
G37*
G36*
X41600Y11200D02*
X40700D01*
Y10325D01*
X41600D01*
Y11200D01*
D02*
G37*
%LPD*%
G36*
X9706Y13044D02*
X9725Y12925D01*
X9725Y12883D01*
Y12200D01*
X11500D01*
X13275D01*
Y12873D01*
X13275Y12925D01*
X13371Y13000D01*
X24500D01*
X25000Y12750D01*
X27750Y12500D01*
Y12318D01*
X27290D01*
Y11885D01*
X27125D01*
Y11720D01*
X25875D01*
X25875Y11719D01*
X25950Y11606D01*
X25967Y11570D01*
X25943Y11443D01*
X25250Y10750D01*
X24850D01*
Y10875D01*
X22650D01*
Y10750D01*
X22350D01*
Y10875D01*
X20150D01*
Y10750D01*
X19850D01*
Y10875D01*
X17650D01*
Y10750D01*
X17350D01*
Y10875D01*
X15150D01*
Y10450D01*
X15150Y10450D01*
X15150D01*
X15096Y10346D01*
X14750Y10000D01*
Y9750D01*
X8750D01*
X7750Y10750D01*
X7650D01*
Y10975D01*
X7000D01*
X6350D01*
Y10750D01*
X6000D01*
X6000Y12100D01*
X4181Y12100D01*
X4154Y12227D01*
Y12870D01*
X3100D01*
X2046D01*
Y12227D01*
X2046Y12216D01*
X2019Y12100D01*
X1700D01*
X1700Y14600D01*
X8150Y14600D01*
X9706Y13044D01*
D02*
G37*
G36*
X22650Y9625D02*
X24850D01*
Y9870D01*
X24977Y9923D01*
X25100Y9800D01*
Y7400D01*
X24900Y7200D01*
X24400D01*
Y7500D01*
X24200Y7700D01*
X24000D01*
X23534Y7704D01*
X23507Y7709D01*
X22963D01*
X22945Y7721D01*
X22750Y7760D01*
X22555Y7721D01*
X22540Y7711D01*
X17450Y7750D01*
X17469Y7479D01*
X17382Y7386D01*
X17285D01*
Y6500D01*
X17020D01*
Y6235D01*
X16465D01*
Y5614D01*
X16344Y5600D01*
X16302D01*
X16287Y5619D01*
X16246Y5727D01*
X16288Y5790D01*
X16311Y5903D01*
Y6235D01*
X15189D01*
Y5903D01*
X15212Y5790D01*
X15254Y5727D01*
X15213Y5619D01*
X15198Y5600D01*
X15032D01*
X15017Y5619D01*
X14976Y5727D01*
X15018Y5790D01*
X15041Y5903D01*
Y6235D01*
X14480D01*
Y6500D01*
X14215D01*
Y7392D01*
X14214D01*
X14161Y7381D01*
X14098Y7498D01*
X15033Y8433D01*
X15150Y8384D01*
Y8000D01*
X15650D01*
Y9025D01*
X16250D01*
Y9625D01*
X17350D01*
Y10000D01*
X17650D01*
Y9625D01*
X19850D01*
Y10000D01*
X20150D01*
Y9625D01*
X22350D01*
Y10000D01*
X22650D01*
Y9625D01*
D02*
G37*
G36*
X15150Y9893D02*
Y8736D01*
X15078Y8664D01*
X15033Y8637D01*
X14955Y8621D01*
X14888Y8577D01*
X14888Y8577D01*
X14081Y7769D01*
X13954Y7822D01*
Y8000D01*
X13938Y8078D01*
X13894Y8144D01*
X13828Y8188D01*
X13750Y8204D01*
X9454D01*
Y8500D01*
X9454Y8500D01*
X9438Y8578D01*
X9394Y8644D01*
X9394Y8644D01*
X8544Y9494D01*
X8625Y9593D01*
X8672Y9562D01*
X8750Y9546D01*
X14750D01*
X14828Y9562D01*
X14894Y9606D01*
X14938Y9672D01*
X14954Y9750D01*
Y9888D01*
X15029Y9947D01*
X15150Y9893D01*
D02*
G37*
G36*
X6350Y10025D02*
X7000D01*
Y9725D01*
X7300D01*
Y9100D01*
X7650D01*
Y9934D01*
X7767Y9983D01*
X9250Y8500D01*
Y8000D01*
X13750D01*
Y7414D01*
X13623Y7346D01*
X13589Y7369D01*
X13476Y7392D01*
X13475D01*
Y6500D01*
X13210D01*
Y6235D01*
X12649D01*
Y6194D01*
X12556Y6109D01*
X11400Y6214D01*
Y6370D01*
X9600D01*
Y6250D01*
X9000D01*
X6000Y9250D01*
Y10250D01*
X6350D01*
Y10025D01*
D02*
G37*
%LPC*%
G36*
X7800Y14400D02*
X7330D01*
Y13980D01*
X7800D01*
Y14400D01*
D02*
G37*
G36*
X6470D02*
X6000D01*
Y13980D01*
X6470D01*
Y14400D01*
D02*
G37*
G36*
X4154Y14324D02*
X3500D01*
Y13670D01*
X4154D01*
Y14324D01*
D02*
G37*
G36*
X2700D02*
X2046D01*
Y13670D01*
X2700D01*
Y14324D01*
D02*
G37*
G36*
X7800Y13120D02*
X7330D01*
Y12700D01*
X7800D01*
Y13120D01*
D02*
G37*
G36*
X6470D02*
X6000D01*
Y12700D01*
X6470D01*
Y13120D01*
D02*
G37*
G36*
X24850Y12500D02*
X24350D01*
Y12075D01*
X24850D01*
Y12500D01*
D02*
G37*
G36*
X23150D02*
X22650D01*
Y12075D01*
X23150D01*
Y12500D01*
D02*
G37*
G36*
X22350D02*
X21850D01*
Y12075D01*
X22350D01*
Y12500D01*
D02*
G37*
G36*
X20650D02*
X20150D01*
Y12075D01*
X20650D01*
Y12500D01*
D02*
G37*
G36*
X19850D02*
X19350D01*
Y12075D01*
X19850D01*
Y12500D01*
D02*
G37*
G36*
X18150D02*
X17650D01*
Y12075D01*
X18150D01*
Y12500D01*
D02*
G37*
G36*
X17350D02*
X16850D01*
Y12075D01*
X17350D01*
Y12500D01*
D02*
G37*
G36*
X15650D02*
X15150D01*
Y12075D01*
X15650D01*
Y12500D01*
D02*
G37*
G36*
X26960Y12318D02*
X26275D01*
X26109Y12285D01*
X25969Y12191D01*
X25875Y12051D01*
X25874Y12050D01*
X26960D01*
Y12318D01*
D02*
G37*
G36*
X7650Y11900D02*
X7300D01*
Y11575D01*
X7650D01*
Y11900D01*
D02*
G37*
G36*
X6700D02*
X6350D01*
Y11575D01*
X6700D01*
Y11900D01*
D02*
G37*
G36*
X13275Y10800D02*
X12200D01*
Y10075D01*
X13275D01*
Y10800D01*
D02*
G37*
G36*
X10800D02*
X9725D01*
Y10075D01*
X10800D01*
Y10800D01*
D02*
G37*
G36*
X24850Y8425D02*
X24350D01*
Y8000D01*
X24850D01*
Y8425D01*
D02*
G37*
G36*
X23150D02*
X22650D01*
Y8000D01*
X23150D01*
Y8425D01*
D02*
G37*
G36*
X22350D02*
X21850D01*
Y8000D01*
X22350D01*
Y8425D01*
D02*
G37*
G36*
X20650D02*
X20150D01*
Y8000D01*
X20650D01*
Y8425D01*
D02*
G37*
G36*
X19850D02*
X19350D01*
Y8000D01*
X19850D01*
Y8425D01*
D02*
G37*
G36*
X18150D02*
X17650D01*
Y8000D01*
X18150D01*
Y8425D01*
D02*
G37*
G36*
X17350D02*
X16850D01*
Y8000D01*
X17350D01*
Y8425D01*
D02*
G37*
G36*
X16755Y7386D02*
X16465D01*
Y6765D01*
X16755D01*
Y7386D01*
D02*
G37*
G36*
X16016Y7392D02*
X16015D01*
Y6765D01*
X16311D01*
Y7097D01*
X16288Y7210D01*
X16224Y7305D01*
X16129Y7369D01*
X16016Y7392D01*
D02*
G37*
G36*
X15485D02*
X15484D01*
X15371Y7369D01*
X15276Y7305D01*
X15212Y7210D01*
X15189Y7097D01*
Y6765D01*
X15485D01*
Y7392D01*
D02*
G37*
G36*
X14746D02*
X14745D01*
Y6765D01*
X15041D01*
Y7097D01*
X15018Y7210D01*
X14954Y7305D01*
X14859Y7369D01*
X14746Y7392D01*
D02*
G37*
G36*
X6700Y9425D02*
X6350D01*
Y9100D01*
X6700D01*
Y9425D01*
D02*
G37*
G36*
X11400Y7650D02*
X10930D01*
Y7230D01*
X11400D01*
Y7650D01*
D02*
G37*
G36*
X10070D02*
X9600D01*
Y7230D01*
X10070D01*
Y7650D01*
D02*
G37*
G36*
X12945Y7392D02*
X12944D01*
X12831Y7369D01*
X12736Y7305D01*
X12672Y7210D01*
X12649Y7097D01*
Y6765D01*
X12945D01*
Y7392D01*
D02*
G37*
%LPD*%
G36*
X11750Y2250D02*
X11250Y1750D01*
X8775D01*
Y2800D01*
X7350D01*
Y4200D01*
X8775D01*
Y5250D01*
X9600D01*
Y4930D01*
X11400D01*
Y5250D01*
X11750D01*
Y2250D01*
D02*
G37*
%LPC*%
G36*
X11400Y4070D02*
X10930D01*
Y3650D01*
X11400D01*
Y4070D01*
D02*
G37*
G36*
X10070D02*
X9600D01*
Y3650D01*
X10070D01*
Y4070D01*
D02*
G37*
%LPD*%
D39*
X13900Y21000D02*
D03*
X12250D02*
D03*
X50800Y2475D02*
D03*
X49150D02*
D03*
D40*
X18750Y9025D02*
D03*
Y11475D02*
D03*
X23750D02*
D03*
Y9025D02*
D03*
X21250Y11475D02*
D03*
Y9025D02*
D03*
X16250Y11475D02*
D03*
Y9025D02*
D03*
D41*
X16000Y20725D02*
D03*
Y22275D02*
D03*
X27250Y4750D02*
D03*
Y6300D02*
D03*
X20750D02*
D03*
Y4750D02*
D03*
X24000Y4725D02*
D03*
Y6275D02*
D03*
X7000Y9725D02*
D03*
Y11275D02*
D03*
D42*
X30000Y11250D02*
D03*
D43*
X32875Y9345D02*
D03*
Y10615D02*
D03*
Y11885D02*
D03*
Y13155D02*
D03*
X27125Y9345D02*
D03*
Y10615D02*
D03*
Y11885D02*
D03*
Y13155D02*
D03*
D44*
X6900Y13550D02*
D03*
Y15850D02*
D03*
X10500Y6800D02*
D03*
Y4500D02*
D03*
D45*
X49225Y4300D02*
D03*
X50775D02*
D03*
X43425Y4750D02*
D03*
X41875D02*
D03*
X41900Y2750D02*
D03*
X43450D02*
D03*
X34275Y6300D02*
D03*
X32725D02*
D03*
D46*
X27000Y15250D02*
D03*
Y16650D02*
D03*
X30500Y4750D02*
D03*
Y6150D02*
D03*
D47*
X35350Y4100D02*
D03*
X32900D02*
D03*
D48*
X48000Y22800D02*
D03*
X49400D02*
D03*
X48000Y20800D02*
D03*
X49400D02*
D03*
X47950Y18800D02*
D03*
X49350D02*
D03*
X48000Y16800D02*
D03*
X49400D02*
D03*
D49*
X42600Y12200D02*
D03*
X48200D02*
D03*
D50*
X37300Y14550D02*
D03*
Y20250D02*
D03*
X11500Y11500D02*
D03*
Y17200D02*
D03*
D51*
X1650Y3500D02*
D03*
X7350D02*
D03*
D52*
X17020Y6500D02*
D03*
D53*
X15750D02*
D03*
X14480D02*
D03*
X13210D02*
D03*
X17020Y960D02*
D03*
X15750D02*
D03*
X14480D02*
D03*
X13210D02*
D03*
D54*
X15115Y2780D02*
D03*
D55*
X61000Y12200D02*
Y21100D01*
X55700Y6900D02*
X61000Y12200D01*
X50400Y6900D02*
X55700D01*
X60500Y21600D02*
X61000Y21100D01*
X47600Y6900D02*
X50400D01*
X49225Y5725D02*
X50400Y6900D01*
X49225Y4300D02*
Y5725D01*
X43450Y2750D02*
X43500Y2700D01*
X45524D01*
X45700Y2876D01*
Y5000D01*
X47600Y6900D01*
X43450Y2750D02*
Y2775D01*
X43725Y3050D01*
X43750D01*
X50750Y4350D02*
X50800Y4300D01*
Y2475D02*
Y4300D01*
X41875Y4750D02*
X41888Y4738D01*
Y2763D02*
Y4738D01*
Y2763D02*
X41900Y2750D01*
X38455Y9345D02*
X41875Y5925D01*
Y4750D02*
Y5925D01*
X32875Y9345D02*
X38455D01*
D56*
X32650Y6225D02*
X32725Y6300D01*
X30575Y6225D02*
X32650D01*
X30500Y6150D02*
X30575Y6225D01*
X35700Y4450D02*
Y6007D01*
X35407Y6300D02*
X35700Y6007D01*
X34275Y6300D02*
X35407D01*
X35350Y4100D02*
X35700Y4450D01*
X32900Y4100D02*
Y4175D01*
X32325Y4750D02*
X32900Y4175D01*
X30500Y4750D02*
X32325D01*
X27250D02*
X30500D01*
X27250Y3500D02*
Y4750D01*
X32675Y6350D02*
Y7500D01*
Y6350D02*
X32725Y6300D01*
X13900Y21000D02*
X14038Y20862D01*
X15863D01*
X16000Y20725D01*
X12250Y17950D02*
Y21000D01*
X11500Y17200D02*
X12250Y17950D01*
X27000Y16650D02*
Y18500D01*
X19300Y7000D02*
X19319Y6981D01*
X20044D01*
X20725Y6300D01*
X20750D01*
Y8525D02*
X21250Y9025D01*
X22750Y7250D02*
X23507D01*
X23800Y6957D01*
X27000Y13180D02*
Y15250D01*
Y13180D02*
X27025Y13155D01*
X27125D01*
X23800Y6450D02*
Y6957D01*
Y6450D02*
X23975Y6275D01*
X24000D01*
X25325Y4725D02*
X25675Y5075D01*
X24000Y4725D02*
X25325D01*
X23987Y4738D02*
X24000Y4725D01*
X25675Y5075D02*
Y9965D01*
X26325Y10615D01*
X27125D01*
Y6425D02*
X27250Y6300D01*
X27125Y6425D02*
Y9345D01*
X20763Y4738D02*
X23987D01*
X20750Y4750D02*
X20763Y4738D01*
D57*
X3100Y10730D02*
D03*
D58*
Y13270D02*
D03*
D59*
X54500Y15750D02*
D03*
X58700D02*
D03*
Y21250D02*
D03*
D60*
X54500D02*
D03*
D61*
X3500Y20250D02*
D03*
X59100Y3000D02*
D03*
D62*
X36800Y12600D02*
D03*
X29250Y11250D02*
D03*
X27250Y3500D02*
D03*
X32675Y7500D02*
D03*
X27000Y18500D02*
D03*
X19300Y7000D02*
D03*
X24700Y7600D02*
D03*
X22750Y7250D02*
D03*
X34750Y10500D02*
D03*
X25250Y11500D02*
D03*
X30750Y11250D02*
D03*
Y10250D02*
D03*
X29250D02*
D03*
X30750Y12250D02*
D03*
X29250D02*
D03*
M02*
