G04*
G04 #@! TF.GenerationSoftware,Altium Limited,Altium Designer,19.1.6 (110)*
G04*
G04 Layer_Physical_Order=1*
G04 Layer_Color=255*
%FSLAX43Y43*%
%MOMM*%
G71*
G01*
G75*
%ADD12C,0.400*%
%ADD13C,0.250*%
%ADD14C,0.600*%
%ADD41R,2.490X3.000*%
%ADD42R,0.750X0.300*%
G04:AMPARAMS|DCode=43|XSize=0.5mm|YSize=0.5mm|CornerRadius=0.125mm|HoleSize=0mm|Usage=FLASHONLY|Rotation=90.000|XOffset=0mm|YOffset=0mm|HoleType=Round|Shape=RoundedRectangle|*
%AMROUNDEDRECTD43*
21,1,0.500,0.250,0,0,90.0*
21,1,0.250,0.500,0,0,90.0*
1,1,0.250,0.125,0.125*
1,1,0.250,0.125,-0.125*
1,1,0.250,-0.125,-0.125*
1,1,0.250,-0.125,0.125*
%
%ADD43ROUNDEDRECTD43*%
%ADD44R,0.550X0.550*%
%ADD45R,3.000X6.100*%
%ADD46R,1.400X1.250*%
%ADD47R,4.800X4.800*%
%ADD48R,0.900X0.850*%
%ADD49R,0.350X0.400*%
%ADD50R,0.400X0.350*%
%ADD51R,1.400X1.300*%
G04:AMPARAMS|DCode=52|XSize=2.7mm|YSize=1mm|CornerRadius=0.25mm|HoleSize=0mm|Usage=FLASHONLY|Rotation=0.000|XOffset=0mm|YOffset=0mm|HoleType=Round|Shape=RoundedRectangle|*
%AMROUNDEDRECTD52*
21,1,2.700,0.500,0,0,0.0*
21,1,2.200,1.000,0,0,0.0*
1,1,0.500,1.100,-0.250*
1,1,0.500,-1.100,-0.250*
1,1,0.500,-1.100,0.250*
1,1,0.500,1.100,0.250*
%
%ADD52ROUNDEDRECTD52*%
G04:AMPARAMS|DCode=53|XSize=1.4mm|YSize=1mm|CornerRadius=0.25mm|HoleSize=0mm|Usage=FLASHONLY|Rotation=0.000|XOffset=0mm|YOffset=0mm|HoleType=Round|Shape=RoundedRectangle|*
%AMROUNDEDRECTD53*
21,1,1.400,0.500,0,0,0.0*
21,1,0.900,1.000,0,0,0.0*
1,1,0.500,0.450,-0.250*
1,1,0.500,-0.450,-0.250*
1,1,0.500,-0.450,0.250*
1,1,0.500,0.450,0.250*
%
%ADD53ROUNDEDRECTD53*%
%ADD54R,0.950X0.800*%
%ADD55R,1.700X1.800*%
%ADD56R,0.550X0.550*%
G04:AMPARAMS|DCode=57|XSize=0.5mm|YSize=0.5mm|CornerRadius=0.125mm|HoleSize=0mm|Usage=FLASHONLY|Rotation=180.000|XOffset=0mm|YOffset=0mm|HoleType=Round|Shape=RoundedRectangle|*
%AMROUNDEDRECTD57*
21,1,0.500,0.250,0,0,180.0*
21,1,0.250,0.500,0,0,180.0*
1,1,0.250,-0.125,0.125*
1,1,0.250,0.125,0.125*
1,1,0.250,0.125,-0.125*
1,1,0.250,-0.125,-0.125*
%
%ADD57ROUNDEDRECTD57*%
G04:AMPARAMS|DCode=58|XSize=4.52mm|YSize=3.85mm|CornerRadius=0.481mm|HoleSize=0mm|Usage=FLASHONLY|Rotation=0.000|XOffset=0mm|YOffset=0mm|HoleType=Round|Shape=RoundedRectangle|*
%AMROUNDEDRECTD58*
21,1,4.520,2.888,0,0,0.0*
21,1,3.558,3.850,0,0,0.0*
1,1,0.963,1.779,-1.444*
1,1,0.963,-1.779,-1.444*
1,1,0.963,-1.779,1.444*
1,1,0.963,1.779,1.444*
%
%ADD58ROUNDEDRECTD58*%
G04:AMPARAMS|DCode=59|XSize=0.71mm|YSize=1.372mm|CornerRadius=0.089mm|HoleSize=0mm|Usage=FLASHONLY|Rotation=0.000|XOffset=0mm|YOffset=0mm|HoleType=Round|Shape=RoundedRectangle|*
%AMROUNDEDRECTD59*
21,1,0.710,1.195,0,0,0.0*
21,1,0.532,1.372,0,0,0.0*
1,1,0.178,0.266,-0.597*
1,1,0.178,-0.266,-0.597*
1,1,0.178,-0.266,0.597*
1,1,0.178,0.266,0.597*
%
%ADD59ROUNDEDRECTD59*%
%ADD60R,0.710X1.372*%
%ADD61C,0.381*%
%ADD62C,3.300*%
%ADD63R,1.570X1.570*%
%ADD64C,1.570*%
%ADD65C,4.000*%
%ADD66R,2.500X2.500*%
%ADD67C,2.500*%
%ADD68C,0.600*%
G36*
X98745Y55355D02*
X58055D01*
X58055Y96445D01*
X98745D01*
X98745Y55355D01*
D02*
G37*
%LPC*%
G36*
X97500Y95990D02*
Y95200D01*
X98290D01*
X98213Y95344D01*
X97957Y95657D01*
X97644Y95913D01*
X97500Y95990D01*
D02*
G37*
G36*
X95500D02*
X95356Y95913D01*
X95043Y95657D01*
X94787Y95344D01*
X94710Y95200D01*
X95500D01*
Y95990D01*
D02*
G37*
G36*
X71700Y94127D02*
Y92940D01*
X72887D01*
X72705Y93280D01*
X72405Y93645D01*
X72040Y93945D01*
X71700Y94127D01*
D02*
G37*
G36*
X69700Y94127D02*
X69360Y93945D01*
X68995Y93645D01*
X68695Y93280D01*
X68513Y92940D01*
X69700D01*
Y94127D01*
D02*
G37*
G36*
X98290Y93200D02*
X97500D01*
Y92410D01*
X97644Y92487D01*
X97957Y92743D01*
X98213Y93056D01*
X98290Y93200D01*
D02*
G37*
G36*
X95500D02*
X94710D01*
X94787Y93056D01*
X95043Y92743D01*
X95356Y92487D01*
X95500Y92410D01*
Y93200D01*
D02*
G37*
G36*
X72887Y90940D02*
X71700D01*
Y89753D01*
X72040Y89935D01*
X72405Y90235D01*
X72705Y90600D01*
X72887Y90940D01*
D02*
G37*
G36*
X69700D02*
X68513D01*
X68695Y90600D01*
X68995Y90235D01*
X69360Y89935D01*
X69700Y89753D01*
Y90940D01*
D02*
G37*
G36*
X81660Y90205D02*
X76460D01*
Y89380D01*
X74395D01*
Y89855D01*
X72425D01*
Y87885D01*
X74395D01*
Y88360D01*
X76460D01*
Y85005D01*
X76686D01*
X76714Y84992D01*
X76779Y84930D01*
X76796Y84908D01*
Y84642D01*
X76801Y84617D01*
X76803Y84591D01*
X76809Y84578D01*
X76812Y84564D01*
X76826Y84542D01*
X76837Y84519D01*
X76848Y84510D01*
X76856Y84498D01*
X76877Y84483D01*
X76896Y84466D01*
X76910Y84461D01*
X76922Y84453D01*
X76947Y84448D01*
X76972Y84440D01*
X77092Y84423D01*
X77120Y84300D01*
Y83300D01*
X77092Y83177D01*
X76972Y83160D01*
X76947Y83152D01*
X76922Y83146D01*
X76910Y83139D01*
X76896Y83134D01*
X76877Y83117D01*
X76856Y83102D01*
X76848Y83090D01*
X76837Y83081D01*
X76826Y83058D01*
X76812Y83036D01*
X76809Y83022D01*
X76803Y83009D01*
X76801Y82983D01*
X76796Y82958D01*
Y79100D01*
X76796Y79100D01*
X76812Y79022D01*
X76856Y78956D01*
X76856Y78956D01*
X77656Y78156D01*
X77722Y78112D01*
X77800Y78096D01*
X77942D01*
X77946Y78094D01*
X77979Y78072D01*
X78032Y78022D01*
X78050Y77989D01*
Y76800D01*
X78369D01*
Y76425D01*
X78025D01*
Y75225D01*
X79375D01*
Y76425D01*
X79031D01*
Y76800D01*
X79350D01*
Y77989D01*
X79368Y78022D01*
X79421Y78072D01*
X79454Y78094D01*
X79458Y78096D01*
X79596D01*
Y76800D01*
X79596Y76800D01*
X79612Y76722D01*
X79656Y76656D01*
X79656Y76656D01*
X80456Y75856D01*
X80522Y75812D01*
X80600Y75796D01*
X87700D01*
X87738Y75804D01*
X87776Y75811D01*
X87777Y75811D01*
X87778Y75812D01*
X87810Y75833D01*
X87843Y75854D01*
X87843Y75855D01*
X87844Y75856D01*
X87866Y75888D01*
X87888Y75920D01*
X87888Y75921D01*
X87888Y75922D01*
X87896Y75960D01*
X87904Y75998D01*
X87923Y78060D01*
X88050Y78059D01*
Y76500D01*
X88500D01*
Y77600D01*
X89100D01*
Y78200D01*
X90160D01*
X90267Y78244D01*
X90767Y77744D01*
X90934Y76537D01*
X90945Y76506D01*
X90953Y76475D01*
X90958Y76469D01*
X90960Y76462D01*
X90982Y76438D01*
X91002Y76412D01*
X91010Y76357D01*
X91005Y76286D01*
X90998Y76267D01*
X89988Y75256D01*
X89875D01*
X89748Y75231D01*
X89641Y75159D01*
X89569Y75052D01*
X89565Y75031D01*
X89435D01*
X89431Y75052D01*
X89359Y75159D01*
X89252Y75231D01*
X89125Y75256D01*
X88875D01*
X88748Y75231D01*
X88641Y75159D01*
X88569Y75052D01*
X88544Y74925D01*
Y74675D01*
X88569Y74548D01*
X88641Y74441D01*
X88669Y74422D01*
Y71950D01*
X88480D01*
Y71444D01*
X88390Y71354D01*
X88353Y71354D01*
X86984D01*
X86794Y71544D01*
X86728Y71588D01*
X86650Y71604D01*
X86467D01*
X86445Y71600D01*
X86424Y71599D01*
X86307Y71574D01*
X86290Y71567D01*
X86272Y71563D01*
X86254Y71551D01*
X86234Y71543D01*
X86221Y71530D01*
X86206Y71519D01*
X86194Y71501D01*
X86179Y71486D01*
X86172Y71468D01*
X86162Y71453D01*
X86157Y71432D01*
X86149Y71412D01*
X86030Y71375D01*
X85179D01*
X85128Y71409D01*
X85001Y71461D01*
X84923Y71477D01*
X84845Y71461D01*
X84779Y71417D01*
X82616Y69254D01*
X77309D01*
X77269Y69294D01*
X77203Y69338D01*
X77125Y69354D01*
X77047Y69338D01*
X76981Y69294D01*
X76216Y68529D01*
X72759D01*
X70054Y71234D01*
Y73800D01*
X70054Y73800D01*
X70038Y73878D01*
X69994Y73944D01*
X69669Y74269D01*
X69603Y74313D01*
X69525Y74329D01*
X61878D01*
X61841Y74322D01*
X61804Y74315D01*
X61802Y74314D01*
X61800Y74313D01*
X61768Y74292D01*
X61737Y74272D01*
X61613Y74153D01*
X61610Y74149D01*
X61606Y74146D01*
X61588Y74117D01*
X61568Y74088D01*
X61567Y74083D01*
X61564Y74078D01*
X61558Y74044D01*
X61551Y74010D01*
X61552Y74005D01*
X61551Y74000D01*
X61671Y70219D01*
X61679Y70183D01*
X61687Y70147D01*
X61688Y70144D01*
X61689Y70141D01*
X61710Y70111D01*
X61731Y70081D01*
X61734Y70079D01*
X61735Y70076D01*
X61767Y70057D01*
X61797Y70037D01*
X61800Y70036D01*
X61803Y70034D01*
X61839Y70028D01*
X61875Y70021D01*
X67966D01*
X69366Y68620D01*
X69311Y68496D01*
X69272Y68488D01*
X69206Y68444D01*
X69162Y68378D01*
X69146Y68300D01*
Y68250D01*
X66454D01*
Y68300D01*
X66438Y68378D01*
X66394Y68444D01*
X66328Y68488D01*
X66250Y68504D01*
X64351D01*
X64336Y68501D01*
X64321Y68502D01*
X64298Y68493D01*
X64273Y68488D01*
X64261Y68480D01*
X64246Y68475D01*
X64228Y68458D01*
X64207Y68444D01*
X64199Y68432D01*
X64187Y68421D01*
X64177Y68399D01*
X64163Y68378D01*
X64160Y68363D01*
X64153Y68350D01*
X64137Y68284D01*
X64016Y68208D01*
X63997Y68205D01*
X63979Y68213D01*
X63600Y68263D01*
X63221Y68213D01*
X63203Y68205D01*
X63184Y68208D01*
X63063Y68284D01*
X63047Y68350D01*
X63040Y68363D01*
X63037Y68378D01*
X63023Y68399D01*
X63013Y68421D01*
X63001Y68432D01*
X62993Y68444D01*
X62972Y68458D01*
X62954Y68475D01*
X62939Y68480D01*
X62927Y68488D01*
X62902Y68493D01*
X62879Y68502D01*
X62864Y68501D01*
X62849Y68504D01*
X61942D01*
X61941Y68504D01*
X61939Y68504D01*
X61902Y68496D01*
X61864Y68488D01*
X61863Y68488D01*
X61862Y68487D01*
X61830Y68465D01*
X61798Y68444D01*
X61797Y68443D01*
X61796Y68442D01*
X61682Y68324D01*
X61681Y68323D01*
X61679Y68322D01*
X61659Y68289D01*
X61639Y68257D01*
X61638Y68256D01*
X61637Y68254D01*
X61631Y68217D01*
X61624Y68179D01*
X61625Y68177D01*
X61624Y68175D01*
X61696Y65968D01*
X61704Y65933D01*
X61712Y65897D01*
X61713Y65894D01*
X61714Y65891D01*
X61736Y65861D01*
X61756Y65831D01*
X64706Y62881D01*
X64772Y62837D01*
X64850Y62821D01*
X65571D01*
Y59475D01*
X65571Y59475D01*
X65587Y59397D01*
X65631Y59331D01*
X65631Y59331D01*
X66519Y58443D01*
X67484Y57082D01*
X67496Y57070D01*
X67506Y57056D01*
X67525Y57043D01*
X67541Y57027D01*
X67558Y57021D01*
X67572Y57012D01*
X67594Y57007D01*
X67616Y56999D01*
X67633Y56999D01*
X67650Y56996D01*
X81370D01*
X81393Y57001D01*
X81417Y57001D01*
X81432Y57008D01*
X81448Y57012D01*
X81468Y57025D01*
X81489Y57034D01*
X81501Y57046D01*
X81515Y57056D01*
X81528Y57075D01*
X81544Y57092D01*
X81612Y57203D01*
X81618Y57219D01*
X81628Y57233D01*
X81632Y57256D01*
X81640Y57278D01*
X81640Y57294D01*
X81643Y57311D01*
X81639Y57334D01*
X81638Y57357D01*
X81631Y57372D01*
X81628Y57389D01*
X81615Y57408D01*
X81605Y57430D01*
X81593Y57441D01*
X81583Y57455D01*
X81379Y57659D01*
Y62875D01*
X81363Y62953D01*
X81319Y63019D01*
X81253Y63063D01*
X81175Y63079D01*
X76067D01*
X76053Y63088D01*
X75996Y63100D01*
X75977Y63104D01*
X75973Y63111D01*
X75941Y63226D01*
X75965Y63238D01*
X75974Y63248D01*
X75985Y63256D01*
X76081Y63331D01*
X76194Y63308D01*
X76726D01*
X76839Y63331D01*
X76934Y63395D01*
X76998Y63490D01*
X77021Y63603D01*
Y64704D01*
X77042Y64715D01*
X77169Y64634D01*
Y64465D01*
X77465D01*
Y65092D01*
X77464D01*
X77382Y65075D01*
X77283Y65127D01*
X77251Y65155D01*
X77245Y65256D01*
X77237Y65285D01*
X77232Y65315D01*
X77227Y65323D01*
X77224Y65333D01*
X77206Y65357D01*
X77190Y65383D01*
X77182Y65388D01*
X77176Y65396D01*
X77150Y65411D01*
X77126Y65429D01*
X77116Y65431D01*
X77107Y65436D01*
X77077Y65440D01*
X77048Y65447D01*
X74204Y65545D01*
X74204Y67065D01*
X74207Y67066D01*
X74224Y67077D01*
X74243Y67085D01*
X74257Y67099D01*
X74273Y67110D01*
X74359Y67196D01*
X77079D01*
X77116Y67100D01*
X77122Y67069D01*
X77026Y66926D01*
X77001Y66800D01*
X77900D01*
X78799D01*
X78774Y66926D01*
X78678Y67069D01*
X78684Y67100D01*
X78721Y67196D01*
X79479D01*
X79516Y67100D01*
X79522Y67069D01*
X79426Y66926D01*
X79401Y66800D01*
X81199D01*
X81174Y66926D01*
X81078Y67069D01*
X81084Y67100D01*
X81121Y67196D01*
X81850D01*
X81850Y67196D01*
X81928Y67212D01*
X81994Y67256D01*
X81994Y67256D01*
X84434Y69696D01*
X85050D01*
Y68932D01*
X85044Y68900D01*
Y68050D01*
X84590D01*
Y67575D01*
Y67100D01*
X85800D01*
Y68050D01*
X85706D01*
Y68575D01*
X86350D01*
Y69169D01*
X87000D01*
X87127Y69194D01*
X87234Y69266D01*
X87637Y69669D01*
X88460D01*
X88480Y69550D01*
X88480Y69550D01*
X88480Y69550D01*
Y69319D01*
X87992Y68831D01*
X87920Y68723D01*
X87895Y68596D01*
Y68439D01*
X87590Y68134D01*
X86700D01*
X86524Y68099D01*
X86376Y67999D01*
X86276Y67851D01*
X86241Y67675D01*
Y67175D01*
X86276Y66999D01*
X86376Y66851D01*
X86524Y66751D01*
X86700Y66716D01*
X87600D01*
X87776Y66751D01*
X87924Y66851D01*
X88024Y66999D01*
X88059Y67175D01*
Y67665D01*
X88380Y67986D01*
X88480Y68050D01*
X88974D01*
Y67275D01*
X88925D01*
Y66525D01*
X89895D01*
Y66900D01*
Y67275D01*
X89636D01*
Y68300D01*
X90250D01*
Y70000D01*
Y71700D01*
X89630D01*
Y71950D01*
X89331D01*
Y74422D01*
X89359Y74441D01*
X89431Y74548D01*
X89435Y74569D01*
X89565D01*
X89569Y74548D01*
X89641Y74441D01*
X89748Y74369D01*
X89875Y74344D01*
X90125D01*
X90252Y74369D01*
X90359Y74441D01*
X90431Y74548D01*
X90456Y74675D01*
Y74788D01*
X91009Y75340D01*
X91174Y75326D01*
X92619Y73302D01*
X92572Y73184D01*
X92505Y73171D01*
X92340Y73060D01*
X92229Y72895D01*
X92190Y72700D01*
X92229Y72505D01*
X92340Y72340D01*
X92369Y72320D01*
Y71950D01*
X92270D01*
Y71700D01*
X91650D01*
Y70000D01*
Y68300D01*
X92270D01*
Y68050D01*
X93420D01*
Y68069D01*
X94625D01*
Y67925D01*
X95575D01*
Y68069D01*
X96725D01*
Y67925D01*
X97675D01*
Y68825D01*
Y69719D01*
X97950D01*
X98077Y69744D01*
X98184Y69816D01*
X98484Y70116D01*
X98556Y70223D01*
X98581Y70350D01*
Y87350D01*
X98556Y87477D01*
X98484Y87584D01*
X98034Y88034D01*
X97927Y88106D01*
X97800Y88131D01*
X86246D01*
X86120Y88106D01*
X86012Y88034D01*
X85866Y87888D01*
X85794Y87780D01*
X85769Y87654D01*
Y87304D01*
X83991D01*
X83990Y87304D01*
X83988Y87304D01*
X83951Y87296D01*
X83913Y87288D01*
X83912Y87287D01*
X83910Y87287D01*
X83879Y87265D01*
X83847Y87244D01*
X83846Y87243D01*
X83845Y87242D01*
X83756Y87151D01*
X83756Y87149D01*
X83754Y87148D01*
X83734Y87116D01*
X83713Y87084D01*
X83713Y87082D01*
X83712Y87080D01*
X83706Y87043D01*
X83699Y87005D01*
X83699Y87004D01*
X83699Y87002D01*
X83945Y79585D01*
X83710Y78973D01*
X83708Y78964D01*
X83704Y78956D01*
X83546Y78404D01*
X81604Y78404D01*
X81604Y84780D01*
X81597Y84814D01*
X81592Y84849D01*
X81589Y84853D01*
X81588Y84858D01*
X81575Y84878D01*
X81583Y84915D01*
X81622Y84992D01*
X81635Y85005D01*
X81660D01*
Y90205D01*
D02*
G37*
G36*
X73410Y87364D02*
X73153Y87330D01*
X72913Y87230D01*
X72707Y87073D01*
X72550Y86867D01*
X72450Y86627D01*
X72416Y86370D01*
X72450Y86113D01*
X72550Y85873D01*
X72707Y85667D01*
X72913Y85510D01*
X73084Y85439D01*
Y85301D01*
X72913Y85230D01*
X72707Y85073D01*
X72550Y84867D01*
X72450Y84627D01*
X72416Y84370D01*
X72450Y84113D01*
X72550Y83873D01*
X72707Y83667D01*
X72913Y83510D01*
X73153Y83410D01*
X73410Y83377D01*
X73667Y83410D01*
X73907Y83510D01*
X74113Y83667D01*
X74270Y83873D01*
X74370Y84113D01*
X74404Y84370D01*
X74370Y84627D01*
X74270Y84867D01*
X74113Y85073D01*
X73907Y85230D01*
X73736Y85301D01*
Y85439D01*
X73907Y85510D01*
X74113Y85667D01*
X74270Y85873D01*
X74370Y86113D01*
X74404Y86370D01*
X74370Y86627D01*
X74270Y86867D01*
X74113Y87073D01*
X73907Y87230D01*
X73667Y87330D01*
X73410Y87364D01*
D02*
G37*
G36*
X73810Y82879D02*
Y82270D01*
X74419D01*
X74358Y82417D01*
X74184Y82644D01*
X73957Y82818D01*
X73810Y82879D01*
D02*
G37*
G36*
X73010D02*
X72863Y82818D01*
X72636Y82644D01*
X72462Y82417D01*
X72401Y82270D01*
X73010D01*
Y82879D01*
D02*
G37*
G36*
X74419Y81470D02*
X73810D01*
Y80861D01*
X73957Y80922D01*
X74184Y81096D01*
X74358Y81323D01*
X74419Y81470D01*
D02*
G37*
G36*
X73010D02*
X72401D01*
X72462Y81323D01*
X72636Y81096D01*
X72863Y80922D01*
X73010Y80861D01*
Y81470D01*
D02*
G37*
G36*
X71700Y80987D02*
Y79800D01*
X72887D01*
X72705Y80140D01*
X72405Y80505D01*
X72040Y80805D01*
X71700Y80987D01*
D02*
G37*
G36*
X69700D02*
X69360Y80805D01*
X68995Y80505D01*
X68695Y80140D01*
X68513Y79800D01*
X69700D01*
Y80987D01*
D02*
G37*
G36*
X72887Y77800D02*
X71700D01*
Y76613D01*
X72040Y76795D01*
X72405Y77095D01*
X72705Y77460D01*
X72887Y77800D01*
D02*
G37*
G36*
X69700D02*
X68513D01*
X68695Y77460D01*
X68995Y77095D01*
X69360Y76795D01*
X69700Y76613D01*
Y77800D01*
D02*
G37*
G36*
X90150Y77000D02*
X89700D01*
Y76500D01*
X90150D01*
Y77000D01*
D02*
G37*
G36*
X86900Y75009D02*
X86100D01*
Y74600D01*
X87349D01*
X87324Y74726D01*
X87224Y74874D01*
X87076Y74974D01*
X86900Y75009D01*
D02*
G37*
G36*
X85500D02*
X84700D01*
X84524Y74974D01*
X84376Y74874D01*
X84276Y74726D01*
X84251Y74600D01*
X85500D01*
Y75009D01*
D02*
G37*
G36*
X83200D02*
X82400D01*
Y74600D01*
X83649D01*
X83624Y74726D01*
X83524Y74874D01*
X83376Y74974D01*
X83200Y75009D01*
D02*
G37*
G36*
X81800D02*
X81000D01*
X80824Y74974D01*
X80676Y74874D01*
X80576Y74726D01*
X80551Y74600D01*
X81800D01*
Y75009D01*
D02*
G37*
G36*
X79375Y74775D02*
X78965D01*
Y74440D01*
X79375D01*
Y74775D01*
D02*
G37*
G36*
X78435D02*
X78025D01*
Y74440D01*
X78435D01*
Y74775D01*
D02*
G37*
G36*
X87349Y74000D02*
X86100D01*
Y73591D01*
X86900D01*
X87076Y73626D01*
X87224Y73726D01*
X87324Y73874D01*
X87349Y74000D01*
D02*
G37*
G36*
X85500D02*
X84251D01*
X84276Y73874D01*
X84376Y73726D01*
X84524Y73626D01*
X84700Y73591D01*
X85500D01*
Y74000D01*
D02*
G37*
G36*
X83649D02*
X82400D01*
Y73591D01*
X83200D01*
X83376Y73626D01*
X83524Y73726D01*
X83624Y73874D01*
X83649Y74000D01*
D02*
G37*
G36*
X81800D02*
X80551D01*
X80576Y73874D01*
X80676Y73726D01*
X80824Y73626D01*
X81000Y73591D01*
X81800D01*
Y74000D01*
D02*
G37*
G36*
X79375Y73910D02*
X78965D01*
Y73575D01*
X79375D01*
Y73910D01*
D02*
G37*
G36*
X78435D02*
X78025D01*
Y73575D01*
X78435D01*
Y73910D01*
D02*
G37*
G36*
X84260Y68050D02*
X83950D01*
Y67740D01*
X84260D01*
Y68050D01*
D02*
G37*
G36*
Y67410D02*
X83950D01*
Y67100D01*
X84260D01*
Y67410D01*
D02*
G37*
G36*
X90425Y67275D02*
X90155D01*
Y67030D01*
X90425D01*
Y67275D01*
D02*
G37*
G36*
Y66770D02*
X90155D01*
Y66525D01*
X90425D01*
Y66770D01*
D02*
G37*
G36*
X87600Y66434D02*
X87450D01*
Y66025D01*
X88049D01*
X88024Y66151D01*
X87924Y66299D01*
X87776Y66399D01*
X87600Y66434D01*
D02*
G37*
G36*
X86850D02*
X86700D01*
X86524Y66399D01*
X86376Y66299D01*
X86276Y66151D01*
X86251Y66025D01*
X86850D01*
Y66434D01*
D02*
G37*
G36*
X81199Y66200D02*
X80600D01*
Y65791D01*
X80750D01*
X80926Y65826D01*
X81074Y65926D01*
X81174Y66074D01*
X81199Y66200D01*
D02*
G37*
G36*
X80000D02*
X79401D01*
X79426Y66074D01*
X79526Y65926D01*
X79674Y65826D01*
X79850Y65791D01*
X80000D01*
Y66200D01*
D02*
G37*
G36*
X78799D02*
X78200D01*
Y65791D01*
X78350D01*
X78526Y65826D01*
X78674Y65926D01*
X78774Y66074D01*
X78799Y66200D01*
D02*
G37*
G36*
X77600D02*
X77001D01*
X77026Y66074D01*
X77126Y65926D01*
X77274Y65826D01*
X77450Y65791D01*
X77600D01*
Y66200D01*
D02*
G37*
G36*
X88049Y65425D02*
X87450D01*
Y65016D01*
X87600D01*
X87776Y65051D01*
X87924Y65151D01*
X88024Y65299D01*
X88049Y65425D01*
D02*
G37*
G36*
X86850D02*
X86251D01*
X86276Y65299D01*
X86376Y65151D01*
X86524Y65051D01*
X86700Y65016D01*
X86850D01*
Y65425D01*
D02*
G37*
G36*
X80825Y65086D02*
X80535D01*
Y64465D01*
X80825D01*
Y65086D01*
D02*
G37*
G36*
X80005D02*
X79715D01*
Y64465D01*
X80005D01*
Y65086D01*
D02*
G37*
G36*
X79266Y65092D02*
X79265D01*
Y64465D01*
X79561D01*
Y64797D01*
X79538Y64910D01*
X79474Y65005D01*
X79379Y65069D01*
X79266Y65092D01*
D02*
G37*
G36*
X78735D02*
X78734D01*
X78621Y65069D01*
X78526Y65005D01*
X78462Y64910D01*
X78439Y64797D01*
Y64465D01*
X78735D01*
Y65092D01*
D02*
G37*
G36*
X77996D02*
X77995D01*
Y64465D01*
X78291D01*
Y64797D01*
X78268Y64910D01*
X78204Y65005D01*
X78109Y65069D01*
X77996Y65092D01*
D02*
G37*
G36*
X94000Y67910D02*
X93805Y67871D01*
X93640Y67760D01*
X93529Y67595D01*
X93490Y67400D01*
X93519Y67257D01*
X93494Y67130D01*
Y65325D01*
X93450D01*
Y64525D01*
Y63825D01*
X93494D01*
Y63353D01*
X93466Y63334D01*
X93394Y63227D01*
X93369Y63100D01*
Y62850D01*
X93394Y62723D01*
X93466Y62616D01*
X93573Y62544D01*
X93594Y62540D01*
Y62410D01*
X93573Y62406D01*
X93466Y62334D01*
X93394Y62227D01*
X93377Y62140D01*
X93825D01*
X94273D01*
X94256Y62227D01*
X94184Y62334D01*
X94077Y62406D01*
X94056Y62410D01*
Y62540D01*
X94077Y62544D01*
X94184Y62616D01*
X94256Y62723D01*
X94281Y62850D01*
Y63100D01*
X94256Y63227D01*
X94184Y63334D01*
X94156Y63353D01*
Y63825D01*
X94200D01*
Y64519D01*
X94766D01*
Y64400D01*
X94801Y64224D01*
X94901Y64076D01*
X95049Y63976D01*
X95225Y63941D01*
X96125D01*
X96301Y63976D01*
X96449Y64076D01*
X96549Y64224D01*
X96584Y64400D01*
Y64900D01*
X96549Y65076D01*
X96449Y65224D01*
X96301Y65324D01*
X96125Y65359D01*
X95225D01*
X95049Y65324D01*
X94901Y65224D01*
X94872Y65181D01*
X94200D01*
Y65325D01*
X94156D01*
Y66921D01*
X94195Y66929D01*
X94360Y67040D01*
X94471Y67205D01*
X94510Y67400D01*
X94471Y67595D01*
X94360Y67760D01*
X94195Y67871D01*
X94000Y67910D01*
D02*
G37*
G36*
X80825Y63935D02*
X80535D01*
Y63314D01*
X80825D01*
Y63935D01*
D02*
G37*
G36*
X80005D02*
X79715D01*
Y63314D01*
X80005D01*
Y63935D01*
D02*
G37*
G36*
X79561D02*
X79265D01*
Y63308D01*
X79266D01*
X79379Y63331D01*
X79474Y63395D01*
X79538Y63490D01*
X79561Y63603D01*
Y63935D01*
D02*
G37*
G36*
X78735D02*
X78439D01*
Y63603D01*
X78462Y63490D01*
X78526Y63395D01*
X78621Y63331D01*
X78734Y63308D01*
X78735D01*
Y63935D01*
D02*
G37*
G36*
X78291D02*
X77995D01*
Y63308D01*
X77996D01*
X78109Y63331D01*
X78204Y63395D01*
X78268Y63490D01*
X78291Y63603D01*
Y63935D01*
D02*
G37*
G36*
X77465D02*
X77169D01*
Y63603D01*
X77192Y63490D01*
X77256Y63395D01*
X77351Y63331D01*
X77464Y63308D01*
X77465D01*
Y63935D01*
D02*
G37*
G36*
X96125Y63659D02*
X95975D01*
Y63250D01*
X96574D01*
X96549Y63376D01*
X96449Y63524D01*
X96301Y63624D01*
X96125Y63659D01*
D02*
G37*
G36*
X95375D02*
X95225D01*
X95049Y63624D01*
X94901Y63524D01*
X94801Y63376D01*
X94776Y63250D01*
X95375D01*
Y63659D01*
D02*
G37*
G36*
X96574Y62650D02*
X95975D01*
Y62241D01*
X96125D01*
X96301Y62276D01*
X96449Y62376D01*
X96549Y62524D01*
X96574Y62650D01*
D02*
G37*
G36*
X95375D02*
X94776D01*
X94801Y62524D01*
X94901Y62376D01*
X95049Y62276D01*
X95225Y62241D01*
X95375D01*
Y62650D01*
D02*
G37*
G36*
X94273Y61810D02*
X93990D01*
Y61527D01*
X94077Y61544D01*
X94184Y61616D01*
X94256Y61723D01*
X94273Y61810D01*
D02*
G37*
G36*
X93660D02*
X93377D01*
X93394Y61723D01*
X93466Y61616D01*
X93573Y61544D01*
X93660Y61527D01*
Y61810D01*
D02*
G37*
G36*
X97500Y59590D02*
Y58800D01*
X98290D01*
X98213Y58944D01*
X97957Y59257D01*
X97644Y59513D01*
X97500Y59590D01*
D02*
G37*
G36*
X95500D02*
X95356Y59513D01*
X95043Y59257D01*
X94787Y58944D01*
X94710Y58800D01*
X95500D01*
Y59590D01*
D02*
G37*
G36*
X61300D02*
Y58800D01*
X62090D01*
X62013Y58944D01*
X61757Y59257D01*
X61444Y59513D01*
X61300Y59590D01*
D02*
G37*
G36*
X59300D02*
X59156Y59513D01*
X58843Y59257D01*
X58587Y58944D01*
X58510Y58800D01*
X59300D01*
Y59590D01*
D02*
G37*
G36*
X98290Y56800D02*
X97500D01*
Y56010D01*
X97644Y56087D01*
X97957Y56343D01*
X98213Y56656D01*
X98290Y56800D01*
D02*
G37*
G36*
X95500D02*
X94710D01*
X94787Y56656D01*
X95043Y56343D01*
X95356Y56087D01*
X95500Y56010D01*
Y56800D01*
D02*
G37*
G36*
X62090D02*
X61300D01*
Y56010D01*
X61444Y56087D01*
X61757Y56343D01*
X62013Y56656D01*
X62090Y56800D01*
D02*
G37*
G36*
X59300D02*
X58510D01*
X58587Y56656D01*
X58843Y56343D01*
X59156Y56087D01*
X59300Y56010D01*
Y56800D01*
D02*
G37*
%LPD*%
G36*
X85769Y86750D02*
X84400D01*
Y84400D01*
X86100D01*
Y83500D01*
X87000D01*
Y80250D01*
X87649D01*
X87739Y80160D01*
X87700Y76000D01*
X80600D01*
X79800Y76800D01*
Y78300D01*
X79456D01*
X79350Y78350D01*
X79350Y78427D01*
Y78675D01*
X78700D01*
X78050D01*
Y78427D01*
X78050Y78350D01*
X77944Y78300D01*
X77800D01*
X77000Y79100D01*
Y82958D01*
X77120Y82975D01*
X77127Y82975D01*
X77590D01*
Y83800D01*
Y84625D01*
X77127D01*
X77120Y84625D01*
X77000Y84642D01*
Y84908D01*
X77092Y84995D01*
X81400Y84780D01*
X81400Y78200D01*
X83700Y78200D01*
X83900Y78900D01*
X84150Y79550D01*
X83903Y87009D01*
X83991Y87100D01*
X85769D01*
Y86750D01*
D02*
G37*
G36*
X92205Y86875D02*
X92199Y86851D01*
X92110Y86750D01*
X91400D01*
Y83500D01*
Y80250D01*
X92200D01*
Y80662D01*
X92327Y80705D01*
X93100Y79700D01*
X93400Y79200D01*
X93434Y78793D01*
X93348Y78700D01*
X93100D01*
Y77600D01*
Y76500D01*
X93550D01*
X93600Y76394D01*
Y74400D01*
X94800Y71800D01*
Y71100D01*
X94300Y70500D01*
X93420D01*
Y70700D01*
X92845D01*
Y70900D01*
X93420D01*
Y71100D01*
X93800D01*
X94000Y71300D01*
X94100Y71500D01*
X93800Y72000D01*
X93175Y72875D01*
X93171Y72895D01*
X93060Y73060D01*
X93026Y73083D01*
X91279Y75530D01*
X91269Y75600D01*
X91900Y76231D01*
Y77000D01*
X91450D01*
Y76907D01*
X91444Y76875D01*
Y76712D01*
X91256Y76525D01*
X91136Y76565D01*
X90960Y77840D01*
X90150Y78650D01*
Y78700D01*
X90100D01*
X88500Y80300D01*
X88500Y86900D01*
X92198D01*
X92205Y86875D01*
D02*
G37*
G36*
X97919Y87213D02*
Y70487D01*
X97813Y70381D01*
X97675D01*
Y71225D01*
Y72175D01*
X96725D01*
Y72031D01*
X96580D01*
X96560Y72060D01*
X96395Y72171D01*
X96200Y72210D01*
X96005Y72171D01*
X95840Y72060D01*
X95729Y71895D01*
X95690Y71700D01*
X95729Y71505D01*
X95840Y71340D01*
X96005Y71229D01*
X96200Y71190D01*
X96395Y71229D01*
X96560Y71340D01*
X96580Y71369D01*
X96725D01*
Y70325D01*
X96869D01*
Y69775D01*
X96725D01*
Y68731D01*
X95575D01*
Y69135D01*
X95100D01*
Y69300D01*
X94935D01*
Y69775D01*
X94625D01*
Y69272D01*
X94498Y69259D01*
X94471Y69395D01*
X94360Y69560D01*
X94195Y69671D01*
X94000Y69710D01*
X93805Y69671D01*
X93640Y69560D01*
X93620Y69531D01*
X93440D01*
X93420Y69650D01*
X93420Y69650D01*
X93420Y69650D01*
Y69900D01*
X92845D01*
Y70100D01*
X93420D01*
Y70296D01*
X94300D01*
X94309Y70298D01*
X94318Y70297D01*
X94348Y70306D01*
X94378Y70312D01*
X94386Y70317D01*
X94395Y70319D01*
X94419Y70339D01*
X94444Y70356D01*
X94449Y70364D01*
X94457Y70369D01*
X94957Y70969D01*
X94971Y70996D01*
X94988Y71022D01*
X94990Y71031D01*
X94995Y71039D01*
X94998Y71070D01*
X95004Y71100D01*
Y71800D01*
X95003Y71804D01*
X95004Y71808D01*
X94995Y71843D01*
X94988Y71878D01*
X94986Y71881D01*
X94985Y71885D01*
X93804Y74445D01*
Y76394D01*
X93803Y76398D01*
X93804Y76403D01*
X93795Y76437D01*
X93788Y76472D01*
X93786Y76476D01*
X93785Y76481D01*
X93735Y76587D01*
X93714Y76615D01*
X93694Y76644D01*
X93690Y76647D01*
X93687Y76651D01*
X93657Y76669D01*
X93628Y76688D01*
X93623Y76689D01*
X93619Y76692D01*
X93584Y76697D01*
X93550Y76704D01*
Y78618D01*
X93584Y78655D01*
X93586Y78659D01*
X93590Y78662D01*
X93607Y78693D01*
X93625Y78723D01*
X93626Y78728D01*
X93628Y78731D01*
X93632Y78767D01*
X93638Y78802D01*
X93637Y78806D01*
X93637Y78810D01*
X93603Y79217D01*
X93601Y79223D01*
X93602Y79230D01*
X93590Y79261D01*
X93581Y79293D01*
X93577Y79299D01*
X93575Y79305D01*
X93275Y79805D01*
X93267Y79814D01*
X93262Y79824D01*
X92489Y80829D01*
X92484Y80834D01*
X92480Y80839D01*
X92454Y80860D01*
X92429Y80882D01*
X92422Y80884D01*
X92417Y80888D01*
X92385Y80896D01*
X92353Y80907D01*
X92347Y80907D01*
X92340Y80908D01*
X92327Y80907D01*
X92284Y80924D01*
X92207Y80990D01*
X92200Y80999D01*
Y86567D01*
X92226Y86587D01*
X92254Y86606D01*
X92257Y86611D01*
X92262Y86615D01*
X92352Y86716D01*
X92356Y86723D01*
X92362Y86729D01*
X92376Y86757D01*
X92392Y86785D01*
X92393Y86793D01*
X92396Y86800D01*
X92403Y86824D01*
X92403Y86839D01*
X92408Y86854D01*
X92406Y86879D01*
X92407Y86904D01*
X92402Y86918D01*
X92400Y86933D01*
X92393Y86958D01*
X92388Y86968D01*
X92386Y86978D01*
X92370Y87002D01*
X92356Y87028D01*
X92348Y87035D01*
X92342Y87044D01*
X92317Y87061D01*
X92295Y87079D01*
X92284Y87082D01*
X92276Y87088D01*
X92247Y87094D01*
X92219Y87103D01*
X92208Y87102D01*
X92198Y87104D01*
X88500D01*
X88422Y87088D01*
X88356Y87044D01*
X88312Y86978D01*
X88296Y86900D01*
X88296Y80300D01*
X88312Y80222D01*
X88356Y80156D01*
X88356Y80156D01*
X89694Y78817D01*
X89646Y78700D01*
X88056D01*
X87929Y78715D01*
X87942Y80158D01*
X87942Y80158D01*
X87942Y80159D01*
X87935Y80198D01*
X87928Y80236D01*
X87927Y80236D01*
X87927Y80237D01*
X87906Y80270D01*
X87884Y80303D01*
X87884Y80303D01*
X87883Y80303D01*
X87800Y80387D01*
Y86750D01*
X86431D01*
Y87469D01*
X97663D01*
X97919Y87213D01*
D02*
G37*
G36*
X69850Y73800D02*
Y71150D01*
X72675Y68325D01*
X76300D01*
X77125Y69150D01*
X77225Y69050D01*
X82700D01*
X84923Y71273D01*
X85050Y71220D01*
Y71050D01*
X85700D01*
X86350D01*
Y71375D01*
X86467Y71400D01*
X86650D01*
X86900Y71150D01*
X88353D01*
X88480Y71150D01*
Y70900D01*
X89055D01*
Y70700D01*
X88480D01*
Y70475D01*
X87075D01*
X86500Y69900D01*
X84350D01*
X81850Y67400D01*
X80943D01*
X80926Y67526D01*
X81074Y67626D01*
X81174Y67774D01*
X81199Y67900D01*
X79401D01*
X79426Y67774D01*
X79526Y67626D01*
X79674Y67526D01*
X79657Y67400D01*
X78543D01*
X78526Y67526D01*
X78674Y67626D01*
X78774Y67774D01*
X78799Y67900D01*
X77900D01*
Y68200D01*
D01*
Y67900D01*
X77001D01*
X77026Y67774D01*
X77126Y67626D01*
X77274Y67526D01*
X77257Y67400D01*
X74275D01*
X74129Y67254D01*
X74078Y67288D01*
X74000Y67304D01*
X73775D01*
Y67435D01*
X73300D01*
X72825D01*
Y67304D01*
X72600D01*
X72522Y67288D01*
X72456Y67244D01*
X72426Y67200D01*
X71075D01*
X70104Y68171D01*
Y68300D01*
X70088Y68378D01*
X70044Y68444D01*
X69978Y68488D01*
X69900Y68504D01*
X69771D01*
X68050Y70225D01*
X61875D01*
X61755Y74006D01*
X61878Y74125D01*
X69525D01*
X69850Y73800D01*
D02*
G37*
G36*
X69900Y65300D02*
X68325Y64125D01*
Y59475D01*
X75325D01*
X75300Y59500D01*
Y62225D01*
X75975Y62900D01*
X76000Y62875D01*
X81175D01*
Y57575D01*
X81439Y57311D01*
X81370Y57200D01*
X67650D01*
X66675Y58575D01*
X65775Y59475D01*
Y63025D01*
X64850D01*
X61900Y65975D01*
X61828Y68182D01*
X61942Y68300D01*
X62849D01*
X62881Y68173D01*
X62735Y68095D01*
X62499Y67901D01*
X62305Y67665D01*
X62163Y67400D01*
X63600D01*
X65037D01*
X64895Y67665D01*
X64701Y67901D01*
X64465Y68095D01*
X64319Y68173D01*
X64351Y68300D01*
X66250D01*
Y67400D01*
X67800D01*
X69350D01*
Y68300D01*
X69900D01*
Y65300D01*
D02*
G37*
G36*
X74000Y65348D02*
X77041Y65243D01*
X77053Y65057D01*
X76960Y65017D01*
X76928Y65009D01*
X76839Y65069D01*
X76726Y65092D01*
X76725D01*
Y64200D01*
X76460D01*
Y63935D01*
X75899D01*
Y63603D01*
X75914Y63527D01*
X75841Y63400D01*
X75400D01*
X74277Y62839D01*
X74150Y62917D01*
Y63220D01*
X73250D01*
Y63650D01*
X72820D01*
Y64500D01*
X72584D01*
X72497Y64592D01*
X72600Y66500D01*
Y67100D01*
X72825D01*
Y66865D01*
X73300D01*
X73775D01*
Y67100D01*
X74000D01*
X74000Y65348D01*
D02*
G37*
G36*
X70931Y67056D02*
X70997Y67012D01*
X71075Y66996D01*
X72396D01*
Y66506D01*
X72293Y64603D01*
X72294Y64600D01*
X72293Y64598D01*
X72299Y64561D01*
X72305Y64524D01*
X72306Y64522D01*
X72306Y64519D01*
X72326Y64488D01*
X72345Y64456D01*
X72347Y64454D01*
X72349Y64452D01*
X72350Y64451D01*
Y62800D01*
X73984D01*
X73985Y62798D01*
X73997Y62787D01*
X74006Y62773D01*
X74025Y62760D01*
X74043Y62744D01*
X74170Y62665D01*
X74192Y62657D01*
X74213Y62645D01*
X74229Y62643D01*
X74244Y62637D01*
X74268Y62638D01*
X74291Y62635D01*
X74307Y62639D01*
X74324Y62640D01*
X74345Y62650D01*
X74368Y62656D01*
X75448Y63196D01*
X75819D01*
X75841Y63196D01*
X75874Y63073D01*
X75859Y63063D01*
X75831Y63044D01*
X75831Y63044D01*
X75156Y62369D01*
X75112Y62303D01*
X75096Y62225D01*
Y59679D01*
X68529D01*
Y64023D01*
X70022Y65137D01*
X70032Y65148D01*
X70044Y65156D01*
X70058Y65177D01*
X70075Y65196D01*
X70080Y65210D01*
X70088Y65222D01*
X70093Y65247D01*
X70102Y65271D01*
X70101Y65285D01*
X70104Y65300D01*
Y67717D01*
X70221Y67765D01*
X70931Y67056D01*
D02*
G37*
%LPC*%
G36*
X78450Y84625D02*
Y84230D01*
X78920D01*
Y84625D01*
X78450D01*
D02*
G37*
G36*
X81000D02*
X80530D01*
Y84230D01*
X81000D01*
Y84625D01*
D02*
G37*
G36*
X79670D02*
X79200D01*
Y84230D01*
X79670D01*
Y84625D01*
D02*
G37*
G36*
X81000Y83370D02*
X80530D01*
Y82975D01*
X81000D01*
Y83370D01*
D02*
G37*
G36*
X79670D02*
X79200D01*
Y82975D01*
X79670D01*
Y83370D01*
D02*
G37*
G36*
X78920D02*
X78450D01*
Y82975D01*
X78920D01*
Y83370D01*
D02*
G37*
G36*
X85200Y82600D02*
X84400D01*
Y80250D01*
X85200D01*
Y82600D01*
D02*
G37*
G36*
X79350Y79600D02*
X79000D01*
Y79275D01*
X79350D01*
Y79600D01*
D02*
G37*
G36*
X78400D02*
X78050D01*
Y79275D01*
X78400D01*
Y79600D01*
D02*
G37*
G36*
X86900Y78009D02*
X86100D01*
Y77600D01*
X87349D01*
X87324Y77726D01*
X87224Y77874D01*
X87076Y77974D01*
X86900Y78009D01*
D02*
G37*
G36*
X85500D02*
X84700D01*
X84524Y77974D01*
X84376Y77874D01*
X84276Y77726D01*
X84251Y77600D01*
X85500D01*
Y78009D01*
D02*
G37*
G36*
X83200D02*
X82400D01*
Y77600D01*
X83649D01*
X83624Y77726D01*
X83524Y77874D01*
X83376Y77974D01*
X83200Y78009D01*
D02*
G37*
G36*
X81800D02*
X81000D01*
X80824Y77974D01*
X80676Y77874D01*
X80576Y77726D01*
X80551Y77600D01*
X81800D01*
Y78009D01*
D02*
G37*
G36*
X87349Y77000D02*
X86100D01*
Y76591D01*
X86900D01*
X87076Y76626D01*
X87224Y76726D01*
X87324Y76874D01*
X87349Y77000D01*
D02*
G37*
G36*
X85500D02*
X84251D01*
X84276Y76874D01*
X84376Y76726D01*
X84524Y76626D01*
X84700Y76591D01*
X85500D01*
Y77000D01*
D02*
G37*
G36*
X83649D02*
X82400D01*
Y76591D01*
X83200D01*
X83376Y76626D01*
X83524Y76726D01*
X83624Y76874D01*
X83649Y77000D01*
D02*
G37*
G36*
X81800D02*
X80551D01*
X80576Y76874D01*
X80676Y76726D01*
X80824Y76626D01*
X81000Y76591D01*
X81800D01*
Y77000D01*
D02*
G37*
G36*
X89600Y86750D02*
X88800D01*
Y84400D01*
X89600D01*
Y86750D01*
D02*
G37*
G36*
Y82600D02*
X88800D01*
Y80250D01*
X89600D01*
Y82600D01*
D02*
G37*
G36*
X91900Y78700D02*
X91450D01*
Y78200D01*
X91900D01*
Y78700D01*
D02*
G37*
G36*
X95575Y69775D02*
X95265D01*
Y69465D01*
X95575D01*
Y69775D01*
D02*
G37*
G36*
X68400Y73737D02*
Y72900D01*
X69237D01*
X69095Y73165D01*
X68901Y73401D01*
X68665Y73595D01*
X68400Y73737D01*
D02*
G37*
G36*
X64200D02*
Y72900D01*
X65037D01*
X64895Y73165D01*
X64701Y73401D01*
X64465Y73595D01*
X64200Y73737D01*
D02*
G37*
G36*
X67200D02*
X66935Y73595D01*
X66699Y73401D01*
X66505Y73165D01*
X66363Y72900D01*
X67200D01*
Y73737D01*
D02*
G37*
G36*
X63000D02*
X62735Y73595D01*
X62499Y73401D01*
X62305Y73165D01*
X62163Y72900D01*
X63000D01*
Y73737D01*
D02*
G37*
G36*
X69237Y71700D02*
X68400D01*
Y70863D01*
X68665Y71005D01*
X68901Y71199D01*
X69095Y71435D01*
X69237Y71700D01*
D02*
G37*
G36*
X65037D02*
X64200D01*
Y70863D01*
X64465Y71005D01*
X64701Y71199D01*
X64895Y71435D01*
X65037Y71700D01*
D02*
G37*
G36*
X67200D02*
X66363D01*
X66505Y71435D01*
X66699Y71199D01*
X66935Y71005D01*
X67200Y70863D01*
Y71700D01*
D02*
G37*
G36*
X63000D02*
X62163D01*
X62305Y71435D01*
X62499Y71199D01*
X62735Y71005D01*
X63000Y70863D01*
Y71700D01*
D02*
G37*
G36*
X86350Y70450D02*
X86000D01*
Y70125D01*
X86350D01*
Y70450D01*
D02*
G37*
G36*
X85400D02*
X85050D01*
Y70125D01*
X85400D01*
Y70450D01*
D02*
G37*
G36*
X80750Y68909D02*
X80600D01*
Y68500D01*
X81199D01*
X81174Y68626D01*
X81074Y68774D01*
X80926Y68874D01*
X80750Y68909D01*
D02*
G37*
G36*
X80000D02*
X79850D01*
X79674Y68874D01*
X79526Y68774D01*
X79426Y68626D01*
X79401Y68500D01*
X80000D01*
Y68909D01*
D02*
G37*
G36*
X78350D02*
X78200D01*
Y68500D01*
X78799D01*
X78774Y68626D01*
X78674Y68774D01*
X78526Y68874D01*
X78350Y68909D01*
D02*
G37*
G36*
X77600D02*
X77450D01*
X77274Y68874D01*
X77126Y68774D01*
X77026Y68626D01*
X77001Y68500D01*
X77600D01*
Y68909D01*
D02*
G37*
G36*
X73775Y68075D02*
X73465D01*
Y67765D01*
X73775D01*
Y68075D01*
D02*
G37*
G36*
X73135D02*
X72825D01*
Y67765D01*
X73135D01*
Y68075D01*
D02*
G37*
G36*
X65037Y66200D02*
X64200D01*
Y65363D01*
X64465Y65505D01*
X64701Y65699D01*
X64895Y65935D01*
X65037Y66200D01*
D02*
G37*
G36*
X63000D02*
X62163D01*
X62305Y65935D01*
X62499Y65699D01*
X62735Y65505D01*
X63000Y65363D01*
Y66200D01*
D02*
G37*
G36*
X69350D02*
X68400D01*
Y65250D01*
X69350D01*
Y66200D01*
D02*
G37*
G36*
X67200D02*
X66250D01*
Y65250D01*
X67200D01*
Y66200D01*
D02*
G37*
G36*
X68150Y62900D02*
X67700D01*
Y62400D01*
X68150D01*
Y62900D01*
D02*
G37*
G36*
X66500D02*
X66050D01*
Y62400D01*
X66500D01*
Y62900D01*
D02*
G37*
G36*
X80144Y62712D02*
X79365D01*
Y61480D01*
X80932D01*
Y61924D01*
X80905Y62128D01*
X80826Y62318D01*
X80701Y62481D01*
X80538Y62606D01*
X80348Y62685D01*
X80144Y62712D01*
D02*
G37*
G36*
X77365D02*
X76586D01*
X76382Y62685D01*
X76192Y62606D01*
X76029Y62481D01*
X75904Y62318D01*
X75825Y62128D01*
X75798Y61924D01*
Y61480D01*
X77365D01*
Y62712D01*
D02*
G37*
G36*
X68150Y61200D02*
X67700D01*
Y60700D01*
X68150D01*
Y61200D01*
D02*
G37*
G36*
X66500D02*
X66050D01*
Y60700D01*
X66500D01*
Y61200D01*
D02*
G37*
G36*
X77365Y59480D02*
X75798D01*
Y59036D01*
X75825Y58832D01*
X75899Y58653D01*
Y58063D01*
X75922Y57950D01*
X75986Y57855D01*
X76081Y57791D01*
X76194Y57768D01*
X76195D01*
Y58660D01*
X76725D01*
Y57768D01*
X76726D01*
X76839Y57791D01*
X76934Y57855D01*
X76998Y57950D01*
X77021Y58063D01*
Y58248D01*
X77169D01*
Y58063D01*
X77192Y57950D01*
X77256Y57855D01*
X77351Y57791D01*
X77365Y57788D01*
Y59480D01*
D02*
G37*
G36*
X80932D02*
X79365D01*
Y57788D01*
X79379Y57791D01*
X79474Y57855D01*
X79538Y57950D01*
X79561Y58063D01*
Y58248D01*
X79709D01*
Y58063D01*
X79732Y57950D01*
X79796Y57855D01*
X79891Y57791D01*
X80004Y57768D01*
X80005D01*
Y58660D01*
X80535D01*
Y57768D01*
X80536D01*
X80649Y57791D01*
X80744Y57855D01*
X80808Y57950D01*
X80831Y58063D01*
Y58653D01*
X80905Y58832D01*
X80932Y59036D01*
Y59480D01*
D02*
G37*
G36*
X73775Y66535D02*
X73465D01*
Y66225D01*
X73775D01*
Y66535D01*
D02*
G37*
G36*
X73135D02*
X72825D01*
Y66225D01*
X73135D01*
Y66535D01*
D02*
G37*
G36*
X76195Y65092D02*
X76194D01*
X76081Y65069D01*
X75986Y65005D01*
X75922Y64910D01*
X75899Y64797D01*
Y64465D01*
X76195D01*
Y65092D01*
D02*
G37*
G36*
X74150Y64500D02*
X73680D01*
Y64080D01*
X74150D01*
Y64500D01*
D02*
G37*
G36*
X71550Y62900D02*
X69450D01*
Y60700D01*
X71550D01*
Y60733D01*
X72400D01*
Y59900D01*
X74200D01*
Y61600D01*
X72400D01*
Y61548D01*
X71550D01*
Y62900D01*
D02*
G37*
%LPD*%
D12*
X71160Y61140D02*
X72910D01*
D13*
X94000Y67305D02*
Y67400D01*
X93825Y67130D02*
X94000Y67305D01*
X93825Y64925D02*
Y67130D01*
Y62975D02*
Y64225D01*
Y64900D02*
Y64925D01*
Y64900D02*
X93875Y64850D01*
X95475D01*
X95675Y64650D01*
X88830Y69200D02*
X89055D01*
X88226Y68596D02*
X88830Y69200D01*
X88226Y68301D02*
Y68596D01*
X87350Y67425D02*
X88226Y68301D01*
X87150Y67425D02*
X87350D01*
X85675Y69200D02*
X85700D01*
X85375Y68900D02*
X85675Y69200D01*
X85375Y67625D02*
Y68900D01*
X85325Y67575D02*
X85375Y67625D01*
X89055Y68400D02*
X89280D01*
X89305Y66920D02*
X89325Y66900D01*
X89305Y66920D02*
Y68375D01*
X89280Y68400D02*
X89305Y68375D01*
X88805Y68400D02*
X89055D01*
X92845Y71600D02*
X92895D01*
X92700Y71625D02*
Y72700D01*
Y71625D02*
X92725Y71600D01*
X92845D01*
X89055D02*
X89105D01*
X89025D02*
X89055D01*
X89000Y71625D02*
X89025Y71600D01*
X89000Y71625D02*
Y74800D01*
X92895Y68400D02*
X95100D01*
X92845Y69200D02*
X94000D01*
X87500Y70000D02*
X89055D01*
X98250Y70350D02*
Y87350D01*
X97800Y87800D02*
X98250Y87350D01*
X86246Y87800D02*
X97800D01*
X97950Y70050D02*
X98250Y70350D01*
X97200Y70050D02*
X97950D01*
X86100Y83662D02*
Y87654D01*
X86100Y83500D02*
Y83662D01*
X86100Y87654D02*
X86246Y87800D01*
X86100Y83662D02*
X86100Y83662D01*
X78700Y75825D02*
Y77425D01*
X80100Y83800D02*
X80400Y83500D01*
X97200Y70050D02*
Y70800D01*
Y69300D02*
Y70050D01*
X96200Y71700D02*
X97200D01*
X91500Y70000D02*
X92895D01*
X91000D02*
X91500D01*
X91775Y76875D02*
X92500Y77600D01*
X91775Y76575D02*
Y76875D01*
X90000Y74800D02*
X91775Y76575D01*
X92895Y68400D02*
X92895Y68400D01*
X95100D02*
X97200D01*
X87000Y69500D02*
X87500Y70000D01*
X86000Y69500D02*
X87000D01*
X85700Y69200D02*
X86000Y69500D01*
D14*
X77795Y88870D02*
X79060Y87605D01*
X73410Y88870D02*
X77795D01*
X73280Y89000D02*
X73410Y88870D01*
D41*
X90950Y70000D02*
D03*
D42*
X92845Y68400D02*
D03*
Y69200D02*
D03*
Y70000D02*
D03*
Y70800D02*
D03*
Y71600D02*
D03*
X89055Y68400D02*
D03*
Y69200D02*
D03*
Y70000D02*
D03*
Y70800D02*
D03*
Y71600D02*
D03*
D43*
X89000Y74800D02*
D03*
X90000D02*
D03*
D44*
X97200Y71700D02*
D03*
Y70800D02*
D03*
X73300Y66700D02*
D03*
Y67600D02*
D03*
X97200Y68400D02*
D03*
Y69300D02*
D03*
X95100D02*
D03*
Y68400D02*
D03*
D45*
X86100Y83500D02*
D03*
X90500D02*
D03*
D46*
X78020Y83800D02*
D03*
X80100D02*
D03*
D47*
X79060Y87605D02*
D03*
D48*
X85700Y69200D02*
D03*
Y70750D02*
D03*
X78700Y77425D02*
D03*
Y78975D02*
D03*
D49*
X93825Y64925D02*
D03*
Y64225D02*
D03*
D50*
X89325Y66900D02*
D03*
X90025D02*
D03*
D51*
X73250Y63650D02*
D03*
X73300Y60750D02*
D03*
D52*
X85800Y74300D02*
D03*
Y77300D02*
D03*
X82100Y74300D02*
D03*
Y77300D02*
D03*
D53*
X80300Y66500D02*
D03*
Y68200D02*
D03*
X77900D02*
D03*
Y66500D02*
D03*
X95675Y62950D02*
D03*
Y64650D02*
D03*
X87150Y65725D02*
D03*
Y67425D02*
D03*
D54*
X78700Y74175D02*
D03*
Y75825D02*
D03*
D55*
X89100Y77600D02*
D03*
X92500D02*
D03*
X70500Y61800D02*
D03*
X67100D02*
D03*
D56*
X84425Y67575D02*
D03*
X85325D02*
D03*
D57*
X93825Y61975D02*
D03*
Y62975D02*
D03*
D58*
X78365Y60480D02*
D03*
D59*
X76460Y58660D02*
D03*
X77730D02*
D03*
X79000D02*
D03*
X80270D02*
D03*
X76460Y64200D02*
D03*
X77730D02*
D03*
X79000D02*
D03*
D60*
X80270D02*
D03*
D61*
X95193Y64400D02*
X95425D01*
X70500Y61800D02*
X71160Y61140D01*
X72910D02*
X73300Y60750D01*
D62*
X96500Y94200D02*
D03*
Y57800D02*
D03*
X60300D02*
D03*
D63*
X73410Y88870D02*
D03*
D64*
Y86370D02*
D03*
Y84370D02*
D03*
Y81870D02*
D03*
D65*
X70700Y91940D02*
D03*
Y78800D02*
D03*
D66*
X67800Y66800D02*
D03*
D67*
X63600D02*
D03*
Y72300D02*
D03*
X67800D02*
D03*
D68*
X96250Y90000D02*
D03*
Y85000D02*
D03*
X95000Y82500D02*
D03*
X96250Y80000D02*
D03*
X95000Y77500D02*
D03*
X96250Y75000D02*
D03*
Y70000D02*
D03*
X95000Y67500D02*
D03*
X96250Y60000D02*
D03*
X93750Y95000D02*
D03*
X92500Y92500D02*
D03*
X93750Y90000D02*
D03*
Y85000D02*
D03*
Y80000D02*
D03*
X92500Y67500D02*
D03*
Y62500D02*
D03*
X93750Y60000D02*
D03*
X92500Y57500D02*
D03*
X91250Y95000D02*
D03*
X90000Y92500D02*
D03*
X91250Y90000D02*
D03*
X90000Y72500D02*
D03*
X91250Y65000D02*
D03*
X90000Y62500D02*
D03*
X91250Y60000D02*
D03*
X90000Y57500D02*
D03*
X88750Y95000D02*
D03*
X87500Y92500D02*
D03*
X88750Y90000D02*
D03*
X87500Y72500D02*
D03*
X88750Y65000D02*
D03*
X87500Y62500D02*
D03*
X88750Y60000D02*
D03*
X87500Y57500D02*
D03*
X86250Y95000D02*
D03*
X85000Y92500D02*
D03*
X86250Y90000D02*
D03*
X85000Y72500D02*
D03*
Y62500D02*
D03*
X86250Y60000D02*
D03*
X85000Y57500D02*
D03*
X83750Y95000D02*
D03*
X82500Y92500D02*
D03*
X83750Y90000D02*
D03*
X82500Y87500D02*
D03*
Y82500D02*
D03*
Y72500D02*
D03*
X83750Y65000D02*
D03*
X82500Y62500D02*
D03*
X83750Y60000D02*
D03*
X82500Y57500D02*
D03*
X81250Y95000D02*
D03*
X80000Y92500D02*
D03*
Y72500D02*
D03*
X81250Y70000D02*
D03*
Y65000D02*
D03*
X78750Y95000D02*
D03*
X77500Y92500D02*
D03*
Y77500D02*
D03*
Y72500D02*
D03*
X78750Y70000D02*
D03*
X76250Y95000D02*
D03*
X75000Y92500D02*
D03*
Y87500D02*
D03*
Y82500D02*
D03*
X76250Y80000D02*
D03*
X75000Y77500D02*
D03*
X76250Y75000D02*
D03*
X75000Y72500D02*
D03*
X76250Y70000D02*
D03*
X73750Y95000D02*
D03*
X72500Y87500D02*
D03*
X73750Y80000D02*
D03*
Y75000D02*
D03*
X72500Y72500D02*
D03*
X73750Y70000D02*
D03*
X71250Y95000D02*
D03*
X70000Y87500D02*
D03*
X71250Y85000D02*
D03*
X70000Y82500D02*
D03*
X71250Y75000D02*
D03*
Y65000D02*
D03*
Y60000D02*
D03*
X68750Y95000D02*
D03*
X67500Y92500D02*
D03*
X68750Y90000D02*
D03*
X67500Y87500D02*
D03*
X68750Y85000D02*
D03*
X67500Y82500D02*
D03*
Y77500D02*
D03*
X68750Y75000D02*
D03*
X66250Y95000D02*
D03*
X65000Y92500D02*
D03*
X66250Y90000D02*
D03*
X65000Y87500D02*
D03*
X66250Y85000D02*
D03*
X65000Y82500D02*
D03*
X66250Y80000D02*
D03*
X65000Y77500D02*
D03*
X66250Y75000D02*
D03*
X65000Y62500D02*
D03*
Y57500D02*
D03*
X63750Y95000D02*
D03*
X62500Y92500D02*
D03*
X63750Y90000D02*
D03*
X62500Y87500D02*
D03*
X63750Y85000D02*
D03*
X62500Y82500D02*
D03*
X63750Y80000D02*
D03*
X62500Y77500D02*
D03*
X63750Y75000D02*
D03*
X62500Y62500D02*
D03*
X63750Y60000D02*
D03*
X62500Y57500D02*
D03*
X61250Y95000D02*
D03*
X60000Y92500D02*
D03*
X61250Y90000D02*
D03*
X60000Y87500D02*
D03*
X61250Y85000D02*
D03*
X60000Y82500D02*
D03*
X61250Y80000D02*
D03*
X60000Y77500D02*
D03*
X61250Y75000D02*
D03*
X60000Y72500D02*
D03*
X61250Y70000D02*
D03*
X60000Y67500D02*
D03*
X61250Y65000D02*
D03*
X60000Y62500D02*
D03*
X61250Y60000D02*
D03*
X94000Y67400D02*
D03*
X91525Y69025D02*
D03*
X90375D02*
D03*
X90350Y70000D02*
D03*
X91500D02*
D03*
Y70875D02*
D03*
X90325D02*
D03*
X96200Y71700D02*
D03*
X92700Y72700D02*
D03*
X94000Y69200D02*
D03*
M02*
