G04*
G04 #@! TF.GenerationSoftware,Altium Limited,Altium Designer,19.1.6 (110)*
G04*
G04 Layer_Color=8388736*
%FSLAX43Y43*%
%MOMM*%
G71*
G01*
G75*
%ADD15R,2.590X3.100*%
%ADD16R,0.850X0.400*%
G04:AMPARAMS|DCode=17|XSize=0.6mm|YSize=0.6mm|CornerRadius=0.175mm|HoleSize=0mm|Usage=FLASHONLY|Rotation=90.000|XOffset=0mm|YOffset=0mm|HoleType=Round|Shape=RoundedRectangle|*
%AMROUNDEDRECTD17*
21,1,0.600,0.250,0,0,90.0*
21,1,0.250,0.600,0,0,90.0*
1,1,0.350,0.125,0.125*
1,1,0.350,0.125,-0.125*
1,1,0.350,-0.125,-0.125*
1,1,0.350,-0.125,0.125*
%
%ADD17ROUNDEDRECTD17*%
%ADD18R,0.650X0.650*%
%ADD19R,3.100X6.200*%
%ADD20R,1.500X1.350*%
%ADD21R,4.900X4.900*%
%ADD22R,1.000X0.950*%
%ADD23R,0.450X0.500*%
%ADD24R,0.500X0.450*%
%ADD25R,1.500X1.400*%
G04:AMPARAMS|DCode=26|XSize=2.8mm|YSize=1.1mm|CornerRadius=0.3mm|HoleSize=0mm|Usage=FLASHONLY|Rotation=0.000|XOffset=0mm|YOffset=0mm|HoleType=Round|Shape=RoundedRectangle|*
%AMROUNDEDRECTD26*
21,1,2.800,0.500,0,0,0.0*
21,1,2.200,1.100,0,0,0.0*
1,1,0.600,1.100,-0.250*
1,1,0.600,-1.100,-0.250*
1,1,0.600,-1.100,0.250*
1,1,0.600,1.100,0.250*
%
%ADD26ROUNDEDRECTD26*%
G04:AMPARAMS|DCode=27|XSize=1.5mm|YSize=1.1mm|CornerRadius=0.3mm|HoleSize=0mm|Usage=FLASHONLY|Rotation=0.000|XOffset=0mm|YOffset=0mm|HoleType=Round|Shape=RoundedRectangle|*
%AMROUNDEDRECTD27*
21,1,1.500,0.500,0,0,0.0*
21,1,0.900,1.100,0,0,0.0*
1,1,0.600,0.450,-0.250*
1,1,0.600,-0.450,-0.250*
1,1,0.600,-0.450,0.250*
1,1,0.600,0.450,0.250*
%
%ADD27ROUNDEDRECTD27*%
%ADD28R,1.050X0.900*%
%ADD29R,1.800X1.900*%
%ADD30R,0.650X0.650*%
G04:AMPARAMS|DCode=31|XSize=0.6mm|YSize=0.6mm|CornerRadius=0.175mm|HoleSize=0mm|Usage=FLASHONLY|Rotation=180.000|XOffset=0mm|YOffset=0mm|HoleType=Round|Shape=RoundedRectangle|*
%AMROUNDEDRECTD31*
21,1,0.600,0.250,0,0,180.0*
21,1,0.250,0.600,0,0,180.0*
1,1,0.350,-0.125,0.125*
1,1,0.350,0.125,0.125*
1,1,0.350,0.125,-0.125*
1,1,0.350,-0.125,-0.125*
%
%ADD31ROUNDEDRECTD31*%
G04:AMPARAMS|DCode=32|XSize=4.62mm|YSize=3.95mm|CornerRadius=0.531mm|HoleSize=0mm|Usage=FLASHONLY|Rotation=0.000|XOffset=0mm|YOffset=0mm|HoleType=Round|Shape=RoundedRectangle|*
%AMROUNDEDRECTD32*
21,1,4.620,2.888,0,0,0.0*
21,1,3.558,3.950,0,0,0.0*
1,1,1.063,1.779,-1.444*
1,1,1.063,-1.779,-1.444*
1,1,1.063,-1.779,1.444*
1,1,1.063,1.779,1.444*
%
%ADD32ROUNDEDRECTD32*%
G04:AMPARAMS|DCode=33|XSize=0.81mm|YSize=1.472mm|CornerRadius=0.139mm|HoleSize=0mm|Usage=FLASHONLY|Rotation=0.000|XOffset=0mm|YOffset=0mm|HoleType=Round|Shape=RoundedRectangle|*
%AMROUNDEDRECTD33*
21,1,0.810,1.195,0,0,0.0*
21,1,0.532,1.472,0,0,0.0*
1,1,0.278,0.266,-0.597*
1,1,0.278,-0.266,-0.597*
1,1,0.278,-0.266,0.597*
1,1,0.278,0.266,0.597*
%
%ADD33ROUNDEDRECTD33*%
%ADD34R,0.810X1.472*%
%ADD35C,3.400*%
%ADD36R,1.670X1.670*%
%ADD37C,1.670*%
%ADD38C,4.100*%
%ADD39R,2.600X2.600*%
%ADD40C,2.600*%
D15*
X90950Y70000D02*
D03*
D16*
X92845Y68400D02*
D03*
Y69200D02*
D03*
Y70000D02*
D03*
Y70800D02*
D03*
Y71600D02*
D03*
X89055Y68400D02*
D03*
Y69200D02*
D03*
Y70000D02*
D03*
Y70800D02*
D03*
Y71600D02*
D03*
D17*
X89000Y74800D02*
D03*
X90000D02*
D03*
D18*
X97200Y71700D02*
D03*
Y70800D02*
D03*
X73300Y66700D02*
D03*
Y67600D02*
D03*
X97200Y68400D02*
D03*
Y69300D02*
D03*
X95100D02*
D03*
Y68400D02*
D03*
D19*
X86100Y83500D02*
D03*
X90500D02*
D03*
D20*
X78020Y83800D02*
D03*
X80100D02*
D03*
D21*
X79060Y87605D02*
D03*
D22*
X85700Y69200D02*
D03*
Y70750D02*
D03*
X78700Y77425D02*
D03*
Y78975D02*
D03*
D23*
X93825Y64925D02*
D03*
Y64225D02*
D03*
D24*
X89325Y66900D02*
D03*
X90025D02*
D03*
D25*
X73250Y63650D02*
D03*
X73300Y60750D02*
D03*
D26*
X85800Y74300D02*
D03*
Y77300D02*
D03*
X82100Y74300D02*
D03*
Y77300D02*
D03*
D27*
X80300Y66500D02*
D03*
Y68200D02*
D03*
X77900D02*
D03*
Y66500D02*
D03*
X95675Y62950D02*
D03*
Y64650D02*
D03*
X87150Y65725D02*
D03*
Y67425D02*
D03*
D28*
X78700Y74175D02*
D03*
Y75825D02*
D03*
D29*
X89100Y77600D02*
D03*
X92500D02*
D03*
X70500Y61800D02*
D03*
X67100D02*
D03*
D30*
X84425Y67575D02*
D03*
X85325D02*
D03*
D31*
X93825Y61975D02*
D03*
Y62975D02*
D03*
D32*
X78365Y60480D02*
D03*
D33*
X76460Y58660D02*
D03*
X77730D02*
D03*
X79000D02*
D03*
X80270D02*
D03*
X76460Y64200D02*
D03*
X77730D02*
D03*
X79000D02*
D03*
D34*
X80270D02*
D03*
D35*
X96500Y94200D02*
D03*
Y57800D02*
D03*
X60300D02*
D03*
D36*
X73410Y88870D02*
D03*
D37*
Y86370D02*
D03*
Y84370D02*
D03*
Y81870D02*
D03*
D38*
X70700Y91940D02*
D03*
Y78800D02*
D03*
D39*
X67800Y66800D02*
D03*
D40*
X63600D02*
D03*
Y72300D02*
D03*
X67800D02*
D03*
M02*
