G04*
G04 #@! TF.GenerationSoftware,Altium Limited,Altium Designer,19.1.6 (110)*
G04*
G04 Layer_Physical_Order=2*
G04 Layer_Color=16711680*
%FSLAX43Y43*%
%MOMM*%
G71*
G01*
G75*
%ADD13C,0.250*%
%ADD62C,3.300*%
%ADD63R,1.570X1.570*%
%ADD64C,1.570*%
%ADD65C,4.000*%
%ADD66R,2.500X2.500*%
%ADD67C,2.500*%
%ADD68C,0.600*%
G36*
X98745Y55355D02*
X58055D01*
X58055Y96445D01*
X98745D01*
X98745Y55355D01*
D02*
G37*
%LPC*%
G36*
X97500Y95990D02*
Y95200D01*
X98290D01*
X98213Y95344D01*
X97957Y95657D01*
X97644Y95913D01*
X97500Y95990D01*
D02*
G37*
G36*
X95500D02*
X95356Y95913D01*
X95043Y95657D01*
X94787Y95344D01*
X94710Y95200D01*
X95500D01*
Y95990D01*
D02*
G37*
G36*
X71700Y94127D02*
Y92940D01*
X72887D01*
X72705Y93280D01*
X72405Y93645D01*
X72040Y93945D01*
X71700Y94127D01*
D02*
G37*
G36*
X69700Y94127D02*
X69360Y93945D01*
X68995Y93645D01*
X68695Y93280D01*
X68513Y92940D01*
X69700D01*
Y94127D01*
D02*
G37*
G36*
X98290Y93200D02*
X97500D01*
Y92410D01*
X97644Y92487D01*
X97957Y92743D01*
X98213Y93056D01*
X98290Y93200D01*
D02*
G37*
G36*
X95500D02*
X94710D01*
X94787Y93056D01*
X95043Y92743D01*
X95356Y92487D01*
X95500Y92410D01*
Y93200D01*
D02*
G37*
G36*
X72887Y90940D02*
X71700D01*
Y89753D01*
X72040Y89935D01*
X72405Y90235D01*
X72705Y90600D01*
X72887Y90940D01*
D02*
G37*
G36*
X69700D02*
X68513D01*
X68695Y90600D01*
X68995Y90235D01*
X69360Y89935D01*
X69700Y89753D01*
Y90940D01*
D02*
G37*
G36*
X74395Y89855D02*
X72425D01*
Y87885D01*
X74395D01*
Y89855D01*
D02*
G37*
G36*
X73410Y87364D02*
X73153Y87330D01*
X72913Y87230D01*
X72707Y87073D01*
X72550Y86867D01*
X72450Y86627D01*
X72416Y86370D01*
X72450Y86113D01*
X72550Y85873D01*
X72707Y85667D01*
X72913Y85510D01*
X73084Y85439D01*
Y85301D01*
X72913Y85230D01*
X72707Y85073D01*
X72550Y84867D01*
X72450Y84627D01*
X72416Y84370D01*
X72450Y84113D01*
X72550Y83873D01*
X72707Y83667D01*
X72913Y83510D01*
X73153Y83410D01*
X73410Y83377D01*
X73667Y83410D01*
X73907Y83510D01*
X74113Y83667D01*
X74270Y83873D01*
X74370Y84113D01*
X74404Y84370D01*
X74370Y84627D01*
X74270Y84867D01*
X74113Y85073D01*
X73907Y85230D01*
X73736Y85301D01*
Y85439D01*
X73907Y85510D01*
X74113Y85667D01*
X74270Y85873D01*
X74370Y86113D01*
X74404Y86370D01*
X74370Y86627D01*
X74270Y86867D01*
X74113Y87073D01*
X73907Y87230D01*
X73667Y87330D01*
X73410Y87364D01*
D02*
G37*
G36*
X73810Y82879D02*
Y82270D01*
X74419D01*
X74358Y82417D01*
X74184Y82644D01*
X73957Y82818D01*
X73810Y82879D01*
D02*
G37*
G36*
X73010D02*
X72863Y82818D01*
X72636Y82644D01*
X72462Y82417D01*
X72401Y82270D01*
X73010D01*
Y82879D01*
D02*
G37*
G36*
X74419Y81470D02*
X73810D01*
Y80861D01*
X73957Y80922D01*
X74184Y81096D01*
X74358Y81323D01*
X74419Y81470D01*
D02*
G37*
G36*
X73010D02*
X72401D01*
X72462Y81323D01*
X72636Y81096D01*
X72863Y80922D01*
X73010Y80861D01*
Y81470D01*
D02*
G37*
G36*
X71700Y80987D02*
Y79800D01*
X72887D01*
X72705Y80140D01*
X72405Y80505D01*
X72040Y80805D01*
X71700Y80987D01*
D02*
G37*
G36*
X69700D02*
X69360Y80805D01*
X68995Y80505D01*
X68695Y80140D01*
X68513Y79800D01*
X69700D01*
Y80987D01*
D02*
G37*
G36*
X72887Y77800D02*
X71700D01*
Y76613D01*
X72040Y76795D01*
X72405Y77095D01*
X72705Y77460D01*
X72887Y77800D01*
D02*
G37*
G36*
X69700D02*
X68513D01*
X68695Y77460D01*
X68995Y77095D01*
X69360Y76795D01*
X69700Y76613D01*
Y77800D01*
D02*
G37*
G36*
X92700Y73210D02*
X92505Y73171D01*
X92340Y73060D01*
X92229Y72895D01*
X92190Y72700D01*
X92229Y72505D01*
X92340Y72340D01*
X92505Y72229D01*
X92700Y72190D01*
X92734Y72197D01*
X93466Y71466D01*
X93573Y71394D01*
X93700Y71369D01*
X95820D01*
X95840Y71340D01*
X96005Y71229D01*
X96200Y71190D01*
X96395Y71229D01*
X96560Y71340D01*
X96671Y71505D01*
X96710Y71700D01*
X96671Y71895D01*
X96560Y72060D01*
X96395Y72171D01*
X96200Y72210D01*
X96005Y72171D01*
X95840Y72060D01*
X95820Y72031D01*
X93837D01*
X93203Y72666D01*
X93210Y72700D01*
X93171Y72895D01*
X93060Y73060D01*
X92895Y73171D01*
X92700Y73210D01*
D02*
G37*
G36*
X67800Y73763D02*
X67421Y73713D01*
X67069Y73567D01*
X66766Y73334D01*
X66533Y73031D01*
X66387Y72679D01*
X66337Y72300D01*
X66387Y71921D01*
X66533Y71569D01*
X66766Y71266D01*
X67069Y71033D01*
X67421Y70887D01*
X67800Y70837D01*
X68179Y70887D01*
X68531Y71033D01*
X68834Y71266D01*
X69067Y71569D01*
X69213Y71921D01*
X69263Y72300D01*
X69213Y72679D01*
X69067Y73031D01*
X68834Y73334D01*
X68531Y73567D01*
X68179Y73713D01*
X67800Y73763D01*
D02*
G37*
G36*
X63600D02*
X63221Y73713D01*
X62869Y73567D01*
X62566Y73334D01*
X62333Y73031D01*
X62187Y72679D01*
X62137Y72300D01*
X62187Y71921D01*
X62333Y71569D01*
X62566Y71266D01*
X62869Y71033D01*
X63221Y70887D01*
X63600Y70837D01*
X63979Y70887D01*
X64331Y71033D01*
X64634Y71266D01*
X64867Y71569D01*
X65013Y71921D01*
X65063Y72300D01*
X65013Y72679D01*
X64867Y73031D01*
X64634Y73334D01*
X64331Y73567D01*
X63979Y73713D01*
X63600Y73763D01*
D02*
G37*
G36*
X94000Y69710D02*
X93805Y69671D01*
X93640Y69560D01*
X93529Y69395D01*
X93490Y69200D01*
X93529Y69005D01*
X93640Y68840D01*
X93669Y68820D01*
Y67780D01*
X93640Y67760D01*
X93529Y67595D01*
X93490Y67400D01*
X93529Y67205D01*
X93640Y67040D01*
X93805Y66929D01*
X94000Y66890D01*
X94195Y66929D01*
X94360Y67040D01*
X94471Y67205D01*
X94510Y67400D01*
X94471Y67595D01*
X94360Y67760D01*
X94331Y67780D01*
Y68820D01*
X94360Y68840D01*
X94471Y69005D01*
X94510Y69200D01*
X94471Y69395D01*
X94360Y69560D01*
X94195Y69671D01*
X94000Y69710D01*
D02*
G37*
G36*
X69250Y68250D02*
X66350D01*
Y65350D01*
X69250D01*
Y68250D01*
D02*
G37*
G36*
X63600Y68263D02*
X63221Y68213D01*
X62869Y68067D01*
X62566Y67834D01*
X62333Y67531D01*
X62187Y67179D01*
X62137Y66800D01*
X62187Y66421D01*
X62333Y66069D01*
X62566Y65766D01*
X62869Y65533D01*
X63221Y65387D01*
X63600Y65337D01*
X63979Y65387D01*
X64331Y65533D01*
X64634Y65766D01*
X64867Y66069D01*
X65013Y66421D01*
X65063Y66800D01*
X65013Y67179D01*
X64867Y67531D01*
X64634Y67834D01*
X64331Y68067D01*
X63979Y68213D01*
X63600Y68263D01*
D02*
G37*
G36*
X97500Y59590D02*
Y58800D01*
X98290D01*
X98213Y58944D01*
X97957Y59257D01*
X97644Y59513D01*
X97500Y59590D01*
D02*
G37*
G36*
X95500D02*
X95356Y59513D01*
X95043Y59257D01*
X94787Y58944D01*
X94710Y58800D01*
X95500D01*
Y59590D01*
D02*
G37*
G36*
X61300D02*
Y58800D01*
X62090D01*
X62013Y58944D01*
X61757Y59257D01*
X61444Y59513D01*
X61300Y59590D01*
D02*
G37*
G36*
X59300D02*
X59156Y59513D01*
X58843Y59257D01*
X58587Y58944D01*
X58510Y58800D01*
X59300D01*
Y59590D01*
D02*
G37*
G36*
X98290Y56800D02*
X97500D01*
Y56010D01*
X97644Y56087D01*
X97957Y56343D01*
X98213Y56656D01*
X98290Y56800D01*
D02*
G37*
G36*
X95500D02*
X94710D01*
X94787Y56656D01*
X95043Y56343D01*
X95356Y56087D01*
X95500Y56010D01*
Y56800D01*
D02*
G37*
G36*
X62090D02*
X61300D01*
Y56010D01*
X61444Y56087D01*
X61757Y56343D01*
X62013Y56656D01*
X62090Y56800D01*
D02*
G37*
G36*
X59300D02*
X58510D01*
X58587Y56656D01*
X58843Y56343D01*
X59156Y56087D01*
X59300Y56010D01*
Y56800D01*
D02*
G37*
%LPD*%
D13*
X94000Y67400D02*
Y69200D01*
X93700Y71700D02*
X96200D01*
X92700Y72700D02*
X93700Y71700D01*
X93933Y69133D02*
X94000Y69200D01*
D62*
X96500Y94200D02*
D03*
Y57800D02*
D03*
X60300D02*
D03*
D63*
X73410Y88870D02*
D03*
D64*
Y86370D02*
D03*
Y84370D02*
D03*
Y81870D02*
D03*
D65*
X70700Y91940D02*
D03*
Y78800D02*
D03*
D66*
X67800Y66800D02*
D03*
D67*
X63600D02*
D03*
Y72300D02*
D03*
X67800D02*
D03*
D68*
X96250Y90000D02*
D03*
Y85000D02*
D03*
X95000Y82500D02*
D03*
X96250Y80000D02*
D03*
X95000Y77500D02*
D03*
X96250Y75000D02*
D03*
Y70000D02*
D03*
X95000Y67500D02*
D03*
X96250Y60000D02*
D03*
X93750Y95000D02*
D03*
X92500Y92500D02*
D03*
X93750Y90000D02*
D03*
Y85000D02*
D03*
Y80000D02*
D03*
X92500Y67500D02*
D03*
Y62500D02*
D03*
X93750Y60000D02*
D03*
X92500Y57500D02*
D03*
X91250Y95000D02*
D03*
X90000Y92500D02*
D03*
X91250Y90000D02*
D03*
X90000Y72500D02*
D03*
X91250Y65000D02*
D03*
X90000Y62500D02*
D03*
X91250Y60000D02*
D03*
X90000Y57500D02*
D03*
X88750Y95000D02*
D03*
X87500Y92500D02*
D03*
X88750Y90000D02*
D03*
X87500Y72500D02*
D03*
X88750Y65000D02*
D03*
X87500Y62500D02*
D03*
X88750Y60000D02*
D03*
X87500Y57500D02*
D03*
X86250Y95000D02*
D03*
X85000Y92500D02*
D03*
X86250Y90000D02*
D03*
X85000Y72500D02*
D03*
Y62500D02*
D03*
X86250Y60000D02*
D03*
X85000Y57500D02*
D03*
X83750Y95000D02*
D03*
X82500Y92500D02*
D03*
X83750Y90000D02*
D03*
X82500Y87500D02*
D03*
Y82500D02*
D03*
Y72500D02*
D03*
X83750Y65000D02*
D03*
X82500Y62500D02*
D03*
X83750Y60000D02*
D03*
X82500Y57500D02*
D03*
X81250Y95000D02*
D03*
X80000Y92500D02*
D03*
Y72500D02*
D03*
X81250Y70000D02*
D03*
Y65000D02*
D03*
X78750Y95000D02*
D03*
X77500Y92500D02*
D03*
Y77500D02*
D03*
Y72500D02*
D03*
X78750Y70000D02*
D03*
X76250Y95000D02*
D03*
X75000Y92500D02*
D03*
Y87500D02*
D03*
Y82500D02*
D03*
X76250Y80000D02*
D03*
X75000Y77500D02*
D03*
X76250Y75000D02*
D03*
X75000Y72500D02*
D03*
X76250Y70000D02*
D03*
X73750Y95000D02*
D03*
X72500Y87500D02*
D03*
X73750Y80000D02*
D03*
Y75000D02*
D03*
X72500Y72500D02*
D03*
X73750Y70000D02*
D03*
X71250Y95000D02*
D03*
X70000Y87500D02*
D03*
X71250Y85000D02*
D03*
X70000Y82500D02*
D03*
X71250Y75000D02*
D03*
Y65000D02*
D03*
Y60000D02*
D03*
X68750Y95000D02*
D03*
X67500Y92500D02*
D03*
X68750Y90000D02*
D03*
X67500Y87500D02*
D03*
X68750Y85000D02*
D03*
X67500Y82500D02*
D03*
Y77500D02*
D03*
X68750Y75000D02*
D03*
X66250Y95000D02*
D03*
X65000Y92500D02*
D03*
X66250Y90000D02*
D03*
X65000Y87500D02*
D03*
X66250Y85000D02*
D03*
X65000Y82500D02*
D03*
X66250Y80000D02*
D03*
X65000Y77500D02*
D03*
X66250Y75000D02*
D03*
X65000Y62500D02*
D03*
Y57500D02*
D03*
X63750Y95000D02*
D03*
X62500Y92500D02*
D03*
X63750Y90000D02*
D03*
X62500Y87500D02*
D03*
X63750Y85000D02*
D03*
X62500Y82500D02*
D03*
X63750Y80000D02*
D03*
X62500Y77500D02*
D03*
X63750Y75000D02*
D03*
X62500Y62500D02*
D03*
X63750Y60000D02*
D03*
X62500Y57500D02*
D03*
X61250Y95000D02*
D03*
X60000Y92500D02*
D03*
X61250Y90000D02*
D03*
X60000Y87500D02*
D03*
X61250Y85000D02*
D03*
X60000Y82500D02*
D03*
X61250Y80000D02*
D03*
X60000Y77500D02*
D03*
X61250Y75000D02*
D03*
X60000Y72500D02*
D03*
X61250Y70000D02*
D03*
X60000Y67500D02*
D03*
X61250Y65000D02*
D03*
X60000Y62500D02*
D03*
X61250Y60000D02*
D03*
X94000Y67400D02*
D03*
X91525Y69025D02*
D03*
X90375D02*
D03*
X90350Y70000D02*
D03*
X91500D02*
D03*
Y70875D02*
D03*
X90325D02*
D03*
X96200Y71700D02*
D03*
X92700Y72700D02*
D03*
X94000Y69200D02*
D03*
M02*
