M48
;Layer_Color=9474304
;FILE_FORMAT=4:3
METRIC,LZ
;TYPE=PLATED
T1F00S00C0.300
T2F00S00C0.900
T3F00S00C1.400
T4F00S00C1.600
T5F00S00C2.400
%
T01
X00825Y00575
X0085
X00875
X009
X00925
X009375Y006
X009625
X009125
X008875
X008625
X008375
X0085Y00625
X00875
X009
X00925
X009125Y0065
X008875
X008375
X008125
X00825Y00625
X008125Y007
X00825Y00725
X0085
X00875
X009
X0090325Y0070875
X009035Y007
X0090375Y0069025
X0091525
X00915Y007
Y0070875
X00927Y00727
X00962Y00717
X009625Y007
X0094Y00692
Y00674
X0095Y00675
X00925
X009625Y0075
X0095Y00775
X008Y00725
X00775
X0075
X00725
X007375Y0075
X007625
X00775Y00775
X0075
X007125Y0075
X006875
X006625
X006375
X006125
X00625Y00775
X0065
X00675
X006
Y00725
X006125Y007
X006Y00675
X006125Y0065
X00625Y00625
X0065
X006375Y006
X006125
X00625Y00575
X0065
X007125Y006
Y0065
X007375Y007
X007625
X007875
X006Y00625
X006125Y008
X006375
X006625
X00675Y00825
X007
X007125Y0085
X006875
X006625
X006375
X006125
X00625Y00875
X0065
X00675
X007
X00725
X0075
Y00925
X00775
X007875Y0095
X007625
X007375
X007125
X006875
X006625
X006375
X006125
X00625Y00925
X0065
X00675
X006875Y009
X006625
X006375
X006125
X006Y00925
Y00875
Y00825
X00625
X0065
X0075
X007625Y008
X007375
X00825Y00825
Y00875
X008375Y009
X008625
X008875
X009125
X009375
X009625
Y0085
X009375
X0095Y00825
X009625Y008
X009375
X00925Y00925
X009
X00875
X0085
X00825
X008
X008125Y0095
X008375
X008625
X008875
X009125
X009375
T02
X007341Y008187
Y008437
Y008637
Y008887
T03
X00636Y00668
X00678
Y00723
X00636
T04
X00965Y00578
X00603
X00965Y00942
T05
X00707Y00788
Y009194
M30
