G04*
G04 #@! TF.GenerationSoftware,Altium Limited,Altium Designer,19.1.6 (110)*
G04*
G04 Layer_Color=8388736*
%FSLAX43Y43*%
%MOMM*%
G71*
G01*
G75*
%ADD14R,1.100X1.250*%
%ADD15R,2.250X1.600*%
%ADD16R,0.950X0.500*%
%ADD17R,0.950X1.000*%
%ADD18R,0.900X1.050*%
%ADD19R,1.000X0.950*%
%ADD20R,3.060X3.060*%
%ADD21O,1.500X0.550*%
%ADD22R,1.500X0.550*%
%ADD23R,1.250X1.100*%
%ADD24R,1.900X1.750*%
%ADD25R,3.050X3.600*%
%ADD26R,1.400X1.100*%
%ADD27C,4.300*%
%ADD28R,2.000X2.000*%
%ADD29C,2.000*%
D14*
X72700Y89225D02*
D03*
Y87825D02*
D03*
X75100Y81025D02*
D03*
Y82425D02*
D03*
X72700Y85800D02*
D03*
Y84400D02*
D03*
X75100Y85825D02*
D03*
Y84425D02*
D03*
X72700Y81000D02*
D03*
Y82400D02*
D03*
X60900Y87900D02*
D03*
Y89300D02*
D03*
D15*
X80150Y75014D02*
D03*
X71900D02*
D03*
D16*
X56750Y87800D02*
D03*
X59100D02*
D03*
D17*
X86600Y91000D02*
D03*
X85050D02*
D03*
D18*
X85000Y93100D02*
D03*
X86650D02*
D03*
D19*
X77500Y80975D02*
D03*
Y82525D02*
D03*
Y84450D02*
D03*
Y86000D02*
D03*
D20*
X66800Y83900D02*
D03*
D21*
X69750Y80975D02*
D03*
Y81625D02*
D03*
Y82275D02*
D03*
Y82925D02*
D03*
Y83575D02*
D03*
Y84225D02*
D03*
Y84875D02*
D03*
Y85525D02*
D03*
Y86175D02*
D03*
Y86825D02*
D03*
X63850Y80975D02*
D03*
Y81625D02*
D03*
Y82275D02*
D03*
Y82925D02*
D03*
Y83575D02*
D03*
Y84225D02*
D03*
Y84875D02*
D03*
Y85525D02*
D03*
Y86175D02*
D03*
D22*
Y86825D02*
D03*
D23*
X68400Y79300D02*
D03*
X69800D02*
D03*
D24*
X60500Y85425D02*
D03*
Y82975D02*
D03*
X57700Y85425D02*
D03*
Y82975D02*
D03*
D25*
X64000Y91600D02*
D03*
X69450D02*
D03*
D26*
X54025Y73624D02*
D03*
X50125Y71874D02*
D03*
Y75374D02*
D03*
X66925Y73624D02*
D03*
X63025Y71874D02*
D03*
Y75374D02*
D03*
X60300Y73650D02*
D03*
X56400Y71900D02*
D03*
Y75400D02*
D03*
D27*
X88900Y74900D02*
D03*
X49500Y91100D02*
D03*
D28*
X82500Y81900D02*
D03*
X54200Y85500D02*
D03*
D29*
X82500Y84400D02*
D03*
Y86900D02*
D03*
X54200Y83000D02*
D03*
M02*
