M48
;Layer_Color=9474304
;FILE_FORMAT=4:3
METRIC,LZ
;TYPE=PLATED
T1F00S00C0.300
T2F00S00C1.000
T3F00S00C2.200
%
T01
X00516Y00713
Y00722
X00526
Y00713
X00554Y00736
X00579Y00722
Y00713
X00589
Y00722
X00619Y00737
X00645Y00722
Y00713
X00655
Y00722
X00684Y00736
X00688Y00779
X00679
X0067
Y00787
X00785Y00762
X00793
X00785Y00754
Y00746
Y00737
X00793
X00787Y00797
Y00805
Y00813
Y00826
X00763Y00814
Y00805
X0076Y00797
X00751
X00742
X00733
X00724
X00715
Y00805
Y00814
X00712Y00829
Y00836
X00677Y0084
Y00849
X00668
X00659
Y00839
X00668
Y0083
X00677
X00673Y00819
Y00811
X00681
Y00819
X00664
Y00811
X00655
Y00819
X00659Y0083
X00655Y00859
X00664
X00673
X00681
X00739Y00863
X0074Y00872
Y0088
X00748
Y00872
X00756
Y0088
X00739Y00814
Y00805
X00769Y00797
X00778
X0067Y00795
X00624Y00822
Y00829
Y00836
X00609Y00834
Y00826
X00601
Y00834
X00591
Y00826
X00581
X00573
Y00834
X00581
Y00817
X0059
X00599
X00608
X00617
X00572
X00563
Y00826
Y00834
X00571Y00894
X00579
X00587
X00595
Y00886
X00836Y00931
T02
X00542Y0083
Y00855
X00825Y00844
Y00819
Y00869
T03
X00889Y00749
X00495Y00911
M30
