G04*
G04 #@! TF.GenerationSoftware,Altium Limited,Altium Designer,19.1.6 (110)*
G04*
G04 Layer_Color=32896*
%FSLAX43Y43*%
%MOMM*%
G71*
G01*
G75*
G36*
X79339Y72062D02*
X79353Y72057D01*
X79363Y72049D01*
X79370Y72041D01*
X79376Y72031D01*
X79380Y72023D01*
X79382Y72018D01*
Y72016D01*
X79417Y71877D01*
X79419Y71867D01*
Y71863D01*
Y71862D01*
X79417Y71852D01*
X79415Y71846D01*
X79413Y71842D01*
X79411Y71840D01*
X79398Y71834D01*
X79388Y71830D01*
X79382Y71828D01*
X79380D01*
X79364Y71830D01*
X79353Y71834D01*
X79345Y71838D01*
X79343Y71840D01*
X79331Y71852D01*
X79325Y71863D01*
X79322Y71873D01*
Y71877D01*
X79298Y71967D01*
X78849D01*
X79402Y70818D01*
X79407Y70806D01*
Y70791D01*
X79405Y70781D01*
X79402Y70773D01*
X79400Y70771D01*
X79390Y70765D01*
X79378Y70763D01*
X79370Y70761D01*
X79368D01*
X79337Y70769D01*
X79324Y70781D01*
X79316Y70791D01*
X79312Y70795D01*
Y70796D01*
X78732Y72006D01*
X78725Y72018D01*
X78723Y72027D01*
Y72029D01*
X78725Y72039D01*
X78727Y72045D01*
X78729Y72049D01*
X78730Y72051D01*
X78740Y72059D01*
X78752Y72062D01*
X78760Y72064D01*
X79324D01*
X79339Y72062D01*
D02*
G37*
G36*
X83886Y72061D02*
X83898Y72057D01*
X83906Y72053D01*
X83908Y72051D01*
X84255Y71770D01*
X84267Y71754D01*
X84274Y71744D01*
X84278Y71739D01*
Y71737D01*
X84280Y71731D01*
Y71729D01*
Y71727D01*
X84278Y71717D01*
X84276Y71709D01*
X84274Y71705D01*
X84272Y71704D01*
X84263Y71694D01*
X84251Y71690D01*
X84243Y71688D01*
X84239D01*
X84226Y71690D01*
X84216Y71696D01*
X84208Y71702D01*
X84204Y71704D01*
X83958Y71899D01*
X84233Y70806D01*
Y70791D01*
X84232Y70781D01*
X84228Y70773D01*
X84226Y70771D01*
X84212Y70765D01*
X84202Y70763D01*
X84198Y70761D01*
X84196D01*
X84181Y70763D01*
X84169Y70767D01*
X84161Y70769D01*
X84157Y70771D01*
X84148Y70781D01*
X84140Y70793D01*
X84138Y70802D01*
X84136Y70806D01*
X83834Y72016D01*
X83832Y72023D01*
Y72027D01*
X83834Y72037D01*
X83836Y72045D01*
X83837Y72049D01*
X83839Y72051D01*
X83851Y72059D01*
X83861Y72061D01*
X83869Y72062D01*
X83873D01*
X83886Y72061D01*
D02*
G37*
G36*
X87597Y72062D02*
X87610Y72057D01*
X87618Y72049D01*
X87622Y72047D01*
X87632Y72035D01*
X87637Y72025D01*
X87641Y72018D01*
Y72016D01*
X87747Y71598D01*
X87753Y71569D01*
X87755Y71538D01*
X87753Y71489D01*
X87743Y71454D01*
X87735Y71438D01*
X87729Y71425D01*
X87723Y71413D01*
X87717Y71405D01*
X87715Y71399D01*
X87714Y71397D01*
X87684Y71370D01*
X87655Y71350D01*
X87626Y71337D01*
X87598Y71327D01*
X87573Y71321D01*
X87554Y71319D01*
X87546Y71317D01*
X87259D01*
X87327Y71038D01*
X87337Y71011D01*
X87351Y70986D01*
X87364Y70962D01*
X87380Y70945D01*
X87394Y70929D01*
X87405Y70917D01*
X87413Y70910D01*
X87417Y70908D01*
X87442Y70890D01*
X87468Y70876D01*
X87491Y70869D01*
X87515Y70861D01*
X87532Y70857D01*
X87546Y70855D01*
X87792D01*
X87807Y70851D01*
X87821Y70845D01*
X87829Y70839D01*
X87833Y70835D01*
X87842Y70824D01*
X87848Y70816D01*
X87852Y70810D01*
Y70808D01*
X87854Y70798D01*
Y70796D01*
Y70795D01*
X87852Y70785D01*
X87850Y70777D01*
X87848Y70773D01*
Y70771D01*
X87838Y70765D01*
X87827Y70763D01*
X87819Y70761D01*
X87583D01*
X87540Y70765D01*
X87499Y70773D01*
X87462Y70787D01*
X87429Y70802D01*
X87401Y70816D01*
X87380Y70830D01*
X87372Y70834D01*
X87366Y70837D01*
X87364Y70841D01*
X87362D01*
X87327Y70873D01*
X87298Y70908D01*
X87275Y70939D01*
X87259Y70970D01*
X87245Y70997D01*
X87238Y71019D01*
X87236Y71027D01*
X87234Y71032D01*
X87232Y71036D01*
Y71038D01*
X86988Y72016D01*
X86986Y72025D01*
Y72029D01*
X86988Y72039D01*
X86990Y72045D01*
X86992Y72049D01*
X86994Y72051D01*
X87003Y72059D01*
X87013Y72062D01*
X87019Y72064D01*
X87023D01*
X87037Y72062D01*
X87050Y72057D01*
X87058Y72049D01*
X87062Y72047D01*
X87072Y72035D01*
X87080Y72025D01*
X87083Y72018D01*
Y72016D01*
X87234Y71415D01*
X87513D01*
X87540Y71417D01*
X87563Y71423D01*
X87585Y71432D01*
X87600Y71442D01*
X87614Y71450D01*
X87622Y71460D01*
X87628Y71466D01*
X87630Y71467D01*
X87641Y71489D01*
X87649Y71510D01*
X87653Y71532D01*
X87655Y71551D01*
Y71569D01*
X87653Y71585D01*
X87651Y71592D01*
Y71596D01*
X87546Y72016D01*
X87544Y72029D01*
X87548Y72041D01*
X87552Y72049D01*
X87554Y72051D01*
X87563Y72059D01*
X87573Y72062D01*
X87579Y72064D01*
X87583D01*
X87597Y72062D01*
D02*
G37*
G36*
X90597Y72061D02*
X90640Y72051D01*
X90677Y72037D01*
X90710Y72021D01*
X90737Y72006D01*
X90759Y71992D01*
X90766Y71986D01*
X90772Y71982D01*
X90774Y71981D01*
X90776Y71979D01*
X90811Y71945D01*
X90839Y71912D01*
X90860Y71879D01*
X90878Y71850D01*
X90889Y71823D01*
X90897Y71803D01*
X90899Y71795D01*
X90901Y71789D01*
X90903Y71785D01*
Y71784D01*
X91090Y71038D01*
X91096Y71013D01*
X91098Y70992D01*
X91100Y70984D01*
Y70978D01*
Y70974D01*
Y70972D01*
X91098Y70945D01*
X91092Y70921D01*
X91086Y70898D01*
X91077Y70878D01*
X91069Y70863D01*
X91063Y70851D01*
X91057Y70843D01*
X91055Y70841D01*
X91028Y70814D01*
X90999Y70795D01*
X90969Y70781D01*
X90942Y70771D01*
X90917Y70765D01*
X90895Y70763D01*
X90887Y70761D01*
X90647D01*
X90632Y70763D01*
X90618Y70769D01*
X90610Y70773D01*
X90608Y70775D01*
X90597Y70785D01*
X90591Y70796D01*
X90587Y70804D01*
Y70806D01*
Y70818D01*
X90589Y70830D01*
X90593Y70837D01*
X90595Y70839D01*
X90605Y70849D01*
X90614Y70853D01*
X90620Y70855D01*
X90856D01*
X90883Y70857D01*
X90907Y70863D01*
X90926Y70873D01*
X90944Y70882D01*
X90956Y70890D01*
X90965Y70900D01*
X90971Y70906D01*
X90973Y70908D01*
X90985Y70929D01*
X90993Y70951D01*
X90997Y70974D01*
X90999Y70993D01*
Y71011D01*
X90997Y71027D01*
X90995Y71034D01*
Y71038D01*
X90809Y71784D01*
X90800Y71811D01*
X90786Y71836D01*
X90772Y71860D01*
X90757Y71879D01*
X90743Y71893D01*
X90731Y71904D01*
X90724Y71912D01*
X90722Y71914D01*
X90696Y71932D01*
X90671Y71945D01*
X90645Y71953D01*
X90624Y71961D01*
X90605Y71965D01*
X90591Y71967D01*
X90345D01*
X90329Y71969D01*
X90316Y71975D01*
X90308Y71981D01*
X90306Y71982D01*
X90294Y71994D01*
X90288Y72004D01*
X90285Y72012D01*
Y72014D01*
X90283Y72021D01*
Y72023D01*
X90285Y72033D01*
X90287Y72043D01*
X90290Y72049D01*
X90292Y72051D01*
X90302Y72059D01*
X90312Y72062D01*
X90318Y72064D01*
X90575D01*
X90597Y72061D01*
D02*
G37*
G36*
X90070Y72062D02*
X90084Y72057D01*
X90093Y72049D01*
X90101Y72041D01*
X90107Y72031D01*
X90111Y72023D01*
X90113Y72018D01*
Y72016D01*
X90417Y70808D01*
X90419Y70796D01*
Y70793D01*
Y70791D01*
X90417Y70783D01*
X90415Y70777D01*
X90413Y70773D01*
X90411Y70771D01*
X90398Y70765D01*
X90388Y70763D01*
X90382Y70761D01*
X90380D01*
X90365Y70763D01*
X90353Y70767D01*
X90345Y70769D01*
X90343Y70771D01*
X90331Y70781D01*
X90326Y70793D01*
X90322Y70802D01*
Y70806D01*
X90031Y71967D01*
X89569D01*
X89857Y70806D01*
X89859Y70791D01*
X89857Y70779D01*
X89855Y70773D01*
X89853Y70771D01*
X89840Y70765D01*
X89830Y70763D01*
X89824Y70761D01*
X89822D01*
X89807Y70763D01*
X89795Y70767D01*
X89787Y70769D01*
X89785Y70771D01*
X89774Y70781D01*
X89768Y70793D01*
X89764Y70802D01*
X89762Y70806D01*
X89459Y72014D01*
X89457Y72025D01*
Y72029D01*
Y72031D01*
X89459Y72043D01*
X89463Y72051D01*
X89469Y72057D01*
X89477Y72061D01*
X89491Y72064D01*
X90054D01*
X90070Y72062D01*
D02*
G37*
G36*
X89243D02*
X89257Y72057D01*
X89266Y72049D01*
X89274Y72041D01*
X89280Y72031D01*
X89284Y72023D01*
X89286Y72018D01*
Y72016D01*
X89588Y70808D01*
X89590Y70795D01*
Y70791D01*
Y70789D01*
X89588Y70779D01*
X89584Y70773D01*
X89571Y70765D01*
X89557Y70761D01*
X89227D01*
X89184Y70765D01*
X89143Y70773D01*
X89106Y70787D01*
X89073Y70802D01*
X89046Y70816D01*
X89024Y70830D01*
X89017Y70834D01*
X89011Y70837D01*
X89009Y70841D01*
X89007D01*
X88972Y70873D01*
X88942Y70908D01*
X88919Y70939D01*
X88903Y70970D01*
X88890Y70997D01*
X88882Y71019D01*
X88880Y71027D01*
X88878Y71032D01*
X88876Y71036D01*
Y71038D01*
X88829Y71224D01*
X88824Y71255D01*
X88820Y71284D01*
X88822Y71335D01*
X88825Y71352D01*
X88831Y71370D01*
X88837Y71384D01*
X88843Y71397D01*
X88851Y71407D01*
X88855Y71417D01*
X88859Y71421D01*
X88861Y71423D01*
X88886Y71450D01*
X88915Y71469D01*
X88946Y71485D01*
X88974Y71495D01*
X89001Y71501D01*
X89021Y71503D01*
X89028Y71505D01*
X89317D01*
X89202Y71967D01*
X88738D01*
X88722Y71969D01*
X88710Y71975D01*
X88703Y71981D01*
X88701Y71982D01*
X88689Y71994D01*
X88683Y72004D01*
X88679Y72012D01*
X88677Y72014D01*
Y72021D01*
Y72023D01*
X88679Y72033D01*
X88681Y72043D01*
X88685Y72049D01*
X88687Y72051D01*
X88695Y72059D01*
X88705Y72062D01*
X88712Y72064D01*
X89227D01*
X89243Y72062D01*
D02*
G37*
G36*
X88410D02*
X88424Y72057D01*
X88433Y72049D01*
X88441Y72041D01*
X88447Y72031D01*
X88451Y72023D01*
X88453Y72018D01*
Y72016D01*
X88757Y70808D01*
X88759Y70796D01*
Y70793D01*
Y70791D01*
X88757Y70783D01*
X88755Y70777D01*
X88753Y70773D01*
X88751Y70771D01*
X88738Y70765D01*
X88728Y70763D01*
X88722Y70761D01*
X88720D01*
X88705Y70763D01*
X88693Y70767D01*
X88685Y70769D01*
X88683Y70771D01*
X88671Y70781D01*
X88665Y70793D01*
X88662Y70802D01*
Y70806D01*
X88371Y71967D01*
X87909D01*
X88197Y70806D01*
X88199Y70791D01*
X88197Y70779D01*
X88195Y70773D01*
X88193Y70771D01*
X88180Y70765D01*
X88170Y70763D01*
X88164Y70761D01*
X88162D01*
X88147Y70763D01*
X88135Y70767D01*
X88127Y70769D01*
X88125Y70771D01*
X88113Y70781D01*
X88108Y70793D01*
X88104Y70802D01*
X88102Y70806D01*
X87799Y72014D01*
X87797Y72025D01*
Y72029D01*
Y72031D01*
X87799Y72043D01*
X87803Y72051D01*
X87809Y72057D01*
X87817Y72061D01*
X87831Y72064D01*
X88394D01*
X88410Y72062D01*
D02*
G37*
G36*
X87078Y70851D02*
X87091Y70845D01*
X87099Y70839D01*
X87103Y70835D01*
X87113Y70824D01*
X87117Y70816D01*
X87121Y70810D01*
Y70808D01*
X87122Y70798D01*
Y70796D01*
Y70795D01*
X87121Y70785D01*
X87119Y70777D01*
X87117Y70773D01*
Y70771D01*
X87107Y70765D01*
X87097Y70763D01*
X87087Y70761D01*
X87083D01*
X87068Y70763D01*
X87054Y70769D01*
X87046Y70773D01*
X87044Y70775D01*
X87035Y70785D01*
X87029Y70796D01*
X87025Y70804D01*
Y70806D01*
X87023Y70812D01*
Y70816D01*
X87025Y70826D01*
X87027Y70834D01*
X87029Y70837D01*
X87031Y70839D01*
X87041Y70849D01*
X87050Y70853D01*
X87056Y70855D01*
X87060D01*
X87078Y70851D01*
D02*
G37*
G36*
X86463Y72061D02*
X86477Y72055D01*
X86485Y72049D01*
X86489Y72045D01*
X86498Y72033D01*
X86502Y72023D01*
X86506Y72018D01*
Y72016D01*
X86508Y72002D01*
Y71990D01*
X86506Y71982D01*
X86504Y71981D01*
X86494Y71973D01*
X86483Y71969D01*
X86473Y71967D01*
X86284D01*
X86256Y71965D01*
X86233Y71959D01*
X86212Y71949D01*
X86196Y71940D01*
X86182Y71930D01*
X86174Y71920D01*
X86169Y71914D01*
X86167Y71912D01*
X86155Y71891D01*
X86147Y71869D01*
X86143Y71848D01*
X86141Y71828D01*
Y71811D01*
X86143Y71797D01*
X86145Y71787D01*
Y71784D01*
X86169Y71692D01*
X86178Y71665D01*
X86192Y71639D01*
X86206Y71616D01*
X86221Y71596D01*
X86235Y71581D01*
X86245Y71569D01*
X86252Y71561D01*
X86256Y71559D01*
X86282Y71542D01*
X86307Y71528D01*
X86330Y71520D01*
X86354Y71512D01*
X86373Y71508D01*
X86387Y71507D01*
X86401D01*
X86416Y71503D01*
X86430Y71497D01*
X86438Y71491D01*
X86442Y71487D01*
X86451Y71475D01*
X86455Y71466D01*
X86459Y71460D01*
Y71458D01*
X86461Y71444D01*
Y71432D01*
X86459Y71425D01*
X86457Y71423D01*
X86448Y71415D01*
X86436Y71411D01*
X86428Y71409D01*
X86377D01*
X86350Y71407D01*
X86327Y71401D01*
X86305Y71391D01*
X86290Y71382D01*
X86276Y71372D01*
X86268Y71362D01*
X86262Y71356D01*
X86260Y71354D01*
X86249Y71333D01*
X86241Y71311D01*
X86237Y71290D01*
X86235Y71270D01*
Y71253D01*
X86237Y71239D01*
X86239Y71230D01*
Y71226D01*
X86286Y71040D01*
X86295Y71013D01*
X86307Y70988D01*
X86323Y70964D01*
X86336Y70945D01*
X86350Y70929D01*
X86362Y70917D01*
X86369Y70910D01*
X86373Y70908D01*
X86399Y70890D01*
X86424Y70876D01*
X86448Y70869D01*
X86469Y70861D01*
X86489Y70857D01*
X86502Y70855D01*
X86748D01*
X86766Y70851D01*
X86779Y70845D01*
X86787Y70839D01*
X86791Y70835D01*
X86801Y70824D01*
X86805Y70814D01*
X86808Y70808D01*
Y70806D01*
X86810Y70798D01*
Y70796D01*
Y70795D01*
X86808Y70787D01*
X86806Y70779D01*
X86805Y70775D01*
Y70773D01*
X86795Y70767D01*
X86785Y70763D01*
X86775Y70761D01*
X86539D01*
X86496Y70765D01*
X86455Y70773D01*
X86418Y70787D01*
X86385Y70802D01*
X86360Y70816D01*
X86338Y70830D01*
X86330Y70834D01*
X86325Y70837D01*
X86323Y70841D01*
X86321D01*
X86286Y70873D01*
X86258Y70906D01*
X86235Y70939D01*
X86217Y70970D01*
X86204Y70997D01*
X86196Y71019D01*
X86194Y71027D01*
X86192Y71032D01*
X86190Y71036D01*
Y71038D01*
X86143Y71224D01*
X86137Y71253D01*
X86135Y71280D01*
X86137Y71306D01*
X86139Y71329D01*
X86141Y71347D01*
X86145Y71362D01*
X86147Y71370D01*
X86149Y71374D01*
X86161Y71399D01*
X86172Y71419D01*
X86186Y71436D01*
X86200Y71450D01*
X86212Y71460D01*
X86221Y71467D01*
X86229Y71471D01*
X86231Y71473D01*
X86208Y71491D01*
X86188Y71507D01*
X86171Y71524D01*
X86157Y71538D01*
X86145Y71551D01*
X86137Y71561D01*
X86133Y71567D01*
X86132Y71569D01*
X86116Y71588D01*
X86106Y71606D01*
X86100Y71618D01*
X86098Y71620D01*
Y71622D01*
X86089Y71639D01*
X86083Y71659D01*
X86073Y71690D01*
X86052Y71784D01*
X86044Y71811D01*
X86042Y71832D01*
X86040Y71842D01*
Y71848D01*
Y71852D01*
Y71854D01*
X86042Y71881D01*
X86046Y71904D01*
X86053Y71928D01*
X86059Y71945D01*
X86067Y71961D01*
X86075Y71973D01*
X86079Y71981D01*
X86081Y71982D01*
X86106Y72010D01*
X86135Y72029D01*
X86165Y72045D01*
X86194Y72055D01*
X86219Y72061D01*
X86241Y72062D01*
X86249Y72064D01*
X86448D01*
X86463Y72061D01*
D02*
G37*
G36*
X85659D02*
X85673Y72055D01*
X85681Y72049D01*
X85685Y72045D01*
X85695Y72033D01*
X85698Y72023D01*
X85702Y72018D01*
Y72016D01*
X85704Y72002D01*
Y71990D01*
X85702Y71982D01*
X85700Y71981D01*
X85691Y71973D01*
X85679Y71969D01*
X85669Y71967D01*
X85480D01*
X85453Y71965D01*
X85429Y71959D01*
X85408Y71949D01*
X85392Y71940D01*
X85379Y71930D01*
X85371Y71920D01*
X85365Y71914D01*
X85363Y71912D01*
X85351Y71891D01*
X85343Y71869D01*
X85340Y71848D01*
X85338Y71828D01*
Y71811D01*
X85340Y71797D01*
X85341Y71787D01*
Y71784D01*
X85365Y71692D01*
X85375Y71665D01*
X85388Y71639D01*
X85402Y71616D01*
X85418Y71596D01*
X85431Y71581D01*
X85441Y71569D01*
X85449Y71561D01*
X85453Y71559D01*
X85478Y71542D01*
X85503Y71528D01*
X85527Y71520D01*
X85550Y71512D01*
X85570Y71508D01*
X85583Y71507D01*
X85597D01*
X85613Y71503D01*
X85626Y71497D01*
X85634Y71491D01*
X85638Y71487D01*
X85648Y71475D01*
X85652Y71466D01*
X85656Y71460D01*
Y71458D01*
X85657Y71444D01*
Y71432D01*
X85656Y71425D01*
X85654Y71423D01*
X85644Y71415D01*
X85632Y71411D01*
X85624Y71409D01*
X85574D01*
X85546Y71407D01*
X85523Y71401D01*
X85501Y71391D01*
X85486Y71382D01*
X85472Y71372D01*
X85464Y71362D01*
X85459Y71356D01*
X85457Y71354D01*
X85445Y71333D01*
X85437Y71311D01*
X85433Y71290D01*
X85431Y71270D01*
Y71253D01*
X85433Y71239D01*
X85435Y71230D01*
Y71226D01*
X85482Y71040D01*
X85492Y71013D01*
X85503Y70988D01*
X85519Y70964D01*
X85533Y70945D01*
X85546Y70929D01*
X85558Y70917D01*
X85566Y70910D01*
X85570Y70908D01*
X85595Y70890D01*
X85620Y70876D01*
X85644Y70869D01*
X85665Y70861D01*
X85685Y70857D01*
X85698Y70855D01*
X85944D01*
X85962Y70851D01*
X85975Y70845D01*
X85983Y70839D01*
X85987Y70835D01*
X85997Y70824D01*
X86001Y70814D01*
X86005Y70808D01*
Y70806D01*
X86007Y70798D01*
Y70796D01*
Y70795D01*
X86005Y70787D01*
X86003Y70779D01*
X86001Y70775D01*
Y70773D01*
X85991Y70767D01*
X85981Y70763D01*
X85972Y70761D01*
X85736D01*
X85693Y70765D01*
X85652Y70773D01*
X85615Y70787D01*
X85581Y70802D01*
X85556Y70816D01*
X85535Y70830D01*
X85527Y70834D01*
X85521Y70837D01*
X85519Y70841D01*
X85517D01*
X85482Y70873D01*
X85455Y70906D01*
X85431Y70939D01*
X85414Y70970D01*
X85400Y70997D01*
X85392Y71019D01*
X85390Y71027D01*
X85388Y71032D01*
X85386Y71036D01*
Y71038D01*
X85340Y71224D01*
X85334Y71253D01*
X85332Y71280D01*
X85334Y71306D01*
X85336Y71329D01*
X85338Y71347D01*
X85341Y71362D01*
X85343Y71370D01*
X85345Y71374D01*
X85357Y71399D01*
X85369Y71419D01*
X85382Y71436D01*
X85396Y71450D01*
X85408Y71460D01*
X85418Y71467D01*
X85425Y71471D01*
X85427Y71473D01*
X85404Y71491D01*
X85384Y71507D01*
X85367Y71524D01*
X85353Y71538D01*
X85341Y71551D01*
X85334Y71561D01*
X85330Y71567D01*
X85328Y71569D01*
X85312Y71588D01*
X85302Y71606D01*
X85297Y71618D01*
X85295Y71620D01*
Y71622D01*
X85285Y71639D01*
X85279Y71659D01*
X85269Y71690D01*
X85248Y71784D01*
X85240Y71811D01*
X85238Y71832D01*
X85236Y71842D01*
Y71848D01*
Y71852D01*
Y71854D01*
X85238Y71881D01*
X85242Y71904D01*
X85250Y71928D01*
X85256Y71945D01*
X85263Y71961D01*
X85271Y71973D01*
X85275Y71981D01*
X85277Y71982D01*
X85302Y72010D01*
X85332Y72029D01*
X85361Y72045D01*
X85390Y72055D01*
X85416Y72061D01*
X85437Y72062D01*
X85445Y72064D01*
X85644D01*
X85659Y72061D01*
D02*
G37*
G36*
X84856D02*
X84869Y72055D01*
X84877Y72049D01*
X84881Y72045D01*
X84891Y72033D01*
X84895Y72023D01*
X84899Y72018D01*
Y72016D01*
X84901Y72002D01*
Y71990D01*
X84899Y71982D01*
X84897Y71981D01*
X84887Y71973D01*
X84875Y71969D01*
X84866Y71967D01*
X84676D01*
X84649Y71965D01*
X84626Y71959D01*
X84604Y71949D01*
X84589Y71940D01*
X84575Y71930D01*
X84567Y71920D01*
X84561Y71914D01*
X84559Y71912D01*
X84548Y71891D01*
X84540Y71869D01*
X84536Y71848D01*
X84534Y71828D01*
Y71811D01*
X84536Y71797D01*
X84538Y71787D01*
Y71784D01*
X84561Y71692D01*
X84571Y71665D01*
X84585Y71639D01*
X84598Y71616D01*
X84614Y71596D01*
X84628Y71581D01*
X84637Y71569D01*
X84645Y71561D01*
X84649Y71559D01*
X84674Y71542D01*
X84700Y71528D01*
X84723Y71520D01*
X84747Y71512D01*
X84766Y71508D01*
X84780Y71507D01*
X84793D01*
X84809Y71503D01*
X84823Y71497D01*
X84830Y71491D01*
X84834Y71487D01*
X84844Y71475D01*
X84848Y71466D01*
X84852Y71460D01*
Y71458D01*
X84854Y71444D01*
Y71432D01*
X84852Y71425D01*
X84850Y71423D01*
X84840Y71415D01*
X84828Y71411D01*
X84821Y71409D01*
X84770D01*
X84743Y71407D01*
X84719Y71401D01*
X84698Y71391D01*
X84682Y71382D01*
X84668Y71372D01*
X84661Y71362D01*
X84655Y71356D01*
X84653Y71354D01*
X84641Y71333D01*
X84633Y71311D01*
X84629Y71290D01*
X84628Y71270D01*
Y71253D01*
X84629Y71239D01*
X84631Y71230D01*
Y71226D01*
X84678Y71040D01*
X84688Y71013D01*
X84700Y70988D01*
X84715Y70964D01*
X84729Y70945D01*
X84743Y70929D01*
X84754Y70917D01*
X84762Y70910D01*
X84766Y70908D01*
X84791Y70890D01*
X84817Y70876D01*
X84840Y70869D01*
X84862Y70861D01*
X84881Y70857D01*
X84895Y70855D01*
X85141D01*
X85158Y70851D01*
X85172Y70845D01*
X85180Y70839D01*
X85183Y70835D01*
X85193Y70824D01*
X85197Y70814D01*
X85201Y70808D01*
Y70806D01*
X85203Y70798D01*
Y70796D01*
Y70795D01*
X85201Y70787D01*
X85199Y70779D01*
X85197Y70775D01*
Y70773D01*
X85187Y70767D01*
X85178Y70763D01*
X85168Y70761D01*
X84932D01*
X84889Y70765D01*
X84848Y70773D01*
X84811Y70787D01*
X84778Y70802D01*
X84752Y70816D01*
X84731Y70830D01*
X84723Y70834D01*
X84717Y70837D01*
X84715Y70841D01*
X84713D01*
X84678Y70873D01*
X84651Y70906D01*
X84628Y70939D01*
X84610Y70970D01*
X84596Y70997D01*
X84589Y71019D01*
X84587Y71027D01*
X84585Y71032D01*
X84583Y71036D01*
Y71038D01*
X84536Y71224D01*
X84530Y71253D01*
X84528Y71280D01*
X84530Y71306D01*
X84532Y71329D01*
X84534Y71347D01*
X84538Y71362D01*
X84540Y71370D01*
X84542Y71374D01*
X84553Y71399D01*
X84565Y71419D01*
X84579Y71436D01*
X84592Y71450D01*
X84604Y71460D01*
X84614Y71467D01*
X84622Y71471D01*
X84624Y71473D01*
X84600Y71491D01*
X84581Y71507D01*
X84563Y71524D01*
X84549Y71538D01*
X84538Y71551D01*
X84530Y71561D01*
X84526Y71567D01*
X84524Y71569D01*
X84509Y71588D01*
X84499Y71606D01*
X84493Y71618D01*
X84491Y71620D01*
Y71622D01*
X84481Y71639D01*
X84475Y71659D01*
X84466Y71690D01*
X84444Y71784D01*
X84436Y71811D01*
X84434Y71832D01*
X84432Y71842D01*
Y71848D01*
Y71852D01*
Y71854D01*
X84434Y71881D01*
X84438Y71904D01*
X84446Y71928D01*
X84452Y71945D01*
X84460Y71961D01*
X84468Y71973D01*
X84471Y71981D01*
X84473Y71982D01*
X84499Y72010D01*
X84528Y72029D01*
X84557Y72045D01*
X84587Y72055D01*
X84612Y72061D01*
X84633Y72062D01*
X84641Y72064D01*
X84840D01*
X84856Y72061D01*
D02*
G37*
G36*
X83520Y72062D02*
X83533Y72057D01*
X83545Y72049D01*
X83553Y72041D01*
X83559Y72031D01*
X83562Y72023D01*
X83564Y72018D01*
Y72016D01*
X83703Y71456D01*
X83705Y71440D01*
X83703Y71428D01*
X83697Y71421D01*
X83691Y71415D01*
X83683Y71411D01*
X83676Y71409D01*
X83436D01*
X83408Y71407D01*
X83385Y71401D01*
X83365Y71391D01*
X83350Y71382D01*
X83336Y71372D01*
X83328Y71362D01*
X83322Y71356D01*
X83321Y71354D01*
X83307Y71333D01*
X83299Y71311D01*
X83295Y71290D01*
X83293Y71270D01*
Y71253D01*
X83295Y71239D01*
X83297Y71230D01*
Y71226D01*
X83342Y71040D01*
X83352Y71013D01*
X83365Y70988D01*
X83379Y70964D01*
X83395Y70945D01*
X83408Y70929D01*
X83420Y70917D01*
X83428Y70910D01*
X83432Y70908D01*
X83457Y70890D01*
X83482Y70876D01*
X83506Y70869D01*
X83527Y70861D01*
X83547Y70857D01*
X83560Y70855D01*
X83806D01*
X83824Y70851D01*
X83837Y70845D01*
X83845Y70839D01*
X83849Y70835D01*
X83859Y70824D01*
X83863Y70816D01*
X83867Y70810D01*
Y70808D01*
X83869Y70798D01*
Y70796D01*
Y70795D01*
X83867Y70785D01*
X83865Y70777D01*
X83863Y70773D01*
Y70771D01*
X83853Y70765D01*
X83843Y70763D01*
X83834Y70761D01*
X83598D01*
X83555Y70765D01*
X83516Y70773D01*
X83479Y70787D01*
X83445Y70802D01*
X83418Y70816D01*
X83397Y70830D01*
X83389Y70834D01*
X83383Y70837D01*
X83381Y70841D01*
X83379D01*
X83344Y70873D01*
X83315Y70908D01*
X83291Y70939D01*
X83276Y70970D01*
X83262Y70997D01*
X83254Y71019D01*
X83252Y71027D01*
X83250Y71032D01*
X83248Y71036D01*
Y71038D01*
X83202Y71226D01*
X83198Y71247D01*
X83194Y71267D01*
Y71304D01*
X83200Y71337D01*
X83207Y71366D01*
X83217Y71389D01*
X83225Y71407D01*
X83233Y71417D01*
X83235Y71421D01*
X83246Y71436D01*
X83260Y71448D01*
X83289Y71469D01*
X83319Y71485D01*
X83346Y71495D01*
X83373Y71501D01*
X83393Y71503D01*
X83401Y71505D01*
X83598D01*
X83480Y71967D01*
X83063D01*
X83047Y71969D01*
X83034Y71975D01*
X83026Y71981D01*
X83024Y71982D01*
X83014Y71994D01*
X83008Y72004D01*
X83005Y72012D01*
Y72014D01*
X83003Y72021D01*
Y72025D01*
X83005Y72033D01*
X83006Y72041D01*
X83008Y72047D01*
X83010Y72049D01*
X83020Y72059D01*
X83030Y72062D01*
X83036Y72064D01*
X83504D01*
X83520Y72062D01*
D02*
G37*
G36*
X82566Y72061D02*
X82607Y72051D01*
X82644Y72037D01*
X82677Y72021D01*
X82704Y72006D01*
X82726Y71992D01*
X82733Y71986D01*
X82739Y71982D01*
X82741Y71981D01*
X82743Y71979D01*
X82778Y71945D01*
X82806Y71912D01*
X82829Y71879D01*
X82845Y71850D01*
X82858Y71823D01*
X82866Y71803D01*
X82868Y71795D01*
X82870Y71789D01*
X82872Y71785D01*
Y71784D01*
X83057Y71038D01*
X83063Y71013D01*
X83065Y70992D01*
X83067Y70982D01*
Y70976D01*
Y70972D01*
Y70970D01*
X83065Y70945D01*
X83059Y70919D01*
X83053Y70898D01*
X83044Y70878D01*
X83036Y70861D01*
X83030Y70849D01*
X83024Y70841D01*
X83022Y70839D01*
X82995Y70814D01*
X82967Y70795D01*
X82938Y70781D01*
X82909Y70771D01*
X82884Y70765D01*
X82864Y70763D01*
X82856Y70761D01*
X82755D01*
X82712Y70765D01*
X82671Y70773D01*
X82634Y70787D01*
X82601Y70802D01*
X82573Y70816D01*
X82552Y70830D01*
X82544Y70834D01*
X82538Y70837D01*
X82536Y70841D01*
X82534D01*
X82499Y70873D01*
X82470Y70908D01*
X82447Y70939D01*
X82431Y70970D01*
X82417Y70997D01*
X82410Y71019D01*
X82408Y71027D01*
X82406Y71032D01*
X82404Y71036D01*
Y71038D01*
X82218Y71782D01*
X82213Y71809D01*
X82211Y71832D01*
X82209Y71840D01*
Y71846D01*
Y71850D01*
Y71852D01*
X82211Y71879D01*
X82214Y71904D01*
X82222Y71926D01*
X82228Y71945D01*
X82236Y71961D01*
X82244Y71973D01*
X82248Y71981D01*
X82250Y71982D01*
X82275Y72010D01*
X82304Y72029D01*
X82335Y72045D01*
X82363Y72055D01*
X82390Y72061D01*
X82410Y72062D01*
X82417Y72064D01*
X82544D01*
X82566Y72061D01*
D02*
G37*
G36*
X81582D02*
X81621Y72045D01*
X81660Y72027D01*
X81696Y72010D01*
X81731Y71990D01*
X81762Y71969D01*
X81793Y71947D01*
X81820Y71928D01*
X81846Y71906D01*
X81869Y71887D01*
X81889Y71869D01*
X81908Y71854D01*
X81922Y71840D01*
X81934Y71828D01*
X81941Y71819D01*
X81947Y71813D01*
X81949Y71811D01*
X81975Y71780D01*
X81998Y71748D01*
X82019Y71717D01*
X82037Y71686D01*
X82070Y71626D01*
X82095Y71571D01*
X82105Y71546D01*
X82115Y71524D01*
X82121Y71505D01*
X82127Y71487D01*
X82131Y71473D01*
X82134Y71462D01*
X82136Y71456D01*
Y71454D01*
X82240Y71038D01*
X82246Y71013D01*
X82250Y70992D01*
X82252Y70982D01*
Y70976D01*
Y70972D01*
Y70970D01*
X82250Y70945D01*
X82244Y70919D01*
X82236Y70898D01*
X82228Y70878D01*
X82220Y70861D01*
X82213Y70849D01*
X82207Y70841D01*
X82205Y70839D01*
X82177Y70814D01*
X82150Y70795D01*
X82121Y70781D01*
X82094Y70771D01*
X82068Y70765D01*
X82049Y70763D01*
X82041Y70761D01*
X81937D01*
X81895Y70765D01*
X81854Y70773D01*
X81817Y70787D01*
X81783Y70802D01*
X81758Y70816D01*
X81737Y70830D01*
X81729Y70834D01*
X81723Y70837D01*
X81721Y70841D01*
X81719D01*
X81684Y70873D01*
X81655Y70906D01*
X81633Y70939D01*
X81614Y70970D01*
X81602Y70999D01*
X81592Y71021D01*
X81590Y71029D01*
X81588Y71034D01*
X81586Y71038D01*
Y71040D01*
X81541Y71226D01*
X81536Y71253D01*
X81534Y71274D01*
X81532Y71284D01*
Y71290D01*
Y71294D01*
Y71296D01*
X81534Y71323D01*
X81538Y71347D01*
X81545Y71370D01*
X81551Y71388D01*
X81559Y71403D01*
X81567Y71415D01*
X81571Y71423D01*
X81573Y71425D01*
X81598Y71452D01*
X81625Y71471D01*
X81657Y71487D01*
X81686Y71497D01*
X81711Y71503D01*
X81733Y71505D01*
X81740Y71507D01*
X82025D01*
X82019Y71528D01*
X82012Y71549D01*
X82002Y71571D01*
X81992Y71590D01*
X81984Y71606D01*
X81976Y71620D01*
X81973Y71627D01*
X81971Y71631D01*
X81955Y71657D01*
X81937Y71680D01*
X81922Y71702D01*
X81908Y71721D01*
X81896Y71735D01*
X81887Y71746D01*
X81881Y71754D01*
X81879Y71756D01*
X81852Y71785D01*
X81826Y71811D01*
X81801Y71834D01*
X81781Y71852D01*
X81764Y71865D01*
X81750Y71877D01*
X81742Y71883D01*
X81739Y71885D01*
X81709Y71904D01*
X81682Y71920D01*
X81672Y71926D01*
X81664Y71930D01*
X81659Y71934D01*
X81657D01*
X81614Y71955D01*
X81590Y71963D01*
X81571Y71971D01*
X81559Y71979D01*
X81549Y71984D01*
X81545Y71988D01*
X81543Y71990D01*
X81538Y71998D01*
X81534Y72004D01*
X81530Y72010D01*
Y72012D01*
X81528Y72023D01*
Y72025D01*
Y72027D01*
Y72035D01*
X81530Y72043D01*
X81532Y72047D01*
X81534Y72049D01*
X81541Y72059D01*
X81551Y72062D01*
X81559Y72064D01*
X81563D01*
X81582Y72061D01*
D02*
G37*
G36*
X81475Y70851D02*
X81489Y70845D01*
X81497Y70839D01*
X81501Y70835D01*
X81510Y70824D01*
X81514Y70816D01*
X81518Y70810D01*
Y70808D01*
X81520Y70798D01*
Y70796D01*
Y70795D01*
X81518Y70785D01*
X81516Y70777D01*
X81514Y70773D01*
Y70771D01*
X81504Y70765D01*
X81495Y70763D01*
X81485Y70761D01*
X81481D01*
X81465Y70763D01*
X81452Y70769D01*
X81444Y70773D01*
X81442Y70775D01*
X81432Y70785D01*
X81426Y70796D01*
X81422Y70804D01*
Y70806D01*
X81421Y70812D01*
Y70816D01*
X81422Y70826D01*
X81424Y70834D01*
X81426Y70837D01*
X81428Y70839D01*
X81438Y70849D01*
X81448Y70853D01*
X81454Y70855D01*
X81458D01*
X81475Y70851D01*
D02*
G37*
G36*
X80707Y72061D02*
X80748Y72051D01*
X80785Y72037D01*
X80818Y72021D01*
X80845Y72006D01*
X80867Y71992D01*
X80874Y71986D01*
X80880Y71982D01*
X80882Y71981D01*
X80884Y71979D01*
X80919Y71945D01*
X80947Y71912D01*
X80970Y71879D01*
X80986Y71850D01*
X80999Y71823D01*
X81007Y71803D01*
X81009Y71795D01*
X81011Y71789D01*
X81013Y71785D01*
Y71784D01*
X81198Y71038D01*
X81204Y71013D01*
X81206Y70992D01*
X81208Y70982D01*
Y70976D01*
Y70972D01*
Y70970D01*
X81206Y70945D01*
X81200Y70919D01*
X81194Y70898D01*
X81184Y70878D01*
X81177Y70861D01*
X81171Y70849D01*
X81165Y70841D01*
X81163Y70839D01*
X81136Y70814D01*
X81108Y70795D01*
X81079Y70781D01*
X81050Y70771D01*
X81025Y70765D01*
X81005Y70763D01*
X80997Y70761D01*
X80896D01*
X80853Y70765D01*
X80812Y70773D01*
X80775Y70787D01*
X80742Y70802D01*
X80714Y70816D01*
X80693Y70830D01*
X80685Y70834D01*
X80679Y70837D01*
X80677Y70841D01*
X80675D01*
X80640Y70873D01*
X80611Y70908D01*
X80588Y70939D01*
X80572Y70970D01*
X80558Y70997D01*
X80551Y71019D01*
X80549Y71027D01*
X80547Y71032D01*
X80545Y71036D01*
Y71038D01*
X80359Y71782D01*
X80353Y71809D01*
X80352Y71832D01*
X80350Y71840D01*
Y71846D01*
Y71850D01*
Y71852D01*
X80352Y71879D01*
X80355Y71904D01*
X80363Y71926D01*
X80369Y71945D01*
X80377Y71961D01*
X80385Y71973D01*
X80389Y71981D01*
X80391Y71982D01*
X80416Y72010D01*
X80445Y72029D01*
X80476Y72045D01*
X80504Y72055D01*
X80531Y72061D01*
X80551Y72062D01*
X80558Y72064D01*
X80685D01*
X80707Y72061D01*
D02*
G37*
G36*
X79878D02*
X79918Y72051D01*
X79956Y72037D01*
X79989Y72021D01*
X80016Y72006D01*
X80037Y71992D01*
X80045Y71986D01*
X80051Y71982D01*
X80053Y71981D01*
X80055Y71979D01*
X80090Y71945D01*
X80117Y71912D01*
X80141Y71879D01*
X80156Y71850D01*
X80170Y71823D01*
X80178Y71803D01*
X80180Y71795D01*
X80182Y71789D01*
X80184Y71785D01*
Y71784D01*
X80369Y71038D01*
X80375Y71013D01*
X80377Y70992D01*
X80379Y70982D01*
Y70976D01*
Y70972D01*
Y70970D01*
X80377Y70945D01*
X80371Y70919D01*
X80365Y70898D01*
X80355Y70878D01*
X80348Y70861D01*
X80342Y70849D01*
X80336Y70841D01*
X80334Y70839D01*
X80307Y70814D01*
X80279Y70795D01*
X80250Y70781D01*
X80221Y70771D01*
X80195Y70765D01*
X80176Y70763D01*
X80168Y70761D01*
X80067D01*
X80024Y70765D01*
X79983Y70773D01*
X79946Y70787D01*
X79913Y70802D01*
X79885Y70816D01*
X79864Y70830D01*
X79856Y70834D01*
X79850Y70837D01*
X79848Y70841D01*
X79846D01*
X79811Y70873D01*
X79782Y70908D01*
X79759Y70939D01*
X79743Y70970D01*
X79729Y70997D01*
X79721Y71019D01*
X79719Y71027D01*
X79718Y71032D01*
X79716Y71036D01*
Y71038D01*
X79530Y71782D01*
X79524Y71809D01*
X79522Y71832D01*
X79521Y71840D01*
Y71846D01*
Y71850D01*
Y71852D01*
X79522Y71879D01*
X79526Y71904D01*
X79534Y71926D01*
X79540Y71945D01*
X79548Y71961D01*
X79556Y71973D01*
X79560Y71981D01*
X79561Y71982D01*
X79587Y72010D01*
X79616Y72029D01*
X79647Y72045D01*
X79675Y72055D01*
X79702Y72061D01*
X79721Y72062D01*
X79729Y72064D01*
X79856D01*
X79878Y72061D01*
D02*
G37*
%LPC*%
G36*
X89340Y71409D02*
X89063D01*
X89038Y71407D01*
X89015Y71401D01*
X88995Y71391D01*
X88980Y71382D01*
X88968Y71370D01*
X88958Y71362D01*
X88952Y71354D01*
X88950Y71352D01*
X88937Y71331D01*
X88929Y71309D01*
X88923Y71288D01*
X88921Y71269D01*
Y71251D01*
X88923Y71237D01*
X88925Y71230D01*
Y71226D01*
X88972Y71038D01*
X88982Y71011D01*
X88993Y70986D01*
X89009Y70962D01*
X89022Y70945D01*
X89036Y70929D01*
X89048Y70917D01*
X89056Y70910D01*
X89060Y70908D01*
X89085Y70890D01*
X89110Y70876D01*
X89136Y70869D01*
X89157Y70861D01*
X89177Y70857D01*
X89190Y70855D01*
X89481D01*
X89340Y71409D01*
D02*
G37*
G36*
X82560Y71967D02*
X82452D01*
X82425Y71965D01*
X82402Y71959D01*
X82382Y71949D01*
X82365Y71940D01*
X82353Y71930D01*
X82343Y71920D01*
X82337Y71914D01*
X82335Y71912D01*
X82322Y71891D01*
X82314Y71869D01*
X82310Y71848D01*
X82308Y71828D01*
Y71811D01*
X82310Y71797D01*
X82312Y71787D01*
Y71784D01*
X82499Y71038D01*
X82509Y71011D01*
X82523Y70986D01*
X82536Y70962D01*
X82552Y70945D01*
X82566Y70929D01*
X82577Y70917D01*
X82585Y70910D01*
X82589Y70908D01*
X82614Y70890D01*
X82640Y70876D01*
X82663Y70869D01*
X82687Y70861D01*
X82704Y70857D01*
X82718Y70855D01*
X82825D01*
X82850Y70857D01*
X82874Y70863D01*
X82893Y70873D01*
X82909Y70882D01*
X82923Y70892D01*
X82932Y70902D01*
X82938Y70908D01*
X82940Y70910D01*
X82954Y70931D01*
X82962Y70952D01*
X82965Y70974D01*
X82967Y70995D01*
Y71013D01*
X82965Y71027D01*
X82964Y71034D01*
Y71038D01*
X82776Y71784D01*
X82767Y71811D01*
X82755Y71836D01*
X82741Y71858D01*
X82726Y71877D01*
X82712Y71891D01*
X82700Y71903D01*
X82692Y71910D01*
X82690Y71912D01*
X82665Y71930D01*
X82640Y71943D01*
X82614Y71953D01*
X82593Y71961D01*
X82573Y71965D01*
X82560Y71967D01*
D02*
G37*
G36*
X82053Y71409D02*
X81776D01*
X81748Y71407D01*
X81725Y71401D01*
X81703Y71391D01*
X81688Y71382D01*
X81674Y71372D01*
X81666Y71362D01*
X81660Y71356D01*
X81659Y71354D01*
X81645Y71333D01*
X81637Y71311D01*
X81633Y71290D01*
Y71270D01*
Y71253D01*
X81635Y71239D01*
X81637Y71230D01*
Y71226D01*
X81682Y71040D01*
X81692Y71013D01*
X81705Y70988D01*
X81719Y70964D01*
X81735Y70945D01*
X81748Y70929D01*
X81758Y70917D01*
X81766Y70910D01*
X81770Y70908D01*
X81795Y70890D01*
X81820Y70876D01*
X81844Y70869D01*
X81867Y70861D01*
X81887Y70857D01*
X81900Y70855D01*
X82008D01*
X82033Y70857D01*
X82056Y70863D01*
X82076Y70873D01*
X82092Y70882D01*
X82105Y70892D01*
X82115Y70902D01*
X82121Y70908D01*
X82123Y70910D01*
X82136Y70931D01*
X82144Y70952D01*
X82148Y70974D01*
X82150Y70995D01*
Y71013D01*
X82148Y71027D01*
X82146Y71034D01*
Y71038D01*
X82053Y71409D01*
D02*
G37*
G36*
X80701Y71967D02*
X80593D01*
X80566Y71965D01*
X80543Y71959D01*
X80523Y71949D01*
X80506Y71940D01*
X80494Y71930D01*
X80484Y71920D01*
X80478Y71914D01*
X80476Y71912D01*
X80463Y71891D01*
X80455Y71869D01*
X80451Y71848D01*
X80449Y71828D01*
Y71811D01*
X80451Y71797D01*
X80453Y71787D01*
Y71784D01*
X80640Y71038D01*
X80650Y71011D01*
X80664Y70986D01*
X80677Y70962D01*
X80693Y70945D01*
X80707Y70929D01*
X80718Y70917D01*
X80726Y70910D01*
X80730Y70908D01*
X80755Y70890D01*
X80781Y70876D01*
X80804Y70869D01*
X80828Y70861D01*
X80845Y70857D01*
X80859Y70855D01*
X80966D01*
X80991Y70857D01*
X81015Y70863D01*
X81034Y70873D01*
X81050Y70882D01*
X81064Y70892D01*
X81073Y70902D01*
X81079Y70908D01*
X81081Y70910D01*
X81095Y70931D01*
X81103Y70952D01*
X81106Y70974D01*
X81108Y70995D01*
Y71013D01*
X81106Y71027D01*
X81105Y71034D01*
Y71038D01*
X80917Y71784D01*
X80907Y71811D01*
X80896Y71836D01*
X80882Y71858D01*
X80867Y71877D01*
X80853Y71891D01*
X80841Y71903D01*
X80833Y71910D01*
X80831Y71912D01*
X80806Y71930D01*
X80781Y71943D01*
X80755Y71953D01*
X80734Y71961D01*
X80714Y71965D01*
X80701Y71967D01*
D02*
G37*
G36*
X79872D02*
X79764D01*
X79737Y71965D01*
X79714Y71959D01*
X79694Y71949D01*
X79677Y71940D01*
X79665Y71930D01*
X79655Y71920D01*
X79649Y71914D01*
X79647Y71912D01*
X79634Y71891D01*
X79626Y71869D01*
X79622Y71848D01*
X79620Y71828D01*
Y71811D01*
X79622Y71797D01*
X79624Y71787D01*
Y71784D01*
X79811Y71038D01*
X79821Y71011D01*
X79835Y70986D01*
X79848Y70962D01*
X79864Y70945D01*
X79878Y70929D01*
X79889Y70917D01*
X79897Y70910D01*
X79901Y70908D01*
X79926Y70890D01*
X79952Y70876D01*
X79975Y70869D01*
X79998Y70861D01*
X80016Y70857D01*
X80030Y70855D01*
X80137D01*
X80162Y70857D01*
X80186Y70863D01*
X80205Y70873D01*
X80221Y70882D01*
X80234Y70892D01*
X80244Y70902D01*
X80250Y70908D01*
X80252Y70910D01*
X80266Y70931D01*
X80273Y70952D01*
X80277Y70974D01*
X80279Y70995D01*
Y71013D01*
X80277Y71027D01*
X80275Y71034D01*
Y71038D01*
X80088Y71784D01*
X80078Y71811D01*
X80067Y71836D01*
X80053Y71858D01*
X80037Y71877D01*
X80024Y71891D01*
X80012Y71903D01*
X80004Y71910D01*
X80002Y71912D01*
X79977Y71930D01*
X79952Y71943D01*
X79926Y71953D01*
X79905Y71961D01*
X79885Y71965D01*
X79872Y71967D01*
D02*
G37*
%LPD*%
M02*
