M48
;Layer_Color=9474304
;FILE_FORMAT=4:3
METRIC,LZ
;TYPE=PLATED
T1F00S00C0.300
T2F00S00C0.900
T3F00S00C1.000
T4F00S00C2.400
T5F00S00C3.200
%
T01
X012Y00725
Y00775
X0125
Y00725
X011
Y00675
Y00625
X00975
Y00675
X00925
Y00725
X0096056Y0073016
X0096625Y0073525
X009715Y0072975
X0097137Y0074137
X0096145Y007413
X00966Y0074675
X00971Y0075175
X00961Y0075175
X00966Y00758
X009615Y0076425
X009715Y0076375
X00825Y00725
Y00625
X00875
X00925
X00775
X00725
X00675
Y00675
X00625
Y00625
X0062175Y0074
X0064275Y0075575
X00575Y00775
Y00725
X00525
Y00775
X0072775Y007755
X0073775
X00742Y0078275
X0073275Y00783
X0072275
Y00768
X0072775Y00763
X0073775
X0074275Y00768
X0073275
X00725Y00825
Y00875
Y00925
X00775
X0079Y0093
Y0091
Y0089
Y0087
X0075Y00975
X007
X00575Y00875
X00525
Y00825
X008Y0086
Y0088
Y009
Y0092
Y0094
X0082
X0083
X0085
X0086Y0093
Y0091
X0085Y0092
Y009
X0086Y0089
Y0087
X0085Y0088
Y0086
X0083
X0082
X009Y00875
Y00925
X0095
X0094925Y008875
X0093775Y0084075
X0098475Y0083975
X0097325Y00796
X009475Y0079525
X010625Y008025
X01075
X01095
X011125Y00805
X01055Y0082
X0107Y008375
X010135Y009755
X00975Y00975
X009
X00825
X0125Y00875
Y00825
T02
X0106475Y0087465
X0108975
X0110975
X0113475
T03
X00615Y009255
X0064
T04
X0103405Y0090175
X0116545
T05
X0122725Y0065075
X0055225
Y0095075
X0122725
M30
