G04*
G04 #@! TF.GenerationSoftware,Altium Limited,Altium Designer,19.1.6 (110)*
G04*
G04 Layer_Color=65535*
%FSLAX43Y43*%
%MOMM*%
G71*
G01*
G75*
%ADD10C,0.250*%
%ADD11C,0.600*%
%ADD12C,0.100*%
%ADD13C,0.254*%
%ADD14C,0.200*%
G36*
X78725Y97275D02*
X72725D01*
Y99425D01*
X78725D01*
Y97275D01*
D02*
G37*
G36*
X62297Y53775D02*
X62306Y53773D01*
X62317Y53772D01*
X62344Y53766D01*
X62374Y53756D01*
X62406Y53743D01*
X62423Y53734D01*
X62438Y53725D01*
X62453Y53712D01*
X62469Y53698D01*
X62470Y53697D01*
X62473Y53694D01*
X62476Y53690D01*
X62481Y53684D01*
X62488Y53676D01*
X62495Y53665D01*
X62503Y53654D01*
X62512Y53640D01*
X62520Y53625D01*
X62528Y53607D01*
X62537Y53589D01*
X62545Y53568D01*
X62552Y53544D01*
X62559Y53519D01*
X62566Y53493D01*
X62570Y53465D01*
X62380Y53440D01*
Y53442D01*
X62378Y53446D01*
Y53453D01*
X62376Y53462D01*
X62374Y53472D01*
X62370Y53485D01*
X62360Y53510D01*
X62347Y53535D01*
X62337Y53547D01*
X62326Y53557D01*
X62313Y53566D01*
X62299Y53573D01*
X62284Y53578D01*
X62266Y53579D01*
X62263D01*
X62255Y53578D01*
X62244Y53575D01*
X62229Y53571D01*
X62212Y53562D01*
X62194Y53550D01*
X62186Y53542D01*
X62176Y53532D01*
X62168Y53521D01*
X62159Y53508D01*
Y53507D01*
X62158Y53505D01*
X62155Y53500D01*
X62152Y53494D01*
X62150Y53486D01*
X62145Y53475D01*
X62141Y53461D01*
X62137Y53446D01*
X62132Y53429D01*
X62127Y53408D01*
X62123Y53385D01*
X62119Y53358D01*
X62115Y53331D01*
X62111Y53299D01*
X62108Y53264D01*
X62105Y53225D01*
X62107Y53228D01*
X62112Y53234D01*
X62119Y53243D01*
X62130Y53254D01*
X62141Y53268D01*
X62155Y53281D01*
X62170Y53293D01*
X62187Y53304D01*
X62190Y53306D01*
X62195Y53309D01*
X62205Y53313D01*
X62218Y53318D01*
X62231Y53324D01*
X62249Y53328D01*
X62268Y53331D01*
X62288Y53332D01*
X62294D01*
X62299Y53331D01*
X62309D01*
X62319Y53329D01*
X62331Y53327D01*
X62345Y53322D01*
X62360Y53318D01*
X62376Y53313D01*
X62392Y53304D01*
X62410Y53296D01*
X62428Y53285D01*
X62446Y53272D01*
X62464Y53257D01*
X62482Y53239D01*
X62499Y53220D01*
X62500Y53218D01*
X62503Y53214D01*
X62507Y53209D01*
X62513Y53199D01*
X62520Y53188D01*
X62528Y53174D01*
X62535Y53159D01*
X62545Y53141D01*
X62553Y53120D01*
X62560Y53098D01*
X62568Y53073D01*
X62575Y53046D01*
X62581Y53019D01*
X62585Y52988D01*
X62588Y52956D01*
X62589Y52922D01*
Y52919D01*
Y52913D01*
Y52902D01*
X62588Y52890D01*
X62586Y52873D01*
X62584Y52854D01*
X62581Y52831D01*
X62577Y52809D01*
X62573Y52784D01*
X62566Y52759D01*
X62559Y52734D01*
X62549Y52708D01*
X62538Y52683D01*
X62525Y52658D01*
X62510Y52635D01*
X62494Y52612D01*
X62492Y52611D01*
X62489Y52608D01*
X62484Y52603D01*
X62477Y52594D01*
X62467Y52586D01*
X62456Y52576D01*
X62444Y52567D01*
X62428Y52557D01*
X62413Y52546D01*
X62395Y52536D01*
X62376Y52526D01*
X62355Y52518D01*
X62333Y52511D01*
X62309Y52506D01*
X62286Y52501D01*
X62259Y52500D01*
X62252D01*
X62244Y52501D01*
X62234Y52503D01*
X62220Y52504D01*
X62205Y52508D01*
X62188Y52512D01*
X62169Y52518D01*
X62150Y52526D01*
X62129Y52536D01*
X62108Y52547D01*
X62087Y52561D01*
X62065Y52578D01*
X62044Y52597D01*
X62023Y52621D01*
X62004Y52646D01*
X62003Y52647D01*
X62000Y52653D01*
X61994Y52661D01*
X61989Y52673D01*
X61980Y52690D01*
X61972Y52709D01*
X61962Y52733D01*
X61954Y52761D01*
X61944Y52793D01*
X61935Y52827D01*
X61926Y52868D01*
X61918Y52912D01*
X61912Y52959D01*
X61907Y53012D01*
X61904Y53069D01*
X61903Y53130D01*
Y53131D01*
Y53134D01*
Y53138D01*
Y53145D01*
Y53153D01*
X61904Y53163D01*
Y53174D01*
Y53185D01*
X61906Y53214D01*
X61908Y53246D01*
X61911Y53282D01*
X61915Y53321D01*
X61921Y53361D01*
X61928Y53401D01*
X61936Y53443D01*
X61947Y53483D01*
X61958Y53523D01*
X61972Y53560D01*
X61989Y53594D01*
X62007Y53625D01*
X62008Y53626D01*
X62012Y53632D01*
X62018Y53639D01*
X62026Y53648D01*
X62036Y53659D01*
X62048Y53673D01*
X62064Y53686D01*
X62080Y53701D01*
X62098Y53715D01*
X62119Y53729D01*
X62141Y53741D01*
X62165Y53752D01*
X62191Y53762D01*
X62218Y53769D01*
X62247Y53775D01*
X62277Y53776D01*
X62288D01*
X62297Y53775D01*
D02*
G37*
G36*
X52998Y53791D02*
X53010D01*
X53024Y53788D01*
X53042Y53787D01*
X53062Y53783D01*
X53082Y53777D01*
X53105Y53772D01*
X53127Y53763D01*
X53152Y53754D01*
X53175Y53743D01*
X53200Y53729D01*
X53224Y53713D01*
X53248Y53695D01*
X53270Y53675D01*
X53271Y53673D01*
X53274Y53670D01*
X53278Y53666D01*
X53284Y53659D01*
X53291Y53650D01*
X53297Y53640D01*
X53307Y53626D01*
X53317Y53612D01*
X53327Y53596D01*
X53336Y53578D01*
X53346Y53557D01*
X53356Y53535D01*
X53367Y53510D01*
X53375Y53485D01*
X53383Y53456D01*
X53392Y53426D01*
X53186Y53367D01*
Y53368D01*
X53185Y53371D01*
X53184Y53376D01*
X53182Y53383D01*
X53180Y53392D01*
X53177Y53401D01*
X53168Y53424D01*
X53159Y53449D01*
X53145Y53475D01*
X53128Y53500D01*
X53107Y53522D01*
X53105Y53525D01*
X53098Y53530D01*
X53085Y53539D01*
X53069Y53550D01*
X53048Y53560D01*
X53026Y53568D01*
X52999Y53573D01*
X52970Y53576D01*
X52959D01*
X52951Y53575D01*
X52941Y53573D01*
X52930Y53571D01*
X52905Y53564D01*
X52890Y53558D01*
X52874Y53551D01*
X52859Y53544D01*
X52844Y53535D01*
X52829Y53522D01*
X52813Y53510D01*
X52798Y53494D01*
X52784Y53476D01*
X52783Y53475D01*
X52782Y53472D01*
X52777Y53465D01*
X52773Y53457D01*
X52768Y53447D01*
X52762Y53433D01*
X52755Y53417D01*
X52750Y53399D01*
X52743Y53378D01*
X52736Y53353D01*
X52730Y53327D01*
X52725Y53297D01*
X52721Y53266D01*
X52716Y53229D01*
X52715Y53192D01*
X52714Y53150D01*
Y53148D01*
Y53141D01*
Y53128D01*
X52715Y53112D01*
X52716Y53092D01*
X52718Y53070D01*
X52719Y53046D01*
X52722Y53020D01*
X52730Y52965D01*
X52743Y52909D01*
X52751Y52883D01*
X52761Y52858D01*
X52770Y52836D01*
X52783Y52815D01*
X52784Y52813D01*
X52786Y52811D01*
X52790Y52805D01*
X52795Y52800D01*
X52802Y52793D01*
X52811Y52784D01*
X52820Y52775D01*
X52831Y52766D01*
X52858Y52747D01*
X52888Y52732D01*
X52906Y52726D01*
X52924Y52721D01*
X52944Y52718D01*
X52965Y52716D01*
X52973D01*
X52978Y52718D01*
X52994Y52719D01*
X53013Y52725D01*
X53035Y52732D01*
X53059Y52743D01*
X53082Y52758D01*
X53094Y52768D01*
X53105Y52779D01*
X53106Y52780D01*
X53107Y52782D01*
X53110Y52786D01*
X53114Y52791D01*
X53120Y52798D01*
X53125Y52806D01*
X53131Y52816D01*
X53138Y52829D01*
X53145Y52841D01*
X53152Y52856D01*
X53160Y52873D01*
X53167Y52891D01*
X53174Y52910D01*
X53181Y52933D01*
X53186Y52956D01*
X53192Y52981D01*
X53393Y52904D01*
Y52901D01*
X53390Y52894D01*
X53388Y52884D01*
X53383Y52869D01*
X53379Y52852D01*
X53372Y52831D01*
X53365Y52809D01*
X53356Y52786D01*
X53335Y52736D01*
X53307Y52684D01*
X53292Y52661D01*
X53275Y52637D01*
X53256Y52615D01*
X53236Y52596D01*
X53235Y52594D01*
X53231Y52592D01*
X53225Y52587D01*
X53217Y52580D01*
X53206Y52574D01*
X53193Y52565D01*
X53178Y52557D01*
X53162Y52549D01*
X53143Y52539D01*
X53123Y52531D01*
X53100Y52522D01*
X53077Y52515D01*
X53052Y52508D01*
X53024Y52504D01*
X52996Y52501D01*
X52967Y52500D01*
X52959D01*
X52948Y52501D01*
X52934Y52503D01*
X52917Y52504D01*
X52898Y52508D01*
X52876Y52512D01*
X52852Y52519D01*
X52827Y52528D01*
X52801Y52537D01*
X52773Y52550D01*
X52747Y52565D01*
X52719Y52583D01*
X52693Y52603D01*
X52666Y52626D01*
X52643Y52654D01*
X52641Y52657D01*
X52637Y52662D01*
X52630Y52672D01*
X52621Y52686D01*
X52610Y52704D01*
X52597Y52726D01*
X52585Y52751D01*
X52572Y52780D01*
X52558Y52813D01*
X52546Y52849D01*
X52533Y52890D01*
X52522Y52931D01*
X52514Y52978D01*
X52506Y53027D01*
X52501Y53080D01*
X52500Y53135D01*
Y53137D01*
Y53139D01*
Y53143D01*
Y53149D01*
Y53157D01*
X52501Y53166D01*
X52503Y53188D01*
X52504Y53214D01*
X52508Y53246D01*
X52512Y53279D01*
X52518Y53317D01*
X52526Y53357D01*
X52535Y53397D01*
X52547Y53439D01*
X52561Y53480D01*
X52578Y53522D01*
X52597Y53561D01*
X52619Y53600D01*
X52644Y53634D01*
X52646Y53636D01*
X52650Y53641D01*
X52657Y53650D01*
X52666Y53659D01*
X52680Y53670D01*
X52696Y53684D01*
X52712Y53698D01*
X52733Y53713D01*
X52757Y53729D01*
X52782Y53743D01*
X52809Y53756D01*
X52840Y53768D01*
X52872Y53779D01*
X52906Y53786D01*
X52942Y53791D01*
X52981Y53793D01*
X52990D01*
X52998Y53791D01*
D02*
G37*
G36*
X57113Y52820D02*
X57111Y52819D01*
X57110Y52813D01*
X57106Y52804D01*
X57102Y52793D01*
X57096Y52777D01*
X57089Y52761D01*
X57081Y52744D01*
X57072Y52725D01*
X57053Y52683D01*
X57032Y52643D01*
X57021Y52623D01*
X57010Y52605D01*
X56999Y52589D01*
X56988Y52575D01*
Y52574D01*
X56985Y52572D01*
X56977Y52564D01*
X56964Y52553D01*
X56948Y52540D01*
X56927Y52528D01*
X56902Y52517D01*
X56874Y52508D01*
X56859Y52507D01*
X56844Y52506D01*
X56830D01*
X56814Y52507D01*
X56795D01*
X56773Y52510D01*
X56749Y52512D01*
X56724Y52515D01*
X56701Y52521D01*
Y52707D01*
X56709D01*
X56719Y52705D01*
X56730D01*
X56755Y52704D01*
X56791D01*
X56803Y52705D01*
X56820Y52708D01*
X56837Y52711D01*
X56855Y52716D01*
X56870Y52725D01*
X56884Y52734D01*
X56885Y52736D01*
X56889Y52741D01*
X56895Y52750D01*
X56903Y52764D01*
X56912Y52782D01*
X56917Y52793D01*
X56921Y52806D01*
X56927Y52820D01*
X56932Y52836D01*
X56938Y52852D01*
X56943Y52872D01*
X56566Y53772D01*
X56798D01*
X57036Y53121D01*
X57243Y53772D01*
X57458D01*
X57113Y52820D01*
D02*
G37*
G36*
X59060Y53775D02*
X59071Y53773D01*
X59085Y53770D01*
X59100Y53768D01*
X59117Y53763D01*
X59135Y53758D01*
X59153Y53751D01*
X59171Y53744D01*
X59190Y53734D01*
X59208Y53722D01*
X59226Y53709D01*
X59243Y53694D01*
X59259Y53676D01*
X59261Y53675D01*
X59264Y53672D01*
X59268Y53666D01*
X59272Y53658D01*
X59279Y53650D01*
X59286Y53639D01*
X59293Y53625D01*
X59301Y53611D01*
X59309Y53596D01*
X59316Y53578D01*
X59330Y53540D01*
X59334Y53519D01*
X59339Y53499D01*
X59341Y53476D01*
X59343Y53454D01*
Y53453D01*
Y53450D01*
Y53446D01*
Y53440D01*
X59341Y53425D01*
X59339Y53406D01*
X59333Y53382D01*
X59327Y53357D01*
X59318Y53331D01*
X59305Y53306D01*
Y53304D01*
X59304Y53303D01*
X59298Y53295D01*
X59290Y53282D01*
X59277Y53267D01*
X59261Y53249D01*
X59241Y53231D01*
X59219Y53211D01*
X59193Y53192D01*
X59194D01*
X59197Y53191D01*
X59201Y53189D01*
X59207Y53186D01*
X59223Y53181D01*
X59243Y53170D01*
X59265Y53156D01*
X59289Y53139D01*
X59311Y53117D01*
X59333Y53089D01*
Y53088D01*
X59336Y53085D01*
X59339Y53081D01*
X59341Y53076D01*
X59345Y53067D01*
X59351Y53059D01*
X59355Y53048D01*
X59361Y53035D01*
X59370Y53008D01*
X59380Y52974D01*
X59386Y52935D01*
X59388Y52894D01*
Y52892D01*
Y52887D01*
Y52877D01*
X59387Y52866D01*
X59386Y52851D01*
X59383Y52834D01*
X59380Y52815D01*
X59376Y52794D01*
X59370Y52773D01*
X59363Y52750D01*
X59355Y52726D01*
X59345Y52702D01*
X59333Y52679D01*
X59319Y52655D01*
X59304Y52633D01*
X59286Y52611D01*
X59284Y52610D01*
X59282Y52607D01*
X59276Y52601D01*
X59268Y52594D01*
X59258Y52585D01*
X59246Y52576D01*
X59232Y52565D01*
X59216Y52555D01*
X59200Y52546D01*
X59182Y52535D01*
X59161Y52526D01*
X59140Y52518D01*
X59118Y52510D01*
X59094Y52504D01*
X59069Y52501D01*
X59043Y52500D01*
X59031D01*
X59021Y52501D01*
X59008Y52503D01*
X58995Y52506D01*
X58981Y52508D01*
X58964Y52512D01*
X58928Y52524D01*
X58909Y52531D01*
X58889Y52540D01*
X58870Y52551D01*
X58850Y52564D01*
X58832Y52578D01*
X58814Y52594D01*
X58813Y52596D01*
X58810Y52598D01*
X58806Y52604D01*
X58799Y52612D01*
X58792Y52621D01*
X58784Y52633D01*
X58775Y52647D01*
X58766Y52662D01*
X58756Y52679D01*
X58748Y52698D01*
X58738Y52721D01*
X58730Y52743D01*
X58721Y52768D01*
X58716Y52794D01*
X58710Y52822D01*
X58706Y52852D01*
X58896Y52880D01*
Y52879D01*
Y52876D01*
X58897Y52872D01*
Y52866D01*
X58900Y52849D01*
X58904Y52830D01*
X58911Y52808D01*
X58918Y52786D01*
X58929Y52764D01*
X58943Y52744D01*
X58945Y52743D01*
X58950Y52737D01*
X58960Y52730D01*
X58971Y52722D01*
X58985Y52712D01*
X59002Y52705D01*
X59021Y52700D01*
X59040Y52698D01*
X59043D01*
X59050Y52700D01*
X59063Y52701D01*
X59076Y52705D01*
X59092Y52712D01*
X59110Y52721D01*
X59126Y52734D01*
X59143Y52752D01*
X59144Y52755D01*
X59150Y52762D01*
X59157Y52775D01*
X59165Y52793D01*
X59172Y52815D01*
X59179Y52841D01*
X59185Y52872D01*
X59186Y52906D01*
Y52908D01*
Y52910D01*
Y52915D01*
Y52922D01*
X59185Y52938D01*
X59180Y52959D01*
X59176Y52981D01*
X59169Y53005D01*
X59160Y53028D01*
X59146Y53049D01*
X59144Y53052D01*
X59139Y53058D01*
X59130Y53066D01*
X59118Y53076D01*
X59104Y53085D01*
X59087Y53094D01*
X59068Y53099D01*
X59047Y53102D01*
X59040D01*
X59033Y53100D01*
X59022Y53099D01*
X59010Y53098D01*
X58995Y53095D01*
X58977Y53089D01*
X58959Y53084D01*
X58979Y53279D01*
X58992D01*
X59006Y53281D01*
X59024Y53284D01*
X59042Y53288D01*
X59063Y53295D01*
X59082Y53306D01*
X59100Y53320D01*
X59101Y53321D01*
X59107Y53328D01*
X59114Y53338D01*
X59122Y53352D01*
X59130Y53368D01*
X59137Y53389D01*
X59143Y53413D01*
X59144Y53440D01*
Y53442D01*
Y53443D01*
Y53451D01*
X59143Y53462D01*
X59140Y53478D01*
X59136Y53494D01*
X59130Y53511D01*
X59124Y53526D01*
X59112Y53542D01*
X59111Y53543D01*
X59107Y53547D01*
X59100Y53554D01*
X59090Y53561D01*
X59079Y53566D01*
X59064Y53573D01*
X59049Y53578D01*
X59031Y53579D01*
X59022D01*
X59013Y53576D01*
X59002Y53573D01*
X58988Y53568D01*
X58972Y53561D01*
X58957Y53550D01*
X58943Y53536D01*
X58942Y53535D01*
X58938Y53528D01*
X58932Y53518D01*
X58925Y53504D01*
X58917Y53486D01*
X58910Y53465D01*
X58904Y53440D01*
X58902Y53411D01*
X58720Y53449D01*
Y53450D01*
X58721Y53456D01*
X58723Y53465D01*
X58726Y53476D01*
X58728Y53490D01*
X58732Y53507D01*
X58738Y53525D01*
X58744Y53544D01*
X58759Y53585D01*
X58778Y53625D01*
X58789Y53646D01*
X58802Y53664D01*
X58814Y53682D01*
X58830Y53697D01*
X58831Y53698D01*
X58834Y53700D01*
X58838Y53704D01*
X58845Y53709D01*
X58852Y53715D01*
X58861Y53722D01*
X58874Y53729D01*
X58886Y53737D01*
X58900Y53744D01*
X58916Y53751D01*
X58952Y53763D01*
X58971Y53769D01*
X58992Y53773D01*
X59014Y53775D01*
X59036Y53776D01*
X59050D01*
X59060Y53775D01*
D02*
G37*
G36*
X58262D02*
X58273Y53773D01*
X58287Y53770D01*
X58303Y53768D01*
X58319Y53763D01*
X58337Y53758D01*
X58355Y53751D01*
X58373Y53744D01*
X58393Y53734D01*
X58411Y53722D01*
X58429Y53709D01*
X58445Y53694D01*
X58462Y53676D01*
X58463Y53675D01*
X58466Y53672D01*
X58470Y53666D01*
X58475Y53658D01*
X58481Y53650D01*
X58488Y53639D01*
X58495Y53625D01*
X58504Y53611D01*
X58512Y53596D01*
X58519Y53578D01*
X58533Y53540D01*
X58537Y53519D01*
X58541Y53499D01*
X58544Y53476D01*
X58545Y53454D01*
Y53453D01*
Y53450D01*
Y53446D01*
Y53440D01*
X58544Y53425D01*
X58541Y53406D01*
X58536Y53382D01*
X58530Y53357D01*
X58520Y53331D01*
X58508Y53306D01*
Y53304D01*
X58506Y53303D01*
X58501Y53295D01*
X58493Y53282D01*
X58480Y53267D01*
X58463Y53249D01*
X58444Y53231D01*
X58422Y53211D01*
X58395Y53192D01*
X58397D01*
X58400Y53191D01*
X58404Y53189D01*
X58409Y53186D01*
X58426Y53181D01*
X58445Y53170D01*
X58468Y53156D01*
X58491Y53139D01*
X58513Y53117D01*
X58536Y53089D01*
Y53088D01*
X58538Y53085D01*
X58541Y53081D01*
X58544Y53076D01*
X58548Y53067D01*
X58554Y53059D01*
X58558Y53048D01*
X58563Y53035D01*
X58573Y53008D01*
X58583Y52974D01*
X58588Y52935D01*
X58591Y52894D01*
Y52892D01*
Y52887D01*
Y52877D01*
X58590Y52866D01*
X58588Y52851D01*
X58585Y52834D01*
X58583Y52815D01*
X58579Y52794D01*
X58573Y52773D01*
X58566Y52750D01*
X58558Y52726D01*
X58548Y52702D01*
X58536Y52679D01*
X58522Y52655D01*
X58506Y52633D01*
X58488Y52611D01*
X58487Y52610D01*
X58484Y52607D01*
X58479Y52601D01*
X58470Y52594D01*
X58461Y52585D01*
X58448Y52576D01*
X58434Y52565D01*
X58419Y52555D01*
X58402Y52546D01*
X58384Y52535D01*
X58364Y52526D01*
X58343Y52518D01*
X58321Y52510D01*
X58297Y52504D01*
X58272Y52501D01*
X58246Y52500D01*
X58233D01*
X58223Y52501D01*
X58211Y52503D01*
X58197Y52506D01*
X58183Y52508D01*
X58167Y52512D01*
X58131Y52524D01*
X58111Y52531D01*
X58092Y52540D01*
X58072Y52551D01*
X58053Y52564D01*
X58035Y52578D01*
X58017Y52594D01*
X58015Y52596D01*
X58013Y52598D01*
X58009Y52604D01*
X58002Y52612D01*
X57995Y52621D01*
X57986Y52633D01*
X57978Y52647D01*
X57968Y52662D01*
X57959Y52679D01*
X57950Y52698D01*
X57941Y52721D01*
X57932Y52743D01*
X57924Y52768D01*
X57918Y52794D01*
X57913Y52822D01*
X57909Y52852D01*
X58099Y52880D01*
Y52879D01*
Y52876D01*
X58100Y52872D01*
Y52866D01*
X58103Y52849D01*
X58107Y52830D01*
X58114Y52808D01*
X58121Y52786D01*
X58132Y52764D01*
X58146Y52744D01*
X58147Y52743D01*
X58153Y52737D01*
X58162Y52730D01*
X58174Y52722D01*
X58187Y52712D01*
X58204Y52705D01*
X58223Y52700D01*
X58243Y52698D01*
X58246D01*
X58253Y52700D01*
X58265Y52701D01*
X58279Y52705D01*
X58294Y52712D01*
X58312Y52721D01*
X58329Y52734D01*
X58346Y52752D01*
X58347Y52755D01*
X58352Y52762D01*
X58359Y52775D01*
X58368Y52793D01*
X58375Y52815D01*
X58382Y52841D01*
X58387Y52872D01*
X58389Y52906D01*
Y52908D01*
Y52910D01*
Y52915D01*
Y52922D01*
X58387Y52938D01*
X58383Y52959D01*
X58379Y52981D01*
X58372Y53005D01*
X58362Y53028D01*
X58348Y53049D01*
X58347Y53052D01*
X58341Y53058D01*
X58333Y53066D01*
X58321Y53076D01*
X58307Y53085D01*
X58290Y53094D01*
X58271Y53099D01*
X58250Y53102D01*
X58243D01*
X58236Y53100D01*
X58225Y53099D01*
X58212Y53098D01*
X58197Y53095D01*
X58179Y53089D01*
X58161Y53084D01*
X58182Y53279D01*
X58194D01*
X58208Y53281D01*
X58226Y53284D01*
X58244Y53288D01*
X58265Y53295D01*
X58285Y53306D01*
X58303Y53320D01*
X58304Y53321D01*
X58309Y53328D01*
X58316Y53338D01*
X58325Y53352D01*
X58333Y53368D01*
X58340Y53389D01*
X58346Y53413D01*
X58347Y53440D01*
Y53442D01*
Y53443D01*
Y53451D01*
X58346Y53462D01*
X58343Y53478D01*
X58339Y53494D01*
X58333Y53511D01*
X58326Y53526D01*
X58315Y53542D01*
X58314Y53543D01*
X58309Y53547D01*
X58303Y53554D01*
X58293Y53561D01*
X58282Y53566D01*
X58266Y53573D01*
X58251Y53578D01*
X58233Y53579D01*
X58225D01*
X58215Y53576D01*
X58204Y53573D01*
X58190Y53568D01*
X58175Y53561D01*
X58160Y53550D01*
X58146Y53536D01*
X58144Y53535D01*
X58140Y53528D01*
X58135Y53518D01*
X58128Y53504D01*
X58119Y53486D01*
X58113Y53465D01*
X58107Y53440D01*
X58104Y53411D01*
X57923Y53449D01*
Y53450D01*
X57924Y53456D01*
X57925Y53465D01*
X57928Y53476D01*
X57931Y53490D01*
X57935Y53507D01*
X57941Y53525D01*
X57946Y53544D01*
X57961Y53585D01*
X57981Y53625D01*
X57992Y53646D01*
X58004Y53664D01*
X58017Y53682D01*
X58032Y53697D01*
X58033Y53698D01*
X58036Y53700D01*
X58040Y53704D01*
X58047Y53709D01*
X58054Y53715D01*
X58064Y53722D01*
X58076Y53729D01*
X58089Y53737D01*
X58103Y53744D01*
X58118Y53751D01*
X58154Y53763D01*
X58174Y53769D01*
X58194Y53773D01*
X58217Y53775D01*
X58239Y53776D01*
X58253D01*
X58262Y53775D01*
D02*
G37*
G36*
X60956Y53530D02*
X60585D01*
X60552Y53317D01*
X60553D01*
X60555Y53318D01*
X60563Y53324D01*
X60577Y53331D01*
X60594Y53338D01*
X60614Y53346D01*
X60638Y53352D01*
X60662Y53357D01*
X60688Y53358D01*
X60699D01*
X60709Y53357D01*
X60718Y53356D01*
X60731Y53353D01*
X60745Y53350D01*
X60759Y53346D01*
X60775Y53342D01*
X60791Y53335D01*
X60809Y53328D01*
X60825Y53318D01*
X60843Y53307D01*
X60860Y53295D01*
X60877Y53279D01*
X60893Y53263D01*
X60895Y53261D01*
X60897Y53257D01*
X60903Y53250D01*
X60910Y53241D01*
X60918Y53228D01*
X60928Y53214D01*
X60938Y53196D01*
X60947Y53177D01*
X60957Y53155D01*
X60967Y53131D01*
X60976Y53105D01*
X60985Y53076D01*
X60992Y53045D01*
X60997Y53012D01*
X61000Y52977D01*
X61001Y52941D01*
Y52940D01*
Y52934D01*
Y52924D01*
X61000Y52913D01*
X60999Y52898D01*
X60997Y52881D01*
X60994Y52862D01*
X60990Y52841D01*
X60985Y52819D01*
X60979Y52794D01*
X60972Y52769D01*
X60963Y52743D01*
X60953Y52716D01*
X60940Y52690D01*
X60926Y52664D01*
X60910Y52637D01*
X60908Y52636D01*
X60906Y52632D01*
X60900Y52625D01*
X60893Y52617D01*
X60883Y52605D01*
X60872Y52594D01*
X60858Y52582D01*
X60843Y52569D01*
X60825Y52555D01*
X60806Y52543D01*
X60785Y52532D01*
X60761Y52522D01*
X60736Y52512D01*
X60709Y52506D01*
X60680Y52501D01*
X60649Y52500D01*
X60637D01*
X60627Y52501D01*
X60614Y52503D01*
X60601Y52504D01*
X60587Y52507D01*
X60570Y52511D01*
X60534Y52522D01*
X60515Y52529D01*
X60495Y52537D01*
X60476Y52547D01*
X60456Y52560D01*
X60438Y52574D01*
X60420Y52589D01*
X60419Y52590D01*
X60416Y52593D01*
X60412Y52598D01*
X60406Y52605D01*
X60398Y52615D01*
X60390Y52626D01*
X60381Y52639D01*
X60372Y52654D01*
X60363Y52671D01*
X60354Y52690D01*
X60344Y52711D01*
X60336Y52734D01*
X60327Y52758D01*
X60320Y52786D01*
X60315Y52813D01*
X60311Y52844D01*
X60508Y52869D01*
Y52868D01*
Y52865D01*
X60509Y52861D01*
Y52855D01*
X60512Y52840D01*
X60516Y52822D01*
X60523Y52801D01*
X60531Y52779D01*
X60544Y52758D01*
X60558Y52739D01*
X60559Y52737D01*
X60564Y52732D01*
X60574Y52725D01*
X60585Y52716D01*
X60599Y52707D01*
X60616Y52700D01*
X60632Y52694D01*
X60652Y52693D01*
X60655D01*
X60662Y52694D01*
X60674Y52696D01*
X60688Y52700D01*
X60705Y52708D01*
X60721Y52718D01*
X60739Y52733D01*
X60748Y52741D01*
X60756Y52752D01*
Y52754D01*
X60757Y52755D01*
X60760Y52759D01*
X60763Y52764D01*
X60766Y52770D01*
X60770Y52777D01*
X60774Y52787D01*
X60778Y52798D01*
X60782Y52809D01*
X60786Y52823D01*
X60791Y52838D01*
X60793Y52855D01*
X60796Y52873D01*
X60799Y52892D01*
X60800Y52913D01*
Y52935D01*
Y52937D01*
Y52941D01*
Y52947D01*
Y52955D01*
X60799Y52965D01*
X60797Y52976D01*
X60795Y53002D01*
X60789Y53030D01*
X60782Y53059D01*
X60771Y53085D01*
X60764Y53098D01*
X60756Y53109D01*
X60754Y53112D01*
X60748Y53117D01*
X60739Y53127D01*
X60727Y53138D01*
X60710Y53148D01*
X60692Y53157D01*
X60670Y53163D01*
X60646Y53166D01*
X60638D01*
X60632Y53164D01*
X60624Y53163D01*
X60616Y53162D01*
X60595Y53155D01*
X60571Y53144D01*
X60559Y53137D01*
X60546Y53127D01*
X60533Y53117D01*
X60520Y53105D01*
X60506Y53091D01*
X60494Y53074D01*
X60334Y53102D01*
X60436Y53755D01*
X60956D01*
Y53530D01*
D02*
G37*
G36*
X65058Y53775D02*
X65072Y53773D01*
X65087Y53770D01*
X65105Y53768D01*
X65123Y53763D01*
X65142Y53758D01*
X65162Y53750D01*
X65183Y53741D01*
X65203Y53732D01*
X65223Y53719D01*
X65242Y53705D01*
X65259Y53689D01*
X65276Y53670D01*
X65277Y53669D01*
X65280Y53666D01*
X65283Y53659D01*
X65288Y53652D01*
X65295Y53641D01*
X65302Y53630D01*
X65309Y53616D01*
X65317Y53601D01*
X65324Y53585D01*
X65331Y53565D01*
X65345Y53525D01*
X65350Y53503D01*
X65353Y53479D01*
X65356Y53456D01*
X65357Y53431D01*
Y53429D01*
Y53428D01*
Y53424D01*
Y53417D01*
X65356Y53403D01*
X65355Y53383D01*
X65352Y53360D01*
X65348Y53335D01*
X65342Y53309D01*
X65335Y53281D01*
Y53279D01*
X65334Y53278D01*
X65332Y53274D01*
X65331Y53268D01*
X65327Y53254D01*
X65320Y53236D01*
X65310Y53214D01*
X65299Y53191D01*
X65287Y53164D01*
X65271Y53137D01*
Y53135D01*
X65270Y53134D01*
X65267Y53130D01*
X65263Y53124D01*
X65259Y53116D01*
X65252Y53107D01*
X65245Y53098D01*
X65237Y53087D01*
X65217Y53059D01*
X65192Y53028D01*
X65162Y52991D01*
X65144Y52972D01*
X65126Y52951D01*
X65124Y52949D01*
X65122Y52947D01*
X65117Y52941D01*
X65111Y52934D01*
X65104Y52924D01*
X65095Y52915D01*
X65076Y52892D01*
X65055Y52869D01*
X65036Y52847D01*
X65019Y52826D01*
X65012Y52816D01*
X65007Y52809D01*
X65005Y52808D01*
X65002Y52804D01*
X64998Y52797D01*
X64993Y52788D01*
X64986Y52779D01*
X64979Y52768D01*
X64966Y52744D01*
X65357D01*
Y52521D01*
X64668D01*
Y52522D01*
Y52526D01*
X64670Y52533D01*
X64671Y52543D01*
X64672Y52554D01*
X64675Y52567D01*
X64678Y52582D01*
X64681Y52598D01*
X64689Y52635D01*
X64701Y52675D01*
X64715Y52718D01*
X64735Y52761D01*
X64736Y52762D01*
X64737Y52766D01*
X64742Y52772D01*
X64746Y52782D01*
X64753Y52793D01*
X64761Y52806D01*
X64772Y52823D01*
X64783Y52841D01*
X64797Y52861D01*
X64814Y52884D01*
X64832Y52908D01*
X64851Y52934D01*
X64875Y52963D01*
X64898Y52994D01*
X64926Y53026D01*
X64955Y53059D01*
X64957Y53060D01*
X64961Y53066D01*
X64968Y53073D01*
X64976Y53082D01*
X64987Y53095D01*
X64998Y53109D01*
X65025Y53139D01*
X65052Y53173D01*
X65079Y53206D01*
X65090Y53221D01*
X65101Y53235D01*
X65109Y53248D01*
X65116Y53259D01*
Y53260D01*
X65117Y53263D01*
X65120Y53266D01*
X65123Y53271D01*
X65130Y53286D01*
X65138Y53306D01*
X65147Y53329D01*
X65154Y53356D01*
X65159Y53383D01*
X65160Y53411D01*
Y53413D01*
Y53415D01*
Y53419D01*
Y53425D01*
X65159Y53439D01*
X65156Y53457D01*
X65151Y53478D01*
X65145Y53497D01*
X65135Y53518D01*
X65123Y53535D01*
X65122Y53536D01*
X65116Y53542D01*
X65109Y53548D01*
X65098Y53557D01*
X65084Y53564D01*
X65068Y53571D01*
X65048Y53576D01*
X65027Y53578D01*
X65022D01*
X65015Y53576D01*
X65007Y53575D01*
X64997Y53572D01*
X64986Y53568D01*
X64973Y53561D01*
X64961Y53553D01*
X64948Y53543D01*
X64936Y53530D01*
X64925Y53514D01*
X64914Y53496D01*
X64904Y53472D01*
X64896Y53447D01*
X64890Y53417D01*
X64887Y53382D01*
X64692Y53407D01*
Y53410D01*
X64693Y53415D01*
X64694Y53425D01*
X64696Y53438D01*
X64699Y53454D01*
X64701Y53472D01*
X64706Y53492D01*
X64711Y53514D01*
X64725Y53558D01*
X64743Y53605D01*
X64754Y53627D01*
X64767Y53648D01*
X64782Y53668D01*
X64797Y53686D01*
X64799Y53687D01*
X64801Y53690D01*
X64807Y53694D01*
X64814Y53700D01*
X64822Y53707D01*
X64833Y53715D01*
X64846Y53722D01*
X64860Y53732D01*
X64876Y53740D01*
X64893Y53747D01*
X64912Y53755D01*
X64933Y53762D01*
X64955Y53768D01*
X64980Y53772D01*
X65005Y53775D01*
X65031Y53776D01*
X65047D01*
X65058Y53775D01*
D02*
G37*
G36*
X62937Y52521D02*
X62740D01*
Y52761D01*
X62937D01*
Y52521D01*
D02*
G37*
G36*
X60014D02*
X59817D01*
Y53425D01*
X59816Y53424D01*
X59811Y53419D01*
X59806Y53413D01*
X59798Y53404D01*
X59786Y53395D01*
X59774Y53382D01*
X59760Y53370D01*
X59743Y53356D01*
X59725Y53340D01*
X59706Y53325D01*
X59685Y53311D01*
X59663Y53296D01*
X59614Y53267D01*
X59590Y53254D01*
X59563Y53243D01*
Y53461D01*
X59565D01*
X59567Y53462D01*
X59571Y53465D01*
X59577Y53468D01*
X59585Y53471D01*
X59594Y53476D01*
X59614Y53487D01*
X59641Y53504D01*
X59669Y53523D01*
X59700Y53548D01*
X59732Y53578D01*
X59734Y53579D01*
X59737Y53582D01*
X59741Y53586D01*
X59746Y53593D01*
X59753Y53601D01*
X59761Y53611D01*
X59771Y53622D01*
X59781Y53634D01*
X59800Y53664D01*
X59821Y53698D01*
X59839Y53736D01*
X59854Y53776D01*
X60014D01*
Y52521D01*
D02*
G37*
G36*
X57755Y52521D02*
X57558D01*
Y52761D01*
X57755D01*
Y52521D01*
D02*
G37*
G36*
X56458D02*
X56251D01*
Y53560D01*
X55845D01*
Y52521D01*
X55638D01*
Y53772D01*
X56458D01*
Y52521D01*
D02*
G37*
G36*
X55378Y53560D02*
X54817D01*
Y53274D01*
X55127D01*
X55138Y53272D01*
X55152Y53271D01*
X55168Y53268D01*
X55186Y53266D01*
X55206Y53261D01*
X55225Y53256D01*
X55247Y53249D01*
X55268Y53241D01*
X55290Y53229D01*
X55311Y53218D01*
X55332Y53205D01*
X55353Y53188D01*
X55371Y53170D01*
X55372Y53168D01*
X55375Y53166D01*
X55379Y53159D01*
X55386Y53150D01*
X55393Y53141D01*
X55401Y53128D01*
X55410Y53113D01*
X55419Y53096D01*
X55428Y53078D01*
X55436Y53058D01*
X55444Y53034D01*
X55451Y53010D01*
X55458Y52984D01*
X55462Y52956D01*
X55465Y52927D01*
X55466Y52895D01*
Y52894D01*
Y52888D01*
Y52881D01*
X55465Y52870D01*
X55464Y52858D01*
X55462Y52843D01*
X55460Y52826D01*
X55457Y52806D01*
X55447Y52766D01*
X55440Y52744D01*
X55432Y52722D01*
X55422Y52700D01*
X55412Y52678D01*
X55398Y52655D01*
X55385Y52633D01*
X55383Y52632D01*
X55380Y52629D01*
X55376Y52623D01*
X55369Y52615D01*
X55360Y52607D01*
X55349Y52597D01*
X55336Y52587D01*
X55321Y52578D01*
X55303Y52567D01*
X55282Y52557D01*
X55260Y52547D01*
X55235Y52539D01*
X55207Y52532D01*
X55178Y52526D01*
X55145Y52522D01*
X55110Y52521D01*
X54611D01*
Y53772D01*
X55378D01*
Y53560D01*
D02*
G37*
G36*
X54393Y52521D02*
X54186D01*
Y53560D01*
X53780D01*
Y52521D01*
X53573D01*
Y53772D01*
X54393D01*
Y52521D01*
D02*
G37*
G36*
X64242Y53775D02*
X64253Y53773D01*
X64266Y53772D01*
X64280Y53769D01*
X64296Y53763D01*
X64314Y53758D01*
X64333Y53751D01*
X64353Y53741D01*
X64373Y53730D01*
X64394Y53716D01*
X64413Y53700D01*
X64432Y53680D01*
X64452Y53658D01*
X64470Y53633D01*
X64471Y53632D01*
X64474Y53626D01*
X64478Y53618D01*
X64485Y53605D01*
X64492Y53590D01*
X64499Y53569D01*
X64507Y53546D01*
X64517Y53518D01*
X64525Y53486D01*
X64534Y53450D01*
X64541Y53410D01*
X64549Y53364D01*
X64554Y53314D01*
X64559Y53260D01*
X64561Y53200D01*
X64563Y53137D01*
Y53135D01*
Y53132D01*
Y53128D01*
Y53121D01*
Y53113D01*
Y53103D01*
X64561Y53092D01*
Y53080D01*
X64560Y53051D01*
X64557Y53017D01*
X64554Y52981D01*
X64552Y52942D01*
X64546Y52902D01*
X64541Y52861D01*
X64532Y52819D01*
X64524Y52779D01*
X64513Y52740D01*
X64500Y52704D01*
X64486Y52671D01*
X64470Y52641D01*
X64468Y52640D01*
X64466Y52636D01*
X64460Y52629D01*
X64453Y52619D01*
X64443Y52608D01*
X64432Y52597D01*
X64420Y52585D01*
X64405Y52571D01*
X64388Y52558D01*
X64370Y52544D01*
X64351Y52533D01*
X64328Y52522D01*
X64306Y52512D01*
X64281Y52506D01*
X64256Y52501D01*
X64229Y52500D01*
X64222D01*
X64215Y52501D01*
X64204Y52503D01*
X64191Y52504D01*
X64177Y52507D01*
X64161Y52511D01*
X64143Y52518D01*
X64124Y52525D01*
X64105Y52535D01*
X64084Y52546D01*
X64063Y52560D01*
X64044Y52575D01*
X64025Y52594D01*
X64005Y52615D01*
X63987Y52640D01*
X63986Y52641D01*
X63983Y52647D01*
X63979Y52655D01*
X63973Y52668D01*
X63966Y52683D01*
X63958Y52704D01*
X63950Y52727D01*
X63941Y52755D01*
X63933Y52787D01*
X63925Y52823D01*
X63916Y52865D01*
X63910Y52911D01*
X63904Y52960D01*
X63900Y53015D01*
X63897Y53074D01*
X63896Y53139D01*
Y53141D01*
Y53144D01*
Y53148D01*
Y53155D01*
Y53163D01*
Y53173D01*
X63897Y53184D01*
Y53196D01*
X63898Y53225D01*
X63901Y53259D01*
X63904Y53295D01*
X63907Y53333D01*
X63912Y53374D01*
X63918Y53415D01*
X63925Y53456D01*
X63934Y53496D01*
X63944Y53535D01*
X63957Y53571D01*
X63971Y53604D01*
X63987Y53633D01*
X63989Y53634D01*
X63991Y53639D01*
X63997Y53647D01*
X64004Y53655D01*
X64014Y53666D01*
X64025Y53679D01*
X64037Y53691D01*
X64052Y53705D01*
X64069Y53718D01*
X64087Y53730D01*
X64106Y53743D01*
X64129Y53754D01*
X64151Y53763D01*
X64176Y53770D01*
X64201Y53775D01*
X64229Y53776D01*
X64235D01*
X64242Y53775D01*
D02*
G37*
G36*
X63445D02*
X63456Y53773D01*
X63469Y53772D01*
X63482Y53769D01*
X63499Y53763D01*
X63517Y53758D01*
X63535Y53751D01*
X63556Y53741D01*
X63575Y53730D01*
X63596Y53716D01*
X63616Y53700D01*
X63635Y53680D01*
X63654Y53658D01*
X63672Y53633D01*
X63674Y53632D01*
X63677Y53626D01*
X63681Y53618D01*
X63688Y53605D01*
X63695Y53590D01*
X63702Y53569D01*
X63710Y53546D01*
X63720Y53518D01*
X63728Y53486D01*
X63736Y53450D01*
X63743Y53410D01*
X63751Y53364D01*
X63757Y53314D01*
X63761Y53260D01*
X63764Y53200D01*
X63765Y53137D01*
Y53135D01*
Y53132D01*
Y53128D01*
Y53121D01*
Y53113D01*
Y53103D01*
X63764Y53092D01*
Y53080D01*
X63763Y53051D01*
X63760Y53017D01*
X63757Y52981D01*
X63754Y52942D01*
X63749Y52902D01*
X63743Y52861D01*
X63735Y52819D01*
X63726Y52779D01*
X63715Y52740D01*
X63703Y52704D01*
X63689Y52671D01*
X63672Y52641D01*
X63671Y52640D01*
X63668Y52636D01*
X63663Y52629D01*
X63656Y52619D01*
X63646Y52608D01*
X63635Y52597D01*
X63622Y52585D01*
X63607Y52571D01*
X63591Y52558D01*
X63573Y52544D01*
X63553Y52533D01*
X63531Y52522D01*
X63509Y52512D01*
X63484Y52506D01*
X63459Y52501D01*
X63431Y52500D01*
X63424D01*
X63417Y52501D01*
X63406Y52503D01*
X63394Y52504D01*
X63380Y52507D01*
X63363Y52511D01*
X63345Y52518D01*
X63327Y52525D01*
X63308Y52535D01*
X63287Y52546D01*
X63266Y52560D01*
X63247Y52575D01*
X63227Y52594D01*
X63208Y52615D01*
X63190Y52640D01*
X63188Y52641D01*
X63186Y52647D01*
X63181Y52655D01*
X63176Y52668D01*
X63169Y52683D01*
X63161Y52704D01*
X63152Y52727D01*
X63144Y52755D01*
X63136Y52787D01*
X63127Y52823D01*
X63119Y52865D01*
X63112Y52911D01*
X63107Y52960D01*
X63102Y53015D01*
X63100Y53074D01*
X63098Y53139D01*
Y53141D01*
Y53144D01*
Y53148D01*
Y53155D01*
Y53163D01*
Y53173D01*
X63100Y53184D01*
Y53196D01*
X63101Y53225D01*
X63104Y53259D01*
X63107Y53295D01*
X63109Y53333D01*
X63115Y53374D01*
X63120Y53415D01*
X63127Y53456D01*
X63137Y53496D01*
X63147Y53535D01*
X63159Y53571D01*
X63173Y53604D01*
X63190Y53633D01*
X63191Y53634D01*
X63194Y53639D01*
X63199Y53647D01*
X63206Y53655D01*
X63216Y53666D01*
X63227Y53679D01*
X63240Y53691D01*
X63255Y53705D01*
X63272Y53718D01*
X63290Y53730D01*
X63309Y53743D01*
X63331Y53754D01*
X63353Y53763D01*
X63378Y53770D01*
X63403Y53775D01*
X63431Y53776D01*
X63438D01*
X63445Y53775D01*
D02*
G37*
G36*
X61452D02*
X61463Y53773D01*
X61476Y53772D01*
X61489Y53769D01*
X61506Y53763D01*
X61524Y53758D01*
X61542Y53751D01*
X61563Y53741D01*
X61582Y53730D01*
X61603Y53716D01*
X61623Y53700D01*
X61642Y53680D01*
X61661Y53658D01*
X61679Y53633D01*
X61681Y53632D01*
X61684Y53626D01*
X61688Y53618D01*
X61695Y53605D01*
X61702Y53590D01*
X61709Y53569D01*
X61717Y53546D01*
X61727Y53518D01*
X61735Y53486D01*
X61743Y53450D01*
X61750Y53410D01*
X61759Y53364D01*
X61764Y53314D01*
X61768Y53260D01*
X61771Y53200D01*
X61772Y53137D01*
Y53135D01*
Y53132D01*
Y53128D01*
Y53121D01*
Y53113D01*
Y53103D01*
X61771Y53092D01*
Y53080D01*
X61770Y53051D01*
X61767Y53017D01*
X61764Y52981D01*
X61761Y52942D01*
X61756Y52902D01*
X61750Y52861D01*
X61742Y52819D01*
X61734Y52779D01*
X61722Y52740D01*
X61710Y52704D01*
X61696Y52671D01*
X61679Y52641D01*
X61678Y52640D01*
X61675Y52636D01*
X61670Y52629D01*
X61663Y52619D01*
X61653Y52608D01*
X61642Y52597D01*
X61630Y52585D01*
X61614Y52571D01*
X61598Y52558D01*
X61580Y52544D01*
X61560Y52533D01*
X61538Y52522D01*
X61516Y52512D01*
X61491Y52506D01*
X61466Y52501D01*
X61438Y52500D01*
X61431D01*
X61424Y52501D01*
X61413Y52503D01*
X61401Y52504D01*
X61387Y52507D01*
X61370Y52511D01*
X61352Y52518D01*
X61334Y52525D01*
X61315Y52535D01*
X61294Y52546D01*
X61273Y52560D01*
X61254Y52575D01*
X61234Y52594D01*
X61215Y52615D01*
X61197Y52640D01*
X61195Y52641D01*
X61193Y52647D01*
X61189Y52655D01*
X61183Y52668D01*
X61176Y52683D01*
X61168Y52704D01*
X61159Y52727D01*
X61151Y52755D01*
X61143Y52787D01*
X61134Y52823D01*
X61126Y52865D01*
X61119Y52911D01*
X61114Y52960D01*
X61110Y53015D01*
X61107Y53074D01*
X61105Y53139D01*
Y53141D01*
Y53144D01*
Y53148D01*
Y53155D01*
Y53163D01*
Y53173D01*
X61107Y53184D01*
Y53196D01*
X61108Y53225D01*
X61111Y53259D01*
X61114Y53295D01*
X61116Y53333D01*
X61122Y53374D01*
X61128Y53415D01*
X61134Y53456D01*
X61144Y53496D01*
X61154Y53535D01*
X61166Y53571D01*
X61180Y53604D01*
X61197Y53633D01*
X61198Y53634D01*
X61201Y53639D01*
X61207Y53647D01*
X61214Y53655D01*
X61223Y53666D01*
X61234Y53679D01*
X61247Y53691D01*
X61262Y53705D01*
X61279Y53718D01*
X61297Y53730D01*
X61316Y53743D01*
X61338Y53754D01*
X61361Y53763D01*
X61385Y53770D01*
X61410Y53775D01*
X61438Y53776D01*
X61445D01*
X61452Y53775D01*
D02*
G37*
G36*
X98650Y96050D02*
X91250D01*
Y98200D01*
X98650D01*
Y96050D01*
D02*
G37*
G36*
X127064Y83375D02*
X116425D01*
Y85881D01*
X127064D01*
Y83375D01*
D02*
G37*
G36*
X91275Y61250D02*
X83275D01*
Y63400D01*
X91275D01*
Y61250D01*
D02*
G37*
G36*
X76812Y63941D02*
Y60525D01*
X59225D01*
Y63941D01*
Y66825D01*
X76812D01*
Y63941D01*
D02*
G37*
G36*
X60964Y87532D02*
X52325D01*
X60964D01*
Y84625D01*
X52325D01*
Y87532D01*
D01*
Y90038D01*
X60964D01*
Y87532D01*
D02*
G37*
G36*
X72642Y95493D02*
X72647Y95491D01*
X72662Y95487D01*
X72671Y95481D01*
X72679Y95476D01*
X72680Y95474D01*
X72683Y95473D01*
X72686Y95469D01*
X72690Y95463D01*
X72698Y95450D01*
X72700Y95440D01*
X72701Y95430D01*
Y94221D01*
Y94219D01*
Y94218D01*
X72700Y94214D01*
X72698Y94208D01*
X72694Y94194D01*
X72689Y94185D01*
X72683Y94175D01*
X72682Y94174D01*
X72679Y94172D01*
X72673Y94169D01*
X72667Y94167D01*
X72658Y94163D01*
X72650Y94160D01*
X72639Y94158D01*
X72628Y94157D01*
X72594Y94165D01*
X72569Y94193D01*
X72142Y95114D01*
Y94221D01*
Y94219D01*
Y94217D01*
X72141Y94211D01*
X72140Y94204D01*
X72135Y94189D01*
X72130Y94182D01*
X72124Y94175D01*
X72123Y94174D01*
X72120Y94172D01*
X72116Y94169D01*
X72110Y94167D01*
X72102Y94163D01*
X72094Y94160D01*
X72084Y94158D01*
X72073Y94157D01*
X72070D01*
X72067Y94158D01*
X72062D01*
X72055Y94161D01*
X72047Y94164D01*
X72037Y94167D01*
X72026Y94172D01*
X72024Y94174D01*
X72023Y94175D01*
X72019Y94179D01*
X72015Y94185D01*
X72011Y94192D01*
X72008Y94200D01*
X72005Y94210D01*
X72004Y94221D01*
Y95430D01*
Y95431D01*
Y95433D01*
X72005Y95437D01*
X72006Y95443D01*
X72012Y95456D01*
X72016Y95463D01*
X72023Y95472D01*
X72024Y95473D01*
X72027Y95476D01*
X72031Y95479D01*
X72037Y95483D01*
X72044Y95487D01*
X72052Y95491D01*
X72062Y95493D01*
X72073Y95494D01*
X72076D01*
X72084Y95493D01*
X72095Y95491D01*
X72108Y95486D01*
X72109D01*
X72110Y95484D01*
X72117Y95479D01*
X72127Y95469D01*
X72135Y95455D01*
X72561Y94536D01*
Y95430D01*
Y95431D01*
Y95433D01*
X72563Y95437D01*
X72564Y95443D01*
X72569Y95456D01*
X72574Y95463D01*
X72581Y95472D01*
X72582Y95473D01*
X72585Y95476D01*
X72589Y95479D01*
X72594Y95483D01*
X72603Y95487D01*
X72611Y95491D01*
X72621Y95493D01*
X72632Y95494D01*
X72636D01*
X72642Y95493D01*
D02*
G37*
G36*
X71428Y95491D02*
X71435Y95490D01*
X71452Y95486D01*
X71460Y95480D01*
X71468Y95474D01*
X71470Y95473D01*
X71471Y95472D01*
X71475Y95468D01*
X71479Y95462D01*
X71486Y95447D01*
X71488Y95438D01*
X71489Y95427D01*
X71488Y95412D01*
X71160Y94212D01*
Y94210D01*
X71158Y94204D01*
X71154Y94194D01*
X71147Y94185D01*
X71138Y94175D01*
X71127Y94165D01*
X71112Y94160D01*
X71094Y94157D01*
X71091D01*
X71086Y94158D01*
X71077Y94160D01*
X71066Y94164D01*
X71055Y94171D01*
X71044Y94181D01*
X71034Y94194D01*
X71027Y94212D01*
X70701Y95412D01*
X70699Y95429D01*
Y95430D01*
Y95433D01*
X70700Y95437D01*
X70701Y95443D01*
X70707Y95456D01*
X70711Y95465D01*
X70718Y95472D01*
X70719Y95473D01*
X70722Y95474D01*
X70726Y95479D01*
X70732Y95483D01*
X70740Y95486D01*
X70749Y95490D01*
X70758Y95491D01*
X70769Y95493D01*
X70772D01*
X70782Y95491D01*
X70793Y95488D01*
X70805Y95481D01*
X70807D01*
X70808Y95480D01*
X70811Y95477D01*
X70815Y95474D01*
X70821Y95469D01*
X70825Y95463D01*
X70830Y95455D01*
X70836Y95444D01*
X71094Y94493D01*
X71352Y95444D01*
Y95445D01*
X71353Y95447D01*
X71356Y95454D01*
X71363Y95463D01*
X71373Y95476D01*
X71374D01*
X71375Y95477D01*
X71380Y95480D01*
X71385Y95483D01*
X71399Y95488D01*
X71417Y95493D01*
X71423D01*
X71428Y95491D01*
D02*
G37*
G36*
X71757Y95493D02*
X71762Y95491D01*
X71778Y95487D01*
X71786Y95481D01*
X71794Y95476D01*
X71796Y95474D01*
X71798Y95473D01*
X71801Y95469D01*
X71805Y95463D01*
X71814Y95450D01*
X71815Y95440D01*
X71816Y95430D01*
Y94221D01*
Y94219D01*
Y94217D01*
X71815Y94211D01*
X71814Y94204D01*
X71809Y94189D01*
X71804Y94182D01*
X71798Y94175D01*
X71797Y94174D01*
X71794Y94172D01*
X71790Y94169D01*
X71785Y94167D01*
X71776Y94163D01*
X71768Y94160D01*
X71758Y94158D01*
X71747Y94157D01*
X71744D01*
X71742Y94158D01*
X71736D01*
X71729Y94161D01*
X71721Y94164D01*
X71711Y94167D01*
X71700Y94172D01*
X71699Y94174D01*
X71697Y94175D01*
X71693Y94179D01*
X71689Y94185D01*
X71685Y94192D01*
X71682Y94200D01*
X71679Y94210D01*
X71678Y94221D01*
Y95430D01*
Y95431D01*
Y95433D01*
X71679Y95437D01*
X71680Y95443D01*
X71686Y95456D01*
X71690Y95463D01*
X71697Y95472D01*
X71699Y95473D01*
X71701Y95476D01*
X71705Y95479D01*
X71711Y95483D01*
X71718Y95487D01*
X71726Y95491D01*
X71736Y95493D01*
X71747Y95494D01*
X71751D01*
X71757Y95493D01*
D02*
G37*
G36*
X69071Y95518D02*
X69077Y95516D01*
X69092Y95512D01*
X69100Y95506D01*
X69109Y95501D01*
X69110Y95499D01*
X69113Y95498D01*
X69116Y95494D01*
X69120Y95488D01*
X69128Y95475D01*
X69130Y95465D01*
X69131Y95455D01*
Y94246D01*
Y94244D01*
Y94243D01*
X69130Y94239D01*
X69128Y94233D01*
X69124Y94219D01*
X69119Y94210D01*
X69113Y94200D01*
X69112Y94199D01*
X69109Y94197D01*
X69103Y94194D01*
X69096Y94192D01*
X69088Y94188D01*
X69080Y94185D01*
X69069Y94183D01*
X69057Y94182D01*
X69024Y94190D01*
X68999Y94218D01*
X68572Y95139D01*
Y94246D01*
Y94244D01*
Y94242D01*
X68571Y94236D01*
X68569Y94229D01*
X68565Y94214D01*
X68560Y94207D01*
X68554Y94200D01*
X68553Y94199D01*
X68550Y94197D01*
X68546Y94194D01*
X68540Y94192D01*
X68532Y94188D01*
X68524Y94185D01*
X68514Y94183D01*
X68503Y94182D01*
X68500D01*
X68497Y94183D01*
X68492D01*
X68485Y94186D01*
X68476Y94189D01*
X68467Y94192D01*
X68456Y94197D01*
X68454Y94199D01*
X68453Y94200D01*
X68449Y94204D01*
X68445Y94210D01*
X68440Y94217D01*
X68438Y94225D01*
X68435Y94235D01*
X68433Y94246D01*
Y95455D01*
Y95456D01*
Y95458D01*
X68435Y95462D01*
X68436Y95468D01*
X68442Y95481D01*
X68446Y95488D01*
X68453Y95497D01*
X68454Y95498D01*
X68457Y95501D01*
X68461Y95504D01*
X68467Y95508D01*
X68474Y95512D01*
X68482Y95516D01*
X68492Y95518D01*
X68503Y95519D01*
X68506D01*
X68514Y95518D01*
X68525Y95516D01*
X68537Y95511D01*
X68539D01*
X68540Y95509D01*
X68547Y95504D01*
X68557Y95494D01*
X68565Y95480D01*
X68991Y94561D01*
Y95455D01*
Y95456D01*
Y95458D01*
X68992Y95462D01*
X68994Y95468D01*
X68999Y95481D01*
X69003Y95488D01*
X69010Y95497D01*
X69012Y95498D01*
X69015Y95501D01*
X69019Y95504D01*
X69024Y95508D01*
X69033Y95512D01*
X69041Y95516D01*
X69051Y95518D01*
X69062Y95519D01*
X69066D01*
X69071Y95518D01*
D02*
G37*
G36*
X69731D02*
X69743Y95516D01*
X69755Y95515D01*
X69769Y95512D01*
X69786Y95508D01*
X69819Y95498D01*
X69837Y95491D01*
X69855Y95481D01*
X69873Y95472D01*
X69891Y95461D01*
X69909Y95447D01*
X69926Y95432D01*
X69927Y95430D01*
X69930Y95427D01*
X69934Y95423D01*
X69940Y95416D01*
X69946Y95408D01*
X69953Y95397D01*
X69962Y95386D01*
X69970Y95373D01*
X69978Y95358D01*
X69987Y95341D01*
X70001Y95307D01*
X70006Y95287D01*
X70010Y95266D01*
X70013Y95244D01*
X70014Y95222D01*
Y94479D01*
Y94477D01*
Y94473D01*
Y94466D01*
X70013Y94458D01*
X70012Y94448D01*
X70010Y94436D01*
X70007Y94422D01*
X70003Y94407D01*
X69992Y94373D01*
X69985Y94357D01*
X69977Y94339D01*
X69967Y94321D01*
X69955Y94304D01*
X69941Y94286D01*
X69926Y94269D01*
X69924Y94268D01*
X69922Y94265D01*
X69917Y94261D01*
X69910Y94255D01*
X69902Y94249D01*
X69891Y94242D01*
X69880Y94233D01*
X69866Y94226D01*
X69851Y94218D01*
X69836Y94210D01*
X69798Y94196D01*
X69777Y94190D01*
X69756Y94186D01*
X69734Y94183D01*
X69711Y94182D01*
X69383D01*
X69375Y94183D01*
X69364Y94185D01*
X69352Y94190D01*
X69339Y94197D01*
X69328Y94208D01*
X69320Y94225D01*
X69318Y94235D01*
X69317Y94246D01*
Y95455D01*
Y95456D01*
Y95458D01*
X69318Y95465D01*
X69321Y95476D01*
X69325Y95487D01*
X69333Y95498D01*
X69346Y95509D01*
X69354Y95513D01*
X69364Y95516D01*
X69374Y95519D01*
X69723D01*
X69731Y95518D01*
D02*
G37*
G36*
X68187D02*
X68193Y95516D01*
X68200Y95513D01*
X68209Y95511D01*
X68217Y95505D01*
X68225Y95498D01*
X68227Y95497D01*
X68228Y95494D01*
X68232Y95490D01*
X68236Y95486D01*
X68243Y95472D01*
X68245Y95463D01*
X68246Y95455D01*
Y95454D01*
Y95451D01*
X68245Y95447D01*
X68243Y95441D01*
X68239Y95426D01*
X68234Y95419D01*
X68228Y95411D01*
X68227Y95409D01*
X68225Y95408D01*
X68221Y95404D01*
X68216Y95401D01*
X68209Y95397D01*
X68199Y95393D01*
X68189Y95391D01*
X68177Y95390D01*
X67848D01*
X67840Y95389D01*
X67827Y95387D01*
X67812Y95384D01*
X67794Y95377D01*
X67776Y95369D01*
X67757Y95358D01*
X67737Y95341D01*
X67736Y95339D01*
X67730Y95333D01*
X67722Y95322D01*
X67714Y95308D01*
X67704Y95291D01*
X67697Y95271D01*
X67691Y95247D01*
X67689Y95222D01*
Y94479D01*
Y94477D01*
Y94476D01*
X67690Y94468D01*
X67691Y94454D01*
X67696Y94439D01*
X67701Y94419D01*
X67709Y94400D01*
X67722Y94379D01*
X67739Y94359D01*
X67741Y94358D01*
X67748Y94353D01*
X67758Y94344D01*
X67772Y94336D01*
X67789Y94326D01*
X67808Y94319D01*
X67829Y94314D01*
X67851Y94311D01*
X68108D01*
Y94831D01*
X67987D01*
X67981Y94832D01*
X67973Y94834D01*
X67955Y94839D01*
X67947Y94843D01*
X67938Y94850D01*
Y94852D01*
X67936Y94855D01*
X67933Y94859D01*
X67930Y94864D01*
X67924Y94878D01*
X67923Y94886D01*
X67922Y94896D01*
Y94899D01*
X67924Y94906D01*
X67929Y94918D01*
X67933Y94927D01*
X67938Y94935D01*
X67940Y94936D01*
X67941Y94939D01*
X67945Y94943D01*
X67951Y94949D01*
X67959Y94953D01*
X67969Y94957D01*
X67980Y94960D01*
X67992Y94961D01*
X68180D01*
X68188Y94960D01*
X68199Y94959D01*
X68212Y94953D01*
X68224Y94946D01*
X68235Y94934D01*
X68243Y94918D01*
X68245Y94907D01*
X68246Y94896D01*
Y94246D01*
Y94243D01*
X68245Y94236D01*
X68242Y94225D01*
X68238Y94214D01*
X68230Y94203D01*
X68217Y94192D01*
X68209Y94188D01*
X68200Y94185D01*
X68189Y94183D01*
X68177Y94182D01*
X67840D01*
X67832Y94183D01*
X67822Y94185D01*
X67809Y94186D01*
X67795Y94189D01*
X67782Y94193D01*
X67748Y94203D01*
X67732Y94210D01*
X67714Y94218D01*
X67696Y94228D01*
X67678Y94240D01*
X67660Y94253D01*
X67642Y94268D01*
X67640Y94269D01*
X67637Y94272D01*
X67633Y94276D01*
X67628Y94283D01*
X67621Y94292D01*
X67612Y94301D01*
X67604Y94314D01*
X67596Y94326D01*
X67587Y94341D01*
X67579Y94357D01*
X67564Y94393D01*
X67558Y94414D01*
X67554Y94434D01*
X67551Y94455D01*
X67550Y94479D01*
Y95222D01*
Y95223D01*
Y95228D01*
Y95233D01*
X67551Y95242D01*
X67553Y95253D01*
X67554Y95264D01*
X67557Y95278D01*
X67561Y95293D01*
X67571Y95325D01*
X67578Y95341D01*
X67586Y95359D01*
X67596Y95377D01*
X67608Y95394D01*
X67621Y95412D01*
X67636Y95429D01*
X67637Y95430D01*
X67640Y95433D01*
X67644Y95437D01*
X67651Y95443D01*
X67660Y95450D01*
X67671Y95458D01*
X67682Y95465D01*
X67696Y95475D01*
X67711Y95483D01*
X67728Y95490D01*
X67764Y95505D01*
X67784Y95511D01*
X67805Y95515D01*
X67827Y95518D01*
X67851Y95519D01*
X68181D01*
X68187Y95518D01*
D02*
G37*
%LPC*%
G36*
X77188Y99018D02*
X77123D01*
D01*
X77188D01*
D02*
G37*
G36*
X77123D02*
X77119D01*
X77108Y99017D01*
X77098Y99016D01*
X77090Y99012D01*
X77083Y99007D01*
X77077Y99003D01*
X77073Y99000D01*
X77070Y98998D01*
X77069Y98996D01*
X77062Y98988D01*
X77058Y98981D01*
X77052Y98967D01*
X77051Y98962D01*
X77049Y98957D01*
D01*
Y97682D01*
Y97745D01*
X77051Y97734D01*
X77054Y97725D01*
X77056Y97716D01*
X77061Y97709D01*
X77065Y97704D01*
X77069Y97700D01*
X77070Y97698D01*
X77072Y97697D01*
X77083Y97691D01*
X77092Y97688D01*
X77101Y97686D01*
X77108Y97683D01*
X77113D01*
X77116Y97682D01*
X77188D01*
Y98955D01*
X77187Y98964D01*
X77185Y98974D01*
X77177Y98988D01*
X77173Y98993D01*
X77170Y98998D01*
X77167Y98999D01*
X77166Y99000D01*
X77158Y99006D01*
X77149Y99012D01*
X77134Y99016D01*
X77128Y99017D01*
X77123Y99018D01*
D02*
G37*
G36*
X74075D02*
Y98722D01*
X74073Y98752D01*
X74068Y98783D01*
X74054Y98834D01*
X74044Y98855D01*
X74034Y98873D01*
X74023Y98889D01*
X74012Y98903D01*
X74003Y98914D01*
X73994Y98924D01*
X73989Y98930D01*
X73987Y98931D01*
X73971Y98946D01*
X73953Y98960D01*
X73933Y98971D01*
X73915Y98981D01*
X73897Y98991D01*
X73879Y98998D01*
X73846Y99007D01*
X73829Y99012D01*
X73815Y99014D01*
X73803Y99016D01*
X73792Y99017D01*
X73783Y99018D01*
X73434D01*
X73424Y99016D01*
X73415Y99013D01*
X73406Y99009D01*
X73394Y98998D01*
X73385Y98987D01*
X73381Y98974D01*
X73378Y98963D01*
X73377Y98956D01*
Y97747D01*
X73378Y97736D01*
X73381Y97726D01*
X73384Y97718D01*
X73388Y97709D01*
X73392Y97704D01*
X73396Y97700D01*
X73398Y97698D01*
X73399Y97697D01*
X73410Y97693D01*
X73420Y97688D01*
X73428Y97686D01*
X73435Y97684D01*
X73441D01*
X73444Y97683D01*
X73377D01*
X74075D01*
Y98464D01*
Y97683D01*
X73446D01*
X73458Y97684D01*
X73467Y97686D01*
X73476Y97688D01*
X73484Y97691D01*
X73489Y97694D01*
X73494Y97697D01*
X73496Y97700D01*
X73498D01*
X73503Y97707D01*
X73509Y97715D01*
X73513Y97730D01*
X73514Y97737D01*
X73516Y97743D01*
Y97745D01*
Y97747D01*
Y98239D01*
X73771D01*
X73795Y98240D01*
X73817Y98243D01*
X73839Y98247D01*
X73860Y98253D01*
X73896Y98267D01*
X73912Y98275D01*
X73928Y98283D01*
X73942Y98290D01*
X73953Y98299D01*
X73964Y98306D01*
X73972Y98313D01*
X73979Y98318D01*
X73983Y98322D01*
X73986Y98325D01*
X73987Y98326D01*
X74003Y98343D01*
X74016Y98361D01*
X74028Y98378D01*
X74037Y98396D01*
X74047Y98414D01*
X74054Y98430D01*
X74064Y98464D01*
X74068Y98478D01*
X74071Y98491D01*
X74072Y98504D01*
X74073Y98514D01*
X74075Y98523D01*
Y99018D01*
D02*
G37*
G36*
X78008D02*
X78004D01*
X77992Y99017D01*
X77983Y99016D01*
X77974Y99012D01*
X77966Y99007D01*
X77961Y99003D01*
X77956Y99000D01*
X77954Y98998D01*
X77952Y98996D01*
X77945Y98988D01*
X77941Y98981D01*
X77936Y98967D01*
X77934Y98962D01*
X77933Y98957D01*
Y98956D01*
Y98955D01*
Y98060D01*
X77507Y98980D01*
X77499Y98993D01*
X77489Y99003D01*
X77482Y99009D01*
X77481Y99010D01*
X77479D01*
X77467Y99016D01*
X77456Y99017D01*
X77447Y99018D01*
X77445D01*
X77434Y99017D01*
X77424Y99016D01*
X77416Y99012D01*
X77409Y99007D01*
X77403Y99003D01*
X77399Y99000D01*
X77396Y98998D01*
X77395Y98996D01*
X77388Y98988D01*
X77384Y98981D01*
X77378Y98967D01*
X77377Y98962D01*
X77375Y98957D01*
Y97682D01*
Y97745D01*
X77377Y97734D01*
X77380Y97725D01*
X77382Y97716D01*
X77386Y97709D01*
X77391Y97704D01*
X77395Y97700D01*
X77396Y97698D01*
X77398Y97697D01*
X77409Y97691D01*
X77418Y97688D01*
X77427Y97686D01*
X77434Y97683D01*
X77439D01*
X77442Y97682D01*
X77375D01*
X78073D01*
Y98955D01*
X78072Y98964D01*
X78070Y98974D01*
X78062Y98988D01*
X78058Y98993D01*
X78055Y98998D01*
X78052Y98999D01*
X78051Y99000D01*
X78042Y99006D01*
X78034Y99012D01*
X78019Y99016D01*
X78013Y99017D01*
X78008Y99018D01*
D02*
G37*
G36*
X75355D02*
X75339D01*
X75331Y99016D01*
X75317Y99012D01*
X75312Y99009D01*
X75309Y99006D01*
X75306Y99005D01*
X75305Y99003D01*
X75298Y98998D01*
X75292Y98992D01*
X75285Y98980D01*
X75284Y98974D01*
X75283Y98970D01*
X75281Y98967D01*
Y98966D01*
X75101Y98025D01*
X74905Y98611D01*
X74894Y98629D01*
X74883Y98641D01*
X74872Y98651D01*
X74862Y98656D01*
X74853Y98661D01*
X74846Y98662D01*
X74842Y98663D01*
X74840D01*
X74824Y98661D01*
X74810Y98655D01*
X74799Y98647D01*
X74789Y98637D01*
X74782Y98626D01*
X74778Y98618D01*
X74775Y98612D01*
X74774Y98609D01*
X74579Y98025D01*
X74398Y98966D01*
X74391Y98984D01*
X74381Y98996D01*
X74370Y99006D01*
X74358Y99012D01*
X74346Y99016D01*
X74337Y99017D01*
X74331Y99018D01*
X74328D01*
X74317Y99017D01*
X74309Y99016D01*
X74292Y99007D01*
X74287Y99003D01*
X74283Y99000D01*
X74280Y98998D01*
X74279Y98996D01*
X74272Y98988D01*
X74267Y98981D01*
X74262Y98969D01*
X74260Y98963D01*
X74259Y98959D01*
Y97682D01*
Y98956D01*
X74260Y98944D01*
X74493Y97740D01*
X74516Y97700D01*
X74527Y97694D01*
X74536Y97690D01*
X74545Y97686D01*
X74552Y97684D01*
X74556Y97683D01*
X74559Y97682D01*
X75420D01*
D01*
X75122D01*
X75141Y97686D01*
X75155Y97693D01*
X75161Y97695D01*
X75165Y97698D01*
X75166Y97701D01*
X75167D01*
X75177Y97715D01*
X75184Y97727D01*
X75186Y97733D01*
X75187Y97737D01*
X75188Y97740D01*
Y97741D01*
X75420Y98944D01*
Y98955D01*
X75419Y98966D01*
X75417Y98975D01*
X75413Y98982D01*
X75410Y98989D01*
X75406Y98995D01*
X75402Y98999D01*
X75400Y99000D01*
X75399Y99002D01*
X75391Y99007D01*
X75384Y99012D01*
X75367Y99017D01*
X75360D01*
X75355Y99018D01*
D02*
G37*
G36*
X76015D02*
X75665D01*
X75656Y99016D01*
X75646Y99013D01*
X75638Y99009D01*
X75625Y98998D01*
X75617Y98987D01*
X75613Y98975D01*
X75610Y98964D01*
X75609Y98957D01*
Y97682D01*
Y97745D01*
X75610Y97734D01*
X75613Y97725D01*
X75615Y97716D01*
X75620Y97709D01*
X75624Y97704D01*
X75628Y97700D01*
X75629Y97698D01*
X75631Y97697D01*
X75642Y97691D01*
X75651Y97688D01*
X75660Y97686D01*
X75667Y97683D01*
X75672D01*
X75675Y97682D01*
X75609D01*
X76234D01*
X76245Y97683D01*
X76255Y97684D01*
X76270Y97691D01*
X76277Y97694D01*
X76281Y97697D01*
X76284Y97698D01*
X76285Y97700D01*
X76292Y97708D01*
X76298Y97716D01*
X76301Y97723D01*
X76303Y97730D01*
X76305Y97736D01*
X76306Y97740D01*
Y97684D01*
Y97744D01*
X76305Y97758D01*
X76302Y97768D01*
X76299Y97774D01*
X76298Y97777D01*
X76027Y98239D01*
X76002D01*
X76026Y98240D01*
X76048Y98243D01*
X76069Y98247D01*
X76090Y98253D01*
X76127Y98267D01*
X76142Y98275D01*
X76158Y98283D01*
X76172Y98290D01*
X76183Y98299D01*
X76194Y98306D01*
X76202Y98313D01*
X76209Y98318D01*
X76213Y98322D01*
X76216Y98325D01*
X76217Y98326D01*
X76233Y98343D01*
X76246Y98361D01*
X76259Y98379D01*
X76269Y98397D01*
X76277Y98414D01*
X76284Y98432D01*
X76295Y98465D01*
X76299Y98479D01*
X76302Y98493D01*
X76303Y98505D01*
X76305Y98515D01*
X76306Y98525D01*
Y97745D01*
Y98525D01*
Y98722D01*
X76305Y98744D01*
X76302Y98766D01*
X76298Y98787D01*
X76292Y98806D01*
X76278Y98841D01*
X76270Y98858D01*
X76262Y98873D01*
X76253Y98885D01*
X76245Y98896D01*
X76238Y98908D01*
X76231Y98916D01*
X76226Y98923D01*
X76221Y98927D01*
X76219Y98930D01*
X76217Y98931D01*
X76201Y98946D01*
X76183Y98960D01*
X76165Y98971D01*
X76147Y98981D01*
X76129Y98991D01*
X76111Y98998D01*
X76077Y99007D01*
X76061Y99012D01*
X76047Y99014D01*
X76034Y99016D01*
X76023Y99017D01*
X76015Y99018D01*
D02*
G37*
%LPD*%
G36*
X77188Y97682D02*
X77119D01*
X77130Y97683D01*
X77140Y97684D01*
X77148Y97687D01*
X77156Y97691D01*
X77162Y97694D01*
X77166Y97697D01*
X77169Y97698D01*
X77170Y97700D01*
X77176Y97707D01*
X77181Y97713D01*
X77185Y97729D01*
X77187Y97736D01*
X77188Y97741D01*
Y97682D01*
D02*
G37*
G36*
X73795Y98887D02*
X73817Y98881D01*
X73836Y98873D01*
X73854Y98865D01*
X73867Y98855D01*
X73878Y98848D01*
X73883Y98842D01*
X73886Y98840D01*
X73903Y98820D01*
X73914Y98801D01*
X73922Y98781D01*
X73929Y98762D01*
X73932Y98747D01*
X73933Y98733D01*
X73935Y98724D01*
Y98723D01*
Y98722D01*
Y98534D01*
X73932Y98509D01*
X73926Y98486D01*
X73919Y98466D01*
X73910Y98448D01*
X73900Y98435D01*
X73893Y98425D01*
X73887Y98419D01*
X73885Y98417D01*
X73865Y98401D01*
X73846Y98389D01*
X73828Y98381D01*
X73810Y98375D01*
X73795Y98372D01*
X73782Y98371D01*
X73774Y98369D01*
X73516D01*
Y98888D01*
X73771D01*
X73795Y98887D01*
D02*
G37*
G36*
X78073Y97682D02*
X77999D01*
X78011Y97683D01*
X78022Y97684D01*
X78030Y97687D01*
X78038Y97691D01*
X78045Y97694D01*
X78051Y97697D01*
X78053Y97698D01*
X78055Y97700D01*
X78060Y97709D01*
X78066Y97719D01*
X78070Y97733D01*
X78072Y97738D01*
X78073Y97743D01*
Y97682D01*
D02*
G37*
G36*
X77941Y97718D02*
X77966Y97690D01*
X77999Y97682D01*
X77445D01*
X77456Y97683D01*
X77465Y97684D01*
X77474Y97687D01*
X77482Y97691D01*
X77488Y97694D01*
X77492Y97697D01*
X77495Y97698D01*
X77496Y97700D01*
X77502Y97707D01*
X77507Y97713D01*
X77511Y97729D01*
X77513Y97736D01*
X77514Y97741D01*
Y97744D01*
Y97745D01*
Y98638D01*
X77941Y97718D01*
D02*
G37*
G36*
X75052Y97733D02*
X75061Y97716D01*
X75072Y97704D01*
X75083Y97694D01*
X75094Y97688D01*
X75105Y97684D01*
X75113Y97683D01*
X75119Y97682D01*
X74561D01*
X74578Y97684D01*
X74592Y97690D01*
X74604Y97698D01*
X74613Y97708D01*
X74620Y97716D01*
X74624Y97725D01*
X74627Y97730D01*
X74628Y97733D01*
X74840Y98371D01*
X75052Y97733D01*
D02*
G37*
G36*
X76026Y98887D02*
X76048Y98881D01*
X76068Y98874D01*
X76086Y98865D01*
X76098Y98855D01*
X76109Y98848D01*
X76115Y98842D01*
X76117Y98840D01*
X76134Y98820D01*
X76145Y98801D01*
X76154Y98781D01*
X76160Y98762D01*
X76163Y98747D01*
X76165Y98733D01*
X76166Y98724D01*
Y98723D01*
Y98722D01*
Y98536D01*
X76163Y98509D01*
X76158Y98487D01*
X76151Y98466D01*
X76141Y98450D01*
X76131Y98436D01*
X76124Y98425D01*
X76119Y98419D01*
X76116Y98417D01*
X76097Y98401D01*
X76077Y98389D01*
X76059Y98381D01*
X76041Y98375D01*
X76026Y98372D01*
X76013Y98371D01*
X76005Y98369D01*
X75747D01*
Y98889D01*
X76002D01*
X76026Y98887D01*
D02*
G37*
G36*
X76174Y97715D02*
X76183Y97705D01*
X76191Y97697D01*
X76197Y97691D01*
X76199Y97690D01*
X76212Y97686D01*
X76223Y97683D01*
X76231Y97682D01*
X75678D01*
X75689Y97683D01*
X75699Y97684D01*
X75707Y97687D01*
X75715Y97691D01*
X75721Y97694D01*
X75725Y97697D01*
X75728Y97698D01*
X75729Y97700D01*
X75735Y97707D01*
X75740Y97713D01*
X75744Y97729D01*
X75746Y97736D01*
X75747Y97741D01*
Y97744D01*
Y97745D01*
Y98239D01*
X75869D01*
X76174Y97715D01*
D02*
G37*
%LPC*%
G36*
X62258Y53156D02*
X62255D01*
X62248Y53155D01*
X62238Y53153D01*
X62225Y53149D01*
X62211Y53144D01*
X62194Y53134D01*
X62177Y53120D01*
X62162Y53102D01*
X62161Y53099D01*
X62157Y53092D01*
X62150Y53080D01*
X62143Y53062D01*
X62136Y53039D01*
X62129Y53012D01*
X62125Y52978D01*
X62123Y52941D01*
Y52940D01*
Y52935D01*
Y52930D01*
X62125Y52922D01*
Y52912D01*
X62126Y52901D01*
X62129Y52874D01*
X62134Y52845D01*
X62141Y52815D01*
X62152Y52787D01*
X62166Y52761D01*
X62168Y52758D01*
X62175Y52751D01*
X62183Y52741D01*
X62195Y52730D01*
X62211Y52718D01*
X62227Y52708D01*
X62247Y52701D01*
X62256Y52700D01*
X62268Y52698D01*
X62270D01*
X62277Y52700D01*
X62287Y52701D01*
X62299Y52705D01*
X62315Y52711D01*
X62330Y52721D01*
X62345Y52733D01*
X62359Y52750D01*
X62360Y52752D01*
X62365Y52759D01*
X62372Y52772D01*
X62374Y52780D01*
X62378Y52790D01*
X62381Y52801D01*
X62384Y52813D01*
X62388Y52827D01*
X62391Y52844D01*
X62394Y52861D01*
X62395Y52879D01*
X62396Y52898D01*
Y52920D01*
Y52922D01*
Y52926D01*
Y52931D01*
Y52940D01*
X62395Y52951D01*
Y52962D01*
X62391Y52988D01*
X62387Y53017D01*
X62380Y53048D01*
X62370Y53076D01*
X62363Y53088D01*
X62356Y53099D01*
X62355Y53102D01*
X62349Y53107D01*
X62341Y53117D01*
X62330Y53128D01*
X62315Y53138D01*
X62298Y53148D01*
X62279Y53153D01*
X62258Y53156D01*
D02*
G37*
G36*
X55043Y53062D02*
X54817D01*
Y52733D01*
X55064D01*
X55082Y52734D01*
X55102Y52736D01*
X55123Y52737D01*
X55141Y52740D01*
X55157Y52744D01*
X55159D01*
X55164Y52747D01*
X55171Y52750D01*
X55179Y52755D01*
X55190Y52762D01*
X55202Y52770D01*
X55213Y52783D01*
X55224Y52797D01*
X55225Y52798D01*
X55228Y52804D01*
X55233Y52813D01*
X55239Y52825D01*
X55243Y52838D01*
X55249Y52855D01*
X55251Y52874D01*
X55253Y52894D01*
Y52895D01*
Y52901D01*
X55251Y52909D01*
X55250Y52920D01*
X55246Y52933D01*
X55242Y52947D01*
X55235Y52962D01*
X55227Y52978D01*
X55215Y52994D01*
X55202Y53009D01*
X55185Y53023D01*
X55164Y53035D01*
X55141Y53046D01*
X55113Y53055D01*
X55081Y53060D01*
X55043Y53062D01*
D02*
G37*
G36*
X64229Y53578D02*
X64226D01*
X64219Y53576D01*
X64208Y53573D01*
X64195Y53568D01*
X64180Y53558D01*
X64165Y53544D01*
X64156Y53536D01*
X64149Y53526D01*
X64143Y53514D01*
X64136Y53500D01*
Y53499D01*
X64134Y53496D01*
X64133Y53492D01*
X64130Y53483D01*
X64127Y53474D01*
X64124Y53461D01*
X64122Y53444D01*
X64119Y53426D01*
X64116Y53404D01*
X64113Y53378D01*
X64111Y53349D01*
X64108Y53314D01*
X64105Y53277D01*
X64104Y53235D01*
X64102Y53188D01*
Y53137D01*
Y53135D01*
Y53134D01*
Y53130D01*
Y53124D01*
Y53110D01*
Y53091D01*
X64104Y53069D01*
Y53042D01*
X64105Y53015D01*
X64106Y52984D01*
X64111Y52923D01*
X64113Y52892D01*
X64116Y52863D01*
X64120Y52837D01*
X64124Y52812D01*
X64130Y52791D01*
X64136Y52775D01*
Y52773D01*
X64137Y52772D01*
X64143Y52762D01*
X64149Y52751D01*
X64161Y52737D01*
X64173Y52722D01*
X64190Y52711D01*
X64208Y52701D01*
X64217Y52700D01*
X64229Y52698D01*
X64231D01*
X64238Y52700D01*
X64249Y52702D01*
X64262Y52708D01*
X64277Y52716D01*
X64292Y52730D01*
X64301Y52740D01*
X64308Y52750D01*
X64314Y52761D01*
X64321Y52775D01*
Y52776D01*
X64323Y52779D01*
X64324Y52783D01*
X64327Y52791D01*
X64330Y52801D01*
X64333Y52813D01*
X64335Y52830D01*
X64339Y52848D01*
X64342Y52870D01*
X64345Y52897D01*
X64348Y52926D01*
X64351Y52959D01*
X64353Y52996D01*
X64355Y53039D01*
X64356Y53085D01*
Y53137D01*
Y53138D01*
Y53139D01*
Y53144D01*
Y53149D01*
Y53163D01*
Y53182D01*
X64355Y53206D01*
Y53231D01*
X64353Y53260D01*
X64352Y53289D01*
X64348Y53352D01*
X64345Y53382D01*
X64341Y53411D01*
X64338Y53438D01*
X64333Y53462D01*
X64327Y53483D01*
X64321Y53500D01*
Y53501D01*
X64320Y53503D01*
X64314Y53512D01*
X64308Y53525D01*
X64296Y53539D01*
X64284Y53553D01*
X64267Y53565D01*
X64249Y53575D01*
X64240Y53576D01*
X64229Y53578D01*
D02*
G37*
G36*
X63431D02*
X63428D01*
X63421Y53576D01*
X63410Y53573D01*
X63398Y53568D01*
X63383Y53558D01*
X63367Y53544D01*
X63359Y53536D01*
X63352Y53526D01*
X63345Y53514D01*
X63338Y53500D01*
Y53499D01*
X63337Y53496D01*
X63335Y53492D01*
X63333Y53483D01*
X63330Y53474D01*
X63327Y53461D01*
X63324Y53444D01*
X63322Y53426D01*
X63319Y53404D01*
X63316Y53378D01*
X63313Y53349D01*
X63310Y53314D01*
X63308Y53277D01*
X63306Y53235D01*
X63305Y53188D01*
Y53137D01*
Y53135D01*
Y53134D01*
Y53130D01*
Y53124D01*
Y53110D01*
Y53091D01*
X63306Y53069D01*
Y53042D01*
X63308Y53015D01*
X63309Y52984D01*
X63313Y52923D01*
X63316Y52892D01*
X63319Y52863D01*
X63323Y52837D01*
X63327Y52812D01*
X63333Y52791D01*
X63338Y52775D01*
Y52773D01*
X63340Y52772D01*
X63345Y52762D01*
X63352Y52751D01*
X63363Y52737D01*
X63376Y52722D01*
X63392Y52711D01*
X63410Y52701D01*
X63420Y52700D01*
X63431Y52698D01*
X63434D01*
X63441Y52700D01*
X63452Y52702D01*
X63464Y52708D01*
X63480Y52716D01*
X63495Y52730D01*
X63503Y52740D01*
X63510Y52750D01*
X63517Y52761D01*
X63524Y52775D01*
Y52776D01*
X63525Y52779D01*
X63527Y52783D01*
X63530Y52791D01*
X63532Y52801D01*
X63535Y52813D01*
X63538Y52830D01*
X63542Y52848D01*
X63545Y52870D01*
X63548Y52897D01*
X63550Y52926D01*
X63553Y52959D01*
X63556Y52996D01*
X63557Y53039D01*
X63559Y53085D01*
Y53137D01*
Y53138D01*
Y53139D01*
Y53144D01*
Y53149D01*
Y53163D01*
Y53182D01*
X63557Y53206D01*
Y53231D01*
X63556Y53260D01*
X63555Y53289D01*
X63550Y53352D01*
X63548Y53382D01*
X63543Y53411D01*
X63541Y53438D01*
X63535Y53462D01*
X63530Y53483D01*
X63524Y53500D01*
Y53501D01*
X63523Y53503D01*
X63517Y53512D01*
X63510Y53525D01*
X63499Y53539D01*
X63487Y53553D01*
X63470Y53565D01*
X63452Y53575D01*
X63442Y53576D01*
X63431Y53578D01*
D02*
G37*
G36*
X61438D02*
X61435D01*
X61428Y53576D01*
X61417Y53573D01*
X61405Y53568D01*
X61390Y53558D01*
X61374Y53544D01*
X61366Y53536D01*
X61359Y53526D01*
X61352Y53514D01*
X61345Y53500D01*
Y53499D01*
X61344Y53496D01*
X61342Y53492D01*
X61340Y53483D01*
X61337Y53474D01*
X61334Y53461D01*
X61331Y53444D01*
X61329Y53426D01*
X61326Y53404D01*
X61323Y53378D01*
X61320Y53349D01*
X61318Y53314D01*
X61315Y53277D01*
X61313Y53235D01*
X61312Y53188D01*
Y53137D01*
Y53135D01*
Y53134D01*
Y53130D01*
Y53124D01*
Y53110D01*
Y53091D01*
X61313Y53069D01*
Y53042D01*
X61315Y53015D01*
X61316Y52984D01*
X61320Y52923D01*
X61323Y52892D01*
X61326Y52863D01*
X61330Y52837D01*
X61334Y52812D01*
X61340Y52791D01*
X61345Y52775D01*
Y52773D01*
X61347Y52772D01*
X61352Y52762D01*
X61359Y52751D01*
X61370Y52737D01*
X61383Y52722D01*
X61399Y52711D01*
X61417Y52701D01*
X61427Y52700D01*
X61438Y52698D01*
X61441D01*
X61448Y52700D01*
X61459Y52702D01*
X61471Y52708D01*
X61487Y52716D01*
X61502Y52730D01*
X61510Y52740D01*
X61517Y52750D01*
X61524Y52761D01*
X61531Y52775D01*
Y52776D01*
X61532Y52779D01*
X61534Y52783D01*
X61537Y52791D01*
X61539Y52801D01*
X61542Y52813D01*
X61545Y52830D01*
X61549Y52848D01*
X61552Y52870D01*
X61555Y52897D01*
X61557Y52926D01*
X61560Y52959D01*
X61563Y52996D01*
X61564Y53039D01*
X61566Y53085D01*
Y53137D01*
Y53138D01*
Y53139D01*
Y53144D01*
Y53149D01*
Y53163D01*
Y53182D01*
X61564Y53206D01*
Y53231D01*
X61563Y53260D01*
X61562Y53289D01*
X61557Y53352D01*
X61555Y53382D01*
X61551Y53411D01*
X61548Y53438D01*
X61542Y53462D01*
X61537Y53483D01*
X61531Y53500D01*
Y53501D01*
X61530Y53503D01*
X61524Y53512D01*
X61517Y53525D01*
X61506Y53539D01*
X61494Y53553D01*
X61477Y53565D01*
X61459Y53575D01*
X61449Y53576D01*
X61438Y53578D01*
D02*
G37*
G36*
X98018Y97793D02*
D01*
Y97730D01*
X98017Y97738D01*
X98016Y97746D01*
X98009Y97760D01*
X98005Y97764D01*
X98000Y97768D01*
X97999Y97771D01*
X97998Y97773D01*
X97989Y97780D01*
X97981Y97785D01*
X97973Y97788D01*
X97966Y97791D01*
X97959Y97792D01*
X97953Y97793D01*
X98018D01*
X97321D01*
D01*
X97390D01*
X97378Y97792D01*
X97367Y97789D01*
X97357Y97785D01*
X97349Y97781D01*
X97343Y97777D01*
X97339Y97773D01*
X97337Y97770D01*
X97336Y97768D01*
X97331Y97760D01*
X97328Y97752D01*
X97322Y97739D01*
X97321Y97732D01*
Y97730D01*
X97322Y97720D01*
X97324Y97712D01*
X97329Y97698D01*
X97332Y97692D01*
X97335Y97688D01*
X97337Y97685D01*
Y97684D01*
X97346Y97677D01*
X97354Y97673D01*
X97371Y97667D01*
X97379Y97666D01*
X97385Y97664D01*
X97600D01*
Y96520D01*
X97601Y96509D01*
X97604Y96500D01*
X97606Y96491D01*
X97611Y96484D01*
X97615Y96479D01*
X97619Y96475D01*
X97620Y96473D01*
X97622Y96472D01*
X97633Y96466D01*
X97643Y96463D01*
X97651Y96461D01*
X97658Y96458D01*
X97663D01*
X97666Y96457D01*
X97669D01*
X97680Y96458D01*
X97690Y96459D01*
X97698Y96462D01*
X97706Y96466D01*
X97712Y96469D01*
X97716Y96472D01*
X97719Y96473D01*
X97720Y96475D01*
X97726Y96482D01*
X97731Y96488D01*
X97735Y96504D01*
X97737Y96511D01*
X97738Y96516D01*
Y96519D01*
Y96520D01*
Y97664D01*
X97949D01*
X97962Y97666D01*
X97971Y97667D01*
X97981Y97671D01*
X97988Y97676D01*
X97993Y97678D01*
X97998Y97683D01*
X97999Y97684D01*
X98000Y97685D01*
X98006Y97694D01*
X98011Y97701D01*
X98016Y97716D01*
X98017Y97721D01*
X98018Y97726D01*
Y96457D01*
D01*
D01*
Y97793D01*
D02*
G37*
G36*
X97135D02*
D01*
Y97730D01*
X97134Y97739D01*
X97132Y97749D01*
X97124Y97763D01*
X97120Y97768D01*
X97117Y97773D01*
X97114Y97774D01*
X97113Y97775D01*
X97104Y97781D01*
X97096Y97787D01*
X97081Y97791D01*
X97075Y97792D01*
X97070Y97793D01*
X97135D01*
X97066D01*
X97055Y97792D01*
X97045Y97791D01*
X97036Y97787D01*
X97028Y97782D01*
X97023Y97778D01*
X97018Y97775D01*
X97016Y97773D01*
X97014Y97771D01*
X97007Y97763D01*
X97003Y97756D01*
X96998Y97742D01*
X96996Y97737D01*
X96995Y97732D01*
Y97731D01*
Y97730D01*
Y96753D01*
X96992Y96727D01*
X96987Y96703D01*
X96980Y96683D01*
X96970Y96666D01*
X96960Y96652D01*
X96953Y96641D01*
X96948Y96635D01*
X96945Y96633D01*
X96926Y96617D01*
X96906Y96605D01*
X96888Y96597D01*
X96870Y96591D01*
X96855Y96588D01*
X96842Y96587D01*
X96834Y96586D01*
X96738D01*
X96716Y96588D01*
X96695Y96594D01*
X96676Y96601D01*
X96659Y96610D01*
X96645Y96619D01*
X96636Y96627D01*
X96629Y96633D01*
X96626Y96634D01*
X96609Y96653D01*
X96597Y96674D01*
X96589Y96694D01*
X96583Y96713D01*
X96579Y96728D01*
X96577Y96742D01*
X96576Y96751D01*
Y96752D01*
Y96753D01*
Y97730D01*
X96575Y97739D01*
X96573Y97749D01*
X96565Y97763D01*
X96561Y97768D01*
X96558Y97773D01*
X96555Y97774D01*
X96554Y97775D01*
X96546Y97781D01*
X96537Y97787D01*
X96522Y97791D01*
X96516Y97792D01*
X96511Y97793D01*
X96507D01*
X96496Y97792D01*
X96486Y97791D01*
X96478Y97787D01*
X96471Y97782D01*
X96465Y97778D01*
X96461Y97775D01*
X96458Y97773D01*
X96457Y97771D01*
X96450Y97763D01*
X96446Y97756D01*
X96440Y97742D01*
X96439Y97737D01*
X96437Y97732D01*
Y96753D01*
X96439Y96730D01*
X96442Y96709D01*
X96446Y96688D01*
X96451Y96667D01*
X96467Y96631D01*
X96475Y96616D01*
X96483Y96601D01*
X96491Y96588D01*
X96500Y96576D01*
X96508Y96566D01*
X96515Y96558D01*
X96521Y96551D01*
X96525Y96547D01*
X96528Y96544D01*
X96529Y96543D01*
X96547Y96527D01*
X96565Y96515D01*
X96583Y96502D01*
X96601Y96493D01*
X96619Y96484D01*
X96636Y96477D01*
X96669Y96468D01*
X96683Y96463D01*
X96697Y96461D01*
X96709Y96459D01*
X96719Y96458D01*
X96727Y96457D01*
X96831D01*
X96855Y96458D01*
X96877Y96461D01*
X96898Y96465D01*
X96919Y96470D01*
X96956Y96484D01*
X96971Y96493D01*
X96987Y96501D01*
X97000Y96508D01*
X97012Y96516D01*
X97023Y96523D01*
X97031Y96530D01*
X97038Y96536D01*
X97042Y96540D01*
X97045Y96543D01*
X97046Y96544D01*
X97061Y96561D01*
X97075Y96579D01*
X97088Y96595D01*
X97098Y96613D01*
X97106Y96631D01*
X97113Y96648D01*
X97124Y96681D01*
X97128Y96696D01*
X97131Y96710D01*
X97132Y96723D01*
X97134Y96733D01*
X97135Y96741D01*
Y96457D01*
D01*
D01*
Y97793D01*
D02*
G37*
G36*
X93924D02*
D01*
Y97730D01*
X93923Y97741D01*
X93922Y97750D01*
X93918Y97757D01*
X93915Y97764D01*
X93911Y97770D01*
X93906Y97774D01*
X93905Y97775D01*
X93904Y97777D01*
X93895Y97782D01*
X93888Y97787D01*
X93872Y97792D01*
X93865D01*
X93859Y97793D01*
X93844D01*
X93836Y97791D01*
X93822Y97787D01*
X93816Y97784D01*
X93813Y97781D01*
X93811Y97780D01*
X93809Y97778D01*
X93802Y97773D01*
X93797Y97767D01*
X93790Y97755D01*
X93789Y97749D01*
X93787Y97745D01*
X93786Y97742D01*
Y97741D01*
X93605Y96800D01*
X93410Y97386D01*
X93399Y97404D01*
X93388Y97416D01*
X93377Y97426D01*
X93367Y97431D01*
X93357Y97436D01*
X93350Y97437D01*
X93346Y97438D01*
X93345D01*
X93328Y97436D01*
X93314Y97430D01*
X93303Y97422D01*
X93293Y97412D01*
X93286Y97401D01*
X93282Y97393D01*
X93280Y97387D01*
X93278Y97384D01*
X93084Y96800D01*
X92902Y97741D01*
X92895Y97759D01*
X92886Y97771D01*
X92875Y97781D01*
X92862Y97787D01*
X92851Y97791D01*
X92841Y97792D01*
X92836Y97793D01*
X92833D01*
X92822Y97792D01*
X92814Y97791D01*
X92797Y97782D01*
X92791Y97778D01*
X92787Y97775D01*
X92784Y97773D01*
X92783Y97771D01*
X92776Y97763D01*
X92772Y97756D01*
X92766Y97744D01*
X92765Y97738D01*
X92764Y97734D01*
Y97731D01*
X92765Y97719D01*
X92998Y96515D01*
X93020Y96475D01*
X93031Y96469D01*
X93041Y96465D01*
X93049Y96461D01*
X93056Y96459D01*
X93060Y96458D01*
X93063Y96457D01*
X92764D01*
X93924D01*
Y97793D01*
D02*
G37*
G36*
X96252D02*
D01*
Y97497D01*
X96250Y97519D01*
X96247Y97541D01*
X96243Y97562D01*
X96238Y97581D01*
X96224Y97616D01*
X96215Y97633D01*
X96207Y97648D01*
X96199Y97660D01*
X96191Y97671D01*
X96184Y97683D01*
X96177Y97691D01*
X96171Y97698D01*
X96167Y97702D01*
X96164Y97705D01*
X96163Y97706D01*
X96146Y97721D01*
X96128Y97735D01*
X96110Y97746D01*
X96092Y97756D01*
X96074Y97766D01*
X96056Y97773D01*
X96023Y97782D01*
X96006Y97787D01*
X95992Y97789D01*
X95980Y97791D01*
X95969Y97792D01*
X95960Y97793D01*
X95855D01*
X95831Y97792D01*
X95809Y97789D01*
X95788Y97785D01*
X95768Y97780D01*
X95731Y97764D01*
X95715Y97757D01*
X95700Y97749D01*
X95686Y97739D01*
X95675Y97732D01*
X95664Y97724D01*
X95655Y97717D01*
X95648Y97712D01*
X95644Y97707D01*
X95641Y97705D01*
X95640Y97703D01*
X95625Y97687D01*
X95612Y97669D01*
X95600Y97652D01*
X95590Y97634D01*
X95582Y97616D01*
X95575Y97599D01*
X95565Y97567D01*
X95561Y97552D01*
X95558Y97538D01*
X95557Y97527D01*
X95555Y97516D01*
X95554Y97508D01*
Y96753D01*
X95555Y96730D01*
X95558Y96709D01*
X95562Y96688D01*
X95568Y96667D01*
X95583Y96631D01*
X95591Y96616D01*
X95600Y96601D01*
X95608Y96588D01*
X95616Y96576D01*
X95625Y96566D01*
X95632Y96558D01*
X95637Y96551D01*
X95641Y96547D01*
X95644Y96544D01*
X95646Y96543D01*
X95664Y96527D01*
X95682Y96515D01*
X95700Y96502D01*
X95718Y96493D01*
X95736Y96484D01*
X95752Y96477D01*
X95786Y96468D01*
X95799Y96463D01*
X95813Y96461D01*
X95826Y96459D01*
X95836Y96458D01*
X95844Y96457D01*
X95948D01*
X95971Y96458D01*
X95994Y96461D01*
X96014Y96465D01*
X96035Y96470D01*
X96073Y96484D01*
X96088Y96493D01*
X96103Y96501D01*
X96117Y96508D01*
X96128Y96516D01*
X96139Y96523D01*
X96148Y96530D01*
X96154Y96536D01*
X96159Y96540D01*
X96161Y96543D01*
X96163Y96544D01*
X96178Y96561D01*
X96192Y96579D01*
X96204Y96595D01*
X96214Y96613D01*
X96222Y96631D01*
X96229Y96648D01*
X96240Y96681D01*
X96245Y96696D01*
X96247Y96710D01*
X96249Y96723D01*
X96250Y96733D01*
X96252Y96741D01*
Y96457D01*
D01*
D01*
Y97793D01*
D02*
G37*
G36*
X94811D02*
D01*
Y97497D01*
X94809Y97519D01*
X94806Y97541D01*
X94802Y97562D01*
X94797Y97581D01*
X94783Y97616D01*
X94775Y97633D01*
X94766Y97648D01*
X94758Y97660D01*
X94750Y97671D01*
X94743Y97683D01*
X94736Y97691D01*
X94730Y97698D01*
X94726Y97702D01*
X94723Y97705D01*
X94722Y97706D01*
X94705Y97721D01*
X94687Y97735D01*
X94669Y97746D01*
X94651Y97756D01*
X94633Y97766D01*
X94615Y97773D01*
X94582Y97782D01*
X94565Y97787D01*
X94551Y97789D01*
X94539Y97791D01*
X94528Y97792D01*
X94519Y97793D01*
X94170D01*
X94160Y97791D01*
X94150Y97788D01*
X94142Y97784D01*
X94130Y97773D01*
X94121Y97762D01*
X94117Y97750D01*
X94114Y97739D01*
X94113Y97732D01*
Y96520D01*
X94114Y96509D01*
X94117Y96500D01*
X94120Y96491D01*
X94124Y96484D01*
X94128Y96479D01*
X94132Y96475D01*
X94134Y96473D01*
X94135Y96472D01*
X94146Y96466D01*
X94156Y96463D01*
X94164Y96461D01*
X94171Y96458D01*
X94177D01*
X94180Y96457D01*
X94113D01*
X94739D01*
X94750Y96458D01*
X94759Y96459D01*
X94775Y96466D01*
X94782Y96469D01*
X94786Y96472D01*
X94788Y96473D01*
X94790Y96475D01*
X94797Y96483D01*
X94802Y96491D01*
X94805Y96498D01*
X94808Y96505D01*
X94809Y96511D01*
X94811Y96515D01*
Y96457D01*
D01*
Y97793D01*
D02*
G37*
G36*
X92579D02*
D01*
Y97497D01*
X92578Y97527D01*
X92572Y97558D01*
X92558Y97609D01*
X92549Y97630D01*
X92539Y97648D01*
X92528Y97664D01*
X92517Y97678D01*
X92507Y97689D01*
X92499Y97699D01*
X92493Y97705D01*
X92492Y97706D01*
X92475Y97721D01*
X92457Y97735D01*
X92438Y97746D01*
X92420Y97756D01*
X92402Y97766D01*
X92384Y97773D01*
X92350Y97782D01*
X92334Y97787D01*
X92320Y97789D01*
X92307Y97791D01*
X92296Y97792D01*
X92288Y97793D01*
X91938D01*
X91929Y97791D01*
X91919Y97788D01*
X91911Y97784D01*
X91898Y97773D01*
X91890Y97762D01*
X91886Y97749D01*
X91883Y97738D01*
X91882Y97731D01*
Y96458D01*
Y96522D01*
X91883Y96511D01*
X91886Y96501D01*
X91889Y96493D01*
X91893Y96484D01*
X91897Y96479D01*
X91901Y96475D01*
X91902Y96473D01*
X91904Y96472D01*
X91915Y96468D01*
X91925Y96463D01*
X91933Y96461D01*
X91940Y96459D01*
X91945D01*
X91948Y96458D01*
X91882D01*
X92579D01*
D01*
X91951D01*
X91962Y96459D01*
X91972Y96461D01*
X91980Y96463D01*
X91988Y96466D01*
X91994Y96469D01*
X91998Y96472D01*
X92001Y96475D01*
X92002D01*
X92008Y96482D01*
X92013Y96490D01*
X92018Y96505D01*
X92019Y96512D01*
X92020Y96518D01*
Y96520D01*
Y96522D01*
Y97014D01*
X92275D01*
X92299Y97015D01*
X92321Y97018D01*
X92343Y97022D01*
X92364Y97028D01*
X92400Y97042D01*
X92417Y97050D01*
X92432Y97058D01*
X92446Y97065D01*
X92457Y97074D01*
X92468Y97081D01*
X92477Y97088D01*
X92484Y97093D01*
X92488Y97097D01*
X92490Y97100D01*
X92492Y97101D01*
X92507Y97118D01*
X92521Y97136D01*
X92532Y97153D01*
X92542Y97171D01*
X92551Y97189D01*
X92558Y97205D01*
X92568Y97239D01*
X92572Y97253D01*
X92575Y97266D01*
X92576Y97279D01*
X92578Y97289D01*
X92579Y97298D01*
Y97793D01*
D02*
G37*
%LPD*%
G36*
X93924Y96457D02*
X93626D01*
X93646Y96461D01*
X93660Y96468D01*
X93665Y96470D01*
X93669Y96473D01*
X93671Y96476D01*
X93672D01*
X93682Y96490D01*
X93689Y96502D01*
X93690Y96508D01*
X93691Y96512D01*
X93693Y96515D01*
Y96516D01*
X93924Y97719D01*
Y96457D01*
D02*
G37*
G36*
X93557Y96508D02*
X93565Y96491D01*
X93576Y96479D01*
X93587Y96469D01*
X93599Y96463D01*
X93610Y96459D01*
X93618Y96458D01*
X93623Y96457D01*
X93066D01*
X93083Y96459D01*
X93096Y96465D01*
X93109Y96473D01*
X93117Y96483D01*
X93124Y96491D01*
X93128Y96500D01*
X93131Y96505D01*
X93133Y96508D01*
X93345Y97146D01*
X93557Y96508D01*
D02*
G37*
G36*
X95971Y97662D02*
X95994Y97656D01*
X96013Y97649D01*
X96031Y97640D01*
X96044Y97630D01*
X96055Y97623D01*
X96060Y97617D01*
X96063Y97615D01*
X96080Y97595D01*
X96091Y97576D01*
X96099Y97556D01*
X96106Y97537D01*
X96109Y97522D01*
X96110Y97508D01*
X96111Y97499D01*
Y97498D01*
Y97497D01*
Y96753D01*
X96109Y96727D01*
X96103Y96703D01*
X96096Y96683D01*
X96087Y96666D01*
X96077Y96652D01*
X96070Y96641D01*
X96064Y96635D01*
X96062Y96633D01*
X96042Y96617D01*
X96023Y96605D01*
X96005Y96597D01*
X95987Y96591D01*
X95971Y96588D01*
X95959Y96587D01*
X95951Y96586D01*
X95855D01*
X95833Y96588D01*
X95812Y96594D01*
X95793Y96601D01*
X95776Y96610D01*
X95762Y96619D01*
X95752Y96627D01*
X95745Y96633D01*
X95743Y96634D01*
X95726Y96653D01*
X95713Y96674D01*
X95705Y96694D01*
X95700Y96713D01*
X95695Y96728D01*
X95694Y96742D01*
X95693Y96751D01*
Y96752D01*
Y96753D01*
Y97497D01*
X95695Y97522D01*
X95701Y97545D01*
X95708Y97566D01*
X95718Y97583D01*
X95726Y97597D01*
X95734Y97608D01*
X95740Y97613D01*
X95741Y97616D01*
X95761Y97633D01*
X95780Y97644D01*
X95798Y97652D01*
X95816Y97659D01*
X95831Y97662D01*
X95844Y97663D01*
X95852Y97664D01*
X95948D01*
X95971Y97662D01*
D02*
G37*
G36*
X94530D02*
X94553Y97656D01*
X94572Y97649D01*
X94590Y97640D01*
X94603Y97630D01*
X94614Y97623D01*
X94619Y97617D01*
X94622Y97615D01*
X94639Y97595D01*
X94650Y97576D01*
X94658Y97556D01*
X94665Y97537D01*
X94668Y97522D01*
X94669Y97508D01*
X94671Y97499D01*
Y97498D01*
Y97497D01*
Y97311D01*
X94668Y97284D01*
X94662Y97262D01*
X94655Y97241D01*
X94646Y97225D01*
X94636Y97211D01*
X94629Y97200D01*
X94623Y97194D01*
X94621Y97192D01*
X94601Y97176D01*
X94582Y97164D01*
X94564Y97156D01*
X94546Y97150D01*
X94530Y97147D01*
X94518Y97146D01*
X94510Y97144D01*
X94252D01*
Y97664D01*
X94507D01*
X94530Y97662D01*
D02*
G37*
G36*
X94811Y96519D02*
X94809Y96533D01*
X94806Y96543D01*
X94804Y96549D01*
X94802Y96552D01*
X94532Y97014D01*
X94507D01*
X94530Y97015D01*
X94553Y97018D01*
X94573Y97022D01*
X94594Y97028D01*
X94632Y97042D01*
X94647Y97050D01*
X94662Y97058D01*
X94676Y97065D01*
X94687Y97074D01*
X94698Y97081D01*
X94707Y97088D01*
X94714Y97093D01*
X94718Y97097D01*
X94720Y97100D01*
X94722Y97101D01*
X94737Y97118D01*
X94751Y97136D01*
X94763Y97154D01*
X94773Y97172D01*
X94782Y97189D01*
X94788Y97207D01*
X94800Y97240D01*
X94804Y97254D01*
X94806Y97268D01*
X94808Y97280D01*
X94809Y97290D01*
X94811Y97300D01*
Y96519D01*
D02*
G37*
G36*
X94679Y96490D02*
X94687Y96480D01*
X94696Y96472D01*
X94701Y96466D01*
X94704Y96465D01*
X94716Y96461D01*
X94727Y96458D01*
X94736Y96457D01*
X94182D01*
X94193Y96458D01*
X94203Y96459D01*
X94212Y96462D01*
X94220Y96466D01*
X94225Y96469D01*
X94230Y96472D01*
X94232Y96473D01*
X94234Y96475D01*
X94239Y96482D01*
X94245Y96488D01*
X94249Y96504D01*
X94250Y96511D01*
X94252Y96516D01*
Y96519D01*
Y96520D01*
Y97014D01*
X94374D01*
X94679Y96490D01*
D02*
G37*
G36*
X92299Y97662D02*
X92321Y97656D01*
X92341Y97648D01*
X92359Y97640D01*
X92371Y97630D01*
X92382Y97623D01*
X92388Y97617D01*
X92391Y97615D01*
X92407Y97595D01*
X92418Y97576D01*
X92427Y97556D01*
X92434Y97537D01*
X92436Y97522D01*
X92438Y97508D01*
X92439Y97499D01*
Y97498D01*
Y97497D01*
Y97309D01*
X92436Y97284D01*
X92431Y97261D01*
X92424Y97241D01*
X92414Y97223D01*
X92404Y97210D01*
X92398Y97200D01*
X92392Y97194D01*
X92389Y97192D01*
X92370Y97176D01*
X92350Y97164D01*
X92332Y97156D01*
X92314Y97150D01*
X92299Y97147D01*
X92287Y97146D01*
X92278Y97144D01*
X92020D01*
Y97663D01*
X92275D01*
X92299Y97662D01*
D02*
G37*
%LPC*%
G36*
X123156Y84655D02*
X122452D01*
X122433Y84653D01*
X122416Y84649D01*
X122402Y84643D01*
X122389Y84636D01*
X122381Y84630D01*
X122375Y84624D01*
X122372Y84620D01*
X122370Y84618D01*
X122362Y84605D01*
X122356Y84593D01*
X122350Y84574D01*
X122345Y84561D01*
Y84557D01*
X122347Y84545D01*
X122350Y84532D01*
X122358Y84511D01*
X122362Y84503D01*
X122366Y84497D01*
X122370Y84493D01*
Y84491D01*
X122383Y84480D01*
X122395Y84472D01*
X122410Y84468D01*
X122422Y84463D01*
X122435Y84461D01*
X122443Y84459D01*
X123149D01*
X123168Y84461D01*
X123183Y84463D01*
X123197Y84470D01*
X123208Y84476D01*
X123216Y84480D01*
X123222Y84486D01*
X123224Y84488D01*
X123226Y84491D01*
X123235Y84503D01*
X123243Y84516D01*
X123249Y84536D01*
X123251Y84545D01*
X123253Y84551D01*
Y84557D01*
X123251Y84570D01*
X123249Y84582D01*
X123239Y84603D01*
X123233Y84611D01*
X123226Y84618D01*
X123224Y84622D01*
X123222Y84624D01*
X123210Y84634D01*
X123197Y84643D01*
X123185Y84647D01*
X123174Y84651D01*
X123164Y84653D01*
X123156Y84655D01*
D02*
G37*
G36*
Y84236D02*
X122452D01*
X122433Y84234D01*
X122416Y84230D01*
X122402Y84224D01*
X122389Y84218D01*
X122381Y84211D01*
X122375Y84205D01*
X122372Y84201D01*
X122370Y84199D01*
X122362Y84186D01*
X122356Y84174D01*
X122350Y84155D01*
X122345Y84143D01*
Y84139D01*
X122347Y84126D01*
X122350Y84114D01*
X122358Y84093D01*
X122362Y84084D01*
X122366Y84078D01*
X122370Y84074D01*
Y84072D01*
X122383Y84061D01*
X122395Y84053D01*
X122410Y84049D01*
X122422Y84045D01*
X122435Y84043D01*
X122443Y84041D01*
X122345D01*
D01*
X123149D01*
X123168Y84043D01*
X123183Y84045D01*
X123197Y84051D01*
X123208Y84057D01*
X123216Y84061D01*
X123222Y84068D01*
X123224Y84070D01*
X123226Y84072D01*
X123235Y84084D01*
X123243Y84097D01*
X123249Y84118D01*
X123251Y84126D01*
X123253Y84132D01*
Y84139D01*
X123251Y84151D01*
X123249Y84164D01*
X123239Y84184D01*
X123233Y84193D01*
X123226Y84199D01*
X123224Y84203D01*
X123222Y84205D01*
X123210Y84216D01*
X123197Y84224D01*
X123185Y84228D01*
X123174Y84232D01*
X123164Y84234D01*
X123156Y84236D01*
D02*
G37*
G36*
X120285Y85074D02*
X120279D01*
X120263Y85072D01*
X120248Y85070D01*
X120236Y85063D01*
X120225Y85057D01*
X120217Y85051D01*
X120211Y85047D01*
X120206Y85042D01*
X120204Y85040D01*
X120194Y85028D01*
X120188Y85015D01*
X120179Y84997D01*
X120177Y84988D01*
X120175Y84982D01*
Y84978D01*
Y84976D01*
Y83818D01*
X119790D01*
X119775Y83820D01*
X119761Y83822D01*
X119738Y83834D01*
X119729Y83839D01*
X119723Y83845D01*
X119719Y83847D01*
X119717Y83849D01*
X119706Y83862D01*
X119698Y83874D01*
X119694Y83889D01*
X119690Y83901D01*
X119688Y83914D01*
X119686Y83922D01*
Y83928D01*
Y83930D01*
Y84976D01*
X119684Y84992D01*
X119681Y85007D01*
X119675Y85017D01*
X119669Y85028D01*
X119663Y85036D01*
X119659Y85042D01*
X119654Y85045D01*
X119652Y85047D01*
X119640Y85055D01*
X119627Y85063D01*
X119604Y85070D01*
X119596Y85072D01*
X119588Y85074D01*
X119477D01*
X119582D01*
X119565Y85072D01*
X119550Y85070D01*
X119538Y85063D01*
X119527Y85057D01*
X119519Y85051D01*
X119513Y85047D01*
X119509Y85042D01*
X119507Y85040D01*
X119496Y85028D01*
X119490Y85015D01*
X119482Y84997D01*
X119479Y84988D01*
X119477Y84982D01*
Y83624D01*
Y83930D01*
X119479Y83907D01*
X119482Y83884D01*
X119492Y83843D01*
X119507Y83805D01*
X119523Y83774D01*
X119538Y83749D01*
X119552Y83730D01*
X119563Y83718D01*
X119567Y83716D01*
Y83714D01*
X119584Y83697D01*
X119602Y83684D01*
X119640Y83662D01*
X119677Y83647D01*
X119713Y83634D01*
X119744Y83628D01*
X119756Y83626D01*
X119767D01*
X119777Y83624D01*
X119477D01*
X120383D01*
Y84976D01*
X120381Y84992D01*
X120379Y85007D01*
X120373Y85017D01*
X120367Y85028D01*
X120360Y85036D01*
X120356Y85042D01*
X120352Y85045D01*
X120350Y85047D01*
X120338Y85055D01*
X120325Y85063D01*
X120302Y85070D01*
X120294Y85072D01*
X120285Y85074D01*
D02*
G37*
G36*
X125103Y85632D02*
X124380D01*
X124366Y85628D01*
X124351Y85624D01*
X124339Y85617D01*
X124320Y85601D01*
X124307Y85584D01*
X124301Y85567D01*
X124297Y85551D01*
X124295Y85540D01*
Y84057D01*
Y84697D01*
X124297Y84680D01*
X124299Y84665D01*
X124312Y84641D01*
X124328Y84624D01*
X124347Y84611D01*
X124366Y84605D01*
X124382Y84601D01*
X124395Y84599D01*
X124749D01*
X124784Y84597D01*
X124818Y84588D01*
X124847Y84576D01*
X124872Y84563D01*
X124893Y84549D01*
X124907Y84538D01*
X124916Y84530D01*
X124920Y84526D01*
X124945Y84499D01*
X124961Y84468D01*
X124974Y84438D01*
X124984Y84411D01*
X124988Y84386D01*
X124991Y84368D01*
X124993Y84353D01*
Y84351D01*
Y84349D01*
Y84070D01*
X124991Y84030D01*
X124982Y83997D01*
X124970Y83966D01*
X124957Y83939D01*
X124943Y83918D01*
X124932Y83901D01*
X124924Y83893D01*
X124920Y83889D01*
X124893Y83866D01*
X124863Y83847D01*
X124834Y83834D01*
X124807Y83826D01*
X124784Y83822D01*
X124766Y83820D01*
X124753Y83818D01*
X124399D01*
X124380Y83816D01*
X124364Y83812D01*
X124349Y83805D01*
X124337Y83799D01*
X124328Y83793D01*
X124322Y83787D01*
X124320Y83782D01*
X124318Y83780D01*
X124309Y83768D01*
X124305Y83755D01*
X124297Y83737D01*
X124295Y83724D01*
Y83749D01*
Y83624D01*
Y83720D01*
X124297Y83707D01*
X124299Y83695D01*
X124307Y83674D01*
X124312Y83666D01*
X124316Y83660D01*
X124320Y83655D01*
Y83653D01*
X124332Y83643D01*
X124345Y83637D01*
X124370Y83628D01*
X124382Y83626D01*
X124391Y83624D01*
X124295D01*
X125201D01*
D01*
X124749D01*
X124784Y83626D01*
X124818Y83630D01*
X124849Y83637D01*
X124878Y83645D01*
X124934Y83666D01*
X124957Y83678D01*
X124980Y83691D01*
X125001Y83701D01*
X125018Y83714D01*
X125034Y83724D01*
X125047Y83734D01*
X125057Y83743D01*
X125063Y83749D01*
X125068Y83753D01*
X125070Y83755D01*
X125093Y83780D01*
X125113Y83807D01*
X125130Y83832D01*
X125145Y83859D01*
X125159Y83887D01*
X125170Y83912D01*
X125184Y83962D01*
X125190Y83984D01*
X125195Y84005D01*
X125197Y84024D01*
X125199Y84039D01*
X125201Y84051D01*
Y84349D01*
X125199Y84382D01*
X125195Y84413D01*
X125188Y84445D01*
X125180Y84474D01*
X125159Y84528D01*
X125147Y84551D01*
X125136Y84574D01*
X125124Y84593D01*
X125111Y84611D01*
X125101Y84626D01*
X125091Y84638D01*
X125082Y84649D01*
X125076Y84655D01*
X125072Y84659D01*
X125070Y84661D01*
X125045Y84684D01*
X125018Y84705D01*
X124991Y84724D01*
X124963Y84738D01*
X124936Y84751D01*
X124911Y84761D01*
X124859Y84778D01*
X124836Y84784D01*
X124816Y84788D01*
X124797Y84790D01*
X124780Y84793D01*
X124768Y84795D01*
X124503D01*
Y85438D01*
X125097D01*
X125116Y85440D01*
X125130Y85442D01*
X125145Y85449D01*
X125155Y85455D01*
X125163Y85459D01*
X125170Y85465D01*
X125172Y85467D01*
X125174Y85469D01*
X125182Y85482D01*
X125190Y85492D01*
X125197Y85515D01*
X125199Y85524D01*
X125201Y85530D01*
Y85536D01*
X125199Y85549D01*
X125197Y85561D01*
X125186Y85582D01*
X125180Y85588D01*
X125174Y85594D01*
X125172Y85599D01*
X125170Y85601D01*
X125157Y85611D01*
X125145Y85619D01*
X125132Y85624D01*
X125122Y85628D01*
X125111Y85630D01*
X125103Y85632D01*
D02*
G37*
G36*
X126665Y85630D02*
X125584D01*
X125567Y85628D01*
X125553Y85626D01*
X125540Y85619D01*
X125528Y85615D01*
X125520Y85609D01*
X125513Y85603D01*
X125509Y85601D01*
X125507Y85599D01*
X125497Y85588D01*
X125490Y85576D01*
X125482Y85555D01*
X125480Y85547D01*
X125478Y85540D01*
Y85534D01*
X125482Y85509D01*
X125972Y83707D01*
X125982Y83680D01*
X125997Y83660D01*
X126013Y83645D01*
X126030Y83635D01*
X126047Y83628D01*
X126059Y83626D01*
X126067Y83624D01*
X126072D01*
X126099Y83628D01*
X126121Y83637D01*
X126138Y83651D01*
X126151Y83666D01*
X126161Y83680D01*
X126167Y83695D01*
X126171Y83703D01*
Y83707D01*
X126663Y85509D01*
X126665Y85532D01*
X126663Y85549D01*
X126661Y85561D01*
X126651Y85584D01*
X126644Y85592D01*
X126638Y85599D01*
X126636Y85601D01*
X126634Y85603D01*
X126621Y85611D01*
X126609Y85619D01*
X126584Y85626D01*
X126573Y85628D01*
X126565Y85630D01*
X126665D01*
D02*
G37*
G36*
X121294Y85632D02*
X120908D01*
X120892Y85630D01*
X120877Y85628D01*
X120865Y85621D01*
X120854Y85615D01*
X120846Y85609D01*
X120840Y85605D01*
X120835Y85601D01*
X120833Y85599D01*
X120823Y85586D01*
X120817Y85576D01*
X120808Y85555D01*
X120806Y85547D01*
X120804Y85540D01*
Y85538D01*
Y85536D01*
Y85074D01*
X120771D01*
X120752Y85072D01*
X120735Y85067D01*
X120721Y85061D01*
X120708Y85055D01*
X120700Y85049D01*
X120694Y85042D01*
X120692Y85038D01*
X120690Y85036D01*
X120681Y85024D01*
X120677Y85011D01*
X120669Y84992D01*
X120667Y84980D01*
Y83624D01*
Y84976D01*
X120669Y84963D01*
X120671Y84951D01*
X120679Y84930D01*
X120683Y84922D01*
X120687Y84915D01*
X120692Y84911D01*
Y84909D01*
X120704Y84899D01*
X120717Y84890D01*
X120731Y84886D01*
X120744Y84882D01*
X120754Y84880D01*
X120762Y84878D01*
X120804D01*
Y83720D01*
X120806Y83703D01*
X120810Y83689D01*
X120815Y83676D01*
X120821Y83666D01*
X120827Y83657D01*
X120833Y83651D01*
X120835Y83649D01*
X120837Y83647D01*
X120854Y83639D01*
X120869Y83634D01*
X120881Y83630D01*
X120892Y83626D01*
X120900D01*
X120904Y83624D01*
X120908D01*
X120925Y83626D01*
X120939Y83628D01*
X120952Y83632D01*
X120964Y83639D01*
X120973Y83643D01*
X120979Y83647D01*
X120983Y83649D01*
X120985Y83651D01*
X120994Y83662D01*
X121002Y83672D01*
X121008Y83695D01*
X121010Y83705D01*
X121012Y83714D01*
Y83718D01*
Y83720D01*
Y84878D01*
X121189D01*
X121208Y84880D01*
X121223Y84882D01*
X121235Y84888D01*
X121248Y84895D01*
X121256Y84899D01*
X121262Y84905D01*
X121264Y84907D01*
X121267Y84909D01*
X121275Y84922D01*
X121283Y84934D01*
X121289Y84955D01*
X121291Y84963D01*
X121294Y84970D01*
Y84976D01*
X121291Y84988D01*
X121289Y85001D01*
X121279Y85022D01*
X121273Y85030D01*
X121267Y85036D01*
X121264Y85040D01*
X121262Y85042D01*
X121250Y85053D01*
X121237Y85061D01*
X121225Y85065D01*
X121214Y85070D01*
X121204Y85072D01*
X121196Y85074D01*
X121012D01*
Y85536D01*
X121010Y85551D01*
X121008Y85565D01*
X120996Y85586D01*
X120989Y85594D01*
X120985Y85601D01*
X120981Y85603D01*
X120979Y85605D01*
X120967Y85613D01*
X120954Y85621D01*
X120931Y85628D01*
X120923Y85630D01*
X120914Y85632D01*
X121294D01*
D02*
G37*
G36*
X119196Y85074D02*
X118578D01*
X118553Y85070D01*
X118509Y85059D01*
X118471Y85042D01*
X118438Y85026D01*
X118413Y85007D01*
X118394Y84990D01*
X118382Y84980D01*
X118380Y84978D01*
X118378Y84976D01*
X118348Y84940D01*
X118328Y84903D01*
X118311Y84868D01*
X118301Y84836D01*
X118294Y84809D01*
X118292Y84786D01*
X118290Y84778D01*
Y83624D01*
Y83930D01*
X118292Y83907D01*
X118294Y83884D01*
X118305Y83843D01*
X118319Y83805D01*
X118336Y83774D01*
X118351Y83749D01*
X118365Y83730D01*
X118376Y83718D01*
X118380Y83716D01*
Y83714D01*
X118396Y83697D01*
X118415Y83684D01*
X118453Y83662D01*
X118490Y83647D01*
X118526Y83634D01*
X118557Y83628D01*
X118569Y83626D01*
X118580D01*
X118590Y83624D01*
X118290D01*
X119196D01*
X118882D01*
X118907Y83626D01*
X118930Y83628D01*
X118973Y83639D01*
X119013Y83653D01*
X119044Y83670D01*
X119071Y83684D01*
X119090Y83699D01*
X119102Y83709D01*
X119107Y83714D01*
X119123Y83730D01*
X119136Y83749D01*
X119159Y83784D01*
X119175Y83822D01*
X119186Y83855D01*
X119192Y83884D01*
X119194Y83909D01*
X119196Y83918D01*
Y84790D01*
X119192Y84813D01*
X119182Y84855D01*
X119167Y84893D01*
X119150Y84924D01*
X119134Y84949D01*
X119119Y84970D01*
X119109Y84980D01*
X119107Y84984D01*
X119105D01*
X119088Y85001D01*
X119069Y85013D01*
X119032Y85036D01*
X118994Y85053D01*
X118959Y85063D01*
X118930Y85070D01*
X118915Y85072D01*
X118905D01*
X118894Y85074D01*
X119196D01*
D02*
G37*
G36*
X118007Y85630D02*
X116926D01*
X116909Y85628D01*
X116895Y85626D01*
X116882Y85619D01*
X116870Y85615D01*
X116861Y85609D01*
X116855Y85603D01*
X116851Y85601D01*
X116849Y85599D01*
X116838Y85588D01*
X116832Y85576D01*
X116824Y85555D01*
X116822Y85547D01*
X116820Y85540D01*
Y85534D01*
X116824Y85509D01*
X117313Y83707D01*
X117324Y83680D01*
X117338Y83660D01*
X117355Y83645D01*
X117372Y83634D01*
X117388Y83628D01*
X117401Y83626D01*
X117409Y83624D01*
X117413D01*
X117440Y83628D01*
X117463Y83637D01*
X117480Y83651D01*
X117492Y83666D01*
X117503Y83680D01*
X117509Y83695D01*
X117513Y83703D01*
Y83707D01*
X118005Y85509D01*
X118007Y85532D01*
X118005Y85549D01*
X118003Y85561D01*
X117992Y85584D01*
X117986Y85592D01*
X117980Y85599D01*
X117978Y85601D01*
X117976Y85603D01*
X117963Y85611D01*
X117951Y85619D01*
X117926Y85626D01*
X117915Y85628D01*
X117907Y85630D01*
X118007D01*
D02*
G37*
%LPD*%
G36*
X120383Y83624D02*
X120279D01*
X120298Y83626D01*
X120315Y83628D01*
X120327Y83632D01*
X120340Y83639D01*
X120358Y83655D01*
X120371Y83672D01*
X120377Y83689D01*
X120381Y83705D01*
X120383Y83716D01*
Y83624D01*
D02*
G37*
G36*
X126530Y85624D02*
X126509Y85615D01*
X126501Y85611D01*
X126494Y85607D01*
X126492Y85605D01*
X126490D01*
X126476Y85586D01*
X126465Y85572D01*
X126461Y85561D01*
X126459Y85559D01*
Y85557D01*
X126072Y84128D01*
X125684Y85557D01*
X125676Y85574D01*
X125667Y85586D01*
X125661Y85594D01*
X125653Y85603D01*
X125647Y85607D01*
X125642Y85611D01*
X125640Y85613D01*
X125638D01*
X125620Y85624D01*
X125603Y85628D01*
X125588Y85630D01*
X126557D01*
X126530Y85624D01*
D02*
G37*
G36*
X118898Y84876D02*
X118913Y84874D01*
X118936Y84863D01*
X118944Y84857D01*
X118950Y84851D01*
X118955Y84849D01*
X118957Y84847D01*
X118967Y84834D01*
X118975Y84822D01*
X118980Y84807D01*
X118984Y84795D01*
X118986Y84784D01*
X118988Y84776D01*
Y84770D01*
Y84768D01*
Y83930D01*
X118986Y83912D01*
X118984Y83897D01*
X118978Y83882D01*
X118973Y83872D01*
X118967Y83862D01*
X118961Y83855D01*
X118959Y83851D01*
X118957Y83849D01*
X118944Y83839D01*
X118932Y83830D01*
X118919Y83826D01*
X118907Y83822D01*
X118896Y83820D01*
X118890Y83818D01*
X118603D01*
X118588Y83820D01*
X118573Y83822D01*
X118551Y83834D01*
X118542Y83839D01*
X118536Y83845D01*
X118532Y83847D01*
X118530Y83849D01*
X118519Y83862D01*
X118511Y83874D01*
X118507Y83889D01*
X118503Y83901D01*
X118501Y83914D01*
X118498Y83922D01*
Y83928D01*
Y83930D01*
Y84768D01*
X118501Y84784D01*
X118503Y84801D01*
X118509Y84813D01*
X118515Y84826D01*
X118519Y84834D01*
X118526Y84840D01*
X118528Y84845D01*
X118530Y84847D01*
X118542Y84857D01*
X118555Y84865D01*
X118567Y84870D01*
X118578Y84874D01*
X118588Y84876D01*
X118596Y84878D01*
X118882D01*
X118898Y84876D01*
D02*
G37*
G36*
X117872Y85624D02*
X117851Y85615D01*
X117842Y85611D01*
X117836Y85607D01*
X117834Y85605D01*
X117832D01*
X117817Y85586D01*
X117807Y85572D01*
X117803Y85561D01*
X117801Y85559D01*
Y85557D01*
X117413Y84128D01*
X117026Y85557D01*
X117018Y85574D01*
X117009Y85586D01*
X117003Y85594D01*
X116995Y85603D01*
X116988Y85607D01*
X116984Y85611D01*
X116982Y85613D01*
X116980D01*
X116961Y85624D01*
X116945Y85628D01*
X116930Y85630D01*
X117899D01*
X117872Y85624D01*
D02*
G37*
%LPC*%
G36*
X90948Y62993D02*
D01*
Y62930D01*
X90947Y62939D01*
X90945Y62949D01*
X90937Y62963D01*
X90933Y62968D01*
X90930Y62973D01*
X90927Y62974D01*
X90926Y62975D01*
X90918Y62981D01*
X90909Y62987D01*
X90894Y62991D01*
X90888Y62992D01*
X90883Y62993D01*
X90948D01*
X90250Y62993D01*
X90320D01*
X90309Y62992D01*
X90299Y62991D01*
X90291Y62987D01*
X90284Y62982D01*
X90278Y62978D01*
X90274Y62975D01*
X90271Y62973D01*
X90270Y62971D01*
X90263Y62963D01*
X90259Y62956D01*
X90253Y62942D01*
X90252Y62937D01*
X90250Y62932D01*
Y61720D01*
X90252Y61709D01*
X90255Y61700D01*
X90257Y61691D01*
X90262Y61684D01*
X90266Y61679D01*
X90270Y61675D01*
X90271Y61673D01*
X90273Y61672D01*
X90284Y61666D01*
X90293Y61663D01*
X90302Y61661D01*
X90309Y61658D01*
X90314D01*
X90317Y61657D01*
X90320D01*
X90331Y61658D01*
X90341Y61659D01*
X90349Y61662D01*
X90357Y61666D01*
X90363Y61669D01*
X90367Y61672D01*
X90370Y61673D01*
X90371Y61675D01*
X90377Y61681D01*
X90382Y61688D01*
X90386Y61704D01*
X90388Y61711D01*
X90389Y61716D01*
Y61719D01*
Y61720D01*
Y62613D01*
X90816Y61693D01*
X90841Y61665D01*
X90875Y61657D01*
D01*
X90886Y61658D01*
X90897Y61659D01*
X90905Y61662D01*
X90913Y61666D01*
X90920Y61669D01*
X90926Y61672D01*
X90929Y61673D01*
X90930Y61675D01*
X90936Y61684D01*
X90941Y61694D01*
X90945Y61708D01*
X90947Y61713D01*
X90948Y61718D01*
Y61657D01*
D01*
D01*
Y62993D01*
D02*
G37*
G36*
X90062Y62993D02*
D01*
Y62930D01*
X90060Y62941D01*
X90059Y62950D01*
X90055Y62957D01*
X90052Y62964D01*
X90048Y62970D01*
X90044Y62974D01*
X90042Y62975D01*
X90041Y62977D01*
X90033Y62982D01*
X90026Y62987D01*
X90009Y62992D01*
X90002D01*
X89997Y62993D01*
X89981D01*
X89973Y62991D01*
X89959Y62987D01*
X89954Y62984D01*
X89951Y62981D01*
X89948Y62980D01*
X89947Y62978D01*
X89940Y62973D01*
X89934Y62967D01*
X89927Y62955D01*
X89926Y62949D01*
X89925Y62945D01*
X89923Y62942D01*
Y62941D01*
X89743Y62000D01*
X89547Y62586D01*
X89536Y62604D01*
X89525Y62616D01*
X89514Y62626D01*
X89504Y62631D01*
X89495Y62636D01*
X89488Y62637D01*
X89484Y62638D01*
X89482D01*
X89466Y62636D01*
X89452Y62630D01*
X89441Y62622D01*
X89431Y62612D01*
X89424Y62601D01*
X89420Y62593D01*
X89417Y62587D01*
X89416Y62584D01*
X89221Y62000D01*
X89040Y62941D01*
X89033Y62959D01*
X89023Y62971D01*
X89012Y62981D01*
X89000Y62987D01*
X88988Y62991D01*
X88979Y62992D01*
X88973Y62993D01*
X88970D01*
X88959Y62992D01*
X88951Y62991D01*
X88934Y62982D01*
X88929Y62978D01*
X88925Y62975D01*
X88922Y62973D01*
X88920Y62971D01*
X88914Y62963D01*
X88909Y62956D01*
X88904Y62944D01*
X88902Y62938D01*
X88901Y62934D01*
Y62931D01*
X88902Y62919D01*
X89135Y61715D01*
X89158Y61675D01*
X89169Y61669D01*
X89178Y61665D01*
X89187Y61661D01*
X89194Y61659D01*
X89198Y61658D01*
X89201Y61657D01*
X88901D01*
X90062D01*
Y62993D01*
D02*
G37*
G36*
X86950D02*
D01*
Y62930D01*
X86948Y62938D01*
X86947Y62946D01*
X86940Y62960D01*
X86936Y62964D01*
X86932Y62968D01*
X86930Y62971D01*
X86929Y62973D01*
X86921Y62980D01*
X86912Y62985D01*
X86904Y62988D01*
X86897Y62991D01*
X86890Y62992D01*
X86885Y62993D01*
X86252D01*
X86322D01*
X86309Y62992D01*
X86298Y62989D01*
X86288Y62985D01*
X86280Y62981D01*
X86274Y62977D01*
X86270Y62973D01*
X86269Y62970D01*
X86267Y62968D01*
X86262Y62960D01*
X86259Y62952D01*
X86254Y62939D01*
X86252Y62932D01*
Y62930D01*
X86254Y62920D01*
X86255Y62912D01*
X86261Y62898D01*
X86263Y62892D01*
X86266Y62888D01*
X86269Y62885D01*
Y62884D01*
X86277Y62877D01*
X86285Y62873D01*
X86302Y62867D01*
X86310Y62866D01*
X86316Y62864D01*
X86531D01*
Y61720D01*
X86532Y61709D01*
X86535Y61700D01*
X86538Y61691D01*
X86542Y61684D01*
X86546Y61679D01*
X86550Y61675D01*
X86552Y61673D01*
X86553Y61672D01*
X86564Y61666D01*
X86574Y61663D01*
X86582Y61661D01*
X86589Y61658D01*
X86595D01*
X86598Y61657D01*
X86950D01*
Y62993D01*
D02*
G37*
G36*
X86066D02*
D01*
Y62930D01*
X86065Y62939D01*
X86064Y62949D01*
X86055Y62963D01*
X86051Y62968D01*
X86048Y62973D01*
X86046Y62974D01*
X86044Y62975D01*
X86036Y62981D01*
X86028Y62987D01*
X86012Y62991D01*
X86007Y62992D01*
X86001Y62993D01*
X85997D01*
X85986Y62992D01*
X85976Y62991D01*
X85968Y62987D01*
X85960Y62982D01*
X85954Y62978D01*
X85950Y62975D01*
X85947Y62973D01*
X85946Y62971D01*
X85939Y62963D01*
X85935Y62956D01*
X85929Y62942D01*
X85928Y62937D01*
X85926Y62932D01*
Y62931D01*
Y62930D01*
Y61953D01*
X85924Y61927D01*
X85918Y61903D01*
X85911Y61883D01*
X85901Y61866D01*
X85892Y61852D01*
X85885Y61841D01*
X85879Y61835D01*
X85876Y61833D01*
X85857Y61817D01*
X85838Y61805D01*
X85820Y61797D01*
X85801Y61791D01*
X85786Y61788D01*
X85774Y61787D01*
X85765Y61786D01*
X85670D01*
X85648Y61788D01*
X85627Y61794D01*
X85607Y61801D01*
X85591Y61810D01*
X85577Y61819D01*
X85567Y61827D01*
X85560Y61833D01*
X85557Y61834D01*
X85541Y61853D01*
X85528Y61874D01*
X85520Y61894D01*
X85514Y61913D01*
X85510Y61928D01*
X85509Y61942D01*
X85507Y61951D01*
Y61952D01*
Y61953D01*
Y62930D01*
X85506Y62939D01*
X85505Y62949D01*
X85496Y62963D01*
X85492Y62968D01*
X85489Y62973D01*
X85487Y62974D01*
X85485Y62975D01*
X85477Y62981D01*
X85469Y62987D01*
X85453Y62991D01*
X85448Y62992D01*
X85442Y62993D01*
X85438D01*
X85427Y62992D01*
X85417Y62991D01*
X85409Y62987D01*
X85402Y62982D01*
X85397Y62978D01*
X85392Y62975D01*
X85390Y62973D01*
X85388Y62971D01*
X85381Y62963D01*
X85377Y62956D01*
X85372Y62942D01*
X85370Y62937D01*
X85369Y62932D01*
Y61953D01*
X85370Y61930D01*
X85373Y61909D01*
X85377Y61888D01*
X85383Y61867D01*
X85398Y61831D01*
X85406Y61816D01*
X85415Y61801D01*
X85423Y61788D01*
X85431Y61776D01*
X85440Y61766D01*
X85446Y61758D01*
X85452Y61751D01*
X85456Y61747D01*
X85459Y61744D01*
X85460Y61743D01*
X85478Y61727D01*
X85496Y61715D01*
X85514Y61702D01*
X85532Y61693D01*
X85550Y61684D01*
X85567Y61677D01*
X85600Y61668D01*
X85614Y61663D01*
X85628Y61661D01*
X85641Y61659D01*
X85650Y61658D01*
X85659Y61657D01*
X85369D01*
D01*
X86066D01*
Y62993D01*
D02*
G37*
G36*
X88717D02*
D01*
Y62697D01*
X88715Y62719D01*
X88712Y62741D01*
X88708Y62762D01*
X88703Y62781D01*
X88689Y62816D01*
X88681Y62833D01*
X88672Y62848D01*
X88664Y62860D01*
X88656Y62871D01*
X88649Y62883D01*
X88642Y62891D01*
X88636Y62898D01*
X88632Y62902D01*
X88629Y62905D01*
X88628Y62906D01*
X88611Y62921D01*
X88593Y62935D01*
X88575Y62946D01*
X88557Y62956D01*
X88539Y62966D01*
X88521Y62973D01*
X88488Y62982D01*
X88471Y62987D01*
X88457Y62989D01*
X88445Y62991D01*
X88434Y62992D01*
X88425Y62993D01*
X88320D01*
D01*
X88019D01*
X88320D01*
X88296Y62992D01*
X88274Y62989D01*
X88253Y62985D01*
X88233Y62980D01*
X88197Y62964D01*
X88180Y62957D01*
X88165Y62949D01*
X88151Y62939D01*
X88140Y62932D01*
X88129Y62924D01*
X88120Y62917D01*
X88113Y62912D01*
X88109Y62907D01*
X88106Y62905D01*
X88105Y62903D01*
X88090Y62887D01*
X88077Y62869D01*
X88065Y62852D01*
X88055Y62834D01*
X88047Y62816D01*
X88040Y62799D01*
X88030Y62767D01*
X88026Y62752D01*
X88023Y62738D01*
X88022Y62727D01*
X88020Y62716D01*
X88019Y62708D01*
Y61953D01*
X88020Y61930D01*
X88023Y61909D01*
X88027Y61888D01*
X88033Y61867D01*
X88048Y61831D01*
X88056Y61816D01*
X88065Y61801D01*
X88073Y61788D01*
X88081Y61776D01*
X88090Y61766D01*
X88097Y61758D01*
X88102Y61751D01*
X88106Y61747D01*
X88109Y61744D01*
X88111Y61743D01*
X88129Y61727D01*
X88147Y61715D01*
X88165Y61702D01*
X88183Y61693D01*
X88201Y61684D01*
X88217Y61677D01*
X88251Y61668D01*
X88265Y61663D01*
X88278Y61661D01*
X88291Y61659D01*
X88301Y61658D01*
X88309Y61657D01*
X88413D01*
X88436Y61658D01*
X88459Y61661D01*
X88479Y61665D01*
X88500Y61670D01*
X88538Y61684D01*
X88553Y61693D01*
X88568Y61701D01*
X88582Y61708D01*
X88593Y61716D01*
X88604Y61723D01*
X88613Y61730D01*
X88620Y61736D01*
X88624Y61740D01*
X88626Y61743D01*
X88628Y61744D01*
X88643Y61761D01*
X88657Y61779D01*
X88669Y61795D01*
X88679Y61813D01*
X88688Y61831D01*
X88694Y61848D01*
X88706Y61881D01*
X88710Y61896D01*
X88712Y61910D01*
X88714Y61923D01*
X88715Y61933D01*
X88717Y61941D01*
Y61657D01*
X88418D01*
X88717D01*
Y62993D01*
D02*
G37*
G36*
X87833D02*
D01*
Y62697D01*
X87832Y62719D01*
X87829Y62741D01*
X87825Y62762D01*
X87819Y62781D01*
X87805Y62816D01*
X87797Y62833D01*
X87789Y62848D01*
X87781Y62860D01*
X87772Y62871D01*
X87765Y62883D01*
X87758Y62891D01*
X87753Y62898D01*
X87749Y62902D01*
X87746Y62905D01*
X87744Y62906D01*
X87728Y62921D01*
X87710Y62935D01*
X87692Y62946D01*
X87674Y62956D01*
X87656Y62966D01*
X87638Y62973D01*
X87604Y62982D01*
X87588Y62987D01*
X87574Y62989D01*
X87561Y62991D01*
X87550Y62992D01*
X87542Y62993D01*
X87192D01*
X87183Y62991D01*
X87173Y62988D01*
X87165Y62984D01*
X87152Y62973D01*
X87144Y62962D01*
X87140Y62950D01*
X87137Y62939D01*
X87136Y62932D01*
Y61720D01*
X87137Y61709D01*
X87138Y61700D01*
X87147Y61683D01*
X87158Y61672D01*
X87170Y61665D01*
X87183Y61659D01*
X87194Y61658D01*
X87202Y61657D01*
X87136D01*
D01*
X87833D01*
Y62993D01*
D02*
G37*
G36*
X85183D02*
X84791D01*
X85114D01*
X85103Y62992D01*
X85093Y62991D01*
X85084Y62987D01*
X85076Y62982D01*
X85071Y62978D01*
X85066Y62975D01*
X85064Y62973D01*
X85062Y62971D01*
X85055Y62963D01*
X85051Y62956D01*
X85046Y62942D01*
X85044Y62937D01*
X85043Y62932D01*
Y62931D01*
Y62930D01*
Y62436D01*
X84624D01*
Y62930D01*
X84623Y62939D01*
X84621Y62949D01*
X84613Y62963D01*
X84609Y62968D01*
X84606Y62973D01*
X84603Y62974D01*
X84602Y62975D01*
X84594Y62981D01*
X84585Y62987D01*
X84570Y62991D01*
X84564Y62992D01*
X84559Y62993D01*
X84485D01*
X84555D01*
X84544Y62992D01*
X84534Y62991D01*
X84526Y62987D01*
X84519Y62982D01*
X84513Y62978D01*
X84509Y62975D01*
X84506Y62973D01*
X84505Y62971D01*
X84498Y62963D01*
X84494Y62956D01*
X84488Y62942D01*
X84487Y62937D01*
X84485Y62932D01*
Y61657D01*
Y61720D01*
X84487Y61709D01*
X84490Y61700D01*
X84492Y61691D01*
X84496Y61684D01*
X84501Y61679D01*
X84505Y61675D01*
X84506Y61673D01*
X84508Y61672D01*
X84519Y61666D01*
X84528Y61663D01*
X84537Y61661D01*
X84544Y61658D01*
X84549D01*
X84552Y61657D01*
X84555D01*
X84566Y61658D01*
X84576Y61659D01*
X84584Y61662D01*
X84592Y61666D01*
X84598Y61669D01*
X84602Y61672D01*
X84605Y61673D01*
X84606Y61675D01*
X84612Y61681D01*
X84617Y61688D01*
X84621Y61704D01*
X84623Y61711D01*
X84624Y61716D01*
Y61719D01*
Y61720D01*
Y62306D01*
X85043D01*
Y61720D01*
X85044Y61709D01*
X85047Y61700D01*
X85050Y61691D01*
X85055Y61684D01*
X85060Y61679D01*
X85062Y61675D01*
X85065Y61673D01*
X85066Y61672D01*
X85078Y61666D01*
X85087Y61663D01*
X85096Y61661D01*
X85103Y61658D01*
X85108D01*
X85111Y61657D01*
X85114D01*
X85125Y61658D01*
X85134Y61659D01*
X85143Y61662D01*
X85151Y61666D01*
X85157Y61669D01*
X85161Y61672D01*
X85164Y61673D01*
X85165Y61675D01*
X85170Y61681D01*
X85176Y61688D01*
X85180Y61704D01*
X85182Y61711D01*
X85183Y61716D01*
Y61666D01*
Y62930D01*
X85182Y62939D01*
X85180Y62949D01*
X85172Y62963D01*
X85168Y62968D01*
X85165Y62973D01*
X85162Y62974D01*
X85161Y62975D01*
X85152Y62981D01*
X85144Y62987D01*
X85129Y62991D01*
X85123Y62992D01*
X85118Y62993D01*
X85183D01*
D02*
G37*
G36*
X84053D02*
X83906D01*
X83881Y62992D01*
X83859Y62989D01*
X83836Y62985D01*
X83816Y62980D01*
X83795Y62971D01*
X83777Y62964D01*
X83760Y62956D01*
X83745Y62948D01*
X83731Y62938D01*
X83718Y62930D01*
X83709Y62923D01*
X83700Y62916D01*
X83693Y62909D01*
X83688Y62905D01*
X83685Y62902D01*
X83684Y62901D01*
X83670Y62884D01*
X83657Y62867D01*
X83646Y62851D01*
X83638Y62833D01*
X83630Y62816D01*
X83623Y62799D01*
X83613Y62767D01*
X83610Y62752D01*
X83607Y62738D01*
X83606Y62727D01*
X83605Y62716D01*
X83603Y62708D01*
Y62702D01*
Y62698D01*
Y62697D01*
X83605Y62676D01*
X83606Y62655D01*
X83610Y62636D01*
X83614Y62619D01*
X83617Y62605D01*
X83621Y62595D01*
X83623Y62589D01*
X83624Y62586D01*
X83637Y62564D01*
X83648Y62544D01*
X83660Y62527D01*
X83670Y62514D01*
X83680Y62503D01*
X83687Y62494D01*
X83691Y62489D01*
X83692Y62487D01*
X84107Y62074D01*
X84116Y62063D01*
X84125Y62050D01*
X84130Y62041D01*
X84136Y62031D01*
X84140Y62024D01*
X84143Y62019D01*
X84144Y62014D01*
Y62013D01*
X84147Y62007D01*
X84148Y62002D01*
X84150Y61998D01*
Y61996D01*
X84153Y61988D01*
X84154Y61985D01*
Y61984D01*
X84157Y61953D01*
X84154Y61928D01*
X84148Y61906D01*
X84141Y61887D01*
X84132Y61869D01*
X84122Y61855D01*
X84115Y61844D01*
X84110Y61838D01*
X84107Y61835D01*
X84087Y61819D01*
X84068Y61806D01*
X84049Y61798D01*
X84032Y61792D01*
X84015Y61788D01*
X84004Y61787D01*
X83996Y61786D01*
X83857D01*
X83828Y61787D01*
X83802Y61792D01*
X83777Y61799D01*
X83755Y61809D01*
X83735Y61817D01*
X83721Y61824D01*
X83716Y61827D01*
X83712Y61830D01*
X83710Y61831D01*
X83709D01*
X83675Y61844D01*
X83663Y61842D01*
X83652Y61840D01*
X83644Y61837D01*
X83635Y61833D01*
X83630Y61827D01*
X83626Y61824D01*
X83623Y61822D01*
X83621Y61820D01*
X83614Y61812D01*
X83610Y61804D01*
X83605Y61790D01*
X83603Y61784D01*
X83602Y61780D01*
Y61776D01*
X83607Y61749D01*
X83628Y61727D01*
X83648Y61715D01*
X83667Y61704D01*
X83688Y61694D01*
X83707Y61687D01*
X83746Y61673D01*
X83781Y61665D01*
X83798Y61662D01*
X83811Y61661D01*
X83825Y61659D01*
X83836Y61658D01*
X83845Y61657D01*
X83602D01*
D01*
X84301D01*
Y62874D01*
X84297Y62889D01*
X84293Y62901D01*
X84288Y62907D01*
X84287Y62909D01*
X84282Y62917D01*
X84276Y62921D01*
X84272Y62924D01*
X84270Y62925D01*
X84251Y62937D01*
X84232Y62948D01*
X84212Y62956D01*
X84196Y62963D01*
X84179Y62968D01*
X84168Y62973D01*
X84159Y62974D01*
X84158Y62975D01*
X84157D01*
X84134Y62981D01*
X84112Y62987D01*
X84093Y62989D01*
X84076Y62991D01*
X84062Y62992D01*
X84053Y62993D01*
D02*
G37*
G36*
X90317Y61657D02*
X90250D01*
X90317D01*
D01*
D02*
G37*
%LPD*%
G36*
X90868Y62992D02*
X90858Y62991D01*
X90850Y62987D01*
X90841Y62982D01*
X90836Y62978D01*
X90832Y62975D01*
X90829Y62973D01*
X90827Y62971D01*
X90820Y62963D01*
X90816Y62956D01*
X90811Y62942D01*
X90809Y62937D01*
X90808Y62932D01*
Y62931D01*
Y62930D01*
Y62035D01*
X90382Y62955D01*
X90374Y62968D01*
X90364Y62978D01*
X90357Y62984D01*
X90356Y62985D01*
X90354D01*
X90342Y62991D01*
X90331Y62992D01*
X90323Y62993D01*
X90879Y62993D01*
X90868Y62992D01*
D02*
G37*
G36*
X90062Y61657D02*
X89764D01*
X89783Y61661D01*
X89797Y61668D01*
X89803Y61670D01*
X89807Y61673D01*
X89808Y61676D01*
X89809D01*
X89819Y61690D01*
X89826Y61702D01*
X89827Y61708D01*
X89829Y61712D01*
X89830Y61715D01*
Y61716D01*
X90062Y62919D01*
Y61657D01*
D02*
G37*
G36*
X89694Y61708D02*
X89703Y61691D01*
X89714Y61679D01*
X89725Y61669D01*
X89736Y61663D01*
X89747Y61659D01*
X89755Y61658D01*
X89761Y61657D01*
X89203D01*
X89220Y61659D01*
X89234Y61665D01*
X89246Y61673D01*
X89255Y61683D01*
X89262Y61691D01*
X89266Y61700D01*
X89269Y61705D01*
X89270Y61708D01*
X89482Y62346D01*
X89694Y61708D01*
D02*
G37*
G36*
X86950Y61657D02*
X86600D01*
X86611Y61658D01*
X86621Y61659D01*
X86629Y61662D01*
X86638Y61666D01*
X86643Y61669D01*
X86647Y61672D01*
X86650Y61673D01*
X86652Y61675D01*
X86657Y61681D01*
X86663Y61688D01*
X86667Y61704D01*
X86668Y61711D01*
X86670Y61716D01*
Y61719D01*
Y61720D01*
Y62864D01*
X86880D01*
X86893Y62866D01*
X86903Y62867D01*
X86912Y62871D01*
X86919Y62876D01*
X86925Y62878D01*
X86929Y62883D01*
X86930Y62884D01*
X86932Y62885D01*
X86937Y62894D01*
X86943Y62901D01*
X86947Y62916D01*
X86948Y62921D01*
X86950Y62925D01*
Y61657D01*
D02*
G37*
G36*
X86066D02*
X85763D01*
X85786Y61658D01*
X85808Y61661D01*
X85829Y61665D01*
X85850Y61670D01*
X85887Y61684D01*
X85903Y61693D01*
X85918Y61701D01*
X85932Y61708D01*
X85943Y61716D01*
X85954Y61723D01*
X85962Y61730D01*
X85969Y61736D01*
X85973Y61740D01*
X85976Y61743D01*
X85978Y61744D01*
X85993Y61761D01*
X86007Y61779D01*
X86019Y61795D01*
X86029Y61813D01*
X86037Y61831D01*
X86044Y61848D01*
X86055Y61881D01*
X86059Y61896D01*
X86062Y61910D01*
X86064Y61923D01*
X86065Y61933D01*
X86066Y61941D01*
Y61657D01*
D02*
G37*
G36*
X88436Y62862D02*
X88459Y62856D01*
X88478Y62849D01*
X88496Y62840D01*
X88509Y62830D01*
X88520Y62823D01*
X88525Y62817D01*
X88528Y62815D01*
X88545Y62795D01*
X88556Y62776D01*
X88564Y62756D01*
X88571Y62737D01*
X88574Y62722D01*
X88575Y62708D01*
X88577Y62699D01*
Y62698D01*
Y62697D01*
Y61953D01*
X88574Y61927D01*
X88568Y61903D01*
X88561Y61883D01*
X88552Y61866D01*
X88542Y61852D01*
X88535Y61841D01*
X88529Y61835D01*
X88527Y61833D01*
X88507Y61817D01*
X88488Y61805D01*
X88470Y61797D01*
X88452Y61791D01*
X88436Y61788D01*
X88424Y61787D01*
X88416Y61786D01*
X88320D01*
X88298Y61788D01*
X88277Y61794D01*
X88258Y61801D01*
X88241Y61810D01*
X88227Y61819D01*
X88217Y61827D01*
X88210Y61833D01*
X88208Y61834D01*
X88191Y61853D01*
X88179Y61874D01*
X88170Y61894D01*
X88165Y61913D01*
X88160Y61928D01*
X88159Y61942D01*
X88158Y61951D01*
Y61952D01*
Y61953D01*
Y62697D01*
X88160Y62722D01*
X88166Y62745D01*
X88173Y62766D01*
X88183Y62783D01*
X88191Y62797D01*
X88199Y62808D01*
X88205Y62813D01*
X88206Y62816D01*
X88226Y62833D01*
X88245Y62844D01*
X88263Y62852D01*
X88281Y62859D01*
X88296Y62862D01*
X88309Y62863D01*
X88317Y62864D01*
X88413D01*
X88436Y62862D01*
D02*
G37*
G36*
X87553D02*
X87575Y62856D01*
X87595Y62849D01*
X87613Y62840D01*
X87625Y62830D01*
X87636Y62823D01*
X87642Y62817D01*
X87645Y62815D01*
X87661Y62795D01*
X87672Y62776D01*
X87681Y62756D01*
X87688Y62737D01*
X87690Y62722D01*
X87692Y62708D01*
X87693Y62699D01*
Y62698D01*
Y62697D01*
Y61953D01*
X87690Y61927D01*
X87685Y61903D01*
X87678Y61883D01*
X87668Y61866D01*
X87658Y61852D01*
X87652Y61841D01*
X87646Y61835D01*
X87643Y61833D01*
X87624Y61817D01*
X87604Y61805D01*
X87586Y61797D01*
X87568Y61791D01*
X87553Y61788D01*
X87541Y61787D01*
X87532Y61786D01*
X87274D01*
Y62864D01*
X87529D01*
X87553Y62862D01*
D02*
G37*
G36*
X87833Y61657D02*
X87529D01*
X87553Y61658D01*
X87575Y61661D01*
X87596Y61665D01*
X87617Y61670D01*
X87654Y61684D01*
X87670Y61693D01*
X87685Y61701D01*
X87699Y61708D01*
X87710Y61716D01*
X87721Y61723D01*
X87729Y61730D01*
X87736Y61736D01*
X87740Y61740D01*
X87743Y61743D01*
X87744Y61744D01*
X87760Y61761D01*
X87774Y61779D01*
X87786Y61795D01*
X87796Y61813D01*
X87804Y61831D01*
X87811Y61848D01*
X87822Y61881D01*
X87826Y61896D01*
X87829Y61910D01*
X87830Y61923D01*
X87832Y61933D01*
X87833Y61941D01*
Y61657D01*
D02*
G37*
G36*
X84301D02*
X83993D01*
X84018Y61658D01*
X84040Y61661D01*
X84062Y61665D01*
X84085Y61672D01*
X84104Y61679D01*
X84122Y61686D01*
X84139Y61694D01*
X84154Y61704D01*
X84168Y61712D01*
X84180Y61720D01*
X84190Y61727D01*
X84200Y61736D01*
X84205Y61741D01*
X84211Y61745D01*
X84214Y61748D01*
X84215Y61749D01*
X84229Y61766D01*
X84241Y61783D01*
X84252Y61799D01*
X84262Y61817D01*
X84269Y61834D01*
X84276Y61851D01*
X84286Y61883D01*
X84288Y61898D01*
X84291Y61912D01*
X84293Y61923D01*
X84294Y61934D01*
X84295Y61942D01*
Y61948D01*
Y61952D01*
Y61953D01*
Y61981D01*
X84291Y62005D01*
X84282Y62041D01*
X84273Y62063D01*
X84263Y62084D01*
X84254Y62102D01*
X84243Y62118D01*
X84233Y62132D01*
X84223Y62143D01*
X84215Y62153D01*
X84209Y62159D01*
X84208Y62160D01*
X83795Y62576D01*
X83785Y62589D01*
X83777Y62598D01*
X83770Y62608D01*
X83764Y62616D01*
X83760Y62622D01*
X83757Y62626D01*
X83756Y62629D01*
Y62630D01*
X83749Y62645D01*
X83746Y62661D01*
X83743Y62698D01*
X83745Y62723D01*
X83750Y62745D01*
X83757Y62765D01*
X83767Y62781D01*
X83775Y62795D01*
X83782Y62806D01*
X83788Y62812D01*
X83789Y62815D01*
X83807Y62831D01*
X83828Y62844D01*
X83847Y62852D01*
X83865Y62859D01*
X83881Y62862D01*
X83895Y62863D01*
X83903Y62864D01*
X84043D01*
X84072Y62863D01*
X84100Y62858D01*
X84125Y62849D01*
X84147Y62841D01*
X84165Y62831D01*
X84179Y62824D01*
X84184Y62820D01*
X84189Y62819D01*
X84190Y62816D01*
X84191D01*
X84225Y62805D01*
X84237Y62806D01*
X84248Y62808D01*
X84258Y62812D01*
X84265Y62816D01*
X84272Y62819D01*
X84276Y62823D01*
X84279Y62824D01*
X84280Y62826D01*
X84287Y62834D01*
X84293Y62842D01*
X84295Y62851D01*
X84298Y62859D01*
X84300Y62864D01*
X84301Y62870D01*
Y61657D01*
D02*
G37*
%LPC*%
G36*
X67969Y66618D02*
X67366D01*
X67319Y66615D01*
X67275Y66609D01*
X67230Y66601D01*
X67189Y66590D01*
X67116Y66559D01*
X67083Y66545D01*
X67053Y66529D01*
X67025Y66509D01*
X67003Y66495D01*
X66980Y66479D01*
X66964Y66465D01*
X66950Y66454D01*
X66942Y66445D01*
X66936Y66440D01*
X66933Y66437D01*
X66903Y66404D01*
X66878Y66368D01*
X66853Y66334D01*
X66833Y66298D01*
X66817Y66262D01*
X66803Y66229D01*
X66783Y66165D01*
X66775Y66134D01*
X66769Y66107D01*
X66767Y66084D01*
X66764Y66062D01*
X66761Y66046D01*
Y64535D01*
X66764Y64491D01*
X66769Y64447D01*
X66778Y64405D01*
X66789Y64366D01*
X66819Y64294D01*
X66836Y64261D01*
X66853Y64233D01*
X66869Y64205D01*
X66886Y64183D01*
X66903Y64161D01*
X66917Y64144D01*
X66928Y64130D01*
X66936Y64122D01*
X66942Y64116D01*
X66944Y64113D01*
X66980Y64083D01*
X67017Y64058D01*
X67053Y64033D01*
X67089Y64013D01*
X67125Y63997D01*
X67158Y63983D01*
X67225Y63963D01*
X67255Y63955D01*
X67280Y63950D01*
X67305Y63947D01*
X67327Y63944D01*
X67344Y63941D01*
X66761D01*
X67830D01*
X67855Y63944D01*
X67874Y63947D01*
X67894Y63955D01*
X67908Y63963D01*
X67919Y63969D01*
X67927Y63977D01*
X67930Y63980D01*
X67933Y63983D01*
X67944Y64000D01*
X67955Y64013D01*
X67963Y64041D01*
X67966Y64052D01*
X67969Y64061D01*
Y64199D01*
Y64069D01*
X67966Y64086D01*
X67963Y64102D01*
X67949Y64130D01*
X67941Y64141D01*
X67933Y64149D01*
X67930Y64155D01*
X67927Y64158D01*
X67910Y64172D01*
X67894Y64183D01*
X67877Y64188D01*
X67863Y64194D01*
X67849Y64197D01*
X67838Y64199D01*
X67366D01*
X67319Y64205D01*
X67275Y64216D01*
X67236Y64230D01*
X67202Y64249D01*
X67175Y64266D01*
X67153Y64283D01*
X67141Y64294D01*
X67136Y64297D01*
X67103Y64335D01*
X67080Y64374D01*
X67064Y64416D01*
X67050Y64452D01*
X67044Y64485D01*
X67041Y64513D01*
X67039Y64530D01*
Y64533D01*
Y64535D01*
Y66023D01*
X67044Y66076D01*
X67055Y66121D01*
X67069Y66162D01*
X67089Y66198D01*
X67105Y66226D01*
X67122Y66245D01*
X67133Y66257D01*
X67136Y66262D01*
X67175Y66295D01*
X67214Y66318D01*
X67252Y66334D01*
X67289Y66348D01*
X67319Y66354D01*
X67344Y66357D01*
X67361Y66359D01*
X67830D01*
X67855Y66362D01*
X67874Y66365D01*
X67894Y66373D01*
X67908Y66382D01*
X67919Y66387D01*
X67927Y66395D01*
X67930Y66398D01*
X67933Y66401D01*
X67944Y66418D01*
X67955Y66432D01*
X67963Y66462D01*
X67966Y66473D01*
X67969Y66481D01*
Y66084D01*
Y66490D01*
X67966Y66506D01*
X67963Y66523D01*
X67949Y66551D01*
X67941Y66559D01*
X67933Y66568D01*
X67930Y66573D01*
X67927Y66576D01*
X67910Y66590D01*
X67894Y66601D01*
X67877Y66606D01*
X67863Y66612D01*
X67849Y66615D01*
X67838Y66618D01*
X67969D01*
D02*
G37*
G36*
X62905Y66618D02*
X62433D01*
X62386Y66615D01*
X62341Y66609D01*
X62297Y66601D01*
X62255Y66590D01*
X62183Y66559D01*
X62150Y66545D01*
X62119Y66529D01*
X62091Y66509D01*
X62069Y66495D01*
X62047Y66479D01*
X62030Y66465D01*
X62017Y66454D01*
X62008Y66445D01*
X62003Y66440D01*
X62000Y66437D01*
X61969Y66404D01*
X61944Y66368D01*
X61919Y66334D01*
X61900Y66298D01*
X61883Y66262D01*
X61869Y66229D01*
X61850Y66165D01*
X61842Y66134D01*
X61836Y66107D01*
X61833Y66084D01*
X61831Y66062D01*
X61828Y66046D01*
Y64535D01*
X61831Y64491D01*
X61836Y64447D01*
X61844Y64405D01*
X61855Y64366D01*
X61886Y64294D01*
X61903Y64260D01*
X61919Y64233D01*
X61936Y64205D01*
X61953Y64183D01*
X61969Y64161D01*
X61983Y64144D01*
X61994Y64130D01*
X62003Y64122D01*
X62008Y64116D01*
X62011Y64113D01*
X62047Y64083D01*
X62083Y64058D01*
X62119Y64033D01*
X62155Y64013D01*
X62191Y63997D01*
X62225Y63983D01*
X62291Y63963D01*
X62322Y63955D01*
X62347Y63950D01*
X62372Y63947D01*
X62394Y63944D01*
X62411Y63941D01*
X61828D01*
X63035D01*
D01*
X62897D01*
X62922Y63944D01*
X62941Y63947D01*
X62960Y63955D01*
X62974Y63963D01*
X62985Y63969D01*
X62994Y63977D01*
X62997Y63980D01*
X62999Y63983D01*
X63010Y64000D01*
X63022Y64013D01*
X63030Y64041D01*
X63033Y64052D01*
X63035Y64061D01*
Y64069D01*
X63033Y64086D01*
X63030Y64102D01*
X63016Y64130D01*
X63008Y64141D01*
X62999Y64149D01*
X62997Y64155D01*
X62994Y64158D01*
X62977Y64172D01*
X62960Y64183D01*
X62944Y64188D01*
X62930Y64194D01*
X62916Y64197D01*
X62905Y64199D01*
X62433D01*
X62386Y64205D01*
X62341Y64216D01*
X62302Y64230D01*
X62269Y64249D01*
X62241Y64266D01*
X62219Y64283D01*
X62208Y64294D01*
X62203Y64297D01*
X62169Y64335D01*
X62147Y64374D01*
X62130Y64416D01*
X62116Y64452D01*
X62111Y64485D01*
X62108Y64513D01*
X62105Y64530D01*
Y64533D01*
Y64535D01*
Y66023D01*
X62111Y66076D01*
X62122Y66121D01*
X62136Y66162D01*
X62155Y66198D01*
X62172Y66226D01*
X62189Y66245D01*
X62200Y66257D01*
X62203Y66262D01*
X62241Y66295D01*
X62280Y66318D01*
X62319Y66334D01*
X62355Y66348D01*
X62386Y66354D01*
X62411Y66357D01*
X62427Y66359D01*
X62897D01*
X62922Y66362D01*
X62941Y66365D01*
X62960Y66373D01*
X62974Y66382D01*
X62985Y66387D01*
X62994Y66395D01*
X62997Y66398D01*
X62999Y66401D01*
X63010Y66418D01*
X63022Y66432D01*
X63030Y66462D01*
X63033Y66473D01*
X63035Y66481D01*
Y66026D01*
Y66490D01*
X63033Y66506D01*
X63030Y66523D01*
X63016Y66551D01*
X63008Y66559D01*
X62999Y66568D01*
X62997Y66573D01*
X62994Y66576D01*
X62977Y66590D01*
X62960Y66601D01*
X62944Y66606D01*
X62930Y66612D01*
X62916Y66615D01*
X62905Y66618D01*
D02*
G37*
G36*
X74204Y66618D02*
X73602D01*
X73554Y66615D01*
X73510Y66609D01*
X73466Y66601D01*
X73424Y66590D01*
X73352Y66559D01*
X73319Y66545D01*
X73288Y66529D01*
X73260Y66509D01*
X73238Y66495D01*
X73216Y66479D01*
X73199Y66465D01*
X73185Y66454D01*
X73177Y66445D01*
X73171Y66440D01*
X73169Y66437D01*
X73138Y66404D01*
X73113Y66368D01*
X73088Y66334D01*
X73069Y66298D01*
X73052Y66262D01*
X73038Y66229D01*
X73019Y66165D01*
X73010Y66134D01*
X73005Y66107D01*
X73002Y66084D01*
X72999Y66062D01*
X72996Y66046D01*
Y64535D01*
X72999Y64491D01*
X73005Y64447D01*
X73013Y64405D01*
X73024Y64366D01*
X73055Y64294D01*
X73071Y64261D01*
X73088Y64233D01*
X73105Y64205D01*
X73121Y64183D01*
X73138Y64161D01*
X73152Y64144D01*
X73163Y64130D01*
X73171Y64122D01*
X73177Y64116D01*
X73180Y64113D01*
X73216Y64083D01*
X73252Y64058D01*
X73288Y64033D01*
X73324Y64013D01*
X73360Y63997D01*
X73393Y63983D01*
X73460Y63963D01*
X73491Y63955D01*
X73516Y63950D01*
X73541Y63947D01*
X73563Y63944D01*
X73579Y63941D01*
X72996D01*
X74065D01*
X74090Y63944D01*
X74110Y63947D01*
X74129Y63955D01*
X74143Y63963D01*
X74154Y63969D01*
X74162Y63977D01*
X74165Y63980D01*
X74168Y63983D01*
X74179Y64000D01*
X74190Y64013D01*
X74199Y64041D01*
X74201Y64052D01*
X74204Y64061D01*
Y64069D01*
X74201Y64086D01*
X74199Y64102D01*
X74185Y64130D01*
X74176Y64141D01*
X74168Y64149D01*
X74165Y64155D01*
X74162Y64158D01*
X74146Y64172D01*
X74129Y64183D01*
X74113Y64188D01*
X74099Y64194D01*
X74085Y64197D01*
X74074Y64199D01*
X73602D01*
X73554Y64205D01*
X73510Y64216D01*
X73471Y64230D01*
X73438Y64249D01*
X73410Y64266D01*
X73388Y64283D01*
X73377Y64294D01*
X73371Y64297D01*
X73338Y64335D01*
X73316Y64374D01*
X73299Y64416D01*
X73285Y64452D01*
X73280Y64485D01*
X73277Y64513D01*
X73274Y64530D01*
Y64533D01*
Y64535D01*
Y66023D01*
X73280Y66076D01*
X73291Y66121D01*
X73305Y66162D01*
X73324Y66198D01*
X73341Y66226D01*
X73357Y66245D01*
X73368Y66257D01*
X73371Y66262D01*
X73410Y66295D01*
X73449Y66318D01*
X73488Y66334D01*
X73524Y66348D01*
X73554Y66354D01*
X73579Y66357D01*
X73596Y66359D01*
X74065D01*
X74090Y66362D01*
X74110Y66365D01*
X74129Y66373D01*
X74143Y66382D01*
X74154Y66387D01*
X74162Y66395D01*
X74165Y66398D01*
X74168Y66401D01*
X74179Y66418D01*
X74190Y66432D01*
X74199Y66462D01*
X74201Y66473D01*
X74204Y66481D01*
Y65543D01*
Y66490D01*
X74201Y66506D01*
X74199Y66523D01*
X74185Y66551D01*
X74176Y66559D01*
X74168Y66568D01*
X74165Y66573D01*
X74162Y66576D01*
X74146Y66590D01*
X74129Y66601D01*
X74113Y66606D01*
X74099Y66612D01*
X74085Y66615D01*
X74074Y66618D01*
X74204D01*
D02*
G37*
G36*
X75842Y66620D02*
X75834D01*
X75809Y66618D01*
X75787Y66612D01*
X75767Y66601D01*
X75750Y66593D01*
X75737Y66581D01*
X75728Y66570D01*
X75723Y66565D01*
X75720Y66562D01*
X74857Y65415D01*
Y66490D01*
X74854Y66509D01*
X74851Y66529D01*
X74834Y66556D01*
X74826Y66568D01*
X74820Y66576D01*
X74815Y66579D01*
X74812Y66581D01*
X74795Y66593D01*
X74779Y66604D01*
X74748Y66612D01*
X74737Y66615D01*
X74726Y66618D01*
X74718D01*
X74696Y66615D01*
X74676Y66612D01*
X74659Y66604D01*
X74646Y66595D01*
X74634Y66587D01*
X74626Y66581D01*
X74621Y66576D01*
X74618Y66573D01*
X74604Y66556D01*
X74596Y66543D01*
X74584Y66515D01*
X74582Y66504D01*
X74579Y66495D01*
Y66620D01*
Y63941D01*
Y64069D01*
X74582Y64047D01*
X74587Y64027D01*
X74593Y64011D01*
X74601Y63997D01*
X74609Y63986D01*
X74618Y63977D01*
X74621Y63975D01*
X74623Y63972D01*
X74646Y63961D01*
X74665Y63955D01*
X74682Y63950D01*
X74696Y63944D01*
X74707D01*
X74712Y63941D01*
X74579D01*
X75978D01*
D01*
X75825D01*
X75848Y63944D01*
X75870Y63947D01*
X75887Y63952D01*
X75903Y63961D01*
X75917Y63966D01*
X75925Y63972D01*
X75931Y63975D01*
X75934Y63977D01*
X75948Y63994D01*
X75959Y64011D01*
X75964Y64027D01*
X75970Y64041D01*
X75973Y64055D01*
X75975Y64066D01*
Y64072D01*
Y64075D01*
X75973Y64083D01*
Y64088D01*
X75964Y64116D01*
X75301Y65549D01*
X75950Y66415D01*
X75967Y66440D01*
X75975Y66465D01*
X75978Y66484D01*
Y66495D01*
Y66490D01*
X75975Y66509D01*
X75973Y66526D01*
X75956Y66554D01*
X75948Y66565D01*
X75942Y66573D01*
X75936Y66576D01*
X75934Y66579D01*
X75917Y66593D01*
X75900Y66604D01*
X75884Y66609D01*
X75867Y66615D01*
X75853Y66618D01*
X75842Y66620D01*
D02*
G37*
G36*
X64582Y65038D02*
X63455D01*
X63430Y65035D01*
X63407Y65030D01*
X63388Y65021D01*
X63371Y65013D01*
X63360Y65002D01*
X63352Y64993D01*
X63349Y64988D01*
X63346Y64985D01*
X63335Y64968D01*
X63330Y64952D01*
X63319Y64927D01*
X63316Y64913D01*
Y64907D01*
X63319Y64888D01*
X63321Y64871D01*
X63332Y64844D01*
X63338Y64832D01*
X63344Y64827D01*
X63349Y64821D01*
Y64819D01*
X63366Y64805D01*
X63382Y64794D01*
X63402Y64788D01*
X63419Y64782D01*
X63432Y64780D01*
X63444Y64777D01*
X64712D01*
Y64907D01*
X64709Y64924D01*
X64707Y64941D01*
X64693Y64968D01*
X64684Y64977D01*
X64676Y64985D01*
X64673Y64991D01*
X64671Y64993D01*
X64654Y65007D01*
X64637Y65018D01*
X64621Y65027D01*
X64607Y65032D01*
X64593Y65035D01*
X64582Y65038D01*
D02*
G37*
G36*
X66389Y64294D02*
D01*
D01*
D01*
D02*
G37*
G36*
Y64238D02*
D01*
D01*
D01*
D02*
G37*
G36*
X72494Y66618D02*
X72486D01*
X72463Y66615D01*
X72444Y66612D01*
X72427Y66604D01*
X72411Y66595D01*
X72400Y66587D01*
X72391Y66581D01*
X72386Y66576D01*
X72383Y66573D01*
X72369Y66556D01*
X72361Y66543D01*
X72350Y66515D01*
X72347Y66504D01*
X72344Y66495D01*
Y66493D01*
Y66490D01*
Y64535D01*
X72339Y64483D01*
X72327Y64435D01*
X72314Y64394D01*
X72294Y64360D01*
X72275Y64333D01*
X72261Y64310D01*
X72250Y64299D01*
X72244Y64294D01*
X72205Y64263D01*
X72166Y64238D01*
X72130Y64222D01*
X72094Y64211D01*
X72064Y64205D01*
X72039Y64202D01*
X72022Y64199D01*
X71830D01*
X71786Y64205D01*
X71744Y64216D01*
X71706Y64230D01*
X71672Y64249D01*
X71644Y64266D01*
X71625Y64283D01*
X71611Y64294D01*
X71606Y64297D01*
X71572Y64335D01*
X71547Y64377D01*
X71531Y64416D01*
X71520Y64455D01*
X71511Y64485D01*
X71508Y64513D01*
X71506Y64530D01*
Y64533D01*
Y64535D01*
Y66490D01*
X71503Y66509D01*
X71500Y66529D01*
X71483Y66556D01*
X71475Y66568D01*
X71470Y66576D01*
X71464Y66579D01*
X71461Y66581D01*
X71445Y66593D01*
X71428Y66604D01*
X71397Y66612D01*
X71386Y66615D01*
X71375Y66618D01*
X71367D01*
X71345Y66615D01*
X71325Y66612D01*
X71309Y66604D01*
X71295Y66595D01*
X71284Y66587D01*
X71275Y66581D01*
X71270Y66576D01*
X71267Y66573D01*
X71253Y66556D01*
X71245Y66543D01*
X71234Y66515D01*
X71231Y66504D01*
X71228Y66495D01*
Y64535D01*
X71231Y64488D01*
X71236Y64447D01*
X71245Y64405D01*
X71256Y64363D01*
X71286Y64291D01*
X71303Y64261D01*
X71320Y64230D01*
X71336Y64205D01*
X71353Y64180D01*
X71370Y64161D01*
X71383Y64144D01*
X71395Y64130D01*
X71403Y64122D01*
X71408Y64116D01*
X71411Y64113D01*
X71447Y64083D01*
X71483Y64058D01*
X71520Y64033D01*
X71556Y64013D01*
X71592Y63997D01*
X71625Y63983D01*
X71692Y63963D01*
X71719Y63955D01*
X71747Y63950D01*
X71772Y63947D01*
X71792Y63944D01*
X71808Y63941D01*
X71228D01*
X72624D01*
Y66490D01*
X72622Y66509D01*
X72619Y66529D01*
X72602Y66556D01*
X72594Y66568D01*
X72588Y66576D01*
X72583Y66579D01*
X72580Y66581D01*
X72563Y66593D01*
X72547Y66604D01*
X72516Y66612D01*
X72505Y66615D01*
X72494Y66618D01*
D02*
G37*
G36*
X66389Y64199D02*
D01*
D01*
D01*
D02*
G37*
G36*
Y64116D02*
D01*
D01*
D01*
D02*
G37*
G36*
X70856Y66618D02*
X69573D01*
X69554Y66612D01*
X69535Y66606D01*
X69518Y66598D01*
X69493Y66576D01*
X69476Y66554D01*
X69468Y66531D01*
X69462Y66509D01*
X69460Y66495D01*
Y63941D01*
Y64069D01*
X69462Y64047D01*
X69465Y64027D01*
X69482Y63994D01*
X69504Y63972D01*
X69529Y63958D01*
X69554Y63947D01*
X69576Y63944D01*
X69593Y63941D01*
X69460D01*
X70856D01*
Y64907D01*
X70853Y64966D01*
X70842Y65021D01*
X70828Y65071D01*
X70812Y65118D01*
X70792Y65154D01*
X70778Y65185D01*
X70773Y65196D01*
X70767Y65204D01*
X70764Y65207D01*
Y65210D01*
X70731Y65263D01*
X70698Y65304D01*
X70664Y65340D01*
X70637Y65365D01*
X70614Y65385D01*
X70595Y65399D01*
X70584Y65407D01*
X70578Y65410D01*
X70606Y65435D01*
X70631Y65463D01*
X70653Y65493D01*
X70673Y65521D01*
X70689Y65543D01*
X70701Y65565D01*
X70706Y65576D01*
X70709Y65582D01*
X70726Y65624D01*
X70739Y65668D01*
X70748Y65712D01*
X70756Y65751D01*
X70759Y65785D01*
X70762Y65812D01*
Y65824D01*
Y65832D01*
Y65835D01*
Y65837D01*
Y66023D01*
X70756Y66084D01*
X70748Y66146D01*
X70717Y66248D01*
X70698Y66290D01*
X70678Y66326D01*
X70656Y66359D01*
X70637Y66387D01*
X70617Y66409D01*
X70601Y66429D01*
X70589Y66440D01*
X70587Y66443D01*
X70553Y66473D01*
X70517Y66501D01*
X70481Y66523D01*
X70442Y66543D01*
X70406Y66562D01*
X70370Y66576D01*
X70304Y66595D01*
X70273Y66604D01*
X70245Y66609D01*
X70220Y66612D01*
X70198Y66615D01*
X70181Y66618D01*
X70856D01*
D02*
G37*
G36*
X65806Y66618D02*
X65106D01*
X65087Y66612D01*
X65068Y66606D01*
X65051Y66598D01*
X65026Y66576D01*
X65009Y66554D01*
X65001Y66531D01*
X64995Y66509D01*
X64993Y66495D01*
Y63941D01*
Y64069D01*
X64995Y64047D01*
X64998Y64027D01*
X65015Y63994D01*
X65037Y63972D01*
X65062Y63958D01*
X65087Y63947D01*
X65109Y63944D01*
X65126Y63941D01*
X64993D01*
X66389D01*
D01*
X65781D01*
X65828Y63944D01*
X65873Y63950D01*
X65914Y63958D01*
X65956Y63969D01*
X66031Y63997D01*
X66061Y64013D01*
X66092Y64030D01*
X66120Y64044D01*
X66142Y64061D01*
X66164Y64075D01*
X66181Y64088D01*
X66195Y64099D01*
X66203Y64108D01*
X66209Y64113D01*
X66211Y64116D01*
X66242Y64149D01*
X66270Y64186D01*
X66295Y64219D01*
X66314Y64255D01*
X66331Y64291D01*
X66345Y64324D01*
X66367Y64391D01*
X66375Y64422D01*
X66381Y64449D01*
X66384Y64474D01*
X66386Y64494D01*
X66389Y64510D01*
Y66023D01*
X66386Y66068D01*
X66381Y66112D01*
X66372Y66154D01*
X66361Y66193D01*
X66334Y66262D01*
X66317Y66295D01*
X66300Y66326D01*
X66284Y66351D01*
X66267Y66373D01*
X66253Y66395D01*
X66239Y66412D01*
X66228Y66426D01*
X66220Y66434D01*
X66214Y66440D01*
X66211Y66443D01*
X66178Y66473D01*
X66142Y66501D01*
X66106Y66523D01*
X66070Y66543D01*
X66034Y66562D01*
X65998Y66576D01*
X65931Y66595D01*
X65898Y66604D01*
X65870Y66609D01*
X65845Y66612D01*
X65823Y66615D01*
X65806Y66618D01*
D02*
G37*
G36*
X61456D02*
X60059D01*
D01*
X60173D01*
X60154Y66612D01*
X60134Y66606D01*
X60118Y66598D01*
X60093Y66576D01*
X60076Y66554D01*
X60068Y66531D01*
X60062Y66509D01*
X60059Y66495D01*
Y63941D01*
Y64069D01*
X60062Y64047D01*
X60065Y64027D01*
X60082Y63994D01*
X60104Y63972D01*
X60129Y63958D01*
X60154Y63947D01*
X60176Y63944D01*
X60193Y63941D01*
X61456D01*
Y66023D01*
X61453Y66068D01*
X61447Y66112D01*
X61439Y66154D01*
X61428Y66193D01*
X61400Y66262D01*
X61384Y66295D01*
X61367Y66326D01*
X61350Y66351D01*
X61334Y66373D01*
X61320Y66395D01*
X61306Y66412D01*
X61295Y66426D01*
X61286Y66434D01*
X61281Y66440D01*
X61278Y66443D01*
X61245Y66473D01*
X61209Y66501D01*
X61173Y66523D01*
X61136Y66543D01*
X61100Y66562D01*
X61064Y66576D01*
X60998Y66595D01*
X60964Y66604D01*
X60937Y66609D01*
X60912Y66612D01*
X60889Y66615D01*
X60873Y66618D01*
X61456D01*
D02*
G37*
G36*
X65180Y63406D02*
X65050D01*
D01*
X65180D01*
D02*
G37*
G36*
X65050D02*
X65041D01*
D01*
X64906D01*
X65041D01*
X65019Y63403D01*
X65000Y63400D01*
X64983Y63392D01*
X64966Y63384D01*
X64955Y63375D01*
X64947Y63370D01*
X64941Y63364D01*
X64938Y63362D01*
X64925Y63345D01*
X64916Y63331D01*
X64905Y63303D01*
X64902Y63292D01*
X64900Y63284D01*
Y63281D01*
Y63278D01*
Y61488D01*
X64047Y63328D01*
X64031Y63356D01*
X64011Y63375D01*
X63997Y63387D01*
X63995Y63389D01*
X63992D01*
X63967Y63400D01*
X63945Y63403D01*
X63928Y63406D01*
X63922D01*
X63900Y63403D01*
X63881Y63400D01*
X63864Y63392D01*
X63850Y63384D01*
X63839Y63375D01*
X63831Y63370D01*
X63825Y63364D01*
X63822Y63362D01*
X63809Y63345D01*
X63800Y63331D01*
X63789Y63303D01*
X63786Y63292D01*
X63784Y63284D01*
Y60730D01*
Y60857D01*
X63786Y60835D01*
X63792Y60816D01*
X63797Y60799D01*
X63806Y60785D01*
X63814Y60774D01*
X63822Y60766D01*
X63825Y60763D01*
X63828Y60760D01*
X63850Y60749D01*
X63870Y60744D01*
X63886Y60738D01*
X63900Y60732D01*
X63911D01*
X63917Y60730D01*
X63784D01*
X64586D01*
X63922D01*
X63945Y60732D01*
X63964Y60735D01*
X63981Y60741D01*
X63997Y60749D01*
X64008Y60755D01*
X64017Y60760D01*
X64022Y60763D01*
X64025Y60766D01*
X64036Y60780D01*
X64047Y60794D01*
X64056Y60824D01*
X64058Y60838D01*
X64061Y60849D01*
Y60855D01*
Y60857D01*
Y62645D01*
X64916Y60802D01*
X64966Y60746D01*
X65033Y60730D01*
D01*
X65055Y60732D01*
X65077Y60735D01*
X65094Y60741D01*
X65111Y60749D01*
X65125Y60755D01*
X65136Y60760D01*
X65141Y60763D01*
X65144Y60766D01*
X65155Y60785D01*
X65166Y60805D01*
X65174Y60832D01*
X65177Y60844D01*
X65180Y60852D01*
Y60741D01*
Y63278D01*
X65177Y63298D01*
X65174Y63317D01*
X65158Y63345D01*
X65149Y63356D01*
X65144Y63364D01*
X65138Y63367D01*
X65136Y63370D01*
X65119Y63381D01*
X65102Y63392D01*
X65072Y63400D01*
X65061Y63403D01*
X65050Y63406D01*
D02*
G37*
G36*
X72254Y63151D02*
D01*
D01*
D01*
D02*
G37*
G36*
Y63148D02*
D01*
D01*
D01*
D02*
G37*
G36*
Y63009D02*
D01*
D01*
D01*
D02*
G37*
G36*
Y62834D02*
Y62817D01*
D01*
Y62834D01*
D02*
G37*
G36*
Y62398D02*
Y62387D01*
D01*
Y62398D01*
D02*
G37*
G36*
Y62201D02*
Y62196D01*
D01*
Y62201D01*
D02*
G37*
G36*
X61640Y63406D02*
X60433D01*
D01*
X61038D01*
X60991Y63403D01*
X60946Y63398D01*
X60902Y63389D01*
X60860Y63378D01*
X60788Y63348D01*
X60755Y63334D01*
X60724Y63317D01*
X60696Y63298D01*
X60674Y63284D01*
X60652Y63267D01*
X60635Y63253D01*
X60621Y63242D01*
X60613Y63234D01*
X60608Y63228D01*
X60605Y63226D01*
X60574Y63192D01*
X60549Y63156D01*
X60524Y63123D01*
X60505Y63087D01*
X60488Y63051D01*
X60474Y63017D01*
X60455Y62953D01*
X60447Y62923D01*
X60441Y62895D01*
X60438Y62873D01*
X60435Y62851D01*
X60433Y62834D01*
Y61324D01*
X60435Y61279D01*
X60441Y61235D01*
X60449Y61193D01*
X60460Y61154D01*
X60491Y61082D01*
X60508Y61049D01*
X60524Y61021D01*
X60541Y60993D01*
X60558Y60971D01*
X60574Y60949D01*
X60588Y60932D01*
X60599Y60918D01*
X60608Y60910D01*
X60613Y60905D01*
X60616Y60902D01*
X60652Y60871D01*
X60688Y60846D01*
X60724Y60821D01*
X60760Y60802D01*
X60796Y60785D01*
X60830Y60771D01*
X60896Y60752D01*
X60927Y60744D01*
X60952Y60738D01*
X60977Y60735D01*
X60999Y60732D01*
X61016Y60730D01*
X61502D01*
X61527Y60732D01*
X61546Y60735D01*
X61565Y60744D01*
X61579Y60752D01*
X61590Y60757D01*
X61599Y60766D01*
X61601Y60769D01*
X61604Y60771D01*
X61615Y60788D01*
X61626Y60802D01*
X61635Y60830D01*
X61638Y60841D01*
X61640Y60849D01*
Y60857D01*
Y60857D01*
X61638Y60874D01*
X61635Y60891D01*
X61621Y60918D01*
X61613Y60930D01*
X61604Y60938D01*
X61601Y60943D01*
X61599Y60946D01*
X61582Y60960D01*
X61565Y60971D01*
X61549Y60977D01*
X61535Y60982D01*
X61521Y60985D01*
X61510Y60988D01*
X61038D01*
X60991Y60993D01*
X60946Y61005D01*
X60907Y61018D01*
X60874Y61038D01*
X60846Y61055D01*
X60824Y61071D01*
X60813Y61082D01*
X60807Y61085D01*
X60774Y61124D01*
X60752Y61163D01*
X60735Y61204D01*
X60721Y61241D01*
X60716Y61274D01*
X60713Y61302D01*
X60710Y61318D01*
Y61321D01*
Y61324D01*
Y62812D01*
X60716Y62865D01*
X60727Y62909D01*
X60741Y62951D01*
X60760Y62987D01*
X60777Y63015D01*
X60794Y63034D01*
X60805Y63045D01*
X60807Y63051D01*
X60846Y63084D01*
X60885Y63106D01*
X60924Y63123D01*
X60960Y63137D01*
X60991Y63142D01*
X61016Y63145D01*
X61032Y63148D01*
X61502D01*
X61527Y63151D01*
X61546Y63153D01*
X61565Y63162D01*
X61579Y63170D01*
X61590Y63176D01*
X61599Y63184D01*
X61601Y63187D01*
X61604Y63189D01*
X61615Y63206D01*
X61626Y63220D01*
X61635Y63251D01*
X61638Y63262D01*
X61640Y63270D01*
Y62107D01*
Y63278D01*
X61638Y63295D01*
X61635Y63312D01*
X61621Y63339D01*
X61613Y63348D01*
X61604Y63356D01*
X61601Y63362D01*
X61599Y63364D01*
X61582Y63378D01*
X61565Y63389D01*
X61549Y63395D01*
X61535Y63400D01*
X61521Y63403D01*
X61510Y63406D01*
X61640D01*
D02*
G37*
G36*
X68586Y63406D02*
X67623D01*
X67601Y63400D01*
X67581Y63395D01*
X67568Y63387D01*
X67540Y63364D01*
X67523Y63342D01*
X67515Y63320D01*
X67509Y63298D01*
X67507Y63284D01*
Y60730D01*
Y60857D01*
X67509Y60835D01*
X67512Y60816D01*
X67529Y60782D01*
X67551Y60760D01*
X67579Y60746D01*
X67604Y60735D01*
X67626Y60732D01*
X67643Y60730D01*
X67507D01*
X68717D01*
D01*
X68578D01*
X68603Y60732D01*
X68623Y60735D01*
X68642Y60744D01*
X68656Y60752D01*
X68667Y60757D01*
X68675Y60766D01*
X68678Y60769D01*
X68681Y60771D01*
X68692Y60788D01*
X68703Y60802D01*
X68711Y60830D01*
X68714Y60841D01*
X68717Y60849D01*
Y60857D01*
D01*
X68714Y60874D01*
X68711Y60891D01*
X68698Y60918D01*
X68689Y60930D01*
X68681Y60938D01*
X68678Y60943D01*
X68675Y60946D01*
X68659Y60960D01*
X68642Y60971D01*
X68625Y60977D01*
X68611Y60982D01*
X68598Y60985D01*
X68586Y60988D01*
X67787D01*
Y62029D01*
X68206D01*
X68231Y62032D01*
X68251Y62035D01*
X68267Y62043D01*
X68284Y62051D01*
X68295Y62057D01*
X68303Y62065D01*
X68306Y62068D01*
X68309Y62071D01*
X68320Y62087D01*
X68331Y62104D01*
X68339Y62132D01*
X68342Y62143D01*
X68345Y62151D01*
Y62157D01*
Y62159D01*
X68342Y62176D01*
X68339Y62193D01*
X68325Y62221D01*
X68317Y62229D01*
X68309Y62237D01*
X68306Y62243D01*
X68303Y62246D01*
X68287Y62259D01*
X68270Y62271D01*
X68253Y62279D01*
X68239Y62284D01*
X68226Y62287D01*
X68214Y62290D01*
X67787D01*
Y63148D01*
X68578D01*
X68603Y63151D01*
X68623Y63153D01*
X68642Y63162D01*
X68656Y63170D01*
X68667Y63176D01*
X68675Y63184D01*
X68678Y63187D01*
X68681Y63189D01*
X68692Y63206D01*
X68703Y63220D01*
X68711Y63251D01*
X68714Y63262D01*
X68717Y63270D01*
Y62057D01*
Y63278D01*
X68714Y63295D01*
X68711Y63312D01*
X68698Y63339D01*
X68689Y63348D01*
X68681Y63356D01*
X68678Y63362D01*
X68675Y63364D01*
X68659Y63378D01*
X68642Y63389D01*
X68625Y63395D01*
X68611Y63400D01*
X68598Y63403D01*
X68586Y63406D01*
D02*
G37*
G36*
X73836D02*
X72626D01*
D01*
X72742D01*
X72720Y63400D01*
X72701Y63395D01*
X72687Y63387D01*
X72659Y63364D01*
X72643Y63342D01*
X72634Y63320D01*
X72629Y63298D01*
X72626Y63284D01*
Y60730D01*
Y60857D01*
X72629Y60835D01*
X72631Y60816D01*
X72648Y60782D01*
X72670Y60760D01*
X72698Y60746D01*
X72723Y60735D01*
X72745Y60732D01*
X72762Y60730D01*
X73697D01*
X73722Y60732D01*
X73742Y60735D01*
X73761Y60744D01*
X73775Y60752D01*
X73786Y60757D01*
X73795Y60766D01*
X73797Y60769D01*
X73800Y60771D01*
X73811Y60788D01*
X73822Y60802D01*
X73831Y60830D01*
X73834Y60841D01*
X73836Y60849D01*
Y60882D01*
Y60857D01*
X73834Y60874D01*
X73831Y60891D01*
X73817Y60918D01*
X73809Y60930D01*
X73800Y60938D01*
X73797Y60943D01*
X73795Y60946D01*
X73778Y60960D01*
X73761Y60971D01*
X73745Y60977D01*
X73731Y60982D01*
X73717Y60985D01*
X73706Y60988D01*
X72906D01*
Y62029D01*
X73325D01*
X73350Y62032D01*
X73370Y62035D01*
X73387Y62043D01*
X73403Y62051D01*
X73414Y62057D01*
X73423Y62065D01*
X73425Y62068D01*
X73428Y62071D01*
X73439Y62087D01*
X73450Y62104D01*
X73459Y62132D01*
X73461Y62143D01*
X73464Y62151D01*
Y62157D01*
Y62159D01*
X73461Y62176D01*
X73459Y62193D01*
X73445Y62221D01*
X73437Y62229D01*
X73428Y62237D01*
X73425Y62243D01*
X73423Y62246D01*
X73406Y62259D01*
X73389Y62271D01*
X73373Y62279D01*
X73359Y62284D01*
X73345Y62287D01*
X73334Y62290D01*
X72906D01*
Y63148D01*
X73697D01*
X73722Y63151D01*
X73742Y63153D01*
X73761Y63162D01*
X73775Y63170D01*
X73786Y63176D01*
X73795Y63184D01*
X73797Y63187D01*
X73800Y63189D01*
X73811Y63206D01*
X73822Y63220D01*
X73831Y63251D01*
X73834Y63262D01*
X73836Y63270D01*
Y62043D01*
Y63278D01*
X73834Y63295D01*
X73831Y63312D01*
X73817Y63339D01*
X73809Y63348D01*
X73800Y63356D01*
X73797Y63362D01*
X73795Y63364D01*
X73778Y63378D01*
X73761Y63389D01*
X73745Y63395D01*
X73731Y63400D01*
X73717Y63403D01*
X73706Y63406D01*
X73836D01*
D02*
G37*
G36*
X67129Y63403D02*
X66985D01*
X66948Y63395D01*
X66921Y63384D01*
X66910Y63378D01*
X66901Y63373D01*
X66899Y63370D01*
X66896D01*
X66876Y63345D01*
X66862Y63325D01*
X66857Y63312D01*
X66854Y63309D01*
Y63306D01*
X66338Y61402D01*
X65821Y63306D01*
X65810Y63328D01*
X65799Y63345D01*
X65791Y63356D01*
X65780Y63367D01*
X65771Y63373D01*
X65766Y63378D01*
X65763Y63381D01*
X65760D01*
X65735Y63395D01*
X65713Y63400D01*
X65694Y63403D01*
X65688D01*
X65666Y63400D01*
X65646Y63398D01*
X65630Y63389D01*
X65613Y63384D01*
X65602Y63375D01*
X65594Y63367D01*
X65588Y63364D01*
X65585Y63362D01*
X65571Y63348D01*
X65563Y63331D01*
X65552Y63303D01*
X65549Y63292D01*
X65546Y63284D01*
D01*
D01*
Y63276D01*
X65552Y63242D01*
X66204Y60841D01*
X66218Y60805D01*
X66238Y60777D01*
X66260Y60757D01*
X66282Y60744D01*
X66304Y60735D01*
X66321Y60732D01*
X66332Y60730D01*
X65546D01*
X66338D01*
X66374Y60735D01*
X66404Y60746D01*
X66427Y60766D01*
X66443Y60785D01*
X66457Y60805D01*
X66465Y60824D01*
X66471Y60835D01*
Y60841D01*
X67126Y63242D01*
X67129Y63273D01*
X67126Y63295D01*
X67123Y63312D01*
X67109Y63342D01*
X67101Y63353D01*
X67093Y63362D01*
X67090Y63364D01*
X67087Y63367D01*
X67071Y63378D01*
X67054Y63389D01*
X67021Y63398D01*
X67007Y63400D01*
X66996Y63403D01*
X67129D01*
D02*
G37*
G36*
X75605Y63406D02*
X74208D01*
D01*
X74322D01*
X74303Y63400D01*
X74283Y63395D01*
X74267Y63387D01*
X74242Y63364D01*
X74225Y63342D01*
X74217Y63320D01*
X74211Y63298D01*
X74208Y63284D01*
Y60730D01*
Y60857D01*
X74211Y60835D01*
X74217Y60816D01*
X74222Y60799D01*
X74231Y60785D01*
X74239Y60774D01*
X74247Y60766D01*
X74250Y60763D01*
X74253Y60760D01*
X74275Y60749D01*
X74294Y60744D01*
X74311Y60738D01*
X74325Y60732D01*
X74336D01*
X74342Y60730D01*
X74347D01*
X74369Y60732D01*
X74389Y60735D01*
X74405Y60741D01*
X74422Y60749D01*
X74433Y60755D01*
X74441Y60760D01*
X74447Y60763D01*
X74450Y60766D01*
X74461Y60780D01*
X74472Y60794D01*
X74480Y60824D01*
X74483Y60838D01*
X74486Y60849D01*
Y60855D01*
Y60857D01*
Y61846D01*
X74730D01*
X75341Y60796D01*
X75358Y60777D01*
X75374Y60760D01*
X75385Y60749D01*
X75391Y60746D01*
X75416Y60738D01*
X75438Y60732D01*
X75455Y60730D01*
X75605D01*
Y62812D01*
X75602Y62856D01*
X75596Y62901D01*
X75588Y62942D01*
X75577Y62981D01*
X75549Y63051D01*
X75533Y63084D01*
X75516Y63114D01*
X75499Y63139D01*
X75483Y63162D01*
X75469Y63184D01*
X75455Y63201D01*
X75444Y63214D01*
X75435Y63223D01*
X75430Y63228D01*
X75427Y63231D01*
X75394Y63262D01*
X75358Y63289D01*
X75322Y63312D01*
X75285Y63331D01*
X75249Y63350D01*
X75213Y63364D01*
X75147Y63384D01*
X75113Y63392D01*
X75086Y63398D01*
X75061Y63400D01*
X75038Y63403D01*
X75022Y63406D01*
X75605D01*
D02*
G37*
G36*
X72254D02*
X70996D01*
X70971Y63403D01*
X70949Y63398D01*
X70930Y63389D01*
X70913Y63381D01*
X70902Y63373D01*
X70893Y63364D01*
X70891Y63359D01*
X70888Y63356D01*
X70877Y63339D01*
X70871Y63323D01*
X70860Y63298D01*
X70857Y63284D01*
Y63278D01*
X70860Y63259D01*
X70863Y63242D01*
X70874Y63214D01*
X70880Y63203D01*
X70885Y63195D01*
X70891Y63189D01*
Y63187D01*
X70907Y63173D01*
X70924Y63164D01*
X70957Y63153D01*
X70974Y63151D01*
X70985Y63148D01*
X71415D01*
Y60857D01*
X71418Y60835D01*
X71424Y60816D01*
X71429Y60799D01*
X71438Y60785D01*
X71446Y60774D01*
X71454Y60766D01*
X71457Y60763D01*
X71460Y60760D01*
X71482Y60749D01*
X71501Y60744D01*
X71518Y60738D01*
X71532Y60732D01*
X71543D01*
X71549Y60730D01*
X70857D01*
X71554D01*
X71576Y60732D01*
X71596Y60735D01*
X71613Y60741D01*
X71629Y60749D01*
X71640Y60755D01*
X71649Y60760D01*
X71654Y60763D01*
X71657Y60766D01*
X71668Y60780D01*
X71679Y60794D01*
X71687Y60824D01*
X71690Y60838D01*
X71693Y60849D01*
Y60855D01*
Y60857D01*
Y63148D01*
X72115D01*
X72140Y63151D01*
X72159Y63153D01*
X72179Y63162D01*
X72193Y63170D01*
X72204Y63176D01*
X72212Y63184D01*
X72215Y63187D01*
X72218Y63189D01*
X72229Y63206D01*
X72240Y63220D01*
X72248Y63251D01*
X72251Y63262D01*
X72254Y63270D01*
Y63278D01*
X72251Y63295D01*
X72248Y63312D01*
X72234Y63339D01*
X72226Y63348D01*
X72218Y63356D01*
X72215Y63362D01*
X72212Y63364D01*
X72196Y63378D01*
X72179Y63389D01*
X72162Y63395D01*
X72148Y63400D01*
X72134Y63403D01*
X72123Y63406D01*
X72254D01*
D02*
G37*
G36*
X69902D02*
X69203D01*
X69183Y63400D01*
X69164Y63395D01*
X69147Y63387D01*
X69122Y63364D01*
X69106Y63342D01*
X69097Y63320D01*
X69092Y63298D01*
X69089Y63284D01*
Y60730D01*
Y60857D01*
X69092Y60835D01*
X69097Y60816D01*
X69103Y60799D01*
X69111Y60785D01*
X69119Y60774D01*
X69128Y60766D01*
X69131Y60763D01*
X69133Y60760D01*
X69156Y60749D01*
X69175Y60744D01*
X69192Y60738D01*
X69206Y60732D01*
X69217D01*
X69222Y60730D01*
X69089D01*
X69459D01*
X69228D01*
X69250Y60732D01*
X69269Y60735D01*
X69286Y60741D01*
X69303Y60749D01*
X69314Y60755D01*
X69322Y60760D01*
X69328Y60763D01*
X69330Y60766D01*
X69342Y60780D01*
X69353Y60794D01*
X69361Y60824D01*
X69364Y60838D01*
X69367Y60849D01*
Y60855D01*
Y60857D01*
Y61846D01*
X69611D01*
X70222Y60796D01*
X70238Y60777D01*
X70255Y60760D01*
X70266Y60749D01*
X70272Y60746D01*
X70297Y60738D01*
X70319Y60732D01*
X70335Y60730D01*
X70485D01*
Y63162D01*
Y62812D01*
X70483Y62856D01*
X70477Y62901D01*
X70469Y62942D01*
X70458Y62981D01*
X70430Y63051D01*
X70413Y63084D01*
X70397Y63114D01*
X70380Y63139D01*
X70363Y63162D01*
X70349Y63184D01*
X70335Y63201D01*
X70324Y63214D01*
X70316Y63223D01*
X70310Y63228D01*
X70308Y63231D01*
X70274Y63262D01*
X70238Y63289D01*
X70202Y63312D01*
X70166Y63331D01*
X70130Y63350D01*
X70094Y63364D01*
X70027Y63384D01*
X69994Y63392D01*
X69966Y63398D01*
X69941Y63400D01*
X69919Y63403D01*
X69902Y63406D01*
D02*
G37*
G36*
X63412Y63406D02*
X62015D01*
D01*
X62618D01*
X62570Y63403D01*
X62526Y63398D01*
X62484Y63389D01*
X62443Y63378D01*
X62370Y63348D01*
X62337Y63334D01*
X62307Y63317D01*
X62279Y63298D01*
X62257Y63284D01*
X62234Y63267D01*
X62218Y63253D01*
X62204Y63242D01*
X62196Y63234D01*
X62190Y63228D01*
X62187Y63226D01*
X62157Y63192D01*
X62132Y63156D01*
X62107Y63123D01*
X62087Y63087D01*
X62071Y63051D01*
X62057Y63017D01*
X62037Y62953D01*
X62029Y62923D01*
X62023Y62895D01*
X62021Y62873D01*
X62018Y62851D01*
X62015Y62834D01*
Y61324D01*
X62018Y61277D01*
X62023Y61235D01*
X62032Y61193D01*
X62043Y61152D01*
X62073Y61080D01*
X62090Y61049D01*
X62107Y61018D01*
X62123Y60993D01*
X62140Y60968D01*
X62157Y60949D01*
X62171Y60932D01*
X62182Y60918D01*
X62190Y60910D01*
X62196Y60905D01*
X62198Y60902D01*
X62234Y60871D01*
X62271Y60846D01*
X62307Y60821D01*
X62343Y60802D01*
X62379Y60785D01*
X62412Y60771D01*
X62479Y60752D01*
X62507Y60744D01*
X62534Y60738D01*
X62559Y60735D01*
X62579Y60732D01*
X62595Y60730D01*
X63412D01*
Y62812D01*
Y62812D01*
X63409Y62856D01*
X63403Y62901D01*
X63395Y62942D01*
X63384Y62981D01*
X63356Y63051D01*
X63339Y63084D01*
X63323Y63114D01*
X63306Y63139D01*
X63289Y63162D01*
X63276Y63184D01*
X63262Y63201D01*
X63251Y63214D01*
X63242Y63223D01*
X63237Y63228D01*
X63234Y63231D01*
X63201Y63262D01*
X63164Y63289D01*
X63128Y63312D01*
X63092Y63331D01*
X63056Y63350D01*
X63020Y63364D01*
X62953Y63384D01*
X62920Y63392D01*
X62892Y63398D01*
X62867Y63400D01*
X62845Y63403D01*
X62829Y63406D01*
X63412D01*
D02*
G37*
G36*
X61016Y60730D02*
X60978D01*
X61016D01*
D01*
D02*
G37*
%LPD*%
G36*
X75712Y64013D02*
X75759Y63961D01*
X75825Y63941D01*
X74718D01*
X74740Y63944D01*
X74759Y63947D01*
X74776Y63952D01*
X74793Y63961D01*
X74804Y63966D01*
X74812Y63972D01*
X74818Y63975D01*
X74820Y63977D01*
X74832Y63991D01*
X74843Y64005D01*
X74851Y64036D01*
X74854Y64050D01*
X74857Y64061D01*
Y64066D01*
Y64069D01*
Y64960D01*
X75112Y65299D01*
X75712Y64013D01*
D02*
G37*
G36*
X64712Y64777D02*
X64573D01*
X64598Y64780D01*
X64618Y64782D01*
X64634Y64791D01*
X64651Y64799D01*
X64662Y64805D01*
X64671Y64813D01*
X64673Y64816D01*
X64676Y64819D01*
X64687Y64835D01*
X64698Y64852D01*
X64707Y64880D01*
X64709Y64891D01*
X64712Y64899D01*
Y64777D01*
D02*
G37*
G36*
X72624Y63941D02*
X72016D01*
X72064Y63944D01*
X72108Y63950D01*
X72150Y63958D01*
X72191Y63969D01*
X72266Y63997D01*
X72297Y64013D01*
X72327Y64030D01*
X72355Y64044D01*
X72377Y64061D01*
X72400Y64075D01*
X72416Y64088D01*
X72430Y64099D01*
X72438Y64108D01*
X72444Y64113D01*
X72447Y64116D01*
X72477Y64149D01*
X72505Y64186D01*
X72530Y64219D01*
X72549Y64255D01*
X72566Y64291D01*
X72580Y64324D01*
X72602Y64391D01*
X72611Y64422D01*
X72616Y64449D01*
X72619Y64474D01*
X72622Y64494D01*
X72624Y64510D01*
Y63941D01*
D02*
G37*
G36*
X70206Y66357D02*
X70251Y66345D01*
X70290Y66329D01*
X70323Y66312D01*
X70351Y66293D01*
X70370Y66279D01*
X70381Y66268D01*
X70387Y66262D01*
X70417Y66223D01*
X70442Y66184D01*
X70459Y66143D01*
X70470Y66107D01*
X70476Y66073D01*
X70481Y66048D01*
Y66029D01*
Y66026D01*
Y66023D01*
Y65837D01*
X70478Y65787D01*
X70467Y65740D01*
X70451Y65699D01*
X70434Y65665D01*
X70415Y65638D01*
X70401Y65615D01*
X70390Y65604D01*
X70384Y65599D01*
X70345Y65565D01*
X70306Y65543D01*
X70270Y65526D01*
X70234Y65513D01*
X70204Y65507D01*
X70179Y65504D01*
X70162Y65501D01*
X69737D01*
Y66359D01*
X70156D01*
X70206Y66357D01*
D02*
G37*
G36*
X70292Y65235D02*
X70337Y65224D01*
X70373Y65207D01*
X70406Y65191D01*
X70434Y65171D01*
X70456Y65154D01*
X70467Y65143D01*
X70473Y65138D01*
X70506Y65099D01*
X70531Y65060D01*
X70551Y65021D01*
X70562Y64985D01*
X70570Y64955D01*
X70573Y64930D01*
X70576Y64913D01*
Y64910D01*
Y64907D01*
Y64535D01*
X70570Y64483D01*
X70559Y64435D01*
X70545Y64394D01*
X70526Y64360D01*
X70506Y64333D01*
X70492Y64310D01*
X70481Y64299D01*
X70476Y64294D01*
X70437Y64263D01*
X70398Y64238D01*
X70362Y64222D01*
X70326Y64211D01*
X70295Y64205D01*
X70270Y64202D01*
X70254Y64199D01*
X69737D01*
Y65241D01*
X70248D01*
X70292Y65235D01*
D02*
G37*
G36*
X70856Y63941D02*
X70248D01*
X70292Y63944D01*
X70334Y63950D01*
X70376Y63958D01*
X70415Y63969D01*
X70484Y63997D01*
X70548Y64030D01*
X70576Y64047D01*
X70598Y64063D01*
X70620Y64077D01*
X70637Y64091D01*
X70651Y64102D01*
X70662Y64111D01*
X70667Y64116D01*
X70670Y64119D01*
X70703Y64152D01*
X70731Y64188D01*
X70756Y64224D01*
X70778Y64258D01*
X70795Y64294D01*
X70812Y64330D01*
X70834Y64394D01*
X70839Y64424D01*
X70845Y64449D01*
X70850Y64474D01*
X70853Y64496D01*
X70856Y64513D01*
Y63941D01*
D02*
G37*
G36*
X65828Y66354D02*
X65873Y66343D01*
X65912Y66329D01*
X65948Y66309D01*
X65973Y66290D01*
X65995Y66276D01*
X66006Y66265D01*
X66012Y66259D01*
X66045Y66221D01*
X66067Y66182D01*
X66084Y66143D01*
X66098Y66104D01*
X66103Y66073D01*
X66106Y66046D01*
X66109Y66029D01*
Y66026D01*
Y66023D01*
Y64535D01*
X66103Y64483D01*
X66092Y64435D01*
X66078Y64394D01*
X66059Y64360D01*
X66039Y64333D01*
X66025Y64310D01*
X66014Y64299D01*
X66009Y64294D01*
X65970Y64263D01*
X65931Y64238D01*
X65895Y64222D01*
X65859Y64211D01*
X65828Y64205D01*
X65803Y64202D01*
X65787Y64199D01*
X65270D01*
Y66359D01*
X65781D01*
X65828Y66354D01*
D02*
G37*
G36*
X60895D02*
X60939Y66343D01*
X60978Y66329D01*
X61014Y66309D01*
X61039Y66290D01*
X61062Y66276D01*
X61073Y66265D01*
X61078Y66259D01*
X61111Y66221D01*
X61134Y66182D01*
X61150Y66143D01*
X61164Y66104D01*
X61170Y66073D01*
X61173Y66046D01*
X61175Y66029D01*
Y66026D01*
Y66023D01*
Y64535D01*
X61170Y64483D01*
X61159Y64435D01*
X61145Y64394D01*
X61125Y64360D01*
X61106Y64333D01*
X61092Y64310D01*
X61081Y64299D01*
X61075Y64294D01*
X61037Y64263D01*
X60998Y64238D01*
X60962Y64222D01*
X60925Y64211D01*
X60895Y64205D01*
X60870Y64202D01*
X60853Y64199D01*
X60337D01*
Y66359D01*
X60848D01*
X60895Y66354D01*
D02*
G37*
G36*
X61456Y63941D02*
X60848D01*
X60895Y63944D01*
X60939Y63950D01*
X60981Y63958D01*
X61023Y63969D01*
X61098Y63997D01*
X61128Y64013D01*
X61159Y64030D01*
X61186Y64044D01*
X61209Y64061D01*
X61231Y64075D01*
X61248Y64088D01*
X61261Y64099D01*
X61270Y64108D01*
X61275Y64113D01*
X61278Y64116D01*
X61309Y64149D01*
X61336Y64186D01*
X61361Y64219D01*
X61381Y64255D01*
X61397Y64291D01*
X61411Y64324D01*
X61434Y64391D01*
X61442Y64422D01*
X61447Y64449D01*
X61450Y64474D01*
X61453Y64494D01*
X61456Y64510D01*
Y63941D01*
D02*
G37*
G36*
X75044Y63142D02*
X75088Y63131D01*
X75127Y63117D01*
X75163Y63098D01*
X75188Y63078D01*
X75211Y63065D01*
X75222Y63053D01*
X75227Y63048D01*
X75260Y63009D01*
X75283Y62970D01*
X75299Y62931D01*
X75313Y62892D01*
X75319Y62862D01*
X75322Y62834D01*
X75324Y62817D01*
Y62815D01*
Y62812D01*
Y62440D01*
X75319Y62387D01*
X75308Y62343D01*
X75294Y62301D01*
X75274Y62268D01*
X75255Y62240D01*
X75241Y62218D01*
X75230Y62207D01*
X75224Y62201D01*
X75186Y62171D01*
X75147Y62146D01*
X75111Y62129D01*
X75074Y62118D01*
X75044Y62112D01*
X75019Y62109D01*
X75002Y62107D01*
X74486D01*
Y63148D01*
X74997D01*
X75044Y63142D01*
D02*
G37*
G36*
X75605Y60855D02*
X75602Y60882D01*
X75596Y60902D01*
X75591Y60916D01*
X75588Y60921D01*
X75047Y61846D01*
X74997D01*
X75044Y61849D01*
X75088Y61854D01*
X75130Y61862D01*
X75172Y61874D01*
X75247Y61901D01*
X75277Y61918D01*
X75308Y61935D01*
X75335Y61948D01*
X75358Y61965D01*
X75380Y61979D01*
X75397Y61993D01*
X75410Y62004D01*
X75419Y62012D01*
X75424Y62018D01*
X75427Y62021D01*
X75458Y62054D01*
X75485Y62090D01*
X75510Y62126D01*
X75530Y62162D01*
X75546Y62196D01*
X75560Y62232D01*
X75583Y62298D01*
X75591Y62326D01*
X75596Y62354D01*
X75599Y62379D01*
X75602Y62398D01*
X75605Y62418D01*
Y60855D01*
D02*
G37*
G36*
Y60730D02*
X75460D01*
X75483Y60732D01*
X75502Y60735D01*
X75533Y60749D01*
X75546Y60755D01*
X75555Y60760D01*
X75560Y60763D01*
X75563Y60766D01*
X75577Y60782D01*
X75588Y60799D01*
X75594Y60813D01*
X75599Y60827D01*
X75602Y60838D01*
X75605Y60846D01*
Y60730D01*
D02*
G37*
G36*
X69925Y63142D02*
X69969Y63131D01*
X70008Y63117D01*
X70044Y63098D01*
X70069Y63078D01*
X70091Y63065D01*
X70102Y63053D01*
X70108Y63048D01*
X70141Y63009D01*
X70163Y62970D01*
X70180Y62931D01*
X70194Y62892D01*
X70199Y62862D01*
X70202Y62834D01*
X70205Y62817D01*
Y62815D01*
Y62812D01*
Y62440D01*
X70199Y62387D01*
X70188Y62343D01*
X70174Y62301D01*
X70155Y62268D01*
X70136Y62240D01*
X70122Y62218D01*
X70111Y62207D01*
X70105Y62201D01*
X70066Y62171D01*
X70027Y62146D01*
X69991Y62129D01*
X69955Y62118D01*
X69925Y62112D01*
X69900Y62109D01*
X69883Y62107D01*
X69367D01*
Y63148D01*
X69877D01*
X69925Y63142D01*
D02*
G37*
G36*
X70485Y60855D02*
X70483Y60882D01*
X70477Y60902D01*
X70471Y60916D01*
X70469Y60921D01*
X69927Y61846D01*
X69877D01*
X69925Y61849D01*
X69969Y61854D01*
X70011Y61862D01*
X70052Y61874D01*
X70127Y61901D01*
X70158Y61918D01*
X70188Y61935D01*
X70216Y61948D01*
X70238Y61965D01*
X70261Y61979D01*
X70277Y61993D01*
X70291Y62004D01*
X70299Y62012D01*
X70305Y62018D01*
X70308Y62021D01*
X70338Y62054D01*
X70366Y62090D01*
X70391Y62126D01*
X70410Y62162D01*
X70427Y62196D01*
X70441Y62232D01*
X70463Y62298D01*
X70471Y62326D01*
X70477Y62354D01*
X70480Y62379D01*
X70483Y62398D01*
X70485Y62418D01*
Y60855D01*
D02*
G37*
G36*
Y60730D02*
X70341D01*
X70363Y60732D01*
X70383Y60735D01*
X70413Y60749D01*
X70427Y60755D01*
X70435Y60760D01*
X70441Y60763D01*
X70444Y60766D01*
X70458Y60782D01*
X70469Y60799D01*
X70474Y60813D01*
X70480Y60827D01*
X70483Y60838D01*
X70485Y60846D01*
Y60730D01*
D02*
G37*
G36*
X62851Y63142D02*
X62895Y63131D01*
X62934Y63117D01*
X62970Y63098D01*
X62995Y63078D01*
X63017Y63065D01*
X63028Y63053D01*
X63034Y63048D01*
X63067Y63009D01*
X63090Y62970D01*
X63106Y62931D01*
X63120Y62892D01*
X63126Y62862D01*
X63128Y62834D01*
X63131Y62817D01*
Y62815D01*
Y62812D01*
Y61324D01*
X63126Y61271D01*
X63115Y61224D01*
X63101Y61182D01*
X63081Y61149D01*
X63062Y61121D01*
X63048Y61099D01*
X63037Y61088D01*
X63031Y61082D01*
X62992Y61052D01*
X62953Y61027D01*
X62917Y61010D01*
X62881Y60999D01*
X62851Y60993D01*
X62826Y60991D01*
X62809Y60988D01*
X62618D01*
X62573Y60993D01*
X62532Y61005D01*
X62493Y61018D01*
X62459Y61038D01*
X62432Y61055D01*
X62412Y61071D01*
X62398Y61082D01*
X62393Y61085D01*
X62359Y61124D01*
X62334Y61166D01*
X62318Y61204D01*
X62307Y61243D01*
X62298Y61274D01*
X62296Y61302D01*
X62293Y61318D01*
Y61321D01*
Y61324D01*
Y62812D01*
X62298Y62862D01*
X62309Y62909D01*
X62323Y62951D01*
X62343Y62984D01*
X62359Y63012D01*
X62376Y63034D01*
X62387Y63045D01*
X62390Y63051D01*
X62429Y63084D01*
X62468Y63106D01*
X62504Y63123D01*
X62540Y63137D01*
X62570Y63142D01*
X62595Y63145D01*
X62612Y63148D01*
X62804D01*
X62851Y63142D01*
D02*
G37*
G36*
X63412Y60730D02*
X62804D01*
X62851Y60732D01*
X62895Y60738D01*
X62937Y60746D01*
X62978Y60757D01*
X63053Y60785D01*
X63084Y60802D01*
X63115Y60819D01*
X63142Y60832D01*
X63164Y60849D01*
X63187Y60863D01*
X63203Y60877D01*
X63217Y60888D01*
X63226Y60896D01*
X63231Y60902D01*
X63234Y60905D01*
X63264Y60938D01*
X63292Y60974D01*
X63317Y61007D01*
X63337Y61043D01*
X63353Y61080D01*
X63367Y61113D01*
X63389Y61179D01*
X63398Y61210D01*
X63403Y61238D01*
X63406Y61263D01*
X63409Y61282D01*
X63412Y61299D01*
Y60730D01*
D02*
G37*
%LPC*%
G36*
X55416Y89538D02*
X54228D01*
D01*
X54335D01*
X54318Y89536D01*
X54303Y89534D01*
X54291Y89528D01*
X54278Y89523D01*
X54270Y89517D01*
X54264Y89511D01*
X54260Y89509D01*
X54258Y89507D01*
X54247Y89496D01*
X54241Y89484D01*
X54233Y89463D01*
X54231Y89455D01*
X54228Y89448D01*
D01*
Y87532D01*
Y89442D01*
X54233Y89417D01*
X54722Y87616D01*
X54732Y87589D01*
X54747Y87568D01*
X54764Y87553D01*
X54780Y87543D01*
X54797Y87536D01*
X54810Y87534D01*
X54818Y87532D01*
X54822D01*
X54849Y87536D01*
X54872Y87545D01*
X54889Y87559D01*
X54901Y87574D01*
X54912Y87589D01*
X54918Y87603D01*
X54922Y87611D01*
Y87616D01*
X55414Y89417D01*
X55416Y89440D01*
X55414Y89457D01*
X55411Y89469D01*
X55401Y89492D01*
X55395Y89501D01*
X55389Y89507D01*
X55386Y89509D01*
X55384Y89511D01*
X55372Y89519D01*
X55359Y89528D01*
X55334Y89534D01*
X55324Y89536D01*
X55316Y89538D01*
X55416D01*
D01*
D02*
G37*
G36*
X55907Y89540D02*
X55699D01*
D01*
X55803D01*
X55784Y89538D01*
X55768Y89534D01*
X55755Y89528D01*
X55743Y89521D01*
X55734Y89515D01*
X55728Y89509D01*
X55726Y89505D01*
X55724Y89503D01*
X55716Y89490D01*
X55709Y89478D01*
X55703Y89459D01*
X55699Y89448D01*
Y89444D01*
X55701Y89430D01*
X55703Y89417D01*
X55711Y89394D01*
X55716Y89386D01*
X55720Y89382D01*
X55724Y89378D01*
Y89376D01*
X55734Y89365D01*
X55747Y89359D01*
X55774Y89351D01*
X55784Y89348D01*
X55795Y89346D01*
X55803D01*
X55822Y89348D01*
X55836Y89351D01*
X55851Y89357D01*
X55861Y89363D01*
X55870Y89367D01*
X55876Y89373D01*
X55878Y89376D01*
X55880Y89378D01*
X55888Y89390D01*
X55897Y89401D01*
X55903Y89423D01*
X55905Y89432D01*
X55907Y89438D01*
Y88978D01*
Y89438D01*
Y89540D01*
D02*
G37*
G36*
X57094Y88982D02*
X56188D01*
D01*
X56274D01*
X56259Y88978D01*
X56245Y88974D01*
X56232Y88967D01*
X56213Y88951D01*
X56201Y88934D01*
X56195Y88915D01*
X56190Y88899D01*
X56188Y88888D01*
D01*
Y87532D01*
Y87628D01*
X56190Y87611D01*
X56195Y87597D01*
X56199Y87584D01*
X56205Y87574D01*
X56211Y87566D01*
X56218Y87559D01*
X56220Y87557D01*
X56222Y87555D01*
X56238Y87547D01*
X56253Y87543D01*
X56265Y87539D01*
X56276Y87534D01*
X56284D01*
X56288Y87532D01*
X56293D01*
X56309Y87534D01*
X56324Y87536D01*
X56336Y87541D01*
X56349Y87547D01*
X56357Y87551D01*
X56363Y87555D01*
X56367Y87557D01*
X56370Y87559D01*
X56378Y87570D01*
X56386Y87580D01*
X56392Y87603D01*
X56395Y87614D01*
X56397Y87622D01*
Y87626D01*
Y87628D01*
Y88786D01*
X56780D01*
X56797Y88784D01*
X56811Y88782D01*
X56834Y88772D01*
X56842Y88765D01*
X56849Y88759D01*
X56853Y88757D01*
X56855Y88755D01*
X56865Y88742D01*
X56874Y88730D01*
X56878Y88715D01*
X56882Y88703D01*
X56884Y88692D01*
X56886Y88684D01*
Y88678D01*
Y88676D01*
Y87628D01*
X56888Y87611D01*
X56892Y87597D01*
X56897Y87584D01*
X56905Y87574D01*
X56911Y87566D01*
X56915Y87559D01*
X56919Y87557D01*
X56922Y87555D01*
X56938Y87547D01*
X56953Y87543D01*
X56965Y87539D01*
X56974Y87534D01*
X56982D01*
X56986Y87532D01*
X56990D01*
X57007Y87534D01*
X57021Y87536D01*
X57034Y87541D01*
X57046Y87547D01*
X57055Y87551D01*
X57061Y87555D01*
X57065Y87557D01*
X57067Y87559D01*
X57076Y87570D01*
X57084Y87580D01*
X57090Y87603D01*
X57092Y87614D01*
X57094Y87622D01*
Y88699D01*
X57090Y88722D01*
X57080Y88763D01*
X57065Y88801D01*
X57049Y88832D01*
X57032Y88857D01*
X57017Y88878D01*
X57007Y88888D01*
X57005Y88892D01*
X57003D01*
X56986Y88909D01*
X56967Y88922D01*
X56930Y88944D01*
X56892Y88961D01*
X56857Y88971D01*
X56828Y88978D01*
X56813Y88980D01*
X56803D01*
X56792Y88982D01*
X57094D01*
D01*
D02*
G37*
G36*
X59056Y88563D02*
X58148D01*
Y88465D01*
X58150Y88453D01*
X58152Y88440D01*
X58161Y88420D01*
X58165Y88411D01*
X58169Y88405D01*
X58173Y88401D01*
Y88399D01*
X58186Y88388D01*
X58198Y88380D01*
X58213Y88376D01*
X58225Y88372D01*
X58238Y88370D01*
X58246Y88367D01*
X58952D01*
X58971Y88370D01*
X58986Y88372D01*
X59000Y88378D01*
X59011Y88384D01*
X59019Y88388D01*
X59025Y88395D01*
X59027Y88397D01*
X59029Y88399D01*
X59038Y88411D01*
X59046Y88424D01*
X59052Y88445D01*
X59054Y88453D01*
X59056Y88459D01*
Y88465D01*
X59054Y88478D01*
X59052Y88490D01*
X59042Y88511D01*
X59036Y88520D01*
X59029Y88526D01*
X59027Y88530D01*
X59025Y88532D01*
X59013Y88542D01*
X59000Y88551D01*
X58988Y88555D01*
X58977Y88559D01*
X58967Y88561D01*
X58958Y88563D01*
X59056D01*
D02*
G37*
G36*
X58958Y88145D02*
X58255D01*
X58236Y88143D01*
X58219Y88138D01*
X58205Y88132D01*
X58192Y88126D01*
X58184Y88120D01*
X58177Y88113D01*
X58175Y88109D01*
X58173Y88107D01*
X58165Y88095D01*
X58159Y88082D01*
X58152Y88063D01*
X58148Y88051D01*
Y87949D01*
Y88047D01*
X58150Y88034D01*
X58152Y88022D01*
X58161Y88001D01*
X58165Y87993D01*
X58169Y87986D01*
X58173Y87982D01*
Y87980D01*
X58186Y87970D01*
X58198Y87961D01*
X58213Y87957D01*
X58225Y87953D01*
X58238Y87951D01*
X58246Y87949D01*
X59056D01*
Y88047D01*
X59054Y88059D01*
X59052Y88072D01*
X59042Y88093D01*
X59036Y88101D01*
X59029Y88107D01*
X59027Y88111D01*
X59025Y88113D01*
X59013Y88124D01*
X59000Y88132D01*
X58988Y88136D01*
X58977Y88140D01*
X58967Y88143D01*
X58958Y88145D01*
D02*
G37*
G36*
X55811Y88982D02*
X55805D01*
X55788Y88980D01*
X55774Y88976D01*
X55759Y88971D01*
X55749Y88965D01*
X55741Y88957D01*
X55734Y88953D01*
X55730Y88949D01*
X55728Y88947D01*
X55718Y88934D01*
X55711Y88924D01*
X55703Y88905D01*
X55699Y88890D01*
Y87532D01*
Y87628D01*
X55701Y87611D01*
X55705Y87597D01*
X55709Y87584D01*
X55718Y87574D01*
X55724Y87566D01*
X55728Y87559D01*
X55732Y87557D01*
X55734Y87555D01*
X55751Y87547D01*
X55766Y87543D01*
X55778Y87539D01*
X55788Y87534D01*
X55795D01*
X55801Y87532D01*
X55805D01*
X55820Y87534D01*
X55832Y87536D01*
X55857Y87547D01*
X55866Y87551D01*
X55874Y87555D01*
X55878Y87557D01*
X55880Y87559D01*
X55888Y87574D01*
X55897Y87586D01*
X55903Y87609D01*
X55905Y87618D01*
X55907Y87624D01*
Y88886D01*
X55905Y88903D01*
X55903Y88917D01*
X55897Y88928D01*
X55891Y88938D01*
X55884Y88947D01*
X55880Y88953D01*
X55876Y88955D01*
X55874Y88957D01*
X55861Y88965D01*
X55851Y88971D01*
X55828Y88980D01*
X55820D01*
X55811Y88982D01*
D02*
G37*
G36*
X59019Y87131D02*
Y85848D01*
X59017Y85894D01*
X59008Y85935D01*
X58998Y85975D01*
X58986Y86010D01*
X58971Y86039D01*
X58961Y86062D01*
X58956Y86071D01*
X58952Y86077D01*
X58950Y86079D01*
Y86081D01*
X58925Y86118D01*
X58900Y86150D01*
X58877Y86175D01*
X58856Y86193D01*
X58840Y86208D01*
X58827Y86218D01*
X58817Y86223D01*
X58815Y86225D01*
X58834Y86243D01*
X58852Y86262D01*
X58869Y86285D01*
X58881Y86304D01*
X58894Y86323D01*
X58902Y86337D01*
X58906Y86348D01*
X58909Y86352D01*
X58923Y86385D01*
X58933Y86418D01*
X58940Y86450D01*
X58946Y86479D01*
X58948Y86506D01*
X58950Y86525D01*
Y86533D01*
Y86539D01*
Y86541D01*
Y86543D01*
Y86687D01*
X58946Y86733D01*
X58940Y86779D01*
X58917Y86856D01*
X58902Y86885D01*
X58888Y86912D01*
X58871Y86937D01*
X58856Y86958D01*
X58842Y86975D01*
X58829Y86989D01*
X58821Y86997D01*
X58819Y86999D01*
X58794Y87022D01*
X58767Y87043D01*
X58738Y87060D01*
X58711Y87074D01*
X58684Y87089D01*
X58656Y87099D01*
X58606Y87114D01*
X58582Y87120D01*
X58561Y87124D01*
X58542Y87127D01*
X58525Y87129D01*
X58513Y87131D01*
X58494D01*
X58446Y87129D01*
X58398Y87120D01*
X58319Y87097D01*
X58290Y87083D01*
X58261Y87068D01*
X58236Y87052D01*
X58215Y87035D01*
X58196Y87020D01*
X58184Y87008D01*
X58173Y86999D01*
X58171Y86997D01*
X58148Y86970D01*
X58130Y86943D01*
X58111Y86916D01*
X58096Y86889D01*
X58084Y86862D01*
X58073Y86837D01*
X58059Y86789D01*
X58052Y86768D01*
X58048Y86747D01*
X58046Y86731D01*
X58044Y86716D01*
X58042Y86704D01*
Y86695D01*
Y86689D01*
Y86687D01*
Y86543D01*
X58044Y86506D01*
X58048Y86468D01*
X58057Y86437D01*
X58065Y86408D01*
X58071Y86383D01*
X58080Y86366D01*
X58084Y86354D01*
X58086Y86352D01*
Y86350D01*
X58102Y86318D01*
X58119Y86293D01*
X58136Y86271D01*
X58150Y86252D01*
X58163Y86239D01*
X58171Y86229D01*
X58177Y86223D01*
X58180Y86221D01*
X58150Y86200D01*
X58121Y86175D01*
X58096Y86148D01*
X58075Y86123D01*
X58059Y86100D01*
X58044Y86081D01*
X58036Y86068D01*
X58034Y86066D01*
Y86064D01*
X58013Y86025D01*
X57998Y85987D01*
X57988Y85950D01*
X57982Y85916D01*
X57977Y85889D01*
X57973Y85866D01*
Y85569D01*
X57975Y85533D01*
X57980Y85502D01*
X57986Y85471D01*
X57994Y85439D01*
X58017Y85385D01*
X58030Y85362D01*
X58042Y85340D01*
X58055Y85321D01*
X58067Y85302D01*
X58080Y85287D01*
X58090Y85275D01*
X58098Y85265D01*
X58105Y85258D01*
X58109Y85254D01*
X58111Y85252D01*
X58138Y85229D01*
X58165Y85210D01*
X58192Y85192D01*
X58219Y85177D01*
X58246Y85165D01*
X58271Y85154D01*
X58321Y85140D01*
X58342Y85133D01*
X58363Y85129D01*
X58382Y85127D01*
X58396Y85125D01*
X58409Y85123D01*
X57973D01*
X59019D01*
Y87131D01*
D02*
G37*
G36*
X56436Y85946D02*
D01*
Y85848D01*
X56434Y85860D01*
X56432Y85873D01*
X56422Y85894D01*
X56415Y85900D01*
X56409Y85906D01*
X56407Y85910D01*
X56405Y85912D01*
X56392Y85923D01*
X56380Y85931D01*
X56367Y85937D01*
X56357Y85941D01*
X56347Y85944D01*
X56338Y85946D01*
X56436D01*
X55389D01*
X55493D01*
X55474Y85944D01*
X55457Y85939D01*
X55443Y85933D01*
X55430Y85927D01*
X55422Y85919D01*
X55416Y85912D01*
X55414Y85908D01*
X55411Y85906D01*
X55403Y85894D01*
X55399Y85881D01*
X55391Y85862D01*
X55389Y85852D01*
Y85848D01*
X55391Y85833D01*
X55393Y85821D01*
X55401Y85800D01*
X55405Y85791D01*
X55409Y85787D01*
X55414Y85783D01*
Y85781D01*
X55426Y85771D01*
X55439Y85762D01*
X55453Y85758D01*
X55466Y85754D01*
X55476Y85752D01*
X55484Y85750D01*
X56332D01*
X56351Y85752D01*
X56365Y85754D01*
X56378Y85760D01*
X56390Y85766D01*
X56399Y85771D01*
X56405Y85777D01*
X56407Y85779D01*
X56409Y85781D01*
X56417Y85794D01*
X56426Y85806D01*
X56432Y85827D01*
X56434Y85835D01*
X56436Y85841D01*
Y85750D01*
D01*
Y85946D01*
D02*
G37*
G36*
X53854Y87131D02*
Y85637D01*
X53851Y85650D01*
X53849Y85662D01*
X53839Y85683D01*
X53833Y85691D01*
X53826Y85698D01*
X53824Y85702D01*
X53822Y85704D01*
X53810Y85714D01*
X53797Y85723D01*
X53785Y85727D01*
X53774Y85731D01*
X53764Y85733D01*
X53756Y85735D01*
X53572D01*
Y86058D01*
X53570Y86075D01*
X53568Y86087D01*
X53556Y86110D01*
X53549Y86118D01*
X53545Y86125D01*
X53541Y86127D01*
X53539Y86129D01*
X53527Y86137D01*
X53514Y86146D01*
X53491Y86152D01*
X53483Y86154D01*
X53474Y86156D01*
X53468D01*
X53452Y86154D01*
X53437Y86152D01*
X53424Y86146D01*
X53414Y86139D01*
X53406Y86133D01*
X53400Y86129D01*
X53395Y86125D01*
X53393Y86123D01*
X53383Y86110D01*
X53377Y86098D01*
X53368Y86079D01*
X53366Y86071D01*
X53364Y86064D01*
Y86060D01*
Y86058D01*
Y85735D01*
X53035D01*
X53293Y87018D01*
Y87035D01*
X53291Y87049D01*
X53289Y87064D01*
X53279Y87085D01*
X53272Y87093D01*
X53266Y87099D01*
X53264Y87102D01*
X53262Y87104D01*
X53250Y87112D01*
X53237Y87120D01*
X53210Y87127D01*
X53197Y87129D01*
X53189Y87131D01*
X52806D01*
D01*
X53181D01*
X53127Y87114D01*
X53114Y87104D01*
X53106Y87093D01*
X53097Y87083D01*
X53093Y87074D01*
X53089Y87064D01*
X53087Y87058D01*
X53085Y87054D01*
Y87052D01*
X52806Y85654D01*
Y85635D01*
X52808Y85621D01*
X52810Y85608D01*
X52820Y85587D01*
X52825Y85579D01*
X52829Y85575D01*
X52831Y85571D01*
X52833Y85569D01*
X52845Y85558D01*
X52858Y85552D01*
X52883Y85544D01*
X52893Y85542D01*
X52902Y85539D01*
X53364D01*
Y85219D01*
X53366Y85202D01*
X53370Y85187D01*
X53375Y85175D01*
X53381Y85165D01*
X53387Y85156D01*
X53393Y85150D01*
X53395Y85148D01*
X53397Y85146D01*
X53414Y85137D01*
X53429Y85133D01*
X53441Y85129D01*
X53452Y85125D01*
X53460D01*
X53464Y85123D01*
X53468D01*
X53485Y85125D01*
X53499Y85127D01*
X53512Y85131D01*
X53524Y85137D01*
X53533Y85142D01*
X53539Y85146D01*
X53543Y85148D01*
X53545Y85150D01*
X53554Y85160D01*
X53562Y85171D01*
X53568Y85194D01*
X53570Y85204D01*
X53572Y85212D01*
Y85217D01*
Y85219D01*
Y85539D01*
X53749D01*
X53768Y85542D01*
X53783Y85544D01*
X53797Y85550D01*
X53808Y85556D01*
X53816Y85560D01*
X53822Y85567D01*
X53824Y85569D01*
X53826Y85571D01*
X53835Y85583D01*
X53843Y85596D01*
X53849Y85617D01*
X53851Y85625D01*
X53854Y85631D01*
Y85123D01*
D01*
Y87131D01*
D02*
G37*
G36*
X60483Y87129D02*
Y85123D01*
X59889D01*
X59917Y85127D01*
X59939Y85135D01*
X59956Y85150D01*
X59969Y85165D01*
X59979Y85179D01*
X59985Y85194D01*
X59989Y85202D01*
Y85206D01*
X60481Y87008D01*
X60483Y87031D01*
X60481Y87047D01*
X60479Y87060D01*
X60469Y87083D01*
X60462Y87091D01*
X60456Y87097D01*
X60454Y87099D01*
X60452Y87102D01*
X60439Y87110D01*
X60427Y87118D01*
X60402Y87124D01*
X60391Y87127D01*
X60383Y87129D01*
X60483D01*
X59296Y87129D01*
D01*
X59402D01*
X59385Y87127D01*
X59371Y87124D01*
X59358Y87118D01*
X59346Y87114D01*
X59338Y87108D01*
X59331Y87102D01*
X59327Y87099D01*
X59325Y87097D01*
X59315Y87087D01*
X59308Y87074D01*
X59300Y87054D01*
X59298Y87045D01*
X59296Y87039D01*
Y87052D01*
Y86543D01*
Y87033D01*
X59300Y87008D01*
X59790Y85206D01*
X59800Y85179D01*
X59815Y85158D01*
X59831Y85144D01*
X59848Y85133D01*
X59865Y85127D01*
X59877Y85125D01*
X59885Y85123D01*
X60483D01*
Y87129D01*
D02*
G37*
G36*
X57694Y87131D02*
X56647D01*
D01*
X57021D01*
X56967Y87114D01*
X56955Y87104D01*
X56947Y87093D01*
X56938Y87083D01*
X56934Y87074D01*
X56930Y87064D01*
X56928Y87058D01*
X56926Y87054D01*
Y87052D01*
X56647Y85654D01*
Y85635D01*
X56649Y85621D01*
X56651Y85608D01*
X56661Y85587D01*
X56665Y85579D01*
X56669Y85575D01*
X56672Y85571D01*
X56674Y85569D01*
X56686Y85558D01*
X56699Y85552D01*
X56724Y85544D01*
X56734Y85542D01*
X56742Y85539D01*
X57205D01*
Y85219D01*
X57207Y85202D01*
X57211Y85187D01*
X57215Y85175D01*
X57221Y85165D01*
X57228Y85156D01*
X57234Y85150D01*
X57236Y85148D01*
X57238Y85146D01*
X57255Y85137D01*
X57269Y85133D01*
X57282Y85129D01*
X57292Y85125D01*
X57301D01*
X57305Y85123D01*
X57309D01*
X57326Y85125D01*
X57340Y85127D01*
X57353Y85131D01*
X57365Y85137D01*
X57373Y85142D01*
X57380Y85146D01*
X57384Y85148D01*
X57386Y85150D01*
X57394Y85160D01*
X57403Y85171D01*
X57409Y85194D01*
X57411Y85204D01*
X57413Y85212D01*
Y85217D01*
Y85219D01*
Y85539D01*
X57590D01*
X57609Y85542D01*
X57623Y85544D01*
X57638Y85550D01*
X57648Y85556D01*
X57657Y85560D01*
X57663Y85567D01*
X57665Y85569D01*
X57667Y85571D01*
X57675Y85583D01*
X57684Y85596D01*
X57690Y85617D01*
X57692Y85625D01*
X57694Y85631D01*
Y85123D01*
D01*
Y87131D01*
D02*
G37*
G36*
X55180D02*
X54133D01*
X54585D01*
X54549Y87129D01*
X54516Y87124D01*
X54485Y87118D01*
X54453Y87110D01*
X54399Y87087D01*
X54374Y87077D01*
X54351Y87064D01*
X54331Y87049D01*
X54314Y87039D01*
X54297Y87027D01*
X54285Y87016D01*
X54274Y87008D01*
X54268Y87002D01*
X54264Y86997D01*
X54262Y86995D01*
X54239Y86970D01*
X54220Y86943D01*
X54201Y86918D01*
X54187Y86891D01*
X54174Y86864D01*
X54164Y86839D01*
X54149Y86791D01*
X54143Y86768D01*
X54139Y86747D01*
X54137Y86731D01*
X54135Y86714D01*
X54133Y86702D01*
Y85569D01*
X54135Y85533D01*
X54139Y85502D01*
X54145Y85471D01*
X54153Y85439D01*
X54176Y85385D01*
X54189Y85362D01*
X54201Y85340D01*
X54214Y85321D01*
X54226Y85302D01*
X54239Y85287D01*
X54249Y85275D01*
X54258Y85265D01*
X54264Y85258D01*
X54268Y85254D01*
X54270Y85252D01*
X54297Y85229D01*
X54324Y85210D01*
X54351Y85192D01*
X54378Y85177D01*
X54405Y85165D01*
X54430Y85154D01*
X54480Y85140D01*
X54501Y85133D01*
X54522Y85129D01*
X54541Y85127D01*
X54555Y85125D01*
X54568Y85123D01*
X54724D01*
X54760Y85125D01*
X54793Y85129D01*
X54824Y85135D01*
X54855Y85144D01*
X54912Y85165D01*
X54935Y85177D01*
X54957Y85190D01*
X54978Y85200D01*
X54995Y85212D01*
X55012Y85223D01*
X55024Y85233D01*
X55034Y85242D01*
X55041Y85248D01*
X55045Y85252D01*
X55047Y85254D01*
X55070Y85279D01*
X55091Y85306D01*
X55109Y85331D01*
X55124Y85358D01*
X55137Y85385D01*
X55147Y85410D01*
X55164Y85460D01*
X55170Y85483D01*
X55174Y85504D01*
X55176Y85523D01*
X55178Y85537D01*
X55180Y85550D01*
Y85123D01*
D01*
Y86685D01*
X55178Y86718D01*
X55174Y86752D01*
X55168Y86783D01*
X55159Y86812D01*
X55139Y86864D01*
X55126Y86889D01*
X55114Y86912D01*
X55101Y86931D01*
X55089Y86947D01*
X55078Y86964D01*
X55068Y86977D01*
X55059Y86987D01*
X55053Y86993D01*
X55049Y86997D01*
X55047Y86999D01*
X55022Y87022D01*
X54995Y87043D01*
X54968Y87060D01*
X54941Y87074D01*
X54914Y87089D01*
X54887Y87099D01*
X54837Y87114D01*
X54812Y87120D01*
X54791Y87124D01*
X54772Y87127D01*
X54755Y87129D01*
X54743Y87131D01*
X55180D01*
D02*
G37*
%LPD*%
G36*
X55280Y89532D02*
X55259Y89523D01*
X55251Y89519D01*
X55245Y89515D01*
X55243Y89513D01*
X55241D01*
X55226Y89494D01*
X55216Y89480D01*
X55212Y89469D01*
X55209Y89467D01*
Y89465D01*
X54822Y88036D01*
X54435Y89465D01*
X54426Y89482D01*
X54418Y89494D01*
X54412Y89503D01*
X54403Y89511D01*
X54397Y89515D01*
X54393Y89519D01*
X54391Y89521D01*
X54389D01*
X54370Y89532D01*
X54353Y89536D01*
X54339Y89538D01*
X55307D01*
X55280Y89532D01*
D02*
G37*
G36*
X55907Y89444D02*
X55905Y89459D01*
X55901Y89471D01*
X55891Y89492D01*
X55882Y89501D01*
X55878Y89507D01*
X55874Y89509D01*
X55872Y89511D01*
X55859Y89521D01*
X55847Y89528D01*
X55826Y89536D01*
X55816Y89538D01*
X55809Y89540D01*
X55907D01*
Y89444D01*
D02*
G37*
G36*
X58236Y88561D02*
X58219Y88557D01*
X58205Y88551D01*
X58192Y88545D01*
X58184Y88538D01*
X58177Y88532D01*
X58175Y88528D01*
X58173Y88526D01*
X58165Y88513D01*
X58159Y88501D01*
X58152Y88482D01*
X58148Y88470D01*
Y88563D01*
X58255D01*
X58236Y88561D01*
D02*
G37*
G36*
X59056Y87949D02*
X58952D01*
X58971Y87951D01*
X58986Y87953D01*
X59000Y87959D01*
X59011Y87965D01*
X59019Y87970D01*
X59025Y87976D01*
X59027Y87978D01*
X59029Y87980D01*
X59038Y87993D01*
X59046Y88005D01*
X59052Y88026D01*
X59054Y88034D01*
X59056Y88040D01*
Y87949D01*
D02*
G37*
G36*
X58534Y86935D02*
X58567Y86927D01*
X58594Y86914D01*
X58619Y86902D01*
X58640Y86887D01*
X58654Y86877D01*
X58663Y86868D01*
X58667Y86864D01*
X58692Y86837D01*
X58709Y86806D01*
X58721Y86777D01*
X58731Y86750D01*
X58736Y86725D01*
X58738Y86706D01*
X58740Y86691D01*
Y86689D01*
Y86687D01*
Y86543D01*
X58736Y86504D01*
X58727Y86470D01*
X58717Y86439D01*
X58702Y86414D01*
X58688Y86393D01*
X58677Y86377D01*
X58669Y86368D01*
X58665Y86364D01*
X58636Y86341D01*
X58606Y86323D01*
X58579Y86310D01*
X58552Y86302D01*
X58529Y86298D01*
X58511Y86296D01*
X58498Y86293D01*
X58494D01*
X58459Y86296D01*
X58425Y86304D01*
X58396Y86316D01*
X58371Y86329D01*
X58352Y86341D01*
X58336Y86354D01*
X58327Y86362D01*
X58323Y86364D01*
X58300Y86393D01*
X58282Y86423D01*
X58269Y86454D01*
X58261Y86481D01*
X58257Y86506D01*
X58255Y86527D01*
X58252Y86539D01*
Y86541D01*
Y86543D01*
Y86687D01*
X58257Y86725D01*
X58265Y86760D01*
X58275Y86789D01*
X58290Y86816D01*
X58302Y86837D01*
X58315Y86852D01*
X58323Y86860D01*
X58325Y86864D01*
X58354Y86889D01*
X58384Y86906D01*
X58413Y86918D01*
X58440Y86929D01*
X58463Y86933D01*
X58482Y86935D01*
X58494Y86937D01*
X58498D01*
X58534Y86935D01*
D02*
G37*
G36*
X58602Y86096D02*
X58636Y86087D01*
X58665Y86075D01*
X58690Y86062D01*
X58711Y86048D01*
X58725Y86037D01*
X58734Y86029D01*
X58738Y86025D01*
X58763Y85998D01*
X58779Y85966D01*
X58792Y85937D01*
X58802Y85910D01*
X58806Y85885D01*
X58809Y85866D01*
X58811Y85852D01*
Y85850D01*
Y85848D01*
Y85569D01*
X58809Y85529D01*
X58800Y85496D01*
X58788Y85464D01*
X58775Y85437D01*
X58761Y85417D01*
X58750Y85400D01*
X58742Y85392D01*
X58738Y85387D01*
X58711Y85365D01*
X58681Y85346D01*
X58652Y85333D01*
X58625Y85325D01*
X58600Y85321D01*
X58582Y85319D01*
X58569Y85317D01*
X58425D01*
X58392Y85321D01*
X58361Y85329D01*
X58332Y85340D01*
X58307Y85354D01*
X58286Y85367D01*
X58271Y85379D01*
X58261Y85387D01*
X58257Y85390D01*
X58232Y85419D01*
X58213Y85450D01*
X58200Y85479D01*
X58192Y85508D01*
X58186Y85531D01*
X58184Y85552D01*
X58182Y85564D01*
Y85567D01*
Y85569D01*
Y85848D01*
X58186Y85885D01*
X58194Y85921D01*
X58205Y85950D01*
X58219Y85977D01*
X58232Y85998D01*
X58244Y86012D01*
X58252Y86021D01*
X58255Y86025D01*
X58284Y86050D01*
X58313Y86066D01*
X58340Y86079D01*
X58367Y86089D01*
X58390Y86093D01*
X58409Y86096D01*
X58421Y86098D01*
X58565D01*
X58602Y86096D01*
D02*
G37*
G36*
X59019Y85123D02*
X58565D01*
X58600Y85125D01*
X58634Y85129D01*
X58665Y85135D01*
X58696Y85144D01*
X58752Y85165D01*
X58775Y85175D01*
X58798Y85187D01*
X58819Y85200D01*
X58836Y85210D01*
X58852Y85223D01*
X58865Y85231D01*
X58875Y85240D01*
X58881Y85246D01*
X58886Y85250D01*
X58888Y85252D01*
X58911Y85277D01*
X58931Y85304D01*
X58948Y85329D01*
X58963Y85356D01*
X58977Y85383D01*
X58988Y85410D01*
X59002Y85460D01*
X59008Y85483D01*
X59013Y85504D01*
X59015Y85521D01*
X59017Y85537D01*
X59019Y85550D01*
Y85123D01*
D02*
G37*
G36*
X60348Y87122D02*
X60327Y87114D01*
X60319Y87110D01*
X60312Y87106D01*
X60310Y87104D01*
X60308D01*
X60294Y87085D01*
X60283Y87070D01*
X60279Y87060D01*
X60277Y87058D01*
Y87056D01*
X59889Y85627D01*
X59502Y87056D01*
X59494Y87072D01*
X59485Y87085D01*
X59479Y87093D01*
X59471Y87102D01*
X59465Y87106D01*
X59460Y87110D01*
X59458Y87112D01*
X59456D01*
X59438Y87122D01*
X59421Y87127D01*
X59406Y87129D01*
X60375Y87129D01*
X60348Y87122D01*
D02*
G37*
G36*
X57694Y85637D02*
X57692Y85650D01*
X57690Y85662D01*
X57680Y85683D01*
X57673Y85691D01*
X57667Y85698D01*
X57665Y85702D01*
X57663Y85704D01*
X57650Y85714D01*
X57638Y85723D01*
X57625Y85727D01*
X57615Y85731D01*
X57605Y85733D01*
X57596Y85735D01*
X57413D01*
Y86058D01*
X57411Y86075D01*
X57409Y86087D01*
X57396Y86110D01*
X57390Y86118D01*
X57386Y86125D01*
X57382Y86127D01*
X57380Y86129D01*
X57367Y86137D01*
X57355Y86146D01*
X57332Y86152D01*
X57323Y86154D01*
X57315Y86156D01*
X57309D01*
X57292Y86154D01*
X57278Y86152D01*
X57265Y86146D01*
X57255Y86139D01*
X57246Y86133D01*
X57240Y86129D01*
X57236Y86125D01*
X57234Y86123D01*
X57224Y86110D01*
X57217Y86098D01*
X57209Y86079D01*
X57207Y86071D01*
X57205Y86064D01*
Y86060D01*
Y86058D01*
Y85735D01*
X56876D01*
X57134Y87018D01*
Y87035D01*
X57132Y87049D01*
X57130Y87064D01*
X57119Y87085D01*
X57113Y87093D01*
X57107Y87099D01*
X57105Y87102D01*
X57103Y87104D01*
X57090Y87112D01*
X57078Y87120D01*
X57051Y87127D01*
X57038Y87129D01*
X57030Y87131D01*
X57694D01*
Y85637D01*
D02*
G37*
G36*
X54760Y86933D02*
X54793Y86925D01*
X54822Y86914D01*
X54849Y86900D01*
X54868Y86885D01*
X54885Y86875D01*
X54893Y86866D01*
X54897Y86862D01*
X54922Y86833D01*
X54939Y86804D01*
X54951Y86775D01*
X54962Y86745D01*
X54966Y86722D01*
X54968Y86702D01*
X54970Y86689D01*
Y86687D01*
Y86685D01*
Y85569D01*
X54966Y85529D01*
X54957Y85494D01*
X54947Y85462D01*
X54932Y85437D01*
X54918Y85417D01*
X54907Y85400D01*
X54899Y85392D01*
X54895Y85387D01*
X54866Y85365D01*
X54837Y85346D01*
X54810Y85333D01*
X54782Y85325D01*
X54760Y85321D01*
X54741Y85319D01*
X54728Y85317D01*
X54585D01*
X54551Y85321D01*
X54520Y85329D01*
X54491Y85340D01*
X54466Y85354D01*
X54445Y85367D01*
X54430Y85379D01*
X54420Y85387D01*
X54416Y85390D01*
X54391Y85419D01*
X54372Y85450D01*
X54360Y85479D01*
X54351Y85508D01*
X54345Y85531D01*
X54343Y85552D01*
X54341Y85564D01*
Y85567D01*
Y85569D01*
Y86685D01*
X54345Y86722D01*
X54353Y86758D01*
X54364Y86789D01*
X54378Y86814D01*
X54391Y86835D01*
X54403Y86852D01*
X54412Y86860D01*
X54414Y86864D01*
X54443Y86889D01*
X54472Y86906D01*
X54499Y86918D01*
X54526Y86929D01*
X54549Y86933D01*
X54568Y86935D01*
X54580Y86937D01*
X54724D01*
X54760Y86933D01*
D02*
G37*
%LPC*%
G36*
X69711Y95390D02*
X69456D01*
Y94311D01*
X69713D01*
X69722Y94312D01*
X69734Y94314D01*
X69750Y94316D01*
X69768Y94322D01*
X69786Y94330D01*
X69805Y94343D01*
X69824Y94358D01*
X69827Y94361D01*
X69833Y94366D01*
X69840Y94378D01*
X69849Y94391D01*
X69859Y94408D01*
X69866Y94429D01*
X69872Y94452D01*
X69874Y94479D01*
Y95222D01*
Y95223D01*
Y95225D01*
X69873Y95233D01*
X69872Y95247D01*
X69869Y95262D01*
X69862Y95282D01*
X69854Y95301D01*
X69842Y95321D01*
X69826Y95340D01*
X69823Y95343D01*
X69817Y95348D01*
X69806Y95355D01*
X69794Y95365D01*
X69776Y95375D01*
X69756Y95382D01*
X69734Y95387D01*
X69711Y95390D01*
D02*
G37*
%LPD*%
D10*
X62825Y84175D02*
G03*
X62825Y84175I-125J0D01*
G01*
X69625Y81075D02*
G03*
X69625Y81075I-125J0D01*
G01*
X65350Y78225D02*
G03*
X65350Y78225I-125J0D01*
G01*
X99725Y71375D02*
G03*
X99725Y71375I-125J0D01*
G01*
D11*
X65751Y91550D02*
G03*
X65751Y91550I-1J0D01*
G01*
D12*
X91563Y95212D02*
G03*
X91563Y95212I-50J0D01*
G01*
X76712Y95388D02*
G03*
X76712Y95388I-50J0D01*
G01*
D13*
X70350Y93700D02*
Y95800D01*
X73025Y93700D02*
X73050Y93725D01*
X67250Y93700D02*
X73025D01*
X73050Y93725D02*
Y95925D01*
X67250D02*
X73050D01*
X67250Y93700D02*
Y95925D01*
X67850Y93049D02*
X68866Y91525D01*
Y93049D02*
X67850Y91525D01*
X69374D02*
X69881D01*
X69627D01*
Y93049D01*
X69374Y92795D01*
X66501Y85425D02*
X67517D01*
X68025Y85933D01*
X67517Y86441D01*
X66501D01*
Y86949D02*
X68025D01*
Y87710D01*
X67771Y87964D01*
X66755D01*
X66501Y87710D01*
Y86949D01*
X68025Y88472D02*
Y88980D01*
Y88726D01*
X66501D01*
X66755Y88472D01*
X86880Y78816D02*
X86626Y78562D01*
Y78054D01*
X86880Y77800D01*
X87896D01*
X88150Y78054D01*
Y78562D01*
X87896Y78816D01*
X88150Y79324D02*
Y79831D01*
Y79577D01*
X86626D01*
X86880Y79324D01*
X118091Y82570D02*
X117837Y82824D01*
X117329D01*
X117075Y82570D01*
Y81554D01*
X117329Y81300D01*
X117837D01*
X118091Y81554D01*
X118599Y81300D02*
X119106D01*
X118852D01*
Y82824D01*
X118599Y82570D01*
X119868D02*
X120122Y82824D01*
X120630D01*
X120884Y82570D01*
Y81554D01*
X120630Y81300D01*
X120122D01*
X119868Y81554D01*
Y82570D01*
X114516Y78220D02*
X114262Y78474D01*
X113754D01*
X113500Y78220D01*
Y77204D01*
X113754Y76950D01*
X114262D01*
X114516Y77204D01*
X115024Y76950D02*
X115531D01*
X115277D01*
Y78474D01*
X115024Y78220D01*
X116293Y76950D02*
X116801D01*
X116547D01*
Y78474D01*
X116293Y78220D01*
X89080Y78816D02*
X88826Y78562D01*
Y78054D01*
X89080Y77800D01*
X90096D01*
X90350Y78054D01*
Y78562D01*
X90096Y78816D01*
X89080Y79324D02*
X88826Y79577D01*
Y80085D01*
X89080Y80339D01*
X89334D01*
X89588Y80085D01*
Y79831D01*
Y80085D01*
X89842Y80339D01*
X90096D01*
X90350Y80085D01*
Y79577D01*
X90096Y79324D01*
X108066Y78095D02*
X107812Y78349D01*
X107304D01*
X107050Y78095D01*
Y77079D01*
X107304Y76825D01*
X107812D01*
X108066Y77079D01*
X109589Y78349D02*
X108574D01*
Y77587D01*
X109081Y77841D01*
X109335D01*
X109589Y77587D01*
Y77079D01*
X109335Y76825D01*
X108827D01*
X108574Y77079D01*
X66930Y82266D02*
X66676Y82012D01*
Y81504D01*
X66930Y81250D01*
X67946D01*
X68200Y81504D01*
Y82012D01*
X67946Y82266D01*
X68200Y83789D02*
Y82774D01*
X67184Y83789D01*
X66930D01*
X66676Y83535D01*
Y83027D01*
X66930Y82774D01*
X99700Y65999D02*
Y64475D01*
X100716D01*
X101224D02*
X101731D01*
X101477D01*
Y65999D01*
X101224Y65745D01*
X119600Y90624D02*
X120616Y89100D01*
Y90624D02*
X119600Y89100D01*
X122139D02*
X121124D01*
X122139Y90116D01*
Y90370D01*
X121885Y90624D01*
X121377D01*
X121124Y90370D01*
X55175Y96179D02*
X56191Y94655D01*
Y96179D02*
X55175Y94655D01*
X56699D02*
X57206D01*
X56952D01*
Y96179D01*
X56699Y95925D01*
X52250Y80824D02*
Y79808D01*
X52758Y79300D01*
X53266Y79808D01*
Y80824D01*
X53774D02*
Y79300D01*
X54535D01*
X54789Y79554D01*
Y80570D01*
X54535Y80824D01*
X53774D01*
X56313Y79300D02*
X55297D01*
X56313Y80316D01*
Y80570D01*
X56059Y80824D01*
X55551D01*
X55297Y80570D01*
X94941Y67570D02*
X94687Y67824D01*
X94179D01*
X93925Y67570D01*
Y67316D01*
X94179Y67062D01*
X94687D01*
X94941Y66808D01*
Y66554D01*
X94687Y66300D01*
X94179D01*
X93925Y66554D01*
X95449Y66300D02*
X95956D01*
X95702D01*
Y67824D01*
X95449Y67570D01*
X95450Y91825D02*
Y93349D01*
X96212D01*
X96466Y93095D01*
Y92587D01*
X96212Y92333D01*
X95450D01*
X95958D02*
X96466Y91825D01*
X96974D02*
X97481D01*
X97227D01*
Y93349D01*
X96974Y93095D01*
X98243Y91825D02*
X98751D01*
X98497D01*
Y93349D01*
X98243Y93095D01*
X77350Y93300D02*
Y94824D01*
X78112D01*
X78366Y94570D01*
Y94062D01*
X78112Y93808D01*
X77350D01*
X77858D02*
X78366Y93300D01*
X78874D02*
X79381D01*
X79127D01*
Y94824D01*
X78874Y94570D01*
X80143D02*
X80397Y94824D01*
X80905D01*
X81159Y94570D01*
Y93554D01*
X80905Y93300D01*
X80397D01*
X80143Y93554D01*
Y94570D01*
X92228Y83481D02*
Y85005D01*
X92990D01*
X93243Y84751D01*
Y84243D01*
X92990Y83989D01*
X92228D01*
X92736D02*
X93243Y83481D01*
X93751Y83735D02*
X94005Y83481D01*
X94513D01*
X94767Y83735D01*
Y84751D01*
X94513Y85005D01*
X94005D01*
X93751Y84751D01*
Y84497D01*
X94005Y84243D01*
X94767D01*
X95758Y83456D02*
Y84979D01*
X96520D01*
X96773Y84725D01*
Y84218D01*
X96520Y83964D01*
X95758D01*
X96266D02*
X96773Y83456D01*
X97281Y84725D02*
X97535Y84979D01*
X98043D01*
X98297Y84725D01*
Y84471D01*
X98043Y84218D01*
X98297Y83964D01*
Y83710D01*
X98043Y83456D01*
X97535D01*
X97281Y83710D01*
Y83964D01*
X97535Y84218D01*
X97281Y84471D01*
Y84725D01*
X97535Y84218D02*
X98043D01*
X99350Y79250D02*
Y80774D01*
X100112D01*
X100366Y80520D01*
Y80012D01*
X100112Y79758D01*
X99350D01*
X99858D02*
X100366Y79250D01*
X100874Y80774D02*
X101889D01*
Y80520D01*
X100874Y79504D01*
Y79250D01*
X88575Y83075D02*
Y84599D01*
X89337D01*
X89591Y84345D01*
Y83837D01*
X89337Y83583D01*
X88575D01*
X89083D02*
X89591Y83075D01*
X91114Y84599D02*
X90606Y84345D01*
X90099Y83837D01*
Y83329D01*
X90352Y83075D01*
X90860D01*
X91114Y83329D01*
Y83583D01*
X90860Y83837D01*
X90099D01*
X75025Y67000D02*
Y68524D01*
X75787D01*
X76041Y68270D01*
Y67762D01*
X75787Y67508D01*
X75025D01*
X75533D02*
X76041Y67000D01*
X77564Y68524D02*
X76549D01*
Y67762D01*
X77056Y68016D01*
X77310D01*
X77564Y67762D01*
Y67254D01*
X77310Y67000D01*
X76802D01*
X76549Y67254D01*
X102950Y84575D02*
Y86099D01*
X103712D01*
X103966Y85845D01*
Y85337D01*
X103712Y85083D01*
X102950D01*
X103458D02*
X103966Y84575D01*
X105235D02*
Y86099D01*
X104474Y85337D01*
X105489D01*
X65725Y68425D02*
Y69949D01*
X66487D01*
X66741Y69695D01*
Y69187D01*
X66487Y68933D01*
X65725D01*
X66233D02*
X66741Y68425D01*
X67249Y69695D02*
X67502Y69949D01*
X68010D01*
X68264Y69695D01*
Y69441D01*
X68010Y69187D01*
X67756D01*
X68010D01*
X68264Y68933D01*
Y68679D01*
X68010Y68425D01*
X67502D01*
X67249Y68679D01*
X62075Y68400D02*
Y69924D01*
X62837D01*
X63091Y69670D01*
Y69162D01*
X62837Y68908D01*
X62075D01*
X62583D02*
X63091Y68400D01*
X64614D02*
X63598D01*
X64614Y69416D01*
Y69670D01*
X64360Y69924D01*
X63852D01*
X63598Y69670D01*
X58525Y68550D02*
Y70074D01*
X59287D01*
X59541Y69820D01*
Y69312D01*
X59287Y69058D01*
X58525D01*
X59033D02*
X59541Y68550D01*
X60049D02*
X60556D01*
X60302D01*
Y70074D01*
X60049Y69820D01*
X90575Y93274D02*
Y91750D01*
Y92512D01*
X91591D01*
Y93274D01*
Y91750D01*
X92099Y93274D02*
Y91750D01*
X93114D01*
X94638D02*
X93622D01*
X94638Y92766D01*
Y93020D01*
X94384Y93274D01*
X93876D01*
X93622Y93020D01*
X77400Y96999D02*
Y95475D01*
Y96237D01*
X78416D01*
Y96999D01*
Y95475D01*
X78924Y96999D02*
Y95475D01*
X79939D01*
X80447D02*
X80955D01*
X80701D01*
Y96999D01*
X80447Y96745D01*
X94224Y80583D02*
Y79060D01*
X94986D01*
X95240Y79314D01*
Y80329D01*
X94986Y80583D01*
X94224D01*
X95748D02*
Y79060D01*
X96509D01*
X96763Y79314D01*
Y80329D01*
X96509Y80583D01*
X95748D01*
X98287Y79060D02*
X97271D01*
X98287Y80075D01*
Y80329D01*
X98033Y80583D01*
X97525D01*
X97271Y80329D01*
X70600Y83174D02*
Y81650D01*
X71362D01*
X71616Y81904D01*
Y82920D01*
X71362Y83174D01*
X70600D01*
X72124D02*
Y81650D01*
X72885D01*
X73139Y81904D01*
Y82920D01*
X72885Y83174D01*
X72124D01*
X73647Y81650D02*
X74155D01*
X73901D01*
Y83174D01*
X73647Y82920D01*
X82366Y94045D02*
X82112Y94299D01*
X81604D01*
X81350Y94045D01*
Y93029D01*
X81604Y92775D01*
X82112D01*
X82366Y93029D01*
X82874D02*
X83127Y92775D01*
X83635D01*
X83889Y93029D01*
Y94045D01*
X83635Y94299D01*
X83127D01*
X82874Y94045D01*
Y93791D01*
X83127Y93537D01*
X83889D01*
X100116Y85545D02*
X99862Y85799D01*
X99354D01*
X99100Y85545D01*
Y84529D01*
X99354Y84275D01*
X99862D01*
X100116Y84529D01*
X100624Y85545D02*
X100877Y85799D01*
X101385D01*
X101639Y85545D01*
Y85291D01*
X101385Y85037D01*
X101639Y84783D01*
Y84529D01*
X101385Y84275D01*
X100877D01*
X100624Y84529D01*
Y84783D01*
X100877Y85037D01*
X100624Y85291D01*
Y85545D01*
X100877Y85037D02*
X101385D01*
X79055Y63566D02*
X78801Y63312D01*
Y62804D01*
X79055Y62550D01*
X80071D01*
X80325Y62804D01*
Y63312D01*
X80071Y63566D01*
X78801Y64074D02*
Y65089D01*
X79055D01*
X80071Y64074D01*
X80325D01*
X103816Y82470D02*
X103562Y82724D01*
X103054D01*
X102800Y82470D01*
Y81454D01*
X103054Y81200D01*
X103562D01*
X103816Y81454D01*
X105339Y82724D02*
X104831Y82470D01*
X104324Y81962D01*
Y81454D01*
X104577Y81200D01*
X105085D01*
X105339Y81454D01*
Y81708D01*
X105085Y81962D01*
X104324D01*
X74041Y73370D02*
X73787Y73624D01*
X73279D01*
X73025Y73370D01*
Y72354D01*
X73279Y72100D01*
X73787D01*
X74041Y72354D01*
X75310Y72100D02*
Y73624D01*
X74549Y72862D01*
X75564D01*
D14*
X86575Y74900D02*
Y75100D01*
X88175Y74900D02*
Y75100D01*
X90650Y74925D02*
Y75125D01*
X89050Y74925D02*
Y75125D01*
X102650Y84400D02*
X105550D01*
Y83000D02*
Y84400D01*
X102650Y83000D02*
X105550D01*
X102650D02*
Y84400D01*
X105550Y79450D02*
Y80950D01*
X102550D02*
X105550D01*
X102550Y79450D02*
Y80950D01*
Y79450D02*
X105550D01*
X99050Y82600D02*
X101950D01*
Y81200D02*
Y82600D01*
X99050Y81200D02*
X101950D01*
X99050D02*
Y82600D01*
X62225Y84825D02*
Y89325D01*
X65825Y84825D02*
Y89325D01*
X62225Y84825D02*
X62450D01*
X62225Y89325D02*
X62450D01*
X65600Y84825D02*
X65825D01*
X65600Y89325D02*
X65825D01*
X66450Y91050D02*
Y99850D01*
X59050Y91050D02*
X66450D01*
X59050D02*
Y99850D01*
X66450D01*
X103375Y86275D02*
Y87875D01*
Y86275D02*
X110175D01*
X116675D02*
Y87875D01*
X110175Y86275D02*
X116675D01*
Y93175D02*
Y96175D01*
X103375Y93175D02*
Y96175D01*
X78700Y65675D02*
X80200D01*
Y68675D01*
X78700D02*
X80200D01*
X78700Y65675D02*
Y68675D01*
X71450Y80675D02*
X75150D01*
X71450Y74075D02*
X75150D01*
X92900Y94150D02*
X93000D01*
X92900Y94900D02*
X93000D01*
X88450Y81200D02*
X91350D01*
X88450D02*
Y82600D01*
X91350D01*
Y81200D02*
Y82600D01*
X104525Y78825D02*
X104725D01*
X104525Y77225D02*
X104725D01*
X114725Y79900D02*
Y80850D01*
X113475Y78650D02*
X114725Y79900D01*
X113475Y85450D02*
X114725Y84200D01*
Y83250D02*
Y84200D01*
X107925Y78650D02*
X113475D01*
X107925D02*
Y80850D01*
Y83250D02*
Y85450D01*
X113475D01*
X87525Y81762D02*
Y90225D01*
X83750D02*
X87525D01*
X77025D02*
X80800D01*
X77025Y81762D02*
Y90225D01*
X83750Y79725D02*
X85488D01*
X87525Y81762D01*
X77025D02*
X79062Y79725D01*
X80800D01*
X66775Y78225D02*
Y78425D01*
X68375Y78225D02*
Y78425D01*
X57375Y82325D02*
Y83500D01*
X64575Y82325D02*
Y83500D01*
X57375Y77200D02*
Y78375D01*
X64575Y77200D02*
Y78375D01*
X57375Y83500D02*
X64575D01*
X57375Y77200D02*
X64575D01*
X102550Y76550D02*
X118950D01*
X102550Y61150D02*
X118950D01*
X102550Y75900D02*
Y76550D01*
X118950Y75900D02*
Y76550D01*
X102550Y61150D02*
Y61800D01*
X118950Y61150D02*
Y61800D01*
X95275Y93850D02*
Y95250D01*
Y93850D02*
X98175D01*
Y95250D01*
X95275D02*
X98175D01*
X75175Y95700D02*
X75275D01*
X75175Y96450D02*
X75275D01*
X73900Y93225D02*
Y94625D01*
Y93225D02*
X76800D01*
Y94625D01*
X73900D02*
X76800D01*
X90225Y63800D02*
Y70200D01*
X83825Y63800D02*
Y70200D01*
Y63800D02*
X90225D01*
X83825Y70200D02*
X90225D01*
X74500Y67175D02*
Y68575D01*
X71600D02*
X74500D01*
X71600Y67175D02*
Y68575D01*
Y67175D02*
X74500D01*
X69500Y73600D02*
X72500D01*
Y72100D02*
Y73600D01*
X69500Y72100D02*
X72500D01*
X69500D02*
Y73600D01*
X61000Y70675D02*
Y72075D01*
X58100D02*
X61000D01*
X58100Y70675D02*
Y72075D01*
Y70675D02*
X61000D01*
X64525Y70650D02*
Y72050D01*
X61625D02*
X64525D01*
X61625Y70650D02*
Y72050D01*
Y70650D02*
X64525D01*
X68275D02*
Y72050D01*
X65375D02*
X68275D01*
X65375Y70650D02*
Y72050D01*
Y70650D02*
X68275D01*
X97875Y77875D02*
X98800D01*
Y77700D02*
Y77875D01*
X94400D02*
X95325D01*
X94400Y77700D02*
Y77875D01*
Y71475D02*
Y71650D01*
Y71475D02*
X95325D01*
X97875D02*
X98800D01*
Y71650D01*
X95600Y81200D02*
Y82600D01*
Y81200D02*
X98500D01*
Y82600D01*
X95600D02*
X98500D01*
X92075Y81225D02*
Y82625D01*
Y81225D02*
X94975D01*
Y82625D01*
X92075D02*
X94975D01*
M02*
