G04*
G04 #@! TF.GenerationSoftware,Altium Limited,Altium Designer,19.1.6 (110)*
G04*
G04 Layer_Physical_Order=1*
G04 Layer_Color=255*
%FSLAX43Y43*%
%MOMM*%
G71*
G01*
G75*
%ADD25C,1.900*%
%ADD26R,1.900X1.900*%
%ADD31R,1.700X1.800*%
%ADD32R,2.200X4.100*%
G04:AMPARAMS|DCode=33|XSize=1.8mm|YSize=1mm|CornerRadius=0.25mm|HoleSize=0mm|Usage=FLASHONLY|Rotation=90.000|XOffset=0mm|YOffset=0mm|HoleType=Round|Shape=RoundedRectangle|*
%AMROUNDEDRECTD33*
21,1,1.800,0.500,0,0,90.0*
21,1,1.300,1.000,0,0,90.0*
1,1,0.500,0.250,0.650*
1,1,0.500,0.250,-0.650*
1,1,0.500,-0.250,-0.650*
1,1,0.500,-0.250,0.650*
%
%ADD33ROUNDEDRECTD33*%
%ADD34R,0.900X0.800*%
%ADD35R,0.800X0.950*%
%ADD36O,0.200X0.800*%
%ADD37O,0.800X0.200*%
%ADD38R,1.700X1.700*%
G04:AMPARAMS|DCode=39|XSize=0.9mm|YSize=0.8mm|CornerRadius=0.2mm|HoleSize=0mm|Usage=FLASHONLY|Rotation=90.000|XOffset=0mm|YOffset=0mm|HoleType=Round|Shape=RoundedRectangle|*
%AMROUNDEDRECTD39*
21,1,0.900,0.400,0,0,90.0*
21,1,0.500,0.800,0,0,90.0*
1,1,0.400,0.200,0.250*
1,1,0.400,0.200,-0.250*
1,1,0.400,-0.200,-0.250*
1,1,0.400,-0.200,0.250*
%
%ADD39ROUNDEDRECTD39*%
G04:AMPARAMS|DCode=40|XSize=0.9mm|YSize=0.8mm|CornerRadius=0.2mm|HoleSize=0mm|Usage=FLASHONLY|Rotation=0.000|XOffset=0mm|YOffset=0mm|HoleType=Round|Shape=RoundedRectangle|*
%AMROUNDEDRECTD40*
21,1,0.900,0.400,0,0,0.0*
21,1,0.500,0.800,0,0,0.0*
1,1,0.400,0.250,-0.200*
1,1,0.400,-0.250,-0.200*
1,1,0.400,-0.250,0.200*
1,1,0.400,0.250,0.200*
%
%ADD40ROUNDEDRECTD40*%
G04:AMPARAMS|DCode=41|XSize=0.28mm|YSize=0.3mm|CornerRadius=0.07mm|HoleSize=0mm|Usage=FLASHONLY|Rotation=90.000|XOffset=0mm|YOffset=0mm|HoleType=Round|Shape=RoundedRectangle|*
%AMROUNDEDRECTD41*
21,1,0.280,0.160,0,0,90.0*
21,1,0.140,0.300,0,0,90.0*
1,1,0.140,0.080,0.070*
1,1,0.140,0.080,-0.070*
1,1,0.140,-0.080,-0.070*
1,1,0.140,-0.080,0.070*
%
%ADD41ROUNDEDRECTD41*%
%ADD42R,1.500X2.150*%
%ADD43C,0.150*%
%ADD44C,1.800*%
%ADD45R,1.800X1.800*%
%ADD46C,6.200*%
%ADD47C,0.600*%
G36*
X99788Y92961D02*
X100298Y92824D01*
X100786Y92622D01*
X101244Y92358D01*
X101663Y92036D01*
X102036Y91663D01*
X102358Y91244D01*
X102622Y90786D01*
X102824Y90298D01*
X102961Y89788D01*
X103030Y89264D01*
Y89000D01*
X103030Y53285D01*
X103030Y53021D01*
X102961Y52497D01*
X102824Y51987D01*
X102622Y51499D01*
X102358Y51041D01*
X102036Y50622D01*
X101663Y50248D01*
X101244Y49927D01*
X100786Y49663D01*
X100298Y49461D01*
X99788Y49324D01*
X99264Y49255D01*
X99000Y49255D01*
X74000D01*
X73736Y49255D01*
X73212Y49324D01*
X72702Y49461D01*
X72214Y49663D01*
X71756Y49927D01*
X71337Y50249D01*
X70963Y50622D01*
X70642Y51041D01*
X70378Y51499D01*
X70176Y51987D01*
X70039Y52497D01*
X69970Y53021D01*
Y53285D01*
Y89000D01*
Y89264D01*
X70039Y89788D01*
X70176Y90298D01*
X70378Y90786D01*
X70642Y91244D01*
X70964Y91663D01*
X71337Y92036D01*
X71756Y92358D01*
X72214Y92622D01*
X72702Y92824D01*
X73212Y92961D01*
X73736Y93030D01*
X99264D01*
X99788Y92961D01*
D02*
G37*
%LPC*%
G36*
X88320Y92000D02*
Y91425D01*
X88895D01*
X88862Y91505D01*
X88662Y91767D01*
X88400Y91967D01*
X88320Y92000D01*
D02*
G37*
G36*
X87220D02*
X87140Y91967D01*
X86878Y91767D01*
X86678Y91505D01*
X86645Y91425D01*
X87220D01*
Y92000D01*
D02*
G37*
G36*
X88895Y90325D02*
X88320D01*
Y89750D01*
X88400Y89783D01*
X88662Y89983D01*
X88862Y90245D01*
X88895Y90325D01*
D02*
G37*
G36*
X87220D02*
X86645D01*
X86678Y90245D01*
X86848Y90023D01*
X86878Y89983D01*
X87140Y89783D01*
X87220Y89750D01*
Y90325D01*
D02*
G37*
G36*
X89325Y87225D02*
X88875D01*
Y86725D01*
X89325D01*
Y87225D01*
D02*
G37*
G36*
X87675D02*
X87225D01*
Y86725D01*
X87675D01*
Y87225D01*
D02*
G37*
G36*
X99000Y92310D02*
X98482Y92269D01*
X97977Y92148D01*
X97497Y91949D01*
X97054Y91678D01*
X96659Y91341D01*
X96322Y90946D01*
X96051Y90503D01*
X95852Y90023D01*
X95731Y89518D01*
X95690Y89000D01*
X95731Y88482D01*
X95852Y87977D01*
X96051Y87497D01*
X96322Y87054D01*
X96659Y86659D01*
X97054Y86322D01*
X97497Y86051D01*
X97977Y85852D01*
X98482Y85731D01*
X99000Y85690D01*
X99518Y85731D01*
X100023Y85852D01*
X100503Y86051D01*
X100946Y86322D01*
X101341Y86659D01*
X101678Y87054D01*
X101949Y87497D01*
X102148Y87977D01*
X102269Y88482D01*
X102310Y89000D01*
X102269Y89518D01*
X102148Y90023D01*
X101949Y90503D01*
X101678Y90946D01*
X101341Y91341D01*
X100946Y91678D01*
X100503Y91949D01*
X100023Y92148D01*
X99518Y92269D01*
X99000Y92310D01*
D02*
G37*
G36*
X74000D02*
X73482Y92269D01*
X72977Y92148D01*
X72497Y91949D01*
X72054Y91678D01*
X71659Y91341D01*
X71322Y90946D01*
X71051Y90503D01*
X70852Y90023D01*
X70731Y89518D01*
X70690Y89000D01*
X70731Y88482D01*
X70852Y87977D01*
X71051Y87497D01*
X71322Y87054D01*
X71659Y86659D01*
X72054Y86322D01*
X72497Y86051D01*
X72977Y85852D01*
X73482Y85731D01*
X74000Y85690D01*
X74518Y85731D01*
X75023Y85852D01*
X75503Y86051D01*
X75946Y86322D01*
X76341Y86659D01*
X76678Y87054D01*
X76949Y87497D01*
X77148Y87977D01*
X77269Y88482D01*
X77310Y89000D01*
X77269Y89518D01*
X77148Y90023D01*
X76949Y90503D01*
X76678Y90946D01*
X76341Y91341D01*
X75946Y91678D01*
X75503Y91949D01*
X75023Y92148D01*
X74518Y92269D01*
X74000Y92310D01*
D02*
G37*
G36*
X89325Y85525D02*
X88875D01*
Y85025D01*
X89325D01*
Y85525D01*
D02*
G37*
G36*
X87675D02*
X87225D01*
Y85025D01*
X87675D01*
Y85525D01*
D02*
G37*
G36*
X95550Y84425D02*
Y83850D01*
X96125D01*
X96092Y83930D01*
X95892Y84192D01*
X95630Y84392D01*
X95550Y84425D01*
D02*
G37*
G36*
X94450D02*
X94370Y84392D01*
X94108Y84192D01*
X93908Y83930D01*
X93875Y83850D01*
X94450D01*
Y84425D01*
D02*
G37*
G36*
X87440Y82695D02*
Y82315D01*
X87780D01*
X87752Y82456D01*
X87663Y82589D01*
X87531Y82677D01*
X87440Y82695D01*
D02*
G37*
G36*
X96125Y82750D02*
X95550D01*
Y82175D01*
X95630Y82208D01*
X95892Y82408D01*
X96092Y82670D01*
X96125Y82750D01*
D02*
G37*
G36*
X94450D02*
X93875D01*
X93908Y82670D01*
X94108Y82408D01*
X94370Y82208D01*
X94450Y82175D01*
Y82750D01*
D02*
G37*
G36*
X87780Y81785D02*
X87440D01*
Y81405D01*
X87531Y81423D01*
X87663Y81512D01*
X87752Y81644D01*
X87780Y81785D01*
D02*
G37*
G36*
X84080Y92025D02*
Y92025D01*
X84080Y92025D01*
X83962Y92004D01*
X82375D01*
X82297Y91988D01*
X82231Y91944D01*
X82187Y91878D01*
X82171Y91800D01*
Y81337D01*
X82100Y81279D01*
X73875D01*
X73797Y81263D01*
X73731Y81219D01*
X73687Y81153D01*
X73671Y81075D01*
Y75248D01*
X71697Y73659D01*
X71690Y73650D01*
X71681Y73644D01*
X71665Y73620D01*
X71646Y73598D01*
X71643Y73587D01*
X71637Y73578D01*
X71631Y73550D01*
X71622Y73522D01*
X71623Y73511D01*
X71621Y73500D01*
Y68900D01*
X71637Y68822D01*
X71681Y68756D01*
X71747Y68712D01*
X71825Y68696D01*
X76288D01*
X76366Y68712D01*
X76432Y68756D01*
X76476Y68822D01*
X76492Y68900D01*
Y70514D01*
X76485Y70547D01*
X76481Y70580D01*
X76443Y70691D01*
X76440Y70697D01*
X76438Y70703D01*
X76420Y70731D01*
X76403Y70760D01*
X76398Y70764D01*
X76394Y70769D01*
X76366Y70788D01*
X76340Y70808D01*
X76333Y70810D01*
X76328Y70813D01*
X76295Y70820D01*
X76263Y70829D01*
X76250Y70953D01*
Y72497D01*
X76263Y72621D01*
X76295Y72630D01*
X76328Y72637D01*
X76333Y72640D01*
X76340Y72642D01*
X76366Y72662D01*
X76394Y72681D01*
X76398Y72686D01*
X76403Y72690D01*
X76420Y72719D01*
X76438Y72747D01*
X76440Y72753D01*
X76443Y72759D01*
X76481Y72870D01*
X76485Y72903D01*
X76492Y72936D01*
Y80021D01*
X77562Y80021D01*
X77630Y79894D01*
X77601Y79851D01*
X77576Y79727D01*
X77566Y79675D01*
Y79325D01*
X78275D01*
X78984D01*
Y79675D01*
X78949Y79851D01*
X78920Y79894D01*
X78988Y80021D01*
X80946D01*
Y79995D01*
X80950Y79975D01*
D01*
D01*
D01*
X80950Y76096D01*
X80966Y76018D01*
X81010Y75952D01*
X81010Y75952D01*
X81356Y75606D01*
X81422Y75562D01*
X81500Y75546D01*
X82624D01*
X82632Y75526D01*
X82645Y75419D01*
X82577Y75373D01*
X82561Y75350D01*
X83000D01*
Y74925D01*
X82485D01*
X82475Y74904D01*
X77500D01*
X77422Y74888D01*
X77356Y74844D01*
X77312Y74778D01*
X77296Y74700D01*
Y72931D01*
X77297Y72927D01*
X77296Y72922D01*
X77305Y72888D01*
X77312Y72853D01*
X77314Y72849D01*
X77315Y72844D01*
X77365Y72738D01*
X77386Y72710D01*
X77406Y72681D01*
X77410Y72678D01*
X77413Y72674D01*
X77443Y72656D01*
X77472Y72637D01*
X77477Y72636D01*
X77481Y72633D01*
X77516Y72628D01*
X77550Y72621D01*
Y70829D01*
X77516Y70822D01*
X77481Y70817D01*
X77477Y70814D01*
X77472Y70813D01*
X77443Y70794D01*
X77413Y70776D01*
X77410Y70772D01*
X77406Y70769D01*
X77386Y70740D01*
X77365Y70712D01*
X77315Y70606D01*
X77314Y70601D01*
X77312Y70597D01*
X77305Y70562D01*
X77296Y70528D01*
X77297Y70523D01*
X77296Y70519D01*
Y63675D01*
Y63425D01*
X77312Y63347D01*
X77356Y63281D01*
X77422Y63237D01*
X77500Y63221D01*
X80696D01*
Y58955D01*
X79700D01*
Y59300D01*
X78400D01*
Y58100D01*
X79700D01*
Y58395D01*
X80696D01*
X80696Y52250D01*
X80712Y52172D01*
X80756Y52106D01*
X80822Y52062D01*
X80900Y52046D01*
X83485D01*
X83506Y52050D01*
X83527Y52050D01*
X83544Y52058D01*
X83563Y52062D01*
X83581Y52073D01*
X83600Y52082D01*
X83613Y52095D01*
X83629Y52106D01*
X83641Y52123D01*
X83656Y52139D01*
X83721Y52239D01*
X83728Y52256D01*
X83738Y52272D01*
X83743Y52293D01*
X83750Y52313D01*
X83750Y52325D01*
X83770Y52450D01*
X85659D01*
X85747Y52360D01*
X85755Y52330D01*
X85762Y52299D01*
X85766Y52292D01*
X85769Y52284D01*
X85834Y52157D01*
X85853Y52132D01*
X85871Y52106D01*
X85878Y52101D01*
X85883Y52095D01*
X85911Y52079D01*
X85937Y52062D01*
X85945Y52060D01*
X85953Y52056D01*
X85984Y52052D01*
X86015Y52046D01*
X86200D01*
X86278Y52062D01*
X86344Y52106D01*
X86388Y52172D01*
X86404Y52250D01*
X86404Y59650D01*
X86388Y59728D01*
X86344Y59794D01*
X86278Y59838D01*
X86200Y59854D01*
X84654D01*
Y60000D01*
X84654Y68975D01*
X84638Y69053D01*
X84594Y69119D01*
X84528Y69163D01*
X84450Y69179D01*
X81754Y69179D01*
Y73100D01*
X81860Y73207D01*
X82205D01*
X82273Y73080D01*
X82223Y73006D01*
X82192Y72850D01*
Y72450D01*
Y72450D01*
D01*
X82212Y72350D01*
X82223Y72294D01*
X82312Y72162D01*
X82444Y72073D01*
X82600Y72042D01*
X83100D01*
X83256Y72073D01*
X83388Y72162D01*
X83477Y72294D01*
X83508Y72450D01*
Y72467D01*
D01*
Y72850D01*
X83503Y72872D01*
X83548Y72902D01*
X84016Y73370D01*
X84236D01*
X84248Y73243D01*
X84169Y73227D01*
X84037Y73138D01*
X83948Y73006D01*
X83917Y72850D01*
Y72450D01*
Y72450D01*
D01*
X83928Y72394D01*
X83948Y72294D01*
X84037Y72162D01*
X84169Y72073D01*
X84325Y72042D01*
X84825D01*
X84981Y72073D01*
X85113Y72162D01*
X85202Y72294D01*
X85233Y72450D01*
Y72473D01*
X85780Y72475D01*
Y73743D01*
X85907Y73796D01*
X86470Y73234D01*
Y73036D01*
X86416Y72955D01*
X86395Y72850D01*
Y72710D01*
X86416Y72605D01*
X86475Y72515D01*
Y72515D01*
X86416Y72425D01*
X86401Y72350D01*
X86750D01*
X87099D01*
X87099Y72352D01*
D01*
X87084Y72425D01*
X87025Y72515D01*
Y72515D01*
X87084Y72605D01*
X87105Y72710D01*
Y72850D01*
X87084Y72955D01*
X87030Y73036D01*
Y73211D01*
X87157Y73224D01*
X87166Y73181D01*
X87227Y73090D01*
X87318Y73029D01*
X87400Y73012D01*
Y72525D01*
X88700D01*
Y73725D01*
X87695D01*
X87684Y73782D01*
X87623Y73873D01*
X86830Y74666D01*
Y74844D01*
X86850D01*
X86967Y74867D01*
X87066Y74934D01*
X87119Y75012D01*
X87127Y75019D01*
X87196Y75043D01*
X87266Y75055D01*
X87380Y74979D01*
X87575Y74940D01*
X87770Y74979D01*
X87935Y75090D01*
X88046Y75255D01*
X88085Y75450D01*
X88046Y75645D01*
X88004Y75708D01*
X87937Y75812D01*
X88004Y75917D01*
X88046Y75980D01*
X88085Y76175D01*
X88046Y76370D01*
X87935Y76535D01*
X87770Y76646D01*
X87575Y76685D01*
X87380Y76646D01*
X87232Y76547D01*
X87227Y76546D01*
X87133Y76633D01*
X87133Y76633D01*
X87156Y76750D01*
X87133Y76867D01*
X87066Y76966D01*
X86967Y77033D01*
X86850Y77056D01*
X86327D01*
X86238Y77088D01*
X86206Y77177D01*
Y77700D01*
X86186Y77801D01*
X86207Y77880D01*
X86227Y77930D01*
X86345Y77954D01*
X86510Y78065D01*
X86621Y78230D01*
X86660Y78425D01*
X86621Y78620D01*
X86510Y78785D01*
X86345Y78896D01*
X86150Y78935D01*
X85955Y78896D01*
X85790Y78785D01*
X85788Y78784D01*
X85661D01*
X85660Y78785D01*
X85495Y78896D01*
X85300Y78935D01*
X85105Y78896D01*
X84940Y78785D01*
X84829Y78620D01*
X84790Y78425D01*
X84829Y78230D01*
X84883Y78149D01*
X84835Y78008D01*
X84795Y77987D01*
X84700Y78006D01*
X84583Y77983D01*
X84500Y77927D01*
X84417Y77983D01*
X84300Y78006D01*
X84183Y77983D01*
X84084Y77916D01*
X84057Y77877D01*
X83930Y77915D01*
Y78771D01*
X84100D01*
X84178Y78787D01*
X84244Y78831D01*
X84288Y78897D01*
X84304Y78975D01*
Y78991D01*
X86544Y81231D01*
X86588Y81297D01*
X86604Y81375D01*
Y81424D01*
X86731Y81482D01*
X86782Y81448D01*
X86819Y81423D01*
X86910Y81405D01*
Y82050D01*
Y82695D01*
X86819Y82677D01*
X86731Y82618D01*
X86604Y82676D01*
Y89625D01*
X86588Y89703D01*
X86544Y89769D01*
X86478Y89813D01*
X86400Y89829D01*
X86380D01*
Y92025D01*
X84080D01*
X84080Y92025D01*
D02*
G37*
G36*
X97545Y84465D02*
X97245Y84425D01*
X96965Y84310D01*
X96725Y84125D01*
X96541Y83885D01*
X96425Y83605D01*
X96385Y83305D01*
X96425Y83005D01*
X96541Y82725D01*
X96725Y82485D01*
X96965Y82301D01*
X97245Y82185D01*
Y81341D01*
X96109Y80205D01*
X95650D01*
Y80500D01*
X94350D01*
Y79300D01*
X95650D01*
Y79645D01*
X96225D01*
X96332Y79666D01*
X96423Y79727D01*
X97723Y81027D01*
X97784Y81118D01*
X97805Y81225D01*
Y82179D01*
X97845Y82185D01*
X98125Y82301D01*
X98365Y82485D01*
X98550Y82725D01*
X98665Y83005D01*
X98705Y83305D01*
X98665Y83605D01*
X98550Y83885D01*
X98365Y84125D01*
X98125Y84310D01*
X97845Y84425D01*
X97545Y84465D01*
D02*
G37*
G36*
X93610Y84450D02*
X91310D01*
Y82150D01*
X92180D01*
Y80475D01*
X91775D01*
Y79275D01*
X93075D01*
Y80475D01*
X92740D01*
Y82150D01*
X93610D01*
Y84450D01*
D02*
G37*
G36*
X93075Y78975D02*
X91775D01*
Y78605D01*
X91514D01*
X91460Y78685D01*
X91295Y78796D01*
X91100Y78835D01*
X90905Y78796D01*
X90740Y78685D01*
X90629Y78520D01*
X90590Y78325D01*
X90629Y78130D01*
X90740Y77965D01*
X90905Y77854D01*
X91100Y77815D01*
X91295Y77854D01*
X91460Y77965D01*
X91514Y78045D01*
X91775D01*
Y77775D01*
X92145D01*
Y77475D01*
X91510D01*
Y74925D01*
X93410D01*
Y77475D01*
X92705D01*
Y77775D01*
X93075D01*
Y78975D01*
D02*
G37*
G36*
X77975Y78725D02*
X77566D01*
Y78375D01*
X77601Y78199D01*
X77701Y78051D01*
X77849Y77951D01*
X77975Y77926D01*
Y78725D01*
D02*
G37*
G36*
X78984D02*
X78575D01*
Y77926D01*
X78701Y77951D01*
X78849Y78051D01*
X78949Y78199D01*
X78984Y78375D01*
Y78725D01*
D02*
G37*
G36*
X95650Y79000D02*
X94350D01*
Y77800D01*
X94720D01*
Y77475D01*
X94050D01*
Y74925D01*
X95950D01*
Y77475D01*
X95280D01*
Y77800D01*
X95650D01*
Y78095D01*
X95811D01*
X95865Y78015D01*
X96030Y77904D01*
X96225Y77865D01*
X96420Y77904D01*
X96585Y78015D01*
X96696Y78180D01*
X96735Y78375D01*
X96696Y78570D01*
X96585Y78735D01*
X96420Y78846D01*
X96225Y78885D01*
X96030Y78846D01*
X95865Y78735D01*
X95811Y78655D01*
X95650D01*
Y79000D01*
D02*
G37*
G36*
X78575Y77599D02*
Y76800D01*
X78984D01*
Y77150D01*
X78949Y77326D01*
X78849Y77474D01*
X78701Y77574D01*
X78575Y77599D01*
D02*
G37*
G36*
X77975Y77599D02*
X77849Y77574D01*
X77701Y77474D01*
X77601Y77326D01*
X77566Y77150D01*
Y76800D01*
X77975D01*
Y77599D01*
D02*
G37*
G36*
Y76200D02*
X77566D01*
Y75850D01*
X77601Y75674D01*
X77701Y75526D01*
X77849Y75426D01*
X77975Y75401D01*
Y76200D01*
D02*
G37*
G36*
X78984D02*
X78575D01*
Y75401D01*
X78701Y75426D01*
X78814Y75502D01*
D01*
X78849Y75526D01*
X78949Y75674D01*
X78984Y75850D01*
Y76200D01*
D02*
G37*
G36*
X97575Y78385D02*
X97380Y78346D01*
X97215Y78235D01*
X97104Y78070D01*
X97065Y77875D01*
X97104Y77680D01*
X97156Y77602D01*
X97088Y77475D01*
X96590D01*
Y74925D01*
X98490D01*
Y77475D01*
X98062D01*
X97994Y77602D01*
X98046Y77680D01*
X98085Y77875D01*
X98046Y78070D01*
X97935Y78235D01*
X97770Y78346D01*
X97575Y78385D01*
D02*
G37*
G36*
X87099Y72150D02*
X86850D01*
Y71909D01*
X86935Y71926D01*
X87025Y71985D01*
X87084Y72075D01*
X87099Y72150D01*
D02*
G37*
G36*
X86650D02*
X86401D01*
X86416Y72075D01*
X86475Y71985D01*
X86565Y71926D01*
X86650Y71909D01*
Y72150D01*
D02*
G37*
G36*
X88700Y72225D02*
X88315D01*
Y71890D01*
X88700D01*
Y72225D01*
D02*
G37*
G36*
X87785D02*
X87400D01*
Y71890D01*
X87785D01*
Y72225D01*
D02*
G37*
G36*
X84840Y71755D02*
Y71415D01*
X85220D01*
X85202Y71506D01*
X85114Y71638D01*
X85057Y71676D01*
X84981Y71727D01*
X84840Y71755D01*
D02*
G37*
G36*
X84310D02*
X84169Y71727D01*
X84037Y71638D01*
X83948Y71506D01*
X83930Y71415D01*
X84310D01*
Y71755D01*
D02*
G37*
G36*
X83115Y71755D02*
Y71415D01*
X83495D01*
X83477Y71506D01*
X83389Y71638D01*
X83256Y71727D01*
X83115Y71755D01*
D02*
G37*
G36*
X82585D02*
X82444Y71727D01*
X82312Y71638D01*
X82223Y71506D01*
X82205Y71415D01*
X82585D01*
Y71755D01*
D02*
G37*
G36*
X88700Y71360D02*
X88315D01*
Y71025D01*
X88700D01*
Y71360D01*
D02*
G37*
G36*
X87785D02*
X87400D01*
Y71025D01*
X87785D01*
Y71360D01*
D02*
G37*
G36*
X85220Y70885D02*
X84840D01*
Y70545D01*
X84981Y70573D01*
X85114Y70662D01*
X85202Y70794D01*
X85220Y70885D01*
D02*
G37*
G36*
X84310D02*
X83930D01*
X83948Y70794D01*
X84037Y70662D01*
X84169Y70573D01*
X84310Y70545D01*
Y70885D01*
D02*
G37*
G36*
X83495Y70885D02*
X83115D01*
Y70545D01*
X83256Y70573D01*
X83389Y70662D01*
X83477Y70794D01*
X83495Y70885D01*
D02*
G37*
G36*
X82585D02*
X82205D01*
X82223Y70794D01*
X82312Y70662D01*
X82444Y70573D01*
X82585Y70545D01*
Y70885D01*
D02*
G37*
G36*
X98490Y69225D02*
X98040D01*
Y68450D01*
X98490D01*
Y69225D01*
D02*
G37*
G36*
X97040D02*
X96590D01*
Y68450D01*
X97040D01*
Y69225D01*
D02*
G37*
G36*
X98490Y67450D02*
X98040D01*
Y66675D01*
X98490D01*
Y67450D01*
D02*
G37*
G36*
X97040D02*
X96590D01*
Y66675D01*
X97040D01*
Y67450D01*
D02*
G37*
G36*
X95950Y69225D02*
X94050D01*
Y66675D01*
X94695D01*
Y66325D01*
X94325D01*
Y65125D01*
X95625D01*
Y66325D01*
X95255D01*
Y66675D01*
X95950D01*
Y69225D01*
D02*
G37*
G36*
X93410D02*
X91510D01*
Y66675D01*
X92155D01*
Y66325D01*
X91750D01*
Y65125D01*
X93050D01*
Y66325D01*
X92715D01*
Y66675D01*
X93410D01*
Y69225D01*
D02*
G37*
G36*
X95625Y64825D02*
X94325D01*
Y64729D01*
X93050D01*
Y64825D01*
X91750D01*
Y63829D01*
X91716Y63822D01*
X91681Y63817D01*
X91677Y63814D01*
X91672Y63813D01*
X91643Y63794D01*
X91613Y63776D01*
X91610Y63772D01*
X91606Y63769D01*
X91586Y63740D01*
X91565Y63712D01*
X91515Y63606D01*
X91514Y63601D01*
X91512Y63597D01*
X91505Y63562D01*
X91496Y63528D01*
X91497Y63523D01*
X91496Y63519D01*
X91496Y62200D01*
X91512Y62122D01*
X91556Y62056D01*
X91622Y62012D01*
X91700Y61996D01*
X93050D01*
Y61900D01*
X94350D01*
Y61996D01*
X95750D01*
X95828Y62012D01*
X95894Y62056D01*
X95938Y62122D01*
X95954Y62200D01*
X95954Y63620D01*
X95947Y63655D01*
X95941Y63691D01*
X95939Y63694D01*
X95938Y63698D01*
X95918Y63728D01*
X95900Y63759D01*
X95896Y63761D01*
X95894Y63764D01*
X95864Y63784D01*
X95835Y63805D01*
X95831Y63806D01*
X95828Y63809D01*
X95793Y63816D01*
X95758Y63824D01*
X95631Y63829D01*
X95625Y63951D01*
Y64825D01*
D02*
G37*
G36*
X86600Y62924D02*
Y62125D01*
X87009D01*
Y62475D01*
X86974Y62651D01*
X86874Y62799D01*
X86726Y62899D01*
X86600Y62924D01*
D02*
G37*
G36*
X86000D02*
X85874Y62899D01*
X85726Y62799D01*
X85626Y62651D01*
X85591Y62475D01*
Y62125D01*
X86000D01*
Y62924D01*
D02*
G37*
G36*
X78000Y62500D02*
X77665D01*
Y62090D01*
X78000D01*
Y62500D01*
D02*
G37*
G36*
X77135D02*
X76800D01*
Y62090D01*
X77135D01*
Y62500D01*
D02*
G37*
G36*
X78000Y61560D02*
X77665D01*
Y61150D01*
X78000D01*
Y61560D01*
D02*
G37*
G36*
X77135D02*
X76800D01*
Y61150D01*
X77135D01*
Y61560D01*
D02*
G37*
G36*
X87009Y61525D02*
X86600D01*
Y60726D01*
X86726Y60751D01*
X86874Y60851D01*
X86974Y60999D01*
X87009Y61175D01*
Y61525D01*
D02*
G37*
G36*
X86000D02*
X85591D01*
Y61175D01*
X85626Y60999D01*
X85726Y60851D01*
X85874Y60751D01*
X86000Y60726D01*
Y61525D01*
D02*
G37*
G36*
X79650Y62500D02*
X78450D01*
Y61150D01*
X78770D01*
Y60800D01*
X78400D01*
Y59600D01*
X79700D01*
Y60800D01*
X79330D01*
Y61150D01*
X79650D01*
Y62500D01*
D02*
G37*
G36*
X94350Y61600D02*
X93050D01*
Y60400D01*
X93420D01*
Y60214D01*
X93340Y60160D01*
X93229Y59995D01*
X93190Y59800D01*
X93229Y59605D01*
X93340Y59440D01*
X93505Y59329D01*
X93700Y59290D01*
X93895Y59329D01*
X94060Y59440D01*
X94171Y59605D01*
X94210Y59800D01*
X94171Y59995D01*
X94060Y60160D01*
X93980Y60214D01*
Y60400D01*
X94350D01*
Y61600D01*
D02*
G37*
G36*
X88750Y54642D02*
Y54050D01*
X89342D01*
X89298Y54155D01*
X89106Y54406D01*
X88855Y54598D01*
X88750Y54642D01*
D02*
G37*
G36*
X87750D02*
X87645Y54598D01*
X87394Y54406D01*
X87202Y54155D01*
X87158Y54050D01*
X87750D01*
Y54642D01*
D02*
G37*
G36*
X89342Y53050D02*
X88750D01*
Y52458D01*
X88855Y52502D01*
X89106Y52694D01*
X89298Y52945D01*
X89342Y53050D01*
D02*
G37*
G36*
X87750D02*
X87158D01*
X87202Y52945D01*
X87394Y52694D01*
X87645Y52502D01*
X87750Y52458D01*
Y53050D01*
D02*
G37*
G36*
X99000Y57595D02*
X98482Y57554D01*
X97977Y57433D01*
X97497Y57234D01*
X97054Y56963D01*
X96659Y56626D01*
X96322Y56231D01*
X96051Y55788D01*
X95852Y55308D01*
X95731Y54803D01*
X95690Y54285D01*
X95731Y53767D01*
X95852Y53262D01*
X96051Y52782D01*
X96322Y52339D01*
X96659Y51944D01*
X97054Y51607D01*
X97497Y51336D01*
X97977Y51137D01*
X98482Y51016D01*
X99000Y50975D01*
X99518Y51016D01*
X100023Y51137D01*
X100503Y51336D01*
X100946Y51607D01*
X101341Y51944D01*
X101678Y52339D01*
X101949Y52782D01*
X102148Y53262D01*
X102269Y53767D01*
X102310Y54285D01*
X102269Y54803D01*
X102148Y55308D01*
X101949Y55788D01*
X101678Y56231D01*
X101341Y56626D01*
X100946Y56963D01*
X100503Y57234D01*
X100023Y57433D01*
X99518Y57554D01*
X99000Y57595D01*
D02*
G37*
G36*
X74000D02*
X73482Y57554D01*
X72977Y57433D01*
X72497Y57234D01*
X72054Y56963D01*
X71659Y56626D01*
X71322Y56231D01*
X71051Y55788D01*
X70852Y55308D01*
X70731Y54803D01*
X70690Y54285D01*
X70731Y53767D01*
X70852Y53262D01*
X71051Y52782D01*
X71322Y52339D01*
X71659Y51944D01*
X72054Y51607D01*
X72497Y51336D01*
X72977Y51137D01*
X73482Y51016D01*
X74000Y50975D01*
X74518Y51016D01*
X75023Y51137D01*
X75503Y51336D01*
X75946Y51607D01*
X76341Y51944D01*
X76678Y52339D01*
X76949Y52782D01*
X77148Y53262D01*
X77269Y53767D01*
X77310Y54285D01*
X77269Y54803D01*
X77148Y55308D01*
X76949Y55788D01*
X76678Y56231D01*
X76341Y56626D01*
X75946Y56963D01*
X75503Y57234D01*
X75023Y57433D01*
X74518Y57554D01*
X74000Y57595D01*
D02*
G37*
%LPD*%
G36*
X83980Y91425D02*
X85230D01*
Y90875D01*
X85780D01*
Y89625D01*
X86400D01*
Y82362D01*
X86273Y82349D01*
X86252Y82456D01*
X86163Y82588D01*
X86031Y82677D01*
X85940Y82695D01*
Y82050D01*
Y81405D01*
X86031Y81423D01*
X86163Y81512D01*
X86252Y81644D01*
X86273Y81751D01*
X86400Y81738D01*
Y81375D01*
X84100Y79075D01*
X84100Y78975D01*
X83578D01*
X83552Y79106D01*
X83464Y79238D01*
X83331Y79327D01*
X83175Y79358D01*
X82675D01*
X82519Y79327D01*
X82502Y79315D01*
X82375Y79383D01*
Y79617D01*
X82502Y79685D01*
X82519Y79673D01*
X82660Y79645D01*
Y80250D01*
Y80855D01*
X82519Y80827D01*
X82502Y80815D01*
X82375Y80883D01*
Y91800D01*
X83980D01*
Y91425D01*
D02*
G37*
G36*
X82100Y76525D02*
X82475Y76150D01*
X82775D01*
Y75750D01*
X81500D01*
X81154Y76096D01*
X81154Y79975D01*
X81150Y79995D01*
Y80225D01*
X78000D01*
X76288Y80225D01*
Y72936D01*
X76250Y72825D01*
X76161Y72825D01*
X75800D01*
Y71725D01*
Y70625D01*
X76161D01*
X76250Y70625D01*
X76288Y70514D01*
Y68900D01*
X71825D01*
Y73500D01*
X73875Y75150D01*
Y81075D01*
X82100D01*
Y76525D01*
D02*
G37*
G36*
X83918Y74075D02*
X80775D01*
Y63425D01*
X77500D01*
Y63675D01*
Y70519D01*
X77550Y70625D01*
X77627Y70625D01*
X78000D01*
Y71725D01*
Y72825D01*
X77627D01*
X77550Y72825D01*
X77500Y72931D01*
Y74700D01*
X83918D01*
Y74075D01*
D02*
G37*
G36*
X81550Y73100D02*
Y68975D01*
X84450Y68975D01*
X84450Y60000D01*
Y59650D01*
X86200D01*
X86200Y52250D01*
X86015D01*
X85950Y52377D01*
Y53050D01*
X83550D01*
Y52350D01*
X83485Y52250D01*
X80900D01*
X80900Y63268D01*
X80919Y63281D01*
X80963Y63347D01*
X80979Y63425D01*
Y73100D01*
X81550Y73100D01*
D02*
G37*
%LPC*%
G36*
X84680Y90325D02*
X83980D01*
Y89625D01*
X84680D01*
Y90325D01*
D02*
G37*
G36*
X85925Y87225D02*
X85475D01*
Y86725D01*
X85925D01*
Y87225D01*
D02*
G37*
G36*
X84275D02*
X83825D01*
Y86725D01*
X84275D01*
Y87225D01*
D02*
G37*
G36*
X85925Y85525D02*
X85475D01*
Y85025D01*
X85925D01*
Y85525D01*
D02*
G37*
G36*
X84275D02*
X83825D01*
Y85025D01*
X84275D01*
Y85525D01*
D02*
G37*
G36*
X85410Y82695D02*
X85319Y82677D01*
X85187Y82588D01*
X85098Y82456D01*
X85070Y82315D01*
X85410D01*
Y82695D01*
D02*
G37*
G36*
Y81785D02*
X85070D01*
X85098Y81644D01*
X85187Y81512D01*
X85319Y81423D01*
X85410Y81405D01*
Y81785D01*
D02*
G37*
G36*
X83190Y80855D02*
Y80515D01*
X83570D01*
X83552Y80606D01*
X83463Y80738D01*
X83331Y80827D01*
X83190Y80855D01*
D02*
G37*
G36*
X83570Y79985D02*
X83190D01*
Y79645D01*
X83331Y79673D01*
X83463Y79762D01*
X83552Y79894D01*
X83570Y79985D01*
D02*
G37*
G36*
X75575Y80124D02*
Y79325D01*
X75984D01*
Y79675D01*
X75949Y79851D01*
X75849Y79999D01*
X75701Y80099D01*
X75575Y80124D01*
D02*
G37*
G36*
X74975D02*
X74849Y80099D01*
X74701Y79999D01*
X74601Y79851D01*
X74566Y79675D01*
Y79325D01*
X74975D01*
Y80124D01*
D02*
G37*
G36*
X75984Y78725D02*
X75575D01*
Y77926D01*
X75701Y77951D01*
X75849Y78051D01*
X75949Y78199D01*
X75984Y78375D01*
Y78725D01*
D02*
G37*
G36*
X74975D02*
X74566D01*
Y78375D01*
X74601Y78199D01*
X74701Y78051D01*
X74849Y77951D01*
X74975Y77926D01*
Y78725D01*
D02*
G37*
G36*
X75575Y77599D02*
Y76800D01*
X75984D01*
Y77150D01*
X75949Y77326D01*
X75849Y77474D01*
X75701Y77574D01*
X75575Y77599D01*
D02*
G37*
G36*
X74975Y77599D02*
X74849Y77574D01*
X74701Y77474D01*
X74601Y77326D01*
X74566Y77150D01*
Y76800D01*
X74975D01*
Y77599D01*
D02*
G37*
G36*
X75984Y76200D02*
X75575D01*
Y75401D01*
X75701Y75426D01*
X75849Y75526D01*
X75949Y75674D01*
X75984Y75850D01*
Y76200D01*
D02*
G37*
G36*
X74975D02*
X74566D01*
Y75850D01*
X74601Y75674D01*
X74701Y75526D01*
X74849Y75426D01*
X74975Y75401D01*
Y76200D01*
D02*
G37*
G36*
X74600Y72825D02*
X74150D01*
Y72325D01*
X74600D01*
Y72825D01*
D02*
G37*
G36*
Y71125D02*
X74150D01*
Y70625D01*
X74600D01*
Y71125D01*
D02*
G37*
G36*
X79200Y72825D02*
Y72325D01*
X79650D01*
Y72825D01*
X79200D01*
D02*
G37*
G36*
X79650Y71125D02*
X79200D01*
Y70625D01*
X79650D01*
Y71125D01*
D02*
G37*
G36*
X80525Y68175D02*
X79925D01*
Y66625D01*
X80525D01*
Y68175D01*
D02*
G37*
G36*
X78525D02*
X77925D01*
Y66625D01*
X78525D01*
Y68175D01*
D02*
G37*
G36*
X80525Y65225D02*
X79925D01*
Y63675D01*
X80525D01*
Y65225D01*
D02*
G37*
G36*
X78525D02*
X77925D01*
Y63675D01*
X78525D01*
Y65225D01*
D02*
G37*
G36*
X83725Y68175D02*
X83125D01*
Y66625D01*
X83725D01*
Y68175D01*
D02*
G37*
G36*
X81725D02*
X81125D01*
Y66625D01*
X81725D01*
Y68175D01*
D02*
G37*
G36*
X83725Y65225D02*
X83125D01*
Y63675D01*
X83725D01*
Y65225D01*
D02*
G37*
G36*
X81725D02*
X81125D01*
Y63675D01*
X81725D01*
Y65225D01*
D02*
G37*
G36*
X83600Y62924D02*
Y62125D01*
X84009D01*
Y62475D01*
X83974Y62651D01*
X83874Y62799D01*
X83726Y62899D01*
X83600Y62924D01*
D02*
G37*
G36*
X83000Y62924D02*
X82874Y62899D01*
X82726Y62799D01*
X82626Y62651D01*
X82591Y62475D01*
Y62125D01*
X83000D01*
Y62924D01*
D02*
G37*
G36*
X84009Y61525D02*
X83600D01*
Y60726D01*
X83726Y60751D01*
X83874Y60851D01*
X83974Y60999D01*
X84009Y61175D01*
Y61525D01*
D02*
G37*
G36*
X83000D02*
X82591D01*
Y61175D01*
X82626Y60999D01*
X82726Y60851D01*
X82874Y60751D01*
X83000Y60726D01*
Y61525D01*
D02*
G37*
G36*
X85950Y54750D02*
X85250D01*
Y54050D01*
X85950D01*
Y54750D01*
D02*
G37*
G36*
X84250D02*
X83550D01*
Y54050D01*
X84250D01*
Y54750D01*
D02*
G37*
%LPD*%
G36*
X94325Y64490D02*
X94975D01*
Y64225D01*
X95240D01*
Y63625D01*
X95623D01*
X95750Y63620D01*
X95750Y62200D01*
X94350D01*
Y62235D01*
X93700D01*
X93050D01*
Y62200D01*
X91700D01*
X91700Y63519D01*
X91750Y63625D01*
X92135D01*
Y64225D01*
X92400D01*
Y64490D01*
X93050D01*
Y64525D01*
X94325D01*
Y64490D01*
D02*
G37*
%LPC*%
G36*
X94710Y63960D02*
X94325D01*
Y63625D01*
X94710D01*
Y63960D01*
D02*
G37*
G36*
X93050D02*
X92665D01*
Y63625D01*
X93050D01*
Y63960D01*
D02*
G37*
G36*
X94350Y63100D02*
X93965D01*
Y62765D01*
X94350D01*
Y63100D01*
D02*
G37*
G36*
X93435D02*
X93050D01*
Y62765D01*
X93435D01*
Y63100D01*
D02*
G37*
%LPD*%
D25*
X97545Y83305D02*
D03*
X95000Y83300D02*
D03*
X87770Y90875D02*
D03*
D26*
X92460Y83300D02*
D03*
X85230Y90875D02*
D03*
D31*
X88275Y86125D02*
D03*
X84875D02*
D03*
X78600Y71725D02*
D03*
X75200D02*
D03*
D32*
X82425Y65925D02*
D03*
X79225D02*
D03*
D33*
X78275Y76500D02*
D03*
X75275D02*
D03*
X78275Y79025D02*
D03*
X75275D02*
D03*
X86300Y61825D02*
D03*
X83300D02*
D03*
D34*
X93700Y62500D02*
D03*
X93700Y61000D02*
D03*
X88050Y71625D02*
D03*
X88050Y73125D02*
D03*
X79050Y58700D02*
D03*
X79050Y60200D02*
D03*
X94975Y65725D02*
D03*
X94975Y64225D02*
D03*
X92400Y65725D02*
D03*
X92400Y64225D02*
D03*
X92425Y78375D02*
D03*
X92425Y79875D02*
D03*
X95000Y78400D02*
D03*
X95000Y79900D02*
D03*
D35*
X77400Y61825D02*
D03*
X79050D02*
D03*
D36*
X84300Y74500D02*
D03*
X84700D02*
D03*
X85100D02*
D03*
X85500D02*
D03*
X85900D02*
D03*
Y77400D02*
D03*
X85500D02*
D03*
X85100D02*
D03*
X84700D02*
D03*
X84300D02*
D03*
D37*
X86550Y75150D02*
D03*
Y75550D02*
D03*
Y75950D02*
D03*
Y76350D02*
D03*
Y76750D02*
D03*
X83650D02*
D03*
Y76350D02*
D03*
Y75950D02*
D03*
Y75550D02*
D03*
Y75150D02*
D03*
D38*
X85100Y75950D02*
D03*
D39*
X87175Y82050D02*
D03*
X85675Y82050D02*
D03*
D40*
X82925Y78750D02*
D03*
X82925Y80250D02*
D03*
X84575Y71150D02*
D03*
X84575Y72650D02*
D03*
X82850Y71150D02*
D03*
X82850Y72650D02*
D03*
D41*
X86750Y72250D02*
D03*
Y72780D02*
D03*
D42*
X92460Y76200D02*
D03*
Y67950D02*
D03*
X95000D02*
D03*
Y76200D02*
D03*
X97540Y67950D02*
D03*
Y76200D02*
D03*
D43*
X85500Y71250D02*
Y74500D01*
X82500Y75925D02*
X82525Y75950D01*
X83650D01*
X82775Y75175D02*
X82800Y75150D01*
X83650D01*
Y76750D02*
Y79300D01*
X83638Y74387D02*
X83750Y74500D01*
X84300D01*
X84700Y73738D02*
Y74500D01*
X81350Y58675D02*
X81400Y58625D01*
X79050Y58675D02*
X81350D01*
X82850Y72675D02*
Y73400D01*
Y72600D02*
Y72675D01*
X81250Y72700D02*
Y73300D01*
X81438Y73488D01*
X82762D01*
X82850Y73400D01*
X82900Y76438D02*
Y78700D01*
X82988Y76350D02*
X83650D01*
X82900Y76438D02*
X82988Y76350D01*
X95000Y78375D02*
X96225D01*
X92400Y78325D02*
X92425Y78350D01*
X91100Y78325D02*
X92400D01*
X93700Y59800D02*
Y60975D01*
Y62525D02*
X93725Y62550D01*
X97540Y76200D02*
X97575Y76235D01*
Y77875D01*
X87453Y75450D02*
X87575D01*
X87353Y75550D02*
X87453Y75450D01*
X86550Y75550D02*
X87353D01*
X87453Y76175D02*
X87575D01*
X87228Y75950D02*
X87453Y76175D01*
X86550Y75950D02*
X87228D01*
X77375Y61800D02*
X77400Y61825D01*
X79050Y60225D02*
Y61825D01*
X87425Y73288D02*
X87912D01*
X88050Y73150D01*
X87425Y73288D02*
Y73675D01*
X86550Y74550D02*
X87425Y73675D01*
X86550Y74550D02*
Y75150D01*
X86150Y78303D02*
Y78425D01*
X85900Y78053D02*
X86150Y78303D01*
X85900Y77400D02*
Y78053D01*
X85300Y78303D02*
X85500Y78103D01*
X85300Y78303D02*
Y78425D01*
X85500Y77400D02*
Y78103D01*
X85490Y77410D02*
X85500Y77400D01*
X97525Y81225D02*
Y83285D01*
X97545Y83305D01*
X96225Y79925D02*
X97525Y81225D01*
X95000Y79925D02*
X96225D01*
X95000Y76200D02*
Y78375D01*
X92425Y76235D02*
X92460Y76200D01*
X92425Y76235D02*
Y78350D01*
Y79900D02*
X92460Y79935D01*
Y83300D01*
X94975Y65750D02*
Y68100D01*
X92400Y65750D02*
X92435Y65785D01*
Y68100D01*
X83350Y73100D02*
X83900Y73650D01*
X83275Y73100D02*
X83350D01*
X83900Y73650D02*
X84612D01*
X82850Y72675D02*
X83275Y73100D01*
X86700Y71350D02*
X86750Y71400D01*
X85100Y73200D02*
Y74500D01*
X85900Y74200D02*
X86750Y73350D01*
X84550Y72625D02*
Y72650D01*
X85100Y73200D01*
X84612Y73650D02*
X84700Y73738D01*
X86750Y72825D02*
Y73350D01*
X85900Y74200D02*
Y74500D01*
D44*
X88250Y53550D02*
D03*
D45*
X84750D02*
D03*
D46*
X99000Y89000D02*
D03*
X74000D02*
D03*
X99000Y54285D02*
D03*
X74000D02*
D03*
D47*
X100000Y84000D02*
D03*
X102000Y80000D02*
D03*
X100000Y76000D02*
D03*
X102000Y72000D02*
D03*
X100000Y68000D02*
D03*
X102000Y64000D02*
D03*
X100000Y60000D02*
D03*
X98000Y80000D02*
D03*
Y72000D02*
D03*
Y64000D02*
D03*
X96000Y60000D02*
D03*
Y52000D02*
D03*
X94000Y88000D02*
D03*
Y80000D02*
D03*
Y72000D02*
D03*
X92000Y60000D02*
D03*
X94000Y56000D02*
D03*
X92000Y52000D02*
D03*
X88000Y84000D02*
D03*
X90000Y80000D02*
D03*
Y72000D02*
D03*
X88000Y68000D02*
D03*
X90000Y64000D02*
D03*
X88000Y60000D02*
D03*
X90000Y56000D02*
D03*
X88000Y52000D02*
D03*
X86000Y80000D02*
D03*
Y72000D02*
D03*
Y64000D02*
D03*
X84000Y52000D02*
D03*
X80000Y84000D02*
D03*
Y52000D02*
D03*
X78000Y88000D02*
D03*
X76000Y84000D02*
D03*
Y68000D02*
D03*
Y60000D02*
D03*
X78000Y56000D02*
D03*
X72000Y84000D02*
D03*
Y76000D02*
D03*
Y68000D02*
D03*
X74000Y64000D02*
D03*
X72000Y60000D02*
D03*
X85100Y75950D02*
D03*
X79925Y76361D02*
D03*
X79950Y77536D02*
D03*
Y78461D02*
D03*
Y79361D02*
D03*
X96225Y78375D02*
D03*
X91100Y78325D02*
D03*
X93700Y59800D02*
D03*
X97575Y77875D02*
D03*
X87575Y75450D02*
D03*
Y76175D02*
D03*
X92375Y63200D02*
D03*
X86150Y78425D02*
D03*
X85300D02*
D03*
M02*
