M48
;Layer_Color=9474304
;FILE_FORMAT=4:3
METRIC,LZ
;TYPE=PLATED
T1F00S00C0.300
T2F00S00C1.000
T3F00S00C1.200
T4F00S00C2.700
%
T01
X008Y0052
X0084
X0088
X0092
X0096
X0094Y0056
X009
X0088Y006
X0092
X00937Y00598
X0096Y006
X01
X0102Y0064
X0098
X01Y0068
X0102Y0072
X0098
X0094
X009
X0086
X00851Y007595
X00853Y0078425
X008615
X0087575Y0076175
Y007545
X00911Y0078325
X0096225Y0078375
X0097575Y0077875
X01Y0076
X0088Y0068
X009Y0064
X0092375Y00632
X0086Y0064
X0079925Y0076361
X007995Y0077536
Y0078461
Y0079361
X0072Y0076
Y0068
X0076
X0074Y0064
X0072Y006
X0076
X0078Y0056
X0076Y0084
X0072
X0078Y0088
X008Y0084
X0088
X009Y008
X0094
X0098
X0102
X01Y0084
X0094Y0088
X0086Y008
T02
X009246Y00833
X0095
X0097545Y0083305
X008777Y0090875
X008523
T03
X008475Y005355
X008825
T04
X0099Y0054285
X0074
Y0089
X0099
M30
