G04*
G04 #@! TF.GenerationSoftware,Altium Limited,Altium Designer,19.1.6 (110)*
G04*
G04 Layer_Physical_Order=2*
G04 Layer_Color=16711680*
%FSLAX43Y43*%
%MOMM*%
G71*
G01*
G75*
%ADD25C,1.900*%
%ADD26R,1.900X1.900*%
%ADD43C,0.150*%
%ADD44C,1.800*%
%ADD45R,1.800X1.800*%
%ADD46C,6.200*%
%ADD47C,0.600*%
G36*
X99788Y92961D02*
X100298Y92824D01*
X100786Y92622D01*
X101244Y92358D01*
X101663Y92036D01*
X102036Y91663D01*
X102358Y91244D01*
X102622Y90786D01*
X102824Y90298D01*
X102961Y89788D01*
X103030Y89264D01*
Y89000D01*
X103030Y53285D01*
X103030Y53021D01*
X102961Y52497D01*
X102824Y51987D01*
X102622Y51499D01*
X102358Y51041D01*
X102036Y50622D01*
X101663Y50248D01*
X101244Y49927D01*
X100786Y49663D01*
X100298Y49461D01*
X99788Y49324D01*
X99264Y49255D01*
X99000Y49255D01*
X74000D01*
X73736Y49255D01*
X73212Y49324D01*
X72702Y49461D01*
X72214Y49663D01*
X71756Y49927D01*
X71337Y50249D01*
X70963Y50622D01*
X70642Y51041D01*
X70378Y51499D01*
X70176Y51987D01*
X70039Y52497D01*
X69970Y53021D01*
Y53285D01*
Y89000D01*
Y89264D01*
X70039Y89788D01*
X70176Y90298D01*
X70378Y90786D01*
X70642Y91244D01*
X70964Y91663D01*
X71337Y92036D01*
X71756Y92358D01*
X72214Y92622D01*
X72702Y92824D01*
X73212Y92961D01*
X73736Y93030D01*
X99264D01*
X99788Y92961D01*
D02*
G37*
%LPC*%
G36*
X88320Y92000D02*
Y91425D01*
X88895D01*
X88862Y91505D01*
X88662Y91767D01*
X88400Y91967D01*
X88320Y92000D01*
D02*
G37*
G36*
X87220D02*
X87140Y91967D01*
X86878Y91767D01*
X86678Y91505D01*
X86645Y91425D01*
X87220D01*
Y92000D01*
D02*
G37*
G36*
X88895Y90325D02*
X88320D01*
Y89750D01*
X88400Y89783D01*
X88662Y89983D01*
X88862Y90245D01*
X88895Y90325D01*
D02*
G37*
G36*
X87220D02*
X86645D01*
X86678Y90245D01*
X86878Y89983D01*
X87140Y89783D01*
X87220Y89750D01*
Y90325D01*
D02*
G37*
G36*
X86380Y92025D02*
X84080D01*
Y89725D01*
X86380D01*
Y92025D01*
D02*
G37*
G36*
X99000Y92310D02*
X98482Y92269D01*
X97977Y92148D01*
X97497Y91949D01*
X97054Y91678D01*
X96659Y91341D01*
X96322Y90946D01*
X96051Y90503D01*
X95852Y90023D01*
X95731Y89518D01*
X95690Y89000D01*
X95731Y88482D01*
X95852Y87977D01*
X96051Y87497D01*
X96322Y87054D01*
X96659Y86659D01*
X97054Y86322D01*
X97497Y86051D01*
X97977Y85852D01*
X98482Y85731D01*
X99000Y85690D01*
X99518Y85731D01*
X100023Y85852D01*
X100503Y86051D01*
X100946Y86322D01*
X101341Y86659D01*
X101678Y87054D01*
X101949Y87497D01*
X102148Y87977D01*
X102269Y88482D01*
X102310Y89000D01*
X102269Y89518D01*
X102148Y90023D01*
X101949Y90503D01*
X101678Y90946D01*
X101341Y91341D01*
X100946Y91678D01*
X100503Y91949D01*
X100023Y92148D01*
X99518Y92269D01*
X99000Y92310D01*
D02*
G37*
G36*
X74000D02*
X73482Y92269D01*
X72977Y92148D01*
X72497Y91949D01*
X72054Y91678D01*
X71659Y91341D01*
X71322Y90946D01*
X71051Y90503D01*
X70852Y90023D01*
X70731Y89518D01*
X70690Y89000D01*
X70731Y88482D01*
X70852Y87977D01*
X71051Y87497D01*
X71322Y87054D01*
X71659Y86659D01*
X72054Y86322D01*
X72497Y86051D01*
X72977Y85852D01*
X73482Y85731D01*
X74000Y85690D01*
X74518Y85731D01*
X75023Y85852D01*
X75503Y86051D01*
X75946Y86322D01*
X76341Y86659D01*
X76678Y87054D01*
X76949Y87497D01*
X77148Y87977D01*
X77269Y88482D01*
X77310Y89000D01*
X77269Y89518D01*
X77148Y90023D01*
X76949Y90503D01*
X76678Y90946D01*
X76341Y91341D01*
X75946Y91678D01*
X75503Y91949D01*
X75023Y92148D01*
X74518Y92269D01*
X74000Y92310D01*
D02*
G37*
G36*
X95550Y84425D02*
Y83850D01*
X96125D01*
X96092Y83930D01*
X95892Y84192D01*
X95630Y84392D01*
X95550Y84425D01*
D02*
G37*
G36*
X94450D02*
X94370Y84392D01*
X94108Y84192D01*
X93908Y83930D01*
X93875Y83850D01*
X94450D01*
Y84425D01*
D02*
G37*
G36*
X96125Y82750D02*
X95550D01*
Y82175D01*
X95630Y82208D01*
X95892Y82408D01*
X96092Y82670D01*
X96125Y82750D01*
D02*
G37*
G36*
X94450D02*
X93875D01*
X93908Y82670D01*
X94108Y82408D01*
X94370Y82208D01*
X94450Y82175D01*
Y82750D01*
D02*
G37*
G36*
X93610Y84450D02*
X91310D01*
Y82150D01*
X93610D01*
Y84450D01*
D02*
G37*
G36*
X97545Y84465D02*
X97245Y84425D01*
X96965Y84310D01*
X96725Y84125D01*
X96541Y83885D01*
X96425Y83605D01*
X96385Y83305D01*
X96425Y83005D01*
X96541Y82725D01*
X96725Y82485D01*
X96965Y82301D01*
X97245Y82185D01*
X97545Y82145D01*
X97845Y82185D01*
X98125Y82301D01*
X98365Y82485D01*
X98550Y82725D01*
X98665Y83005D01*
X98705Y83305D01*
X98665Y83605D01*
X98550Y83885D01*
X98365Y84125D01*
X98125Y84310D01*
X97845Y84425D01*
X97545Y84465D01*
D02*
G37*
G36*
X95575Y79230D02*
X86675D01*
X86568Y79209D01*
X86477Y79148D01*
X86244Y78916D01*
X86150Y78935D01*
X85955Y78896D01*
X85790Y78785D01*
X85788Y78784D01*
X85661D01*
X85660Y78785D01*
X85495Y78896D01*
X85300Y78935D01*
X85105Y78896D01*
X84940Y78785D01*
X84829Y78620D01*
X84790Y78425D01*
X84829Y78230D01*
X84940Y78065D01*
X85105Y77954D01*
X85300Y77915D01*
X85394Y77934D01*
X85752Y77577D01*
X85843Y77516D01*
X85950Y77495D01*
X87132D01*
X87181Y77377D01*
X86714Y76910D01*
X86653Y76819D01*
X86632Y76712D01*
Y76113D01*
X86653Y76006D01*
X86714Y75915D01*
X87084Y75544D01*
X87065Y75450D01*
X87104Y75255D01*
X87215Y75090D01*
X87380Y74979D01*
X87575Y74940D01*
X87770Y74979D01*
X87935Y75090D01*
X87995Y75179D01*
X88154Y75199D01*
X95520Y67834D01*
Y62016D01*
X93794Y60291D01*
X93700Y60310D01*
X93505Y60271D01*
X93340Y60160D01*
X93229Y59995D01*
X93190Y59800D01*
X93229Y59605D01*
X93340Y59440D01*
X93505Y59329D01*
X93700Y59290D01*
X93895Y59329D01*
X94060Y59440D01*
X94171Y59605D01*
X94210Y59800D01*
X94191Y59894D01*
X95998Y61702D01*
X96059Y61793D01*
X96080Y61900D01*
Y67950D01*
X96059Y68057D01*
X95998Y68148D01*
X88066Y76081D01*
X88085Y76175D01*
X88046Y76370D01*
X87935Y76535D01*
X87770Y76646D01*
X87575Y76685D01*
X87433Y76656D01*
X87370Y76774D01*
X87791Y77195D01*
X97175D01*
X97282Y77216D01*
X97373Y77277D01*
X97481Y77384D01*
X97575Y77365D01*
X97770Y77404D01*
X97935Y77515D01*
X98046Y77680D01*
X98085Y77875D01*
X98046Y78070D01*
X97935Y78235D01*
X97770Y78346D01*
X97575Y78385D01*
X97380Y78346D01*
X97215Y78235D01*
X97104Y78070D01*
X97065Y77875D01*
X96960Y77755D01*
X96324D01*
X96311Y77882D01*
X96420Y77904D01*
X96585Y78015D01*
X96696Y78180D01*
X96735Y78375D01*
X96696Y78570D01*
X96585Y78735D01*
X96420Y78846D01*
X96225Y78885D01*
X96068Y78854D01*
X95773Y79148D01*
X95682Y79209D01*
X95575Y79230D01*
D02*
G37*
G36*
X92375Y63710D02*
X92180Y63671D01*
X92015Y63560D01*
X91904Y63395D01*
X91865Y63200D01*
X91884Y63106D01*
X84552Y55773D01*
X84491Y55682D01*
X84470Y55575D01*
Y54650D01*
X83650D01*
Y52450D01*
X85850D01*
Y54650D01*
X85030D01*
Y55459D01*
X92281Y62709D01*
X92375Y62690D01*
X92570Y62729D01*
X92735Y62840D01*
X92846Y63005D01*
X92885Y63200D01*
X92846Y63395D01*
X92735Y63560D01*
X92570Y63671D01*
X92375Y63710D01*
D02*
G37*
G36*
X88750Y54642D02*
Y54050D01*
X89342D01*
X89298Y54155D01*
X89106Y54406D01*
X88855Y54598D01*
X88750Y54642D01*
D02*
G37*
G36*
X87750D02*
X87645Y54598D01*
X87394Y54406D01*
X87202Y54155D01*
X87158Y54050D01*
X87750D01*
Y54642D01*
D02*
G37*
G36*
X89342Y53050D02*
X88750D01*
Y52458D01*
X88855Y52502D01*
X89106Y52694D01*
X89298Y52945D01*
X89342Y53050D01*
D02*
G37*
G36*
X87750D02*
X87158D01*
X87202Y52945D01*
X87394Y52694D01*
X87645Y52502D01*
X87750Y52458D01*
Y53050D01*
D02*
G37*
G36*
X99000Y57595D02*
X98482Y57554D01*
X97977Y57433D01*
X97497Y57234D01*
X97054Y56963D01*
X96659Y56626D01*
X96322Y56231D01*
X96051Y55788D01*
X95852Y55308D01*
X95731Y54803D01*
X95690Y54285D01*
X95731Y53767D01*
X95852Y53262D01*
X96051Y52782D01*
X96322Y52339D01*
X96659Y51944D01*
X97054Y51607D01*
X97497Y51336D01*
X97977Y51137D01*
X98482Y51016D01*
X99000Y50975D01*
X99518Y51016D01*
X100023Y51137D01*
X100503Y51336D01*
X100946Y51607D01*
X101341Y51944D01*
X101678Y52339D01*
X101949Y52782D01*
X102148Y53262D01*
X102269Y53767D01*
X102310Y54285D01*
X102269Y54803D01*
X102148Y55308D01*
X101949Y55788D01*
X101678Y56231D01*
X101341Y56626D01*
X100946Y56963D01*
X100503Y57234D01*
X100023Y57433D01*
X99518Y57554D01*
X99000Y57595D01*
D02*
G37*
G36*
X74000D02*
X73482Y57554D01*
X72977Y57433D01*
X72497Y57234D01*
X72054Y56963D01*
X71659Y56626D01*
X71322Y56231D01*
X71051Y55788D01*
X70852Y55308D01*
X70731Y54803D01*
X70690Y54285D01*
X70731Y53767D01*
X70852Y53262D01*
X71051Y52782D01*
X71322Y52339D01*
X71659Y51944D01*
X72054Y51607D01*
X72497Y51336D01*
X72977Y51137D01*
X73482Y51016D01*
X74000Y50975D01*
X74518Y51016D01*
X75023Y51137D01*
X75503Y51336D01*
X75946Y51607D01*
X76341Y51944D01*
X76678Y52339D01*
X76949Y52782D01*
X77148Y53262D01*
X77269Y53767D01*
X77310Y54285D01*
X77269Y54803D01*
X77148Y55308D01*
X76949Y55788D01*
X76678Y56231D01*
X76341Y56626D01*
X75946Y56963D01*
X75503Y57234D01*
X75023Y57433D01*
X74518Y57554D01*
X74000Y57595D01*
D02*
G37*
%LPD*%
G36*
X90654Y78558D02*
X90629Y78520D01*
X90590Y78325D01*
X90609Y78231D01*
X90434Y78055D01*
X86657D01*
X86589Y78182D01*
X86621Y78230D01*
X86660Y78425D01*
X86641Y78519D01*
X86791Y78670D01*
X90594D01*
X90654Y78558D01*
D02*
G37*
G36*
X95722Y78407D02*
X95715Y78375D01*
X95754Y78180D01*
X95865Y78015D01*
X96030Y77904D01*
X96139Y77882D01*
X96126Y77755D01*
X91376D01*
X91338Y77882D01*
X91460Y77965D01*
X91571Y78130D01*
X91610Y78325D01*
X91571Y78520D01*
X91546Y78558D01*
X91606Y78670D01*
X95459D01*
X95722Y78407D01*
D02*
G37*
D25*
X97545Y83305D02*
D03*
X95000Y83300D02*
D03*
X87770Y90875D02*
D03*
D26*
X92460Y83300D02*
D03*
X85230Y90875D02*
D03*
D43*
X84750Y55575D02*
X92375Y63200D01*
X84750Y53550D02*
Y55575D01*
X95800Y61900D02*
Y67950D01*
X93700Y59800D02*
X95800Y61900D01*
X87575Y76175D02*
X95800Y67950D01*
X86912Y76113D02*
Y76712D01*
Y76113D02*
X87575Y75450D01*
X86912Y76712D02*
X87675Y77475D01*
X97175D01*
X97575Y77875D01*
X86150Y78425D02*
X86675Y78950D01*
X95575D01*
X96150Y78375D01*
X96225D01*
X85300Y78425D02*
X85950Y77775D01*
X90550D01*
X91100Y78325D01*
Y78203D02*
Y78325D01*
D44*
X88250Y53550D02*
D03*
D45*
X84750D02*
D03*
D46*
X99000Y89000D02*
D03*
X74000D02*
D03*
X99000Y54285D02*
D03*
X74000D02*
D03*
D47*
X100000Y84000D02*
D03*
X102000Y80000D02*
D03*
X100000Y76000D02*
D03*
X102000Y72000D02*
D03*
X100000Y68000D02*
D03*
X102000Y64000D02*
D03*
X100000Y60000D02*
D03*
X98000Y80000D02*
D03*
Y72000D02*
D03*
Y64000D02*
D03*
X96000Y60000D02*
D03*
Y52000D02*
D03*
X94000Y88000D02*
D03*
Y80000D02*
D03*
Y72000D02*
D03*
X92000Y60000D02*
D03*
X94000Y56000D02*
D03*
X92000Y52000D02*
D03*
X88000Y84000D02*
D03*
X90000Y80000D02*
D03*
Y72000D02*
D03*
X88000Y68000D02*
D03*
X90000Y64000D02*
D03*
X88000Y60000D02*
D03*
X90000Y56000D02*
D03*
X88000Y52000D02*
D03*
X86000Y80000D02*
D03*
Y72000D02*
D03*
Y64000D02*
D03*
X84000Y52000D02*
D03*
X80000Y84000D02*
D03*
Y52000D02*
D03*
X78000Y88000D02*
D03*
X76000Y84000D02*
D03*
Y68000D02*
D03*
Y60000D02*
D03*
X78000Y56000D02*
D03*
X72000Y84000D02*
D03*
Y76000D02*
D03*
Y68000D02*
D03*
X74000Y64000D02*
D03*
X72000Y60000D02*
D03*
X85100Y75950D02*
D03*
X79925Y76361D02*
D03*
X79950Y77536D02*
D03*
Y78461D02*
D03*
Y79361D02*
D03*
X96225Y78375D02*
D03*
X91100Y78325D02*
D03*
X93700Y59800D02*
D03*
X97575Y77875D02*
D03*
X87575Y75450D02*
D03*
Y76175D02*
D03*
X92375Y63200D02*
D03*
X86150Y78425D02*
D03*
X85300D02*
D03*
M02*
