G04*
G04 #@! TF.GenerationSoftware,Altium Limited,Altium Designer,19.1.6 (110)*
G04*
G04 Layer_Color=8388736*
%FSLAX43Y43*%
%MOMM*%
G71*
G01*
G75*
%ADD13R,1.800X1.900*%
%ADD14R,2.300X4.200*%
G04:AMPARAMS|DCode=15|XSize=1.9mm|YSize=1.1mm|CornerRadius=0.3mm|HoleSize=0mm|Usage=FLASHONLY|Rotation=90.000|XOffset=0mm|YOffset=0mm|HoleType=Round|Shape=RoundedRectangle|*
%AMROUNDEDRECTD15*
21,1,1.900,0.500,0,0,90.0*
21,1,1.300,1.100,0,0,90.0*
1,1,0.600,0.250,0.650*
1,1,0.600,0.250,-0.650*
1,1,0.600,-0.250,-0.650*
1,1,0.600,-0.250,0.650*
%
%ADD15ROUNDEDRECTD15*%
%ADD16R,1.000X0.900*%
%ADD17R,0.900X1.050*%
%ADD18O,0.300X0.900*%
%ADD19O,0.900X0.300*%
%ADD20R,1.800X1.800*%
G04:AMPARAMS|DCode=21|XSize=1mm|YSize=0.9mm|CornerRadius=0.25mm|HoleSize=0mm|Usage=FLASHONLY|Rotation=90.000|XOffset=0mm|YOffset=0mm|HoleType=Round|Shape=RoundedRectangle|*
%AMROUNDEDRECTD21*
21,1,1.000,0.400,0,0,90.0*
21,1,0.500,0.900,0,0,90.0*
1,1,0.500,0.200,0.250*
1,1,0.500,0.200,-0.250*
1,1,0.500,-0.200,-0.250*
1,1,0.500,-0.200,0.250*
%
%ADD21ROUNDEDRECTD21*%
G04:AMPARAMS|DCode=22|XSize=1mm|YSize=0.9mm|CornerRadius=0.25mm|HoleSize=0mm|Usage=FLASHONLY|Rotation=0.000|XOffset=0mm|YOffset=0mm|HoleType=Round|Shape=RoundedRectangle|*
%AMROUNDEDRECTD22*
21,1,1.000,0.400,0,0,0.0*
21,1,0.500,0.900,0,0,0.0*
1,1,0.500,0.250,-0.200*
1,1,0.500,-0.250,-0.200*
1,1,0.500,-0.250,0.200*
1,1,0.500,0.250,0.200*
%
%ADD22ROUNDEDRECTD22*%
G04:AMPARAMS|DCode=23|XSize=0.38mm|YSize=0.4mm|CornerRadius=0.12mm|HoleSize=0mm|Usage=FLASHONLY|Rotation=90.000|XOffset=0mm|YOffset=0mm|HoleType=Round|Shape=RoundedRectangle|*
%AMROUNDEDRECTD23*
21,1,0.380,0.160,0,0,90.0*
21,1,0.140,0.400,0,0,90.0*
1,1,0.240,0.080,0.070*
1,1,0.240,0.080,-0.070*
1,1,0.240,-0.080,-0.070*
1,1,0.240,-0.080,0.070*
%
%ADD23ROUNDEDRECTD23*%
%ADD24R,1.600X2.250*%
%ADD25C,1.900*%
%ADD26R,1.900X1.900*%
%ADD27C,2.000*%
%ADD28R,2.000X2.000*%
%ADD29C,6.300*%
%ADD30C,0.700*%
D13*
X88275Y86125D02*
D03*
X84875D02*
D03*
X78600Y71725D02*
D03*
X75200D02*
D03*
D14*
X82425Y65925D02*
D03*
X79225D02*
D03*
D15*
X78275Y76500D02*
D03*
X75275D02*
D03*
X78275Y79025D02*
D03*
X75275D02*
D03*
X86300Y61825D02*
D03*
X83300D02*
D03*
D16*
X93700Y62500D02*
D03*
X93700Y61000D02*
D03*
X88050Y71625D02*
D03*
X88050Y73125D02*
D03*
X79050Y58700D02*
D03*
X79050Y60200D02*
D03*
X94975Y65725D02*
D03*
X94975Y64225D02*
D03*
X92400Y65725D02*
D03*
X92400Y64225D02*
D03*
X92425Y78375D02*
D03*
X92425Y79875D02*
D03*
X95000Y78400D02*
D03*
X95000Y79900D02*
D03*
D17*
X77400Y61825D02*
D03*
X79050D02*
D03*
D18*
X84300Y74500D02*
D03*
X84700D02*
D03*
X85100D02*
D03*
X85500D02*
D03*
X85900D02*
D03*
Y77400D02*
D03*
X85500D02*
D03*
X85100D02*
D03*
X84700D02*
D03*
X84300D02*
D03*
D19*
X86550Y75150D02*
D03*
Y75550D02*
D03*
Y75950D02*
D03*
Y76350D02*
D03*
Y76750D02*
D03*
X83650D02*
D03*
Y76350D02*
D03*
Y75950D02*
D03*
Y75550D02*
D03*
Y75150D02*
D03*
D20*
X85100Y75950D02*
D03*
D21*
X87175Y82050D02*
D03*
X85675Y82050D02*
D03*
D22*
X82925Y78750D02*
D03*
X82925Y80250D02*
D03*
X84575Y71150D02*
D03*
X84575Y72650D02*
D03*
X82850Y71150D02*
D03*
X82850Y72650D02*
D03*
D23*
X86750Y72250D02*
D03*
Y72780D02*
D03*
D24*
X92460Y76200D02*
D03*
Y67950D02*
D03*
X95000D02*
D03*
Y76200D02*
D03*
X97540Y67950D02*
D03*
Y76200D02*
D03*
D25*
X88250Y53550D02*
D03*
D26*
X84750D02*
D03*
D27*
X97545Y83305D02*
D03*
X95000Y83300D02*
D03*
X87770Y90875D02*
D03*
D28*
X92460Y83300D02*
D03*
X85230Y90875D02*
D03*
D29*
X99000Y89000D02*
D03*
X74000D02*
D03*
X99000Y54285D02*
D03*
X74000D02*
D03*
D30*
X85100Y75950D02*
D03*
M02*
