G04*
G04 #@! TF.GenerationSoftware,Altium Limited,Altium Designer,19.1.6 (110)*
G04*
G04 Layer_Color=32896*
%FSLAX43Y43*%
%MOMM*%
G71*
G01*
G75*
%ADD48C,0.254*%
G36*
X87594Y55064D02*
X87635Y55054D01*
X87672Y55042D01*
X87702Y55029D01*
X87726Y55014D01*
X87744Y55001D01*
X87755Y54992D01*
X87757Y54990D01*
X87759Y54988D01*
X87774Y54973D01*
X87787Y54954D01*
X87811Y54916D01*
X87829Y54875D01*
X87844Y54834D01*
X87855Y54797D01*
X87859Y54782D01*
X87863Y54767D01*
X87865Y54756D01*
X87866Y54747D01*
X87868Y54742D01*
Y54740D01*
X87687Y54703D01*
X87683Y54732D01*
X87678Y54756D01*
X87670Y54779D01*
X87663Y54795D01*
X87655Y54808D01*
X87650Y54819D01*
X87646Y54825D01*
X87644Y54827D01*
X87629Y54842D01*
X87615Y54851D01*
X87600Y54858D01*
X87587Y54864D01*
X87576Y54867D01*
X87565Y54869D01*
X87557D01*
X87539Y54867D01*
X87522Y54864D01*
X87507Y54858D01*
X87496Y54851D01*
X87487Y54843D01*
X87479Y54838D01*
X87476Y54834D01*
X87474Y54832D01*
X87463Y54817D01*
X87455Y54801D01*
X87448Y54784D01*
X87444Y54769D01*
X87442Y54755D01*
X87441Y54743D01*
Y54736D01*
Y54732D01*
X87442Y54705D01*
X87448Y54680D01*
X87455Y54660D01*
X87463Y54643D01*
X87470Y54630D01*
X87478Y54619D01*
X87483Y54614D01*
X87485Y54612D01*
X87504Y54599D01*
X87522Y54588D01*
X87542Y54582D01*
X87563Y54577D01*
X87579Y54575D01*
X87594Y54573D01*
X87607D01*
X87628Y54377D01*
X87609Y54382D01*
X87592Y54388D01*
X87576Y54392D01*
X87563Y54393D01*
X87554Y54395D01*
X87539D01*
X87518Y54393D01*
X87500Y54388D01*
X87483Y54379D01*
X87468Y54369D01*
X87457Y54358D01*
X87448Y54351D01*
X87442Y54343D01*
X87441Y54342D01*
X87428Y54321D01*
X87416Y54297D01*
X87409Y54273D01*
X87405Y54251D01*
X87402Y54230D01*
X87400Y54214D01*
Y54203D01*
Y54201D01*
Y54199D01*
X87402Y54164D01*
X87407Y54134D01*
X87413Y54106D01*
X87420Y54086D01*
X87429Y54068D01*
X87435Y54056D01*
X87441Y54047D01*
X87442Y54045D01*
X87459Y54027D01*
X87476Y54014D01*
X87494Y54005D01*
X87511Y53999D01*
X87524Y53995D01*
X87535Y53992D01*
X87546D01*
X87566Y53993D01*
X87585Y53999D01*
X87602Y54006D01*
X87615Y54016D01*
X87626Y54023D01*
X87635Y54031D01*
X87641Y54036D01*
X87642Y54038D01*
X87655Y54056D01*
X87666Y54079D01*
X87676Y54101D01*
X87681Y54123D01*
X87687Y54143D01*
X87689Y54158D01*
X87691Y54169D01*
Y54171D01*
Y54173D01*
X87881Y54145D01*
X87872Y54086D01*
X87859Y54036D01*
X87850Y54012D01*
X87841Y53992D01*
X87831Y53971D01*
X87822Y53955D01*
X87813Y53938D01*
X87803Y53925D01*
X87796Y53914D01*
X87789Y53903D01*
X87783Y53895D01*
X87778Y53890D01*
X87776Y53888D01*
X87774Y53886D01*
X87755Y53869D01*
X87737Y53855D01*
X87718Y53842D01*
X87698Y53832D01*
X87659Y53814D01*
X87624Y53803D01*
X87592Y53797D01*
X87578Y53795D01*
X87566Y53793D01*
X87557Y53792D01*
X87544D01*
X87518Y53793D01*
X87494Y53797D01*
X87470Y53803D01*
X87446Y53808D01*
X87405Y53827D01*
X87370Y53847D01*
X87341Y53868D01*
X87329Y53877D01*
X87320Y53886D01*
X87313Y53892D01*
X87305Y53897D01*
X87304Y53901D01*
X87302Y53903D01*
X87283Y53925D01*
X87267Y53947D01*
X87254Y53971D01*
X87242Y53995D01*
X87224Y54042D01*
X87211Y54086D01*
X87207Y54108D01*
X87204Y54127D01*
X87202Y54143D01*
X87200Y54158D01*
X87198Y54169D01*
Y54179D01*
Y54184D01*
Y54186D01*
X87200Y54229D01*
X87207Y54268D01*
X87215Y54301D01*
X87226Y54329D01*
X87235Y54351D01*
X87244Y54368D01*
X87252Y54379D01*
X87254Y54382D01*
X87276Y54410D01*
X87298Y54432D01*
X87320Y54449D01*
X87342Y54464D01*
X87363Y54473D01*
X87378Y54479D01*
X87389Y54482D01*
X87391Y54484D01*
X87392D01*
X87366Y54503D01*
X87344Y54523D01*
X87324Y54543D01*
X87309Y54560D01*
X87296Y54577D01*
X87289Y54588D01*
X87283Y54595D01*
X87281Y54599D01*
X87268Y54625D01*
X87259Y54651D01*
X87252Y54675D01*
X87248Y54699D01*
X87244Y54717D01*
X87242Y54734D01*
Y54743D01*
Y54747D01*
Y54769D01*
X87246Y54792D01*
X87255Y54832D01*
X87268Y54869D01*
X87283Y54903D01*
X87300Y54930D01*
X87307Y54942D01*
X87313Y54951D01*
X87318Y54958D01*
X87322Y54964D01*
X87324Y54966D01*
X87326Y54967D01*
X87342Y54986D01*
X87359Y55001D01*
X87378Y55014D01*
X87396Y55025D01*
X87433Y55043D01*
X87468Y55054D01*
X87502Y55062D01*
X87515Y55064D01*
X87526Y55066D01*
X87537Y55067D01*
X87572D01*
X87594Y55064D01*
D02*
G37*
G36*
X86796D02*
X86837Y55054D01*
X86874Y55042D01*
X86904Y55029D01*
X86928Y55014D01*
X86946Y55001D01*
X86957Y54992D01*
X86959Y54990D01*
X86961Y54988D01*
X86976Y54973D01*
X86989Y54954D01*
X87013Y54916D01*
X87031Y54875D01*
X87046Y54834D01*
X87057Y54797D01*
X87061Y54782D01*
X87065Y54767D01*
X87067Y54756D01*
X87068Y54747D01*
X87070Y54742D01*
Y54740D01*
X86889Y54703D01*
X86885Y54732D01*
X86880Y54756D01*
X86872Y54779D01*
X86865Y54795D01*
X86857Y54808D01*
X86852Y54819D01*
X86848Y54825D01*
X86846Y54827D01*
X86831Y54842D01*
X86817Y54851D01*
X86802Y54858D01*
X86789Y54864D01*
X86778Y54867D01*
X86767Y54869D01*
X86759D01*
X86741Y54867D01*
X86724Y54864D01*
X86709Y54858D01*
X86698Y54851D01*
X86689Y54843D01*
X86681Y54838D01*
X86678Y54834D01*
X86676Y54832D01*
X86665Y54817D01*
X86657Y54801D01*
X86650Y54784D01*
X86646Y54769D01*
X86644Y54755D01*
X86642Y54743D01*
Y54736D01*
Y54732D01*
X86644Y54705D01*
X86650Y54680D01*
X86657Y54660D01*
X86665Y54643D01*
X86672Y54630D01*
X86680Y54619D01*
X86685Y54614D01*
X86687Y54612D01*
X86705Y54599D01*
X86724Y54588D01*
X86744Y54582D01*
X86765Y54577D01*
X86781Y54575D01*
X86796Y54573D01*
X86809D01*
X86830Y54377D01*
X86811Y54382D01*
X86794Y54388D01*
X86778Y54392D01*
X86765Y54393D01*
X86755Y54395D01*
X86741D01*
X86720Y54393D01*
X86702Y54388D01*
X86685Y54379D01*
X86670Y54369D01*
X86659Y54358D01*
X86650Y54351D01*
X86644Y54343D01*
X86642Y54342D01*
X86630Y54321D01*
X86618Y54297D01*
X86611Y54273D01*
X86607Y54251D01*
X86604Y54230D01*
X86602Y54214D01*
Y54203D01*
Y54201D01*
Y54199D01*
X86604Y54164D01*
X86609Y54134D01*
X86615Y54106D01*
X86622Y54086D01*
X86631Y54068D01*
X86637Y54056D01*
X86642Y54047D01*
X86644Y54045D01*
X86661Y54027D01*
X86678Y54014D01*
X86696Y54005D01*
X86713Y53999D01*
X86726Y53995D01*
X86737Y53992D01*
X86748D01*
X86768Y53993D01*
X86787Y53999D01*
X86804Y54006D01*
X86817Y54016D01*
X86828Y54023D01*
X86837Y54031D01*
X86842Y54036D01*
X86844Y54038D01*
X86857Y54056D01*
X86868Y54079D01*
X86878Y54101D01*
X86883Y54123D01*
X86889Y54143D01*
X86891Y54158D01*
X86892Y54169D01*
Y54171D01*
Y54173D01*
X87083Y54145D01*
X87074Y54086D01*
X87061Y54036D01*
X87052Y54012D01*
X87042Y53992D01*
X87033Y53971D01*
X87024Y53955D01*
X87015Y53938D01*
X87005Y53925D01*
X86998Y53914D01*
X86991Y53903D01*
X86985Y53895D01*
X86979Y53890D01*
X86978Y53888D01*
X86976Y53886D01*
X86957Y53869D01*
X86939Y53855D01*
X86920Y53842D01*
X86900Y53832D01*
X86861Y53814D01*
X86826Y53803D01*
X86794Y53797D01*
X86780Y53795D01*
X86768Y53793D01*
X86759Y53792D01*
X86746D01*
X86720Y53793D01*
X86696Y53797D01*
X86672Y53803D01*
X86648Y53808D01*
X86607Y53827D01*
X86572Y53847D01*
X86543Y53868D01*
X86531Y53877D01*
X86522Y53886D01*
X86515Y53892D01*
X86507Y53897D01*
X86505Y53901D01*
X86504Y53903D01*
X86485Y53925D01*
X86468Y53947D01*
X86455Y53971D01*
X86444Y53995D01*
X86426Y54042D01*
X86413Y54086D01*
X86409Y54108D01*
X86405Y54127D01*
X86404Y54143D01*
X86402Y54158D01*
X86400Y54169D01*
Y54179D01*
Y54184D01*
Y54186D01*
X86402Y54229D01*
X86409Y54268D01*
X86417Y54301D01*
X86428Y54329D01*
X86437Y54351D01*
X86446Y54368D01*
X86454Y54379D01*
X86455Y54382D01*
X86478Y54410D01*
X86500Y54432D01*
X86522Y54449D01*
X86544Y54464D01*
X86565Y54473D01*
X86580Y54479D01*
X86591Y54482D01*
X86592Y54484D01*
X86594D01*
X86568Y54503D01*
X86546Y54523D01*
X86526Y54543D01*
X86511Y54560D01*
X86498Y54577D01*
X86491Y54588D01*
X86485Y54595D01*
X86483Y54599D01*
X86470Y54625D01*
X86461Y54651D01*
X86454Y54675D01*
X86450Y54699D01*
X86446Y54717D01*
X86444Y54734D01*
Y54743D01*
Y54747D01*
Y54769D01*
X86448Y54792D01*
X86457Y54832D01*
X86470Y54869D01*
X86485Y54903D01*
X86502Y54930D01*
X86509Y54942D01*
X86515Y54951D01*
X86520Y54958D01*
X86524Y54964D01*
X86526Y54966D01*
X86528Y54967D01*
X86544Y54986D01*
X86561Y55001D01*
X86580Y55014D01*
X86598Y55025D01*
X86635Y55043D01*
X86670Y55054D01*
X86704Y55062D01*
X86717Y55064D01*
X86728Y55066D01*
X86739Y55067D01*
X86774D01*
X86796Y55064D01*
D02*
G37*
G36*
X85998Y55064D02*
X86039Y55054D01*
X86076Y55042D01*
X86106Y55029D01*
X86130Y55014D01*
X86148Y55001D01*
X86159Y54992D01*
X86161Y54990D01*
X86163Y54988D01*
X86178Y54973D01*
X86191Y54954D01*
X86215Y54916D01*
X86233Y54875D01*
X86248Y54834D01*
X86259Y54797D01*
X86263Y54782D01*
X86267Y54767D01*
X86268Y54756D01*
X86270Y54747D01*
X86272Y54742D01*
Y54740D01*
X86091Y54703D01*
X86087Y54732D01*
X86081Y54756D01*
X86074Y54779D01*
X86067Y54795D01*
X86059Y54808D01*
X86054Y54819D01*
X86050Y54825D01*
X86048Y54827D01*
X86033Y54842D01*
X86018Y54851D01*
X86004Y54858D01*
X85991Y54864D01*
X85980Y54867D01*
X85968Y54869D01*
X85961D01*
X85943Y54867D01*
X85926Y54864D01*
X85911Y54858D01*
X85900Y54851D01*
X85891Y54843D01*
X85883Y54838D01*
X85880Y54834D01*
X85878Y54832D01*
X85867Y54817D01*
X85859Y54801D01*
X85852Y54784D01*
X85848Y54769D01*
X85846Y54755D01*
X85844Y54743D01*
Y54736D01*
Y54732D01*
X85846Y54705D01*
X85852Y54680D01*
X85859Y54660D01*
X85867Y54643D01*
X85874Y54630D01*
X85881Y54619D01*
X85887Y54614D01*
X85889Y54612D01*
X85907Y54599D01*
X85926Y54588D01*
X85946Y54582D01*
X85967Y54577D01*
X85983Y54575D01*
X85998Y54573D01*
X86011D01*
X86031Y54377D01*
X86013Y54382D01*
X85996Y54388D01*
X85980Y54392D01*
X85967Y54393D01*
X85957Y54395D01*
X85943D01*
X85922Y54393D01*
X85904Y54388D01*
X85887Y54379D01*
X85872Y54369D01*
X85861Y54358D01*
X85852Y54351D01*
X85846Y54343D01*
X85844Y54342D01*
X85831Y54321D01*
X85820Y54297D01*
X85813Y54273D01*
X85809Y54251D01*
X85806Y54230D01*
X85804Y54214D01*
Y54203D01*
Y54201D01*
Y54199D01*
X85806Y54164D01*
X85811Y54134D01*
X85817Y54106D01*
X85824Y54086D01*
X85833Y54068D01*
X85839Y54056D01*
X85844Y54047D01*
X85846Y54045D01*
X85863Y54027D01*
X85880Y54014D01*
X85898Y54005D01*
X85915Y53999D01*
X85928Y53995D01*
X85939Y53992D01*
X85950D01*
X85970Y53993D01*
X85989Y53999D01*
X86006Y54006D01*
X86018Y54016D01*
X86030Y54023D01*
X86039Y54031D01*
X86044Y54036D01*
X86046Y54038D01*
X86059Y54056D01*
X86070Y54079D01*
X86080Y54101D01*
X86085Y54123D01*
X86091Y54143D01*
X86093Y54158D01*
X86094Y54169D01*
Y54171D01*
Y54173D01*
X86285Y54145D01*
X86276Y54086D01*
X86263Y54036D01*
X86254Y54012D01*
X86244Y53992D01*
X86235Y53971D01*
X86226Y53955D01*
X86217Y53938D01*
X86207Y53925D01*
X86200Y53914D01*
X86193Y53903D01*
X86187Y53895D01*
X86181Y53890D01*
X86180Y53888D01*
X86178Y53886D01*
X86159Y53869D01*
X86141Y53855D01*
X86122Y53842D01*
X86102Y53832D01*
X86063Y53814D01*
X86028Y53803D01*
X85996Y53797D01*
X85981Y53795D01*
X85970Y53793D01*
X85961Y53792D01*
X85948D01*
X85922Y53793D01*
X85898Y53797D01*
X85874Y53803D01*
X85850Y53808D01*
X85809Y53827D01*
X85774Y53847D01*
X85744Y53868D01*
X85733Y53877D01*
X85724Y53886D01*
X85717Y53892D01*
X85709Y53897D01*
X85707Y53901D01*
X85706Y53903D01*
X85687Y53925D01*
X85670Y53947D01*
X85657Y53971D01*
X85646Y53995D01*
X85628Y54042D01*
X85615Y54086D01*
X85611Y54108D01*
X85607Y54127D01*
X85606Y54143D01*
X85604Y54158D01*
X85602Y54169D01*
Y54179D01*
Y54184D01*
Y54186D01*
X85604Y54229D01*
X85611Y54268D01*
X85619Y54301D01*
X85630Y54329D01*
X85639Y54351D01*
X85648Y54368D01*
X85656Y54379D01*
X85657Y54382D01*
X85680Y54410D01*
X85702Y54432D01*
X85724Y54449D01*
X85746Y54464D01*
X85767Y54473D01*
X85781Y54479D01*
X85793Y54482D01*
X85794Y54484D01*
X85796D01*
X85770Y54503D01*
X85748Y54523D01*
X85728Y54543D01*
X85713Y54560D01*
X85700Y54577D01*
X85693Y54588D01*
X85687Y54595D01*
X85685Y54599D01*
X85672Y54625D01*
X85663Y54651D01*
X85656Y54675D01*
X85652Y54699D01*
X85648Y54717D01*
X85646Y54734D01*
Y54743D01*
Y54747D01*
Y54769D01*
X85650Y54792D01*
X85659Y54832D01*
X85672Y54869D01*
X85687Y54903D01*
X85704Y54930D01*
X85711Y54942D01*
X85717Y54951D01*
X85722Y54958D01*
X85726Y54964D01*
X85728Y54966D01*
X85730Y54967D01*
X85746Y54986D01*
X85763Y55001D01*
X85781Y55014D01*
X85800Y55025D01*
X85837Y55043D01*
X85872Y55054D01*
X85906Y55062D01*
X85918Y55064D01*
X85930Y55066D01*
X85941Y55067D01*
X85976D01*
X85998Y55064D01*
D02*
G37*
G36*
X80780Y55066D02*
X80806Y55064D01*
X80852Y55053D01*
X80893Y55040D01*
X80926Y55023D01*
X80954Y55006D01*
X80963Y54997D01*
X80973Y54992D01*
X80980Y54986D01*
X80986Y54980D01*
X80988Y54979D01*
X80989Y54977D01*
X81006Y54958D01*
X81019Y54940D01*
X81043Y54895D01*
X81062Y54849D01*
X81075Y54805D01*
X81080Y54782D01*
X81086Y54762D01*
X81088Y54743D01*
X81091Y54729D01*
X81093Y54716D01*
Y54706D01*
X81095Y54699D01*
Y54697D01*
X80899Y54671D01*
X80895Y54706D01*
X80889Y54736D01*
X80882Y54762D01*
X80873Y54784D01*
X80862Y54805D01*
X80851Y54819D01*
X80838Y54832D01*
X80825Y54843D01*
X80812Y54851D01*
X80800Y54856D01*
X80778Y54864D01*
X80771Y54866D01*
X80763Y54867D01*
X80758D01*
X80738Y54866D01*
X80717Y54860D01*
X80701Y54854D01*
X80688Y54847D01*
X80676Y54838D01*
X80669Y54832D01*
X80663Y54827D01*
X80662Y54825D01*
X80649Y54808D01*
X80639Y54788D01*
X80634Y54767D01*
X80628Y54747D01*
X80626Y54729D01*
X80625Y54714D01*
Y54705D01*
Y54703D01*
Y54701D01*
X80626Y54673D01*
X80632Y54645D01*
X80639Y54619D01*
X80647Y54597D01*
X80654Y54577D01*
X80662Y54562D01*
X80667Y54553D01*
X80669Y54549D01*
X80676Y54538D01*
X80686Y54525D01*
X80708Y54495D01*
X80734Y54464D01*
X80762Y54430D01*
X80788Y54399D01*
X80799Y54384D01*
X80810Y54373D01*
X80817Y54364D01*
X80825Y54356D01*
X80828Y54351D01*
X80830Y54349D01*
X80860Y54316D01*
X80886Y54282D01*
X80912Y54253D01*
X80934Y54225D01*
X80954Y54197D01*
X80971Y54173D01*
X80988Y54151D01*
X81000Y54131D01*
X81013Y54112D01*
X81025Y54097D01*
X81032Y54082D01*
X81039Y54071D01*
X81045Y54062D01*
X81047Y54056D01*
X81050Y54053D01*
Y54051D01*
X81069Y54008D01*
X81084Y53966D01*
X81097Y53925D01*
X81104Y53890D01*
X81110Y53858D01*
X81113Y53845D01*
X81115Y53834D01*
Y53825D01*
X81117Y53818D01*
Y53814D01*
Y53812D01*
X80426D01*
Y54034D01*
X80819D01*
X80806Y54058D01*
X80793Y54079D01*
X80788Y54086D01*
X80782Y54093D01*
X80780Y54097D01*
X80778Y54099D01*
X80765Y54116D01*
X80749Y54136D01*
X80728Y54158D01*
X80708Y54182D01*
X80689Y54205D01*
X80673Y54223D01*
X80667Y54230D01*
X80662Y54236D01*
X80660Y54238D01*
X80658Y54240D01*
X80623Y54280D01*
X80593Y54318D01*
X80567Y54349D01*
X80547Y54377D01*
X80532Y54397D01*
X80521Y54414D01*
X80515Y54423D01*
X80513Y54427D01*
X80499Y54455D01*
X80484Y54480D01*
X80473Y54505D01*
X80464Y54527D01*
X80458Y54545D01*
X80452Y54558D01*
X80449Y54567D01*
Y54571D01*
X80441Y54599D01*
X80436Y54625D01*
X80432Y54651D01*
X80428Y54673D01*
Y54693D01*
X80426Y54708D01*
Y54717D01*
Y54721D01*
Y54747D01*
X80430Y54771D01*
X80439Y54816D01*
X80452Y54856D01*
X80467Y54892D01*
X80484Y54921D01*
X80491Y54934D01*
X80497Y54943D01*
X80502Y54951D01*
X80506Y54956D01*
X80508Y54960D01*
X80510Y54962D01*
X80526Y54980D01*
X80543Y54997D01*
X80562Y55010D01*
X80582Y55023D01*
X80602Y55034D01*
X80623Y55042D01*
X80662Y55054D01*
X80699Y55062D01*
X80713Y55064D01*
X80728Y55066D01*
X80739Y55067D01*
X80754D01*
X80780Y55066D01*
D02*
G37*
G36*
X84656Y54395D02*
X84496Y54368D01*
X84483Y54384D01*
X84470Y54397D01*
X84458Y54410D01*
X84445Y54419D01*
X84419Y54436D01*
X84395Y54447D01*
X84374Y54453D01*
X84359Y54456D01*
X84348Y54458D01*
X84345D01*
X84321Y54456D01*
X84300Y54449D01*
X84280Y54440D01*
X84265Y54430D01*
X84252Y54419D01*
X84243Y54410D01*
X84237Y54403D01*
X84235Y54401D01*
X84221Y54377D01*
X84209Y54351D01*
X84202Y54321D01*
X84196Y54293D01*
X84193Y54268D01*
X84191Y54247D01*
Y54238D01*
Y54232D01*
Y54229D01*
Y54227D01*
X84193Y54184D01*
X84198Y54145D01*
X84206Y54114D01*
X84213Y54088D01*
X84221Y54069D01*
X84228Y54055D01*
X84233Y54047D01*
X84235Y54043D01*
X84252Y54023D01*
X84269Y54010D01*
X84287Y53999D01*
X84304Y53992D01*
X84317Y53988D01*
X84328Y53986D01*
X84337Y53984D01*
X84339D01*
X84358Y53986D01*
X84374Y53992D01*
X84391Y53999D01*
X84404Y54008D01*
X84415Y54016D01*
X84424Y54023D01*
X84430Y54029D01*
X84432Y54031D01*
X84446Y54049D01*
X84458Y54071D01*
X84467Y54092D01*
X84472Y54112D01*
X84476Y54131D01*
X84480Y54147D01*
X84482Y54156D01*
Y54160D01*
X84678Y54134D01*
X84669Y54077D01*
X84661Y54049D01*
X84654Y54025D01*
X84645Y54003D01*
X84635Y53982D01*
X84626Y53962D01*
X84617Y53945D01*
X84608Y53931D01*
X84598Y53918D01*
X84591Y53906D01*
X84583Y53897D01*
X84578Y53890D01*
X84572Y53884D01*
X84570Y53882D01*
X84569Y53881D01*
X84550Y53866D01*
X84532Y53851D01*
X84495Y53829D01*
X84456Y53814D01*
X84421Y53803D01*
X84389Y53797D01*
X84374Y53793D01*
X84363D01*
X84354Y53792D01*
X84341D01*
X84309Y53793D01*
X84282Y53797D01*
X84254Y53805D01*
X84230Y53814D01*
X84206Y53823D01*
X84185Y53834D01*
X84165Y53847D01*
X84148Y53860D01*
X84133Y53873D01*
X84119Y53886D01*
X84108Y53897D01*
X84098Y53906D01*
X84091Y53916D01*
X84085Y53923D01*
X84084Y53927D01*
X84082Y53929D01*
X84065Y53955D01*
X84050Y53982D01*
X84039Y54008D01*
X84028Y54034D01*
X84011Y54086D01*
X84000Y54132D01*
X83996Y54155D01*
X83995Y54173D01*
X83991Y54190D01*
Y54205D01*
X83989Y54216D01*
Y54225D01*
Y54230D01*
Y54232D01*
X83991Y54269D01*
X83993Y54305D01*
X83998Y54336D01*
X84006Y54368D01*
X84013Y54395D01*
X84022Y54423D01*
X84034Y54447D01*
X84043Y54469D01*
X84052Y54488D01*
X84063Y54505D01*
X84072Y54519D01*
X84080Y54532D01*
X84087Y54542D01*
X84091Y54549D01*
X84095Y54553D01*
X84096Y54555D01*
X84113Y54571D01*
X84130Y54586D01*
X84146Y54599D01*
X84165Y54610D01*
X84200Y54627D01*
X84232Y54640D01*
X84261Y54645D01*
X84272Y54647D01*
X84283Y54649D01*
X84293Y54651D01*
X84304D01*
X84330Y54649D01*
X84354Y54643D01*
X84376Y54638D01*
X84396Y54630D01*
X84415Y54621D01*
X84428Y54616D01*
X84435Y54610D01*
X84439Y54608D01*
X84406Y54823D01*
X84035D01*
Y55047D01*
X84556D01*
X84656Y54395D01*
D02*
G37*
G36*
X85150Y55027D02*
X85169Y54990D01*
X85189Y54956D01*
X85209Y54929D01*
X85228Y54904D01*
X85243Y54886D01*
X85254Y54875D01*
X85256Y54873D01*
X85257Y54871D01*
X85291Y54842D01*
X85322Y54817D01*
X85350Y54797D01*
X85376Y54780D01*
X85398Y54769D01*
X85413Y54760D01*
X85424Y54756D01*
X85426Y54755D01*
X85428D01*
Y54536D01*
X85376Y54560D01*
X85326Y54588D01*
X85283Y54619D01*
X85246Y54649D01*
X85230Y54662D01*
X85215Y54675D01*
X85202Y54688D01*
X85193Y54697D01*
X85183Y54706D01*
X85178Y54712D01*
X85174Y54716D01*
X85172Y54717D01*
Y53812D01*
X84974D01*
Y55067D01*
X85135D01*
X85150Y55027D01*
D02*
G37*
G36*
X79964D02*
X79982Y54990D01*
X80002Y54956D01*
X80023Y54929D01*
X80041Y54904D01*
X80056Y54886D01*
X80067Y54875D01*
X80069Y54873D01*
X80071Y54871D01*
X80104Y54842D01*
X80136Y54817D01*
X80164Y54797D01*
X80189Y54780D01*
X80212Y54769D01*
X80226Y54760D01*
X80238Y54756D01*
X80239Y54755D01*
X80241D01*
Y54536D01*
X80189Y54560D01*
X80139Y54588D01*
X80097Y54619D01*
X80060Y54649D01*
X80043Y54662D01*
X80028Y54675D01*
X80015Y54688D01*
X80006Y54697D01*
X79997Y54706D01*
X79991Y54712D01*
X79988Y54716D01*
X79986Y54717D01*
Y53812D01*
X79788D01*
Y55067D01*
X79949D01*
X79964Y55027D01*
D02*
G37*
G36*
X82741Y55066D02*
X82771Y55062D01*
X82797Y55053D01*
X82823Y55043D01*
X82869Y55019D01*
X82889Y55006D01*
X82908Y54992D01*
X82924Y54977D01*
X82939Y54964D01*
X82952Y54951D01*
X82963Y54940D01*
X82971Y54930D01*
X82976Y54923D01*
X82980Y54917D01*
X82982Y54916D01*
X83000Y54886D01*
X83015Y54851D01*
X83030Y54814D01*
X83041Y54775D01*
X83060Y54693D01*
X83072Y54612D01*
X83076Y54573D01*
X83080Y54538D01*
X83082Y54506D01*
X83084Y54477D01*
X83085Y54455D01*
Y54436D01*
Y54425D01*
Y54423D01*
Y54421D01*
X83084Y54360D01*
X83082Y54303D01*
X83076Y54251D01*
X83071Y54203D01*
X83061Y54158D01*
X83054Y54119D01*
X83045Y54082D01*
X83035Y54051D01*
X83026Y54023D01*
X83017Y54001D01*
X83008Y53981D01*
X83000Y53964D01*
X82995Y53953D01*
X82989Y53943D01*
X82987Y53938D01*
X82985Y53936D01*
X82965Y53910D01*
X82945Y53888D01*
X82924Y53869D01*
X82902Y53853D01*
X82882Y53838D01*
X82860Y53827D01*
X82839Y53818D01*
X82819Y53810D01*
X82784Y53799D01*
X82769Y53795D01*
X82756Y53793D01*
X82745D01*
X82737Y53792D01*
X82730D01*
X82704Y53793D01*
X82680Y53797D01*
X82656Y53803D01*
X82634Y53808D01*
X82593Y53827D01*
X82560Y53847D01*
X82532Y53868D01*
X82521Y53877D01*
X82511Y53886D01*
X82504Y53892D01*
X82498Y53897D01*
X82497Y53901D01*
X82495Y53903D01*
X82478Y53925D01*
X82463Y53949D01*
X82450Y53973D01*
X82439Y53999D01*
X82423Y54051D01*
X82410Y54099D01*
X82406Y54123D01*
X82404Y54143D01*
X82402Y54164D01*
X82400Y54181D01*
X82398Y54193D01*
Y54203D01*
Y54210D01*
Y54212D01*
X82400Y54245D01*
X82402Y54279D01*
X82406Y54308D01*
X82413Y54338D01*
X82419Y54364D01*
X82426Y54388D01*
X82436Y54410D01*
X82443Y54430D01*
X82452Y54449D01*
X82460Y54466D01*
X82469Y54479D01*
X82474Y54490D01*
X82480Y54499D01*
X82486Y54505D01*
X82487Y54508D01*
X82489Y54510D01*
X82506Y54530D01*
X82524Y54547D01*
X82541Y54562D01*
X82560Y54575D01*
X82576Y54586D01*
X82595Y54595D01*
X82626Y54608D01*
X82656Y54617D01*
X82667Y54619D01*
X82678Y54621D01*
X82687Y54623D01*
X82698D01*
X82719Y54621D01*
X82737Y54619D01*
X82756Y54614D01*
X82771Y54610D01*
X82782Y54605D01*
X82793Y54599D01*
X82798Y54597D01*
X82800Y54595D01*
X82817Y54584D01*
X82832Y54571D01*
X82845Y54558D01*
X82858Y54545D01*
X82867Y54534D01*
X82874Y54525D01*
X82880Y54518D01*
X82882Y54516D01*
X82880Y54555D01*
X82876Y54590D01*
X82873Y54621D01*
X82869Y54649D01*
X82865Y54675D01*
X82860Y54699D01*
X82856Y54719D01*
X82850Y54738D01*
X82847Y54753D01*
X82843Y54766D01*
X82837Y54777D01*
X82835Y54784D01*
X82832Y54792D01*
X82830Y54795D01*
X82828Y54799D01*
X82811Y54823D01*
X82793Y54840D01*
X82776Y54853D01*
X82760Y54860D01*
X82745Y54866D01*
X82734Y54867D01*
X82724Y54869D01*
X82723D01*
X82706Y54867D01*
X82689Y54864D01*
X82676Y54856D01*
X82663Y54847D01*
X82643Y54825D01*
X82630Y54801D01*
X82619Y54775D01*
X82613Y54753D01*
X82611Y54743D01*
X82610Y54736D01*
Y54732D01*
Y54730D01*
X82419Y54756D01*
X82430Y54812D01*
X82443Y54858D01*
X82460Y54899D01*
X82476Y54932D01*
X82493Y54956D01*
X82506Y54975D01*
X82515Y54986D01*
X82519Y54990D01*
X82548Y55016D01*
X82582Y55034D01*
X82613Y55049D01*
X82645Y55058D01*
X82671Y55064D01*
X82693Y55066D01*
X82700Y55067D01*
X82711D01*
X82741Y55066D01*
D02*
G37*
G36*
X88848Y54164D02*
X88859Y54127D01*
X88870Y54097D01*
X88879Y54075D01*
X88889Y54056D01*
X88898Y54042D01*
X88903Y54034D01*
X88907Y54029D01*
X88909Y54027D01*
X88922Y54018D01*
X88939Y54010D01*
X88955Y54005D01*
X88972Y54001D01*
X88989Y53999D01*
X89002Y53997D01*
X89037D01*
X89063Y53999D01*
X89090D01*
Y53812D01*
X89042Y53803D01*
X89018Y53801D01*
X88996Y53799D01*
X88976Y53797D01*
X88948D01*
X88916Y53801D01*
X88889Y53808D01*
X88864Y53819D01*
X88844Y53832D01*
X88827Y53845D01*
X88814Y53856D01*
X88805Y53864D01*
X88803Y53868D01*
X88792Y53882D01*
X88781Y53899D01*
X88759Y53936D01*
X88739Y53975D01*
X88718Y54016D01*
X88703Y54053D01*
X88696Y54069D01*
X88690Y54084D01*
X88685Y54095D01*
X88683Y54105D01*
X88679Y54110D01*
Y54112D01*
X88333Y55064D01*
X88548D01*
X88755Y54414D01*
X88994Y55064D01*
X89226D01*
X88848Y54164D01*
D02*
G37*
G36*
X92851Y55082D02*
X92888Y55077D01*
X92921Y55069D01*
X92955Y55060D01*
X92984Y55047D01*
X93012Y55034D01*
X93038Y55019D01*
X93060Y55006D01*
X93081Y54992D01*
X93099Y54977D01*
X93114Y54964D01*
X93127Y54951D01*
X93136Y54942D01*
X93144Y54934D01*
X93147Y54929D01*
X93149Y54927D01*
X93175Y54892D01*
X93197Y54853D01*
X93216Y54814D01*
X93233Y54773D01*
X93247Y54730D01*
X93258Y54690D01*
X93268Y54649D01*
X93275Y54608D01*
X93281Y54571D01*
X93286Y54538D01*
X93290Y54506D01*
X93292Y54479D01*
Y54458D01*
X93294Y54442D01*
Y54430D01*
Y54429D01*
Y54427D01*
X93292Y54371D01*
X93288Y54319D01*
X93281Y54269D01*
X93271Y54223D01*
X93260Y54181D01*
X93249Y54142D01*
X93236Y54105D01*
X93221Y54073D01*
X93208Y54043D01*
X93196Y54018D01*
X93184Y53995D01*
X93173Y53979D01*
X93164Y53964D01*
X93157Y53953D01*
X93153Y53947D01*
X93151Y53945D01*
X93127Y53918D01*
X93101Y53895D01*
X93075Y53875D01*
X93047Y53856D01*
X93020Y53842D01*
X92994Y53829D01*
X92968Y53819D01*
X92942Y53810D01*
X92918Y53805D01*
X92896Y53799D01*
X92875Y53797D01*
X92859Y53793D01*
X92844D01*
X92834Y53792D01*
X92825D01*
X92796Y53793D01*
X92768Y53795D01*
X92716Y53806D01*
X92670Y53821D01*
X92649Y53831D01*
X92631Y53840D01*
X92614Y53849D01*
X92599Y53858D01*
X92586Y53866D01*
X92577Y53873D01*
X92568Y53879D01*
X92562Y53884D01*
X92559Y53886D01*
X92557Y53888D01*
X92536Y53908D01*
X92518Y53929D01*
X92486Y53977D01*
X92459Y54029D01*
X92436Y54079D01*
X92427Y54103D01*
X92420Y54125D01*
X92414Y54145D01*
X92409Y54162D01*
X92405Y54177D01*
X92401Y54188D01*
X92399Y54195D01*
Y54197D01*
X92601Y54275D01*
X92612Y54225D01*
X92627Y54184D01*
X92640Y54149D01*
X92655Y54121D01*
X92668Y54099D01*
X92679Y54084D01*
X92686Y54075D01*
X92688Y54071D01*
X92710Y54051D01*
X92734Y54034D01*
X92759Y54023D01*
X92781Y54016D01*
X92799Y54012D01*
X92816Y54010D01*
X92825Y54008D01*
X92829D01*
X92849Y54010D01*
X92868Y54012D01*
X92905Y54023D01*
X92934Y54040D01*
X92960Y54058D01*
X92983Y54075D01*
X92997Y54092D01*
X93007Y54103D01*
X93010Y54105D01*
Y54106D01*
X93021Y54127D01*
X93033Y54149D01*
X93042Y54175D01*
X93049Y54201D01*
X93062Y54256D01*
X93070Y54312D01*
X93073Y54338D01*
X93075Y54362D01*
X93077Y54384D01*
Y54403D01*
X93079Y54419D01*
Y54430D01*
Y54440D01*
Y54442D01*
Y54482D01*
X93075Y54521D01*
X93071Y54556D01*
X93068Y54588D01*
X93062Y54617D01*
X93057Y54645D01*
X93051Y54669D01*
X93044Y54690D01*
X93036Y54708D01*
X93031Y54725D01*
X93025Y54738D01*
X93020Y54749D01*
X93014Y54756D01*
X93012Y54764D01*
X93008Y54766D01*
Y54767D01*
X92994Y54786D01*
X92979Y54801D01*
X92964Y54814D01*
X92949Y54825D01*
X92918Y54843D01*
X92888Y54854D01*
X92862Y54862D01*
X92842Y54866D01*
X92834Y54867D01*
X92823D01*
X92794Y54866D01*
X92768Y54858D01*
X92746Y54851D01*
X92725Y54840D01*
X92709Y54830D01*
X92696Y54821D01*
X92688Y54814D01*
X92686Y54812D01*
X92666Y54790D01*
X92649Y54766D01*
X92634Y54740D01*
X92623Y54714D01*
X92616Y54692D01*
X92610Y54673D01*
X92609Y54666D01*
Y54660D01*
X92607Y54658D01*
Y54656D01*
X92401Y54716D01*
X92409Y54745D01*
X92418Y54773D01*
X92427Y54799D01*
X92436Y54825D01*
X92447Y54847D01*
X92457Y54867D01*
X92468Y54884D01*
X92477Y54901D01*
X92486Y54916D01*
X92496Y54929D01*
X92503Y54940D01*
X92510Y54949D01*
X92516Y54954D01*
X92520Y54960D01*
X92522Y54964D01*
X92523D01*
X92546Y54984D01*
X92570Y55003D01*
X92594Y55019D01*
X92618Y55034D01*
X92642Y55045D01*
X92666Y55054D01*
X92712Y55069D01*
X92733Y55075D01*
X92751Y55079D01*
X92768Y55080D01*
X92783Y55082D01*
X92796Y55084D01*
X92812D01*
X92851Y55082D01*
D02*
G37*
G36*
X92220Y53812D02*
X92012D01*
Y54853D01*
X91607D01*
Y53812D01*
X91399D01*
Y55064D01*
X92220D01*
Y53812D01*
D02*
G37*
G36*
X91181D02*
X90681D01*
X90646Y53814D01*
X90612Y53818D01*
X90583Y53823D01*
X90555Y53831D01*
X90531Y53838D01*
X90509Y53847D01*
X90488Y53858D01*
X90470Y53869D01*
X90455Y53879D01*
X90440Y53890D01*
X90429Y53899D01*
X90420Y53908D01*
X90414Y53914D01*
X90409Y53919D01*
X90405Y53923D01*
Y53925D01*
X90390Y53947D01*
X90377Y53969D01*
X90359Y54014D01*
X90344Y54056D01*
X90333Y54097D01*
X90331Y54116D01*
X90327Y54134D01*
X90325Y54149D01*
Y54162D01*
X90324Y54171D01*
Y54179D01*
Y54184D01*
Y54186D01*
X90325Y54218D01*
X90327Y54247D01*
X90338Y54303D01*
X90346Y54327D01*
X90353Y54349D01*
X90362Y54369D01*
X90372Y54388D01*
X90381Y54405D01*
X90390Y54419D01*
X90398Y54432D01*
X90405Y54443D01*
X90411Y54451D01*
X90416Y54456D01*
X90418Y54460D01*
X90420Y54462D01*
X90438Y54480D01*
X90459Y54497D01*
X90479Y54510D01*
X90501Y54521D01*
X90544Y54540D01*
X90587Y54553D01*
X90624Y54560D01*
X90640Y54562D01*
X90653Y54564D01*
X90664Y54566D01*
X90974D01*
Y54853D01*
X90412D01*
Y55064D01*
X91181D01*
Y53812D01*
D02*
G37*
G36*
X90153D02*
X89946D01*
Y54853D01*
X89540D01*
Y53812D01*
X89333D01*
Y55064D01*
X90153D01*
Y53812D01*
D02*
G37*
G36*
X88231D02*
X88035D01*
Y54053D01*
X88231D01*
Y53812D01*
D02*
G37*
G36*
X82247Y53812D02*
X82050D01*
Y54053D01*
X82247D01*
Y53812D01*
D02*
G37*
G36*
X83580Y55066D02*
X83606Y55062D01*
X83630Y55054D01*
X83652Y55045D01*
X83693Y55023D01*
X83728Y54997D01*
X83756Y54969D01*
X83767Y54958D01*
X83776Y54947D01*
X83784Y54938D01*
X83789Y54930D01*
X83791Y54927D01*
X83793Y54925D01*
X83809Y54895D01*
X83822Y54862D01*
X83835Y54827D01*
X83845Y54788D01*
X83861Y54706D01*
X83872Y54625D01*
X83876Y54586D01*
X83878Y54549D01*
X83880Y54516D01*
X83882Y54488D01*
X83884Y54464D01*
Y54445D01*
Y54440D01*
Y54434D01*
Y54432D01*
Y54430D01*
X83882Y54366D01*
X83880Y54306D01*
X83874Y54251D01*
X83869Y54201D01*
X83863Y54155D01*
X83854Y54114D01*
X83846Y54079D01*
X83837Y54045D01*
X83830Y54018D01*
X83821Y53993D01*
X83813Y53975D01*
X83808Y53958D01*
X83800Y53945D01*
X83796Y53938D01*
X83795Y53932D01*
X83793Y53931D01*
X83774Y53906D01*
X83756Y53884D01*
X83735Y53866D01*
X83715Y53851D01*
X83695Y53836D01*
X83676Y53825D01*
X83656Y53816D01*
X83637Y53808D01*
X83602Y53799D01*
X83587Y53795D01*
X83574Y53793D01*
X83565D01*
X83558Y53792D01*
X83550D01*
X83522Y53793D01*
X83497Y53797D01*
X83472Y53805D01*
X83450Y53814D01*
X83409Y53836D01*
X83374Y53862D01*
X83347Y53888D01*
X83335Y53899D01*
X83326Y53910D01*
X83319Y53919D01*
X83313Y53927D01*
X83311Y53931D01*
X83310Y53932D01*
X83293Y53962D01*
X83278Y53995D01*
X83267Y54031D01*
X83256Y54069D01*
X83239Y54153D01*
X83228Y54234D01*
X83224Y54273D01*
X83222Y54310D01*
X83219Y54342D01*
Y54371D01*
X83217Y54395D01*
Y54414D01*
Y54419D01*
Y54425D01*
Y54427D01*
Y54429D01*
X83219Y54493D01*
X83221Y54551D01*
X83226Y54606D01*
X83232Y54655D01*
X83239Y54701D01*
X83247Y54742D01*
X83254Y54777D01*
X83263Y54810D01*
X83272Y54838D01*
X83280Y54862D01*
X83287Y54880D01*
X83295Y54897D01*
X83300Y54910D01*
X83306Y54917D01*
X83308Y54923D01*
X83310Y54925D01*
X83328Y54951D01*
X83347Y54971D01*
X83367Y54992D01*
X83387Y55008D01*
X83408Y55021D01*
X83426Y55032D01*
X83447Y55042D01*
X83465Y55049D01*
X83500Y55060D01*
X83515Y55064D01*
X83528Y55066D01*
X83537Y55067D01*
X83552D01*
X83580Y55066D01*
D02*
G37*
G36*
X81586D02*
X81612Y55062D01*
X81636Y55054D01*
X81658Y55045D01*
X81699Y55023D01*
X81734Y54997D01*
X81762Y54969D01*
X81773Y54958D01*
X81782Y54947D01*
X81789Y54938D01*
X81795Y54930D01*
X81797Y54927D01*
X81799Y54925D01*
X81815Y54895D01*
X81828Y54862D01*
X81841Y54827D01*
X81850Y54788D01*
X81867Y54706D01*
X81878Y54625D01*
X81882Y54586D01*
X81884Y54549D01*
X81886Y54516D01*
X81887Y54488D01*
X81889Y54464D01*
Y54445D01*
Y54440D01*
Y54434D01*
Y54432D01*
Y54430D01*
X81887Y54366D01*
X81886Y54306D01*
X81880Y54251D01*
X81874Y54201D01*
X81869Y54155D01*
X81860Y54114D01*
X81852Y54079D01*
X81843Y54045D01*
X81836Y54018D01*
X81826Y53993D01*
X81819Y53975D01*
X81813Y53958D01*
X81806Y53945D01*
X81802Y53938D01*
X81800Y53932D01*
X81799Y53931D01*
X81780Y53906D01*
X81762Y53884D01*
X81741Y53866D01*
X81721Y53851D01*
X81700Y53836D01*
X81682Y53825D01*
X81662Y53816D01*
X81643Y53808D01*
X81608Y53799D01*
X81593Y53795D01*
X81580Y53793D01*
X81571D01*
X81563Y53792D01*
X81556D01*
X81528Y53793D01*
X81502Y53797D01*
X81478Y53805D01*
X81456Y53814D01*
X81415Y53836D01*
X81380Y53862D01*
X81352Y53888D01*
X81341Y53899D01*
X81332Y53910D01*
X81325Y53919D01*
X81319Y53927D01*
X81317Y53931D01*
X81315Y53932D01*
X81299Y53962D01*
X81284Y53995D01*
X81273Y54031D01*
X81262Y54069D01*
X81245Y54153D01*
X81234Y54234D01*
X81230Y54273D01*
X81228Y54310D01*
X81225Y54342D01*
Y54371D01*
X81223Y54395D01*
Y54414D01*
Y54419D01*
Y54425D01*
Y54427D01*
Y54429D01*
X81225Y54493D01*
X81226Y54551D01*
X81232Y54606D01*
X81238Y54655D01*
X81245Y54701D01*
X81252Y54742D01*
X81260Y54777D01*
X81269Y54810D01*
X81278Y54838D01*
X81286Y54862D01*
X81293Y54880D01*
X81300Y54897D01*
X81306Y54910D01*
X81312Y54917D01*
X81313Y54923D01*
X81315Y54925D01*
X81334Y54951D01*
X81352Y54971D01*
X81373Y54992D01*
X81393Y55008D01*
X81413Y55021D01*
X81432Y55032D01*
X81452Y55042D01*
X81471Y55049D01*
X81506Y55060D01*
X81521Y55064D01*
X81534Y55066D01*
X81543Y55067D01*
X81558D01*
X81586Y55066D01*
D02*
G37*
%LPC*%
G36*
X82737Y54445D02*
X82728D01*
X82708Y54443D01*
X82689Y54436D01*
X82673Y54427D01*
X82658Y54418D01*
X82647Y54406D01*
X82639Y54397D01*
X82634Y54390D01*
X82632Y54388D01*
X82619Y54364D01*
X82608Y54338D01*
X82600Y54308D01*
X82597Y54279D01*
X82593Y54253D01*
X82591Y54232D01*
Y54223D01*
Y54218D01*
Y54214D01*
Y54212D01*
X82593Y54171D01*
X82597Y54136D01*
X82602Y54106D01*
X82610Y54082D01*
X82617Y54064D01*
X82623Y54051D01*
X82626Y54043D01*
X82628Y54042D01*
X82643Y54025D01*
X82658Y54012D01*
X82673Y54005D01*
X82687Y53997D01*
X82700Y53993D01*
X82710Y53992D01*
X82719D01*
X82739Y53993D01*
X82760Y54001D01*
X82776Y54010D01*
X82791Y54023D01*
X82804Y54034D01*
X82813Y54043D01*
X82819Y54051D01*
X82821Y54053D01*
X82835Y54079D01*
X82845Y54108D01*
X82852Y54138D01*
X82858Y54166D01*
X82861Y54192D01*
X82863Y54214D01*
Y54221D01*
Y54227D01*
Y54230D01*
Y54232D01*
X82861Y54269D01*
X82858Y54303D01*
X82850Y54329D01*
X82843Y54351D01*
X82837Y54369D01*
X82830Y54382D01*
X82826Y54390D01*
X82824Y54392D01*
X82810Y54410D01*
X82793Y54423D01*
X82776Y54432D01*
X82761Y54438D01*
X82748Y54443D01*
X82737Y54445D01*
D02*
G37*
G36*
X90974Y54355D02*
X90748D01*
X90711Y54353D01*
X90679Y54347D01*
X90651Y54340D01*
X90627Y54329D01*
X90607Y54316D01*
X90590Y54301D01*
X90575Y54286D01*
X90564Y54269D01*
X90555Y54253D01*
X90549Y54238D01*
X90544Y54223D01*
X90542Y54210D01*
X90540Y54201D01*
X90538Y54192D01*
Y54186D01*
Y54184D01*
X90540Y54164D01*
X90542Y54145D01*
X90548Y54129D01*
X90553Y54114D01*
X90559Y54103D01*
X90562Y54093D01*
X90566Y54088D01*
X90568Y54086D01*
X90579Y54073D01*
X90590Y54060D01*
X90601Y54053D01*
X90612Y54045D01*
X90622Y54040D01*
X90627Y54036D01*
X90633Y54034D01*
X90635D01*
X90651Y54031D01*
X90670Y54029D01*
X90709Y54025D01*
X90727Y54023D01*
X90974D01*
Y54355D01*
D02*
G37*
G36*
X83552Y54867D02*
X83550D01*
X83530Y54864D01*
X83511Y54854D01*
X83497Y54843D01*
X83484Y54829D01*
X83472Y54814D01*
X83465Y54803D01*
X83461Y54793D01*
X83459Y54790D01*
X83454Y54773D01*
X83448Y54753D01*
X83443Y54729D01*
X83439Y54701D01*
X83435Y54673D01*
X83434Y54642D01*
X83428Y54580D01*
Y54551D01*
X83426Y54523D01*
Y54497D01*
X83424Y54475D01*
Y54456D01*
Y54442D01*
Y54432D01*
Y54429D01*
Y54377D01*
X83426Y54330D01*
X83428Y54290D01*
X83430Y54253D01*
X83432Y54219D01*
X83435Y54190D01*
X83439Y54164D01*
X83441Y54142D01*
X83445Y54123D01*
X83448Y54106D01*
X83452Y54093D01*
X83454Y54084D01*
X83456Y54077D01*
X83458Y54071D01*
X83459Y54069D01*
Y54068D01*
X83472Y54042D01*
X83487Y54023D01*
X83502Y54010D01*
X83517Y54001D01*
X83530Y53995D01*
X83541Y53993D01*
X83548Y53992D01*
X83550D01*
X83571Y53995D01*
X83589Y54003D01*
X83606Y54016D01*
X83619Y54031D01*
X83630Y54043D01*
X83637Y54056D01*
X83641Y54064D01*
X83643Y54068D01*
X83648Y54084D01*
X83654Y54105D01*
X83658Y54129D01*
X83661Y54156D01*
X83665Y54184D01*
X83669Y54216D01*
X83672Y54277D01*
Y54306D01*
X83674Y54334D01*
Y54360D01*
X83676Y54382D01*
Y54403D01*
Y54416D01*
Y54425D01*
Y54429D01*
Y54480D01*
X83674Y54527D01*
X83672Y54567D01*
X83671Y54605D01*
X83669Y54638D01*
X83665Y54667D01*
X83663Y54693D01*
X83659Y54716D01*
X83656Y54734D01*
X83654Y54751D01*
X83650Y54764D01*
X83648Y54773D01*
X83647Y54780D01*
X83645Y54786D01*
X83643Y54790D01*
X83630Y54816D01*
X83615Y54834D01*
X83598Y54849D01*
X83584Y54858D01*
X83571Y54864D01*
X83559Y54866D01*
X83552Y54867D01*
D02*
G37*
G36*
X81558D02*
X81556D01*
X81536Y54864D01*
X81517Y54854D01*
X81502Y54843D01*
X81489Y54829D01*
X81478Y54814D01*
X81471Y54803D01*
X81467Y54793D01*
X81465Y54790D01*
X81460Y54773D01*
X81454Y54753D01*
X81449Y54729D01*
X81445Y54701D01*
X81441Y54673D01*
X81439Y54642D01*
X81434Y54580D01*
Y54551D01*
X81432Y54523D01*
Y54497D01*
X81430Y54475D01*
Y54456D01*
Y54442D01*
Y54432D01*
Y54429D01*
Y54377D01*
X81432Y54330D01*
X81434Y54290D01*
X81436Y54253D01*
X81437Y54219D01*
X81441Y54190D01*
X81445Y54164D01*
X81447Y54142D01*
X81450Y54123D01*
X81454Y54106D01*
X81458Y54093D01*
X81460Y54084D01*
X81462Y54077D01*
X81463Y54071D01*
X81465Y54069D01*
Y54068D01*
X81478Y54042D01*
X81493Y54023D01*
X81508Y54010D01*
X81523Y54001D01*
X81536Y53995D01*
X81547Y53993D01*
X81554Y53992D01*
X81556D01*
X81576Y53995D01*
X81595Y54003D01*
X81612Y54016D01*
X81624Y54031D01*
X81636Y54043D01*
X81643Y54056D01*
X81647Y54064D01*
X81649Y54068D01*
X81654Y54084D01*
X81660Y54105D01*
X81663Y54129D01*
X81667Y54156D01*
X81671Y54184D01*
X81674Y54216D01*
X81678Y54277D01*
Y54306D01*
X81680Y54334D01*
Y54360D01*
X81682Y54382D01*
Y54403D01*
Y54416D01*
Y54425D01*
Y54429D01*
Y54480D01*
X81680Y54527D01*
X81678Y54567D01*
X81676Y54605D01*
X81674Y54638D01*
X81671Y54667D01*
X81669Y54693D01*
X81665Y54716D01*
X81662Y54734D01*
X81660Y54751D01*
X81656Y54764D01*
X81654Y54773D01*
X81652Y54780D01*
X81650Y54786D01*
X81649Y54790D01*
X81636Y54816D01*
X81621Y54834D01*
X81604Y54849D01*
X81589Y54858D01*
X81576Y54864D01*
X81565Y54866D01*
X81558Y54867D01*
D02*
G37*
%LPD*%
D48*
X73900Y71975D02*
X75000D01*
X73900D02*
X74475Y72550D01*
X77000Y72125D02*
X77025Y72100D01*
X77000Y72125D02*
Y73625D01*
X76550Y74075D02*
X77000Y73625D01*
X75225Y74075D02*
X76550D01*
X74475Y73325D02*
X75225Y74075D01*
X74475Y72550D02*
Y73325D01*
Y72550D02*
X75025Y72000D01*
X75925D01*
X76400Y72475D01*
Y72975D01*
X75925Y73450D02*
X76400Y72975D01*
X75425Y73450D02*
X75925D01*
X75025Y73050D02*
X75425Y73450D01*
X75025Y72850D02*
Y73050D01*
M02*
