G04*
G04 #@! TF.GenerationSoftware,Altium Limited,Altium Designer,19.1.6 (110)*
G04*
G04 Layer_Color=8388736*
%FSLAX43Y43*%
%MOMM*%
G71*
G01*
G75*
G04:AMPARAMS|DCode=14|XSize=1mm|YSize=0.9mm|CornerRadius=0.25mm|HoleSize=0mm|Usage=FLASHONLY|Rotation=0.000|XOffset=0mm|YOffset=0mm|HoleType=Round|Shape=RoundedRectangle|*
%AMROUNDEDRECTD14*
21,1,1.000,0.400,0,0,0.0*
21,1,0.500,0.900,0,0,0.0*
1,1,0.500,0.250,-0.200*
1,1,0.500,-0.250,-0.200*
1,1,0.500,-0.250,0.200*
1,1,0.500,0.250,0.200*
%
%ADD14ROUNDEDRECTD14*%
%ADD15R,0.950X1.000*%
G04:AMPARAMS|DCode=16|XSize=0.6mm|YSize=0.6mm|CornerRadius=0.175mm|HoleSize=0mm|Usage=FLASHONLY|Rotation=270.000|XOffset=0mm|YOffset=0mm|HoleType=Round|Shape=RoundedRectangle|*
%AMROUNDEDRECTD16*
21,1,0.600,0.250,0,0,270.0*
21,1,0.250,0.600,0,0,270.0*
1,1,0.350,-0.125,-0.125*
1,1,0.350,-0.125,0.125*
1,1,0.350,0.125,0.125*
1,1,0.350,0.125,-0.125*
%
%ADD16ROUNDEDRECTD16*%
%ADD17R,1.000X0.950*%
%ADD18R,0.650X0.650*%
G04:AMPARAMS|DCode=19|XSize=0.38mm|YSize=0.4mm|CornerRadius=0.12mm|HoleSize=0mm|Usage=FLASHONLY|Rotation=90.000|XOffset=0mm|YOffset=0mm|HoleType=Round|Shape=RoundedRectangle|*
%AMROUNDEDRECTD19*
21,1,0.380,0.160,0,0,90.0*
21,1,0.140,0.400,0,0,90.0*
1,1,0.240,0.080,0.070*
1,1,0.240,0.080,-0.070*
1,1,0.240,-0.080,-0.070*
1,1,0.240,-0.080,0.070*
%
%ADD19ROUNDEDRECTD19*%
G04:AMPARAMS|DCode=20|XSize=1mm|YSize=0.9mm|CornerRadius=0.25mm|HoleSize=0mm|Usage=FLASHONLY|Rotation=90.000|XOffset=0mm|YOffset=0mm|HoleType=Round|Shape=RoundedRectangle|*
%AMROUNDEDRECTD20*
21,1,1.000,0.400,0,0,90.0*
21,1,0.500,0.900,0,0,90.0*
1,1,0.500,0.200,0.250*
1,1,0.500,0.200,-0.250*
1,1,0.500,-0.200,-0.250*
1,1,0.500,-0.200,0.250*
%
%ADD20ROUNDEDRECTD20*%
%ADD21R,2.110X6.100*%
G04:AMPARAMS|DCode=22|XSize=0.6mm|YSize=0.6mm|CornerRadius=0.175mm|HoleSize=0mm|Usage=FLASHONLY|Rotation=0.000|XOffset=0mm|YOffset=0mm|HoleType=Round|Shape=RoundedRectangle|*
%AMROUNDEDRECTD22*
21,1,0.600,0.250,0,0,0.0*
21,1,0.250,0.600,0,0,0.0*
1,1,0.350,0.125,-0.125*
1,1,0.350,-0.125,-0.125*
1,1,0.350,-0.125,0.125*
1,1,0.350,0.125,0.125*
%
%ADD22ROUNDEDRECTD22*%
G04:AMPARAMS|DCode=23|XSize=1.9mm|YSize=1.1mm|CornerRadius=0.3mm|HoleSize=0mm|Usage=FLASHONLY|Rotation=180.000|XOffset=0mm|YOffset=0mm|HoleType=Round|Shape=RoundedRectangle|*
%AMROUNDEDRECTD23*
21,1,1.900,0.500,0,0,180.0*
21,1,1.300,1.100,0,0,180.0*
1,1,0.600,-0.650,0.250*
1,1,0.600,0.650,0.250*
1,1,0.600,0.650,-0.250*
1,1,0.600,-0.650,-0.250*
%
%ADD23ROUNDEDRECTD23*%
%ADD24R,0.900X1.050*%
%ADD25O,1.000X0.350*%
%ADD26O,0.350X1.000*%
%ADD27R,2.150X3.150*%
%ADD28R,2.000X2.000*%
%ADD29C,2.000*%
%ADD30C,2.100*%
%ADD31C,0.700*%
D14*
X69240Y70232D02*
D03*
X69240Y68732D02*
D03*
X77900Y64450D02*
D03*
X77900Y62950D02*
D03*
D15*
X67970Y68428D02*
D03*
X66420D02*
D03*
X75222Y70612D02*
D03*
X73672D02*
D03*
D16*
X66700Y64300D02*
D03*
X67700D02*
D03*
D17*
X72275Y69175D02*
D03*
Y70725D02*
D03*
X76683Y67501D02*
D03*
Y65951D02*
D03*
X76225Y62825D02*
D03*
Y64375D02*
D03*
D18*
X76708Y69672D02*
D03*
Y68772D02*
D03*
D19*
X76657Y71040D02*
D03*
Y70510D02*
D03*
D20*
X75223Y68936D02*
D03*
X73723Y68936D02*
D03*
D21*
X64084Y74422D02*
D03*
X60071D02*
D03*
D22*
X60325Y64838D02*
D03*
Y63838D02*
D03*
X69393Y61663D02*
D03*
Y60663D02*
D03*
D23*
X62459Y66905D02*
D03*
Y63905D02*
D03*
D24*
X74325Y61250D02*
D03*
X75975D02*
D03*
D25*
X69045Y67298D02*
D03*
Y66798D02*
D03*
Y66298D02*
D03*
Y65798D02*
D03*
Y65298D02*
D03*
Y64798D02*
D03*
Y64298D02*
D03*
Y63798D02*
D03*
X72645D02*
D03*
Y64298D02*
D03*
Y64798D02*
D03*
Y65298D02*
D03*
Y65798D02*
D03*
Y66298D02*
D03*
Y66798D02*
D03*
Y67298D02*
D03*
D26*
X70095Y63248D02*
D03*
X70595D02*
D03*
X71095D02*
D03*
X71595D02*
D03*
Y67848D02*
D03*
X71095D02*
D03*
X70595D02*
D03*
X70095D02*
D03*
D27*
X70845Y65548D02*
D03*
D28*
X57506Y66249D02*
D03*
X80441Y62504D02*
D03*
Y71292D02*
D03*
D29*
X57506Y63749D02*
D03*
X80441Y65004D02*
D03*
Y73792D02*
D03*
D30*
X52000Y58500D02*
D03*
X86000D02*
D03*
Y77500D02*
D03*
X52000D02*
D03*
D31*
X71425Y64541D02*
D03*
X71450Y65608D02*
D03*
X70256Y64567D02*
D03*
Y65634D02*
D03*
X71450Y66650D02*
D03*
X70282Y66624D02*
D03*
M02*
