G04*
G04 #@! TF.GenerationSoftware,Altium Limited,Altium Designer,19.1.6 (110)*
G04*
G04 Layer_Color=65535*
%FSLAX43Y43*%
%MOMM*%
G71*
G01*
G75*
%ADD10C,0.600*%
%ADD11C,0.250*%
%ADD12C,0.100*%
%ADD13C,0.150*%
%ADD14C,0.200*%
G36*
X5044Y2620D02*
X4901D01*
X4500Y3885D01*
X4650D01*
X4920Y2965D01*
Y2963D01*
X4922Y2959D01*
X4924Y2954D01*
X4925Y2946D01*
X4931Y2926D01*
X4938Y2900D01*
X4946Y2868D01*
X4955Y2833D01*
X4964Y2796D01*
X4974Y2759D01*
Y2761D01*
X4975Y2765D01*
Y2770D01*
X4977Y2778D01*
X4983Y2798D01*
X4990Y2824D01*
X4998Y2856D01*
X5007Y2889D01*
X5018Y2926D01*
X5029Y2965D01*
X5311Y3885D01*
X5449D01*
X5044Y2620D01*
D02*
G37*
G36*
X2278Y3154D02*
Y3152D01*
Y3146D01*
Y3135D01*
Y3124D01*
X2276Y3107D01*
Y3089D01*
X2274Y3068D01*
Y3048D01*
X2268Y3000D01*
X2263Y2950D01*
X2253Y2898D01*
X2241Y2852D01*
Y2850D01*
X2239Y2846D01*
X2237Y2841D01*
X2233Y2833D01*
X2224Y2811D01*
X2211Y2785D01*
X2194Y2756D01*
X2170Y2724D01*
X2144Y2694D01*
X2111Y2667D01*
X2109D01*
X2107Y2663D01*
X2102Y2661D01*
X2094Y2656D01*
X2085Y2652D01*
X2074Y2646D01*
X2046Y2633D01*
X2011Y2620D01*
X1970Y2611D01*
X1924Y2604D01*
X1872Y2600D01*
X1852D01*
X1839Y2602D01*
X1822Y2604D01*
X1802Y2607D01*
X1779Y2611D01*
X1757Y2615D01*
X1707Y2630D01*
X1681Y2639D01*
X1655Y2652D01*
X1631Y2665D01*
X1607Y2681D01*
X1585Y2700D01*
X1565Y2722D01*
X1563Y2724D01*
X1561Y2728D01*
X1555Y2735D01*
X1550Y2746D01*
X1542Y2759D01*
X1533Y2778D01*
X1524Y2798D01*
X1515Y2822D01*
X1505Y2850D01*
X1496Y2881D01*
X1489Y2917D01*
X1480Y2956D01*
X1474Y3000D01*
X1468Y3046D01*
X1467Y3098D01*
X1465Y3154D01*
Y3885D01*
X1602D01*
Y3155D01*
Y3154D01*
Y3148D01*
Y3139D01*
Y3128D01*
Y3113D01*
X1604Y3098D01*
X1605Y3061D01*
X1607Y3020D01*
X1613Y2980D01*
X1618Y2941D01*
X1624Y2922D01*
X1628Y2907D01*
X1629Y2904D01*
X1633Y2894D01*
X1639Y2881D01*
X1648Y2865D01*
X1661Y2846D01*
X1676Y2826D01*
X1694Y2807D01*
X1715Y2791D01*
X1718Y2789D01*
X1726Y2785D01*
X1739Y2778D01*
X1755Y2772D01*
X1778Y2765D01*
X1804Y2757D01*
X1831Y2754D01*
X1863Y2752D01*
X1876D01*
X1887Y2754D01*
X1898D01*
X1913Y2756D01*
X1944Y2763D01*
X1978Y2772D01*
X2013Y2787D01*
X2046Y2807D01*
X2061Y2819D01*
X2074Y2833D01*
Y2835D01*
X2078Y2837D01*
X2079Y2843D01*
X2085Y2850D01*
X2089Y2859D01*
X2094Y2872D01*
X2102Y2887D01*
X2107Y2906D01*
X2113Y2926D01*
X2120Y2948D01*
X2126Y2976D01*
X2129Y3004D01*
X2135Y3037D01*
X2137Y3074D01*
X2141Y3113D01*
Y3155D01*
Y3885D01*
X2278D01*
Y3154D01*
D02*
G37*
G36*
X4383Y3720D02*
X3970D01*
X3914Y3380D01*
X3916Y3381D01*
X3918Y3383D01*
X3924Y3387D01*
X3931Y3393D01*
X3950Y3405D01*
X3974Y3420D01*
X4003Y3433D01*
X4035Y3446D01*
X4072Y3455D01*
X4090Y3459D01*
X4122D01*
X4131Y3457D01*
X4142Y3455D01*
X4155Y3454D01*
X4187Y3446D01*
X4222Y3431D01*
X4240Y3424D01*
X4261Y3413D01*
X4279Y3400D01*
X4300Y3385D01*
X4318Y3368D01*
X4337Y3348D01*
X4338Y3346D01*
X4340Y3343D01*
X4346Y3337D01*
X4351Y3328D01*
X4359Y3317D01*
X4366Y3304D01*
X4376Y3287D01*
X4385Y3268D01*
X4394Y3248D01*
X4403Y3226D01*
X4411Y3202D01*
X4418Y3174D01*
X4424Y3146D01*
X4429Y3115D01*
X4431Y3083D01*
X4433Y3048D01*
Y3046D01*
Y3041D01*
Y3030D01*
X4431Y3017D01*
X4429Y3002D01*
X4427Y2983D01*
X4425Y2961D01*
X4422Y2939D01*
X4409Y2889D01*
X4392Y2837D01*
X4381Y2809D01*
X4368Y2783D01*
X4353Y2757D01*
X4337Y2731D01*
X4335Y2730D01*
X4333Y2726D01*
X4327Y2719D01*
X4320Y2711D01*
X4309Y2702D01*
X4298Y2691D01*
X4285Y2678D01*
X4268Y2667D01*
X4251Y2654D01*
X4231Y2641D01*
X4187Y2620D01*
X4163Y2613D01*
X4135Y2606D01*
X4107Y2602D01*
X4077Y2600D01*
X4064D01*
X4055Y2602D01*
X4044Y2604D01*
X4031Y2606D01*
X4000Y2611D01*
X3963Y2622D01*
X3926Y2639D01*
X3905Y2650D01*
X3887Y2663D01*
X3868Y2676D01*
X3850Y2693D01*
X3848Y2694D01*
X3846Y2696D01*
X3840Y2702D01*
X3835Y2709D01*
X3827Y2720D01*
X3820Y2731D01*
X3811Y2744D01*
X3801Y2761D01*
X3792Y2778D01*
X3783Y2798D01*
X3776Y2819D01*
X3766Y2843D01*
X3753Y2894D01*
X3750Y2924D01*
X3746Y2954D01*
X3879Y2967D01*
Y2965D01*
Y2961D01*
X3881Y2956D01*
X3883Y2946D01*
X3887Y2924D01*
X3894Y2898D01*
X3903Y2868D01*
X3914Y2839D01*
X3929Y2809D01*
X3948Y2785D01*
X3950Y2783D01*
X3957Y2776D01*
X3970Y2767D01*
X3985Y2757D01*
X4003Y2746D01*
X4026Y2737D01*
X4050Y2730D01*
X4076Y2728D01*
X4079D01*
X4090Y2730D01*
X4107Y2731D01*
X4129Y2739D01*
X4153Y2748D01*
X4179Y2763D01*
X4205Y2783D01*
X4218Y2794D01*
X4231Y2809D01*
Y2811D01*
X4235Y2813D01*
X4237Y2819D01*
X4242Y2824D01*
X4251Y2843D01*
X4264Y2868D01*
X4277Y2902D01*
X4287Y2941D01*
X4294Y2985D01*
X4298Y3037D01*
Y3039D01*
Y3043D01*
Y3050D01*
X4296Y3059D01*
Y3070D01*
X4294Y3083D01*
X4290Y3115D01*
X4281Y3148D01*
X4270Y3183D01*
X4255Y3217D01*
X4233Y3246D01*
X4229Y3250D01*
X4222Y3257D01*
X4209Y3270D01*
X4190Y3285D01*
X4166Y3298D01*
X4140Y3311D01*
X4109Y3318D01*
X4076Y3322D01*
X4066D01*
X4055Y3320D01*
X4040Y3318D01*
X4024Y3315D01*
X4005Y3307D01*
X3987Y3300D01*
X3966Y3289D01*
X3964Y3287D01*
X3959Y3283D01*
X3950Y3276D01*
X3939Y3267D01*
X3926Y3254D01*
X3913Y3237D01*
X3900Y3218D01*
X3889Y3198D01*
X3768Y3218D01*
X3870Y3868D01*
X4383D01*
Y3720D01*
D02*
G37*
G36*
X3257Y3735D02*
X2915D01*
Y2620D01*
X2778D01*
Y3735D01*
X2437D01*
Y3885D01*
X3257D01*
Y3735D01*
D02*
G37*
G36*
X820Y3905D02*
X831D01*
X846Y3904D01*
X880Y3898D01*
X918Y3889D01*
X959Y3874D01*
X1004Y3855D01*
X1046Y3829D01*
X1048D01*
X1052Y3826D01*
X1057Y3822D01*
X1065Y3815D01*
X1085Y3798D01*
X1111Y3772D01*
X1141Y3741D01*
X1170Y3702D01*
X1200Y3655D01*
X1226Y3604D01*
Y3602D01*
X1230Y3596D01*
X1231Y3589D01*
X1237Y3578D01*
X1241Y3563D01*
X1246Y3546D01*
X1254Y3526D01*
X1259Y3504D01*
X1265Y3480D01*
X1272Y3452D01*
X1278Y3424D01*
X1281Y3393D01*
X1289Y3326D01*
X1292Y3252D01*
Y3248D01*
Y3239D01*
Y3224D01*
X1291Y3205D01*
X1289Y3181D01*
X1285Y3154D01*
X1281Y3122D01*
X1276Y3089D01*
X1270Y3054D01*
X1261Y3017D01*
X1252Y2978D01*
X1239Y2941D01*
X1224Y2902D01*
X1207Y2865D01*
X1187Y2828D01*
X1165Y2794D01*
X1163Y2793D01*
X1159Y2787D01*
X1150Y2776D01*
X1139Y2765D01*
X1126Y2750D01*
X1107Y2733D01*
X1089Y2715D01*
X1067Y2698D01*
X1041Y2680D01*
X1013Y2661D01*
X983Y2644D01*
X950Y2630D01*
X915Y2619D01*
X878Y2609D01*
X839Y2602D01*
X796Y2600D01*
X787D01*
X774Y2602D01*
X757Y2604D01*
X739Y2606D01*
X717Y2611D01*
X691Y2617D01*
X665Y2624D01*
X635Y2635D01*
X606Y2648D01*
X574Y2665D01*
X543Y2683D01*
X513Y2706D01*
X481Y2733D01*
X454Y2763D01*
X426Y2798D01*
X424Y2800D01*
X420Y2807D01*
X415Y2817D01*
X406Y2831D01*
X396Y2848D01*
X387Y2868D01*
X374Y2893D01*
X363Y2920D01*
X352Y2952D01*
X341Y2985D01*
X330Y3020D01*
X320Y3059D01*
X311Y3100D01*
X306Y3143D01*
X302Y3189D01*
X300Y3235D01*
Y3237D01*
Y3239D01*
Y3250D01*
X302Y3267D01*
Y3289D01*
X304Y3315D01*
X307Y3346D01*
X311Y3381D01*
X319Y3418D01*
X326Y3459D01*
X335Y3500D01*
X346Y3541D01*
X359Y3581D01*
X376Y3622D01*
X394Y3661D01*
X417Y3700D01*
X441Y3733D01*
X443Y3735D01*
X448Y3741D01*
X456Y3750D01*
X467Y3761D01*
X480Y3774D01*
X496Y3789D01*
X517Y3804D01*
X539Y3820D01*
X563Y3837D01*
X591Y3852D01*
X620Y3867D01*
X652Y3879D01*
X685Y3891D01*
X720Y3900D01*
X757Y3905D01*
X796Y3907D01*
X809D01*
X820Y3905D01*
D02*
G37*
G36*
X11824Y1441D02*
X11846Y1439D01*
X11872Y1433D01*
X11903Y1424D01*
X11935Y1409D01*
X11968Y1391D01*
X11998Y1365D01*
X12002Y1361D01*
X12011Y1350D01*
X12024Y1331D01*
X12040Y1307D01*
X12057Y1274D01*
X12074Y1233D01*
X12087Y1187D01*
X12098Y1131D01*
X11907Y1105D01*
Y1107D01*
Y1111D01*
X11905Y1118D01*
X11903Y1128D01*
X11898Y1150D01*
X11887Y1176D01*
X11874Y1200D01*
X11853Y1222D01*
X11840Y1231D01*
X11827Y1239D01*
X11811Y1242D01*
X11794Y1244D01*
X11792D01*
X11783Y1242D01*
X11772Y1241D01*
X11757Y1235D01*
X11740Y1228D01*
X11724Y1215D01*
X11705Y1198D01*
X11689Y1174D01*
X11687Y1170D01*
X11685Y1167D01*
X11681Y1159D01*
X11679Y1152D01*
X11674Y1141D01*
X11670Y1128D01*
X11666Y1113D01*
X11661Y1094D01*
X11657Y1074D01*
X11652Y1050D01*
X11648Y1024D01*
X11644Y996D01*
X11640Y965D01*
X11637Y930D01*
X11635Y891D01*
X11637Y892D01*
X11642Y900D01*
X11650Y909D01*
X11659Y920D01*
X11672Y933D01*
X11685Y946D01*
X11700Y959D01*
X11716Y970D01*
X11718Y972D01*
X11724Y974D01*
X11735Y980D01*
X11746Y985D01*
X11761Y989D01*
X11779Y994D01*
X11798Y996D01*
X11818Y998D01*
X11829D01*
X11839Y996D01*
X11850Y994D01*
X11861Y992D01*
X11890Y983D01*
X11922Y970D01*
X11940Y961D01*
X11957Y950D01*
X11976Y937D01*
X11992Y922D01*
X12011Y905D01*
X12027Y885D01*
X12029Y883D01*
X12031Y880D01*
X12037Y874D01*
X12042Y865D01*
X12048Y854D01*
X12057Y841D01*
X12064Y824D01*
X12074Y805D01*
X12081Y785D01*
X12090Y763D01*
X12098Y739D01*
X12103Y713D01*
X12111Y683D01*
X12114Y654D01*
X12116Y620D01*
X12118Y587D01*
Y585D01*
Y578D01*
Y568D01*
X12116Y555D01*
X12114Y539D01*
X12113Y518D01*
X12111Y498D01*
X12107Y474D01*
X12094Y426D01*
X12077Y374D01*
X12066Y348D01*
X12053Y324D01*
X12039Y300D01*
X12022Y278D01*
X12020Y276D01*
X12018Y272D01*
X12013Y267D01*
X12005Y261D01*
X11996Y252D01*
X11985Y243D01*
X11957Y222D01*
X11924Y202D01*
X11883Y183D01*
X11861Y178D01*
X11837Y172D01*
X11813Y169D01*
X11787Y167D01*
X11779D01*
X11772Y169D01*
X11761D01*
X11748Y170D01*
X11733Y174D01*
X11698Y185D01*
X11677Y193D01*
X11657Y202D01*
X11635Y213D01*
X11615Y228D01*
X11592Y244D01*
X11572Y263D01*
X11552Y285D01*
X11531Y311D01*
X11529Y313D01*
X11528Y318D01*
X11522Y328D01*
X11516Y339D01*
X11509Y356D01*
X11500Y376D01*
X11490Y398D01*
X11481Y426D01*
X11472Y457D01*
X11463Y494D01*
X11455Y533D01*
X11446Y578D01*
X11440Y626D01*
X11435Y678D01*
X11433Y735D01*
X11431Y796D01*
Y798D01*
Y800D01*
Y811D01*
Y830D01*
X11433Y852D01*
X11435Y881D01*
X11437Y913D01*
X11440Y948D01*
X11444Y987D01*
X11457Y1068D01*
X11476Y1150D01*
X11487Y1189D01*
X11502Y1226D01*
X11516Y1261D01*
X11535Y1291D01*
X11537Y1292D01*
X11540Y1298D01*
X11546Y1305D01*
X11553Y1315D01*
X11565Y1326D01*
X11578Y1339D01*
X11592Y1352D01*
X11609Y1367D01*
X11627Y1381D01*
X11648Y1394D01*
X11694Y1418D01*
X11720Y1428D01*
X11746Y1437D01*
X11776Y1441D01*
X11805Y1442D01*
X11816D01*
X11824Y1441D01*
D02*
G37*
G36*
X1734Y1457D02*
X1749Y1455D01*
X1766Y1454D01*
X1784Y1450D01*
X1804Y1444D01*
X1851Y1429D01*
X1875Y1420D01*
X1899Y1409D01*
X1923Y1394D01*
X1947Y1378D01*
X1971Y1359D01*
X1993Y1339D01*
X1995D01*
X1997Y1335D01*
X2001Y1329D01*
X2006Y1324D01*
X2014Y1315D01*
X2021Y1304D01*
X2030Y1291D01*
X2040Y1276D01*
X2049Y1259D01*
X2060Y1242D01*
X2069Y1222D01*
X2080Y1200D01*
X2090Y1174D01*
X2099Y1148D01*
X2108Y1120D01*
X2116Y1091D01*
X1910Y1031D01*
Y1033D01*
X1908Y1035D01*
Y1041D01*
X1906Y1048D01*
X1901Y1067D01*
X1893Y1089D01*
X1882Y1115D01*
X1867Y1141D01*
X1851Y1165D01*
X1830Y1187D01*
X1829Y1189D01*
X1821Y1196D01*
X1808Y1205D01*
X1791Y1215D01*
X1771Y1226D01*
X1749Y1233D01*
X1723Y1241D01*
X1693Y1242D01*
X1682D01*
X1675Y1241D01*
X1654Y1237D01*
X1629Y1230D01*
X1599Y1218D01*
X1567Y1200D01*
X1553Y1189D01*
X1538Y1176D01*
X1523Y1161D01*
X1508Y1142D01*
Y1141D01*
X1504Y1139D01*
X1503Y1131D01*
X1497Y1124D01*
X1492Y1113D01*
X1486Y1100D01*
X1480Y1083D01*
X1473Y1065D01*
X1466Y1044D01*
X1460Y1020D01*
X1454Y992D01*
X1449Y963D01*
X1445Y931D01*
X1442Y896D01*
X1438Y857D01*
Y817D01*
Y815D01*
Y805D01*
Y794D01*
X1440Y778D01*
Y759D01*
X1442Y737D01*
X1443Y713D01*
X1447Y687D01*
X1454Y631D01*
X1467Y576D01*
X1475Y550D01*
X1484Y524D01*
X1495Y502D01*
X1506Y481D01*
Y480D01*
X1510Y478D01*
X1519Y467D01*
X1534Y450D01*
X1556Y433D01*
X1582Y415D01*
X1612Y398D01*
X1649Y387D01*
X1667Y385D01*
X1688Y383D01*
X1691D01*
X1701Y385D01*
X1717Y387D01*
X1736Y391D01*
X1758Y398D01*
X1782Y409D01*
X1806Y426D01*
X1829Y446D01*
X1830Y450D01*
X1838Y459D01*
X1849Y474D01*
X1862Y496D01*
X1877Y524D01*
X1890Y559D01*
X1904Y600D01*
X1916Y650D01*
X2117Y572D01*
Y570D01*
X2116Y563D01*
X2112Y552D01*
X2108Y537D01*
X2103Y520D01*
X2097Y500D01*
X2090Y478D01*
X2080Y454D01*
X2058Y404D01*
X2030Y352D01*
X1999Y304D01*
X1980Y283D01*
X1960Y263D01*
X1958Y261D01*
X1954Y259D01*
X1949Y254D01*
X1940Y248D01*
X1930Y241D01*
X1917Y233D01*
X1903Y224D01*
X1886Y215D01*
X1867Y206D01*
X1847Y196D01*
X1801Y181D01*
X1749Y170D01*
X1721Y169D01*
X1691Y167D01*
X1682D01*
X1673Y169D01*
X1658D01*
X1641Y172D01*
X1621Y174D01*
X1599Y180D01*
X1575Y185D01*
X1549Y194D01*
X1523Y204D01*
X1497Y217D01*
X1469Y231D01*
X1442Y250D01*
X1416Y270D01*
X1390Y293D01*
X1366Y320D01*
X1364Y322D01*
X1360Y328D01*
X1353Y339D01*
X1343Y354D01*
X1332Y370D01*
X1321Y393D01*
X1308Y418D01*
X1295Y448D01*
X1280Y480D01*
X1267Y517D01*
X1256Y555D01*
X1245Y598D01*
X1236Y644D01*
X1229Y694D01*
X1225Y746D01*
X1223Y802D01*
Y804D01*
Y805D01*
Y817D01*
X1225Y833D01*
Y854D01*
X1227Y881D01*
X1230Y913D01*
X1236Y946D01*
X1242Y983D01*
X1249Y1024D01*
X1258Y1065D01*
X1269Y1105D01*
X1284Y1148D01*
X1301Y1189D01*
X1319Y1228D01*
X1342Y1267D01*
X1367Y1302D01*
X1369Y1304D01*
X1373Y1309D01*
X1380Y1317D01*
X1390Y1326D01*
X1403Y1339D01*
X1417Y1352D01*
X1436Y1367D01*
X1456Y1381D01*
X1479Y1394D01*
X1504Y1409D01*
X1532Y1422D01*
X1562Y1435D01*
X1595Y1444D01*
X1629Y1452D01*
X1666Y1457D01*
X1704Y1459D01*
X1721D01*
X1734Y1457D01*
D02*
G37*
G36*
X5837Y487D02*
Y485D01*
X5834Y480D01*
X5832Y470D01*
X5826Y459D01*
X5821Y444D01*
X5813Y428D01*
X5798Y391D01*
X5778Y350D01*
X5758Y311D01*
X5736Y274D01*
X5724Y257D01*
X5713Y243D01*
X5711Y239D01*
X5702Y231D01*
X5689Y220D01*
X5673Y207D01*
X5652Y194D01*
X5628Y183D01*
X5600Y176D01*
X5569Y172D01*
X5541D01*
X5521Y174D01*
X5498Y176D01*
X5474Y178D01*
X5426Y187D01*
Y374D01*
X5454D01*
X5480Y372D01*
X5515D01*
X5528Y374D01*
X5545Y376D01*
X5561Y380D01*
X5578Y385D01*
X5595Y393D01*
X5608Y402D01*
X5610Y404D01*
X5613Y409D01*
X5619Y417D01*
X5628Y431D01*
X5637Y450D01*
X5647Y472D01*
X5658Y502D01*
X5669Y539D01*
X5291Y1439D01*
X5523D01*
X5761Y789D01*
X5969Y1439D01*
X6184D01*
X5837Y487D01*
D02*
G37*
G36*
X8587Y1441D02*
X8598Y1439D01*
X8611Y1437D01*
X8644Y1429D01*
X8680Y1418D01*
X8717Y1400D01*
X8735Y1389D01*
X8754Y1376D01*
X8770Y1361D01*
X8787Y1342D01*
X8789Y1341D01*
X8791Y1339D01*
X8794Y1333D01*
X8800Y1326D01*
X8806Y1317D01*
X8813Y1305D01*
X8830Y1278D01*
X8844Y1244D01*
X8857Y1207D01*
X8867Y1167D01*
X8870Y1144D01*
Y1122D01*
Y1118D01*
Y1109D01*
X8869Y1092D01*
X8865Y1074D01*
X8861Y1050D01*
X8854Y1026D01*
X8844Y1000D01*
X8831Y974D01*
X8830Y970D01*
X8824Y963D01*
X8817Y952D01*
X8804Y935D01*
X8789Y918D01*
X8769Y898D01*
X8746Y878D01*
X8720Y859D01*
X8722D01*
X8724Y857D01*
X8735Y854D01*
X8750Y848D01*
X8770Y839D01*
X8793Y824D01*
X8815Y807D01*
X8837Y785D01*
X8859Y757D01*
X8861Y754D01*
X8869Y743D01*
X8878Y726D01*
X8887Y704D01*
X8898Y676D01*
X8906Y643D01*
X8913Y604D01*
X8915Y561D01*
Y559D01*
Y554D01*
Y544D01*
X8913Y533D01*
X8911Y518D01*
X8909Y502D01*
X8906Y483D01*
X8902Y461D01*
X8889Y417D01*
X8870Y370D01*
X8859Y346D01*
X8846Y322D01*
X8830Y300D01*
X8811Y278D01*
X8809Y276D01*
X8807Y272D01*
X8800Y267D01*
X8793Y261D01*
X8783Y252D01*
X8772Y243D01*
X8743Y222D01*
X8707Y202D01*
X8667Y183D01*
X8643Y178D01*
X8619Y172D01*
X8594Y169D01*
X8569Y167D01*
X8556D01*
X8546Y169D01*
X8535Y170D01*
X8520Y172D01*
X8489Y178D01*
X8454Y189D01*
X8415Y207D01*
X8394Y217D01*
X8376Y230D01*
X8357Y244D01*
X8339Y261D01*
X8337Y263D01*
X8335Y265D01*
X8330Y270D01*
X8324Y278D01*
X8317Y289D01*
X8309Y300D01*
X8300Y313D01*
X8291Y330D01*
X8282Y346D01*
X8272Y367D01*
X8263Y387D01*
X8254Y411D01*
X8241Y461D01*
X8232Y520D01*
X8422Y548D01*
Y546D01*
Y544D01*
X8424Y533D01*
X8426Y518D01*
X8432Y498D01*
X8437Y476D01*
X8446Y454D01*
X8457Y431D01*
X8470Y413D01*
X8472Y411D01*
X8478Y406D01*
X8487Y398D01*
X8498Y391D01*
X8511Y381D01*
X8528Y374D01*
X8546Y368D01*
X8567Y367D01*
X8578D01*
X8589Y370D01*
X8602Y374D01*
X8619Y380D01*
X8637Y389D01*
X8654Y402D01*
X8670Y420D01*
X8672Y422D01*
X8678Y431D01*
X8683Y443D01*
X8693Y461D01*
X8700Y481D01*
X8706Y509D01*
X8711Y539D01*
X8713Y574D01*
Y576D01*
Y578D01*
Y589D01*
X8711Y605D01*
X8707Y626D01*
X8704Y648D01*
X8696Y672D01*
X8685Y696D01*
X8672Y717D01*
X8670Y718D01*
X8665Y726D01*
X8656Y733D01*
X8644Y744D01*
X8630Y754D01*
X8613Y763D01*
X8594Y768D01*
X8574Y770D01*
X8559D01*
X8550Y768D01*
X8537Y767D01*
X8520Y763D01*
X8504Y757D01*
X8485Y752D01*
X8506Y948D01*
X8519D01*
X8533Y950D01*
X8550Y952D01*
X8570Y957D01*
X8591Y963D01*
X8609Y974D01*
X8628Y987D01*
X8630Y989D01*
X8635Y994D01*
X8643Y1005D01*
X8650Y1018D01*
X8657Y1035D01*
X8665Y1055D01*
X8670Y1080D01*
X8672Y1107D01*
Y1111D01*
Y1118D01*
X8670Y1130D01*
X8669Y1144D01*
X8665Y1159D01*
X8657Y1176D01*
X8650Y1192D01*
X8639Y1207D01*
X8637Y1209D01*
X8633Y1213D01*
X8626Y1218D01*
X8617Y1226D01*
X8606Y1233D01*
X8591Y1239D01*
X8574Y1242D01*
X8556Y1244D01*
X8548D01*
X8537Y1242D01*
X8526Y1239D01*
X8513Y1233D01*
X8498Y1226D01*
X8483Y1217D01*
X8469Y1202D01*
X8467Y1200D01*
X8463Y1194D01*
X8457Y1183D01*
X8450Y1170D01*
X8443Y1154D01*
X8435Y1131D01*
X8430Y1107D01*
X8426Y1078D01*
X8245Y1115D01*
Y1117D01*
X8246Y1122D01*
X8248Y1131D01*
X8250Y1142D01*
X8254Y1157D01*
X8257Y1172D01*
X8269Y1209D01*
X8283Y1250D01*
X8302Y1291D01*
X8326Y1329D01*
X8339Y1348D01*
X8354Y1363D01*
X8356Y1365D01*
X8357Y1367D01*
X8369Y1376D01*
X8387Y1389D01*
X8411Y1404D01*
X8441Y1417D01*
X8478Y1429D01*
X8519Y1439D01*
X8541Y1442D01*
X8576D01*
X8587Y1441D01*
D02*
G37*
G36*
X7789Y1441D02*
X7800Y1439D01*
X7813Y1437D01*
X7846Y1429D01*
X7882Y1418D01*
X7919Y1400D01*
X7937Y1389D01*
X7956Y1376D01*
X7972Y1361D01*
X7989Y1342D01*
X7991Y1341D01*
X7993Y1339D01*
X7996Y1333D01*
X8002Y1326D01*
X8007Y1317D01*
X8015Y1305D01*
X8032Y1278D01*
X8046Y1244D01*
X8059Y1207D01*
X8069Y1167D01*
X8072Y1144D01*
Y1122D01*
Y1118D01*
Y1109D01*
X8070Y1092D01*
X8067Y1074D01*
X8063Y1050D01*
X8056Y1026D01*
X8046Y1000D01*
X8033Y974D01*
X8032Y970D01*
X8026Y963D01*
X8019Y952D01*
X8006Y935D01*
X7991Y918D01*
X7970Y898D01*
X7948Y878D01*
X7922Y859D01*
X7924D01*
X7926Y857D01*
X7937Y854D01*
X7952Y848D01*
X7972Y839D01*
X7995Y824D01*
X8017Y807D01*
X8039Y785D01*
X8061Y757D01*
X8063Y754D01*
X8070Y743D01*
X8080Y726D01*
X8089Y704D01*
X8100Y676D01*
X8107Y643D01*
X8115Y604D01*
X8117Y561D01*
Y559D01*
Y554D01*
Y544D01*
X8115Y533D01*
X8113Y518D01*
X8111Y502D01*
X8107Y483D01*
X8104Y461D01*
X8091Y417D01*
X8072Y370D01*
X8061Y346D01*
X8048Y322D01*
X8032Y300D01*
X8013Y278D01*
X8011Y276D01*
X8009Y272D01*
X8002Y267D01*
X7995Y261D01*
X7985Y252D01*
X7974Y243D01*
X7945Y222D01*
X7909Y202D01*
X7869Y183D01*
X7845Y178D01*
X7820Y172D01*
X7796Y169D01*
X7770Y167D01*
X7758D01*
X7748Y169D01*
X7737Y170D01*
X7722Y172D01*
X7691Y178D01*
X7656Y189D01*
X7617Y207D01*
X7596Y217D01*
X7578Y230D01*
X7559Y244D01*
X7541Y261D01*
X7539Y263D01*
X7537Y265D01*
X7532Y270D01*
X7526Y278D01*
X7519Y289D01*
X7511Y300D01*
X7502Y313D01*
X7493Y330D01*
X7483Y346D01*
X7474Y367D01*
X7465Y387D01*
X7456Y411D01*
X7443Y461D01*
X7433Y520D01*
X7624Y548D01*
Y546D01*
Y544D01*
X7626Y533D01*
X7628Y518D01*
X7633Y498D01*
X7639Y476D01*
X7648Y454D01*
X7659Y431D01*
X7672Y413D01*
X7674Y411D01*
X7680Y406D01*
X7689Y398D01*
X7700Y391D01*
X7713Y381D01*
X7730Y374D01*
X7748Y368D01*
X7769Y367D01*
X7780D01*
X7791Y370D01*
X7804Y374D01*
X7820Y380D01*
X7839Y389D01*
X7856Y402D01*
X7872Y420D01*
X7874Y422D01*
X7880Y431D01*
X7885Y443D01*
X7895Y461D01*
X7902Y481D01*
X7908Y509D01*
X7913Y539D01*
X7915Y574D01*
Y576D01*
Y578D01*
Y589D01*
X7913Y605D01*
X7909Y626D01*
X7906Y648D01*
X7898Y672D01*
X7887Y696D01*
X7874Y717D01*
X7872Y718D01*
X7867Y726D01*
X7858Y733D01*
X7846Y744D01*
X7832Y754D01*
X7815Y763D01*
X7796Y768D01*
X7776Y770D01*
X7761D01*
X7752Y768D01*
X7739Y767D01*
X7722Y763D01*
X7706Y757D01*
X7687Y752D01*
X7708Y948D01*
X7720D01*
X7735Y950D01*
X7752Y952D01*
X7772Y957D01*
X7793Y963D01*
X7811Y974D01*
X7830Y987D01*
X7832Y989D01*
X7837Y994D01*
X7845Y1005D01*
X7852Y1018D01*
X7859Y1035D01*
X7867Y1055D01*
X7872Y1080D01*
X7874Y1107D01*
Y1111D01*
Y1118D01*
X7872Y1130D01*
X7870Y1144D01*
X7867Y1159D01*
X7859Y1176D01*
X7852Y1192D01*
X7841Y1207D01*
X7839Y1209D01*
X7835Y1213D01*
X7828Y1218D01*
X7819Y1226D01*
X7808Y1233D01*
X7793Y1239D01*
X7776Y1242D01*
X7758Y1244D01*
X7750D01*
X7739Y1242D01*
X7728Y1239D01*
X7715Y1233D01*
X7700Y1226D01*
X7685Y1217D01*
X7670Y1202D01*
X7669Y1200D01*
X7665Y1194D01*
X7659Y1183D01*
X7652Y1170D01*
X7645Y1154D01*
X7637Y1131D01*
X7632Y1107D01*
X7628Y1078D01*
X7446Y1115D01*
Y1117D01*
X7448Y1122D01*
X7450Y1131D01*
X7452Y1142D01*
X7456Y1157D01*
X7459Y1172D01*
X7471Y1209D01*
X7485Y1250D01*
X7504Y1291D01*
X7528Y1329D01*
X7541Y1348D01*
X7556Y1363D01*
X7558Y1365D01*
X7559Y1367D01*
X7571Y1376D01*
X7589Y1389D01*
X7613Y1404D01*
X7643Y1417D01*
X7680Y1429D01*
X7720Y1439D01*
X7743Y1442D01*
X7778D01*
X7789Y1441D01*
D02*
G37*
G36*
X6991D02*
X7002Y1439D01*
X7015Y1437D01*
X7048Y1429D01*
X7084Y1418D01*
X7121Y1400D01*
X7139Y1389D01*
X7158Y1376D01*
X7174Y1361D01*
X7191Y1342D01*
X7193Y1341D01*
X7195Y1339D01*
X7198Y1333D01*
X7204Y1326D01*
X7209Y1317D01*
X7217Y1305D01*
X7234Y1278D01*
X7248Y1244D01*
X7261Y1207D01*
X7271Y1167D01*
X7274Y1144D01*
Y1122D01*
Y1118D01*
Y1109D01*
X7272Y1092D01*
X7269Y1074D01*
X7265Y1050D01*
X7258Y1026D01*
X7248Y1000D01*
X7235Y974D01*
X7234Y970D01*
X7228Y963D01*
X7221Y952D01*
X7208Y935D01*
X7193Y918D01*
X7172Y898D01*
X7150Y878D01*
X7124Y859D01*
X7126D01*
X7128Y857D01*
X7139Y854D01*
X7154Y848D01*
X7174Y839D01*
X7196Y824D01*
X7219Y807D01*
X7241Y785D01*
X7263Y757D01*
X7265Y754D01*
X7272Y743D01*
X7282Y726D01*
X7291Y704D01*
X7302Y676D01*
X7309Y643D01*
X7317Y604D01*
X7319Y561D01*
Y559D01*
Y554D01*
Y544D01*
X7317Y533D01*
X7315Y518D01*
X7313Y502D01*
X7309Y483D01*
X7306Y461D01*
X7293Y417D01*
X7274Y370D01*
X7263Y346D01*
X7250Y322D01*
X7234Y300D01*
X7215Y278D01*
X7213Y276D01*
X7211Y272D01*
X7204Y267D01*
X7196Y261D01*
X7187Y252D01*
X7176Y243D01*
X7146Y222D01*
X7111Y202D01*
X7071Y183D01*
X7046Y178D01*
X7022Y172D01*
X6998Y169D01*
X6972Y167D01*
X6959D01*
X6950Y169D01*
X6939Y170D01*
X6924Y172D01*
X6893Y178D01*
X6858Y189D01*
X6819Y207D01*
X6798Y217D01*
X6780Y230D01*
X6761Y244D01*
X6743Y261D01*
X6741Y263D01*
X6739Y265D01*
X6734Y270D01*
X6728Y278D01*
X6721Y289D01*
X6713Y300D01*
X6704Y313D01*
X6695Y330D01*
X6685Y346D01*
X6676Y367D01*
X6667Y387D01*
X6658Y411D01*
X6645Y461D01*
X6635Y520D01*
X6826Y548D01*
Y546D01*
Y544D01*
X6828Y533D01*
X6830Y518D01*
X6835Y498D01*
X6841Y476D01*
X6850Y454D01*
X6861Y431D01*
X6874Y413D01*
X6876Y411D01*
X6882Y406D01*
X6891Y398D01*
X6902Y391D01*
X6915Y381D01*
X6932Y374D01*
X6950Y368D01*
X6971Y367D01*
X6982D01*
X6993Y370D01*
X7006Y374D01*
X7022Y380D01*
X7041Y389D01*
X7058Y402D01*
X7074Y420D01*
X7076Y422D01*
X7082Y431D01*
X7087Y443D01*
X7096Y461D01*
X7104Y481D01*
X7109Y509D01*
X7115Y539D01*
X7117Y574D01*
Y576D01*
Y578D01*
Y589D01*
X7115Y605D01*
X7111Y626D01*
X7108Y648D01*
X7100Y672D01*
X7089Y696D01*
X7076Y717D01*
X7074Y718D01*
X7069Y726D01*
X7059Y733D01*
X7048Y744D01*
X7034Y754D01*
X7017Y763D01*
X6998Y768D01*
X6978Y770D01*
X6963D01*
X6954Y768D01*
X6941Y767D01*
X6924Y763D01*
X6908Y757D01*
X6889Y752D01*
X6909Y948D01*
X6922D01*
X6937Y950D01*
X6954Y952D01*
X6974Y957D01*
X6995Y963D01*
X7013Y974D01*
X7032Y987D01*
X7034Y989D01*
X7039Y994D01*
X7046Y1005D01*
X7054Y1018D01*
X7061Y1035D01*
X7069Y1055D01*
X7074Y1080D01*
X7076Y1107D01*
Y1111D01*
Y1118D01*
X7074Y1130D01*
X7072Y1144D01*
X7069Y1159D01*
X7061Y1176D01*
X7054Y1192D01*
X7043Y1207D01*
X7041Y1209D01*
X7037Y1213D01*
X7030Y1218D01*
X7021Y1226D01*
X7009Y1233D01*
X6995Y1239D01*
X6978Y1242D01*
X6959Y1244D01*
X6952D01*
X6941Y1242D01*
X6930Y1239D01*
X6917Y1233D01*
X6902Y1226D01*
X6887Y1217D01*
X6872Y1202D01*
X6871Y1200D01*
X6867Y1194D01*
X6861Y1183D01*
X6854Y1170D01*
X6847Y1154D01*
X6839Y1131D01*
X6834Y1107D01*
X6830Y1078D01*
X6648Y1115D01*
Y1117D01*
X6650Y1122D01*
X6652Y1131D01*
X6654Y1142D01*
X6658Y1157D01*
X6661Y1172D01*
X6672Y1209D01*
X6687Y1250D01*
X6706Y1291D01*
X6730Y1329D01*
X6743Y1348D01*
X6758Y1363D01*
X6759Y1365D01*
X6761Y1367D01*
X6772Y1376D01*
X6791Y1389D01*
X6815Y1404D01*
X6845Y1417D01*
X6882Y1429D01*
X6922Y1439D01*
X6945Y1442D01*
X6980D01*
X6991Y1441D01*
D02*
G37*
G36*
X10481Y1198D02*
X10111D01*
X10078Y983D01*
X10081Y985D01*
X10089Y991D01*
X10102Y996D01*
X10120Y1005D01*
X10141Y1013D01*
X10163Y1018D01*
X10187Y1024D01*
X10213Y1026D01*
X10224D01*
X10233Y1024D01*
X10244Y1022D01*
X10255Y1020D01*
X10285Y1015D01*
X10317Y1002D01*
X10352Y985D01*
X10370Y974D01*
X10387Y961D01*
X10404Y946D01*
X10420Y930D01*
X10422Y928D01*
X10426Y924D01*
X10429Y917D01*
X10437Y907D01*
X10444Y894D01*
X10454Y880D01*
X10465Y863D01*
X10474Y844D01*
X10483Y822D01*
X10494Y798D01*
X10504Y770D01*
X10511Y743D01*
X10518Y711D01*
X10524Y680D01*
X10526Y644D01*
X10528Y607D01*
Y605D01*
Y600D01*
Y591D01*
X10526Y580D01*
Y565D01*
X10522Y548D01*
X10520Y530D01*
X10517Y507D01*
X10505Y461D01*
X10489Y409D01*
X10478Y383D01*
X10467Y357D01*
X10452Y330D01*
X10435Y304D01*
X10433Y302D01*
X10431Y298D01*
X10426Y291D01*
X10418Y281D01*
X10409Y272D01*
X10398Y261D01*
X10383Y248D01*
X10368Y235D01*
X10352Y222D01*
X10331Y209D01*
X10311Y198D01*
X10287Y189D01*
X10263Y180D01*
X10235Y172D01*
X10207Y169D01*
X10176Y167D01*
X10163D01*
X10154Y169D01*
X10142D01*
X10128Y172D01*
X10096Y178D01*
X10061Y189D01*
X10022Y204D01*
X9985Y226D01*
X9967Y241D01*
X9948Y256D01*
X9946Y257D01*
X9944Y259D01*
X9939Y265D01*
X9933Y272D01*
X9926Y281D01*
X9918Y293D01*
X9909Y306D01*
X9900Y320D01*
X9891Y337D01*
X9881Y357D01*
X9872Y378D01*
X9863Y400D01*
X9855Y424D01*
X9848Y452D01*
X9839Y509D01*
X10035Y535D01*
Y531D01*
X10037Y522D01*
X10041Y506D01*
X10044Y487D01*
X10050Y467D01*
X10059Y446D01*
X10070Y424D01*
X10085Y406D01*
X10087Y404D01*
X10092Y398D01*
X10102Y391D01*
X10113Y383D01*
X10126Y374D01*
X10142Y367D01*
X10159Y361D01*
X10178Y359D01*
X10179D01*
X10189Y361D01*
X10200Y363D01*
X10213Y367D01*
X10229Y374D01*
X10248Y385D01*
X10265Y398D01*
X10281Y418D01*
X10283Y422D01*
X10289Y430D01*
X10296Y444D01*
X10304Y463D01*
X10311Y489D01*
X10318Y520D01*
X10324Y559D01*
X10326Y602D01*
Y604D01*
Y607D01*
Y613D01*
Y622D01*
X10324Y643D01*
X10320Y668D01*
X10315Y696D01*
X10307Y726D01*
X10296Y752D01*
X10281Y776D01*
X10279Y778D01*
X10274Y785D01*
X10265Y794D01*
X10252Y805D01*
X10237Y815D01*
X10217Y824D01*
X10196Y831D01*
X10172Y833D01*
X10168D01*
X10157Y831D01*
X10142Y828D01*
X10122Y822D01*
X10098Y811D01*
X10072Y794D01*
X10059Y785D01*
X10046Y772D01*
X10033Y759D01*
X10020Y743D01*
X9861Y770D01*
X9961Y1422D01*
X10481D01*
Y1198D01*
D02*
G37*
G36*
X14896Y1246D02*
Y1244D01*
X14892Y1242D01*
X14888Y1235D01*
X14881Y1228D01*
X14873Y1217D01*
X14864Y1205D01*
X14855Y1191D01*
X14844Y1174D01*
X14831Y1154D01*
X14818Y1133D01*
X14805Y1109D01*
X14790Y1085D01*
X14775Y1057D01*
X14759Y1028D01*
X14744Y996D01*
X14727Y963D01*
Y961D01*
X14723Y955D01*
X14720Y944D01*
X14712Y931D01*
X14707Y915D01*
X14698Y894D01*
X14688Y870D01*
X14679Y844D01*
X14668Y817D01*
X14657Y787D01*
X14648Y754D01*
X14636Y718D01*
X14614Y646D01*
X14596Y568D01*
Y567D01*
X14594Y559D01*
X14592Y548D01*
X14588Y533D01*
X14585Y515D01*
X14581Y493D01*
X14577Y468D01*
X14573Y443D01*
X14568Y413D01*
X14564Y383D01*
X14557Y318D01*
X14551Y252D01*
X14549Y187D01*
X14361D01*
Y191D01*
Y198D01*
X14362Y213D01*
Y233D01*
X14364Y257D01*
X14366Y285D01*
X14370Y318D01*
X14374Y354D01*
X14379Y393D01*
X14385Y433D01*
X14392Y478D01*
X14399Y524D01*
X14420Y620D01*
X14448Y718D01*
X14449Y722D01*
X14451Y730D01*
X14457Y744D01*
X14462Y763D01*
X14472Y787D01*
X14481Y815D01*
X14494Y844D01*
X14507Y880D01*
X14522Y915D01*
X14538Y954D01*
X14577Y1033D01*
X14620Y1118D01*
X14670Y1200D01*
X14224D01*
Y1422D01*
X14896D01*
Y1246D01*
D02*
G37*
G36*
X13931Y187D02*
X13733D01*
Y1092D01*
X13731Y1091D01*
X13727Y1087D01*
X13722Y1081D01*
X13712Y1072D01*
X13703Y1063D01*
X13690Y1050D01*
X13675Y1037D01*
X13659Y1024D01*
X13622Y994D01*
X13579Y963D01*
X13529Y935D01*
X13477Y911D01*
Y1130D01*
X13479D01*
X13481Y1131D01*
X13492Y1135D01*
X13507Y1144D01*
X13529Y1155D01*
X13555Y1172D01*
X13583Y1192D01*
X13614Y1217D01*
X13648Y1246D01*
X13650Y1248D01*
X13651Y1250D01*
X13662Y1261D01*
X13677Y1280D01*
X13696Y1304D01*
X13716Y1331D01*
X13737Y1365D01*
X13755Y1402D01*
X13770Y1442D01*
X13931D01*
Y187D01*
D02*
G37*
G36*
X12466D02*
X12270D01*
Y428D01*
X12466D01*
Y187D01*
D02*
G37*
G36*
X9543D02*
X9344D01*
Y1092D01*
X9343Y1091D01*
X9339Y1087D01*
X9333Y1081D01*
X9324Y1072D01*
X9315Y1063D01*
X9302Y1050D01*
X9287Y1037D01*
X9270Y1024D01*
X9233Y994D01*
X9191Y963D01*
X9141Y935D01*
X9089Y911D01*
Y1130D01*
X9091D01*
X9093Y1131D01*
X9104Y1135D01*
X9118Y1144D01*
X9141Y1155D01*
X9167Y1172D01*
X9194Y1192D01*
X9226Y1217D01*
X9259Y1246D01*
X9261Y1248D01*
X9263Y1250D01*
X9274Y1261D01*
X9289Y1280D01*
X9307Y1304D01*
X9328Y1331D01*
X9348Y1365D01*
X9367Y1402D01*
X9381Y1442D01*
X9543D01*
Y187D01*
D02*
G37*
G36*
X6482Y187D02*
X6285D01*
Y428D01*
X6482D01*
Y187D01*
D02*
G37*
G36*
X5184D02*
X4976D01*
Y1228D01*
X4571D01*
Y187D01*
X4363D01*
Y1439D01*
X5184D01*
Y187D01*
D02*
G37*
G36*
X4104Y1228D02*
X3543D01*
Y941D01*
X3852D01*
X3863Y939D01*
X3876Y937D01*
X3893Y935D01*
X3930Y928D01*
X3973Y915D01*
X4015Y896D01*
X4038Y885D01*
X4058Y872D01*
X4078Y855D01*
X4097Y837D01*
X4099Y835D01*
X4101Y831D01*
X4106Y826D01*
X4112Y818D01*
X4119Y807D01*
X4126Y794D01*
X4136Y780D01*
X4145Y763D01*
X4154Y744D01*
X4163Y724D01*
X4171Y702D01*
X4178Y678D01*
X4189Y622D01*
X4191Y593D01*
X4193Y561D01*
Y559D01*
Y554D01*
Y546D01*
X4191Y537D01*
Y524D01*
X4189Y509D01*
X4186Y491D01*
X4184Y472D01*
X4173Y431D01*
X4158Y389D01*
X4139Y344D01*
X4126Y322D01*
X4112Y300D01*
Y298D01*
X4108Y294D01*
X4102Y289D01*
X4097Y283D01*
X4088Y274D01*
X4076Y265D01*
X4062Y254D01*
X4047Y244D01*
X4028Y233D01*
X4008Y222D01*
X3986Y213D01*
X3962Y206D01*
X3934Y198D01*
X3904Y193D01*
X3871Y189D01*
X3836Y187D01*
X3336D01*
Y1439D01*
X4104D01*
Y1228D01*
D02*
G37*
G36*
X3117Y187D02*
X2910D01*
Y1228D01*
X2504D01*
Y187D01*
X2297D01*
Y1439D01*
X3117D01*
Y187D01*
D02*
G37*
G36*
X12983Y1441D02*
X12996Y1439D01*
X13011Y1435D01*
X13046Y1424D01*
X13064Y1417D01*
X13085Y1407D01*
X13103Y1396D01*
X13124Y1383D01*
X13144Y1367D01*
X13164Y1346D01*
X13183Y1326D01*
X13201Y1300D01*
X13203Y1298D01*
X13205Y1292D01*
X13211Y1285D01*
X13216Y1272D01*
X13224Y1255D01*
X13231Y1237D01*
X13238Y1213D01*
X13248Y1185D01*
X13257Y1152D01*
X13264Y1117D01*
X13272Y1076D01*
X13279Y1030D01*
X13285Y981D01*
X13290Y926D01*
X13292Y868D01*
X13294Y804D01*
Y802D01*
Y800D01*
Y794D01*
Y789D01*
Y770D01*
X13292Y746D01*
Y717D01*
X13288Y685D01*
X13287Y648D01*
X13283Y609D01*
X13272Y528D01*
X13255Y444D01*
X13244Y406D01*
X13233Y370D01*
X13218Y337D01*
X13201Y307D01*
X13200Y306D01*
X13198Y302D01*
X13192Y294D01*
X13185Y285D01*
X13175Y274D01*
X13164Y263D01*
X13137Y237D01*
X13101Y211D01*
X13061Y189D01*
X13038Y180D01*
X13014Y172D01*
X12988Y169D01*
X12961Y167D01*
X12953D01*
X12946Y169D01*
X12937D01*
X12924Y170D01*
X12909Y174D01*
X12874Y183D01*
X12855Y191D01*
X12835Y200D01*
X12816Y211D01*
X12796Y226D01*
X12776Y241D01*
X12755Y259D01*
X12737Y281D01*
X12718Y306D01*
X12716Y307D01*
X12714Y313D01*
X12711Y320D01*
X12703Y333D01*
X12698Y350D01*
X12690Y368D01*
X12681Y393D01*
X12674Y420D01*
X12664Y454D01*
X12657Y489D01*
X12648Y530D01*
X12642Y576D01*
X12637Y626D01*
X12631Y681D01*
X12629Y741D01*
X12627Y805D01*
Y807D01*
Y809D01*
Y815D01*
Y820D01*
Y839D01*
X12629Y863D01*
X12631Y891D01*
X12633Y924D01*
X12635Y961D01*
X12639Y1000D01*
X12650Y1081D01*
X12666Y1163D01*
X12676Y1202D01*
X12689Y1237D01*
X12701Y1270D01*
X12718Y1300D01*
X12720Y1302D01*
X12722Y1305D01*
X12727Y1313D01*
X12735Y1322D01*
X12744Y1333D01*
X12755Y1344D01*
X12783Y1372D01*
X12818Y1398D01*
X12859Y1420D01*
X12881Y1429D01*
X12905Y1437D01*
X12931Y1441D01*
X12959Y1442D01*
X12974D01*
X12983Y1441D01*
D02*
G37*
G36*
X10989D02*
X11002Y1439D01*
X11016Y1435D01*
X11052Y1424D01*
X11070Y1417D01*
X11091Y1407D01*
X11109Y1396D01*
X11129Y1383D01*
X11150Y1367D01*
X11170Y1346D01*
X11189Y1326D01*
X11207Y1300D01*
X11209Y1298D01*
X11211Y1292D01*
X11216Y1285D01*
X11222Y1272D01*
X11229Y1255D01*
X11237Y1237D01*
X11244Y1213D01*
X11253Y1185D01*
X11263Y1152D01*
X11270Y1117D01*
X11278Y1076D01*
X11285Y1030D01*
X11290Y981D01*
X11296Y926D01*
X11298Y868D01*
X11300Y804D01*
Y802D01*
Y800D01*
Y794D01*
Y789D01*
Y770D01*
X11298Y746D01*
Y717D01*
X11294Y685D01*
X11292Y648D01*
X11289Y609D01*
X11278Y528D01*
X11261Y444D01*
X11250Y406D01*
X11239Y370D01*
X11224Y337D01*
X11207Y307D01*
X11205Y306D01*
X11203Y302D01*
X11198Y294D01*
X11191Y285D01*
X11181Y274D01*
X11170Y263D01*
X11142Y237D01*
X11107Y211D01*
X11066Y189D01*
X11044Y180D01*
X11020Y172D01*
X10994Y169D01*
X10966Y167D01*
X10959D01*
X10952Y169D01*
X10942D01*
X10929Y170D01*
X10915Y174D01*
X10879Y183D01*
X10861Y191D01*
X10841Y200D01*
X10822Y211D01*
X10802Y226D01*
X10781Y241D01*
X10761Y259D01*
X10742Y281D01*
X10724Y306D01*
X10722Y307D01*
X10720Y313D01*
X10716Y320D01*
X10709Y333D01*
X10704Y350D01*
X10696Y368D01*
X10687Y393D01*
X10679Y420D01*
X10670Y454D01*
X10663Y489D01*
X10654Y530D01*
X10648Y576D01*
X10642Y626D01*
X10637Y681D01*
X10635Y741D01*
X10633Y805D01*
Y807D01*
Y809D01*
Y815D01*
Y820D01*
Y839D01*
X10635Y863D01*
X10637Y891D01*
X10639Y924D01*
X10641Y961D01*
X10644Y1000D01*
X10655Y1081D01*
X10672Y1163D01*
X10681Y1202D01*
X10694Y1237D01*
X10707Y1270D01*
X10724Y1300D01*
X10726Y1302D01*
X10728Y1305D01*
X10733Y1313D01*
X10741Y1322D01*
X10750Y1333D01*
X10761Y1344D01*
X10789Y1372D01*
X10824Y1398D01*
X10865Y1420D01*
X10887Y1429D01*
X10911Y1437D01*
X10937Y1441D01*
X10965Y1442D01*
X10979D01*
X10989Y1441D01*
D02*
G37*
G36*
X44042Y2444D02*
X43900D01*
X43357Y3438D01*
Y2444D01*
X43226D01*
Y3708D01*
X43365D01*
X43911Y2710D01*
Y3708D01*
X44042D01*
Y2444D01*
D02*
G37*
G36*
X42991D02*
X42854D01*
Y3708D01*
X42991D01*
Y2444D01*
D02*
G37*
G36*
X44285Y2189D02*
X44294D01*
X44307Y2187D01*
X44333Y2181D01*
X44364Y2170D01*
X44398Y2155D01*
X44431Y2137D01*
X44448Y2124D01*
X44463Y2109D01*
X44464D01*
X44466Y2105D01*
X44470Y2100D01*
X44476Y2094D01*
X44489Y2076D01*
X44505Y2050D01*
X44522Y2017D01*
X44539Y1976D01*
X44551Y1930D01*
X44561Y1876D01*
X44435Y1863D01*
Y1865D01*
Y1867D01*
X44431Y1880D01*
X44427Y1896D01*
X44422Y1917D01*
X44414Y1939D01*
X44405Y1963D01*
X44394Y1983D01*
X44381Y2002D01*
X44379Y2004D01*
X44372Y2011D01*
X44361Y2020D01*
X44346Y2033D01*
X44327Y2044D01*
X44307Y2054D01*
X44283Y2061D01*
X44257Y2063D01*
X44246D01*
X44239Y2061D01*
X44218Y2055D01*
X44194Y2046D01*
X44179Y2039D01*
X44165Y2030D01*
X44150Y2018D01*
X44135Y2004D01*
X44120Y1989D01*
X44105Y1970D01*
X44092Y1948D01*
X44079Y1924D01*
Y1922D01*
X44077Y1918D01*
X44074Y1911D01*
X44070Y1902D01*
X44066Y1889D01*
X44061Y1874D01*
X44055Y1855D01*
X44050Y1835D01*
X44044Y1813D01*
X44039Y1787D01*
X44033Y1757D01*
X44029Y1726D01*
X44026Y1691D01*
X44022Y1654D01*
X44020Y1615D01*
Y1574D01*
X44022Y1576D01*
X44027Y1585D01*
X44037Y1600D01*
X44050Y1618D01*
X44066Y1639D01*
X44085Y1659D01*
X44105Y1680D01*
X44129Y1696D01*
X44133Y1698D01*
X44140Y1704D01*
X44155Y1711D01*
X44172Y1718D01*
X44194Y1726D01*
X44218Y1733D01*
X44244Y1739D01*
X44272Y1741D01*
X44283D01*
X44292Y1739D01*
X44303Y1737D01*
X44316Y1735D01*
X44344Y1726D01*
X44377Y1713D01*
X44396Y1704D01*
X44414Y1693D01*
X44433Y1680D01*
X44451Y1665D01*
X44468Y1648D01*
X44487Y1628D01*
X44489Y1626D01*
X44490Y1622D01*
X44496Y1617D01*
X44501Y1607D01*
X44509Y1596D01*
X44516Y1583D01*
X44524Y1567D01*
X44533Y1548D01*
X44542Y1528D01*
X44550Y1505D01*
X44557Y1481D01*
X44564Y1456D01*
X44570Y1426D01*
X44576Y1396D01*
X44577Y1363D01*
X44579Y1330D01*
Y1328D01*
Y1324D01*
Y1317D01*
Y1309D01*
X44577Y1298D01*
Y1285D01*
X44574Y1254D01*
X44568Y1218D01*
X44559Y1180D01*
X44548Y1139D01*
X44533Y1100D01*
Y1098D01*
X44531Y1096D01*
X44527Y1091D01*
X44526Y1083D01*
X44514Y1065D01*
X44501Y1043D01*
X44483Y1019D01*
X44463Y993D01*
X44439Y969D01*
X44413Y948D01*
X44409Y946D01*
X44400Y941D01*
X44385Y933D01*
X44366Y924D01*
X44342Y915D01*
X44314Y907D01*
X44285Y902D01*
X44253Y900D01*
X44246D01*
X44239Y902D01*
X44227D01*
X44214Y904D01*
X44198Y907D01*
X44163Y919D01*
X44142Y926D01*
X44120Y935D01*
X44100Y946D01*
X44077Y959D01*
X44055Y976D01*
X44035Y994D01*
X44015Y1017D01*
X43994Y1041D01*
X43992Y1043D01*
X43990Y1048D01*
X43985Y1056D01*
X43979Y1069D01*
X43972Y1083D01*
X43963Y1104D01*
X43953Y1126D01*
X43944Y1152D01*
X43935Y1183D01*
X43926Y1218D01*
X43918Y1257D01*
X43909Y1300D01*
X43903Y1346D01*
X43898Y1398D01*
X43896Y1454D01*
X43894Y1513D01*
Y1515D01*
Y1517D01*
Y1522D01*
Y1530D01*
Y1548D01*
X43896Y1572D01*
X43898Y1602D01*
X43900Y1637D01*
X43903Y1674D01*
X43907Y1715D01*
X43920Y1800D01*
X43939Y1887D01*
X43950Y1928D01*
X43965Y1967D01*
X43979Y2002D01*
X43998Y2033D01*
X44000Y2035D01*
X44003Y2041D01*
X44009Y2048D01*
X44016Y2057D01*
X44027Y2070D01*
X44039Y2083D01*
X44053Y2098D01*
X44070Y2113D01*
X44089Y2126D01*
X44109Y2141D01*
X44153Y2167D01*
X44179Y2176D01*
X44207Y2183D01*
X44235Y2189D01*
X44264Y2191D01*
X44276D01*
X44285Y2189D01*
D02*
G37*
G36*
X42992Y1300D02*
X42602D01*
Y1456D01*
X42992D01*
Y1300D01*
D02*
G37*
G36*
X45198Y920D02*
X45055D01*
X44653Y2185D01*
X44803D01*
X45074Y1265D01*
Y1263D01*
X45076Y1259D01*
X45077Y1254D01*
X45079Y1246D01*
X45085Y1226D01*
X45092Y1200D01*
X45100Y1168D01*
X45109Y1133D01*
X45118Y1096D01*
X45127Y1059D01*
Y1061D01*
X45129Y1065D01*
Y1070D01*
X45131Y1078D01*
X45137Y1098D01*
X45144Y1124D01*
X45151Y1156D01*
X45161Y1189D01*
X45172Y1226D01*
X45183Y1265D01*
X45464Y2185D01*
X45603D01*
X45198Y920D01*
D02*
G37*
G36*
X43572D02*
X43446D01*
Y1911D01*
X43444Y1909D01*
X43439Y1902D01*
X43428Y1892D01*
X43415Y1878D01*
X43398Y1863D01*
X43378Y1844D01*
X43353Y1824D01*
X43328Y1804D01*
X43324Y1802D01*
X43315Y1794D01*
X43302Y1785D01*
X43283Y1774D01*
X43263Y1761D01*
X43239Y1748D01*
X43216Y1735D01*
X43192Y1724D01*
Y1874D01*
X43194D01*
X43198Y1876D01*
X43202Y1880D01*
X43209Y1885D01*
X43229Y1898D01*
X43253Y1915D01*
X43283Y1935D01*
X43313Y1961D01*
X43344Y1989D01*
X43376Y2020D01*
X43378Y2022D01*
X43379Y2024D01*
X43389Y2035D01*
X43403Y2052D01*
X43420Y2074D01*
X43439Y2100D01*
X43457Y2129D01*
X43476Y2159D01*
X43489Y2191D01*
X43572D01*
Y920D01*
D02*
G37*
G36*
X41480D02*
X41354D01*
Y1911D01*
X41352Y1909D01*
X41346Y1902D01*
X41335Y1892D01*
X41322Y1878D01*
X41306Y1863D01*
X41285Y1844D01*
X41261Y1824D01*
X41235Y1804D01*
X41231Y1802D01*
X41222Y1794D01*
X41209Y1785D01*
X41191Y1774D01*
X41170Y1761D01*
X41146Y1748D01*
X41124Y1735D01*
X41100Y1724D01*
Y1874D01*
X41102D01*
X41106Y1876D01*
X41109Y1880D01*
X41117Y1885D01*
X41137Y1898D01*
X41161Y1915D01*
X41191Y1935D01*
X41220Y1961D01*
X41252Y1989D01*
X41283Y2020D01*
X41285Y2022D01*
X41287Y2024D01*
X41296Y2035D01*
X41311Y2052D01*
X41328Y2074D01*
X41346Y2100D01*
X41365Y2129D01*
X41383Y2159D01*
X41396Y2191D01*
X41480D01*
Y920D01*
D02*
G37*
G36*
X42168Y2189D02*
X42181Y2187D01*
X42196Y2183D01*
X42230Y2174D01*
X42248Y2167D01*
X42268Y2157D01*
X42287Y2148D01*
X42307Y2135D01*
X42326Y2118D01*
X42344Y2102D01*
X42363Y2081D01*
X42380Y2057D01*
X42381Y2055D01*
X42383Y2050D01*
X42389Y2041D01*
X42396Y2026D01*
X42404Y2009D01*
X42413Y1987D01*
X42422Y1963D01*
X42431Y1933D01*
X42441Y1900D01*
X42450Y1861D01*
X42459Y1818D01*
X42467Y1772D01*
X42474Y1722D01*
X42479Y1667D01*
X42481Y1607D01*
X42483Y1544D01*
Y1541D01*
Y1531D01*
Y1515D01*
X42481Y1493D01*
Y1467D01*
X42479Y1435D01*
X42476Y1402D01*
X42472Y1365D01*
X42468Y1328D01*
X42463Y1287D01*
X42446Y1207D01*
X42437Y1168D01*
X42426Y1131D01*
X42411Y1096D01*
X42396Y1063D01*
X42394Y1061D01*
X42392Y1056D01*
X42387Y1048D01*
X42380Y1037D01*
X42372Y1026D01*
X42361Y1011D01*
X42348Y996D01*
X42333Y981D01*
X42317Y967D01*
X42298Y952D01*
X42276Y937D01*
X42254Y926D01*
X42230Y915D01*
X42204Y907D01*
X42174Y902D01*
X42144Y900D01*
X42137D01*
X42130Y902D01*
X42120D01*
X42107Y904D01*
X42092Y907D01*
X42057Y919D01*
X42039Y926D01*
X42018Y935D01*
X41998Y946D01*
X41978Y961D01*
X41957Y978D01*
X41937Y996D01*
X41918Y1019D01*
X41900Y1044D01*
X41898Y1046D01*
X41896Y1052D01*
X41891Y1059D01*
X41885Y1072D01*
X41878Y1089D01*
X41870Y1109D01*
X41863Y1133D01*
X41854Y1161D01*
X41844Y1193D01*
X41837Y1230D01*
X41830Y1270D01*
X41822Y1317D01*
X41817Y1367D01*
X41811Y1420D01*
X41809Y1480D01*
X41807Y1544D01*
Y1546D01*
Y1548D01*
Y1559D01*
Y1574D01*
X41809Y1596D01*
Y1624D01*
X41811Y1654D01*
X41815Y1687D01*
X41818Y1724D01*
X41822Y1763D01*
X41828Y1802D01*
X41843Y1881D01*
X41854Y1920D01*
X41865Y1959D01*
X41878Y1994D01*
X41893Y2026D01*
X41894Y2028D01*
X41896Y2033D01*
X41902Y2041D01*
X41909Y2052D01*
X41917Y2065D01*
X41928Y2078D01*
X41941Y2092D01*
X41955Y2109D01*
X41972Y2124D01*
X41991Y2139D01*
X42013Y2152D01*
X42035Y2165D01*
X42059Y2176D01*
X42085Y2183D01*
X42115Y2189D01*
X42144Y2191D01*
X42159D01*
X42168Y2189D01*
D02*
G37*
G36*
X3863Y18950D02*
X4318Y18200D01*
X4137D01*
X3767Y18839D01*
X3598Y18637D01*
Y18200D01*
X3461D01*
Y19465D01*
X3598D01*
Y18837D01*
X4115Y19465D01*
X4298D01*
X3863Y18950D01*
D02*
G37*
G36*
X2820Y19485D02*
X2831D01*
X2846Y19483D01*
X2880Y19478D01*
X2918Y19468D01*
X2959Y19454D01*
X3004Y19435D01*
X3046Y19409D01*
X3048D01*
X3052Y19405D01*
X3057Y19402D01*
X3065Y19394D01*
X3085Y19378D01*
X3111Y19352D01*
X3141Y19320D01*
X3170Y19281D01*
X3200Y19235D01*
X3226Y19183D01*
Y19181D01*
X3230Y19176D01*
X3231Y19168D01*
X3237Y19157D01*
X3241Y19142D01*
X3246Y19126D01*
X3254Y19105D01*
X3259Y19083D01*
X3265Y19059D01*
X3272Y19031D01*
X3278Y19004D01*
X3281Y18972D01*
X3289Y18905D01*
X3292Y18831D01*
Y18828D01*
Y18818D01*
Y18804D01*
X3291Y18785D01*
X3289Y18761D01*
X3285Y18733D01*
X3281Y18702D01*
X3276Y18668D01*
X3270Y18633D01*
X3261Y18596D01*
X3252Y18557D01*
X3239Y18520D01*
X3224Y18481D01*
X3207Y18444D01*
X3187Y18407D01*
X3165Y18374D01*
X3163Y18372D01*
X3159Y18367D01*
X3150Y18356D01*
X3139Y18344D01*
X3126Y18330D01*
X3107Y18313D01*
X3089Y18294D01*
X3067Y18278D01*
X3041Y18259D01*
X3013Y18241D01*
X2983Y18224D01*
X2950Y18209D01*
X2915Y18198D01*
X2878Y18189D01*
X2839Y18181D01*
X2796Y18180D01*
X2787D01*
X2774Y18181D01*
X2757Y18183D01*
X2739Y18185D01*
X2717Y18191D01*
X2691Y18196D01*
X2665Y18204D01*
X2635Y18215D01*
X2606Y18228D01*
X2574Y18244D01*
X2543Y18263D01*
X2513Y18285D01*
X2481Y18313D01*
X2454Y18343D01*
X2426Y18378D01*
X2424Y18380D01*
X2420Y18387D01*
X2415Y18396D01*
X2406Y18411D01*
X2396Y18428D01*
X2387Y18448D01*
X2374Y18472D01*
X2363Y18500D01*
X2352Y18531D01*
X2341Y18565D01*
X2330Y18600D01*
X2320Y18639D01*
X2311Y18680D01*
X2306Y18722D01*
X2302Y18768D01*
X2300Y18815D01*
Y18817D01*
Y18818D01*
Y18830D01*
X2302Y18846D01*
Y18868D01*
X2304Y18894D01*
X2307Y18926D01*
X2311Y18961D01*
X2319Y18998D01*
X2326Y19039D01*
X2335Y19080D01*
X2346Y19120D01*
X2359Y19161D01*
X2376Y19202D01*
X2394Y19241D01*
X2417Y19280D01*
X2441Y19313D01*
X2443Y19315D01*
X2448Y19320D01*
X2456Y19330D01*
X2467Y19341D01*
X2480Y19354D01*
X2496Y19368D01*
X2517Y19383D01*
X2539Y19400D01*
X2563Y19417D01*
X2591Y19431D01*
X2620Y19446D01*
X2652Y19459D01*
X2685Y19470D01*
X2720Y19479D01*
X2757Y19485D01*
X2796Y19487D01*
X2809D01*
X2820Y19485D01*
D02*
G37*
G36*
X35915Y16235D02*
X35931Y16231D01*
X35952Y16224D01*
X35974Y16217D01*
X35998Y16204D01*
X36022Y16187D01*
X35979Y16043D01*
X35977Y16044D01*
X35972Y16048D01*
X35961Y16054D01*
X35950Y16059D01*
X35935Y16065D01*
X35920Y16070D01*
X35902Y16074D01*
X35885Y16076D01*
X35877D01*
X35870Y16074D01*
X35861Y16072D01*
X35850Y16068D01*
X35837Y16063D01*
X35824Y16055D01*
X35811Y16046D01*
X35809Y16044D01*
X35805Y16041D01*
X35800Y16035D01*
X35792Y16026D01*
X35785Y16015D01*
X35777Y16002D01*
X35770Y15985D01*
X35765Y15967D01*
Y15965D01*
X35763Y15963D01*
Y15957D01*
X35761Y15952D01*
X35757Y15933D01*
X35753Y15909D01*
X35748Y15881D01*
X35744Y15850D01*
X35742Y15815D01*
X35740Y15778D01*
Y15300D01*
X35615D01*
Y16217D01*
X35729D01*
Y16078D01*
X35731Y16080D01*
X35737Y16091D01*
X35744Y16107D01*
X35755Y16128D01*
X35768Y16150D01*
X35781Y16170D01*
X35794Y16189D01*
X35809Y16204D01*
X35811Y16205D01*
X35816Y16209D01*
X35824Y16215D01*
X35833Y16220D01*
X35846Y16226D01*
X35859Y16231D01*
X35874Y16235D01*
X35890Y16237D01*
X35902D01*
X35915Y16235D01*
D02*
G37*
G36*
X34628D02*
X34644Y16231D01*
X34665Y16224D01*
X34687Y16217D01*
X34711Y16204D01*
X34735Y16187D01*
X34692Y16043D01*
X34691Y16044D01*
X34685Y16048D01*
X34674Y16054D01*
X34663Y16059D01*
X34648Y16065D01*
X34633Y16070D01*
X34615Y16074D01*
X34598Y16076D01*
X34591D01*
X34583Y16074D01*
X34574Y16072D01*
X34563Y16068D01*
X34550Y16063D01*
X34537Y16055D01*
X34524Y16046D01*
X34522Y16044D01*
X34518Y16041D01*
X34513Y16035D01*
X34505Y16026D01*
X34498Y16015D01*
X34491Y16002D01*
X34483Y15985D01*
X34478Y15967D01*
Y15965D01*
X34476Y15963D01*
Y15957D01*
X34474Y15952D01*
X34470Y15933D01*
X34466Y15909D01*
X34461Y15881D01*
X34457Y15850D01*
X34455Y15815D01*
X34454Y15778D01*
Y15300D01*
X34328D01*
Y16217D01*
X34442D01*
Y16078D01*
X34444Y16080D01*
X34450Y16091D01*
X34457Y16107D01*
X34468Y16128D01*
X34481Y16150D01*
X34494Y16170D01*
X34507Y16189D01*
X34522Y16204D01*
X34524Y16205D01*
X34529Y16209D01*
X34537Y16215D01*
X34546Y16220D01*
X34559Y16226D01*
X34572Y16231D01*
X34587Y16235D01*
X34604Y16237D01*
X34615D01*
X34628Y16235D01*
D02*
G37*
G36*
X34146D02*
X34163Y16231D01*
X34183Y16224D01*
X34205Y16217D01*
X34229Y16204D01*
X34254Y16187D01*
X34211Y16043D01*
X34209Y16044D01*
X34204Y16048D01*
X34192Y16054D01*
X34181Y16059D01*
X34167Y16065D01*
X34152Y16070D01*
X34133Y16074D01*
X34117Y16076D01*
X34109D01*
X34102Y16074D01*
X34092Y16072D01*
X34081Y16068D01*
X34068Y16063D01*
X34055Y16055D01*
X34042Y16046D01*
X34041Y16044D01*
X34037Y16041D01*
X34031Y16035D01*
X34024Y16026D01*
X34017Y16015D01*
X34009Y16002D01*
X34002Y15985D01*
X33996Y15967D01*
Y15965D01*
X33994Y15963D01*
Y15957D01*
X33992Y15952D01*
X33989Y15933D01*
X33985Y15909D01*
X33980Y15881D01*
X33976Y15850D01*
X33974Y15815D01*
X33972Y15778D01*
Y15300D01*
X33846D01*
Y16217D01*
X33961D01*
Y16078D01*
X33963Y16080D01*
X33968Y16091D01*
X33976Y16107D01*
X33987Y16128D01*
X34000Y16150D01*
X34013Y16170D01*
X34026Y16189D01*
X34041Y16204D01*
X34042Y16205D01*
X34048Y16209D01*
X34055Y16215D01*
X34065Y16220D01*
X34078Y16226D01*
X34091Y16231D01*
X34105Y16235D01*
X34122Y16237D01*
X34133D01*
X34146Y16235D01*
D02*
G37*
G36*
X33650Y16415D02*
X33037D01*
Y16030D01*
X33613D01*
Y15880D01*
X33037D01*
Y15450D01*
X33674D01*
Y15300D01*
X32900D01*
Y16565D01*
X33650D01*
Y16415D01*
D02*
G37*
G36*
X35139Y16235D02*
X35150Y16233D01*
X35166Y16231D01*
X35200Y16222D01*
X35241Y16207D01*
X35261Y16198D01*
X35281Y16185D01*
X35303Y16172D01*
X35324Y16155D01*
X35344Y16137D01*
X35363Y16115D01*
X35365Y16113D01*
X35366Y16109D01*
X35372Y16102D01*
X35379Y16093D01*
X35387Y16080D01*
X35394Y16065D01*
X35403Y16046D01*
X35415Y16026D01*
X35424Y16004D01*
X35433Y15978D01*
X35440Y15948D01*
X35448Y15917D01*
X35455Y15883D01*
X35461Y15846D01*
X35463Y15807D01*
X35465Y15767D01*
Y15765D01*
Y15756D01*
Y15743D01*
X35463Y15726D01*
X35461Y15706D01*
X35459Y15683D01*
X35457Y15656D01*
X35452Y15628D01*
X35440Y15568D01*
X35422Y15507D01*
X35411Y15478D01*
X35398Y15450D01*
X35383Y15424D01*
X35365Y15400D01*
X35363Y15398D01*
X35361Y15394D01*
X35355Y15389D01*
X35346Y15381D01*
X35337Y15372D01*
X35326Y15361D01*
X35311Y15352D01*
X35296Y15341D01*
X35259Y15319D01*
X35216Y15298D01*
X35192Y15291D01*
X35166Y15285D01*
X35141Y15281D01*
X35113Y15280D01*
X35098D01*
X35087Y15281D01*
X35074Y15283D01*
X35059Y15285D01*
X35024Y15294D01*
X34985Y15309D01*
X34965Y15319D01*
X34942Y15330D01*
X34922Y15344D01*
X34900Y15361D01*
X34879Y15380D01*
X34861Y15400D01*
X34859Y15402D01*
X34857Y15406D01*
X34852Y15413D01*
X34846Y15422D01*
X34839Y15435D01*
X34829Y15450D01*
X34820Y15469D01*
X34811Y15491D01*
X34802Y15513D01*
X34792Y15541D01*
X34785Y15570D01*
X34776Y15602D01*
X34770Y15637D01*
X34765Y15674D01*
X34763Y15715D01*
X34761Y15757D01*
Y15759D01*
Y15768D01*
Y15780D01*
X34763Y15796D01*
X34765Y15817D01*
X34766Y15839D01*
X34768Y15865D01*
X34774Y15891D01*
X34785Y15948D01*
X34802Y16007D01*
X34813Y16037D01*
X34828Y16065D01*
X34842Y16091D01*
X34859Y16115D01*
X34861Y16117D01*
X34865Y16120D01*
X34870Y16126D01*
X34878Y16133D01*
X34887Y16143D01*
X34898Y16154D01*
X34913Y16165D01*
X34928Y16176D01*
X34965Y16198D01*
X35009Y16218D01*
X35033Y16226D01*
X35057Y16231D01*
X35085Y16235D01*
X35113Y16237D01*
X35128D01*
X35139Y16235D01*
D02*
G37*
G36*
X2100Y16883D02*
X2098D01*
X2096D01*
X2091D01*
X2083D01*
X2065Y16885D01*
X2041Y16889D01*
X2011Y16894D01*
X1976Y16904D01*
X1939Y16918D01*
X1898Y16937D01*
X1896D01*
X1893Y16941D01*
X1887Y16942D01*
X1878Y16948D01*
X1867Y16955D01*
X1854Y16963D01*
X1839Y16974D01*
X1822Y16985D01*
X1804Y16998D01*
X1783Y17013D01*
X1761Y17031D01*
X1739Y17050D01*
X1715Y17072D01*
X1689Y17094D01*
X1661Y17120D01*
X1633Y17148D01*
X1632Y17150D01*
X1626Y17155D01*
X1617Y17165D01*
X1604Y17178D01*
X1589Y17191D01*
X1572Y17207D01*
X1552Y17226D01*
X1532Y17244D01*
X1487Y17285D01*
X1441Y17324D01*
X1419Y17341D01*
X1396Y17357D01*
X1376Y17372D01*
X1357Y17383D01*
X1356D01*
X1354Y17385D01*
X1348Y17389D01*
X1341Y17392D01*
X1322Y17402D01*
X1298Y17413D01*
X1270Y17422D01*
X1241Y17431D01*
X1207Y17439D01*
X1176Y17441D01*
X1174D01*
X1172D01*
X1167D01*
X1159D01*
X1143Y17437D01*
X1120Y17433D01*
X1095Y17426D01*
X1069Y17416D01*
X1043Y17402D01*
X1019Y17383D01*
X1017Y17381D01*
X1009Y17372D01*
X1000Y17361D01*
X987Y17344D01*
X976Y17324D01*
X967Y17300D01*
X959Y17272D01*
X958Y17242D01*
Y17239D01*
X959Y17228D01*
X961Y17211D01*
X965Y17191D01*
X974Y17168D01*
X985Y17142D01*
X1002Y17118D01*
X1024Y17096D01*
X1028Y17094D01*
X1037Y17087D01*
X1052Y17078D01*
X1072Y17068D01*
X1100Y17057D01*
X1132Y17048D01*
X1170Y17041D01*
X1213Y17039D01*
X1196Y16907D01*
X1195D01*
X1189D01*
X1180Y16909D01*
X1167Y16911D01*
X1152Y16913D01*
X1133Y16916D01*
X1115Y16920D01*
X1095Y16926D01*
X1050Y16939D01*
X1004Y16955D01*
X961Y16979D01*
X941Y16994D01*
X922Y17009D01*
X920Y17011D01*
X919Y17013D01*
X913Y17018D01*
X908Y17026D01*
X900Y17035D01*
X893Y17046D01*
X876Y17072D01*
X859Y17107D01*
X845Y17146D01*
X833Y17192D01*
X832Y17218D01*
X830Y17244D01*
Y17259D01*
X832Y17270D01*
X833Y17283D01*
X835Y17300D01*
X843Y17335D01*
X856Y17374D01*
X865Y17392D01*
X874Y17413D01*
X887Y17433D01*
X902Y17452D01*
X919Y17468D01*
X937Y17485D01*
X939Y17487D01*
X943Y17489D01*
X948Y17492D01*
X956Y17498D01*
X967Y17503D01*
X978Y17511D01*
X1008Y17528D01*
X1045Y17542D01*
X1085Y17555D01*
X1132Y17565D01*
X1156Y17568D01*
X1182D01*
X1183D01*
X1187D01*
X1193D01*
X1202Y17566D01*
X1213D01*
X1226Y17565D01*
X1256Y17561D01*
X1291Y17552D01*
X1330Y17540D01*
X1370Y17526D01*
X1413Y17503D01*
X1415D01*
X1419Y17500D01*
X1424Y17496D01*
X1433Y17490D01*
X1445Y17483D01*
X1457Y17474D01*
X1472Y17463D01*
X1491Y17450D01*
X1511Y17435D01*
X1533Y17416D01*
X1557Y17396D01*
X1583Y17374D01*
X1611Y17350D01*
X1641Y17324D01*
X1674Y17292D01*
X1707Y17261D01*
X1709Y17259D01*
X1713Y17255D01*
X1719Y17250D01*
X1726Y17242D01*
X1746Y17224D01*
X1770Y17200D01*
X1798Y17176D01*
X1824Y17152D01*
X1848Y17131D01*
X1857Y17122D01*
X1867Y17115D01*
X1869Y17113D01*
X1874Y17109D01*
X1882Y17104D01*
X1893Y17096D01*
X1906Y17087D01*
X1920Y17078D01*
X1950Y17061D01*
Y17570D01*
X2100D01*
Y16883D01*
D02*
G37*
G36*
Y16139D02*
X835D01*
Y16276D01*
X1950D01*
Y16787D01*
X2100D01*
Y16139D01*
D02*
G37*
G36*
Y15776D02*
X1504D01*
Y15237D01*
X2100D01*
Y15100D01*
X835D01*
Y15237D01*
X1354D01*
Y15776D01*
X835D01*
Y15913D01*
X2100D01*
Y15776D01*
D02*
G37*
G36*
X39000Y19250D02*
X38009D01*
X38011Y19248D01*
X38019Y19242D01*
X38028Y19231D01*
X38043Y19218D01*
X38058Y19202D01*
X38076Y19181D01*
X38096Y19157D01*
X38117Y19131D01*
X38119Y19128D01*
X38126Y19118D01*
X38135Y19105D01*
X38146Y19087D01*
X38159Y19066D01*
X38172Y19042D01*
X38185Y19020D01*
X38196Y18996D01*
X38046D01*
Y18998D01*
X38045Y19002D01*
X38041Y19005D01*
X38035Y19013D01*
X38022Y19033D01*
X38006Y19057D01*
X37985Y19087D01*
X37959Y19116D01*
X37932Y19148D01*
X37900Y19179D01*
X37898Y19181D01*
X37896Y19183D01*
X37885Y19192D01*
X37869Y19207D01*
X37846Y19224D01*
X37820Y19242D01*
X37791Y19261D01*
X37761Y19279D01*
X37730Y19292D01*
Y19376D01*
X39000D01*
Y19250D01*
D02*
G37*
G36*
Y18570D02*
X40200D01*
Y18444D01*
X39209D01*
X39211Y18442D01*
X39219Y18437D01*
X39228Y18426D01*
X39243Y18413D01*
X39258Y18396D01*
X39276Y18376D01*
X39296Y18352D01*
X39317Y18326D01*
X39319Y18322D01*
X39326Y18313D01*
X39335Y18300D01*
X39346Y18281D01*
X39359Y18261D01*
X39372Y18237D01*
X39385Y18215D01*
X39396Y18191D01*
X39246D01*
Y18192D01*
X39245Y18196D01*
X39241Y18200D01*
X39235Y18207D01*
X39222Y18228D01*
X39206Y18252D01*
X39185Y18281D01*
X39159Y18311D01*
X39132Y18342D01*
X39100Y18374D01*
X39098Y18376D01*
X39096Y18378D01*
X39085Y18387D01*
X39069Y18402D01*
X39046Y18418D01*
X39020Y18437D01*
X39000Y18450D01*
Y18139D01*
X37735D01*
Y18276D01*
X38850D01*
Y18787D01*
X39000D01*
Y18570D01*
D02*
G37*
G36*
X40200Y17841D02*
X39939Y17702D01*
X39937D01*
X39932Y17698D01*
X39924Y17694D01*
X39913Y17689D01*
X39902Y17681D01*
X39887Y17674D01*
X39854Y17657D01*
X39820Y17637D01*
X39785Y17617D01*
X39756Y17598D01*
X39743Y17589D01*
X39732Y17581D01*
X39730Y17580D01*
X39722Y17574D01*
X39713Y17567D01*
X39702Y17556D01*
X39678Y17531D01*
X39669Y17517D01*
X39659Y17502D01*
X39657Y17500D01*
X39656Y17494D01*
X39652Y17485D01*
X39648Y17474D01*
X39645Y17459D01*
X39643Y17441D01*
X39639Y17418D01*
Y17237D01*
X40200D01*
Y17100D01*
X38935D01*
D01*
X37735D01*
Y17237D01*
X38254D01*
Y17776D01*
X37735D01*
Y17913D01*
X39000D01*
Y17813D01*
X39000Y17813D01*
X39017Y17830D01*
X39037Y17848D01*
X39061Y17868D01*
X39091Y17885D01*
X39095Y17887D01*
X39106Y17893D01*
X39122Y17900D01*
X39145Y17907D01*
X39172Y17915D01*
X39206Y17922D01*
X39243Y17928D01*
X39282Y17930D01*
X39283D01*
X39287D01*
X39295D01*
X39306Y17928D01*
X39317D01*
X39332Y17926D01*
X39363Y17920D01*
X39400Y17911D01*
X39439Y17898D01*
X39478Y17880D01*
X39513Y17854D01*
X39515D01*
X39517Y17850D01*
X39528Y17841D01*
X39543Y17822D01*
X39561Y17800D01*
X39580Y17768D01*
X39598Y17731D01*
X39615Y17689D01*
X39626Y17639D01*
X39628Y17641D01*
X39632Y17648D01*
X39639Y17657D01*
X39648Y17670D01*
X39670Y17698D01*
X39683Y17711D01*
X39696Y17724D01*
X39700Y17728D01*
X39709Y17735D01*
X39724Y17746D01*
X39743Y17761D01*
X39767Y17778D01*
X39794Y17796D01*
X39824Y17815D01*
X39857Y17833D01*
X40200Y18015D01*
Y17841D01*
D02*
G37*
G36*
X42859Y13568D02*
X43250Y12900D01*
X43080D01*
X42818Y13350D01*
X42817Y13352D01*
X42815Y13357D01*
X42811Y13365D01*
X42806Y13376D01*
X42798Y13387D01*
X42791Y13402D01*
X42776Y13433D01*
X42774Y13430D01*
X42770Y13422D01*
X42765Y13411D01*
X42757Y13396D01*
X42741Y13365D01*
X42731Y13350D01*
X42726Y13339D01*
X42463Y12900D01*
X42300D01*
X42702Y13557D01*
X42348Y14165D01*
X42511D01*
X42700Y13841D01*
Y13839D01*
X42702Y13837D01*
X42706Y13831D01*
X42709Y13824D01*
X42720Y13805D01*
X42733Y13783D01*
X42746Y13759D01*
X42759Y13733D01*
X42772Y13709D01*
X42781Y13687D01*
X42783Y13691D01*
X42787Y13698D01*
X42794Y13711D01*
X42804Y13730D01*
X42817Y13750D01*
X42831Y13774D01*
X42846Y13800D01*
X42865Y13828D01*
X43072Y14165D01*
X43222D01*
X42859Y13568D01*
D02*
G37*
G36*
X43794Y12900D02*
X43668D01*
Y13891D01*
X43667Y13889D01*
X43661Y13881D01*
X43650Y13872D01*
X43637Y13857D01*
X43620Y13842D01*
X43600Y13824D01*
X43576Y13804D01*
X43550Y13783D01*
X43546Y13781D01*
X43537Y13774D01*
X43524Y13765D01*
X43505Y13754D01*
X43485Y13741D01*
X43461Y13728D01*
X43439Y13715D01*
X43415Y13704D01*
Y13854D01*
X43417D01*
X43420Y13855D01*
X43424Y13859D01*
X43431Y13865D01*
X43452Y13878D01*
X43476Y13894D01*
X43505Y13915D01*
X43535Y13941D01*
X43567Y13968D01*
X43598Y14000D01*
X43600Y14002D01*
X43602Y14004D01*
X43611Y14015D01*
X43626Y14031D01*
X43642Y14054D01*
X43661Y14080D01*
X43679Y14109D01*
X43698Y14139D01*
X43711Y14170D01*
X43794D01*
Y12900D01*
D02*
G37*
G36*
X38543Y15200D02*
X38400D01*
X37998Y16465D01*
X38148D01*
X38418Y15544D01*
Y15543D01*
X38420Y15539D01*
X38422Y15533D01*
X38424Y15526D01*
X38430Y15506D01*
X38437Y15480D01*
X38444Y15448D01*
X38454Y15413D01*
X38463Y15376D01*
X38472Y15339D01*
Y15341D01*
X38474Y15344D01*
Y15350D01*
X38476Y15357D01*
X38481Y15378D01*
X38489Y15404D01*
X38496Y15435D01*
X38506Y15468D01*
X38517Y15506D01*
X38528Y15544D01*
X38809Y16465D01*
X38948D01*
X38543Y15200D01*
D02*
G37*
G36*
X40379D02*
X40253D01*
Y16191D01*
X40252Y16189D01*
X40246Y16181D01*
X40235Y16172D01*
X40222Y16157D01*
X40205Y16142D01*
X40185Y16124D01*
X40161Y16104D01*
X40135Y16083D01*
X40131Y16081D01*
X40122Y16074D01*
X40109Y16065D01*
X40091Y16054D01*
X40070Y16041D01*
X40046Y16028D01*
X40024Y16015D01*
X40000Y16004D01*
Y16154D01*
X40002D01*
X40005Y16155D01*
X40009Y16159D01*
X40016Y16165D01*
X40037Y16178D01*
X40061Y16194D01*
X40091Y16215D01*
X40120Y16241D01*
X40152Y16268D01*
X40183Y16300D01*
X40185Y16302D01*
X40187Y16304D01*
X40196Y16315D01*
X40211Y16331D01*
X40228Y16354D01*
X40246Y16380D01*
X40265Y16409D01*
X40283Y16439D01*
X40296Y16470D01*
X40379D01*
Y15200D01*
D02*
G37*
G36*
X39816Y16315D02*
X39474D01*
Y15200D01*
X39337D01*
Y16315D01*
X38996D01*
Y16465D01*
X39816D01*
Y16315D01*
D02*
G37*
G36*
X24243Y18300D02*
X24100D01*
X23698Y19565D01*
X23848D01*
X24118Y18644D01*
Y18643D01*
X24120Y18639D01*
X24122Y18633D01*
X24124Y18626D01*
X24130Y18606D01*
X24137Y18580D01*
X24144Y18548D01*
X24154Y18513D01*
X24163Y18476D01*
X24172Y18439D01*
Y18441D01*
X24174Y18444D01*
Y18450D01*
X24176Y18457D01*
X24181Y18478D01*
X24189Y18504D01*
X24196Y18535D01*
X24205Y18568D01*
X24217Y18606D01*
X24228Y18644D01*
X24509Y19565D01*
X24648D01*
X24243Y18300D01*
D02*
G37*
G36*
X26240D02*
X26115D01*
Y19291D01*
X26113Y19289D01*
X26107Y19281D01*
X26096Y19272D01*
X26083Y19257D01*
X26066Y19242D01*
X26046Y19224D01*
X26022Y19204D01*
X25996Y19183D01*
X25992Y19181D01*
X25983Y19174D01*
X25970Y19165D01*
X25952Y19154D01*
X25931Y19141D01*
X25907Y19128D01*
X25885Y19115D01*
X25861Y19104D01*
Y19254D01*
X25863D01*
X25866Y19255D01*
X25870Y19259D01*
X25878Y19265D01*
X25898Y19278D01*
X25922Y19294D01*
X25952Y19315D01*
X25981Y19341D01*
X26013Y19368D01*
X26044Y19400D01*
X26046Y19402D01*
X26048Y19404D01*
X26057Y19415D01*
X26072Y19431D01*
X26089Y19454D01*
X26107Y19480D01*
X26126Y19509D01*
X26144Y19539D01*
X26157Y19570D01*
X26240D01*
Y18300D01*
D02*
G37*
G36*
X25172Y19563D02*
X25202Y19561D01*
X25233Y19559D01*
X25267Y19555D01*
X25300Y19548D01*
X25328Y19541D01*
X25329D01*
X25331Y19539D01*
X25342Y19535D01*
X25359Y19528D01*
X25381Y19517D01*
X25405Y19500D01*
X25431Y19481D01*
X25457Y19457D01*
X25483Y19430D01*
X25487Y19426D01*
X25494Y19415D01*
X25505Y19398D01*
X25522Y19374D01*
X25539Y19346D01*
X25555Y19311D01*
X25572Y19272D01*
X25587Y19228D01*
Y19226D01*
X25589Y19222D01*
X25591Y19215D01*
X25592Y19205D01*
X25596Y19194D01*
X25600Y19180D01*
X25604Y19165D01*
X25607Y19146D01*
X25609Y19126D01*
X25613Y19104D01*
X25620Y19054D01*
X25624Y19000D01*
X25626Y18939D01*
Y18937D01*
Y18930D01*
Y18918D01*
Y18904D01*
X25624Y18885D01*
X25622Y18863D01*
X25620Y18839D01*
X25618Y18813D01*
X25611Y18756D01*
X25600Y18694D01*
X25583Y18633D01*
X25563Y18574D01*
Y18572D01*
X25559Y18567D01*
X25557Y18559D01*
X25552Y18550D01*
X25544Y18537D01*
X25537Y18524D01*
X25518Y18491D01*
X25496Y18456D01*
X25468Y18420D01*
X25435Y18389D01*
X25418Y18374D01*
X25400Y18361D01*
X25398D01*
X25396Y18359D01*
X25391Y18356D01*
X25381Y18352D01*
X25372Y18346D01*
X25361Y18343D01*
X25346Y18337D01*
X25331Y18331D01*
X25313Y18324D01*
X25294Y18319D01*
X25250Y18309D01*
X25200Y18302D01*
X25142Y18300D01*
X24768D01*
Y19565D01*
X25159D01*
X25172Y19563D01*
D02*
G37*
G36*
X5843Y18300D02*
X5700D01*
X5298Y19565D01*
X5448D01*
X5718Y18644D01*
Y18643D01*
X5720Y18639D01*
X5722Y18633D01*
X5724Y18626D01*
X5730Y18606D01*
X5737Y18580D01*
X5744Y18548D01*
X5754Y18513D01*
X5763Y18476D01*
X5772Y18439D01*
Y18441D01*
X5774Y18444D01*
Y18450D01*
X5776Y18457D01*
X5781Y18478D01*
X5789Y18504D01*
X5796Y18535D01*
X5806Y18568D01*
X5817Y18606D01*
X5828Y18644D01*
X6109Y19565D01*
X6248D01*
X5843Y18300D01*
D02*
G37*
G36*
X7574Y19568D02*
X7587Y19567D01*
X7603Y19565D01*
X7639Y19557D01*
X7678Y19544D01*
X7696Y19535D01*
X7716Y19526D01*
X7737Y19513D01*
X7755Y19498D01*
X7772Y19481D01*
X7789Y19463D01*
X7790Y19461D01*
X7792Y19457D01*
X7796Y19452D01*
X7802Y19444D01*
X7807Y19433D01*
X7815Y19422D01*
X7831Y19392D01*
X7846Y19355D01*
X7859Y19315D01*
X7868Y19268D01*
X7872Y19244D01*
Y19218D01*
Y19217D01*
Y19213D01*
Y19207D01*
X7870Y19198D01*
Y19187D01*
X7868Y19174D01*
X7865Y19144D01*
X7855Y19109D01*
X7844Y19070D01*
X7829Y19030D01*
X7807Y18987D01*
Y18985D01*
X7803Y18981D01*
X7800Y18976D01*
X7794Y18967D01*
X7787Y18955D01*
X7778Y18943D01*
X7766Y18928D01*
X7753Y18909D01*
X7739Y18889D01*
X7720Y18867D01*
X7700Y18843D01*
X7678Y18817D01*
X7653Y18789D01*
X7628Y18759D01*
X7596Y18726D01*
X7565Y18693D01*
X7563Y18691D01*
X7559Y18687D01*
X7553Y18681D01*
X7546Y18674D01*
X7528Y18654D01*
X7503Y18630D01*
X7479Y18602D01*
X7455Y18576D01*
X7435Y18552D01*
X7426Y18543D01*
X7418Y18533D01*
X7416Y18531D01*
X7413Y18526D01*
X7407Y18518D01*
X7400Y18507D01*
X7391Y18494D01*
X7381Y18480D01*
X7365Y18450D01*
X7874D01*
Y18300D01*
X7187D01*
Y18302D01*
Y18304D01*
Y18309D01*
Y18317D01*
X7189Y18335D01*
X7192Y18359D01*
X7198Y18389D01*
X7207Y18424D01*
X7222Y18461D01*
X7241Y18502D01*
Y18504D01*
X7244Y18507D01*
X7246Y18513D01*
X7252Y18522D01*
X7259Y18533D01*
X7266Y18546D01*
X7278Y18561D01*
X7289Y18578D01*
X7302Y18596D01*
X7316Y18617D01*
X7335Y18639D01*
X7353Y18661D01*
X7376Y18685D01*
X7398Y18711D01*
X7424Y18739D01*
X7452Y18767D01*
X7453Y18768D01*
X7459Y18774D01*
X7468Y18783D01*
X7481Y18796D01*
X7494Y18811D01*
X7511Y18828D01*
X7529Y18848D01*
X7548Y18868D01*
X7589Y18913D01*
X7628Y18959D01*
X7644Y18981D01*
X7661Y19004D01*
X7676Y19024D01*
X7687Y19043D01*
Y19044D01*
X7689Y19046D01*
X7692Y19052D01*
X7696Y19059D01*
X7705Y19078D01*
X7716Y19102D01*
X7726Y19130D01*
X7735Y19159D01*
X7742Y19192D01*
X7744Y19224D01*
Y19226D01*
Y19228D01*
Y19233D01*
Y19241D01*
X7740Y19257D01*
X7737Y19280D01*
X7729Y19305D01*
X7720Y19331D01*
X7705Y19357D01*
X7687Y19381D01*
X7685Y19383D01*
X7676Y19391D01*
X7665Y19400D01*
X7648Y19413D01*
X7628Y19424D01*
X7603Y19433D01*
X7576Y19441D01*
X7546Y19442D01*
X7542D01*
X7531Y19441D01*
X7515Y19439D01*
X7494Y19435D01*
X7472Y19426D01*
X7446Y19415D01*
X7422Y19398D01*
X7400Y19376D01*
X7398Y19372D01*
X7391Y19363D01*
X7381Y19348D01*
X7372Y19328D01*
X7361Y19300D01*
X7352Y19268D01*
X7344Y19230D01*
X7342Y19187D01*
X7211Y19204D01*
Y19205D01*
Y19211D01*
X7213Y19220D01*
X7215Y19233D01*
X7216Y19248D01*
X7220Y19267D01*
X7224Y19285D01*
X7229Y19305D01*
X7242Y19350D01*
X7259Y19396D01*
X7283Y19439D01*
X7298Y19459D01*
X7313Y19478D01*
X7315Y19480D01*
X7316Y19481D01*
X7322Y19487D01*
X7329Y19492D01*
X7339Y19500D01*
X7350Y19507D01*
X7376Y19524D01*
X7411Y19541D01*
X7450Y19555D01*
X7496Y19567D01*
X7522Y19568D01*
X7548Y19570D01*
X7563D01*
X7574Y19568D01*
D02*
G37*
G36*
X7116Y19415D02*
X6774D01*
Y18300D01*
X6637D01*
Y19415D01*
X6296D01*
Y19565D01*
X7116D01*
Y19415D01*
D02*
G37*
G36*
X9643Y11100D02*
X9500D01*
X9098Y12365D01*
X9248D01*
X9518Y11444D01*
Y11443D01*
X9520Y11439D01*
X9522Y11433D01*
X9524Y11426D01*
X9530Y11406D01*
X9537Y11380D01*
X9544Y11348D01*
X9554Y11313D01*
X9563Y11276D01*
X9572Y11239D01*
Y11241D01*
X9574Y11244D01*
Y11250D01*
X9576Y11257D01*
X9581Y11278D01*
X9589Y11304D01*
X9596Y11335D01*
X9606Y11368D01*
X9617Y11406D01*
X9628Y11444D01*
X9909Y12365D01*
X10048D01*
X9643Y11100D01*
D02*
G37*
G36*
X11698Y11546D02*
X11839D01*
Y11404D01*
X11698D01*
Y11100D01*
X11572D01*
Y11404D01*
X11122D01*
Y11546D01*
X11592Y12365D01*
X11698D01*
Y11546D01*
D02*
G37*
G36*
X10572Y12363D02*
X10602Y12361D01*
X10633Y12359D01*
X10667Y12355D01*
X10700Y12348D01*
X10728Y12341D01*
X10729D01*
X10731Y12339D01*
X10742Y12335D01*
X10759Y12328D01*
X10781Y12317D01*
X10805Y12300D01*
X10831Y12281D01*
X10857Y12257D01*
X10883Y12230D01*
X10887Y12226D01*
X10894Y12215D01*
X10905Y12198D01*
X10922Y12174D01*
X10939Y12146D01*
X10955Y12111D01*
X10972Y12072D01*
X10987Y12028D01*
Y12026D01*
X10989Y12022D01*
X10991Y12015D01*
X10992Y12005D01*
X10996Y11994D01*
X11000Y11980D01*
X11004Y11965D01*
X11007Y11946D01*
X11009Y11926D01*
X11013Y11904D01*
X11020Y11854D01*
X11024Y11800D01*
X11026Y11739D01*
Y11737D01*
Y11730D01*
Y11718D01*
Y11704D01*
X11024Y11685D01*
X11022Y11663D01*
X11020Y11639D01*
X11018Y11613D01*
X11011Y11556D01*
X11000Y11494D01*
X10983Y11433D01*
X10963Y11374D01*
Y11372D01*
X10959Y11367D01*
X10957Y11359D01*
X10952Y11350D01*
X10944Y11337D01*
X10937Y11324D01*
X10918Y11291D01*
X10896Y11256D01*
X10868Y11220D01*
X10835Y11189D01*
X10818Y11174D01*
X10800Y11161D01*
X10798D01*
X10796Y11159D01*
X10791Y11156D01*
X10781Y11152D01*
X10772Y11146D01*
X10761Y11143D01*
X10746Y11137D01*
X10731Y11131D01*
X10713Y11124D01*
X10694Y11119D01*
X10650Y11109D01*
X10600Y11102D01*
X10542Y11100D01*
X10168D01*
Y12365D01*
X10559D01*
X10572Y12363D01*
D02*
G37*
G36*
X11856Y16970D02*
X11870Y16968D01*
X11887Y16966D01*
X11906Y16963D01*
X11926Y16959D01*
X11972Y16946D01*
X12020Y16928D01*
X12043Y16917D01*
X12067Y16904D01*
X12089Y16887D01*
X12111Y16868D01*
X12113Y16867D01*
X12117Y16865D01*
X12120Y16857D01*
X12128Y16850D01*
X12137Y16841D01*
X12146Y16829D01*
X12156Y16815D01*
X12165Y16800D01*
X12185Y16763D01*
X12204Y16722D01*
X12211Y16698D01*
X12215Y16674D01*
X12219Y16648D01*
X12220Y16622D01*
Y16609D01*
X12219Y16600D01*
X12217Y16589D01*
X12215Y16576D01*
X12207Y16544D01*
X12196Y16509D01*
X12180Y16470D01*
X12169Y16452D01*
X12156Y16433D01*
X12141Y16415D01*
X12124Y16396D01*
X12122Y16394D01*
X12120Y16392D01*
X12115Y16387D01*
X12106Y16381D01*
X12096Y16374D01*
X12085Y16367D01*
X12070Y16359D01*
X12056Y16350D01*
X12037Y16341D01*
X12019Y16331D01*
X11974Y16315D01*
X11922Y16300D01*
X11865Y16292D01*
X11844Y16418D01*
X11846D01*
X11856Y16420D01*
X11867Y16424D01*
X11883Y16428D01*
X11902Y16433D01*
X11922Y16439D01*
X11944Y16448D01*
X11969Y16459D01*
X11991Y16470D01*
X12015Y16485D01*
X12035Y16502D01*
X12054Y16520D01*
X12070Y16541D01*
X12081Y16565D01*
X12089Y16591D01*
X12093Y16620D01*
Y16624D01*
X12091Y16635D01*
X12089Y16652D01*
X12083Y16672D01*
X12074Y16696D01*
X12063Y16720D01*
X12044Y16746D01*
X12020Y16772D01*
X12017Y16776D01*
X12007Y16783D01*
X11991Y16792D01*
X11969Y16805D01*
X11941Y16817D01*
X11909Y16828D01*
X11870Y16835D01*
X11830Y16837D01*
X11828D01*
X11824D01*
X11819D01*
X11811D01*
X11791Y16833D01*
X11765Y16829D01*
X11737Y16822D01*
X11707Y16813D01*
X11678Y16798D01*
X11652Y16778D01*
X11648Y16776D01*
X11641Y16767D01*
X11630Y16754D01*
X11617Y16737D01*
X11606Y16717D01*
X11595Y16692D01*
X11587Y16665D01*
X11583Y16633D01*
Y16618D01*
X11585Y16609D01*
X11587Y16596D01*
X11591Y16580D01*
X11596Y16563D01*
X11602Y16544D01*
X11465Y16559D01*
X11467Y16578D01*
Y16581D01*
X11465Y16594D01*
X11463Y16611D01*
X11459Y16633D01*
X11452Y16657D01*
X11443Y16683D01*
X11428Y16707D01*
X11409Y16731D01*
X11407Y16733D01*
X11398Y16741D01*
X11385Y16750D01*
X11369Y16761D01*
X11346Y16772D01*
X11320Y16781D01*
X11289Y16789D01*
X11256Y16791D01*
X11254D01*
X11252D01*
X11241D01*
X11224Y16789D01*
X11204Y16785D01*
X11182Y16778D01*
X11158Y16770D01*
X11135Y16757D01*
X11113Y16741D01*
X11111Y16739D01*
X11104Y16731D01*
X11095Y16720D01*
X11085Y16707D01*
X11074Y16689D01*
X11067Y16668D01*
X11059Y16646D01*
X11058Y16620D01*
Y16607D01*
X11061Y16594D01*
X11065Y16578D01*
X11072Y16557D01*
X11082Y16535D01*
X11096Y16515D01*
X11115Y16494D01*
X11117Y16492D01*
X11126Y16487D01*
X11139Y16478D01*
X11158Y16468D01*
X11182Y16457D01*
X11211Y16446D01*
X11246Y16439D01*
X11285Y16431D01*
X11258Y16305D01*
X11256D01*
X11250Y16307D01*
X11243Y16309D01*
X11232Y16311D01*
X11217Y16313D01*
X11202Y16318D01*
X11167Y16328D01*
X11128Y16342D01*
X11087Y16361D01*
X11048Y16385D01*
X11013Y16413D01*
X11011Y16415D01*
X11009Y16417D01*
X11000Y16428D01*
X10987Y16446D01*
X10970Y16470D01*
X10956Y16500D01*
X10943Y16535D01*
X10933Y16576D01*
X10930Y16596D01*
Y16631D01*
X10932Y16639D01*
X10933Y16650D01*
X10935Y16663D01*
X10941Y16692D01*
X10952Y16726D01*
X10969Y16763D01*
X10980Y16781D01*
X10993Y16798D01*
X11008Y16817D01*
X11024Y16833D01*
X11026Y16835D01*
X11028Y16837D01*
X11033Y16841D01*
X11041Y16848D01*
X11050Y16854D01*
X11061Y16861D01*
X11087Y16878D01*
X11122Y16894D01*
X11161Y16909D01*
X11208Y16918D01*
X11232Y16920D01*
X11258Y16922D01*
X11259D01*
X11261D01*
X11272D01*
X11289Y16920D01*
X11309Y16917D01*
X11333Y16913D01*
X11359Y16905D01*
X11385Y16896D01*
X11411Y16883D01*
X11415Y16881D01*
X11422Y16876D01*
X11433Y16868D01*
X11448Y16855D01*
X11465Y16841D01*
X11482Y16824D01*
X11500Y16802D01*
X11515Y16778D01*
Y16781D01*
X11519Y16789D01*
X11522Y16800D01*
X11528Y16815D01*
X11535Y16831D01*
X11546Y16848D01*
X11557Y16865D01*
X11572Y16881D01*
X11574Y16883D01*
X11580Y16889D01*
X11589Y16896D01*
X11600Y16905D01*
X11615Y16915D01*
X11633Y16926D01*
X11654Y16937D01*
X11678Y16946D01*
X11682Y16948D01*
X11689Y16950D01*
X11704Y16954D01*
X11720Y16959D01*
X11743Y16965D01*
X11769Y16968D01*
X11796Y16970D01*
X11826Y16972D01*
X11828D01*
X11833D01*
X11843D01*
X11856Y16970D01*
D02*
G37*
G36*
X12200Y16041D02*
X11939Y15902D01*
X11937D01*
X11932Y15898D01*
X11924Y15894D01*
X11913Y15889D01*
X11902Y15881D01*
X11887Y15874D01*
X11854Y15857D01*
X11820Y15837D01*
X11785Y15817D01*
X11756Y15798D01*
X11743Y15789D01*
X11732Y15781D01*
X11730Y15780D01*
X11722Y15774D01*
X11713Y15767D01*
X11702Y15756D01*
X11678Y15731D01*
X11669Y15717D01*
X11659Y15702D01*
X11657Y15700D01*
X11656Y15694D01*
X11652Y15685D01*
X11648Y15674D01*
X11644Y15659D01*
X11643Y15641D01*
X11639Y15618D01*
Y15437D01*
X12200D01*
Y15300D01*
X10935D01*
Y15783D01*
X10937Y15794D01*
Y15809D01*
X10939Y15841D01*
X10945Y15874D01*
X10950Y15909D01*
X10959Y15943D01*
X10972Y15972D01*
X10974Y15976D01*
X10980Y15983D01*
X10987Y15996D01*
X11000Y16013D01*
X11017Y16030D01*
X11037Y16048D01*
X11061Y16068D01*
X11091Y16085D01*
X11095Y16087D01*
X11106Y16093D01*
X11122Y16100D01*
X11145Y16107D01*
X11172Y16115D01*
X11206Y16122D01*
X11243Y16128D01*
X11282Y16130D01*
X11283D01*
X11287D01*
X11295D01*
X11306Y16128D01*
X11317D01*
X11332Y16126D01*
X11363Y16120D01*
X11400Y16111D01*
X11439Y16098D01*
X11478Y16080D01*
X11513Y16054D01*
X11515D01*
X11517Y16050D01*
X11528Y16041D01*
X11543Y16022D01*
X11561Y16000D01*
X11580Y15968D01*
X11598Y15931D01*
X11615Y15889D01*
X11626Y15839D01*
X11628Y15841D01*
X11632Y15848D01*
X11639Y15857D01*
X11648Y15870D01*
X11670Y15898D01*
X11683Y15911D01*
X11696Y15924D01*
X11700Y15928D01*
X11709Y15935D01*
X11724Y15946D01*
X11743Y15961D01*
X11767Y15978D01*
X11794Y15996D01*
X11824Y16015D01*
X11857Y16033D01*
X12200Y16215D01*
Y16041D01*
D02*
G37*
G36*
X20937Y16400D02*
X20811D01*
Y17391D01*
X20809Y17389D01*
X20804Y17381D01*
X20792Y17372D01*
X20780Y17357D01*
X20763Y17343D01*
X20742Y17324D01*
X20718Y17304D01*
X20692Y17283D01*
X20689Y17281D01*
X20680Y17274D01*
X20667Y17265D01*
X20648Y17254D01*
X20628Y17241D01*
X20604Y17228D01*
X20581Y17215D01*
X20557Y17204D01*
Y17354D01*
X20559D01*
X20563Y17355D01*
X20567Y17359D01*
X20574Y17365D01*
X20594Y17378D01*
X20618Y17394D01*
X20648Y17415D01*
X20678Y17441D01*
X20709Y17468D01*
X20741Y17500D01*
X20742Y17502D01*
X20744Y17504D01*
X20754Y17515D01*
X20768Y17531D01*
X20785Y17554D01*
X20804Y17580D01*
X20822Y17609D01*
X20841Y17639D01*
X20854Y17670D01*
X20937D01*
Y16400D01*
D02*
G37*
G36*
X19837Y16550D02*
X20348D01*
Y16400D01*
X19700D01*
Y17665D01*
X19837D01*
Y16550D01*
D02*
G37*
G36*
X29215Y14885D02*
X29228Y14883D01*
X29243Y14881D01*
X29278Y14876D01*
X29318Y14865D01*
X29363Y14848D01*
X29385Y14837D01*
X29405Y14824D01*
X29428Y14809D01*
X29448Y14792D01*
X29450Y14791D01*
X29454Y14789D01*
X29459Y14783D01*
X29465Y14776D01*
X29474Y14765D01*
X29485Y14754D01*
X29496Y14741D01*
X29507Y14724D01*
X29520Y14705D01*
X29533Y14685D01*
X29544Y14663D01*
X29557Y14639D01*
X29570Y14613D01*
X29581Y14583D01*
X29591Y14554D01*
X29600Y14520D01*
X29465Y14481D01*
Y14485D01*
X29461Y14493D01*
X29457Y14505D01*
X29450Y14522D01*
X29443Y14542D01*
X29431Y14565D01*
X29418Y14589D01*
X29404Y14613D01*
X29387Y14637D01*
X29367Y14661D01*
X29343Y14683D01*
X29318Y14704D01*
X29289Y14720D01*
X29259Y14733D01*
X29224Y14741D01*
X29187Y14744D01*
X29170D01*
X29150Y14742D01*
X29126Y14737D01*
X29098Y14731D01*
X29067Y14722D01*
X29037Y14709D01*
X29007Y14691D01*
X29004Y14689D01*
X28994Y14681D01*
X28981Y14668D01*
X28963Y14650D01*
X28944Y14626D01*
X28924Y14598D01*
X28904Y14563D01*
X28885Y14524D01*
Y14522D01*
X28883Y14518D01*
X28881Y14513D01*
X28878Y14504D01*
X28874Y14493D01*
X28870Y14480D01*
X28867Y14465D01*
X28863Y14446D01*
X28859Y14428D01*
X28856Y14405D01*
X28852Y14383D01*
X28848Y14357D01*
X28843Y14302D01*
X28841Y14241D01*
Y14237D01*
Y14230D01*
Y14217D01*
X28843Y14198D01*
X28844Y14176D01*
X28846Y14152D01*
X28848Y14124D01*
X28852Y14094D01*
X28863Y14031D01*
X28880Y13967D01*
X28889Y13935D01*
X28902Y13906D01*
X28915Y13878D01*
X28931Y13852D01*
X28933Y13850D01*
X28935Y13846D01*
X28941Y13841D01*
X28948Y13831D01*
X28957Y13822D01*
X28968Y13811D01*
X28981Y13800D01*
X28996Y13787D01*
X29031Y13763D01*
X29072Y13743D01*
X29094Y13733D01*
X29120Y13728D01*
X29146Y13724D01*
X29174Y13722D01*
X29185D01*
X29193Y13724D01*
X29215Y13726D01*
X29241Y13731D01*
X29270Y13743D01*
X29304Y13756D01*
X29337Y13776D01*
X29354Y13787D01*
X29368Y13802D01*
X29370Y13804D01*
X29372Y13806D01*
X29376Y13811D01*
X29381Y13817D01*
X29389Y13826D01*
X29396Y13835D01*
X29404Y13848D01*
X29413Y13863D01*
X29422Y13878D01*
X29431Y13896D01*
X29441Y13917D01*
X29448Y13937D01*
X29457Y13961D01*
X29465Y13987D01*
X29472Y14015D01*
X29478Y14044D01*
X29617Y14002D01*
Y14000D01*
X29615Y13993D01*
X29611Y13981D01*
X29607Y13967D01*
X29602Y13950D01*
X29596Y13930D01*
X29589Y13906D01*
X29580Y13881D01*
X29557Y13831D01*
X29530Y13778D01*
X29496Y13728D01*
X29476Y13704D01*
X29455Y13683D01*
X29454Y13681D01*
X29450Y13680D01*
X29444Y13674D01*
X29435Y13667D01*
X29424Y13659D01*
X29411Y13650D01*
X29394Y13641D01*
X29378Y13631D01*
X29359Y13622D01*
X29337Y13613D01*
X29291Y13596D01*
X29237Y13583D01*
X29207Y13581D01*
X29178Y13580D01*
X29163D01*
X29154Y13581D01*
X29141D01*
X29126Y13583D01*
X29093Y13589D01*
X29054Y13596D01*
X29013Y13609D01*
X28972Y13626D01*
X28931Y13648D01*
X28930D01*
X28928Y13652D01*
X28922Y13656D01*
X28915Y13661D01*
X28896Y13678D01*
X28872Y13704D01*
X28859Y13719D01*
X28846Y13735D01*
X28831Y13754D01*
X28819Y13774D01*
X28804Y13796D01*
X28791Y13820D01*
X28778Y13846D01*
X28765Y13874D01*
Y13876D01*
X28763Y13881D01*
X28759Y13891D01*
X28756Y13902D01*
X28750Y13917D01*
X28744Y13935D01*
X28739Y13956D01*
X28733Y13978D01*
X28726Y14004D01*
X28720Y14031D01*
X28715Y14063D01*
X28711Y14094D01*
X28706Y14128D01*
X28704Y14165D01*
X28700Y14241D01*
Y14243D01*
Y14250D01*
Y14261D01*
X28702Y14276D01*
Y14294D01*
X28704Y14315D01*
X28706Y14339D01*
X28707Y14363D01*
X28717Y14418D01*
X28728Y14478D01*
X28743Y14537D01*
X28765Y14594D01*
Y14596D01*
X28769Y14600D01*
X28772Y14607D01*
X28776Y14618D01*
X28783Y14630D01*
X28791Y14644D01*
X28811Y14676D01*
X28837Y14711D01*
X28867Y14748D01*
X28902Y14781D01*
X28941Y14813D01*
X28943D01*
X28946Y14817D01*
X28952Y14820D01*
X28961Y14824D01*
X28970Y14830D01*
X28983Y14837D01*
X28998Y14842D01*
X29013Y14850D01*
X29050Y14863D01*
X29093Y14876D01*
X29139Y14883D01*
X29189Y14887D01*
X29204D01*
X29215Y14885D01*
D02*
G37*
G36*
X30415Y14726D02*
X30413Y14724D01*
X30407Y14717D01*
X30400Y14705D01*
X30389Y14691D01*
X30376Y14672D01*
X30361Y14648D01*
X30344Y14620D01*
X30326Y14589D01*
X30305Y14555D01*
X30285Y14517D01*
X30263Y14474D01*
X30241Y14430D01*
X30217Y14381D01*
X30194Y14330D01*
X30172Y14276D01*
X30150Y14218D01*
X30148Y14215D01*
X30144Y14204D01*
X30139Y14187D01*
X30131Y14165D01*
X30124Y14137D01*
X30113Y14104D01*
X30102Y14065D01*
X30091Y14024D01*
X30079Y13978D01*
X30068Y13930D01*
X30057Y13880D01*
X30048Y13826D01*
X30031Y13715D01*
X30024Y13657D01*
X30020Y13600D01*
X29889D01*
Y13602D01*
Y13607D01*
Y13617D01*
X29891Y13628D01*
Y13643D01*
X29892Y13661D01*
X29894Y13681D01*
X29896Y13706D01*
X29898Y13731D01*
X29902Y13759D01*
X29905Y13789D01*
X29909Y13822D01*
X29915Y13856D01*
X29922Y13893D01*
X29937Y13968D01*
Y13970D01*
X29939Y13978D01*
X29942Y13989D01*
X29946Y14004D01*
X29950Y14024D01*
X29957Y14046D01*
X29963Y14070D01*
X29972Y14098D01*
X29979Y14128D01*
X29991Y14159D01*
X30013Y14228D01*
X30039Y14298D01*
X30068Y14370D01*
X30070Y14372D01*
X30072Y14380D01*
X30078Y14389D01*
X30083Y14402D01*
X30091Y14418D01*
X30100Y14439D01*
X30111Y14459D01*
X30124Y14483D01*
X30150Y14535D01*
X30181Y14591D01*
X30215Y14644D01*
X30250Y14698D01*
X29744D01*
Y14848D01*
X30415D01*
Y14726D01*
D02*
G37*
G36*
X33122Y1813D02*
X33135D01*
X33167Y1809D01*
X33202Y1804D01*
X33241Y1794D01*
X33282Y1783D01*
X33320Y1768D01*
X33322D01*
X33324Y1766D01*
X33330Y1763D01*
X33337Y1761D01*
X33356Y1750D01*
X33378Y1737D01*
X33402Y1718D01*
X33428Y1698D01*
X33452Y1674D01*
X33472Y1648D01*
X33474Y1644D01*
X33480Y1635D01*
X33487Y1620D01*
X33496Y1602D01*
X33506Y1578D01*
X33513Y1550D01*
X33519Y1520D01*
X33520Y1489D01*
Y1481D01*
X33519Y1474D01*
Y1463D01*
X33517Y1450D01*
X33513Y1433D01*
X33502Y1398D01*
X33494Y1378D01*
X33485Y1355D01*
X33474Y1335D01*
X33461Y1313D01*
X33444Y1291D01*
X33426Y1270D01*
X33404Y1250D01*
X33380Y1230D01*
X33378Y1228D01*
X33372Y1226D01*
X33365Y1220D01*
X33352Y1215D01*
X33337Y1207D01*
X33317Y1198D01*
X33294Y1189D01*
X33269Y1180D01*
X33237Y1170D01*
X33202Y1161D01*
X33163Y1154D01*
X33120Y1144D01*
X33074Y1139D01*
X33022Y1133D01*
X32967Y1131D01*
X32907Y1130D01*
X32906D01*
X32904D01*
X32898D01*
X32891D01*
X32872D01*
X32848Y1131D01*
X32819Y1133D01*
X32783Y1135D01*
X32746Y1139D01*
X32706Y1142D01*
X32620Y1155D01*
X32533Y1174D01*
X32493Y1185D01*
X32454Y1200D01*
X32419Y1215D01*
X32387Y1233D01*
X32385Y1235D01*
X32380Y1239D01*
X32372Y1244D01*
X32363Y1252D01*
X32350Y1263D01*
X32337Y1274D01*
X32322Y1289D01*
X32308Y1305D01*
X32295Y1324D01*
X32280Y1344D01*
X32254Y1389D01*
X32245Y1415D01*
X32237Y1442D01*
X32232Y1470D01*
X32230Y1500D01*
Y1511D01*
X32232Y1520D01*
Y1529D01*
X32233Y1542D01*
X32239Y1568D01*
X32250Y1600D01*
X32265Y1633D01*
X32283Y1667D01*
X32296Y1683D01*
X32311Y1698D01*
Y1700D01*
X32315Y1702D01*
X32320Y1705D01*
X32326Y1711D01*
X32345Y1724D01*
X32370Y1741D01*
X32404Y1757D01*
X32445Y1774D01*
X32491Y1787D01*
X32545Y1796D01*
X32557Y1670D01*
X32556D01*
X32554D01*
X32541Y1667D01*
X32524Y1663D01*
X32504Y1657D01*
X32482Y1650D01*
X32458Y1641D01*
X32437Y1629D01*
X32419Y1617D01*
X32417Y1615D01*
X32409Y1607D01*
X32400Y1596D01*
X32387Y1581D01*
X32376Y1563D01*
X32367Y1542D01*
X32359Y1518D01*
X32358Y1492D01*
Y1481D01*
X32359Y1474D01*
X32365Y1454D01*
X32374Y1429D01*
X32382Y1415D01*
X32391Y1400D01*
X32402Y1385D01*
X32417Y1370D01*
X32432Y1355D01*
X32450Y1341D01*
X32472Y1328D01*
X32496Y1315D01*
X32498D01*
X32502Y1313D01*
X32509Y1309D01*
X32519Y1305D01*
X32532Y1302D01*
X32546Y1296D01*
X32565Y1291D01*
X32585Y1285D01*
X32607Y1280D01*
X32633Y1274D01*
X32663Y1268D01*
X32695Y1265D01*
X32730Y1261D01*
X32767Y1257D01*
X32806Y1255D01*
X32846D01*
X32845Y1257D01*
X32835Y1263D01*
X32820Y1272D01*
X32802Y1285D01*
X32782Y1302D01*
X32761Y1320D01*
X32741Y1341D01*
X32724Y1365D01*
X32722Y1368D01*
X32717Y1376D01*
X32709Y1391D01*
X32702Y1407D01*
X32695Y1429D01*
X32687Y1454D01*
X32682Y1479D01*
X32680Y1507D01*
Y1518D01*
X32682Y1528D01*
X32683Y1539D01*
X32685Y1552D01*
X32695Y1579D01*
X32707Y1613D01*
X32717Y1631D01*
X32728Y1650D01*
X32741Y1668D01*
X32756Y1687D01*
X32772Y1704D01*
X32793Y1722D01*
X32795Y1724D01*
X32798Y1726D01*
X32804Y1731D01*
X32813Y1737D01*
X32824Y1744D01*
X32837Y1752D01*
X32854Y1759D01*
X32872Y1768D01*
X32893Y1778D01*
X32915Y1785D01*
X32939Y1792D01*
X32965Y1800D01*
X32994Y1805D01*
X33024Y1811D01*
X33057Y1813D01*
X33091Y1815D01*
X33093D01*
X33096D01*
X33104D01*
X33111D01*
X33122Y1813D01*
D02*
G37*
G36*
X33107Y1015D02*
X33119Y1011D01*
X33133Y1007D01*
X33150Y1002D01*
X33170Y996D01*
X33194Y989D01*
X33219Y980D01*
X33269Y957D01*
X33322Y930D01*
X33372Y896D01*
X33396Y876D01*
X33417Y855D01*
X33419Y854D01*
X33420Y850D01*
X33426Y844D01*
X33433Y835D01*
X33441Y824D01*
X33450Y811D01*
X33459Y794D01*
X33469Y778D01*
X33478Y759D01*
X33487Y737D01*
X33504Y691D01*
X33517Y637D01*
X33519Y607D01*
X33520Y578D01*
Y563D01*
X33519Y554D01*
Y541D01*
X33517Y526D01*
X33511Y493D01*
X33504Y454D01*
X33491Y413D01*
X33474Y372D01*
X33452Y331D01*
Y330D01*
X33448Y328D01*
X33444Y322D01*
X33439Y315D01*
X33422Y296D01*
X33396Y272D01*
X33381Y259D01*
X33365Y246D01*
X33346Y231D01*
X33326Y219D01*
X33304Y204D01*
X33280Y191D01*
X33254Y178D01*
X33226Y165D01*
X33224D01*
X33219Y163D01*
X33209Y159D01*
X33198Y156D01*
X33183Y150D01*
X33165Y144D01*
X33144Y139D01*
X33122Y133D01*
X33096Y126D01*
X33069Y120D01*
X33037Y115D01*
X33006Y111D01*
X32972Y106D01*
X32935Y104D01*
X32859Y100D01*
X32857D01*
X32850D01*
X32839D01*
X32824Y102D01*
X32806D01*
X32785Y104D01*
X32761Y106D01*
X32737Y107D01*
X32682Y117D01*
X32622Y128D01*
X32563Y143D01*
X32506Y165D01*
X32504D01*
X32500Y169D01*
X32493Y172D01*
X32482Y176D01*
X32470Y183D01*
X32456Y191D01*
X32424Y211D01*
X32389Y237D01*
X32352Y267D01*
X32319Y302D01*
X32287Y341D01*
Y343D01*
X32283Y346D01*
X32280Y352D01*
X32276Y361D01*
X32271Y370D01*
X32263Y383D01*
X32258Y398D01*
X32250Y413D01*
X32237Y450D01*
X32224Y493D01*
X32217Y539D01*
X32213Y589D01*
Y604D01*
X32215Y615D01*
X32217Y628D01*
X32219Y643D01*
X32224Y678D01*
X32235Y718D01*
X32252Y763D01*
X32263Y785D01*
X32276Y805D01*
X32291Y828D01*
X32308Y848D01*
X32309Y850D01*
X32311Y854D01*
X32317Y859D01*
X32324Y865D01*
X32335Y874D01*
X32346Y885D01*
X32359Y896D01*
X32376Y907D01*
X32395Y920D01*
X32415Y933D01*
X32437Y944D01*
X32461Y957D01*
X32487Y970D01*
X32517Y981D01*
X32546Y991D01*
X32580Y1000D01*
X32619Y865D01*
X32615D01*
X32607Y861D01*
X32595Y857D01*
X32578Y850D01*
X32557Y843D01*
X32535Y831D01*
X32511Y818D01*
X32487Y804D01*
X32463Y787D01*
X32439Y767D01*
X32417Y743D01*
X32396Y718D01*
X32380Y689D01*
X32367Y659D01*
X32359Y624D01*
X32356Y587D01*
Y570D01*
X32358Y550D01*
X32363Y526D01*
X32369Y498D01*
X32378Y467D01*
X32391Y437D01*
X32409Y407D01*
X32411Y404D01*
X32419Y394D01*
X32432Y381D01*
X32450Y363D01*
X32474Y344D01*
X32502Y324D01*
X32537Y304D01*
X32576Y285D01*
X32578D01*
X32582Y283D01*
X32587Y281D01*
X32596Y278D01*
X32607Y274D01*
X32620Y270D01*
X32635Y267D01*
X32654Y263D01*
X32672Y259D01*
X32695Y256D01*
X32717Y252D01*
X32743Y248D01*
X32798Y243D01*
X32859Y241D01*
X32863D01*
X32870D01*
X32883D01*
X32902Y243D01*
X32924Y244D01*
X32948Y246D01*
X32976Y248D01*
X33006Y252D01*
X33069Y263D01*
X33133Y280D01*
X33165Y289D01*
X33194Y302D01*
X33222Y315D01*
X33248Y331D01*
X33250Y333D01*
X33254Y335D01*
X33259Y341D01*
X33269Y348D01*
X33278Y357D01*
X33289Y368D01*
X33300Y381D01*
X33313Y396D01*
X33337Y431D01*
X33357Y472D01*
X33367Y494D01*
X33372Y520D01*
X33376Y546D01*
X33378Y574D01*
Y585D01*
X33376Y593D01*
X33374Y615D01*
X33369Y641D01*
X33357Y670D01*
X33344Y704D01*
X33324Y737D01*
X33313Y754D01*
X33298Y768D01*
X33296Y770D01*
X33294Y772D01*
X33289Y776D01*
X33283Y781D01*
X33274Y789D01*
X33265Y796D01*
X33252Y804D01*
X33237Y813D01*
X33222Y822D01*
X33204Y831D01*
X33183Y841D01*
X33163Y848D01*
X33139Y857D01*
X33113Y865D01*
X33085Y872D01*
X33056Y878D01*
X33098Y1017D01*
X33100D01*
X33107Y1015D01*
D02*
G37*
G36*
X23504Y1920D02*
X23519Y1918D01*
X23537Y1916D01*
X23559Y1915D01*
X23582Y1911D01*
X23632Y1898D01*
X23683Y1881D01*
X23711Y1870D01*
X23737Y1857D01*
X23763Y1842D01*
X23789Y1826D01*
X23791Y1824D01*
X23794Y1822D01*
X23802Y1816D01*
X23809Y1809D01*
X23819Y1798D01*
X23830Y1787D01*
X23843Y1774D01*
X23854Y1757D01*
X23867Y1741D01*
X23880Y1720D01*
X23900Y1676D01*
X23907Y1652D01*
X23915Y1624D01*
X23919Y1596D01*
X23920Y1567D01*
Y1554D01*
X23919Y1544D01*
X23917Y1533D01*
X23915Y1520D01*
X23909Y1489D01*
X23898Y1452D01*
X23881Y1415D01*
X23870Y1394D01*
X23857Y1376D01*
X23844Y1357D01*
X23828Y1339D01*
X23826Y1337D01*
X23824Y1335D01*
X23819Y1330D01*
X23811Y1324D01*
X23800Y1317D01*
X23789Y1309D01*
X23776Y1300D01*
X23759Y1291D01*
X23743Y1281D01*
X23722Y1272D01*
X23702Y1265D01*
X23678Y1255D01*
X23626Y1242D01*
X23596Y1239D01*
X23567Y1235D01*
X23554Y1368D01*
X23556D01*
X23559D01*
X23565Y1370D01*
X23574Y1372D01*
X23596Y1376D01*
X23622Y1383D01*
X23652Y1392D01*
X23681Y1404D01*
X23711Y1418D01*
X23735Y1437D01*
X23737Y1439D01*
X23744Y1446D01*
X23754Y1459D01*
X23763Y1474D01*
X23774Y1492D01*
X23783Y1515D01*
X23791Y1539D01*
X23793Y1565D01*
Y1568D01*
X23791Y1579D01*
X23789Y1596D01*
X23781Y1618D01*
X23772Y1642D01*
X23757Y1668D01*
X23737Y1694D01*
X23726Y1707D01*
X23711Y1720D01*
X23709D01*
X23707Y1724D01*
X23702Y1726D01*
X23696Y1731D01*
X23678Y1741D01*
X23652Y1754D01*
X23619Y1766D01*
X23580Y1776D01*
X23535Y1783D01*
X23483Y1787D01*
X23482D01*
X23478D01*
X23470D01*
X23461Y1785D01*
X23450D01*
X23437Y1783D01*
X23406Y1779D01*
X23372Y1770D01*
X23337Y1759D01*
X23304Y1744D01*
X23274Y1722D01*
X23270Y1718D01*
X23263Y1711D01*
X23250Y1698D01*
X23235Y1679D01*
X23222Y1655D01*
X23209Y1629D01*
X23202Y1598D01*
X23198Y1565D01*
Y1555D01*
X23200Y1544D01*
X23202Y1529D01*
X23206Y1513D01*
X23213Y1494D01*
X23220Y1476D01*
X23232Y1455D01*
X23233Y1454D01*
X23237Y1448D01*
X23245Y1439D01*
X23254Y1428D01*
X23267Y1415D01*
X23283Y1402D01*
X23302Y1389D01*
X23322Y1378D01*
X23302Y1257D01*
X22652Y1359D01*
Y1872D01*
X22800D01*
Y1459D01*
X23141Y1404D01*
X23139Y1405D01*
X23137Y1407D01*
X23133Y1413D01*
X23128Y1420D01*
X23115Y1439D01*
X23100Y1463D01*
X23087Y1492D01*
X23074Y1524D01*
X23065Y1561D01*
X23061Y1579D01*
Y1611D01*
X23063Y1620D01*
X23065Y1631D01*
X23067Y1644D01*
X23074Y1676D01*
X23089Y1711D01*
X23096Y1729D01*
X23107Y1750D01*
X23120Y1768D01*
X23135Y1789D01*
X23152Y1807D01*
X23172Y1826D01*
X23174Y1828D01*
X23178Y1829D01*
X23183Y1835D01*
X23193Y1841D01*
X23204Y1848D01*
X23217Y1855D01*
X23233Y1865D01*
X23252Y1874D01*
X23272Y1883D01*
X23295Y1892D01*
X23319Y1900D01*
X23346Y1907D01*
X23374Y1913D01*
X23406Y1918D01*
X23437Y1920D01*
X23472Y1922D01*
X23474D01*
X23480D01*
X23491D01*
X23504Y1920D01*
D02*
G37*
G36*
X23507Y1115D02*
X23519Y1111D01*
X23533Y1107D01*
X23550Y1102D01*
X23570Y1096D01*
X23594Y1089D01*
X23619Y1080D01*
X23669Y1057D01*
X23722Y1030D01*
X23772Y996D01*
X23796Y976D01*
X23817Y955D01*
X23819Y954D01*
X23820Y950D01*
X23826Y944D01*
X23833Y935D01*
X23841Y924D01*
X23850Y911D01*
X23859Y894D01*
X23869Y878D01*
X23878Y859D01*
X23887Y837D01*
X23904Y791D01*
X23917Y737D01*
X23919Y707D01*
X23920Y678D01*
Y663D01*
X23919Y654D01*
Y641D01*
X23917Y626D01*
X23911Y593D01*
X23904Y554D01*
X23891Y513D01*
X23874Y472D01*
X23852Y431D01*
Y430D01*
X23848Y428D01*
X23844Y422D01*
X23839Y415D01*
X23822Y396D01*
X23796Y372D01*
X23781Y359D01*
X23765Y346D01*
X23746Y331D01*
X23726Y319D01*
X23704Y304D01*
X23680Y291D01*
X23654Y278D01*
X23626Y265D01*
X23624D01*
X23619Y263D01*
X23609Y259D01*
X23598Y256D01*
X23583Y250D01*
X23565Y244D01*
X23544Y239D01*
X23522Y233D01*
X23496Y226D01*
X23469Y220D01*
X23437Y215D01*
X23406Y211D01*
X23372Y206D01*
X23335Y204D01*
X23259Y200D01*
X23257D01*
X23250D01*
X23239D01*
X23224Y202D01*
X23206D01*
X23185Y204D01*
X23161Y206D01*
X23137Y207D01*
X23082Y217D01*
X23022Y228D01*
X22963Y243D01*
X22906Y265D01*
X22904D01*
X22900Y269D01*
X22893Y272D01*
X22882Y276D01*
X22870Y283D01*
X22856Y291D01*
X22824Y311D01*
X22789Y337D01*
X22752Y367D01*
X22719Y402D01*
X22687Y441D01*
Y443D01*
X22683Y446D01*
X22680Y452D01*
X22676Y461D01*
X22670Y470D01*
X22663Y483D01*
X22658Y498D01*
X22650Y513D01*
X22637Y550D01*
X22624Y593D01*
X22617Y639D01*
X22613Y689D01*
Y704D01*
X22615Y715D01*
X22617Y728D01*
X22619Y743D01*
X22624Y778D01*
X22635Y818D01*
X22652Y863D01*
X22663Y885D01*
X22676Y905D01*
X22691Y928D01*
X22708Y948D01*
X22709Y950D01*
X22711Y954D01*
X22717Y959D01*
X22724Y965D01*
X22735Y974D01*
X22746Y985D01*
X22759Y996D01*
X22776Y1007D01*
X22795Y1020D01*
X22815Y1033D01*
X22837Y1044D01*
X22861Y1057D01*
X22887Y1070D01*
X22917Y1081D01*
X22946Y1091D01*
X22980Y1100D01*
X23019Y965D01*
X23015D01*
X23007Y961D01*
X22995Y957D01*
X22978Y950D01*
X22958Y943D01*
X22935Y931D01*
X22911Y918D01*
X22887Y904D01*
X22863Y887D01*
X22839Y867D01*
X22817Y843D01*
X22796Y818D01*
X22780Y789D01*
X22767Y759D01*
X22759Y724D01*
X22756Y687D01*
Y670D01*
X22758Y650D01*
X22763Y626D01*
X22769Y598D01*
X22778Y567D01*
X22791Y537D01*
X22809Y507D01*
X22811Y504D01*
X22819Y494D01*
X22832Y481D01*
X22850Y463D01*
X22874Y444D01*
X22902Y424D01*
X22937Y404D01*
X22976Y385D01*
X22978D01*
X22982Y383D01*
X22987Y381D01*
X22996Y378D01*
X23007Y374D01*
X23020Y370D01*
X23035Y367D01*
X23054Y363D01*
X23072Y359D01*
X23095Y356D01*
X23117Y352D01*
X23143Y348D01*
X23198Y343D01*
X23259Y341D01*
X23263D01*
X23270D01*
X23283D01*
X23302Y343D01*
X23324Y344D01*
X23348Y346D01*
X23376Y348D01*
X23406Y352D01*
X23469Y363D01*
X23533Y380D01*
X23565Y389D01*
X23594Y402D01*
X23622Y415D01*
X23648Y431D01*
X23650Y433D01*
X23654Y435D01*
X23659Y441D01*
X23669Y448D01*
X23678Y457D01*
X23689Y468D01*
X23700Y481D01*
X23713Y496D01*
X23737Y531D01*
X23757Y572D01*
X23767Y594D01*
X23772Y620D01*
X23776Y646D01*
X23778Y674D01*
Y685D01*
X23776Y693D01*
X23774Y715D01*
X23769Y741D01*
X23757Y770D01*
X23744Y804D01*
X23724Y837D01*
X23713Y854D01*
X23698Y868D01*
X23696Y870D01*
X23694Y872D01*
X23689Y876D01*
X23683Y881D01*
X23674Y889D01*
X23665Y896D01*
X23652Y904D01*
X23637Y913D01*
X23622Y922D01*
X23604Y931D01*
X23583Y941D01*
X23563Y948D01*
X23539Y957D01*
X23513Y965D01*
X23485Y972D01*
X23456Y978D01*
X23498Y1117D01*
X23500D01*
X23507Y1115D01*
D02*
G37*
G36*
X25321Y9110D02*
X25625D01*
Y8984D01*
X25321D01*
Y8534D01*
X25179D01*
X24360Y9005D01*
Y9110D01*
X25179D01*
Y9251D01*
X25321D01*
Y9110D01*
D02*
G37*
G36*
X25232Y8455D02*
X25244Y8451D01*
X25258Y8447D01*
X25275Y8442D01*
X25295Y8436D01*
X25319Y8429D01*
X25344Y8420D01*
X25394Y8397D01*
X25447Y8370D01*
X25497Y8336D01*
X25521Y8316D01*
X25542Y8295D01*
X25544Y8294D01*
X25545Y8290D01*
X25551Y8284D01*
X25558Y8275D01*
X25566Y8264D01*
X25575Y8251D01*
X25584Y8234D01*
X25594Y8218D01*
X25603Y8199D01*
X25612Y8177D01*
X25629Y8131D01*
X25642Y8077D01*
X25644Y8047D01*
X25645Y8018D01*
Y8003D01*
X25644Y7994D01*
Y7981D01*
X25642Y7966D01*
X25636Y7933D01*
X25629Y7894D01*
X25616Y7853D01*
X25599Y7812D01*
X25577Y7771D01*
Y7770D01*
X25573Y7768D01*
X25569Y7762D01*
X25564Y7755D01*
X25547Y7736D01*
X25521Y7712D01*
X25506Y7699D01*
X25490Y7686D01*
X25471Y7671D01*
X25451Y7659D01*
X25429Y7644D01*
X25405Y7631D01*
X25379Y7618D01*
X25351Y7605D01*
X25349D01*
X25344Y7603D01*
X25334Y7599D01*
X25323Y7596D01*
X25308Y7590D01*
X25290Y7584D01*
X25269Y7579D01*
X25247Y7573D01*
X25221Y7566D01*
X25194Y7560D01*
X25162Y7555D01*
X25131Y7551D01*
X25097Y7546D01*
X25060Y7544D01*
X24984Y7540D01*
X24982D01*
X24975D01*
X24964D01*
X24949Y7542D01*
X24931D01*
X24910Y7544D01*
X24886Y7546D01*
X24862Y7547D01*
X24807Y7557D01*
X24747Y7568D01*
X24688Y7583D01*
X24631Y7605D01*
X24629D01*
X24625Y7609D01*
X24618Y7612D01*
X24607Y7616D01*
X24595Y7623D01*
X24581Y7631D01*
X24549Y7651D01*
X24514Y7677D01*
X24477Y7707D01*
X24444Y7742D01*
X24412Y7781D01*
Y7783D01*
X24408Y7786D01*
X24405Y7792D01*
X24401Y7801D01*
X24396Y7810D01*
X24388Y7823D01*
X24383Y7838D01*
X24375Y7853D01*
X24362Y7890D01*
X24349Y7933D01*
X24342Y7979D01*
X24338Y8029D01*
Y8044D01*
X24340Y8055D01*
X24342Y8068D01*
X24344Y8083D01*
X24349Y8118D01*
X24360Y8158D01*
X24377Y8203D01*
X24388Y8225D01*
X24401Y8245D01*
X24416Y8268D01*
X24433Y8288D01*
X24434Y8290D01*
X24436Y8294D01*
X24442Y8299D01*
X24449Y8305D01*
X24460Y8314D01*
X24471Y8325D01*
X24484Y8336D01*
X24501Y8347D01*
X24520Y8360D01*
X24540Y8373D01*
X24562Y8384D01*
X24586Y8397D01*
X24612Y8410D01*
X24642Y8421D01*
X24671Y8431D01*
X24705Y8440D01*
X24744Y8305D01*
X24740D01*
X24733Y8301D01*
X24720Y8297D01*
X24703Y8290D01*
X24683Y8283D01*
X24660Y8271D01*
X24636Y8258D01*
X24612Y8244D01*
X24588Y8227D01*
X24564Y8207D01*
X24542Y8183D01*
X24521Y8158D01*
X24505Y8129D01*
X24492Y8099D01*
X24484Y8064D01*
X24481Y8027D01*
Y8010D01*
X24483Y7990D01*
X24488Y7966D01*
X24494Y7938D01*
X24503Y7907D01*
X24516Y7877D01*
X24534Y7847D01*
X24536Y7844D01*
X24544Y7834D01*
X24557Y7821D01*
X24575Y7803D01*
X24599Y7784D01*
X24627Y7764D01*
X24662Y7744D01*
X24701Y7725D01*
X24703D01*
X24707Y7723D01*
X24712Y7721D01*
X24721Y7718D01*
X24733Y7714D01*
X24745Y7710D01*
X24760Y7707D01*
X24779Y7703D01*
X24797Y7699D01*
X24820Y7696D01*
X24842Y7692D01*
X24868Y7688D01*
X24923Y7683D01*
X24984Y7681D01*
X24988D01*
X24995D01*
X25008D01*
X25027Y7683D01*
X25049Y7684D01*
X25073Y7686D01*
X25101Y7688D01*
X25131Y7692D01*
X25194Y7703D01*
X25258Y7720D01*
X25290Y7729D01*
X25319Y7742D01*
X25347Y7755D01*
X25373Y7771D01*
X25375Y7773D01*
X25379Y7775D01*
X25384Y7781D01*
X25394Y7788D01*
X25403Y7797D01*
X25414Y7808D01*
X25425Y7821D01*
X25438Y7836D01*
X25462Y7871D01*
X25482Y7912D01*
X25492Y7934D01*
X25497Y7960D01*
X25501Y7986D01*
X25503Y8014D01*
Y8025D01*
X25501Y8033D01*
X25499Y8055D01*
X25494Y8081D01*
X25482Y8110D01*
X25469Y8144D01*
X25449Y8177D01*
X25438Y8194D01*
X25423Y8208D01*
X25421Y8210D01*
X25419Y8212D01*
X25414Y8216D01*
X25408Y8221D01*
X25399Y8229D01*
X25390Y8236D01*
X25377Y8244D01*
X25362Y8253D01*
X25347Y8262D01*
X25329Y8271D01*
X25308Y8281D01*
X25288Y8288D01*
X25264Y8297D01*
X25238Y8305D01*
X25210Y8312D01*
X25181Y8318D01*
X25223Y8457D01*
X25225D01*
X25232Y8455D01*
D02*
G37*
G36*
X21656Y2013D02*
X21670Y2011D01*
X21687Y2009D01*
X21706Y2005D01*
X21726Y2002D01*
X21772Y1989D01*
X21820Y1970D01*
X21843Y1959D01*
X21867Y1946D01*
X21889Y1929D01*
X21911Y1911D01*
X21913Y1909D01*
X21917Y1907D01*
X21920Y1900D01*
X21928Y1892D01*
X21937Y1883D01*
X21946Y1872D01*
X21956Y1857D01*
X21965Y1842D01*
X21985Y1805D01*
X22004Y1765D01*
X22011Y1741D01*
X22015Y1717D01*
X22019Y1691D01*
X22020Y1665D01*
Y1652D01*
X22019Y1642D01*
X22017Y1631D01*
X22015Y1618D01*
X22007Y1587D01*
X21996Y1552D01*
X21980Y1513D01*
X21969Y1494D01*
X21956Y1476D01*
X21941Y1457D01*
X21924Y1439D01*
X21922Y1437D01*
X21920Y1435D01*
X21915Y1430D01*
X21906Y1424D01*
X21896Y1417D01*
X21885Y1409D01*
X21870Y1402D01*
X21856Y1392D01*
X21837Y1383D01*
X21819Y1374D01*
X21774Y1357D01*
X21722Y1342D01*
X21665Y1335D01*
X21644Y1461D01*
X21646D01*
X21656Y1463D01*
X21667Y1467D01*
X21683Y1470D01*
X21702Y1476D01*
X21722Y1481D01*
X21744Y1491D01*
X21769Y1502D01*
X21791Y1513D01*
X21815Y1528D01*
X21835Y1544D01*
X21854Y1563D01*
X21870Y1583D01*
X21881Y1607D01*
X21889Y1633D01*
X21893Y1663D01*
Y1667D01*
X21891Y1678D01*
X21889Y1694D01*
X21883Y1715D01*
X21874Y1739D01*
X21863Y1763D01*
X21844Y1789D01*
X21820Y1815D01*
X21817Y1818D01*
X21807Y1826D01*
X21791Y1835D01*
X21769Y1848D01*
X21741Y1859D01*
X21709Y1870D01*
X21670Y1878D01*
X21630Y1879D01*
X21628D01*
X21624D01*
X21619D01*
X21611D01*
X21591Y1876D01*
X21565Y1872D01*
X21537Y1865D01*
X21507Y1855D01*
X21478Y1841D01*
X21452Y1820D01*
X21448Y1818D01*
X21441Y1809D01*
X21430Y1796D01*
X21417Y1779D01*
X21406Y1759D01*
X21395Y1735D01*
X21387Y1707D01*
X21383Y1676D01*
Y1661D01*
X21385Y1652D01*
X21387Y1639D01*
X21391Y1622D01*
X21396Y1605D01*
X21402Y1587D01*
X21265Y1602D01*
X21267Y1620D01*
Y1624D01*
X21265Y1637D01*
X21263Y1654D01*
X21259Y1676D01*
X21252Y1700D01*
X21243Y1726D01*
X21228Y1750D01*
X21209Y1774D01*
X21207Y1776D01*
X21198Y1783D01*
X21185Y1792D01*
X21169Y1804D01*
X21146Y1815D01*
X21120Y1824D01*
X21089Y1831D01*
X21056Y1833D01*
X21054D01*
X21052D01*
X21041D01*
X21024Y1831D01*
X21004Y1828D01*
X20982Y1820D01*
X20958Y1813D01*
X20935Y1800D01*
X20913Y1783D01*
X20911Y1781D01*
X20904Y1774D01*
X20895Y1763D01*
X20885Y1750D01*
X20874Y1731D01*
X20867Y1711D01*
X20859Y1689D01*
X20858Y1663D01*
Y1650D01*
X20861Y1637D01*
X20865Y1620D01*
X20872Y1600D01*
X20882Y1578D01*
X20896Y1557D01*
X20915Y1537D01*
X20917Y1535D01*
X20926Y1530D01*
X20939Y1520D01*
X20958Y1511D01*
X20982Y1500D01*
X21011Y1489D01*
X21046Y1481D01*
X21085Y1474D01*
X21058Y1348D01*
X21056D01*
X21050Y1350D01*
X21043Y1352D01*
X21032Y1354D01*
X21017Y1355D01*
X21002Y1361D01*
X20967Y1370D01*
X20928Y1385D01*
X20887Y1404D01*
X20848Y1428D01*
X20813Y1455D01*
X20811Y1457D01*
X20809Y1459D01*
X20800Y1470D01*
X20787Y1489D01*
X20771Y1513D01*
X20756Y1542D01*
X20743Y1578D01*
X20733Y1618D01*
X20730Y1639D01*
Y1674D01*
X20732Y1681D01*
X20733Y1692D01*
X20735Y1705D01*
X20741Y1735D01*
X20752Y1768D01*
X20769Y1805D01*
X20780Y1824D01*
X20793Y1841D01*
X20808Y1859D01*
X20824Y1876D01*
X20826Y1878D01*
X20828Y1879D01*
X20833Y1883D01*
X20841Y1891D01*
X20850Y1896D01*
X20861Y1904D01*
X20887Y1920D01*
X20922Y1937D01*
X20961Y1952D01*
X21008Y1961D01*
X21032Y1963D01*
X21058Y1965D01*
X21059D01*
X21061D01*
X21072D01*
X21089Y1963D01*
X21109Y1959D01*
X21133Y1955D01*
X21159Y1948D01*
X21185Y1939D01*
X21211Y1926D01*
X21215Y1924D01*
X21222Y1918D01*
X21233Y1911D01*
X21248Y1898D01*
X21265Y1883D01*
X21282Y1867D01*
X21300Y1844D01*
X21315Y1820D01*
Y1824D01*
X21319Y1831D01*
X21322Y1842D01*
X21328Y1857D01*
X21335Y1874D01*
X21346Y1891D01*
X21357Y1907D01*
X21372Y1924D01*
X21374Y1926D01*
X21380Y1931D01*
X21389Y1939D01*
X21400Y1948D01*
X21415Y1957D01*
X21433Y1968D01*
X21454Y1979D01*
X21478Y1989D01*
X21482Y1991D01*
X21489Y1992D01*
X21504Y1996D01*
X21520Y2002D01*
X21543Y2007D01*
X21569Y2011D01*
X21596Y2013D01*
X21626Y2015D01*
X21628D01*
X21633D01*
X21643D01*
X21656Y2013D01*
D02*
G37*
G36*
X21607Y1215D02*
X21619Y1211D01*
X21633Y1207D01*
X21650Y1202D01*
X21670Y1196D01*
X21694Y1189D01*
X21719Y1180D01*
X21769Y1157D01*
X21822Y1130D01*
X21872Y1096D01*
X21896Y1076D01*
X21917Y1055D01*
X21919Y1054D01*
X21920Y1050D01*
X21926Y1044D01*
X21933Y1035D01*
X21941Y1024D01*
X21950Y1011D01*
X21959Y994D01*
X21969Y978D01*
X21978Y959D01*
X21987Y937D01*
X22004Y891D01*
X22017Y837D01*
X22019Y807D01*
X22020Y778D01*
Y763D01*
X22019Y754D01*
Y741D01*
X22017Y726D01*
X22011Y693D01*
X22004Y654D01*
X21991Y613D01*
X21974Y572D01*
X21952Y531D01*
Y530D01*
X21948Y528D01*
X21944Y522D01*
X21939Y515D01*
X21922Y496D01*
X21896Y472D01*
X21881Y459D01*
X21865Y446D01*
X21846Y431D01*
X21826Y419D01*
X21804Y404D01*
X21780Y391D01*
X21754Y378D01*
X21726Y365D01*
X21724D01*
X21719Y363D01*
X21709Y359D01*
X21698Y356D01*
X21683Y350D01*
X21665Y344D01*
X21644Y339D01*
X21622Y333D01*
X21596Y326D01*
X21569Y320D01*
X21537Y315D01*
X21506Y311D01*
X21472Y306D01*
X21435Y304D01*
X21359Y300D01*
X21357D01*
X21350D01*
X21339D01*
X21324Y302D01*
X21306D01*
X21285Y304D01*
X21261Y306D01*
X21237Y307D01*
X21182Y317D01*
X21122Y328D01*
X21063Y343D01*
X21006Y365D01*
X21004D01*
X21000Y369D01*
X20993Y372D01*
X20982Y376D01*
X20970Y383D01*
X20956Y391D01*
X20924Y411D01*
X20889Y437D01*
X20852Y467D01*
X20819Y502D01*
X20787Y541D01*
Y543D01*
X20783Y546D01*
X20780Y552D01*
X20776Y561D01*
X20771Y570D01*
X20763Y583D01*
X20758Y598D01*
X20750Y613D01*
X20737Y650D01*
X20724Y693D01*
X20717Y739D01*
X20713Y789D01*
Y804D01*
X20715Y815D01*
X20717Y828D01*
X20719Y843D01*
X20724Y878D01*
X20735Y918D01*
X20752Y963D01*
X20763Y985D01*
X20776Y1005D01*
X20791Y1028D01*
X20808Y1048D01*
X20809Y1050D01*
X20811Y1054D01*
X20817Y1059D01*
X20824Y1065D01*
X20835Y1074D01*
X20846Y1085D01*
X20859Y1096D01*
X20876Y1107D01*
X20895Y1120D01*
X20915Y1133D01*
X20937Y1144D01*
X20961Y1157D01*
X20987Y1170D01*
X21017Y1181D01*
X21046Y1191D01*
X21080Y1200D01*
X21119Y1065D01*
X21115D01*
X21108Y1061D01*
X21095Y1057D01*
X21078Y1050D01*
X21058Y1043D01*
X21035Y1031D01*
X21011Y1018D01*
X20987Y1004D01*
X20963Y987D01*
X20939Y967D01*
X20917Y943D01*
X20896Y918D01*
X20880Y889D01*
X20867Y859D01*
X20859Y824D01*
X20856Y787D01*
Y770D01*
X20858Y750D01*
X20863Y726D01*
X20869Y698D01*
X20878Y667D01*
X20891Y637D01*
X20909Y607D01*
X20911Y604D01*
X20919Y594D01*
X20932Y581D01*
X20950Y563D01*
X20974Y544D01*
X21002Y524D01*
X21037Y504D01*
X21076Y485D01*
X21078D01*
X21082Y483D01*
X21087Y481D01*
X21096Y478D01*
X21108Y474D01*
X21120Y470D01*
X21135Y467D01*
X21154Y463D01*
X21172Y459D01*
X21195Y456D01*
X21217Y452D01*
X21243Y448D01*
X21298Y443D01*
X21359Y441D01*
X21363D01*
X21370D01*
X21383D01*
X21402Y443D01*
X21424Y444D01*
X21448Y446D01*
X21476Y448D01*
X21506Y452D01*
X21569Y463D01*
X21633Y480D01*
X21665Y489D01*
X21694Y502D01*
X21722Y515D01*
X21748Y531D01*
X21750Y533D01*
X21754Y535D01*
X21759Y541D01*
X21769Y548D01*
X21778Y557D01*
X21789Y568D01*
X21800Y581D01*
X21813Y596D01*
X21837Y631D01*
X21857Y672D01*
X21867Y694D01*
X21872Y720D01*
X21876Y746D01*
X21878Y774D01*
Y785D01*
X21876Y793D01*
X21874Y815D01*
X21869Y841D01*
X21857Y870D01*
X21844Y904D01*
X21824Y937D01*
X21813Y954D01*
X21798Y968D01*
X21796Y970D01*
X21794Y972D01*
X21789Y976D01*
X21783Y981D01*
X21774Y989D01*
X21765Y996D01*
X21752Y1004D01*
X21737Y1013D01*
X21722Y1022D01*
X21704Y1031D01*
X21683Y1041D01*
X21663Y1048D01*
X21639Y1057D01*
X21613Y1065D01*
X21585Y1072D01*
X21556Y1078D01*
X21598Y1217D01*
X21600D01*
X21607Y1215D01*
D02*
G37*
G36*
X40500Y3420D02*
X40498D01*
X40496D01*
X40491D01*
X40483D01*
X40465Y3422D01*
X40441Y3426D01*
X40411Y3431D01*
X40376Y3441D01*
X40339Y3455D01*
X40298Y3474D01*
X40296D01*
X40293Y3478D01*
X40287Y3480D01*
X40278Y3485D01*
X40267Y3492D01*
X40254Y3500D01*
X40239Y3511D01*
X40222Y3522D01*
X40204Y3535D01*
X40183Y3550D01*
X40161Y3568D01*
X40139Y3587D01*
X40115Y3609D01*
X40089Y3631D01*
X40061Y3657D01*
X40033Y3685D01*
X40032Y3687D01*
X40026Y3692D01*
X40017Y3702D01*
X40004Y3715D01*
X39989Y3728D01*
X39972Y3744D01*
X39952Y3763D01*
X39932Y3781D01*
X39887Y3822D01*
X39841Y3861D01*
X39819Y3878D01*
X39796Y3894D01*
X39776Y3909D01*
X39757Y3920D01*
X39756D01*
X39754Y3922D01*
X39748Y3926D01*
X39741Y3929D01*
X39722Y3939D01*
X39698Y3950D01*
X39670Y3959D01*
X39641Y3968D01*
X39607Y3976D01*
X39576Y3978D01*
X39574D01*
X39572D01*
X39567D01*
X39559D01*
X39543Y3974D01*
X39520Y3970D01*
X39495Y3963D01*
X39469Y3954D01*
X39443Y3939D01*
X39419Y3920D01*
X39417Y3918D01*
X39409Y3909D01*
X39400Y3898D01*
X39387Y3881D01*
X39376Y3861D01*
X39367Y3837D01*
X39359Y3809D01*
X39358Y3779D01*
Y3776D01*
X39359Y3765D01*
X39361Y3748D01*
X39365Y3728D01*
X39374Y3705D01*
X39385Y3680D01*
X39402Y3655D01*
X39424Y3633D01*
X39428Y3631D01*
X39437Y3624D01*
X39452Y3615D01*
X39472Y3605D01*
X39500Y3594D01*
X39532Y3585D01*
X39570Y3578D01*
X39613Y3576D01*
X39596Y3444D01*
X39595D01*
X39589D01*
X39580Y3446D01*
X39567Y3448D01*
X39552Y3450D01*
X39533Y3454D01*
X39515Y3457D01*
X39495Y3463D01*
X39450Y3476D01*
X39404Y3492D01*
X39361Y3517D01*
X39341Y3531D01*
X39322Y3546D01*
X39320Y3548D01*
X39319Y3550D01*
X39313Y3555D01*
X39308Y3563D01*
X39300Y3572D01*
X39293Y3583D01*
X39276Y3609D01*
X39259Y3644D01*
X39245Y3683D01*
X39233Y3729D01*
X39232Y3755D01*
X39230Y3781D01*
Y3796D01*
X39232Y3807D01*
X39233Y3820D01*
X39235Y3837D01*
X39243Y3872D01*
X39256Y3911D01*
X39265Y3929D01*
X39274Y3950D01*
X39287Y3970D01*
X39302Y3989D01*
X39319Y4005D01*
X39337Y4022D01*
X39339Y4024D01*
X39343Y4026D01*
X39348Y4029D01*
X39356Y4035D01*
X39367Y4041D01*
X39378Y4048D01*
X39408Y4065D01*
X39445Y4079D01*
X39485Y4092D01*
X39532Y4102D01*
X39556Y4105D01*
X39582D01*
X39583D01*
X39587D01*
X39593D01*
X39602Y4104D01*
X39613D01*
X39626Y4102D01*
X39656Y4098D01*
X39691Y4089D01*
X39730Y4078D01*
X39770Y4063D01*
X39813Y4041D01*
X39815D01*
X39819Y4037D01*
X39824Y4033D01*
X39833Y4028D01*
X39845Y4020D01*
X39857Y4011D01*
X39872Y4000D01*
X39891Y3987D01*
X39911Y3972D01*
X39933Y3954D01*
X39957Y3933D01*
X39983Y3911D01*
X40011Y3887D01*
X40041Y3861D01*
X40074Y3829D01*
X40107Y3798D01*
X40109Y3796D01*
X40113Y3792D01*
X40119Y3787D01*
X40126Y3779D01*
X40146Y3761D01*
X40170Y3737D01*
X40198Y3713D01*
X40224Y3689D01*
X40248Y3668D01*
X40257Y3659D01*
X40267Y3652D01*
X40269Y3650D01*
X40274Y3646D01*
X40282Y3641D01*
X40293Y3633D01*
X40306Y3624D01*
X40320Y3615D01*
X40350Y3598D01*
Y4107D01*
X40500D01*
Y3420D01*
D02*
G37*
G36*
X40107Y3315D02*
X40119Y3311D01*
X40133Y3307D01*
X40150Y3302D01*
X40170Y3296D01*
X40194Y3289D01*
X40219Y3280D01*
X40269Y3257D01*
X40322Y3230D01*
X40372Y3196D01*
X40396Y3176D01*
X40417Y3155D01*
X40419Y3154D01*
X40420Y3150D01*
X40426Y3144D01*
X40433Y3135D01*
X40441Y3124D01*
X40450Y3111D01*
X40459Y3094D01*
X40469Y3078D01*
X40478Y3059D01*
X40487Y3037D01*
X40504Y2991D01*
X40517Y2937D01*
X40519Y2907D01*
X40520Y2878D01*
Y2863D01*
X40519Y2854D01*
Y2841D01*
X40517Y2826D01*
X40511Y2793D01*
X40504Y2754D01*
X40491Y2713D01*
X40474Y2672D01*
X40452Y2631D01*
Y2630D01*
X40448Y2628D01*
X40444Y2622D01*
X40439Y2615D01*
X40422Y2596D01*
X40396Y2572D01*
X40381Y2559D01*
X40365Y2546D01*
X40346Y2531D01*
X40326Y2519D01*
X40304Y2504D01*
X40280Y2491D01*
X40254Y2478D01*
X40226Y2465D01*
X40224D01*
X40219Y2463D01*
X40209Y2459D01*
X40198Y2456D01*
X40183Y2450D01*
X40165Y2444D01*
X40144Y2439D01*
X40122Y2433D01*
X40096Y2426D01*
X40069Y2420D01*
X40037Y2415D01*
X40006Y2411D01*
X39972Y2406D01*
X39935Y2404D01*
X39859Y2400D01*
X39857D01*
X39850D01*
X39839D01*
X39824Y2402D01*
X39806D01*
X39785Y2404D01*
X39761Y2406D01*
X39737Y2407D01*
X39682Y2417D01*
X39622Y2428D01*
X39563Y2443D01*
X39506Y2465D01*
X39504D01*
X39500Y2469D01*
X39493Y2472D01*
X39482Y2476D01*
X39470Y2483D01*
X39456Y2491D01*
X39424Y2511D01*
X39389Y2537D01*
X39352Y2567D01*
X39319Y2602D01*
X39287Y2641D01*
Y2643D01*
X39283Y2646D01*
X39280Y2652D01*
X39276Y2661D01*
X39271Y2670D01*
X39263Y2683D01*
X39258Y2698D01*
X39250Y2713D01*
X39237Y2750D01*
X39224Y2793D01*
X39217Y2839D01*
X39213Y2889D01*
Y2904D01*
X39215Y2915D01*
X39217Y2928D01*
X39219Y2943D01*
X39224Y2978D01*
X39235Y3018D01*
X39252Y3063D01*
X39263Y3085D01*
X39276Y3105D01*
X39291Y3128D01*
X39308Y3148D01*
X39309Y3150D01*
X39311Y3154D01*
X39317Y3159D01*
X39324Y3165D01*
X39335Y3174D01*
X39346Y3185D01*
X39359Y3196D01*
X39376Y3207D01*
X39395Y3220D01*
X39415Y3233D01*
X39437Y3244D01*
X39461Y3257D01*
X39487Y3270D01*
X39517Y3281D01*
X39546Y3291D01*
X39580Y3300D01*
X39619Y3165D01*
X39615D01*
X39607Y3161D01*
X39595Y3157D01*
X39578Y3150D01*
X39558Y3143D01*
X39535Y3131D01*
X39511Y3118D01*
X39487Y3104D01*
X39463Y3087D01*
X39439Y3067D01*
X39417Y3043D01*
X39396Y3018D01*
X39380Y2989D01*
X39367Y2959D01*
X39359Y2924D01*
X39356Y2887D01*
Y2870D01*
X39358Y2850D01*
X39363Y2826D01*
X39369Y2798D01*
X39378Y2767D01*
X39391Y2737D01*
X39409Y2707D01*
X39411Y2704D01*
X39419Y2694D01*
X39432Y2681D01*
X39450Y2663D01*
X39474Y2644D01*
X39502Y2624D01*
X39537Y2604D01*
X39576Y2585D01*
X39578D01*
X39582Y2583D01*
X39587Y2581D01*
X39596Y2578D01*
X39607Y2574D01*
X39620Y2570D01*
X39635Y2567D01*
X39654Y2563D01*
X39672Y2559D01*
X39695Y2556D01*
X39717Y2552D01*
X39743Y2548D01*
X39798Y2543D01*
X39859Y2541D01*
X39863D01*
X39870D01*
X39883D01*
X39902Y2543D01*
X39924Y2544D01*
X39948Y2546D01*
X39976Y2548D01*
X40006Y2552D01*
X40069Y2563D01*
X40133Y2580D01*
X40165Y2589D01*
X40194Y2602D01*
X40222Y2615D01*
X40248Y2631D01*
X40250Y2633D01*
X40254Y2635D01*
X40259Y2641D01*
X40269Y2648D01*
X40278Y2657D01*
X40289Y2668D01*
X40300Y2681D01*
X40313Y2696D01*
X40337Y2731D01*
X40357Y2772D01*
X40367Y2794D01*
X40372Y2820D01*
X40376Y2846D01*
X40378Y2874D01*
Y2885D01*
X40376Y2893D01*
X40374Y2915D01*
X40369Y2941D01*
X40357Y2970D01*
X40344Y3004D01*
X40324Y3037D01*
X40313Y3054D01*
X40298Y3068D01*
X40296Y3070D01*
X40294Y3072D01*
X40289Y3076D01*
X40283Y3081D01*
X40274Y3089D01*
X40265Y3096D01*
X40252Y3104D01*
X40237Y3113D01*
X40222Y3122D01*
X40204Y3131D01*
X40183Y3141D01*
X40163Y3148D01*
X40139Y3157D01*
X40113Y3165D01*
X40085Y3172D01*
X40056Y3178D01*
X40098Y3317D01*
X40100D01*
X40107Y3315D01*
D02*
G37*
G36*
X39100Y3887D02*
X38109D01*
X38111Y3885D01*
X38119Y3879D01*
X38128Y3868D01*
X38143Y3855D01*
X38158Y3839D01*
X38176Y3818D01*
X38196Y3794D01*
X38217Y3768D01*
X38219Y3765D01*
X38226Y3755D01*
X38235Y3742D01*
X38246Y3724D01*
X38259Y3704D01*
X38272Y3680D01*
X38285Y3657D01*
X38296Y3633D01*
X38146D01*
Y3635D01*
X38145Y3639D01*
X38141Y3642D01*
X38135Y3650D01*
X38122Y3670D01*
X38106Y3694D01*
X38085Y3724D01*
X38059Y3754D01*
X38032Y3785D01*
X38000Y3817D01*
X37998Y3818D01*
X37996Y3820D01*
X37985Y3829D01*
X37969Y3844D01*
X37946Y3861D01*
X37920Y3879D01*
X37891Y3898D01*
X37861Y3917D01*
X37830Y3929D01*
Y4013D01*
X39100D01*
Y3887D01*
D02*
G37*
G36*
X38707Y3415D02*
X38719Y3411D01*
X38733Y3407D01*
X38750Y3402D01*
X38770Y3396D01*
X38794Y3389D01*
X38819Y3380D01*
X38869Y3357D01*
X38922Y3330D01*
X38972Y3296D01*
X38996Y3276D01*
X39017Y3255D01*
X39019Y3254D01*
X39020Y3250D01*
X39026Y3244D01*
X39033Y3235D01*
X39041Y3224D01*
X39050Y3211D01*
X39059Y3194D01*
X39069Y3178D01*
X39078Y3159D01*
X39087Y3137D01*
X39104Y3091D01*
X39117Y3037D01*
X39119Y3007D01*
X39120Y2978D01*
Y2963D01*
X39119Y2954D01*
Y2941D01*
X39117Y2926D01*
X39111Y2893D01*
X39104Y2854D01*
X39091Y2813D01*
X39074Y2772D01*
X39052Y2731D01*
Y2730D01*
X39048Y2728D01*
X39044Y2722D01*
X39039Y2715D01*
X39022Y2696D01*
X38996Y2672D01*
X38981Y2659D01*
X38965Y2646D01*
X38946Y2631D01*
X38926Y2619D01*
X38904Y2604D01*
X38880Y2591D01*
X38854Y2578D01*
X38826Y2565D01*
X38824D01*
X38819Y2563D01*
X38809Y2559D01*
X38798Y2556D01*
X38783Y2550D01*
X38765Y2544D01*
X38744Y2539D01*
X38722Y2533D01*
X38696Y2526D01*
X38669Y2520D01*
X38637Y2515D01*
X38606Y2511D01*
X38572Y2506D01*
X38535Y2504D01*
X38459Y2500D01*
X38457D01*
X38450D01*
X38439D01*
X38424Y2502D01*
X38406D01*
X38385Y2504D01*
X38361Y2506D01*
X38337Y2507D01*
X38282Y2517D01*
X38222Y2528D01*
X38163Y2543D01*
X38106Y2565D01*
X38104D01*
X38100Y2569D01*
X38093Y2572D01*
X38082Y2576D01*
X38070Y2583D01*
X38056Y2591D01*
X38024Y2611D01*
X37989Y2637D01*
X37952Y2667D01*
X37919Y2702D01*
X37887Y2741D01*
Y2743D01*
X37883Y2746D01*
X37880Y2752D01*
X37876Y2761D01*
X37870Y2770D01*
X37863Y2783D01*
X37858Y2798D01*
X37850Y2813D01*
X37837Y2850D01*
X37824Y2893D01*
X37817Y2939D01*
X37813Y2989D01*
Y3004D01*
X37815Y3015D01*
X37817Y3028D01*
X37819Y3043D01*
X37824Y3078D01*
X37835Y3118D01*
X37852Y3163D01*
X37863Y3185D01*
X37876Y3205D01*
X37891Y3228D01*
X37908Y3248D01*
X37909Y3250D01*
X37911Y3254D01*
X37917Y3259D01*
X37924Y3265D01*
X37935Y3274D01*
X37946Y3285D01*
X37959Y3296D01*
X37976Y3307D01*
X37995Y3320D01*
X38015Y3333D01*
X38037Y3344D01*
X38061Y3357D01*
X38087Y3370D01*
X38117Y3381D01*
X38146Y3391D01*
X38180Y3400D01*
X38219Y3265D01*
X38215D01*
X38208Y3261D01*
X38195Y3257D01*
X38178Y3250D01*
X38158Y3243D01*
X38135Y3231D01*
X38111Y3218D01*
X38087Y3204D01*
X38063Y3187D01*
X38039Y3167D01*
X38017Y3143D01*
X37996Y3118D01*
X37980Y3089D01*
X37967Y3059D01*
X37959Y3024D01*
X37956Y2987D01*
Y2970D01*
X37958Y2950D01*
X37963Y2926D01*
X37969Y2898D01*
X37978Y2867D01*
X37991Y2837D01*
X38009Y2807D01*
X38011Y2804D01*
X38019Y2794D01*
X38032Y2781D01*
X38050Y2763D01*
X38074Y2744D01*
X38102Y2724D01*
X38137Y2704D01*
X38176Y2685D01*
X38178D01*
X38182Y2683D01*
X38187Y2681D01*
X38196Y2678D01*
X38208Y2674D01*
X38220Y2670D01*
X38235Y2667D01*
X38254Y2663D01*
X38272Y2659D01*
X38295Y2656D01*
X38317Y2652D01*
X38343Y2648D01*
X38398Y2643D01*
X38459Y2641D01*
X38463D01*
X38470D01*
X38483D01*
X38502Y2643D01*
X38524Y2644D01*
X38548Y2646D01*
X38576Y2648D01*
X38606Y2652D01*
X38669Y2663D01*
X38733Y2680D01*
X38765Y2689D01*
X38794Y2702D01*
X38822Y2715D01*
X38848Y2731D01*
X38850Y2733D01*
X38854Y2735D01*
X38859Y2741D01*
X38869Y2748D01*
X38878Y2757D01*
X38889Y2768D01*
X38900Y2781D01*
X38913Y2796D01*
X38937Y2831D01*
X38957Y2872D01*
X38967Y2894D01*
X38972Y2920D01*
X38976Y2946D01*
X38978Y2974D01*
Y2985D01*
X38976Y2993D01*
X38974Y3015D01*
X38969Y3041D01*
X38957Y3070D01*
X38944Y3104D01*
X38924Y3137D01*
X38913Y3154D01*
X38898Y3168D01*
X38896Y3170D01*
X38894Y3172D01*
X38889Y3176D01*
X38883Y3181D01*
X38874Y3189D01*
X38865Y3196D01*
X38852Y3204D01*
X38837Y3213D01*
X38822Y3222D01*
X38804Y3231D01*
X38783Y3241D01*
X38763Y3248D01*
X38739Y3257D01*
X38713Y3265D01*
X38685Y3272D01*
X38656Y3278D01*
X38698Y3417D01*
X38700D01*
X38707Y3415D01*
D02*
G37*
G36*
X2659Y13668D02*
X3050Y13000D01*
X2880D01*
X2618Y13450D01*
X2617Y13452D01*
X2615Y13457D01*
X2611Y13465D01*
X2605Y13476D01*
X2598Y13487D01*
X2591Y13502D01*
X2576Y13533D01*
X2574Y13530D01*
X2570Y13522D01*
X2565Y13511D01*
X2557Y13496D01*
X2541Y13465D01*
X2531Y13450D01*
X2526Y13439D01*
X2263Y13000D01*
X2100D01*
X2502Y13657D01*
X2148Y14265D01*
X2311D01*
X2500Y13941D01*
Y13939D01*
X2502Y13937D01*
X2506Y13931D01*
X2509Y13924D01*
X2520Y13905D01*
X2533Y13883D01*
X2546Y13859D01*
X2559Y13833D01*
X2572Y13809D01*
X2581Y13787D01*
X2583Y13791D01*
X2587Y13798D01*
X2594Y13811D01*
X2604Y13830D01*
X2617Y13850D01*
X2631Y13874D01*
X2646Y13900D01*
X2665Y13928D01*
X2872Y14265D01*
X3022D01*
X2659Y13668D01*
D02*
G37*
G36*
X3489Y14268D02*
X3502Y14267D01*
X3518Y14265D01*
X3554Y14257D01*
X3592Y14244D01*
X3611Y14235D01*
X3631Y14226D01*
X3652Y14213D01*
X3670Y14198D01*
X3687Y14181D01*
X3704Y14163D01*
X3705Y14161D01*
X3707Y14157D01*
X3711Y14152D01*
X3717Y14144D01*
X3722Y14133D01*
X3729Y14122D01*
X3746Y14092D01*
X3761Y14055D01*
X3774Y14015D01*
X3783Y13968D01*
X3787Y13944D01*
Y13918D01*
Y13917D01*
Y13913D01*
Y13907D01*
X3785Y13898D01*
Y13887D01*
X3783Y13874D01*
X3779Y13844D01*
X3770Y13809D01*
X3759Y13770D01*
X3744Y13730D01*
X3722Y13687D01*
Y13685D01*
X3718Y13681D01*
X3715Y13676D01*
X3709Y13667D01*
X3702Y13655D01*
X3692Y13643D01*
X3681Y13628D01*
X3668Y13609D01*
X3654Y13589D01*
X3635Y13567D01*
X3615Y13543D01*
X3592Y13517D01*
X3568Y13489D01*
X3542Y13459D01*
X3511Y13426D01*
X3479Y13393D01*
X3478Y13391D01*
X3474Y13387D01*
X3468Y13381D01*
X3461Y13374D01*
X3442Y13354D01*
X3418Y13330D01*
X3394Y13302D01*
X3370Y13276D01*
X3350Y13252D01*
X3341Y13243D01*
X3333Y13233D01*
X3331Y13231D01*
X3328Y13226D01*
X3322Y13219D01*
X3315Y13207D01*
X3305Y13194D01*
X3296Y13180D01*
X3280Y13150D01*
X3789D01*
Y13000D01*
X3102D01*
Y13002D01*
Y13004D01*
Y13009D01*
Y13017D01*
X3104Y13035D01*
X3107Y13059D01*
X3113Y13089D01*
X3122Y13124D01*
X3137Y13161D01*
X3155Y13202D01*
Y13204D01*
X3159Y13207D01*
X3161Y13213D01*
X3167Y13222D01*
X3174Y13233D01*
X3181Y13246D01*
X3192Y13261D01*
X3204Y13278D01*
X3217Y13296D01*
X3231Y13317D01*
X3250Y13339D01*
X3268Y13361D01*
X3291Y13385D01*
X3313Y13411D01*
X3339Y13439D01*
X3367Y13467D01*
X3368Y13468D01*
X3374Y13474D01*
X3383Y13483D01*
X3396Y13496D01*
X3409Y13511D01*
X3426Y13528D01*
X3444Y13548D01*
X3463Y13568D01*
X3504Y13613D01*
X3542Y13659D01*
X3559Y13681D01*
X3576Y13704D01*
X3591Y13724D01*
X3602Y13743D01*
Y13744D01*
X3604Y13746D01*
X3607Y13752D01*
X3611Y13759D01*
X3620Y13778D01*
X3631Y13802D01*
X3641Y13830D01*
X3650Y13859D01*
X3657Y13892D01*
X3659Y13924D01*
Y13926D01*
Y13928D01*
Y13933D01*
Y13941D01*
X3655Y13957D01*
X3652Y13980D01*
X3644Y14005D01*
X3635Y14031D01*
X3620Y14057D01*
X3602Y14081D01*
X3600Y14083D01*
X3591Y14091D01*
X3579Y14100D01*
X3563Y14113D01*
X3542Y14124D01*
X3518Y14133D01*
X3491Y14141D01*
X3461Y14142D01*
X3457D01*
X3446Y14141D01*
X3429Y14139D01*
X3409Y14135D01*
X3387Y14126D01*
X3361Y14115D01*
X3337Y14098D01*
X3315Y14076D01*
X3313Y14072D01*
X3305Y14063D01*
X3296Y14048D01*
X3287Y14028D01*
X3276Y14000D01*
X3267Y13968D01*
X3259Y13930D01*
X3257Y13887D01*
X3126Y13904D01*
Y13905D01*
Y13911D01*
X3128Y13920D01*
X3130Y13933D01*
X3131Y13948D01*
X3135Y13967D01*
X3139Y13985D01*
X3144Y14005D01*
X3157Y14050D01*
X3174Y14096D01*
X3198Y14139D01*
X3213Y14159D01*
X3228Y14178D01*
X3230Y14180D01*
X3231Y14181D01*
X3237Y14187D01*
X3244Y14192D01*
X3254Y14200D01*
X3265Y14207D01*
X3291Y14224D01*
X3326Y14241D01*
X3365Y14255D01*
X3411Y14267D01*
X3437Y14268D01*
X3463Y14270D01*
X3478D01*
X3489Y14268D01*
D02*
G37*
G36*
X29376Y1770D02*
X29383Y1765D01*
X29395Y1757D01*
X29409Y1746D01*
X29428Y1733D01*
X29452Y1718D01*
X29480Y1702D01*
X29511Y1683D01*
X29545Y1663D01*
X29583Y1642D01*
X29626Y1620D01*
X29670Y1598D01*
X29719Y1574D01*
X29770Y1552D01*
X29824Y1529D01*
X29882Y1507D01*
X29885Y1505D01*
X29896Y1502D01*
X29913Y1496D01*
X29935Y1489D01*
X29963Y1481D01*
X29996Y1470D01*
X30035Y1459D01*
X30076Y1448D01*
X30122Y1437D01*
X30170Y1426D01*
X30220Y1415D01*
X30274Y1405D01*
X30385Y1389D01*
X30443Y1381D01*
X30500Y1378D01*
Y1246D01*
X30498D01*
X30493D01*
X30483D01*
X30472Y1248D01*
X30457D01*
X30439Y1250D01*
X30419Y1252D01*
X30394Y1254D01*
X30369Y1255D01*
X30341Y1259D01*
X30311Y1263D01*
X30278Y1267D01*
X30244Y1272D01*
X30207Y1280D01*
X30132Y1294D01*
X30130D01*
X30122Y1296D01*
X30111Y1300D01*
X30096Y1304D01*
X30076Y1307D01*
X30054Y1315D01*
X30030Y1320D01*
X30002Y1329D01*
X29972Y1337D01*
X29941Y1348D01*
X29872Y1370D01*
X29802Y1396D01*
X29730Y1426D01*
X29728Y1428D01*
X29720Y1429D01*
X29711Y1435D01*
X29698Y1441D01*
X29682Y1448D01*
X29661Y1457D01*
X29641Y1468D01*
X29617Y1481D01*
X29565Y1507D01*
X29509Y1539D01*
X29456Y1572D01*
X29402Y1607D01*
Y1102D01*
X29252D01*
Y1772D01*
X29374D01*
X29376Y1770D01*
D02*
G37*
G36*
X30500Y841D02*
X30239Y702D01*
X30237D01*
X30232Y698D01*
X30224Y694D01*
X30213Y689D01*
X30202Y681D01*
X30187Y674D01*
X30154Y657D01*
X30120Y637D01*
X30085Y617D01*
X30056Y598D01*
X30043Y589D01*
X30032Y581D01*
X30030Y580D01*
X30022Y574D01*
X30013Y567D01*
X30002Y556D01*
X29978Y531D01*
X29969Y517D01*
X29959Y502D01*
X29957Y500D01*
X29956Y494D01*
X29952Y485D01*
X29948Y474D01*
X29944Y459D01*
X29943Y441D01*
X29939Y418D01*
Y237D01*
X30500D01*
Y100D01*
X29235D01*
Y583D01*
X29237Y594D01*
Y609D01*
X29239Y641D01*
X29245Y674D01*
X29250Y709D01*
X29259Y743D01*
X29272Y772D01*
X29274Y776D01*
X29280Y783D01*
X29287Y796D01*
X29300Y813D01*
X29317Y830D01*
X29337Y848D01*
X29361Y868D01*
X29391Y885D01*
X29395Y887D01*
X29406Y893D01*
X29422Y900D01*
X29445Y907D01*
X29472Y915D01*
X29506Y922D01*
X29543Y928D01*
X29582Y930D01*
X29583D01*
X29587D01*
X29595D01*
X29606Y928D01*
X29617D01*
X29632Y926D01*
X29663Y920D01*
X29700Y911D01*
X29739Y898D01*
X29778Y880D01*
X29813Y854D01*
X29815D01*
X29817Y850D01*
X29828Y841D01*
X29843Y822D01*
X29861Y800D01*
X29880Y768D01*
X29898Y731D01*
X29915Y689D01*
X29926Y639D01*
X29928Y641D01*
X29932Y648D01*
X29939Y657D01*
X29948Y670D01*
X29970Y698D01*
X29983Y711D01*
X29996Y724D01*
X30000Y728D01*
X30009Y735D01*
X30024Y746D01*
X30043Y761D01*
X30067Y778D01*
X30094Y796D01*
X30124Y815D01*
X30157Y833D01*
X30500Y1015D01*
Y841D01*
D02*
G37*
G36*
X31722Y1770D02*
X31735D01*
X31767Y1766D01*
X31802Y1761D01*
X31841Y1752D01*
X31882Y1741D01*
X31920Y1726D01*
X31922D01*
X31924Y1724D01*
X31930Y1720D01*
X31937Y1718D01*
X31956Y1707D01*
X31978Y1694D01*
X32002Y1676D01*
X32028Y1655D01*
X32052Y1631D01*
X32072Y1605D01*
X32074Y1602D01*
X32080Y1592D01*
X32087Y1578D01*
X32096Y1559D01*
X32106Y1535D01*
X32113Y1507D01*
X32119Y1478D01*
X32120Y1446D01*
Y1439D01*
X32119Y1431D01*
Y1420D01*
X32117Y1407D01*
X32113Y1391D01*
X32102Y1355D01*
X32094Y1335D01*
X32085Y1313D01*
X32074Y1292D01*
X32061Y1270D01*
X32044Y1248D01*
X32026Y1228D01*
X32004Y1207D01*
X31980Y1187D01*
X31978Y1185D01*
X31972Y1183D01*
X31965Y1178D01*
X31952Y1172D01*
X31937Y1165D01*
X31917Y1155D01*
X31894Y1146D01*
X31869Y1137D01*
X31837Y1128D01*
X31802Y1118D01*
X31763Y1111D01*
X31720Y1102D01*
X31674Y1096D01*
X31622Y1091D01*
X31567Y1089D01*
X31507Y1087D01*
X31506D01*
X31504D01*
X31498D01*
X31491D01*
X31472D01*
X31448Y1089D01*
X31419Y1091D01*
X31383Y1092D01*
X31346Y1096D01*
X31306Y1100D01*
X31220Y1113D01*
X31133Y1131D01*
X31093Y1142D01*
X31054Y1157D01*
X31019Y1172D01*
X30987Y1191D01*
X30985Y1192D01*
X30980Y1196D01*
X30972Y1202D01*
X30963Y1209D01*
X30950Y1220D01*
X30937Y1231D01*
X30922Y1246D01*
X30908Y1263D01*
X30895Y1281D01*
X30880Y1302D01*
X30854Y1346D01*
X30845Y1372D01*
X30837Y1400D01*
X30832Y1428D01*
X30830Y1457D01*
Y1468D01*
X30832Y1478D01*
Y1487D01*
X30833Y1500D01*
X30839Y1526D01*
X30850Y1557D01*
X30865Y1591D01*
X30883Y1624D01*
X30896Y1641D01*
X30911Y1655D01*
Y1657D01*
X30915Y1659D01*
X30920Y1663D01*
X30926Y1668D01*
X30945Y1681D01*
X30970Y1698D01*
X31004Y1715D01*
X31045Y1731D01*
X31091Y1744D01*
X31145Y1754D01*
X31157Y1628D01*
X31156D01*
X31154D01*
X31141Y1624D01*
X31124Y1620D01*
X31104Y1615D01*
X31082Y1607D01*
X31058Y1598D01*
X31037Y1587D01*
X31019Y1574D01*
X31017Y1572D01*
X31009Y1565D01*
X31000Y1554D01*
X30987Y1539D01*
X30976Y1520D01*
X30967Y1500D01*
X30959Y1476D01*
X30958Y1450D01*
Y1439D01*
X30959Y1431D01*
X30965Y1411D01*
X30974Y1387D01*
X30982Y1372D01*
X30991Y1357D01*
X31002Y1342D01*
X31017Y1328D01*
X31032Y1313D01*
X31050Y1298D01*
X31072Y1285D01*
X31096Y1272D01*
X31098D01*
X31102Y1270D01*
X31109Y1267D01*
X31119Y1263D01*
X31132Y1259D01*
X31146Y1254D01*
X31165Y1248D01*
X31185Y1242D01*
X31208Y1237D01*
X31233Y1231D01*
X31263Y1226D01*
X31295Y1222D01*
X31330Y1218D01*
X31367Y1215D01*
X31406Y1213D01*
X31446D01*
X31445Y1215D01*
X31435Y1220D01*
X31420Y1230D01*
X31402Y1242D01*
X31382Y1259D01*
X31361Y1278D01*
X31341Y1298D01*
X31324Y1322D01*
X31322Y1326D01*
X31317Y1333D01*
X31309Y1348D01*
X31302Y1365D01*
X31295Y1387D01*
X31287Y1411D01*
X31282Y1437D01*
X31280Y1465D01*
Y1476D01*
X31282Y1485D01*
X31283Y1496D01*
X31285Y1509D01*
X31295Y1537D01*
X31307Y1570D01*
X31317Y1589D01*
X31328Y1607D01*
X31341Y1626D01*
X31356Y1644D01*
X31372Y1661D01*
X31393Y1679D01*
X31395Y1681D01*
X31398Y1683D01*
X31404Y1689D01*
X31413Y1694D01*
X31424Y1702D01*
X31437Y1709D01*
X31454Y1717D01*
X31472Y1726D01*
X31493Y1735D01*
X31515Y1742D01*
X31539Y1750D01*
X31565Y1757D01*
X31594Y1763D01*
X31624Y1768D01*
X31657Y1770D01*
X31691Y1772D01*
X31693D01*
X31696D01*
X31704D01*
X31711D01*
X31722Y1770D01*
D02*
G37*
G36*
X32100Y841D02*
X31839Y702D01*
X31837D01*
X31832Y698D01*
X31824Y694D01*
X31813Y689D01*
X31802Y681D01*
X31787Y674D01*
X31754Y657D01*
X31720Y637D01*
X31685Y617D01*
X31656Y598D01*
X31643Y589D01*
X31632Y581D01*
X31630Y580D01*
X31622Y574D01*
X31613Y567D01*
X31602Y556D01*
X31578Y531D01*
X31569Y517D01*
X31559Y502D01*
X31557Y500D01*
X31556Y494D01*
X31552Y485D01*
X31548Y474D01*
X31545Y459D01*
X31543Y441D01*
X31539Y418D01*
Y237D01*
X32100D01*
Y100D01*
X30835D01*
Y583D01*
X30837Y594D01*
Y609D01*
X30839Y641D01*
X30845Y674D01*
X30850Y709D01*
X30859Y743D01*
X30872Y772D01*
X30874Y776D01*
X30880Y783D01*
X30887Y796D01*
X30900Y813D01*
X30917Y830D01*
X30937Y848D01*
X30961Y868D01*
X30991Y885D01*
X30995Y887D01*
X31006Y893D01*
X31022Y900D01*
X31045Y907D01*
X31072Y915D01*
X31106Y922D01*
X31143Y928D01*
X31182Y930D01*
X31183D01*
X31187D01*
X31195D01*
X31206Y928D01*
X31217D01*
X31232Y926D01*
X31263Y920D01*
X31300Y911D01*
X31339Y898D01*
X31378Y880D01*
X31413Y854D01*
X31415D01*
X31417Y850D01*
X31428Y841D01*
X31443Y822D01*
X31461Y800D01*
X31480Y768D01*
X31498Y731D01*
X31515Y689D01*
X31526Y639D01*
X31528Y641D01*
X31532Y648D01*
X31539Y657D01*
X31548Y670D01*
X31570Y698D01*
X31583Y711D01*
X31596Y724D01*
X31600Y728D01*
X31609Y735D01*
X31624Y746D01*
X31643Y761D01*
X31667Y778D01*
X31694Y796D01*
X31724Y815D01*
X31757Y833D01*
X32100Y1015D01*
Y841D01*
D02*
G37*
G36*
X19204Y2078D02*
X19219Y2076D01*
X19237Y2074D01*
X19259Y2072D01*
X19282Y2068D01*
X19332Y2055D01*
X19383Y2039D01*
X19411Y2028D01*
X19437Y2015D01*
X19463Y2000D01*
X19489Y1983D01*
X19491Y1981D01*
X19494Y1979D01*
X19502Y1974D01*
X19509Y1967D01*
X19519Y1955D01*
X19530Y1944D01*
X19543Y1931D01*
X19554Y1915D01*
X19567Y1898D01*
X19580Y1878D01*
X19600Y1833D01*
X19607Y1809D01*
X19615Y1781D01*
X19619Y1754D01*
X19620Y1724D01*
Y1711D01*
X19619Y1702D01*
X19617Y1691D01*
X19615Y1678D01*
X19609Y1646D01*
X19598Y1609D01*
X19581Y1572D01*
X19570Y1552D01*
X19557Y1533D01*
X19544Y1515D01*
X19528Y1496D01*
X19526Y1494D01*
X19524Y1492D01*
X19519Y1487D01*
X19511Y1481D01*
X19500Y1474D01*
X19489Y1467D01*
X19476Y1457D01*
X19459Y1448D01*
X19443Y1439D01*
X19422Y1430D01*
X19402Y1422D01*
X19378Y1413D01*
X19326Y1400D01*
X19296Y1396D01*
X19267Y1392D01*
X19254Y1526D01*
X19256D01*
X19259D01*
X19265Y1528D01*
X19274Y1530D01*
X19296Y1533D01*
X19322Y1541D01*
X19352Y1550D01*
X19382Y1561D01*
X19411Y1576D01*
X19435Y1594D01*
X19437Y1596D01*
X19444Y1604D01*
X19454Y1617D01*
X19463Y1631D01*
X19474Y1650D01*
X19483Y1672D01*
X19491Y1696D01*
X19493Y1722D01*
Y1726D01*
X19491Y1737D01*
X19489Y1754D01*
X19481Y1776D01*
X19472Y1800D01*
X19457Y1826D01*
X19437Y1852D01*
X19426Y1865D01*
X19411Y1878D01*
X19409D01*
X19407Y1881D01*
X19402Y1883D01*
X19396Y1889D01*
X19378Y1898D01*
X19352Y1911D01*
X19319Y1924D01*
X19280Y1933D01*
X19235Y1941D01*
X19183Y1944D01*
X19182D01*
X19178D01*
X19170D01*
X19161Y1942D01*
X19150D01*
X19137Y1941D01*
X19106Y1937D01*
X19072Y1928D01*
X19037Y1917D01*
X19004Y1902D01*
X18974Y1879D01*
X18970Y1876D01*
X18963Y1868D01*
X18950Y1855D01*
X18935Y1837D01*
X18922Y1813D01*
X18909Y1787D01*
X18902Y1755D01*
X18898Y1722D01*
Y1713D01*
X18900Y1702D01*
X18902Y1687D01*
X18906Y1670D01*
X18913Y1652D01*
X18920Y1633D01*
X18932Y1613D01*
X18933Y1611D01*
X18937Y1605D01*
X18945Y1596D01*
X18954Y1585D01*
X18967Y1572D01*
X18983Y1559D01*
X19002Y1546D01*
X19022Y1535D01*
X19002Y1415D01*
X18352Y1517D01*
Y2029D01*
X18500D01*
Y1617D01*
X18841Y1561D01*
X18839Y1563D01*
X18837Y1565D01*
X18833Y1570D01*
X18828Y1578D01*
X18815Y1596D01*
X18800Y1620D01*
X18787Y1650D01*
X18774Y1681D01*
X18765Y1718D01*
X18761Y1737D01*
Y1768D01*
X18763Y1778D01*
X18765Y1789D01*
X18767Y1802D01*
X18774Y1833D01*
X18789Y1868D01*
X18796Y1887D01*
X18807Y1907D01*
X18820Y1926D01*
X18835Y1946D01*
X18852Y1965D01*
X18872Y1983D01*
X18874Y1985D01*
X18878Y1987D01*
X18883Y1992D01*
X18893Y1998D01*
X18904Y2005D01*
X18917Y2013D01*
X18933Y2022D01*
X18952Y2031D01*
X18972Y2041D01*
X18995Y2050D01*
X19019Y2057D01*
X19046Y2065D01*
X19074Y2070D01*
X19106Y2076D01*
X19137Y2078D01*
X19172Y2079D01*
X19174D01*
X19180D01*
X19191D01*
X19204Y2078D01*
D02*
G37*
G36*
X19600Y1141D02*
X19339Y1002D01*
X19337D01*
X19332Y998D01*
X19324Y994D01*
X19313Y989D01*
X19302Y981D01*
X19287Y974D01*
X19254Y957D01*
X19220Y937D01*
X19185Y917D01*
X19156Y898D01*
X19143Y889D01*
X19132Y881D01*
X19130Y880D01*
X19122Y874D01*
X19113Y867D01*
X19102Y856D01*
X19078Y831D01*
X19069Y817D01*
X19059Y802D01*
X19057Y800D01*
X19056Y794D01*
X19052Y785D01*
X19048Y774D01*
X19045Y759D01*
X19043Y741D01*
X19039Y718D01*
Y537D01*
X19600D01*
Y400D01*
X18335D01*
Y883D01*
X18337Y894D01*
Y909D01*
X18339Y941D01*
X18345Y974D01*
X18350Y1009D01*
X18359Y1043D01*
X18372Y1072D01*
X18374Y1076D01*
X18380Y1083D01*
X18387Y1096D01*
X18400Y1113D01*
X18417Y1130D01*
X18437Y1148D01*
X18461Y1168D01*
X18491Y1185D01*
X18495Y1187D01*
X18506Y1193D01*
X18522Y1200D01*
X18545Y1207D01*
X18572Y1215D01*
X18606Y1222D01*
X18643Y1228D01*
X18682Y1230D01*
X18683D01*
X18687D01*
X18695D01*
X18706Y1228D01*
X18717D01*
X18732Y1226D01*
X18763Y1220D01*
X18800Y1211D01*
X18839Y1198D01*
X18878Y1180D01*
X18913Y1154D01*
X18915D01*
X18917Y1150D01*
X18928Y1141D01*
X18943Y1122D01*
X18961Y1100D01*
X18980Y1068D01*
X18998Y1031D01*
X19015Y989D01*
X19026Y939D01*
X19028Y941D01*
X19032Y948D01*
X19039Y957D01*
X19048Y970D01*
X19070Y998D01*
X19083Y1011D01*
X19096Y1024D01*
X19100Y1028D01*
X19109Y1035D01*
X19124Y1046D01*
X19143Y1061D01*
X19167Y1078D01*
X19194Y1096D01*
X19224Y1115D01*
X19257Y1133D01*
X19600Y1315D01*
Y1141D01*
D02*
G37*
G36*
X17096Y1928D02*
X17400D01*
Y1802D01*
X17096D01*
Y1352D01*
X16954D01*
X16135Y1822D01*
Y1928D01*
X16954D01*
Y2068D01*
X17096D01*
Y1928D01*
D02*
G37*
G36*
X17400Y1141D02*
X17139Y1002D01*
X17137D01*
X17132Y998D01*
X17124Y994D01*
X17113Y989D01*
X17102Y981D01*
X17087Y974D01*
X17054Y957D01*
X17020Y937D01*
X16985Y917D01*
X16956Y898D01*
X16943Y889D01*
X16932Y881D01*
X16930Y880D01*
X16922Y874D01*
X16913Y867D01*
X16902Y856D01*
X16878Y831D01*
X16869Y817D01*
X16859Y802D01*
X16857Y800D01*
X16856Y794D01*
X16852Y785D01*
X16848Y774D01*
X16844Y759D01*
X16843Y741D01*
X16839Y718D01*
Y537D01*
X17400D01*
Y400D01*
X16135D01*
Y883D01*
X16137Y894D01*
Y909D01*
X16139Y941D01*
X16145Y974D01*
X16150Y1009D01*
X16159Y1043D01*
X16172Y1072D01*
X16174Y1076D01*
X16180Y1083D01*
X16187Y1096D01*
X16200Y1113D01*
X16217Y1130D01*
X16237Y1148D01*
X16261Y1168D01*
X16291Y1185D01*
X16295Y1187D01*
X16306Y1193D01*
X16322Y1200D01*
X16345Y1207D01*
X16372Y1215D01*
X16406Y1222D01*
X16443Y1228D01*
X16482Y1230D01*
X16483D01*
X16487D01*
X16495D01*
X16506Y1228D01*
X16517D01*
X16532Y1226D01*
X16563Y1220D01*
X16600Y1211D01*
X16639Y1198D01*
X16678Y1180D01*
X16713Y1154D01*
X16715D01*
X16717Y1150D01*
X16728Y1141D01*
X16743Y1122D01*
X16761Y1100D01*
X16780Y1068D01*
X16798Y1031D01*
X16815Y989D01*
X16826Y939D01*
X16828Y941D01*
X16832Y948D01*
X16839Y957D01*
X16848Y970D01*
X16870Y998D01*
X16883Y1011D01*
X16896Y1024D01*
X16900Y1028D01*
X16909Y1035D01*
X16924Y1046D01*
X16943Y1061D01*
X16967Y1078D01*
X16994Y1096D01*
X17024Y1115D01*
X17057Y1133D01*
X17400Y1315D01*
Y1141D01*
D02*
G37*
G36*
X30518Y8200D02*
X30392D01*
Y9191D01*
X30390Y9189D01*
X30385Y9181D01*
X30374Y9172D01*
X30361Y9157D01*
X30344Y9142D01*
X30324Y9124D01*
X30300Y9104D01*
X30274Y9083D01*
X30270Y9081D01*
X30261Y9074D01*
X30248Y9065D01*
X30229Y9054D01*
X30209Y9041D01*
X30185Y9028D01*
X30163Y9015D01*
X30139Y9004D01*
Y9154D01*
X30141D01*
X30144Y9155D01*
X30148Y9159D01*
X30155Y9165D01*
X30176Y9178D01*
X30200Y9194D01*
X30229Y9215D01*
X30259Y9241D01*
X30291Y9268D01*
X30322Y9300D01*
X30324Y9302D01*
X30326Y9304D01*
X30335Y9315D01*
X30350Y9331D01*
X30366Y9354D01*
X30385Y9380D01*
X30403Y9409D01*
X30422Y9439D01*
X30435Y9470D01*
X30518D01*
Y8200D01*
D02*
G37*
G36*
X29450Y9463D02*
X29479Y9461D01*
X29511Y9459D01*
X29544Y9455D01*
X29578Y9448D01*
X29605Y9441D01*
X29607D01*
X29609Y9439D01*
X29620Y9435D01*
X29637Y9428D01*
X29659Y9417D01*
X29683Y9400D01*
X29709Y9381D01*
X29735Y9357D01*
X29761Y9330D01*
X29765Y9326D01*
X29772Y9315D01*
X29783Y9298D01*
X29800Y9274D01*
X29816Y9246D01*
X29833Y9211D01*
X29850Y9172D01*
X29865Y9128D01*
Y9126D01*
X29866Y9122D01*
X29868Y9115D01*
X29870Y9105D01*
X29874Y9094D01*
X29878Y9080D01*
X29881Y9065D01*
X29885Y9046D01*
X29887Y9026D01*
X29891Y9004D01*
X29898Y8954D01*
X29902Y8900D01*
X29904Y8839D01*
Y8837D01*
Y8830D01*
Y8818D01*
Y8804D01*
X29902Y8785D01*
X29900Y8763D01*
X29898Y8739D01*
X29896Y8713D01*
X29889Y8656D01*
X29878Y8594D01*
X29861Y8533D01*
X29841Y8474D01*
Y8472D01*
X29837Y8467D01*
X29835Y8459D01*
X29829Y8450D01*
X29822Y8437D01*
X29815Y8424D01*
X29796Y8391D01*
X29774Y8356D01*
X29746Y8320D01*
X29713Y8289D01*
X29696Y8274D01*
X29678Y8261D01*
X29676D01*
X29674Y8259D01*
X29668Y8256D01*
X29659Y8252D01*
X29650Y8246D01*
X29639Y8243D01*
X29624Y8237D01*
X29609Y8231D01*
X29591Y8224D01*
X29572Y8219D01*
X29528Y8209D01*
X29478Y8202D01*
X29420Y8200D01*
X29046D01*
Y9465D01*
X29437D01*
X29450Y9463D01*
D02*
G37*
G36*
X28404D02*
X28433Y9461D01*
X28465Y9459D01*
X28498Y9455D01*
X28531Y9448D01*
X28559Y9441D01*
X28561D01*
X28563Y9439D01*
X28574Y9435D01*
X28591Y9428D01*
X28613Y9417D01*
X28637Y9400D01*
X28663Y9381D01*
X28689Y9357D01*
X28715Y9330D01*
X28718Y9326D01*
X28726Y9315D01*
X28737Y9298D01*
X28754Y9274D01*
X28770Y9246D01*
X28787Y9211D01*
X28804Y9172D01*
X28818Y9128D01*
Y9126D01*
X28820Y9122D01*
X28822Y9115D01*
X28824Y9105D01*
X28828Y9094D01*
X28831Y9080D01*
X28835Y9065D01*
X28839Y9046D01*
X28841Y9026D01*
X28844Y9004D01*
X28852Y8954D01*
X28855Y8900D01*
X28857Y8839D01*
Y8837D01*
Y8830D01*
Y8818D01*
Y8804D01*
X28855Y8785D01*
X28854Y8763D01*
X28852Y8739D01*
X28850Y8713D01*
X28843Y8656D01*
X28831Y8594D01*
X28815Y8533D01*
X28794Y8474D01*
Y8472D01*
X28791Y8467D01*
X28789Y8459D01*
X28783Y8450D01*
X28776Y8437D01*
X28768Y8424D01*
X28750Y8391D01*
X28728Y8356D01*
X28700Y8320D01*
X28667Y8289D01*
X28650Y8274D01*
X28631Y8261D01*
X28630D01*
X28628Y8259D01*
X28622Y8256D01*
X28613Y8252D01*
X28604Y8246D01*
X28593Y8243D01*
X28578Y8237D01*
X28563Y8231D01*
X28544Y8224D01*
X28526Y8219D01*
X28481Y8209D01*
X28431Y8202D01*
X28374Y8200D01*
X28000D01*
Y9465D01*
X28391D01*
X28404Y9463D01*
D02*
G37*
%LPC*%
G36*
X796Y3765D02*
X781D01*
X770Y3763D01*
X757Y3761D01*
X743Y3757D01*
X706Y3748D01*
X687Y3742D01*
X665Y3733D01*
X644Y3722D01*
X622Y3711D01*
X602Y3694D01*
X580Y3678D01*
X559Y3657D01*
X541Y3635D01*
X539Y3633D01*
X537Y3630D01*
X531Y3622D01*
X526Y3611D01*
X518Y3596D01*
X509Y3580D01*
X500Y3559D01*
X491Y3537D01*
X481Y3509D01*
X472Y3480D01*
X465Y3446D01*
X456Y3411D01*
X450Y3372D01*
X444Y3330D01*
X443Y3283D01*
X441Y3233D01*
Y3231D01*
Y3222D01*
Y3211D01*
X443Y3194D01*
X444Y3176D01*
X446Y3152D01*
X450Y3128D01*
X454Y3100D01*
X465Y3043D01*
X483Y2981D01*
X496Y2952D01*
X509Y2924D01*
X524Y2896D01*
X543Y2870D01*
X544Y2868D01*
X548Y2865D01*
X554Y2859D01*
X561Y2850D01*
X570Y2841D01*
X583Y2830D01*
X598Y2819D01*
X613Y2807D01*
X650Y2783D01*
X693Y2763D01*
X717Y2754D01*
X741Y2748D01*
X767Y2744D01*
X794Y2743D01*
X809D01*
X820Y2744D01*
X833Y2746D01*
X848Y2750D01*
X883Y2759D01*
X902Y2765D01*
X924Y2774D01*
X944Y2785D01*
X965Y2798D01*
X987Y2813D01*
X1007Y2830D01*
X1028Y2850D01*
X1048Y2872D01*
X1050Y2874D01*
X1052Y2878D01*
X1057Y2885D01*
X1065Y2896D01*
X1072Y2909D01*
X1081Y2926D01*
X1091Y2946D01*
X1100Y2968D01*
X1109Y2994D01*
X1118Y3022D01*
X1128Y3054D01*
X1135Y3089D01*
X1143Y3126D01*
X1148Y3167D01*
X1150Y3209D01*
X1152Y3255D01*
Y3257D01*
Y3263D01*
Y3272D01*
Y3283D01*
X1150Y3298D01*
Y3315D01*
X1148Y3333D01*
X1144Y3354D01*
X1139Y3398D01*
X1130Y3446D01*
X1117Y3496D01*
X1098Y3546D01*
Y3548D01*
X1096Y3550D01*
X1094Y3555D01*
X1091Y3563D01*
X1081Y3581D01*
X1068Y3604D01*
X1050Y3630D01*
X1030Y3655D01*
X1005Y3681D01*
X976Y3705D01*
X972Y3707D01*
X961Y3715D01*
X944Y3724D01*
X922Y3735D01*
X896Y3746D01*
X867Y3755D01*
X831Y3763D01*
X796Y3765D01*
D02*
G37*
G36*
X11789Y820D02*
X11779D01*
X11768Y818D01*
X11755Y813D01*
X11740Y807D01*
X11724Y798D01*
X11707Y785D01*
X11692Y767D01*
X11690Y765D01*
X11687Y757D01*
X11679Y744D01*
X11674Y726D01*
X11666Y704D01*
X11659Y678D01*
X11655Y644D01*
X11653Y607D01*
Y605D01*
Y602D01*
Y596D01*
Y589D01*
X11655Y567D01*
X11659Y541D01*
X11665Y513D01*
X11672Y483D01*
X11681Y454D01*
X11696Y428D01*
X11698Y426D01*
X11703Y418D01*
X11713Y409D01*
X11726Y398D01*
X11740Y385D01*
X11757Y376D01*
X11777Y368D01*
X11798Y367D01*
X11807D01*
X11816Y368D01*
X11829Y372D01*
X11844Y380D01*
X11859Y387D01*
X11874Y400D01*
X11889Y417D01*
X11890Y418D01*
X11894Y426D01*
X11900Y439D01*
X11907Y457D01*
X11915Y481D01*
X11920Y511D01*
X11924Y546D01*
X11926Y587D01*
Y589D01*
Y593D01*
Y598D01*
Y607D01*
X11924Y628D01*
X11920Y654D01*
X11916Y683D01*
X11909Y713D01*
X11898Y739D01*
X11885Y763D01*
X11883Y765D01*
X11877Y772D01*
X11870Y781D01*
X11859Y793D01*
X11844Y802D01*
X11827Y811D01*
X11809Y818D01*
X11789Y820D01*
D02*
G37*
G36*
X3769Y730D02*
X3543D01*
Y398D01*
X3789D01*
X3808Y400D01*
X3847Y404D01*
X3865Y406D01*
X3882Y409D01*
X3884D01*
X3889Y411D01*
X3895Y415D01*
X3904Y420D01*
X3915Y428D01*
X3926Y435D01*
X3938Y448D01*
X3949Y461D01*
X3951Y463D01*
X3954Y468D01*
X3958Y478D01*
X3963Y489D01*
X3969Y504D01*
X3975Y520D01*
X3976Y539D01*
X3978Y559D01*
Y561D01*
Y567D01*
X3976Y576D01*
X3975Y585D01*
X3973Y598D01*
X3967Y613D01*
X3962Y628D01*
X3952Y644D01*
X3941Y661D01*
X3926Y676D01*
X3910Y691D01*
X3889Y704D01*
X3865Y715D01*
X3838Y722D01*
X3806Y728D01*
X3769Y730D01*
D02*
G37*
G36*
X12961Y1242D02*
X12959D01*
X12951Y1241D01*
X12940Y1239D01*
X12927Y1233D01*
X12913Y1224D01*
X12896Y1209D01*
X12881Y1191D01*
X12868Y1165D01*
X12866Y1161D01*
X12864Y1155D01*
X12863Y1148D01*
X12861Y1139D01*
X12857Y1126D01*
X12855Y1109D01*
X12851Y1091D01*
X12848Y1068D01*
X12846Y1042D01*
X12842Y1013D01*
X12840Y980D01*
X12838Y942D01*
X12837Y902D01*
X12835Y855D01*
Y804D01*
Y800D01*
Y791D01*
Y778D01*
Y757D01*
X12837Y735D01*
Y709D01*
X12838Y681D01*
Y652D01*
X12842Y591D01*
X12846Y559D01*
X12850Y531D01*
X12853Y504D01*
X12857Y480D01*
X12863Y459D01*
X12868Y443D01*
X12870Y439D01*
X12874Y431D01*
X12881Y418D01*
X12892Y406D01*
X12905Y391D01*
X12922Y378D01*
X12940Y370D01*
X12961Y367D01*
X12963D01*
X12970Y368D01*
X12981Y370D01*
X12994Y376D01*
X13009Y385D01*
X13024Y398D01*
X13038Y417D01*
X13051Y443D01*
Y444D01*
X13053Y446D01*
X13055Y452D01*
X13057Y459D01*
X13059Y468D01*
X13063Y481D01*
X13066Y498D01*
X13070Y517D01*
X13072Y539D01*
X13075Y565D01*
X13079Y594D01*
X13081Y628D01*
X13083Y665D01*
X13085Y705D01*
X13087Y752D01*
Y804D01*
Y807D01*
Y817D01*
Y831D01*
Y850D01*
X13085Y872D01*
Y898D01*
X13083Y926D01*
Y955D01*
X13077Y1017D01*
X13075Y1048D01*
X13072Y1076D01*
X13068Y1104D01*
X13063Y1128D01*
X13057Y1148D01*
X13051Y1165D01*
X13050Y1168D01*
X13046Y1178D01*
X13038Y1189D01*
X13027Y1204D01*
X13014Y1218D01*
X13000Y1230D01*
X12981Y1239D01*
X12961Y1242D01*
D02*
G37*
G36*
X10966D02*
X10965D01*
X10957Y1241D01*
X10946Y1239D01*
X10933Y1233D01*
X10918Y1224D01*
X10902Y1209D01*
X10887Y1191D01*
X10874Y1165D01*
X10872Y1161D01*
X10870Y1155D01*
X10868Y1148D01*
X10866Y1139D01*
X10863Y1126D01*
X10861Y1109D01*
X10857Y1091D01*
X10854Y1068D01*
X10852Y1042D01*
X10848Y1013D01*
X10846Y980D01*
X10844Y942D01*
X10842Y902D01*
X10841Y855D01*
Y804D01*
Y800D01*
Y791D01*
Y778D01*
Y757D01*
X10842Y735D01*
Y709D01*
X10844Y681D01*
Y652D01*
X10848Y591D01*
X10852Y559D01*
X10855Y531D01*
X10859Y504D01*
X10863Y480D01*
X10868Y459D01*
X10874Y443D01*
X10876Y439D01*
X10879Y431D01*
X10887Y418D01*
X10898Y406D01*
X10911Y391D01*
X10928Y378D01*
X10946Y370D01*
X10966Y367D01*
X10968D01*
X10976Y368D01*
X10987Y370D01*
X11000Y376D01*
X11015Y385D01*
X11029Y398D01*
X11044Y417D01*
X11057Y443D01*
Y444D01*
X11059Y446D01*
X11061Y452D01*
X11063Y459D01*
X11065Y468D01*
X11068Y481D01*
X11072Y498D01*
X11076Y517D01*
X11078Y539D01*
X11081Y565D01*
X11085Y594D01*
X11087Y628D01*
X11089Y665D01*
X11091Y705D01*
X11092Y752D01*
Y804D01*
Y807D01*
Y817D01*
Y831D01*
Y850D01*
X11091Y872D01*
Y898D01*
X11089Y926D01*
Y955D01*
X11083Y1017D01*
X11081Y1048D01*
X11078Y1076D01*
X11074Y1104D01*
X11068Y1128D01*
X11063Y1148D01*
X11057Y1165D01*
X11055Y1168D01*
X11052Y1178D01*
X11044Y1189D01*
X11033Y1204D01*
X11020Y1218D01*
X11005Y1230D01*
X10987Y1239D01*
X10966Y1242D01*
D02*
G37*
G36*
X44248Y1604D02*
X44244D01*
X44233Y1602D01*
X44218Y1600D01*
X44198Y1594D01*
X44176Y1585D01*
X44152Y1572D01*
X44126Y1554D01*
X44102Y1530D01*
X44100Y1526D01*
X44092Y1517D01*
X44083Y1500D01*
X44072Y1478D01*
X44059Y1448D01*
X44050Y1415D01*
X44042Y1374D01*
X44040Y1330D01*
Y1328D01*
Y1324D01*
Y1317D01*
X44042Y1307D01*
Y1294D01*
X44044Y1281D01*
X44048Y1250D01*
X44057Y1215D01*
X44068Y1180D01*
X44083Y1143D01*
X44105Y1109D01*
X44109Y1106D01*
X44116Y1096D01*
X44131Y1083D01*
X44148Y1069D01*
X44170Y1054D01*
X44196Y1041D01*
X44224Y1031D01*
X44240Y1030D01*
X44255Y1028D01*
X44259D01*
X44268Y1030D01*
X44283Y1031D01*
X44302Y1037D01*
X44322Y1046D01*
X44344Y1061D01*
X44368Y1080D01*
X44390Y1106D01*
X44392Y1109D01*
X44400Y1120D01*
X44409Y1137D01*
X44422Y1161D01*
X44433Y1193D01*
X44442Y1230D01*
X44450Y1272D01*
X44451Y1320D01*
Y1322D01*
Y1326D01*
Y1333D01*
Y1343D01*
X44450Y1354D01*
X44448Y1367D01*
X44444Y1398D01*
X44437Y1431D01*
X44427Y1467D01*
X44413Y1500D01*
X44392Y1530D01*
X44390Y1533D01*
X44381Y1541D01*
X44368Y1554D01*
X44352Y1567D01*
X44331Y1580D01*
X44307Y1593D01*
X44279Y1600D01*
X44248Y1604D01*
D02*
G37*
G36*
X42139Y2063D02*
X42135D01*
X42124Y2061D01*
X42107Y2057D01*
X42089Y2050D01*
X42065Y2037D01*
X42054Y2028D01*
X42041Y2018D01*
X42028Y2005D01*
X42017Y1991D01*
X42004Y1974D01*
X41993Y1955D01*
Y1954D01*
X41991Y1950D01*
X41987Y1944D01*
X41983Y1935D01*
X41980Y1922D01*
X41974Y1905D01*
X41968Y1887D01*
X41965Y1865D01*
X41959Y1839D01*
X41954Y1809D01*
X41948Y1776D01*
X41944Y1737D01*
X41941Y1696D01*
X41937Y1650D01*
X41935Y1600D01*
Y1544D01*
Y1541D01*
Y1531D01*
Y1515D01*
X41937Y1494D01*
Y1470D01*
X41939Y1443D01*
X41941Y1411D01*
X41943Y1378D01*
X41950Y1309D01*
X41961Y1241D01*
X41967Y1209D01*
X41974Y1180D01*
X41983Y1154D01*
X41994Y1131D01*
Y1130D01*
X41998Y1128D01*
X42005Y1115D01*
X42018Y1098D01*
X42035Y1080D01*
X42057Y1061D01*
X42085Y1044D01*
X42115Y1031D01*
X42131Y1030D01*
X42148Y1028D01*
X42152D01*
X42163Y1030D01*
X42180Y1033D01*
X42200Y1041D01*
X42222Y1054D01*
X42235Y1063D01*
X42246Y1072D01*
X42259Y1085D01*
X42270Y1098D01*
X42283Y1115D01*
X42294Y1133D01*
Y1135D01*
X42296Y1139D01*
X42300Y1144D01*
X42304Y1156D01*
X42309Y1167D01*
X42313Y1183D01*
X42318Y1202D01*
X42326Y1224D01*
X42331Y1250D01*
X42337Y1280D01*
X42341Y1313D01*
X42346Y1352D01*
X42350Y1393D01*
X42354Y1439D01*
X42355Y1489D01*
Y1544D01*
Y1548D01*
Y1557D01*
Y1574D01*
Y1594D01*
X42354Y1618D01*
X42352Y1648D01*
X42350Y1680D01*
X42348Y1713D01*
X42341Y1781D01*
X42329Y1850D01*
X42322Y1881D01*
X42315Y1909D01*
X42305Y1935D01*
X42294Y1957D01*
Y1959D01*
X42292Y1961D01*
X42289Y1967D01*
X42283Y1974D01*
X42270Y1991D01*
X42254Y2011D01*
X42230Y2030D01*
X42204Y2046D01*
X42189Y2054D01*
X42174Y2059D01*
X42157Y2061D01*
X42139Y2063D01*
D02*
G37*
G36*
X2796Y19344D02*
X2781D01*
X2770Y19342D01*
X2757Y19341D01*
X2743Y19337D01*
X2706Y19328D01*
X2687Y19322D01*
X2665Y19313D01*
X2644Y19302D01*
X2622Y19291D01*
X2602Y19274D01*
X2580Y19257D01*
X2559Y19237D01*
X2541Y19215D01*
X2539Y19213D01*
X2537Y19209D01*
X2531Y19202D01*
X2526Y19191D01*
X2519Y19176D01*
X2509Y19159D01*
X2500Y19139D01*
X2491Y19117D01*
X2481Y19089D01*
X2472Y19059D01*
X2465Y19026D01*
X2456Y18991D01*
X2450Y18952D01*
X2444Y18909D01*
X2443Y18863D01*
X2441Y18813D01*
Y18811D01*
Y18802D01*
Y18791D01*
X2443Y18774D01*
X2444Y18756D01*
X2446Y18731D01*
X2450Y18707D01*
X2454Y18680D01*
X2465Y18622D01*
X2483Y18561D01*
X2496Y18531D01*
X2509Y18504D01*
X2524Y18476D01*
X2543Y18450D01*
X2544Y18448D01*
X2548Y18444D01*
X2554Y18439D01*
X2561Y18430D01*
X2570Y18420D01*
X2583Y18409D01*
X2598Y18398D01*
X2613Y18387D01*
X2650Y18363D01*
X2693Y18343D01*
X2717Y18333D01*
X2741Y18328D01*
X2767Y18324D01*
X2794Y18322D01*
X2809D01*
X2820Y18324D01*
X2833Y18326D01*
X2848Y18330D01*
X2883Y18339D01*
X2902Y18344D01*
X2924Y18354D01*
X2944Y18365D01*
X2965Y18378D01*
X2987Y18393D01*
X3007Y18409D01*
X3028Y18430D01*
X3048Y18452D01*
X3050Y18454D01*
X3052Y18457D01*
X3057Y18465D01*
X3065Y18476D01*
X3072Y18489D01*
X3081Y18506D01*
X3091Y18526D01*
X3100Y18548D01*
X3109Y18574D01*
X3118Y18602D01*
X3128Y18633D01*
X3135Y18668D01*
X3143Y18705D01*
X3148Y18746D01*
X3150Y18789D01*
X3152Y18835D01*
Y18837D01*
Y18843D01*
Y18852D01*
Y18863D01*
X3150Y18878D01*
Y18894D01*
X3148Y18913D01*
X3144Y18933D01*
X3139Y18978D01*
X3130Y19026D01*
X3117Y19076D01*
X3098Y19126D01*
Y19128D01*
X3096Y19130D01*
X3094Y19135D01*
X3091Y19142D01*
X3081Y19161D01*
X3068Y19183D01*
X3050Y19209D01*
X3030Y19235D01*
X3005Y19261D01*
X2976Y19285D01*
X2972Y19287D01*
X2961Y19294D01*
X2944Y19304D01*
X2922Y19315D01*
X2896Y19326D01*
X2867Y19335D01*
X2831Y19342D01*
X2796Y19344D01*
D02*
G37*
G36*
X35126Y16109D02*
X35105D01*
X35094Y16107D01*
X35078Y16105D01*
X35055Y16098D01*
X35031Y16087D01*
X35005Y16072D01*
X34979Y16050D01*
X34966Y16035D01*
X34953Y16020D01*
Y16018D01*
X34952Y16017D01*
X34948Y16011D01*
X34944Y16004D01*
X34939Y15994D01*
X34933Y15983D01*
X34928Y15970D01*
X34922Y15955D01*
X34916Y15937D01*
X34911Y15918D01*
X34905Y15896D01*
X34900Y15872D01*
X34896Y15846D01*
X34892Y15818D01*
X34891Y15789D01*
Y15757D01*
Y15756D01*
Y15750D01*
Y15741D01*
X34892Y15728D01*
Y15713D01*
X34894Y15696D01*
X34898Y15657D01*
X34907Y15615D01*
X34918Y15570D01*
X34933Y15530D01*
X34944Y15509D01*
X34955Y15493D01*
X34959Y15489D01*
X34966Y15480D01*
X34981Y15465D01*
X35000Y15450D01*
X35022Y15435D01*
X35050Y15420D01*
X35081Y15411D01*
X35098Y15409D01*
X35115Y15407D01*
X35118D01*
X35129Y15409D01*
X35146Y15413D01*
X35168Y15419D01*
X35192Y15430D01*
X35218Y15444D01*
X35244Y15467D01*
X35257Y15480D01*
X35270Y15494D01*
Y15496D01*
X35274Y15498D01*
X35276Y15504D01*
X35281Y15511D01*
X35285Y15520D01*
X35290Y15531D01*
X35296Y15544D01*
X35303Y15559D01*
X35309Y15578D01*
X35315Y15596D01*
X35320Y15618D01*
X35326Y15643D01*
X35329Y15668D01*
X35333Y15696D01*
X35335Y15726D01*
Y15757D01*
Y15759D01*
Y15765D01*
Y15774D01*
X35333Y15787D01*
Y15802D01*
X35331Y15818D01*
X35328Y15857D01*
X35318Y15900D01*
X35307Y15944D01*
X35290Y15985D01*
X35279Y16005D01*
X35268Y16022D01*
Y16024D01*
X35265Y16026D01*
X35257Y16035D01*
X35242Y16050D01*
X35224Y16067D01*
X35202Y16081D01*
X35174Y16096D01*
X35142Y16105D01*
X35126Y16109D01*
D02*
G37*
G36*
X38974Y17776D02*
X38404D01*
Y17237D01*
X38935D01*
Y17583D01*
X38937Y17594D01*
Y17609D01*
X38939Y17641D01*
X38945Y17674D01*
X38950Y17709D01*
X38959Y17743D01*
X38972Y17772D01*
X38974Y17776D01*
D01*
D02*
G37*
G36*
X39282Y17789D02*
X39280D01*
X39278D01*
X39272D01*
X39265D01*
X39248Y17785D01*
X39226Y17781D01*
X39202Y17774D01*
X39176Y17765D01*
X39152Y17750D01*
X39130Y17731D01*
X39128Y17730D01*
X39120Y17720D01*
X39111Y17707D01*
X39102Y17691D01*
X39091Y17667D01*
X39083Y17637D01*
X39076Y17604D01*
X39074Y17565D01*
Y17237D01*
X39495D01*
Y17548D01*
X39493Y17565D01*
X39491Y17587D01*
X39489Y17611D01*
X39485Y17635D01*
X39480Y17659D01*
X39472Y17680D01*
X39470Y17681D01*
X39469Y17689D01*
X39461Y17696D01*
X39454Y17709D01*
X39443Y17720D01*
X39432Y17735D01*
X39415Y17748D01*
X39398Y17759D01*
X39396Y17761D01*
X39389Y17765D01*
X39380Y17768D01*
X39365Y17774D01*
X39348Y17780D01*
X39328Y17785D01*
X39306Y17787D01*
X39282Y17789D01*
D02*
G37*
G36*
X25122Y19415D02*
X24905D01*
Y18450D01*
X25148D01*
X25159Y18452D01*
X25172D01*
X25202Y18456D01*
X25233Y18461D01*
X25267Y18469D01*
X25300Y18478D01*
X25328Y18493D01*
X25331Y18494D01*
X25339Y18500D01*
X25352Y18511D01*
X25368Y18526D01*
X25385Y18546D01*
X25404Y18570D01*
X25420Y18600D01*
X25435Y18633D01*
Y18635D01*
X25437Y18639D01*
X25441Y18646D01*
X25442Y18656D01*
X25446Y18668D01*
X25452Y18683D01*
X25455Y18700D01*
X25461Y18720D01*
X25465Y18741D01*
X25468Y18765D01*
X25474Y18791D01*
X25478Y18817D01*
X25483Y18876D01*
X25485Y18941D01*
Y18943D01*
Y18950D01*
Y18959D01*
Y18972D01*
X25483Y18989D01*
Y19007D01*
X25481Y19028D01*
X25478Y19050D01*
X25472Y19098D01*
X25463Y19148D01*
X25450Y19196D01*
X25441Y19218D01*
X25431Y19241D01*
Y19242D01*
X25429Y19246D01*
X25426Y19252D01*
X25422Y19259D01*
X25411Y19278D01*
X25396Y19302D01*
X25376Y19326D01*
X25354Y19350D01*
X25328Y19372D01*
X25298Y19389D01*
X25296Y19391D01*
X25287Y19392D01*
X25274Y19396D01*
X25255Y19402D01*
X25231Y19407D01*
X25200Y19411D01*
X25165Y19413D01*
X25122Y19415D01*
D02*
G37*
G36*
X11572Y12115D02*
X11248Y11546D01*
X11572D01*
Y12115D01*
D02*
G37*
G36*
X10522Y12215D02*
X10305D01*
Y11250D01*
X10548D01*
X10559Y11252D01*
X10572D01*
X10602Y11256D01*
X10633Y11261D01*
X10667Y11269D01*
X10700Y11278D01*
X10728Y11293D01*
X10731Y11294D01*
X10739Y11300D01*
X10752Y11311D01*
X10768Y11326D01*
X10785Y11346D01*
X10804Y11370D01*
X10820Y11400D01*
X10835Y11433D01*
Y11435D01*
X10837Y11439D01*
X10841Y11446D01*
X10842Y11456D01*
X10846Y11468D01*
X10852Y11483D01*
X10855Y11500D01*
X10861Y11520D01*
X10865Y11541D01*
X10868Y11565D01*
X10874Y11591D01*
X10878Y11617D01*
X10883Y11676D01*
X10885Y11741D01*
Y11743D01*
Y11750D01*
Y11759D01*
Y11772D01*
X10883Y11789D01*
Y11807D01*
X10881Y11828D01*
X10878Y11850D01*
X10872Y11898D01*
X10863Y11948D01*
X10850Y11996D01*
X10841Y12018D01*
X10831Y12041D01*
Y12042D01*
X10829Y12046D01*
X10826Y12052D01*
X10822Y12059D01*
X10811Y12078D01*
X10796Y12102D01*
X10776Y12126D01*
X10754Y12150D01*
X10728Y12172D01*
X10698Y12189D01*
X10696Y12191D01*
X10687Y12192D01*
X10674Y12196D01*
X10655Y12202D01*
X10631Y12207D01*
X10600Y12211D01*
X10565Y12213D01*
X10522Y12215D01*
D02*
G37*
G36*
X11282Y15989D02*
X11280D01*
X11278D01*
X11272D01*
X11265D01*
X11248Y15985D01*
X11226Y15981D01*
X11202Y15974D01*
X11176Y15965D01*
X11152Y15950D01*
X11130Y15931D01*
X11128Y15930D01*
X11120Y15920D01*
X11111Y15907D01*
X11102Y15891D01*
X11091Y15867D01*
X11083Y15837D01*
X11076Y15804D01*
X11074Y15765D01*
Y15437D01*
X11495D01*
Y15748D01*
X11493Y15765D01*
X11491Y15787D01*
X11489Y15811D01*
X11485Y15835D01*
X11480Y15859D01*
X11472Y15880D01*
X11470Y15881D01*
X11469Y15889D01*
X11461Y15896D01*
X11454Y15909D01*
X11443Y15920D01*
X11432Y15935D01*
X11415Y15948D01*
X11398Y15959D01*
X11396Y15961D01*
X11389Y15965D01*
X11380Y15968D01*
X11365Y15974D01*
X11348Y15980D01*
X11328Y15985D01*
X11306Y15987D01*
X11282Y15989D01*
D02*
G37*
G36*
X33100Y1687D02*
X33098D01*
X33094D01*
X33087D01*
X33078D01*
X33067Y1685D01*
X33054Y1683D01*
X33022Y1679D01*
X32989Y1672D01*
X32954Y1663D01*
X32920Y1648D01*
X32891Y1628D01*
X32887Y1626D01*
X32880Y1617D01*
X32867Y1604D01*
X32854Y1587D01*
X32841Y1567D01*
X32828Y1542D01*
X32820Y1515D01*
X32817Y1483D01*
Y1479D01*
X32819Y1468D01*
X32820Y1454D01*
X32826Y1433D01*
X32835Y1411D01*
X32848Y1387D01*
X32867Y1361D01*
X32891Y1337D01*
X32895Y1335D01*
X32904Y1328D01*
X32920Y1318D01*
X32943Y1307D01*
X32972Y1294D01*
X33006Y1285D01*
X33046Y1278D01*
X33091Y1276D01*
X33093D01*
X33096D01*
X33104D01*
X33113Y1278D01*
X33126D01*
X33139Y1280D01*
X33170Y1283D01*
X33206Y1292D01*
X33241Y1304D01*
X33278Y1318D01*
X33311Y1341D01*
X33315Y1344D01*
X33324Y1352D01*
X33337Y1367D01*
X33352Y1383D01*
X33367Y1405D01*
X33380Y1431D01*
X33389Y1459D01*
X33391Y1476D01*
X33393Y1491D01*
Y1494D01*
X33391Y1504D01*
X33389Y1518D01*
X33383Y1537D01*
X33374Y1557D01*
X33359Y1579D01*
X33341Y1604D01*
X33315Y1626D01*
X33311Y1628D01*
X33300Y1635D01*
X33283Y1644D01*
X33259Y1657D01*
X33228Y1668D01*
X33191Y1678D01*
X33148Y1685D01*
X33100Y1687D01*
D02*
G37*
G36*
X25179Y8984D02*
X24610D01*
X25179Y8660D01*
Y8984D01*
D02*
G37*
G36*
X29582Y789D02*
X29580D01*
X29578D01*
X29572D01*
X29565D01*
X29548Y785D01*
X29526Y781D01*
X29502Y774D01*
X29476Y765D01*
X29452Y750D01*
X29430Y731D01*
X29428Y730D01*
X29420Y720D01*
X29411Y707D01*
X29402Y691D01*
X29391Y667D01*
X29383Y637D01*
X29376Y604D01*
X29374Y565D01*
Y237D01*
X29795D01*
Y548D01*
X29793Y565D01*
X29791Y587D01*
X29789Y611D01*
X29785Y635D01*
X29780Y659D01*
X29772Y680D01*
X29770Y681D01*
X29769Y689D01*
X29761Y696D01*
X29754Y709D01*
X29743Y720D01*
X29732Y735D01*
X29715Y748D01*
X29698Y759D01*
X29696Y761D01*
X29689Y765D01*
X29680Y768D01*
X29665Y774D01*
X29648Y780D01*
X29628Y785D01*
X29606Y787D01*
X29582Y789D01*
D02*
G37*
G36*
X31700Y1644D02*
X31698D01*
X31694D01*
X31687D01*
X31678D01*
X31667Y1642D01*
X31654Y1641D01*
X31622Y1637D01*
X31589Y1629D01*
X31554Y1620D01*
X31520Y1605D01*
X31491Y1585D01*
X31487Y1583D01*
X31480Y1574D01*
X31467Y1561D01*
X31454Y1544D01*
X31441Y1524D01*
X31428Y1500D01*
X31420Y1472D01*
X31417Y1441D01*
Y1437D01*
X31419Y1426D01*
X31420Y1411D01*
X31426Y1391D01*
X31435Y1368D01*
X31448Y1344D01*
X31467Y1318D01*
X31491Y1294D01*
X31495Y1292D01*
X31504Y1285D01*
X31520Y1276D01*
X31543Y1265D01*
X31572Y1252D01*
X31606Y1242D01*
X31646Y1235D01*
X31691Y1233D01*
X31693D01*
X31696D01*
X31704D01*
X31713Y1235D01*
X31726D01*
X31739Y1237D01*
X31770Y1241D01*
X31806Y1250D01*
X31841Y1261D01*
X31878Y1276D01*
X31911Y1298D01*
X31915Y1302D01*
X31924Y1309D01*
X31937Y1324D01*
X31952Y1341D01*
X31967Y1363D01*
X31980Y1389D01*
X31989Y1417D01*
X31991Y1433D01*
X31993Y1448D01*
Y1452D01*
X31991Y1461D01*
X31989Y1476D01*
X31983Y1494D01*
X31974Y1515D01*
X31959Y1537D01*
X31941Y1561D01*
X31915Y1583D01*
X31911Y1585D01*
X31900Y1592D01*
X31883Y1602D01*
X31859Y1615D01*
X31828Y1626D01*
X31791Y1635D01*
X31748Y1642D01*
X31700Y1644D01*
D02*
G37*
G36*
X31182Y789D02*
X31180D01*
X31178D01*
X31172D01*
X31165D01*
X31148Y785D01*
X31126Y781D01*
X31102Y774D01*
X31076Y765D01*
X31052Y750D01*
X31030Y731D01*
X31028Y730D01*
X31020Y720D01*
X31011Y707D01*
X31002Y691D01*
X30991Y667D01*
X30983Y637D01*
X30976Y604D01*
X30974Y565D01*
Y237D01*
X31395D01*
Y548D01*
X31393Y565D01*
X31391Y587D01*
X31389Y611D01*
X31385Y635D01*
X31380Y659D01*
X31372Y680D01*
X31370Y681D01*
X31369Y689D01*
X31361Y696D01*
X31354Y709D01*
X31343Y720D01*
X31332Y735D01*
X31315Y748D01*
X31298Y759D01*
X31296Y761D01*
X31289Y765D01*
X31280Y768D01*
X31265Y774D01*
X31248Y780D01*
X31228Y785D01*
X31206Y787D01*
X31182Y789D01*
D02*
G37*
G36*
X18682Y1089D02*
X18680D01*
X18678D01*
X18672D01*
X18665D01*
X18648Y1085D01*
X18626Y1081D01*
X18602Y1074D01*
X18576Y1065D01*
X18552Y1050D01*
X18530Y1031D01*
X18528Y1030D01*
X18520Y1020D01*
X18511Y1007D01*
X18502Y991D01*
X18491Y967D01*
X18483Y937D01*
X18476Y904D01*
X18474Y865D01*
Y537D01*
X18895D01*
Y848D01*
X18893Y865D01*
X18891Y887D01*
X18889Y911D01*
X18885Y935D01*
X18880Y959D01*
X18872Y980D01*
X18870Y981D01*
X18869Y989D01*
X18861Y996D01*
X18854Y1009D01*
X18843Y1020D01*
X18832Y1035D01*
X18815Y1048D01*
X18798Y1059D01*
X18796Y1061D01*
X18789Y1065D01*
X18780Y1068D01*
X18765Y1074D01*
X18748Y1080D01*
X18728Y1085D01*
X18706Y1087D01*
X18682Y1089D01*
D02*
G37*
G36*
X16954Y1802D02*
X16385D01*
X16954Y1478D01*
Y1802D01*
D02*
G37*
G36*
X16482Y1089D02*
X16480D01*
X16478D01*
X16472D01*
X16465D01*
X16448Y1085D01*
X16426Y1081D01*
X16402Y1074D01*
X16376Y1065D01*
X16352Y1050D01*
X16330Y1031D01*
X16328Y1030D01*
X16320Y1020D01*
X16311Y1007D01*
X16302Y991D01*
X16291Y967D01*
X16283Y937D01*
X16276Y904D01*
X16274Y865D01*
Y537D01*
X16695D01*
Y848D01*
X16693Y865D01*
X16691Y887D01*
X16689Y911D01*
X16685Y935D01*
X16680Y959D01*
X16672Y980D01*
X16670Y981D01*
X16669Y989D01*
X16661Y996D01*
X16654Y1009D01*
X16643Y1020D01*
X16632Y1035D01*
X16615Y1048D01*
X16598Y1059D01*
X16596Y1061D01*
X16589Y1065D01*
X16580Y1068D01*
X16565Y1074D01*
X16548Y1080D01*
X16528Y1085D01*
X16506Y1087D01*
X16482Y1089D01*
D02*
G37*
G36*
X29400Y9315D02*
X29183D01*
Y8350D01*
X29426D01*
X29437Y8352D01*
X29450D01*
X29479Y8356D01*
X29511Y8361D01*
X29544Y8368D01*
X29578Y8378D01*
X29605Y8393D01*
X29609Y8394D01*
X29617Y8400D01*
X29629Y8411D01*
X29646Y8426D01*
X29663Y8446D01*
X29681Y8470D01*
X29698Y8500D01*
X29713Y8533D01*
Y8535D01*
X29715Y8539D01*
X29718Y8546D01*
X29720Y8556D01*
X29724Y8568D01*
X29729Y8583D01*
X29733Y8600D01*
X29739Y8620D01*
X29742Y8641D01*
X29746Y8665D01*
X29752Y8691D01*
X29755Y8717D01*
X29761Y8776D01*
X29763Y8841D01*
Y8843D01*
Y8850D01*
Y8859D01*
Y8872D01*
X29761Y8889D01*
Y8907D01*
X29759Y8928D01*
X29755Y8950D01*
X29750Y8998D01*
X29741Y9048D01*
X29728Y9096D01*
X29718Y9118D01*
X29709Y9141D01*
Y9142D01*
X29707Y9146D01*
X29704Y9152D01*
X29700Y9159D01*
X29689Y9178D01*
X29674Y9202D01*
X29654Y9226D01*
X29631Y9250D01*
X29605Y9272D01*
X29576Y9289D01*
X29574Y9291D01*
X29565Y9292D01*
X29552Y9296D01*
X29533Y9302D01*
X29509Y9307D01*
X29478Y9311D01*
X29442Y9313D01*
X29400Y9315D01*
D02*
G37*
G36*
X28354D02*
X28137D01*
Y8350D01*
X28380D01*
X28391Y8352D01*
X28404D01*
X28433Y8356D01*
X28465Y8361D01*
X28498Y8368D01*
X28531Y8378D01*
X28559Y8393D01*
X28563Y8394D01*
X28570Y8400D01*
X28583Y8411D01*
X28600Y8426D01*
X28617Y8446D01*
X28635Y8470D01*
X28652Y8500D01*
X28667Y8533D01*
Y8535D01*
X28668Y8539D01*
X28672Y8546D01*
X28674Y8556D01*
X28678Y8568D01*
X28683Y8583D01*
X28687Y8600D01*
X28693Y8620D01*
X28696Y8641D01*
X28700Y8665D01*
X28705Y8691D01*
X28709Y8717D01*
X28715Y8776D01*
X28717Y8841D01*
Y8843D01*
Y8850D01*
Y8859D01*
Y8872D01*
X28715Y8889D01*
Y8907D01*
X28713Y8928D01*
X28709Y8950D01*
X28704Y8998D01*
X28694Y9048D01*
X28681Y9096D01*
X28672Y9118D01*
X28663Y9141D01*
Y9142D01*
X28661Y9146D01*
X28657Y9152D01*
X28654Y9159D01*
X28643Y9178D01*
X28628Y9202D01*
X28607Y9226D01*
X28585Y9250D01*
X28559Y9272D01*
X28530Y9289D01*
X28528Y9291D01*
X28518Y9292D01*
X28506Y9296D01*
X28487Y9302D01*
X28463Y9307D01*
X28431Y9311D01*
X28396Y9313D01*
X28354Y9315D01*
D02*
G37*
%LPD*%
D10*
X32345Y14780D02*
G03*
X32345Y14780I-0J0D01*
G01*
X45396Y4370D02*
G03*
X45396Y4370I-1J0D01*
G01*
X5426Y4370D02*
G03*
X5426Y4370I-1J0D01*
G01*
D11*
X26825Y18875D02*
G03*
X26825Y18875I-125J0D01*
G01*
X8603Y17985D02*
G03*
X8603Y17985I-125J0D01*
G01*
X6175Y9575D02*
G03*
X6175Y9575I-125J0D01*
G01*
X25775Y8075D02*
G03*
X25775Y8075I-125J0D01*
G01*
D12*
X33663Y16713D02*
G03*
X33663Y16713I-50J0D01*
G01*
X3937Y17517D02*
G03*
X3937Y17517I-50J0D01*
G01*
D13*
X32920Y9255D02*
X39320D01*
X32920Y14655D02*
X39320D01*
Y9255D02*
Y9425D01*
Y14485D02*
Y14655D01*
X32920Y9255D02*
Y9425D01*
Y14485D02*
Y14655D01*
D14*
X24200Y10275D02*
Y11675D01*
X16100Y10275D02*
Y11675D01*
X27350Y19350D02*
X31850D01*
X27350Y15750D02*
X31850D01*
X27350Y19125D02*
Y19350D01*
X31850Y19125D02*
Y19350D01*
X27350Y15750D02*
Y15975D01*
X31850Y15750D02*
Y15975D01*
X34675Y18100D02*
Y18200D01*
X33925Y18100D02*
Y18200D01*
X36150Y16700D02*
Y19600D01*
X37550D01*
Y16700D02*
Y19600D01*
X36150Y16700D02*
X37550D01*
X40525Y5050D02*
Y12680D01*
Y5050D02*
X45615D01*
X45615D02*
Y12675D01*
X40525Y12680D02*
X45615D01*
X29100Y12800D02*
X29800D01*
X29100Y10300D02*
X29800D01*
X18400Y2375D02*
Y5275D01*
X19800D01*
Y2375D02*
Y5275D01*
X18400Y2375D02*
X19800D01*
X16200D02*
Y5275D01*
X17600D01*
Y2375D02*
Y5275D01*
X16200Y2375D02*
X17600D01*
X10900Y14630D02*
Y17530D01*
X9500Y14630D02*
X10900D01*
X9500D02*
Y17530D01*
X10900D01*
X5200Y15380D02*
X6000D01*
X5200D02*
Y16380D01*
X7400Y15380D02*
X8200D01*
Y16380D01*
X2825Y16030D02*
Y16130D01*
X3575Y16030D02*
Y16130D01*
X13900Y4300D02*
Y5475D01*
X6700Y4300D02*
Y5475D01*
X13900Y9425D02*
Y10600D01*
X6700Y9425D02*
Y10600D01*
Y4300D02*
X13900D01*
X6700Y10600D02*
X13900D01*
X555Y5050D02*
Y12680D01*
Y5050D02*
X5645D01*
X5645D02*
Y12675D01*
X555Y12680D02*
X5645D01*
X36800Y550D02*
Y3450D01*
X35400Y550D02*
X36800D01*
X35400D02*
Y3450D01*
X36800D01*
X33600Y550D02*
Y3450D01*
X35000D01*
Y550D02*
Y3450D01*
X33600Y550D02*
X35000D01*
X39625Y6050D02*
Y6750D01*
X37125Y6050D02*
Y6750D01*
X36375Y6050D02*
Y6750D01*
X33875Y6050D02*
Y6750D01*
X27600Y2525D02*
Y7625D01*
X31300Y2525D02*
Y7625D01*
X27600D02*
X31300D01*
X27600Y2525D02*
X31300D01*
X22050Y2325D02*
Y5325D01*
X20550Y2325D02*
X22050D01*
X20550D02*
Y5325D01*
X22050D01*
M02*
