G04*
G04 #@! TF.GenerationSoftware,Altium Limited,Altium Designer,19.1.6 (110)*
G04*
G04 Layer_Physical_Order=1*
G04 Layer_Color=255*
%FSLAX43Y43*%
%MOMM*%
G71*
G01*
G75*
%ADD14C,0.200*%
G04:AMPARAMS|DCode=35|XSize=4.52mm|YSize=3.85mm|CornerRadius=0.481mm|HoleSize=0mm|Usage=FLASHONLY|Rotation=90.000|XOffset=0mm|YOffset=0mm|HoleType=Round|Shape=RoundedRectangle|*
%AMROUNDEDRECTD35*
21,1,4.520,2.888,0,0,90.0*
21,1,3.558,3.850,0,0,90.0*
1,1,0.963,1.444,1.779*
1,1,0.963,1.444,-1.779*
1,1,0.963,-1.444,-1.779*
1,1,0.963,-1.444,1.779*
%
%ADD35ROUNDEDRECTD35*%
G04:AMPARAMS|DCode=36|XSize=0.71mm|YSize=1.372mm|CornerRadius=0.089mm|HoleSize=0mm|Usage=FLASHONLY|Rotation=90.000|XOffset=0mm|YOffset=0mm|HoleType=Round|Shape=RoundedRectangle|*
%AMROUNDEDRECTD36*
21,1,0.710,1.195,0,0,90.0*
21,1,0.532,1.372,0,0,90.0*
1,1,0.178,0.597,0.266*
1,1,0.178,0.597,-0.266*
1,1,0.178,-0.597,-0.266*
1,1,0.178,-0.597,0.266*
%
%ADD36ROUNDEDRECTD36*%
%ADD37R,1.372X0.710*%
%ADD38R,8.200X2.600*%
%ADD39R,1.700X1.800*%
%ADD40R,0.950X0.800*%
%ADD41R,0.900X0.850*%
%ADD42R,1.300X2.700*%
%ADD43R,0.600X1.000*%
%ADD44R,2.450X3.150*%
%ADD45R,0.620X0.660*%
%ADD46R,2.700X1.300*%
%ADD47R,1.400X0.450*%
%ADD48O,1.400X0.450*%
%ADD49R,2.660X2.460*%
%ADD50R,1.400X1.200*%
%ADD51R,1.000X1.150*%
%ADD52C,1.000*%
%ADD53C,0.500*%
%ADD54C,0.381*%
%ADD55C,1.900*%
%ADD56R,1.900X1.900*%
%ADD57C,0.600*%
G36*
X45945Y15444D02*
X45855Y15354D01*
X43400Y15354D01*
X37275D01*
X37233Y15403D01*
X37207Y15481D01*
X37218Y15498D01*
X37248Y15650D01*
Y16750D01*
X37500D01*
Y18000D01*
X36200D01*
Y16750D01*
X36452D01*
Y15815D01*
X35991Y15354D01*
X34600D01*
X34522Y15338D01*
X34456Y15294D01*
X34412Y15228D01*
X34396Y15150D01*
X34396Y9148D01*
X34412Y9070D01*
X34456Y9004D01*
X34522Y8960D01*
X34600Y8944D01*
X39996D01*
Y8748D01*
X39925Y8650D01*
X39869Y8650D01*
X38805D01*
Y7800D01*
Y6950D01*
X39919D01*
X39925Y6950D01*
X40046Y6936D01*
Y6554D01*
X33379D01*
X33299Y6652D01*
X33308Y6700D01*
X33275Y6866D01*
X33235Y6927D01*
X33190Y7025D01*
X33235Y7123D01*
X33275Y7184D01*
X33276Y7185D01*
X32400D01*
X31524D01*
X31525Y7184D01*
X31565Y7123D01*
X31610Y7025D01*
X31565Y6927D01*
X31525Y6866D01*
X31524Y6865D01*
X32400D01*
Y6535D01*
X31524D01*
X31525Y6534D01*
X31619Y6394D01*
Y6356D01*
X31525Y6216D01*
X31492Y6050D01*
X31525Y5884D01*
X31565Y5823D01*
X31610Y5725D01*
X31565Y5627D01*
X31525Y5566D01*
X31492Y5400D01*
X31525Y5234D01*
X31619Y5094D01*
Y5056D01*
X31525Y4916D01*
X31492Y4750D01*
X31525Y4584D01*
X31619Y4444D01*
Y4406D01*
X31525Y4266D01*
X31492Y4100D01*
X31525Y3934D01*
X31619Y3794D01*
Y3756D01*
X31525Y3616D01*
X31524Y3615D01*
X32400D01*
X33297D01*
X33333Y3653D01*
X33381Y3685D01*
X33450Y3671D01*
X45945D01*
Y255D01*
X38074D01*
X38016Y325D01*
X38016Y1265D01*
X38106Y1355D01*
X38146D01*
X38228Y1437D01*
X38094Y1414D01*
X38050Y1459D01*
X37985Y1524D01*
Y2235D01*
Y3295D01*
X36965D01*
Y3181D01*
X36750D01*
Y3400D01*
X35450D01*
Y3181D01*
X34950D01*
Y3400D01*
X33650D01*
Y3198D01*
X33359D01*
X33307Y3285D01*
X32400D01*
X31524D01*
X31525Y3284D01*
X31619Y3144D01*
Y3106D01*
X31525Y2966D01*
X31492Y2800D01*
X31525Y2634D01*
X31619Y2494D01*
X31759Y2400D01*
X31925Y2367D01*
X32875D01*
X33041Y2400D01*
X33044Y2402D01*
X33650D01*
Y2150D01*
X34859D01*
X34878Y2143D01*
X34947Y2084D01*
X34952Y1951D01*
X34844Y1850D01*
X34600D01*
Y1225D01*
X34300D01*
D01*
X34600D01*
Y600D01*
X34950D01*
X34971Y482D01*
X34971Y382D01*
X34873Y255D01*
X255D01*
Y3830D01*
X275Y3846D01*
X10400D01*
X10478Y3862D01*
X10544Y3906D01*
X10583Y3964D01*
X10654Y3973D01*
X10716Y3965D01*
X10733Y3940D01*
X10753Y3908D01*
X10755Y3907D01*
X10756Y3906D01*
X10788Y3885D01*
X10819Y3863D01*
X10821Y3863D01*
X10822Y3862D01*
X10859Y3854D01*
X10897Y3846D01*
X15372Y3771D01*
X15373Y3771D01*
X15375Y3771D01*
X15375Y3771D01*
X16175D01*
X16250Y3675D01*
X16250Y3644D01*
Y2425D01*
X17550D01*
Y2608D01*
X17558Y2616D01*
X17677Y2664D01*
X17805Y2579D01*
X18000Y2540D01*
X18195Y2579D01*
X18323Y2664D01*
X18442Y2616D01*
X18450Y2608D01*
Y2425D01*
X19750D01*
Y3675D01*
X18514D01*
X18450Y3675D01*
X18354Y3771D01*
X18354Y3771D01*
X18332Y3771D01*
X18330Y3775D01*
X18263Y3897D01*
X18279Y3975D01*
Y6121D01*
X18594D01*
X18662Y5994D01*
X18629Y5945D01*
X18590Y5750D01*
X18629Y5555D01*
X18740Y5390D01*
X18794Y5353D01*
Y5225D01*
X18450D01*
Y3975D01*
X19750D01*
Y5225D01*
X19406D01*
Y5353D01*
X19460Y5390D01*
X19571Y5555D01*
X19610Y5750D01*
X19571Y5945D01*
X19538Y5994D01*
X19606Y6121D01*
X24490D01*
Y5821D01*
X24363Y5769D01*
X24341Y5791D01*
X24241Y5858D01*
X24124Y5881D01*
X24124Y5881D01*
X22275D01*
X22275Y5881D01*
X22158Y5858D01*
X22059Y5791D01*
X22059Y5791D01*
X21567Y5300D01*
X20600D01*
Y3750D01*
Y3425D01*
X22000D01*
Y3750D01*
Y4867D01*
X22283Y5150D01*
X22400Y5101D01*
Y3902D01*
X22400Y3875D01*
Y3775D01*
X22400Y3748D01*
Y3405D01*
X24200D01*
Y3748D01*
X24200Y3775D01*
Y3875D01*
X24200Y3902D01*
Y4444D01*
X24541D01*
X24577Y4390D01*
X24742Y4279D01*
X24938Y4240D01*
X25133Y4279D01*
X25298Y4390D01*
X25334Y4444D01*
X25591D01*
X25659Y4317D01*
X25625Y4266D01*
X25625Y4265D01*
X26500D01*
X27376D01*
X27375Y4266D01*
X27281Y4406D01*
Y4444D01*
X27375Y4584D01*
X27408Y4750D01*
X27375Y4916D01*
X27281Y5056D01*
Y5094D01*
X27375Y5234D01*
X27408Y5400D01*
X27375Y5566D01*
X27281Y5706D01*
Y5744D01*
X27375Y5884D01*
X27408Y6050D01*
X27467Y6121D01*
X27650D01*
X27728Y6137D01*
X27794Y6181D01*
X27920Y6140D01*
Y3645D01*
X30980D01*
Y6505D01*
X27981D01*
X27920Y6505D01*
X27854Y6605D01*
Y9850D01*
X27849Y9873D01*
X27922Y9986D01*
X27943Y10000D01*
X28900D01*
Y13100D01*
X28704D01*
Y13275D01*
X28688Y13353D01*
X28644Y13419D01*
X28578Y13463D01*
X28500Y13479D01*
X24954Y13479D01*
Y15950D01*
X24938Y16028D01*
X24894Y16094D01*
X24828Y16138D01*
X24750Y16154D01*
X16075D01*
X15575Y16154D01*
X15497Y16138D01*
X15431Y16094D01*
X15387Y16028D01*
X15371Y15950D01*
Y12875D01*
X11513Y12836D01*
X10659Y13690D01*
Y14680D01*
X10850D01*
Y15930D01*
X9550D01*
Y14680D01*
X9741D01*
Y13500D01*
X9776Y13324D01*
X9876Y13176D01*
X10696Y12355D01*
Y11404D01*
X10576Y11362D01*
X10568Y11382D01*
X10493Y11491D01*
X10480Y11504D01*
X10469Y11519D01*
X10451Y11531D01*
X10436Y11546D01*
X10419Y11553D01*
X10403Y11563D01*
X10382Y11568D01*
X10362Y11576D01*
X10343Y11575D01*
X10325Y11579D01*
X5608D01*
X5588Y11731D01*
X5462Y12035D01*
X5262Y12296D01*
X5000Y12497D01*
X4920Y12530D01*
Y11405D01*
X3820D01*
Y12530D01*
X3740Y12497D01*
X3479Y12296D01*
X3278Y12035D01*
X3165Y11763D01*
X3165Y11763D01*
X3035D01*
X3035Y11763D01*
X2922Y12035D01*
X2722Y12296D01*
X2460Y12497D01*
X2380Y12530D01*
Y11405D01*
X1830D01*
Y10855D01*
X705D01*
X738Y10775D01*
X939Y10513D01*
X1200Y10313D01*
X1472Y10200D01*
X1472Y10200D01*
Y10070D01*
X1472Y10070D01*
X1200Y9957D01*
X939Y9756D01*
X738Y9495D01*
X705Y9415D01*
X1830D01*
Y8315D01*
X705D01*
X727Y8262D01*
X686Y8121D01*
X604Y8100D01*
X410D01*
X410Y8100D01*
Y8100D01*
X255D01*
X255Y8202D01*
Y19545D01*
X33625D01*
Y18375D01*
X34975D01*
Y18669D01*
X36200D01*
Y18300D01*
X37500D01*
Y19545D01*
X45945D01*
Y15444D01*
D02*
G37*
G36*
Y15150D02*
Y10855D01*
X45465D01*
X45677Y10629D01*
X45465Y10855D01*
X45465Y10855D01*
X43070D01*
X42925Y10855D01*
X42925Y10855D01*
X42350D01*
Y10280D01*
Y9990D01*
X42350Y9990D01*
Y9990D01*
Y8865D01*
X41800D01*
Y8315D01*
X40675D01*
X40660Y8300D01*
X40200D01*
X40200Y8300D01*
Y9148D01*
X34600D01*
X34600Y15150D01*
X43400D01*
X45945Y15150D01*
D02*
G37*
G36*
Y3875D02*
X33450D01*
Y4400D01*
X33186D01*
X33181Y4406D01*
X33154Y4425D01*
X33181Y4444D01*
X33275Y4584D01*
X33276Y4585D01*
X32400D01*
Y4915D01*
X33276D01*
X33275Y4916D01*
X33181Y5056D01*
X33154Y5075D01*
X33181Y5094D01*
X33275Y5234D01*
X33276Y5235D01*
X32400D01*
Y5565D01*
X33276D01*
X33275Y5566D01*
X33181Y5706D01*
X33154Y5725D01*
X33181Y5744D01*
X33275Y5884D01*
X33276Y5885D01*
X32400D01*
Y6215D01*
X33276D01*
X33275Y6216D01*
X33186Y6350D01*
X40250D01*
Y7500D01*
Y7550D01*
Y7700D01*
X43075D01*
Y9950D01*
X43050Y9975D01*
X43075Y10000D01*
X43814D01*
X43710Y9957D01*
X43448Y9757D01*
X43248Y9495D01*
X43215Y9415D01*
X45465D01*
X45432Y9495D01*
X45232Y9757D01*
X44970Y9957D01*
X44866Y10000D01*
X45945D01*
Y3875D01*
D02*
G37*
G36*
X27650Y6325D02*
X27302D01*
X27281Y6356D01*
X27254Y6375D01*
X27281Y6394D01*
X27375Y6534D01*
X27376Y6535D01*
X25625D01*
X25625Y6534D01*
X25674Y6461D01*
X25590D01*
X25571Y6462D01*
X25528Y6468D01*
X25510Y6471D01*
Y6725D01*
X24490D01*
Y6425D01*
Y6325D01*
X15650D01*
Y9850D01*
X27650D01*
Y6325D01*
D02*
G37*
G36*
X25311Y6374D02*
X25322Y6348D01*
X25341Y6326D01*
X25368Y6307D01*
X25402Y6290D01*
X25444Y6277D01*
X25494Y6266D01*
X25551Y6259D01*
X25616Y6254D01*
X25628Y6254D01*
X25938Y6259D01*
Y5841D01*
X25926Y5847D01*
X25906Y5852D01*
X25880Y5857D01*
X25848Y5861D01*
X25709Y5869D01*
X25613Y5871D01*
X25494Y5861D01*
X25444Y5852D01*
X25402Y5841D01*
X25368Y5827D01*
X25341Y5811D01*
X25322Y5793D01*
X25311Y5772D01*
X25307Y5748D01*
Y6402D01*
X25311Y6374D01*
D02*
G37*
G36*
X10400Y11266D02*
Y4050D01*
X275D01*
X275Y7300D01*
X826Y7300D01*
X895Y7160D01*
X738Y6955D01*
X705Y6875D01*
X1830D01*
Y6325D01*
X2380D01*
Y5200D01*
X2460Y5233D01*
X2722Y5433D01*
X2922Y5695D01*
X2980Y5835D01*
X3120Y5807D01*
Y5075D01*
X3820D01*
Y6325D01*
X4370D01*
Y6875D01*
X5620D01*
Y7575D01*
Y8190D01*
X5495Y8315D01*
X4370D01*
Y9415D01*
X5495D01*
X5462Y9495D01*
X5336Y9660D01*
X5405Y9800D01*
X5525D01*
X5525Y11367D01*
X5526Y11375D01*
X10325D01*
X10400Y11266D01*
D02*
G37*
G36*
X24750Y13275D02*
X24475D01*
X28500Y13275D01*
Y13100D01*
X28480D01*
Y11550D01*
X28050D01*
Y11120D01*
X27200D01*
Y10054D01*
X15650D01*
X15572Y10038D01*
X15506Y9994D01*
X15462Y9928D01*
X15456Y9900D01*
X15450D01*
Y9870D01*
X15446Y9850D01*
Y6325D01*
X15450Y6305D01*
D01*
X15462Y6247D01*
X15506Y6181D01*
X15572Y6137D01*
X15650Y6121D01*
X18075D01*
Y3975D01*
X17550D01*
Y4300D01*
X16900D01*
X16250D01*
Y3975D01*
X15375D01*
X10900Y4050D01*
X10900Y12625D01*
X15575Y12673D01*
Y15950D01*
X16075Y15950D01*
X24750D01*
Y13275D01*
D02*
G37*
G36*
X35450Y2152D02*
Y2150D01*
X35824D01*
X36965Y2144D01*
Y2115D01*
X37475D01*
Y1885D01*
X37705D01*
Y1355D01*
X37812D01*
X37812Y325D01*
X35175Y325D01*
X35175Y2064D01*
X35265Y2153D01*
X35450Y2152D01*
D02*
G37*
%LPC*%
G36*
X9175Y18781D02*
X9175Y18781D01*
X2575D01*
X2575Y18781D01*
X2458Y18758D01*
X2359Y18691D01*
X2359Y18691D01*
X1709Y18041D01*
X1642Y17942D01*
X1619Y17825D01*
X1619Y17825D01*
Y15550D01*
X1619Y15550D01*
X1642Y15433D01*
X1709Y15334D01*
X2004Y15039D01*
X2103Y14972D01*
X2220Y14949D01*
X2220Y14949D01*
X2525D01*
Y14655D01*
X3875D01*
Y15855D01*
X2525D01*
Y15561D01*
X2347D01*
X2231Y15677D01*
Y17698D01*
X2702Y18169D01*
X9048D01*
X9620Y17597D01*
X9571Y17480D01*
X9550D01*
Y16230D01*
X10850D01*
Y17480D01*
X10500D01*
X10483Y17567D01*
X10416Y17666D01*
X9391Y18691D01*
X9292Y18758D01*
X9175Y18781D01*
D02*
G37*
G36*
X28950Y18650D02*
X26850D01*
Y17984D01*
X26488D01*
X26470Y17996D01*
X26275Y18035D01*
X26080Y17996D01*
X25915Y17885D01*
X25804Y17720D01*
X25765Y17525D01*
X25804Y17330D01*
X25915Y17165D01*
X26080Y17054D01*
X26275Y17015D01*
X26470Y17054D01*
X26488Y17066D01*
X26850D01*
Y16450D01*
X28950D01*
Y18650D01*
D02*
G37*
G36*
X8150Y17925D02*
X7815D01*
Y17390D01*
X8150D01*
Y17925D01*
D02*
G37*
G36*
X7485D02*
X7150D01*
Y17390D01*
X7485D01*
Y17925D01*
D02*
G37*
G36*
X6250D02*
X5250D01*
Y17361D01*
X3875D01*
Y17505D01*
X3394D01*
X3350Y17514D01*
X3306Y17505D01*
X2525D01*
Y16305D01*
X3875D01*
Y16749D01*
X5250D01*
Y16525D01*
X6250D01*
Y17925D01*
D02*
G37*
G36*
X32350Y18650D02*
X30250D01*
Y16450D01*
X32350D01*
Y17244D01*
X33625D01*
Y16725D01*
X34975D01*
Y17925D01*
X33625D01*
Y17856D01*
X32350D01*
Y18650D01*
D02*
G37*
G36*
X8150Y17060D02*
X7815D01*
Y16525D01*
X8150D01*
Y17060D01*
D02*
G37*
G36*
X7485D02*
X7150D01*
Y16525D01*
X7485D01*
Y17060D01*
D02*
G37*
G36*
X34236Y14415D02*
X33615D01*
Y14125D01*
X34236D01*
Y14415D01*
D02*
G37*
G36*
X33085D02*
X32464D01*
Y14125D01*
X33085D01*
Y14415D01*
D02*
G37*
G36*
X34236Y13595D02*
X33615D01*
Y13305D01*
X34236D01*
Y13595D01*
D02*
G37*
G36*
X33085D02*
X32464D01*
Y13305D01*
X33085D01*
Y13595D01*
D02*
G37*
G36*
X7200Y15635D02*
X6200D01*
Y14235D01*
X6394D01*
Y14072D01*
X6340Y14035D01*
X6229Y13870D01*
X6190Y13675D01*
X6229Y13480D01*
X6340Y13315D01*
X6505Y13204D01*
X6700Y13165D01*
X6895Y13204D01*
X7060Y13315D01*
X7171Y13480D01*
X7210Y13675D01*
X7171Y13870D01*
X7060Y14035D01*
X7006Y14072D01*
Y14235D01*
X7200D01*
Y15635D01*
D02*
G37*
G36*
X33947Y13151D02*
X33615D01*
Y12855D01*
X34242D01*
Y12856D01*
X34219Y12969D01*
X34155Y13064D01*
X34060Y13128D01*
X33947Y13151D01*
D02*
G37*
G36*
X33085D02*
X32753D01*
X32640Y13128D01*
X32545Y13064D01*
X32481Y12969D01*
X32458Y12856D01*
Y12855D01*
X33085D01*
Y13151D01*
D02*
G37*
G36*
X34242Y12325D02*
X33615D01*
Y12029D01*
X33947D01*
X34060Y12052D01*
X34155Y12116D01*
X34219Y12211D01*
X34242Y12324D01*
Y12325D01*
D02*
G37*
G36*
X33085D02*
X32458D01*
Y12324D01*
X32481Y12211D01*
X32545Y12116D01*
X32640Y12052D01*
X32753Y12029D01*
X33085D01*
Y12325D01*
D02*
G37*
G36*
X31700Y13100D02*
X31280D01*
Y11980D01*
X31700D01*
Y13100D01*
D02*
G37*
G36*
X30420D02*
X30000D01*
Y11980D01*
X30420D01*
Y13100D01*
D02*
G37*
G36*
X1280Y12530D02*
X1200Y12497D01*
X939Y12296D01*
X738Y12035D01*
X705Y11955D01*
X1280D01*
Y12530D01*
D02*
G37*
G36*
X33947Y11881D02*
X33615D01*
Y11585D01*
X34242D01*
Y11586D01*
X34219Y11699D01*
X34155Y11794D01*
X34060Y11858D01*
X33947Y11881D01*
D02*
G37*
G36*
X33085D02*
X32753D01*
X32640Y11858D01*
X32545Y11794D01*
X32481Y11699D01*
X32458Y11586D01*
Y11585D01*
X33085D01*
Y11881D01*
D02*
G37*
G36*
X34242Y11055D02*
X33615D01*
Y10759D01*
X33947D01*
X34060Y10782D01*
X34155Y10846D01*
X34219Y10941D01*
X34242Y11054D01*
Y11055D01*
D02*
G37*
G36*
X33085D02*
X32458D01*
Y11054D01*
X32481Y10941D01*
X32545Y10846D01*
X32640Y10782D01*
X32753Y10759D01*
X33085D01*
Y11055D01*
D02*
G37*
G36*
X31700Y11120D02*
X31280D01*
Y10000D01*
X31700D01*
Y11120D01*
D02*
G37*
G36*
X30420D02*
X30000D01*
Y10000D01*
X30420D01*
Y11120D01*
D02*
G37*
G36*
X33947Y10611D02*
X32753D01*
X32640Y10588D01*
X32545Y10524D01*
X32481Y10429D01*
X32458Y10316D01*
Y10283D01*
X32308Y10253D01*
X32179Y10167D01*
X31608Y9597D01*
X31480Y9571D01*
X31315Y9460D01*
X31204Y9295D01*
X31165Y9100D01*
X31204Y8905D01*
X31315Y8740D01*
X31480Y8629D01*
X31675Y8590D01*
X31870Y8629D01*
X32035Y8740D01*
X32146Y8905D01*
X32172Y9033D01*
X32625Y9487D01*
X33186D01*
X33196Y9489D01*
X33947D01*
X34060Y9512D01*
X34155Y9576D01*
X34219Y9671D01*
X34242Y9784D01*
Y10316D01*
X34219Y10429D01*
X34155Y10524D01*
X34060Y10588D01*
X33947Y10611D01*
D02*
G37*
G36*
X36675Y8650D02*
X35555D01*
Y8230D01*
X36675D01*
Y8650D01*
D02*
G37*
G36*
X34695D02*
X33575D01*
Y8230D01*
X34695D01*
Y8650D01*
D02*
G37*
G36*
X37945D02*
X36825D01*
Y8230D01*
X37945D01*
Y8650D01*
D02*
G37*
G36*
X32875Y7783D02*
X32565D01*
Y7515D01*
X33276D01*
X33275Y7516D01*
X33181Y7656D01*
X33041Y7750D01*
X32875Y7783D01*
D02*
G37*
G36*
X32235D02*
X31925D01*
X31759Y7750D01*
X31619Y7656D01*
X31525Y7516D01*
X31524Y7515D01*
X32235D01*
Y7783D01*
D02*
G37*
G36*
X36675Y7370D02*
X35555D01*
Y6950D01*
X36675D01*
Y7370D01*
D02*
G37*
G36*
X34695D02*
X33575D01*
Y6950D01*
X34695D01*
Y7370D01*
D02*
G37*
G36*
X37945D02*
X36825D01*
Y6950D01*
X37945D01*
Y7370D01*
D02*
G37*
G36*
X27376Y3935D02*
X26500D01*
X25625D01*
X25625Y3934D01*
X25719Y3794D01*
Y3756D01*
X25625Y3616D01*
X25592Y3450D01*
X25614Y3336D01*
X25500Y3259D01*
X25445Y3296D01*
X25250Y3335D01*
X25055Y3296D01*
X24890Y3185D01*
X24779Y3020D01*
X24740Y2825D01*
X24779Y2630D01*
X24890Y2465D01*
X25055Y2354D01*
X25250Y2315D01*
X25445Y2354D01*
X25610Y2465D01*
X25751Y2472D01*
X25859Y2400D01*
X26025Y2367D01*
X26975D01*
X27141Y2400D01*
X27281Y2494D01*
X27375Y2634D01*
X27408Y2800D01*
X27375Y2966D01*
X27281Y3106D01*
Y3144D01*
X27375Y3284D01*
X27408Y3450D01*
X27375Y3616D01*
X27281Y3756D01*
Y3794D01*
X27375Y3934D01*
X27376Y3935D01*
D02*
G37*
G36*
X22000Y2825D02*
X21600D01*
Y2350D01*
X22000D01*
Y2825D01*
D02*
G37*
G36*
X21000D02*
X20600D01*
Y2350D01*
X21000D01*
Y2825D01*
D02*
G37*
G36*
X24200Y2545D02*
X23730D01*
Y2175D01*
X24200D01*
Y2545D01*
D02*
G37*
G36*
X22870D02*
X22400D01*
Y2175D01*
X22870D01*
Y2545D01*
D02*
G37*
G36*
X34000Y1850D02*
X33650D01*
Y1525D01*
X34000D01*
Y1850D01*
D02*
G37*
G36*
Y925D02*
X33650D01*
Y600D01*
X34000D01*
Y925D01*
D02*
G37*
G36*
X36070Y14522D02*
X35626D01*
X35422Y14495D01*
X35232Y14416D01*
X35069Y14291D01*
X34944Y14128D01*
X34865Y13938D01*
X34838Y13734D01*
Y12955D01*
X36070D01*
Y14522D01*
D02*
G37*
G36*
X44890Y12530D02*
Y11955D01*
X45465D01*
X45432Y12035D01*
X45232Y12297D01*
X44970Y12497D01*
X44890Y12530D01*
D02*
G37*
G36*
X42350D02*
Y11955D01*
X42925D01*
X42892Y12035D01*
X42692Y12297D01*
X42430Y12497D01*
X42350Y12530D01*
D02*
G37*
G36*
X43790D02*
X43710Y12497D01*
X43448Y12297D01*
X43248Y12035D01*
X43215Y11955D01*
X43790D01*
Y12530D01*
D02*
G37*
G36*
X41250D02*
X41170Y12497D01*
X40908Y12297D01*
X40708Y12035D01*
X40675Y11955D01*
X41250D01*
Y12530D01*
D02*
G37*
G36*
Y10855D02*
X40675D01*
X40708Y10775D01*
X40908Y10513D01*
X41170Y10313D01*
X41250Y10280D01*
Y10855D01*
D02*
G37*
G36*
X41250Y9990D02*
X41170Y9957D01*
X40908Y9757D01*
X40708Y9495D01*
X40675Y9415D01*
X41250D01*
Y9990D01*
D02*
G37*
G36*
X38514Y14522D02*
X38070D01*
Y11955D01*
Y9388D01*
X38514D01*
X38718Y9415D01*
X38897Y9489D01*
X39487D01*
X39600Y9512D01*
X39695Y9576D01*
X39759Y9671D01*
X39782Y9784D01*
Y9785D01*
X38890D01*
Y10315D01*
X39782D01*
Y10316D01*
X39759Y10429D01*
X39695Y10524D01*
X39600Y10588D01*
X39487Y10611D01*
X39302D01*
Y10759D01*
X39487D01*
X39600Y10782D01*
X39695Y10846D01*
X39759Y10941D01*
X39782Y11054D01*
Y11055D01*
X38890D01*
Y11585D01*
X39782D01*
Y11586D01*
X39759Y11699D01*
X39695Y11794D01*
X39600Y11858D01*
X39487Y11881D01*
X39302D01*
Y12029D01*
X39487D01*
X39600Y12052D01*
X39695Y12116D01*
X39759Y12211D01*
X39782Y12324D01*
Y12325D01*
X38890D01*
Y12855D01*
X39782D01*
Y12856D01*
X39759Y12969D01*
X39695Y13064D01*
X39600Y13128D01*
X39487Y13151D01*
X39302D01*
Y13299D01*
X39487D01*
X39600Y13322D01*
X39695Y13386D01*
X39759Y13481D01*
X39782Y13594D01*
Y13595D01*
X38890D01*
Y14125D01*
X39782D01*
Y14126D01*
X39759Y14239D01*
X39695Y14334D01*
X39600Y14398D01*
X39487Y14421D01*
X38897D01*
X38718Y14495D01*
X38514Y14522D01*
D02*
G37*
G36*
X36070Y10955D02*
X34838D01*
Y10176D01*
X34865Y9972D01*
X34944Y9782D01*
X35069Y9619D01*
X35232Y9494D01*
X35422Y9415D01*
X35626Y9388D01*
X36070D01*
Y10955D01*
D02*
G37*
G36*
X45465Y8315D02*
X44890D01*
Y7740D01*
X44970Y7773D01*
X45232Y7973D01*
X45432Y8235D01*
X45465Y8315D01*
D02*
G37*
G36*
X43790D02*
X43215D01*
X43248Y8235D01*
X43448Y7973D01*
X43710Y7773D01*
X43790Y7740D01*
Y8315D01*
D02*
G37*
G36*
X42350Y7450D02*
Y6875D01*
X42925D01*
X42892Y6955D01*
X42692Y7217D01*
X42430Y7417D01*
X42350Y7450D01*
D02*
G37*
G36*
X45590Y7575D02*
X44890D01*
Y6875D01*
X45590D01*
Y7575D01*
D02*
G37*
G36*
X41250Y7450D02*
X41170Y7417D01*
X40908Y7217D01*
X40708Y6955D01*
X40675Y6875D01*
X41250D01*
Y7450D01*
D02*
G37*
G36*
X43790Y7575D02*
X43090D01*
Y6875D01*
X43790D01*
Y7575D01*
D02*
G37*
G36*
X39925Y5850D02*
X38805D01*
Y5430D01*
X39925D01*
Y5850D01*
D02*
G37*
G36*
X36675D02*
X35555D01*
Y5430D01*
X36675D01*
Y5850D01*
D02*
G37*
G36*
X34695D02*
X33575D01*
Y5430D01*
X34695D01*
Y5850D01*
D02*
G37*
G36*
X37945D02*
X36825D01*
Y5430D01*
X37945D01*
Y5850D01*
D02*
G37*
G36*
X42925Y5775D02*
X42350D01*
Y5200D01*
X42430Y5233D01*
X42692Y5433D01*
X42892Y5695D01*
X42925Y5775D01*
D02*
G37*
G36*
X41250D02*
X40675D01*
X40708Y5695D01*
X40908Y5433D01*
X41170Y5233D01*
X41250Y5200D01*
Y5775D01*
D02*
G37*
G36*
X45590D02*
X44890D01*
Y5075D01*
X45590D01*
Y5775D01*
D02*
G37*
G36*
X43790D02*
X43090D01*
Y5075D01*
X43790D01*
Y5775D01*
D02*
G37*
G36*
X39925Y4570D02*
X38805D01*
Y4150D01*
X39925D01*
Y4570D01*
D02*
G37*
G36*
X37945D02*
X36825D01*
Y4150D01*
X37945D01*
Y4570D01*
D02*
G37*
G36*
X36675D02*
X35555D01*
Y4150D01*
X36675D01*
Y4570D01*
D02*
G37*
G36*
X34695D02*
X33575D01*
Y4150D01*
X34695D01*
Y4570D01*
D02*
G37*
G36*
X24450Y9675D02*
X20950D01*
Y8975D01*
X24450D01*
Y9675D01*
D02*
G37*
G36*
X19350D02*
X15850D01*
Y8975D01*
X19350D01*
Y9675D01*
D02*
G37*
G36*
X27400Y7775D02*
X26665D01*
Y7515D01*
X27400D01*
Y7775D01*
D02*
G37*
G36*
X26335D02*
X25600D01*
Y7515D01*
X26335D01*
Y7775D01*
D02*
G37*
G36*
X25510Y7485D02*
X25230D01*
Y7185D01*
X25510D01*
Y7485D01*
D02*
G37*
G36*
X24770D02*
X24490D01*
Y7185D01*
X24770D01*
Y7485D01*
D02*
G37*
G36*
X27400Y7185D02*
X26500D01*
X25600D01*
Y6925D01*
X25664D01*
X25625Y6866D01*
X25625Y6865D01*
X26500D01*
X27376D01*
X27375Y6866D01*
X27336Y6925D01*
X27400D01*
Y7185D01*
D02*
G37*
G36*
X24450Y7375D02*
X20950D01*
Y6675D01*
X24450D01*
Y7375D01*
D02*
G37*
G36*
X19350D02*
X15850D01*
Y6675D01*
X19350D01*
Y7375D01*
D02*
G37*
G36*
X8875Y9225D02*
X8150D01*
Y8150D01*
X8875D01*
Y9225D01*
D02*
G37*
G36*
X6750D02*
X6025D01*
Y8150D01*
X6750D01*
Y9225D01*
D02*
G37*
G36*
X8875Y6750D02*
X8150D01*
Y5675D01*
X8875D01*
Y6750D01*
D02*
G37*
G36*
X6750D02*
X6025D01*
Y5675D01*
X6750D01*
Y6750D01*
D02*
G37*
G36*
X1280Y5775D02*
X705D01*
X738Y5695D01*
X939Y5433D01*
X1200Y5233D01*
X1280Y5200D01*
Y5775D01*
D02*
G37*
G36*
X5620D02*
X4920D01*
Y5075D01*
X5620D01*
Y5775D01*
D02*
G37*
G36*
X24450Y15275D02*
X20950D01*
Y14575D01*
X24450D01*
Y15275D01*
D02*
G37*
G36*
X19350D02*
X15850D01*
Y14575D01*
X19350D01*
Y15275D01*
D02*
G37*
G36*
X24450Y12975D02*
X20950D01*
Y12275D01*
X24450D01*
Y12975D01*
D02*
G37*
G36*
X19350D02*
X15850D01*
Y12275D01*
X19350D01*
Y12975D01*
D02*
G37*
G36*
X27620Y13100D02*
X27200D01*
Y11980D01*
X27620D01*
Y13100D01*
D02*
G37*
G36*
X14575Y9225D02*
X13850D01*
Y8150D01*
X14575D01*
Y9225D01*
D02*
G37*
G36*
X12450D02*
X11725D01*
Y8150D01*
X12450D01*
Y9225D01*
D02*
G37*
G36*
X14575Y6750D02*
X13850D01*
Y5675D01*
X14575D01*
Y6750D01*
D02*
G37*
G36*
X12450D02*
X11725D01*
Y5675D01*
X12450D01*
Y6750D01*
D02*
G37*
G36*
X17550Y5225D02*
X17200D01*
Y4900D01*
X17550D01*
Y5225D01*
D02*
G37*
G36*
X16600D02*
X16250D01*
Y4900D01*
X16600D01*
Y5225D01*
D02*
G37*
G36*
X36750Y1850D02*
X36400D01*
Y1525D01*
X36750D01*
Y1850D01*
D02*
G37*
G36*
X35800D02*
X35450D01*
Y1525D01*
X35800D01*
Y1850D01*
D02*
G37*
G36*
X37245Y1655D02*
X36965D01*
Y1355D01*
X37245D01*
Y1655D01*
D02*
G37*
G36*
X36750Y925D02*
X36400D01*
Y600D01*
X36750D01*
Y925D01*
D02*
G37*
G36*
X35800D02*
X35450D01*
Y600D01*
X35800D01*
Y925D01*
D02*
G37*
%LPD*%
D14*
X24938Y4750D02*
X26500D01*
X23375D02*
X24938D01*
X16900Y3050D02*
X18000D01*
X19100D01*
X34075Y17550D02*
X34300Y17325D01*
X31300Y17550D02*
X34075D01*
X36800Y18975D02*
X36850Y18925D01*
X34300Y18975D02*
X36800D01*
X1925Y15550D02*
X2220Y15255D01*
X1925Y15550D02*
Y17825D01*
X2220Y15255D02*
X3200D01*
X1925Y17825D02*
X2575Y18475D01*
X9175D02*
X10200Y17450D01*
X2575Y18475D02*
X9175D01*
X10200Y16855D02*
Y17450D01*
X6700Y13675D02*
Y14935D01*
X3350Y17055D02*
X5700D01*
X19100Y4600D02*
Y5750D01*
X25250Y2825D02*
X25263Y2812D01*
X26487D01*
X26500Y2800D01*
X23300Y4675D02*
X23375Y4750D01*
X26404Y5400D02*
X26452Y5352D01*
X24299Y5400D02*
X26404D01*
X24124Y5575D02*
X24299Y5400D01*
X22275Y5575D02*
X24124D01*
X21300Y4600D02*
X22275Y5575D01*
X21300Y4525D02*
Y4600D01*
X26452Y5352D02*
X26500Y5400D01*
D35*
X37070Y11955D02*
D03*
D36*
X38890Y10050D02*
D03*
Y11320D02*
D03*
Y12590D02*
D03*
Y13860D02*
D03*
X33350Y10050D02*
D03*
Y11320D02*
D03*
Y12590D02*
D03*
D37*
Y13860D02*
D03*
D38*
X20150Y13775D02*
D03*
Y8175D02*
D03*
D39*
X27900Y17550D02*
D03*
X31300D02*
D03*
D40*
X34300Y18975D02*
D03*
Y17325D02*
D03*
X3200Y15255D02*
D03*
Y16905D02*
D03*
D41*
X36850Y18925D02*
D03*
Y17375D02*
D03*
X19100Y4600D02*
D03*
Y3050D02*
D03*
X16900Y4600D02*
D03*
Y3050D02*
D03*
X10200Y15305D02*
D03*
Y16855D02*
D03*
X36100Y1225D02*
D03*
Y2775D02*
D03*
X34300D02*
D03*
Y1225D02*
D03*
D42*
X28050Y11550D02*
D03*
X30850D02*
D03*
D43*
X6700Y14935D02*
D03*
X5750Y17225D02*
D03*
X7650D02*
D03*
D44*
X13150Y7450D02*
D03*
X7450D02*
D03*
D45*
X37475Y2765D02*
D03*
Y1885D02*
D03*
X25000Y6955D02*
D03*
Y6075D02*
D03*
D46*
X38375Y7800D02*
D03*
Y5000D02*
D03*
X35125Y7800D02*
D03*
Y5000D02*
D03*
D47*
X26500Y7350D02*
D03*
D48*
Y6700D02*
D03*
Y6050D02*
D03*
Y5400D02*
D03*
Y4750D02*
D03*
Y4100D02*
D03*
Y3450D02*
D03*
Y2800D02*
D03*
X32400Y7350D02*
D03*
Y6700D02*
D03*
Y6050D02*
D03*
Y5400D02*
D03*
Y4750D02*
D03*
Y4100D02*
D03*
Y3450D02*
D03*
Y2800D02*
D03*
D49*
X29450Y5075D02*
D03*
D50*
X23300Y4675D02*
D03*
Y2975D02*
D03*
D51*
X21300Y3125D02*
D03*
Y4525D02*
D03*
D52*
X1830Y11405D02*
X4370D01*
X1830Y8865D02*
Y11405D01*
X4370Y6325D02*
Y8865D01*
X1830Y6325D02*
X4370D01*
D53*
X26275Y17525D02*
X27875D01*
X27900Y17550D01*
X10200Y13500D02*
X11500Y12200D01*
X10200Y13500D02*
Y15305D01*
X5750Y17105D02*
Y17225D01*
X5700Y17055D02*
X5750Y17105D01*
X3200Y16905D02*
X3350Y17055D01*
D54*
X31675Y9100D02*
X32460Y9885D01*
X33186D01*
X33350Y10050D01*
X36000Y14800D02*
X36850Y15650D01*
Y17375D01*
X34292Y2783D02*
X37458D01*
X32375Y2800D02*
X34275D01*
X37458Y2783D02*
X37475Y2765D01*
X34275Y2800D02*
X34292Y2783D01*
X26461Y6062D02*
X26487Y6037D01*
X25013Y6062D02*
X26461D01*
X25000Y6075D02*
X25013Y6062D01*
X26487Y6037D02*
X26500Y6050D01*
D55*
X41800Y11405D02*
D03*
Y8865D02*
D03*
Y6325D02*
D03*
X44340Y8865D02*
D03*
Y11405D02*
D03*
X1830Y11405D02*
D03*
Y8865D02*
D03*
Y6325D02*
D03*
X4370Y8865D02*
D03*
Y11405D02*
D03*
D56*
X44340Y6325D02*
D03*
X4370Y6325D02*
D03*
D57*
X26300Y15900D02*
D03*
X27500Y14000D02*
D03*
X31500D02*
D03*
X30300Y15900D02*
D03*
Y7200D02*
D03*
X29100Y9100D02*
D03*
X5100Y13800D02*
D03*
X1100D02*
D03*
X13100Y18900D02*
D03*
X17100D02*
D03*
X21100D02*
D03*
X25100D02*
D03*
X23900Y17000D02*
D03*
X19900D02*
D03*
X15900D02*
D03*
X11900D02*
D03*
X39150Y17250D02*
D03*
X40350Y19150D02*
D03*
X43150Y17250D02*
D03*
X44350Y19150D02*
D03*
X44200Y900D02*
D03*
X43000Y2800D02*
D03*
X40200Y900D02*
D03*
X39000Y2800D02*
D03*
X29000D02*
D03*
X30200Y900D02*
D03*
X26200D02*
D03*
X1000Y2800D02*
D03*
X5000D02*
D03*
X9000D02*
D03*
X13000D02*
D03*
X18200Y900D02*
D03*
X14200D02*
D03*
X10200D02*
D03*
X6200D02*
D03*
X2200D02*
D03*
X22200D02*
D03*
X18000Y3050D02*
D03*
X15600Y4800D02*
D03*
X24938Y4750D02*
D03*
X35125Y5000D02*
D03*
X26275Y17525D02*
D03*
X31675Y9100D02*
D03*
X6700Y13675D02*
D03*
X36675Y1175D02*
D03*
X23325Y11275D02*
D03*
X19100Y5750D02*
D03*
X25250Y2825D02*
D03*
M02*
