M48
;Layer_Color=9474304
;FILE_FORMAT=4:3
METRIC,LZ
;TYPE=PLATED
T1F00S00C0.300
T2F00S00C1.000
%
T01
X00262Y00009
X002525Y0002825
X0029Y00028
X00302Y00009
X0036675Y0001175
X00402Y00009
X0039Y00028
X0043
X00442Y00009
X00222
X00182
X0018Y000305
X00156Y00048
X0013Y00028
X00142Y00009
X00102
X0009Y00028
X0005
X00062Y00009
X00022
X0001Y00028
X0024938Y000475
X00191Y000575
X0023325Y0011275
X00239Y0017
X00199
X00211Y00189
X00171
X00159Y0017
X00119
X00131Y00189
X00067Y0013675
X00051Y00138
X00011
X00275Y0014
X00263Y00159
X0026275Y0017525
X00251Y00189
X00303Y00159
X00315Y0014
X0031675Y00091
X00291Y00091
X00303Y00072
X0035125Y0005
X003915Y001725
X004035Y001915
X004435
X004315Y001725
T02
X000183Y0006325
Y0008865
Y0011405
X000437
Y0008865
Y0006325
X00418Y0006325
Y0008865
Y0011405
X004434
Y0008865
Y0006325
M30
