G04*
G04 #@! TF.GenerationSoftware,Altium Limited,Altium Designer,19.1.6 (110)*
G04*
G04 Layer_Color=8388736*
%FSLAX43Y43*%
%MOMM*%
G71*
G01*
G75*
%ADD14R,0.900X0.850*%
%ADD15R,2.600X3.300*%
%ADD16R,1.000X0.900*%
%ADD17R,0.900X1.000*%
G04:AMPARAMS|DCode=18|XSize=1mm|YSize=0.9mm|CornerRadius=0.25mm|HoleSize=0mm|Usage=FLASHONLY|Rotation=0.000|XOffset=0mm|YOffset=0mm|HoleType=Round|Shape=RoundedRectangle|*
%AMROUNDEDRECTD18*
21,1,1.000,0.400,0,0,0.0*
21,1,0.500,0.900,0,0,0.0*
1,1,0.500,0.250,-0.200*
1,1,0.500,-0.250,-0.200*
1,1,0.500,-0.250,0.200*
1,1,0.500,0.250,0.200*
%
%ADD18ROUNDEDRECTD18*%
%ADD19R,1.500X0.550*%
%ADD20O,1.500X0.550*%
%ADD21R,3.100X3.200*%
%ADD22R,3.850X9.600*%
%ADD23R,1.050X0.900*%
G04:AMPARAMS|DCode=24|XSize=1.5mm|YSize=1.1mm|CornerRadius=0.3mm|HoleSize=0mm|Usage=FLASHONLY|Rotation=90.000|XOffset=0mm|YOffset=0mm|HoleType=Round|Shape=RoundedRectangle|*
%AMROUNDEDRECTD24*
21,1,1.500,0.500,0,0,90.0*
21,1,0.900,1.100,0,0,90.0*
1,1,0.600,0.250,0.450*
1,1,0.600,0.250,-0.450*
1,1,0.600,-0.250,-0.450*
1,1,0.600,-0.250,0.450*
%
%ADD24ROUNDEDRECTD24*%
G04:AMPARAMS|DCode=25|XSize=1mm|YSize=0.9mm|CornerRadius=0.25mm|HoleSize=0mm|Usage=FLASHONLY|Rotation=270.000|XOffset=0mm|YOffset=0mm|HoleType=Round|Shape=RoundedRectangle|*
%AMROUNDEDRECTD25*
21,1,1.000,0.400,0,0,270.0*
21,1,0.500,0.900,0,0,270.0*
1,1,0.500,-0.200,-0.250*
1,1,0.500,-0.200,0.250*
1,1,0.500,0.200,0.250*
1,1,0.500,0.200,-0.250*
%
%ADD25ROUNDEDRECTD25*%
%ADD26R,2.450X2.300*%
%ADD27C,3.100*%
%ADD28C,1.600*%
%ADD29R,1.600X1.600*%
%ADD30R,2.000X2.000*%
%ADD31C,2.000*%
D14*
X72275Y63500D02*
D03*
X68725D02*
D03*
D15*
X55700Y54500D02*
D03*
X61300D02*
D03*
D16*
X84500Y59250D02*
D03*
X84500Y57750D02*
D03*
X75000Y56025D02*
D03*
X75000Y54525D02*
D03*
D17*
X77250Y56000D02*
D03*
X78750Y56000D02*
D03*
Y58000D02*
D03*
X77250Y58000D02*
D03*
Y60000D02*
D03*
X78750Y60000D02*
D03*
D18*
X67000Y56250D02*
D03*
X67000Y57750D02*
D03*
X75200Y63550D02*
D03*
X75200Y65050D02*
D03*
D19*
X69150Y61450D02*
D03*
D20*
Y60800D02*
D03*
Y60150D02*
D03*
Y59500D02*
D03*
Y58850D02*
D03*
Y58200D02*
D03*
Y57550D02*
D03*
X75050Y61450D02*
D03*
Y60800D02*
D03*
Y60150D02*
D03*
Y59500D02*
D03*
Y58850D02*
D03*
Y58200D02*
D03*
Y57550D02*
D03*
D21*
X72100Y59500D02*
D03*
D22*
X65125Y65500D02*
D03*
X58875D02*
D03*
D23*
X84500Y55825D02*
D03*
Y54175D02*
D03*
D24*
X55800Y58500D02*
D03*
X57500D02*
D03*
D25*
X74950Y52100D02*
D03*
X73450Y52100D02*
D03*
D26*
X82400Y73350D02*
D03*
Y63050D02*
D03*
D27*
X90500Y73000D02*
D03*
Y53000D02*
D03*
X52500D02*
D03*
Y73000D02*
D03*
D28*
X90500Y58920D02*
D03*
Y61460D02*
D03*
Y64000D02*
D03*
D29*
Y66540D02*
D03*
D30*
X52000Y61770D02*
D03*
D31*
Y59230D02*
D03*
M02*
