G04*
G04 #@! TF.GenerationSoftware,Altium Limited,Altium Designer,19.1.6 (110)*
G04*
G04 Layer_Color=32896*
%FSLAX43Y43*%
%MOMM*%
G71*
G01*
G75*
G36*
X65966Y73072D02*
X65770D01*
Y73313D01*
X65966D01*
Y73072D01*
D02*
G37*
G36*
X55221Y73331D02*
X55249Y73330D01*
X55301Y73319D01*
X55347Y73304D01*
X55367Y73294D01*
X55386Y73285D01*
X55403Y73276D01*
X55417Y73267D01*
X55430Y73259D01*
X55440Y73252D01*
X55449Y73246D01*
X55454Y73241D01*
X55458Y73239D01*
X55460Y73237D01*
X55480Y73217D01*
X55499Y73196D01*
X55530Y73148D01*
X55558Y73096D01*
X55580Y73046D01*
X55590Y73022D01*
X55597Y73000D01*
X55603Y72980D01*
X55608Y72963D01*
X55612Y72948D01*
X55616Y72937D01*
X55617Y72930D01*
Y72928D01*
X55416Y72850D01*
X55404Y72900D01*
X55390Y72941D01*
X55377Y72976D01*
X55362Y73004D01*
X55349Y73026D01*
X55338Y73041D01*
X55330Y73050D01*
X55329Y73054D01*
X55306Y73074D01*
X55282Y73091D01*
X55258Y73102D01*
X55236Y73109D01*
X55217Y73113D01*
X55201Y73115D01*
X55191Y73117D01*
X55188D01*
X55167Y73115D01*
X55149Y73113D01*
X55112Y73102D01*
X55082Y73085D01*
X55056Y73067D01*
X55034Y73050D01*
X55019Y73033D01*
X55010Y73022D01*
X55006Y73020D01*
Y73019D01*
X54995Y72998D01*
X54984Y72976D01*
X54975Y72950D01*
X54967Y72924D01*
X54954Y72869D01*
X54947Y72813D01*
X54943Y72787D01*
X54942Y72763D01*
X54940Y72741D01*
Y72722D01*
X54938Y72706D01*
Y72695D01*
Y72685D01*
Y72683D01*
Y72643D01*
X54942Y72604D01*
X54945Y72569D01*
X54949Y72537D01*
X54954Y72508D01*
X54960Y72480D01*
X54966Y72456D01*
X54973Y72435D01*
X54980Y72417D01*
X54986Y72400D01*
X54992Y72387D01*
X54997Y72376D01*
X55003Y72369D01*
X55004Y72361D01*
X55008Y72359D01*
Y72358D01*
X55023Y72339D01*
X55038Y72324D01*
X55053Y72311D01*
X55067Y72300D01*
X55099Y72282D01*
X55129Y72271D01*
X55154Y72263D01*
X55175Y72259D01*
X55182Y72258D01*
X55193D01*
X55223Y72259D01*
X55249Y72267D01*
X55271Y72274D01*
X55291Y72285D01*
X55308Y72295D01*
X55321Y72304D01*
X55329Y72311D01*
X55330Y72313D01*
X55351Y72335D01*
X55367Y72359D01*
X55382Y72385D01*
X55393Y72411D01*
X55401Y72433D01*
X55406Y72452D01*
X55408Y72459D01*
Y72465D01*
X55410Y72467D01*
Y72469D01*
X55616Y72409D01*
X55608Y72380D01*
X55599Y72352D01*
X55590Y72326D01*
X55580Y72300D01*
X55569Y72278D01*
X55560Y72258D01*
X55549Y72241D01*
X55540Y72224D01*
X55530Y72209D01*
X55521Y72196D01*
X55514Y72185D01*
X55506Y72176D01*
X55501Y72171D01*
X55497Y72165D01*
X55495Y72161D01*
X55493D01*
X55471Y72141D01*
X55447Y72122D01*
X55423Y72106D01*
X55399Y72091D01*
X55375Y72080D01*
X55351Y72071D01*
X55304Y72056D01*
X55284Y72050D01*
X55266Y72046D01*
X55249Y72045D01*
X55234Y72043D01*
X55221Y72041D01*
X55204D01*
X55166Y72043D01*
X55129Y72048D01*
X55095Y72056D01*
X55062Y72065D01*
X55032Y72078D01*
X55004Y72091D01*
X54979Y72106D01*
X54956Y72119D01*
X54936Y72133D01*
X54917Y72148D01*
X54903Y72161D01*
X54890Y72174D01*
X54880Y72183D01*
X54873Y72191D01*
X54869Y72196D01*
X54867Y72198D01*
X54842Y72233D01*
X54819Y72272D01*
X54801Y72311D01*
X54784Y72352D01*
X54769Y72395D01*
X54758Y72435D01*
X54749Y72476D01*
X54742Y72517D01*
X54736Y72554D01*
X54730Y72587D01*
X54727Y72619D01*
X54725Y72646D01*
Y72667D01*
X54723Y72683D01*
Y72695D01*
Y72696D01*
Y72698D01*
X54725Y72754D01*
X54729Y72806D01*
X54736Y72856D01*
X54745Y72902D01*
X54756Y72945D01*
X54767Y72983D01*
X54780Y73020D01*
X54795Y73052D01*
X54808Y73082D01*
X54821Y73107D01*
X54832Y73130D01*
X54843Y73146D01*
X54853Y73161D01*
X54860Y73172D01*
X54864Y73178D01*
X54866Y73180D01*
X54890Y73207D01*
X54916Y73230D01*
X54942Y73250D01*
X54969Y73269D01*
X54997Y73283D01*
X55023Y73296D01*
X55049Y73306D01*
X55075Y73315D01*
X55099Y73320D01*
X55121Y73326D01*
X55141Y73328D01*
X55158Y73331D01*
X55173D01*
X55182Y73333D01*
X55191D01*
X55221Y73331D01*
D02*
G37*
G36*
X62094D02*
X62119Y73328D01*
X62143Y73322D01*
X62167Y73317D01*
X62207Y73298D01*
X62243Y73278D01*
X62272Y73257D01*
X62283Y73248D01*
X62293Y73239D01*
X62300Y73233D01*
X62307Y73228D01*
X62309Y73224D01*
X62311Y73222D01*
X62330Y73200D01*
X62346Y73178D01*
X62359Y73154D01*
X62370Y73130D01*
X62389Y73083D01*
X62402Y73039D01*
X62406Y73017D01*
X62409Y72998D01*
X62411Y72982D01*
X62413Y72967D01*
X62415Y72956D01*
Y72946D01*
Y72941D01*
Y72939D01*
X62413Y72896D01*
X62406Y72857D01*
X62398Y72824D01*
X62387Y72796D01*
X62378Y72774D01*
X62369Y72757D01*
X62361Y72746D01*
X62359Y72743D01*
X62337Y72715D01*
X62315Y72693D01*
X62293Y72676D01*
X62270Y72661D01*
X62250Y72652D01*
X62235Y72646D01*
X62224Y72643D01*
X62222Y72641D01*
X62220D01*
X62246Y72622D01*
X62269Y72602D01*
X62289Y72582D01*
X62304Y72565D01*
X62317Y72548D01*
X62324Y72537D01*
X62330Y72530D01*
X62331Y72526D01*
X62344Y72500D01*
X62354Y72474D01*
X62361Y72450D01*
X62365Y72426D01*
X62369Y72408D01*
X62370Y72391D01*
Y72382D01*
Y72378D01*
Y72356D01*
X62367Y72333D01*
X62357Y72293D01*
X62344Y72256D01*
X62330Y72222D01*
X62313Y72195D01*
X62306Y72183D01*
X62300Y72174D01*
X62294Y72167D01*
X62291Y72161D01*
X62289Y72159D01*
X62287Y72158D01*
X62270Y72139D01*
X62254Y72124D01*
X62235Y72111D01*
X62217Y72100D01*
X62180Y72082D01*
X62144Y72071D01*
X62111Y72063D01*
X62098Y72061D01*
X62087Y72059D01*
X62076Y72058D01*
X62041D01*
X62019Y72061D01*
X61978Y72071D01*
X61941Y72083D01*
X61911Y72096D01*
X61887Y72111D01*
X61869Y72124D01*
X61857Y72133D01*
X61856Y72135D01*
X61854Y72137D01*
X61839Y72152D01*
X61826Y72171D01*
X61802Y72209D01*
X61783Y72250D01*
X61769Y72291D01*
X61757Y72328D01*
X61754Y72343D01*
X61750Y72358D01*
X61748Y72369D01*
X61746Y72378D01*
X61745Y72383D01*
Y72385D01*
X61926Y72422D01*
X61930Y72393D01*
X61935Y72369D01*
X61943Y72346D01*
X61950Y72330D01*
X61957Y72317D01*
X61963Y72306D01*
X61967Y72300D01*
X61969Y72298D01*
X61983Y72283D01*
X61998Y72274D01*
X62013Y72267D01*
X62026Y72261D01*
X62037Y72258D01*
X62048Y72256D01*
X62056D01*
X62074Y72258D01*
X62091Y72261D01*
X62106Y72267D01*
X62117Y72274D01*
X62126Y72282D01*
X62133Y72287D01*
X62137Y72291D01*
X62139Y72293D01*
X62150Y72308D01*
X62157Y72324D01*
X62165Y72341D01*
X62169Y72356D01*
X62170Y72370D01*
X62172Y72382D01*
Y72389D01*
Y72393D01*
X62170Y72420D01*
X62165Y72445D01*
X62157Y72465D01*
X62150Y72482D01*
X62143Y72495D01*
X62135Y72506D01*
X62130Y72511D01*
X62128Y72513D01*
X62109Y72526D01*
X62091Y72537D01*
X62070Y72543D01*
X62050Y72548D01*
X62033Y72550D01*
X62019Y72552D01*
X62006D01*
X61985Y72748D01*
X62004Y72743D01*
X62020Y72737D01*
X62037Y72733D01*
X62050Y72732D01*
X62059Y72730D01*
X62074D01*
X62094Y72732D01*
X62113Y72737D01*
X62130Y72746D01*
X62144Y72756D01*
X62156Y72767D01*
X62165Y72774D01*
X62170Y72782D01*
X62172Y72783D01*
X62185Y72804D01*
X62196Y72828D01*
X62204Y72852D01*
X62207Y72874D01*
X62211Y72895D01*
X62213Y72911D01*
Y72922D01*
Y72924D01*
Y72926D01*
X62211Y72961D01*
X62206Y72991D01*
X62200Y73019D01*
X62193Y73039D01*
X62183Y73057D01*
X62178Y73069D01*
X62172Y73078D01*
X62170Y73080D01*
X62154Y73098D01*
X62137Y73111D01*
X62119Y73120D01*
X62102Y73126D01*
X62089Y73130D01*
X62078Y73133D01*
X62067D01*
X62046Y73132D01*
X62028Y73126D01*
X62011Y73119D01*
X61998Y73109D01*
X61987Y73102D01*
X61978Y73094D01*
X61972Y73089D01*
X61970Y73087D01*
X61957Y73069D01*
X61946Y73046D01*
X61937Y73024D01*
X61932Y73002D01*
X61926Y72982D01*
X61924Y72967D01*
X61922Y72956D01*
Y72954D01*
Y72952D01*
X61732Y72980D01*
X61741Y73039D01*
X61754Y73089D01*
X61763Y73113D01*
X61772Y73133D01*
X61782Y73154D01*
X61791Y73170D01*
X61800Y73187D01*
X61809Y73200D01*
X61817Y73211D01*
X61824Y73222D01*
X61830Y73230D01*
X61835Y73235D01*
X61837Y73237D01*
X61839Y73239D01*
X61857Y73256D01*
X61876Y73270D01*
X61895Y73283D01*
X61915Y73293D01*
X61954Y73311D01*
X61989Y73322D01*
X62020Y73328D01*
X62035Y73330D01*
X62046Y73331D01*
X62056Y73333D01*
X62069D01*
X62094Y73331D01*
D02*
G37*
G36*
X61296D02*
X61320Y73328D01*
X61345Y73322D01*
X61369Y73317D01*
X61409Y73298D01*
X61445Y73278D01*
X61474Y73257D01*
X61485Y73248D01*
X61495Y73239D01*
X61502Y73233D01*
X61509Y73228D01*
X61511Y73224D01*
X61513Y73222D01*
X61532Y73200D01*
X61548Y73178D01*
X61561Y73154D01*
X61572Y73130D01*
X61591Y73083D01*
X61604Y73039D01*
X61607Y73017D01*
X61611Y72998D01*
X61613Y72982D01*
X61615Y72967D01*
X61617Y72956D01*
Y72946D01*
Y72941D01*
Y72939D01*
X61615Y72896D01*
X61607Y72857D01*
X61600Y72824D01*
X61589Y72796D01*
X61580Y72774D01*
X61570Y72757D01*
X61563Y72746D01*
X61561Y72743D01*
X61539Y72715D01*
X61517Y72693D01*
X61495Y72676D01*
X61472Y72661D01*
X61452Y72652D01*
X61437Y72646D01*
X61426Y72643D01*
X61424Y72641D01*
X61422D01*
X61448Y72622D01*
X61470Y72602D01*
X61491Y72582D01*
X61506Y72565D01*
X61519Y72548D01*
X61526Y72537D01*
X61532Y72530D01*
X61533Y72526D01*
X61546Y72500D01*
X61556Y72474D01*
X61563Y72450D01*
X61567Y72426D01*
X61570Y72408D01*
X61572Y72391D01*
Y72382D01*
Y72378D01*
Y72356D01*
X61569Y72333D01*
X61559Y72293D01*
X61546Y72256D01*
X61532Y72222D01*
X61515Y72195D01*
X61507Y72183D01*
X61502Y72174D01*
X61496Y72167D01*
X61493Y72161D01*
X61491Y72159D01*
X61489Y72158D01*
X61472Y72139D01*
X61456Y72124D01*
X61437Y72111D01*
X61419Y72100D01*
X61382Y72082D01*
X61346Y72071D01*
X61313Y72063D01*
X61300Y72061D01*
X61289Y72059D01*
X61278Y72058D01*
X61243D01*
X61220Y72061D01*
X61180Y72071D01*
X61143Y72083D01*
X61113Y72096D01*
X61089Y72111D01*
X61071Y72124D01*
X61059Y72133D01*
X61058Y72135D01*
X61056Y72137D01*
X61041Y72152D01*
X61028Y72171D01*
X61004Y72209D01*
X60985Y72250D01*
X60971Y72291D01*
X60959Y72328D01*
X60956Y72343D01*
X60952Y72358D01*
X60950Y72369D01*
X60948Y72378D01*
X60946Y72383D01*
Y72385D01*
X61128Y72422D01*
X61132Y72393D01*
X61137Y72369D01*
X61145Y72346D01*
X61152Y72330D01*
X61159Y72317D01*
X61165Y72306D01*
X61169Y72300D01*
X61171Y72298D01*
X61185Y72283D01*
X61200Y72274D01*
X61215Y72267D01*
X61228Y72261D01*
X61239Y72258D01*
X61250Y72256D01*
X61258D01*
X61276Y72258D01*
X61293Y72261D01*
X61308Y72267D01*
X61319Y72274D01*
X61328Y72282D01*
X61335Y72287D01*
X61339Y72291D01*
X61341Y72293D01*
X61352Y72308D01*
X61359Y72324D01*
X61367Y72341D01*
X61370Y72356D01*
X61372Y72370D01*
X61374Y72382D01*
Y72389D01*
Y72393D01*
X61372Y72420D01*
X61367Y72445D01*
X61359Y72465D01*
X61352Y72482D01*
X61345Y72495D01*
X61337Y72506D01*
X61332Y72511D01*
X61330Y72513D01*
X61311Y72526D01*
X61293Y72537D01*
X61272Y72543D01*
X61252Y72548D01*
X61235Y72550D01*
X61220Y72552D01*
X61208D01*
X61187Y72748D01*
X61206Y72743D01*
X61222Y72737D01*
X61239Y72733D01*
X61252Y72732D01*
X61261Y72730D01*
X61276D01*
X61296Y72732D01*
X61315Y72737D01*
X61332Y72746D01*
X61346Y72756D01*
X61358Y72767D01*
X61367Y72774D01*
X61372Y72782D01*
X61374Y72783D01*
X61387Y72804D01*
X61398Y72828D01*
X61406Y72852D01*
X61409Y72874D01*
X61413Y72895D01*
X61415Y72911D01*
Y72922D01*
Y72924D01*
Y72926D01*
X61413Y72961D01*
X61408Y72991D01*
X61402Y73019D01*
X61395Y73039D01*
X61385Y73057D01*
X61380Y73069D01*
X61374Y73078D01*
X61372Y73080D01*
X61356Y73098D01*
X61339Y73111D01*
X61320Y73120D01*
X61304Y73126D01*
X61291Y73130D01*
X61280Y73133D01*
X61269D01*
X61248Y73132D01*
X61230Y73126D01*
X61213Y73119D01*
X61200Y73109D01*
X61189Y73102D01*
X61180Y73094D01*
X61174Y73089D01*
X61172Y73087D01*
X61159Y73069D01*
X61148Y73046D01*
X61139Y73024D01*
X61133Y73002D01*
X61128Y72982D01*
X61126Y72967D01*
X61124Y72956D01*
Y72954D01*
Y72952D01*
X60933Y72980D01*
X60943Y73039D01*
X60956Y73089D01*
X60965Y73113D01*
X60974Y73133D01*
X60983Y73154D01*
X60993Y73170D01*
X61002Y73187D01*
X61011Y73200D01*
X61019Y73211D01*
X61026Y73222D01*
X61032Y73230D01*
X61037Y73235D01*
X61039Y73237D01*
X61041Y73239D01*
X61059Y73256D01*
X61078Y73270D01*
X61096Y73283D01*
X61117Y73293D01*
X61156Y73311D01*
X61191Y73322D01*
X61222Y73328D01*
X61237Y73330D01*
X61248Y73331D01*
X61258Y73333D01*
X61270D01*
X61296Y73331D01*
D02*
G37*
G36*
X60498D02*
X60522Y73328D01*
X60546Y73322D01*
X60571Y73317D01*
X60611Y73298D01*
X60646Y73278D01*
X60676Y73257D01*
X60687Y73248D01*
X60696Y73239D01*
X60704Y73233D01*
X60711Y73228D01*
X60713Y73224D01*
X60715Y73222D01*
X60734Y73200D01*
X60750Y73178D01*
X60763Y73154D01*
X60774Y73130D01*
X60793Y73083D01*
X60806Y73039D01*
X60809Y73017D01*
X60813Y72998D01*
X60815Y72982D01*
X60817Y72967D01*
X60819Y72956D01*
Y72946D01*
Y72941D01*
Y72939D01*
X60817Y72896D01*
X60809Y72857D01*
X60802Y72824D01*
X60791Y72796D01*
X60782Y72774D01*
X60772Y72757D01*
X60765Y72746D01*
X60763Y72743D01*
X60741Y72715D01*
X60719Y72693D01*
X60696Y72676D01*
X60674Y72661D01*
X60654Y72652D01*
X60639Y72646D01*
X60628Y72643D01*
X60626Y72641D01*
X60624D01*
X60650Y72622D01*
X60672Y72602D01*
X60693Y72582D01*
X60708Y72565D01*
X60721Y72548D01*
X60728Y72537D01*
X60734Y72530D01*
X60735Y72526D01*
X60748Y72500D01*
X60758Y72474D01*
X60765Y72450D01*
X60769Y72426D01*
X60772Y72408D01*
X60774Y72391D01*
Y72382D01*
Y72378D01*
Y72356D01*
X60771Y72333D01*
X60761Y72293D01*
X60748Y72256D01*
X60734Y72222D01*
X60717Y72195D01*
X60709Y72183D01*
X60704Y72174D01*
X60698Y72167D01*
X60695Y72161D01*
X60693Y72159D01*
X60691Y72158D01*
X60674Y72139D01*
X60658Y72124D01*
X60639Y72111D01*
X60621Y72100D01*
X60584Y72082D01*
X60548Y72071D01*
X60515Y72063D01*
X60502Y72061D01*
X60491Y72059D01*
X60480Y72058D01*
X60445D01*
X60422Y72061D01*
X60382Y72071D01*
X60345Y72083D01*
X60315Y72096D01*
X60291Y72111D01*
X60272Y72124D01*
X60261Y72133D01*
X60259Y72135D01*
X60258Y72137D01*
X60243Y72152D01*
X60230Y72171D01*
X60206Y72209D01*
X60187Y72250D01*
X60172Y72291D01*
X60161Y72328D01*
X60158Y72343D01*
X60154Y72358D01*
X60152Y72369D01*
X60150Y72378D01*
X60148Y72383D01*
Y72385D01*
X60330Y72422D01*
X60334Y72393D01*
X60339Y72369D01*
X60347Y72346D01*
X60354Y72330D01*
X60361Y72317D01*
X60367Y72306D01*
X60371Y72300D01*
X60372Y72298D01*
X60387Y72283D01*
X60402Y72274D01*
X60417Y72267D01*
X60430Y72261D01*
X60441Y72258D01*
X60452Y72256D01*
X60459D01*
X60478Y72258D01*
X60495Y72261D01*
X60509Y72267D01*
X60521Y72274D01*
X60530Y72282D01*
X60537Y72287D01*
X60541Y72291D01*
X60543Y72293D01*
X60554Y72308D01*
X60561Y72324D01*
X60569Y72341D01*
X60572Y72356D01*
X60574Y72370D01*
X60576Y72382D01*
Y72389D01*
Y72393D01*
X60574Y72420D01*
X60569Y72445D01*
X60561Y72465D01*
X60554Y72482D01*
X60546Y72495D01*
X60539Y72506D01*
X60534Y72511D01*
X60532Y72513D01*
X60513Y72526D01*
X60495Y72537D01*
X60474Y72543D01*
X60454Y72548D01*
X60437Y72550D01*
X60422Y72552D01*
X60409D01*
X60389Y72748D01*
X60408Y72743D01*
X60424Y72737D01*
X60441Y72733D01*
X60454Y72732D01*
X60463Y72730D01*
X60478D01*
X60498Y72732D01*
X60517Y72737D01*
X60534Y72746D01*
X60548Y72756D01*
X60559Y72767D01*
X60569Y72774D01*
X60574Y72782D01*
X60576Y72783D01*
X60589Y72804D01*
X60600Y72828D01*
X60608Y72852D01*
X60611Y72874D01*
X60615Y72895D01*
X60617Y72911D01*
Y72922D01*
Y72924D01*
Y72926D01*
X60615Y72961D01*
X60609Y72991D01*
X60604Y73019D01*
X60596Y73039D01*
X60587Y73057D01*
X60582Y73069D01*
X60576Y73078D01*
X60574Y73080D01*
X60558Y73098D01*
X60541Y73111D01*
X60522Y73120D01*
X60506Y73126D01*
X60493Y73130D01*
X60482Y73133D01*
X60471D01*
X60450Y73132D01*
X60432Y73126D01*
X60415Y73119D01*
X60402Y73109D01*
X60391Y73102D01*
X60382Y73094D01*
X60376Y73089D01*
X60374Y73087D01*
X60361Y73069D01*
X60350Y73046D01*
X60341Y73024D01*
X60335Y73002D01*
X60330Y72982D01*
X60328Y72967D01*
X60326Y72956D01*
Y72954D01*
Y72952D01*
X60135Y72980D01*
X60145Y73039D01*
X60158Y73089D01*
X60167Y73113D01*
X60176Y73133D01*
X60185Y73154D01*
X60195Y73170D01*
X60204Y73187D01*
X60213Y73200D01*
X60221Y73211D01*
X60228Y73222D01*
X60234Y73230D01*
X60239Y73235D01*
X60241Y73237D01*
X60243Y73239D01*
X60261Y73256D01*
X60280Y73270D01*
X60298Y73283D01*
X60319Y73293D01*
X60358Y73311D01*
X60393Y73322D01*
X60424Y73328D01*
X60439Y73330D01*
X60450Y73331D01*
X60459Y73333D01*
X60472D01*
X60498Y73331D01*
D02*
G37*
G36*
X63707D02*
X63735Y73328D01*
X63763Y73320D01*
X63787Y73311D01*
X63811Y73302D01*
X63831Y73291D01*
X63852Y73278D01*
X63868Y73265D01*
X63883Y73252D01*
X63898Y73239D01*
X63909Y73228D01*
X63918Y73219D01*
X63926Y73209D01*
X63931Y73202D01*
X63933Y73198D01*
X63935Y73196D01*
X63952Y73170D01*
X63967Y73143D01*
X63978Y73117D01*
X63989Y73091D01*
X64005Y73039D01*
X64017Y72993D01*
X64020Y72970D01*
X64022Y72952D01*
X64026Y72935D01*
Y72920D01*
X64028Y72909D01*
Y72900D01*
Y72895D01*
Y72893D01*
X64026Y72856D01*
X64024Y72820D01*
X64018Y72789D01*
X64011Y72757D01*
X64004Y72730D01*
X63994Y72702D01*
X63983Y72678D01*
X63974Y72656D01*
X63965Y72637D01*
X63954Y72620D01*
X63944Y72606D01*
X63937Y72593D01*
X63929Y72583D01*
X63926Y72576D01*
X63922Y72572D01*
X63920Y72570D01*
X63904Y72554D01*
X63887Y72539D01*
X63870Y72526D01*
X63852Y72515D01*
X63817Y72498D01*
X63785Y72485D01*
X63755Y72480D01*
X63744Y72478D01*
X63733Y72476D01*
X63724Y72474D01*
X63713D01*
X63687Y72476D01*
X63663Y72482D01*
X63641Y72487D01*
X63620Y72495D01*
X63602Y72504D01*
X63589Y72509D01*
X63581Y72515D01*
X63578Y72517D01*
X63611Y72302D01*
X63981D01*
Y72078D01*
X63461D01*
X63361Y72730D01*
X63520Y72757D01*
X63533Y72741D01*
X63546Y72728D01*
X63559Y72715D01*
X63572Y72706D01*
X63598Y72689D01*
X63622Y72678D01*
X63642Y72672D01*
X63657Y72669D01*
X63668Y72667D01*
X63672D01*
X63696Y72669D01*
X63717Y72676D01*
X63737Y72685D01*
X63752Y72695D01*
X63765Y72706D01*
X63774Y72715D01*
X63779Y72722D01*
X63781Y72724D01*
X63796Y72748D01*
X63807Y72774D01*
X63815Y72804D01*
X63820Y72832D01*
X63824Y72857D01*
X63826Y72878D01*
Y72887D01*
Y72893D01*
Y72896D01*
Y72898D01*
X63824Y72941D01*
X63818Y72980D01*
X63811Y73011D01*
X63804Y73037D01*
X63796Y73056D01*
X63789Y73070D01*
X63783Y73078D01*
X63781Y73082D01*
X63765Y73102D01*
X63748Y73115D01*
X63729Y73126D01*
X63713Y73133D01*
X63700Y73137D01*
X63689Y73139D01*
X63680Y73141D01*
X63678D01*
X63659Y73139D01*
X63642Y73133D01*
X63626Y73126D01*
X63613Y73117D01*
X63602Y73109D01*
X63592Y73102D01*
X63587Y73096D01*
X63585Y73094D01*
X63570Y73076D01*
X63559Y73054D01*
X63550Y73033D01*
X63544Y73013D01*
X63541Y72994D01*
X63537Y72978D01*
X63535Y72969D01*
Y72965D01*
X63339Y72991D01*
X63348Y73048D01*
X63355Y73076D01*
X63363Y73100D01*
X63372Y73122D01*
X63381Y73143D01*
X63391Y73163D01*
X63400Y73180D01*
X63409Y73194D01*
X63418Y73207D01*
X63426Y73219D01*
X63433Y73228D01*
X63439Y73235D01*
X63444Y73241D01*
X63446Y73243D01*
X63448Y73244D01*
X63467Y73259D01*
X63485Y73274D01*
X63522Y73296D01*
X63561Y73311D01*
X63596Y73322D01*
X63628Y73328D01*
X63642Y73331D01*
X63654D01*
X63663Y73333D01*
X63676D01*
X63707Y73331D01*
D02*
G37*
G36*
X65313D02*
X65337Y73328D01*
X65361Y73322D01*
X65383Y73317D01*
X65424Y73298D01*
X65457Y73278D01*
X65485Y73257D01*
X65496Y73248D01*
X65505Y73239D01*
X65513Y73233D01*
X65518Y73228D01*
X65520Y73224D01*
X65522Y73222D01*
X65539Y73200D01*
X65553Y73176D01*
X65566Y73152D01*
X65577Y73126D01*
X65594Y73074D01*
X65607Y73026D01*
X65611Y73002D01*
X65613Y72982D01*
X65614Y72961D01*
X65616Y72945D01*
X65618Y72932D01*
Y72922D01*
Y72915D01*
Y72913D01*
X65616Y72880D01*
X65614Y72846D01*
X65611Y72817D01*
X65603Y72787D01*
X65598Y72761D01*
X65590Y72737D01*
X65581Y72715D01*
X65574Y72695D01*
X65564Y72676D01*
X65557Y72659D01*
X65548Y72646D01*
X65542Y72635D01*
X65537Y72626D01*
X65531Y72620D01*
X65529Y72617D01*
X65527Y72615D01*
X65511Y72595D01*
X65492Y72578D01*
X65476Y72563D01*
X65457Y72550D01*
X65440Y72539D01*
X65422Y72530D01*
X65390Y72517D01*
X65361Y72508D01*
X65350Y72506D01*
X65339Y72504D01*
X65329Y72502D01*
X65318D01*
X65298Y72504D01*
X65279Y72506D01*
X65261Y72511D01*
X65246Y72515D01*
X65235Y72520D01*
X65224Y72526D01*
X65218Y72528D01*
X65216Y72530D01*
X65200Y72541D01*
X65185Y72554D01*
X65172Y72567D01*
X65159Y72580D01*
X65150Y72591D01*
X65142Y72600D01*
X65137Y72607D01*
X65135Y72609D01*
X65137Y72570D01*
X65140Y72535D01*
X65144Y72504D01*
X65148Y72476D01*
X65152Y72450D01*
X65157Y72426D01*
X65161Y72406D01*
X65166Y72387D01*
X65170Y72372D01*
X65174Y72359D01*
X65179Y72348D01*
X65181Y72341D01*
X65185Y72333D01*
X65187Y72330D01*
X65189Y72326D01*
X65205Y72302D01*
X65224Y72285D01*
X65240Y72272D01*
X65257Y72265D01*
X65272Y72259D01*
X65283Y72258D01*
X65292Y72256D01*
X65294D01*
X65311Y72258D01*
X65327Y72261D01*
X65340Y72269D01*
X65353Y72278D01*
X65374Y72300D01*
X65387Y72324D01*
X65398Y72350D01*
X65403Y72372D01*
X65405Y72382D01*
X65407Y72389D01*
Y72393D01*
Y72395D01*
X65598Y72369D01*
X65587Y72313D01*
X65574Y72267D01*
X65557Y72226D01*
X65540Y72193D01*
X65524Y72169D01*
X65511Y72150D01*
X65502Y72139D01*
X65498Y72135D01*
X65468Y72109D01*
X65435Y72091D01*
X65403Y72076D01*
X65372Y72067D01*
X65346Y72061D01*
X65324Y72059D01*
X65316Y72058D01*
X65305D01*
X65276Y72059D01*
X65246Y72063D01*
X65220Y72072D01*
X65194Y72082D01*
X65148Y72106D01*
X65128Y72119D01*
X65109Y72133D01*
X65092Y72148D01*
X65077Y72161D01*
X65065Y72174D01*
X65053Y72185D01*
X65046Y72195D01*
X65040Y72202D01*
X65037Y72208D01*
X65035Y72209D01*
X65016Y72239D01*
X65002Y72274D01*
X64987Y72311D01*
X64976Y72350D01*
X64957Y72432D01*
X64944Y72513D01*
X64940Y72552D01*
X64937Y72587D01*
X64935Y72619D01*
X64933Y72648D01*
X64931Y72670D01*
Y72689D01*
Y72700D01*
Y72702D01*
Y72704D01*
X64933Y72765D01*
X64935Y72822D01*
X64940Y72874D01*
X64946Y72922D01*
X64955Y72967D01*
X64963Y73006D01*
X64972Y73043D01*
X64981Y73074D01*
X64990Y73102D01*
X65000Y73124D01*
X65009Y73144D01*
X65016Y73161D01*
X65022Y73172D01*
X65028Y73182D01*
X65029Y73187D01*
X65031Y73189D01*
X65052Y73215D01*
X65072Y73237D01*
X65092Y73256D01*
X65115Y73272D01*
X65135Y73287D01*
X65157Y73298D01*
X65177Y73307D01*
X65198Y73315D01*
X65233Y73326D01*
X65248Y73330D01*
X65261Y73331D01*
X65272D01*
X65279Y73333D01*
X65287D01*
X65313Y73331D01*
D02*
G37*
G36*
X63043Y72058D02*
X62881D01*
X62867Y72098D01*
X62848Y72135D01*
X62828Y72169D01*
X62807Y72196D01*
X62789Y72220D01*
X62774Y72239D01*
X62763Y72250D01*
X62761Y72252D01*
X62759Y72254D01*
X62726Y72283D01*
X62694Y72308D01*
X62667Y72328D01*
X62641Y72345D01*
X62618Y72356D01*
X62604Y72365D01*
X62593Y72369D01*
X62591Y72370D01*
X62589D01*
Y72589D01*
X62641Y72565D01*
X62691Y72537D01*
X62733Y72506D01*
X62770Y72476D01*
X62787Y72463D01*
X62802Y72450D01*
X62815Y72437D01*
X62824Y72428D01*
X62833Y72419D01*
X62839Y72413D01*
X62843Y72409D01*
X62844Y72408D01*
Y73313D01*
X63043D01*
Y72058D01*
D02*
G37*
G36*
X58684Y72061D02*
X57863D01*
Y73313D01*
X58071D01*
Y72272D01*
X58476D01*
Y73313D01*
X58684D01*
Y72061D01*
D02*
G37*
G36*
X56617D02*
X55797D01*
Y73313D01*
X56004D01*
Y72272D01*
X56410D01*
Y73313D01*
X56617D01*
Y72061D01*
D02*
G37*
G36*
X67590Y73091D02*
X67198D01*
X67211Y73067D01*
X67224Y73046D01*
X67229Y73039D01*
X67235Y73032D01*
X67237Y73028D01*
X67238Y73026D01*
X67251Y73009D01*
X67268Y72989D01*
X67288Y72967D01*
X67309Y72943D01*
X67327Y72920D01*
X67344Y72902D01*
X67349Y72895D01*
X67355Y72889D01*
X67357Y72887D01*
X67359Y72885D01*
X67394Y72845D01*
X67424Y72807D01*
X67449Y72776D01*
X67470Y72748D01*
X67485Y72728D01*
X67496Y72711D01*
X67501Y72702D01*
X67503Y72698D01*
X67518Y72670D01*
X67533Y72645D01*
X67544Y72620D01*
X67553Y72598D01*
X67559Y72580D01*
X67564Y72567D01*
X67568Y72558D01*
Y72554D01*
X67575Y72526D01*
X67581Y72500D01*
X67585Y72474D01*
X67588Y72452D01*
Y72432D01*
X67590Y72417D01*
Y72408D01*
Y72404D01*
Y72378D01*
X67587Y72354D01*
X67577Y72309D01*
X67564Y72269D01*
X67549Y72233D01*
X67533Y72204D01*
X67525Y72191D01*
X67520Y72182D01*
X67514Y72174D01*
X67511Y72169D01*
X67509Y72165D01*
X67507Y72163D01*
X67490Y72145D01*
X67474Y72128D01*
X67455Y72115D01*
X67435Y72102D01*
X67414Y72091D01*
X67394Y72083D01*
X67355Y72071D01*
X67318Y72063D01*
X67303Y72061D01*
X67288Y72059D01*
X67277Y72058D01*
X67262D01*
X67237Y72059D01*
X67211Y72061D01*
X67164Y72072D01*
X67124Y72085D01*
X67090Y72102D01*
X67062Y72119D01*
X67053Y72128D01*
X67044Y72133D01*
X67037Y72139D01*
X67031Y72145D01*
X67029Y72146D01*
X67027Y72148D01*
X67011Y72167D01*
X66998Y72185D01*
X66974Y72230D01*
X66955Y72276D01*
X66942Y72320D01*
X66937Y72343D01*
X66931Y72363D01*
X66929Y72382D01*
X66925Y72396D01*
X66924Y72409D01*
Y72419D01*
X66922Y72426D01*
Y72428D01*
X67118Y72454D01*
X67122Y72419D01*
X67127Y72389D01*
X67135Y72363D01*
X67144Y72341D01*
X67155Y72320D01*
X67166Y72306D01*
X67179Y72293D01*
X67192Y72282D01*
X67205Y72274D01*
X67216Y72269D01*
X67238Y72261D01*
X67246Y72259D01*
X67253Y72258D01*
X67259D01*
X67279Y72259D01*
X67299Y72265D01*
X67316Y72271D01*
X67329Y72278D01*
X67340Y72287D01*
X67348Y72293D01*
X67353Y72298D01*
X67355Y72300D01*
X67368Y72317D01*
X67377Y72337D01*
X67383Y72358D01*
X67388Y72378D01*
X67390Y72396D01*
X67392Y72411D01*
Y72420D01*
Y72422D01*
Y72424D01*
X67390Y72452D01*
X67385Y72480D01*
X67377Y72506D01*
X67370Y72528D01*
X67362Y72548D01*
X67355Y72563D01*
X67349Y72572D01*
X67348Y72576D01*
X67340Y72587D01*
X67331Y72600D01*
X67309Y72630D01*
X67283Y72661D01*
X67255Y72695D01*
X67229Y72726D01*
X67218Y72741D01*
X67207Y72752D01*
X67200Y72761D01*
X67192Y72769D01*
X67188Y72774D01*
X67187Y72776D01*
X67157Y72809D01*
X67131Y72843D01*
X67105Y72872D01*
X67083Y72900D01*
X67062Y72928D01*
X67046Y72952D01*
X67029Y72974D01*
X67016Y72994D01*
X67003Y73013D01*
X66992Y73028D01*
X66985Y73043D01*
X66977Y73054D01*
X66972Y73063D01*
X66970Y73069D01*
X66966Y73072D01*
Y73074D01*
X66948Y73117D01*
X66933Y73159D01*
X66920Y73200D01*
X66912Y73235D01*
X66907Y73267D01*
X66903Y73280D01*
X66901Y73291D01*
Y73300D01*
X66900Y73307D01*
Y73311D01*
Y73313D01*
X67590D01*
Y73091D01*
D02*
G37*
G36*
X68051Y73248D02*
X68057Y73182D01*
X68064Y73117D01*
X68068Y73087D01*
X68073Y73057D01*
X68077Y73032D01*
X68081Y73007D01*
X68085Y72985D01*
X68088Y72967D01*
X68092Y72952D01*
X68094Y72941D01*
X68096Y72933D01*
Y72932D01*
X68114Y72854D01*
X68136Y72782D01*
X68148Y72746D01*
X68157Y72713D01*
X68168Y72683D01*
X68179Y72656D01*
X68188Y72630D01*
X68198Y72606D01*
X68207Y72585D01*
X68212Y72569D01*
X68220Y72556D01*
X68223Y72545D01*
X68227Y72539D01*
Y72537D01*
X68244Y72504D01*
X68259Y72472D01*
X68275Y72443D01*
X68290Y72415D01*
X68305Y72391D01*
X68318Y72367D01*
X68331Y72346D01*
X68344Y72326D01*
X68355Y72309D01*
X68364Y72295D01*
X68373Y72283D01*
X68381Y72272D01*
X68388Y72265D01*
X68392Y72258D01*
X68396Y72256D01*
Y72254D01*
Y72078D01*
X67724D01*
Y72300D01*
X68170D01*
X68120Y72382D01*
X68077Y72467D01*
X68038Y72546D01*
X68022Y72585D01*
X68007Y72620D01*
X67994Y72656D01*
X67981Y72685D01*
X67972Y72713D01*
X67962Y72737D01*
X67957Y72756D01*
X67951Y72770D01*
X67949Y72778D01*
X67948Y72782D01*
X67920Y72880D01*
X67899Y72976D01*
X67892Y73022D01*
X67885Y73067D01*
X67879Y73107D01*
X67874Y73146D01*
X67870Y73182D01*
X67866Y73215D01*
X67864Y73243D01*
X67862Y73267D01*
Y73287D01*
X67861Y73302D01*
Y73309D01*
Y73313D01*
X68049D01*
X68051Y73248D01*
D02*
G37*
G36*
X59100Y73324D02*
X59128Y73317D01*
X59152Y73306D01*
X59173Y73293D01*
X59189Y73280D01*
X59202Y73269D01*
X59211Y73261D01*
X59213Y73257D01*
X59224Y73243D01*
X59236Y73226D01*
X59258Y73189D01*
X59278Y73150D01*
X59298Y73109D01*
X59313Y73072D01*
X59321Y73056D01*
X59326Y73041D01*
X59332Y73030D01*
X59334Y73020D01*
X59337Y73015D01*
Y73013D01*
X59684Y72061D01*
X59469D01*
X59261Y72711D01*
X59023Y72061D01*
X58791D01*
X59169Y72961D01*
X59158Y72998D01*
X59147Y73028D01*
X59137Y73050D01*
X59128Y73069D01*
X59119Y73083D01*
X59113Y73091D01*
X59110Y73096D01*
X59108Y73098D01*
X59095Y73107D01*
X59078Y73115D01*
X59061Y73120D01*
X59045Y73124D01*
X59028Y73126D01*
X59015Y73128D01*
X58980D01*
X58954Y73126D01*
X58926D01*
Y73313D01*
X58974Y73322D01*
X58999Y73324D01*
X59021Y73326D01*
X59041Y73328D01*
X59069D01*
X59100Y73324D01*
D02*
G37*
G36*
X57371Y73311D02*
X57404Y73307D01*
X57434Y73302D01*
X57462Y73294D01*
X57486Y73287D01*
X57508Y73278D01*
X57528Y73267D01*
X57547Y73256D01*
X57562Y73246D01*
X57576Y73235D01*
X57588Y73226D01*
X57597Y73217D01*
X57602Y73211D01*
X57608Y73206D01*
X57612Y73202D01*
Y73200D01*
X57626Y73178D01*
X57639Y73156D01*
X57658Y73111D01*
X57673Y73069D01*
X57684Y73028D01*
X57686Y73009D01*
X57689Y72991D01*
X57691Y72976D01*
Y72963D01*
X57693Y72954D01*
Y72946D01*
Y72941D01*
Y72939D01*
X57691Y72907D01*
X57689Y72878D01*
X57678Y72822D01*
X57671Y72798D01*
X57663Y72776D01*
X57654Y72756D01*
X57645Y72737D01*
X57636Y72720D01*
X57626Y72706D01*
X57619Y72693D01*
X57612Y72682D01*
X57606Y72674D01*
X57600Y72669D01*
X57599Y72665D01*
X57597Y72663D01*
X57578Y72645D01*
X57558Y72628D01*
X57538Y72615D01*
X57515Y72604D01*
X57473Y72585D01*
X57430Y72572D01*
X57393Y72565D01*
X57376Y72563D01*
X57363Y72561D01*
X57352Y72559D01*
X57043D01*
Y72272D01*
X57604D01*
Y72061D01*
X56836D01*
Y73313D01*
X57336D01*
X57371Y73311D01*
D02*
G37*
G36*
X66488Y73331D02*
X66514Y73328D01*
X66538Y73320D01*
X66561Y73311D01*
X66601Y73289D01*
X66637Y73263D01*
X66664Y73237D01*
X66675Y73226D01*
X66685Y73215D01*
X66692Y73206D01*
X66698Y73198D01*
X66700Y73194D01*
X66701Y73193D01*
X66718Y73163D01*
X66733Y73130D01*
X66744Y73094D01*
X66755Y73056D01*
X66772Y72972D01*
X66783Y72891D01*
X66787Y72852D01*
X66788Y72815D01*
X66792Y72783D01*
Y72754D01*
X66794Y72730D01*
Y72711D01*
Y72706D01*
Y72700D01*
Y72698D01*
Y72696D01*
X66792Y72632D01*
X66790Y72574D01*
X66785Y72519D01*
X66779Y72470D01*
X66772Y72424D01*
X66764Y72383D01*
X66757Y72348D01*
X66748Y72315D01*
X66738Y72287D01*
X66731Y72263D01*
X66724Y72245D01*
X66716Y72228D01*
X66711Y72215D01*
X66705Y72208D01*
X66703Y72202D01*
X66701Y72200D01*
X66683Y72174D01*
X66664Y72154D01*
X66644Y72133D01*
X66624Y72117D01*
X66603Y72104D01*
X66585Y72093D01*
X66564Y72083D01*
X66546Y72076D01*
X66511Y72065D01*
X66496Y72061D01*
X66483Y72059D01*
X66474Y72058D01*
X66459D01*
X66431Y72059D01*
X66405Y72063D01*
X66381Y72071D01*
X66359Y72080D01*
X66318Y72102D01*
X66283Y72128D01*
X66255Y72156D01*
X66244Y72167D01*
X66235Y72178D01*
X66227Y72187D01*
X66222Y72195D01*
X66220Y72198D01*
X66218Y72200D01*
X66201Y72230D01*
X66188Y72263D01*
X66176Y72298D01*
X66166Y72337D01*
X66150Y72419D01*
X66138Y72500D01*
X66135Y72539D01*
X66133Y72576D01*
X66131Y72609D01*
X66129Y72637D01*
X66127Y72661D01*
Y72680D01*
Y72685D01*
Y72691D01*
Y72693D01*
Y72695D01*
X66129Y72759D01*
X66131Y72819D01*
X66137Y72874D01*
X66142Y72924D01*
X66148Y72970D01*
X66157Y73011D01*
X66164Y73046D01*
X66174Y73080D01*
X66181Y73107D01*
X66190Y73132D01*
X66198Y73150D01*
X66203Y73167D01*
X66211Y73180D01*
X66214Y73187D01*
X66216Y73193D01*
X66218Y73194D01*
X66237Y73219D01*
X66255Y73241D01*
X66276Y73259D01*
X66296Y73274D01*
X66316Y73289D01*
X66335Y73300D01*
X66355Y73309D01*
X66374Y73317D01*
X66409Y73326D01*
X66424Y73330D01*
X66437Y73331D01*
X66446D01*
X66453Y73333D01*
X66461D01*
X66488Y73331D01*
D02*
G37*
G36*
X64494D02*
X64520Y73328D01*
X64544Y73320D01*
X64566Y73311D01*
X64607Y73289D01*
X64642Y73263D01*
X64670Y73237D01*
X64681Y73226D01*
X64691Y73215D01*
X64698Y73206D01*
X64703Y73198D01*
X64705Y73194D01*
X64707Y73193D01*
X64724Y73163D01*
X64739Y73130D01*
X64750Y73094D01*
X64761Y73056D01*
X64778Y72972D01*
X64789Y72891D01*
X64792Y72852D01*
X64794Y72815D01*
X64798Y72783D01*
Y72754D01*
X64800Y72730D01*
Y72711D01*
Y72706D01*
Y72700D01*
Y72698D01*
Y72696D01*
X64798Y72632D01*
X64796Y72574D01*
X64790Y72519D01*
X64785Y72470D01*
X64778Y72424D01*
X64770Y72383D01*
X64763Y72348D01*
X64753Y72315D01*
X64744Y72287D01*
X64737Y72263D01*
X64729Y72245D01*
X64722Y72228D01*
X64716Y72215D01*
X64711Y72208D01*
X64709Y72202D01*
X64707Y72200D01*
X64689Y72174D01*
X64670Y72154D01*
X64650Y72133D01*
X64629Y72117D01*
X64609Y72104D01*
X64591Y72093D01*
X64570Y72083D01*
X64552Y72076D01*
X64516Y72065D01*
X64502Y72061D01*
X64489Y72059D01*
X64479Y72058D01*
X64465D01*
X64437Y72059D01*
X64411Y72063D01*
X64387Y72071D01*
X64365Y72080D01*
X64324Y72102D01*
X64289Y72128D01*
X64261Y72156D01*
X64250Y72167D01*
X64241Y72178D01*
X64233Y72187D01*
X64228Y72195D01*
X64226Y72198D01*
X64224Y72200D01*
X64207Y72230D01*
X64194Y72263D01*
X64181Y72298D01*
X64172Y72337D01*
X64155Y72419D01*
X64144Y72500D01*
X64141Y72539D01*
X64139Y72576D01*
X64137Y72609D01*
X64135Y72637D01*
X64133Y72661D01*
Y72680D01*
Y72685D01*
Y72691D01*
Y72693D01*
Y72695D01*
X64135Y72759D01*
X64137Y72819D01*
X64142Y72874D01*
X64148Y72924D01*
X64154Y72970D01*
X64163Y73011D01*
X64170Y73046D01*
X64179Y73080D01*
X64187Y73107D01*
X64196Y73132D01*
X64204Y73150D01*
X64209Y73167D01*
X64216Y73180D01*
X64220Y73187D01*
X64222Y73193D01*
X64224Y73194D01*
X64242Y73219D01*
X64261Y73241D01*
X64281Y73259D01*
X64302Y73274D01*
X64322Y73289D01*
X64341Y73300D01*
X64361Y73309D01*
X64379Y73317D01*
X64415Y73326D01*
X64429Y73330D01*
X64442Y73331D01*
X64452D01*
X64459Y73333D01*
X64466D01*
X64494Y73331D01*
D02*
G37*
%LPC*%
G36*
X65307Y73133D02*
X65298D01*
X65277Y73132D01*
X65257Y73124D01*
X65240Y73115D01*
X65226Y73102D01*
X65213Y73091D01*
X65203Y73082D01*
X65198Y73074D01*
X65196Y73072D01*
X65181Y73046D01*
X65172Y73017D01*
X65165Y72987D01*
X65159Y72959D01*
X65155Y72933D01*
X65153Y72911D01*
Y72904D01*
Y72898D01*
Y72895D01*
Y72893D01*
X65155Y72856D01*
X65159Y72822D01*
X65166Y72796D01*
X65174Y72774D01*
X65179Y72756D01*
X65187Y72743D01*
X65190Y72735D01*
X65192Y72733D01*
X65207Y72715D01*
X65224Y72702D01*
X65240Y72693D01*
X65255Y72687D01*
X65268Y72682D01*
X65279Y72680D01*
X65289D01*
X65309Y72682D01*
X65327Y72689D01*
X65344Y72698D01*
X65359Y72707D01*
X65370Y72719D01*
X65377Y72728D01*
X65383Y72735D01*
X65385Y72737D01*
X65398Y72761D01*
X65409Y72787D01*
X65416Y72817D01*
X65420Y72846D01*
X65424Y72872D01*
X65426Y72893D01*
Y72902D01*
Y72907D01*
Y72911D01*
Y72913D01*
X65424Y72954D01*
X65420Y72989D01*
X65414Y73019D01*
X65407Y73043D01*
X65400Y73061D01*
X65394Y73074D01*
X65390Y73082D01*
X65389Y73083D01*
X65374Y73100D01*
X65359Y73113D01*
X65344Y73120D01*
X65329Y73128D01*
X65316Y73132D01*
X65307Y73133D01*
D02*
G37*
G36*
X57289Y73102D02*
X57043D01*
Y72770D01*
X57269D01*
X57306Y72772D01*
X57338Y72778D01*
X57365Y72785D01*
X57389Y72796D01*
X57410Y72809D01*
X57426Y72824D01*
X57441Y72839D01*
X57452Y72856D01*
X57462Y72872D01*
X57467Y72887D01*
X57473Y72902D01*
X57475Y72915D01*
X57476Y72924D01*
X57478Y72933D01*
Y72939D01*
Y72941D01*
X57476Y72961D01*
X57475Y72980D01*
X57469Y72996D01*
X57463Y73011D01*
X57458Y73022D01*
X57454Y73032D01*
X57451Y73037D01*
X57449Y73039D01*
X57438Y73052D01*
X57426Y73065D01*
X57415Y73072D01*
X57404Y73080D01*
X57395Y73085D01*
X57389Y73089D01*
X57384Y73091D01*
X57382D01*
X57365Y73094D01*
X57347Y73096D01*
X57308Y73100D01*
X57289Y73102D01*
D02*
G37*
G36*
X66463Y73133D02*
X66461D01*
X66440Y73130D01*
X66422Y73122D01*
X66405Y73109D01*
X66392Y73094D01*
X66381Y73082D01*
X66374Y73069D01*
X66370Y73061D01*
X66368Y73057D01*
X66363Y73041D01*
X66357Y73020D01*
X66353Y72996D01*
X66350Y72969D01*
X66346Y72941D01*
X66342Y72909D01*
X66338Y72848D01*
Y72819D01*
X66337Y72791D01*
Y72765D01*
X66335Y72743D01*
Y72722D01*
Y72709D01*
Y72700D01*
Y72696D01*
Y72645D01*
X66337Y72598D01*
X66338Y72558D01*
X66340Y72520D01*
X66342Y72487D01*
X66346Y72458D01*
X66348Y72432D01*
X66351Y72409D01*
X66355Y72391D01*
X66357Y72374D01*
X66361Y72361D01*
X66363Y72352D01*
X66364Y72345D01*
X66366Y72339D01*
X66368Y72335D01*
X66381Y72309D01*
X66396Y72291D01*
X66413Y72276D01*
X66427Y72267D01*
X66440Y72261D01*
X66451Y72259D01*
X66459Y72258D01*
X66461D01*
X66481Y72261D01*
X66500Y72271D01*
X66514Y72282D01*
X66527Y72296D01*
X66538Y72311D01*
X66546Y72322D01*
X66550Y72332D01*
X66551Y72335D01*
X66557Y72352D01*
X66563Y72372D01*
X66568Y72396D01*
X66572Y72424D01*
X66576Y72452D01*
X66577Y72483D01*
X66583Y72545D01*
Y72574D01*
X66585Y72602D01*
Y72628D01*
X66587Y72650D01*
Y72669D01*
Y72683D01*
Y72693D01*
Y72696D01*
Y72748D01*
X66585Y72795D01*
X66583Y72835D01*
X66581Y72872D01*
X66579Y72906D01*
X66576Y72935D01*
X66572Y72961D01*
X66570Y72983D01*
X66566Y73002D01*
X66563Y73019D01*
X66559Y73032D01*
X66557Y73041D01*
X66555Y73048D01*
X66553Y73054D01*
X66551Y73056D01*
Y73057D01*
X66538Y73083D01*
X66524Y73102D01*
X66509Y73115D01*
X66494Y73124D01*
X66481Y73130D01*
X66470Y73132D01*
X66463Y73133D01*
D02*
G37*
G36*
X64468D02*
X64466D01*
X64446Y73130D01*
X64428Y73122D01*
X64411Y73109D01*
X64398Y73094D01*
X64387Y73082D01*
X64379Y73069D01*
X64376Y73061D01*
X64374Y73057D01*
X64368Y73041D01*
X64363Y73020D01*
X64359Y72996D01*
X64355Y72969D01*
X64352Y72941D01*
X64348Y72909D01*
X64344Y72848D01*
Y72819D01*
X64342Y72791D01*
Y72765D01*
X64341Y72743D01*
Y72722D01*
Y72709D01*
Y72700D01*
Y72696D01*
Y72645D01*
X64342Y72598D01*
X64344Y72558D01*
X64346Y72520D01*
X64348Y72487D01*
X64352Y72458D01*
X64354Y72432D01*
X64357Y72409D01*
X64361Y72391D01*
X64363Y72374D01*
X64366Y72361D01*
X64368Y72352D01*
X64370Y72345D01*
X64372Y72339D01*
X64374Y72335D01*
X64387Y72309D01*
X64402Y72291D01*
X64418Y72276D01*
X64433Y72267D01*
X64446Y72261D01*
X64457Y72259D01*
X64465Y72258D01*
X64466D01*
X64487Y72261D01*
X64505Y72271D01*
X64520Y72282D01*
X64533Y72296D01*
X64544Y72311D01*
X64552Y72322D01*
X64555Y72332D01*
X64557Y72335D01*
X64563Y72352D01*
X64568Y72372D01*
X64574Y72396D01*
X64578Y72424D01*
X64581Y72452D01*
X64583Y72483D01*
X64589Y72545D01*
Y72574D01*
X64591Y72602D01*
Y72628D01*
X64592Y72650D01*
Y72669D01*
Y72683D01*
Y72693D01*
Y72696D01*
Y72748D01*
X64591Y72795D01*
X64589Y72835D01*
X64587Y72872D01*
X64585Y72906D01*
X64581Y72935D01*
X64578Y72961D01*
X64576Y72983D01*
X64572Y73002D01*
X64568Y73019D01*
X64565Y73032D01*
X64563Y73041D01*
X64561Y73048D01*
X64559Y73054D01*
X64557Y73056D01*
Y73057D01*
X64544Y73083D01*
X64529Y73102D01*
X64515Y73115D01*
X64500Y73124D01*
X64487Y73130D01*
X64476Y73132D01*
X64468Y73133D01*
D02*
G37*
%LPD*%
M02*
