M48
;Layer_Color=9474304
;FILE_FORMAT=4:3
METRIC,LZ
;TYPE=PLATED
T1F00S00C0.300
T2F00S00C0.900
T3F00S00C1.000
%
T01
X0081Y0051
X0084
X0087
X009
X00885Y0054
X00855
X00825
X00795
X0081Y0057
X0087
X009
X00915Y006
X00885
X00855Y0066
X00825
X00795
X0081Y0069
X0084
X0087
X009
X00885Y0072
X00855
X00795
X00765
X00735
X00705
X00675
X00645
X00615
X00585
X00555
X0054Y0069
X0051
X00525Y0066
X0054Y0057
X0051
Y0051
X0054
X0057
X006
X0063
X0066
X0069
X0072
X0075
X0078
X00765Y0054
X00735
X00705
X00675
X00645
X0066Y0057
X0063
X006
X00585Y0054
X0072Y0057
X00714Y00589
Y00601
X00728
Y00589
X0078Y0057
X00765Y0066
X00735
X00705
X0072Y0069
X0075
X0078
T02
X00905Y005892
Y006146
Y0064
Y006654
T03
X00905Y0053
Y0073
X00525
X0052Y006177
Y005923
X00525Y0053
M30
