G04*
G04 #@! TF.GenerationSoftware,Altium Limited,Altium Designer,19.1.6 (110)*
G04*
G04 Layer_Color=65535*
%FSLAX43Y43*%
%MOMM*%
G71*
G01*
G75*
%ADD10C,0.200*%
%ADD11C,0.250*%
%ADD12C,0.600*%
%ADD13C,0.254*%
G36*
X69726Y73460D02*
X69711Y73455D01*
X69700Y73447D01*
X69698Y73446D01*
X69696Y73444D01*
X69417Y73162D01*
X69406Y73144D01*
X69400Y73131D01*
X69398Y73123D01*
Y73464D01*
X69735D01*
X69726Y73460D01*
D02*
G37*
G36*
X75218Y73734D02*
X75216D01*
Y72100D01*
X69398D01*
Y72125D01*
D01*
Y73122D01*
X69400Y73112D01*
X69402Y73103D01*
X69409Y73088D01*
X69415Y73079D01*
X69419Y73077D01*
Y73075D01*
X69426Y73068D01*
X69435Y73064D01*
X69452Y73057D01*
X69459D01*
X69465Y73055D01*
X69470D01*
X69480Y73057D01*
X69489Y73059D01*
X69506Y73066D01*
X69515Y73073D01*
X69519Y73077D01*
X69678Y73234D01*
Y72190D01*
X69680Y72179D01*
X69681Y72170D01*
X69689Y72153D01*
X69696Y72144D01*
X69700Y72140D01*
X69711Y72135D01*
X69722Y72131D01*
X69735Y72127D01*
X69744Y72125D01*
X69746D01*
X69768Y72129D01*
X69783Y72135D01*
X69794Y72140D01*
X69798Y72144D01*
X69809Y72159D01*
X69815Y72173D01*
X69817Y72185D01*
Y72125D01*
D01*
Y73464D01*
D01*
Y73410D01*
X69813Y73420D01*
X69806Y73434D01*
X69798Y73442D01*
X69796Y73446D01*
X69794D01*
X69778Y73457D01*
X69763Y73462D01*
X69752Y73464D01*
X69398D01*
Y73734D01*
X69400D01*
Y75100D01*
X75218D01*
Y73734D01*
D02*
G37*
G36*
X65324Y73441D02*
X65346Y73439D01*
X65372Y73433D01*
X65403Y73424D01*
X65435Y73409D01*
X65468Y73391D01*
X65498Y73365D01*
X65502Y73361D01*
X65511Y73350D01*
X65524Y73331D01*
X65540Y73307D01*
X65557Y73274D01*
X65574Y73233D01*
X65587Y73187D01*
X65598Y73131D01*
X65407Y73105D01*
Y73107D01*
Y73111D01*
X65405Y73118D01*
X65403Y73128D01*
X65398Y73150D01*
X65387Y73176D01*
X65374Y73200D01*
X65353Y73222D01*
X65340Y73231D01*
X65327Y73239D01*
X65311Y73242D01*
X65294Y73244D01*
X65292D01*
X65283Y73242D01*
X65272Y73241D01*
X65257Y73235D01*
X65240Y73228D01*
X65224Y73215D01*
X65205Y73198D01*
X65189Y73174D01*
X65187Y73170D01*
X65185Y73167D01*
X65181Y73159D01*
X65179Y73152D01*
X65174Y73141D01*
X65170Y73128D01*
X65166Y73113D01*
X65161Y73094D01*
X65157Y73074D01*
X65152Y73050D01*
X65148Y73024D01*
X65144Y72996D01*
X65140Y72965D01*
X65137Y72930D01*
X65135Y72891D01*
X65137Y72893D01*
X65142Y72900D01*
X65150Y72909D01*
X65159Y72920D01*
X65172Y72933D01*
X65185Y72946D01*
X65200Y72959D01*
X65216Y72970D01*
X65218Y72972D01*
X65224Y72974D01*
X65235Y72980D01*
X65246Y72985D01*
X65261Y72989D01*
X65279Y72994D01*
X65298Y72996D01*
X65318Y72998D01*
X65329D01*
X65339Y72996D01*
X65350Y72994D01*
X65361Y72992D01*
X65390Y72983D01*
X65422Y72970D01*
X65440Y72961D01*
X65457Y72950D01*
X65476Y72937D01*
X65492Y72922D01*
X65511Y72905D01*
X65527Y72885D01*
X65529Y72883D01*
X65531Y72880D01*
X65537Y72874D01*
X65542Y72865D01*
X65548Y72854D01*
X65557Y72841D01*
X65564Y72824D01*
X65574Y72805D01*
X65581Y72785D01*
X65590Y72763D01*
X65598Y72739D01*
X65603Y72713D01*
X65611Y72683D01*
X65614Y72654D01*
X65616Y72620D01*
X65618Y72587D01*
Y72585D01*
Y72578D01*
Y72568D01*
X65616Y72555D01*
X65614Y72539D01*
X65613Y72518D01*
X65611Y72498D01*
X65607Y72474D01*
X65594Y72426D01*
X65577Y72374D01*
X65566Y72348D01*
X65553Y72324D01*
X65539Y72300D01*
X65522Y72278D01*
X65520Y72276D01*
X65518Y72272D01*
X65513Y72267D01*
X65505Y72261D01*
X65496Y72252D01*
X65485Y72243D01*
X65457Y72222D01*
X65424Y72202D01*
X65383Y72183D01*
X65361Y72178D01*
X65337Y72172D01*
X65313Y72169D01*
X65287Y72167D01*
X65279D01*
X65272Y72169D01*
X65261D01*
X65248Y72170D01*
X65233Y72174D01*
X65198Y72185D01*
X65177Y72193D01*
X65157Y72202D01*
X65135Y72213D01*
X65115Y72228D01*
X65092Y72244D01*
X65072Y72263D01*
X65052Y72285D01*
X65031Y72311D01*
X65029Y72313D01*
X65028Y72318D01*
X65022Y72328D01*
X65016Y72339D01*
X65009Y72356D01*
X65000Y72376D01*
X64990Y72398D01*
X64981Y72426D01*
X64972Y72457D01*
X64963Y72494D01*
X64955Y72533D01*
X64946Y72578D01*
X64940Y72626D01*
X64935Y72678D01*
X64933Y72735D01*
X64931Y72796D01*
Y72798D01*
Y72800D01*
Y72811D01*
Y72830D01*
X64933Y72852D01*
X64935Y72881D01*
X64937Y72913D01*
X64940Y72948D01*
X64944Y72987D01*
X64957Y73068D01*
X64976Y73150D01*
X64987Y73189D01*
X65002Y73226D01*
X65016Y73261D01*
X65035Y73291D01*
X65037Y73292D01*
X65040Y73298D01*
X65046Y73305D01*
X65053Y73315D01*
X65065Y73326D01*
X65077Y73339D01*
X65092Y73352D01*
X65109Y73367D01*
X65128Y73381D01*
X65148Y73394D01*
X65194Y73418D01*
X65220Y73428D01*
X65246Y73437D01*
X65276Y73441D01*
X65305Y73442D01*
X65316D01*
X65324Y73441D01*
D02*
G37*
G36*
X55234Y73457D02*
X55249Y73455D01*
X55266Y73454D01*
X55284Y73450D01*
X55304Y73444D01*
X55351Y73429D01*
X55375Y73420D01*
X55399Y73409D01*
X55423Y73394D01*
X55447Y73378D01*
X55471Y73359D01*
X55493Y73339D01*
X55495D01*
X55497Y73335D01*
X55501Y73329D01*
X55506Y73324D01*
X55514Y73315D01*
X55521Y73304D01*
X55530Y73291D01*
X55540Y73276D01*
X55549Y73259D01*
X55560Y73242D01*
X55569Y73222D01*
X55580Y73200D01*
X55590Y73174D01*
X55599Y73148D01*
X55608Y73120D01*
X55616Y73091D01*
X55410Y73031D01*
Y73033D01*
X55408Y73035D01*
Y73041D01*
X55406Y73048D01*
X55401Y73067D01*
X55393Y73089D01*
X55382Y73115D01*
X55367Y73141D01*
X55351Y73165D01*
X55330Y73187D01*
X55329Y73189D01*
X55321Y73196D01*
X55308Y73205D01*
X55291Y73215D01*
X55271Y73226D01*
X55249Y73233D01*
X55223Y73241D01*
X55193Y73242D01*
X55182D01*
X55175Y73241D01*
X55154Y73237D01*
X55129Y73229D01*
X55099Y73218D01*
X55067Y73200D01*
X55053Y73189D01*
X55038Y73176D01*
X55023Y73161D01*
X55008Y73142D01*
Y73141D01*
X55004Y73139D01*
X55003Y73131D01*
X54997Y73124D01*
X54992Y73113D01*
X54986Y73100D01*
X54980Y73083D01*
X54973Y73065D01*
X54966Y73044D01*
X54960Y73020D01*
X54954Y72992D01*
X54949Y72963D01*
X54945Y72931D01*
X54942Y72896D01*
X54938Y72857D01*
Y72817D01*
Y72815D01*
Y72805D01*
Y72794D01*
X54940Y72778D01*
Y72759D01*
X54942Y72737D01*
X54943Y72713D01*
X54947Y72687D01*
X54954Y72631D01*
X54967Y72576D01*
X54975Y72550D01*
X54984Y72524D01*
X54995Y72502D01*
X55006Y72481D01*
Y72480D01*
X55010Y72478D01*
X55019Y72467D01*
X55034Y72450D01*
X55056Y72433D01*
X55082Y72415D01*
X55112Y72398D01*
X55149Y72387D01*
X55167Y72385D01*
X55188Y72383D01*
X55191D01*
X55201Y72385D01*
X55217Y72387D01*
X55236Y72391D01*
X55258Y72398D01*
X55282Y72409D01*
X55306Y72426D01*
X55329Y72446D01*
X55330Y72450D01*
X55338Y72459D01*
X55349Y72474D01*
X55362Y72496D01*
X55377Y72524D01*
X55390Y72559D01*
X55404Y72600D01*
X55416Y72650D01*
X55617Y72572D01*
Y72570D01*
X55616Y72563D01*
X55612Y72552D01*
X55608Y72537D01*
X55603Y72520D01*
X55597Y72500D01*
X55590Y72478D01*
X55580Y72454D01*
X55558Y72404D01*
X55530Y72352D01*
X55499Y72304D01*
X55480Y72283D01*
X55460Y72263D01*
X55458Y72261D01*
X55454Y72259D01*
X55449Y72254D01*
X55440Y72248D01*
X55430Y72241D01*
X55417Y72233D01*
X55403Y72224D01*
X55386Y72215D01*
X55367Y72206D01*
X55347Y72196D01*
X55301Y72181D01*
X55249Y72170D01*
X55221Y72169D01*
X55191Y72167D01*
X55182D01*
X55173Y72169D01*
X55158D01*
X55141Y72172D01*
X55121Y72174D01*
X55099Y72180D01*
X55075Y72185D01*
X55049Y72194D01*
X55023Y72204D01*
X54997Y72217D01*
X54969Y72231D01*
X54942Y72250D01*
X54916Y72270D01*
X54890Y72293D01*
X54866Y72320D01*
X54864Y72322D01*
X54860Y72328D01*
X54853Y72339D01*
X54843Y72354D01*
X54832Y72370D01*
X54821Y72393D01*
X54808Y72418D01*
X54795Y72448D01*
X54780Y72480D01*
X54767Y72517D01*
X54756Y72555D01*
X54745Y72598D01*
X54736Y72644D01*
X54729Y72694D01*
X54725Y72746D01*
X54723Y72802D01*
Y72804D01*
Y72805D01*
Y72817D01*
X54725Y72833D01*
Y72854D01*
X54727Y72881D01*
X54730Y72913D01*
X54736Y72946D01*
X54742Y72983D01*
X54749Y73024D01*
X54758Y73065D01*
X54769Y73105D01*
X54784Y73148D01*
X54801Y73189D01*
X54819Y73228D01*
X54842Y73267D01*
X54867Y73302D01*
X54869Y73304D01*
X54873Y73309D01*
X54880Y73317D01*
X54890Y73326D01*
X54903Y73339D01*
X54917Y73352D01*
X54936Y73367D01*
X54956Y73381D01*
X54979Y73394D01*
X55004Y73409D01*
X55032Y73422D01*
X55062Y73435D01*
X55095Y73444D01*
X55129Y73452D01*
X55166Y73457D01*
X55204Y73459D01*
X55221D01*
X55234Y73457D01*
D02*
G37*
G36*
X59337Y72487D02*
Y72485D01*
X59334Y72480D01*
X59332Y72470D01*
X59326Y72459D01*
X59321Y72444D01*
X59313Y72428D01*
X59298Y72391D01*
X59278Y72350D01*
X59258Y72311D01*
X59236Y72274D01*
X59224Y72257D01*
X59213Y72243D01*
X59211Y72239D01*
X59202Y72231D01*
X59189Y72220D01*
X59173Y72207D01*
X59152Y72194D01*
X59128Y72183D01*
X59100Y72176D01*
X59069Y72172D01*
X59041D01*
X59021Y72174D01*
X58999Y72176D01*
X58974Y72178D01*
X58926Y72187D01*
Y72374D01*
X58954D01*
X58980Y72372D01*
X59015D01*
X59028Y72374D01*
X59045Y72376D01*
X59061Y72380D01*
X59078Y72385D01*
X59095Y72393D01*
X59108Y72402D01*
X59110Y72404D01*
X59113Y72409D01*
X59119Y72417D01*
X59128Y72431D01*
X59137Y72450D01*
X59147Y72472D01*
X59158Y72502D01*
X59169Y72539D01*
X58791Y73439D01*
X59023D01*
X59261Y72789D01*
X59469Y73439D01*
X59684D01*
X59337Y72487D01*
D02*
G37*
G36*
X62087Y73441D02*
X62098Y73439D01*
X62111Y73437D01*
X62144Y73429D01*
X62180Y73418D01*
X62217Y73400D01*
X62235Y73389D01*
X62254Y73376D01*
X62270Y73361D01*
X62287Y73342D01*
X62289Y73341D01*
X62291Y73339D01*
X62294Y73333D01*
X62300Y73326D01*
X62306Y73317D01*
X62313Y73305D01*
X62330Y73278D01*
X62344Y73244D01*
X62357Y73207D01*
X62367Y73167D01*
X62370Y73144D01*
Y73122D01*
Y73118D01*
Y73109D01*
X62369Y73092D01*
X62365Y73074D01*
X62361Y73050D01*
X62354Y73026D01*
X62344Y73000D01*
X62331Y72974D01*
X62330Y72970D01*
X62324Y72963D01*
X62317Y72952D01*
X62304Y72935D01*
X62289Y72918D01*
X62269Y72898D01*
X62246Y72878D01*
X62220Y72859D01*
X62222D01*
X62224Y72857D01*
X62235Y72854D01*
X62250Y72848D01*
X62270Y72839D01*
X62293Y72824D01*
X62315Y72807D01*
X62337Y72785D01*
X62359Y72757D01*
X62361Y72754D01*
X62369Y72743D01*
X62378Y72726D01*
X62387Y72704D01*
X62398Y72676D01*
X62406Y72643D01*
X62413Y72604D01*
X62415Y72561D01*
Y72559D01*
Y72554D01*
Y72544D01*
X62413Y72533D01*
X62411Y72518D01*
X62409Y72502D01*
X62406Y72483D01*
X62402Y72461D01*
X62389Y72417D01*
X62370Y72370D01*
X62359Y72346D01*
X62346Y72322D01*
X62330Y72300D01*
X62311Y72278D01*
X62309Y72276D01*
X62307Y72272D01*
X62300Y72267D01*
X62293Y72261D01*
X62283Y72252D01*
X62272Y72243D01*
X62243Y72222D01*
X62207Y72202D01*
X62167Y72183D01*
X62143Y72178D01*
X62119Y72172D01*
X62094Y72169D01*
X62069Y72167D01*
X62056D01*
X62046Y72169D01*
X62035Y72170D01*
X62020Y72172D01*
X61989Y72178D01*
X61954Y72189D01*
X61915Y72207D01*
X61895Y72217D01*
X61876Y72230D01*
X61857Y72244D01*
X61839Y72261D01*
X61837Y72263D01*
X61835Y72265D01*
X61830Y72270D01*
X61824Y72278D01*
X61817Y72289D01*
X61809Y72300D01*
X61800Y72313D01*
X61791Y72330D01*
X61782Y72346D01*
X61772Y72367D01*
X61763Y72387D01*
X61754Y72411D01*
X61741Y72461D01*
X61732Y72520D01*
X61922Y72548D01*
Y72546D01*
Y72544D01*
X61924Y72533D01*
X61926Y72518D01*
X61932Y72498D01*
X61937Y72476D01*
X61946Y72454D01*
X61957Y72431D01*
X61970Y72413D01*
X61972Y72411D01*
X61978Y72406D01*
X61987Y72398D01*
X61998Y72391D01*
X62011Y72381D01*
X62028Y72374D01*
X62046Y72368D01*
X62067Y72367D01*
X62078D01*
X62089Y72370D01*
X62102Y72374D01*
X62119Y72380D01*
X62137Y72389D01*
X62154Y72402D01*
X62170Y72420D01*
X62172Y72422D01*
X62178Y72431D01*
X62183Y72443D01*
X62193Y72461D01*
X62200Y72481D01*
X62206Y72509D01*
X62211Y72539D01*
X62213Y72574D01*
Y72576D01*
Y72578D01*
Y72589D01*
X62211Y72605D01*
X62207Y72626D01*
X62204Y72648D01*
X62196Y72672D01*
X62185Y72696D01*
X62172Y72717D01*
X62170Y72718D01*
X62165Y72726D01*
X62156Y72733D01*
X62144Y72744D01*
X62130Y72754D01*
X62113Y72763D01*
X62094Y72768D01*
X62074Y72770D01*
X62059D01*
X62050Y72768D01*
X62037Y72767D01*
X62020Y72763D01*
X62004Y72757D01*
X61985Y72752D01*
X62006Y72948D01*
X62019D01*
X62033Y72950D01*
X62050Y72952D01*
X62070Y72957D01*
X62091Y72963D01*
X62109Y72974D01*
X62128Y72987D01*
X62130Y72989D01*
X62135Y72994D01*
X62143Y73005D01*
X62150Y73018D01*
X62157Y73035D01*
X62165Y73055D01*
X62170Y73080D01*
X62172Y73107D01*
Y73111D01*
Y73118D01*
X62170Y73130D01*
X62169Y73144D01*
X62165Y73159D01*
X62157Y73176D01*
X62150Y73192D01*
X62139Y73207D01*
X62137Y73209D01*
X62133Y73213D01*
X62126Y73218D01*
X62117Y73226D01*
X62106Y73233D01*
X62091Y73239D01*
X62074Y73242D01*
X62056Y73244D01*
X62048D01*
X62037Y73242D01*
X62026Y73239D01*
X62013Y73233D01*
X61998Y73226D01*
X61983Y73217D01*
X61969Y73202D01*
X61967Y73200D01*
X61963Y73194D01*
X61957Y73183D01*
X61950Y73170D01*
X61943Y73154D01*
X61935Y73131D01*
X61930Y73107D01*
X61926Y73078D01*
X61745Y73115D01*
Y73117D01*
X61746Y73122D01*
X61748Y73131D01*
X61750Y73142D01*
X61754Y73157D01*
X61757Y73172D01*
X61769Y73209D01*
X61783Y73250D01*
X61802Y73291D01*
X61826Y73329D01*
X61839Y73348D01*
X61854Y73363D01*
X61856Y73365D01*
X61857Y73367D01*
X61869Y73376D01*
X61887Y73389D01*
X61911Y73404D01*
X61941Y73417D01*
X61978Y73429D01*
X62019Y73439D01*
X62041Y73442D01*
X62076D01*
X62087Y73441D01*
D02*
G37*
G36*
X61289Y73441D02*
X61300Y73439D01*
X61313Y73437D01*
X61346Y73429D01*
X61382Y73418D01*
X61419Y73400D01*
X61437Y73389D01*
X61456Y73376D01*
X61472Y73361D01*
X61489Y73342D01*
X61491Y73341D01*
X61493Y73339D01*
X61496Y73333D01*
X61502Y73326D01*
X61507Y73317D01*
X61515Y73305D01*
X61532Y73278D01*
X61546Y73244D01*
X61559Y73207D01*
X61569Y73167D01*
X61572Y73144D01*
Y73122D01*
Y73118D01*
Y73109D01*
X61570Y73092D01*
X61567Y73074D01*
X61563Y73050D01*
X61556Y73026D01*
X61546Y73000D01*
X61533Y72974D01*
X61532Y72970D01*
X61526Y72963D01*
X61519Y72952D01*
X61506Y72935D01*
X61491Y72918D01*
X61470Y72898D01*
X61448Y72878D01*
X61422Y72859D01*
X61424D01*
X61426Y72857D01*
X61437Y72854D01*
X61452Y72848D01*
X61472Y72839D01*
X61495Y72824D01*
X61517Y72807D01*
X61539Y72785D01*
X61561Y72757D01*
X61563Y72754D01*
X61570Y72743D01*
X61580Y72726D01*
X61589Y72704D01*
X61600Y72676D01*
X61607Y72643D01*
X61615Y72604D01*
X61617Y72561D01*
Y72559D01*
Y72554D01*
Y72544D01*
X61615Y72533D01*
X61613Y72518D01*
X61611Y72502D01*
X61607Y72483D01*
X61604Y72461D01*
X61591Y72417D01*
X61572Y72370D01*
X61561Y72346D01*
X61548Y72322D01*
X61532Y72300D01*
X61513Y72278D01*
X61511Y72276D01*
X61509Y72272D01*
X61502Y72267D01*
X61495Y72261D01*
X61485Y72252D01*
X61474Y72243D01*
X61445Y72222D01*
X61409Y72202D01*
X61369Y72183D01*
X61345Y72178D01*
X61320Y72172D01*
X61296Y72169D01*
X61270Y72167D01*
X61258D01*
X61248Y72169D01*
X61237Y72170D01*
X61222Y72172D01*
X61191Y72178D01*
X61156Y72189D01*
X61117Y72207D01*
X61096Y72217D01*
X61078Y72230D01*
X61059Y72244D01*
X61041Y72261D01*
X61039Y72263D01*
X61037Y72265D01*
X61032Y72270D01*
X61026Y72278D01*
X61019Y72289D01*
X61011Y72300D01*
X61002Y72313D01*
X60993Y72330D01*
X60983Y72346D01*
X60974Y72367D01*
X60965Y72387D01*
X60956Y72411D01*
X60943Y72461D01*
X60933Y72520D01*
X61124Y72548D01*
Y72546D01*
Y72544D01*
X61126Y72533D01*
X61128Y72518D01*
X61133Y72498D01*
X61139Y72476D01*
X61148Y72454D01*
X61159Y72431D01*
X61172Y72413D01*
X61174Y72411D01*
X61180Y72406D01*
X61189Y72398D01*
X61200Y72391D01*
X61213Y72381D01*
X61230Y72374D01*
X61248Y72368D01*
X61269Y72367D01*
X61280D01*
X61291Y72370D01*
X61304Y72374D01*
X61320Y72380D01*
X61339Y72389D01*
X61356Y72402D01*
X61372Y72420D01*
X61374Y72422D01*
X61380Y72431D01*
X61385Y72443D01*
X61395Y72461D01*
X61402Y72481D01*
X61408Y72509D01*
X61413Y72539D01*
X61415Y72574D01*
Y72576D01*
Y72578D01*
Y72589D01*
X61413Y72605D01*
X61409Y72626D01*
X61406Y72648D01*
X61398Y72672D01*
X61387Y72696D01*
X61374Y72717D01*
X61372Y72718D01*
X61367Y72726D01*
X61358Y72733D01*
X61346Y72744D01*
X61332Y72754D01*
X61315Y72763D01*
X61296Y72768D01*
X61276Y72770D01*
X61261D01*
X61252Y72768D01*
X61239Y72767D01*
X61222Y72763D01*
X61206Y72757D01*
X61187Y72752D01*
X61208Y72948D01*
X61220D01*
X61235Y72950D01*
X61252Y72952D01*
X61272Y72957D01*
X61293Y72963D01*
X61311Y72974D01*
X61330Y72987D01*
X61332Y72989D01*
X61337Y72994D01*
X61345Y73005D01*
X61352Y73018D01*
X61359Y73035D01*
X61367Y73055D01*
X61372Y73080D01*
X61374Y73107D01*
Y73111D01*
Y73118D01*
X61372Y73130D01*
X61370Y73144D01*
X61367Y73159D01*
X61359Y73176D01*
X61352Y73192D01*
X61341Y73207D01*
X61339Y73209D01*
X61335Y73213D01*
X61328Y73218D01*
X61319Y73226D01*
X61308Y73233D01*
X61293Y73239D01*
X61276Y73242D01*
X61258Y73244D01*
X61250D01*
X61239Y73242D01*
X61228Y73239D01*
X61215Y73233D01*
X61200Y73226D01*
X61185Y73217D01*
X61171Y73202D01*
X61169Y73200D01*
X61165Y73194D01*
X61159Y73183D01*
X61152Y73170D01*
X61145Y73154D01*
X61137Y73131D01*
X61132Y73107D01*
X61128Y73078D01*
X60946Y73115D01*
Y73117D01*
X60948Y73122D01*
X60950Y73131D01*
X60952Y73142D01*
X60956Y73157D01*
X60959Y73172D01*
X60971Y73209D01*
X60985Y73250D01*
X61004Y73291D01*
X61028Y73329D01*
X61041Y73348D01*
X61056Y73363D01*
X61058Y73365D01*
X61059Y73367D01*
X61071Y73376D01*
X61089Y73389D01*
X61113Y73404D01*
X61143Y73417D01*
X61180Y73429D01*
X61220Y73439D01*
X61243Y73442D01*
X61278D01*
X61289Y73441D01*
D02*
G37*
G36*
X60491D02*
X60502Y73439D01*
X60515Y73437D01*
X60548Y73429D01*
X60584Y73418D01*
X60621Y73400D01*
X60639Y73389D01*
X60658Y73376D01*
X60674Y73361D01*
X60691Y73342D01*
X60693Y73341D01*
X60695Y73339D01*
X60698Y73333D01*
X60704Y73326D01*
X60709Y73317D01*
X60717Y73305D01*
X60734Y73278D01*
X60748Y73244D01*
X60761Y73207D01*
X60771Y73167D01*
X60774Y73144D01*
Y73122D01*
Y73118D01*
Y73109D01*
X60772Y73092D01*
X60769Y73074D01*
X60765Y73050D01*
X60758Y73026D01*
X60748Y73000D01*
X60735Y72974D01*
X60734Y72970D01*
X60728Y72963D01*
X60721Y72952D01*
X60708Y72935D01*
X60693Y72918D01*
X60672Y72898D01*
X60650Y72878D01*
X60624Y72859D01*
X60626D01*
X60628Y72857D01*
X60639Y72854D01*
X60654Y72848D01*
X60674Y72839D01*
X60696Y72824D01*
X60719Y72807D01*
X60741Y72785D01*
X60763Y72757D01*
X60765Y72754D01*
X60772Y72743D01*
X60782Y72726D01*
X60791Y72704D01*
X60802Y72676D01*
X60809Y72643D01*
X60817Y72604D01*
X60819Y72561D01*
Y72559D01*
Y72554D01*
Y72544D01*
X60817Y72533D01*
X60815Y72518D01*
X60813Y72502D01*
X60809Y72483D01*
X60806Y72461D01*
X60793Y72417D01*
X60774Y72370D01*
X60763Y72346D01*
X60750Y72322D01*
X60734Y72300D01*
X60715Y72278D01*
X60713Y72276D01*
X60711Y72272D01*
X60704Y72267D01*
X60696Y72261D01*
X60687Y72252D01*
X60676Y72243D01*
X60646Y72222D01*
X60611Y72202D01*
X60571Y72183D01*
X60546Y72178D01*
X60522Y72172D01*
X60498Y72169D01*
X60472Y72167D01*
X60459D01*
X60450Y72169D01*
X60439Y72170D01*
X60424Y72172D01*
X60393Y72178D01*
X60358Y72189D01*
X60319Y72207D01*
X60298Y72217D01*
X60280Y72230D01*
X60261Y72244D01*
X60243Y72261D01*
X60241Y72263D01*
X60239Y72265D01*
X60234Y72270D01*
X60228Y72278D01*
X60221Y72289D01*
X60213Y72300D01*
X60204Y72313D01*
X60195Y72330D01*
X60185Y72346D01*
X60176Y72367D01*
X60167Y72387D01*
X60158Y72411D01*
X60145Y72461D01*
X60135Y72520D01*
X60326Y72548D01*
Y72546D01*
Y72544D01*
X60328Y72533D01*
X60330Y72518D01*
X60335Y72498D01*
X60341Y72476D01*
X60350Y72454D01*
X60361Y72431D01*
X60374Y72413D01*
X60376Y72411D01*
X60382Y72406D01*
X60391Y72398D01*
X60402Y72391D01*
X60415Y72381D01*
X60432Y72374D01*
X60450Y72368D01*
X60471Y72367D01*
X60482D01*
X60493Y72370D01*
X60506Y72374D01*
X60522Y72380D01*
X60541Y72389D01*
X60558Y72402D01*
X60574Y72420D01*
X60576Y72422D01*
X60582Y72431D01*
X60587Y72443D01*
X60596Y72461D01*
X60604Y72481D01*
X60609Y72509D01*
X60615Y72539D01*
X60617Y72574D01*
Y72576D01*
Y72578D01*
Y72589D01*
X60615Y72605D01*
X60611Y72626D01*
X60608Y72648D01*
X60600Y72672D01*
X60589Y72696D01*
X60576Y72717D01*
X60574Y72718D01*
X60569Y72726D01*
X60559Y72733D01*
X60548Y72744D01*
X60534Y72754D01*
X60517Y72763D01*
X60498Y72768D01*
X60478Y72770D01*
X60463D01*
X60454Y72768D01*
X60441Y72767D01*
X60424Y72763D01*
X60408Y72757D01*
X60389Y72752D01*
X60409Y72948D01*
X60422D01*
X60437Y72950D01*
X60454Y72952D01*
X60474Y72957D01*
X60495Y72963D01*
X60513Y72974D01*
X60532Y72987D01*
X60534Y72989D01*
X60539Y72994D01*
X60546Y73005D01*
X60554Y73018D01*
X60561Y73035D01*
X60569Y73055D01*
X60574Y73080D01*
X60576Y73107D01*
Y73111D01*
Y73118D01*
X60574Y73130D01*
X60572Y73144D01*
X60569Y73159D01*
X60561Y73176D01*
X60554Y73192D01*
X60543Y73207D01*
X60541Y73209D01*
X60537Y73213D01*
X60530Y73218D01*
X60521Y73226D01*
X60509Y73233D01*
X60495Y73239D01*
X60478Y73242D01*
X60459Y73244D01*
X60452D01*
X60441Y73242D01*
X60430Y73239D01*
X60417Y73233D01*
X60402Y73226D01*
X60387Y73217D01*
X60372Y73202D01*
X60371Y73200D01*
X60367Y73194D01*
X60361Y73183D01*
X60354Y73170D01*
X60347Y73154D01*
X60339Y73131D01*
X60334Y73107D01*
X60330Y73078D01*
X60148Y73115D01*
Y73117D01*
X60150Y73122D01*
X60152Y73131D01*
X60154Y73142D01*
X60158Y73157D01*
X60161Y73172D01*
X60172Y73209D01*
X60187Y73250D01*
X60206Y73291D01*
X60230Y73329D01*
X60243Y73348D01*
X60258Y73363D01*
X60259Y73365D01*
X60261Y73367D01*
X60272Y73376D01*
X60291Y73389D01*
X60315Y73404D01*
X60345Y73417D01*
X60382Y73429D01*
X60422Y73439D01*
X60445Y73442D01*
X60480D01*
X60491Y73441D01*
D02*
G37*
G36*
X63981Y73198D02*
X63611D01*
X63578Y72983D01*
X63581Y72985D01*
X63589Y72991D01*
X63602Y72996D01*
X63620Y73005D01*
X63641Y73013D01*
X63663Y73018D01*
X63687Y73024D01*
X63713Y73026D01*
X63724D01*
X63733Y73024D01*
X63744Y73022D01*
X63755Y73020D01*
X63785Y73015D01*
X63817Y73002D01*
X63852Y72985D01*
X63870Y72974D01*
X63887Y72961D01*
X63904Y72946D01*
X63920Y72930D01*
X63922Y72928D01*
X63926Y72924D01*
X63929Y72917D01*
X63937Y72907D01*
X63944Y72894D01*
X63954Y72880D01*
X63965Y72863D01*
X63974Y72844D01*
X63983Y72822D01*
X63994Y72798D01*
X64004Y72770D01*
X64011Y72743D01*
X64018Y72711D01*
X64024Y72680D01*
X64026Y72644D01*
X64028Y72607D01*
Y72605D01*
Y72600D01*
Y72591D01*
X64026Y72580D01*
Y72565D01*
X64022Y72548D01*
X64020Y72530D01*
X64017Y72507D01*
X64005Y72461D01*
X63989Y72409D01*
X63978Y72383D01*
X63967Y72357D01*
X63952Y72330D01*
X63935Y72304D01*
X63933Y72302D01*
X63931Y72298D01*
X63926Y72291D01*
X63918Y72281D01*
X63909Y72272D01*
X63898Y72261D01*
X63883Y72248D01*
X63868Y72235D01*
X63852Y72222D01*
X63831Y72209D01*
X63811Y72198D01*
X63787Y72189D01*
X63763Y72180D01*
X63735Y72172D01*
X63707Y72169D01*
X63676Y72167D01*
X63663D01*
X63654Y72169D01*
X63642D01*
X63628Y72172D01*
X63596Y72178D01*
X63561Y72189D01*
X63522Y72204D01*
X63485Y72226D01*
X63467Y72241D01*
X63448Y72256D01*
X63446Y72257D01*
X63444Y72259D01*
X63439Y72265D01*
X63433Y72272D01*
X63426Y72281D01*
X63418Y72293D01*
X63409Y72306D01*
X63400Y72320D01*
X63391Y72337D01*
X63381Y72357D01*
X63372Y72378D01*
X63363Y72400D01*
X63355Y72424D01*
X63348Y72452D01*
X63339Y72509D01*
X63535Y72535D01*
Y72531D01*
X63537Y72522D01*
X63541Y72506D01*
X63544Y72487D01*
X63550Y72467D01*
X63559Y72446D01*
X63570Y72424D01*
X63585Y72406D01*
X63587Y72404D01*
X63592Y72398D01*
X63602Y72391D01*
X63613Y72383D01*
X63626Y72374D01*
X63642Y72367D01*
X63659Y72361D01*
X63678Y72359D01*
X63680D01*
X63689Y72361D01*
X63700Y72363D01*
X63713Y72367D01*
X63729Y72374D01*
X63748Y72385D01*
X63765Y72398D01*
X63781Y72418D01*
X63783Y72422D01*
X63789Y72430D01*
X63796Y72444D01*
X63804Y72463D01*
X63811Y72489D01*
X63818Y72520D01*
X63824Y72559D01*
X63826Y72602D01*
Y72604D01*
Y72607D01*
Y72613D01*
Y72622D01*
X63824Y72643D01*
X63820Y72668D01*
X63815Y72696D01*
X63807Y72726D01*
X63796Y72752D01*
X63781Y72776D01*
X63779Y72778D01*
X63774Y72785D01*
X63765Y72794D01*
X63752Y72805D01*
X63737Y72815D01*
X63717Y72824D01*
X63696Y72831D01*
X63672Y72833D01*
X63668D01*
X63657Y72831D01*
X63642Y72828D01*
X63622Y72822D01*
X63598Y72811D01*
X63572Y72794D01*
X63559Y72785D01*
X63546Y72772D01*
X63533Y72759D01*
X63520Y72743D01*
X63361Y72770D01*
X63461Y73422D01*
X63981D01*
Y73198D01*
D02*
G37*
G36*
X68396Y73246D02*
Y73244D01*
X68392Y73242D01*
X68388Y73235D01*
X68381Y73228D01*
X68373Y73217D01*
X68364Y73205D01*
X68355Y73191D01*
X68344Y73174D01*
X68331Y73154D01*
X68318Y73133D01*
X68305Y73109D01*
X68290Y73085D01*
X68275Y73057D01*
X68259Y73028D01*
X68244Y72996D01*
X68227Y72963D01*
Y72961D01*
X68223Y72955D01*
X68220Y72944D01*
X68212Y72931D01*
X68207Y72915D01*
X68198Y72894D01*
X68188Y72870D01*
X68179Y72844D01*
X68168Y72817D01*
X68157Y72787D01*
X68148Y72754D01*
X68136Y72718D01*
X68114Y72646D01*
X68096Y72568D01*
Y72567D01*
X68094Y72559D01*
X68092Y72548D01*
X68088Y72533D01*
X68085Y72515D01*
X68081Y72493D01*
X68077Y72468D01*
X68073Y72443D01*
X68068Y72413D01*
X68064Y72383D01*
X68057Y72318D01*
X68051Y72252D01*
X68049Y72187D01*
X67861D01*
Y72191D01*
Y72198D01*
X67862Y72213D01*
Y72233D01*
X67864Y72257D01*
X67866Y72285D01*
X67870Y72318D01*
X67874Y72354D01*
X67879Y72393D01*
X67885Y72433D01*
X67892Y72478D01*
X67899Y72524D01*
X67920Y72620D01*
X67948Y72718D01*
X67949Y72722D01*
X67951Y72730D01*
X67957Y72744D01*
X67962Y72763D01*
X67972Y72787D01*
X67981Y72815D01*
X67994Y72844D01*
X68007Y72880D01*
X68022Y72915D01*
X68038Y72954D01*
X68077Y73033D01*
X68120Y73118D01*
X68170Y73200D01*
X67724D01*
Y73422D01*
X68396D01*
Y73246D01*
D02*
G37*
G36*
X67288Y73441D02*
X67303Y73439D01*
X67318Y73437D01*
X67355Y73429D01*
X67394Y73417D01*
X67414Y73409D01*
X67435Y73398D01*
X67455Y73385D01*
X67474Y73372D01*
X67490Y73355D01*
X67507Y73337D01*
X67509Y73335D01*
X67511Y73331D01*
X67514Y73326D01*
X67520Y73318D01*
X67525Y73309D01*
X67533Y73296D01*
X67549Y73267D01*
X67564Y73231D01*
X67577Y73191D01*
X67587Y73146D01*
X67590Y73122D01*
Y73096D01*
Y73092D01*
Y73083D01*
X67588Y73068D01*
Y73048D01*
X67585Y73026D01*
X67581Y73000D01*
X67575Y72974D01*
X67568Y72946D01*
Y72942D01*
X67564Y72933D01*
X67559Y72920D01*
X67553Y72902D01*
X67544Y72880D01*
X67533Y72855D01*
X67518Y72830D01*
X67503Y72802D01*
X67501Y72798D01*
X67496Y72789D01*
X67485Y72772D01*
X67470Y72752D01*
X67449Y72724D01*
X67424Y72693D01*
X67394Y72655D01*
X67359Y72615D01*
X67357Y72613D01*
X67355Y72611D01*
X67349Y72605D01*
X67344Y72598D01*
X67327Y72580D01*
X67309Y72557D01*
X67288Y72533D01*
X67268Y72511D01*
X67251Y72491D01*
X67238Y72474D01*
X67237Y72472D01*
X67235Y72468D01*
X67229Y72461D01*
X67224Y72454D01*
X67211Y72433D01*
X67198Y72409D01*
X67590D01*
Y72187D01*
X66900D01*
Y72189D01*
Y72193D01*
X66901Y72200D01*
Y72209D01*
X66903Y72220D01*
X66907Y72233D01*
X66912Y72265D01*
X66920Y72300D01*
X66933Y72341D01*
X66948Y72383D01*
X66966Y72426D01*
Y72428D01*
X66970Y72431D01*
X66972Y72437D01*
X66977Y72446D01*
X66985Y72457D01*
X66992Y72472D01*
X67003Y72487D01*
X67016Y72506D01*
X67029Y72526D01*
X67046Y72548D01*
X67062Y72572D01*
X67083Y72600D01*
X67105Y72628D01*
X67131Y72657D01*
X67157Y72691D01*
X67187Y72724D01*
X67188Y72726D01*
X67192Y72731D01*
X67200Y72739D01*
X67207Y72748D01*
X67218Y72759D01*
X67229Y72774D01*
X67255Y72805D01*
X67283Y72839D01*
X67309Y72870D01*
X67331Y72900D01*
X67340Y72913D01*
X67348Y72924D01*
X67349Y72928D01*
X67355Y72937D01*
X67362Y72952D01*
X67370Y72972D01*
X67377Y72994D01*
X67385Y73020D01*
X67390Y73048D01*
X67392Y73076D01*
Y73078D01*
Y73080D01*
Y73089D01*
X67390Y73104D01*
X67388Y73122D01*
X67383Y73142D01*
X67377Y73163D01*
X67368Y73183D01*
X67355Y73200D01*
X67353Y73202D01*
X67348Y73207D01*
X67340Y73213D01*
X67329Y73222D01*
X67316Y73230D01*
X67299Y73235D01*
X67279Y73241D01*
X67259Y73242D01*
X67253D01*
X67246Y73241D01*
X67238Y73239D01*
X67216Y73231D01*
X67205Y73226D01*
X67192Y73218D01*
X67179Y73207D01*
X67166Y73194D01*
X67155Y73180D01*
X67144Y73159D01*
X67135Y73137D01*
X67127Y73111D01*
X67122Y73081D01*
X67118Y73046D01*
X66922Y73072D01*
Y73074D01*
X66924Y73081D01*
Y73091D01*
X66925Y73104D01*
X66929Y73118D01*
X66931Y73137D01*
X66937Y73157D01*
X66942Y73180D01*
X66955Y73224D01*
X66974Y73270D01*
X66998Y73315D01*
X67011Y73333D01*
X67027Y73352D01*
X67029Y73354D01*
X67031Y73355D01*
X67037Y73361D01*
X67044Y73367D01*
X67053Y73372D01*
X67062Y73381D01*
X67090Y73398D01*
X67124Y73415D01*
X67164Y73428D01*
X67211Y73439D01*
X67237Y73441D01*
X67262Y73442D01*
X67277D01*
X67288Y73441D01*
D02*
G37*
G36*
X65966Y72187D02*
X65770D01*
Y72428D01*
X65966D01*
Y72187D01*
D02*
G37*
G36*
X63043D02*
X62844D01*
Y73092D01*
X62843Y73091D01*
X62839Y73087D01*
X62833Y73081D01*
X62824Y73072D01*
X62815Y73063D01*
X62802Y73050D01*
X62787Y73037D01*
X62770Y73024D01*
X62733Y72994D01*
X62691Y72963D01*
X62641Y72935D01*
X62589Y72911D01*
Y73130D01*
X62591D01*
X62593Y73131D01*
X62604Y73135D01*
X62618Y73144D01*
X62641Y73155D01*
X62667Y73172D01*
X62694Y73192D01*
X62726Y73217D01*
X62759Y73246D01*
X62761Y73248D01*
X62763Y73250D01*
X62774Y73261D01*
X62789Y73280D01*
X62807Y73304D01*
X62828Y73331D01*
X62848Y73365D01*
X62867Y73402D01*
X62881Y73442D01*
X63043D01*
Y72187D01*
D02*
G37*
G36*
X58684Y72187D02*
X58476D01*
Y73228D01*
X58071D01*
Y72187D01*
X57863D01*
Y73439D01*
X58684D01*
Y72187D01*
D02*
G37*
G36*
X57604Y73228D02*
X57043D01*
Y72941D01*
X57352D01*
X57363Y72939D01*
X57376Y72937D01*
X57393Y72935D01*
X57430Y72928D01*
X57473Y72915D01*
X57515Y72896D01*
X57538Y72885D01*
X57558Y72872D01*
X57578Y72855D01*
X57597Y72837D01*
X57599Y72835D01*
X57600Y72831D01*
X57606Y72826D01*
X57612Y72818D01*
X57619Y72807D01*
X57626Y72794D01*
X57636Y72780D01*
X57645Y72763D01*
X57654Y72744D01*
X57663Y72724D01*
X57671Y72702D01*
X57678Y72678D01*
X57689Y72622D01*
X57691Y72593D01*
X57693Y72561D01*
Y72559D01*
Y72554D01*
Y72546D01*
X57691Y72537D01*
Y72524D01*
X57689Y72509D01*
X57686Y72491D01*
X57684Y72472D01*
X57673Y72431D01*
X57658Y72389D01*
X57639Y72344D01*
X57626Y72322D01*
X57612Y72300D01*
Y72298D01*
X57608Y72294D01*
X57602Y72289D01*
X57597Y72283D01*
X57588Y72274D01*
X57576Y72265D01*
X57562Y72254D01*
X57547Y72244D01*
X57528Y72233D01*
X57508Y72222D01*
X57486Y72213D01*
X57462Y72206D01*
X57434Y72198D01*
X57404Y72193D01*
X57371Y72189D01*
X57336Y72187D01*
X56836D01*
Y73439D01*
X57604D01*
Y73228D01*
D02*
G37*
G36*
X56617Y72187D02*
X56410D01*
Y73228D01*
X56004D01*
Y72187D01*
X55797D01*
Y73439D01*
X56617D01*
Y72187D01*
D02*
G37*
G36*
X66483Y73441D02*
X66496Y73439D01*
X66511Y73435D01*
X66546Y73424D01*
X66564Y73417D01*
X66585Y73407D01*
X66603Y73396D01*
X66624Y73383D01*
X66644Y73367D01*
X66664Y73346D01*
X66683Y73326D01*
X66701Y73300D01*
X66703Y73298D01*
X66705Y73292D01*
X66711Y73285D01*
X66716Y73272D01*
X66724Y73255D01*
X66731Y73237D01*
X66738Y73213D01*
X66748Y73185D01*
X66757Y73152D01*
X66764Y73117D01*
X66772Y73076D01*
X66779Y73030D01*
X66785Y72981D01*
X66790Y72926D01*
X66792Y72868D01*
X66794Y72804D01*
Y72802D01*
Y72800D01*
Y72794D01*
Y72789D01*
Y72770D01*
X66792Y72746D01*
Y72717D01*
X66788Y72685D01*
X66787Y72648D01*
X66783Y72609D01*
X66772Y72528D01*
X66755Y72444D01*
X66744Y72406D01*
X66733Y72370D01*
X66718Y72337D01*
X66701Y72307D01*
X66700Y72306D01*
X66698Y72302D01*
X66692Y72294D01*
X66685Y72285D01*
X66675Y72274D01*
X66664Y72263D01*
X66637Y72237D01*
X66601Y72211D01*
X66561Y72189D01*
X66538Y72180D01*
X66514Y72172D01*
X66488Y72169D01*
X66461Y72167D01*
X66453D01*
X66446Y72169D01*
X66437D01*
X66424Y72170D01*
X66409Y72174D01*
X66374Y72183D01*
X66355Y72191D01*
X66335Y72200D01*
X66316Y72211D01*
X66296Y72226D01*
X66276Y72241D01*
X66255Y72259D01*
X66237Y72281D01*
X66218Y72306D01*
X66216Y72307D01*
X66214Y72313D01*
X66211Y72320D01*
X66203Y72333D01*
X66198Y72350D01*
X66190Y72368D01*
X66181Y72393D01*
X66174Y72420D01*
X66164Y72454D01*
X66157Y72489D01*
X66148Y72530D01*
X66142Y72576D01*
X66137Y72626D01*
X66131Y72681D01*
X66129Y72741D01*
X66127Y72805D01*
Y72807D01*
Y72809D01*
Y72815D01*
Y72820D01*
Y72839D01*
X66129Y72863D01*
X66131Y72891D01*
X66133Y72924D01*
X66135Y72961D01*
X66138Y73000D01*
X66150Y73081D01*
X66166Y73163D01*
X66176Y73202D01*
X66188Y73237D01*
X66201Y73270D01*
X66218Y73300D01*
X66220Y73302D01*
X66222Y73305D01*
X66227Y73313D01*
X66235Y73322D01*
X66244Y73333D01*
X66255Y73344D01*
X66283Y73372D01*
X66318Y73398D01*
X66359Y73420D01*
X66381Y73429D01*
X66405Y73437D01*
X66431Y73441D01*
X66459Y73442D01*
X66474D01*
X66483Y73441D01*
D02*
G37*
G36*
X64489D02*
X64502Y73439D01*
X64516Y73435D01*
X64552Y73424D01*
X64570Y73417D01*
X64591Y73407D01*
X64609Y73396D01*
X64629Y73383D01*
X64650Y73367D01*
X64670Y73346D01*
X64689Y73326D01*
X64707Y73300D01*
X64709Y73298D01*
X64711Y73292D01*
X64716Y73285D01*
X64722Y73272D01*
X64729Y73255D01*
X64737Y73237D01*
X64744Y73213D01*
X64753Y73185D01*
X64763Y73152D01*
X64770Y73117D01*
X64778Y73076D01*
X64785Y73030D01*
X64790Y72981D01*
X64796Y72926D01*
X64798Y72868D01*
X64800Y72804D01*
Y72802D01*
Y72800D01*
Y72794D01*
Y72789D01*
Y72770D01*
X64798Y72746D01*
Y72717D01*
X64794Y72685D01*
X64792Y72648D01*
X64789Y72609D01*
X64778Y72528D01*
X64761Y72444D01*
X64750Y72406D01*
X64739Y72370D01*
X64724Y72337D01*
X64707Y72307D01*
X64705Y72306D01*
X64703Y72302D01*
X64698Y72294D01*
X64691Y72285D01*
X64681Y72274D01*
X64670Y72263D01*
X64642Y72237D01*
X64607Y72211D01*
X64566Y72189D01*
X64544Y72180D01*
X64520Y72172D01*
X64494Y72169D01*
X64466Y72167D01*
X64459D01*
X64452Y72169D01*
X64442D01*
X64429Y72170D01*
X64415Y72174D01*
X64379Y72183D01*
X64361Y72191D01*
X64341Y72200D01*
X64322Y72211D01*
X64302Y72226D01*
X64281Y72241D01*
X64261Y72259D01*
X64242Y72281D01*
X64224Y72306D01*
X64222Y72307D01*
X64220Y72313D01*
X64216Y72320D01*
X64209Y72333D01*
X64204Y72350D01*
X64196Y72368D01*
X64187Y72393D01*
X64179Y72420D01*
X64170Y72454D01*
X64163Y72489D01*
X64154Y72530D01*
X64148Y72576D01*
X64142Y72626D01*
X64137Y72681D01*
X64135Y72741D01*
X64133Y72805D01*
Y72807D01*
Y72809D01*
Y72815D01*
Y72820D01*
Y72839D01*
X64135Y72863D01*
X64137Y72891D01*
X64139Y72924D01*
X64141Y72961D01*
X64144Y73000D01*
X64155Y73081D01*
X64172Y73163D01*
X64181Y73202D01*
X64194Y73237D01*
X64207Y73270D01*
X64224Y73300D01*
X64226Y73302D01*
X64228Y73305D01*
X64233Y73313D01*
X64241Y73322D01*
X64250Y73333D01*
X64261Y73344D01*
X64289Y73372D01*
X64324Y73398D01*
X64365Y73420D01*
X64387Y73429D01*
X64411Y73437D01*
X64437Y73441D01*
X64465Y73442D01*
X64479D01*
X64489Y73441D01*
D02*
G37*
%LPC*%
G36*
X71170Y75075D02*
X70831D01*
D01*
X71170D01*
D02*
G37*
G36*
X74148D02*
X73879D01*
X73868Y75071D01*
X73853Y75064D01*
X73842Y75056D01*
X73840Y75054D01*
X73838Y75052D01*
X73827Y75036D01*
X73822Y75023D01*
X73820Y75012D01*
Y75010D01*
Y75008D01*
Y74701D01*
X73800D01*
X73787Y74699D01*
X73774Y74697D01*
X73764Y74693D01*
X73757Y74688D01*
X73748Y74678D01*
X73744Y74677D01*
Y74675D01*
X73735Y74658D01*
X73731Y74647D01*
X73729Y74638D01*
Y75075D01*
Y73734D01*
Y74636D01*
X73731Y74619D01*
X73738Y74604D01*
X73744Y74595D01*
X73746Y74593D01*
Y74591D01*
X73753Y74584D01*
X73763Y74580D01*
X73781Y74573D01*
X73788D01*
X73794Y74571D01*
X73820D01*
Y73799D01*
X73822Y73788D01*
X73824Y73779D01*
X73833Y73762D01*
X73840Y73753D01*
X73842Y73749D01*
X73844D01*
X73864Y73740D01*
X73879Y73736D01*
X73888Y73734D01*
X73729D01*
X73890D01*
X73911Y73738D01*
X73927Y73743D01*
X73937Y73749D01*
X73940Y73753D01*
X73948Y73760D01*
X73951Y73767D01*
X73959Y73782D01*
X73961Y73793D01*
Y73797D01*
Y73799D01*
Y74571D01*
X74077D01*
X74090Y74573D01*
X74100Y74575D01*
X74116Y74582D01*
X74125Y74588D01*
X74129Y74591D01*
X74140Y74608D01*
X74146Y74623D01*
X74148Y74632D01*
Y74645D01*
X74144Y74652D01*
X74137Y74667D01*
X74129Y74677D01*
X74127Y74680D01*
X74125D01*
X74118Y74688D01*
X74109Y74691D01*
X74094Y74699D01*
X74083Y74701D01*
X73961D01*
Y75008D01*
Y75019D01*
X73957Y75028D01*
X73950Y75043D01*
X73942Y75052D01*
X73940Y75056D01*
X73938D01*
X73922Y75067D01*
X73907Y75073D01*
X73894Y75075D01*
X74148D01*
D02*
G37*
G36*
X73303Y74701D02*
X72939D01*
X73163D01*
X73127Y74697D01*
X73094Y74690D01*
X73066Y74678D01*
X73042Y74667D01*
X73022Y74654D01*
X73009Y74643D01*
X73000Y74636D01*
X72996Y74632D01*
X72977Y74608D01*
X72963Y74582D01*
X72953Y74556D01*
X72946Y74532D01*
X72942Y74512D01*
X72940Y74495D01*
X72939Y74484D01*
Y73895D01*
Y74467D01*
X72940Y74454D01*
X72942Y74443D01*
Y74441D01*
Y74440D01*
X72957Y74393D01*
X72966Y74377D01*
X72976Y74362D01*
X72985Y74347D01*
X72996Y74336D01*
X73003Y74327D01*
X73011Y74319D01*
X73016Y74315D01*
X73018Y74314D01*
X73376Y74023D01*
X73387Y74010D01*
X73394Y73997D01*
X73401Y73986D01*
X73405Y73975D01*
X73407Y73966D01*
X73409Y73958D01*
Y73954D01*
Y73953D01*
X73407Y73940D01*
X73405Y73927D01*
X73398Y73908D01*
X73392Y73901D01*
X73388Y73895D01*
X73387Y73891D01*
X73385Y73890D01*
X73376Y73880D01*
X73366Y73875D01*
X73346Y73867D01*
X73338Y73866D01*
X73331Y73864D01*
X73198D01*
X73170Y73866D01*
X73157Y73869D01*
X73146Y73871D01*
X73137Y73875D01*
X73129Y73877D01*
X73126Y73878D01*
X73124D01*
X73109Y73888D01*
X73096Y73899D01*
X73087Y73906D01*
X73079Y73914D01*
X73074Y73919D01*
X73070Y73925D01*
X73066Y73927D01*
Y73928D01*
X73057Y73940D01*
X73050Y73947D01*
X73042Y73951D01*
X73040D01*
X73031Y73954D01*
X73020Y73958D01*
X73009D01*
X72998Y73956D01*
X72987Y73954D01*
X72970Y73947D01*
X72961Y73938D01*
X72957Y73936D01*
Y73934D01*
X72946Y73917D01*
X72940Y73904D01*
X72939Y73895D01*
Y73734D01*
Y73891D01*
X72942Y73873D01*
X72951Y73854D01*
X72970Y73832D01*
X72989Y73814D01*
X73007Y73799D01*
X73024Y73786D01*
X73039Y73777D01*
X73050Y73769D01*
X73059Y73766D01*
X73061Y73764D01*
X73085Y73754D01*
X73109Y73747D01*
X73131Y73741D01*
X73151Y73738D01*
X73170Y73736D01*
X73185Y73734D01*
X73550D01*
X73326D01*
X73361Y73738D01*
X73394Y73745D01*
X73422Y73756D01*
X73446Y73769D01*
X73464Y73780D01*
X73479Y73791D01*
X73487Y73799D01*
X73490Y73803D01*
X73511Y73827D01*
X73525Y73853D01*
X73535Y73878D01*
X73542Y73903D01*
X73546Y73923D01*
X73550Y73940D01*
Y73971D01*
X73546Y73988D01*
X73544Y74001D01*
X73540Y74016D01*
X73537Y74025D01*
X73533Y74034D01*
X73531Y74040D01*
X73529Y74041D01*
X73522Y74058D01*
X73513Y74075D01*
X73501Y74088D01*
X73492Y74099D01*
X73483Y74108D01*
X73476Y74116D01*
X73470Y74119D01*
X73468Y74121D01*
X73111Y74414D01*
X73100Y74425D01*
X73092Y74436D01*
X73085Y74447D01*
X73081Y74458D01*
X73079Y74467D01*
X73077Y74475D01*
Y74480D01*
Y74482D01*
X73079Y74495D01*
X73081Y74508D01*
X73090Y74528D01*
X73094Y74536D01*
X73098Y74541D01*
X73100Y74543D01*
X73101Y74545D01*
X73111Y74554D01*
X73122Y74560D01*
X73140Y74567D01*
X73150Y74569D01*
X73157Y74571D01*
X73303D01*
X73314Y74569D01*
X73322Y74567D01*
X73326D01*
X73366Y74552D01*
X73388Y74538D01*
X73407Y74523D01*
X73418Y74512D01*
X73420Y74508D01*
X73422Y74506D01*
X73433Y74495D01*
X73435Y74491D01*
X73437Y74490D01*
X73438Y74488D01*
X73442Y74484D01*
X73446Y74482D01*
X73448Y74480D01*
X73477Y74477D01*
X73488Y74478D01*
X73498Y74480D01*
X73514Y74488D01*
X73525Y74493D01*
X73527Y74497D01*
X73529D01*
X73537Y74506D01*
X73540Y74514D01*
X73548Y74528D01*
X73550Y74538D01*
Y74545D01*
Y74541D01*
X73546Y74562D01*
X73537Y74580D01*
X73520Y74601D01*
X73501Y74619D01*
X73483Y74634D01*
X73466Y74647D01*
X73450Y74656D01*
X73438Y74664D01*
X73431Y74667D01*
X73427Y74669D01*
X73403Y74680D01*
X73379Y74688D01*
X73357Y74693D01*
X73335Y74697D01*
X73316Y74699D01*
X73303Y74701D01*
D02*
G37*
G36*
X71961D02*
X71355D01*
D01*
X71565D01*
X71531Y74699D01*
X71502Y74691D01*
X71476Y74680D01*
X71453Y74669D01*
X71437Y74656D01*
X71424Y74647D01*
X71416Y74640D01*
X71413Y74636D01*
X71394Y74612D01*
X71379Y74588D01*
X71370Y74564D01*
X71363Y74543D01*
X71359Y74525D01*
X71357Y74510D01*
X71355Y74501D01*
Y73734D01*
Y73938D01*
X71357Y73906D01*
X71365Y73878D01*
X71374Y73854D01*
X71385Y73834D01*
X71396Y73817D01*
X71405Y73804D01*
X71413Y73795D01*
X71415Y73793D01*
X71439Y73773D01*
X71465Y73760D01*
X71489Y73749D01*
X71513Y73741D01*
X71533Y73738D01*
X71550Y73736D01*
X71561Y73734D01*
X71752D01*
X71783Y73736D01*
X71813Y73743D01*
X71837Y73753D01*
X71859Y73764D01*
X71876Y73775D01*
X71889Y73784D01*
X71898Y73791D01*
X71900Y73793D01*
X71920Y73817D01*
X71935Y73841D01*
X71946Y73866D01*
X71953Y73888D01*
X71957Y73908D01*
X71961Y73923D01*
Y73741D01*
Y74497D01*
X71959Y74528D01*
X71952Y74556D01*
X71942Y74580D01*
X71931Y74601D01*
X71918Y74617D01*
X71909Y74630D01*
X71902Y74640D01*
X71900Y74641D01*
X71876Y74662D01*
X71852Y74677D01*
X71826Y74686D01*
X71803Y74693D01*
X71783Y74697D01*
X71766Y74701D01*
X71961D01*
D02*
G37*
G36*
X72557D02*
X72355D01*
X72322Y74699D01*
X72292Y74691D01*
X72266Y74680D01*
X72244Y74669D01*
X72227Y74656D01*
X72215Y74647D01*
X72207Y74640D01*
X72203Y74636D01*
X72185Y74612D01*
X72170Y74588D01*
X72161Y74564D01*
X72153Y74543D01*
X72150Y74525D01*
X72148Y74510D01*
X72146Y74501D01*
Y73734D01*
Y73938D01*
X72148Y73906D01*
X72155Y73878D01*
X72165Y73854D01*
X72176Y73834D01*
X72187Y73817D01*
X72196Y73804D01*
X72203Y73795D01*
X72205Y73793D01*
X72229Y73773D01*
X72255Y73760D01*
X72279Y73749D01*
X72303Y73741D01*
X72324Y73738D01*
X72340Y73736D01*
X72352Y73734D01*
X72146D01*
X72542D01*
X72574Y73736D01*
X72603Y73743D01*
X72627Y73753D01*
X72650Y73764D01*
X72666Y73775D01*
X72679Y73784D01*
X72689Y73791D01*
X72690Y73793D01*
X72711Y73817D01*
X72726Y73841D01*
X72737Y73866D01*
X72744Y73888D01*
X72748Y73908D01*
X72752Y73923D01*
Y74497D01*
X72750Y74528D01*
X72742Y74556D01*
X72733Y74580D01*
X72722Y74601D01*
X72709Y74617D01*
X72700Y74630D01*
X72692Y74640D01*
X72690Y74641D01*
X72666Y74662D01*
X72642Y74677D01*
X72616Y74686D01*
X72594Y74693D01*
X72574Y74697D01*
X72557Y74701D01*
D02*
G37*
G36*
X70831Y75075D02*
X70541D01*
X70517Y75071D01*
X70500Y75064D01*
X70487Y75054D01*
X70480Y75041D01*
X70474Y75028D01*
X70472Y75019D01*
X70470Y75012D01*
Y73734D01*
Y73799D01*
X70474Y73777D01*
X70481Y73762D01*
X70492Y73751D01*
X70505Y73741D01*
X70518Y73738D01*
X70530Y73736D01*
X70537Y73734D01*
X70470D01*
X70867D01*
X70889Y73736D01*
X70909Y73738D01*
X70948Y73749D01*
X70983Y73762D01*
X71015Y73779D01*
X71041Y73795D01*
X71059Y73810D01*
X71066Y73816D01*
X71072Y73819D01*
X71074Y73821D01*
X71076Y73823D01*
X71092Y73840D01*
X71107Y73858D01*
X71120Y73877D01*
X71131Y73893D01*
X71148Y73928D01*
X71159Y73960D01*
X71165Y73990D01*
X71166Y74001D01*
X71168Y74010D01*
X71170Y74019D01*
Y74217D01*
X71168Y74247D01*
X71163Y74275D01*
X71155Y74299D01*
X71148Y74323D01*
X71139Y74341D01*
X71131Y74356D01*
X71126Y74365D01*
X71124Y74369D01*
X71107Y74395D01*
X71091Y74417D01*
X71074Y74434D01*
X71061Y74447D01*
X71048Y74458D01*
X71039Y74464D01*
X71033Y74467D01*
X71031Y74469D01*
X71044Y74482D01*
X71057Y74497D01*
X71078Y74525D01*
X71085Y74538D01*
X71091Y74547D01*
X71092Y74554D01*
X71094Y74556D01*
X71104Y74578D01*
X71111Y74599D01*
X71115Y74621D01*
X71118Y74640D01*
X71120Y74656D01*
X71122Y74671D01*
Y74678D01*
Y74682D01*
Y74777D01*
X71120Y74806D01*
X71115Y74838D01*
X71100Y74890D01*
X71091Y74910D01*
X71081Y74927D01*
X71070Y74943D01*
X71059Y74958D01*
X71050Y74969D01*
X71042Y74978D01*
X71037Y74984D01*
X71035Y74986D01*
X71018Y75001D01*
X71000Y75015D01*
X70963Y75038D01*
X70926Y75052D01*
X70892Y75064D01*
X70863Y75071D01*
X70850Y75073D01*
X70839D01*
X70831Y75075D01*
D02*
G37*
G36*
X71678Y73464D02*
D01*
Y73409D01*
X71674Y73418D01*
X71668Y73433D01*
X71661Y73442D01*
X71659Y73446D01*
X71657D01*
X71641Y73457D01*
X71624Y73462D01*
X71616Y73464D01*
X71605D01*
X71587Y73460D01*
X71572Y73455D01*
X71565Y73449D01*
X71561Y73447D01*
X71552Y73434D01*
X71544Y73425D01*
X71541Y73418D01*
Y73414D01*
X71283Y72462D01*
X71024Y73416D01*
X71018Y73425D01*
X71013Y73434D01*
X71004Y73446D01*
X70996Y73451D01*
X70992Y73453D01*
X70981Y73460D01*
X70970Y73462D01*
X70961Y73464D01*
X71068D01*
X70946D01*
X70935Y73460D01*
X70920Y73455D01*
X70909Y73447D01*
X70907Y73446D01*
X70905Y73444D01*
X70894Y73429D01*
X70889Y73414D01*
X70887Y73403D01*
Y73399D01*
X70889Y73383D01*
X71215Y72181D01*
X71222Y72162D01*
X71231Y72149D01*
X71242Y72138D01*
X71255Y72133D01*
X71265Y72129D01*
X71274Y72127D01*
X71281Y72125D01*
X70887D01*
X71283D01*
X71302Y72127D01*
X71315Y72135D01*
X71328Y72144D01*
X71337Y72153D01*
X71342Y72164D01*
X71346Y72172D01*
X71350Y72179D01*
Y72181D01*
X71676Y73383D01*
X71678Y73397D01*
Y72125D01*
D01*
D01*
Y73464D01*
D02*
G37*
G36*
X70709Y73466D02*
D01*
Y73127D01*
X70707Y73153D01*
X70704Y73177D01*
X70698Y73201D01*
X70691Y73223D01*
X70672Y73266D01*
X70652Y73301D01*
X70630Y73329D01*
X70620Y73340D01*
X70611Y73349D01*
X70604Y73359D01*
X70598Y73364D01*
X70594Y73366D01*
X70592Y73368D01*
X70572Y73384D01*
X70550Y73401D01*
X70528Y73414D01*
X70505Y73425D01*
X70463Y73442D01*
X70424Y73453D01*
X70389Y73460D01*
X70374Y73462D01*
X70361Y73464D01*
X70352Y73466D01*
X70337D01*
X70300Y73464D01*
X70265Y73457D01*
X70233Y73449D01*
X70205Y73438D01*
X70183Y73429D01*
X70167Y73420D01*
X70155Y73412D01*
X70154Y73410D01*
X70152D01*
X70120Y73384D01*
X70094Y73357D01*
X70072Y73327D01*
X70054Y73297D01*
X70041Y73270D01*
X70030Y73249D01*
X70026Y73240D01*
X70024Y73234D01*
X70022Y73231D01*
Y73229D01*
X70018Y73210D01*
X70020Y73199D01*
X70022Y73190D01*
X70030Y73175D01*
X70035Y73166D01*
X70039Y73162D01*
X70057Y73153D01*
X70076Y73147D01*
X70083D01*
X70089Y73146D01*
X70094D01*
X70109Y73149D01*
X70122Y73153D01*
X70130Y73155D01*
X70131Y73157D01*
X70143Y73168D01*
X70150Y73177D01*
X70154Y73184D01*
X70155Y73188D01*
X70168Y73216D01*
X70181Y73240D01*
X70194Y73260D01*
X70207Y73275D01*
X70220Y73286D01*
X70230Y73296D01*
X70235Y73299D01*
X70237Y73301D01*
X70255Y73312D01*
X70274Y73320D01*
X70293Y73327D01*
X70309Y73331D01*
X70322Y73333D01*
X70333Y73334D01*
X70342D01*
X70372Y73333D01*
X70387Y73329D01*
X70398Y73327D01*
X70409Y73323D01*
X70417Y73320D01*
X70422Y73318D01*
X70424D01*
X70454Y73305D01*
X70465Y73297D01*
X70476Y73290D01*
X70485Y73284D01*
X70491Y73279D01*
X70494Y73277D01*
X70496Y73275D01*
X70520Y73251D01*
X70537Y73227D01*
X70550Y73201D01*
X70557Y73179D01*
X70563Y73159D01*
X70565Y73142D01*
X70567Y73131D01*
Y73129D01*
Y73127D01*
X70565Y73103D01*
X70563Y73083D01*
X70561Y73075D01*
X70559Y73070D01*
X70557Y73066D01*
Y73064D01*
X70544Y73033D01*
X70524Y72997D01*
X70013Y72223D01*
X70007Y72214D01*
X70005Y72203D01*
X70004Y72198D01*
Y72194D01*
X70007Y72175D01*
X70013Y72161D01*
X70018Y72151D01*
X70022Y72149D01*
Y72148D01*
X70031Y72140D01*
X70041Y72135D01*
X70057Y72129D01*
X70065Y72127D01*
X70068Y72125D01*
X70004D01*
X70709D01*
Y73466D01*
D02*
G37*
G36*
X72518Y72673D02*
D01*
Y72618D01*
X72514Y72625D01*
X72507Y72640D01*
X72500Y72649D01*
X72498Y72653D01*
X72496D01*
X72489Y72660D01*
X72479Y72664D01*
X72465Y72672D01*
X72453Y72673D01*
X71889D01*
X71876Y72672D01*
X71865Y72670D01*
X71848Y72660D01*
X71839Y72651D01*
X71835Y72649D01*
Y72648D01*
X71826Y72631D01*
X71822Y72620D01*
X71820Y72610D01*
Y72609D01*
X71822Y72592D01*
X71829Y72577D01*
X71835Y72568D01*
X71837Y72566D01*
Y72564D01*
X71844Y72557D01*
X71853Y72553D01*
X71870Y72546D01*
X71878D01*
X71883Y72544D01*
X72448D01*
X72461Y72546D01*
X72470Y72548D01*
X72487Y72555D01*
X72496Y72560D01*
X72500Y72564D01*
X72511Y72581D01*
X72516Y72596D01*
X72518Y72605D01*
Y72544D01*
D01*
Y72673D01*
D02*
G37*
G36*
X74242Y73466D02*
D01*
Y72477D01*
X74238Y72486D01*
X74231Y72499D01*
X74224Y72509D01*
X74222Y72512D01*
X74220D01*
X74212Y72520D01*
X74203Y72525D01*
X74188Y72533D01*
X74177Y72535D01*
X74053D01*
Y72749D01*
Y72760D01*
X74050Y72770D01*
X74042Y72785D01*
X74035Y72792D01*
X74033Y72796D01*
X74031D01*
X74014Y72807D01*
X74000Y72812D01*
X73988Y72814D01*
X73974D01*
X73962Y72810D01*
X73948Y72803D01*
X73937Y72796D01*
X73935Y72794D01*
X73933Y72792D01*
X73922Y72775D01*
X73916Y72762D01*
X73914Y72753D01*
Y72751D01*
Y72749D01*
Y72535D01*
X73696D01*
X73866Y73388D01*
X73868Y73399D01*
Y73410D01*
X73864Y73420D01*
X73857Y73434D01*
X73850Y73444D01*
X73848Y73447D01*
X73846D01*
X73829Y73459D01*
X73811Y73464D01*
X73803Y73466D01*
X73542D01*
X73792D01*
X73755Y73453D01*
X73742Y73440D01*
X73735Y73427D01*
X73731Y73416D01*
X73729Y73414D01*
Y73412D01*
X73542Y72481D01*
Y72468D01*
X73546Y72449D01*
X73551Y72435D01*
X73557Y72425D01*
X73561Y72423D01*
Y72422D01*
X73577Y72410D01*
X73594Y72405D01*
X73601D01*
X73607Y72403D01*
X73914D01*
Y72190D01*
X73916Y72179D01*
X73918Y72170D01*
X73927Y72153D01*
X73935Y72144D01*
X73937Y72140D01*
X73938D01*
X73959Y72131D01*
X73974Y72127D01*
X73983Y72125D01*
X73542D01*
X73985D01*
X74005Y72129D01*
X74022Y72135D01*
X74031Y72140D01*
X74035Y72144D01*
X74046Y72159D01*
X74051Y72173D01*
X74053Y72185D01*
Y72188D01*
Y72190D01*
Y72403D01*
X74172D01*
X74183Y72405D01*
X74194Y72407D01*
X74211Y72414D01*
X74220Y72420D01*
X74224Y72423D01*
X74235Y72440D01*
X74240Y72455D01*
X74242Y72466D01*
Y72125D01*
D01*
D01*
Y73466D01*
D02*
G37*
G36*
X75216Y73464D02*
X74485D01*
X74474Y73460D01*
X74459Y73455D01*
X74448Y73447D01*
X74446Y73446D01*
X74444Y73444D01*
X74433Y73429D01*
X74427Y73414D01*
X74425Y73403D01*
Y73399D01*
X74427Y73383D01*
X74753Y72181D01*
X74761Y72162D01*
X74770Y72149D01*
X74781Y72138D01*
X74794Y72133D01*
X74803Y72129D01*
X74812Y72127D01*
X74820Y72125D01*
X74425D01*
X74822D01*
X74840Y72127D01*
X74853Y72135D01*
X74866Y72144D01*
X74875Y72153D01*
X74881Y72164D01*
X74885Y72172D01*
X74888Y72179D01*
Y72181D01*
X75214Y73383D01*
X75216Y73397D01*
Y72125D01*
D01*
D01*
Y73409D01*
X75212Y73418D01*
X75207Y73433D01*
X75199Y73442D01*
X75198Y73446D01*
X75196D01*
X75179Y73457D01*
X75162Y73462D01*
X75155Y73464D01*
X75216D01*
D02*
G37*
G36*
X73363Y73466D02*
X72657D01*
D01*
X72990D01*
X72953Y73464D01*
X72918Y73457D01*
X72887Y73449D01*
X72859Y73438D01*
X72837Y73429D01*
X72820Y73420D01*
X72809Y73412D01*
X72807Y73410D01*
X72805D01*
X72774Y73384D01*
X72748Y73357D01*
X72726Y73327D01*
X72707Y73297D01*
X72694Y73270D01*
X72683Y73249D01*
X72679Y73240D01*
X72677Y73234D01*
X72676Y73231D01*
Y73229D01*
X72672Y73210D01*
X72674Y73199D01*
X72676Y73190D01*
X72683Y73175D01*
X72689Y73166D01*
X72692Y73162D01*
X72711Y73153D01*
X72729Y73147D01*
X72737D01*
X72742Y73146D01*
X72748D01*
X72763Y73149D01*
X72776Y73153D01*
X72783Y73155D01*
X72785Y73157D01*
X72796Y73168D01*
X72803Y73177D01*
X72807Y73184D01*
X72809Y73188D01*
X72822Y73216D01*
X72835Y73240D01*
X72848Y73260D01*
X72861Y73275D01*
X72874Y73286D01*
X72883Y73296D01*
X72889Y73299D01*
X72890Y73301D01*
X72909Y73312D01*
X72927Y73320D01*
X72946Y73327D01*
X72963Y73331D01*
X72976Y73333D01*
X72987Y73334D01*
X72996D01*
X73026Y73333D01*
X73040Y73329D01*
X73051Y73327D01*
X73063Y73323D01*
X73070Y73320D01*
X73076Y73318D01*
X73077D01*
X73107Y73305D01*
X73118Y73297D01*
X73129Y73290D01*
X73138Y73284D01*
X73144Y73279D01*
X73148Y73277D01*
X73150Y73275D01*
X73174Y73251D01*
X73190Y73227D01*
X73203Y73201D01*
X73211Y73179D01*
X73216Y73159D01*
X73218Y73142D01*
X73220Y73131D01*
Y73129D01*
Y73127D01*
X73218Y73103D01*
X73216Y73083D01*
X73214Y73075D01*
X73213Y73070D01*
X73211Y73066D01*
Y73064D01*
X73198Y73033D01*
X73177Y72997D01*
X72666Y72223D01*
X72661Y72214D01*
X72659Y72203D01*
X72657Y72198D01*
Y72194D01*
X72661Y72175D01*
X72666Y72161D01*
X72672Y72151D01*
X72676Y72149D01*
Y72148D01*
X72685Y72140D01*
X72694Y72135D01*
X72711Y72129D01*
X72718Y72127D01*
X72722Y72125D01*
X73283D01*
X73296Y72127D01*
X73305Y72129D01*
X73322Y72136D01*
X73331Y72142D01*
X73335Y72146D01*
X73346Y72162D01*
X73351Y72177D01*
X73353Y72186D01*
Y72188D01*
Y72190D01*
Y72198D01*
X73350Y72207D01*
X73342Y72220D01*
X73335Y72229D01*
X73333Y72233D01*
X73331D01*
X73324Y72240D01*
X73314Y72246D01*
X73300Y72253D01*
X73288Y72255D01*
X72852D01*
X73298Y72929D01*
X73311Y72951D01*
X73320Y72970D01*
X73329Y72988D01*
X73337Y73003D01*
X73340Y73016D01*
X73344Y73025D01*
X73348Y73031D01*
Y73033D01*
X73357Y73068D01*
X73359Y73083D01*
X73361Y73097D01*
X73363Y73109D01*
Y72125D01*
D01*
Y73466D01*
D02*
G37*
%LPD*%
G36*
X71770Y74567D02*
X71787Y74560D01*
X71796Y74552D01*
X71800Y74551D01*
Y74549D01*
X71807Y74541D01*
X71811Y74532D01*
X71818Y74515D01*
Y74508D01*
X71820Y74503D01*
Y74499D01*
Y74497D01*
Y73938D01*
Y73927D01*
X71816Y73916D01*
X71811Y73899D01*
X71803Y73888D01*
X71802Y73886D01*
X71800Y73884D01*
X71792Y73877D01*
X71783Y73873D01*
X71768Y73866D01*
X71757Y73864D01*
X71565D01*
X71555Y73866D01*
X71544Y73867D01*
X71529Y73875D01*
X71518Y73880D01*
X71516Y73884D01*
X71515D01*
X71507Y73891D01*
X71503Y73901D01*
X71496Y73919D01*
Y73927D01*
X71494Y73932D01*
Y73936D01*
Y73938D01*
Y74497D01*
X71496Y74508D01*
X71498Y74519D01*
X71505Y74534D01*
X71511Y74545D01*
X71515Y74549D01*
X71524Y74556D01*
X71531Y74562D01*
X71548Y74569D01*
X71561Y74571D01*
X71761D01*
X71770Y74567D01*
D02*
G37*
G36*
X72561D02*
X72577Y74560D01*
X72587Y74552D01*
X72590Y74551D01*
Y74549D01*
X72598Y74541D01*
X72602Y74532D01*
X72609Y74515D01*
Y74508D01*
X72611Y74503D01*
Y74499D01*
Y74497D01*
Y73938D01*
Y73927D01*
X72607Y73916D01*
X72602Y73899D01*
X72594Y73888D01*
X72592Y73886D01*
X72590Y73884D01*
X72583Y73877D01*
X72574Y73873D01*
X72559Y73866D01*
X72548Y73864D01*
X72355D01*
X72346Y73866D01*
X72335Y73867D01*
X72320Y73875D01*
X72309Y73880D01*
X72307Y73884D01*
X72305D01*
X72298Y73891D01*
X72294Y73901D01*
X72287Y73919D01*
Y73927D01*
X72285Y73932D01*
Y73936D01*
Y73938D01*
Y74497D01*
X72287Y74508D01*
X72289Y74519D01*
X72296Y74534D01*
X72302Y74545D01*
X72305Y74549D01*
X72315Y74556D01*
X72322Y74562D01*
X72339Y74569D01*
X72352Y74571D01*
X72552D01*
X72561Y74567D01*
D02*
G37*
G36*
X70842Y74941D02*
X70865Y74936D01*
X70885Y74928D01*
X70902Y74919D01*
X70915Y74910D01*
X70926Y74902D01*
X70931Y74897D01*
X70933Y74895D01*
X70950Y74877D01*
X70961Y74856D01*
X70970Y74836D01*
X70976Y74817D01*
X70979Y74801D01*
X70981Y74788D01*
Y74780D01*
Y74777D01*
Y74682D01*
X70979Y74656D01*
X70974Y74634D01*
X70967Y74614D01*
X70957Y74595D01*
X70948Y74582D01*
X70941Y74571D01*
X70935Y74564D01*
X70933Y74562D01*
X70915Y74545D01*
X70894Y74534D01*
X70876Y74525D01*
X70857Y74519D01*
X70842Y74515D01*
X70829Y74514D01*
X70609D01*
Y74943D01*
X70818D01*
X70842Y74941D01*
D02*
G37*
G36*
X70889Y74382D02*
X70909Y74377D01*
X70929Y74367D01*
X70944Y74360D01*
X70959Y74351D01*
X70968Y74341D01*
X70976Y74336D01*
X70978Y74334D01*
X70994Y74315D01*
X71007Y74295D01*
X71017Y74275D01*
X71024Y74256D01*
X71028Y74241D01*
X71029Y74228D01*
Y74221D01*
Y74217D01*
Y74030D01*
X71028Y74004D01*
X71022Y73980D01*
X71013Y73960D01*
X71005Y73943D01*
X70996Y73928D01*
X70987Y73919D01*
X70981Y73912D01*
X70979Y73910D01*
X70961Y73895D01*
X70942Y73884D01*
X70922Y73875D01*
X70905Y73869D01*
X70889Y73866D01*
X70878Y73864D01*
X70609D01*
Y74384D01*
X70867D01*
X70889Y74382D01*
D02*
G37*
G36*
X70709Y72125D02*
X70630D01*
X70642Y72127D01*
X70652Y72129D01*
X70668Y72136D01*
X70678Y72142D01*
X70681Y72146D01*
X70692Y72162D01*
X70698Y72177D01*
X70700Y72186D01*
Y72188D01*
Y72190D01*
Y72198D01*
X70696Y72207D01*
X70689Y72220D01*
X70681Y72229D01*
X70679Y72233D01*
X70678D01*
X70670Y72240D01*
X70661Y72246D01*
X70646Y72253D01*
X70635Y72255D01*
X70198D01*
X70644Y72929D01*
X70657Y72951D01*
X70667Y72970D01*
X70676Y72988D01*
X70683Y73003D01*
X70687Y73016D01*
X70691Y73025D01*
X70694Y73031D01*
Y73033D01*
X70704Y73068D01*
X70705Y73083D01*
X70707Y73097D01*
X70709Y73109D01*
Y72125D01*
D02*
G37*
G36*
X75125Y73460D02*
X75111Y73455D01*
X75103Y73449D01*
X75099Y73447D01*
X75090Y73434D01*
X75083Y73425D01*
X75079Y73418D01*
Y73414D01*
X74822Y72462D01*
X74562Y73416D01*
X74557Y73425D01*
X74551Y73434D01*
X74542Y73446D01*
X74535Y73451D01*
X74531Y73453D01*
X74520Y73460D01*
X74509Y73462D01*
X74499Y73464D01*
X75144D01*
X75125Y73460D01*
D02*
G37*
G36*
X73363Y73127D02*
X73361Y73153D01*
X73357Y73177D01*
X73351Y73201D01*
X73344Y73223D01*
X73326Y73266D01*
X73305Y73301D01*
X73283Y73329D01*
X73274Y73340D01*
X73264Y73349D01*
X73257Y73359D01*
X73251Y73364D01*
X73248Y73366D01*
X73246Y73368D01*
X73226Y73384D01*
X73203Y73401D01*
X73181Y73414D01*
X73159Y73425D01*
X73116Y73442D01*
X73077Y73453D01*
X73042Y73460D01*
X73027Y73462D01*
X73014Y73464D01*
X73005Y73466D01*
X73363D01*
Y73127D01*
D02*
G37*
%LPC*%
G36*
X65289Y72820D02*
X65279D01*
X65268Y72818D01*
X65255Y72813D01*
X65240Y72807D01*
X65224Y72798D01*
X65207Y72785D01*
X65192Y72767D01*
X65190Y72765D01*
X65187Y72757D01*
X65179Y72744D01*
X65174Y72726D01*
X65166Y72704D01*
X65159Y72678D01*
X65155Y72644D01*
X65153Y72607D01*
Y72605D01*
Y72602D01*
Y72596D01*
Y72589D01*
X65155Y72567D01*
X65159Y72541D01*
X65165Y72513D01*
X65172Y72483D01*
X65181Y72454D01*
X65196Y72428D01*
X65198Y72426D01*
X65203Y72418D01*
X65213Y72409D01*
X65226Y72398D01*
X65240Y72385D01*
X65257Y72376D01*
X65277Y72368D01*
X65298Y72367D01*
X65307D01*
X65316Y72368D01*
X65329Y72372D01*
X65344Y72380D01*
X65359Y72387D01*
X65374Y72400D01*
X65389Y72417D01*
X65390Y72418D01*
X65394Y72426D01*
X65400Y72439D01*
X65407Y72457D01*
X65414Y72481D01*
X65420Y72511D01*
X65424Y72546D01*
X65426Y72587D01*
Y72589D01*
Y72593D01*
Y72598D01*
Y72607D01*
X65424Y72628D01*
X65420Y72654D01*
X65416Y72683D01*
X65409Y72713D01*
X65398Y72739D01*
X65385Y72763D01*
X65383Y72765D01*
X65377Y72772D01*
X65370Y72781D01*
X65359Y72793D01*
X65344Y72802D01*
X65327Y72811D01*
X65309Y72818D01*
X65289Y72820D01*
D02*
G37*
G36*
X57269Y72730D02*
X57043D01*
Y72398D01*
X57289D01*
X57308Y72400D01*
X57347Y72404D01*
X57365Y72406D01*
X57382Y72409D01*
X57384D01*
X57389Y72411D01*
X57395Y72415D01*
X57404Y72420D01*
X57415Y72428D01*
X57426Y72435D01*
X57438Y72448D01*
X57449Y72461D01*
X57451Y72463D01*
X57454Y72468D01*
X57458Y72478D01*
X57463Y72489D01*
X57469Y72504D01*
X57475Y72520D01*
X57476Y72539D01*
X57478Y72559D01*
Y72561D01*
Y72567D01*
X57476Y72576D01*
X57475Y72585D01*
X57473Y72598D01*
X57467Y72613D01*
X57462Y72628D01*
X57452Y72644D01*
X57441Y72661D01*
X57426Y72676D01*
X57410Y72691D01*
X57389Y72704D01*
X57365Y72715D01*
X57338Y72722D01*
X57306Y72728D01*
X57269Y72730D01*
D02*
G37*
G36*
X66461Y73242D02*
X66459D01*
X66451Y73241D01*
X66440Y73239D01*
X66427Y73233D01*
X66413Y73224D01*
X66396Y73209D01*
X66381Y73191D01*
X66368Y73165D01*
X66366Y73161D01*
X66364Y73155D01*
X66363Y73148D01*
X66361Y73139D01*
X66357Y73126D01*
X66355Y73109D01*
X66351Y73091D01*
X66348Y73068D01*
X66346Y73042D01*
X66342Y73013D01*
X66340Y72980D01*
X66338Y72942D01*
X66337Y72902D01*
X66335Y72855D01*
Y72804D01*
Y72800D01*
Y72791D01*
Y72778D01*
Y72757D01*
X66337Y72735D01*
Y72709D01*
X66338Y72681D01*
Y72652D01*
X66342Y72591D01*
X66346Y72559D01*
X66350Y72531D01*
X66353Y72504D01*
X66357Y72480D01*
X66363Y72459D01*
X66368Y72443D01*
X66370Y72439D01*
X66374Y72431D01*
X66381Y72418D01*
X66392Y72406D01*
X66405Y72391D01*
X66422Y72378D01*
X66440Y72370D01*
X66461Y72367D01*
X66463D01*
X66470Y72368D01*
X66481Y72370D01*
X66494Y72376D01*
X66509Y72385D01*
X66524Y72398D01*
X66538Y72417D01*
X66551Y72443D01*
Y72444D01*
X66553Y72446D01*
X66555Y72452D01*
X66557Y72459D01*
X66559Y72468D01*
X66563Y72481D01*
X66566Y72498D01*
X66570Y72517D01*
X66572Y72539D01*
X66576Y72565D01*
X66579Y72594D01*
X66581Y72628D01*
X66583Y72665D01*
X66585Y72705D01*
X66587Y72752D01*
Y72804D01*
Y72807D01*
Y72817D01*
Y72831D01*
Y72850D01*
X66585Y72872D01*
Y72898D01*
X66583Y72926D01*
Y72955D01*
X66577Y73017D01*
X66576Y73048D01*
X66572Y73076D01*
X66568Y73104D01*
X66563Y73128D01*
X66557Y73148D01*
X66551Y73165D01*
X66550Y73168D01*
X66546Y73178D01*
X66538Y73189D01*
X66527Y73204D01*
X66514Y73218D01*
X66500Y73230D01*
X66481Y73239D01*
X66461Y73242D01*
D02*
G37*
G36*
X64466D02*
X64465D01*
X64457Y73241D01*
X64446Y73239D01*
X64433Y73233D01*
X64418Y73224D01*
X64402Y73209D01*
X64387Y73191D01*
X64374Y73165D01*
X64372Y73161D01*
X64370Y73155D01*
X64368Y73148D01*
X64366Y73139D01*
X64363Y73126D01*
X64361Y73109D01*
X64357Y73091D01*
X64354Y73068D01*
X64352Y73042D01*
X64348Y73013D01*
X64346Y72980D01*
X64344Y72942D01*
X64342Y72902D01*
X64341Y72855D01*
Y72804D01*
Y72800D01*
Y72791D01*
Y72778D01*
Y72757D01*
X64342Y72735D01*
Y72709D01*
X64344Y72681D01*
Y72652D01*
X64348Y72591D01*
X64352Y72559D01*
X64355Y72531D01*
X64359Y72504D01*
X64363Y72480D01*
X64368Y72459D01*
X64374Y72443D01*
X64376Y72439D01*
X64379Y72431D01*
X64387Y72418D01*
X64398Y72406D01*
X64411Y72391D01*
X64428Y72378D01*
X64446Y72370D01*
X64466Y72367D01*
X64468D01*
X64476Y72368D01*
X64487Y72370D01*
X64500Y72376D01*
X64515Y72385D01*
X64529Y72398D01*
X64544Y72417D01*
X64557Y72443D01*
Y72444D01*
X64559Y72446D01*
X64561Y72452D01*
X64563Y72459D01*
X64565Y72468D01*
X64568Y72481D01*
X64572Y72498D01*
X64576Y72517D01*
X64578Y72539D01*
X64581Y72565D01*
X64585Y72594D01*
X64587Y72628D01*
X64589Y72665D01*
X64591Y72705D01*
X64592Y72752D01*
Y72804D01*
Y72807D01*
Y72817D01*
Y72831D01*
Y72850D01*
X64591Y72872D01*
Y72898D01*
X64589Y72926D01*
Y72955D01*
X64583Y73017D01*
X64581Y73048D01*
X64578Y73076D01*
X64574Y73104D01*
X64568Y73128D01*
X64563Y73148D01*
X64557Y73165D01*
X64555Y73168D01*
X64552Y73178D01*
X64544Y73189D01*
X64533Y73204D01*
X64520Y73218D01*
X64505Y73230D01*
X64487Y73239D01*
X64466Y73242D01*
D02*
G37*
%LPD*%
D10*
X72709Y62738D02*
G03*
X72709Y62738I-50J0D01*
G01*
X67250Y55500D02*
G03*
X67750Y56000I0J500D01*
G01*
X66250D02*
G03*
X66750Y55500I500J0D01*
G01*
Y58500D02*
G03*
X66250Y58000I-0J-500D01*
G01*
X67750D02*
G03*
X67250Y58500I-500J-0D01*
G01*
X74450Y63300D02*
G03*
X74950Y62800I500J0D01*
G01*
X75450D02*
G03*
X75950Y63300I0J500D01*
G01*
X75950Y65300D02*
G03*
X75450Y65800I-500J-0D01*
G01*
X74950D02*
G03*
X74450Y65300I0J-500D01*
G01*
X83650Y53300D02*
G03*
X83650Y53300I-50J0D01*
G01*
X58250Y59100D02*
G03*
X57850Y59500I-400J0D01*
G01*
Y57500D02*
G03*
X58250Y57900I0J400D01*
G01*
X55050D02*
G03*
X55450Y57500I400J0D01*
G01*
Y59500D02*
G03*
X55050Y59100I0J-400D01*
G01*
X75200Y51350D02*
G03*
X75700Y51850I-0J500D01*
G01*
Y52350D02*
G03*
X75200Y52850I-500J0D01*
G01*
X73200Y52850D02*
G03*
X72700Y52350I0J-500D01*
G01*
Y51850D02*
G03*
X73200Y51350I500J0D01*
G01*
X69100Y62600D02*
X71900D01*
X69100Y64400D02*
X71900D01*
Y62600D02*
Y62825D01*
X69100Y62600D02*
Y62825D01*
X71900Y64175D02*
Y64400D01*
X69100Y64175D02*
Y64400D01*
X55000Y56475D02*
Y57500D01*
X62100Y56475D02*
Y57500D01*
X55000Y51500D02*
Y52525D01*
X62100Y51500D02*
Y52525D01*
X55000Y57500D02*
X62100D01*
X55000Y51500D02*
X62100D01*
X83750Y57000D02*
X85250D01*
X85275Y60000D01*
X83750D02*
X85275D01*
X83750Y57000D02*
Y60000D01*
X79500Y55250D02*
Y56750D01*
X76500Y56775D02*
X79500Y56750D01*
X76500Y55250D02*
Y56775D01*
Y55250D02*
X79500D01*
X76500Y57250D02*
Y58750D01*
Y57250D02*
X79500Y57225D01*
Y58750D01*
X76500Y58750D02*
X79500D01*
X74250Y53775D02*
X75750D01*
X75775Y56775D01*
X74250D02*
X75775D01*
X74250Y53775D02*
Y56775D01*
X79500Y59250D02*
Y60750D01*
X76500Y60775D02*
X79500Y60750D01*
X76500Y59250D02*
Y60775D01*
Y59250D02*
X79500D01*
X66750Y55500D02*
X67250D01*
X66250Y56000D02*
Y58000D01*
X67750Y56000D02*
Y58000D01*
X66750Y58500D02*
X67250D01*
X70250Y62050D02*
X73950D01*
X70250Y56950D02*
X73950D01*
X61000Y60800D02*
X63000D01*
X61000Y70200D02*
X63000D01*
X74950Y62800D02*
X75450D01*
X74450Y63300D02*
Y65300D01*
X75950Y63300D02*
Y65300D01*
X74950Y65800D02*
X75450D01*
X85200Y53600D02*
Y56400D01*
X83800Y53600D02*
Y56400D01*
Y53600D02*
X85200D01*
X83800Y56400D02*
X85200D01*
X55050Y57900D02*
Y59100D01*
X55450Y57500D02*
X57850D01*
X58250Y57900D02*
Y59100D01*
X55450Y59500D02*
X57850D01*
X75700Y51850D02*
Y52350D01*
X73200Y51350D02*
X75200D01*
X73200Y52850D02*
X75200D01*
X72700Y51850D02*
Y52350D01*
X87650Y64988D02*
Y73450D01*
X83875D02*
X87650D01*
X77150D02*
X80925D01*
X77150Y64988D02*
Y73450D01*
X83875Y62950D02*
X85613D01*
X87650Y64988D01*
X77150D02*
X79188Y62950D01*
X80925D01*
X89230Y67810D02*
X91770D01*
Y57650D02*
Y67810D01*
X89230Y57650D02*
Y67810D01*
Y57650D02*
X91770D01*
X50725Y63045D02*
X53275D01*
X50725Y57960D02*
Y63045D01*
X53275Y57955D02*
Y63040D01*
X50725Y57955D02*
X53275D01*
X86700Y51200D02*
X85900D01*
Y51600D01*
X86034Y51733D01*
X86300D01*
X86433Y51600D01*
Y51200D01*
X85900Y52000D02*
X86700D01*
X86433Y52266D01*
X86700Y52533D01*
X85900D01*
X86700Y52799D02*
X85900D01*
Y53199D01*
X86034Y53333D01*
X86300D01*
X86433Y53199D01*
Y52799D01*
Y53066D02*
X86700Y53333D01*
X86833Y53599D02*
Y54132D01*
X85900Y54799D02*
Y54532D01*
X86034Y54399D01*
X86567D01*
X86700Y54532D01*
Y54799D01*
X86567Y54932D01*
X86034D01*
X85900Y54799D01*
Y55199D02*
X86567D01*
X86700Y55332D01*
Y55599D01*
X86567Y55732D01*
X85900D01*
Y55998D02*
Y56532D01*
Y56265D01*
X86700D01*
D11*
X62725Y52400D02*
G03*
X62725Y52400I-125J0D01*
G01*
X68325Y62200D02*
G03*
X68325Y62200I-125J0D01*
G01*
D12*
X50901Y63700D02*
G03*
X50901Y63700I-1J0D01*
G01*
D13*
X70300Y56524D02*
Y55000D01*
X71062D01*
X71316Y55254D01*
Y56270D01*
X71062Y56524D01*
X70300D01*
X71824D02*
Y55000D01*
X72585D01*
X72839Y55254D01*
Y56270D01*
X72585Y56524D01*
X71824D01*
X73347Y55000D02*
X73855D01*
X73601D01*
Y56524D01*
X73347Y56270D01*
X89380Y70203D02*
X90395Y68680D01*
Y70203D02*
X89380Y68680D01*
X91919D02*
X90903D01*
X91919Y69695D01*
Y69949D01*
X91665Y70203D01*
X91157D01*
X90903Y69949D01*
X50642Y66305D02*
X51657Y64781D01*
Y66305D02*
X50642Y64781D01*
X52165D02*
X52673D01*
X52419D01*
Y66305D01*
X52165Y66051D01*
X56500Y52024D02*
Y51008D01*
X57008Y50500D01*
X57516Y51008D01*
Y52024D01*
X58024D02*
Y50500D01*
X58785D01*
X59039Y50754D01*
Y51770D01*
X58785Y52024D01*
X58024D01*
X59547Y50500D02*
X60055D01*
X59801D01*
Y52024D01*
X59547Y51770D01*
X69600Y66424D02*
Y65408D01*
X70108Y64900D01*
X70616Y65408D01*
Y66424D01*
X71124D02*
Y64900D01*
X71885D01*
X72139Y65154D01*
Y66170D01*
X71885Y66424D01*
X71124D01*
X73663Y64900D02*
X72647D01*
X73663Y65916D01*
Y66170D01*
X73409Y66424D01*
X72901D01*
X72647Y66170D01*
X85800Y58300D02*
Y59824D01*
X86562D01*
X86816Y59570D01*
Y59062D01*
X86562Y58808D01*
X85800D01*
X86308D02*
X86816Y58300D01*
X88339Y59824D02*
X87324D01*
Y59062D01*
X87831Y59316D01*
X88085D01*
X88339Y59062D01*
Y58554D01*
X88085Y58300D01*
X87577D01*
X87324Y58554D01*
X80500Y54700D02*
Y56224D01*
X81262D01*
X81516Y55970D01*
Y55462D01*
X81262Y55208D01*
X80500D01*
X81008D02*
X81516Y54700D01*
X82785D02*
Y56224D01*
X82024Y55462D01*
X83039D01*
X80500Y56900D02*
Y58424D01*
X81262D01*
X81516Y58170D01*
Y57662D01*
X81262Y57408D01*
X80500D01*
X81008D02*
X81516Y56900D01*
X82024Y58170D02*
X82277Y58424D01*
X82785D01*
X83039Y58170D01*
Y57916D01*
X82785Y57662D01*
X82531D01*
X82785D01*
X83039Y57408D01*
Y57154D01*
X82785Y56900D01*
X82277D01*
X82024Y57154D01*
X76000Y53500D02*
Y55024D01*
X76762D01*
X77016Y54770D01*
Y54262D01*
X76762Y54008D01*
X76000D01*
X76508D02*
X77016Y53500D01*
X78539D02*
X77524D01*
X78539Y54516D01*
Y54770D01*
X78285Y55024D01*
X77777D01*
X77524Y54770D01*
X80500Y59000D02*
Y60524D01*
X81262D01*
X81516Y60270D01*
Y59762D01*
X81262Y59508D01*
X80500D01*
X81008D02*
X81516Y59000D01*
X82024D02*
X82531D01*
X82277D01*
Y60524D01*
X82024Y60270D01*
X53500Y70524D02*
Y69000D01*
X54516D01*
X55024D02*
X55531D01*
X55277D01*
Y70524D01*
X55024Y70270D01*
X80400Y53124D02*
Y51600D01*
Y52362D01*
X81416D01*
Y53124D01*
Y51600D01*
X81924Y53124D02*
Y51600D01*
X82939D01*
X83447D02*
X83955D01*
X83701D01*
Y53124D01*
X83447Y52870D01*
X75316Y67870D02*
X75062Y68124D01*
X74554D01*
X74300Y67870D01*
Y66854D01*
X74554Y66600D01*
X75062D01*
X75316Y66854D01*
X76839Y68124D02*
X75824D01*
Y67362D01*
X76331Y67616D01*
X76585D01*
X76839Y67362D01*
Y66854D01*
X76585Y66600D01*
X76077D01*
X75824Y66854D01*
X78616Y75470D02*
X78362Y75724D01*
X77854D01*
X77600Y75470D01*
Y74454D01*
X77854Y74200D01*
X78362D01*
X78616Y74454D01*
X79885Y74200D02*
Y75724D01*
X79124Y74962D01*
X80139D01*
X77216Y52370D02*
X76962Y52624D01*
X76454D01*
X76200Y52370D01*
Y51354D01*
X76454Y51100D01*
X76962D01*
X77216Y51354D01*
X77724Y52370D02*
X77977Y52624D01*
X78485D01*
X78739Y52370D01*
Y52116D01*
X78485Y51862D01*
X78231D01*
X78485D01*
X78739Y51608D01*
Y51354D01*
X78485Y51100D01*
X77977D01*
X77724Y51354D01*
X63716Y58170D02*
X63462Y58424D01*
X62954D01*
X62700Y58170D01*
Y57154D01*
X62954Y56900D01*
X63462D01*
X63716Y57154D01*
X65239Y56900D02*
X64224D01*
X65239Y57916D01*
Y58170D01*
X64985Y58424D01*
X64477D01*
X64224Y58170D01*
X60016Y59270D02*
X59762Y59524D01*
X59254D01*
X59000Y59270D01*
Y58254D01*
X59254Y58000D01*
X59762D01*
X60016Y58254D01*
X60524Y58000D02*
X61031D01*
X60777D01*
Y59524D01*
X60524Y59270D01*
M02*
