G04*
G04 #@! TF.GenerationSoftware,Altium Limited,Altium Designer,19.1.6 (110)*
G04*
G04 Layer_Physical_Order=2*
G04 Layer_Color=16711680*
%FSLAX43Y43*%
%MOMM*%
G71*
G01*
G75*
%ADD45C,3.000*%
%ADD46C,1.500*%
%ADD47R,1.500X1.500*%
%ADD48R,1.900X1.900*%
%ADD49C,1.900*%
%ADD50C,0.600*%
G36*
X92796Y50204D02*
X50204D01*
Y75796D01*
X92796D01*
Y50204D01*
D02*
G37*
%LPC*%
G36*
X91300Y74613D02*
Y73800D01*
X92113D01*
X92004Y74005D01*
X91779Y74279D01*
X91505Y74504D01*
X91300Y74613D01*
D02*
G37*
G36*
X89700D02*
X89495Y74504D01*
X89221Y74279D01*
X88996Y74005D01*
X88887Y73800D01*
X89700D01*
Y74613D01*
D02*
G37*
G36*
X53300D02*
Y73800D01*
X54113D01*
X54004Y74005D01*
X53779Y74279D01*
X53505Y74504D01*
X53300Y74613D01*
D02*
G37*
G36*
X51700D02*
X51495Y74504D01*
X51221Y74279D01*
X50996Y74005D01*
X50887Y73800D01*
X51700D01*
Y74613D01*
D02*
G37*
G36*
X92113Y72200D02*
X91300D01*
Y71387D01*
X91505Y71496D01*
X91779Y71721D01*
X92004Y71995D01*
X92113Y72200D01*
D02*
G37*
G36*
X89700D02*
X88887D01*
X88996Y71995D01*
X89221Y71721D01*
X89495Y71496D01*
X89700Y71387D01*
Y72200D01*
D02*
G37*
G36*
X54113D02*
X53300D01*
Y71387D01*
X53505Y71496D01*
X53779Y71721D01*
X54004Y71995D01*
X54113Y72200D01*
D02*
G37*
G36*
X51700D02*
X50887D01*
X50996Y71995D01*
X51221Y71721D01*
X51495Y71496D01*
X51700Y71387D01*
Y72200D01*
D02*
G37*
G36*
X91450Y67490D02*
X89550D01*
Y65590D01*
X91450D01*
Y67490D01*
D02*
G37*
G36*
X90500Y64958D02*
X90252Y64926D01*
X90021Y64830D01*
X89822Y64678D01*
X89670Y64479D01*
X89574Y64248D01*
X89542Y64000D01*
X89574Y63752D01*
X89670Y63521D01*
X89822Y63322D01*
X90021Y63170D01*
X90252Y63074D01*
X90500Y63042D01*
X90748Y63074D01*
X90979Y63170D01*
X91178Y63322D01*
X91330Y63521D01*
X91426Y63752D01*
X91458Y64000D01*
X91426Y64248D01*
X91330Y64479D01*
X91178Y64678D01*
X90979Y64830D01*
X90748Y64926D01*
X90500Y64958D01*
D02*
G37*
G36*
X90900Y62431D02*
Y61860D01*
X91471D01*
X91417Y61990D01*
X91249Y62209D01*
X91030Y62377D01*
X90900Y62431D01*
D02*
G37*
G36*
X90100Y62431D02*
X89970Y62377D01*
X89751Y62209D01*
X89583Y61990D01*
X89529Y61860D01*
X90100D01*
Y62431D01*
D02*
G37*
G36*
X53150Y62920D02*
X50850D01*
Y60620D01*
X53150D01*
Y62920D01*
D02*
G37*
G36*
X90100Y61060D02*
X89529D01*
X89583Y60930D01*
X89751Y60711D01*
X89970Y60543D01*
X90100Y60489D01*
Y61060D01*
D02*
G37*
G36*
X91471D02*
X90900D01*
Y60489D01*
X91030Y60543D01*
X91249Y60711D01*
X91417Y60930D01*
X91471Y61060D01*
D02*
G37*
G36*
X52550Y60355D02*
Y59780D01*
X53125D01*
X53092Y59860D01*
X52892Y60122D01*
X52630Y60322D01*
X52550Y60355D01*
D02*
G37*
G36*
X51450D02*
X51370Y60322D01*
X51108Y60122D01*
X50908Y59860D01*
X50875Y59780D01*
X51450D01*
Y60355D01*
D02*
G37*
G36*
X90900Y59891D02*
Y59320D01*
X91471D01*
X91417Y59450D01*
X91249Y59669D01*
X91030Y59837D01*
X90900Y59891D01*
D02*
G37*
G36*
X90100Y59891D02*
X89970Y59837D01*
X89751Y59669D01*
X89583Y59450D01*
X89529Y59320D01*
X90100D01*
Y59891D01*
D02*
G37*
G36*
X53125Y58680D02*
X52550D01*
Y58105D01*
X52630Y58138D01*
X52892Y58338D01*
X53092Y58600D01*
X53125Y58680D01*
D02*
G37*
G36*
X51450D02*
X50875D01*
X50908Y58600D01*
X51108Y58338D01*
X51370Y58138D01*
X51450Y58105D01*
Y58680D01*
D02*
G37*
G36*
X90100Y58520D02*
X89529D01*
X89583Y58390D01*
X89751Y58171D01*
X89970Y58003D01*
X90100Y57949D01*
Y58520D01*
D02*
G37*
G36*
X91471D02*
X90900D01*
Y57949D01*
X91030Y58003D01*
X91249Y58171D01*
X91417Y58390D01*
X91471Y58520D01*
D02*
G37*
G36*
X91300Y54613D02*
Y53800D01*
X92113D01*
X92004Y54005D01*
X91779Y54279D01*
X91505Y54504D01*
X91300Y54613D01*
D02*
G37*
G36*
X89700D02*
X89495Y54504D01*
X89221Y54279D01*
X88996Y54005D01*
X88887Y53800D01*
X89700D01*
Y54613D01*
D02*
G37*
G36*
X53300D02*
Y53800D01*
X54113D01*
X54004Y54005D01*
X53779Y54279D01*
X53505Y54504D01*
X53300Y54613D01*
D02*
G37*
G36*
X51700D02*
X51495Y54504D01*
X51221Y54279D01*
X50996Y54005D01*
X50887Y53800D01*
X51700D01*
Y54613D01*
D02*
G37*
G36*
X92113Y52200D02*
X91300D01*
Y51387D01*
X91505Y51496D01*
X91779Y51721D01*
X92004Y51995D01*
X92113Y52200D01*
D02*
G37*
G36*
X89700D02*
X88887D01*
X88996Y51995D01*
X89221Y51721D01*
X89495Y51496D01*
X89700Y51387D01*
Y52200D01*
D02*
G37*
G36*
X54113D02*
X53300D01*
Y51387D01*
X53505Y51496D01*
X53779Y51721D01*
X54004Y51995D01*
X54113Y52200D01*
D02*
G37*
G36*
X51700D02*
X50887D01*
X50996Y51995D01*
X51221Y51721D01*
X51495Y51496D01*
X51700Y51387D01*
Y52200D01*
D02*
G37*
%LPD*%
D45*
X90500Y73000D02*
D03*
Y53000D02*
D03*
X52500D02*
D03*
Y73000D02*
D03*
D46*
X90500Y58920D02*
D03*
Y61460D02*
D03*
Y64000D02*
D03*
D47*
Y66540D02*
D03*
D48*
X52000Y61770D02*
D03*
D49*
Y59230D02*
D03*
D50*
X90000Y69000D02*
D03*
X91500Y60000D02*
D03*
X90000Y57000D02*
D03*
Y51000D02*
D03*
X88500Y72000D02*
D03*
X87000Y69000D02*
D03*
X88500Y60000D02*
D03*
X87000Y57000D02*
D03*
X88500Y54000D02*
D03*
X87000Y51000D02*
D03*
X85500Y72000D02*
D03*
X84000Y69000D02*
D03*
X85500Y66000D02*
D03*
Y54000D02*
D03*
X84000Y51000D02*
D03*
X81000Y69000D02*
D03*
X82500Y66000D02*
D03*
X81000Y57000D02*
D03*
X82500Y54000D02*
D03*
X81000Y51000D02*
D03*
X79500Y72000D02*
D03*
X78000Y69000D02*
D03*
X79500Y66000D02*
D03*
X78000Y57000D02*
D03*
X79500Y54000D02*
D03*
X78000Y51000D02*
D03*
X76500Y72000D02*
D03*
X75000Y69000D02*
D03*
X76500Y66000D02*
D03*
Y54000D02*
D03*
X75000Y51000D02*
D03*
X73500Y72000D02*
D03*
X72000Y69000D02*
D03*
X73500Y66000D02*
D03*
X72000Y57000D02*
D03*
X73500Y54000D02*
D03*
X72000Y51000D02*
D03*
X70500Y72000D02*
D03*
Y66000D02*
D03*
Y54000D02*
D03*
X69000Y51000D02*
D03*
X67500Y72000D02*
D03*
X66000Y57000D02*
D03*
X67500Y54000D02*
D03*
X66000Y51000D02*
D03*
X64500Y72000D02*
D03*
X63000Y57000D02*
D03*
X64500Y54000D02*
D03*
X63000Y51000D02*
D03*
X61500Y72000D02*
D03*
X60000Y57000D02*
D03*
Y51000D02*
D03*
X58500Y72000D02*
D03*
Y54000D02*
D03*
X57000Y51000D02*
D03*
X55500Y72000D02*
D03*
X54000Y69000D02*
D03*
Y57000D02*
D03*
Y51000D02*
D03*
X51000Y69000D02*
D03*
X52500Y66000D02*
D03*
X51000Y57000D02*
D03*
Y51000D02*
D03*
X71400Y58900D02*
D03*
X72800D02*
D03*
Y60100D02*
D03*
X71400D02*
D03*
M02*
