G04*
G04 #@! TF.GenerationSoftware,Altium Limited,Altium Designer,19.1.6 (110)*
G04*
G04 Layer_Physical_Order=1*
G04 Layer_Color=255*
%FSLAX43Y43*%
%MOMM*%
G71*
G01*
G75*
%ADD13C,0.254*%
%ADD32R,0.800X0.750*%
%ADD33R,2.500X3.200*%
%ADD34R,0.900X0.800*%
%ADD35R,0.800X0.900*%
G04:AMPARAMS|DCode=36|XSize=0.9mm|YSize=0.8mm|CornerRadius=0.2mm|HoleSize=0mm|Usage=FLASHONLY|Rotation=0.000|XOffset=0mm|YOffset=0mm|HoleType=Round|Shape=RoundedRectangle|*
%AMROUNDEDRECTD36*
21,1,0.900,0.400,0,0,0.0*
21,1,0.500,0.800,0,0,0.0*
1,1,0.400,0.250,-0.200*
1,1,0.400,-0.250,-0.200*
1,1,0.400,-0.250,0.200*
1,1,0.400,0.250,0.200*
%
%ADD36ROUNDEDRECTD36*%
%ADD37R,1.400X0.450*%
%ADD38O,1.400X0.450*%
%ADD39R,3.000X3.100*%
%ADD40R,3.750X9.500*%
%ADD41R,0.950X0.800*%
G04:AMPARAMS|DCode=42|XSize=1.4mm|YSize=1mm|CornerRadius=0.25mm|HoleSize=0mm|Usage=FLASHONLY|Rotation=90.000|XOffset=0mm|YOffset=0mm|HoleType=Round|Shape=RoundedRectangle|*
%AMROUNDEDRECTD42*
21,1,1.400,0.500,0,0,90.0*
21,1,0.900,1.000,0,0,90.0*
1,1,0.500,0.250,0.450*
1,1,0.500,0.250,-0.450*
1,1,0.500,-0.250,-0.450*
1,1,0.500,-0.250,0.450*
%
%ADD42ROUNDEDRECTD42*%
G04:AMPARAMS|DCode=43|XSize=0.9mm|YSize=0.8mm|CornerRadius=0.2mm|HoleSize=0mm|Usage=FLASHONLY|Rotation=270.000|XOffset=0mm|YOffset=0mm|HoleType=Round|Shape=RoundedRectangle|*
%AMROUNDEDRECTD43*
21,1,0.900,0.400,0,0,270.0*
21,1,0.500,0.800,0,0,270.0*
1,1,0.400,-0.200,-0.250*
1,1,0.400,-0.200,0.250*
1,1,0.400,0.200,0.250*
1,1,0.400,0.200,-0.250*
%
%ADD43ROUNDEDRECTD43*%
%ADD44R,2.350X2.200*%
%ADD45C,3.000*%
%ADD46C,1.500*%
%ADD47R,1.500X1.500*%
%ADD48R,1.900X1.900*%
%ADD49C,1.900*%
%ADD50C,0.600*%
G36*
X92796Y67963D02*
X92683Y67891D01*
X92669Y67890D01*
X92600Y67904D01*
X91591D01*
X91587Y67903D01*
X91584Y67904D01*
X91549Y67895D01*
X91513Y67888D01*
X91510Y67886D01*
X91506Y67885D01*
X91477Y67864D01*
X91447Y67844D01*
X91445Y67841D01*
X91442Y67839D01*
X91423Y67808D01*
X91403Y67778D01*
X91402Y67774D01*
X91400Y67771D01*
X91359Y67661D01*
X91353Y67626D01*
X91346Y67590D01*
X91346Y67573D01*
X91260Y67490D01*
X89740D01*
X89654Y67573D01*
X89654Y67590D01*
X89647Y67626D01*
X89641Y67661D01*
X89600Y67771D01*
X89598Y67774D01*
X89597Y67778D01*
X89577Y67808D01*
X89558Y67839D01*
X89555Y67841D01*
X89553Y67844D01*
X89523Y67864D01*
X89494Y67885D01*
X89490Y67886D01*
X89487Y67888D01*
X89451Y67895D01*
X89416Y67904D01*
X89413Y67903D01*
X89409Y67904D01*
X88100D01*
X88022Y67888D01*
X87956Y67844D01*
X87912Y67778D01*
X87896Y67700D01*
Y62904D01*
X83775D01*
Y64350D01*
X81025D01*
Y62904D01*
X77704D01*
Y64200D01*
X77688Y64278D01*
X77644Y64344D01*
X77578Y64388D01*
X77500Y64404D01*
X75731D01*
X75723Y64412D01*
X75722Y64551D01*
X75738Y64562D01*
X75827Y64694D01*
X75845Y64785D01*
X75200D01*
X74555D01*
X74573Y64694D01*
X74661Y64562D01*
X74677Y64551D01*
X74677Y64528D01*
X74553Y64404D01*
X72880D01*
X72845Y64397D01*
X72809Y64391D01*
X72806Y64389D01*
X72802Y64388D01*
X72772Y64368D01*
X72741Y64350D01*
X72739Y64346D01*
X72736Y64344D01*
X72716Y64314D01*
X72695Y64285D01*
X72694Y64281D01*
X72691Y64278D01*
X72684Y64243D01*
X72676Y64208D01*
X72671Y64083D01*
X72549Y64075D01*
X71675D01*
Y62925D01*
X71996D01*
Y62500D01*
X72012Y62422D01*
X72056Y62356D01*
X72122Y62312D01*
X72200Y62296D01*
X76396D01*
Y61200D01*
X76412Y61122D01*
X76456Y61056D01*
X76522Y61012D01*
X76600Y60996D01*
X82267D01*
Y58638D01*
X81962Y58333D01*
X79350D01*
Y58650D01*
X78150D01*
Y57350D01*
X79350D01*
Y57667D01*
X82100D01*
X82228Y57692D01*
X82336Y57764D01*
X82836Y58264D01*
X82908Y58372D01*
X82933Y58500D01*
Y60996D01*
X83196D01*
Y58900D01*
X83212Y58822D01*
X83256Y58756D01*
X83322Y58712D01*
X83400Y58696D01*
X83850D01*
Y58650D01*
X85150D01*
Y58696D01*
X85500D01*
X85578Y58712D01*
X85644Y58756D01*
X85688Y58822D01*
X85704Y58900D01*
Y60996D01*
X88900D01*
X88900Y60996D01*
X88978Y61012D01*
X89044Y61056D01*
X89044Y61056D01*
X89144Y61156D01*
X89188Y61222D01*
X89204Y61300D01*
Y62196D01*
X89598D01*
X89654Y62082D01*
X89583Y61990D01*
X89529Y61860D01*
X90500D01*
X91471D01*
X91417Y61990D01*
X91346Y62082D01*
X91402Y62196D01*
X92600D01*
X92669Y62210D01*
X92683Y62209D01*
X92796Y62137D01*
Y50204D01*
X50204D01*
Y60859D01*
X50332Y60892D01*
X50356Y60856D01*
X50422Y60812D01*
X50500Y60796D01*
X50750D01*
X50850Y60686D01*
Y60620D01*
X53150D01*
Y60686D01*
X53250Y60796D01*
X54596D01*
Y56300D01*
X54250D01*
Y53814D01*
X54123Y53782D01*
X54004Y54005D01*
X53779Y54279D01*
X53505Y54504D01*
X53300Y54613D01*
Y53000D01*
Y51387D01*
X53505Y51496D01*
X53779Y51721D01*
X54004Y51995D01*
X54171Y52308D01*
X54274Y52647D01*
X54279Y52700D01*
X57150D01*
Y56300D01*
X56704D01*
Y57808D01*
X56822Y57869D01*
X56831Y57867D01*
X56926Y57726D01*
X57074Y57626D01*
X57200Y57601D01*
Y58500D01*
Y59399D01*
X57074Y59374D01*
X56926Y59274D01*
X56831Y59133D01*
X56822Y59131D01*
X56704Y59192D01*
Y59596D01*
X66296D01*
Y59200D01*
X66312Y59122D01*
X66356Y59056D01*
X66422Y59012D01*
X66500Y58996D01*
X66759D01*
X66807Y58879D01*
X66764Y58836D01*
X66692Y58728D01*
X66667Y58600D01*
Y58341D01*
X66594Y58327D01*
X66462Y58238D01*
X66373Y58106D01*
X66342Y57950D01*
Y57550D01*
X66373Y57394D01*
X66462Y57262D01*
X66594Y57173D01*
X66750Y57142D01*
X67250D01*
X67406Y57173D01*
X67538Y57262D01*
X67627Y57394D01*
X67658Y57550D01*
Y57950D01*
X67627Y58106D01*
X67538Y58238D01*
X67406Y58327D01*
X67333Y58341D01*
Y58462D01*
X67388Y58517D01*
X68223D01*
X68291Y58390D01*
X68275Y58366D01*
X68274Y58365D01*
X69150D01*
X70026D01*
X70025Y58366D01*
X69931Y58506D01*
Y58544D01*
X70025Y58684D01*
X70058Y58850D01*
X70025Y59016D01*
X69931Y59156D01*
Y59194D01*
X70025Y59334D01*
X70058Y59500D01*
X70025Y59666D01*
X69931Y59806D01*
Y59844D01*
X70025Y59984D01*
X70058Y60150D01*
X70025Y60316D01*
X69931Y60456D01*
Y60494D01*
X70025Y60634D01*
X70058Y60800D01*
X70039Y60898D01*
X70050Y61025D01*
D01*
D01*
X70050Y61025D01*
X70050D01*
X70050Y61025D01*
D01*
Y61579D01*
Y61875D01*
X69704D01*
Y62500D01*
X69688Y62578D01*
X69644Y62644D01*
X69578Y62688D01*
X69500Y62704D01*
X69204D01*
Y62925D01*
X69325D01*
Y64075D01*
X69204D01*
Y70800D01*
X69188Y70878D01*
X69144Y70944D01*
X69078Y70988D01*
X69000Y71004D01*
X62100D01*
X62022Y70988D01*
X61998Y70972D01*
X61974Y70988D01*
X61896Y71004D01*
X54800Y71004D01*
X54722Y70988D01*
X54656Y70944D01*
X54612Y70878D01*
X54596Y70800D01*
X54596Y63704D01*
X50500Y63704D01*
X50422Y63688D01*
X50356Y63644D01*
X50332Y63608D01*
X50204Y63641D01*
Y75796D01*
X92796D01*
Y67963D01*
D02*
G37*
G36*
X92600Y62400D02*
X90638D01*
X90500Y62418D01*
X90362Y62400D01*
X89000D01*
Y61300D01*
X88900Y61200D01*
X85500D01*
Y58900D01*
X85150D01*
Y58985D01*
X84500D01*
X83850D01*
Y58900D01*
X83400D01*
Y61200D01*
X76600D01*
Y62500D01*
X72200D01*
Y62925D01*
X72875D01*
Y63235D01*
X72275D01*
Y63765D01*
X72875D01*
Y64075D01*
X72875D01*
X72880Y64200D01*
X74675D01*
X74713Y64073D01*
X74662Y64038D01*
X74573Y63906D01*
X74555Y63815D01*
X75200D01*
X75845D01*
X75827Y63906D01*
X75738Y64038D01*
X75687Y64073D01*
X75725Y64200D01*
X77500D01*
Y62700D01*
X81025D01*
Y61750D01*
X81700D01*
Y63050D01*
X83100D01*
Y61750D01*
X83775D01*
Y62700D01*
X88100D01*
Y67700D01*
X89409D01*
X89450Y67590D01*
X89450Y67573D01*
Y66940D01*
X90500D01*
X91550D01*
Y67573D01*
X91550Y67590D01*
X91591Y67700D01*
X92600D01*
Y62400D01*
D02*
G37*
G36*
X61896Y70800D02*
Y60600D01*
X61900Y60580D01*
Y60500D01*
X61926D01*
X61956Y60456D01*
X62022Y60412D01*
X62100Y60396D01*
X62950D01*
X63028Y60412D01*
X63094Y60456D01*
X63124Y60500D01*
X67100Y60500D01*
X67100Y60400D01*
X67280D01*
X67300Y60396D01*
X68156D01*
X68168Y60398D01*
X68181Y60398D01*
X68188Y60400D01*
X68331Y60400D01*
X68275Y60316D01*
X68274Y60315D01*
X69150D01*
Y59985D01*
X68274D01*
X68275Y59984D01*
X68369Y59844D01*
X68396Y59825D01*
X68369Y59806D01*
X68275Y59666D01*
X68274Y59665D01*
X69150D01*
Y59335D01*
X68274D01*
X68275Y59334D01*
X68364Y59200D01*
X66500D01*
Y59800D01*
X56500D01*
Y58994D01*
X56474Y59126D01*
X56374Y59274D01*
X56226Y59374D01*
X56100Y59399D01*
Y58500D01*
Y57601D01*
X56226Y57626D01*
X56374Y57726D01*
X56474Y57874D01*
X56500Y58006D01*
Y56300D01*
X56400D01*
Y54500D01*
X55000D01*
Y56300D01*
X54800D01*
Y61000D01*
X53250D01*
Y61220D01*
X52000D01*
X50750D01*
Y61000D01*
X50500D01*
Y63500D01*
X54800Y63500D01*
X54800Y70800D01*
X61896Y70800D01*
Y70800D01*
D02*
G37*
G36*
X69000Y64075D02*
X68990D01*
Y63500D01*
Y62925D01*
X69000D01*
Y62500D01*
X69500D01*
Y61875D01*
X69315D01*
Y61450D01*
X69150D01*
Y61285D01*
X68250D01*
Y61025D01*
X68250Y61025D01*
X68255Y60965D01*
X69150D01*
Y60635D01*
X68184D01*
X68156Y60600D01*
X67300D01*
Y64500D01*
X65125D01*
X62950D01*
Y60600D01*
X62100D01*
Y70800D01*
X69000D01*
Y64075D01*
D02*
G37*
%LPC*%
G36*
X83775Y74650D02*
X83100D01*
Y74050D01*
X83775D01*
Y74650D01*
D02*
G37*
G36*
X81700D02*
X81025D01*
Y74050D01*
X81700D01*
Y74650D01*
D02*
G37*
G36*
X91300Y74613D02*
Y73800D01*
X92113D01*
X92004Y74005D01*
X91779Y74279D01*
X91505Y74504D01*
X91300Y74613D01*
D02*
G37*
G36*
X89700D02*
X89495Y74504D01*
X89221Y74279D01*
X88996Y74005D01*
X88887Y73800D01*
X89700D01*
Y74613D01*
D02*
G37*
G36*
X53300D02*
Y73800D01*
X54113D01*
X54004Y74005D01*
X53779Y74279D01*
X53505Y74504D01*
X53300Y74613D01*
D02*
G37*
G36*
X51700D02*
X51495Y74504D01*
X51221Y74279D01*
X50996Y74005D01*
X50887Y73800D01*
X51700D01*
Y74613D01*
D02*
G37*
G36*
X83775Y72650D02*
X83100D01*
Y72050D01*
X83775D01*
Y72650D01*
D02*
G37*
G36*
X81700D02*
X81025D01*
Y72050D01*
X81700D01*
Y72650D01*
D02*
G37*
G36*
X92113Y72200D02*
X91300D01*
Y71387D01*
X91505Y71496D01*
X91779Y71721D01*
X92004Y71995D01*
X92113Y72200D01*
D02*
G37*
G36*
X89700D02*
X88887D01*
X88996Y71995D01*
X89221Y71721D01*
X89495Y71496D01*
X89700Y71387D01*
Y72200D01*
D02*
G37*
G36*
X54113D02*
X53300D01*
Y71387D01*
X53505Y71496D01*
X53779Y71721D01*
X54004Y71995D01*
X54113Y72200D01*
D02*
G37*
G36*
X51700D02*
X50887D01*
X50996Y71995D01*
X51221Y71721D01*
X51495Y71496D01*
X51700Y71387D01*
Y72200D01*
D02*
G37*
G36*
X75465Y65655D02*
Y65315D01*
X75845D01*
X75827Y65406D01*
X75738Y65538D01*
X75606Y65627D01*
X75465Y65655D01*
D02*
G37*
G36*
X74935Y65655D02*
X74794Y65627D01*
X74661Y65538D01*
X74573Y65406D01*
X74555Y65315D01*
X74935D01*
Y65655D01*
D02*
G37*
G36*
X75525Y61883D02*
X75215D01*
Y61615D01*
X75926D01*
X75925Y61616D01*
X75831Y61756D01*
X75691Y61850D01*
X75525Y61883D01*
D02*
G37*
G36*
X74885D02*
X74575D01*
X74409Y61850D01*
X74269Y61756D01*
X74175Y61616D01*
X74174Y61615D01*
X74885D01*
Y61883D01*
D02*
G37*
G36*
X75926Y61285D02*
X75050D01*
X74174D01*
X74175Y61284D01*
X74269Y61144D01*
Y61106D01*
X74175Y60966D01*
X74174Y60965D01*
X75050D01*
X75926D01*
X75925Y60966D01*
X75831Y61106D01*
Y61144D01*
X75925Y61284D01*
X75926Y61285D01*
D02*
G37*
G36*
X90100Y61060D02*
X89529D01*
X89583Y60930D01*
X89751Y60711D01*
X89970Y60543D01*
X90100Y60489D01*
Y61060D01*
D02*
G37*
G36*
X91471D02*
X90900D01*
Y60489D01*
X91030Y60543D01*
X91249Y60711D01*
X91417Y60930D01*
X91471Y61060D01*
D02*
G37*
G36*
X73800Y61250D02*
X73000D01*
Y60400D01*
X73800D01*
Y61250D01*
D02*
G37*
G36*
X71200D02*
X70400D01*
Y60400D01*
X71200D01*
Y61250D01*
D02*
G37*
G36*
X75926Y60635D02*
X75050D01*
X74174D01*
X74175Y60634D01*
X74269Y60494D01*
Y60456D01*
X74175Y60316D01*
X74174Y60315D01*
X75050D01*
X75925D01*
X75925Y60316D01*
X75831Y60456D01*
Y60494D01*
X75925Y60634D01*
X75926Y60635D01*
D02*
G37*
G36*
X79350Y60650D02*
X79015D01*
Y60265D01*
X79350D01*
Y60650D01*
D02*
G37*
G36*
X78485D02*
X78150D01*
Y60265D01*
X78485D01*
Y60650D01*
D02*
G37*
G36*
X52550Y60355D02*
Y59780D01*
X53125D01*
X53092Y59860D01*
X52892Y60122D01*
X52630Y60322D01*
X52550Y60355D01*
D02*
G37*
G36*
X51450D02*
X51370Y60322D01*
X51108Y60122D01*
X50908Y59860D01*
X50875Y59780D01*
X51450D01*
Y60355D01*
D02*
G37*
G36*
X75926Y59985D02*
X75050D01*
X74174D01*
X74175Y59984D01*
X74215Y59923D01*
X74260Y59825D01*
X74215Y59727D01*
X74189Y59688D01*
X74175Y59666D01*
X74174Y59665D01*
X75050D01*
X75926D01*
X75925Y59666D01*
X75885Y59727D01*
X75840Y59825D01*
X75885Y59923D01*
X75925Y59984D01*
X75926Y59985D01*
D02*
G37*
G36*
X79350Y59735D02*
X79015D01*
Y59350D01*
X79350D01*
Y59735D01*
D02*
G37*
G36*
X78485D02*
X78150D01*
Y59350D01*
X78485D01*
Y59735D01*
D02*
G37*
G36*
X90900Y59891D02*
Y59320D01*
X91471D01*
X91417Y59450D01*
X91249Y59669D01*
X91030Y59837D01*
X90900Y59891D01*
D02*
G37*
G36*
X90100Y59891D02*
X89970Y59837D01*
X89751Y59669D01*
X89583Y59450D01*
X89529Y59320D01*
X90100D01*
Y59891D01*
D02*
G37*
G36*
X77850Y60650D02*
X76650D01*
Y59897D01*
X76034Y59281D01*
X75986Y59305D01*
X75952Y59335D01*
X75050D01*
X74174D01*
X74175Y59334D01*
X74269Y59194D01*
Y59156D01*
X74175Y59016D01*
X74142Y58850D01*
X74175Y58684D01*
X74269Y58544D01*
Y58506D01*
X74175Y58366D01*
X74142Y58200D01*
X74175Y58034D01*
X74269Y57894D01*
Y57856D01*
X74175Y57716D01*
X74142Y57550D01*
X74175Y57384D01*
X74269Y57244D01*
X74409Y57150D01*
X74575Y57117D01*
X74617D01*
Y56625D01*
X74350D01*
Y55425D01*
X75650D01*
Y56625D01*
X75283D01*
Y57117D01*
X75525D01*
X75691Y57150D01*
X75831Y57244D01*
X75925Y57384D01*
X75958Y57550D01*
X75925Y57716D01*
X75909Y57740D01*
X75977Y57867D01*
X76650D01*
Y57350D01*
X76892D01*
Y56650D01*
X76650D01*
Y55350D01*
X77850D01*
Y56650D01*
X77558D01*
Y57350D01*
X77850D01*
Y58650D01*
X76650D01*
Y58533D01*
X76410D01*
X76357Y58660D01*
X77046Y59350D01*
X77850D01*
Y59800D01*
Y60650D01*
D02*
G37*
G36*
X57800Y59399D02*
Y58800D01*
X58209D01*
Y58950D01*
X58174Y59126D01*
X58074Y59274D01*
X57926Y59374D01*
X57800Y59399D01*
D02*
G37*
G36*
X53125Y58680D02*
X52550D01*
Y58105D01*
X52630Y58138D01*
X52892Y58338D01*
X53092Y58600D01*
X53125Y58680D01*
D02*
G37*
G36*
X51450D02*
X50875D01*
X50908Y58600D01*
X51108Y58338D01*
X51370Y58138D01*
X51450Y58105D01*
Y58680D01*
D02*
G37*
G36*
X90100Y58520D02*
X89529D01*
X89583Y58390D01*
X89751Y58171D01*
X89970Y58003D01*
X90100Y57949D01*
Y58520D01*
D02*
G37*
G36*
X91471D02*
X90900D01*
Y57949D01*
X91030Y58003D01*
X91249Y58171D01*
X91417Y58390D01*
X91471Y58520D01*
D02*
G37*
G36*
X73800Y58600D02*
X73000D01*
Y57750D01*
X73800D01*
Y58600D01*
D02*
G37*
G36*
X71200D02*
X70400D01*
Y57750D01*
X71200D01*
Y58600D01*
D02*
G37*
G36*
X70026Y58035D02*
X69150D01*
X68274D01*
X68275Y58034D01*
X68369Y57894D01*
Y57856D01*
X68275Y57716D01*
X68274Y57715D01*
X69150D01*
X70026D01*
X70025Y57716D01*
X69931Y57856D01*
Y57894D01*
X70025Y58034D01*
X70026Y58035D01*
D02*
G37*
G36*
X58209Y58200D02*
X57800D01*
Y57601D01*
X57926Y57626D01*
X58074Y57726D01*
X58174Y57874D01*
X58209Y58050D01*
Y58200D01*
D02*
G37*
G36*
X70026Y57385D02*
X69315D01*
Y57117D01*
X69625D01*
X69791Y57150D01*
X69931Y57244D01*
X70025Y57384D01*
X70026Y57385D01*
D02*
G37*
G36*
X68985D02*
X68274D01*
X68275Y57384D01*
X68353Y57267D01*
X68369Y57244D01*
X68509Y57150D01*
X68675Y57117D01*
X68985D01*
Y57385D01*
D02*
G37*
G36*
X67265Y56855D02*
Y56515D01*
X67645D01*
X67627Y56606D01*
X67539Y56738D01*
X67487Y56773D01*
D01*
X67406Y56827D01*
X67265Y56855D01*
D02*
G37*
G36*
X66735D02*
X66594Y56827D01*
X66514Y56773D01*
D01*
X66462Y56738D01*
X66373Y56606D01*
X66355Y56515D01*
X66735D01*
Y56855D01*
D02*
G37*
G36*
X79350Y56650D02*
X79015D01*
Y56265D01*
X79350D01*
Y56650D01*
D02*
G37*
G36*
X78485D02*
X78150D01*
Y56265D01*
X78485D01*
Y56650D01*
D02*
G37*
G36*
X67645Y55985D02*
X67265D01*
Y55645D01*
X67406Y55673D01*
X67539Y55762D01*
X67627Y55894D01*
X67645Y55985D01*
D02*
G37*
G36*
X66735D02*
X66355D01*
X66373Y55894D01*
X66462Y55762D01*
X66594Y55673D01*
X66735Y55645D01*
Y55985D01*
D02*
G37*
G36*
X79350Y55735D02*
X79015D01*
Y55350D01*
X79350D01*
Y55735D01*
D02*
G37*
G36*
X78485D02*
X78150D01*
Y55350D01*
X78485D01*
Y55735D01*
D02*
G37*
G36*
X85150Y58350D02*
X83850D01*
Y57150D01*
X84167D01*
Y56425D01*
X83825D01*
Y55225D01*
X85175D01*
Y56425D01*
X84833D01*
Y57150D01*
X85150D01*
Y58350D01*
D02*
G37*
G36*
X62750Y56300D02*
X62000D01*
Y55200D01*
X62750D01*
Y56300D01*
D02*
G37*
G36*
X60600D02*
X59850D01*
Y55200D01*
X60600D01*
Y56300D01*
D02*
G37*
G36*
X85175Y54775D02*
X84765D01*
Y54440D01*
X85175D01*
Y54775D01*
D02*
G37*
G36*
X84235D02*
X83825D01*
Y54440D01*
X84235D01*
Y54775D01*
D02*
G37*
G36*
X91300Y54613D02*
Y53800D01*
X92113D01*
X92004Y54005D01*
X91779Y54279D01*
X91505Y54504D01*
X91300Y54613D01*
D02*
G37*
G36*
X89700D02*
X89495Y54504D01*
X89221Y54279D01*
X88996Y54005D01*
X88887Y53800D01*
X89700D01*
Y54613D01*
D02*
G37*
G36*
X51700D02*
X51495Y54504D01*
X51221Y54279D01*
X50996Y54005D01*
X50887Y53800D01*
X51700D01*
Y54613D01*
D02*
G37*
G36*
X85175Y53910D02*
X84765D01*
Y53575D01*
X85175D01*
Y53910D01*
D02*
G37*
G36*
X84235D02*
X83825D01*
Y53575D01*
X84235D01*
Y53910D01*
D02*
G37*
G36*
X62750Y53800D02*
X62000D01*
Y52700D01*
X62750D01*
Y53800D01*
D02*
G37*
G36*
X60600D02*
X59850D01*
Y52700D01*
X60600D01*
Y53800D01*
D02*
G37*
G36*
X73715Y52745D02*
Y52365D01*
X74055D01*
X74027Y52506D01*
X73938Y52638D01*
X73806Y52727D01*
X73715Y52745D01*
D02*
G37*
G36*
X73185D02*
X73094Y52727D01*
X72962Y52638D01*
X72873Y52506D01*
X72845Y52365D01*
X73185D01*
Y52745D01*
D02*
G37*
G36*
Y51835D02*
X72845D01*
X72873Y51694D01*
X72962Y51561D01*
X73094Y51473D01*
X73185Y51455D01*
Y51835D01*
D02*
G37*
G36*
X74055D02*
X73715D01*
Y51455D01*
X73806Y51473D01*
X73938Y51561D01*
X74027Y51694D01*
X74055Y51835D01*
D02*
G37*
G36*
X75650Y55125D02*
X74350D01*
Y53925D01*
X74667D01*
Y52741D01*
X74594Y52727D01*
X74462Y52638D01*
X74373Y52506D01*
X74342Y52350D01*
Y51850D01*
X74373Y51694D01*
X74462Y51562D01*
X74594Y51473D01*
X74750Y51442D01*
X75150D01*
X75306Y51473D01*
X75438Y51562D01*
X75527Y51694D01*
X75558Y51850D01*
Y52350D01*
X75527Y52506D01*
X75438Y52638D01*
X75333Y52709D01*
Y53925D01*
X75650D01*
Y55125D01*
D02*
G37*
G36*
X92113Y52200D02*
X91300D01*
Y51387D01*
X91505Y51496D01*
X91779Y51721D01*
X92004Y51995D01*
X92113Y52200D01*
D02*
G37*
G36*
X89700D02*
X88887D01*
X88996Y51995D01*
X89221Y51721D01*
X89495Y51496D01*
X89700Y51387D01*
Y52200D01*
D02*
G37*
G36*
X51700D02*
X50887D01*
X50996Y51995D01*
X51221Y51721D01*
X51495Y51496D01*
X51700Y51387D01*
Y52200D01*
D02*
G37*
G36*
X91550Y66140D02*
X90900D01*
Y65490D01*
X91550D01*
Y66140D01*
D02*
G37*
G36*
X90100D02*
X89450D01*
Y65490D01*
X90100D01*
Y66140D01*
D02*
G37*
G36*
X90900Y64971D02*
Y64400D01*
X91471D01*
X91417Y64530D01*
X91249Y64749D01*
X91030Y64917D01*
X90900Y64971D01*
D02*
G37*
G36*
X90100Y64971D02*
X89970Y64917D01*
X89751Y64749D01*
X89583Y64530D01*
X89529Y64400D01*
X90100D01*
Y64971D01*
D02*
G37*
G36*
Y63600D02*
X89529D01*
X89583Y63470D01*
X89751Y63251D01*
X89970Y63083D01*
X90100Y63029D01*
Y63600D01*
D02*
G37*
G36*
X91471D02*
X90900D01*
Y63029D01*
X91030Y63083D01*
X91249Y63251D01*
X91417Y63470D01*
X91471Y63600D01*
D02*
G37*
G36*
X75845Y63285D02*
X75465D01*
Y62945D01*
X75606Y62973D01*
X75738Y63062D01*
X75827Y63194D01*
X75845Y63285D01*
D02*
G37*
G36*
X74935D02*
X74555D01*
X74573Y63194D01*
X74662Y63062D01*
X74794Y62973D01*
X74935Y62945D01*
Y63285D01*
D02*
G37*
G36*
X85150Y59850D02*
X84765D01*
Y59515D01*
X85150D01*
Y59850D01*
D02*
G37*
G36*
X84235D02*
X83850D01*
Y59515D01*
X84235D01*
Y59850D01*
D02*
G37*
G36*
X61050Y70550D02*
X59875D01*
Y66500D01*
X61050D01*
Y70550D01*
D02*
G37*
G36*
X57875D02*
X56700D01*
Y66500D01*
X57875D01*
Y70550D01*
D02*
G37*
G36*
X53250Y63020D02*
X52550D01*
Y62320D01*
X53250D01*
Y63020D01*
D02*
G37*
G36*
X51450D02*
X50750D01*
Y62320D01*
X51450D01*
Y63020D01*
D02*
G37*
G36*
X61050Y64500D02*
X59875D01*
Y60450D01*
X61050D01*
Y64500D01*
D02*
G37*
G36*
X57875D02*
X56700D01*
Y60450D01*
X57875D01*
Y64500D01*
D02*
G37*
G36*
X55500Y59399D02*
X55374Y59374D01*
X55226Y59274D01*
X55126Y59126D01*
X55091Y58950D01*
Y58800D01*
X55500D01*
Y59399D01*
D02*
G37*
G36*
Y58200D02*
X55091D01*
Y58050D01*
X55126Y57874D01*
X55226Y57726D01*
X55374Y57626D01*
X55500Y57601D01*
Y58200D01*
D02*
G37*
G36*
X67300Y70550D02*
X66125D01*
Y66500D01*
X67300D01*
Y70550D01*
D02*
G37*
G36*
X64125D02*
X62950D01*
Y66500D01*
X64125D01*
Y70550D01*
D02*
G37*
G36*
X68460Y64075D02*
X68125D01*
Y63765D01*
X68460D01*
Y64075D01*
D02*
G37*
G36*
Y63235D02*
X68125D01*
Y62925D01*
X68460D01*
Y63235D01*
D02*
G37*
G36*
X68985Y61875D02*
X68250D01*
Y61615D01*
X68985D01*
Y61875D01*
D02*
G37*
%LPD*%
D13*
X74950Y58850D02*
X75050D01*
X76075D01*
X75050Y58200D02*
X77025D01*
X75050D02*
X77025D01*
X74950Y57450D02*
Y57550D01*
X75000Y52150D02*
Y54500D01*
X82600Y58500D02*
Y61400D01*
X82100Y58000D02*
X82600Y58500D01*
X78775Y58000D02*
X82100D01*
X84500Y55825D02*
Y57725D01*
X74950Y58200D02*
X75050D01*
X67250Y58850D02*
X69050D01*
X67000Y58600D02*
X67250Y58850D01*
X67000Y57750D02*
Y58600D01*
X77225Y56000D02*
Y58000D01*
X74950Y56100D02*
Y57450D01*
X77025Y58200D02*
X77225Y58000D01*
X74950Y58200D02*
X75050D01*
X76075Y58850D02*
X77225Y60000D01*
D32*
X72275Y63500D02*
D03*
X68725D02*
D03*
D33*
X55700Y54500D02*
D03*
X61300D02*
D03*
D34*
X84500Y59250D02*
D03*
X84500Y57750D02*
D03*
X75000Y56025D02*
D03*
X75000Y54525D02*
D03*
D35*
X77250Y56000D02*
D03*
X78750Y56000D02*
D03*
Y58000D02*
D03*
X77250Y58000D02*
D03*
Y60000D02*
D03*
X78750Y60000D02*
D03*
D36*
X67000Y56250D02*
D03*
X67000Y57750D02*
D03*
X75200Y63550D02*
D03*
X75200Y65050D02*
D03*
D37*
X69150Y61450D02*
D03*
D38*
Y60800D02*
D03*
Y60150D02*
D03*
Y59500D02*
D03*
Y58850D02*
D03*
Y58200D02*
D03*
Y57550D02*
D03*
X75050Y61450D02*
D03*
Y60800D02*
D03*
Y60150D02*
D03*
Y59500D02*
D03*
Y58850D02*
D03*
Y58200D02*
D03*
Y57550D02*
D03*
D39*
X72100Y59500D02*
D03*
D40*
X65125Y65500D02*
D03*
X58875D02*
D03*
D41*
X84500Y55825D02*
D03*
Y54175D02*
D03*
D42*
X55800Y58500D02*
D03*
X57500D02*
D03*
D43*
X74950Y52100D02*
D03*
X73450Y52100D02*
D03*
D44*
X82400Y73350D02*
D03*
Y63050D02*
D03*
D45*
X90500Y73000D02*
D03*
Y53000D02*
D03*
X52500D02*
D03*
Y73000D02*
D03*
D46*
X90500Y58920D02*
D03*
Y61460D02*
D03*
Y64000D02*
D03*
D47*
Y66540D02*
D03*
D48*
X52000Y61770D02*
D03*
D49*
Y59230D02*
D03*
D50*
X90000Y69000D02*
D03*
X91500Y60000D02*
D03*
X90000Y57000D02*
D03*
Y51000D02*
D03*
X88500Y72000D02*
D03*
X87000Y69000D02*
D03*
X88500Y60000D02*
D03*
X87000Y57000D02*
D03*
X88500Y54000D02*
D03*
X87000Y51000D02*
D03*
X85500Y72000D02*
D03*
X84000Y69000D02*
D03*
X85500Y66000D02*
D03*
Y54000D02*
D03*
X84000Y51000D02*
D03*
X81000Y69000D02*
D03*
X82500Y66000D02*
D03*
X81000Y57000D02*
D03*
X82500Y54000D02*
D03*
X81000Y51000D02*
D03*
X79500Y72000D02*
D03*
X78000Y69000D02*
D03*
X79500Y66000D02*
D03*
X78000Y57000D02*
D03*
X79500Y54000D02*
D03*
X78000Y51000D02*
D03*
X76500Y72000D02*
D03*
X75000Y69000D02*
D03*
X76500Y66000D02*
D03*
Y54000D02*
D03*
X75000Y51000D02*
D03*
X73500Y72000D02*
D03*
X72000Y69000D02*
D03*
X73500Y66000D02*
D03*
X72000Y57000D02*
D03*
X73500Y54000D02*
D03*
X72000Y51000D02*
D03*
X70500Y72000D02*
D03*
Y66000D02*
D03*
Y54000D02*
D03*
X69000Y51000D02*
D03*
X67500Y72000D02*
D03*
X66000Y57000D02*
D03*
X67500Y54000D02*
D03*
X66000Y51000D02*
D03*
X64500Y72000D02*
D03*
X63000Y57000D02*
D03*
X64500Y54000D02*
D03*
X63000Y51000D02*
D03*
X61500Y72000D02*
D03*
X60000Y57000D02*
D03*
Y51000D02*
D03*
X58500Y72000D02*
D03*
Y54000D02*
D03*
X57000Y51000D02*
D03*
X55500Y72000D02*
D03*
X54000Y69000D02*
D03*
Y57000D02*
D03*
Y51000D02*
D03*
X51000Y69000D02*
D03*
X52500Y66000D02*
D03*
X51000Y57000D02*
D03*
Y51000D02*
D03*
X71400Y58900D02*
D03*
X72800D02*
D03*
Y60100D02*
D03*
X71400D02*
D03*
M02*
