G04*
G04 #@! TF.GenerationSoftware,Altium Limited,Altium Designer,19.1.6 (110)*
G04*
G04 Layer_Color=16711935*
%FSLAX43Y43*%
%MOMM*%
G71*
G01*
G75*
%ADD31C,5.100*%
%ADD32C,2.300*%
%ADD55C,0.700*%
D31*
X53700Y86100D02*
D03*
X53900Y53900D02*
D03*
X106400Y53800D02*
D03*
X106700Y86400D02*
D03*
D32*
X102600Y63384D02*
D03*
Y66890D02*
D03*
Y73900D02*
D03*
Y70395D02*
D03*
X58202Y71753D02*
D03*
Y68247D02*
D03*
D55*
X109500Y84000D02*
D03*
X108000Y81000D02*
D03*
X109500Y78000D02*
D03*
X108000Y75000D02*
D03*
X109500Y72000D02*
D03*
X108000Y69000D02*
D03*
X109500Y66000D02*
D03*
X108000Y63000D02*
D03*
X109500Y60000D02*
D03*
X108000Y57000D02*
D03*
X109500Y54000D02*
D03*
X108000Y51000D02*
D03*
X105000Y81000D02*
D03*
X106500Y78000D02*
D03*
X105000Y75000D02*
D03*
X106500Y72000D02*
D03*
X105000Y69000D02*
D03*
X106500Y66000D02*
D03*
X105000Y63000D02*
D03*
X106500Y60000D02*
D03*
X105000Y57000D02*
D03*
X102000Y87000D02*
D03*
X103500Y84000D02*
D03*
Y60000D02*
D03*
X102000Y57000D02*
D03*
Y51000D02*
D03*
X99000Y87000D02*
D03*
X100500Y84000D02*
D03*
X99000Y81000D02*
D03*
Y69000D02*
D03*
X100500Y66000D02*
D03*
X99000Y63000D02*
D03*
X100500Y60000D02*
D03*
X99000Y57000D02*
D03*
X100500Y54000D02*
D03*
X99000Y51000D02*
D03*
X96000Y87000D02*
D03*
X97500Y84000D02*
D03*
X96000Y81000D02*
D03*
Y69000D02*
D03*
X97500Y66000D02*
D03*
X96000Y63000D02*
D03*
X97500Y60000D02*
D03*
X96000Y57000D02*
D03*
X97500Y54000D02*
D03*
X96000Y51000D02*
D03*
X93000Y87000D02*
D03*
X94500Y84000D02*
D03*
X93000Y81000D02*
D03*
X94500Y60000D02*
D03*
X93000Y57000D02*
D03*
X94500Y54000D02*
D03*
X93000Y51000D02*
D03*
X91500Y84000D02*
D03*
X90000Y81000D02*
D03*
X91500Y78000D02*
D03*
X90000Y69000D02*
D03*
X91500Y66000D02*
D03*
X90000Y63000D02*
D03*
X91500Y60000D02*
D03*
X90000Y57000D02*
D03*
X91500Y54000D02*
D03*
X90000Y51000D02*
D03*
X87000Y87000D02*
D03*
X88500Y84000D02*
D03*
X87000Y81000D02*
D03*
Y63000D02*
D03*
X88500Y60000D02*
D03*
X87000Y57000D02*
D03*
X88500Y54000D02*
D03*
X87000Y51000D02*
D03*
X84000Y87000D02*
D03*
X85500Y84000D02*
D03*
X84000Y81000D02*
D03*
X85500Y78000D02*
D03*
X84000Y75000D02*
D03*
X85500Y72000D02*
D03*
X84000Y63000D02*
D03*
X85500Y60000D02*
D03*
X84000Y57000D02*
D03*
X85500Y54000D02*
D03*
X84000Y51000D02*
D03*
X81000Y87000D02*
D03*
X82500Y84000D02*
D03*
X81000Y81000D02*
D03*
X82500Y78000D02*
D03*
X81000Y75000D02*
D03*
X82500Y72000D02*
D03*
Y60000D02*
D03*
Y54000D02*
D03*
X79500Y84000D02*
D03*
Y78000D02*
D03*
X78000Y75000D02*
D03*
X79500Y72000D02*
D03*
Y54000D02*
D03*
X78000Y51000D02*
D03*
X76500Y78000D02*
D03*
X75000Y75000D02*
D03*
X76500Y54000D02*
D03*
X75000Y51000D02*
D03*
X72000Y87000D02*
D03*
X73500Y84000D02*
D03*
X72000Y81000D02*
D03*
X73500Y78000D02*
D03*
X72000Y75000D02*
D03*
X73500Y72000D02*
D03*
X72000Y69000D02*
D03*
X73500Y66000D02*
D03*
Y54000D02*
D03*
X69000Y87000D02*
D03*
X70500Y84000D02*
D03*
X69000Y81000D02*
D03*
X70500Y78000D02*
D03*
X69000Y75000D02*
D03*
X70500Y72000D02*
D03*
X69000Y69000D02*
D03*
X70500Y66000D02*
D03*
X69000Y57000D02*
D03*
X70500Y54000D02*
D03*
X69000Y51000D02*
D03*
X66000Y87000D02*
D03*
X67500Y84000D02*
D03*
X66000Y81000D02*
D03*
X67500Y78000D02*
D03*
X66000Y75000D02*
D03*
X67500Y72000D02*
D03*
X66000Y57000D02*
D03*
X67500Y54000D02*
D03*
X66000Y51000D02*
D03*
X63000Y87000D02*
D03*
X64500Y84000D02*
D03*
X63000Y81000D02*
D03*
X64500Y78000D02*
D03*
X63000Y75000D02*
D03*
X64500Y72000D02*
D03*
X63000Y69000D02*
D03*
X64500Y60000D02*
D03*
X63000Y57000D02*
D03*
X64500Y54000D02*
D03*
X63000Y51000D02*
D03*
X60000Y87000D02*
D03*
X61500Y84000D02*
D03*
X60000Y81000D02*
D03*
X61500Y78000D02*
D03*
X60000Y75000D02*
D03*
X61500Y60000D02*
D03*
X60000Y57000D02*
D03*
X61500Y54000D02*
D03*
X60000Y51000D02*
D03*
X57000Y87000D02*
D03*
X58500Y84000D02*
D03*
X57000Y81000D02*
D03*
X58500Y78000D02*
D03*
X57000Y75000D02*
D03*
X58500Y66000D02*
D03*
X57000Y63000D02*
D03*
X58500Y60000D02*
D03*
X57000Y57000D02*
D03*
X58500Y54000D02*
D03*
X57000Y51000D02*
D03*
X54000Y81000D02*
D03*
X55500Y78000D02*
D03*
X54000Y75000D02*
D03*
X55500Y72000D02*
D03*
X54000Y69000D02*
D03*
X55500Y66000D02*
D03*
X54000Y63000D02*
D03*
X55500Y60000D02*
D03*
X54000Y57000D02*
D03*
X51000Y81000D02*
D03*
X52500Y78000D02*
D03*
X51000Y75000D02*
D03*
X52500Y72000D02*
D03*
X51000Y69000D02*
D03*
X52500Y66000D02*
D03*
X51000Y63000D02*
D03*
X52500Y60000D02*
D03*
X51000Y57000D02*
D03*
Y51000D02*
D03*
M02*
