G04*
G04 #@! TF.GenerationSoftware,Altium Limited,Altium Designer,19.1.6 (110)*
G04*
G04 Layer_Physical_Order=2*
G04 Layer_Color=16711680*
%FSLAX43Y43*%
%MOMM*%
G71*
G01*
G75*
%ADD51C,0.300*%
%ADD52C,5.000*%
%ADD53C,2.200*%
%ADD54C,0.600*%
G36*
X110445Y50255D02*
X50255D01*
Y89745D01*
X110445D01*
Y50255D01*
D02*
G37*
%LPC*%
G36*
X107700Y89125D02*
Y87400D01*
X109425D01*
X109292Y87721D01*
X109053Y88110D01*
X108757Y88457D01*
X108410Y88753D01*
X108021Y88992D01*
X107700Y89125D01*
D02*
G37*
G36*
X105700D02*
X105379Y88992D01*
X104990Y88753D01*
X104643Y88457D01*
X104347Y88110D01*
X104108Y87721D01*
X103975Y87400D01*
X105700D01*
Y89125D01*
D02*
G37*
G36*
X54700Y88825D02*
Y87100D01*
X56425D01*
X56292Y87421D01*
X56053Y87810D01*
X55757Y88157D01*
X55410Y88453D01*
X55021Y88692D01*
X54700Y88825D01*
D02*
G37*
G36*
X52700D02*
X52379Y88692D01*
X51990Y88453D01*
X51643Y88157D01*
X51347Y87810D01*
X51108Y87421D01*
X50975Y87100D01*
X52700D01*
Y88825D01*
D02*
G37*
G36*
X109425Y85400D02*
X107700D01*
Y83675D01*
X108021Y83808D01*
X108410Y84047D01*
X108757Y84343D01*
X109053Y84690D01*
X109292Y85079D01*
X109425Y85400D01*
D02*
G37*
G36*
X105700D02*
X103975D01*
X104108Y85079D01*
X104347Y84690D01*
X104643Y84343D01*
X104990Y84047D01*
X105379Y83808D01*
X105700Y83675D01*
Y85400D01*
D02*
G37*
G36*
X56425Y85100D02*
X54700D01*
Y83375D01*
X55021Y83508D01*
X55410Y83747D01*
X55757Y84043D01*
X56053Y84390D01*
X56292Y84779D01*
X56425Y85100D01*
D02*
G37*
G36*
X52700D02*
X50975D01*
X51108Y84779D01*
X51347Y84390D01*
X51643Y84043D01*
X51990Y83747D01*
X52379Y83508D01*
X52700Y83375D01*
Y85100D01*
D02*
G37*
G36*
X102600Y75211D02*
X102261Y75167D01*
X101944Y75036D01*
X101673Y74827D01*
X101464Y74556D01*
X101333Y74239D01*
X101289Y73900D01*
X101333Y73561D01*
X101464Y73244D01*
X101673Y72973D01*
X101944Y72764D01*
X102261Y72633D01*
X102600Y72589D01*
X102939Y72633D01*
X103256Y72764D01*
X103527Y72973D01*
X103736Y73244D01*
X103867Y73561D01*
X103911Y73900D01*
X103867Y74239D01*
X103736Y74556D01*
X103527Y74827D01*
X103256Y75036D01*
X102939Y75167D01*
X102600Y75211D01*
D02*
G37*
G36*
X58202Y73064D02*
X57863Y73019D01*
X57546Y72888D01*
X57275Y72680D01*
X57066Y72408D01*
X56935Y72092D01*
X56891Y71753D01*
X56935Y71413D01*
X57066Y71097D01*
X57275Y70825D01*
X57546Y70617D01*
X57863Y70486D01*
X58202Y70441D01*
X58541Y70486D01*
X58858Y70617D01*
X59129Y70825D01*
X59338Y71097D01*
X59469Y71413D01*
X59513Y71753D01*
X59469Y72092D01*
X59338Y72408D01*
X59129Y72680D01*
X58858Y72888D01*
X58541Y73019D01*
X58202Y73064D01*
D02*
G37*
G36*
X102600Y71706D02*
X102261Y71661D01*
X101944Y71530D01*
X101673Y71322D01*
X101464Y71050D01*
X101333Y70734D01*
X101289Y70395D01*
X101333Y70055D01*
X101464Y69739D01*
X101673Y69468D01*
X101944Y69259D01*
X102261Y69128D01*
X102600Y69084D01*
X102939Y69128D01*
X103256Y69259D01*
X103527Y69468D01*
X103736Y69739D01*
X103867Y70055D01*
X103911Y70395D01*
X103867Y70734D01*
X103736Y71050D01*
X103527Y71322D01*
X103256Y71530D01*
X102939Y71661D01*
X102600Y71706D01*
D02*
G37*
G36*
X58802Y69514D02*
Y68847D01*
X59469D01*
X59425Y68953D01*
X59200Y69246D01*
X58908Y69470D01*
X58802Y69514D01*
D02*
G37*
G36*
X57602Y69514D02*
X57496Y69470D01*
X57204Y69246D01*
X56979Y68953D01*
X56935Y68847D01*
X57602D01*
Y69514D01*
D02*
G37*
G36*
X103200Y68156D02*
Y67490D01*
X103867D01*
X103823Y67596D01*
X103598Y67888D01*
X103306Y68113D01*
X103200Y68156D01*
D02*
G37*
G36*
X102000Y68156D02*
X101894Y68113D01*
X101602Y67888D01*
X101377Y67596D01*
X101333Y67490D01*
X102000D01*
Y68156D01*
D02*
G37*
G36*
X57602Y67647D02*
X56935D01*
X56979Y67541D01*
X57204Y67249D01*
X57496Y67024D01*
X57602Y66981D01*
Y67647D01*
D02*
G37*
G36*
X59469D02*
X58802D01*
Y66981D01*
X58908Y67024D01*
X59200Y67249D01*
X59425Y67541D01*
X59469Y67647D01*
D02*
G37*
G36*
X102000Y66290D02*
X101333D01*
X101377Y66184D01*
X101602Y65891D01*
X101894Y65667D01*
X102000Y65623D01*
Y66290D01*
D02*
G37*
G36*
X103867D02*
X103200D01*
Y65623D01*
X103306Y65667D01*
X103598Y65891D01*
X103823Y66184D01*
X103867Y66290D01*
D02*
G37*
G36*
X103200Y64651D02*
Y63984D01*
X103867D01*
X103823Y64090D01*
X103598Y64383D01*
X103306Y64607D01*
X103200Y64651D01*
D02*
G37*
G36*
X102000D02*
X101894Y64607D01*
X101602Y64383D01*
X101377Y64090D01*
X101333Y63984D01*
X102000D01*
Y64651D01*
D02*
G37*
G36*
X73912Y64704D02*
X73886Y64699D01*
X73859Y64697D01*
X73847Y64691D01*
X73834Y64688D01*
X73812Y64673D01*
X73788Y64661D01*
X71076Y62562D01*
X68976Y60962D01*
X68967Y60952D01*
X68956Y60944D01*
X68941Y60922D01*
X68924Y60903D01*
X68919Y60890D01*
X68912Y60878D01*
X68906Y60852D01*
X68898Y60827D01*
X68899Y60814D01*
X68896Y60800D01*
X68896Y59400D01*
Y59200D01*
Y59100D01*
X68912Y59022D01*
X68956Y58956D01*
X69022Y58912D01*
X69100Y58896D01*
X77600D01*
X77678Y58912D01*
X77744Y58956D01*
X77788Y59022D01*
X77804Y59100D01*
X77804Y62443D01*
X81137D01*
X81140Y62440D01*
X81305Y62329D01*
X81500Y62290D01*
X81695Y62329D01*
X81860Y62440D01*
X81971Y62605D01*
X82010Y62800D01*
X81971Y62995D01*
X81860Y63160D01*
X81695Y63271D01*
X81500Y63310D01*
X81305Y63271D01*
X81140Y63160D01*
X81137Y63157D01*
X77804D01*
X77804Y64500D01*
X77788Y64578D01*
X77744Y64644D01*
X77678Y64688D01*
X77600Y64704D01*
X73912Y64704D01*
D02*
G37*
G36*
X103867Y62784D02*
X103200D01*
Y62118D01*
X103306Y62161D01*
X103598Y62386D01*
X103823Y62678D01*
X103867Y62784D01*
D02*
G37*
G36*
X102000D02*
X101333D01*
X101377Y62678D01*
X101602Y62386D01*
X101894Y62161D01*
X102000Y62118D01*
Y62784D01*
D02*
G37*
G36*
X54900Y56625D02*
Y54900D01*
X56625D01*
X56492Y55221D01*
X56253Y55610D01*
X55957Y55957D01*
X55610Y56253D01*
X55221Y56492D01*
X54900Y56625D01*
D02*
G37*
G36*
X52900D02*
X52579Y56492D01*
X52190Y56253D01*
X51843Y55957D01*
X51547Y55610D01*
X51308Y55221D01*
X51175Y54900D01*
X52900D01*
Y56625D01*
D02*
G37*
G36*
X107400Y56525D02*
Y54800D01*
X109125D01*
X108992Y55121D01*
X108753Y55510D01*
X108457Y55857D01*
X108110Y56153D01*
X107721Y56392D01*
X107400Y56525D01*
D02*
G37*
G36*
X105400D02*
X105079Y56392D01*
X104690Y56153D01*
X104343Y55857D01*
X104047Y55510D01*
X103808Y55121D01*
X103675Y54800D01*
X105400D01*
Y56525D01*
D02*
G37*
G36*
X56625Y52900D02*
X54900D01*
Y51175D01*
X55221Y51308D01*
X55610Y51547D01*
X55957Y51843D01*
X56253Y52190D01*
X56492Y52579D01*
X56625Y52900D01*
D02*
G37*
G36*
X52900D02*
X51175D01*
X51308Y52579D01*
X51547Y52190D01*
X51843Y51843D01*
X52190Y51547D01*
X52579Y51308D01*
X52900Y51175D01*
Y52900D01*
D02*
G37*
G36*
X109125Y52800D02*
X107400D01*
Y51075D01*
X107721Y51208D01*
X108110Y51447D01*
X108457Y51743D01*
X108753Y52090D01*
X108992Y52479D01*
X109125Y52800D01*
D02*
G37*
G36*
X105400D02*
X103675D01*
X103808Y52479D01*
X104047Y52090D01*
X104343Y51743D01*
X104690Y51447D01*
X105079Y51208D01*
X105400Y51075D01*
Y52800D01*
D02*
G37*
%LPD*%
G36*
X77600Y64500D02*
X77600Y59100D01*
X69100D01*
Y59200D01*
Y59400D01*
X69100Y60800D01*
X71200Y62400D01*
X73912Y64500D01*
X77600Y64500D01*
D02*
G37*
D51*
X76100Y63361D02*
Y63400D01*
Y63361D02*
X76161Y63300D01*
X76661Y62800D02*
X81500D01*
D52*
X53700Y86100D02*
D03*
X53900Y53900D02*
D03*
X106400Y53800D02*
D03*
X106700Y86400D02*
D03*
D53*
X102600Y63384D02*
D03*
Y66890D02*
D03*
Y73900D02*
D03*
Y70395D02*
D03*
X58202Y71753D02*
D03*
Y68247D02*
D03*
D54*
X109500Y84000D02*
D03*
X108000Y81000D02*
D03*
X109500Y78000D02*
D03*
X108000Y75000D02*
D03*
X109500Y72000D02*
D03*
X108000Y69000D02*
D03*
X109500Y66000D02*
D03*
X108000Y63000D02*
D03*
X109500Y60000D02*
D03*
X108000Y57000D02*
D03*
X109500Y54000D02*
D03*
X108000Y51000D02*
D03*
X105000Y81000D02*
D03*
X106500Y78000D02*
D03*
X105000Y75000D02*
D03*
X106500Y72000D02*
D03*
X105000Y69000D02*
D03*
X106500Y66000D02*
D03*
X105000Y63000D02*
D03*
X106500Y60000D02*
D03*
X105000Y57000D02*
D03*
X102000Y87000D02*
D03*
X103500Y84000D02*
D03*
Y60000D02*
D03*
X102000Y57000D02*
D03*
Y51000D02*
D03*
X99000Y87000D02*
D03*
X100500Y84000D02*
D03*
X99000Y81000D02*
D03*
Y69000D02*
D03*
X100500Y66000D02*
D03*
X99000Y63000D02*
D03*
X100500Y60000D02*
D03*
X99000Y57000D02*
D03*
X100500Y54000D02*
D03*
X99000Y51000D02*
D03*
X96000Y87000D02*
D03*
X97500Y84000D02*
D03*
X96000Y81000D02*
D03*
Y69000D02*
D03*
X97500Y66000D02*
D03*
X96000Y63000D02*
D03*
X97500Y60000D02*
D03*
X96000Y57000D02*
D03*
X97500Y54000D02*
D03*
X96000Y51000D02*
D03*
X93000Y87000D02*
D03*
X94500Y84000D02*
D03*
X93000Y81000D02*
D03*
X94500Y60000D02*
D03*
X93000Y57000D02*
D03*
X94500Y54000D02*
D03*
X93000Y51000D02*
D03*
X91500Y84000D02*
D03*
X90000Y81000D02*
D03*
X91500Y78000D02*
D03*
X90000Y69000D02*
D03*
X91500Y66000D02*
D03*
X90000Y63000D02*
D03*
X91500Y60000D02*
D03*
X90000Y57000D02*
D03*
X91500Y54000D02*
D03*
X90000Y51000D02*
D03*
X87000Y87000D02*
D03*
X88500Y84000D02*
D03*
X87000Y81000D02*
D03*
Y63000D02*
D03*
X88500Y60000D02*
D03*
X87000Y57000D02*
D03*
X88500Y54000D02*
D03*
X87000Y51000D02*
D03*
X84000Y87000D02*
D03*
X85500Y84000D02*
D03*
X84000Y81000D02*
D03*
X85500Y78000D02*
D03*
X84000Y75000D02*
D03*
X85500Y72000D02*
D03*
X84000Y63000D02*
D03*
X85500Y60000D02*
D03*
X84000Y57000D02*
D03*
X85500Y54000D02*
D03*
X84000Y51000D02*
D03*
X81000Y87000D02*
D03*
X82500Y84000D02*
D03*
X81000Y81000D02*
D03*
X82500Y78000D02*
D03*
X81000Y75000D02*
D03*
X82500Y72000D02*
D03*
Y60000D02*
D03*
Y54000D02*
D03*
X79500Y84000D02*
D03*
Y78000D02*
D03*
X78000Y75000D02*
D03*
X79500Y72000D02*
D03*
Y54000D02*
D03*
X78000Y51000D02*
D03*
X76500Y78000D02*
D03*
X75000Y75000D02*
D03*
X76500Y54000D02*
D03*
X75000Y51000D02*
D03*
X72000Y87000D02*
D03*
X73500Y84000D02*
D03*
X72000Y81000D02*
D03*
X73500Y78000D02*
D03*
X72000Y75000D02*
D03*
X73500Y72000D02*
D03*
X72000Y69000D02*
D03*
X73500Y66000D02*
D03*
Y54000D02*
D03*
X69000Y87000D02*
D03*
X70500Y84000D02*
D03*
X69000Y81000D02*
D03*
X70500Y78000D02*
D03*
X69000Y75000D02*
D03*
X70500Y72000D02*
D03*
X69000Y69000D02*
D03*
X70500Y66000D02*
D03*
X69000Y57000D02*
D03*
X70500Y54000D02*
D03*
X69000Y51000D02*
D03*
X66000Y87000D02*
D03*
X67500Y84000D02*
D03*
X66000Y81000D02*
D03*
X67500Y78000D02*
D03*
X66000Y75000D02*
D03*
X67500Y72000D02*
D03*
X66000Y57000D02*
D03*
X67500Y54000D02*
D03*
X66000Y51000D02*
D03*
X63000Y87000D02*
D03*
X64500Y84000D02*
D03*
X63000Y81000D02*
D03*
X64500Y78000D02*
D03*
X63000Y75000D02*
D03*
X64500Y72000D02*
D03*
X63000Y69000D02*
D03*
X64500Y60000D02*
D03*
X63000Y57000D02*
D03*
X64500Y54000D02*
D03*
X63000Y51000D02*
D03*
X60000Y87000D02*
D03*
X61500Y84000D02*
D03*
X60000Y81000D02*
D03*
X61500Y78000D02*
D03*
X60000Y75000D02*
D03*
X61500Y60000D02*
D03*
X60000Y57000D02*
D03*
X61500Y54000D02*
D03*
X60000Y51000D02*
D03*
X57000Y87000D02*
D03*
X58500Y84000D02*
D03*
X57000Y81000D02*
D03*
X58500Y78000D02*
D03*
X57000Y75000D02*
D03*
X58500Y66000D02*
D03*
X57000Y63000D02*
D03*
X58500Y60000D02*
D03*
X57000Y57000D02*
D03*
X58500Y54000D02*
D03*
X57000Y51000D02*
D03*
X54000Y81000D02*
D03*
X55500Y78000D02*
D03*
X54000Y75000D02*
D03*
X55500Y72000D02*
D03*
X54000Y69000D02*
D03*
X55500Y66000D02*
D03*
X54000Y63000D02*
D03*
X55500Y60000D02*
D03*
X54000Y57000D02*
D03*
X51000Y81000D02*
D03*
X52500Y78000D02*
D03*
X51000Y75000D02*
D03*
X52500Y72000D02*
D03*
X51000Y69000D02*
D03*
X52500Y66000D02*
D03*
X51000Y63000D02*
D03*
X52500Y60000D02*
D03*
X51000Y57000D02*
D03*
Y51000D02*
D03*
X76100Y62200D02*
D03*
X74500D02*
D03*
X76100Y63400D02*
D03*
X74500D02*
D03*
X81500Y62800D02*
D03*
X73400Y59600D02*
D03*
X72300D02*
D03*
X71300D02*
D03*
X76400Y60900D02*
D03*
X75300D02*
D03*
X77000Y59600D02*
D03*
X75900D02*
D03*
M02*
