M48
;Layer_Color=9474304
;FILE_FORMAT=4:3
METRIC,LZ
;TYPE=PLATED
T1F00S00C0.300
T2F00S00C1.295
T3F00S00C2.400
%
T01
X00795Y0054
X00825
X00855
X00885
X00915
X00945
X00975
X01005
X0102Y0057
X0105
X0108
X01095Y006
X01065
X01035
X01005
X00975
X00945
X00915
X00885
X00855
X00825
X00815Y00628
X0084Y0063
X0087
X009
X00915Y0066
X009Y0069
X0096
X0099
X01005Y0066
X00975
X0099Y0063
X0096
Y0057
X0099
Y0051
X0102
X0108
X01095Y0054
X0108Y0063
X0105
X01065Y0066
X01095
X0108Y0069
X0105
X01065Y0072
X01095
X0108Y0075
X0105
X01065Y0078
X01095
X00915
X00855
X00825
X00795
X0081Y0075
X0084
X00855Y0072
X00825
X00795
X0084Y0057
X0087
X009
X0093
Y0051
X0096
X009
X0087
X0084
X0078
X0075
X00765Y0054
X00735
X00705
X00675
X00645
X00615
X00585
X006Y0057
X0063
X0066
X0069
X00713Y00596
X00723
X00734
X00759
X0077
X00764Y00609
X00753
X00745Y00622
Y00634
X00761
Y00622
X00735Y0066
X00705
X0072Y0069
X0069
X00705Y0072
X00735
X0075Y0075
X0078
X00765Y0078
X00735
X00705
X00675
X00645
X00615
X00585
X00555
X00525
X0054Y0075
X0057
X006
X0063
X0066
X0069
X0072
X00675Y0072
X00645
X0063Y0069
X00585Y0066
X00555
X00525
X0054Y0069
X0051
X00525Y0072
X00555
X0051Y0075
Y0063
X0054
X0057
X00585Y006
X00615
X00645
X00555
X00525
X0054Y0057
X0057
Y0051
X006
X0063
X0066
X0069
X0051
Y0057
Y0081
X0054
X0057
X006
X0063
X0066
X0069
X0072
X00735Y0084
X00705
X00675
X00645
X00615
X00585
X006Y0087
X0063
X0066
X0069
X0072
X0057
X0081
X0084
X0087
X00885Y0084
X00915
X00945
X00975
X01005
X01035
X0105Y0081
X0108
X01095Y0084
X0102Y0087
X0099
X0096
X0093
Y0081
X0096
X0099
X009
X0087
X0084
X0081
X00825Y0084
X00855
X00795
T02
X01026Y0063384
Y006689
Y0070395
Y00739
X0058202Y0071753
Y0068247
T03
X01064Y00538
X00539Y00539
X00537Y00861
X01067Y00864
M30
