G04*
G04 #@! TF.GenerationSoftware,Altium Limited,Altium Designer,19.1.6 (110)*
G04*
G04 Layer_Color=65535*
%FSLAX43Y43*%
%MOMM*%
G71*
G01*
G75*
%ADD10C,0.250*%
%ADD11C,0.200*%
%ADD12C,0.600*%
%ADD13C,0.100*%
%ADD14C,0.254*%
G36*
X102721Y78273D02*
X102743Y78265D01*
X102765Y78248D01*
X102768Y78243D01*
X102779Y78232D01*
X102787Y78215D01*
X102790Y78193D01*
Y78190D01*
Y78185D01*
X102785Y78168D01*
X102471Y76913D01*
Y76910D01*
X102465Y76899D01*
X102457Y76882D01*
X102446Y76866D01*
X102429Y76849D01*
X102407Y76833D01*
X102379Y76821D01*
X102346Y76819D01*
X101852D01*
X101835Y76821D01*
X101810Y76824D01*
X101780Y76830D01*
X101746Y76841D01*
X101710Y76858D01*
X101677Y76882D01*
X101649Y76913D01*
X101646Y76916D01*
X101641Y76924D01*
X101635Y76938D01*
X101627Y76955D01*
X101616Y76974D01*
X101610Y76999D01*
X101605Y77027D01*
X101602Y77055D01*
Y77057D01*
Y77060D01*
X101605Y77080D01*
X101608Y77105D01*
X101613Y77132D01*
X101874Y78179D01*
Y78182D01*
X101877Y78185D01*
X101882Y78198D01*
X101896Y78218D01*
X101916Y78243D01*
X101919Y78246D01*
X101921Y78248D01*
X101941Y78259D01*
X101966Y78271D01*
X101980Y78276D01*
X102005D01*
X102021Y78273D01*
X102046Y78262D01*
X102057Y78257D01*
X102068Y78246D01*
X102074Y78240D01*
X102082Y78223D01*
X102091Y78201D01*
Y78185D01*
X102088Y78168D01*
X101827Y77121D01*
Y77118D01*
X101824Y77113D01*
Y77105D01*
X101821Y77093D01*
X101824Y77068D01*
X101827Y77057D01*
X101832Y77046D01*
X101838Y77041D01*
X101849Y77032D01*
X101869Y77024D01*
X101894Y77019D01*
X102282D01*
X102574Y78179D01*
Y78182D01*
X102576Y78185D01*
X102582Y78198D01*
X102593Y78218D01*
X102604Y78232D01*
X102615Y78243D01*
X102618Y78246D01*
X102621Y78248D01*
X102640Y78259D01*
X102665Y78271D01*
X102679Y78276D01*
X102704D01*
X102721Y78273D01*
D02*
G37*
G36*
X104470Y78831D02*
X104495Y78820D01*
X104506Y78815D01*
X104517Y78804D01*
X104523Y78798D01*
X104531Y78784D01*
X104537Y78759D01*
Y78743D01*
X104534Y78726D01*
X104273Y77679D01*
X104922Y78243D01*
X104925Y78246D01*
X104931Y78248D01*
X104939Y78254D01*
X104947Y78262D01*
X104975Y78273D01*
X104989Y78276D01*
X105006Y78279D01*
X105014D01*
X105022Y78276D01*
X105033Y78273D01*
X105058Y78262D01*
X105072Y78254D01*
X105083Y78240D01*
X105086Y78235D01*
X105092Y78223D01*
X105097Y78210D01*
X105100Y78190D01*
Y78187D01*
Y78185D01*
X105097Y78168D01*
Y78165D01*
X105095Y78162D01*
X105089Y78146D01*
X105075Y78126D01*
X105056Y78107D01*
X104517Y77640D01*
X104778Y76960D01*
Y76913D01*
Y76910D01*
X104775Y76907D01*
X104770Y76891D01*
X104756Y76871D01*
X104734Y76849D01*
X104731D01*
X104728Y76844D01*
X104720Y76841D01*
X104709Y76835D01*
X104684Y76824D01*
X104670Y76821D01*
X104653Y76819D01*
X104648D01*
X104636Y76821D01*
X104617Y76824D01*
X104600Y76833D01*
X104598Y76835D01*
X104589Y76844D01*
X104578Y76855D01*
X104567Y76871D01*
X104337Y77482D01*
X104192Y77357D01*
X104081Y76913D01*
Y76910D01*
X104078Y76905D01*
X104073Y76888D01*
X104059Y76866D01*
X104037Y76844D01*
X104034D01*
X104031Y76841D01*
X104015Y76833D01*
X103987Y76821D01*
X103956Y76819D01*
X103953D01*
X103940Y76821D01*
X103917Y76830D01*
X103887Y76844D01*
X103884Y76846D01*
X103876Y76858D01*
X103867Y76874D01*
X103865Y76894D01*
Y76896D01*
Y76902D01*
X103867Y76913D01*
X103870Y76924D01*
X104323Y78740D01*
Y78743D01*
X104326Y78745D01*
X104331Y78759D01*
X104342Y78779D01*
X104353Y78790D01*
X104364Y78801D01*
X104367Y78804D01*
X104370Y78806D01*
X104389Y78818D01*
X104414Y78829D01*
X104428Y78834D01*
X104453D01*
X104470Y78831D01*
D02*
G37*
G36*
X103906Y78273D02*
X103917Y78271D01*
X103940Y78262D01*
X103951Y78251D01*
X103962Y78240D01*
X103965Y78235D01*
X103973Y78223D01*
X103978Y78207D01*
X103981Y78187D01*
Y78182D01*
Y78168D01*
Y78165D01*
X103978Y78162D01*
X103973Y78148D01*
X103959Y78126D01*
X103937Y78104D01*
X103931Y78098D01*
X103915Y78090D01*
X103890Y78079D01*
X103873Y78076D01*
X103854Y78074D01*
X103357D01*
X103348Y78071D01*
X103340D01*
X103312Y78060D01*
X103298Y78051D01*
X103282Y78040D01*
X103279Y78037D01*
X103276Y78035D01*
X103259Y78018D01*
X103243Y77993D01*
X103229Y77960D01*
X103021Y77121D01*
Y77118D01*
X103018Y77113D01*
Y77105D01*
X103015Y77093D01*
X103018Y77068D01*
X103021Y77057D01*
X103026Y77046D01*
X103032Y77041D01*
X103043Y77032D01*
X103062Y77024D01*
X103087Y77019D01*
X103584D01*
X103601Y77013D01*
X103623Y77005D01*
X103634Y76994D01*
X103645Y76982D01*
Y76980D01*
X103651Y76977D01*
X103659Y76960D01*
X103665Y76938D01*
X103668Y76927D01*
X103665Y76913D01*
Y76910D01*
X103662Y76907D01*
X103656Y76894D01*
X103643Y76871D01*
X103623Y76849D01*
X103620D01*
X103618Y76844D01*
X103601Y76835D01*
X103573Y76824D01*
X103557Y76821D01*
X103540Y76819D01*
X103046D01*
X103029Y76821D01*
X103004Y76824D01*
X102974Y76830D01*
X102940Y76841D01*
X102904Y76858D01*
X102871Y76882D01*
X102843Y76913D01*
X102840Y76916D01*
X102835Y76924D01*
X102829Y76938D01*
X102821Y76955D01*
X102810Y76974D01*
X102804Y76999D01*
X102799Y77027D01*
X102796Y77055D01*
Y77057D01*
Y77060D01*
X102799Y77080D01*
X102801Y77105D01*
X102807Y77132D01*
X103015Y77971D01*
X103018Y77976D01*
X103021Y77990D01*
X103029Y78012D01*
X103043Y78040D01*
X103062Y78071D01*
X103085Y78107D01*
X103115Y78143D01*
X103154Y78179D01*
X103160Y78185D01*
X103173Y78196D01*
X103196Y78210D01*
X103226Y78229D01*
X103262Y78246D01*
X103304Y78262D01*
X103351Y78273D01*
X103401Y78276D01*
X103898D01*
X103906Y78273D01*
D02*
G37*
G36*
X101333Y78831D02*
X101347D01*
X101366Y78826D01*
X101410Y78818D01*
X101458Y78801D01*
X101508Y78776D01*
X101530Y78759D01*
X101555Y78743D01*
X101577Y78720D01*
X101596Y78695D01*
X101599Y78693D01*
X101605Y78684D01*
X101613Y78670D01*
X101624Y78654D01*
X101635Y78632D01*
X101646Y78607D01*
X101655Y78579D01*
X101660Y78548D01*
X101663Y78470D01*
X101660Y78423D01*
X101652Y78379D01*
X101616Y78237D01*
Y78232D01*
X101610Y78221D01*
X101605Y78198D01*
X101596Y78173D01*
X101585Y78146D01*
X101569Y78112D01*
X101552Y78082D01*
X101530Y78049D01*
X101527Y78046D01*
X101519Y78035D01*
X101508Y78021D01*
X101491Y78001D01*
X101472Y77982D01*
X101449Y77960D01*
X101427Y77940D01*
X101402Y77921D01*
X101405Y77918D01*
X101413Y77912D01*
X101422Y77904D01*
X101435Y77887D01*
X101452Y77868D01*
X101469Y77843D01*
X101485Y77810D01*
X101502Y77771D01*
X101505Y77765D01*
X101508Y77751D01*
X101513Y77729D01*
X101519Y77701D01*
X101524Y77665D01*
Y77627D01*
X101522Y77582D01*
X101513Y77538D01*
X101441Y77260D01*
Y77257D01*
X101438Y77252D01*
X101435Y77243D01*
X101433Y77230D01*
X101427Y77216D01*
X101419Y77199D01*
X101399Y77157D01*
X101372Y77107D01*
X101333Y77057D01*
X101311Y77030D01*
X101286Y77005D01*
X101258Y76977D01*
X101227Y76952D01*
X101224Y76949D01*
X101219Y76946D01*
X101211Y76941D01*
X101197Y76932D01*
X101183Y76921D01*
X101163Y76910D01*
X101119Y76885D01*
X101066Y76860D01*
X101008Y76841D01*
X100944Y76824D01*
X100914Y76821D01*
X100880Y76819D01*
X100378D01*
X100364Y76821D01*
X100347Y76827D01*
X100328Y76835D01*
X100314Y76849D01*
X100303Y76866D01*
X100300Y76891D01*
Y76894D01*
Y76902D01*
X100303Y76913D01*
X100306Y76924D01*
X100758Y78737D01*
Y78743D01*
X100764Y78754D01*
X100769Y78768D01*
X100783Y78787D01*
X100797Y78804D01*
X100819Y78820D01*
X100847Y78831D01*
X100880Y78834D01*
X101319D01*
X101333Y78831D01*
D02*
G37*
G36*
X105100Y75225D02*
X105111Y75222D01*
X105136Y75213D01*
X105147Y75202D01*
X105158Y75191D01*
X105161Y75188D01*
X105167Y75177D01*
X105172Y75161D01*
X105175Y75141D01*
Y75138D01*
Y75136D01*
Y75122D01*
Y75119D01*
X105172Y75116D01*
X105167Y75102D01*
X105153Y75080D01*
X105133Y75058D01*
X105131D01*
X105128Y75052D01*
X105111Y75044D01*
X105083Y75033D01*
X105067Y75030D01*
X105050Y75027D01*
X104203D01*
X104192Y75030D01*
X104181Y75033D01*
X104156Y75041D01*
X104142Y75050D01*
X104131Y75061D01*
X104128Y75064D01*
X104126Y75075D01*
X104120Y75091D01*
X104117Y75108D01*
Y75111D01*
Y75116D01*
X104123Y75133D01*
X104126Y75136D01*
X104128Y75150D01*
X104140Y75166D01*
X104159Y75191D01*
X104162Y75194D01*
X104164Y75197D01*
X104173Y75202D01*
X104184Y75211D01*
X104212Y75222D01*
X104228Y75225D01*
X104248Y75227D01*
X105092D01*
X105100Y75225D01*
D02*
G37*
G36*
X107948Y76410D02*
X107960D01*
X107985Y76399D01*
X107998Y76391D01*
X108010Y76379D01*
X108012Y76377D01*
X108018Y76366D01*
X108023Y76349D01*
X108026Y76329D01*
Y76327D01*
Y76321D01*
X108023Y76304D01*
X108015Y76282D01*
X107077Y74481D01*
X107074Y74478D01*
X107068Y74469D01*
X107060Y74456D01*
X107046Y74442D01*
X107030Y74425D01*
X107007Y74414D01*
X106985Y74403D01*
X106957Y74400D01*
X106955D01*
X106943Y74403D01*
X106930Y74406D01*
X106913Y74411D01*
X106896Y74422D01*
X106882Y74439D01*
X106871Y74461D01*
X106869Y74492D01*
X106830Y76293D01*
X106832Y76318D01*
Y76321D01*
X106835Y76324D01*
X106841Y76341D01*
X106855Y76360D01*
X106877Y76382D01*
X106880Y76385D01*
X106882Y76388D01*
X106891Y76393D01*
X106902Y76399D01*
X106930Y76407D01*
X106943Y76413D01*
X106966D01*
X106980Y76410D01*
X106996Y76404D01*
X107013Y76393D01*
X107018Y76391D01*
X107027Y76379D01*
X107038Y76363D01*
X107043Y76349D01*
X107049Y76332D01*
X107080Y74922D01*
X107821Y76341D01*
X107824Y76346D01*
X107829Y76357D01*
X107843Y76371D01*
X107860Y76388D01*
X107862D01*
X107865Y76391D01*
X107879Y76399D01*
X107904Y76407D01*
X107932Y76413D01*
X107940D01*
X107948Y76410D01*
D02*
G37*
G36*
X104198Y76410D02*
X104209D01*
X104234Y76399D01*
X104248Y76391D01*
X104259Y76379D01*
X104262Y76377D01*
X104267Y76366D01*
X104273Y76349D01*
X104276Y76329D01*
Y76327D01*
Y76321D01*
X104273Y76304D01*
X104264Y76282D01*
X103326Y74481D01*
X103323Y74478D01*
X103318Y74469D01*
X103309Y74456D01*
X103296Y74442D01*
X103279Y74425D01*
X103257Y74414D01*
X103234Y74403D01*
X103207Y74400D01*
X103204D01*
X103193Y74403D01*
X103179Y74406D01*
X103162Y74411D01*
X103146Y74422D01*
X103132Y74439D01*
X103121Y74461D01*
X103118Y74492D01*
X103079Y76293D01*
X103082Y76318D01*
Y76321D01*
X103085Y76324D01*
X103090Y76341D01*
X103104Y76360D01*
X103126Y76382D01*
X103129Y76385D01*
X103132Y76388D01*
X103140Y76393D01*
X103151Y76399D01*
X103179Y76407D01*
X103193Y76413D01*
X103215D01*
X103229Y76410D01*
X103246Y76404D01*
X103262Y76393D01*
X103268Y76391D01*
X103276Y76379D01*
X103287Y76363D01*
X103293Y76349D01*
X103298Y76332D01*
X103329Y74922D01*
X104070Y76341D01*
X104073Y76346D01*
X104078Y76357D01*
X104092Y76371D01*
X104109Y76388D01*
X104112D01*
X104115Y76391D01*
X104128Y76399D01*
X104153Y76407D01*
X104181Y76413D01*
X104189D01*
X104198Y76410D01*
D02*
G37*
G36*
X106574Y76413D02*
X106585Y76410D01*
X106610Y76399D01*
X106621Y76391D01*
X106633Y76377D01*
X106635Y76374D01*
X106641Y76363D01*
X106646Y76346D01*
X106649Y76327D01*
Y76321D01*
Y76307D01*
Y76304D01*
X106646Y76302D01*
X106641Y76288D01*
X106627Y76266D01*
X106608Y76243D01*
X106605D01*
X106602Y76238D01*
X106585Y76230D01*
X106558Y76218D01*
X106541Y76216D01*
X106524Y76213D01*
X105927D01*
X105766Y75574D01*
X106019D01*
X106033Y75572D01*
X106047D01*
X106066Y75566D01*
X106111Y75558D01*
X106158Y75541D01*
X106205Y75516D01*
X106230Y75502D01*
X106252Y75483D01*
X106274Y75463D01*
X106294Y75438D01*
Y75436D01*
X106299Y75433D01*
X106302Y75424D01*
X106311Y75416D01*
X106324Y75386D01*
X106338Y75349D01*
X106352Y75302D01*
X106360Y75250D01*
Y75188D01*
X106358Y75155D01*
X106349Y75122D01*
X106280Y74841D01*
Y74839D01*
X106277Y74833D01*
X106274Y74825D01*
X106272Y74811D01*
X106266Y74797D01*
X106258Y74778D01*
X106238Y74736D01*
X106211Y74686D01*
X106174Y74633D01*
X106127Y74580D01*
X106102Y74555D01*
X106072Y74530D01*
X106069D01*
X106063Y74525D01*
X106055Y74519D01*
X106044Y74511D01*
X106027Y74500D01*
X106011Y74489D01*
X105966Y74467D01*
X105914Y74442D01*
X105855Y74419D01*
X105791Y74406D01*
X105755Y74403D01*
X105722Y74400D01*
X105364D01*
X105353Y74403D01*
X105342Y74406D01*
X105317Y74414D01*
X105303Y74422D01*
X105292Y74433D01*
X105289Y74436D01*
X105286Y74447D01*
X105281Y74464D01*
X105278Y74481D01*
Y74483D01*
Y74489D01*
X105283Y74506D01*
X105286Y74508D01*
X105289Y74522D01*
X105300Y74539D01*
X105319Y74564D01*
X105322Y74567D01*
X105325Y74569D01*
X105333Y74575D01*
X105342Y74583D01*
X105369Y74594D01*
X105386Y74597D01*
X105405Y74600D01*
X105775D01*
X105794Y74603D01*
X105819Y74608D01*
X105850Y74617D01*
X105880Y74630D01*
X105916Y74647D01*
X105950Y74672D01*
X105952Y74675D01*
X105963Y74686D01*
X105980Y74703D01*
X106000Y74722D01*
X106019Y74750D01*
X106038Y74780D01*
X106055Y74816D01*
X106069Y74855D01*
X106138Y75133D01*
Y75138D01*
X106141Y75150D01*
X106144Y75169D01*
Y75194D01*
Y75222D01*
X106138Y75250D01*
X106127Y75277D01*
X106111Y75305D01*
X106108Y75308D01*
X106102Y75316D01*
X106091Y75327D01*
X106075Y75341D01*
X106052Y75352D01*
X106030Y75363D01*
X106000Y75372D01*
X105966Y75374D01*
X105608D01*
X105597Y75377D01*
X105580Y75380D01*
X105561Y75388D01*
X105541Y75399D01*
X105530Y75419D01*
X105522Y75444D01*
X105525Y75461D01*
X105528Y75480D01*
X105736Y76318D01*
Y76324D01*
X105741Y76335D01*
X105750Y76349D01*
X105761Y76368D01*
X105777Y76385D01*
X105800Y76402D01*
X105827Y76413D01*
X105861Y76416D01*
X106566D01*
X106574Y76413D01*
D02*
G37*
G36*
X102440D02*
X102454D01*
X102474Y76407D01*
X102518Y76399D01*
X102565Y76382D01*
X102615Y76357D01*
X102640Y76343D01*
X102663Y76324D01*
X102688Y76304D01*
X102707Y76280D01*
X102710Y76277D01*
X102715Y76268D01*
X102724Y76255D01*
X102735Y76238D01*
X102746Y76216D01*
X102754Y76191D01*
X102765Y76163D01*
X102771Y76132D01*
X102774Y76055D01*
X102768Y76007D01*
X102760Y75960D01*
X102724Y75819D01*
Y75813D01*
X102718Y75799D01*
X102713Y75780D01*
X102704Y75755D01*
X102693Y75724D01*
X102676Y75691D01*
X102660Y75660D01*
X102638Y75627D01*
X102635Y75624D01*
X102626Y75613D01*
X102615Y75599D01*
X102599Y75580D01*
X102579Y75560D01*
X102560Y75538D01*
X102538Y75519D01*
X102513Y75502D01*
X102515Y75499D01*
X102521Y75497D01*
X102532Y75485D01*
X102546Y75472D01*
X102560Y75455D01*
X102576Y75427D01*
X102593Y75397D01*
X102610Y75358D01*
X102613Y75352D01*
X102615Y75338D01*
X102621Y75316D01*
X102626Y75286D01*
X102632Y75250D01*
Y75211D01*
X102629Y75166D01*
X102621Y75119D01*
X102549Y74841D01*
Y74839D01*
X102546Y74833D01*
X102543Y74825D01*
X102540Y74811D01*
X102535Y74794D01*
X102527Y74778D01*
X102507Y74733D01*
X102479Y74683D01*
X102443Y74633D01*
X102396Y74578D01*
X102371Y74553D01*
X102341Y74528D01*
X102338D01*
X102332Y74522D01*
X102324Y74517D01*
X102313Y74508D01*
X102299Y74497D01*
X102279Y74486D01*
X102238Y74464D01*
X102185Y74442D01*
X102124Y74419D01*
X102060Y74406D01*
X102027Y74403D01*
X101991Y74400D01*
X101835D01*
X101821Y74403D01*
X101788Y74408D01*
X101749Y74417D01*
X101702Y74433D01*
X101652Y74456D01*
X101605Y74489D01*
X101583Y74511D01*
X101560Y74533D01*
X101558Y74539D01*
X101549Y74550D01*
X101535Y74569D01*
X101524Y74594D01*
X101510Y74625D01*
X101497Y74661D01*
X101488Y74700D01*
X101485Y74744D01*
Y74747D01*
Y74753D01*
Y74764D01*
X101488Y74778D01*
X101491Y74814D01*
X101499Y74853D01*
X101569Y75133D01*
X101572Y75138D01*
X101574Y75152D01*
X101583Y75175D01*
X101594Y75202D01*
X101608Y75236D01*
X101630Y75272D01*
X101652Y75311D01*
X101683Y75349D01*
X101685Y75355D01*
X101699Y75366D01*
X101716Y75386D01*
X101738Y75408D01*
X101766Y75433D01*
X101799Y75458D01*
X101832Y75483D01*
X101869Y75505D01*
X101866Y75508D01*
X101863Y75513D01*
X101855Y75522D01*
X101846Y75535D01*
X101838Y75552D01*
X101827Y75574D01*
X101819Y75602D01*
X101807Y75633D01*
Y75638D01*
X101805Y75649D01*
X101802Y75666D01*
X101799Y75691D01*
Y75721D01*
X101802Y75755D01*
X101805Y75791D01*
X101813Y75830D01*
X101849Y75971D01*
Y75974D01*
X101852Y75980D01*
X101855Y75988D01*
X101857Y75999D01*
X101863Y76016D01*
X101871Y76032D01*
X101891Y76074D01*
X101919Y76121D01*
X101955Y76174D01*
X101999Y76230D01*
X102024Y76255D01*
X102055Y76282D01*
X102057Y76285D01*
X102068Y76293D01*
X102085Y76304D01*
X102107Y76321D01*
X102132Y76335D01*
X102160Y76352D01*
X102193Y76368D01*
X102224Y76382D01*
X102307Y76404D01*
X102360Y76413D01*
X102407Y76416D01*
X102427D01*
X102440Y76413D01*
D02*
G37*
G36*
X101069D02*
X101080D01*
X101105Y76402D01*
X101119Y76396D01*
X101130Y76385D01*
X101136Y76379D01*
X101144Y76363D01*
X101150Y76341D01*
Y76324D01*
X101147Y76307D01*
X101141Y76291D01*
X100569Y75019D01*
X100886D01*
X100969Y75344D01*
Y75347D01*
X100972Y75349D01*
X100977Y75363D01*
X100991Y75383D01*
X101011Y75405D01*
X101013Y75408D01*
X101016Y75411D01*
X101036Y75422D01*
X101061Y75433D01*
X101075Y75438D01*
X101100D01*
X101116Y75436D01*
X101141Y75424D01*
X101152Y75419D01*
X101163Y75408D01*
X101169Y75402D01*
X101177Y75388D01*
X101186Y75363D01*
Y75349D01*
X101183Y75333D01*
X101102Y75019D01*
X101277D01*
X101294Y75014D01*
X101319Y75005D01*
X101330Y74994D01*
X101341Y74983D01*
X101344Y74977D01*
X101352Y74966D01*
X101358Y74950D01*
X101361Y74930D01*
Y74925D01*
X101358Y74914D01*
Y74911D01*
X101355Y74908D01*
X101349Y74891D01*
X101336Y74869D01*
X101316Y74847D01*
X101313D01*
X101311Y74841D01*
X101294Y74833D01*
X101266Y74822D01*
X101249Y74819D01*
X101233Y74816D01*
X101052D01*
X100972Y74494D01*
Y74492D01*
X100969Y74486D01*
X100964Y74469D01*
X100950Y74447D01*
X100927Y74425D01*
X100925D01*
X100922Y74422D01*
X100905Y74414D01*
X100877Y74403D01*
X100847Y74400D01*
X100844D01*
X100830Y74403D01*
X100808Y74411D01*
X100778Y74425D01*
Y74428D01*
X100772Y74431D01*
X100764Y74447D01*
X100758Y74472D01*
Y74489D01*
X100761Y74506D01*
X100836Y74816D01*
X100386D01*
X100378Y74819D01*
X100364Y74822D01*
X100339Y74830D01*
X100328Y74839D01*
X100317Y74850D01*
X100314Y74853D01*
X100308Y74864D01*
X100303Y74878D01*
X100300Y74897D01*
Y74900D01*
Y74905D01*
X100306Y74925D01*
X100311Y74941D01*
X100939Y76338D01*
Y76341D01*
X100941Y76343D01*
X100952Y76360D01*
X100969Y76379D01*
X100991Y76399D01*
X101050Y76416D01*
X101058D01*
X101069Y76413D01*
D02*
G37*
G36*
X122100Y54700D02*
X117100D01*
Y56194D01*
X122100D01*
Y54700D01*
D02*
G37*
G36*
X111314Y52241D02*
X111336Y52239D01*
X111362Y52233D01*
X111393Y52224D01*
X111425Y52209D01*
X111458Y52191D01*
X111488Y52165D01*
X111491Y52161D01*
X111501Y52150D01*
X111514Y52131D01*
X111530Y52107D01*
X111547Y52074D01*
X111564Y52033D01*
X111577Y51987D01*
X111588Y51931D01*
X111397Y51905D01*
Y51907D01*
Y51911D01*
X111395Y51918D01*
X111393Y51928D01*
X111388Y51950D01*
X111377Y51976D01*
X111364Y52000D01*
X111343Y52022D01*
X111330Y52031D01*
X111317Y52039D01*
X111301Y52042D01*
X111284Y52044D01*
X111282D01*
X111273Y52042D01*
X111262Y52041D01*
X111247Y52035D01*
X111230Y52028D01*
X111214Y52015D01*
X111195Y51998D01*
X111178Y51974D01*
X111177Y51970D01*
X111175Y51967D01*
X111171Y51959D01*
X111169Y51952D01*
X111164Y51941D01*
X111160Y51928D01*
X111156Y51913D01*
X111151Y51894D01*
X111147Y51874D01*
X111141Y51850D01*
X111138Y51824D01*
X111134Y51796D01*
X111130Y51765D01*
X111127Y51730D01*
X111125Y51691D01*
X111127Y51693D01*
X111132Y51700D01*
X111140Y51709D01*
X111149Y51720D01*
X111162Y51733D01*
X111175Y51746D01*
X111190Y51759D01*
X111206Y51770D01*
X111208Y51772D01*
X111214Y51774D01*
X111225Y51780D01*
X111236Y51785D01*
X111251Y51789D01*
X111269Y51794D01*
X111288Y51796D01*
X111308Y51798D01*
X111319D01*
X111328Y51796D01*
X111340Y51794D01*
X111351Y51792D01*
X111380Y51783D01*
X111412Y51770D01*
X111430Y51761D01*
X111447Y51750D01*
X111465Y51737D01*
X111482Y51722D01*
X111501Y51705D01*
X111517Y51685D01*
X111519Y51683D01*
X111521Y51680D01*
X111527Y51674D01*
X111532Y51665D01*
X111538Y51654D01*
X111547Y51641D01*
X111554Y51624D01*
X111564Y51605D01*
X111571Y51585D01*
X111580Y51563D01*
X111588Y51539D01*
X111593Y51513D01*
X111601Y51483D01*
X111604Y51454D01*
X111606Y51420D01*
X111608Y51387D01*
Y51385D01*
Y51378D01*
Y51368D01*
X111606Y51355D01*
X111604Y51339D01*
X111602Y51318D01*
X111601Y51298D01*
X111597Y51274D01*
X111584Y51226D01*
X111567Y51174D01*
X111556Y51148D01*
X111543Y51124D01*
X111528Y51100D01*
X111512Y51078D01*
X111510Y51076D01*
X111508Y51072D01*
X111502Y51067D01*
X111495Y51061D01*
X111486Y51052D01*
X111475Y51043D01*
X111447Y51022D01*
X111414Y51002D01*
X111373Y50983D01*
X111351Y50978D01*
X111327Y50972D01*
X111302Y50968D01*
X111277Y50967D01*
X111269D01*
X111262Y50968D01*
X111251D01*
X111238Y50970D01*
X111223Y50974D01*
X111188Y50985D01*
X111167Y50993D01*
X111147Y51002D01*
X111125Y51013D01*
X111104Y51028D01*
X111082Y51044D01*
X111062Y51063D01*
X111041Y51085D01*
X111021Y51111D01*
X111019Y51113D01*
X111017Y51118D01*
X111012Y51128D01*
X111006Y51139D01*
X110999Y51156D01*
X110990Y51176D01*
X110980Y51198D01*
X110971Y51226D01*
X110962Y51257D01*
X110953Y51294D01*
X110945Y51333D01*
X110936Y51378D01*
X110930Y51426D01*
X110925Y51478D01*
X110923Y51535D01*
X110921Y51596D01*
Y51598D01*
Y51600D01*
Y51611D01*
Y51630D01*
X110923Y51652D01*
X110925Y51681D01*
X110927Y51713D01*
X110930Y51748D01*
X110934Y51787D01*
X110947Y51868D01*
X110965Y51950D01*
X110977Y51989D01*
X110991Y52026D01*
X111006Y52061D01*
X111025Y52091D01*
X111027Y52092D01*
X111030Y52098D01*
X111036Y52105D01*
X111043Y52115D01*
X111054Y52126D01*
X111067Y52139D01*
X111082Y52152D01*
X111099Y52167D01*
X111117Y52181D01*
X111138Y52194D01*
X111184Y52218D01*
X111210Y52228D01*
X111236Y52237D01*
X111265Y52241D01*
X111295Y52242D01*
X111306D01*
X111314Y52241D01*
D02*
G37*
G36*
X101224Y52257D02*
X101239Y52255D01*
X101255Y52254D01*
X101274Y52250D01*
X101294Y52244D01*
X101341Y52229D01*
X101365Y52220D01*
X101389Y52209D01*
X101413Y52194D01*
X101437Y52178D01*
X101461Y52159D01*
X101483Y52139D01*
X101485D01*
X101487Y52135D01*
X101491Y52129D01*
X101496Y52124D01*
X101504Y52115D01*
X101511Y52104D01*
X101520Y52091D01*
X101529Y52076D01*
X101539Y52059D01*
X101550Y52042D01*
X101559Y52022D01*
X101570Y52000D01*
X101579Y51974D01*
X101589Y51948D01*
X101598Y51920D01*
X101605Y51891D01*
X101400Y51831D01*
Y51833D01*
X101398Y51835D01*
Y51841D01*
X101396Y51848D01*
X101391Y51867D01*
X101383Y51889D01*
X101372Y51915D01*
X101357Y51941D01*
X101341Y51965D01*
X101320Y51987D01*
X101318Y51989D01*
X101311Y51996D01*
X101298Y52005D01*
X101281Y52015D01*
X101261Y52026D01*
X101239Y52033D01*
X101213Y52041D01*
X101183Y52042D01*
X101172D01*
X101165Y52041D01*
X101144Y52037D01*
X101118Y52029D01*
X101089Y52018D01*
X101057Y52000D01*
X101042Y51989D01*
X101028Y51976D01*
X101013Y51961D01*
X100998Y51942D01*
Y51941D01*
X100994Y51939D01*
X100992Y51931D01*
X100987Y51924D01*
X100981Y51913D01*
X100976Y51900D01*
X100970Y51883D01*
X100963Y51865D01*
X100955Y51844D01*
X100950Y51820D01*
X100944Y51792D01*
X100939Y51763D01*
X100935Y51731D01*
X100931Y51696D01*
X100928Y51657D01*
Y51617D01*
Y51615D01*
Y51605D01*
Y51594D01*
X100929Y51578D01*
Y51559D01*
X100931Y51537D01*
X100933Y51513D01*
X100937Y51487D01*
X100944Y51431D01*
X100957Y51376D01*
X100965Y51350D01*
X100974Y51324D01*
X100985Y51302D01*
X100996Y51281D01*
Y51280D01*
X101000Y51278D01*
X101009Y51267D01*
X101024Y51250D01*
X101046Y51233D01*
X101072Y51215D01*
X101102Y51198D01*
X101139Y51187D01*
X101157Y51185D01*
X101178Y51183D01*
X101181D01*
X101191Y51185D01*
X101207Y51187D01*
X101226Y51191D01*
X101248Y51198D01*
X101272Y51209D01*
X101296Y51226D01*
X101318Y51246D01*
X101320Y51250D01*
X101328Y51259D01*
X101339Y51274D01*
X101352Y51296D01*
X101366Y51324D01*
X101379Y51359D01*
X101394Y51400D01*
X101405Y51450D01*
X101607Y51372D01*
Y51370D01*
X101605Y51363D01*
X101602Y51352D01*
X101598Y51337D01*
X101592Y51320D01*
X101587Y51300D01*
X101579Y51278D01*
X101570Y51254D01*
X101548Y51204D01*
X101520Y51152D01*
X101489Y51104D01*
X101470Y51083D01*
X101450Y51063D01*
X101448Y51061D01*
X101444Y51059D01*
X101439Y51054D01*
X101429Y51048D01*
X101420Y51041D01*
X101407Y51033D01*
X101392Y51024D01*
X101376Y51015D01*
X101357Y51006D01*
X101337Y50996D01*
X101291Y50981D01*
X101239Y50970D01*
X101211Y50968D01*
X101181Y50967D01*
X101172D01*
X101163Y50968D01*
X101148D01*
X101131Y50972D01*
X101111Y50974D01*
X101089Y50980D01*
X101065Y50985D01*
X101039Y50994D01*
X101013Y51004D01*
X100987Y51017D01*
X100959Y51031D01*
X100931Y51050D01*
X100905Y51070D01*
X100879Y51093D01*
X100855Y51120D01*
X100854Y51122D01*
X100850Y51128D01*
X100842Y51139D01*
X100833Y51154D01*
X100822Y51170D01*
X100811Y51193D01*
X100798Y51218D01*
X100785Y51248D01*
X100770Y51280D01*
X100757Y51317D01*
X100746Y51355D01*
X100735Y51398D01*
X100726Y51444D01*
X100718Y51494D01*
X100715Y51546D01*
X100713Y51602D01*
Y51604D01*
Y51605D01*
Y51617D01*
X100715Y51633D01*
Y51654D01*
X100717Y51681D01*
X100720Y51713D01*
X100726Y51746D01*
X100731Y51783D01*
X100739Y51824D01*
X100748Y51865D01*
X100759Y51905D01*
X100774Y51948D01*
X100791Y51989D01*
X100809Y52028D01*
X100831Y52067D01*
X100857Y52102D01*
X100859Y52104D01*
X100863Y52109D01*
X100870Y52117D01*
X100879Y52126D01*
X100892Y52139D01*
X100907Y52152D01*
X100926Y52167D01*
X100946Y52181D01*
X100968Y52194D01*
X100994Y52209D01*
X101022Y52222D01*
X101052Y52235D01*
X101085Y52244D01*
X101118Y52252D01*
X101155Y52257D01*
X101194Y52259D01*
X101211D01*
X101224Y52257D01*
D02*
G37*
G36*
X105327Y51287D02*
Y51285D01*
X105323Y51280D01*
X105322Y51270D01*
X105316Y51259D01*
X105311Y51244D01*
X105303Y51228D01*
X105288Y51191D01*
X105268Y51150D01*
X105248Y51111D01*
X105225Y51074D01*
X105214Y51057D01*
X105203Y51043D01*
X105201Y51039D01*
X105192Y51031D01*
X105179Y51020D01*
X105162Y51007D01*
X105142Y50994D01*
X105118Y50983D01*
X105090Y50976D01*
X105059Y50972D01*
X105031D01*
X105011Y50974D01*
X104988Y50976D01*
X104964Y50978D01*
X104916Y50987D01*
Y51174D01*
X104944D01*
X104970Y51172D01*
X105005D01*
X105018Y51174D01*
X105035Y51176D01*
X105051Y51180D01*
X105068Y51185D01*
X105085Y51193D01*
X105098Y51202D01*
X105099Y51204D01*
X105103Y51209D01*
X105109Y51217D01*
X105118Y51231D01*
X105127Y51250D01*
X105136Y51272D01*
X105148Y51302D01*
X105159Y51339D01*
X104781Y52239D01*
X105012D01*
X105251Y51589D01*
X105459Y52239D01*
X105673D01*
X105327Y51287D01*
D02*
G37*
G36*
X108077Y52241D02*
X108088Y52239D01*
X108101Y52237D01*
X108134Y52229D01*
X108169Y52218D01*
X108206Y52200D01*
X108225Y52189D01*
X108244Y52176D01*
X108260Y52161D01*
X108277Y52142D01*
X108279Y52141D01*
X108281Y52139D01*
X108284Y52133D01*
X108290Y52126D01*
X108295Y52117D01*
X108303Y52105D01*
X108319Y52078D01*
X108334Y52044D01*
X108347Y52007D01*
X108356Y51967D01*
X108360Y51944D01*
Y51922D01*
Y51918D01*
Y51909D01*
X108358Y51892D01*
X108355Y51874D01*
X108351Y51850D01*
X108344Y51826D01*
X108334Y51800D01*
X108321Y51774D01*
X108319Y51770D01*
X108314Y51763D01*
X108306Y51752D01*
X108294Y51735D01*
X108279Y51718D01*
X108258Y51698D01*
X108236Y51678D01*
X108210Y51659D01*
X108212D01*
X108214Y51657D01*
X108225Y51654D01*
X108240Y51648D01*
X108260Y51639D01*
X108282Y51624D01*
X108305Y51607D01*
X108327Y51585D01*
X108349Y51557D01*
X108351Y51554D01*
X108358Y51543D01*
X108368Y51526D01*
X108377Y51504D01*
X108388Y51476D01*
X108395Y51443D01*
X108403Y51404D01*
X108405Y51361D01*
Y51359D01*
Y51354D01*
Y51344D01*
X108403Y51333D01*
X108401Y51318D01*
X108399Y51302D01*
X108395Y51283D01*
X108392Y51261D01*
X108379Y51217D01*
X108360Y51170D01*
X108349Y51146D01*
X108336Y51122D01*
X108319Y51100D01*
X108301Y51078D01*
X108299Y51076D01*
X108297Y51072D01*
X108290Y51067D01*
X108282Y51061D01*
X108273Y51052D01*
X108262Y51043D01*
X108232Y51022D01*
X108197Y51002D01*
X108157Y50983D01*
X108132Y50978D01*
X108108Y50972D01*
X108084Y50968D01*
X108058Y50967D01*
X108045D01*
X108036Y50968D01*
X108025Y50970D01*
X108010Y50972D01*
X107979Y50978D01*
X107944Y50989D01*
X107905Y51007D01*
X107884Y51017D01*
X107866Y51030D01*
X107847Y51044D01*
X107829Y51061D01*
X107827Y51063D01*
X107825Y51065D01*
X107820Y51070D01*
X107814Y51078D01*
X107807Y51089D01*
X107799Y51100D01*
X107790Y51113D01*
X107781Y51130D01*
X107771Y51146D01*
X107762Y51167D01*
X107753Y51187D01*
X107744Y51211D01*
X107731Y51261D01*
X107721Y51320D01*
X107912Y51348D01*
Y51346D01*
Y51344D01*
X107914Y51333D01*
X107916Y51318D01*
X107921Y51298D01*
X107927Y51276D01*
X107936Y51254D01*
X107947Y51231D01*
X107960Y51213D01*
X107962Y51211D01*
X107968Y51206D01*
X107977Y51198D01*
X107988Y51191D01*
X108001Y51181D01*
X108018Y51174D01*
X108036Y51168D01*
X108057Y51167D01*
X108068D01*
X108079Y51170D01*
X108092Y51174D01*
X108108Y51180D01*
X108127Y51189D01*
X108144Y51202D01*
X108160Y51220D01*
X108162Y51222D01*
X108168Y51231D01*
X108173Y51243D01*
X108182Y51261D01*
X108190Y51281D01*
X108195Y51309D01*
X108201Y51339D01*
X108203Y51374D01*
Y51376D01*
Y51378D01*
Y51389D01*
X108201Y51405D01*
X108197Y51426D01*
X108194Y51448D01*
X108186Y51472D01*
X108175Y51496D01*
X108162Y51517D01*
X108160Y51518D01*
X108155Y51526D01*
X108145Y51533D01*
X108134Y51544D01*
X108119Y51554D01*
X108103Y51563D01*
X108084Y51568D01*
X108064Y51570D01*
X108049D01*
X108040Y51568D01*
X108027Y51567D01*
X108010Y51563D01*
X107994Y51557D01*
X107975Y51552D01*
X107995Y51748D01*
X108008D01*
X108023Y51750D01*
X108040Y51752D01*
X108060Y51757D01*
X108081Y51763D01*
X108099Y51774D01*
X108118Y51787D01*
X108119Y51789D01*
X108125Y51794D01*
X108132Y51805D01*
X108140Y51818D01*
X108147Y51835D01*
X108155Y51855D01*
X108160Y51880D01*
X108162Y51907D01*
Y51911D01*
Y51918D01*
X108160Y51930D01*
X108158Y51944D01*
X108155Y51959D01*
X108147Y51976D01*
X108140Y51992D01*
X108129Y52007D01*
X108127Y52009D01*
X108123Y52013D01*
X108116Y52018D01*
X108107Y52026D01*
X108095Y52033D01*
X108081Y52039D01*
X108064Y52042D01*
X108045Y52044D01*
X108038D01*
X108027Y52042D01*
X108016Y52039D01*
X108003Y52033D01*
X107988Y52026D01*
X107973Y52017D01*
X107958Y52002D01*
X107957Y52000D01*
X107953Y51994D01*
X107947Y51983D01*
X107940Y51970D01*
X107932Y51954D01*
X107925Y51931D01*
X107920Y51907D01*
X107916Y51878D01*
X107734Y51915D01*
Y51917D01*
X107736Y51922D01*
X107738Y51931D01*
X107740Y51942D01*
X107744Y51957D01*
X107747Y51972D01*
X107758Y52009D01*
X107773Y52050D01*
X107792Y52091D01*
X107816Y52129D01*
X107829Y52148D01*
X107844Y52163D01*
X107845Y52165D01*
X107847Y52167D01*
X107858Y52176D01*
X107877Y52189D01*
X107901Y52204D01*
X107931Y52217D01*
X107968Y52229D01*
X108008Y52239D01*
X108031Y52242D01*
X108066D01*
X108077Y52241D01*
D02*
G37*
G36*
X107279Y52241D02*
X107290Y52239D01*
X107303Y52237D01*
X107336Y52229D01*
X107371Y52218D01*
X107408Y52200D01*
X107427Y52189D01*
X107445Y52176D01*
X107462Y52161D01*
X107479Y52142D01*
X107481Y52141D01*
X107483Y52139D01*
X107486Y52133D01*
X107492Y52126D01*
X107497Y52117D01*
X107505Y52105D01*
X107521Y52078D01*
X107536Y52044D01*
X107549Y52007D01*
X107558Y51967D01*
X107562Y51944D01*
Y51922D01*
Y51918D01*
Y51909D01*
X107560Y51892D01*
X107557Y51874D01*
X107553Y51850D01*
X107545Y51826D01*
X107536Y51800D01*
X107523Y51774D01*
X107521Y51770D01*
X107516Y51763D01*
X107508Y51752D01*
X107495Y51735D01*
X107481Y51718D01*
X107460Y51698D01*
X107438Y51678D01*
X107412Y51659D01*
X107414D01*
X107416Y51657D01*
X107427Y51654D01*
X107442Y51648D01*
X107462Y51639D01*
X107484Y51624D01*
X107507Y51607D01*
X107529Y51585D01*
X107551Y51557D01*
X107553Y51554D01*
X107560Y51543D01*
X107570Y51526D01*
X107579Y51504D01*
X107590Y51476D01*
X107597Y51443D01*
X107605Y51404D01*
X107607Y51361D01*
Y51359D01*
Y51354D01*
Y51344D01*
X107605Y51333D01*
X107603Y51318D01*
X107601Y51302D01*
X107597Y51283D01*
X107594Y51261D01*
X107581Y51217D01*
X107562Y51170D01*
X107551Y51146D01*
X107538Y51122D01*
X107521Y51100D01*
X107503Y51078D01*
X107501Y51076D01*
X107499Y51072D01*
X107492Y51067D01*
X107484Y51061D01*
X107475Y51052D01*
X107464Y51043D01*
X107434Y51022D01*
X107399Y51002D01*
X107358Y50983D01*
X107334Y50978D01*
X107310Y50972D01*
X107286Y50968D01*
X107260Y50967D01*
X107247D01*
X107238Y50968D01*
X107227Y50970D01*
X107212Y50972D01*
X107181Y50978D01*
X107146Y50989D01*
X107107Y51007D01*
X107086Y51017D01*
X107068Y51030D01*
X107049Y51044D01*
X107031Y51061D01*
X107029Y51063D01*
X107027Y51065D01*
X107021Y51070D01*
X107016Y51078D01*
X107008Y51089D01*
X107001Y51100D01*
X106992Y51113D01*
X106983Y51130D01*
X106973Y51146D01*
X106964Y51167D01*
X106955Y51187D01*
X106946Y51211D01*
X106933Y51261D01*
X106923Y51320D01*
X107114Y51348D01*
Y51346D01*
Y51344D01*
X107116Y51333D01*
X107118Y51318D01*
X107123Y51298D01*
X107129Y51276D01*
X107138Y51254D01*
X107149Y51231D01*
X107162Y51213D01*
X107164Y51211D01*
X107170Y51206D01*
X107179Y51198D01*
X107190Y51191D01*
X107203Y51181D01*
X107220Y51174D01*
X107238Y51168D01*
X107258Y51167D01*
X107270D01*
X107281Y51170D01*
X107294Y51174D01*
X107310Y51180D01*
X107329Y51189D01*
X107345Y51202D01*
X107362Y51220D01*
X107364Y51222D01*
X107370Y51231D01*
X107375Y51243D01*
X107384Y51261D01*
X107392Y51281D01*
X107397Y51309D01*
X107403Y51339D01*
X107405Y51374D01*
Y51376D01*
Y51378D01*
Y51389D01*
X107403Y51405D01*
X107399Y51426D01*
X107395Y51448D01*
X107388Y51472D01*
X107377Y51496D01*
X107364Y51517D01*
X107362Y51518D01*
X107357Y51526D01*
X107347Y51533D01*
X107336Y51544D01*
X107321Y51554D01*
X107305Y51563D01*
X107286Y51568D01*
X107266Y51570D01*
X107251D01*
X107242Y51568D01*
X107229Y51567D01*
X107212Y51563D01*
X107196Y51557D01*
X107177Y51552D01*
X107197Y51748D01*
X107210D01*
X107225Y51750D01*
X107242Y51752D01*
X107262Y51757D01*
X107283Y51763D01*
X107301Y51774D01*
X107320Y51787D01*
X107321Y51789D01*
X107327Y51794D01*
X107334Y51805D01*
X107342Y51818D01*
X107349Y51835D01*
X107357Y51855D01*
X107362Y51880D01*
X107364Y51907D01*
Y51911D01*
Y51918D01*
X107362Y51930D01*
X107360Y51944D01*
X107357Y51959D01*
X107349Y51976D01*
X107342Y51992D01*
X107331Y52007D01*
X107329Y52009D01*
X107325Y52013D01*
X107318Y52018D01*
X107308Y52026D01*
X107297Y52033D01*
X107283Y52039D01*
X107266Y52042D01*
X107247Y52044D01*
X107240D01*
X107229Y52042D01*
X107218Y52039D01*
X107205Y52033D01*
X107190Y52026D01*
X107175Y52017D01*
X107160Y52002D01*
X107158Y52000D01*
X107155Y51994D01*
X107149Y51983D01*
X107142Y51970D01*
X107134Y51954D01*
X107127Y51931D01*
X107121Y51907D01*
X107118Y51878D01*
X106936Y51915D01*
Y51917D01*
X106938Y51922D01*
X106940Y51931D01*
X106942Y51942D01*
X106946Y51957D01*
X106949Y51972D01*
X106960Y52009D01*
X106975Y52050D01*
X106994Y52091D01*
X107018Y52129D01*
X107031Y52148D01*
X107046Y52163D01*
X107047Y52165D01*
X107049Y52167D01*
X107060Y52176D01*
X107079Y52189D01*
X107103Y52204D01*
X107133Y52217D01*
X107170Y52229D01*
X107210Y52239D01*
X107233Y52242D01*
X107268D01*
X107279Y52241D01*
D02*
G37*
G36*
X106481D02*
X106492Y52239D01*
X106505Y52237D01*
X106538Y52229D01*
X106573Y52218D01*
X106610Y52200D01*
X106629Y52189D01*
X106647Y52176D01*
X106664Y52161D01*
X106681Y52142D01*
X106683Y52141D01*
X106684Y52139D01*
X106688Y52133D01*
X106694Y52126D01*
X106699Y52117D01*
X106707Y52105D01*
X106723Y52078D01*
X106738Y52044D01*
X106751Y52007D01*
X106760Y51967D01*
X106764Y51944D01*
Y51922D01*
Y51918D01*
Y51909D01*
X106762Y51892D01*
X106759Y51874D01*
X106755Y51850D01*
X106747Y51826D01*
X106738Y51800D01*
X106725Y51774D01*
X106723Y51770D01*
X106718Y51763D01*
X106710Y51752D01*
X106697Y51735D01*
X106683Y51718D01*
X106662Y51698D01*
X106640Y51678D01*
X106614Y51659D01*
X106616D01*
X106618Y51657D01*
X106629Y51654D01*
X106644Y51648D01*
X106664Y51639D01*
X106686Y51624D01*
X106709Y51607D01*
X106731Y51585D01*
X106753Y51557D01*
X106755Y51554D01*
X106762Y51543D01*
X106771Y51526D01*
X106781Y51504D01*
X106792Y51476D01*
X106799Y51443D01*
X106807Y51404D01*
X106809Y51361D01*
Y51359D01*
Y51354D01*
Y51344D01*
X106807Y51333D01*
X106805Y51318D01*
X106803Y51302D01*
X106799Y51283D01*
X106796Y51261D01*
X106783Y51217D01*
X106764Y51170D01*
X106753Y51146D01*
X106740Y51122D01*
X106723Y51100D01*
X106705Y51078D01*
X106703Y51076D01*
X106701Y51072D01*
X106694Y51067D01*
X106686Y51061D01*
X106677Y51052D01*
X106666Y51043D01*
X106636Y51022D01*
X106601Y51002D01*
X106560Y50983D01*
X106536Y50978D01*
X106512Y50972D01*
X106488Y50968D01*
X106462Y50967D01*
X106449D01*
X106440Y50968D01*
X106429Y50970D01*
X106414Y50972D01*
X106383Y50978D01*
X106347Y50989D01*
X106309Y51007D01*
X106288Y51017D01*
X106270Y51030D01*
X106251Y51044D01*
X106233Y51061D01*
X106231Y51063D01*
X106229Y51065D01*
X106223Y51070D01*
X106218Y51078D01*
X106210Y51089D01*
X106203Y51100D01*
X106194Y51113D01*
X106184Y51130D01*
X106175Y51146D01*
X106166Y51167D01*
X106157Y51187D01*
X106147Y51211D01*
X106134Y51261D01*
X106125Y51320D01*
X106316Y51348D01*
Y51346D01*
Y51344D01*
X106318Y51333D01*
X106320Y51318D01*
X106325Y51298D01*
X106331Y51276D01*
X106340Y51254D01*
X106351Y51231D01*
X106364Y51213D01*
X106366Y51211D01*
X106372Y51206D01*
X106381Y51198D01*
X106392Y51191D01*
X106405Y51181D01*
X106422Y51174D01*
X106440Y51168D01*
X106460Y51167D01*
X106471D01*
X106483Y51170D01*
X106496Y51174D01*
X106512Y51180D01*
X106531Y51189D01*
X106547Y51202D01*
X106564Y51220D01*
X106566Y51222D01*
X106571Y51231D01*
X106577Y51243D01*
X106586Y51261D01*
X106594Y51281D01*
X106599Y51309D01*
X106605Y51339D01*
X106607Y51374D01*
Y51376D01*
Y51378D01*
Y51389D01*
X106605Y51405D01*
X106601Y51426D01*
X106597Y51448D01*
X106590Y51472D01*
X106579Y51496D01*
X106566Y51517D01*
X106564Y51518D01*
X106559Y51526D01*
X106549Y51533D01*
X106538Y51544D01*
X106523Y51554D01*
X106507Y51563D01*
X106488Y51568D01*
X106468Y51570D01*
X106453D01*
X106444Y51568D01*
X106431Y51567D01*
X106414Y51563D01*
X106397Y51557D01*
X106379Y51552D01*
X106399Y51748D01*
X106412D01*
X106427Y51750D01*
X106444Y51752D01*
X106464Y51757D01*
X106484Y51763D01*
X106503Y51774D01*
X106521Y51787D01*
X106523Y51789D01*
X106529Y51794D01*
X106536Y51805D01*
X106544Y51818D01*
X106551Y51835D01*
X106559Y51855D01*
X106564Y51880D01*
X106566Y51907D01*
Y51911D01*
Y51918D01*
X106564Y51930D01*
X106562Y51944D01*
X106559Y51959D01*
X106551Y51976D01*
X106544Y51992D01*
X106533Y52007D01*
X106531Y52009D01*
X106527Y52013D01*
X106520Y52018D01*
X106510Y52026D01*
X106499Y52033D01*
X106484Y52039D01*
X106468Y52042D01*
X106449Y52044D01*
X106442D01*
X106431Y52042D01*
X106420Y52039D01*
X106407Y52033D01*
X106392Y52026D01*
X106377Y52017D01*
X106362Y52002D01*
X106360Y52000D01*
X106357Y51994D01*
X106351Y51983D01*
X106344Y51970D01*
X106336Y51954D01*
X106329Y51931D01*
X106323Y51907D01*
X106320Y51878D01*
X106138Y51915D01*
Y51917D01*
X106140Y51922D01*
X106142Y51931D01*
X106144Y51942D01*
X106147Y51957D01*
X106151Y51972D01*
X106162Y52009D01*
X106177Y52050D01*
X106196Y52091D01*
X106220Y52129D01*
X106233Y52148D01*
X106247Y52163D01*
X106249Y52165D01*
X106251Y52167D01*
X106262Y52176D01*
X106281Y52189D01*
X106305Y52204D01*
X106334Y52217D01*
X106372Y52229D01*
X106412Y52239D01*
X106434Y52242D01*
X106470D01*
X106481Y52241D01*
D02*
G37*
G36*
X114360Y51998D02*
X113989D01*
X113956Y51783D01*
X113960Y51785D01*
X113967Y51791D01*
X113980Y51796D01*
X113998Y51805D01*
X114019Y51813D01*
X114041Y51818D01*
X114065Y51824D01*
X114091Y51826D01*
X114102D01*
X114111Y51824D01*
X114123Y51822D01*
X114134Y51820D01*
X114163Y51815D01*
X114195Y51802D01*
X114230Y51785D01*
X114248Y51774D01*
X114265Y51761D01*
X114282Y51746D01*
X114298Y51730D01*
X114300Y51728D01*
X114304Y51724D01*
X114308Y51717D01*
X114315Y51707D01*
X114323Y51694D01*
X114332Y51680D01*
X114343Y51663D01*
X114352Y51644D01*
X114361Y51622D01*
X114373Y51598D01*
X114382Y51570D01*
X114389Y51543D01*
X114397Y51511D01*
X114402Y51480D01*
X114404Y51444D01*
X114406Y51407D01*
Y51405D01*
Y51400D01*
Y51391D01*
X114404Y51380D01*
Y51365D01*
X114400Y51348D01*
X114398Y51330D01*
X114395Y51307D01*
X114384Y51261D01*
X114367Y51209D01*
X114356Y51183D01*
X114345Y51157D01*
X114330Y51130D01*
X114313Y51104D01*
X114311Y51102D01*
X114310Y51098D01*
X114304Y51091D01*
X114297Y51081D01*
X114287Y51072D01*
X114276Y51061D01*
X114261Y51048D01*
X114247Y51035D01*
X114230Y51022D01*
X114210Y51009D01*
X114189Y50998D01*
X114165Y50989D01*
X114141Y50980D01*
X114113Y50972D01*
X114086Y50968D01*
X114054Y50967D01*
X114041D01*
X114032Y50968D01*
X114021D01*
X114006Y50972D01*
X113974Y50978D01*
X113939Y50989D01*
X113900Y51004D01*
X113863Y51026D01*
X113845Y51041D01*
X113826Y51056D01*
X113824Y51057D01*
X113823Y51059D01*
X113817Y51065D01*
X113811Y51072D01*
X113804Y51081D01*
X113797Y51093D01*
X113787Y51106D01*
X113778Y51120D01*
X113769Y51137D01*
X113760Y51157D01*
X113750Y51178D01*
X113741Y51200D01*
X113734Y51224D01*
X113726Y51252D01*
X113717Y51309D01*
X113913Y51335D01*
Y51331D01*
X113915Y51322D01*
X113919Y51306D01*
X113923Y51287D01*
X113928Y51267D01*
X113937Y51246D01*
X113949Y51224D01*
X113963Y51206D01*
X113965Y51204D01*
X113971Y51198D01*
X113980Y51191D01*
X113991Y51183D01*
X114004Y51174D01*
X114021Y51167D01*
X114037Y51161D01*
X114056Y51159D01*
X114058D01*
X114067Y51161D01*
X114078Y51163D01*
X114091Y51167D01*
X114108Y51174D01*
X114126Y51185D01*
X114143Y51198D01*
X114160Y51218D01*
X114161Y51222D01*
X114167Y51230D01*
X114174Y51244D01*
X114182Y51263D01*
X114189Y51289D01*
X114197Y51320D01*
X114202Y51359D01*
X114204Y51402D01*
Y51404D01*
Y51407D01*
Y51413D01*
Y51422D01*
X114202Y51443D01*
X114198Y51468D01*
X114193Y51496D01*
X114186Y51526D01*
X114174Y51552D01*
X114160Y51576D01*
X114158Y51578D01*
X114152Y51585D01*
X114143Y51594D01*
X114130Y51605D01*
X114115Y51615D01*
X114095Y51624D01*
X114074Y51631D01*
X114050Y51633D01*
X114047D01*
X114036Y51631D01*
X114021Y51628D01*
X114000Y51622D01*
X113976Y51611D01*
X113950Y51594D01*
X113937Y51585D01*
X113924Y51572D01*
X113911Y51559D01*
X113899Y51543D01*
X113739Y51570D01*
X113839Y52222D01*
X114360D01*
Y51998D01*
D02*
G37*
G36*
X109971D02*
X109601D01*
X109567Y51783D01*
X109571Y51785D01*
X109579Y51791D01*
X109592Y51796D01*
X109610Y51805D01*
X109630Y51813D01*
X109653Y51818D01*
X109677Y51824D01*
X109703Y51826D01*
X109714D01*
X109723Y51824D01*
X109734Y51822D01*
X109745Y51820D01*
X109775Y51815D01*
X109806Y51802D01*
X109842Y51785D01*
X109860Y51774D01*
X109877Y51761D01*
X109893Y51746D01*
X109910Y51730D01*
X109912Y51728D01*
X109916Y51724D01*
X109919Y51717D01*
X109927Y51707D01*
X109934Y51694D01*
X109943Y51680D01*
X109954Y51663D01*
X109964Y51644D01*
X109973Y51622D01*
X109984Y51598D01*
X109993Y51570D01*
X110001Y51543D01*
X110008Y51511D01*
X110014Y51480D01*
X110016Y51444D01*
X110017Y51407D01*
Y51405D01*
Y51400D01*
Y51391D01*
X110016Y51380D01*
Y51365D01*
X110012Y51348D01*
X110010Y51330D01*
X110006Y51307D01*
X109995Y51261D01*
X109979Y51209D01*
X109967Y51183D01*
X109956Y51157D01*
X109942Y51130D01*
X109925Y51104D01*
X109923Y51102D01*
X109921Y51098D01*
X109916Y51091D01*
X109908Y51081D01*
X109899Y51072D01*
X109888Y51061D01*
X109873Y51048D01*
X109858Y51035D01*
X109842Y51022D01*
X109821Y51009D01*
X109801Y50998D01*
X109777Y50989D01*
X109753Y50980D01*
X109725Y50972D01*
X109697Y50968D01*
X109666Y50967D01*
X109653D01*
X109643Y50968D01*
X109632D01*
X109617Y50972D01*
X109586Y50978D01*
X109551Y50989D01*
X109512Y51004D01*
X109475Y51026D01*
X109456Y51041D01*
X109438Y51056D01*
X109436Y51057D01*
X109434Y51059D01*
X109429Y51065D01*
X109423Y51072D01*
X109416Y51081D01*
X109408Y51093D01*
X109399Y51106D01*
X109390Y51120D01*
X109380Y51137D01*
X109371Y51157D01*
X109362Y51178D01*
X109353Y51200D01*
X109345Y51224D01*
X109338Y51252D01*
X109329Y51309D01*
X109525Y51335D01*
Y51331D01*
X109527Y51322D01*
X109530Y51306D01*
X109534Y51287D01*
X109540Y51267D01*
X109549Y51246D01*
X109560Y51224D01*
X109575Y51206D01*
X109577Y51204D01*
X109582Y51198D01*
X109592Y51191D01*
X109603Y51183D01*
X109616Y51174D01*
X109632Y51167D01*
X109649Y51161D01*
X109667Y51159D01*
X109669D01*
X109679Y51161D01*
X109690Y51163D01*
X109703Y51167D01*
X109719Y51174D01*
X109738Y51185D01*
X109754Y51198D01*
X109771Y51218D01*
X109773Y51222D01*
X109779Y51230D01*
X109786Y51244D01*
X109793Y51263D01*
X109801Y51289D01*
X109808Y51320D01*
X109814Y51359D01*
X109816Y51402D01*
Y51404D01*
Y51407D01*
Y51413D01*
Y51422D01*
X109814Y51443D01*
X109810Y51468D01*
X109804Y51496D01*
X109797Y51526D01*
X109786Y51552D01*
X109771Y51576D01*
X109769Y51578D01*
X109764Y51585D01*
X109754Y51594D01*
X109742Y51605D01*
X109727Y51615D01*
X109706Y51624D01*
X109686Y51631D01*
X109662Y51633D01*
X109658D01*
X109647Y51631D01*
X109632Y51628D01*
X109612Y51622D01*
X109588Y51611D01*
X109562Y51594D01*
X109549Y51585D01*
X109536Y51572D01*
X109523Y51559D01*
X109510Y51543D01*
X109351Y51570D01*
X109451Y52222D01*
X109971D01*
Y51998D01*
D02*
G37*
G36*
X111956Y50987D02*
X111760D01*
Y51228D01*
X111956D01*
Y50987D01*
D02*
G37*
G36*
X109032D02*
X108834D01*
Y51892D01*
X108832Y51891D01*
X108829Y51887D01*
X108823Y51881D01*
X108814Y51872D01*
X108805Y51863D01*
X108792Y51850D01*
X108777Y51837D01*
X108760Y51824D01*
X108723Y51794D01*
X108681Y51763D01*
X108631Y51735D01*
X108579Y51711D01*
Y51930D01*
X108581D01*
X108582Y51931D01*
X108593Y51935D01*
X108608Y51944D01*
X108631Y51955D01*
X108656Y51972D01*
X108684Y51992D01*
X108716Y52017D01*
X108749Y52046D01*
X108751Y52048D01*
X108753Y52050D01*
X108764Y52061D01*
X108779Y52079D01*
X108797Y52104D01*
X108818Y52131D01*
X108838Y52165D01*
X108856Y52202D01*
X108871Y52242D01*
X109032D01*
Y50987D01*
D02*
G37*
G36*
X105972Y50987D02*
X105775D01*
Y51228D01*
X105972D01*
Y50987D01*
D02*
G37*
G36*
X104674D02*
X104466D01*
Y52028D01*
X104061D01*
Y50987D01*
X103853D01*
Y52239D01*
X104674D01*
Y50987D01*
D02*
G37*
G36*
X103594Y52028D02*
X103033D01*
Y51741D01*
X103342D01*
X103353Y51739D01*
X103366Y51737D01*
X103383Y51735D01*
X103420Y51728D01*
X103463Y51715D01*
X103505Y51696D01*
X103527Y51685D01*
X103548Y51672D01*
X103568Y51655D01*
X103587Y51637D01*
X103588Y51635D01*
X103590Y51631D01*
X103596Y51626D01*
X103601Y51618D01*
X103609Y51607D01*
X103616Y51594D01*
X103626Y51580D01*
X103635Y51563D01*
X103644Y51544D01*
X103653Y51524D01*
X103661Y51502D01*
X103668Y51478D01*
X103679Y51422D01*
X103681Y51393D01*
X103683Y51361D01*
Y51359D01*
Y51354D01*
Y51346D01*
X103681Y51337D01*
Y51324D01*
X103679Y51309D01*
X103675Y51291D01*
X103674Y51272D01*
X103663Y51231D01*
X103648Y51189D01*
X103629Y51144D01*
X103616Y51122D01*
X103601Y51100D01*
Y51098D01*
X103598Y51094D01*
X103592Y51089D01*
X103587Y51083D01*
X103577Y51074D01*
X103566Y51065D01*
X103551Y51054D01*
X103537Y51044D01*
X103518Y51033D01*
X103498Y51022D01*
X103476Y51013D01*
X103451Y51006D01*
X103424Y50998D01*
X103394Y50993D01*
X103361Y50989D01*
X103326Y50987D01*
X102826D01*
Y52239D01*
X103594D01*
Y52028D01*
D02*
G37*
G36*
X102607Y50987D02*
X102400D01*
Y52028D01*
X101994D01*
Y50987D01*
X101787D01*
Y52239D01*
X102607D01*
Y50987D01*
D02*
G37*
G36*
X113271Y52241D02*
X113284Y52239D01*
X113299Y52235D01*
X113334Y52224D01*
X113352Y52217D01*
X113373Y52207D01*
X113391Y52196D01*
X113412Y52183D01*
X113432Y52167D01*
X113452Y52146D01*
X113471Y52126D01*
X113489Y52100D01*
X113491Y52098D01*
X113493Y52092D01*
X113499Y52085D01*
X113504Y52072D01*
X113512Y52055D01*
X113519Y52037D01*
X113526Y52013D01*
X113536Y51985D01*
X113545Y51952D01*
X113552Y51917D01*
X113560Y51876D01*
X113567Y51830D01*
X113573Y51781D01*
X113578Y51726D01*
X113580Y51668D01*
X113582Y51604D01*
Y51602D01*
Y51600D01*
Y51594D01*
Y51589D01*
Y51570D01*
X113580Y51546D01*
Y51517D01*
X113576Y51485D01*
X113574Y51448D01*
X113571Y51409D01*
X113560Y51328D01*
X113543Y51244D01*
X113532Y51206D01*
X113521Y51170D01*
X113506Y51137D01*
X113489Y51107D01*
X113487Y51106D01*
X113486Y51102D01*
X113480Y51094D01*
X113473Y51085D01*
X113463Y51074D01*
X113452Y51063D01*
X113424Y51037D01*
X113389Y51011D01*
X113349Y50989D01*
X113326Y50980D01*
X113302Y50972D01*
X113276Y50968D01*
X113249Y50967D01*
X113241D01*
X113234Y50968D01*
X113225D01*
X113212Y50970D01*
X113197Y50974D01*
X113162Y50983D01*
X113143Y50991D01*
X113123Y51000D01*
X113104Y51011D01*
X113084Y51026D01*
X113063Y51041D01*
X113043Y51059D01*
X113025Y51081D01*
X113006Y51106D01*
X113004Y51107D01*
X113002Y51113D01*
X112999Y51120D01*
X112991Y51133D01*
X112986Y51150D01*
X112978Y51168D01*
X112969Y51193D01*
X112962Y51220D01*
X112952Y51254D01*
X112945Y51289D01*
X112936Y51330D01*
X112930Y51376D01*
X112925Y51426D01*
X112919Y51481D01*
X112917Y51541D01*
X112915Y51605D01*
Y51607D01*
Y51609D01*
Y51615D01*
Y51620D01*
Y51639D01*
X112917Y51663D01*
X112919Y51691D01*
X112921Y51724D01*
X112923Y51761D01*
X112926Y51800D01*
X112938Y51881D01*
X112954Y51963D01*
X112963Y52002D01*
X112976Y52037D01*
X112989Y52070D01*
X113006Y52100D01*
X113008Y52102D01*
X113010Y52105D01*
X113015Y52113D01*
X113023Y52122D01*
X113032Y52133D01*
X113043Y52144D01*
X113071Y52172D01*
X113106Y52198D01*
X113147Y52220D01*
X113169Y52229D01*
X113193Y52237D01*
X113219Y52241D01*
X113247Y52242D01*
X113262D01*
X113271Y52241D01*
D02*
G37*
G36*
X112473D02*
X112486Y52239D01*
X112501Y52235D01*
X112536Y52224D01*
X112554Y52217D01*
X112575Y52207D01*
X112593Y52196D01*
X112613Y52183D01*
X112634Y52167D01*
X112654Y52146D01*
X112673Y52126D01*
X112691Y52100D01*
X112693Y52098D01*
X112695Y52092D01*
X112700Y52085D01*
X112706Y52072D01*
X112713Y52055D01*
X112721Y52037D01*
X112728Y52013D01*
X112738Y51985D01*
X112747Y51952D01*
X112754Y51917D01*
X112762Y51876D01*
X112769Y51830D01*
X112775Y51781D01*
X112780Y51726D01*
X112782Y51668D01*
X112784Y51604D01*
Y51602D01*
Y51600D01*
Y51594D01*
Y51589D01*
Y51570D01*
X112782Y51546D01*
Y51517D01*
X112778Y51485D01*
X112776Y51448D01*
X112773Y51409D01*
X112762Y51328D01*
X112745Y51244D01*
X112734Y51206D01*
X112723Y51170D01*
X112708Y51137D01*
X112691Y51107D01*
X112689Y51106D01*
X112688Y51102D01*
X112682Y51094D01*
X112675Y51085D01*
X112665Y51074D01*
X112654Y51063D01*
X112626Y51037D01*
X112591Y51011D01*
X112550Y50989D01*
X112528Y50980D01*
X112504Y50972D01*
X112478Y50968D01*
X112451Y50967D01*
X112443D01*
X112436Y50968D01*
X112426D01*
X112413Y50970D01*
X112399Y50974D01*
X112363Y50983D01*
X112345Y50991D01*
X112325Y51000D01*
X112306Y51011D01*
X112286Y51026D01*
X112265Y51041D01*
X112245Y51059D01*
X112226Y51081D01*
X112208Y51106D01*
X112206Y51107D01*
X112204Y51113D01*
X112201Y51120D01*
X112193Y51133D01*
X112188Y51150D01*
X112180Y51168D01*
X112171Y51193D01*
X112163Y51220D01*
X112154Y51254D01*
X112147Y51289D01*
X112138Y51330D01*
X112132Y51376D01*
X112126Y51426D01*
X112121Y51481D01*
X112119Y51541D01*
X112117Y51605D01*
Y51607D01*
Y51609D01*
Y51615D01*
Y51620D01*
Y51639D01*
X112119Y51663D01*
X112121Y51691D01*
X112123Y51724D01*
X112125Y51761D01*
X112128Y51800D01*
X112139Y51881D01*
X112156Y51963D01*
X112165Y52002D01*
X112178Y52037D01*
X112191Y52070D01*
X112208Y52100D01*
X112210Y52102D01*
X112212Y52105D01*
X112217Y52113D01*
X112225Y52122D01*
X112234Y52133D01*
X112245Y52144D01*
X112273Y52172D01*
X112308Y52198D01*
X112349Y52220D01*
X112371Y52229D01*
X112395Y52237D01*
X112421Y52241D01*
X112449Y52242D01*
X112463D01*
X112473Y52241D01*
D02*
G37*
G36*
X110478D02*
X110491Y52239D01*
X110506Y52235D01*
X110541Y52224D01*
X110560Y52217D01*
X110580Y52207D01*
X110599Y52196D01*
X110619Y52183D01*
X110640Y52167D01*
X110660Y52146D01*
X110678Y52126D01*
X110697Y52100D01*
X110699Y52098D01*
X110701Y52092D01*
X110706Y52085D01*
X110712Y52072D01*
X110719Y52055D01*
X110727Y52037D01*
X110734Y52013D01*
X110743Y51985D01*
X110753Y51952D01*
X110760Y51917D01*
X110767Y51876D01*
X110775Y51830D01*
X110780Y51781D01*
X110786Y51726D01*
X110788Y51668D01*
X110790Y51604D01*
Y51602D01*
Y51600D01*
Y51594D01*
Y51589D01*
Y51570D01*
X110788Y51546D01*
Y51517D01*
X110784Y51485D01*
X110782Y51448D01*
X110778Y51409D01*
X110767Y51328D01*
X110751Y51244D01*
X110740Y51206D01*
X110728Y51170D01*
X110714Y51137D01*
X110697Y51107D01*
X110695Y51106D01*
X110693Y51102D01*
X110688Y51094D01*
X110680Y51085D01*
X110671Y51074D01*
X110660Y51063D01*
X110632Y51037D01*
X110597Y51011D01*
X110556Y50989D01*
X110534Y50980D01*
X110510Y50972D01*
X110484Y50968D01*
X110456Y50967D01*
X110449D01*
X110441Y50968D01*
X110432D01*
X110419Y50970D01*
X110404Y50974D01*
X110369Y50983D01*
X110351Y50991D01*
X110330Y51000D01*
X110312Y51011D01*
X110291Y51026D01*
X110271Y51041D01*
X110251Y51059D01*
X110232Y51081D01*
X110214Y51106D01*
X110212Y51107D01*
X110210Y51113D01*
X110206Y51120D01*
X110199Y51133D01*
X110193Y51150D01*
X110186Y51168D01*
X110177Y51193D01*
X110169Y51220D01*
X110160Y51254D01*
X110153Y51289D01*
X110143Y51330D01*
X110138Y51376D01*
X110132Y51426D01*
X110127Y51481D01*
X110125Y51541D01*
X110123Y51605D01*
Y51607D01*
Y51609D01*
Y51615D01*
Y51620D01*
Y51639D01*
X110125Y51663D01*
X110127Y51691D01*
X110129Y51724D01*
X110130Y51761D01*
X110134Y51800D01*
X110145Y51881D01*
X110162Y51963D01*
X110171Y52002D01*
X110184Y52037D01*
X110197Y52070D01*
X110214Y52100D01*
X110216Y52102D01*
X110217Y52105D01*
X110223Y52113D01*
X110230Y52122D01*
X110240Y52133D01*
X110251Y52144D01*
X110279Y52172D01*
X110314Y52198D01*
X110354Y52220D01*
X110377Y52229D01*
X110401Y52237D01*
X110427Y52241D01*
X110454Y52242D01*
X110469D01*
X110478Y52241D01*
D02*
G37*
%LPC*%
G36*
X101266Y78632D02*
X100947D01*
X100789Y77993D01*
X101108D01*
X101127Y77996D01*
X101152Y78001D01*
X101180Y78012D01*
X101211Y78024D01*
X101247Y78043D01*
X101280Y78068D01*
X101286Y78071D01*
X101297Y78082D01*
X101311Y78098D01*
X101330Y78118D01*
X101352Y78146D01*
X101372Y78176D01*
X101388Y78210D01*
X101402Y78248D01*
X101438Y78390D01*
Y78396D01*
X101441Y78407D01*
X101444Y78426D01*
Y78451D01*
Y78476D01*
X101438Y78507D01*
X101430Y78534D01*
X101413Y78562D01*
X101410Y78565D01*
X101405Y78573D01*
X101391Y78584D01*
X101377Y78598D01*
X101355Y78609D01*
X101330Y78620D01*
X101299Y78629D01*
X101266Y78632D01*
D02*
G37*
G36*
X101125Y77793D02*
X100736D01*
X100544Y77019D01*
X100933D01*
X100952Y77021D01*
X100977Y77027D01*
X101008Y77035D01*
X101038Y77049D01*
X101075Y77066D01*
X101108Y77091D01*
X101113Y77093D01*
X101125Y77105D01*
X101138Y77118D01*
X101158Y77141D01*
X101180Y77166D01*
X101199Y77196D01*
X101216Y77232D01*
X101230Y77271D01*
X101299Y77552D01*
Y77557D01*
X101302Y77568D01*
X101305Y77585D01*
Y77610D01*
X101302Y77635D01*
X101297Y77665D01*
X101286Y77693D01*
X101269Y77721D01*
X101266Y77724D01*
X101258Y77732D01*
X101247Y77743D01*
X101230Y77757D01*
X101211Y77771D01*
X101186Y77782D01*
X101155Y77790D01*
X101125Y77793D01*
D02*
G37*
G36*
X102377Y76213D02*
X102360D01*
X102341Y76210D01*
X102313Y76205D01*
X102285Y76196D01*
X102252Y76182D01*
X102218Y76166D01*
X102182Y76141D01*
X102179Y76138D01*
X102168Y76127D01*
X102152Y76113D01*
X102132Y76091D01*
X102113Y76066D01*
X102093Y76035D01*
X102074Y75999D01*
X102060Y75960D01*
X102024Y75819D01*
Y75813D01*
X102021Y75802D01*
X102018Y75783D01*
Y75758D01*
X102021Y75730D01*
X102024Y75699D01*
X102035Y75672D01*
X102052Y75644D01*
X102055Y75641D01*
X102063Y75633D01*
X102074Y75622D01*
X102091Y75610D01*
X102110Y75599D01*
X102135Y75588D01*
X102166Y75580D01*
X102199Y75577D01*
X102216D01*
X102235Y75580D01*
X102260Y75585D01*
X102288Y75594D01*
X102318Y75608D01*
X102354Y75624D01*
X102388Y75649D01*
X102393Y75652D01*
X102404Y75663D01*
X102418Y75677D01*
X102438Y75699D01*
X102460Y75724D01*
X102479Y75755D01*
X102496Y75791D01*
X102510Y75830D01*
X102546Y75971D01*
Y75977D01*
X102549Y75988D01*
X102552Y76007D01*
X102554Y76032D01*
X102552Y76060D01*
X102546Y76088D01*
X102538Y76116D01*
X102521Y76143D01*
X102518Y76146D01*
X102513Y76155D01*
X102502Y76166D01*
X102485Y76180D01*
X102463Y76191D01*
X102440Y76202D01*
X102410Y76210D01*
X102377Y76213D01*
D02*
G37*
G36*
X102235Y75374D02*
X102080D01*
X102060Y75372D01*
X102032Y75366D01*
X102002Y75355D01*
X101969Y75344D01*
X101935Y75324D01*
X101899Y75299D01*
X101896Y75297D01*
X101885Y75286D01*
X101869Y75272D01*
X101849Y75250D01*
X101830Y75225D01*
X101810Y75194D01*
X101794Y75161D01*
X101783Y75122D01*
X101713Y74841D01*
Y74836D01*
X101710Y74825D01*
X101708Y74805D01*
Y74783D01*
X101710Y74755D01*
X101713Y74728D01*
X101724Y74697D01*
X101741Y74669D01*
X101744Y74667D01*
X101752Y74658D01*
X101763Y74647D01*
X101780Y74636D01*
X101802Y74622D01*
X101824Y74611D01*
X101855Y74603D01*
X101885Y74600D01*
X102041D01*
X102060Y74603D01*
X102088Y74608D01*
X102116Y74617D01*
X102149Y74630D01*
X102185Y74647D01*
X102218Y74672D01*
X102221Y74675D01*
X102232Y74686D01*
X102249Y74703D01*
X102268Y74722D01*
X102288Y74750D01*
X102307Y74780D01*
X102324Y74816D01*
X102338Y74855D01*
X102407Y75133D01*
Y75138D01*
X102410Y75150D01*
X102413Y75169D01*
Y75194D01*
Y75222D01*
X102407Y75250D01*
X102399Y75277D01*
X102382Y75305D01*
X102379Y75308D01*
X102374Y75316D01*
X102360Y75327D01*
X102346Y75341D01*
X102324Y75352D01*
X102299Y75363D01*
X102268Y75372D01*
X102235Y75374D01*
D02*
G37*
G36*
X118995Y55945D02*
X118992D01*
X118982Y55943D01*
X118975Y55940D01*
X118969Y55938D01*
X118966Y55936D01*
X118959Y55929D01*
X118954Y55922D01*
X118951Y55916D01*
X118949Y55915D01*
Y55914D01*
X118900Y55802D01*
X118604Y55135D01*
X118562Y55640D01*
X118558Y55651D01*
X118553Y55658D01*
X118549Y55664D01*
X118545Y55668D01*
X118541Y55671D01*
X118538Y55672D01*
X118535D01*
X118527Y55671D01*
X118518Y55668D01*
X118511Y55663D01*
X118505Y55657D01*
X118500Y55651D01*
X118495Y55646D01*
X118494Y55643D01*
X118493Y55641D01*
X118198Y55135D01*
X118242Y55914D01*
X118240Y55923D01*
X118238Y55932D01*
X118233Y55938D01*
X118228Y55940D01*
X118222Y55943D01*
X118218Y55945D01*
X118214D01*
X118204Y55943D01*
X118194Y55939D01*
X118188Y55933D01*
X118185Y55932D01*
X118177Y55923D01*
X118171Y55916D01*
X118168Y55911D01*
X118167Y55909D01*
X118166Y55901D01*
X118115Y54985D01*
X118122Y54958D01*
X118132Y54954D01*
X118137Y54951D01*
X118140Y54949D01*
X118142D01*
X118150Y54951D01*
X118159Y54954D01*
X118173Y54965D01*
X118178Y54969D01*
X118183Y54975D01*
X118184Y54977D01*
X118185Y54979D01*
X118495Y55513D01*
X118539Y54980D01*
X118542Y54970D01*
X118546Y54962D01*
X118550Y54956D01*
X118556Y54954D01*
X118560Y54951D01*
X118565Y54949D01*
X118569D01*
X118580Y54952D01*
X118589Y54956D01*
X118594Y54959D01*
X118596Y54961D01*
X118603Y54968D01*
X118608Y54976D01*
X118611Y54982D01*
X118613Y54985D01*
X118951Y55750D01*
X119017Y55899D01*
X119020Y55908D01*
X119021Y55916D01*
Y55918D01*
Y55919D01*
X119020Y55926D01*
X119019Y55932D01*
X119017Y55935D01*
X119016Y55936D01*
X119009Y55942D01*
X119000Y55943D01*
X118995Y55945D01*
D02*
G37*
G36*
X121215D02*
X121212D01*
X121201Y55943D01*
X121191Y55939D01*
X121185Y55933D01*
X121182Y55932D01*
X121174Y55922D01*
X121168Y55915D01*
X121167Y55909D01*
X121165Y55906D01*
X120981Y55162D01*
X120972Y55141D01*
X120962Y55121D01*
X120951Y55104D01*
X120940Y55090D01*
X120929Y55078D01*
X120920Y55069D01*
X120915Y55063D01*
X120912Y55062D01*
X120892Y55049D01*
X120872Y55040D01*
X120854Y55032D01*
X120838Y55028D01*
X120824Y55025D01*
X120813Y55023D01*
X120733D01*
X120713Y55024D01*
X120695Y55030D01*
X120681Y55035D01*
X120668Y55044D01*
X120657Y55051D01*
X120650Y55058D01*
X120645Y55062D01*
X120644Y55063D01*
X120634Y55080D01*
X120628Y55097D01*
X120626Y55113D01*
X120624Y55128D01*
Y55142D01*
X120626Y55152D01*
X120627Y55159D01*
Y55162D01*
X120813Y55906D01*
X120814Y55919D01*
X120812Y55928D01*
X120809Y55933D01*
X120807Y55935D01*
X120800Y55940D01*
X120793Y55943D01*
X120788Y55945D01*
X120785D01*
X120775Y55943D01*
X120765Y55939D01*
X120759Y55933D01*
X120757Y55932D01*
X120748Y55922D01*
X120743Y55915D01*
X120741Y55909D01*
X120740Y55906D01*
X120554Y55162D01*
X120549Y55142D01*
X120548Y55126D01*
X120547Y55120D01*
Y55114D01*
Y55111D01*
Y55110D01*
X120548Y55090D01*
X120552Y55071D01*
X120558Y55054D01*
X120565Y55040D01*
X120571Y55028D01*
X120576Y55018D01*
X120580Y55013D01*
X120582Y55011D01*
X120592Y55000D01*
X120602Y54992D01*
X120624Y54976D01*
X120647Y54965D01*
X120668Y54958D01*
X120686Y54952D01*
X120700Y54951D01*
X120706Y54949D01*
X120785D01*
X120802Y54951D01*
X120819Y54952D01*
X120850Y54959D01*
X120878Y54969D01*
X120903Y54980D01*
X120923Y54992D01*
X120931Y54997D01*
X120939Y55001D01*
X120946Y55006D01*
X120950Y55008D01*
X120951Y55011D01*
X120953D01*
X120979Y55037D01*
X121002Y55062D01*
X121019Y55087D01*
X121033Y55110D01*
X121041Y55131D01*
X121048Y55148D01*
X121050Y55154D01*
X121051Y55158D01*
X121053Y55161D01*
Y55162D01*
X121239Y55906D01*
X121240Y55915D01*
Y55918D01*
X121239Y55925D01*
X121237Y55930D01*
X121236Y55933D01*
X121235Y55935D01*
X121228Y55940D01*
X121219Y55943D01*
X121215Y55945D01*
D02*
G37*
G36*
X117863Y55943D02*
X117606D01*
X117593Y55942D01*
X117583Y55938D01*
X117575Y55932D01*
X117569Y55925D01*
X117565Y55918D01*
X117562Y55912D01*
X117561Y55908D01*
Y55906D01*
X117330Y54987D01*
X117328Y54979D01*
Y54975D01*
X117330Y54968D01*
X117331Y54963D01*
X117332Y54961D01*
X117334Y54959D01*
X117345Y54955D01*
X117352Y54952D01*
X117356Y54951D01*
X117358D01*
X117369Y54952D01*
X117378Y54955D01*
X117383Y54958D01*
X117386Y54959D01*
X117395Y54968D01*
X117399Y54976D01*
X117402Y54983D01*
X117403Y54986D01*
X117500Y55375D01*
X117712D01*
X117729Y55376D01*
X117746Y55378D01*
X117777Y55385D01*
X117805Y55395D01*
X117830Y55406D01*
X117850Y55417D01*
X117858Y55423D01*
X117865Y55427D01*
X117872Y55431D01*
X117877Y55434D01*
X117878Y55437D01*
X117879D01*
X117906Y55461D01*
X117929Y55486D01*
X117946Y55512D01*
X117960Y55536D01*
X117968Y55557D01*
X117975Y55574D01*
X117977Y55579D01*
X117978Y55584D01*
X117980Y55586D01*
Y55588D01*
X118015Y55729D01*
X118019Y55751D01*
X118022Y55774D01*
X118020Y55812D01*
X118018Y55826D01*
X118013Y55840D01*
X118008Y55852D01*
X118004Y55861D01*
X117998Y55870D01*
X117995Y55875D01*
X117992Y55880D01*
X117991Y55881D01*
X117981Y55892D01*
X117971Y55902D01*
X117949Y55916D01*
X117926Y55928D01*
X117903Y55936D01*
X117884Y55940D01*
X117868Y55942D01*
X117863Y55943D01*
D02*
G37*
G36*
X121845Y55945D02*
X121409D01*
X121404Y55942D01*
X121394Y55938D01*
X121387Y55932D01*
X121384Y55930D01*
Y55929D01*
X121377Y55919D01*
X121373Y55914D01*
X121370Y55909D01*
Y55908D01*
Y55897D01*
Y55888D01*
X121371Y55883D01*
X121373Y55881D01*
X121380Y55874D01*
X121388Y55871D01*
X121395Y55870D01*
X121573D01*
X121353Y54986D01*
X121350Y54977D01*
Y54973D01*
X121352Y54966D01*
X121354Y54962D01*
X121356Y54959D01*
X121357Y54958D01*
X121367Y54954D01*
X121374Y54951D01*
X121378Y54949D01*
X121380D01*
X121391Y54951D01*
X121401Y54954D01*
X121407Y54956D01*
X121409Y54958D01*
X121418Y54966D01*
X121422Y54976D01*
X121425Y54983D01*
X121426Y54985D01*
Y54986D01*
X121648Y55870D01*
X121824D01*
X121836Y55871D01*
X121846Y55875D01*
X121852Y55880D01*
X121855Y55881D01*
X121863Y55891D01*
X121868Y55898D01*
X121870Y55904D01*
Y55906D01*
X121872Y55911D01*
Y55914D01*
X121870Y55921D01*
X121868Y55928D01*
X121865Y55932D01*
X121863Y55933D01*
X121856Y55940D01*
X121849Y55943D01*
X121845Y55945D01*
D02*
G37*
G36*
X120390D02*
X120294D01*
X120279Y55942D01*
X120246Y55935D01*
X120218Y55923D01*
X120193Y55912D01*
X120172Y55901D01*
X120163Y55895D01*
X120156Y55890D01*
X120150Y55885D01*
X120146Y55883D01*
X120143Y55881D01*
X120142Y55880D01*
X120115Y55856D01*
X120094Y55829D01*
X120077Y55805D01*
X120064Y55781D01*
X120055Y55761D01*
X120049Y55744D01*
X120048Y55739D01*
X120046Y55735D01*
X120045Y55732D01*
Y55730D01*
X119902Y55162D01*
X119898Y55142D01*
X119897Y55126D01*
X119895Y55120D01*
Y55110D01*
X119897Y55090D01*
X119901Y55071D01*
X119907Y55054D01*
X119914Y55040D01*
X119919Y55028D01*
X119925Y55018D01*
X119929Y55013D01*
X119931Y55011D01*
X119940Y55000D01*
X119950Y54992D01*
X119973Y54976D01*
X119995Y54965D01*
X120017Y54958D01*
X120035Y54952D01*
X120049Y54951D01*
X120055Y54949D01*
X120134D01*
X120150Y54951D01*
X120167Y54952D01*
X120198Y54959D01*
X120227Y54969D01*
X120252Y54980D01*
X120272Y54992D01*
X120280Y54997D01*
X120287Y55001D01*
X120294Y55006D01*
X120299Y55008D01*
X120300Y55011D01*
X120301D01*
X120328Y55037D01*
X120351Y55062D01*
X120368Y55087D01*
X120382Y55110D01*
X120390Y55131D01*
X120397Y55148D01*
X120399Y55154D01*
X120400Y55158D01*
X120401Y55161D01*
Y55162D01*
X120542Y55729D01*
X120547Y55745D01*
X120548Y55750D01*
X120549Y55767D01*
X120551Y55774D01*
Y55778D01*
Y55781D01*
Y55782D01*
X120549Y55804D01*
X120547Y55816D01*
X120545Y55822D01*
X120541Y55839D01*
X120535Y55853D01*
X120528Y55864D01*
X120524Y55874D01*
X120520Y55880D01*
X120518Y55881D01*
X120509Y55892D01*
X120499Y55902D01*
X120478Y55918D01*
X120454Y55929D01*
X120432Y55936D01*
X120413Y55942D01*
X120396Y55943D01*
X120390Y55945D01*
D02*
G37*
G36*
X119434D02*
X119178D01*
X119165Y55943D01*
X119155Y55939D01*
X119147Y55932D01*
X119141Y55926D01*
X119137Y55919D01*
X119134Y55912D01*
X119133Y55908D01*
Y55906D01*
X118901Y54986D01*
X118900Y54977D01*
Y54975D01*
Y54973D01*
X118901Y54966D01*
X118903Y54962D01*
X118904Y54959D01*
X118906Y54958D01*
X118917Y54954D01*
X118924Y54951D01*
X118928Y54949D01*
X118930D01*
X118941Y54951D01*
X118949Y54954D01*
X118955Y54956D01*
X118958Y54958D01*
X118966Y54966D01*
X118971Y54976D01*
X118973Y54983D01*
X118975Y54985D01*
Y54986D01*
X119072Y55375D01*
X119192D01*
X119327Y54968D01*
X119330Y54962D01*
X119334Y54956D01*
X119336Y54955D01*
X119337Y54954D01*
X119343Y54951D01*
X119348Y54949D01*
X119354D01*
X119365Y54951D01*
X119374Y54955D01*
X119381Y54958D01*
X119384Y54959D01*
X119392Y54969D01*
X119398Y54977D01*
X119401Y54983D01*
X119402Y54986D01*
Y54993D01*
Y54999D01*
X119401Y55003D01*
Y55004D01*
X119286Y55347D01*
X119374Y55375D01*
X119375Y55376D01*
X119377Y55378D01*
X119386Y55385D01*
X119398Y55395D01*
X119413Y55406D01*
X119427Y55417D01*
X119439Y55427D01*
X119448Y55434D01*
X119450Y55437D01*
X119451D01*
X119478Y55462D01*
X119501Y55488D01*
X119518Y55513D01*
X119532Y55536D01*
X119540Y55557D01*
X119547Y55574D01*
X119549Y55579D01*
X119550Y55584D01*
X119551Y55586D01*
Y55588D01*
X119587Y55729D01*
X119591Y55750D01*
X119592Y55767D01*
X119594Y55774D01*
Y55782D01*
X119592Y55804D01*
X119588Y55822D01*
X119584Y55839D01*
X119578Y55853D01*
X119571Y55864D01*
X119567Y55874D01*
X119563Y55880D01*
X119561Y55881D01*
X119551Y55892D01*
X119541Y55902D01*
X119520Y55918D01*
X119498Y55929D01*
X119475Y55936D01*
X119456Y55942D01*
X119440Y55943D01*
X119434Y55945D01*
D02*
G37*
%LPD*%
G36*
X117857Y55868D02*
X117874Y55863D01*
X117889Y55857D01*
X117902Y55849D01*
X117912Y55842D01*
X117919Y55835D01*
X117923Y55829D01*
X117925Y55828D01*
X117934Y55812D01*
X117940Y55795D01*
X117944Y55778D01*
X117946Y55764D01*
Y55750D01*
X117944Y55740D01*
X117943Y55733D01*
Y55730D01*
X117908Y55588D01*
X117899Y55567D01*
X117889Y55547D01*
X117878Y55530D01*
X117867Y55516D01*
X117855Y55503D01*
X117847Y55495D01*
X117841Y55489D01*
X117839Y55488D01*
X117819Y55475D01*
X117801Y55465D01*
X117782Y55458D01*
X117765Y55454D01*
X117751Y55451D01*
X117740Y55448D01*
X117519D01*
X117624Y55870D01*
X117836D01*
X117857Y55868D01*
D02*
G37*
G36*
X120386D02*
X120403Y55864D01*
X120418Y55857D01*
X120431Y55850D01*
X120441Y55842D01*
X120448Y55836D01*
X120452Y55830D01*
X120454Y55829D01*
X120463Y55813D01*
X120469Y55797D01*
X120472Y55780D01*
X120473Y55764D01*
Y55751D01*
X120472Y55740D01*
X120470Y55733D01*
Y55730D01*
X120330Y55162D01*
X120321Y55141D01*
X120311Y55121D01*
X120300Y55104D01*
X120289Y55090D01*
X120277Y55078D01*
X120269Y55069D01*
X120263Y55063D01*
X120260Y55062D01*
X120241Y55049D01*
X120221Y55040D01*
X120203Y55032D01*
X120187Y55028D01*
X120173Y55025D01*
X120162Y55023D01*
X120081D01*
X120062Y55024D01*
X120043Y55030D01*
X120029Y55035D01*
X120017Y55044D01*
X120005Y55051D01*
X119998Y55058D01*
X119994Y55062D01*
X119993Y55063D01*
X119983Y55080D01*
X119977Y55097D01*
X119974Y55113D01*
X119973Y55128D01*
Y55142D01*
X119974Y55152D01*
X119976Y55159D01*
Y55162D01*
X120118Y55730D01*
X120125Y55751D01*
X120134Y55770D01*
X120145Y55787D01*
X120156Y55801D01*
X120166Y55813D01*
X120174Y55822D01*
X120180Y55828D01*
X120183Y55829D01*
X120203Y55843D01*
X120222Y55853D01*
X120241Y55860D01*
X120258Y55864D01*
X120272Y55868D01*
X120283Y55870D01*
X120365D01*
X120386Y55868D01*
D02*
G37*
G36*
X119429D02*
X119446Y55864D01*
X119461Y55857D01*
X119474Y55850D01*
X119484Y55842D01*
X119491Y55836D01*
X119495Y55830D01*
X119496Y55829D01*
X119506Y55813D01*
X119512Y55797D01*
X119516Y55780D01*
X119518Y55764D01*
Y55751D01*
X119516Y55740D01*
X119515Y55733D01*
Y55730D01*
X119478Y55588D01*
X119471Y55567D01*
X119461Y55547D01*
X119450Y55530D01*
X119439Y55516D01*
X119427Y55503D01*
X119419Y55495D01*
X119413Y55489D01*
X119410Y55488D01*
X119391Y55475D01*
X119371Y55465D01*
X119353Y55458D01*
X119337Y55454D01*
X119323Y55451D01*
X119312Y55448D01*
X119090D01*
X119196Y55870D01*
X119408D01*
X119429Y55868D01*
D02*
G37*
%LPC*%
G36*
X111278Y51620D02*
X111269D01*
X111258Y51618D01*
X111245Y51613D01*
X111230Y51607D01*
X111214Y51598D01*
X111197Y51585D01*
X111182Y51567D01*
X111180Y51565D01*
X111177Y51557D01*
X111169Y51544D01*
X111164Y51526D01*
X111156Y51504D01*
X111149Y51478D01*
X111145Y51444D01*
X111143Y51407D01*
Y51405D01*
Y51402D01*
Y51396D01*
Y51389D01*
X111145Y51367D01*
X111149Y51341D01*
X111154Y51313D01*
X111162Y51283D01*
X111171Y51254D01*
X111186Y51228D01*
X111188Y51226D01*
X111193Y51218D01*
X111202Y51209D01*
X111215Y51198D01*
X111230Y51185D01*
X111247Y51176D01*
X111267Y51168D01*
X111288Y51167D01*
X111297D01*
X111306Y51168D01*
X111319Y51172D01*
X111334Y51180D01*
X111349Y51187D01*
X111364Y51200D01*
X111378Y51217D01*
X111380Y51218D01*
X111384Y51226D01*
X111390Y51239D01*
X111397Y51257D01*
X111404Y51281D01*
X111410Y51311D01*
X111414Y51346D01*
X111415Y51387D01*
Y51389D01*
Y51393D01*
Y51398D01*
Y51407D01*
X111414Y51428D01*
X111410Y51454D01*
X111406Y51483D01*
X111399Y51513D01*
X111388Y51539D01*
X111375Y51563D01*
X111373Y51565D01*
X111367Y51572D01*
X111360Y51581D01*
X111349Y51593D01*
X111334Y51602D01*
X111317Y51611D01*
X111299Y51618D01*
X111278Y51620D01*
D02*
G37*
G36*
X103259Y51530D02*
X103033D01*
Y51198D01*
X103279D01*
X103298Y51200D01*
X103337Y51204D01*
X103355Y51206D01*
X103372Y51209D01*
X103374D01*
X103379Y51211D01*
X103385Y51215D01*
X103394Y51220D01*
X103405Y51228D01*
X103416Y51235D01*
X103427Y51248D01*
X103438Y51261D01*
X103440Y51263D01*
X103444Y51268D01*
X103448Y51278D01*
X103453Y51289D01*
X103459Y51304D01*
X103464Y51320D01*
X103466Y51339D01*
X103468Y51359D01*
Y51361D01*
Y51367D01*
X103466Y51376D01*
X103464Y51385D01*
X103463Y51398D01*
X103457Y51413D01*
X103451Y51428D01*
X103442Y51444D01*
X103431Y51461D01*
X103416Y51476D01*
X103400Y51491D01*
X103379Y51504D01*
X103355Y51515D01*
X103327Y51522D01*
X103296Y51528D01*
X103259Y51530D01*
D02*
G37*
G36*
X113249Y52042D02*
X113247D01*
X113239Y52041D01*
X113228Y52039D01*
X113215Y52033D01*
X113200Y52024D01*
X113184Y52009D01*
X113169Y51991D01*
X113156Y51965D01*
X113154Y51961D01*
X113152Y51955D01*
X113150Y51948D01*
X113149Y51939D01*
X113145Y51926D01*
X113143Y51909D01*
X113139Y51891D01*
X113136Y51868D01*
X113134Y51842D01*
X113130Y51813D01*
X113128Y51780D01*
X113126Y51743D01*
X113125Y51702D01*
X113123Y51655D01*
Y51604D01*
Y51600D01*
Y51591D01*
Y51578D01*
Y51557D01*
X113125Y51535D01*
Y51509D01*
X113126Y51481D01*
Y51452D01*
X113130Y51391D01*
X113134Y51359D01*
X113137Y51331D01*
X113141Y51304D01*
X113145Y51280D01*
X113150Y51259D01*
X113156Y51243D01*
X113158Y51239D01*
X113162Y51231D01*
X113169Y51218D01*
X113180Y51206D01*
X113193Y51191D01*
X113210Y51178D01*
X113228Y51170D01*
X113249Y51167D01*
X113250D01*
X113258Y51168D01*
X113269Y51170D01*
X113282Y51176D01*
X113297Y51185D01*
X113312Y51198D01*
X113326Y51217D01*
X113339Y51243D01*
Y51244D01*
X113341Y51246D01*
X113343Y51252D01*
X113345Y51259D01*
X113347Y51268D01*
X113350Y51281D01*
X113354Y51298D01*
X113358Y51317D01*
X113360Y51339D01*
X113363Y51365D01*
X113367Y51394D01*
X113369Y51428D01*
X113371Y51465D01*
X113373Y51505D01*
X113374Y51552D01*
Y51604D01*
Y51607D01*
Y51617D01*
Y51631D01*
Y51650D01*
X113373Y51672D01*
Y51698D01*
X113371Y51726D01*
Y51755D01*
X113365Y51817D01*
X113363Y51848D01*
X113360Y51876D01*
X113356Y51904D01*
X113350Y51928D01*
X113345Y51948D01*
X113339Y51965D01*
X113337Y51968D01*
X113334Y51978D01*
X113326Y51989D01*
X113315Y52004D01*
X113302Y52018D01*
X113287Y52029D01*
X113269Y52039D01*
X113249Y52042D01*
D02*
G37*
G36*
X112451D02*
X112449D01*
X112441Y52041D01*
X112430Y52039D01*
X112417Y52033D01*
X112402Y52024D01*
X112386Y52009D01*
X112371Y51991D01*
X112358Y51965D01*
X112356Y51961D01*
X112354Y51955D01*
X112352Y51948D01*
X112351Y51939D01*
X112347Y51926D01*
X112345Y51909D01*
X112341Y51891D01*
X112338Y51868D01*
X112336Y51842D01*
X112332Y51813D01*
X112330Y51780D01*
X112328Y51743D01*
X112326Y51702D01*
X112325Y51655D01*
Y51604D01*
Y51600D01*
Y51591D01*
Y51578D01*
Y51557D01*
X112326Y51535D01*
Y51509D01*
X112328Y51481D01*
Y51452D01*
X112332Y51391D01*
X112336Y51359D01*
X112339Y51331D01*
X112343Y51304D01*
X112347Y51280D01*
X112352Y51259D01*
X112358Y51243D01*
X112360Y51239D01*
X112363Y51231D01*
X112371Y51218D01*
X112382Y51206D01*
X112395Y51191D01*
X112412Y51178D01*
X112430Y51170D01*
X112451Y51167D01*
X112452D01*
X112460Y51168D01*
X112471Y51170D01*
X112484Y51176D01*
X112499Y51185D01*
X112513Y51198D01*
X112528Y51217D01*
X112541Y51243D01*
Y51244D01*
X112543Y51246D01*
X112545Y51252D01*
X112547Y51259D01*
X112549Y51268D01*
X112552Y51281D01*
X112556Y51298D01*
X112560Y51317D01*
X112562Y51339D01*
X112565Y51365D01*
X112569Y51394D01*
X112571Y51428D01*
X112573Y51465D01*
X112575Y51505D01*
X112576Y51552D01*
Y51604D01*
Y51607D01*
Y51617D01*
Y51631D01*
Y51650D01*
X112575Y51672D01*
Y51698D01*
X112573Y51726D01*
Y51755D01*
X112567Y51817D01*
X112565Y51848D01*
X112562Y51876D01*
X112558Y51904D01*
X112552Y51928D01*
X112547Y51948D01*
X112541Y51965D01*
X112539Y51968D01*
X112536Y51978D01*
X112528Y51989D01*
X112517Y52004D01*
X112504Y52018D01*
X112489Y52029D01*
X112471Y52039D01*
X112451Y52042D01*
D02*
G37*
G36*
X110456D02*
X110454D01*
X110447Y52041D01*
X110436Y52039D01*
X110423Y52033D01*
X110408Y52024D01*
X110391Y52009D01*
X110377Y51991D01*
X110364Y51965D01*
X110362Y51961D01*
X110360Y51955D01*
X110358Y51948D01*
X110356Y51939D01*
X110353Y51926D01*
X110351Y51909D01*
X110347Y51891D01*
X110343Y51868D01*
X110341Y51842D01*
X110338Y51813D01*
X110336Y51780D01*
X110334Y51743D01*
X110332Y51702D01*
X110330Y51655D01*
Y51604D01*
Y51600D01*
Y51591D01*
Y51578D01*
Y51557D01*
X110332Y51535D01*
Y51509D01*
X110334Y51481D01*
Y51452D01*
X110338Y51391D01*
X110341Y51359D01*
X110345Y51331D01*
X110349Y51304D01*
X110353Y51280D01*
X110358Y51259D01*
X110364Y51243D01*
X110366Y51239D01*
X110369Y51231D01*
X110377Y51218D01*
X110388Y51206D01*
X110401Y51191D01*
X110417Y51178D01*
X110436Y51170D01*
X110456Y51167D01*
X110458D01*
X110466Y51168D01*
X110477Y51170D01*
X110490Y51176D01*
X110504Y51185D01*
X110519Y51198D01*
X110534Y51217D01*
X110547Y51243D01*
Y51244D01*
X110549Y51246D01*
X110551Y51252D01*
X110553Y51259D01*
X110554Y51268D01*
X110558Y51281D01*
X110562Y51298D01*
X110566Y51317D01*
X110567Y51339D01*
X110571Y51365D01*
X110575Y51394D01*
X110577Y51428D01*
X110578Y51465D01*
X110580Y51505D01*
X110582Y51552D01*
Y51604D01*
Y51607D01*
Y51617D01*
Y51631D01*
Y51650D01*
X110580Y51672D01*
Y51698D01*
X110578Y51726D01*
Y51755D01*
X110573Y51817D01*
X110571Y51848D01*
X110567Y51876D01*
X110564Y51904D01*
X110558Y51928D01*
X110553Y51948D01*
X110547Y51965D01*
X110545Y51968D01*
X110541Y51978D01*
X110534Y51989D01*
X110523Y52004D01*
X110510Y52018D01*
X110495Y52029D01*
X110477Y52039D01*
X110456Y52042D01*
D02*
G37*
%LPD*%
D10*
X99442Y66817D02*
G03*
X99442Y66817I-125J0D01*
G01*
X72825Y69700D02*
G03*
X72825Y69700I-125J0D01*
G01*
X65550Y70500D02*
G03*
X65550Y70500I-125J0D01*
G01*
X84650Y70000D02*
G03*
X84650Y70000I-125J0D01*
G01*
X63700Y51300D02*
G03*
X63700Y51300I-125J0D01*
G01*
X111950Y70500D02*
G03*
X111950Y70500I-125J0D01*
G01*
D11*
X67550Y52600D02*
G03*
X67550Y52600I-50J0D01*
G01*
X118650Y56450D02*
G03*
X118650Y56450I-50J0D01*
G01*
X101400Y61650D02*
Y66650D01*
X104600Y61650D02*
Y66650D01*
X101400D02*
X104600D01*
X101400Y61650D02*
X104600D01*
X69200Y68475D02*
Y72875D01*
X67000Y68475D02*
Y72875D01*
Y68475D02*
X69200D01*
X67000Y72875D02*
X69200D01*
X61550Y58600D02*
Y63400D01*
X56850Y58600D02*
X61550D01*
X56750Y73000D02*
X61550D01*
Y63400D02*
Y73000D01*
X125700Y67600D02*
Y72400D01*
X130400D01*
X125700Y58000D02*
X130500D01*
X125700D02*
Y67600D01*
X63860Y72900D02*
Y73900D01*
Y72900D02*
X65860D01*
Y73900D01*
X63860D02*
X65860D01*
X74650Y69300D02*
X78350D01*
X74650Y62700D02*
X78350D01*
X81600Y73300D02*
Y79700D01*
X75200Y73300D02*
Y79700D01*
Y73300D02*
X81600D01*
X75200Y79700D02*
X81600D01*
X100250Y67400D02*
Y70400D01*
X98750Y67400D02*
X100250D01*
X98750D02*
Y70400D01*
X100250D01*
X93075Y67150D02*
X94812D01*
X96850Y65112D01*
X86350D02*
X88387Y67150D01*
X90125D01*
X96850Y56650D02*
Y65112D01*
X93075Y56650D02*
X96850D01*
X86350D02*
X90125D01*
X86350D02*
Y65112D01*
X70300Y72150D02*
X71700D01*
X70300Y69250D02*
Y72150D01*
Y69250D02*
X71700D01*
Y72150D01*
X73130Y56295D02*
X79530D01*
X73130Y61695D02*
X79530D01*
Y56295D02*
Y56465D01*
Y61525D02*
Y61695D01*
X73130Y56295D02*
Y56465D01*
Y61525D02*
Y61695D01*
X62300Y65350D02*
X62525D01*
X62300Y69850D02*
X62525D01*
X65675Y65350D02*
X65900D01*
X65675Y69850D02*
X65900D01*
X62300Y65350D02*
Y69850D01*
X65900Y65350D02*
Y69850D01*
X69350Y62300D02*
Y63700D01*
X66450D02*
X69350D01*
X66450Y62300D02*
Y63700D01*
Y62300D02*
X69350D01*
X66450Y64400D02*
Y65800D01*
Y64400D02*
X69350D01*
Y65800D01*
X66450D02*
X69350D01*
X66450Y66500D02*
Y67900D01*
Y66500D02*
X69350D01*
Y67900D01*
X66450D02*
X69350D01*
X124250Y61150D02*
Y64150D01*
X122750Y61150D02*
X124250D01*
X122750D02*
Y64150D01*
X124250D01*
X110750Y61350D02*
Y64350D01*
X112250D01*
Y61350D02*
Y64350D01*
X110750Y61350D02*
X112250D01*
X118800Y59550D02*
X120200D01*
X118800Y56750D02*
X120200D01*
X118800D02*
Y59550D01*
X120200Y56750D02*
Y59550D01*
X118800Y61200D02*
X120200D01*
Y64100D01*
X118800D02*
X120200D01*
X118800Y61200D02*
Y64100D01*
X107150Y57450D02*
Y58850D01*
X104250D02*
X107150D01*
X104250Y57450D02*
Y58850D01*
Y57450D02*
X107150D01*
X108750Y61350D02*
Y64350D01*
X110250D01*
Y61350D02*
Y64350D01*
X108750Y61350D02*
X110250D01*
X102450Y57450D02*
Y58850D01*
X99550D02*
X102450D01*
X99550Y57450D02*
Y58850D01*
Y57450D02*
X102450D01*
X104250Y53900D02*
Y55300D01*
Y53900D02*
X107150D01*
Y55300D01*
X104250D02*
X107150D01*
X109150Y53900D02*
Y55300D01*
Y53900D02*
X112050D01*
Y55300D01*
X109150D02*
X112050D01*
X81400Y64850D02*
X81625D01*
X81400Y69350D02*
X81625D01*
X84775Y64850D02*
X85000D01*
X84775Y69350D02*
X85000D01*
X81400Y64850D02*
Y69350D01*
X85000Y64850D02*
Y69350D01*
X81550Y55400D02*
Y56800D01*
Y55400D02*
X84450D01*
Y56800D01*
X81550D02*
X84450D01*
X81500Y61050D02*
X84500D01*
Y59550D02*
Y61050D01*
X81500Y59550D02*
X84500D01*
X81500D02*
Y61050D01*
X66475Y56450D02*
X66700D01*
X66475Y51950D02*
X66700D01*
X63100Y56450D02*
X63325D01*
X63100Y51950D02*
X63325D01*
X66700D02*
Y56450D01*
X63100Y51950D02*
Y56450D01*
X113700Y72950D02*
X121300D01*
X113700Y66050D02*
X121300D01*
X113700Y71475D02*
Y72950D01*
X121300Y71475D02*
Y72950D01*
X113700Y66050D02*
Y67525D01*
X121300Y66050D02*
Y67525D01*
X91800Y77700D02*
X94000D01*
X91800Y73300D02*
X94000D01*
X91800D02*
Y77700D01*
X94000Y73300D02*
Y77700D01*
X86900D02*
X89100D01*
X86900Y73300D02*
X89100D01*
X86900D02*
Y77700D01*
X89100Y73300D02*
Y77700D01*
X108700Y65350D02*
X108925D01*
X108700Y69850D02*
X108925D01*
X112075Y65350D02*
X112300D01*
X112075Y69850D02*
X112300D01*
X108700Y65350D02*
Y69850D01*
X112300Y65350D02*
Y69850D01*
D12*
X72555Y61820D02*
G03*
X72555Y61820I-0J0D01*
G01*
D13*
X67800Y52575D02*
X70000D01*
Y57250D01*
X67800D02*
X70000D01*
X67800Y52575D02*
Y57250D01*
D14*
X125436Y75205D02*
X126451Y73682D01*
Y75205D02*
X125436Y73682D01*
X127975D02*
X126959D01*
X127975Y74697D01*
Y74951D01*
X127721Y75205D01*
X127213D01*
X126959Y74951D01*
X50388Y75622D02*
X51403Y74098D01*
Y75622D02*
X50388Y74098D01*
X51911D02*
X52419D01*
X52165D01*
Y75622D01*
X51911Y75368D01*
X64616Y75570D02*
X64362Y75824D01*
X63854D01*
X63600Y75570D01*
Y74554D01*
X63854Y74300D01*
X64362D01*
X64616Y74554D01*
X66139Y75824D02*
X65631Y75570D01*
X65124Y75062D01*
Y74554D01*
X65377Y74300D01*
X65885D01*
X66139Y74554D01*
Y74808D01*
X65885Y75062D01*
X65124D01*
X72703Y72235D02*
Y70712D01*
X73464D01*
X73718Y70966D01*
Y71981D01*
X73464Y72235D01*
X72703D01*
X74226D02*
Y70712D01*
X74988D01*
X75242Y70966D01*
Y71981D01*
X74988Y72235D01*
X74226D01*
X75750Y70712D02*
X76258D01*
X76004D01*
Y72235D01*
X75750Y71981D01*
X72480Y55518D02*
Y54503D01*
X72988Y53995D01*
X73496Y54503D01*
Y55518D01*
X74004D02*
X75019D01*
X74511D01*
Y53995D01*
X75527D02*
X76035D01*
X75781D01*
Y55518D01*
X75527Y55265D01*
X81337Y72541D02*
Y71525D01*
X81844Y71017D01*
X82352Y71525D01*
Y72541D01*
X82860D02*
Y71017D01*
X83622D01*
X83876Y71271D01*
Y72287D01*
X83622Y72541D01*
X82860D01*
X85399D02*
X84384D01*
Y71779D01*
X84891Y72033D01*
X85145D01*
X85399Y71779D01*
Y71271D01*
X85145Y71017D01*
X84638D01*
X84384Y71271D01*
X108618Y73037D02*
Y72021D01*
X109126Y71514D01*
X109634Y72021D01*
Y73037D01*
X110142D02*
Y71514D01*
X110903D01*
X111157Y71768D01*
Y72783D01*
X110903Y73037D01*
X110142D01*
X112427Y71514D02*
Y73037D01*
X111665Y72275D01*
X112681D01*
X62100Y72424D02*
Y71408D01*
X62608Y70900D01*
X63116Y71408D01*
Y72424D01*
X63624D02*
Y70900D01*
X64385D01*
X64639Y71154D01*
Y72170D01*
X64385Y72424D01*
X63624D01*
X65147Y72170D02*
X65401Y72424D01*
X65909D01*
X66163Y72170D01*
Y71916D01*
X65909Y71662D01*
X65655D01*
X65909D01*
X66163Y71408D01*
Y71154D01*
X65909Y70900D01*
X65401D01*
X65147Y71154D01*
X63021Y59514D02*
Y58498D01*
X63529Y57990D01*
X64037Y58498D01*
Y59514D01*
X64545D02*
Y57990D01*
X65307D01*
X65561Y58244D01*
Y59260D01*
X65307Y59514D01*
X64545D01*
X67084Y57990D02*
X66068D01*
X67084Y59006D01*
Y59260D01*
X66830Y59514D01*
X66322D01*
X66068Y59260D01*
X67900Y59424D02*
Y58408D01*
X68408Y57900D01*
X68916Y58408D01*
Y59424D01*
X69424D02*
Y57900D01*
X70185D01*
X70439Y58154D01*
Y59170D01*
X70185Y59424D01*
X69424D01*
X70947Y57900D02*
X71455D01*
X71201D01*
Y59424D01*
X70947Y59170D01*
X70816Y79670D02*
X70562Y79924D01*
X70054D01*
X69800Y79670D01*
Y79416D01*
X70054Y79162D01*
X70562D01*
X70816Y78908D01*
Y78654D01*
X70562Y78400D01*
X70054D01*
X69800Y78654D01*
X71324Y78400D02*
X71831D01*
X71577D01*
Y79924D01*
X71324Y79670D01*
X118500Y61150D02*
X116976D01*
Y61912D01*
X117230Y62166D01*
X117738D01*
X117992Y61912D01*
Y61150D01*
Y61658D02*
X118500Y62166D01*
Y62674D02*
Y63181D01*
Y62927D01*
X116976D01*
X117230Y62674D01*
Y63943D02*
X116976Y64197D01*
Y64705D01*
X117230Y64959D01*
X118246D01*
X118500Y64705D01*
Y64197D01*
X118246Y63943D01*
X117230D01*
X104400Y55600D02*
Y57124D01*
X105162D01*
X105416Y56870D01*
Y56362D01*
X105162Y56108D01*
X104400D01*
X104908D02*
X105416Y55600D01*
X105924Y55854D02*
X106177Y55600D01*
X106685D01*
X106939Y55854D01*
Y56870D01*
X106685Y57124D01*
X106177D01*
X105924Y56870D01*
Y56616D01*
X106177Y56362D01*
X106939D01*
X109100Y55600D02*
Y57124D01*
X109862D01*
X110116Y56870D01*
Y56362D01*
X109862Y56108D01*
X109100D01*
X109608D02*
X110116Y55600D01*
X110623Y56870D02*
X110877Y57124D01*
X111385D01*
X111639Y56870D01*
Y56616D01*
X111385Y56362D01*
X111639Y56108D01*
Y55854D01*
X111385Y55600D01*
X110877D01*
X110623Y55854D01*
Y56108D01*
X110877Y56362D01*
X110623Y56616D01*
Y56870D01*
X110877Y56362D02*
X111385D01*
X81692Y57662D02*
Y59186D01*
X82454D01*
X82708Y58932D01*
Y58424D01*
X82454Y58170D01*
X81692D01*
X82200D02*
X82708Y57662D01*
X83215Y59186D02*
X84231D01*
Y58932D01*
X83215Y57916D01*
Y57662D01*
X104400Y59250D02*
Y60774D01*
X105162D01*
X105416Y60520D01*
Y60012D01*
X105162Y59758D01*
X104400D01*
X104908D02*
X105416Y59250D01*
X106939Y60774D02*
X106431Y60520D01*
X105924Y60012D01*
Y59504D01*
X106177Y59250D01*
X106685D01*
X106939Y59504D01*
Y59758D01*
X106685Y60012D01*
X105924D01*
X99700Y59250D02*
Y60774D01*
X100462D01*
X100716Y60520D01*
Y60012D01*
X100462Y59758D01*
X99700D01*
X100208D02*
X100716Y59250D01*
X102239Y60774D02*
X101224D01*
Y60012D01*
X101731Y60266D01*
X101985D01*
X102239Y60012D01*
Y59504D01*
X101985Y59250D01*
X101477D01*
X101224Y59504D01*
X69700Y62300D02*
Y63824D01*
X70462D01*
X70716Y63570D01*
Y63062D01*
X70462Y62808D01*
X69700D01*
X70208D02*
X70716Y62300D01*
X71985D02*
Y63824D01*
X71224Y63062D01*
X72239D01*
X69700Y64400D02*
Y65924D01*
X70462D01*
X70716Y65670D01*
Y65162D01*
X70462Y64908D01*
X69700D01*
X70208D02*
X70716Y64400D01*
X71224Y65670D02*
X71477Y65924D01*
X71985D01*
X72239Y65670D01*
Y65416D01*
X71985Y65162D01*
X71731D01*
X71985D01*
X72239Y64908D01*
Y64654D01*
X71985Y64400D01*
X71477D01*
X71224Y64654D01*
X69700Y66500D02*
Y68024D01*
X70462D01*
X70716Y67770D01*
Y67262D01*
X70462Y67008D01*
X69700D01*
X70208D02*
X70716Y66500D01*
X72239D02*
X71224D01*
X72239Y67516D01*
Y67770D01*
X71985Y68024D01*
X71477D01*
X71224Y67770D01*
X70000Y72500D02*
Y74024D01*
X70762D01*
X71016Y73770D01*
Y73262D01*
X70762Y73008D01*
X70000D01*
X70508D02*
X71016Y72500D01*
X71524D02*
X72031D01*
X71777D01*
Y74024D01*
X71524Y73770D01*
X113093Y75507D02*
Y73983D01*
X114109D01*
X114617D02*
X115124D01*
X114871D01*
Y75507D01*
X114617Y75253D01*
X101100Y68924D02*
Y67400D01*
X101862D01*
X102116Y67654D01*
Y68670D01*
X101862Y68924D01*
X101100D01*
X102624D02*
Y67400D01*
X103385D01*
X103639Y67654D01*
Y68670D01*
X103385Y68924D01*
X102624D01*
X105163Y67400D02*
X104147D01*
X105163Y68416D01*
Y68670D01*
X104909Y68924D01*
X104401D01*
X104147Y68670D01*
X121230Y62166D02*
X120976Y61912D01*
Y61404D01*
X121230Y61150D01*
X122246D01*
X122500Y61404D01*
Y61912D01*
X122246Y62166D01*
X122500Y62674D02*
Y63181D01*
Y62927D01*
X120976D01*
X121230Y62674D01*
Y63943D02*
X120976Y64197D01*
Y64705D01*
X121230Y64959D01*
X122246D01*
X122500Y64705D01*
Y64197D01*
X122246Y63943D01*
X121230D01*
X86716Y72170D02*
X86462Y72424D01*
X85954D01*
X85700Y72170D01*
Y71154D01*
X85954Y70900D01*
X86462D01*
X86716Y71154D01*
X87224D02*
X87477Y70900D01*
X87985D01*
X88239Y71154D01*
Y72170D01*
X87985Y72424D01*
X87477D01*
X87224Y72170D01*
Y71916D01*
X87477Y71662D01*
X88239D01*
X98930Y71816D02*
X98676Y71562D01*
Y71054D01*
X98930Y70800D01*
X99946D01*
X100200Y71054D01*
Y71562D01*
X99946Y71816D01*
X98930Y72324D02*
X98676Y72577D01*
Y73085D01*
X98930Y73339D01*
X99184D01*
X99438Y73085D01*
X99692Y73339D01*
X99946D01*
X100200Y73085D01*
Y72577D01*
X99946Y72324D01*
X99692D01*
X99438Y72577D01*
X99184Y72324D01*
X98930D01*
X99438Y72577D02*
Y73085D01*
X82682Y63182D02*
X82428Y63436D01*
X81920D01*
X81666Y63182D01*
Y62167D01*
X81920Y61913D01*
X82428D01*
X82682Y62167D01*
X83190Y63436D02*
X84206D01*
Y63182D01*
X83190Y62167D01*
Y61913D01*
X110830Y59266D02*
X110576Y59012D01*
Y58504D01*
X110830Y58250D01*
X111846D01*
X112100Y58504D01*
Y59012D01*
X111846Y59266D01*
X110576Y60789D02*
Y59774D01*
X111338D01*
X111084Y60281D01*
Y60535D01*
X111338Y60789D01*
X111846D01*
X112100Y60535D01*
Y60027D01*
X111846Y59774D01*
X108830Y59266D02*
X108576Y59012D01*
Y58504D01*
X108830Y58250D01*
X109846D01*
X110100Y58504D01*
Y59012D01*
X109846Y59266D01*
X110100Y60535D02*
X108576D01*
X109338Y59774D01*
Y60789D01*
X92943Y79849D02*
X92689Y80103D01*
X92182D01*
X91928Y79849D01*
Y78834D01*
X92182Y78580D01*
X92689D01*
X92943Y78834D01*
X93451Y79849D02*
X93705Y80103D01*
X94213D01*
X94467Y79849D01*
Y79595D01*
X94213Y79341D01*
X93959D01*
X94213D01*
X94467Y79087D01*
Y78834D01*
X94213Y78580D01*
X93705D01*
X93451Y78834D01*
X88039Y79849D02*
X87786Y80103D01*
X87278D01*
X87024Y79849D01*
Y78834D01*
X87278Y78580D01*
X87786D01*
X88039Y78834D01*
X89563Y78580D02*
X88547D01*
X89563Y79595D01*
Y79849D01*
X89309Y80103D01*
X88801D01*
X88547Y79849D01*
X68116Y74545D02*
X67862Y74799D01*
X67354D01*
X67100Y74545D01*
Y73529D01*
X67354Y73275D01*
X67862D01*
X68116Y73529D01*
X68624Y73275D02*
X69131D01*
X68877D01*
Y74799D01*
X68624Y74545D01*
M02*
