G04*
G04 #@! TF.GenerationSoftware,Altium Limited,Altium Designer,19.1.6 (110)*
G04*
G04 Layer_Color=8388736*
%FSLAX43Y43*%
%MOMM*%
G71*
G01*
G75*
%ADD15O,2.250X0.550*%
%ADD16R,2.500X3.200*%
%ADD17R,1.900X1.750*%
%ADD18R,0.720X0.720*%
%ADD19R,1.500X0.500*%
%ADD20O,1.500X0.500*%
%ADD21R,3.060X3.060*%
G04:AMPARAMS|DCode=22|XSize=2.2mm|YSize=1.5mm|CornerRadius=0.4mm|HoleSize=0mm|Usage=FLASHONLY|Rotation=0.000|XOffset=0mm|YOffset=0mm|HoleType=Round|Shape=RoundedRectangle|*
%AMROUNDEDRECTD22*
21,1,2.200,0.700,0,0,0.0*
21,1,1.400,1.500,0,0,0.0*
1,1,0.800,0.700,-0.350*
1,1,0.800,-0.700,-0.350*
1,1,0.800,-0.700,0.350*
1,1,0.800,0.700,0.350*
%
%ADD22ROUNDEDRECTD22*%
%ADD23R,1.100X1.250*%
%ADD24R,2.450X5.550*%
%ADD25R,1.000X0.950*%
%ADD26R,1.500X1.400*%
G04:AMPARAMS|DCode=27|XSize=4.62mm|YSize=3.95mm|CornerRadius=0.531mm|HoleSize=0mm|Usage=FLASHONLY|Rotation=90.000|XOffset=0mm|YOffset=0mm|HoleType=Round|Shape=RoundedRectangle|*
%AMROUNDEDRECTD27*
21,1,4.620,2.888,0,0,90.0*
21,1,3.558,3.950,0,0,90.0*
1,1,1.063,1.444,1.779*
1,1,1.063,1.444,-1.779*
1,1,1.063,-1.444,-1.779*
1,1,1.063,-1.444,1.779*
%
%ADD27ROUNDEDRECTD27*%
G04:AMPARAMS|DCode=28|XSize=0.81mm|YSize=1.472mm|CornerRadius=0.139mm|HoleSize=0mm|Usage=FLASHONLY|Rotation=90.000|XOffset=0mm|YOffset=0mm|HoleType=Round|Shape=RoundedRectangle|*
%AMROUNDEDRECTD28*
21,1,0.810,1.195,0,0,90.0*
21,1,0.532,1.472,0,0,90.0*
1,1,0.278,0.597,0.266*
1,1,0.278,0.597,-0.266*
1,1,0.278,-0.597,-0.266*
1,1,0.278,-0.597,0.266*
%
%ADD28ROUNDEDRECTD28*%
%ADD29R,1.472X0.810*%
%ADD30R,1.900X1.800*%
%ADD31R,0.950X1.000*%
%ADD32R,1.050X0.900*%
%ADD33R,1.250X1.100*%
%ADD34R,3.300X3.250*%
%ADD35C,2.600*%
%ADD36R,2.600X2.600*%
%ADD37C,4.300*%
D15*
X100125Y66055D02*
D03*
Y64785D02*
D03*
Y63515D02*
D03*
Y62245D02*
D03*
X105875Y66055D02*
D03*
Y64785D02*
D03*
Y63515D02*
D03*
Y62245D02*
D03*
D16*
X103000Y64150D02*
D03*
D17*
X68100Y71900D02*
D03*
Y69450D02*
D03*
X92900Y74275D02*
D03*
Y76725D02*
D03*
X88000Y74275D02*
D03*
Y76725D02*
D03*
D18*
X65300Y73400D02*
D03*
X64420D02*
D03*
D19*
X73550Y68925D02*
D03*
D20*
Y68275D02*
D03*
Y67625D02*
D03*
Y66975D02*
D03*
Y66325D02*
D03*
Y65675D02*
D03*
Y65025D02*
D03*
Y64375D02*
D03*
Y63725D02*
D03*
Y63075D02*
D03*
X79450Y68925D02*
D03*
Y68275D02*
D03*
Y67625D02*
D03*
Y66975D02*
D03*
Y66325D02*
D03*
Y65675D02*
D03*
Y65025D02*
D03*
Y64375D02*
D03*
Y63725D02*
D03*
Y63075D02*
D03*
D21*
X76500Y66000D02*
D03*
D22*
X73850Y78740D02*
D03*
X82950D02*
D03*
Y74260D02*
D03*
X73850D02*
D03*
D23*
X99500Y68200D02*
D03*
Y69600D02*
D03*
X123500Y61950D02*
D03*
Y63350D02*
D03*
X111500Y63550D02*
D03*
Y62150D02*
D03*
X109500Y63550D02*
D03*
Y62150D02*
D03*
D24*
X91600Y66300D02*
D03*
Y57500D02*
D03*
D25*
X71000Y71475D02*
D03*
Y69925D02*
D03*
X119500Y61875D02*
D03*
Y63425D02*
D03*
D26*
X68900Y56350D02*
D03*
X68950Y53450D02*
D03*
D27*
X77280Y58995D02*
D03*
D28*
X79100Y57090D02*
D03*
Y58360D02*
D03*
Y59630D02*
D03*
Y60900D02*
D03*
X73560Y57090D02*
D03*
Y58360D02*
D03*
Y59630D02*
D03*
D29*
Y60900D02*
D03*
D30*
X64100Y65900D02*
D03*
Y69300D02*
D03*
X83200Y65400D02*
D03*
Y68800D02*
D03*
X64900Y55900D02*
D03*
Y52500D02*
D03*
X110500Y65900D02*
D03*
Y69300D02*
D03*
D31*
X68675Y63000D02*
D03*
X67125D02*
D03*
Y65100D02*
D03*
X68675D02*
D03*
X67125Y67200D02*
D03*
X68675D02*
D03*
X106475Y58150D02*
D03*
X104925D02*
D03*
X101775D02*
D03*
X100225D02*
D03*
X104925Y54600D02*
D03*
X106475D02*
D03*
X109825D02*
D03*
X111375D02*
D03*
X82225Y56100D02*
D03*
X83775D02*
D03*
D32*
X119500Y57325D02*
D03*
Y58975D02*
D03*
D33*
X83700Y60300D02*
D03*
X82300D02*
D03*
D34*
X114700Y69500D02*
D03*
X120300D02*
D03*
D35*
X54000Y65500D02*
D03*
Y61300D02*
D03*
X59500D02*
D03*
X54000Y69700D02*
D03*
X59500Y65500D02*
D03*
X133250D02*
D03*
Y69700D02*
D03*
X127750D02*
D03*
X133250Y61300D02*
D03*
X127750Y65500D02*
D03*
D36*
X59500Y69700D02*
D03*
X127750Y61300D02*
D03*
D37*
X133000Y77000D02*
D03*
Y54500D02*
D03*
X56000D02*
D03*
Y77000D02*
D03*
M02*
