G04*
G04 #@! TF.GenerationSoftware,Altium Limited,Altium Designer,19.1.6 (110)*
G04*
G04 Layer_Physical_Order=1*
G04 Layer_Color=255*
%FSLAX43Y43*%
%MOMM*%
G71*
G01*
G75*
%ADD38O,2.150X0.450*%
%ADD39R,2.400X3.100*%
%ADD40R,1.800X1.650*%
%ADD41R,0.620X0.620*%
%ADD42R,1.400X0.400*%
%ADD43O,1.400X0.400*%
%ADD44R,2.960X2.960*%
G04:AMPARAMS|DCode=45|XSize=2.1mm|YSize=1.4mm|CornerRadius=0.35mm|HoleSize=0mm|Usage=FLASHONLY|Rotation=0.000|XOffset=0mm|YOffset=0mm|HoleType=Round|Shape=RoundedRectangle|*
%AMROUNDEDRECTD45*
21,1,2.100,0.700,0,0,0.0*
21,1,1.400,1.400,0,0,0.0*
1,1,0.700,0.700,-0.350*
1,1,0.700,-0.700,-0.350*
1,1,0.700,-0.700,0.350*
1,1,0.700,0.700,0.350*
%
%ADD45ROUNDEDRECTD45*%
%ADD46R,1.000X1.150*%
%ADD47R,2.350X5.450*%
%ADD48R,0.900X0.850*%
%ADD49R,1.400X1.300*%
G04:AMPARAMS|DCode=50|XSize=4.52mm|YSize=3.85mm|CornerRadius=0.481mm|HoleSize=0mm|Usage=FLASHONLY|Rotation=90.000|XOffset=0mm|YOffset=0mm|HoleType=Round|Shape=RoundedRectangle|*
%AMROUNDEDRECTD50*
21,1,4.520,2.888,0,0,90.0*
21,1,3.558,3.850,0,0,90.0*
1,1,0.963,1.444,1.779*
1,1,0.963,1.444,-1.779*
1,1,0.963,-1.444,-1.779*
1,1,0.963,-1.444,1.779*
%
%ADD50ROUNDEDRECTD50*%
G04:AMPARAMS|DCode=51|XSize=0.71mm|YSize=1.372mm|CornerRadius=0.089mm|HoleSize=0mm|Usage=FLASHONLY|Rotation=90.000|XOffset=0mm|YOffset=0mm|HoleType=Round|Shape=RoundedRectangle|*
%AMROUNDEDRECTD51*
21,1,0.710,1.195,0,0,90.0*
21,1,0.532,1.372,0,0,90.0*
1,1,0.178,0.597,0.266*
1,1,0.178,0.597,-0.266*
1,1,0.178,-0.597,-0.266*
1,1,0.178,-0.597,0.266*
%
%ADD51ROUNDEDRECTD51*%
%ADD52R,1.372X0.710*%
%ADD53R,1.800X1.700*%
%ADD54R,0.850X0.900*%
%ADD55R,0.950X0.800*%
%ADD56R,1.150X1.000*%
%ADD57R,3.200X3.150*%
%ADD58C,0.300*%
%ADD59C,1.000*%
%ADD60C,2.500*%
%ADD61R,2.500X2.500*%
%ADD62C,4.200*%
%ADD63C,0.600*%
G36*
X137445Y50255D02*
X50255D01*
Y81245D01*
X137445Y81245D01*
Y50255D01*
D02*
G37*
%LPC*%
G36*
X83650Y79651D02*
X83450D01*
Y79240D01*
X84181D01*
X84168Y79305D01*
X84047Y79487D01*
X83865Y79608D01*
X83650Y79651D01*
D02*
G37*
G36*
X82450D02*
X82250D01*
X82035Y79608D01*
X81853Y79487D01*
X81732Y79305D01*
X81719Y79240D01*
X82450D01*
Y79651D01*
D02*
G37*
G36*
X74550D02*
X74350D01*
Y79240D01*
X75081D01*
X75068Y79305D01*
X74947Y79487D01*
X74765Y79608D01*
X74550Y79651D01*
D02*
G37*
G36*
X73350D02*
X73150D01*
X72935Y79608D01*
X72753Y79487D01*
X72632Y79305D01*
X72619Y79240D01*
X73350D01*
Y79651D01*
D02*
G37*
G36*
X134000Y79300D02*
Y78000D01*
X135300D01*
X135089Y78396D01*
X134776Y78776D01*
X134396Y79089D01*
X134000Y79300D01*
D02*
G37*
G36*
X132000D02*
X131604Y79089D01*
X131224Y78776D01*
X130911Y78396D01*
X130700Y78000D01*
X132000D01*
Y79300D01*
D02*
G37*
G36*
X57000D02*
Y78000D01*
X58300D01*
X58089Y78396D01*
X57776Y78776D01*
X57396Y79089D01*
X57000Y79300D01*
D02*
G37*
G36*
X55000D02*
X54604Y79089D01*
X54224Y78776D01*
X53911Y78396D01*
X53700Y78000D01*
X55000D01*
Y79300D01*
D02*
G37*
G36*
X84181Y78240D02*
X83450D01*
Y77829D01*
X83650D01*
X83865Y77872D01*
X84047Y77993D01*
X84168Y78175D01*
X84181Y78240D01*
D02*
G37*
G36*
X82450D02*
X81719D01*
X81732Y78175D01*
X81853Y77993D01*
X82035Y77872D01*
X82250Y77829D01*
X82450D01*
Y78240D01*
D02*
G37*
G36*
X75081D02*
X74350D01*
Y77829D01*
X74550D01*
X74765Y77872D01*
X74947Y77993D01*
X75068Y78175D01*
X75081Y78240D01*
D02*
G37*
G36*
X73350D02*
X72619D01*
X72632Y78175D01*
X72753Y77993D01*
X72935Y77872D01*
X73150Y77829D01*
X73350D01*
Y78240D01*
D02*
G37*
G36*
X89100Y77750D02*
X88600D01*
Y77325D01*
X89100D01*
Y77750D01*
D02*
G37*
G36*
X94000D02*
X93500D01*
Y77325D01*
X94000D01*
Y77750D01*
D02*
G37*
G36*
X92300D02*
X91800D01*
Y77325D01*
X92300D01*
Y77750D01*
D02*
G37*
G36*
X87400D02*
X86900D01*
Y77325D01*
X87400D01*
Y77750D01*
D02*
G37*
G36*
X94000Y76125D02*
X92900D01*
X91800D01*
Y75704D01*
X89100D01*
Y76125D01*
X88000D01*
X86900D01*
Y75704D01*
X86400D01*
X86322Y75688D01*
X86256Y75644D01*
X86212Y75578D01*
X86196Y75500D01*
Y70804D01*
X78400D01*
X78322Y70788D01*
X78256Y70744D01*
X78212Y70678D01*
X78196Y70600D01*
Y67800D01*
X78180Y67680D01*
X78069Y67680D01*
X77400D01*
Y66900D01*
X78180D01*
Y67058D01*
X78307Y67122D01*
X78322Y67112D01*
X78400Y67096D01*
X78437D01*
X78542Y66975D01*
X78573Y66819D01*
X78662Y66687D01*
Y66613D01*
X78573Y66481D01*
X78542Y66325D01*
X78573Y66169D01*
X78662Y66037D01*
Y65963D01*
X78573Y65831D01*
X78542Y65675D01*
X78573Y65519D01*
X78662Y65387D01*
Y65313D01*
X78573Y65181D01*
X78542Y65025D01*
X78573Y64869D01*
X78662Y64737D01*
Y64663D01*
X78573Y64531D01*
X78542Y64375D01*
X78573Y64219D01*
X78662Y64087D01*
Y64013D01*
X78573Y63881D01*
X78568Y63855D01*
X79450D01*
Y63595D01*
X78568D01*
X78573Y63569D01*
X78662Y63437D01*
Y63363D01*
X78573Y63231D01*
X78542Y63075D01*
X78573Y62919D01*
X78662Y62787D01*
X78794Y62698D01*
X78950Y62667D01*
X79950D01*
X80106Y62698D01*
X80107Y62699D01*
X80377D01*
X80443Y62633D01*
Y56600D01*
X80470Y56463D01*
X80548Y56348D01*
X81048Y55848D01*
X81163Y55770D01*
X81300Y55743D01*
X81600D01*
Y55450D01*
X82850D01*
Y56750D01*
X81600D01*
Y56457D01*
X81448D01*
X81157Y56748D01*
Y62520D01*
X81284Y62613D01*
X81400Y62590D01*
X81404Y62591D01*
X81943Y62052D01*
Y61000D01*
X81525D01*
Y59600D01*
X83400D01*
Y60300D01*
Y61000D01*
X82657D01*
Y62200D01*
X82630Y62337D01*
X82552Y62452D01*
X81909Y63096D01*
X81910Y63100D01*
X81871Y63295D01*
X81760Y63460D01*
X81757Y63463D01*
Y63500D01*
X81730Y63637D01*
X81652Y63752D01*
X80796Y64608D01*
X80681Y64686D01*
X80544Y64713D01*
X80375D01*
X80307Y64840D01*
X80327Y64869D01*
X80358Y65025D01*
X80327Y65181D01*
X80238Y65313D01*
Y65387D01*
X80327Y65519D01*
X80358Y65675D01*
X80327Y65831D01*
X80238Y65963D01*
Y66037D01*
X80327Y66169D01*
X80358Y66325D01*
X80327Y66481D01*
X80238Y66613D01*
Y66687D01*
X80327Y66819D01*
X80358Y66975D01*
X80463Y67096D01*
X85196D01*
Y62200D01*
X85212Y62122D01*
X85256Y62056D01*
X85322Y62012D01*
X85400Y61996D01*
X97300D01*
X97378Y62012D01*
X97444Y62056D01*
X97488Y62122D01*
X97504Y62200D01*
Y63996D01*
X99001D01*
X99040Y63869D01*
X98969Y63821D01*
X98875Y63681D01*
X98842Y63515D01*
X98875Y63349D01*
X98954Y63231D01*
X98928Y63149D01*
X98897Y63104D01*
X98500D01*
X98422Y63088D01*
X98356Y63044D01*
X98312Y62978D01*
X98296Y62900D01*
Y57300D01*
X98312Y57222D01*
X98356Y57156D01*
X98422Y57112D01*
X98500Y57096D01*
X101000D01*
X101078Y57112D01*
X101144Y57156D01*
X101188Y57222D01*
X101204Y57300D01*
Y57500D01*
X101475D01*
Y58150D01*
Y58800D01*
X101204D01*
Y60096D01*
X101400D01*
X101478Y60112D01*
X101544Y60156D01*
X101588Y60222D01*
X101604Y60300D01*
Y61887D01*
X101596Y61925D01*
X101589Y61963D01*
X101589Y61964D01*
X101588Y61966D01*
X101567Y61997D01*
X101546Y62030D01*
X101545Y62030D01*
X101544Y62032D01*
X101512Y62053D01*
X101481Y62075D01*
X101398Y62111D01*
X101382Y62114D01*
X101408Y62245D01*
X101391Y62331D01*
X101481Y62399D01*
X101600Y62400D01*
Y62400D01*
X101600Y62400D01*
X102300D01*
Y64150D01*
Y65900D01*
X101600D01*
Y65660D01*
X101479Y65589D01*
X101473Y65589D01*
X101400Y65604D01*
X101293D01*
X101255Y65731D01*
X101281Y65749D01*
X101375Y65889D01*
X101408Y66055D01*
X101375Y66221D01*
X101281Y66361D01*
X101141Y66455D01*
X100975Y66488D01*
X99275D01*
X99109Y66455D01*
X99044Y66412D01*
X98593D01*
X98457Y66548D01*
Y67752D01*
X98548Y67843D01*
X98800D01*
Y67425D01*
X100200D01*
Y68825D01*
Y69243D01*
X100737D01*
X100740Y69240D01*
X100905Y69129D01*
X101100Y69090D01*
X101295Y69129D01*
X101460Y69240D01*
X101571Y69405D01*
X101610Y69600D01*
X101571Y69795D01*
X101460Y69960D01*
X101295Y70071D01*
X101100Y70110D01*
X100905Y70071D01*
X100740Y69960D01*
X100737Y69957D01*
X100200D01*
Y70375D01*
X98800D01*
Y68825D01*
Y68557D01*
X98400D01*
X98263Y68530D01*
X98148Y68452D01*
X97848Y68152D01*
X97770Y68037D01*
X97743Y67900D01*
Y66400D01*
X97770Y66263D01*
X97848Y66148D01*
X98193Y65803D01*
X98300Y65731D01*
X98301Y65722D01*
X98227Y65604D01*
X97504D01*
Y75500D01*
X97488Y75578D01*
X97444Y75644D01*
X97378Y75688D01*
X97300Y75704D01*
X94000D01*
Y76125D01*
D02*
G37*
G36*
X135300Y76000D02*
X134000D01*
Y74700D01*
X134396Y74911D01*
X134776Y75224D01*
X135089Y75604D01*
X135300Y76000D01*
D02*
G37*
G36*
X132000D02*
X130700D01*
X130911Y75604D01*
X131224Y75224D01*
X131604Y74911D01*
X132000Y74700D01*
Y76000D01*
D02*
G37*
G36*
X58300D02*
X57000D01*
Y74700D01*
X57396Y74911D01*
X57776Y75224D01*
X58089Y75604D01*
X58300Y76000D01*
D02*
G37*
G36*
X55000D02*
X53700D01*
X53911Y75604D01*
X54224Y75224D01*
X54604Y74911D01*
X55000Y74700D01*
Y76000D01*
D02*
G37*
G36*
X83650Y75171D02*
X82250D01*
X82035Y75128D01*
X81853Y75007D01*
X81732Y74825D01*
X81691Y74617D01*
X75109D01*
X75068Y74825D01*
X74947Y75007D01*
X74765Y75128D01*
X74550Y75171D01*
X73150D01*
X72935Y75128D01*
X72753Y75007D01*
X72632Y74825D01*
X72589Y74610D01*
Y73910D01*
X72632Y73695D01*
X72753Y73513D01*
X72935Y73392D01*
X73150Y73349D01*
X74550D01*
X74765Y73392D01*
X74947Y73513D01*
X75068Y73695D01*
X75109Y73903D01*
X81691D01*
X81732Y73695D01*
X81853Y73513D01*
X82035Y73392D01*
X82250Y73349D01*
X83650D01*
X83865Y73392D01*
X84047Y73513D01*
X84168Y73695D01*
X84197Y73843D01*
X84837D01*
X84840Y73840D01*
X85005Y73729D01*
X85200Y73690D01*
X85395Y73729D01*
X85560Y73840D01*
X85671Y74005D01*
X85710Y74200D01*
X85671Y74395D01*
X85560Y74560D01*
X85395Y74671D01*
X85200Y74710D01*
X85005Y74671D01*
X84840Y74560D01*
X84837Y74557D01*
X84211D01*
Y74610D01*
X84168Y74825D01*
X84047Y75007D01*
X83865Y75128D01*
X83650Y75171D01*
D02*
G37*
G36*
X65070Y73910D02*
X63910D01*
Y73757D01*
X63423D01*
X63420Y73760D01*
X63255Y73871D01*
X63060Y73910D01*
X62865Y73871D01*
X62700Y73760D01*
X62589Y73595D01*
X62550Y73400D01*
X62589Y73205D01*
X62700Y73040D01*
X62865Y72929D01*
X63060Y72890D01*
X63255Y72929D01*
X63420Y73040D01*
X63423Y73043D01*
X63910D01*
Y72890D01*
X65070D01*
Y73400D01*
Y73910D01*
D02*
G37*
G36*
X65810D02*
X65530D01*
Y73630D01*
X65810D01*
Y73910D01*
D02*
G37*
G36*
Y73170D02*
X65530D01*
Y72890D01*
X65810D01*
Y73170D01*
D02*
G37*
G36*
X67500Y72925D02*
X67000D01*
Y72500D01*
X67500D01*
Y72925D01*
D02*
G37*
G36*
X117000Y71804D02*
X106800D01*
X106793Y71803D01*
X106786Y71803D01*
X106754Y71795D01*
X106722Y71788D01*
X106716Y71785D01*
X106710Y71783D01*
X106683Y71763D01*
X106656Y71744D01*
X106652Y71738D01*
X106647Y71734D01*
X104547Y69334D01*
X104530Y69306D01*
X104512Y69278D01*
X104510Y69271D01*
X104507Y69265D01*
X104503Y69232D01*
X104496Y69200D01*
Y66502D01*
X104502Y66472D01*
X104505Y66443D01*
X104510Y66434D01*
X104512Y66424D01*
X104528Y66399D01*
X104542Y66372D01*
X104550Y66366D01*
X104556Y66358D01*
X104561Y66354D01*
X104619Y66261D01*
X104628Y66226D01*
X104625Y66221D01*
X104592Y66055D01*
X104625Y65889D01*
X104628Y65884D01*
X104619Y65849D01*
X104561Y65756D01*
X104556Y65752D01*
X104550Y65744D01*
X104542Y65738D01*
X104526Y65737D01*
X104400Y65855D01*
Y65900D01*
X103700D01*
Y64850D01*
X104400D01*
Y65328D01*
X104415Y65334D01*
X104527Y65349D01*
X104556Y65306D01*
X104622Y65262D01*
X104700Y65246D01*
X104721D01*
X104760Y65119D01*
X104719Y65091D01*
X104625Y64951D01*
X104624Y64950D01*
X105875D01*
Y64785D01*
D01*
Y64950D01*
X107126D01*
X107125Y64951D01*
X107031Y65091D01*
X106990Y65119D01*
X107029Y65246D01*
X107500D01*
X107578Y65262D01*
X107644Y65306D01*
X107688Y65372D01*
X107704Y65450D01*
Y67196D01*
X117000D01*
X117078Y67212D01*
X117144Y67256D01*
X117188Y67322D01*
X117204Y67400D01*
Y71600D01*
X117188Y71678D01*
X117144Y71744D01*
X117078Y71788D01*
X117000Y71804D01*
D02*
G37*
G36*
X69200Y72925D02*
X68700D01*
Y71900D01*
X68100D01*
Y71300D01*
X67000D01*
Y70929D01*
X66998Y70873D01*
X66902Y70804D01*
X61904D01*
X61904Y71400D01*
X61888Y71478D01*
X61844Y71544D01*
X61778Y71588D01*
X61700Y71604D01*
X57700D01*
X57622Y71588D01*
X57556Y71544D01*
X57512Y71478D01*
X57496Y71400D01*
X57496Y59800D01*
X57512Y59722D01*
X57556Y59656D01*
X57622Y59612D01*
X57700Y59596D01*
X58749Y59596D01*
X58764Y59599D01*
X58779Y59598D01*
X58802Y59607D01*
X58827Y59612D01*
X58839Y59620D01*
X58854Y59625D01*
X58872Y59642D01*
X58893Y59656D01*
X58901Y59668D01*
X58913Y59679D01*
X58923Y59701D01*
X58937Y59722D01*
X58940Y59737D01*
X58947Y59750D01*
X58963Y59816D01*
X59084Y59892D01*
X59103Y59895D01*
X59121Y59887D01*
X59500Y59837D01*
X59879Y59887D01*
X59897Y59895D01*
X59916Y59892D01*
X60037Y59816D01*
X60053Y59750D01*
X60060Y59737D01*
X60063Y59722D01*
X60077Y59701D01*
X60087Y59679D01*
X60099Y59668D01*
X60107Y59656D01*
X60128Y59642D01*
X60146Y59625D01*
X60161Y59620D01*
X60173Y59612D01*
X60198Y59607D01*
X60221Y59598D01*
X60236Y59599D01*
X60251Y59596D01*
X61700Y59596D01*
X61778Y59612D01*
X61844Y59656D01*
X61888Y59722D01*
X61904Y59800D01*
X61904Y67596D01*
X66100D01*
X66178Y67612D01*
X66244Y67656D01*
X66288Y67722D01*
X66304Y67800D01*
Y67996D01*
X68400D01*
X69725Y67996D01*
X69774Y67879D01*
X69452Y67557D01*
X69300D01*
Y67850D01*
X68050D01*
Y66557D01*
X67750D01*
Y67850D01*
X66500D01*
Y66550D01*
X66768D01*
Y66376D01*
X66795Y66239D01*
X66873Y66123D01*
X67048Y65948D01*
X67056Y65943D01*
X67089Y65770D01*
X67076Y65750D01*
X66500D01*
Y64450D01*
X66768D01*
Y63650D01*
X66500D01*
Y62350D01*
X67750D01*
Y63650D01*
X67859Y63693D01*
X67941D01*
X68050Y63650D01*
Y62350D01*
X69300D01*
Y62643D01*
X70000D01*
X70137Y62670D01*
X70252Y62748D01*
X70873Y63368D01*
X71484D01*
X71536Y63241D01*
X71304Y63009D01*
X71300Y63010D01*
X71105Y62971D01*
X70940Y62860D01*
X70829Y62695D01*
X70790Y62500D01*
X70829Y62305D01*
X70878Y62231D01*
X70811Y62104D01*
X65804D01*
Y67100D01*
X65788Y67178D01*
X65744Y67244D01*
X65678Y67288D01*
X65600Y67304D01*
X62600Y67304D01*
X62522Y67288D01*
X62456Y67244D01*
X62412Y67178D01*
X62396Y67100D01*
X62396Y60500D01*
X62412Y60422D01*
X62456Y60356D01*
X62522Y60312D01*
X62600Y60296D01*
X72096Y60296D01*
X72096Y57700D01*
X72112Y57622D01*
X72140Y57579D01*
X72114Y57495D01*
X72084Y57452D01*
X71795D01*
X71658Y57425D01*
X71543Y57347D01*
X71348Y57152D01*
X71270Y57037D01*
X71243Y56900D01*
Y54400D01*
X71270Y54263D01*
X71348Y54148D01*
X71843Y53652D01*
Y53363D01*
X71840Y53360D01*
X71837Y53357D01*
X71548D01*
X71252Y53652D01*
X71137Y53730D01*
X71000Y53757D01*
X69850D01*
Y54300D01*
X68050D01*
Y52600D01*
X69850D01*
Y53043D01*
X70852D01*
X71148Y52748D01*
X71263Y52670D01*
X71400Y52643D01*
X71837D01*
X71840Y52640D01*
X72005Y52529D01*
X72200Y52490D01*
X72395Y52529D01*
X72560Y52640D01*
X72671Y52805D01*
X72710Y53000D01*
X72671Y53195D01*
X72560Y53360D01*
X72557Y53363D01*
Y53800D01*
X72530Y53937D01*
X72452Y54052D01*
X71957Y54548D01*
Y56738D01*
X72685D01*
X72691Y56711D01*
X72755Y56616D01*
X72850Y56552D01*
X72963Y56529D01*
X74157D01*
X74270Y56552D01*
X74365Y56616D01*
X74429Y56711D01*
X74452Y56824D01*
Y57356D01*
X74449Y57369D01*
X74552Y57496D01*
X74700D01*
X74778Y57512D01*
X74844Y57556D01*
X74888Y57622D01*
X74904Y57700D01*
X74904Y64000D01*
X74888Y64078D01*
X74844Y64144D01*
X74778Y64188D01*
X74700Y64204D01*
X74553D01*
X74453Y64309D01*
X74448Y64327D01*
X74458Y64375D01*
X74427Y64531D01*
X74338Y64663D01*
Y64737D01*
X74427Y64869D01*
X74458Y65025D01*
X74427Y65181D01*
X74338Y65313D01*
Y65387D01*
X74427Y65519D01*
X74458Y65675D01*
X74427Y65831D01*
X74338Y65963D01*
Y66037D01*
X74427Y66169D01*
X74458Y66325D01*
X74427Y66481D01*
X74338Y66613D01*
Y66687D01*
X74427Y66819D01*
X74458Y66975D01*
X74563Y67096D01*
X74600D01*
X74678Y67112D01*
X74693Y67122D01*
X74820Y67058D01*
Y66900D01*
X75600D01*
Y67680D01*
X74931D01*
X74820Y67680D01*
X74804Y67800D01*
Y70600D01*
X74788Y70678D01*
X74744Y70744D01*
X74678Y70788D01*
X74600Y70804D01*
X71758D01*
X71754Y70806D01*
X71721Y70828D01*
X71668Y70878D01*
X71650Y70911D01*
Y72100D01*
X70350D01*
Y71857D01*
X70163D01*
X70160Y71860D01*
X69995Y71971D01*
X69800Y72010D01*
X69605Y71971D01*
X69440Y71860D01*
X69329Y71695D01*
X69327Y71685D01*
X69200Y71697D01*
Y72925D01*
D02*
G37*
G36*
X54600Y71137D02*
Y70300D01*
X55437D01*
X55295Y70565D01*
X55101Y70801D01*
X54865Y70995D01*
X54600Y71137D01*
D02*
G37*
G36*
X53400Y71137D02*
X53135Y70995D01*
X52899Y70801D01*
X52705Y70565D01*
X52563Y70300D01*
X53400D01*
Y71137D01*
D02*
G37*
G36*
X133850Y71137D02*
Y70300D01*
X134687D01*
X134545Y70565D01*
X134351Y70801D01*
X134115Y70995D01*
X133850Y71137D01*
D02*
G37*
G36*
X132650Y71137D02*
X132385Y70995D01*
X132149Y70801D01*
X131955Y70565D01*
X131813Y70300D01*
X132650D01*
Y71137D01*
D02*
G37*
G36*
X111600Y66950D02*
X111100D01*
Y66500D01*
X111600D01*
Y66950D01*
D02*
G37*
G36*
X109900D02*
X109400D01*
Y66500D01*
X109900D01*
Y66950D01*
D02*
G37*
G36*
X54000Y69700D02*
D01*
Y69100D01*
X52563D01*
X52705Y68835D01*
X52899Y68599D01*
X53135Y68405D01*
X53294Y68320D01*
Y66880D01*
X53135Y66795D01*
X52899Y66601D01*
X52705Y66365D01*
X52563Y66100D01*
X54000D01*
X55437D01*
X55295Y66365D01*
X55101Y66601D01*
X54865Y66795D01*
X54706Y66880D01*
Y68320D01*
X54865Y68405D01*
X55101Y68599D01*
X55295Y68835D01*
X55437Y69100D01*
X54000D01*
Y69700D01*
D02*
G37*
G36*
X134687Y69100D02*
X133250D01*
X131813D01*
X131955Y68835D01*
X132149Y68599D01*
X132385Y68405D01*
X132544Y68320D01*
Y66880D01*
X132385Y66795D01*
X132149Y66601D01*
X131955Y66365D01*
X131813Y66100D01*
X133250D01*
X134687D01*
X134545Y66365D01*
X134351Y66601D01*
X134115Y66795D01*
X133956Y66880D01*
Y68320D01*
X134115Y68405D01*
X134351Y68599D01*
X134545Y68835D01*
X134687Y69100D01*
D02*
G37*
G36*
X84300Y66450D02*
X83800D01*
Y66000D01*
X84300D01*
Y66450D01*
D02*
G37*
G36*
X82600D02*
X82100D01*
Y66000D01*
X82600D01*
Y66450D01*
D02*
G37*
G36*
X111600Y65300D02*
X111100D01*
Y64850D01*
X111600D01*
Y65300D01*
D02*
G37*
G36*
X109900D02*
X109400D01*
Y64850D01*
X109900D01*
Y65300D01*
D02*
G37*
G36*
X107126Y64620D02*
X106040D01*
Y64352D01*
X106725D01*
X106891Y64385D01*
X107031Y64479D01*
X107125Y64619D01*
X107126Y64620D01*
D02*
G37*
G36*
X105710D02*
X104624D01*
X104625Y64619D01*
X104719Y64479D01*
X104859Y64385D01*
X105025Y64352D01*
X105710D01*
Y64620D01*
D02*
G37*
G36*
X84300Y64800D02*
X83800D01*
Y64350D01*
X84300D01*
Y64800D01*
D02*
G37*
G36*
X82600D02*
X82100D01*
Y64350D01*
X82600D01*
Y64800D01*
D02*
G37*
G36*
X78180Y65100D02*
X77400D01*
Y64320D01*
X78180D01*
Y65100D01*
D02*
G37*
G36*
X75600D02*
X74820D01*
Y64320D01*
X75600D01*
Y65100D01*
D02*
G37*
G36*
X110200Y64325D02*
X109800D01*
Y63850D01*
X110200D01*
Y64325D01*
D02*
G37*
G36*
X112200D02*
X111800D01*
Y63850D01*
X112200D01*
Y64325D01*
D02*
G37*
G36*
X111200D02*
X110800D01*
Y63850D01*
X111200D01*
Y64325D01*
D02*
G37*
G36*
X109200D02*
X108800D01*
Y63850D01*
X109200D01*
Y64325D01*
D02*
G37*
G36*
X104400Y63450D02*
X103700D01*
Y62400D01*
X104400D01*
Y63450D01*
D02*
G37*
G36*
X106725Y63948D02*
X105025D01*
X104859Y63915D01*
X104719Y63821D01*
X104625Y63681D01*
X104592Y63515D01*
X104625Y63349D01*
X104719Y63209D01*
X104859Y63115D01*
X105025Y63082D01*
X106725D01*
X106891Y63115D01*
X106956Y63158D01*
X107187D01*
X107964Y62381D01*
X107919Y62246D01*
X107910Y62245D01*
X107657Y62497D01*
X107542Y62575D01*
X107405Y62602D01*
X106956D01*
X106891Y62645D01*
X106725Y62678D01*
X105025D01*
X104859Y62645D01*
X104719Y62551D01*
X104625Y62411D01*
X104592Y62245D01*
X104625Y62079D01*
X104719Y61939D01*
X104859Y61845D01*
X105025Y61812D01*
X106725D01*
X106891Y61845D01*
X106956Y61888D01*
X107257D01*
X107491Y61654D01*
X107490Y61650D01*
X107529Y61455D01*
X107640Y61290D01*
X107805Y61179D01*
X108000Y61140D01*
X108195Y61179D01*
X108360Y61290D01*
X108471Y61455D01*
X108510Y61650D01*
X108483Y61787D01*
X108574Y61894D01*
X108580Y61897D01*
X108600Y61893D01*
X108800D01*
Y61375D01*
X109143D01*
Y61098D01*
X108452Y60407D01*
X105600D01*
X105463Y60380D01*
X105348Y60302D01*
X104673Y59627D01*
X104595Y59512D01*
X104568Y59375D01*
Y58800D01*
X104300D01*
Y57500D01*
X105550D01*
Y58800D01*
X105282D01*
Y59227D01*
X105748Y59693D01*
X108600D01*
X108737Y59720D01*
X108852Y59798D01*
X109752Y60698D01*
X109830Y60813D01*
X109857Y60950D01*
Y61375D01*
X110200D01*
Y62775D01*
Y63250D01*
X109500D01*
X108800D01*
Y62734D01*
X108673Y62682D01*
X107587Y63767D01*
X107472Y63845D01*
X107335Y63872D01*
X106956D01*
X106891Y63915D01*
X106725Y63948D01*
D02*
G37*
G36*
X55437Y64900D02*
X54000D01*
X52563D01*
X52705Y64635D01*
X52899Y64399D01*
X53135Y64205D01*
X53294Y64120D01*
Y62680D01*
X53135Y62595D01*
X52899Y62401D01*
X52705Y62165D01*
X52563Y61900D01*
X54000D01*
X55437D01*
X55295Y62165D01*
X55101Y62401D01*
X54865Y62595D01*
X54706Y62680D01*
Y64120D01*
X54865Y64205D01*
X55101Y64399D01*
X55295Y64635D01*
X55437Y64900D01*
D02*
G37*
G36*
X134687Y64900D02*
X133250D01*
X131813D01*
X131955Y64635D01*
X132149Y64399D01*
X132385Y64205D01*
X132544Y64120D01*
Y62680D01*
X132385Y62595D01*
X132149Y62401D01*
X131955Y62165D01*
X131813Y61900D01*
X133250D01*
X134687D01*
X134545Y62165D01*
X134351Y62401D01*
X134115Y62595D01*
X133956Y62680D01*
Y64120D01*
X134115Y64205D01*
X134351Y64399D01*
X134545Y64635D01*
X134687Y64900D01*
D02*
G37*
G36*
X124200Y61650D02*
X123800D01*
Y61175D01*
X124200D01*
Y61650D01*
D02*
G37*
G36*
X123200D02*
X122800D01*
Y61175D01*
X123200D01*
Y61650D01*
D02*
G37*
G36*
X84475Y61000D02*
X84000D01*
Y60600D01*
X84475D01*
Y61000D01*
D02*
G37*
G36*
X78724Y61562D02*
X78280D01*
Y59995D01*
X79972D01*
X79969Y60009D01*
X79905Y60104D01*
X79810Y60168D01*
X79697Y60191D01*
X79512D01*
Y60339D01*
X79697D01*
X79810Y60362D01*
X79905Y60426D01*
X79969Y60521D01*
X79992Y60634D01*
Y60635D01*
X79100D01*
Y61165D01*
X79992D01*
Y61166D01*
X79969Y61279D01*
X79905Y61374D01*
X79810Y61438D01*
X79697Y61461D01*
X79107D01*
X78928Y61535D01*
X78724Y61562D01*
D02*
G37*
G36*
X76280D02*
X75836D01*
X75632Y61535D01*
X75442Y61456D01*
X75279Y61331D01*
X75154Y61168D01*
X75075Y60978D01*
X75048Y60774D01*
Y59995D01*
X76280D01*
Y61562D01*
D02*
G37*
G36*
X134687Y60700D02*
X133850D01*
Y59863D01*
X134115Y60005D01*
X134351Y60199D01*
X134545Y60435D01*
X134687Y60700D01*
D02*
G37*
G36*
X55437Y60700D02*
X54600D01*
Y59863D01*
X54865Y60005D01*
X55101Y60199D01*
X55295Y60435D01*
X55437Y60700D01*
D02*
G37*
G36*
X53400D02*
X52563D01*
X52705Y60435D01*
X52899Y60199D01*
X53135Y60005D01*
X53400Y59863D01*
Y60700D01*
D02*
G37*
G36*
X132650Y60700D02*
X131813D01*
X131955Y60435D01*
X132149Y60199D01*
X132385Y60005D01*
X132650Y59863D01*
Y60700D01*
D02*
G37*
G36*
X84475Y60000D02*
X84000D01*
Y59600D01*
X84475D01*
Y60000D01*
D02*
G37*
G36*
X117600Y73404D02*
X117522Y73388D01*
X117456Y73344D01*
X117412Y73278D01*
X117396Y73200D01*
Y65650D01*
Y64857D01*
X116100D01*
X115963Y64830D01*
X115848Y64752D01*
X114348Y63252D01*
X114270Y63137D01*
X114243Y63000D01*
Y56148D01*
X113052Y54957D01*
X112000D01*
Y55250D01*
X110804D01*
Y55500D01*
X110788Y55578D01*
X110744Y55644D01*
X110678Y55688D01*
X110600Y55704D01*
X105700D01*
X105622Y55688D01*
X105556Y55644D01*
X105512Y55578D01*
X105496Y55500D01*
Y55250D01*
X105225D01*
Y54600D01*
Y53950D01*
X105496D01*
Y53700D01*
X105512Y53622D01*
X105556Y53556D01*
X105622Y53512D01*
X105700Y53496D01*
X110600D01*
X110678Y53512D01*
X110744Y53556D01*
X110788Y53622D01*
X110804Y53700D01*
Y53950D01*
X112000D01*
Y54243D01*
X113200D01*
X113337Y54270D01*
X113452Y54348D01*
X114852Y55748D01*
X114930Y55863D01*
X114957Y56000D01*
Y62852D01*
X116248Y64143D01*
X117396D01*
Y62850D01*
X117412Y62772D01*
X117456Y62706D01*
X117522Y62662D01*
X117600Y62646D01*
X118186D01*
X118296Y62550D01*
Y58350D01*
X118312Y58272D01*
X118356Y58206D01*
X118422Y58162D01*
X118500Y58146D01*
X118708D01*
X118730Y58150D01*
X118751Y58151D01*
X118868Y58176D01*
X118885Y58183D01*
X118903Y58187D01*
X118921Y58199D01*
X118941Y58207D01*
X118954Y58220D01*
X118969Y58231D01*
X118981Y58249D01*
X118996Y58264D01*
X119003Y58282D01*
X119013Y58297D01*
X119018Y58318D01*
X119026Y58338D01*
X119145Y58375D01*
X119855D01*
X119974Y58338D01*
X119982Y58318D01*
X119987Y58297D01*
X119997Y58282D01*
X120004Y58264D01*
X120019Y58249D01*
X120031Y58231D01*
X120046Y58220D01*
X120059Y58207D01*
X120079Y58199D01*
X120097Y58187D01*
X120115Y58183D01*
X120132Y58176D01*
X120249Y58151D01*
X120270Y58150D01*
X120292Y58146D01*
X120500D01*
X120578Y58162D01*
X120644Y58206D01*
X120688Y58272D01*
X120704Y58350D01*
Y62550D01*
X120814Y62646D01*
X122129D01*
X122156Y62606D01*
X122222Y62562D01*
X122300Y62546D01*
X122800D01*
Y62250D01*
X124200D01*
Y62546D01*
X125396D01*
X125396Y59400D01*
X125412Y59322D01*
X125456Y59256D01*
X125522Y59212D01*
X125600Y59196D01*
X130600Y59196D01*
X130678Y59212D01*
X130744Y59256D01*
X130788Y59322D01*
X130804Y59400D01*
X130804Y65900D01*
X130804Y73200D01*
X130788Y73278D01*
X130744Y73344D01*
X130678Y73388D01*
X130600Y73404D01*
X117600Y73404D01*
D02*
G37*
G36*
X112200Y63250D02*
X111500D01*
X110800D01*
Y62775D01*
Y61375D01*
X111143D01*
Y60798D01*
X108852Y58507D01*
X107100D01*
Y58800D01*
X105850D01*
Y57500D01*
X107100D01*
Y57793D01*
X109000D01*
X109137Y57820D01*
X109252Y57898D01*
X111752Y60398D01*
X111830Y60513D01*
X111857Y60650D01*
Y61375D01*
X112200D01*
Y62775D01*
Y63250D01*
D02*
G37*
G36*
X102400Y58800D02*
X102075D01*
Y58450D01*
X102400D01*
Y58800D01*
D02*
G37*
G36*
X92975Y60425D02*
X92300D01*
Y58200D01*
X92975D01*
Y60425D01*
D02*
G37*
G36*
X90900D02*
X90225D01*
Y58200D01*
X90900D01*
Y60425D01*
D02*
G37*
G36*
X120175Y57925D02*
X119765D01*
Y57590D01*
X120175D01*
Y57925D01*
D02*
G37*
G36*
X119235D02*
X118825D01*
Y57590D01*
X119235D01*
Y57925D01*
D02*
G37*
G36*
X102400Y57850D02*
X102075D01*
Y57500D01*
X102400D01*
Y57850D01*
D02*
G37*
G36*
X120175Y57060D02*
X119765D01*
Y56725D01*
X120175D01*
Y57060D01*
D02*
G37*
G36*
X119235D02*
X118825D01*
Y56725D01*
X119235D01*
Y57060D01*
D02*
G37*
G36*
X79972Y57995D02*
X78280D01*
Y56428D01*
X78724D01*
X78928Y56455D01*
X79107Y56529D01*
X79697D01*
X79810Y56552D01*
X79905Y56616D01*
X79969Y56711D01*
X79992Y56824D01*
Y56825D01*
X79100D01*
Y57355D01*
X79992D01*
Y57356D01*
X79969Y57469D01*
X79905Y57564D01*
X79810Y57628D01*
X79697Y57651D01*
X79512D01*
Y57799D01*
X79697D01*
X79810Y57822D01*
X79905Y57886D01*
X79969Y57981D01*
X79972Y57995D01*
D02*
G37*
G36*
X76280D02*
X75048D01*
Y57216D01*
X75075Y57012D01*
X75154Y56822D01*
X75279Y56659D01*
X75442Y56534D01*
X75632Y56455D01*
X75836Y56428D01*
X76280D01*
Y57995D01*
D02*
G37*
G36*
X84400Y56750D02*
X84075D01*
Y56400D01*
X84400D01*
Y56750D01*
D02*
G37*
G36*
X83475D02*
X83150D01*
Y56400D01*
X83475D01*
Y56750D01*
D02*
G37*
G36*
X134000Y56800D02*
Y55500D01*
X135300D01*
X135089Y55896D01*
X134776Y56276D01*
X134396Y56589D01*
X134000Y56800D01*
D02*
G37*
G36*
X132000D02*
X131604Y56589D01*
X131224Y56276D01*
X130911Y55896D01*
X130700Y55500D01*
X132000D01*
Y56800D01*
D02*
G37*
G36*
X57000D02*
Y55500D01*
X58300D01*
X58089Y55896D01*
X57776Y56276D01*
X57396Y56589D01*
X57000Y56800D01*
D02*
G37*
G36*
X55000D02*
X54604Y56589D01*
X54224Y56276D01*
X53911Y55896D01*
X53700Y55500D01*
X55000D01*
Y56800D01*
D02*
G37*
G36*
X84400Y55800D02*
X84075D01*
Y55450D01*
X84400D01*
Y55800D01*
D02*
G37*
G36*
X83475D02*
X83150D01*
Y55450D01*
X83475D01*
Y55800D01*
D02*
G37*
G36*
X104625Y55250D02*
X104300D01*
Y54900D01*
X104625D01*
Y55250D01*
D02*
G37*
G36*
X92975Y56800D02*
X92300D01*
Y54575D01*
X92975D01*
Y56800D01*
D02*
G37*
G36*
X90900D02*
X90225D01*
Y54575D01*
X90900D01*
Y56800D01*
D02*
G37*
G36*
X104625Y54300D02*
X104300D01*
Y53950D01*
X104625D01*
Y54300D01*
D02*
G37*
G36*
X70200Y57604D02*
X62900Y57604D01*
X62822Y57588D01*
X62756Y57544D01*
X62712Y57478D01*
X62696Y57400D01*
X62696Y53900D01*
X62712Y53822D01*
X62756Y53756D01*
X62822Y53712D01*
X62900Y53696D01*
X65900Y53696D01*
X65920Y53700D01*
X65940Y53700D01*
X65958Y53708D01*
X65978Y53712D01*
X65995Y53723D01*
X66013Y53730D01*
X67462Y54696D01*
X70200D01*
X70278Y54712D01*
X70344Y54756D01*
X70388Y54822D01*
X70404Y54900D01*
X70404Y57400D01*
X70388Y57478D01*
X70344Y57544D01*
X70278Y57588D01*
X70200Y57604D01*
D02*
G37*
G36*
X66000Y53550D02*
X65500D01*
Y53100D01*
X66000D01*
Y53550D01*
D02*
G37*
G36*
X64300D02*
X63800D01*
Y53100D01*
X64300D01*
Y53550D01*
D02*
G37*
G36*
X135300Y53500D02*
X134000D01*
Y52200D01*
X134396Y52411D01*
X134776Y52724D01*
X135089Y53104D01*
X135300Y53500D01*
D02*
G37*
G36*
X132000D02*
X130700D01*
X130911Y53104D01*
X131224Y52724D01*
X131604Y52411D01*
X132000Y52200D01*
Y53500D01*
D02*
G37*
G36*
X58300D02*
X57000D01*
Y52200D01*
X57396Y52411D01*
X57776Y52724D01*
X58089Y53104D01*
X58300Y53500D01*
D02*
G37*
G36*
X55000D02*
X53700D01*
X53911Y53104D01*
X54224Y52724D01*
X54604Y52411D01*
X55000Y52200D01*
Y53500D01*
D02*
G37*
G36*
X66000Y51900D02*
X65500D01*
Y51450D01*
X66000D01*
Y51900D01*
D02*
G37*
G36*
X64300D02*
X63800D01*
Y51450D01*
X64300D01*
Y51900D01*
D02*
G37*
%LPD*%
G36*
X97300Y65400D02*
X101400D01*
Y65143D01*
X101317Y65107D01*
X101273Y65097D01*
X101141Y65185D01*
X100975Y65218D01*
X100290D01*
Y64785D01*
Y64352D01*
X100975D01*
X101141Y64385D01*
X101273Y64473D01*
X101317Y64463D01*
X101400Y64427D01*
Y64200D01*
X97300D01*
Y62200D01*
X85400D01*
Y67300D01*
X80367D01*
X80299Y67427D01*
X80327Y67469D01*
X80332Y67495D01*
X79450D01*
X78568D01*
X78573Y67469D01*
X78601Y67427D01*
X78533Y67300D01*
X78400D01*
Y70600D01*
X86400D01*
Y75500D01*
X97300D01*
Y65400D01*
D02*
G37*
G36*
X101400Y62603D02*
X101317Y62567D01*
X101273Y62557D01*
X101141Y62645D01*
X100975Y62678D01*
X100290D01*
Y62245D01*
Y61812D01*
X100975D01*
X101141Y61845D01*
X101273Y61933D01*
X101317Y61923D01*
X101400Y61887D01*
Y60300D01*
X101000D01*
Y57300D01*
X98500D01*
Y62900D01*
X101400D01*
Y62603D01*
D02*
G37*
%LPC*%
G36*
X89100Y75300D02*
X88600D01*
Y74875D01*
X89100D01*
Y75300D01*
D02*
G37*
G36*
X94000D02*
X93500D01*
Y74875D01*
X94000D01*
Y75300D01*
D02*
G37*
G36*
X92300D02*
X91800D01*
Y74875D01*
X92300D01*
Y75300D01*
D02*
G37*
G36*
X87400D02*
X86900D01*
Y74875D01*
X87400D01*
Y75300D01*
D02*
G37*
G36*
X94000Y73675D02*
X93500D01*
Y73250D01*
X94000D01*
Y73675D01*
D02*
G37*
G36*
X92300D02*
X91800D01*
Y73250D01*
X92300D01*
Y73675D01*
D02*
G37*
G36*
X89100D02*
X88600D01*
Y73250D01*
X89100D01*
Y73675D01*
D02*
G37*
G36*
X87400D02*
X86900D01*
Y73250D01*
X87400D01*
Y73675D01*
D02*
G37*
G36*
X84300Y69850D02*
X83800D01*
Y69400D01*
X84300D01*
Y69850D01*
D02*
G37*
G36*
X82600D02*
X82100D01*
Y69400D01*
X82600D01*
Y69850D01*
D02*
G37*
G36*
X79950Y69333D02*
X79580D01*
Y69055D01*
X80332D01*
X80327Y69081D01*
X80238Y69213D01*
X80106Y69302D01*
X79950Y69333D01*
D02*
G37*
G36*
X79320D02*
X78950D01*
X78794Y69302D01*
X78662Y69213D01*
X78573Y69081D01*
X78568Y69055D01*
X79320D01*
Y69333D01*
D02*
G37*
G36*
X80332Y68795D02*
X79450D01*
X78568D01*
X78573Y68769D01*
X78662Y68637D01*
Y68563D01*
X78573Y68431D01*
X78568Y68405D01*
X79450D01*
X80332D01*
X80327Y68431D01*
X80238Y68563D01*
Y68637D01*
X80327Y68769D01*
X80332Y68795D01*
D02*
G37*
G36*
Y68145D02*
X79450D01*
X78568D01*
X78573Y68119D01*
X78662Y67987D01*
Y67913D01*
X78573Y67781D01*
X78568Y67755D01*
X79450D01*
X80332D01*
X80327Y67781D01*
X80238Y67913D01*
Y67987D01*
X80327Y68119D01*
X80332Y68145D01*
D02*
G37*
G36*
X84300Y68200D02*
X83800D01*
Y67750D01*
X84300D01*
Y68200D01*
D02*
G37*
G36*
X82600D02*
X82100D01*
Y67750D01*
X82600D01*
Y68200D01*
D02*
G37*
G36*
X92975Y69225D02*
X92300D01*
Y67000D01*
X92975D01*
Y69225D01*
D02*
G37*
G36*
X90900D02*
X90225D01*
Y67000D01*
X90900D01*
Y69225D01*
D02*
G37*
G36*
X99960Y65218D02*
X99275D01*
X99109Y65185D01*
X98969Y65091D01*
X98875Y64951D01*
X98874Y64950D01*
X99960D01*
Y65218D01*
D02*
G37*
G36*
Y64620D02*
X98874D01*
X98875Y64619D01*
X98969Y64479D01*
X99109Y64385D01*
X99275Y64352D01*
X99960D01*
Y64620D01*
D02*
G37*
G36*
X92975Y65600D02*
X92300D01*
Y63375D01*
X92975D01*
Y65600D01*
D02*
G37*
G36*
X90900D02*
X90225D01*
Y63375D01*
X90900D01*
Y65600D01*
D02*
G37*
G36*
X99960Y62678D02*
X99275D01*
X99109Y62645D01*
X98969Y62551D01*
X98875Y62411D01*
X98874Y62410D01*
X99960D01*
Y62678D01*
D02*
G37*
G36*
Y62080D02*
X98874D01*
X98875Y62079D01*
X98969Y61939D01*
X99109Y61845D01*
X99275Y61812D01*
X99960D01*
Y62080D01*
D02*
G37*
G36*
X100850Y58800D02*
X100525D01*
Y58450D01*
X100850D01*
Y58800D01*
D02*
G37*
G36*
X99925D02*
X99600D01*
Y58450D01*
X99925D01*
Y58800D01*
D02*
G37*
G36*
X100850Y57850D02*
X100525D01*
Y57500D01*
X100850D01*
Y57850D01*
D02*
G37*
G36*
X99925D02*
X99600D01*
Y57500D01*
X99925D01*
Y57850D01*
D02*
G37*
%LPD*%
G36*
X117000Y67400D02*
X107500D01*
Y65450D01*
X104700Y65450D01*
Y65608D01*
X104827Y65676D01*
X104859Y65655D01*
X105025Y65622D01*
X105710D01*
Y66055D01*
Y66488D01*
X105025D01*
X104859Y66455D01*
X104827Y66434D01*
X104700Y66502D01*
Y69200D01*
X106800Y71600D01*
X117000D01*
Y67400D01*
D02*
G37*
%LPC*%
G36*
X116600Y71375D02*
X115700D01*
Y70500D01*
X116600D01*
Y71375D01*
D02*
G37*
G36*
X113700D02*
X112800D01*
Y70500D01*
X113700D01*
Y71375D01*
D02*
G37*
G36*
X111600Y70350D02*
X111100D01*
Y69900D01*
X111600D01*
Y70350D01*
D02*
G37*
G36*
X109900D02*
X109400D01*
Y69900D01*
X109900D01*
Y70350D01*
D02*
G37*
G36*
X111600Y68700D02*
X111100D01*
Y68250D01*
X111600D01*
Y68700D01*
D02*
G37*
G36*
X109900D02*
X109400D01*
Y68250D01*
X109900D01*
Y68700D01*
D02*
G37*
G36*
X116600Y68500D02*
X115700D01*
Y67625D01*
X116600D01*
Y68500D01*
D02*
G37*
G36*
X113700D02*
X112800D01*
Y67625D01*
X113700D01*
Y68500D01*
D02*
G37*
G36*
X106725Y66488D02*
X106040D01*
Y66220D01*
X107126D01*
X107125Y66221D01*
X107031Y66361D01*
X106891Y66455D01*
X106725Y66488D01*
D02*
G37*
G36*
X107126Y65890D02*
X106040D01*
Y65622D01*
X106725D01*
X106891Y65655D01*
X107031Y65749D01*
X107125Y65889D01*
X107126Y65890D01*
D02*
G37*
%LPD*%
G36*
X61700Y70600D02*
X66995D01*
X67000Y70475D01*
X67000Y70473D01*
Y70050D01*
X68100D01*
X69200D01*
Y70473D01*
X69200Y70475D01*
X69205Y70600D01*
X70244D01*
X70350Y70550D01*
X70350Y70473D01*
Y70225D01*
X71650D01*
Y70473D01*
X71650Y70550D01*
X71756Y70600D01*
X74600D01*
Y67300D01*
X74467D01*
X74399Y67427D01*
X74427Y67469D01*
X74432Y67495D01*
X73550D01*
X72644D01*
X72595Y67399D01*
X72577Y67384D01*
X72575Y67383D01*
X72537Y67389D01*
X72437Y67457D01*
X72300Y67484D01*
X72298Y67483D01*
X72200Y67564D01*
X72200Y68200D01*
X68400Y68200D01*
X66100D01*
Y67800D01*
X61700D01*
X61700Y59800D01*
X60251Y59800D01*
X60219Y59927D01*
X60365Y60005D01*
X60601Y60199D01*
X60795Y60435D01*
X60937Y60700D01*
X59500D01*
X58063D01*
X58205Y60435D01*
X58399Y60199D01*
X58635Y60005D01*
X58781Y59927D01*
X58749Y59800D01*
X57700Y59800D01*
X57700Y71400D01*
X61700D01*
X61700Y70600D01*
D02*
G37*
G36*
X71943Y67996D02*
Y66100D01*
X71970Y65963D01*
X72048Y65848D01*
X72271Y65624D01*
X72223Y65507D01*
X69300D01*
Y65750D01*
X69057D01*
Y66024D01*
X69030Y66161D01*
X68952Y66277D01*
X68806Y66423D01*
X68844Y66539D01*
X68852Y66550D01*
X69300D01*
Y66843D01*
X69600D01*
X69737Y66870D01*
X69852Y66948D01*
X70901Y67996D01*
X71943Y67996D01*
D02*
G37*
G36*
X65600Y61900D02*
X72600D01*
Y62600D01*
X74400Y62600D01*
Y62879D01*
X74427Y62919D01*
X74458Y63075D01*
X74427Y63231D01*
X74400Y63271D01*
Y63400D01*
X74400Y63400D01*
X74400D01*
X74399Y63527D01*
X74427Y63569D01*
X74432Y63595D01*
X73550D01*
Y63855D01*
X74432D01*
X74428Y63873D01*
X74429Y63900D01*
X74482Y64000D01*
X74700D01*
X74700Y57700D01*
X74344D01*
X74276Y57818D01*
X74278Y57827D01*
X74365Y57886D01*
X74429Y57981D01*
X74452Y58094D01*
Y58095D01*
X73560D01*
X72668D01*
Y58094D01*
X72691Y57981D01*
X72755Y57886D01*
X72842Y57827D01*
X72844Y57818D01*
X72776Y57700D01*
X72300D01*
X72300Y60500D01*
X62600Y60500D01*
X62600Y67100D01*
X65600Y67100D01*
Y61900D01*
D02*
G37*
%LPC*%
G36*
X61050Y71250D02*
X60100D01*
Y70300D01*
X61050D01*
Y71250D01*
D02*
G37*
G36*
X58900D02*
X57950D01*
Y70300D01*
X58900D01*
Y71250D01*
D02*
G37*
G36*
X65200Y70350D02*
X64700D01*
Y69900D01*
X65200D01*
Y70350D01*
D02*
G37*
G36*
X63500D02*
X63000D01*
Y69900D01*
X63500D01*
Y70350D01*
D02*
G37*
G36*
X71650Y69625D02*
X71300D01*
Y69300D01*
X71650D01*
Y69625D01*
D02*
G37*
G36*
X70700D02*
X70350D01*
Y69300D01*
X70700D01*
Y69625D01*
D02*
G37*
G36*
X74450Y69325D02*
X73680D01*
Y69055D01*
X74450D01*
Y69325D01*
D02*
G37*
G36*
X73420D02*
X72650D01*
Y69055D01*
X73420D01*
Y69325D01*
D02*
G37*
G36*
X69200Y68850D02*
X68700D01*
Y68425D01*
X69200D01*
Y68850D01*
D02*
G37*
G36*
X67500D02*
X67000D01*
Y68425D01*
X67500D01*
Y68850D01*
D02*
G37*
G36*
X74450Y68795D02*
X73550D01*
X72650D01*
Y68525D01*
X72650Y68525D01*
X72666Y68405D01*
X73550D01*
X74434D01*
X74450Y68525D01*
X74450D01*
X74450Y68525D01*
Y68795D01*
D02*
G37*
G36*
X65200Y68700D02*
X64700D01*
Y68250D01*
X65200D01*
Y68700D01*
D02*
G37*
G36*
X63500D02*
X63000D01*
Y68250D01*
X63500D01*
Y68700D01*
D02*
G37*
G36*
X74432Y68145D02*
X73550D01*
X72668D01*
X72673Y68119D01*
X72762Y67987D01*
Y67913D01*
X72673Y67781D01*
X72668Y67755D01*
X73550D01*
X74432D01*
X74427Y67781D01*
X74338Y67913D01*
Y67987D01*
X74427Y68119D01*
X74432Y68145D01*
D02*
G37*
G36*
X61050Y69100D02*
X59500D01*
X57950D01*
Y68150D01*
X58794D01*
Y66880D01*
X58635Y66795D01*
X58399Y66601D01*
X58205Y66365D01*
X58063Y66100D01*
X59500D01*
X60937D01*
X60795Y66365D01*
X60601Y66601D01*
X60365Y66795D01*
X60206Y66880D01*
Y68150D01*
X61050D01*
Y69100D01*
D02*
G37*
G36*
X60937Y64900D02*
X59500D01*
X58063D01*
X58205Y64635D01*
X58399Y64399D01*
X58635Y64205D01*
X58794Y64120D01*
Y62680D01*
X58635Y62595D01*
X58399Y62401D01*
X58205Y62165D01*
X58063Y61900D01*
X59500D01*
X60937D01*
X60795Y62165D01*
X60601Y62401D01*
X60365Y62595D01*
X60206Y62680D01*
Y64120D01*
X60365Y64205D01*
X60601Y64399D01*
X60795Y64635D01*
X60937Y64900D01*
D02*
G37*
G36*
X65200Y66950D02*
X64700D01*
Y66500D01*
X65200D01*
Y66950D01*
D02*
G37*
G36*
X63500D02*
X63000D01*
Y66500D01*
X63500D01*
Y66950D01*
D02*
G37*
G36*
X65200Y65300D02*
X64700D01*
Y64850D01*
X65200D01*
Y65300D01*
D02*
G37*
G36*
X63500D02*
X63000D01*
Y64850D01*
X63500D01*
Y65300D01*
D02*
G37*
G36*
X74446Y61455D02*
X73825D01*
Y61165D01*
X74446D01*
Y61455D01*
D02*
G37*
G36*
X73295D02*
X72674D01*
Y61165D01*
X73295D01*
Y61455D01*
D02*
G37*
G36*
X74446Y60635D02*
X73825D01*
Y60345D01*
X74446D01*
Y60635D01*
D02*
G37*
G36*
X73295D02*
X72674D01*
Y60345D01*
X73295D01*
Y60635D01*
D02*
G37*
G36*
X74157Y60191D02*
X73825D01*
Y59895D01*
X74452D01*
Y59896D01*
X74429Y60009D01*
X74365Y60104D01*
X74270Y60168D01*
X74157Y60191D01*
D02*
G37*
G36*
X73295D02*
X72963D01*
X72850Y60168D01*
X72755Y60104D01*
X72691Y60009D01*
X72668Y59896D01*
Y59895D01*
X73295D01*
Y60191D01*
D02*
G37*
G36*
X74452Y59365D02*
X73825D01*
Y59069D01*
X74157D01*
X74270Y59092D01*
X74365Y59156D01*
X74429Y59251D01*
X74452Y59364D01*
Y59365D01*
D02*
G37*
G36*
X73295D02*
X72668D01*
Y59364D01*
X72691Y59251D01*
X72755Y59156D01*
X72850Y59092D01*
X72963Y59069D01*
X73295D01*
Y59365D01*
D02*
G37*
G36*
X74157Y58921D02*
X73825D01*
Y58625D01*
X74452D01*
Y58626D01*
X74429Y58739D01*
X74365Y58834D01*
X74270Y58898D01*
X74157Y58921D01*
D02*
G37*
G36*
X73295D02*
X72963D01*
X72850Y58898D01*
X72755Y58834D01*
X72691Y58739D01*
X72668Y58626D01*
Y58625D01*
X73295D01*
Y58921D01*
D02*
G37*
%LPD*%
G36*
X120500Y58350D02*
X120292D01*
X120175Y58375D01*
X120175Y58477D01*
Y58710D01*
X119500D01*
X118825D01*
Y58375D01*
X118708Y58350D01*
X118500D01*
Y62550D01*
X118744D01*
X118850Y62500D01*
X118850Y62423D01*
Y62175D01*
X119500D01*
X120150D01*
Y62423D01*
X120150Y62500D01*
X120256Y62550D01*
X120500D01*
Y58350D01*
D02*
G37*
G36*
X130600Y73200D02*
X130600Y65900D01*
X130600Y59400D01*
X125600Y59400D01*
X125600Y62750D01*
X124200D01*
Y63050D01*
X122800D01*
Y62750D01*
X122300D01*
Y62850D01*
X120150D01*
Y63125D01*
X119500D01*
X118850D01*
Y62850D01*
X117600D01*
Y65650D01*
Y73200D01*
X130600Y73200D01*
D02*
G37*
G36*
X110600Y53700D02*
X105700D01*
Y55500D01*
X110600D01*
Y53700D01*
D02*
G37*
%LPC*%
G36*
X120150Y61575D02*
X119800D01*
Y61250D01*
X120150D01*
Y61575D01*
D02*
G37*
G36*
X119200D02*
X118850D01*
Y61250D01*
X119200D01*
Y61575D01*
D02*
G37*
G36*
X120175Y59575D02*
X119765D01*
Y59240D01*
X120175D01*
Y59575D01*
D02*
G37*
G36*
X119235D02*
X118825D01*
Y59240D01*
X119235D01*
Y59575D01*
D02*
G37*
G36*
X122200Y71375D02*
X121300D01*
Y70500D01*
X122200D01*
Y71375D01*
D02*
G37*
G36*
X119300D02*
X118400D01*
Y70500D01*
X119300D01*
Y71375D01*
D02*
G37*
G36*
X128350Y71137D02*
Y70300D01*
X129187D01*
X129045Y70565D01*
X128851Y70801D01*
X128615Y70995D01*
X128350Y71137D01*
D02*
G37*
G36*
X127150D02*
X126885Y70995D01*
X126649Y70801D01*
X126455Y70565D01*
X126313Y70300D01*
X127150D01*
Y71137D01*
D02*
G37*
G36*
X122200Y68500D02*
X121300D01*
Y67625D01*
X122200D01*
Y68500D01*
D02*
G37*
G36*
X119300D02*
X118400D01*
Y67625D01*
X119300D01*
Y68500D01*
D02*
G37*
G36*
X129187Y69100D02*
X127750D01*
X126313D01*
X126455Y68835D01*
X126649Y68599D01*
X126885Y68405D01*
X127044Y68320D01*
Y66880D01*
X126885Y66795D01*
X126649Y66601D01*
X126455Y66365D01*
X126313Y66100D01*
X127750D01*
X129187D01*
X129045Y66365D01*
X128851Y66601D01*
X128615Y66795D01*
X128456Y66880D01*
Y68320D01*
X128615Y68405D01*
X128851Y68599D01*
X129045Y68835D01*
X129187Y69100D01*
D02*
G37*
G36*
X120150Y64050D02*
X119800D01*
Y63725D01*
X120150D01*
Y64050D01*
D02*
G37*
G36*
X119200D02*
X118850D01*
Y63725D01*
X119200D01*
Y64050D01*
D02*
G37*
G36*
X124200Y64125D02*
X123800D01*
Y63650D01*
X124200D01*
Y64125D01*
D02*
G37*
G36*
X123200D02*
X122800D01*
Y63650D01*
X123200D01*
Y64125D01*
D02*
G37*
G36*
X129187Y64900D02*
X127750D01*
X126313D01*
X126455Y64635D01*
X126649Y64399D01*
X126885Y64205D01*
X127044Y64120D01*
Y62850D01*
X126200D01*
Y61900D01*
X127750D01*
X129300D01*
Y62850D01*
X128456D01*
Y64120D01*
X128615Y64205D01*
X128851Y64399D01*
X129045Y64635D01*
X129187Y64900D01*
D02*
G37*
G36*
X129300Y60700D02*
X128350D01*
Y59750D01*
X129300D01*
Y60700D01*
D02*
G37*
G36*
X127150D02*
X126200D01*
Y59750D01*
X127150D01*
Y60700D01*
D02*
G37*
G36*
X110450Y55250D02*
X110125D01*
Y54900D01*
X110450D01*
Y55250D01*
D02*
G37*
G36*
X109525D02*
X109200D01*
Y54900D01*
X109525D01*
Y55250D01*
D02*
G37*
G36*
X107100D02*
X106775D01*
Y54900D01*
X107100D01*
Y55250D01*
D02*
G37*
G36*
X106175D02*
X105850D01*
Y54900D01*
X106175D01*
Y55250D01*
D02*
G37*
G36*
X110450Y54300D02*
X110125D01*
Y53950D01*
X110450D01*
Y54300D01*
D02*
G37*
G36*
X109525D02*
X109200D01*
Y53950D01*
X109525D01*
Y54300D01*
D02*
G37*
G36*
X107100Y54300D02*
X106775D01*
Y53950D01*
X107100D01*
Y54300D01*
D02*
G37*
G36*
X106175D02*
X105850D01*
Y53950D01*
X106175D01*
Y54300D01*
D02*
G37*
%LPD*%
G36*
X70200Y54900D02*
X67400D01*
X65900Y53900D01*
X62900Y53900D01*
X62900Y57400D01*
X70200Y57400D01*
X70200Y54900D01*
D02*
G37*
%LPC*%
G36*
X69800Y57200D02*
X69330D01*
Y56780D01*
X69800D01*
Y57200D01*
D02*
G37*
G36*
X68470D02*
X68000D01*
Y56780D01*
X68470D01*
Y57200D01*
D02*
G37*
G36*
X66000Y56950D02*
X65500D01*
Y56500D01*
X66000D01*
Y56950D01*
D02*
G37*
G36*
X64300D02*
X63800D01*
Y56500D01*
X64300D01*
Y56950D01*
D02*
G37*
G36*
X69800Y55920D02*
X69330D01*
Y55500D01*
X69800D01*
Y55920D01*
D02*
G37*
G36*
X68470D02*
X68000D01*
Y55500D01*
X68470D01*
Y55920D01*
D02*
G37*
G36*
X66000Y55300D02*
X65500D01*
Y54850D01*
X66000D01*
Y55300D01*
D02*
G37*
G36*
X64300D02*
X63800D01*
Y54850D01*
X64300D01*
Y55300D01*
D02*
G37*
%LPD*%
D38*
X100125Y66055D02*
D03*
Y64785D02*
D03*
Y63515D02*
D03*
Y62245D02*
D03*
X105875Y66055D02*
D03*
Y64785D02*
D03*
Y63515D02*
D03*
Y62245D02*
D03*
D39*
X103000Y64150D02*
D03*
D40*
X68100Y71900D02*
D03*
Y69450D02*
D03*
X92900Y74275D02*
D03*
Y76725D02*
D03*
X88000Y74275D02*
D03*
Y76725D02*
D03*
D41*
X65300Y73400D02*
D03*
X64420D02*
D03*
D42*
X73550Y68925D02*
D03*
D43*
Y68275D02*
D03*
Y67625D02*
D03*
Y66975D02*
D03*
Y66325D02*
D03*
Y65675D02*
D03*
Y65025D02*
D03*
Y64375D02*
D03*
Y63725D02*
D03*
Y63075D02*
D03*
X79450Y68925D02*
D03*
Y68275D02*
D03*
Y67625D02*
D03*
Y66975D02*
D03*
Y66325D02*
D03*
Y65675D02*
D03*
Y65025D02*
D03*
Y64375D02*
D03*
Y63725D02*
D03*
Y63075D02*
D03*
D44*
X76500Y66000D02*
D03*
D45*
X73850Y78740D02*
D03*
X82950D02*
D03*
Y74260D02*
D03*
X73850D02*
D03*
D46*
X99500Y68200D02*
D03*
Y69600D02*
D03*
X123500Y61950D02*
D03*
Y63350D02*
D03*
X111500Y63550D02*
D03*
Y62150D02*
D03*
X109500Y63550D02*
D03*
Y62150D02*
D03*
D47*
X91600Y66300D02*
D03*
Y57500D02*
D03*
D48*
X71000Y71475D02*
D03*
Y69925D02*
D03*
X119500Y61875D02*
D03*
Y63425D02*
D03*
D49*
X68900Y56350D02*
D03*
X68950Y53450D02*
D03*
D50*
X77280Y58995D02*
D03*
D51*
X79100Y57090D02*
D03*
Y58360D02*
D03*
Y59630D02*
D03*
Y60900D02*
D03*
X73560Y57090D02*
D03*
Y58360D02*
D03*
Y59630D02*
D03*
D52*
Y60900D02*
D03*
D53*
X64100Y65900D02*
D03*
Y69300D02*
D03*
X83200Y65400D02*
D03*
Y68800D02*
D03*
X64900Y55900D02*
D03*
Y52500D02*
D03*
X110500Y65900D02*
D03*
Y69300D02*
D03*
D54*
X68675Y63000D02*
D03*
X67125D02*
D03*
Y65100D02*
D03*
X68675D02*
D03*
X67125Y67200D02*
D03*
X68675D02*
D03*
X106475Y58150D02*
D03*
X104925D02*
D03*
X101775D02*
D03*
X100225D02*
D03*
X104925Y54600D02*
D03*
X106475D02*
D03*
X109825D02*
D03*
X111375D02*
D03*
X82225Y56100D02*
D03*
X83775D02*
D03*
D55*
X119500Y57325D02*
D03*
Y58975D02*
D03*
D56*
X83700Y60300D02*
D03*
X82300D02*
D03*
D57*
X114700Y69500D02*
D03*
X120300D02*
D03*
D58*
X69600Y67200D02*
X71000Y68600D01*
X111375Y54600D02*
X113200D01*
X114600Y56000D01*
Y63000D01*
X116100Y64500D01*
X118000D01*
X99500Y69600D02*
X101100D01*
X98400Y68200D02*
X99500D01*
X98100Y67900D02*
X98400Y68200D01*
X98100Y66400D02*
Y67900D01*
Y66400D02*
X98445Y66055D01*
X100125D01*
X64420Y73400D02*
X64460D01*
X63060D02*
X64420D01*
X71795Y57095D02*
X73560D01*
X71075Y71400D02*
X71075Y71400D01*
X70975Y71500D02*
X71075Y71400D01*
X71875Y63075D02*
X73550D01*
X71300Y62500D02*
X71875Y63075D01*
X70000Y63000D02*
X70725Y63725D01*
X73550D01*
X68675Y63000D02*
X70000D01*
X67125Y64050D02*
Y65100D01*
Y63000D02*
Y64050D01*
X72300Y66100D02*
X72706Y65694D01*
X73531D01*
X73550Y65675D01*
X73531Y65044D02*
X73550Y65025D01*
X72782Y65044D02*
X73531D01*
X72676Y65150D02*
X72782Y65044D01*
X68725Y65150D02*
X72676D01*
X68675Y65100D02*
X68725Y65150D01*
X67125Y64050D02*
X69497D01*
X70097Y64650D01*
X72469D01*
X72725Y64394D01*
X73531D01*
X73550Y64375D01*
X72300Y66100D02*
Y68900D01*
X68675Y67200D02*
X69600D01*
X68524Y66200D02*
X68700Y66024D01*
Y65125D02*
Y66024D01*
X68675Y65100D02*
X68700Y65125D01*
X67301Y66200D02*
X68524D01*
X67125Y66376D02*
X67301Y66200D01*
X67125Y66376D02*
Y67200D01*
X64460Y73400D02*
X64460Y73400D01*
X64460Y73400D01*
X69800Y71500D02*
X70975D01*
X73531Y67606D02*
X73550Y67625D01*
X81400Y63100D02*
Y63500D01*
X80525Y63056D02*
X80800Y62781D01*
X79469Y63056D02*
X80525D01*
X79450Y63075D02*
X79469Y63056D01*
X80544Y64356D02*
X81400Y63500D01*
X79469Y64356D02*
X80544D01*
X79450Y64375D02*
X79469Y64356D01*
X71000Y71475D02*
X71075Y71400D01*
X71400Y53000D02*
X72200D01*
X71000Y53400D02*
X71400Y53000D01*
X72200D02*
Y53800D01*
X71600Y54400D02*
X72200Y53800D01*
X71600Y54400D02*
Y56900D01*
X71795Y57095D01*
X82300Y60300D02*
Y62200D01*
X81400Y63100D02*
X82300Y62200D01*
X83010Y74200D02*
X85200D01*
X82950Y74260D02*
X83010Y74200D01*
X73850Y74260D02*
X82950D01*
X81300Y56100D02*
X82225D01*
X80800Y56600D02*
X81300Y56100D01*
X80800Y56600D02*
Y62781D01*
X69000Y53400D02*
X71000D01*
X68950Y53450D02*
X69000Y53400D01*
X73465Y56995D02*
X73560Y57090D01*
X106475Y58150D02*
X109000D01*
X111500Y60650D01*
Y62150D01*
X109500Y60950D02*
Y62150D01*
X108600Y60050D02*
X109500Y60950D01*
X105600Y60050D02*
X108600D01*
X104925Y59375D02*
X105600Y60050D01*
X104925Y58150D02*
Y59375D01*
X108600Y62250D02*
X109400D01*
X109500Y62150D01*
X107335Y63515D02*
X108600Y62250D01*
X105875Y63515D02*
X107335D01*
X107405Y62245D02*
X108000Y61650D01*
X105875Y62245D02*
X107405D01*
D59*
X133250Y65500D02*
Y69700D01*
Y61300D02*
Y65500D01*
X127750Y61300D02*
Y65500D01*
Y69700D01*
X59500Y61300D02*
Y65500D01*
Y69700D01*
X54000Y61300D02*
Y65500D01*
Y69700D01*
D60*
Y65500D02*
D03*
Y61300D02*
D03*
X59500D02*
D03*
X54000Y69700D02*
D03*
X59500Y65500D02*
D03*
X133250D02*
D03*
Y69700D02*
D03*
X127750D02*
D03*
X133250Y61300D02*
D03*
X127750Y65500D02*
D03*
D61*
X59500Y69700D02*
D03*
X127750Y61300D02*
D03*
D62*
X133000Y77000D02*
D03*
Y54500D02*
D03*
X56000D02*
D03*
Y77000D02*
D03*
D63*
X75500Y65400D02*
D03*
X75600Y67000D02*
D03*
X76600D02*
D03*
X77500D02*
D03*
X76100Y66200D02*
D03*
X77100D02*
D03*
X76500Y65400D02*
D03*
X77500D02*
D03*
X108200Y54500D02*
D03*
X106800Y69500D02*
D03*
X101100Y69600D02*
D03*
X132500Y74000D02*
D03*
X136500Y77000D02*
D03*
Y80000D02*
D03*
Y51000D02*
D03*
X126600Y77000D02*
D03*
X131700Y80000D02*
D03*
X132500Y51000D02*
D03*
X127800D02*
D03*
X51900Y77200D02*
D03*
X70300Y75900D02*
D03*
X67900Y77800D02*
D03*
X64200D02*
D03*
X71300Y62500D02*
D03*
X63060Y73400D02*
D03*
X69800Y71500D02*
D03*
X80800Y78400D02*
D03*
X78800Y71900D02*
D03*
X79800Y71400D02*
D03*
X77800D02*
D03*
X79800Y72400D02*
D03*
X77800D02*
D03*
X106800Y72900D02*
D03*
X102300D02*
D03*
X104500D02*
D03*
X99300Y75400D02*
D03*
X128500Y57000D02*
D03*
X124500Y54000D02*
D03*
X125500Y57000D02*
D03*
X136500Y54500D02*
D03*
X128500Y54000D02*
D03*
X123000Y59500D02*
D03*
X121800Y56900D02*
D03*
X115300Y54900D02*
D03*
X112300Y56900D02*
D03*
X116200D02*
D03*
X114100Y53400D02*
D03*
X110000Y52800D02*
D03*
X103300Y54900D02*
D03*
X79300D02*
D03*
X99300D02*
D03*
X95300D02*
D03*
X87300D02*
D03*
X89800Y57400D02*
D03*
X87800D02*
D03*
X88800Y58400D02*
D03*
X89800Y59400D02*
D03*
X87800D02*
D03*
X88800Y60400D02*
D03*
X96300Y57400D02*
D03*
X94300D02*
D03*
X95300Y58400D02*
D03*
X96300Y59400D02*
D03*
X94300D02*
D03*
X95300Y60400D02*
D03*
X96300Y61400D02*
D03*
X94300D02*
D03*
X92300D02*
D03*
X89800D02*
D03*
X87800D02*
D03*
X103000Y64600D02*
D03*
X103700Y65200D02*
D03*
Y63700D02*
D03*
X103000Y63000D02*
D03*
X102300Y63700D02*
D03*
Y65200D02*
D03*
X98800Y77900D02*
D03*
X108800Y75900D02*
D03*
X123800D02*
D03*
X119800D02*
D03*
X115800D02*
D03*
X111800D02*
D03*
X106800Y77900D02*
D03*
X110800D02*
D03*
X114800D02*
D03*
X118800D02*
D03*
X122800D02*
D03*
X120800Y73900D02*
D03*
X124800D02*
D03*
X128800D02*
D03*
X129800Y76900D02*
D03*
X127800Y79900D02*
D03*
X123800D02*
D03*
X119800D02*
D03*
X115800D02*
D03*
X111800D02*
D03*
X107800D02*
D03*
X103800D02*
D03*
X99800D02*
D03*
X95800D02*
D03*
X90800D02*
D03*
X85800D02*
D03*
X80300Y75400D02*
D03*
X77800D02*
D03*
X78800Y76400D02*
D03*
X76800D02*
D03*
X79800Y77400D02*
D03*
X77800D02*
D03*
X78800Y78400D02*
D03*
X76800D02*
D03*
X60500Y77900D02*
D03*
X59700Y75000D02*
D03*
X66800Y79900D02*
D03*
X62800D02*
D03*
X58800D02*
D03*
X52700D02*
D03*
X52000Y55300D02*
D03*
X67400Y58700D02*
D03*
X63500D02*
D03*
X59500Y55500D02*
D03*
X53000Y51000D02*
D03*
X57000D02*
D03*
X61000D02*
D03*
X65000D02*
D03*
X69000D02*
D03*
X73000D02*
D03*
X77000D02*
D03*
X81000D02*
D03*
X85000D02*
D03*
X89000D02*
D03*
X93000D02*
D03*
X109000D02*
D03*
X123000D02*
D03*
X118000D02*
D03*
X113000D02*
D03*
X120800Y52900D02*
D03*
X117100Y52800D02*
D03*
X111800Y52900D02*
D03*
X107800D02*
D03*
X103800D02*
D03*
X99800D02*
D03*
X95800D02*
D03*
X91800D02*
D03*
X87800D02*
D03*
X83800D02*
D03*
X79800D02*
D03*
X75800D02*
D03*
X72200Y53000D02*
D03*
X81400Y63100D02*
D03*
X85200Y74200D02*
D03*
X108000Y61650D02*
D03*
M02*
