M48
;Layer_Color=9474304
;FILE_FORMAT=4:3
METRIC,LZ
;TYPE=PLATED
T1F00S00C0.300
T2F00S00C1.400
T3F00S00C2.500
%
T01
X01208Y00529
X0123Y0051
X01245Y0054
X01255Y0057
X01285
Y0054
X01278Y0051
X01325
X01365
Y00545
X01218Y00569
X0123Y00595
X01248Y00739
X01238Y00759
X01228Y00779
X01266Y0077
X01298Y00769
X01288Y00739
X01325Y0074
X01365Y0077
X01198Y00759
X01208Y00739
X01188Y00779
X01148
X01158Y00759
X01118
X01108Y00779
X01088Y00759
X01068Y00779
Y00729
X01045
X01023
X01011Y00696
X01023Y00652
X0103Y00646
X01037Y00652
Y00637
X0103Y0063
X01023Y00637
X0108Y006165
X01082Y00545
X01078Y00529
X011Y00528
X01118Y00529
X01141Y00534
X01153Y00549
X01162Y00569
X01123
X0113Y0051
X0109
X01038Y00529
X01033Y00549
X00993
X00998Y00529
X00958
X00953Y00549
X00943Y00574
X00963
X00953Y00584
X00943Y00594
X00963
Y00614
X00953Y00604
X00943Y00614
X00923
X00898
Y00594
X00878
X00888Y00584
X00878Y00574
X00898
X00888Y00604
X00878Y00614
X00873Y00549
X00878Y00529
X0089Y0051
X0085
X00838Y00529
X00798
X0081Y0051
X0093
X00918Y00529
X00814Y00631
X00798Y00714
Y00724
X00803Y00754
X00798Y00774
X00808Y00784
X00852Y00742
X00993Y00754
X00988Y00779
X01068Y00695
X01171Y00528
X0118Y0051
X0077
X00758Y00529
X00722Y0053
X0073Y0051
X0069
X0065
X0061
X0057
X0053
X0052Y00553
X00595Y00555
X00635Y00587
X00674
X00713Y00625
X00755Y00654
X00765
X00775
X00771Y00662
X00761
X00756Y0067
X00766
X00775
X00778Y00714
Y00724
X00788Y00719
X00778Y00754
X00788Y00764
X00768
X00778Y00774
X00788Y00784
X00768
X00703Y00759
X00679Y00778
X00642
X00605Y00779
X00597Y0075
X006306Y00734
X00698Y00715
X00519Y00772
X00793Y00549
X00668Y00799
X00628
X00588
X00527
X00858
X00908
X00958
X00998
X01038
X01078
X01118
X01158
X01198
X01238
X01278
X01317Y008
X01365
T02
X012775Y00613
Y00655
Y00697
X013325
Y00655
Y00613
X00595
Y00655
Y00697
X0054
Y00655
Y00613
T03
X0133Y00545
Y0077
X0056
Y00545
M30
