G04*
G04 #@! TF.GenerationSoftware,Altium Limited,Altium Designer,19.1.6 (110)*
G04*
G04 Layer_Color=32896*
%FSLAX43Y43*%
%MOMM*%
G71*
G01*
G75*
G36*
X108688Y52239D02*
X108728Y52229D01*
X108766Y52217D01*
X108795Y52204D01*
X108819Y52189D01*
X108838Y52176D01*
X108849Y52167D01*
X108851Y52165D01*
X108853Y52163D01*
X108867Y52148D01*
X108880Y52129D01*
X108904Y52091D01*
X108923Y52050D01*
X108938Y52009D01*
X108949Y51972D01*
X108953Y51957D01*
X108956Y51942D01*
X108958Y51931D01*
X108960Y51922D01*
X108962Y51917D01*
Y51915D01*
X108780Y51878D01*
X108777Y51907D01*
X108771Y51931D01*
X108764Y51954D01*
X108756Y51970D01*
X108749Y51983D01*
X108743Y51994D01*
X108740Y52000D01*
X108738Y52002D01*
X108723Y52017D01*
X108708Y52026D01*
X108693Y52033D01*
X108680Y52039D01*
X108669Y52042D01*
X108658Y52044D01*
X108651D01*
X108632Y52042D01*
X108616Y52039D01*
X108601Y52033D01*
X108590Y52026D01*
X108580Y52018D01*
X108573Y52013D01*
X108569Y52009D01*
X108567Y52007D01*
X108556Y51992D01*
X108549Y51976D01*
X108541Y51959D01*
X108538Y51944D01*
X108536Y51930D01*
X108534Y51918D01*
Y51911D01*
Y51907D01*
X108536Y51880D01*
X108541Y51855D01*
X108549Y51835D01*
X108556Y51818D01*
X108564Y51805D01*
X108571Y51794D01*
X108577Y51789D01*
X108579Y51787D01*
X108597Y51774D01*
X108616Y51763D01*
X108636Y51757D01*
X108656Y51752D01*
X108673Y51750D01*
X108688Y51748D01*
X108701D01*
X108721Y51552D01*
X108703Y51557D01*
X108686Y51563D01*
X108669Y51567D01*
X108656Y51568D01*
X108647Y51570D01*
X108632D01*
X108612Y51568D01*
X108593Y51563D01*
X108577Y51554D01*
X108562Y51544D01*
X108551Y51533D01*
X108541Y51526D01*
X108536Y51518D01*
X108534Y51517D01*
X108521Y51496D01*
X108510Y51472D01*
X108503Y51448D01*
X108499Y51426D01*
X108495Y51405D01*
X108493Y51389D01*
Y51378D01*
Y51376D01*
Y51374D01*
X108495Y51339D01*
X108501Y51309D01*
X108506Y51281D01*
X108514Y51261D01*
X108523Y51243D01*
X108529Y51231D01*
X108534Y51222D01*
X108536Y51220D01*
X108553Y51202D01*
X108569Y51189D01*
X108588Y51180D01*
X108604Y51174D01*
X108617Y51170D01*
X108629Y51167D01*
X108640D01*
X108660Y51168D01*
X108678Y51174D01*
X108695Y51181D01*
X108708Y51191D01*
X108719Y51198D01*
X108728Y51206D01*
X108734Y51211D01*
X108736Y51213D01*
X108749Y51231D01*
X108760Y51254D01*
X108769Y51276D01*
X108775Y51298D01*
X108780Y51318D01*
X108782Y51333D01*
X108784Y51344D01*
Y51346D01*
Y51348D01*
X108975Y51320D01*
X108965Y51261D01*
X108953Y51211D01*
X108943Y51187D01*
X108934Y51167D01*
X108925Y51146D01*
X108916Y51130D01*
X108906Y51113D01*
X108897Y51100D01*
X108890Y51089D01*
X108882Y51078D01*
X108877Y51070D01*
X108871Y51065D01*
X108869Y51063D01*
X108867Y51061D01*
X108849Y51044D01*
X108830Y51030D01*
X108812Y51017D01*
X108791Y51007D01*
X108753Y50989D01*
X108717Y50978D01*
X108686Y50972D01*
X108671Y50970D01*
X108660Y50968D01*
X108651Y50967D01*
X108638D01*
X108612Y50968D01*
X108588Y50972D01*
X108564Y50978D01*
X108540Y50983D01*
X108499Y51002D01*
X108464Y51022D01*
X108434Y51043D01*
X108423Y51052D01*
X108414Y51061D01*
X108406Y51067D01*
X108399Y51072D01*
X108397Y51076D01*
X108395Y51078D01*
X108377Y51100D01*
X108360Y51122D01*
X108347Y51146D01*
X108336Y51170D01*
X108317Y51217D01*
X108304Y51261D01*
X108301Y51283D01*
X108297Y51302D01*
X108295Y51318D01*
X108293Y51333D01*
X108291Y51344D01*
Y51354D01*
Y51359D01*
Y51361D01*
X108293Y51404D01*
X108301Y51443D01*
X108308Y51476D01*
X108319Y51504D01*
X108329Y51526D01*
X108338Y51543D01*
X108345Y51554D01*
X108347Y51557D01*
X108369Y51585D01*
X108391Y51607D01*
X108414Y51624D01*
X108436Y51639D01*
X108456Y51648D01*
X108471Y51654D01*
X108482Y51657D01*
X108484Y51659D01*
X108486D01*
X108460Y51678D01*
X108438Y51698D01*
X108417Y51718D01*
X108403Y51735D01*
X108390Y51752D01*
X108382Y51763D01*
X108377Y51770D01*
X108375Y51774D01*
X108362Y51800D01*
X108353Y51826D01*
X108345Y51850D01*
X108341Y51874D01*
X108338Y51892D01*
X108336Y51909D01*
Y51918D01*
Y51922D01*
Y51944D01*
X108340Y51967D01*
X108349Y52007D01*
X108362Y52044D01*
X108377Y52078D01*
X108393Y52105D01*
X108401Y52117D01*
X108406Y52126D01*
X108412Y52133D01*
X108416Y52139D01*
X108417Y52141D01*
X108419Y52142D01*
X108436Y52161D01*
X108453Y52176D01*
X108471Y52189D01*
X108490Y52200D01*
X108527Y52218D01*
X108562Y52229D01*
X108595Y52237D01*
X108608Y52239D01*
X108619Y52241D01*
X108630Y52242D01*
X108666D01*
X108688Y52239D01*
D02*
G37*
G36*
X107890D02*
X107930Y52229D01*
X107967Y52217D01*
X107997Y52204D01*
X108021Y52189D01*
X108040Y52176D01*
X108051Y52167D01*
X108053Y52165D01*
X108054Y52163D01*
X108069Y52148D01*
X108082Y52129D01*
X108106Y52091D01*
X108125Y52050D01*
X108140Y52009D01*
X108151Y51972D01*
X108154Y51957D01*
X108158Y51942D01*
X108160Y51931D01*
X108162Y51922D01*
X108164Y51917D01*
Y51915D01*
X107982Y51878D01*
X107979Y51907D01*
X107973Y51931D01*
X107966Y51954D01*
X107958Y51970D01*
X107951Y51983D01*
X107945Y51994D01*
X107942Y52000D01*
X107940Y52002D01*
X107925Y52017D01*
X107910Y52026D01*
X107895Y52033D01*
X107882Y52039D01*
X107871Y52042D01*
X107860Y52044D01*
X107853D01*
X107834Y52042D01*
X107817Y52039D01*
X107803Y52033D01*
X107792Y52026D01*
X107782Y52018D01*
X107775Y52013D01*
X107771Y52009D01*
X107769Y52007D01*
X107758Y51992D01*
X107751Y51976D01*
X107743Y51959D01*
X107740Y51944D01*
X107738Y51930D01*
X107736Y51918D01*
Y51911D01*
Y51907D01*
X107738Y51880D01*
X107743Y51855D01*
X107751Y51835D01*
X107758Y51818D01*
X107766Y51805D01*
X107773Y51794D01*
X107779Y51789D01*
X107780Y51787D01*
X107799Y51774D01*
X107817Y51763D01*
X107838Y51757D01*
X107858Y51752D01*
X107875Y51750D01*
X107890Y51748D01*
X107903D01*
X107923Y51552D01*
X107905Y51557D01*
X107888Y51563D01*
X107871Y51567D01*
X107858Y51568D01*
X107849Y51570D01*
X107834D01*
X107814Y51568D01*
X107795Y51563D01*
X107779Y51554D01*
X107764Y51544D01*
X107753Y51533D01*
X107743Y51526D01*
X107738Y51518D01*
X107736Y51517D01*
X107723Y51496D01*
X107712Y51472D01*
X107705Y51448D01*
X107701Y51426D01*
X107697Y51405D01*
X107695Y51389D01*
Y51378D01*
Y51376D01*
Y51374D01*
X107697Y51339D01*
X107703Y51309D01*
X107708Y51281D01*
X107716Y51261D01*
X107725Y51243D01*
X107730Y51231D01*
X107736Y51222D01*
X107738Y51220D01*
X107755Y51202D01*
X107771Y51189D01*
X107790Y51180D01*
X107806Y51174D01*
X107819Y51170D01*
X107830Y51167D01*
X107842D01*
X107862Y51168D01*
X107880Y51174D01*
X107897Y51181D01*
X107910Y51191D01*
X107921Y51198D01*
X107930Y51206D01*
X107936Y51211D01*
X107938Y51213D01*
X107951Y51231D01*
X107962Y51254D01*
X107971Y51276D01*
X107977Y51298D01*
X107982Y51318D01*
X107984Y51333D01*
X107986Y51344D01*
Y51346D01*
Y51348D01*
X108177Y51320D01*
X108167Y51261D01*
X108154Y51211D01*
X108145Y51187D01*
X108136Y51167D01*
X108127Y51146D01*
X108117Y51130D01*
X108108Y51113D01*
X108099Y51100D01*
X108092Y51089D01*
X108084Y51078D01*
X108079Y51070D01*
X108073Y51065D01*
X108071Y51063D01*
X108069Y51061D01*
X108051Y51044D01*
X108032Y51030D01*
X108014Y51017D01*
X107993Y51007D01*
X107954Y50989D01*
X107919Y50978D01*
X107888Y50972D01*
X107873Y50970D01*
X107862Y50968D01*
X107853Y50967D01*
X107840D01*
X107814Y50968D01*
X107790Y50972D01*
X107766Y50978D01*
X107742Y50983D01*
X107701Y51002D01*
X107666Y51022D01*
X107636Y51043D01*
X107625Y51052D01*
X107616Y51061D01*
X107608Y51067D01*
X107601Y51072D01*
X107599Y51076D01*
X107597Y51078D01*
X107579Y51100D01*
X107562Y51122D01*
X107549Y51146D01*
X107538Y51170D01*
X107519Y51217D01*
X107506Y51261D01*
X107503Y51283D01*
X107499Y51302D01*
X107497Y51318D01*
X107495Y51333D01*
X107493Y51344D01*
Y51354D01*
Y51359D01*
Y51361D01*
X107495Y51404D01*
X107503Y51443D01*
X107510Y51476D01*
X107521Y51504D01*
X107530Y51526D01*
X107540Y51543D01*
X107547Y51554D01*
X107549Y51557D01*
X107571Y51585D01*
X107593Y51607D01*
X107616Y51624D01*
X107638Y51639D01*
X107658Y51648D01*
X107673Y51654D01*
X107684Y51657D01*
X107686Y51659D01*
X107688D01*
X107662Y51678D01*
X107640Y51698D01*
X107619Y51718D01*
X107605Y51735D01*
X107592Y51752D01*
X107584Y51763D01*
X107579Y51770D01*
X107577Y51774D01*
X107564Y51800D01*
X107555Y51826D01*
X107547Y51850D01*
X107543Y51874D01*
X107540Y51892D01*
X107538Y51909D01*
Y51918D01*
Y51922D01*
Y51944D01*
X107542Y51967D01*
X107551Y52007D01*
X107564Y52044D01*
X107579Y52078D01*
X107595Y52105D01*
X107603Y52117D01*
X107608Y52126D01*
X107614Y52133D01*
X107617Y52139D01*
X107619Y52141D01*
X107621Y52142D01*
X107638Y52161D01*
X107655Y52176D01*
X107673Y52189D01*
X107692Y52200D01*
X107729Y52218D01*
X107764Y52229D01*
X107797Y52237D01*
X107810Y52239D01*
X107821Y52241D01*
X107832Y52242D01*
X107867D01*
X107890Y52239D01*
D02*
G37*
G36*
X107092Y52239D02*
X107132Y52229D01*
X107169Y52217D01*
X107199Y52204D01*
X107223Y52189D01*
X107242Y52176D01*
X107253Y52167D01*
X107255Y52165D01*
X107256Y52163D01*
X107271Y52148D01*
X107284Y52129D01*
X107308Y52091D01*
X107327Y52050D01*
X107342Y52009D01*
X107353Y51972D01*
X107356Y51957D01*
X107360Y51942D01*
X107362Y51931D01*
X107364Y51922D01*
X107366Y51917D01*
Y51915D01*
X107184Y51878D01*
X107180Y51907D01*
X107175Y51931D01*
X107168Y51954D01*
X107160Y51970D01*
X107153Y51983D01*
X107147Y51994D01*
X107143Y52000D01*
X107142Y52002D01*
X107127Y52017D01*
X107112Y52026D01*
X107097Y52033D01*
X107084Y52039D01*
X107073Y52042D01*
X107062Y52044D01*
X107055D01*
X107036Y52042D01*
X107019Y52039D01*
X107005Y52033D01*
X106993Y52026D01*
X106984Y52018D01*
X106977Y52013D01*
X106973Y52009D01*
X106971Y52007D01*
X106960Y51992D01*
X106953Y51976D01*
X106945Y51959D01*
X106942Y51944D01*
X106940Y51930D01*
X106938Y51918D01*
Y51911D01*
Y51907D01*
X106940Y51880D01*
X106945Y51855D01*
X106953Y51835D01*
X106960Y51818D01*
X106968Y51805D01*
X106975Y51794D01*
X106981Y51789D01*
X106982Y51787D01*
X107001Y51774D01*
X107019Y51763D01*
X107040Y51757D01*
X107060Y51752D01*
X107077Y51750D01*
X107092Y51748D01*
X107105D01*
X107125Y51552D01*
X107106Y51557D01*
X107090Y51563D01*
X107073Y51567D01*
X107060Y51568D01*
X107051Y51570D01*
X107036D01*
X107016Y51568D01*
X106997Y51563D01*
X106981Y51554D01*
X106966Y51544D01*
X106955Y51533D01*
X106945Y51526D01*
X106940Y51518D01*
X106938Y51517D01*
X106925Y51496D01*
X106914Y51472D01*
X106906Y51448D01*
X106903Y51426D01*
X106899Y51405D01*
X106897Y51389D01*
Y51378D01*
Y51376D01*
Y51374D01*
X106899Y51339D01*
X106905Y51309D01*
X106910Y51281D01*
X106918Y51261D01*
X106927Y51243D01*
X106932Y51231D01*
X106938Y51222D01*
X106940Y51220D01*
X106956Y51202D01*
X106973Y51189D01*
X106992Y51180D01*
X107008Y51174D01*
X107021Y51170D01*
X107032Y51167D01*
X107043D01*
X107064Y51168D01*
X107082Y51174D01*
X107099Y51181D01*
X107112Y51191D01*
X107123Y51198D01*
X107132Y51206D01*
X107138Y51211D01*
X107140Y51213D01*
X107153Y51231D01*
X107164Y51254D01*
X107173Y51276D01*
X107179Y51298D01*
X107184Y51318D01*
X107186Y51333D01*
X107188Y51344D01*
Y51346D01*
Y51348D01*
X107379Y51320D01*
X107369Y51261D01*
X107356Y51211D01*
X107347Y51187D01*
X107338Y51167D01*
X107329Y51146D01*
X107319Y51130D01*
X107310Y51113D01*
X107301Y51100D01*
X107293Y51089D01*
X107286Y51078D01*
X107280Y51070D01*
X107275Y51065D01*
X107273Y51063D01*
X107271Y51061D01*
X107253Y51044D01*
X107234Y51030D01*
X107216Y51017D01*
X107195Y51007D01*
X107156Y50989D01*
X107121Y50978D01*
X107090Y50972D01*
X107075Y50970D01*
X107064Y50968D01*
X107055Y50967D01*
X107042D01*
X107016Y50968D01*
X106992Y50972D01*
X106968Y50978D01*
X106943Y50983D01*
X106903Y51002D01*
X106868Y51022D01*
X106838Y51043D01*
X106827Y51052D01*
X106818Y51061D01*
X106810Y51067D01*
X106803Y51072D01*
X106801Y51076D01*
X106799Y51078D01*
X106781Y51100D01*
X106764Y51122D01*
X106751Y51146D01*
X106740Y51170D01*
X106721Y51217D01*
X106708Y51261D01*
X106705Y51283D01*
X106701Y51302D01*
X106699Y51318D01*
X106697Y51333D01*
X106695Y51344D01*
Y51354D01*
Y51359D01*
Y51361D01*
X106697Y51404D01*
X106705Y51443D01*
X106712Y51476D01*
X106723Y51504D01*
X106732Y51526D01*
X106742Y51543D01*
X106749Y51554D01*
X106751Y51557D01*
X106773Y51585D01*
X106795Y51607D01*
X106818Y51624D01*
X106840Y51639D01*
X106860Y51648D01*
X106875Y51654D01*
X106886Y51657D01*
X106888Y51659D01*
X106890D01*
X106864Y51678D01*
X106842Y51698D01*
X106821Y51718D01*
X106806Y51735D01*
X106794Y51752D01*
X106786Y51763D01*
X106781Y51770D01*
X106779Y51774D01*
X106766Y51800D01*
X106756Y51826D01*
X106749Y51850D01*
X106745Y51874D01*
X106742Y51892D01*
X106740Y51909D01*
Y51918D01*
Y51922D01*
Y51944D01*
X106744Y51967D01*
X106753Y52007D01*
X106766Y52044D01*
X106781Y52078D01*
X106797Y52105D01*
X106805Y52117D01*
X106810Y52126D01*
X106816Y52133D01*
X106819Y52139D01*
X106821Y52141D01*
X106823Y52142D01*
X106840Y52161D01*
X106856Y52176D01*
X106875Y52189D01*
X106893Y52200D01*
X106931Y52218D01*
X106966Y52229D01*
X106999Y52237D01*
X107012Y52239D01*
X107023Y52241D01*
X107034Y52242D01*
X107069D01*
X107092Y52239D01*
D02*
G37*
G36*
X105749Y51570D02*
X105590Y51543D01*
X105577Y51559D01*
X105564Y51572D01*
X105551Y51585D01*
X105538Y51594D01*
X105512Y51611D01*
X105488Y51622D01*
X105468Y51628D01*
X105453Y51631D01*
X105442Y51633D01*
X105438D01*
X105414Y51631D01*
X105394Y51624D01*
X105373Y51615D01*
X105358Y51605D01*
X105346Y51594D01*
X105336Y51585D01*
X105331Y51578D01*
X105329Y51576D01*
X105314Y51552D01*
X105303Y51526D01*
X105296Y51496D01*
X105290Y51468D01*
X105286Y51443D01*
X105284Y51422D01*
Y51413D01*
Y51407D01*
Y51404D01*
Y51402D01*
X105286Y51359D01*
X105292Y51320D01*
X105299Y51289D01*
X105307Y51263D01*
X105314Y51244D01*
X105321Y51230D01*
X105327Y51222D01*
X105329Y51218D01*
X105346Y51198D01*
X105362Y51185D01*
X105381Y51174D01*
X105397Y51167D01*
X105410Y51163D01*
X105421Y51161D01*
X105431Y51159D01*
X105433D01*
X105451Y51161D01*
X105468Y51167D01*
X105484Y51174D01*
X105497Y51183D01*
X105508Y51191D01*
X105518Y51198D01*
X105523Y51204D01*
X105525Y51206D01*
X105540Y51224D01*
X105551Y51246D01*
X105560Y51267D01*
X105566Y51287D01*
X105570Y51306D01*
X105573Y51322D01*
X105575Y51331D01*
Y51335D01*
X105771Y51309D01*
X105762Y51252D01*
X105755Y51224D01*
X105747Y51200D01*
X105738Y51178D01*
X105729Y51157D01*
X105720Y51137D01*
X105710Y51120D01*
X105701Y51106D01*
X105692Y51093D01*
X105684Y51081D01*
X105677Y51072D01*
X105671Y51065D01*
X105666Y51059D01*
X105664Y51057D01*
X105662Y51056D01*
X105644Y51041D01*
X105625Y51026D01*
X105588Y51004D01*
X105549Y50989D01*
X105514Y50978D01*
X105483Y50972D01*
X105468Y50968D01*
X105457D01*
X105447Y50967D01*
X105434D01*
X105403Y50968D01*
X105375Y50972D01*
X105347Y50980D01*
X105323Y50989D01*
X105299Y50998D01*
X105279Y51009D01*
X105258Y51022D01*
X105242Y51035D01*
X105227Y51048D01*
X105212Y51061D01*
X105201Y51072D01*
X105192Y51081D01*
X105184Y51091D01*
X105179Y51098D01*
X105177Y51102D01*
X105175Y51104D01*
X105158Y51130D01*
X105144Y51157D01*
X105133Y51183D01*
X105121Y51209D01*
X105105Y51261D01*
X105094Y51307D01*
X105090Y51330D01*
X105088Y51348D01*
X105084Y51365D01*
Y51380D01*
X105083Y51391D01*
Y51400D01*
Y51405D01*
Y51407D01*
X105084Y51444D01*
X105086Y51480D01*
X105092Y51511D01*
X105099Y51543D01*
X105107Y51570D01*
X105116Y51598D01*
X105127Y51622D01*
X105136Y51644D01*
X105146Y51663D01*
X105157Y51680D01*
X105166Y51694D01*
X105173Y51707D01*
X105181Y51717D01*
X105184Y51724D01*
X105188Y51728D01*
X105190Y51730D01*
X105207Y51746D01*
X105223Y51761D01*
X105240Y51774D01*
X105258Y51785D01*
X105294Y51802D01*
X105325Y51815D01*
X105355Y51820D01*
X105366Y51822D01*
X105377Y51824D01*
X105386Y51826D01*
X105397D01*
X105423Y51824D01*
X105447Y51818D01*
X105470Y51813D01*
X105490Y51805D01*
X105508Y51796D01*
X105521Y51791D01*
X105529Y51785D01*
X105533Y51783D01*
X105499Y51998D01*
X105129D01*
Y52222D01*
X105649D01*
X105749Y51570D01*
D02*
G37*
G36*
X101361D02*
X101201Y51543D01*
X101189Y51559D01*
X101176Y51572D01*
X101163Y51585D01*
X101150Y51594D01*
X101124Y51611D01*
X101100Y51622D01*
X101079Y51628D01*
X101064Y51631D01*
X101053Y51633D01*
X101050D01*
X101026Y51631D01*
X101005Y51624D01*
X100985Y51615D01*
X100970Y51605D01*
X100957Y51594D01*
X100948Y51585D01*
X100942Y51578D01*
X100940Y51576D01*
X100926Y51552D01*
X100914Y51526D01*
X100907Y51496D01*
X100902Y51468D01*
X100898Y51443D01*
X100896Y51422D01*
Y51413D01*
Y51407D01*
Y51404D01*
Y51402D01*
X100898Y51359D01*
X100903Y51320D01*
X100911Y51289D01*
X100918Y51263D01*
X100926Y51244D01*
X100933Y51230D01*
X100939Y51222D01*
X100940Y51218D01*
X100957Y51198D01*
X100974Y51185D01*
X100992Y51174D01*
X101009Y51167D01*
X101022Y51163D01*
X101033Y51161D01*
X101042Y51159D01*
X101044D01*
X101063Y51161D01*
X101079Y51167D01*
X101096Y51174D01*
X101109Y51183D01*
X101120Y51191D01*
X101129Y51198D01*
X101135Y51204D01*
X101137Y51206D01*
X101151Y51224D01*
X101163Y51246D01*
X101172Y51267D01*
X101177Y51287D01*
X101181Y51306D01*
X101185Y51322D01*
X101187Y51331D01*
Y51335D01*
X101383Y51309D01*
X101374Y51252D01*
X101366Y51224D01*
X101359Y51200D01*
X101350Y51178D01*
X101340Y51157D01*
X101331Y51137D01*
X101322Y51120D01*
X101313Y51106D01*
X101303Y51093D01*
X101296Y51081D01*
X101289Y51072D01*
X101283Y51065D01*
X101277Y51059D01*
X101276Y51057D01*
X101274Y51056D01*
X101255Y51041D01*
X101237Y51026D01*
X101200Y51004D01*
X101161Y50989D01*
X101126Y50978D01*
X101094Y50972D01*
X101079Y50968D01*
X101068D01*
X101059Y50967D01*
X101046D01*
X101014Y50968D01*
X100987Y50972D01*
X100959Y50980D01*
X100935Y50989D01*
X100911Y50998D01*
X100890Y51009D01*
X100870Y51022D01*
X100853Y51035D01*
X100839Y51048D01*
X100824Y51061D01*
X100813Y51072D01*
X100803Y51081D01*
X100796Y51091D01*
X100790Y51098D01*
X100789Y51102D01*
X100787Y51104D01*
X100770Y51130D01*
X100755Y51157D01*
X100744Y51183D01*
X100733Y51209D01*
X100716Y51261D01*
X100705Y51307D01*
X100702Y51330D01*
X100700Y51348D01*
X100696Y51365D01*
Y51380D01*
X100694Y51391D01*
Y51400D01*
Y51405D01*
Y51407D01*
X100696Y51444D01*
X100698Y51480D01*
X100703Y51511D01*
X100711Y51543D01*
X100718Y51570D01*
X100727Y51598D01*
X100739Y51622D01*
X100748Y51644D01*
X100757Y51663D01*
X100768Y51680D01*
X100777Y51694D01*
X100785Y51707D01*
X100792Y51717D01*
X100796Y51724D01*
X100800Y51728D01*
X100802Y51730D01*
X100818Y51746D01*
X100835Y51761D01*
X100852Y51774D01*
X100870Y51785D01*
X100905Y51802D01*
X100937Y51815D01*
X100966Y51820D01*
X100977Y51822D01*
X100989Y51824D01*
X100998Y51826D01*
X101009D01*
X101035Y51824D01*
X101059Y51818D01*
X101081Y51813D01*
X101102Y51805D01*
X101120Y51796D01*
X101133Y51791D01*
X101140Y51785D01*
X101144Y51783D01*
X101111Y51998D01*
X100740D01*
Y52222D01*
X101261D01*
X101361Y51570D01*
D02*
G37*
G36*
X106244Y52202D02*
X106262Y52165D01*
X106282Y52131D01*
X106303Y52104D01*
X106321Y52079D01*
X106336Y52061D01*
X106347Y52050D01*
X106349Y52048D01*
X106351Y52046D01*
X106384Y52017D01*
X106416Y51992D01*
X106444Y51972D01*
X106469Y51955D01*
X106492Y51944D01*
X106507Y51935D01*
X106518Y51931D01*
X106519Y51930D01*
X106521D01*
Y51711D01*
X106469Y51735D01*
X106419Y51763D01*
X106377Y51794D01*
X106340Y51824D01*
X106323Y51837D01*
X106308Y51850D01*
X106295Y51863D01*
X106286Y51872D01*
X106277Y51881D01*
X106271Y51887D01*
X106268Y51891D01*
X106266Y51892D01*
Y50987D01*
X106068D01*
Y52242D01*
X106229D01*
X106244Y52202D01*
D02*
G37*
G36*
X103835Y52241D02*
X103864Y52237D01*
X103890Y52228D01*
X103916Y52218D01*
X103962Y52194D01*
X103983Y52181D01*
X104001Y52167D01*
X104018Y52152D01*
X104033Y52139D01*
X104046Y52126D01*
X104057Y52115D01*
X104064Y52105D01*
X104070Y52098D01*
X104073Y52092D01*
X104075Y52091D01*
X104094Y52061D01*
X104109Y52026D01*
X104123Y51989D01*
X104135Y51950D01*
X104153Y51868D01*
X104166Y51787D01*
X104170Y51748D01*
X104173Y51713D01*
X104175Y51681D01*
X104177Y51652D01*
X104179Y51630D01*
Y51611D01*
Y51600D01*
Y51598D01*
Y51596D01*
X104177Y51535D01*
X104175Y51478D01*
X104170Y51426D01*
X104164Y51378D01*
X104155Y51333D01*
X104147Y51294D01*
X104138Y51257D01*
X104129Y51226D01*
X104120Y51198D01*
X104110Y51176D01*
X104101Y51156D01*
X104094Y51139D01*
X104088Y51128D01*
X104083Y51118D01*
X104081Y51113D01*
X104079Y51111D01*
X104059Y51085D01*
X104038Y51063D01*
X104018Y51044D01*
X103996Y51028D01*
X103975Y51013D01*
X103953Y51002D01*
X103933Y50993D01*
X103912Y50985D01*
X103877Y50974D01*
X103862Y50970D01*
X103849Y50968D01*
X103838D01*
X103831Y50967D01*
X103823D01*
X103798Y50968D01*
X103773Y50972D01*
X103749Y50978D01*
X103727Y50983D01*
X103686Y51002D01*
X103653Y51022D01*
X103625Y51043D01*
X103614Y51052D01*
X103605Y51061D01*
X103598Y51067D01*
X103592Y51072D01*
X103590Y51076D01*
X103588Y51078D01*
X103572Y51100D01*
X103557Y51124D01*
X103544Y51148D01*
X103533Y51174D01*
X103516Y51226D01*
X103503Y51274D01*
X103499Y51298D01*
X103498Y51318D01*
X103496Y51339D01*
X103494Y51355D01*
X103492Y51368D01*
Y51378D01*
Y51385D01*
Y51387D01*
X103494Y51420D01*
X103496Y51454D01*
X103499Y51483D01*
X103507Y51513D01*
X103512Y51539D01*
X103520Y51563D01*
X103529Y51585D01*
X103536Y51605D01*
X103546Y51624D01*
X103553Y51641D01*
X103562Y51654D01*
X103568Y51665D01*
X103573Y51674D01*
X103579Y51680D01*
X103581Y51683D01*
X103583Y51685D01*
X103599Y51705D01*
X103618Y51722D01*
X103635Y51737D01*
X103653Y51750D01*
X103670Y51761D01*
X103688Y51770D01*
X103720Y51783D01*
X103749Y51792D01*
X103760Y51794D01*
X103772Y51796D01*
X103781Y51798D01*
X103792D01*
X103812Y51796D01*
X103831Y51794D01*
X103849Y51789D01*
X103864Y51785D01*
X103875Y51780D01*
X103886Y51774D01*
X103892Y51772D01*
X103894Y51770D01*
X103910Y51759D01*
X103925Y51746D01*
X103938Y51733D01*
X103951Y51720D01*
X103960Y51709D01*
X103968Y51700D01*
X103973Y51693D01*
X103975Y51691D01*
X103973Y51730D01*
X103970Y51765D01*
X103966Y51796D01*
X103962Y51824D01*
X103959Y51850D01*
X103953Y51874D01*
X103949Y51894D01*
X103944Y51913D01*
X103940Y51928D01*
X103936Y51941D01*
X103931Y51952D01*
X103929Y51959D01*
X103925Y51967D01*
X103923Y51970D01*
X103922Y51974D01*
X103905Y51998D01*
X103886Y52015D01*
X103870Y52028D01*
X103853Y52035D01*
X103838Y52041D01*
X103827Y52042D01*
X103818Y52044D01*
X103816D01*
X103799Y52042D01*
X103783Y52039D01*
X103770Y52031D01*
X103757Y52022D01*
X103736Y52000D01*
X103723Y51976D01*
X103712Y51950D01*
X103707Y51928D01*
X103705Y51918D01*
X103703Y51911D01*
Y51907D01*
Y51905D01*
X103512Y51931D01*
X103523Y51987D01*
X103536Y52033D01*
X103553Y52074D01*
X103570Y52107D01*
X103586Y52131D01*
X103599Y52150D01*
X103609Y52161D01*
X103612Y52165D01*
X103642Y52191D01*
X103675Y52209D01*
X103707Y52224D01*
X103738Y52233D01*
X103764Y52239D01*
X103786Y52241D01*
X103794Y52242D01*
X103805D01*
X103835Y52241D01*
D02*
G37*
G36*
X109941Y51339D02*
X109952Y51302D01*
X109964Y51272D01*
X109973Y51250D01*
X109982Y51231D01*
X109991Y51217D01*
X109997Y51209D01*
X110001Y51204D01*
X110002Y51202D01*
X110015Y51193D01*
X110032Y51185D01*
X110049Y51180D01*
X110065Y51176D01*
X110082Y51174D01*
X110095Y51172D01*
X110130D01*
X110156Y51174D01*
X110184D01*
Y50987D01*
X110136Y50978D01*
X110112Y50976D01*
X110089Y50974D01*
X110069Y50972D01*
X110041D01*
X110010Y50976D01*
X109982Y50983D01*
X109958Y50994D01*
X109938Y51007D01*
X109921Y51020D01*
X109908Y51031D01*
X109899Y51039D01*
X109897Y51043D01*
X109886Y51057D01*
X109875Y51074D01*
X109852Y51111D01*
X109832Y51150D01*
X109812Y51191D01*
X109797Y51228D01*
X109789Y51244D01*
X109784Y51259D01*
X109778Y51270D01*
X109777Y51280D01*
X109773Y51285D01*
Y51287D01*
X109427Y52239D01*
X109641D01*
X109849Y51589D01*
X110088Y52239D01*
X110319D01*
X109941Y51339D01*
D02*
G37*
G36*
X113945Y52257D02*
X113982Y52252D01*
X114015Y52244D01*
X114048Y52235D01*
X114078Y52222D01*
X114106Y52209D01*
X114132Y52194D01*
X114154Y52181D01*
X114174Y52167D01*
X114193Y52152D01*
X114208Y52139D01*
X114221Y52126D01*
X114230Y52117D01*
X114237Y52109D01*
X114241Y52104D01*
X114243Y52102D01*
X114269Y52067D01*
X114291Y52028D01*
X114309Y51989D01*
X114326Y51948D01*
X114341Y51905D01*
X114352Y51865D01*
X114361Y51824D01*
X114369Y51783D01*
X114374Y51746D01*
X114380Y51713D01*
X114383Y51681D01*
X114385Y51654D01*
Y51633D01*
X114387Y51617D01*
Y51605D01*
Y51604D01*
Y51602D01*
X114385Y51546D01*
X114382Y51494D01*
X114374Y51444D01*
X114365Y51398D01*
X114354Y51355D01*
X114343Y51317D01*
X114330Y51280D01*
X114315Y51248D01*
X114302Y51218D01*
X114289Y51193D01*
X114278Y51170D01*
X114267Y51154D01*
X114258Y51139D01*
X114250Y51128D01*
X114246Y51122D01*
X114245Y51120D01*
X114221Y51093D01*
X114195Y51070D01*
X114169Y51050D01*
X114141Y51031D01*
X114113Y51017D01*
X114087Y51004D01*
X114061Y50994D01*
X114035Y50985D01*
X114011Y50980D01*
X113989Y50974D01*
X113969Y50972D01*
X113952Y50968D01*
X113937D01*
X113928Y50967D01*
X113919D01*
X113889Y50968D01*
X113861Y50970D01*
X113809Y50981D01*
X113763Y50996D01*
X113743Y51006D01*
X113724Y51015D01*
X113708Y51024D01*
X113693Y51033D01*
X113680Y51041D01*
X113671Y51048D01*
X113661Y51054D01*
X113656Y51059D01*
X113652Y51061D01*
X113650Y51063D01*
X113630Y51083D01*
X113611Y51104D01*
X113580Y51152D01*
X113552Y51204D01*
X113530Y51254D01*
X113521Y51278D01*
X113513Y51300D01*
X113508Y51320D01*
X113502Y51337D01*
X113498Y51352D01*
X113495Y51363D01*
X113493Y51370D01*
Y51372D01*
X113695Y51450D01*
X113706Y51400D01*
X113721Y51359D01*
X113734Y51324D01*
X113748Y51296D01*
X113761Y51274D01*
X113772Y51259D01*
X113780Y51250D01*
X113782Y51246D01*
X113804Y51226D01*
X113828Y51209D01*
X113852Y51198D01*
X113874Y51191D01*
X113893Y51187D01*
X113909Y51185D01*
X113919Y51183D01*
X113922D01*
X113943Y51185D01*
X113961Y51187D01*
X113998Y51198D01*
X114028Y51215D01*
X114054Y51233D01*
X114076Y51250D01*
X114091Y51267D01*
X114100Y51278D01*
X114104Y51280D01*
Y51281D01*
X114115Y51302D01*
X114126Y51324D01*
X114135Y51350D01*
X114143Y51376D01*
X114156Y51431D01*
X114163Y51487D01*
X114167Y51513D01*
X114169Y51537D01*
X114171Y51559D01*
Y51578D01*
X114172Y51594D01*
Y51605D01*
Y51615D01*
Y51617D01*
Y51657D01*
X114169Y51696D01*
X114165Y51731D01*
X114161Y51763D01*
X114156Y51792D01*
X114150Y51820D01*
X114145Y51844D01*
X114137Y51865D01*
X114130Y51883D01*
X114124Y51900D01*
X114119Y51913D01*
X114113Y51924D01*
X114108Y51931D01*
X114106Y51939D01*
X114102Y51941D01*
Y51942D01*
X114087Y51961D01*
X114072Y51976D01*
X114058Y51989D01*
X114043Y52000D01*
X114011Y52018D01*
X113982Y52029D01*
X113956Y52037D01*
X113935Y52041D01*
X113928Y52042D01*
X113917D01*
X113887Y52041D01*
X113861Y52033D01*
X113839Y52026D01*
X113819Y52015D01*
X113802Y52005D01*
X113789Y51996D01*
X113782Y51989D01*
X113780Y51987D01*
X113759Y51965D01*
X113743Y51941D01*
X113728Y51915D01*
X113717Y51889D01*
X113709Y51867D01*
X113704Y51848D01*
X113702Y51841D01*
Y51835D01*
X113700Y51833D01*
Y51831D01*
X113495Y51891D01*
X113502Y51920D01*
X113511Y51948D01*
X113521Y51974D01*
X113530Y52000D01*
X113541Y52022D01*
X113550Y52042D01*
X113561Y52059D01*
X113571Y52076D01*
X113580Y52091D01*
X113589Y52104D01*
X113596Y52115D01*
X113604Y52124D01*
X113609Y52129D01*
X113613Y52135D01*
X113615Y52139D01*
X113617D01*
X113639Y52159D01*
X113663Y52178D01*
X113687Y52194D01*
X113711Y52209D01*
X113735Y52220D01*
X113759Y52229D01*
X113806Y52244D01*
X113826Y52250D01*
X113845Y52254D01*
X113861Y52255D01*
X113876Y52257D01*
X113889Y52259D01*
X113906D01*
X113945Y52257D01*
D02*
G37*
G36*
X113313Y50987D02*
X113106D01*
Y52028D01*
X112700D01*
Y50987D01*
X112493D01*
Y52239D01*
X113313D01*
Y50987D01*
D02*
G37*
G36*
X112274D02*
X111774D01*
X111739Y50989D01*
X111706Y50993D01*
X111676Y50998D01*
X111649Y51006D01*
X111624Y51013D01*
X111602Y51022D01*
X111582Y51033D01*
X111563Y51044D01*
X111549Y51054D01*
X111534Y51065D01*
X111523Y51074D01*
X111513Y51083D01*
X111508Y51089D01*
X111502Y51094D01*
X111499Y51098D01*
Y51100D01*
X111484Y51122D01*
X111471Y51144D01*
X111452Y51189D01*
X111437Y51231D01*
X111426Y51272D01*
X111425Y51291D01*
X111421Y51309D01*
X111419Y51324D01*
Y51337D01*
X111417Y51346D01*
Y51354D01*
Y51359D01*
Y51361D01*
X111419Y51393D01*
X111421Y51422D01*
X111432Y51478D01*
X111439Y51502D01*
X111447Y51524D01*
X111456Y51544D01*
X111465Y51563D01*
X111475Y51580D01*
X111484Y51594D01*
X111491Y51607D01*
X111499Y51618D01*
X111504Y51626D01*
X111510Y51631D01*
X111512Y51635D01*
X111513Y51637D01*
X111532Y51655D01*
X111552Y51672D01*
X111573Y51685D01*
X111595Y51696D01*
X111637Y51715D01*
X111680Y51728D01*
X111717Y51735D01*
X111734Y51737D01*
X111747Y51739D01*
X111758Y51741D01*
X112067D01*
Y52028D01*
X111506D01*
Y52239D01*
X112274D01*
Y50987D01*
D02*
G37*
G36*
X111247D02*
X111039D01*
Y52028D01*
X110634D01*
Y50987D01*
X110426D01*
Y52239D01*
X111247D01*
Y50987D01*
D02*
G37*
G36*
X109325D02*
X109128D01*
Y51228D01*
X109325D01*
Y50987D01*
D02*
G37*
G36*
X103340Y50987D02*
X103144D01*
Y51228D01*
X103340D01*
Y50987D01*
D02*
G37*
G36*
X104673Y52241D02*
X104699Y52237D01*
X104723Y52229D01*
X104746Y52220D01*
X104786Y52198D01*
X104821Y52172D01*
X104849Y52144D01*
X104860Y52133D01*
X104870Y52122D01*
X104877Y52113D01*
X104883Y52105D01*
X104884Y52102D01*
X104886Y52100D01*
X104903Y52070D01*
X104916Y52037D01*
X104929Y52002D01*
X104938Y51963D01*
X104955Y51881D01*
X104966Y51800D01*
X104970Y51761D01*
X104971Y51724D01*
X104973Y51691D01*
X104975Y51663D01*
X104977Y51639D01*
Y51620D01*
Y51615D01*
Y51609D01*
Y51607D01*
Y51605D01*
X104975Y51541D01*
X104973Y51481D01*
X104968Y51426D01*
X104962Y51376D01*
X104957Y51330D01*
X104947Y51289D01*
X104940Y51254D01*
X104931Y51220D01*
X104923Y51193D01*
X104914Y51168D01*
X104907Y51150D01*
X104901Y51133D01*
X104894Y51120D01*
X104890Y51113D01*
X104888Y51107D01*
X104886Y51106D01*
X104868Y51081D01*
X104849Y51059D01*
X104829Y51041D01*
X104809Y51026D01*
X104788Y51011D01*
X104770Y51000D01*
X104749Y50991D01*
X104731Y50983D01*
X104696Y50974D01*
X104681Y50970D01*
X104668Y50968D01*
X104659D01*
X104651Y50967D01*
X104644D01*
X104616Y50968D01*
X104590Y50972D01*
X104566Y50980D01*
X104544Y50989D01*
X104503Y51011D01*
X104468Y51037D01*
X104440Y51063D01*
X104429Y51074D01*
X104420Y51085D01*
X104412Y51094D01*
X104407Y51102D01*
X104405Y51106D01*
X104403Y51107D01*
X104386Y51137D01*
X104372Y51170D01*
X104360Y51206D01*
X104349Y51244D01*
X104333Y51328D01*
X104322Y51409D01*
X104318Y51448D01*
X104316Y51485D01*
X104312Y51517D01*
Y51546D01*
X104310Y51570D01*
Y51589D01*
Y51594D01*
Y51600D01*
Y51602D01*
Y51604D01*
X104312Y51668D01*
X104314Y51726D01*
X104320Y51781D01*
X104325Y51830D01*
X104333Y51876D01*
X104340Y51917D01*
X104347Y51952D01*
X104357Y51985D01*
X104366Y52013D01*
X104373Y52037D01*
X104381Y52055D01*
X104388Y52072D01*
X104394Y52085D01*
X104399Y52092D01*
X104401Y52098D01*
X104403Y52100D01*
X104422Y52126D01*
X104440Y52146D01*
X104460Y52167D01*
X104481Y52183D01*
X104501Y52196D01*
X104520Y52207D01*
X104540Y52217D01*
X104559Y52224D01*
X104594Y52235D01*
X104609Y52239D01*
X104622Y52241D01*
X104631Y52242D01*
X104646D01*
X104673Y52241D01*
D02*
G37*
G36*
X102679D02*
X102705Y52237D01*
X102729Y52229D01*
X102751Y52220D01*
X102792Y52198D01*
X102827Y52172D01*
X102855Y52144D01*
X102866Y52133D01*
X102875Y52122D01*
X102883Y52113D01*
X102888Y52105D01*
X102890Y52102D01*
X102892Y52100D01*
X102909Y52070D01*
X102922Y52037D01*
X102935Y52002D01*
X102944Y51963D01*
X102961Y51881D01*
X102972Y51800D01*
X102975Y51761D01*
X102977Y51724D01*
X102979Y51691D01*
X102981Y51663D01*
X102983Y51639D01*
Y51620D01*
Y51615D01*
Y51609D01*
Y51607D01*
Y51605D01*
X102981Y51541D01*
X102979Y51481D01*
X102974Y51426D01*
X102968Y51376D01*
X102962Y51330D01*
X102953Y51289D01*
X102946Y51254D01*
X102937Y51220D01*
X102929Y51193D01*
X102920Y51168D01*
X102912Y51150D01*
X102907Y51133D01*
X102899Y51120D01*
X102896Y51113D01*
X102894Y51107D01*
X102892Y51106D01*
X102874Y51081D01*
X102855Y51059D01*
X102835Y51041D01*
X102814Y51026D01*
X102794Y51011D01*
X102775Y51000D01*
X102755Y50991D01*
X102737Y50983D01*
X102701Y50974D01*
X102687Y50970D01*
X102674Y50968D01*
X102664D01*
X102657Y50967D01*
X102649D01*
X102622Y50968D01*
X102596Y50972D01*
X102572Y50980D01*
X102549Y50989D01*
X102509Y51011D01*
X102474Y51037D01*
X102446Y51063D01*
X102435Y51074D01*
X102425Y51085D01*
X102418Y51094D01*
X102412Y51102D01*
X102411Y51106D01*
X102409Y51107D01*
X102392Y51137D01*
X102377Y51170D01*
X102366Y51206D01*
X102355Y51244D01*
X102338Y51328D01*
X102327Y51409D01*
X102324Y51448D01*
X102322Y51485D01*
X102318Y51517D01*
Y51546D01*
X102316Y51570D01*
Y51589D01*
Y51594D01*
Y51600D01*
Y51602D01*
Y51604D01*
X102318Y51668D01*
X102320Y51726D01*
X102325Y51781D01*
X102331Y51830D01*
X102338Y51876D01*
X102346Y51917D01*
X102353Y51952D01*
X102362Y51985D01*
X102372Y52013D01*
X102379Y52037D01*
X102387Y52055D01*
X102394Y52072D01*
X102400Y52085D01*
X102405Y52092D01*
X102407Y52098D01*
X102409Y52100D01*
X102427Y52126D01*
X102446Y52146D01*
X102466Y52167D01*
X102487Y52183D01*
X102507Y52196D01*
X102525Y52207D01*
X102546Y52217D01*
X102564Y52224D01*
X102600Y52235D01*
X102614Y52239D01*
X102627Y52241D01*
X102637Y52242D01*
X102651D01*
X102679Y52241D01*
D02*
G37*
G36*
X101881D02*
X101907Y52237D01*
X101931Y52229D01*
X101953Y52220D01*
X101994Y52198D01*
X102029Y52172D01*
X102057Y52144D01*
X102068Y52133D01*
X102077Y52122D01*
X102085Y52113D01*
X102090Y52105D01*
X102092Y52102D01*
X102094Y52100D01*
X102111Y52070D01*
X102124Y52037D01*
X102137Y52002D01*
X102146Y51963D01*
X102162Y51881D01*
X102174Y51800D01*
X102177Y51761D01*
X102179Y51724D01*
X102181Y51691D01*
X102183Y51663D01*
X102185Y51639D01*
Y51620D01*
Y51615D01*
Y51609D01*
Y51607D01*
Y51605D01*
X102183Y51541D01*
X102181Y51481D01*
X102175Y51426D01*
X102170Y51376D01*
X102164Y51330D01*
X102155Y51289D01*
X102148Y51254D01*
X102138Y51220D01*
X102131Y51193D01*
X102122Y51168D01*
X102114Y51150D01*
X102109Y51133D01*
X102101Y51120D01*
X102098Y51113D01*
X102096Y51107D01*
X102094Y51106D01*
X102075Y51081D01*
X102057Y51059D01*
X102037Y51041D01*
X102016Y51026D01*
X101996Y51011D01*
X101977Y51000D01*
X101957Y50991D01*
X101938Y50983D01*
X101903Y50974D01*
X101888Y50970D01*
X101876Y50968D01*
X101866D01*
X101859Y50967D01*
X101851D01*
X101824Y50968D01*
X101798Y50972D01*
X101774Y50980D01*
X101751Y50989D01*
X101711Y51011D01*
X101676Y51037D01*
X101648Y51063D01*
X101637Y51074D01*
X101627Y51085D01*
X101620Y51094D01*
X101614Y51102D01*
X101613Y51106D01*
X101611Y51107D01*
X101594Y51137D01*
X101579Y51170D01*
X101568Y51206D01*
X101557Y51244D01*
X101540Y51328D01*
X101529Y51409D01*
X101526Y51448D01*
X101524Y51485D01*
X101520Y51517D01*
Y51546D01*
X101518Y51570D01*
Y51589D01*
Y51594D01*
Y51600D01*
Y51602D01*
Y51604D01*
X101520Y51668D01*
X101522Y51726D01*
X101527Y51781D01*
X101533Y51830D01*
X101540Y51876D01*
X101548Y51917D01*
X101555Y51952D01*
X101564Y51985D01*
X101574Y52013D01*
X101581Y52037D01*
X101588Y52055D01*
X101596Y52072D01*
X101601Y52085D01*
X101607Y52092D01*
X101609Y52098D01*
X101611Y52100D01*
X101629Y52126D01*
X101648Y52146D01*
X101668Y52167D01*
X101688Y52183D01*
X101709Y52196D01*
X101727Y52207D01*
X101748Y52217D01*
X101766Y52224D01*
X101801Y52235D01*
X101816Y52239D01*
X101829Y52241D01*
X101838Y52242D01*
X101853D01*
X101881Y52241D01*
D02*
G37*
%LPC*%
G36*
X103831Y51620D02*
X103822D01*
X103801Y51618D01*
X103783Y51611D01*
X103766Y51602D01*
X103751Y51593D01*
X103740Y51581D01*
X103733Y51572D01*
X103727Y51565D01*
X103725Y51563D01*
X103712Y51539D01*
X103701Y51513D01*
X103694Y51483D01*
X103690Y51454D01*
X103686Y51428D01*
X103685Y51407D01*
Y51398D01*
Y51393D01*
Y51389D01*
Y51387D01*
X103686Y51346D01*
X103690Y51311D01*
X103696Y51281D01*
X103703Y51257D01*
X103710Y51239D01*
X103716Y51226D01*
X103720Y51218D01*
X103722Y51217D01*
X103736Y51200D01*
X103751Y51187D01*
X103766Y51180D01*
X103781Y51172D01*
X103794Y51168D01*
X103803Y51167D01*
X103812D01*
X103833Y51168D01*
X103853Y51176D01*
X103870Y51185D01*
X103885Y51198D01*
X103898Y51209D01*
X103907Y51218D01*
X103912Y51226D01*
X103914Y51228D01*
X103929Y51254D01*
X103938Y51283D01*
X103946Y51313D01*
X103951Y51341D01*
X103955Y51367D01*
X103957Y51389D01*
Y51396D01*
Y51402D01*
Y51405D01*
Y51407D01*
X103955Y51444D01*
X103951Y51478D01*
X103944Y51504D01*
X103936Y51526D01*
X103931Y51544D01*
X103923Y51557D01*
X103920Y51565D01*
X103918Y51567D01*
X103903Y51585D01*
X103886Y51598D01*
X103870Y51607D01*
X103855Y51613D01*
X103842Y51618D01*
X103831Y51620D01*
D02*
G37*
G36*
X112067Y51530D02*
X111841D01*
X111804Y51528D01*
X111773Y51522D01*
X111745Y51515D01*
X111721Y51504D01*
X111700Y51491D01*
X111684Y51476D01*
X111669Y51461D01*
X111658Y51444D01*
X111649Y51428D01*
X111643Y51413D01*
X111637Y51398D01*
X111636Y51385D01*
X111634Y51376D01*
X111632Y51367D01*
Y51361D01*
Y51359D01*
X111634Y51339D01*
X111636Y51320D01*
X111641Y51304D01*
X111647Y51289D01*
X111652Y51278D01*
X111656Y51268D01*
X111660Y51263D01*
X111662Y51261D01*
X111673Y51248D01*
X111684Y51235D01*
X111695Y51228D01*
X111706Y51220D01*
X111715Y51215D01*
X111721Y51211D01*
X111726Y51209D01*
X111728D01*
X111745Y51206D01*
X111763Y51204D01*
X111802Y51200D01*
X111821Y51198D01*
X112067D01*
Y51530D01*
D02*
G37*
G36*
X104646Y52042D02*
X104644D01*
X104623Y52039D01*
X104605Y52029D01*
X104590Y52018D01*
X104577Y52004D01*
X104566Y51989D01*
X104559Y51978D01*
X104555Y51968D01*
X104553Y51965D01*
X104547Y51948D01*
X104542Y51928D01*
X104536Y51904D01*
X104533Y51876D01*
X104529Y51848D01*
X104527Y51817D01*
X104522Y51755D01*
Y51726D01*
X104520Y51698D01*
Y51672D01*
X104518Y51650D01*
Y51631D01*
Y51617D01*
Y51607D01*
Y51604D01*
Y51552D01*
X104520Y51505D01*
X104522Y51465D01*
X104523Y51428D01*
X104525Y51394D01*
X104529Y51365D01*
X104533Y51339D01*
X104534Y51317D01*
X104538Y51298D01*
X104542Y51281D01*
X104546Y51268D01*
X104547Y51259D01*
X104549Y51252D01*
X104551Y51246D01*
X104553Y51244D01*
Y51243D01*
X104566Y51217D01*
X104581Y51198D01*
X104596Y51185D01*
X104610Y51176D01*
X104623Y51170D01*
X104634Y51168D01*
X104642Y51167D01*
X104644D01*
X104664Y51170D01*
X104683Y51178D01*
X104699Y51191D01*
X104712Y51206D01*
X104723Y51218D01*
X104731Y51231D01*
X104734Y51239D01*
X104736Y51243D01*
X104742Y51259D01*
X104747Y51280D01*
X104751Y51304D01*
X104755Y51331D01*
X104759Y51359D01*
X104762Y51391D01*
X104766Y51452D01*
Y51481D01*
X104768Y51509D01*
Y51535D01*
X104770Y51557D01*
Y51578D01*
Y51591D01*
Y51600D01*
Y51604D01*
Y51655D01*
X104768Y51702D01*
X104766Y51742D01*
X104764Y51780D01*
X104762Y51813D01*
X104759Y51842D01*
X104757Y51868D01*
X104753Y51891D01*
X104749Y51909D01*
X104747Y51926D01*
X104744Y51939D01*
X104742Y51948D01*
X104740Y51955D01*
X104738Y51961D01*
X104736Y51965D01*
X104723Y51991D01*
X104709Y52009D01*
X104692Y52024D01*
X104677Y52033D01*
X104664Y52039D01*
X104653Y52041D01*
X104646Y52042D01*
D02*
G37*
G36*
X102651D02*
X102649D01*
X102629Y52039D01*
X102611Y52029D01*
X102596Y52018D01*
X102583Y52004D01*
X102572Y51989D01*
X102564Y51978D01*
X102561Y51968D01*
X102559Y51965D01*
X102553Y51948D01*
X102548Y51928D01*
X102542Y51904D01*
X102538Y51876D01*
X102535Y51848D01*
X102533Y51817D01*
X102527Y51755D01*
Y51726D01*
X102525Y51698D01*
Y51672D01*
X102524Y51650D01*
Y51631D01*
Y51617D01*
Y51607D01*
Y51604D01*
Y51552D01*
X102525Y51505D01*
X102527Y51465D01*
X102529Y51428D01*
X102531Y51394D01*
X102535Y51365D01*
X102538Y51339D01*
X102540Y51317D01*
X102544Y51298D01*
X102548Y51281D01*
X102551Y51268D01*
X102553Y51259D01*
X102555Y51252D01*
X102557Y51246D01*
X102559Y51244D01*
Y51243D01*
X102572Y51217D01*
X102587Y51198D01*
X102601Y51185D01*
X102616Y51176D01*
X102629Y51170D01*
X102640Y51168D01*
X102648Y51167D01*
X102649D01*
X102670Y51170D01*
X102688Y51178D01*
X102705Y51191D01*
X102718Y51206D01*
X102729Y51218D01*
X102737Y51231D01*
X102740Y51239D01*
X102742Y51243D01*
X102748Y51259D01*
X102753Y51280D01*
X102757Y51304D01*
X102761Y51331D01*
X102764Y51359D01*
X102768Y51391D01*
X102772Y51452D01*
Y51481D01*
X102774Y51509D01*
Y51535D01*
X102775Y51557D01*
Y51578D01*
Y51591D01*
Y51600D01*
Y51604D01*
Y51655D01*
X102774Y51702D01*
X102772Y51742D01*
X102770Y51780D01*
X102768Y51813D01*
X102764Y51842D01*
X102762Y51868D01*
X102759Y51891D01*
X102755Y51909D01*
X102753Y51926D01*
X102749Y51939D01*
X102748Y51948D01*
X102746Y51955D01*
X102744Y51961D01*
X102742Y51965D01*
X102729Y51991D01*
X102714Y52009D01*
X102698Y52024D01*
X102683Y52033D01*
X102670Y52039D01*
X102659Y52041D01*
X102651Y52042D01*
D02*
G37*
G36*
X101853D02*
X101851D01*
X101831Y52039D01*
X101813Y52029D01*
X101798Y52018D01*
X101785Y52004D01*
X101774Y51989D01*
X101766Y51978D01*
X101763Y51968D01*
X101761Y51965D01*
X101755Y51948D01*
X101750Y51928D01*
X101744Y51904D01*
X101740Y51876D01*
X101737Y51848D01*
X101735Y51817D01*
X101729Y51755D01*
Y51726D01*
X101727Y51698D01*
Y51672D01*
X101726Y51650D01*
Y51631D01*
Y51617D01*
Y51607D01*
Y51604D01*
Y51552D01*
X101727Y51505D01*
X101729Y51465D01*
X101731Y51428D01*
X101733Y51394D01*
X101737Y51365D01*
X101740Y51339D01*
X101742Y51317D01*
X101746Y51298D01*
X101750Y51281D01*
X101753Y51268D01*
X101755Y51259D01*
X101757Y51252D01*
X101759Y51246D01*
X101761Y51244D01*
Y51243D01*
X101774Y51217D01*
X101788Y51198D01*
X101803Y51185D01*
X101818Y51176D01*
X101831Y51170D01*
X101842Y51168D01*
X101850Y51167D01*
X101851D01*
X101872Y51170D01*
X101890Y51178D01*
X101907Y51191D01*
X101920Y51206D01*
X101931Y51218D01*
X101938Y51231D01*
X101942Y51239D01*
X101944Y51243D01*
X101950Y51259D01*
X101955Y51280D01*
X101959Y51304D01*
X101963Y51331D01*
X101966Y51359D01*
X101970Y51391D01*
X101974Y51452D01*
Y51481D01*
X101975Y51509D01*
Y51535D01*
X101977Y51557D01*
Y51578D01*
Y51591D01*
Y51600D01*
Y51604D01*
Y51655D01*
X101975Y51702D01*
X101974Y51742D01*
X101972Y51780D01*
X101970Y51813D01*
X101966Y51842D01*
X101964Y51868D01*
X101961Y51891D01*
X101957Y51909D01*
X101955Y51926D01*
X101951Y51939D01*
X101950Y51948D01*
X101948Y51955D01*
X101946Y51961D01*
X101944Y51965D01*
X101931Y51991D01*
X101916Y52009D01*
X101900Y52024D01*
X101885Y52033D01*
X101872Y52039D01*
X101861Y52041D01*
X101853Y52042D01*
D02*
G37*
%LPD*%
M02*
