G04*
G04 #@! TF.GenerationSoftware,Altium Limited,Altium Designer,19.1.6 (110)*
G04*
G04 Layer_Color=65535*
%FSLAX43Y43*%
%MOMM*%
G71*
G01*
G75*
%ADD10C,0.600*%
%ADD11C,0.200*%
%ADD12C,0.250*%
%ADD13C,0.254*%
G36*
X13964Y2894D02*
D01*
Y600D01*
X4700D01*
Y2894D01*
D01*
Y4917D01*
X13964D01*
Y2894D01*
D02*
G37*
G36*
X14133Y17538D02*
X14153Y17536D01*
X14180Y17530D01*
X14209Y17521D01*
X14242Y17507D01*
X14273Y17487D01*
X14305Y17462D01*
X14309Y17458D01*
X14318Y17448D01*
X14332Y17429D01*
X14348Y17405D01*
X14365Y17372D01*
X14381Y17331D01*
X14396Y17284D01*
X14406Y17230D01*
X14213Y17205D01*
Y17206D01*
Y17210D01*
X14211Y17218D01*
X14209Y17226D01*
X14203Y17247D01*
X14193Y17275D01*
X14180Y17300D01*
X14160Y17322D01*
X14147Y17329D01*
X14133Y17337D01*
X14117Y17341D01*
X14100Y17343D01*
X14098D01*
X14090Y17341D01*
X14078Y17339D01*
X14063Y17335D01*
X14047Y17325D01*
X14030Y17314D01*
X14012Y17296D01*
X13995Y17273D01*
X13993Y17269D01*
X13991Y17265D01*
X13989Y17259D01*
X13985Y17249D01*
X13981Y17240D01*
X13977Y17226D01*
X13971Y17210D01*
X13967Y17193D01*
X13963Y17173D01*
X13959Y17150D01*
X13954Y17125D01*
X13950Y17095D01*
X13948Y17064D01*
X13944Y17029D01*
X13942Y16990D01*
X13944Y16992D01*
X13948Y16998D01*
X13955Y17007D01*
X13965Y17019D01*
X13979Y17033D01*
X13993Y17047D01*
X14008Y17058D01*
X14024Y17070D01*
X14026Y17072D01*
X14032Y17074D01*
X14041Y17078D01*
X14053Y17084D01*
X14069Y17089D01*
X14084Y17093D01*
X14104Y17095D01*
X14123Y17097D01*
X14135D01*
X14143Y17095D01*
X14166Y17091D01*
X14195Y17084D01*
X14229Y17070D01*
X14246Y17060D01*
X14264Y17050D01*
X14281Y17037D01*
X14299Y17021D01*
X14316Y17004D01*
X14334Y16984D01*
X14336Y16982D01*
X14338Y16978D01*
X14342Y16972D01*
X14348Y16963D01*
X14355Y16953D01*
X14363Y16939D01*
X14371Y16922D01*
X14381Y16904D01*
X14389Y16885D01*
X14396Y16861D01*
X14404Y16838D01*
X14412Y16810D01*
X14422Y16752D01*
X14426Y16719D01*
Y16686D01*
Y16684D01*
Y16678D01*
Y16666D01*
X14424Y16652D01*
Y16637D01*
X14420Y16617D01*
X14418Y16596D01*
X14414Y16572D01*
X14402Y16522D01*
X14385Y16471D01*
X14375Y16444D01*
X14361Y16420D01*
X14348Y16395D01*
X14330Y16374D01*
X14328Y16372D01*
X14326Y16370D01*
X14320Y16364D01*
X14312Y16356D01*
X14293Y16338D01*
X14266Y16319D01*
X14231Y16297D01*
X14190Y16280D01*
X14168Y16272D01*
X14145Y16266D01*
X14119Y16264D01*
X14094Y16262D01*
X14088D01*
X14078Y16264D01*
X14069D01*
X14055Y16266D01*
X14039Y16270D01*
X14004Y16280D01*
X13985Y16288D01*
X13963Y16297D01*
X13942Y16309D01*
X13920Y16325D01*
X13899Y16340D01*
X13879Y16360D01*
X13858Y16383D01*
X13838Y16409D01*
X13837Y16411D01*
X13835Y16416D01*
X13829Y16424D01*
X13823Y16436D01*
X13815Y16453D01*
X13807Y16473D01*
X13797Y16496D01*
X13790Y16524D01*
X13780Y16555D01*
X13770Y16592D01*
X13762Y16631D01*
X13755Y16674D01*
X13749Y16723D01*
X13743Y16775D01*
X13741Y16832D01*
X13739Y16892D01*
Y16894D01*
Y16896D01*
Y16908D01*
Y16926D01*
X13741Y16949D01*
X13743Y16976D01*
X13745Y17009D01*
X13747Y17045D01*
X13753Y17084D01*
X13764Y17166D01*
X13782Y17247D01*
X13794Y17286D01*
X13809Y17324D01*
X13825Y17357D01*
X13842Y17388D01*
X13844Y17390D01*
X13848Y17394D01*
X13854Y17402D01*
X13862Y17411D01*
X13872Y17423D01*
X13885Y17437D01*
X13899Y17450D01*
X13916Y17464D01*
X13955Y17491D01*
X14000Y17517D01*
X14028Y17526D01*
X14055Y17534D01*
X14082Y17538D01*
X14114Y17540D01*
X14125D01*
X14133Y17538D01*
D02*
G37*
G36*
X4192Y17554D02*
X4206Y17552D01*
X4223Y17550D01*
X4243Y17546D01*
X4264Y17540D01*
X4309Y17526D01*
X4335Y17517D01*
X4358Y17505D01*
X4381Y17491D01*
X4407Y17476D01*
X4430Y17458D01*
X4452Y17437D01*
X4454D01*
X4456Y17433D01*
X4459Y17429D01*
X4465Y17421D01*
X4481Y17402D01*
X4498Y17374D01*
X4518Y17339D01*
X4539Y17296D01*
X4559Y17247D01*
X4574Y17189D01*
X4370Y17128D01*
Y17130D01*
Y17132D01*
X4366Y17146D01*
X4360Y17164D01*
X4352Y17187D01*
X4340Y17210D01*
X4327Y17238D01*
X4309Y17263D01*
X4290Y17284D01*
X4288Y17286D01*
X4280Y17292D01*
X4268Y17302D01*
X4251Y17312D01*
X4231Y17322D01*
X4208Y17331D01*
X4182Y17337D01*
X4153Y17339D01*
X4141D01*
X4134Y17337D01*
X4114Y17333D01*
X4087Y17327D01*
X4058Y17316D01*
X4026Y17298D01*
X4013Y17286D01*
X3997Y17273D01*
X3981Y17257D01*
X3968Y17240D01*
Y17238D01*
X3964Y17236D01*
X3962Y17230D01*
X3956Y17220D01*
X3952Y17210D01*
X3946Y17197D01*
X3939Y17181D01*
X3933Y17162D01*
X3927Y17140D01*
X3919Y17117D01*
X3913Y17089D01*
X3909Y17060D01*
X3903Y17029D01*
X3901Y16994D01*
X3898Y16955D01*
Y16914D01*
Y16912D01*
Y16904D01*
Y16892D01*
X3900Y16875D01*
Y16855D01*
X3901Y16834D01*
X3903Y16810D01*
X3905Y16783D01*
X3915Y16729D01*
X3927Y16672D01*
X3935Y16647D01*
X3942Y16621D01*
X3954Y16598D01*
X3966Y16578D01*
Y16576D01*
X3970Y16574D01*
X3980Y16563D01*
X3993Y16547D01*
X4015Y16530D01*
X4042Y16510D01*
X4071Y16494D01*
X4108Y16483D01*
X4128Y16481D01*
X4147Y16479D01*
X4151D01*
X4161Y16481D01*
X4177Y16483D01*
X4196Y16487D01*
X4218Y16494D01*
X4241Y16506D01*
X4264Y16520D01*
X4288Y16541D01*
X4290Y16545D01*
X4297Y16553D01*
X4309Y16569D01*
X4321Y16590D01*
X4337Y16619D01*
X4350Y16654D01*
X4364Y16695D01*
X4376Y16744D01*
X4576Y16666D01*
Y16664D01*
X4574Y16656D01*
X4571Y16647D01*
X4567Y16631D01*
X4563Y16613D01*
X4555Y16594D01*
X4547Y16572D01*
X4539Y16549D01*
X4516Y16498D01*
X4489Y16448D01*
X4457Y16399D01*
X4438Y16377D01*
X4418Y16358D01*
X4416Y16356D01*
X4413Y16354D01*
X4407Y16350D01*
X4399Y16342D01*
X4389Y16336D01*
X4376Y16329D01*
X4360Y16319D01*
X4344Y16311D01*
X4305Y16294D01*
X4260Y16278D01*
X4208Y16266D01*
X4180Y16264D01*
X4151Y16262D01*
X4141D01*
X4132Y16264D01*
X4118D01*
X4100Y16266D01*
X4081Y16270D01*
X4060Y16276D01*
X4036Y16282D01*
X4011Y16290D01*
X3983Y16299D01*
X3956Y16313D01*
X3929Y16327D01*
X3901Y16344D01*
X3876Y16366D01*
X3849Y16389D01*
X3825Y16416D01*
X3823Y16418D01*
X3820Y16424D01*
X3812Y16434D01*
X3804Y16450D01*
X3792Y16467D01*
X3781Y16489D01*
X3767Y16514D01*
X3755Y16543D01*
X3742Y16576D01*
X3728Y16611D01*
X3716Y16651D01*
X3704Y16693D01*
X3697Y16740D01*
X3689Y16789D01*
X3685Y16842D01*
X3683Y16896D01*
Y16900D01*
Y16910D01*
X3685Y16928D01*
Y16949D01*
X3687Y16976D01*
X3691Y17007D01*
X3695Y17043D01*
X3701Y17080D01*
X3708Y17119D01*
X3718Y17160D01*
X3730Y17201D01*
X3743Y17244D01*
X3759Y17284D01*
X3779Y17324D01*
X3800Y17363D01*
X3825Y17398D01*
X3827Y17400D01*
X3831Y17405D01*
X3839Y17413D01*
X3849Y17423D01*
X3861Y17435D01*
X3876Y17448D01*
X3896Y17462D01*
X3915Y17478D01*
X3939Y17491D01*
X3964Y17505D01*
X3991Y17519D01*
X4020Y17530D01*
X4054Y17542D01*
X4089Y17550D01*
X4124Y17554D01*
X4163Y17556D01*
X4180D01*
X4192Y17554D01*
D02*
G37*
G36*
X8148Y16582D02*
Y16580D01*
X8146Y16574D01*
X8142Y16567D01*
X8137Y16555D01*
X8131Y16539D01*
X8125Y16524D01*
X8109Y16487D01*
X8090Y16446D01*
X8068Y16407D01*
X8047Y16370D01*
X8035Y16352D01*
X8023Y16338D01*
X8021Y16334D01*
X8014Y16327D01*
X8000Y16317D01*
X7982Y16303D01*
X7961Y16290D01*
X7938Y16280D01*
X7910Y16272D01*
X7879Y16268D01*
X7850D01*
X7832Y16270D01*
X7809Y16272D01*
X7785Y16274D01*
X7737Y16284D01*
Y16469D01*
X7766D01*
X7789Y16467D01*
X7824D01*
X7838Y16469D01*
X7854Y16471D01*
X7871Y16475D01*
X7889Y16481D01*
X7904Y16489D01*
X7918Y16498D01*
X7920Y16500D01*
X7924Y16504D01*
X7930Y16514D01*
X7938Y16528D01*
X7947Y16545D01*
X7957Y16569D01*
X7967Y16600D01*
X7978Y16635D01*
X7602Y17534D01*
X7834D01*
X8072Y16885D01*
X8279Y17534D01*
X8493D01*
X8148Y16582D01*
D02*
G37*
G36*
X10897Y17538D02*
X10908Y17536D01*
X10922Y17534D01*
X10953Y17528D01*
X10990Y17515D01*
X11027Y17497D01*
X11045Y17485D01*
X11063Y17472D01*
X11080Y17456D01*
X11096Y17439D01*
X11098Y17437D01*
X11100Y17435D01*
X11104Y17429D01*
X11109Y17421D01*
X11123Y17402D01*
X11139Y17374D01*
X11152Y17341D01*
X11166Y17304D01*
X11176Y17263D01*
X11180Y17242D01*
Y17218D01*
Y17214D01*
Y17205D01*
X11178Y17189D01*
X11176Y17169D01*
X11170Y17146D01*
X11164Y17121D01*
X11154Y17095D01*
X11141Y17070D01*
X11139Y17068D01*
X11133Y17058D01*
X11125Y17047D01*
X11113Y17031D01*
X11098Y17013D01*
X11078Y16994D01*
X11055Y16974D01*
X11029Y16955D01*
X11031D01*
X11033Y16953D01*
X11043Y16951D01*
X11059Y16943D01*
X11080Y16933D01*
X11102Y16920D01*
X11125Y16902D01*
X11148Y16881D01*
X11170Y16853D01*
X11172Y16849D01*
X11178Y16840D01*
X11187Y16822D01*
X11197Y16799D01*
X11207Y16771D01*
X11217Y16738D01*
X11223Y16699D01*
X11224Y16656D01*
Y16654D01*
Y16649D01*
Y16641D01*
X11223Y16627D01*
X11221Y16613D01*
X11219Y16596D01*
X11217Y16576D01*
X11211Y16557D01*
X11199Y16512D01*
X11182Y16465D01*
X11170Y16442D01*
X11156Y16418D01*
X11139Y16395D01*
X11121Y16374D01*
X11119Y16372D01*
X11117Y16370D01*
X11111Y16364D01*
X11104Y16356D01*
X11094Y16348D01*
X11082Y16338D01*
X11053Y16319D01*
X11018Y16297D01*
X10977Y16280D01*
X10953Y16272D01*
X10930Y16266D01*
X10905Y16264D01*
X10879Y16262D01*
X10866D01*
X10856Y16264D01*
X10844D01*
X10830Y16268D01*
X10799Y16274D01*
X10762Y16286D01*
X10725Y16301D01*
X10686Y16325D01*
X10667Y16340D01*
X10649Y16356D01*
X10647Y16358D01*
X10645Y16360D01*
X10641Y16366D01*
X10633Y16374D01*
X10628Y16383D01*
X10618Y16395D01*
X10610Y16409D01*
X10600Y16424D01*
X10583Y16461D01*
X10565Y16506D01*
X10550Y16559D01*
X10542Y16617D01*
X10735Y16643D01*
Y16639D01*
X10737Y16627D01*
X10739Y16611D01*
X10743Y16592D01*
X10749Y16571D01*
X10756Y16547D01*
X10768Y16526D01*
X10782Y16506D01*
X10784Y16504D01*
X10789Y16498D01*
X10797Y16493D01*
X10809Y16485D01*
X10823Y16475D01*
X10840Y16469D01*
X10858Y16463D01*
X10877Y16461D01*
X10887D01*
X10899Y16465D01*
X10912Y16469D01*
X10928Y16475D01*
X10946Y16485D01*
X10963Y16498D01*
X10979Y16516D01*
X10981Y16518D01*
X10985Y16526D01*
X10992Y16539D01*
X11000Y16555D01*
X11008Y16578D01*
X11016Y16604D01*
X11020Y16635D01*
X11022Y16670D01*
Y16672D01*
Y16674D01*
Y16686D01*
X11020Y16701D01*
X11016Y16721D01*
X11012Y16744D01*
X11004Y16768D01*
X10994Y16791D01*
X10981Y16812D01*
X10979Y16814D01*
X10973Y16820D01*
X10965Y16830D01*
X10953Y16840D01*
X10940Y16848D01*
X10924Y16857D01*
X10905Y16863D01*
X10883Y16865D01*
X10869D01*
X10858Y16863D01*
X10846Y16861D01*
X10830Y16857D01*
X10795Y16846D01*
X10815Y17043D01*
X10827D01*
X10842Y17045D01*
X10858Y17046D01*
X10877Y17052D01*
X10899Y17058D01*
X10918Y17070D01*
X10936Y17084D01*
X10938Y17086D01*
X10944Y17091D01*
X10949Y17101D01*
X10959Y17115D01*
X10967Y17132D01*
X10973Y17152D01*
X10979Y17175D01*
X10981Y17203D01*
Y17206D01*
Y17214D01*
X10979Y17226D01*
X10977Y17240D01*
X10973Y17257D01*
X10967Y17275D01*
X10959Y17290D01*
X10947Y17306D01*
X10946Y17308D01*
X10942Y17312D01*
X10936Y17318D01*
X10926Y17325D01*
X10914Y17331D01*
X10901Y17337D01*
X10883Y17341D01*
X10866Y17343D01*
X10858D01*
X10848Y17341D01*
X10836Y17337D01*
X10823Y17333D01*
X10809Y17325D01*
X10793Y17314D01*
X10780Y17300D01*
X10778Y17298D01*
X10774Y17292D01*
X10768Y17283D01*
X10760Y17269D01*
X10752Y17251D01*
X10747Y17230D01*
X10741Y17205D01*
X10737Y17175D01*
X10555Y17212D01*
Y17214D01*
X10557Y17220D01*
X10559Y17228D01*
X10561Y17240D01*
X10565Y17255D01*
X10569Y17271D01*
X10579Y17308D01*
X10594Y17349D01*
X10614Y17390D01*
X10637Y17429D01*
X10649Y17446D01*
X10665Y17462D01*
X10669Y17466D01*
X10680Y17474D01*
X10698Y17487D01*
X10721Y17501D01*
X10752Y17515D01*
X10788Y17528D01*
X10828Y17536D01*
X10873Y17540D01*
X10887D01*
X10897Y17538D01*
D02*
G37*
G36*
X10099D02*
X10111Y17536D01*
X10124Y17534D01*
X10156Y17528D01*
X10193Y17515D01*
X10230Y17497D01*
X10247Y17485D01*
X10265Y17472D01*
X10282Y17456D01*
X10298Y17439D01*
X10300Y17437D01*
X10302Y17435D01*
X10306Y17429D01*
X10312Y17421D01*
X10325Y17402D01*
X10341Y17374D01*
X10354Y17341D01*
X10368Y17304D01*
X10378Y17263D01*
X10382Y17242D01*
Y17218D01*
Y17214D01*
Y17205D01*
X10380Y17189D01*
X10378Y17169D01*
X10372Y17146D01*
X10366Y17121D01*
X10356Y17095D01*
X10343Y17070D01*
X10341Y17068D01*
X10335Y17058D01*
X10327Y17046D01*
X10315Y17031D01*
X10300Y17013D01*
X10280Y16994D01*
X10257Y16974D01*
X10232Y16955D01*
X10234D01*
X10235Y16953D01*
X10245Y16951D01*
X10261Y16943D01*
X10282Y16933D01*
X10304Y16920D01*
X10327Y16902D01*
X10351Y16881D01*
X10372Y16853D01*
X10374Y16849D01*
X10380Y16840D01*
X10390Y16822D01*
X10399Y16799D01*
X10409Y16771D01*
X10419Y16738D01*
X10425Y16699D01*
X10427Y16656D01*
Y16654D01*
Y16649D01*
Y16641D01*
X10425Y16627D01*
X10423Y16613D01*
X10421Y16596D01*
X10419Y16576D01*
X10413Y16557D01*
X10401Y16512D01*
X10384Y16465D01*
X10372Y16442D01*
X10358Y16418D01*
X10341Y16395D01*
X10323Y16374D01*
X10321Y16372D01*
X10319Y16370D01*
X10314Y16364D01*
X10306Y16356D01*
X10296Y16348D01*
X10284Y16338D01*
X10255Y16319D01*
X10220Y16297D01*
X10179Y16280D01*
X10156Y16272D01*
X10132Y16266D01*
X10107Y16264D01*
X10081Y16262D01*
X10068D01*
X10058Y16264D01*
X10046D01*
X10033Y16268D01*
X10001Y16274D01*
X9964Y16286D01*
X9927Y16301D01*
X9888Y16325D01*
X9869Y16340D01*
X9851Y16356D01*
X9849Y16358D01*
X9847Y16360D01*
X9843Y16366D01*
X9836Y16374D01*
X9830Y16383D01*
X9820Y16395D01*
X9812Y16409D01*
X9802Y16424D01*
X9785Y16461D01*
X9767Y16506D01*
X9752Y16559D01*
X9744Y16617D01*
X9937Y16643D01*
Y16639D01*
X9939Y16627D01*
X9941Y16611D01*
X9945Y16592D01*
X9951Y16571D01*
X9958Y16547D01*
X9970Y16526D01*
X9984Y16506D01*
X9986Y16504D01*
X9992Y16498D01*
X9999Y16493D01*
X10011Y16485D01*
X10025Y16475D01*
X10042Y16469D01*
X10060Y16463D01*
X10079Y16461D01*
X10089D01*
X10101Y16465D01*
X10115Y16469D01*
X10130Y16475D01*
X10148Y16485D01*
X10165Y16498D01*
X10181Y16516D01*
X10183Y16518D01*
X10187Y16526D01*
X10195Y16539D01*
X10202Y16555D01*
X10210Y16578D01*
X10218Y16604D01*
X10222Y16635D01*
X10224Y16670D01*
Y16672D01*
Y16674D01*
Y16686D01*
X10222Y16701D01*
X10218Y16721D01*
X10214Y16744D01*
X10206Y16768D01*
X10196Y16791D01*
X10183Y16812D01*
X10181Y16814D01*
X10175Y16820D01*
X10167Y16830D01*
X10156Y16840D01*
X10142Y16848D01*
X10126Y16857D01*
X10107Y16863D01*
X10085Y16865D01*
X10072D01*
X10060Y16863D01*
X10048Y16861D01*
X10033Y16857D01*
X9997Y16846D01*
X10017Y17043D01*
X10029D01*
X10044Y17045D01*
X10060Y17046D01*
X10079Y17052D01*
X10101Y17058D01*
X10120Y17070D01*
X10138Y17084D01*
X10140Y17086D01*
X10146Y17091D01*
X10152Y17101D01*
X10161Y17115D01*
X10169Y17132D01*
X10175Y17152D01*
X10181Y17175D01*
X10183Y17203D01*
Y17206D01*
Y17214D01*
X10181Y17226D01*
X10179Y17240D01*
X10175Y17257D01*
X10169Y17275D01*
X10161Y17290D01*
X10150Y17306D01*
X10148Y17308D01*
X10144Y17312D01*
X10138Y17318D01*
X10128Y17325D01*
X10116Y17331D01*
X10103Y17337D01*
X10085Y17341D01*
X10068Y17343D01*
X10060D01*
X10050Y17341D01*
X10038Y17337D01*
X10025Y17333D01*
X10011Y17325D01*
X9996Y17314D01*
X9982Y17300D01*
X9980Y17298D01*
X9976Y17292D01*
X9970Y17283D01*
X9962Y17269D01*
X9955Y17251D01*
X9949Y17230D01*
X9943Y17205D01*
X9939Y17175D01*
X9758Y17212D01*
Y17214D01*
X9759Y17220D01*
X9761Y17228D01*
X9763Y17240D01*
X9767Y17255D01*
X9771Y17271D01*
X9781Y17308D01*
X9797Y17349D01*
X9816Y17390D01*
X9839Y17429D01*
X9851Y17446D01*
X9867Y17462D01*
X9871Y17466D01*
X9882Y17474D01*
X9900Y17487D01*
X9923Y17501D01*
X9955Y17515D01*
X9990Y17528D01*
X10031Y17536D01*
X10076Y17540D01*
X10089D01*
X10099Y17538D01*
D02*
G37*
G36*
X9301D02*
X9313Y17536D01*
X9326Y17534D01*
X9358Y17528D01*
X9395Y17515D01*
X9432Y17497D01*
X9449Y17485D01*
X9467Y17472D01*
X9484Y17456D01*
X9500Y17439D01*
X9502Y17437D01*
X9504Y17435D01*
X9508Y17429D01*
X9514Y17421D01*
X9527Y17402D01*
X9543Y17374D01*
X9557Y17341D01*
X9570Y17304D01*
X9580Y17263D01*
X9584Y17242D01*
Y17218D01*
Y17214D01*
Y17205D01*
X9582Y17189D01*
X9580Y17169D01*
X9574Y17146D01*
X9568Y17121D01*
X9559Y17095D01*
X9545Y17070D01*
X9543Y17068D01*
X9537Y17058D01*
X9529Y17046D01*
X9518Y17031D01*
X9502Y17013D01*
X9483Y16994D01*
X9459Y16974D01*
X9434Y16955D01*
X9436D01*
X9438Y16953D01*
X9447Y16951D01*
X9463Y16943D01*
X9484Y16933D01*
X9506Y16920D01*
X9529Y16902D01*
X9553Y16881D01*
X9574Y16853D01*
X9576Y16849D01*
X9582Y16840D01*
X9592Y16822D01*
X9601Y16799D01*
X9611Y16771D01*
X9621Y16738D01*
X9627Y16699D01*
X9629Y16656D01*
Y16654D01*
Y16649D01*
Y16641D01*
X9627Y16627D01*
X9625Y16613D01*
X9623Y16596D01*
X9621Y16576D01*
X9615Y16557D01*
X9603Y16512D01*
X9586Y16465D01*
X9574Y16442D01*
X9561Y16418D01*
X9543Y16395D01*
X9525Y16374D01*
X9523Y16372D01*
X9522Y16370D01*
X9516Y16364D01*
X9508Y16356D01*
X9498Y16348D01*
X9486Y16338D01*
X9457Y16319D01*
X9422Y16297D01*
X9381Y16280D01*
X9358Y16272D01*
X9334Y16266D01*
X9309Y16264D01*
X9284Y16262D01*
X9270D01*
X9260Y16264D01*
X9248D01*
X9235Y16268D01*
X9204Y16274D01*
X9166Y16286D01*
X9129Y16301D01*
X9090Y16325D01*
X9071Y16340D01*
X9053Y16356D01*
X9051Y16358D01*
X9049Y16360D01*
X9046Y16366D01*
X9038Y16374D01*
X9032Y16383D01*
X9022Y16395D01*
X9014Y16409D01*
X9005Y16424D01*
X8987Y16461D01*
X8969Y16506D01*
X8954Y16559D01*
X8946Y16617D01*
X9139Y16643D01*
Y16639D01*
X9141Y16627D01*
X9143Y16611D01*
X9147Y16592D01*
X9153Y16571D01*
X9161Y16547D01*
X9172Y16526D01*
X9186Y16506D01*
X9188Y16504D01*
X9194Y16498D01*
X9202Y16493D01*
X9213Y16485D01*
X9227Y16475D01*
X9245Y16469D01*
X9262Y16463D01*
X9282Y16461D01*
X9291D01*
X9303Y16465D01*
X9317Y16469D01*
X9332Y16475D01*
X9350Y16485D01*
X9367Y16498D01*
X9383Y16516D01*
X9385Y16518D01*
X9389Y16526D01*
X9397Y16539D01*
X9404Y16555D01*
X9412Y16578D01*
X9420Y16604D01*
X9424Y16635D01*
X9426Y16670D01*
Y16672D01*
Y16674D01*
Y16686D01*
X9424Y16701D01*
X9420Y16721D01*
X9416Y16744D01*
X9408Y16768D01*
X9399Y16791D01*
X9385Y16812D01*
X9383Y16814D01*
X9377Y16820D01*
X9369Y16830D01*
X9358Y16840D01*
X9344Y16848D01*
X9328Y16857D01*
X9309Y16863D01*
X9287Y16865D01*
X9274D01*
X9262Y16863D01*
X9250Y16861D01*
X9235Y16857D01*
X9200Y16846D01*
X9219Y17043D01*
X9231D01*
X9246Y17045D01*
X9262Y17046D01*
X9282Y17052D01*
X9303Y17058D01*
X9323Y17070D01*
X9340Y17084D01*
X9342Y17086D01*
X9348Y17091D01*
X9354Y17101D01*
X9364Y17115D01*
X9371Y17132D01*
X9377Y17152D01*
X9383Y17175D01*
X9385Y17203D01*
Y17206D01*
Y17214D01*
X9383Y17226D01*
X9381Y17240D01*
X9377Y17257D01*
X9371Y17275D01*
X9364Y17290D01*
X9352Y17306D01*
X9350Y17308D01*
X9346Y17312D01*
X9340Y17318D01*
X9330Y17325D01*
X9319Y17331D01*
X9305Y17337D01*
X9287Y17341D01*
X9270Y17343D01*
X9262D01*
X9252Y17341D01*
X9241Y17337D01*
X9227Y17333D01*
X9213Y17325D01*
X9198Y17314D01*
X9184Y17300D01*
X9182Y17298D01*
X9178Y17292D01*
X9172Y17283D01*
X9165Y17269D01*
X9157Y17251D01*
X9151Y17230D01*
X9145Y17205D01*
X9141Y17175D01*
X8960Y17212D01*
Y17214D01*
X8962Y17220D01*
X8964Y17228D01*
X8966Y17240D01*
X8969Y17255D01*
X8973Y17271D01*
X8983Y17308D01*
X8999Y17349D01*
X9018Y17390D01*
X9042Y17429D01*
X9053Y17446D01*
X9069Y17462D01*
X9073Y17466D01*
X9085Y17474D01*
X9102Y17487D01*
X9126Y17501D01*
X9157Y17515D01*
X9192Y17528D01*
X9233Y17536D01*
X9278Y17540D01*
X9291D01*
X9301Y17538D01*
D02*
G37*
G36*
X12791Y17294D02*
X12422D01*
X12389Y17080D01*
X12393Y17082D01*
X12401Y17086D01*
X12414Y17093D01*
X12430Y17101D01*
X12451Y17109D01*
X12473Y17117D01*
X12498Y17121D01*
X12524Y17123D01*
X12535D01*
X12543Y17121D01*
X12567Y17117D01*
X12596Y17111D01*
X12627Y17099D01*
X12662Y17082D01*
X12680Y17070D01*
X12697Y17058D01*
X12715Y17043D01*
X12730Y17025D01*
X12732Y17023D01*
X12734Y17019D01*
X12740Y17013D01*
X12748Y17004D01*
X12756Y16992D01*
X12764Y16976D01*
X12773Y16959D01*
X12785Y16939D01*
X12795Y16918D01*
X12805Y16894D01*
X12812Y16867D01*
X12820Y16838D01*
X12828Y16809D01*
X12834Y16775D01*
X12836Y16740D01*
X12838Y16703D01*
Y16701D01*
Y16695D01*
Y16688D01*
X12836Y16676D01*
Y16660D01*
X12834Y16645D01*
X12830Y16625D01*
X12826Y16604D01*
X12816Y16557D01*
X12799Y16506D01*
X12777Y16453D01*
X12762Y16426D01*
X12746Y16401D01*
X12744Y16399D01*
X12742Y16395D01*
X12736Y16387D01*
X12729Y16379D01*
X12719Y16370D01*
X12709Y16358D01*
X12695Y16344D01*
X12680Y16333D01*
X12662Y16319D01*
X12643Y16305D01*
X12598Y16284D01*
X12572Y16276D01*
X12545Y16268D01*
X12516Y16264D01*
X12485Y16262D01*
X12471D01*
X12461Y16264D01*
X12450D01*
X12436Y16266D01*
X12405Y16274D01*
X12370Y16284D01*
X12331Y16299D01*
X12293Y16321D01*
X12274Y16334D01*
X12256Y16350D01*
Y16352D01*
X12253Y16354D01*
X12249Y16360D01*
X12243Y16368D01*
X12235Y16375D01*
X12227Y16387D01*
X12217Y16401D01*
X12208Y16416D01*
X12190Y16452D01*
X12173Y16496D01*
X12157Y16547D01*
X12147Y16606D01*
X12344Y16631D01*
Y16627D01*
X12346Y16617D01*
X12348Y16602D01*
X12352Y16584D01*
X12358Y16563D01*
X12368Y16541D01*
X12379Y16522D01*
X12393Y16502D01*
X12395Y16500D01*
X12401Y16494D01*
X12409Y16487D01*
X12420Y16479D01*
X12436Y16471D01*
X12451Y16463D01*
X12469Y16457D01*
X12489Y16455D01*
X12491D01*
X12498Y16457D01*
X12510Y16459D01*
X12524Y16463D01*
X12541Y16469D01*
X12557Y16481D01*
X12574Y16494D01*
X12592Y16514D01*
X12594Y16516D01*
X12600Y16526D01*
X12606Y16539D01*
X12615Y16561D01*
X12623Y16586D01*
X12629Y16617D01*
X12635Y16656D01*
X12637Y16699D01*
Y16701D01*
Y16705D01*
Y16711D01*
Y16719D01*
X12635Y16740D01*
X12631Y16766D01*
X12625Y16793D01*
X12617Y16822D01*
X12608Y16849D01*
X12592Y16873D01*
X12590Y16875D01*
X12584Y16883D01*
X12574Y16890D01*
X12563Y16902D01*
X12547Y16912D01*
X12528Y16922D01*
X12506Y16928D01*
X12483Y16929D01*
X12479D01*
X12469Y16928D01*
X12451Y16926D01*
X12432Y16918D01*
X12409Y16908D01*
X12383Y16890D01*
X12356Y16869D01*
X12344Y16853D01*
X12331Y16838D01*
X12171Y16863D01*
X12272Y17519D01*
X12791D01*
Y17294D01*
D02*
G37*
G36*
X17036Y16284D02*
X16839D01*
Y17187D01*
X16837Y17185D01*
X16833Y17181D01*
X16827Y17175D01*
X16819Y17167D01*
X16809Y17156D01*
X16796Y17144D01*
X16765Y17117D01*
X16727Y17087D01*
X16685Y17058D01*
X16636Y17029D01*
X16583Y17006D01*
Y17224D01*
X16587Y17226D01*
X16597Y17230D01*
X16614Y17240D01*
X16636Y17251D01*
X16661Y17267D01*
X16688Y17288D01*
X16720Y17312D01*
X16753Y17341D01*
X16755Y17343D01*
X16757Y17345D01*
X16766Y17357D01*
X16782Y17374D01*
X16802Y17398D01*
X16821Y17427D01*
X16843Y17462D01*
X16860Y17499D01*
X16876Y17540D01*
X17036D01*
Y16284D01*
D02*
G37*
G36*
X16238D02*
X16041D01*
Y17187D01*
X16039Y17185D01*
X16035Y17181D01*
X16029Y17175D01*
X16021Y17167D01*
X16012Y17156D01*
X15998Y17144D01*
X15967Y17117D01*
X15930Y17087D01*
X15887Y17058D01*
X15838Y17029D01*
X15785Y17006D01*
Y17224D01*
X15789Y17226D01*
X15799Y17230D01*
X15816Y17240D01*
X15838Y17251D01*
X15863Y17267D01*
X15891Y17288D01*
X15922Y17312D01*
X15955Y17341D01*
X15957Y17343D01*
X15959Y17345D01*
X15969Y17357D01*
X15984Y17374D01*
X16004Y17398D01*
X16023Y17427D01*
X16045Y17462D01*
X16062Y17499D01*
X16078Y17540D01*
X16238D01*
Y16284D01*
D02*
G37*
G36*
X14775D02*
X14578D01*
Y16524D01*
X14775D01*
Y16284D01*
D02*
G37*
G36*
X11851D02*
X11654D01*
Y17187D01*
X11652Y17185D01*
X11648Y17181D01*
X11642Y17175D01*
X11634Y17167D01*
X11624Y17156D01*
X11611Y17144D01*
X11580Y17117D01*
X11542Y17087D01*
X11500Y17058D01*
X11451Y17029D01*
X11398Y17006D01*
Y17224D01*
X11402Y17226D01*
X11412Y17230D01*
X11429Y17240D01*
X11451Y17251D01*
X11476Y17267D01*
X11503Y17288D01*
X11535Y17312D01*
X11568Y17341D01*
X11570Y17343D01*
X11572Y17345D01*
X11581Y17357D01*
X11597Y17374D01*
X11617Y17398D01*
X11636Y17427D01*
X11658Y17462D01*
X11675Y17499D01*
X11691Y17540D01*
X11851D01*
Y16284D01*
D02*
G37*
G36*
X8792Y16284D02*
X8595D01*
Y16524D01*
X8792D01*
Y16284D01*
D02*
G37*
G36*
X7495D02*
X7288D01*
Y17322D01*
X6882D01*
Y16284D01*
X6675D01*
Y17534D01*
X7495D01*
Y16284D01*
D02*
G37*
G36*
X5575D02*
X5368D01*
Y17322D01*
X4963D01*
Y16284D01*
X4756D01*
Y17534D01*
X5575D01*
Y16284D01*
D02*
G37*
G36*
X15292Y17538D02*
X15303Y17536D01*
X15319Y17532D01*
X15352Y17522D01*
X15372Y17515D01*
X15391Y17505D01*
X15411Y17493D01*
X15432Y17480D01*
X15452Y17464D01*
X15471Y17444D01*
X15491Y17423D01*
X15508Y17398D01*
X15510Y17396D01*
X15512Y17392D01*
X15516Y17382D01*
X15524Y17370D01*
X15530Y17355D01*
X15538Y17333D01*
X15547Y17310D01*
X15555Y17283D01*
X15565Y17249D01*
X15573Y17214D01*
X15580Y17173D01*
X15588Y17128D01*
X15594Y17078D01*
X15598Y17023D01*
X15600Y16965D01*
X15602Y16900D01*
Y16896D01*
Y16885D01*
Y16867D01*
X15600Y16842D01*
Y16814D01*
X15598Y16781D01*
X15594Y16744D01*
X15590Y16705D01*
X15578Y16623D01*
X15563Y16541D01*
X15551Y16502D01*
X15539Y16465D01*
X15524Y16432D01*
X15508Y16403D01*
X15506Y16401D01*
X15504Y16397D01*
X15499Y16389D01*
X15493Y16381D01*
X15471Y16358D01*
X15444Y16333D01*
X15409Y16307D01*
X15368Y16284D01*
X15346Y16276D01*
X15321Y16268D01*
X15296Y16264D01*
X15268Y16262D01*
X15262D01*
X15255Y16264D01*
X15243D01*
X15231Y16266D01*
X15216Y16270D01*
X15182Y16280D01*
X15163Y16288D01*
X15143Y16297D01*
X15124Y16307D01*
X15103Y16321D01*
X15083Y16338D01*
X15064Y16356D01*
X15044Y16377D01*
X15026Y16403D01*
Y16405D01*
X15023Y16409D01*
X15019Y16418D01*
X15013Y16430D01*
X15005Y16446D01*
X14997Y16467D01*
X14989Y16491D01*
X14982Y16518D01*
X14972Y16549D01*
X14964Y16586D01*
X14956Y16627D01*
X14948Y16672D01*
X14943Y16723D01*
X14939Y16777D01*
X14937Y16838D01*
X14935Y16902D01*
Y16904D01*
Y16906D01*
Y16918D01*
Y16935D01*
X14937Y16959D01*
Y16988D01*
X14941Y17021D01*
X14943Y17058D01*
X14946Y17097D01*
X14958Y17179D01*
X14974Y17261D01*
X14984Y17298D01*
X14997Y17335D01*
X15011Y17368D01*
X15026Y17398D01*
X15028Y17400D01*
X15030Y17403D01*
X15036Y17411D01*
X15044Y17419D01*
X15064Y17442D01*
X15091Y17470D01*
X15126Y17495D01*
X15167Y17519D01*
X15188Y17526D01*
X15214Y17534D01*
X15239Y17538D01*
X15266Y17540D01*
X15280D01*
X15292Y17538D01*
D02*
G37*
G36*
X13298D02*
X13310Y17536D01*
X13325Y17532D01*
X13359Y17522D01*
X13378Y17515D01*
X13398Y17505D01*
X13417Y17493D01*
X13439Y17480D01*
X13458Y17464D01*
X13478Y17444D01*
X13497Y17423D01*
X13515Y17398D01*
X13517Y17396D01*
X13519Y17392D01*
X13522Y17382D01*
X13530Y17370D01*
X13536Y17355D01*
X13544Y17333D01*
X13554Y17310D01*
X13561Y17283D01*
X13571Y17249D01*
X13579Y17214D01*
X13587Y17173D01*
X13595Y17128D01*
X13600Y17078D01*
X13604Y17023D01*
X13606Y16965D01*
X13608Y16900D01*
Y16896D01*
Y16885D01*
Y16867D01*
X13606Y16842D01*
Y16814D01*
X13604Y16781D01*
X13600Y16744D01*
X13597Y16705D01*
X13585Y16623D01*
X13569Y16541D01*
X13558Y16502D01*
X13546Y16465D01*
X13530Y16432D01*
X13515Y16403D01*
X13513Y16401D01*
X13511Y16397D01*
X13505Y16389D01*
X13499Y16381D01*
X13478Y16358D01*
X13450Y16333D01*
X13415Y16307D01*
X13374Y16284D01*
X13353Y16276D01*
X13327Y16268D01*
X13302Y16264D01*
X13275Y16262D01*
X13269D01*
X13261Y16264D01*
X13249D01*
X13238Y16266D01*
X13222Y16270D01*
X13189Y16280D01*
X13169Y16288D01*
X13150Y16297D01*
X13130Y16307D01*
X13109Y16321D01*
X13089Y16338D01*
X13070Y16356D01*
X13050Y16377D01*
X13033Y16403D01*
Y16405D01*
X13029Y16409D01*
X13025Y16418D01*
X13019Y16430D01*
X13011Y16446D01*
X13004Y16467D01*
X12996Y16491D01*
X12988Y16518D01*
X12978Y16549D01*
X12970Y16586D01*
X12963Y16627D01*
X12955Y16672D01*
X12949Y16723D01*
X12945Y16777D01*
X12943Y16838D01*
X12941Y16902D01*
Y16904D01*
Y16906D01*
Y16918D01*
Y16935D01*
X12943Y16959D01*
Y16988D01*
X12947Y17021D01*
X12949Y17058D01*
X12953Y17097D01*
X12965Y17179D01*
X12980Y17261D01*
X12990Y17298D01*
X13004Y17335D01*
X13017Y17368D01*
X13033Y17398D01*
X13035Y17400D01*
X13037Y17403D01*
X13043Y17411D01*
X13050Y17419D01*
X13070Y17442D01*
X13097Y17470D01*
X13132Y17495D01*
X13173Y17519D01*
X13195Y17526D01*
X13220Y17534D01*
X13245Y17538D01*
X13273Y17540D01*
X13286D01*
X13298Y17538D01*
D02*
G37*
G36*
X6478Y17561D02*
Y17560D01*
X6476Y17548D01*
X6474Y17528D01*
X6473Y17507D01*
X6467Y17482D01*
X6461Y17458D01*
X6451Y17435D01*
X6439Y17413D01*
X6437Y17411D01*
X6434Y17405D01*
X6426Y17398D01*
X6416Y17388D01*
X6393Y17370D01*
X6379Y17363D01*
X6363Y17357D01*
X6361D01*
X6356Y17355D01*
X6344D01*
X6328Y17353D01*
X6305Y17351D01*
X6276Y17349D01*
X6240Y17347D01*
X6221Y17345D01*
X6178D01*
X6157Y17343D01*
X6131Y17341D01*
X6104Y17339D01*
X6077Y17337D01*
X6053Y17333D01*
X6043Y17331D01*
X6036Y17329D01*
X6034D01*
X6030Y17327D01*
X6022Y17324D01*
X6012Y17320D01*
X6002Y17312D01*
X5989Y17304D01*
X5975Y17292D01*
X5959Y17279D01*
X5958Y17277D01*
X5954Y17271D01*
X5946Y17263D01*
X5938Y17251D01*
X5928Y17236D01*
X5919Y17216D01*
X5909Y17195D01*
X5901Y17171D01*
Y17167D01*
X5897Y17160D01*
X5895Y17144D01*
X5891Y17123D01*
X5887Y17095D01*
X5883Y17064D01*
X5881Y17027D01*
X5880Y16986D01*
X5881Y16988D01*
X5883Y16994D01*
X5889Y17006D01*
X5897Y17017D01*
X5907Y17033D01*
X5919Y17050D01*
X5932Y17068D01*
X5950Y17087D01*
X5967Y17105D01*
X5989Y17123D01*
X6010Y17140D01*
X6036Y17156D01*
X6063Y17169D01*
X6092Y17179D01*
X6123Y17185D01*
X6157Y17187D01*
X6170D01*
X6180Y17185D01*
X6194Y17183D01*
X6207Y17179D01*
X6240Y17169D01*
X6260Y17162D01*
X6279Y17154D01*
X6299Y17142D01*
X6320Y17128D01*
X6342Y17113D01*
X6361Y17093D01*
X6383Y17074D01*
X6402Y17048D01*
X6404Y17046D01*
X6406Y17043D01*
X6412Y17035D01*
X6418Y17025D01*
X6428Y17011D01*
X6435Y16996D01*
X6445Y16978D01*
X6455Y16957D01*
X6465Y16933D01*
X6474Y16910D01*
X6492Y16853D01*
X6504Y16793D01*
X6506Y16760D01*
X6508Y16725D01*
Y16723D01*
Y16717D01*
Y16705D01*
X6506Y16691D01*
X6504Y16676D01*
X6502Y16654D01*
X6498Y16633D01*
X6494Y16610D01*
X6480Y16557D01*
X6473Y16530D01*
X6461Y16502D01*
X6447Y16475D01*
X6434Y16448D01*
X6416Y16420D01*
X6396Y16395D01*
X6395Y16393D01*
X6391Y16389D01*
X6385Y16383D01*
X6377Y16374D01*
X6365Y16364D01*
X6354Y16354D01*
X6338Y16340D01*
X6320Y16329D01*
X6303Y16317D01*
X6281Y16305D01*
X6235Y16284D01*
X6207Y16274D01*
X6180Y16268D01*
X6151Y16264D01*
X6119Y16262D01*
X6108D01*
X6098Y16264D01*
X6086D01*
X6075Y16266D01*
X6043Y16272D01*
X6008Y16282D01*
X5971Y16297D01*
X5934Y16317D01*
X5897Y16344D01*
X5895Y16346D01*
X5893Y16348D01*
X5881Y16360D01*
X5866Y16377D01*
X5846Y16401D01*
X5827Y16432D01*
X5805Y16467D01*
X5788Y16508D01*
X5774Y16555D01*
Y16557D01*
X5772Y16561D01*
Y16569D01*
X5770Y16578D01*
X5768Y16592D01*
X5766Y16608D01*
X5762Y16627D01*
X5761Y16649D01*
X5759Y16672D01*
X5755Y16699D01*
X5753Y16729D01*
X5751Y16762D01*
X5749Y16797D01*
Y16834D01*
X5747Y16873D01*
Y16916D01*
Y16920D01*
Y16929D01*
Y16947D01*
X5749Y16970D01*
X5751Y16996D01*
X5753Y17027D01*
X5755Y17062D01*
X5759Y17099D01*
X5770Y17175D01*
X5788Y17253D01*
X5800Y17292D01*
X5813Y17327D01*
X5827Y17359D01*
X5844Y17388D01*
X5846Y17390D01*
X5848Y17394D01*
X5854Y17402D01*
X5864Y17409D01*
X5876Y17421D01*
X5889Y17433D01*
X5905Y17446D01*
X5924Y17460D01*
X5948Y17472D01*
X5973Y17485D01*
X6000Y17497D01*
X6034Y17509D01*
X6069Y17517D01*
X6106Y17524D01*
X6149Y17528D01*
X6194Y17530D01*
X6295D01*
X6303Y17532D01*
X6311Y17534D01*
X6320Y17538D01*
X6330Y17544D01*
X6336Y17552D01*
X6342Y17563D01*
X6478D01*
Y17561D01*
D02*
G37*
%LPC*%
G36*
X13064Y4143D02*
X12867Y4002D01*
Y3823D01*
X12777D01*
Y4143D01*
Y3634D01*
X12867D01*
Y3236D01*
Y3208D01*
Y3183D01*
X12869Y3160D01*
Y3140D01*
Y3121D01*
X12871Y3105D01*
X12873Y3078D01*
X12875Y3056D01*
X12877Y3043D01*
X12879Y3035D01*
Y3033D01*
X12886Y3009D01*
X12894Y2988D01*
X12904Y2970D01*
X12916Y2955D01*
X12924Y2945D01*
X12931Y2935D01*
X12937Y2931D01*
X12939Y2929D01*
X12957Y2918D01*
X12976Y2910D01*
X12996Y2902D01*
X13015Y2898D01*
X13033Y2896D01*
X13046Y2894D01*
X12777D01*
X13058D01*
X13089Y2896D01*
X13121Y2900D01*
X13146Y2906D01*
X13169Y2912D01*
X13189Y2918D01*
X13202Y2924D01*
X13210Y2927D01*
X13214Y2929D01*
X13197Y3115D01*
X13179Y3107D01*
X13163Y3103D01*
X13150Y3099D01*
X13138Y3095D01*
X13130D01*
X13124Y3093D01*
X13119D01*
X13107Y3095D01*
X13095Y3099D01*
X13087Y3103D01*
X13080Y3111D01*
X13072Y3121D01*
X13070Y3124D01*
Y3126D01*
Y3130D01*
X13068Y3138D01*
X13066Y3156D01*
Y3179D01*
X13064Y3202D01*
Y3226D01*
Y3245D01*
Y3253D01*
Y3259D01*
Y3263D01*
Y3265D01*
Y3634D01*
X13199D01*
Y3823D01*
X13064D01*
Y4143D01*
D02*
G37*
G36*
X12356Y3844D02*
X12332D01*
X12280Y3840D01*
X12233Y3833D01*
X12192Y3819D01*
X12159Y3805D01*
X12133Y3792D01*
X12116Y3778D01*
X12104Y3770D01*
X12100Y3766D01*
X12073Y3735D01*
X12053Y3702D01*
X12040Y3669D01*
X12030Y3636D01*
X12024Y3608D01*
X12022Y3585D01*
X12020Y3575D01*
Y3569D01*
Y3565D01*
Y3563D01*
X12024Y3518D01*
X12032Y3479D01*
X12046Y3446D01*
X12061Y3417D01*
X12075Y3394D01*
X12089Y3378D01*
X12096Y3368D01*
X12100Y3364D01*
X12114Y3353D01*
X12133Y3343D01*
X12153Y3331D01*
X12176Y3321D01*
X12227Y3300D01*
X12280Y3280D01*
X12305Y3273D01*
X12329Y3265D01*
X12350Y3259D01*
X12370Y3253D01*
X12385Y3247D01*
X12399Y3245D01*
X12407Y3241D01*
X12409D01*
X12426Y3238D01*
X12440Y3232D01*
X12449Y3228D01*
X12459Y3222D01*
X12465Y3218D01*
X12469Y3216D01*
X12473Y3212D01*
X12483Y3197D01*
X12487Y3183D01*
X12488Y3171D01*
Y3167D01*
Y3165D01*
X12487Y3150D01*
X12483Y3136D01*
X12477Y3124D01*
X12471Y3115D01*
X12465Y3107D01*
X12459Y3101D01*
X12455Y3097D01*
X12453Y3095D01*
X12440Y3085D01*
X12422Y3080D01*
X12387Y3072D01*
X12371Y3070D01*
X12360Y3068D01*
X12348D01*
X12325Y3070D01*
X12303Y3074D01*
X12284Y3082D01*
X12268Y3089D01*
X12252Y3101D01*
X12241Y3113D01*
X12219Y3140D01*
X12206Y3165D01*
X12196Y3189D01*
X12194Y3197D01*
X12192Y3204D01*
X12190Y3208D01*
Y3210D01*
X11993Y3173D01*
X12007Y3124D01*
X12022Y3083D01*
X12042Y3046D01*
X12063Y3017D01*
X12081Y2994D01*
X12096Y2978D01*
X12108Y2968D01*
X12112Y2964D01*
X12149Y2941D01*
X12188Y2924D01*
X12227Y2912D01*
X12264Y2904D01*
X12297Y2898D01*
X12311Y2896D01*
X12325D01*
X12334Y2894D01*
X11993D01*
X12348D01*
X12377Y2896D01*
X12405Y2898D01*
X12453Y2908D01*
X12496Y2922D01*
X12531Y2937D01*
X12559Y2951D01*
X12570Y2959D01*
X12580Y2964D01*
X12586Y2970D01*
X12592Y2974D01*
X12594Y2978D01*
X12596D01*
X12611Y2996D01*
X12627Y3011D01*
X12648Y3048D01*
X12666Y3085D01*
X12676Y3121D01*
X12684Y3150D01*
X12686Y3163D01*
Y3175D01*
X12687Y3183D01*
Y3197D01*
D01*
Y3201D01*
Y3197D01*
X12686Y3236D01*
X12678Y3271D01*
X12670Y3300D01*
X12658Y3325D01*
X12648Y3345D01*
X12639Y3360D01*
X12631Y3368D01*
X12629Y3372D01*
X12617Y3384D01*
X12602Y3396D01*
X12568Y3417D01*
X12531Y3437D01*
X12494Y3452D01*
X12459Y3466D01*
X12444Y3470D01*
X12432Y3476D01*
X12420Y3479D01*
X12412Y3481D01*
X12407Y3483D01*
X12405D01*
X12379Y3491D01*
X12356Y3497D01*
X12334Y3505D01*
X12315Y3511D01*
X12299Y3517D01*
X12286Y3520D01*
X12274Y3526D01*
X12262Y3530D01*
X12247Y3536D01*
X12237Y3542D01*
X12233Y3546D01*
X12231D01*
X12223Y3554D01*
X12217Y3561D01*
X12210Y3577D01*
X12206Y3591D01*
Y3593D01*
Y3595D01*
X12208Y3606D01*
X12210Y3618D01*
X12221Y3636D01*
X12231Y3647D01*
X12233Y3651D01*
X12235D01*
X12249Y3659D01*
X12264Y3663D01*
X12297Y3671D01*
X12313D01*
X12325Y3673D01*
X12336D01*
X12358Y3671D01*
X12375Y3669D01*
X12407Y3655D01*
X12432Y3637D01*
X12449Y3618D01*
X12463Y3598D01*
X12471Y3581D01*
X12475Y3567D01*
X12477Y3565D01*
Y3563D01*
X12662Y3604D01*
X12648Y3647D01*
X12633Y3686D01*
X12615Y3717D01*
X12598Y3743D01*
X12580Y3760D01*
X12567Y3776D01*
X12559Y3784D01*
X12555Y3786D01*
X12524Y3805D01*
X12488Y3819D01*
X12451Y3831D01*
X12414Y3836D01*
X12383Y3840D01*
X12370Y3842D01*
X12356Y3844D01*
D02*
G37*
G36*
X8019Y3844D02*
X7317D01*
X7676D01*
X7647Y3842D01*
X7620Y3838D01*
X7592Y3833D01*
X7569Y3825D01*
X7524Y3805D01*
X7487Y3784D01*
X7471Y3772D01*
X7456Y3760D01*
X7444Y3751D01*
X7434Y3741D01*
X7426Y3733D01*
X7421Y3727D01*
X7419Y3723D01*
X7417Y3721D01*
X7399Y3698D01*
X7383Y3671D01*
X7370Y3643D01*
X7360Y3614D01*
X7341Y3556D01*
X7329Y3497D01*
X7325Y3472D01*
X7323Y3446D01*
X7321Y3425D01*
X7319Y3405D01*
X7317Y3388D01*
D01*
D01*
Y2894D01*
Y3366D01*
X7319Y3331D01*
X7321Y3296D01*
X7331Y3232D01*
X7337Y3202D01*
X7344Y3175D01*
X7352Y3150D01*
X7362Y3126D01*
X7370Y3105D01*
X7378Y3087D01*
X7385Y3072D01*
X7391Y3058D01*
X7397Y3046D01*
X7401Y3039D01*
X7405Y3035D01*
Y3033D01*
X7422Y3009D01*
X7442Y2988D01*
X7461Y2968D01*
X7485Y2953D01*
X7506Y2939D01*
X7528Y2927D01*
X7551Y2920D01*
X7573Y2912D01*
X7612Y2902D01*
X7629Y2898D01*
X7645Y2896D01*
X7657Y2894D01*
X7674D01*
X7725Y2898D01*
X7772Y2908D01*
X7813Y2925D01*
X7848Y2945D01*
X7881Y2970D01*
X7908Y3000D01*
X7934Y3029D01*
X7953Y3060D01*
X7971Y3089D01*
X7986Y3121D01*
X7996Y3148D01*
X8006Y3173D01*
X8012Y3193D01*
X8016Y3210D01*
X8019Y3220D01*
Y2925D01*
Y3220D01*
Y3224D01*
X7826Y3261D01*
X7820Y3228D01*
X7811Y3199D01*
X7803Y3175D01*
X7795Y3158D01*
X7785Y3144D01*
X7779Y3134D01*
X7776Y3128D01*
X7774Y3126D01*
X7760Y3115D01*
X7744Y3105D01*
X7729Y3099D01*
X7713Y3093D01*
X7701Y3091D01*
X7692Y3089D01*
X7682D01*
X7655Y3091D01*
X7631Y3099D01*
X7610Y3111D01*
X7592Y3122D01*
X7579Y3134D01*
X7569Y3146D01*
X7563Y3154D01*
X7561Y3156D01*
X7553Y3169D01*
X7547Y3185D01*
X7536Y3220D01*
X7528Y3257D01*
X7524Y3294D01*
X7520Y3329D01*
Y3345D01*
X7518Y3359D01*
Y3368D01*
Y3376D01*
Y3382D01*
Y3384D01*
Y3411D01*
X7520Y3435D01*
X7524Y3478D01*
X7532Y3515D01*
X7540Y3544D01*
X7547Y3565D01*
X7555Y3581D01*
X7559Y3591D01*
X7561Y3593D01*
X7579Y3614D01*
X7598Y3630D01*
X7618Y3639D01*
X7637Y3647D01*
X7655Y3651D01*
X7668Y3655D01*
X7680D01*
X7699Y3653D01*
X7719Y3649D01*
X7735Y3641D01*
X7748Y3634D01*
X7774Y3610D01*
X7791Y3585D01*
X7803Y3557D01*
X7811Y3534D01*
X7815Y3526D01*
Y3518D01*
X7817Y3515D01*
Y3513D01*
X8010Y3556D01*
X7994Y3608D01*
X7975Y3653D01*
X7955Y3690D01*
X7936Y3721D01*
X7918Y3745D01*
X7904Y3760D01*
X7895Y3770D01*
X7891Y3774D01*
X7857Y3797D01*
X7822Y3815D01*
X7787Y3827D01*
X7752Y3836D01*
X7723Y3840D01*
X7709Y3842D01*
X7698D01*
X7690Y3844D01*
X8019D01*
D02*
G37*
G36*
X10661D02*
X10643D01*
X10604Y3842D01*
X10567Y3836D01*
X10536Y3827D01*
X10507Y3817D01*
X10483Y3805D01*
X10466Y3797D01*
X10454Y3790D01*
X10452Y3788D01*
X10450D01*
X10421Y3764D01*
X10393Y3739D01*
X10370Y3712D01*
X10351Y3686D01*
X10335Y3661D01*
X10323Y3641D01*
X10319Y3634D01*
X10315Y3628D01*
X10313Y3626D01*
Y3624D01*
X10296Y3583D01*
X10282Y3540D01*
X10274Y3499D01*
X10267Y3462D01*
X10263Y3431D01*
Y3417D01*
X10261Y3405D01*
Y3419D01*
Y2894D01*
X11027D01*
X10643D01*
X10680Y2896D01*
X10717Y2904D01*
X10748Y2912D01*
X10776Y2924D01*
X10799Y2933D01*
X10817Y2943D01*
X10828Y2949D01*
X10832Y2951D01*
X10864Y2974D01*
X10891Y3002D01*
X10916Y3029D01*
X10936Y3056D01*
X10951Y3082D01*
X10963Y3103D01*
X10967Y3109D01*
X10971Y3115D01*
X10973Y3119D01*
Y3121D01*
X10990Y3163D01*
X11004Y3208D01*
X11014Y3251D01*
X11022Y3290D01*
X11025Y3323D01*
Y3339D01*
X11027Y3351D01*
Y3374D01*
X11025Y3409D01*
X11024Y3442D01*
X11012Y3505D01*
X10994Y3559D01*
X10984Y3585D01*
X10977Y3608D01*
X10967Y3630D01*
X10957Y3647D01*
X10947Y3663D01*
X10940Y3676D01*
X10934Y3688D01*
X10928Y3696D01*
X10926Y3700D01*
X10924Y3702D01*
X10905Y3727D01*
X10883Y3749D01*
X10860Y3768D01*
X10838Y3784D01*
X10815Y3797D01*
X10791Y3809D01*
X10768Y3819D01*
X10747Y3827D01*
X10706Y3836D01*
X10688Y3840D01*
X10672Y3842D01*
X10661Y3844D01*
D02*
G37*
G36*
X9285Y3489D02*
X8897D01*
Y3249D01*
X9285D01*
Y3489D01*
D02*
G37*
G36*
X7157Y3823D02*
X6960D01*
Y3438D01*
Y3405D01*
Y3376D01*
X6958Y3349D01*
Y3323D01*
X6956Y3302D01*
Y3282D01*
X6954Y3265D01*
Y3251D01*
X6952Y3238D01*
X6950Y3228D01*
X6948Y3212D01*
X6946Y3202D01*
Y3201D01*
X6941Y3181D01*
X6933Y3163D01*
X6923Y3148D01*
X6913Y3136D01*
X6904Y3124D01*
X6898Y3117D01*
X6892Y3113D01*
X6890Y3111D01*
X6874Y3099D01*
X6859Y3091D01*
X6843Y3085D01*
X6829Y3082D01*
X6818Y3080D01*
X6808Y3078D01*
X6800D01*
X6785Y3080D01*
X6769Y3082D01*
X6757Y3085D01*
X6746Y3091D01*
X6736Y3095D01*
X6730Y3099D01*
X6726Y3101D01*
X6724Y3103D01*
X6707Y3126D01*
X6693Y3150D01*
X6689Y3161D01*
X6687Y3169D01*
X6685Y3175D01*
Y3177D01*
X6683Y3187D01*
Y3201D01*
X6681Y3216D01*
Y3234D01*
X6679Y3271D01*
Y3310D01*
X6677Y3347D01*
Y3362D01*
Y3376D01*
Y3388D01*
Y3398D01*
Y3403D01*
Y3405D01*
Y3823D01*
X6819D01*
X6480D01*
Y2894D01*
Y3247D01*
X6482Y3201D01*
X6484Y3158D01*
X6488Y3122D01*
X6494Y3093D01*
X6500Y3070D01*
X6504Y3054D01*
X6506Y3044D01*
X6508Y3041D01*
X6519Y3015D01*
X6533Y2994D01*
X6549Y2974D01*
X6562Y2961D01*
X6574Y2947D01*
X6584Y2939D01*
X6591Y2933D01*
X6593Y2931D01*
X6617Y2920D01*
X6638Y2910D01*
X6662Y2904D01*
X6681Y2898D01*
X6699Y2896D01*
X6714Y2894D01*
X7157D01*
Y3823D01*
D02*
G37*
G36*
X8347Y4166D02*
X8150D01*
Y2916D01*
X8837D01*
D01*
X8564Y3489D01*
X8819Y3823D01*
X8577D01*
X8347Y3505D01*
Y4166D01*
D02*
G37*
G36*
X5903D02*
X5450D01*
Y2916D01*
X6311D01*
X5878D01*
X5911Y2918D01*
X5940D01*
X5967Y2920D01*
X5991D01*
X6010Y2922D01*
X6030Y2924D01*
X6043D01*
X6057Y2925D01*
X6067D01*
X6075Y2927D01*
X6080D01*
X6084Y2929D01*
X6088D01*
X6121Y2941D01*
X6151Y2957D01*
X6178Y2976D01*
X6199Y2998D01*
X6219Y3015D01*
X6233Y3031D01*
X6240Y3043D01*
X6244Y3044D01*
Y3046D01*
X6266Y3083D01*
X6283Y3122D01*
X6295Y3160D01*
X6303Y3197D01*
X6307Y3228D01*
X6309Y3241D01*
X6311Y3253D01*
Y3277D01*
X6309Y3318D01*
X6303Y3355D01*
X6293Y3388D01*
X6285Y3415D01*
X6275Y3437D01*
X6266Y3454D01*
X6260Y3464D01*
X6258Y3468D01*
X6236Y3495D01*
X6215Y3518D01*
X6192Y3538D01*
X6168Y3554D01*
X6149Y3565D01*
X6133Y3573D01*
X6121Y3577D01*
X6119Y3579D01*
X6117D01*
X6139Y3595D01*
X6160Y3610D01*
X6178Y3628D01*
X6194Y3645D01*
X6205Y3661D01*
X6213Y3675D01*
X6219Y3682D01*
X6221Y3686D01*
X6234Y3716D01*
X6244Y3743D01*
X6252Y3770D01*
X6256Y3795D01*
X6260Y3817D01*
X6262Y3835D01*
Y3846D01*
Y3850D01*
X6260Y3885D01*
X6254Y3918D01*
X6246Y3948D01*
X6238Y3975D01*
X6229Y3996D01*
X6221Y4012D01*
X6215Y4022D01*
X6213Y4026D01*
X6195Y4053D01*
X6176Y4076D01*
X6156Y4094D01*
X6139Y4110D01*
X6121Y4121D01*
X6110Y4129D01*
X6102Y4133D01*
X6098Y4135D01*
X6084Y4141D01*
X6069Y4145D01*
X6032Y4152D01*
X5993Y4158D01*
X5954Y4162D01*
X5918Y4164D01*
X5903Y4166D01*
D02*
G37*
G36*
X11537Y3844D02*
X11519D01*
X11480Y3842D01*
X11443Y3836D01*
X11412Y3827D01*
X11382Y3817D01*
X11359Y3805D01*
X11341Y3797D01*
X11330Y3790D01*
X11328Y3788D01*
X11326D01*
X11297Y3764D01*
X11269Y3739D01*
X11246Y3712D01*
X11226Y3686D01*
X11211Y3661D01*
X11199Y3641D01*
X11195Y3634D01*
X11191Y3628D01*
X11189Y3626D01*
Y3624D01*
X11172Y3583D01*
X11158Y3540D01*
X11150Y3499D01*
X11142Y3462D01*
X11139Y3431D01*
Y3417D01*
X11137Y3405D01*
Y2894D01*
X11903D01*
X11519D01*
X11556Y2896D01*
X11593Y2904D01*
X11624Y2912D01*
X11652Y2924D01*
X11675Y2933D01*
X11693Y2943D01*
X11704Y2949D01*
X11708Y2951D01*
X11739Y2974D01*
X11767Y3002D01*
X11792Y3029D01*
X11812Y3056D01*
X11827Y3082D01*
X11839Y3103D01*
X11843Y3109D01*
X11847Y3115D01*
X11849Y3119D01*
Y3121D01*
X11866Y3163D01*
X11880Y3208D01*
X11890Y3251D01*
X11897Y3290D01*
X11901Y3323D01*
Y3339D01*
X11903Y3351D01*
Y3374D01*
X11901Y3409D01*
X11899Y3442D01*
X11888Y3505D01*
X11870Y3559D01*
X11860Y3585D01*
X11853Y3608D01*
X11843Y3630D01*
X11833Y3647D01*
X11823Y3663D01*
X11816Y3676D01*
X11810Y3688D01*
X11804Y3696D01*
X11802Y3700D01*
X11800Y3702D01*
X11780Y3727D01*
X11759Y3749D01*
X11736Y3768D01*
X11714Y3784D01*
X11691Y3797D01*
X11667Y3809D01*
X11644Y3819D01*
X11622Y3827D01*
X11581Y3836D01*
X11564Y3840D01*
X11548Y3842D01*
X11537Y3844D01*
D02*
G37*
G36*
X10150Y4166D02*
X9424D01*
Y2916D01*
X9607D01*
Y3048D01*
X9625Y3021D01*
X9642Y2998D01*
X9658Y2978D01*
X9676Y2963D01*
X9689Y2949D01*
X9701Y2941D01*
X9709Y2935D01*
X9711Y2933D01*
X9734Y2920D01*
X9757Y2910D01*
X9779Y2904D01*
X9798Y2900D01*
X9814Y2896D01*
X9826Y2894D01*
X9837D01*
X9861Y2896D01*
X9882Y2900D01*
X9904Y2906D01*
X9925Y2914D01*
X9962Y2933D01*
X9994Y2957D01*
X10019Y2978D01*
X10040Y2998D01*
X10046Y3005D01*
X10052Y3011D01*
X10054Y3015D01*
X10056Y3017D01*
X10072Y3043D01*
X10087Y3068D01*
X10111Y3126D01*
X10126Y3185D01*
X10138Y3243D01*
X10142Y3269D01*
X10146Y3294D01*
X10148Y3316D01*
Y3335D01*
X10150Y3353D01*
Y3417D01*
X10146Y3456D01*
X10142Y3493D01*
X10136Y3526D01*
X10128Y3559D01*
X10120Y3587D01*
X10113Y3614D01*
X10105Y3637D01*
X10095Y3657D01*
X10087Y3675D01*
X10079Y3690D01*
X10072Y3704D01*
X10066Y3714D01*
X10062Y3719D01*
X10060Y3723D01*
X10058Y3725D01*
X10040Y3747D01*
X10023Y3764D01*
X10003Y3780D01*
X9984Y3794D01*
X9966Y3805D01*
X9947Y3815D01*
X9912Y3829D01*
X9882Y3838D01*
X9869Y3840D01*
X9857Y3842D01*
X9849Y3844D01*
X9836D01*
X9812Y3842D01*
X9791Y3838D01*
X9771Y3835D01*
X9754Y3829D01*
X9740Y3821D01*
X9728Y3817D01*
X9720Y3813D01*
X9718Y3811D01*
X9699Y3797D01*
X9681Y3784D01*
X9664Y3768D01*
X9650Y3753D01*
X9638Y3739D01*
X9629Y3727D01*
X9623Y3719D01*
X9621Y3717D01*
Y4166D01*
X10150D01*
D02*
G37*
G36*
X7769Y2629D02*
X7609D01*
X7593Y2588D01*
X7576Y2551D01*
X7554Y2515D01*
X7535Y2486D01*
X7515Y2463D01*
X7500Y2445D01*
X7490Y2433D01*
X7488Y2432D01*
X7486Y2430D01*
X7453Y2400D01*
X7422Y2377D01*
X7394Y2355D01*
X7369Y2340D01*
X7347Y2328D01*
X7330Y2318D01*
X7320Y2315D01*
X7316Y2313D01*
Y2629D01*
Y1372D01*
Y2094D01*
X7369Y2117D01*
X7418Y2147D01*
X7461Y2176D01*
X7498Y2205D01*
X7529Y2233D01*
X7542Y2244D01*
X7552Y2256D01*
X7560Y2264D01*
X7566Y2270D01*
X7570Y2274D01*
X7572Y2275D01*
Y1372D01*
X7316D01*
X7769D01*
Y2629D01*
D02*
G37*
G36*
X8448D02*
X8061D01*
Y1351D01*
D01*
Y1981D01*
X8063Y1920D01*
X8065Y1864D01*
X8071Y1811D01*
X8077Y1762D01*
X8085Y1720D01*
X8093Y1681D01*
X8102Y1643D01*
X8112Y1612D01*
X8120Y1585D01*
X8130Y1562D01*
X8137Y1542D01*
X8145Y1524D01*
X8151Y1513D01*
X8157Y1505D01*
X8159Y1499D01*
X8161Y1497D01*
X8180Y1472D01*
X8202Y1448D01*
X8221Y1429D01*
X8243Y1413D01*
X8264Y1398D01*
X8286Y1386D01*
X8307Y1376D01*
X8327Y1368D01*
X8362Y1359D01*
X8377Y1355D01*
X8391Y1353D01*
X8401D01*
X8411Y1351D01*
X8061D01*
X8416D01*
X8442Y1353D01*
X8467Y1355D01*
X8491Y1361D01*
X8512Y1368D01*
X8553Y1386D01*
X8588Y1407D01*
X8615Y1427D01*
X8635Y1444D01*
X8643Y1452D01*
X8649Y1458D01*
X8650Y1460D01*
X8652Y1462D01*
X8670Y1483D01*
X8684Y1509D01*
X8697Y1532D01*
X8707Y1560D01*
X8725Y1610D01*
X8736Y1661D01*
X8740Y1684D01*
X8742Y1706D01*
X8746Y1725D01*
Y1741D01*
X8748Y1755D01*
Y1807D01*
X8744Y1840D01*
X8734Y1899D01*
X8727Y1926D01*
X8719Y1950D01*
X8711Y1973D01*
X8703Y1993D01*
X8693Y2010D01*
X8686Y2028D01*
X8678Y2041D01*
X8670Y2051D01*
X8664Y2061D01*
X8660Y2067D01*
X8658Y2071D01*
X8656Y2073D01*
X8639Y2092D01*
X8621Y2110D01*
X8604Y2125D01*
X8586Y2139D01*
X8569Y2149D01*
X8551Y2158D01*
X8518Y2172D01*
X8489Y2180D01*
X8465Y2184D01*
X8457Y2186D01*
X8446D01*
X8426Y2184D01*
X8407Y2182D01*
X8391Y2178D01*
X8375Y2172D01*
X8364Y2166D01*
X8354Y2162D01*
X8348Y2160D01*
X8346Y2158D01*
X8331Y2147D01*
X8315Y2135D01*
X8301Y2121D01*
X8288Y2108D01*
X8278Y2096D01*
X8270Y2086D01*
X8266Y2080D01*
X8264Y2078D01*
X8266Y2117D01*
X8270Y2153D01*
X8272Y2184D01*
X8276Y2213D01*
X8282Y2238D01*
X8286Y2262D01*
X8290Y2281D01*
X8293Y2299D01*
X8299Y2315D01*
X8303Y2328D01*
X8307Y2338D01*
X8311Y2348D01*
X8313Y2354D01*
X8315Y2357D01*
X8317Y2361D01*
X8334Y2385D01*
X8352Y2402D01*
X8370Y2414D01*
X8385Y2424D01*
X8401Y2428D01*
X8412Y2430D01*
X8420Y2432D01*
X8422D01*
X8440Y2430D01*
X8455Y2426D01*
X8469Y2418D01*
X8483Y2410D01*
X8502Y2389D01*
X8516Y2363D01*
X8526Y2336D01*
X8531Y2315D01*
X8533Y2307D01*
X8535Y2299D01*
Y2295D01*
Y2293D01*
X8728Y2318D01*
X8719Y2373D01*
X8703Y2420D01*
X8688Y2461D01*
X8670Y2494D01*
X8654Y2517D01*
X8641Y2537D01*
X8631Y2547D01*
X8627Y2551D01*
X8596Y2576D01*
X8565Y2595D01*
X8531Y2609D01*
X8502Y2619D01*
X8475Y2625D01*
X8455Y2627D01*
X8448Y2629D01*
D02*
G37*
G36*
X11348Y2623D02*
X11126D01*
X10876Y1696D01*
X10617Y2623D01*
X10392D01*
X10757Y1372D01*
X10392D01*
Y2623D01*
D01*
Y1372D01*
X11348D01*
D01*
X10982D01*
X11348Y2623D01*
D01*
D02*
G37*
G36*
X9585Y2629D02*
X9569D01*
X9544Y2627D01*
X9519Y2623D01*
X9497Y2619D01*
X9474Y2611D01*
X9435Y2592D01*
X9400Y2572D01*
X9372Y2551D01*
X9353Y2531D01*
X9345Y2523D01*
X9339Y2519D01*
X9337Y2515D01*
X9335Y2513D01*
X9320Y2492D01*
X9304Y2469D01*
X9281Y2418D01*
X9265Y2365D01*
X9253Y2316D01*
X9249Y2293D01*
X9247Y2272D01*
X9243Y2252D01*
Y2236D01*
X9242Y2223D01*
Y1351D01*
D01*
Y2203D01*
X9243Y2170D01*
X9245Y2137D01*
X9249Y2108D01*
X9255Y2078D01*
X9263Y2053D01*
X9271Y2028D01*
X9279Y2006D01*
X9286Y1985D01*
X9294Y1967D01*
X9302Y1952D01*
X9310Y1938D01*
X9318Y1926D01*
X9323Y1918D01*
X9327Y1913D01*
X9331Y1909D01*
Y1907D01*
X9349Y1887D01*
X9366Y1870D01*
X9384Y1856D01*
X9401Y1842D01*
X9419Y1833D01*
X9437Y1823D01*
X9468Y1809D01*
X9497Y1801D01*
X9519Y1798D01*
X9526Y1796D01*
X9538D01*
X9559Y1798D01*
X9577Y1800D01*
X9595Y1803D01*
X9610Y1809D01*
X9622Y1813D01*
X9632Y1817D01*
X9638Y1819D01*
X9639Y1821D01*
X9657Y1833D01*
X9673Y1844D01*
X9686Y1858D01*
X9700Y1870D01*
X9710Y1881D01*
X9717Y1891D01*
X9721Y1897D01*
X9723Y1899D01*
X9721Y1862D01*
X9717Y1827D01*
X9714Y1796D01*
X9710Y1766D01*
X9706Y1741D01*
X9702Y1718D01*
X9698Y1698D01*
X9692Y1681D01*
X9688Y1665D01*
X9684Y1651D01*
X9680Y1641D01*
X9677Y1632D01*
X9675Y1626D01*
X9673Y1622D01*
X9671Y1618D01*
X9655Y1595D01*
X9638Y1579D01*
X9618Y1567D01*
X9602Y1558D01*
X9587Y1554D01*
X9575Y1552D01*
X9567Y1550D01*
X9563D01*
X9546Y1552D01*
X9530Y1556D01*
X9517Y1563D01*
X9505Y1571D01*
X9485Y1593D01*
X9472Y1620D01*
X9464Y1645D01*
X9458Y1667D01*
X9456Y1675D01*
X9454Y1682D01*
Y1686D01*
Y1688D01*
X9261Y1663D01*
X9265Y1634D01*
X9271Y1606D01*
X9284Y1560D01*
X9300Y1519D01*
X9316Y1485D01*
X9331Y1460D01*
X9345Y1441D01*
X9353Y1431D01*
X9357Y1427D01*
X9386Y1402D01*
X9419Y1382D01*
X9450Y1370D01*
X9481Y1361D01*
X9509Y1355D01*
X9530Y1353D01*
X9538Y1351D01*
X9242D01*
X9550D01*
X9581Y1353D01*
X9610Y1357D01*
X9638Y1365D01*
X9663Y1374D01*
X9710Y1398D01*
X9731Y1411D01*
X9749Y1427D01*
X9766Y1441D01*
X9780Y1454D01*
X9794Y1466D01*
X9803Y1478D01*
X9811Y1487D01*
X9819Y1495D01*
X9821Y1499D01*
X9823Y1501D01*
X9842Y1532D01*
X9858Y1565D01*
X9872Y1602D01*
X9883Y1641D01*
X9903Y1723D01*
X9915Y1805D01*
X9920Y1844D01*
X9922Y1879D01*
X9924Y1913D01*
X9926Y1940D01*
X9928Y1963D01*
Y1997D01*
X9926Y2059D01*
X9924Y2116D01*
X9918Y2168D01*
X9913Y2215D01*
X9905Y2260D01*
X9897Y2299D01*
X9887Y2336D01*
X9877Y2367D01*
X9868Y2394D01*
X9858Y2418D01*
X9850Y2437D01*
X9842Y2455D01*
X9836Y2467D01*
X9831Y2474D01*
X9829Y2480D01*
X9827Y2482D01*
X9807Y2508D01*
X9786Y2531D01*
X9766Y2551D01*
X9743Y2566D01*
X9721Y2582D01*
X9700Y2593D01*
X9680Y2603D01*
X9661Y2611D01*
X9624Y2621D01*
X9608Y2625D01*
X9595Y2627D01*
X9585Y2629D01*
D02*
G37*
G36*
X9199Y2644D02*
X9050D01*
X8797Y1351D01*
X9199D01*
X8941D01*
X9199Y2644D01*
D02*
G37*
G36*
X8797D02*
Y1351D01*
D01*
Y2644D01*
D02*
G37*
%LPD*%
G36*
X10670Y3645D02*
X10694Y3637D01*
X10717Y3626D01*
X10735Y3614D01*
X10750Y3600D01*
X10762Y3589D01*
X10770Y3581D01*
X10772Y3577D01*
X10789Y3548D01*
X10803Y3515D01*
X10813Y3479D01*
X10821Y3446D01*
X10825Y3417D01*
Y3403D01*
X10826Y3392D01*
Y3384D01*
Y3376D01*
Y3372D01*
Y3370D01*
X10825Y3321D01*
X10819Y3279D01*
X10809Y3243D01*
X10799Y3212D01*
X10789Y3189D01*
X10780Y3173D01*
X10774Y3163D01*
X10772Y3160D01*
X10750Y3136D01*
X10729Y3119D01*
X10709Y3107D01*
X10688Y3099D01*
X10670Y3093D01*
X10657Y3091D01*
X10649Y3089D01*
X10645D01*
X10618Y3093D01*
X10592Y3101D01*
X10571Y3111D01*
X10551Y3124D01*
X10536Y3138D01*
X10524Y3148D01*
X10516Y3156D01*
X10514Y3160D01*
X10497Y3189D01*
X10483Y3222D01*
X10475Y3257D01*
X10468Y3290D01*
X10464Y3321D01*
Y3333D01*
X10462Y3345D01*
Y3355D01*
Y3362D01*
Y3366D01*
Y3368D01*
X10464Y3417D01*
X10469Y3458D01*
X10479Y3495D01*
X10489Y3524D01*
X10497Y3548D01*
X10507Y3563D01*
X10512Y3573D01*
X10514Y3577D01*
X10536Y3600D01*
X10557Y3618D01*
X10579Y3632D01*
X10598Y3639D01*
X10616Y3645D01*
X10631Y3647D01*
X10639Y3649D01*
X10643D01*
X10670Y3645D01*
D02*
G37*
G36*
X10263Y3339D02*
X10265Y3298D01*
X10271Y3261D01*
X10278Y3226D01*
X10286Y3193D01*
X10294Y3163D01*
X10304Y3136D01*
X10315Y3113D01*
X10325Y3091D01*
X10335Y3072D01*
X10343Y3056D01*
X10351Y3043D01*
X10358Y3033D01*
X10364Y3025D01*
X10366Y3021D01*
X10368Y3019D01*
X10390Y2998D01*
X10411Y2978D01*
X10434Y2961D01*
X10458Y2947D01*
X10481Y2935D01*
X10503Y2925D01*
X10548Y2910D01*
X10585Y2900D01*
X10602Y2898D01*
X10616Y2896D01*
X10628Y2894D01*
X10261D01*
Y3382D01*
X10263Y3339D01*
D02*
G37*
G36*
X6974Y2916D02*
X7157D01*
Y2894D01*
X6726D01*
X6753Y2896D01*
X6779Y2900D01*
X6802Y2908D01*
X6822Y2916D01*
X6839Y2922D01*
X6853Y2929D01*
X6861Y2933D01*
X6865Y2935D01*
X6888Y2953D01*
X6909Y2970D01*
X6929Y2990D01*
X6945Y3007D01*
X6956Y3025D01*
X6966Y3039D01*
X6972Y3046D01*
X6974Y3050D01*
Y2916D01*
D02*
G37*
G36*
X8626D02*
X8347D01*
Y3206D01*
X8437Y3323D01*
X8626Y2916D01*
D02*
G37*
G36*
X5878Y3955D02*
X5895D01*
X5913Y3953D01*
X5938D01*
X5956Y3952D01*
X5967Y3950D01*
X5973Y3948D01*
X5975D01*
X5989Y3944D01*
X5998Y3938D01*
X6018Y3924D01*
X6026Y3916D01*
X6032Y3911D01*
X6034Y3907D01*
X6036Y3905D01*
X6043Y3891D01*
X6051Y3875D01*
X6057Y3846D01*
X6059Y3835D01*
X6061Y3825D01*
Y3817D01*
Y3815D01*
X6059Y3794D01*
X6057Y3774D01*
X6051Y3756D01*
X6045Y3743D01*
X6039Y3731D01*
X6036Y3723D01*
X6032Y3717D01*
X6030Y3716D01*
X6018Y3704D01*
X6004Y3694D01*
X5991Y3686D01*
X5977Y3680D01*
X5965Y3676D01*
X5956Y3675D01*
X5948Y3673D01*
X5940D01*
X5930Y3671D01*
X5885D01*
X5858Y3669D01*
X5657D01*
Y3957D01*
X5856D01*
X5878Y3955D01*
D02*
G37*
G36*
X5889Y3458D02*
X5907D01*
X5938Y3456D01*
X5961Y3452D01*
X5979Y3450D01*
X5993Y3446D01*
X5998Y3444D01*
X6000D01*
X6016Y3438D01*
X6030Y3429D01*
X6041Y3421D01*
X6051Y3411D01*
X6059Y3403D01*
X6065Y3396D01*
X6067Y3392D01*
X6069Y3390D01*
X6078Y3374D01*
X6084Y3359D01*
X6092Y3325D01*
X6094Y3312D01*
X6096Y3300D01*
Y3292D01*
Y3290D01*
X6094Y3269D01*
X6092Y3249D01*
X6088Y3232D01*
X6084Y3218D01*
X6078Y3206D01*
X6075Y3199D01*
X6073Y3193D01*
X6071Y3191D01*
X6061Y3177D01*
X6051Y3167D01*
X6041Y3158D01*
X6032Y3152D01*
X6024Y3146D01*
X6016Y3142D01*
X6012Y3140D01*
X6010D01*
X6002Y3138D01*
X5993Y3136D01*
X5969Y3134D01*
X5944Y3130D01*
X5917D01*
X5891Y3128D01*
X5657D01*
Y3460D01*
X5870D01*
X5889Y3458D01*
D02*
G37*
G36*
X11546Y3645D02*
X11570Y3637D01*
X11593Y3626D01*
X11611Y3614D01*
X11626Y3600D01*
X11638Y3589D01*
X11646Y3581D01*
X11648Y3577D01*
X11665Y3548D01*
X11679Y3515D01*
X11689Y3479D01*
X11696Y3446D01*
X11700Y3417D01*
Y3403D01*
X11702Y3392D01*
Y3384D01*
Y3376D01*
Y3372D01*
Y3370D01*
X11700Y3321D01*
X11695Y3279D01*
X11685Y3243D01*
X11675Y3212D01*
X11665Y3189D01*
X11656Y3173D01*
X11650Y3163D01*
X11648Y3160D01*
X11626Y3136D01*
X11605Y3119D01*
X11585Y3107D01*
X11564Y3099D01*
X11546Y3093D01*
X11533Y3091D01*
X11525Y3089D01*
X11521D01*
X11494Y3093D01*
X11468Y3101D01*
X11447Y3111D01*
X11427Y3124D01*
X11412Y3138D01*
X11400Y3148D01*
X11392Y3156D01*
X11390Y3160D01*
X11373Y3189D01*
X11359Y3222D01*
X11351Y3257D01*
X11343Y3290D01*
X11340Y3321D01*
Y3333D01*
X11338Y3345D01*
Y3355D01*
Y3362D01*
Y3366D01*
Y3368D01*
X11340Y3417D01*
X11345Y3458D01*
X11355Y3495D01*
X11365Y3524D01*
X11373Y3548D01*
X11382Y3563D01*
X11388Y3573D01*
X11390Y3577D01*
X11412Y3600D01*
X11433Y3618D01*
X11455Y3632D01*
X11474Y3639D01*
X11492Y3645D01*
X11507Y3647D01*
X11515Y3649D01*
X11519D01*
X11546Y3645D01*
D02*
G37*
G36*
X11139Y3339D02*
X11141Y3298D01*
X11146Y3261D01*
X11154Y3226D01*
X11162Y3193D01*
X11170Y3163D01*
X11180Y3136D01*
X11191Y3113D01*
X11201Y3091D01*
X11211Y3072D01*
X11219Y3056D01*
X11226Y3043D01*
X11234Y3033D01*
X11240Y3025D01*
X11242Y3021D01*
X11244Y3019D01*
X11265Y2998D01*
X11287Y2978D01*
X11310Y2961D01*
X11334Y2947D01*
X11357Y2935D01*
X11379Y2925D01*
X11423Y2910D01*
X11460Y2900D01*
X11478Y2898D01*
X11492Y2896D01*
X11503Y2894D01*
X11137D01*
Y3382D01*
X11139Y3339D01*
D02*
G37*
G36*
X9808Y3657D02*
X9832Y3649D01*
X9853Y3639D01*
X9869Y3626D01*
X9882Y3612D01*
X9894Y3602D01*
X9900Y3595D01*
X9902Y3591D01*
X9910Y3577D01*
X9917Y3561D01*
X9929Y3526D01*
X9937Y3489D01*
X9943Y3452D01*
X9947Y3419D01*
Y3405D01*
X9949Y3392D01*
Y3382D01*
Y3374D01*
Y3368D01*
Y3366D01*
X9947Y3314D01*
X9941Y3271D01*
X9933Y3234D01*
X9925Y3202D01*
X9917Y3179D01*
X9910Y3163D01*
X9904Y3154D01*
X9902Y3150D01*
X9884Y3128D01*
X9865Y3111D01*
X9845Y3099D01*
X9830Y3091D01*
X9814Y3087D01*
X9802Y3085D01*
X9793Y3083D01*
X9791D01*
X9773Y3085D01*
X9757Y3089D01*
X9744Y3093D01*
X9730Y3099D01*
X9718Y3105D01*
X9711Y3111D01*
X9705Y3113D01*
X9703Y3115D01*
X9689Y3128D01*
X9676Y3142D01*
X9656Y3173D01*
X9650Y3187D01*
X9644Y3199D01*
X9642Y3206D01*
X9640Y3208D01*
X9633Y3234D01*
X9629Y3263D01*
X9625Y3292D01*
X9621Y3321D01*
Y3347D01*
X9619Y3368D01*
Y3376D01*
Y3382D01*
Y3386D01*
Y3388D01*
X9621Y3437D01*
X9627Y3478D01*
X9635Y3513D01*
X9642Y3542D01*
X9650Y3565D01*
X9658Y3581D01*
X9664Y3589D01*
X9666Y3593D01*
X9685Y3616D01*
X9705Y3632D01*
X9724Y3643D01*
X9742Y3653D01*
X9759Y3657D01*
X9771Y3659D01*
X9779Y3661D01*
X9783D01*
X9808Y3657D01*
D02*
G37*
G36*
X8405Y2627D02*
X8377Y2623D01*
X8350Y2615D01*
X8323Y2605D01*
X8278Y2580D01*
X8239Y2552D01*
X8221Y2539D01*
X8208Y2525D01*
X8194Y2512D01*
X8184Y2500D01*
X8176Y2490D01*
X8171Y2482D01*
X8167Y2478D01*
X8165Y2476D01*
X8147Y2445D01*
X8132Y2412D01*
X8116Y2375D01*
X8104Y2336D01*
X8087Y2254D01*
X8075Y2172D01*
X8069Y2133D01*
X8067Y2098D01*
X8065Y2065D01*
X8063Y2037D01*
X8061Y2014D01*
Y2629D01*
X8436D01*
X8405Y2627D01*
D02*
G37*
G36*
X8438Y2006D02*
X8457Y2000D01*
X8473Y1991D01*
X8487Y1981D01*
X8498Y1969D01*
X8506Y1961D01*
X8512Y1954D01*
X8514Y1952D01*
X8528Y1928D01*
X8537Y1899D01*
X8545Y1870D01*
X8549Y1840D01*
X8553Y1813D01*
X8555Y1792D01*
Y1784D01*
Y1778D01*
Y1774D01*
Y1772D01*
X8553Y1731D01*
X8549Y1696D01*
X8543Y1665D01*
X8537Y1641D01*
X8530Y1624D01*
X8524Y1610D01*
X8520Y1602D01*
X8518Y1601D01*
X8504Y1583D01*
X8489Y1571D01*
X8473Y1562D01*
X8457Y1556D01*
X8446Y1552D01*
X8436Y1550D01*
X8426D01*
X8405Y1552D01*
X8387Y1560D01*
X8370Y1569D01*
X8354Y1581D01*
X8342Y1593D01*
X8332Y1602D01*
X8327Y1610D01*
X8325Y1612D01*
X8311Y1638D01*
X8299Y1667D01*
X8292Y1698D01*
X8288Y1727D01*
X8284Y1753D01*
X8282Y1774D01*
Y1782D01*
Y1788D01*
Y1792D01*
Y1794D01*
X8284Y1831D01*
X8288Y1864D01*
X8293Y1891D01*
X8301Y1913D01*
X8309Y1930D01*
X8315Y1944D01*
X8319Y1952D01*
X8321Y1954D01*
X8336Y1971D01*
X8352Y1985D01*
X8368Y1995D01*
X8383Y2002D01*
X8397Y2006D01*
X8407Y2008D01*
X8416D01*
X8438Y2006D01*
D02*
G37*
G36*
X9583Y2428D02*
X9600Y2420D01*
X9618Y2410D01*
X9634Y2398D01*
X9645Y2385D01*
X9655Y2375D01*
X9661Y2367D01*
X9663Y2365D01*
X9678Y2340D01*
X9688Y2311D01*
X9696Y2281D01*
X9702Y2252D01*
X9706Y2227D01*
X9708Y2205D01*
Y2197D01*
Y2192D01*
Y2188D01*
Y2186D01*
X9706Y2149D01*
X9702Y2116D01*
X9694Y2088D01*
X9688Y2065D01*
X9680Y2047D01*
X9673Y2034D01*
X9669Y2026D01*
X9667Y2024D01*
X9651Y2006D01*
X9636Y1993D01*
X9620Y1985D01*
X9604Y1977D01*
X9591Y1973D01*
X9581Y1971D01*
X9571D01*
X9550Y1973D01*
X9532Y1979D01*
X9515Y1989D01*
X9501Y1998D01*
X9489Y2008D01*
X9481Y2018D01*
X9476Y2024D01*
X9474Y2026D01*
X9460Y2049D01*
X9450Y2077D01*
X9444Y2108D01*
X9441Y2135D01*
X9437Y2162D01*
X9435Y2184D01*
Y2192D01*
Y2197D01*
Y2201D01*
Y2203D01*
X9437Y2246D01*
X9441Y2281D01*
X9446Y2311D01*
X9452Y2336D01*
X9458Y2354D01*
X9464Y2367D01*
X9468Y2375D01*
X9470Y2377D01*
X9485Y2394D01*
X9499Y2408D01*
X9515Y2416D01*
X9530Y2424D01*
X9542Y2428D01*
X9552Y2430D01*
X9561D01*
X9583Y2428D01*
D02*
G37*
%LPC*%
G36*
X14094Y16920D02*
X14084D01*
X14075Y16918D01*
X14061Y16914D01*
X14045Y16906D01*
X14030Y16896D01*
X14014Y16883D01*
X13998Y16865D01*
X13996Y16863D01*
X13993Y16855D01*
X13987Y16842D01*
X13979Y16824D01*
X13971Y16803D01*
X13965Y16775D01*
X13961Y16742D01*
X13959Y16705D01*
Y16703D01*
Y16699D01*
Y16693D01*
Y16686D01*
X13961Y16664D01*
X13965Y16639D01*
X13969Y16610D01*
X13977Y16578D01*
X13989Y16549D01*
X14002Y16524D01*
X14004Y16522D01*
X14010Y16514D01*
X14020Y16504D01*
X14032Y16493D01*
X14047Y16481D01*
X14065Y16471D01*
X14082Y16463D01*
X14104Y16461D01*
X14114D01*
X14123Y16463D01*
X14135Y16467D01*
X14151Y16473D01*
X14166Y16483D01*
X14182Y16494D01*
X14195Y16512D01*
X14197Y16514D01*
X14201Y16522D01*
X14207Y16535D01*
X14215Y16553D01*
X14221Y16576D01*
X14227Y16608D01*
X14231Y16643D01*
X14233Y16684D01*
Y16686D01*
Y16690D01*
Y16695D01*
Y16703D01*
X14231Y16725D01*
X14227Y16752D01*
X14223Y16781D01*
X14215Y16810D01*
X14205Y16840D01*
X14192Y16863D01*
X14190Y16865D01*
X14184Y16873D01*
X14176Y16881D01*
X14164Y16892D01*
X14151Y16902D01*
X14135Y16912D01*
X14115Y16918D01*
X14094Y16920D01*
D02*
G37*
G36*
X15268Y17341D02*
X15266D01*
X15259Y17339D01*
X15249Y17337D01*
X15235Y17331D01*
X15220Y17322D01*
X15204Y17308D01*
X15188Y17288D01*
X15175Y17263D01*
X15173Y17259D01*
X15171Y17253D01*
X15169Y17247D01*
X15167Y17236D01*
X15165Y17224D01*
X15161Y17208D01*
X15159Y17189D01*
X15155Y17167D01*
X15151Y17140D01*
X15149Y17111D01*
X15147Y17078D01*
X15145Y17041D01*
X15143Y16998D01*
X15142Y16951D01*
Y16900D01*
Y16896D01*
Y16889D01*
Y16873D01*
Y16853D01*
X15143Y16832D01*
Y16805D01*
Y16777D01*
X15145Y16748D01*
X15149Y16686D01*
X15153Y16654D01*
X15155Y16627D01*
X15159Y16600D01*
X15163Y16574D01*
X15169Y16555D01*
X15175Y16537D01*
X15177Y16533D01*
X15181Y16526D01*
X15188Y16514D01*
X15200Y16500D01*
X15214Y16485D01*
X15229Y16473D01*
X15247Y16465D01*
X15268Y16461D01*
X15270D01*
X15278Y16463D01*
X15288Y16465D01*
X15302Y16471D01*
X15317Y16481D01*
X15333Y16493D01*
X15346Y16512D01*
X15360Y16537D01*
Y16539D01*
X15362Y16541D01*
X15364Y16547D01*
X15366Y16553D01*
X15368Y16565D01*
X15372Y16576D01*
X15374Y16592D01*
X15378Y16611D01*
X15381Y16633D01*
X15383Y16660D01*
X15387Y16690D01*
X15389Y16723D01*
X15391Y16760D01*
X15393Y16803D01*
X15395Y16849D01*
Y16900D01*
Y16904D01*
Y16912D01*
Y16928D01*
Y16947D01*
X15393Y16968D01*
Y16996D01*
Y17023D01*
X15391Y17052D01*
X15387Y17115D01*
X15383Y17146D01*
X15380Y17175D01*
X15376Y17201D01*
X15372Y17226D01*
X15366Y17247D01*
X15360Y17263D01*
X15358Y17267D01*
X15354Y17275D01*
X15346Y17288D01*
X15337Y17302D01*
X15323Y17316D01*
X15307Y17329D01*
X15290Y17337D01*
X15268Y17341D01*
D02*
G37*
G36*
X13275D02*
X13273D01*
X13265Y17339D01*
X13255Y17337D01*
X13242Y17331D01*
X13226Y17322D01*
X13210Y17308D01*
X13195Y17288D01*
X13181Y17263D01*
X13179Y17259D01*
X13177Y17253D01*
X13175Y17247D01*
X13173Y17236D01*
X13171Y17224D01*
X13167Y17208D01*
X13165Y17189D01*
X13162Y17167D01*
X13158Y17140D01*
X13156Y17111D01*
X13154Y17078D01*
X13152Y17041D01*
X13150Y16998D01*
X13148Y16951D01*
Y16900D01*
Y16896D01*
Y16889D01*
Y16873D01*
Y16853D01*
X13150Y16832D01*
Y16805D01*
Y16777D01*
X13152Y16748D01*
X13156Y16686D01*
X13160Y16654D01*
X13162Y16627D01*
X13165Y16600D01*
X13169Y16574D01*
X13175Y16555D01*
X13181Y16537D01*
X13183Y16533D01*
X13187Y16526D01*
X13195Y16514D01*
X13206Y16500D01*
X13220Y16485D01*
X13236Y16473D01*
X13253Y16465D01*
X13275Y16461D01*
X13277D01*
X13284Y16463D01*
X13294Y16465D01*
X13308Y16471D01*
X13323Y16481D01*
X13339Y16493D01*
X13353Y16512D01*
X13366Y16537D01*
Y16539D01*
X13368Y16541D01*
X13370Y16547D01*
X13372Y16553D01*
X13374Y16565D01*
X13378Y16576D01*
X13380Y16592D01*
X13384Y16611D01*
X13388Y16633D01*
X13390Y16660D01*
X13394Y16690D01*
X13396Y16723D01*
X13398Y16760D01*
X13400Y16803D01*
X13401Y16849D01*
Y16900D01*
Y16904D01*
Y16912D01*
Y16928D01*
Y16947D01*
X13400Y16968D01*
Y16996D01*
Y17023D01*
X13398Y17052D01*
X13394Y17115D01*
X13390Y17146D01*
X13386Y17175D01*
X13382Y17201D01*
X13378Y17226D01*
X13372Y17247D01*
X13366Y17263D01*
X13364Y17267D01*
X13361Y17275D01*
X13353Y17288D01*
X13343Y17302D01*
X13329Y17316D01*
X13314Y17329D01*
X13296Y17337D01*
X13275Y17341D01*
D02*
G37*
G36*
X6123Y16996D02*
X6119D01*
X6112Y16994D01*
X6098Y16992D01*
X6080Y16986D01*
X6061Y16978D01*
X6039Y16965D01*
X6018Y16947D01*
X5999Y16922D01*
X5997Y16918D01*
X5991Y16908D01*
X5983Y16892D01*
X5973Y16869D01*
X5963Y16842D01*
X5956Y16809D01*
X5950Y16770D01*
X5948Y16727D01*
Y16725D01*
Y16721D01*
Y16715D01*
Y16707D01*
X5950Y16684D01*
X5954Y16656D01*
X5959Y16625D01*
X5969Y16592D01*
X5981Y16559D01*
X5997Y16530D01*
X5999Y16526D01*
X6006Y16518D01*
X6016Y16506D01*
X6030Y16494D01*
X6049Y16481D01*
X6071Y16469D01*
X6094Y16461D01*
X6121Y16457D01*
X6125D01*
X6135Y16459D01*
X6149Y16461D01*
X6166Y16467D01*
X6188Y16475D01*
X6209Y16489D01*
X6231Y16506D01*
X6252Y16532D01*
X6254Y16535D01*
X6260Y16545D01*
X6270Y16563D01*
X6279Y16584D01*
X6289Y16613D01*
X6299Y16647D01*
X6305Y16684D01*
X6307Y16727D01*
Y16729D01*
Y16732D01*
Y16738D01*
Y16746D01*
X6305Y16768D01*
X6301Y16795D01*
X6293Y16826D01*
X6283Y16857D01*
X6270Y16890D01*
X6252Y16920D01*
X6250Y16924D01*
X6242Y16931D01*
X6231Y16943D01*
X6217Y16959D01*
X6197Y16972D01*
X6176Y16984D01*
X6151Y16992D01*
X6123Y16996D01*
D02*
G37*
%LPD*%
D10*
X36326Y4905D02*
G03*
X36326Y4905I-1J0D01*
G01*
X8651Y12500D02*
G03*
X8651Y12500I-1J0D01*
G01*
D11*
X24250Y8100D02*
G03*
X24750Y8600I0J500D01*
G01*
X23250D02*
G03*
X23750Y8100I500J0D01*
G01*
X23750Y11100D02*
G03*
X23250Y10600I0J-500D01*
G01*
X24750D02*
G03*
X24250Y11100I-500J-0D01*
G01*
X28200Y4700D02*
G03*
X28600Y5100I0J400D01*
G01*
X28600Y6300D02*
G03*
X28200Y6700I-400J0D01*
G01*
X25800D02*
G03*
X25400Y6300I0J-400D01*
G01*
X25400Y5100D02*
G03*
X25800Y4700I400J0D01*
G01*
X28200Y7000D02*
G03*
X28600Y7400I0J400D01*
G01*
X28600Y8600D02*
G03*
X28200Y9000I-400J0D01*
G01*
X25800D02*
G03*
X25400Y8600I0J-400D01*
G01*
X25400Y7400D02*
G03*
X25800Y7000I400J0D01*
G01*
X28200Y9200D02*
G03*
X28600Y9600I0J400D01*
G01*
X28600Y10800D02*
G03*
X28200Y11200I-400J0D01*
G01*
X25800D02*
G03*
X25400Y10800I0J-400D01*
G01*
X25400Y9600D02*
G03*
X25800Y9200I400J0D01*
G01*
X21700Y7200D02*
G03*
X21400Y7500I-300J0D01*
G01*
Y6500D02*
G03*
X21700Y6800I0J300D01*
G01*
X19700Y6800D02*
G03*
X20000Y6500I300J0D01*
G01*
Y7500D02*
G03*
X19700Y7200I0J-300D01*
G01*
X19150Y4200D02*
G03*
X19150Y4200I-50J0D01*
G01*
X11750Y7250D02*
G03*
X12250Y7750I-0J500D01*
G01*
X9750Y7750D02*
G03*
X10250Y7250I500J0D01*
G01*
Y11750D02*
G03*
X9750Y11250I0J-500D01*
G01*
X12250Y11250D02*
G03*
X11750Y11750I-500J0D01*
G01*
X14750Y7250D02*
G03*
X15250Y7750I-0J500D01*
G01*
X12750Y7750D02*
G03*
X13250Y7250I500J0D01*
G01*
Y11750D02*
G03*
X12750Y11250I0J-500D01*
G01*
X15250Y11250D02*
G03*
X14750Y11750I-500J0D01*
G01*
X17250Y8000D02*
G03*
X17750Y8500I0J500D01*
G01*
X16250D02*
G03*
X16750Y8000I500J0D01*
G01*
X16750Y11000D02*
G03*
X16250Y10500I0J-500D01*
G01*
X17750D02*
G03*
X17250Y11000I-500J-0D01*
G01*
X29300Y5500D02*
Y13700D01*
X36500D01*
Y5500D02*
Y13700D01*
X29300Y5500D02*
X36500D01*
X19900Y15960D02*
X20900D01*
X19900Y11840D02*
X20900D01*
X350Y13200D02*
X9150D01*
Y5800D02*
Y13200D01*
X350Y5800D02*
X9150D01*
X350D02*
Y13200D01*
X23750Y8100D02*
X24250D01*
X23250Y8600D02*
Y10600D01*
X24750Y8600D02*
Y10600D01*
X23750Y11100D02*
X24250D01*
X25800Y4700D02*
X28200D01*
X25400Y5100D02*
Y6300D01*
X25800Y6700D02*
X28200D01*
X28600Y5100D02*
Y6300D01*
X25800Y7000D02*
X28200D01*
X25400Y7400D02*
Y8600D01*
X25800Y9000D02*
X28200D01*
X28600Y7400D02*
Y8600D01*
X25800Y9200D02*
X28200D01*
X25400Y9600D02*
Y10800D01*
X25800Y11200D02*
X28200D01*
X28600Y9600D02*
Y10800D01*
X22650Y700D02*
Y2100D01*
Y700D02*
X25550D01*
Y2100D01*
X22650D02*
X25550D01*
Y2600D02*
Y4000D01*
X22650D02*
X25550D01*
X22650Y2600D02*
Y4000D01*
Y2600D02*
X25550D01*
X19700Y6800D02*
Y7200D01*
X20000Y6500D02*
X21400D01*
X21700Y6800D02*
Y7200D01*
X20000Y7500D02*
X21400D01*
X22250Y700D02*
Y2100D01*
X19350D02*
X22250D01*
X19350Y700D02*
Y2100D01*
Y700D02*
X22250D01*
X22200Y2600D02*
Y4000D01*
X19400Y2600D02*
Y4000D01*
X22200D01*
X19400Y2600D02*
X22200D01*
X9750Y7750D02*
Y11250D01*
X12250Y7750D02*
Y11250D01*
X10250Y11750D02*
X11750D01*
X10250Y7250D02*
X11750D01*
X12750Y7750D02*
Y11250D01*
X15250Y7750D02*
Y11250D01*
X13250Y11750D02*
X14750D01*
X13250Y7250D02*
X14750D01*
X16750Y8000D02*
X17250D01*
X16250Y8500D02*
Y10500D01*
X17750Y8500D02*
Y10500D01*
X16750Y11000D02*
X17250D01*
X15850Y5500D02*
Y6900D01*
Y5500D02*
X18750D01*
Y6900D01*
X15850D02*
X18750D01*
X19400Y8650D02*
X21600D01*
X19400Y10350D02*
X21600D01*
X19400Y8650D02*
Y10350D01*
X21600Y8650D02*
Y10350D01*
D12*
X19200Y8344D02*
G03*
X19200Y8344I-125J0D01*
G01*
D13*
X27900Y11300D02*
X28500Y12000D01*
Y12000D01*
X25400Y14100D02*
X28500D01*
X25400D02*
Y16200D01*
X28500D01*
X25400D02*
Y18300D01*
X28500D01*
Y12000D02*
Y18300D01*
X25400Y12000D02*
X28500D01*
X25400D02*
Y18300D01*
X29350Y16949D02*
X30366Y15425D01*
Y16949D02*
X29350Y15425D01*
X31889D02*
X30874D01*
X31889Y16441D01*
Y16695D01*
X31635Y16949D01*
X31127D01*
X30874Y16695D01*
X6700Y15774D02*
X7716Y14250D01*
Y15774D02*
X6700Y14250D01*
X8224D02*
X8731D01*
X8477D01*
Y15774D01*
X8224Y15520D01*
X26000Y600D02*
Y2124D01*
X26762D01*
X27016Y1870D01*
Y1362D01*
X26762Y1108D01*
X26000D01*
X26508D02*
X27016Y600D01*
X28285D02*
Y2124D01*
X27524Y1362D01*
X28539D01*
X26000Y2600D02*
Y4124D01*
X26762D01*
X27016Y3870D01*
Y3362D01*
X26762Y3108D01*
X26000D01*
X26508D02*
X27016Y2600D01*
X27524Y3870D02*
X27777Y4124D01*
X28285D01*
X28539Y3870D01*
Y3616D01*
X28285Y3362D01*
X28031D01*
X28285D01*
X28539Y3108D01*
Y2854D01*
X28285Y2600D01*
X27777D01*
X27524Y2854D01*
X16200Y500D02*
Y2024D01*
X16962D01*
X17216Y1770D01*
Y1262D01*
X16962Y1008D01*
X16200D01*
X16708D02*
X17216Y500D01*
X18739D02*
X17724D01*
X18739Y1516D01*
Y1770D01*
X18485Y2024D01*
X17977D01*
X17724Y1770D01*
X13400Y5400D02*
Y6924D01*
X14162D01*
X14416Y6670D01*
Y6162D01*
X14162Y5908D01*
X13400D01*
X13908D02*
X14416Y5400D01*
X14924D02*
X15431D01*
X15177D01*
Y6924D01*
X14924Y6670D01*
X21100Y18224D02*
Y16700D01*
X22116D01*
X22624D02*
X23131D01*
X22877D01*
Y18224D01*
X22624Y17970D01*
X15350Y4074D02*
Y2550D01*
Y3312D01*
X16366D01*
Y4074D01*
Y2550D01*
X16874Y4074D02*
Y2550D01*
X17889D01*
X18397D02*
X18905D01*
X18651D01*
Y4074D01*
X18397Y3820D01*
X22676Y4300D02*
X24200D01*
Y5062D01*
X23946Y5316D01*
X22930D01*
X22676Y5062D01*
Y4300D01*
Y5824D02*
X24200D01*
Y6585D01*
X23946Y6839D01*
X22930D01*
X22676Y6585D01*
Y5824D01*
X24200Y7347D02*
Y7855D01*
Y7601D01*
X22676D01*
X22930Y7347D01*
X26716Y13570D02*
X26462Y13824D01*
X25954D01*
X25700Y13570D01*
Y12554D01*
X25954Y12300D01*
X26462D01*
X26716Y12554D01*
X27224Y13570D02*
X27477Y13824D01*
X27985D01*
X28239Y13570D01*
Y13316D01*
X27985Y13062D01*
X28239Y12808D01*
Y12554D01*
X27985Y12300D01*
X27477D01*
X27224Y12554D01*
Y12808D01*
X27477Y13062D01*
X27224Y13316D01*
Y13570D01*
X27477Y13062D02*
X27985D01*
X26716Y15670D02*
X26462Y15924D01*
X25954D01*
X25700Y15670D01*
Y14654D01*
X25954Y14400D01*
X26462D01*
X26716Y14654D01*
X27224Y15924D02*
X28239D01*
Y15670D01*
X27224Y14654D01*
Y14400D01*
X26716Y17770D02*
X26462Y18024D01*
X25954D01*
X25700Y17770D01*
Y16754D01*
X25954Y16500D01*
X26462D01*
X26716Y16754D01*
X28239Y18024D02*
X27731Y17770D01*
X27224Y17262D01*
Y16754D01*
X27477Y16500D01*
X27985D01*
X28239Y16754D01*
Y17008D01*
X27985Y17262D01*
X27224D01*
X20416Y5870D02*
X20162Y6124D01*
X19654D01*
X19400Y5870D01*
Y4854D01*
X19654Y4600D01*
X20162D01*
X20416Y4854D01*
X21939Y6124D02*
X20924D01*
Y5362D01*
X21431Y5616D01*
X21685D01*
X21939Y5362D01*
Y4854D01*
X21685Y4600D01*
X21177D01*
X20924Y4854D01*
X23630Y12616D02*
X23376Y12362D01*
Y11854D01*
X23630Y11600D01*
X24646D01*
X24900Y11854D01*
Y12362D01*
X24646Y12616D01*
X24900Y13885D02*
X23376D01*
X24138Y13124D01*
Y14139D01*
X16230Y12516D02*
X15976Y12262D01*
Y11754D01*
X16230Y11500D01*
X17246D01*
X17500Y11754D01*
Y12262D01*
X17246Y12516D01*
X16230Y13024D02*
X15976Y13277D01*
Y13785D01*
X16230Y14039D01*
X16484D01*
X16738Y13785D01*
Y13531D01*
Y13785D01*
X16992Y14039D01*
X17246D01*
X17500Y13785D01*
Y13277D01*
X17246Y13024D01*
X13516Y13770D02*
X13262Y14024D01*
X12754D01*
X12500Y13770D01*
Y12754D01*
X12754Y12500D01*
X13262D01*
X13516Y12754D01*
X15039Y12500D02*
X14024D01*
X15039Y13516D01*
Y13770D01*
X14785Y14024D01*
X14277D01*
X14024Y13770D01*
X11016D02*
X10762Y14024D01*
X10254D01*
X10000Y13770D01*
Y12754D01*
X10254Y12500D01*
X10762D01*
X11016Y12754D01*
X11524Y12500D02*
X12031D01*
X11777D01*
Y14024D01*
X11524Y13770D01*
M02*
