M48
;Layer_Color=9474304
;FILE_FORMAT=4:3
METRIC,LZ
;TYPE=PLATED
T1F00S00C0.300
T2F00S00C1.000
T3F00S00C1.200
T4F00S00C2.000
%
T01
X003Y0001
X0032
X0033Y0003
X0031
X0029
X0028Y0001
X0026Y00011
Y00019
X0019Y0003
X0017
X0015
X0013
X0011
X0009
X0007
X0005
X0006Y0001
X0008
X001
X0012
X0014
X0016
X0018
X0004
Y0005
X0006
X0008
X001
X00098Y0006
Y00068
X00103Y00064
X00108Y00068
Y0006
X00113Y00064
X00118Y00068
Y0006
X00123Y00064
X00128Y00068
Y0006
X00133Y00064
X00138Y0006
X00144Y00063
X00149Y00059
Y00068
X00139
X0014Y0005
X0016
X0018
X00198Y00055
X00204
Y00061
X00198
X0022075Y0006375
X0022475Y000685
X0022025Y00073
X0022Y0005
X002445Y0007775
X0027Y0007
X00289Y00071
Y00078
Y00085
X0028925Y0009225
Y000995
Y0010675
X0028Y0013
X0026
X0024
X0025Y0015
X0027
X0029
X0028Y0017
X0026
X0024
X0022
X002
X0018
X0016
X0014
X0012
X001
X0008
X0006
X0004
X0005Y0015
X0007
X0009
X0011
X0013
X0015
X0017
X0016Y0013
X0014
X0012
X001
X0008
X0006
X0004
X0002
X0003Y0011
X0005
X0006Y0009
X0004
X0002
X0003Y0007
X0005
X0009
X001Y0009
X0012
X0014
X00164Y00076
X00171
X00178
X00184Y0008
X0018Y00084
X00208Y00092
X00289Y00064
Y00057
X0012Y0005
X0002
X0032
X0034
X0035Y0007
Y0011
X0034Y0013
X0032
X003
X0031Y0015
X0033
X0032Y0017
X003
X0031Y0011
X003Y0009
T02
X000765Y000825
Y001075
T03
X00328Y000785
Y001135
T04
X0035Y00018
X0002Y0002
X00018Y00166
X00351
M30
