G04*
G04 #@! TF.GenerationSoftware,Altium Limited,Altium Designer,19.1.6 (110)*
G04*
G04 Layer_Color=8388736*
%FSLAX43Y43*%
%MOMM*%
G71*
G01*
G75*
%ADD14R,1.740X4.420*%
G04:AMPARAMS|DCode=15|XSize=1mm|YSize=0.9mm|CornerRadius=0.25mm|HoleSize=0mm|Usage=FLASHONLY|Rotation=0.000|XOffset=0mm|YOffset=0mm|HoleType=Round|Shape=RoundedRectangle|*
%AMROUNDEDRECTD15*
21,1,1.000,0.400,0,0,0.0*
21,1,0.500,0.900,0,0,0.0*
1,1,0.500,0.250,-0.200*
1,1,0.500,-0.250,-0.200*
1,1,0.500,-0.250,0.200*
1,1,0.500,0.250,0.200*
%
%ADD15ROUNDEDRECTD15*%
G04:AMPARAMS|DCode=16|XSize=1.5mm|YSize=1.1mm|CornerRadius=0.3mm|HoleSize=0mm|Usage=FLASHONLY|Rotation=270.000|XOffset=0mm|YOffset=0mm|HoleType=Round|Shape=RoundedRectangle|*
%AMROUNDEDRECTD16*
21,1,1.500,0.500,0,0,270.0*
21,1,0.900,1.100,0,0,270.0*
1,1,0.600,-0.250,-0.450*
1,1,0.600,-0.250,0.450*
1,1,0.600,0.250,0.450*
1,1,0.600,0.250,-0.450*
%
%ADD16ROUNDEDRECTD16*%
%ADD17R,0.950X1.000*%
G04:AMPARAMS|DCode=18|XSize=0.6mm|YSize=0.6mm|CornerRadius=0.175mm|HoleSize=0mm|Usage=FLASHONLY|Rotation=270.000|XOffset=0mm|YOffset=0mm|HoleType=Round|Shape=RoundedRectangle|*
%AMROUNDEDRECTD18*
21,1,0.600,0.250,0,0,270.0*
21,1,0.250,0.600,0,0,270.0*
1,1,0.350,-0.125,-0.125*
1,1,0.350,-0.125,0.125*
1,1,0.350,0.125,0.125*
1,1,0.350,0.125,-0.125*
%
%ADD18ROUNDEDRECTD18*%
%ADD19R,0.900X1.050*%
G04:AMPARAMS|DCode=20|XSize=1.9mm|YSize=1.1mm|CornerRadius=0.3mm|HoleSize=0mm|Usage=FLASHONLY|Rotation=0.000|XOffset=0mm|YOffset=0mm|HoleType=Round|Shape=RoundedRectangle|*
%AMROUNDEDRECTD20*
21,1,1.900,0.500,0,0,0.0*
21,1,1.300,1.100,0,0,0.0*
1,1,0.600,0.650,-0.250*
1,1,0.600,-0.650,-0.250*
1,1,0.600,-0.650,0.250*
1,1,0.600,0.650,0.250*
%
%ADD20ROUNDEDRECTD20*%
%ADD21O,0.700X0.350*%
%ADD22O,0.350X0.700*%
%ADD23O,0.350X1.350*%
%ADD24O,0.350X1.700*%
%ADD25R,1.900X1.900*%
%ADD26C,1.900*%
%ADD27R,2.000X2.000*%
%ADD28C,2.000*%
%ADD29C,3.100*%
D14*
X18720Y13900D02*
D03*
X22080D02*
D03*
D15*
X24000Y8850D02*
D03*
X24000Y10350D02*
D03*
X17000Y8750D02*
D03*
X17000Y10250D02*
D03*
D16*
X26150Y5700D02*
D03*
X27850D02*
D03*
X26150Y8000D02*
D03*
X27850D02*
D03*
X26150Y10200D02*
D03*
X27850D02*
D03*
D17*
X23325Y1400D02*
D03*
X24875D02*
D03*
Y3300D02*
D03*
X23325D02*
D03*
X21575Y1400D02*
D03*
X20025D02*
D03*
X16525Y6200D02*
D03*
X18075D02*
D03*
D18*
X21200Y7000D02*
D03*
X20200D02*
D03*
D19*
X19975Y3300D02*
D03*
X21625D02*
D03*
D20*
X11000Y8000D02*
D03*
Y11000D02*
D03*
X14000Y8000D02*
D03*
Y11000D02*
D03*
D21*
X19103Y10262D02*
D03*
X21900Y8750D02*
D03*
Y9250D02*
D03*
Y9750D02*
D03*
Y10250D02*
D03*
X19103Y9738D02*
D03*
Y9238D02*
D03*
Y8738D02*
D03*
D22*
X19750Y8344D02*
D03*
X20250D02*
D03*
X20750D02*
D03*
X21250D02*
D03*
D23*
X21000Y10325D02*
D03*
X20000D02*
D03*
D24*
X20500Y10150D02*
D03*
D25*
X32800Y7850D02*
D03*
D26*
Y11350D02*
D03*
D27*
X7650Y10750D02*
D03*
D28*
Y8250D02*
D03*
D29*
X35000Y1800D02*
D03*
X2000Y2000D02*
D03*
X1800Y16600D02*
D03*
X35100D02*
D03*
M02*
