G04*
G04 #@! TF.GenerationSoftware,Altium Limited,Altium Designer,19.1.6 (110)*
G04*
G04 Layer_Physical_Order=1*
G04 Layer_Color=255*
%FSLAX43Y43*%
%MOMM*%
G71*
G01*
G75*
%ADD11C,0.200*%
%ADD13C,0.254*%
%ADD25R,1.900X1.900*%
%ADD26C,1.900*%
%ADD30R,1.640X4.320*%
G04:AMPARAMS|DCode=31|XSize=0.9mm|YSize=0.8mm|CornerRadius=0.2mm|HoleSize=0mm|Usage=FLASHONLY|Rotation=0.000|XOffset=0mm|YOffset=0mm|HoleType=Round|Shape=RoundedRectangle|*
%AMROUNDEDRECTD31*
21,1,0.900,0.400,0,0,0.0*
21,1,0.500,0.800,0,0,0.0*
1,1,0.400,0.250,-0.200*
1,1,0.400,-0.250,-0.200*
1,1,0.400,-0.250,0.200*
1,1,0.400,0.250,0.200*
%
%ADD31ROUNDEDRECTD31*%
G04:AMPARAMS|DCode=32|XSize=1.4mm|YSize=1mm|CornerRadius=0.25mm|HoleSize=0mm|Usage=FLASHONLY|Rotation=270.000|XOffset=0mm|YOffset=0mm|HoleType=Round|Shape=RoundedRectangle|*
%AMROUNDEDRECTD32*
21,1,1.400,0.500,0,0,270.0*
21,1,0.900,1.000,0,0,270.0*
1,1,0.500,-0.250,-0.450*
1,1,0.500,-0.250,0.450*
1,1,0.500,0.250,0.450*
1,1,0.500,0.250,-0.450*
%
%ADD32ROUNDEDRECTD32*%
%ADD33R,0.850X0.900*%
G04:AMPARAMS|DCode=34|XSize=0.5mm|YSize=0.5mm|CornerRadius=0.125mm|HoleSize=0mm|Usage=FLASHONLY|Rotation=270.000|XOffset=0mm|YOffset=0mm|HoleType=Round|Shape=RoundedRectangle|*
%AMROUNDEDRECTD34*
21,1,0.500,0.250,0,0,270.0*
21,1,0.250,0.500,0,0,270.0*
1,1,0.250,-0.125,-0.125*
1,1,0.250,-0.125,0.125*
1,1,0.250,0.125,0.125*
1,1,0.250,0.125,-0.125*
%
%ADD34ROUNDEDRECTD34*%
%ADD35R,0.800X0.950*%
G04:AMPARAMS|DCode=36|XSize=1.8mm|YSize=1mm|CornerRadius=0.25mm|HoleSize=0mm|Usage=FLASHONLY|Rotation=0.000|XOffset=0mm|YOffset=0mm|HoleType=Round|Shape=RoundedRectangle|*
%AMROUNDEDRECTD36*
21,1,1.800,0.500,0,0,0.0*
21,1,1.300,1.000,0,0,0.0*
1,1,0.500,0.650,-0.250*
1,1,0.500,-0.650,-0.250*
1,1,0.500,-0.650,0.250*
1,1,0.500,0.650,0.250*
%
%ADD36ROUNDEDRECTD36*%
%ADD37O,0.600X0.250*%
%ADD38O,0.250X0.600*%
%ADD39O,0.250X1.250*%
%ADD40O,0.250X1.600*%
%ADD41C,0.500*%
%ADD42C,0.381*%
%ADD43R,1.800X1.800*%
%ADD44C,1.800*%
%ADD45C,3.000*%
%ADD46C,0.600*%
G36*
X19320Y11540D02*
X19740D01*
Y11760D01*
X20075Y11425D01*
X20119Y11133D01*
X20100Y11136D01*
Y10325D01*
X19900D01*
Y11136D01*
X19873Y11131D01*
X19766Y11059D01*
X19694Y10952D01*
X19669Y10825D01*
Y10600D01*
X18350D01*
X18230Y10680D01*
X18100Y10706D01*
Y11540D01*
X18120D01*
Y13900D01*
X19320D01*
Y11540D01*
D02*
G37*
G36*
X21060Y16200D02*
Y14500D01*
X22080D01*
Y13900D01*
X22680D01*
Y11540D01*
X22940D01*
X22100Y10700D01*
X21331D01*
Y10825D01*
X21306Y10952D01*
X21234Y11059D01*
X21127Y11131D01*
X21100Y11136D01*
Y10325D01*
X20900D01*
Y11136D01*
X20900Y11136D01*
X20900Y16200D01*
X21060D01*
D02*
G37*
G36*
X34408Y18271D02*
X34095Y18104D01*
X33821Y17879D01*
X33596Y17605D01*
X33487Y17400D01*
X35100D01*
Y16600D01*
X35900D01*
Y14987D01*
X36105Y15096D01*
X36379Y15321D01*
X36604Y15595D01*
X36771Y15908D01*
X36845Y16152D01*
Y255D01*
X35928D01*
X36005Y296D01*
X36279Y521D01*
X36504Y795D01*
X36613Y1000D01*
X33387D01*
X33496Y795D01*
X33721Y521D01*
X33995Y296D01*
X34072Y255D01*
X26919D01*
X26983Y350D01*
X27006Y467D01*
X27006Y467D01*
Y3500D01*
X27006Y3500D01*
X26983Y3617D01*
X26916Y3716D01*
X26916Y3716D01*
X26336Y4296D01*
X26413Y4312D01*
X26479Y4356D01*
X26524Y4422D01*
X26524Y4422D01*
X26540Y4461D01*
X26701Y4301D01*
X26849Y4201D01*
X27025Y4166D01*
X29575D01*
X29751Y4201D01*
X29899Y4301D01*
X32349Y6750D01*
X33900D01*
Y8950D01*
X31700D01*
Y7399D01*
X29385Y5084D01*
X28526D01*
X28559Y5250D01*
Y5400D01*
X27850D01*
X27141D01*
Y5250D01*
X27164Y5135D01*
X26859Y5440D01*
Y6150D01*
X26824Y6326D01*
X26724Y6474D01*
X26576Y6574D01*
X26456Y6598D01*
Y7102D01*
X26576Y7126D01*
X26724Y7226D01*
X26824Y7374D01*
X26859Y7550D01*
Y8450D01*
X26824Y8626D01*
X26724Y8774D01*
X26576Y8874D01*
X26456Y8898D01*
Y9096D01*
X27100D01*
X27178Y9112D01*
X27244Y9156D01*
X27288Y9222D01*
X27304Y9300D01*
Y9407D01*
X27424Y9326D01*
X27527Y9306D01*
D01*
X27550Y9301D01*
Y10200D01*
Y11099D01*
X27527Y11094D01*
D01*
X27424Y11074D01*
X27304Y10993D01*
Y11300D01*
X27304Y11300D01*
X27288Y11378D01*
X27244Y11444D01*
X27244Y11444D01*
X27144Y11544D01*
X27078Y11588D01*
X27000Y11604D01*
X23138D01*
X23138Y11604D01*
X23131Y11603D01*
X23128Y11618D01*
X23100Y11661D01*
Y16260D01*
X21252D01*
X21248Y16278D01*
X21204Y16344D01*
X21138Y16388D01*
X21060Y16404D01*
X20900D01*
X20822Y16388D01*
X20756Y16344D01*
X20712Y16278D01*
X20696Y16200D01*
X20696Y11136D01*
X20696Y11136D01*
Y11085D01*
X20627Y11131D01*
X20600Y11136D01*
Y10150D01*
X20400D01*
Y11136D01*
X20373Y11131D01*
X20319Y11095D01*
Y11128D01*
X20321Y11163D01*
X20277Y11456D01*
X20268Y11479D01*
X20263Y11503D01*
X20255Y11516D01*
X20250Y11530D01*
X20233Y11549D01*
X20219Y11569D01*
X19884Y11904D01*
X19884Y11904D01*
X19818Y11948D01*
X19740Y11964D01*
Y16260D01*
X17700D01*
Y11540D01*
X17896D01*
Y10715D01*
X17554D01*
X17538Y10738D01*
X17406Y10827D01*
X17250Y10858D01*
X16750D01*
X16594Y10827D01*
X16462Y10738D01*
X16442Y10709D01*
X15340D01*
X15109Y10940D01*
Y11250D01*
X15074Y11426D01*
X14974Y11574D01*
X14826Y11674D01*
X14650Y11709D01*
X13350D01*
X13174Y11674D01*
X13026Y11574D01*
X12948Y11459D01*
X12052D01*
X11974Y11574D01*
X11826Y11674D01*
X11650Y11709D01*
X10350D01*
X10174Y11674D01*
X10026Y11574D01*
X9948Y11459D01*
X8800D01*
Y11900D01*
X6500D01*
Y9600D01*
X8800D01*
Y10541D01*
X9948D01*
X10026Y10426D01*
X10174Y10326D01*
X10350Y10291D01*
X11650D01*
X11826Y10326D01*
X11974Y10426D01*
X12052Y10541D01*
X12948D01*
X13026Y10426D01*
X13174Y10326D01*
X13350Y10291D01*
X14460D01*
X14826Y9926D01*
X14974Y9826D01*
X15150Y9791D01*
X15494D01*
Y6950D01*
X15494Y6950D01*
X15517Y6833D01*
X15584Y6734D01*
X15900Y6417D01*
Y5550D01*
X17150D01*
Y6850D01*
X16333D01*
X16106Y7077D01*
Y7394D01*
Y8700D01*
Y9791D01*
X16442D01*
X16462Y9762D01*
X16594Y9673D01*
X16750Y9642D01*
X17250D01*
X17406Y9673D01*
X17538Y9762D01*
X17562Y9797D01*
X18055D01*
X18076Y9802D01*
X18347Y9531D01*
X18347Y9531D01*
X18446Y9465D01*
X18563Y9442D01*
X18563Y9442D01*
X18673D01*
X18622Y9365D01*
X18597Y9238D01*
X18622Y9111D01*
X18694Y9004D01*
X18717Y8988D01*
X18694Y8972D01*
X18622Y8865D01*
X18617Y8838D01*
X19103D01*
Y8738D01*
X19203D01*
Y8407D01*
X19278D01*
X19405Y8432D01*
X19419Y8441D01*
Y8270D01*
X18184Y7035D01*
X18117Y6936D01*
X18100Y6850D01*
X17450D01*
Y5550D01*
X18700D01*
Y6495D01*
X18706Y6525D01*
X18706Y6525D01*
Y6692D01*
X18894Y6880D01*
Y4075D01*
X18894Y4075D01*
X18917Y3958D01*
X18984Y3859D01*
X19375Y3467D01*
Y2625D01*
X20575D01*
Y3975D01*
X19733D01*
X19506Y4202D01*
Y5100D01*
Y6992D01*
X19514Y7000D01*
X19775Y7261D01*
X19769Y7252D01*
X19752Y7165D01*
X20200D01*
Y7000D01*
X20365D01*
Y6552D01*
X20452Y6569D01*
X20559Y6641D01*
X20573Y6661D01*
D01*
X20631Y6748D01*
X20656Y6875D01*
Y7111D01*
X20744Y7024D01*
Y6875D01*
X20769Y6748D01*
X20841Y6641D01*
X20948Y6569D01*
X21075Y6544D01*
X21325D01*
X21452Y6569D01*
X21559Y6641D01*
X21631Y6748D01*
X21656Y6875D01*
Y7125D01*
X21631Y7252D01*
X21559Y7359D01*
X21452Y7431D01*
X21325Y7456D01*
X21176D01*
X21056Y7577D01*
Y7644D01*
Y7766D01*
Y7907D01*
X21123Y7862D01*
X21150Y7857D01*
Y8000D01*
Y8344D01*
D01*
X21250D01*
Y8443D01*
X21581D01*
Y8455D01*
X21598Y8444D01*
X21725Y8419D01*
X21794D01*
Y8100D01*
X21794Y8100D01*
X21817Y7983D01*
X21884Y7884D01*
X23019Y6748D01*
Y3950D01*
X22700D01*
Y2650D01*
X23019D01*
Y2050D01*
X22700D01*
Y750D01*
X23950D01*
Y2050D01*
X23631D01*
Y2650D01*
X23950D01*
Y3950D01*
X23631D01*
Y6875D01*
X23631Y6875D01*
X23616Y6952D01*
X24244Y6323D01*
Y4300D01*
Y3625D01*
X24244Y3625D01*
X24250Y3595D01*
Y2650D01*
X25500D01*
Y3950D01*
X24856D01*
Y3994D01*
X25773D01*
X26394Y3373D01*
Y2300D01*
D01*
Y656D01*
X21881D01*
Y750D01*
X22200D01*
Y2050D01*
X20950D01*
Y750D01*
X21269D01*
Y467D01*
X21269Y467D01*
X21292Y350D01*
X21356Y255D01*
X2448D01*
X2692Y329D01*
X3005Y496D01*
X3279Y721D01*
X3504Y995D01*
X3613Y1200D01*
X2000D01*
Y2000D01*
X1200D01*
Y3613D01*
X995Y3504D01*
X721Y3279D01*
X496Y3005D01*
X329Y2692D01*
X255Y2448D01*
Y15672D01*
X296Y15595D01*
X521Y15321D01*
X795Y15096D01*
X1000Y14987D01*
Y16600D01*
X1800D01*
Y17400D01*
X3413D01*
X3304Y17605D01*
X3079Y17879D01*
X2805Y18104D01*
X2492Y18271D01*
X2248Y18345D01*
X34652D01*
X34408Y18271D01*
D02*
G37*
G36*
X27100Y11300D02*
Y9300D01*
X26456D01*
Y9302D01*
X26576Y9326D01*
X26724Y9426D01*
X26824Y9574D01*
X26859Y9750D01*
Y9900D01*
X26150D01*
Y10200D01*
D01*
Y9900D01*
X25441D01*
Y9750D01*
X25476Y9574D01*
X25576Y9426D01*
X25724Y9326D01*
X25844Y9302D01*
Y9300D01*
Y8898D01*
X25724Y8874D01*
X25576Y8774D01*
X25476Y8626D01*
X25441Y8450D01*
Y8300D01*
X26150D01*
Y7700D01*
X25441D01*
Y7550D01*
X25476Y7374D01*
X25576Y7226D01*
X25724Y7126D01*
X25844Y7102D01*
Y6598D01*
X25724Y6574D01*
X25576Y6474D01*
X25476Y6326D01*
X25441Y6150D01*
Y6000D01*
X26150D01*
Y5400D01*
X25441D01*
Y5250D01*
X25476Y5074D01*
X25576Y4926D01*
X25724Y4826D01*
X25900Y4791D01*
X26210D01*
X26384Y4617D01*
X26335Y4500D01*
X26133D01*
X26116Y4516D01*
X26017Y4583D01*
X25900Y4606D01*
X25900Y4606D01*
X25000D01*
Y9300D01*
X24900Y9400D01*
X24446D01*
X24406Y9427D01*
X24250Y9458D01*
X23750D01*
X23594Y9427D01*
X23554Y9400D01*
X22856D01*
Y9650D01*
X22856Y9650D01*
X22833Y9767D01*
X22766Y9866D01*
X22766Y9866D01*
X22666Y9966D01*
X22567Y10033D01*
X22450Y10056D01*
X22450Y10056D01*
X22336D01*
X22381Y10123D01*
X22386Y10150D01*
X21900D01*
Y10350D01*
X22386D01*
X22381Y10377D01*
X22309Y10484D01*
X22257Y10519D01*
X23138Y11400D01*
X27000D01*
X27100Y11300D01*
D02*
G37*
G36*
X24796Y6622D02*
X24766Y6666D01*
X24716Y6716D01*
X23000Y8433D01*
X22856Y8577D01*
Y9196D01*
X23371D01*
X23355Y9115D01*
X24645D01*
X24629Y9196D01*
X24796D01*
Y6622D01*
D02*
G37*
%LPC*%
G36*
X21480Y13300D02*
X21060D01*
Y11540D01*
X21480D01*
Y13300D01*
D02*
G37*
G36*
X34300Y15800D02*
X33487D01*
X33596Y15595D01*
X33821Y15321D01*
X34095Y15096D01*
X34300Y14987D01*
Y15800D01*
D02*
G37*
G36*
X3413D02*
X2600D01*
Y14987D01*
X2805Y15096D01*
X3079Y15321D01*
X3304Y15595D01*
X3413Y15800D01*
D02*
G37*
G36*
X33300Y12442D02*
Y11850D01*
X33892D01*
X33848Y11955D01*
X33656Y12206D01*
X33405Y12398D01*
X33300Y12442D01*
D02*
G37*
G36*
X32300D02*
X32195Y12398D01*
X31944Y12206D01*
X31752Y11955D01*
X31708Y11850D01*
X32300D01*
Y12442D01*
D02*
G37*
G36*
X28150Y11099D02*
Y10500D01*
X28559D01*
Y10650D01*
X28524Y10826D01*
X28424Y10974D01*
X28276Y11074D01*
X28150Y11099D01*
D02*
G37*
G36*
X33892Y10850D02*
X33300D01*
Y10258D01*
X33405Y10302D01*
X33656Y10494D01*
X33848Y10745D01*
X33892Y10850D01*
D02*
G37*
G36*
X32300D02*
X31708D01*
X31752Y10745D01*
X31944Y10494D01*
X32195Y10302D01*
X32300Y10258D01*
Y10850D01*
D02*
G37*
G36*
X28559Y9900D02*
X28150D01*
Y9301D01*
X28276Y9326D01*
X28424Y9426D01*
X28524Y9574D01*
X28559Y9750D01*
Y9900D01*
D02*
G37*
G36*
X17265Y9355D02*
Y9015D01*
X17645D01*
X17627Y9106D01*
X17539Y9238D01*
X17406Y9327D01*
X17265Y9355D01*
D02*
G37*
G36*
X16735D02*
X16594Y9327D01*
X16462Y9238D01*
X16373Y9106D01*
X16355Y9015D01*
X16735D01*
Y9355D01*
D02*
G37*
G36*
X27550Y8899D02*
X27527Y8894D01*
D01*
X27424Y8874D01*
X27276Y8774D01*
X27176Y8626D01*
X27141Y8450D01*
Y8300D01*
X27550D01*
D01*
Y8899D01*
D02*
G37*
G36*
X8200Y9375D02*
Y8800D01*
X8775D01*
X8742Y8880D01*
X8542Y9142D01*
X8280Y9342D01*
X8200Y9375D01*
D02*
G37*
G36*
X7100Y9375D02*
X7020Y9342D01*
X6758Y9142D01*
X6558Y8880D01*
X6525Y8800D01*
X7100D01*
Y9375D01*
D02*
G37*
G36*
X19003Y8638D02*
X18617D01*
X18622Y8611D01*
X18694Y8504D01*
X18801Y8432D01*
X18928Y8407D01*
X19003D01*
Y8638D01*
D02*
G37*
G36*
X14650Y8709D02*
X14300D01*
Y8300D01*
X15099D01*
X15074Y8426D01*
X14974Y8574D01*
X14826Y8674D01*
X14650Y8709D01*
D02*
G37*
G36*
X13700D02*
X13350D01*
X13174Y8674D01*
X13026Y8574D01*
X12926Y8426D01*
X12901Y8300D01*
X13700D01*
Y8709D01*
D02*
G37*
G36*
X11650D02*
X11300D01*
Y8300D01*
X12099D01*
X12074Y8426D01*
X11974Y8574D01*
X11826Y8674D01*
X11650Y8709D01*
D02*
G37*
G36*
X10700D02*
X10350D01*
X10174Y8674D01*
X10026Y8574D01*
X9926Y8426D01*
X9901Y8300D01*
X10700D01*
Y8709D01*
D02*
G37*
G36*
X28150Y8899D02*
Y8300D01*
X28559D01*
Y8450D01*
X28524Y8626D01*
X28424Y8774D01*
X28276Y8874D01*
X28150Y8899D01*
D02*
G37*
G36*
X17645Y8485D02*
X17265D01*
Y8145D01*
X17406Y8173D01*
X17539Y8262D01*
X17627Y8394D01*
X17629Y8407D01*
X17645Y8485D01*
D02*
G37*
G36*
X16735D02*
X16355D01*
X16373Y8394D01*
X16462Y8262D01*
X16594Y8173D01*
X16735Y8145D01*
Y8485D01*
D02*
G37*
G36*
X21581Y8243D02*
X21350D01*
Y7857D01*
X21377Y7862D01*
X21484Y7934D01*
X21556Y8042D01*
X21581Y8168D01*
Y8243D01*
D02*
G37*
G36*
X15099Y7700D02*
X14300D01*
Y7291D01*
X14650D01*
X14826Y7326D01*
X14974Y7426D01*
X15074Y7574D01*
X15099Y7700D01*
Y7700D01*
D02*
G37*
G36*
X13700D02*
X12901D01*
X12926Y7574D01*
X13026Y7426D01*
X13174Y7326D01*
X13350Y7291D01*
X13700D01*
Y7700D01*
D02*
G37*
G36*
X12099D02*
X11300D01*
Y7291D01*
X11650D01*
X11826Y7326D01*
X11974Y7426D01*
X12074Y7574D01*
X12099Y7700D01*
Y7700D01*
D02*
G37*
G36*
X10700D02*
X9901D01*
X9926Y7574D01*
X10026Y7426D01*
X10174Y7326D01*
X10350Y7291D01*
X10700D01*
Y7700D01*
D02*
G37*
G36*
X7100Y7700D02*
X6525D01*
X6558Y7620D01*
X6758Y7358D01*
X7020Y7158D01*
X7100Y7125D01*
Y7700D01*
D02*
G37*
G36*
X8775D02*
X8200D01*
Y7125D01*
X8280Y7158D01*
X8542Y7358D01*
X8742Y7620D01*
X8775Y7700D01*
D02*
G37*
G36*
X28559Y7700D02*
X28150D01*
Y7101D01*
X28276Y7126D01*
X28424Y7226D01*
X28524Y7374D01*
X28559Y7550D01*
Y7700D01*
D02*
G37*
G36*
X27550D02*
X27141D01*
Y7550D01*
X27176Y7374D01*
X27276Y7226D01*
X27424Y7126D01*
X27527Y7106D01*
D01*
X27550Y7101D01*
Y7700D01*
D02*
G37*
G36*
Y6599D02*
X27527Y6594D01*
D01*
X27424Y6574D01*
X27276Y6474D01*
X27176Y6326D01*
X27141Y6150D01*
Y6000D01*
X27550D01*
Y6000D01*
Y6599D01*
D02*
G37*
G36*
X20035Y6835D02*
X19752D01*
X19769Y6748D01*
X19841Y6641D01*
X19948Y6569D01*
X20035Y6552D01*
Y6835D01*
D02*
G37*
G36*
X28150Y6599D02*
Y6000D01*
X28559D01*
Y6150D01*
X28524Y6326D01*
X28424Y6474D01*
X28276Y6574D01*
X28150Y6599D01*
D02*
G37*
G36*
X2800Y3613D02*
Y2800D01*
X3613D01*
X3504Y3005D01*
X3279Y3279D01*
X3005Y3504D01*
X2800Y3613D01*
D02*
G37*
G36*
X35800Y3413D02*
Y2600D01*
X36613D01*
X36504Y2805D01*
X36279Y3079D01*
X36005Y3304D01*
X35800Y3413D01*
D02*
G37*
G36*
X34200D02*
X33995Y3304D01*
X33721Y3079D01*
X33496Y2805D01*
X33387Y2600D01*
X34200D01*
Y3413D01*
D02*
G37*
G36*
X25500Y2050D02*
X25175D01*
Y1700D01*
X25500D01*
Y2050D01*
D02*
G37*
G36*
X24575D02*
X24250D01*
Y1700D01*
X24575D01*
Y2050D01*
D02*
G37*
G36*
X25500Y1100D02*
X25175D01*
Y750D01*
X25500D01*
Y1100D01*
D02*
G37*
G36*
X24575D02*
X24250D01*
Y750D01*
X24575D01*
Y1100D01*
D02*
G37*
G36*
X22225Y3975D02*
X21025D01*
Y3058D01*
X20134Y2166D01*
X20067Y2067D01*
X20064Y2050D01*
X19400D01*
Y750D01*
X20650D01*
Y1695D01*
X20656Y1725D01*
X20656Y1725D01*
Y1823D01*
X21458Y2625D01*
X22225D01*
Y3975D01*
D02*
G37*
G36*
X24265Y10955D02*
Y10615D01*
X24645D01*
X24627Y10706D01*
X24538Y10838D01*
X24406Y10927D01*
X24265Y10955D01*
D02*
G37*
G36*
X23735D02*
X23594Y10927D01*
X23462Y10838D01*
X23373Y10706D01*
X23355Y10615D01*
X23735D01*
Y10955D01*
D02*
G37*
G36*
X26450Y11099D02*
Y10500D01*
X26859D01*
Y10650D01*
X26824Y10826D01*
X26724Y10974D01*
X26576Y11074D01*
X26450Y11099D01*
D02*
G37*
G36*
X25850Y11099D02*
X25724Y11074D01*
X25576Y10974D01*
X25476Y10826D01*
X25441Y10650D01*
Y10500D01*
X25850D01*
Y11099D01*
D02*
G37*
G36*
X24645Y10085D02*
X24265D01*
Y9745D01*
X24406Y9773D01*
X24538Y9862D01*
X24627Y9994D01*
X24645Y10085D01*
D02*
G37*
G36*
X23735D02*
X23355D01*
X23373Y9994D01*
X23462Y9862D01*
X23594Y9773D01*
X23735Y9745D01*
Y10085D01*
D02*
G37*
G36*
X24645Y8585D02*
X24265D01*
Y8245D01*
X24406Y8273D01*
X24539Y8362D01*
X24627Y8494D01*
X24645Y8585D01*
D02*
G37*
G36*
X23735D02*
X23355D01*
X23373Y8494D01*
X23462Y8362D01*
X23594Y8273D01*
X23735Y8245D01*
Y8585D01*
D02*
G37*
%LPD*%
D11*
X20518Y9250D02*
X21250Y8519D01*
X20510Y9259D02*
X20518Y9250D01*
X21900D01*
X21692Y350D02*
X26583D01*
X21575Y467D02*
X21692Y350D01*
X26583D02*
X26700Y467D01*
X24550Y4300D02*
Y6450D01*
Y3625D02*
Y4300D01*
X21575Y467D02*
Y1400D01*
X24550Y4300D02*
X25900D01*
X26700Y3500D01*
Y467D02*
Y3500D01*
X22550Y8450D02*
X24550Y6450D01*
X22550Y8450D02*
Y9650D01*
X20500Y10150D02*
X20510Y10140D01*
Y9259D02*
Y10140D01*
X21250Y8344D02*
Y8519D01*
X21000Y10325D02*
Y10825D01*
X19725Y3550D02*
X19975Y3300D01*
X19200Y4075D02*
X19725Y3550D01*
X19200Y4075D02*
Y7119D01*
X20250Y8168D01*
X22100Y8100D02*
Y8700D01*
Y8100D02*
X23325Y6875D01*
Y3300D02*
Y6875D01*
X26150Y5500D02*
Y5700D01*
X24875Y3275D02*
Y3300D01*
X21900Y9750D02*
X22450D01*
X22550Y9650D01*
X21725Y9773D02*
Y9775D01*
Y9773D02*
X21748Y9750D01*
X21900D01*
X22075Y10250D02*
X22085Y10260D01*
X21900Y10250D02*
X22075D01*
X26000Y10350D02*
X26150Y10200D01*
X20025Y1400D02*
X20350Y1725D01*
Y1950D01*
X21625Y3225D01*
Y3300D01*
X20250Y8168D02*
Y8344D01*
X24550Y3625D02*
X24875Y3300D01*
X26150Y5700D02*
Y8000D01*
Y10200D01*
X23325Y1400D02*
Y3300D01*
X23910Y10260D02*
X24000Y10350D01*
X18055Y10256D02*
X18563Y9748D01*
X19093D01*
X19103Y9738D01*
X18055Y10256D02*
X18060Y10262D01*
X19103D01*
X20750Y7450D02*
X21200Y7000D01*
X20750Y7450D02*
Y8344D01*
X19740Y8353D02*
X19750Y8344D01*
X19740Y8353D02*
Y8776D01*
X19278Y9238D02*
X19740Y8776D01*
X19103Y9238D02*
X19278D01*
X18075Y6200D02*
X18400Y6525D01*
Y6819D01*
X19750Y8168D01*
Y8344D01*
X15800Y6950D02*
Y10250D01*
Y6950D02*
X16525Y6225D01*
Y6200D02*
Y6225D01*
X22080Y13900D02*
X22100Y13880D01*
X18700Y13880D02*
X18720Y13900D01*
X20000Y10325D02*
Y10825D01*
X7650Y10750D02*
X7900Y11000D01*
X14000D02*
X14400D01*
D13*
X19275Y9775D02*
Y10225D01*
X21725Y9775D02*
Y10225D01*
D25*
X7650Y10750D02*
D03*
D26*
Y8250D02*
D03*
D30*
X18720Y13900D02*
D03*
X22080D02*
D03*
D31*
X24000Y8850D02*
D03*
X24000Y10350D02*
D03*
X17000Y8750D02*
D03*
X17000Y10250D02*
D03*
D32*
X26150Y5700D02*
D03*
X27850D02*
D03*
X26150Y8000D02*
D03*
X27850D02*
D03*
X26150Y10200D02*
D03*
X27850D02*
D03*
D33*
X23325Y1400D02*
D03*
X24875D02*
D03*
Y3300D02*
D03*
X23325D02*
D03*
X21575Y1400D02*
D03*
X20025D02*
D03*
X16525Y6200D02*
D03*
X18075D02*
D03*
D34*
X21200Y7000D02*
D03*
X20200D02*
D03*
D35*
X19975Y3300D02*
D03*
X21625D02*
D03*
D36*
X11000Y8000D02*
D03*
Y11000D02*
D03*
X14000Y8000D02*
D03*
Y11000D02*
D03*
D37*
X19103Y10262D02*
D03*
X21900Y8750D02*
D03*
Y9250D02*
D03*
Y9750D02*
D03*
Y10250D02*
D03*
X19103Y9738D02*
D03*
Y9238D02*
D03*
Y8738D02*
D03*
D38*
X19750Y8344D02*
D03*
X20250D02*
D03*
X20750D02*
D03*
X21250D02*
D03*
D39*
X21000Y10325D02*
D03*
X20000D02*
D03*
D40*
X20500Y10150D02*
D03*
D41*
X27025Y4625D02*
X29575D01*
X32800Y7850D01*
X26150Y5500D02*
X27025Y4625D01*
X15800Y10250D02*
X17000D01*
X15150D02*
X15800D01*
X7900Y11000D02*
X11000D01*
X14000D01*
X14400D02*
X15150Y10250D01*
X17006Y10256D02*
X18055D01*
D42*
X17000Y10250D02*
X17006Y10256D01*
D43*
X32800Y7850D02*
D03*
D44*
Y11350D02*
D03*
D45*
X35000Y1800D02*
D03*
X2000Y2000D02*
D03*
X1800Y16600D02*
D03*
X35100D02*
D03*
D46*
X34000Y13000D02*
D03*
X35000Y11000D02*
D03*
Y7000D02*
D03*
X34000Y5000D02*
D03*
X32000Y17000D02*
D03*
X33000Y15000D02*
D03*
X32000Y13000D02*
D03*
Y5000D02*
D03*
X33000Y3000D02*
D03*
X32000Y1000D02*
D03*
X30000Y17000D02*
D03*
X31000Y15000D02*
D03*
X30000Y13000D02*
D03*
X31000Y11000D02*
D03*
X30000Y9000D02*
D03*
X31000Y3000D02*
D03*
X30000Y1000D02*
D03*
X28000Y17000D02*
D03*
X29000Y15000D02*
D03*
X28000Y13000D02*
D03*
X29000Y3000D02*
D03*
X28000Y1000D02*
D03*
X26000Y17000D02*
D03*
X27000Y15000D02*
D03*
X26000Y13000D02*
D03*
X27000Y7000D02*
D03*
X24000Y17000D02*
D03*
X25000Y15000D02*
D03*
X24000Y13000D02*
D03*
X22000Y17000D02*
D03*
Y5000D02*
D03*
X20000Y17000D02*
D03*
X18000D02*
D03*
Y5000D02*
D03*
X19000Y3000D02*
D03*
X18000Y1000D02*
D03*
X16000Y17000D02*
D03*
X17000Y15000D02*
D03*
X16000Y13000D02*
D03*
Y5000D02*
D03*
X17000Y3000D02*
D03*
X16000Y1000D02*
D03*
X14000Y17000D02*
D03*
X15000Y15000D02*
D03*
X14000Y13000D02*
D03*
Y9000D02*
D03*
Y5000D02*
D03*
X15000Y3000D02*
D03*
X14000Y1000D02*
D03*
X12000Y17000D02*
D03*
X13000Y15000D02*
D03*
X12000Y13000D02*
D03*
Y9000D02*
D03*
Y5000D02*
D03*
X13000Y3000D02*
D03*
X12000Y1000D02*
D03*
X10000Y17000D02*
D03*
X11000Y15000D02*
D03*
X10000Y13000D02*
D03*
Y9000D02*
D03*
Y5000D02*
D03*
X11000Y3000D02*
D03*
X10000Y1000D02*
D03*
X8000Y17000D02*
D03*
X9000Y15000D02*
D03*
X8000Y13000D02*
D03*
X9000Y7000D02*
D03*
X8000Y5000D02*
D03*
X9000Y3000D02*
D03*
X8000Y1000D02*
D03*
X6000Y17000D02*
D03*
X7000Y15000D02*
D03*
X6000Y13000D02*
D03*
Y9000D02*
D03*
Y5000D02*
D03*
X7000Y3000D02*
D03*
X6000Y1000D02*
D03*
X4000Y17000D02*
D03*
X5000Y15000D02*
D03*
X4000Y13000D02*
D03*
X5000Y11000D02*
D03*
X4000Y9000D02*
D03*
X5000Y7000D02*
D03*
X4000Y5000D02*
D03*
X5000Y3000D02*
D03*
X4000Y1000D02*
D03*
X2000Y13000D02*
D03*
X3000Y11000D02*
D03*
X2000Y9000D02*
D03*
X3000Y7000D02*
D03*
X2000Y5000D02*
D03*
X26000Y1100D02*
D03*
Y1900D02*
D03*
X28900Y5700D02*
D03*
Y6400D02*
D03*
Y7100D02*
D03*
Y7800D02*
D03*
Y8500D02*
D03*
X28925Y9225D02*
D03*
Y9950D02*
D03*
Y10675D02*
D03*
X24450Y7775D02*
D03*
X22075Y6375D02*
D03*
X22475Y6850D02*
D03*
X22025Y7300D02*
D03*
X19800Y5500D02*
D03*
X20400D02*
D03*
Y6100D02*
D03*
X19800D02*
D03*
X18000Y8400D02*
D03*
X18400Y8000D02*
D03*
X17800Y7600D02*
D03*
X17100D02*
D03*
X16400D02*
D03*
X14900Y5900D02*
D03*
Y6800D02*
D03*
X14400Y6300D02*
D03*
X13900Y6800D02*
D03*
X13800Y6000D02*
D03*
X13300Y6400D02*
D03*
X12800Y6800D02*
D03*
Y6000D02*
D03*
X12300Y6400D02*
D03*
X11800Y6800D02*
D03*
Y6000D02*
D03*
X11300Y6400D02*
D03*
X10800Y6800D02*
D03*
Y6000D02*
D03*
X10300Y6400D02*
D03*
X9800Y6000D02*
D03*
Y6800D02*
D03*
X20800Y9200D02*
D03*
M02*
