G04*
G04 #@! TF.GenerationSoftware,Altium Limited,Altium Designer,19.1.6 (110)*
G04*
G04 Layer_Color=16711935*
%FSLAX43Y43*%
%MOMM*%
G71*
G01*
G75*
%ADD31C,1.900*%
%ADD32R,1.900X1.900*%
%ADD33C,5.100*%
%ADD34C,0.700*%
D31*
X4125Y10750D02*
D03*
X45800Y14250D02*
D03*
D32*
X4125D02*
D03*
X45800Y10750D02*
D03*
D33*
X4000Y4000D02*
D03*
X46000D02*
D03*
Y21000D02*
D03*
X4000D02*
D03*
D34*
X31800Y8800D02*
D03*
X30900Y8000D02*
D03*
X38200Y23600D02*
D03*
X27200Y9600D02*
D03*
X26400Y22300D02*
D03*
X10100Y17300D02*
D03*
X7400Y17300D02*
D03*
X17000Y18500D02*
D03*
X13900Y2600D02*
D03*
X10600Y4775D02*
D03*
X9700Y3875D02*
D03*
X10600D02*
D03*
X9700Y5675D02*
D03*
X10600D02*
D03*
X12400D02*
D03*
Y6575D02*
D03*
X11500Y5675D02*
D03*
Y6575D02*
D03*
X8800Y3875D02*
D03*
X12400Y4775D02*
D03*
X8800Y6575D02*
D03*
X10600D02*
D03*
X9700D02*
D03*
Y4775D02*
D03*
X8800Y5675D02*
D03*
Y4775D02*
D03*
X12400Y3875D02*
D03*
X11500Y4775D02*
D03*
Y3875D02*
D03*
X19400Y7300D02*
D03*
X23000Y18500D02*
D03*
Y21800D02*
D03*
X25000Y5000D02*
D03*
X39800Y18400D02*
D03*
X41400D02*
D03*
X29000Y13000D02*
D03*
Y12000D02*
D03*
X30000Y13000D02*
D03*
Y12000D02*
D03*
X30300Y19500D02*
D03*
M02*
