M48
;Layer_Color=9474304
;FILE_FORMAT=4:3
METRIC,LZ
;TYPE=PLATED
T1F00S00C0.300
T2F00S00C1.200
T3F00S00C2.700
%
T01
X00088Y0003875
X00097
X00106
Y0004775
Y0005675
X00097
Y0004775
X00088
Y0005675
Y0006575
X00097
X00106
X00115
X00124
Y0005675
X00115
Y0004775
X00124
Y0003875
X00115
X00139Y00026
X0015Y00025
X002
X00225
X0025
X00275
X003
X0035
X003875Y0005
X00384Y0009
X00389Y00098
X00364Y0009
X00343
X00339Y00098
X00318Y00088
X00309Y0008
X003Y0012
X0029
Y0013
X003
X00309Y00168
X00315Y00192
X00303Y00195
X00275Y00175
X0025
X0023Y00185
Y00218
X00264Y00223
X00266Y0015
X002125
X001875
X00159Y00153
X00155Y0016
X00135
X00114
X0011Y00153
X00101Y00173
X00074Y00173
X00087Y00134
Y00125
X00096
Y00116
X00087
X00096Y00134
X0011Y00098
X00114Y0009
X00135
X00156
X0016Y00098
X001875Y001
X002125
X00225Y00075
X0025
Y0005
X00272Y00096
X00194Y00073
X0017Y00185
X001375Y002
X00075Y00225
X00382Y00236
X0039Y00192
X0037Y00183
X00364Y0016
X00385
X00389Y00152
X00343Y0016
X00398Y00184
X00414
X00415Y00134
Y00125
Y00116
X00425Y00075
X004125Y0005
X00425Y00025
X004875Y001
Y0015
X004375
T02
X0004125Y001075
Y001425
X00458
Y001075
T03
X0004Y0004
Y0021
X0046
Y0004
M30
