G04*
G04 #@! TF.GenerationSoftware,Altium Limited,Altium Designer,19.1.6 (110)*
G04*
G04 Layer_Physical_Order=1*
G04 Layer_Color=255*
%FSLAX43Y43*%
%MOMM*%
G71*
G01*
G75*
%ADD11C,0.200*%
%ADD35R,2.150X1.500*%
G04:AMPARAMS|DCode=36|XSize=4.52mm|YSize=3.85mm|CornerRadius=0.481mm|HoleSize=0mm|Usage=FLASHONLY|Rotation=180.000|XOffset=0mm|YOffset=0mm|HoleType=Round|Shape=RoundedRectangle|*
%AMROUNDEDRECTD36*
21,1,4.520,2.888,0,0,180.0*
21,1,3.558,3.850,0,0,180.0*
1,1,0.963,-1.779,1.444*
1,1,0.963,1.779,1.444*
1,1,0.963,1.779,-1.444*
1,1,0.963,-1.779,-1.444*
%
%ADD36ROUNDEDRECTD36*%
G04:AMPARAMS|DCode=37|XSize=0.71mm|YSize=1.372mm|CornerRadius=0.089mm|HoleSize=0mm|Usage=FLASHONLY|Rotation=180.000|XOffset=0mm|YOffset=0mm|HoleType=Round|Shape=RoundedRectangle|*
%AMROUNDEDRECTD37*
21,1,0.710,1.195,0,0,180.0*
21,1,0.532,1.372,0,0,180.0*
1,1,0.178,-0.266,0.597*
1,1,0.178,0.266,0.597*
1,1,0.178,0.266,-0.597*
1,1,0.178,-0.266,-0.597*
%
%ADD37ROUNDEDRECTD37*%
%ADD38R,0.710X1.372*%
%ADD39R,1.800X1.700*%
%ADD40R,0.850X0.900*%
%ADD41R,1.750X3.000*%
%ADD42R,1.650X1.650*%
G04:AMPARAMS|DCode=43|XSize=0.25mm|YSize=0.7mm|CornerRadius=0.063mm|HoleSize=0mm|Usage=FLASHONLY|Rotation=0.000|XOffset=0mm|YOffset=0mm|HoleType=Round|Shape=RoundedRectangle|*
%AMROUNDEDRECTD43*
21,1,0.250,0.575,0,0,0.0*
21,1,0.125,0.700,0,0,0.0*
1,1,0.125,0.063,-0.288*
1,1,0.125,-0.063,-0.288*
1,1,0.125,-0.063,0.288*
1,1,0.125,0.063,0.288*
%
%ADD43ROUNDEDRECTD43*%
G04:AMPARAMS|DCode=44|XSize=0.25mm|YSize=0.7mm|CornerRadius=0.063mm|HoleSize=0mm|Usage=FLASHONLY|Rotation=90.000|XOffset=0mm|YOffset=0mm|HoleType=Round|Shape=RoundedRectangle|*
%AMROUNDEDRECTD44*
21,1,0.250,0.575,0,0,90.0*
21,1,0.125,0.700,0,0,90.0*
1,1,0.125,0.288,0.063*
1,1,0.125,0.288,-0.063*
1,1,0.125,-0.288,-0.063*
1,1,0.125,-0.288,0.063*
%
%ADD44ROUNDEDRECTD44*%
%ADD45R,0.700X0.250*%
G04:AMPARAMS|DCode=46|XSize=1.4mm|YSize=1mm|CornerRadius=0.25mm|HoleSize=0mm|Usage=FLASHONLY|Rotation=180.000|XOffset=0mm|YOffset=0mm|HoleType=Round|Shape=RoundedRectangle|*
%AMROUNDEDRECTD46*
21,1,1.400,0.500,0,0,180.0*
21,1,0.900,1.000,0,0,180.0*
1,1,0.500,-0.450,0.250*
1,1,0.500,0.450,0.250*
1,1,0.500,0.450,-0.250*
1,1,0.500,-0.450,-0.250*
%
%ADD46ROUNDEDRECTD46*%
G04:AMPARAMS|DCode=47|XSize=0.9mm|YSize=0.8mm|CornerRadius=0.2mm|HoleSize=0mm|Usage=FLASHONLY|Rotation=180.000|XOffset=0mm|YOffset=0mm|HoleType=Round|Shape=RoundedRectangle|*
%AMROUNDEDRECTD47*
21,1,0.900,0.400,0,0,180.0*
21,1,0.500,0.800,0,0,180.0*
1,1,0.400,-0.250,0.200*
1,1,0.400,0.250,0.200*
1,1,0.400,0.250,-0.200*
1,1,0.400,-0.250,-0.200*
%
%ADD47ROUNDEDRECTD47*%
G04:AMPARAMS|DCode=48|XSize=0.9mm|YSize=0.8mm|CornerRadius=0.2mm|HoleSize=0mm|Usage=FLASHONLY|Rotation=90.000|XOffset=0mm|YOffset=0mm|HoleType=Round|Shape=RoundedRectangle|*
%AMROUNDEDRECTD48*
21,1,0.900,0.400,0,0,90.0*
21,1,0.500,0.800,0,0,90.0*
1,1,0.400,0.200,0.250*
1,1,0.400,0.200,-0.250*
1,1,0.400,-0.200,-0.250*
1,1,0.400,-0.200,0.250*
%
%ADD48ROUNDEDRECTD48*%
%ADD49R,0.900X0.850*%
%ADD50R,1.400X1.300*%
%ADD51R,0.800X0.950*%
%ADD52C,1.800*%
%ADD53R,1.800X1.800*%
%ADD54C,5.000*%
%ADD55C,0.600*%
G36*
X49745Y255D02*
X255D01*
Y24745D01*
X49745D01*
Y255D01*
D02*
G37*
%LPC*%
G36*
X38200Y24110D02*
X38005Y24071D01*
X37840Y23960D01*
X37803Y23906D01*
X37700D01*
X37700Y23906D01*
X37583Y23883D01*
X37484Y23816D01*
X37059Y23391D01*
X36992Y23292D01*
X36969Y23175D01*
X36969Y23175D01*
Y22950D01*
X36650D01*
Y21650D01*
X37900D01*
Y22950D01*
X37650D01*
X37610Y23077D01*
X37778Y23246D01*
X37840Y23240D01*
X38005Y23129D01*
X38200Y23090D01*
X38395Y23129D01*
X38560Y23240D01*
X38671Y23405D01*
X38710Y23600D01*
X38671Y23795D01*
X38560Y23960D01*
X38395Y24071D01*
X38200Y24110D01*
D02*
G37*
G36*
X18100Y24550D02*
X15900D01*
Y23556D01*
X13200D01*
Y24100D01*
X11400D01*
Y22400D01*
X13200D01*
Y22944D01*
X15900D01*
Y22450D01*
X18100D01*
Y24550D01*
D02*
G37*
G36*
X28150Y22950D02*
X26900D01*
Y22680D01*
X26773Y22642D01*
X26760Y22660D01*
X26595Y22771D01*
X26400Y22810D01*
X26205Y22771D01*
X26040Y22660D01*
X25929Y22495D01*
X25890Y22300D01*
X25929Y22105D01*
X26040Y21940D01*
X26205Y21829D01*
X26400Y21790D01*
X26595Y21829D01*
X26760Y21940D01*
X26773Y21958D01*
X26900Y21920D01*
Y21650D01*
X28150D01*
Y22950D01*
D02*
G37*
G36*
X42000D02*
X41675D01*
Y22600D01*
X42000D01*
Y22950D01*
D02*
G37*
G36*
X41075D02*
X40750D01*
Y22600D01*
X41075D01*
Y22950D01*
D02*
G37*
G36*
X33415Y22945D02*
Y22565D01*
X33755D01*
X33727Y22706D01*
X33638Y22838D01*
X33506Y22927D01*
X33415Y22945D01*
D02*
G37*
G36*
X32885D02*
X32794Y22927D01*
X32662Y22838D01*
X32573Y22706D01*
X32545Y22565D01*
X32885D01*
Y22945D01*
D02*
G37*
G36*
X47000Y23725D02*
Y22000D01*
X48725D01*
X48592Y22321D01*
X48353Y22710D01*
X48057Y23057D01*
X47710Y23353D01*
X47321Y23592D01*
X47000Y23725D01*
D02*
G37*
G36*
X45000D02*
X44679Y23592D01*
X44290Y23353D01*
X43943Y23057D01*
X43647Y22710D01*
X43408Y22321D01*
X43275Y22000D01*
X45000D01*
Y23725D01*
D02*
G37*
G36*
X5000D02*
Y22000D01*
X6725D01*
X6592Y22321D01*
X6353Y22710D01*
X6057Y23057D01*
X5710Y23353D01*
X5321Y23592D01*
X5000Y23725D01*
D02*
G37*
G36*
X3000D02*
X2679Y23592D01*
X2290Y23353D01*
X1943Y23057D01*
X1647Y22710D01*
X1408Y22321D01*
X1275Y22000D01*
X3000D01*
Y23725D01*
D02*
G37*
G36*
X9450Y22300D02*
X8150D01*
Y21981D01*
X8008D01*
X8008Y21981D01*
X7891Y21958D01*
X7791Y21891D01*
X7791Y21891D01*
X7184Y21284D01*
X7117Y21184D01*
X7094Y21067D01*
X7094Y21067D01*
Y17697D01*
X7040Y17660D01*
X6929Y17495D01*
X6890Y17300D01*
X6929Y17105D01*
X7040Y16940D01*
X7205Y16829D01*
X7400Y16790D01*
X7595Y16829D01*
X7760Y16940D01*
X7871Y17105D01*
X7910Y17300D01*
X7871Y17495D01*
X7760Y17660D01*
X7706Y17697D01*
Y20941D01*
X8023Y21258D01*
X8150Y21205D01*
Y21050D01*
X9450D01*
Y21350D01*
X9617D01*
X10834Y20134D01*
X10933Y20067D01*
X11050Y20044D01*
X11450D01*
Y19500D01*
X13250D01*
Y21200D01*
X11450D01*
Y20656D01*
X11177D01*
X9960Y21872D01*
X9861Y21938D01*
X9744Y21962D01*
X9744Y21962D01*
X9450D01*
Y22300D01*
D02*
G37*
G36*
X33755Y22035D02*
X33415D01*
Y21655D01*
X33506Y21673D01*
X33638Y21762D01*
X33727Y21894D01*
X33755Y22035D01*
D02*
G37*
G36*
X32885D02*
X32545D01*
X32573Y21894D01*
X32662Y21762D01*
X32794Y21673D01*
X32885Y21655D01*
Y22035D01*
D02*
G37*
G36*
X42000Y22000D02*
X41675D01*
Y21650D01*
X42000D01*
Y22000D01*
D02*
G37*
G36*
X41075D02*
X40750D01*
Y21650D01*
X41075D01*
Y22000D01*
D02*
G37*
G36*
X24100Y24550D02*
X21900D01*
Y22450D01*
X22694D01*
Y22197D01*
X22640Y22160D01*
X22529Y21995D01*
X22490Y21800D01*
X22529Y21605D01*
X22640Y21440D01*
X22805Y21329D01*
X23000Y21290D01*
X23195Y21329D01*
X23360Y21440D01*
X23471Y21605D01*
X23510Y21800D01*
X23471Y21995D01*
X23360Y22160D01*
X23306Y22197D01*
Y22450D01*
X24100D01*
Y24550D01*
D02*
G37*
G36*
X28150Y21250D02*
X27825D01*
Y20900D01*
X28150D01*
Y21250D01*
D02*
G37*
G36*
X27225D02*
X26900D01*
Y20900D01*
X27225D01*
Y21250D01*
D02*
G37*
G36*
X36975D02*
X36650D01*
Y20900D01*
X36975D01*
Y21250D01*
D02*
G37*
G36*
X31850Y22958D02*
X31450D01*
X31294Y22927D01*
X31162Y22838D01*
X31073Y22706D01*
X31042Y22550D01*
Y22050D01*
X31073Y21894D01*
X31162Y21761D01*
X31294Y21673D01*
X31294Y21673D01*
Y21250D01*
X31000D01*
Y19950D01*
X32250D01*
Y21250D01*
X31906D01*
Y21653D01*
X32006Y21673D01*
X32138Y21761D01*
X32227Y21894D01*
X32258Y22050D01*
Y22550D01*
X32227Y22706D01*
X32138Y22838D01*
X32006Y22927D01*
X31850Y22958D01*
D02*
G37*
G36*
X28150Y20300D02*
X27825D01*
Y19950D01*
X28150D01*
Y20300D01*
D02*
G37*
G36*
X27225D02*
X26900D01*
Y19950D01*
X27225D01*
Y20300D01*
D02*
G37*
G36*
X36975D02*
X36650D01*
Y19950D01*
X36975D01*
Y20300D01*
D02*
G37*
G36*
X48725Y20000D02*
X47000D01*
Y18275D01*
X47321Y18408D01*
X47710Y18647D01*
X48057Y18943D01*
X48353Y19290D01*
X48592Y19679D01*
X48725Y20000D01*
D02*
G37*
G36*
X45000D02*
X43275D01*
X43408Y19679D01*
X43647Y19290D01*
X43943Y18943D01*
X44290Y18647D01*
X44679Y18408D01*
X45000Y18275D01*
Y20000D01*
D02*
G37*
G36*
X6725D02*
X5000D01*
Y18275D01*
X5321Y18408D01*
X5710Y18647D01*
X6057Y18943D01*
X6353Y19290D01*
X6592Y19679D01*
X6725Y20000D01*
D02*
G37*
G36*
X3000D02*
X1275D01*
X1408Y19679D01*
X1647Y19290D01*
X1943Y18943D01*
X2290Y18647D01*
X2679Y18408D01*
X3000Y18275D01*
Y20000D01*
D02*
G37*
G36*
X24100Y21150D02*
X21900D01*
Y19050D01*
X22694D01*
Y18897D01*
X22640Y18860D01*
X22529Y18695D01*
X22490Y18500D01*
X22529Y18305D01*
X22640Y18140D01*
X22805Y18029D01*
X23000Y17990D01*
X23195Y18029D01*
X23360Y18140D01*
X23471Y18305D01*
X23510Y18500D01*
X23471Y18695D01*
X23360Y18860D01*
X23306Y18897D01*
Y19050D01*
X24100D01*
Y21150D01*
D02*
G37*
G36*
X18100D02*
X15900D01*
Y19050D01*
X16694D01*
Y18897D01*
X16640Y18860D01*
X16529Y18695D01*
X16490Y18500D01*
X16529Y18305D01*
X16640Y18140D01*
X16805Y18029D01*
X17000Y17990D01*
X17195Y18029D01*
X17360Y18140D01*
X17471Y18305D01*
X17510Y18500D01*
X17471Y18695D01*
X17360Y18860D01*
X17306Y18897D01*
Y19050D01*
X18100D01*
Y21150D01*
D02*
G37*
G36*
X42000Y21250D02*
X40750D01*
Y19950D01*
X41094D01*
Y18797D01*
X41040Y18760D01*
X40929Y18595D01*
X40890Y18400D01*
X40929Y18205D01*
X41040Y18040D01*
X41205Y17929D01*
X41400Y17890D01*
X41595Y17929D01*
X41760Y18040D01*
X41871Y18205D01*
X41910Y18400D01*
X41871Y18595D01*
X41760Y18760D01*
X41706Y18797D01*
Y19950D01*
X42000D01*
Y21250D01*
D02*
G37*
G36*
X40450Y22950D02*
X39200D01*
Y22606D01*
X39100D01*
X38983Y22583D01*
X38884Y22516D01*
X38084Y21716D01*
X38017Y21617D01*
X37994Y21500D01*
X37994Y21500D01*
Y21329D01*
X37900Y21250D01*
X37867Y21250D01*
X37575D01*
Y20600D01*
Y19950D01*
X37867D01*
X37900Y19950D01*
X37994Y19871D01*
Y17759D01*
X37741Y17506D01*
X35704D01*
X35656Y17623D01*
X35941Y17909D01*
X35941Y17909D01*
X36008Y18008D01*
X36031Y18125D01*
Y19950D01*
X36350D01*
Y21250D01*
X36031D01*
Y21650D01*
X36350D01*
Y22950D01*
X35100D01*
Y21650D01*
X35419D01*
Y21250D01*
X35100D01*
Y19950D01*
X35419D01*
Y18252D01*
X35173Y18006D01*
X32904D01*
X32856Y18123D01*
X33391Y18659D01*
X33458Y18758D01*
X33481Y18875D01*
X33481Y18875D01*
Y19950D01*
X33800D01*
Y21250D01*
X32550D01*
Y19950D01*
X32869D01*
Y19002D01*
X32373Y18506D01*
X30717D01*
X30678Y18527D01*
X30627Y18578D01*
X30606Y18617D01*
Y19103D01*
X30660Y19140D01*
X30771Y19305D01*
X30810Y19500D01*
X30771Y19695D01*
X30660Y19860D01*
X30606Y19897D01*
Y22000D01*
X30583Y22117D01*
X30516Y22216D01*
X30241Y22491D01*
X30142Y22558D01*
X30025Y22581D01*
X30025Y22581D01*
X29700D01*
Y22950D01*
X28450D01*
Y21650D01*
X29700D01*
Y21969D01*
X29898D01*
X29994Y21873D01*
Y19897D01*
X29940Y19860D01*
X29829Y19695D01*
X29790Y19500D01*
X29829Y19305D01*
X29940Y19140D01*
X29994Y19103D01*
Y18727D01*
X29533Y18265D01*
X29406Y18318D01*
Y19950D01*
X29700D01*
Y21250D01*
X28450D01*
Y19950D01*
X28794D01*
Y18327D01*
X28534Y18066D01*
X28467Y17967D01*
X28444Y17850D01*
X28444Y17850D01*
Y15411D01*
X28430Y15406D01*
X28317Y15390D01*
X28266Y15466D01*
X27816Y15916D01*
X27717Y15983D01*
X27600Y16006D01*
X27600Y16006D01*
X17175D01*
X17058Y15983D01*
X16959Y15916D01*
X16959Y15916D01*
X16409Y15366D01*
X16342Y15267D01*
X16319Y15150D01*
X16319Y15150D01*
Y14904D01*
X15409D01*
Y15200D01*
X15374Y15376D01*
X15274Y15524D01*
X15126Y15624D01*
X14950Y15659D01*
X14800D01*
Y14950D01*
X14200D01*
Y15659D01*
X14050D01*
X13874Y15624D01*
X13726Y15524D01*
X13626Y15376D01*
X13591Y15200D01*
Y14904D01*
X13409D01*
Y15200D01*
X13374Y15376D01*
X13274Y15524D01*
X13126Y15624D01*
X12950Y15659D01*
X12800D01*
Y14950D01*
X12200D01*
Y15659D01*
X12050D01*
X11874Y15624D01*
X11726Y15524D01*
X11626Y15376D01*
X11591Y15200D01*
Y14904D01*
X7581D01*
X6551Y16037D01*
X6547Y16040D01*
X6544Y16044D01*
X6515Y16064D01*
X6487Y16084D01*
X6482Y16086D01*
X6478Y16088D01*
X6444Y16095D01*
X6410Y16104D01*
X6405Y16103D01*
X6400Y16104D01*
X2400D01*
X2322Y16088D01*
X2256Y16044D01*
X2212Y15978D01*
X2196Y15900D01*
Y12500D01*
X2212Y12422D01*
X2256Y12356D01*
X2322Y12312D01*
X2400Y12296D01*
X5118D01*
X7259Y10252D01*
X7291Y10232D01*
X7322Y10212D01*
X7324Y10211D01*
X7326Y10210D01*
X7363Y10203D01*
X7400Y10196D01*
X11591D01*
Y9800D01*
X11626Y9624D01*
X11726Y9476D01*
X11874Y9376D01*
X12050Y9341D01*
X12200D01*
Y10050D01*
X12800D01*
Y9341D01*
X12950D01*
X13126Y9376D01*
X13274Y9476D01*
X13374Y9624D01*
X13409Y9800D01*
Y10196D01*
X13591D01*
Y9800D01*
X13626Y9624D01*
X13726Y9476D01*
X13874Y9376D01*
X14050Y9341D01*
X14200D01*
Y10050D01*
X14800D01*
Y9341D01*
X14950D01*
X15126Y9376D01*
X15274Y9476D01*
X15374Y9624D01*
X15409Y9800D01*
Y10196D01*
X18200D01*
X18278Y10212D01*
X18344Y10256D01*
X18388Y10322D01*
X18404Y10400D01*
Y14700D01*
X18388Y14778D01*
X18344Y14844D01*
X18278Y14888D01*
X18200Y14904D01*
X16949D01*
X16938Y15031D01*
X17302Y15394D01*
X27473D01*
X27744Y15123D01*
Y13575D01*
X27500D01*
Y13056D01*
X27331D01*
X27283Y13104D01*
Y13425D01*
X27252Y13581D01*
X27163Y13713D01*
X27031Y13802D01*
X26875Y13833D01*
X26375D01*
X26219Y13802D01*
X26086Y13713D01*
X26059Y13672D01*
X25892Y13651D01*
X24559Y14852D01*
X24529Y14869D01*
X24500Y14888D01*
X24495Y14889D01*
X24490Y14892D01*
X24456Y14897D01*
X24422Y14904D01*
X21800Y14904D01*
X21722Y14888D01*
X21656Y14844D01*
X21612Y14778D01*
X21596Y14700D01*
Y10400D01*
X21612Y10322D01*
X21656Y10256D01*
X21722Y10212D01*
X21800Y10196D01*
X26456Y10196D01*
X26491Y10203D01*
X26527Y10209D01*
X26530Y10211D01*
X26534Y10212D01*
X26564Y10232D01*
X26595Y10251D01*
X27239Y10851D01*
X27241Y10854D01*
X27244Y10856D01*
X27369Y10981D01*
X27386Y11006D01*
X27390Y11010D01*
X27394Y11014D01*
X27419Y11031D01*
X27641Y11252D01*
X27644Y11254D01*
X27652Y11267D01*
X27663Y11277D01*
X27687Y11309D01*
X27700Y11337D01*
X27716Y11364D01*
X27737Y11425D01*
X27763Y11420D01*
X28307D01*
X28372Y11372D01*
X28420Y11307D01*
Y11150D01*
X28750D01*
Y11050D01*
X28850D01*
Y10453D01*
X28893Y10405D01*
X28894Y10375D01*
X28781Y10258D01*
X28550D01*
X28394Y10227D01*
X28262Y10138D01*
X28173Y10006D01*
X28153Y9906D01*
X27597D01*
X27560Y9960D01*
X27395Y10071D01*
X27200Y10110D01*
X27005Y10071D01*
X26840Y9960D01*
X26729Y9795D01*
X26690Y9600D01*
X26729Y9405D01*
X26840Y9240D01*
X27005Y9129D01*
X27200Y9090D01*
X27395Y9129D01*
X27560Y9240D01*
X27597Y9294D01*
X28153D01*
X28173Y9194D01*
X28262Y9062D01*
X28394Y8973D01*
X28444Y8963D01*
Y8450D01*
X28444Y8450D01*
X28467Y8333D01*
X28534Y8234D01*
X28984Y7784D01*
X29083Y7717D01*
X29200Y7694D01*
X29200Y7694D01*
X30503D01*
X30540Y7640D01*
X30705Y7529D01*
X30900Y7490D01*
X31095Y7529D01*
X31260Y7640D01*
X31367Y7799D01*
X31377Y7801D01*
X31494Y7758D01*
Y6750D01*
X31100D01*
Y5450D01*
X32051D01*
X32100Y5333D01*
X31842Y5075D01*
X31075D01*
Y3725D01*
X32275D01*
Y4642D01*
X32598Y4965D01*
X32725Y4913D01*
Y4665D01*
X33060D01*
Y5075D01*
X32887D01*
X32835Y5202D01*
X33083Y5450D01*
X33900D01*
Y6750D01*
X32650D01*
Y5883D01*
X32467Y5700D01*
X32350Y5749D01*
Y6750D01*
X32106D01*
Y8403D01*
X32160Y8440D01*
X32271Y8605D01*
X32310Y8800D01*
X32271Y8995D01*
X32160Y9160D01*
X31995Y9271D01*
X31800Y9310D01*
X31605Y9271D01*
X31440Y9160D01*
X31329Y8995D01*
X31290Y8800D01*
X31329Y8605D01*
X31440Y8440D01*
X31494Y8403D01*
Y8242D01*
X31377Y8199D01*
X31367Y8201D01*
X31260Y8360D01*
X31095Y8471D01*
X30900Y8510D01*
X30705Y8471D01*
X30540Y8360D01*
X30503Y8306D01*
X29327D01*
X29056Y8577D01*
Y8963D01*
X29106Y8973D01*
X29238Y9062D01*
X29327Y9194D01*
X29358Y9350D01*
Y9850D01*
X29353Y9875D01*
X29466Y9988D01*
X29466Y9988D01*
X29533Y10087D01*
X29556Y10204D01*
Y10394D01*
X29650Y10469D01*
Y11050D01*
X29850D01*
Y10502D01*
X29915Y10515D01*
X30000Y10572D01*
X30085Y10515D01*
X30150Y10502D01*
Y11050D01*
X30350D01*
Y10502D01*
X30415Y10515D01*
X30502Y10573D01*
X30560Y10660D01*
X30580Y10762D01*
Y11052D01*
X30707Y11104D01*
X31256Y10556D01*
X31322Y10512D01*
X31400Y10496D01*
X34401D01*
X34505Y10369D01*
X34501Y10350D01*
X35400D01*
Y10050D01*
X35700D01*
Y9341D01*
X35850D01*
X36026Y9376D01*
X36174Y9476D01*
X36274Y9624D01*
X36309Y9800D01*
Y10300D01*
X36400Y10381D01*
X36458Y10329D01*
X36491Y10274D01*
Y9800D01*
X36526Y9624D01*
X36626Y9476D01*
X36774Y9376D01*
X36950Y9341D01*
X37100D01*
Y10050D01*
X37400D01*
Y10350D01*
X38299D01*
X38295Y10369D01*
X38399Y10496D01*
X42312D01*
X43751Y8961D01*
X43754Y8959D01*
X43756Y8956D01*
X43786Y8935D01*
X43816Y8914D01*
X43819Y8913D01*
X43822Y8912D01*
X43858Y8904D01*
X43893Y8896D01*
X43897Y8897D01*
X43900Y8896D01*
X47600D01*
X47678Y8912D01*
X47744Y8956D01*
X47788Y9022D01*
X47804Y9100D01*
Y12500D01*
X47788Y12578D01*
X47744Y12644D01*
X47678Y12688D01*
X47600Y12704D01*
X44481D01*
X42540Y14548D01*
X42509Y14568D01*
X42478Y14588D01*
X42475Y14589D01*
X42473Y14590D01*
X42436Y14597D01*
X42400Y14604D01*
X38388D01*
X38350Y14650D01*
X37400D01*
Y14950D01*
X37100D01*
Y15659D01*
X36950D01*
X36774Y15624D01*
X36626Y15524D01*
X36526Y15376D01*
X36491Y15200D01*
Y14700D01*
X36482Y14689D01*
X36431D01*
X36309Y14812D01*
Y15200D01*
X36274Y15376D01*
X36174Y15524D01*
X36026Y15624D01*
X35850Y15659D01*
X35700D01*
Y14950D01*
X35400D01*
Y14650D01*
X34450D01*
X34412Y14604D01*
X34200D01*
X34122Y14588D01*
X34056Y14544D01*
X34012Y14478D01*
X33984Y14484D01*
X33978Y14488D01*
X33900Y14504D01*
X33829D01*
X33762Y14585D01*
X33100D01*
X32438D01*
X32371Y14504D01*
X32278D01*
X32206Y14563D01*
Y16073D01*
X32527Y16394D01*
X39200D01*
X39200Y16394D01*
X39317Y16417D01*
X39416Y16484D01*
X40041Y17109D01*
X40041Y17109D01*
X40108Y17208D01*
X40131Y17325D01*
X40131Y17325D01*
Y18020D01*
X40160Y18040D01*
X40271Y18205D01*
X40310Y18400D01*
X40271Y18595D01*
X40160Y18760D01*
X40131Y18780D01*
Y19950D01*
X40450D01*
Y21250D01*
X39200D01*
Y19950D01*
X39519D01*
Y18814D01*
X39440Y18760D01*
X39329Y18595D01*
X39290Y18400D01*
X39329Y18205D01*
X39440Y18040D01*
X39519Y17986D01*
Y17452D01*
X39073Y17006D01*
X38272D01*
X38223Y17123D01*
X38516Y17416D01*
X38583Y17516D01*
X38606Y17633D01*
Y21373D01*
X39083Y21850D01*
X39200Y21801D01*
Y21650D01*
X40450D01*
Y22950D01*
D02*
G37*
G36*
X9450Y20750D02*
X8150D01*
Y19500D01*
X9450D01*
Y19750D01*
X9577Y19790D01*
X9794Y19573D01*
Y17697D01*
X9740Y17660D01*
X9629Y17495D01*
X9590Y17300D01*
X9629Y17105D01*
X9740Y16940D01*
X9905Y16829D01*
X10100Y16790D01*
X10295Y16829D01*
X10460Y16940D01*
X10571Y17105D01*
X10610Y17300D01*
X10571Y17495D01*
X10460Y17660D01*
X10406Y17697D01*
Y19700D01*
X10383Y19817D01*
X10316Y19916D01*
X9891Y20341D01*
X9792Y20408D01*
X9675Y20431D01*
X9675Y20431D01*
X9450D01*
Y20750D01*
D02*
G37*
G36*
X37850Y15659D02*
X37700D01*
Y15250D01*
X38299D01*
X38274Y15376D01*
X38174Y15524D01*
X38026Y15624D01*
X37850Y15659D01*
D02*
G37*
G36*
X35100D02*
X34950D01*
X34774Y15624D01*
X34626Y15524D01*
X34526Y15376D01*
X34501Y15250D01*
X35100D01*
Y15659D01*
D02*
G37*
G36*
X33365Y15455D02*
Y15115D01*
X33745D01*
X33727Y15206D01*
X33638Y15338D01*
X33506Y15427D01*
X33365Y15455D01*
D02*
G37*
G36*
X32835D02*
X32694Y15427D01*
X32561Y15338D01*
X32473Y15206D01*
X32455Y15115D01*
X32835D01*
Y15455D01*
D02*
G37*
G36*
X46300Y15342D02*
Y14750D01*
X46892D01*
X46848Y14855D01*
X46656Y15106D01*
X46405Y15298D01*
X46300Y15342D01*
D02*
G37*
G36*
X45300D02*
X45195Y15298D01*
X44944Y15106D01*
X44752Y14855D01*
X44708Y14750D01*
X45300D01*
Y15342D01*
D02*
G37*
G36*
X46892Y13750D02*
X46300D01*
Y13158D01*
X46405Y13202D01*
X46656Y13394D01*
X46848Y13645D01*
X46892Y13750D01*
D02*
G37*
G36*
X45300D02*
X44708D01*
X44752Y13645D01*
X44944Y13394D01*
X45195Y13202D01*
X45300Y13158D01*
Y13750D01*
D02*
G37*
G36*
X28650Y10950D02*
X28420D01*
Y10762D01*
X28440Y10660D01*
X28498Y10573D01*
X28585Y10515D01*
X28650Y10502D01*
Y10950D01*
D02*
G37*
G36*
X30515Y10245D02*
Y9865D01*
X30855D01*
X30827Y10006D01*
X30738Y10139D01*
X30606Y10227D01*
X30515Y10245D01*
D02*
G37*
G36*
X29985D02*
X29894Y10227D01*
X29762Y10139D01*
X29673Y10006D01*
X29645Y9865D01*
X29985D01*
Y10245D01*
D02*
G37*
G36*
X4125Y11859D02*
X3838Y11822D01*
X3570Y11711D01*
X3340Y11535D01*
X3164Y11305D01*
X3053Y11037D01*
X3016Y10750D01*
X3053Y10463D01*
X3164Y10195D01*
X3340Y9965D01*
X3570Y9789D01*
X3838Y9678D01*
X4125Y9641D01*
X4412Y9678D01*
X4680Y9789D01*
X4910Y9965D01*
X5086Y10195D01*
X5197Y10463D01*
X5234Y10750D01*
X5197Y11037D01*
X5086Y11305D01*
X4910Y11535D01*
X4680Y11711D01*
X4412Y11822D01*
X4125Y11859D01*
D02*
G37*
G36*
X38299Y9750D02*
X37700D01*
Y9341D01*
X37850D01*
X38026Y9376D01*
X38174Y9476D01*
X38274Y9624D01*
X38299Y9750D01*
D02*
G37*
G36*
X35100D02*
X34501D01*
X34526Y9624D01*
X34626Y9476D01*
X34774Y9376D01*
X34950Y9341D01*
X35100D01*
Y9750D01*
D02*
G37*
G36*
X30855Y9335D02*
X30515D01*
Y8955D01*
X30606Y8973D01*
X30738Y9062D01*
X30827Y9194D01*
X30855Y9335D01*
D02*
G37*
G36*
X29985D02*
X29645D01*
X29673Y9194D01*
X29762Y9062D01*
X29894Y8973D01*
X29985Y8955D01*
Y9335D01*
D02*
G37*
G36*
X30400Y5950D02*
X29625D01*
Y5500D01*
X30400D01*
Y5950D01*
D02*
G37*
G36*
X28625D02*
X27850D01*
Y5500D01*
X28625D01*
Y5950D01*
D02*
G37*
G36*
X47000Y6725D02*
Y5000D01*
X48725D01*
X48592Y5321D01*
X48353Y5710D01*
X48057Y6057D01*
X47710Y6353D01*
X47321Y6592D01*
X47000Y6725D01*
D02*
G37*
G36*
X45000D02*
X44679Y6592D01*
X44290Y6353D01*
X43943Y6057D01*
X43647Y5710D01*
X43408Y5321D01*
X43275Y5000D01*
X45000D01*
Y6725D01*
D02*
G37*
G36*
X5000D02*
Y5000D01*
X6725D01*
X6592Y5321D01*
X6353Y5710D01*
X6057Y6057D01*
X5710Y6353D01*
X5321Y6592D01*
X5000Y6725D01*
D02*
G37*
G36*
X3000D02*
X2679Y6592D01*
X2290Y6353D01*
X1943Y6057D01*
X1647Y5710D01*
X1408Y5321D01*
X1275Y5000D01*
X3000D01*
Y6725D01*
D02*
G37*
G36*
X33925Y5075D02*
X33590D01*
Y4665D01*
X33925D01*
Y5075D01*
D02*
G37*
G36*
X7500Y8604D02*
X7422Y8588D01*
X7356Y8544D01*
X7312Y8478D01*
X7296Y8400D01*
X7296Y3300D01*
X7312Y3222D01*
X7356Y3156D01*
X7422Y3112D01*
X7500Y3096D01*
X8084D01*
X8116Y3103D01*
X8149Y3107D01*
X8155Y3110D01*
X8162Y3112D01*
X8189Y3130D01*
X8218Y3147D01*
X8222Y3152D01*
X8228Y3156D01*
X8246Y3183D01*
X8266Y3210D01*
X8268Y3212D01*
X8288Y3231D01*
X8314Y3244D01*
X8322Y3246D01*
X8422Y3254D01*
X8478Y3211D01*
X8644Y3143D01*
X8821Y3119D01*
X12379D01*
X12557Y3143D01*
X12722Y3211D01*
X12779Y3254D01*
X12878Y3246D01*
X12886Y3244D01*
X12912Y3231D01*
X12933Y3212D01*
X12934Y3210D01*
X12954Y3183D01*
X12972Y3156D01*
X12978Y3152D01*
X12982Y3147D01*
X13011Y3130D01*
X13039Y3112D01*
X13045Y3110D01*
X13051Y3107D01*
X13084Y3103D01*
X13117Y3096D01*
X13474D01*
X13476Y3096D01*
X13478Y3096D01*
X13515Y3104D01*
X13552Y3112D01*
X13556Y3103D01*
X13568Y3052D01*
X13522Y2935D01*
X13429Y2795D01*
X13390Y2600D01*
X13429Y2405D01*
X13492Y2310D01*
X13183Y2000D01*
X13066Y2049D01*
Y2127D01*
X13043Y2240D01*
X12980Y2335D01*
X12884Y2399D01*
X12771Y2422D01*
X12239D01*
X12126Y2399D01*
X12031Y2335D01*
X11967Y2240D01*
X11944Y2127D01*
Y933D01*
X11967Y820D01*
X12031Y724D01*
X12126Y661D01*
X12239Y638D01*
X12771D01*
X12884Y661D01*
X12980Y724D01*
X13043Y820D01*
X13066Y933D01*
Y1136D01*
X13145Y1224D01*
X13262Y1247D01*
X13361Y1314D01*
X14116Y2069D01*
X14116Y2069D01*
X14183Y2168D01*
X14187Y2191D01*
X14260Y2240D01*
X14371Y2405D01*
X14410Y2600D01*
X14371Y2795D01*
X14260Y2960D01*
X14095Y3071D01*
X13900Y3110D01*
X13804Y3091D01*
X13687Y3100D01*
X13639Y3178D01*
X13646Y3184D01*
X15487Y5096D01*
X15957D01*
X16075Y5075D01*
Y3725D01*
X17275D01*
Y4642D01*
X17598Y4965D01*
X17725Y4913D01*
Y3725D01*
X18595D01*
X18625Y3719D01*
X18655Y3725D01*
X18925D01*
Y3995D01*
X18931Y4025D01*
X18925Y4055D01*
Y4642D01*
X19483Y5200D01*
X19600Y5151D01*
Y4050D01*
X22150D01*
Y4694D01*
X24603D01*
X24640Y4640D01*
X24805Y4529D01*
X25000Y4490D01*
X25195Y4529D01*
X25360Y4640D01*
X25471Y4805D01*
X25510Y5000D01*
X25471Y5195D01*
X25360Y5360D01*
X25195Y5471D01*
X25000Y5510D01*
X24805Y5471D01*
X24640Y5360D01*
X24603Y5306D01*
X22150D01*
Y5950D01*
X19706D01*
Y6903D01*
X19760Y6940D01*
X19871Y7105D01*
X19910Y7300D01*
X19871Y7495D01*
X19760Y7660D01*
X19595Y7771D01*
X19400Y7810D01*
X19205Y7771D01*
X19040Y7660D01*
X18929Y7495D01*
X18890Y7300D01*
X18929Y7105D01*
X19040Y6940D01*
X19094Y6903D01*
Y5689D01*
X19018Y5628D01*
X18900Y5680D01*
Y6750D01*
X17804D01*
Y7000D01*
X17788Y7078D01*
X17744Y7144D01*
X17678Y7188D01*
X17600Y7204D01*
X16600D01*
X15459Y7204D01*
X13977Y8551D01*
X13947Y8569D01*
X13918Y8588D01*
X13913Y8589D01*
X13909Y8592D01*
X13874Y8597D01*
X13840Y8604D01*
X7500Y8604D01*
D02*
G37*
G36*
X30400Y4500D02*
X29625D01*
Y4050D01*
X30400D01*
Y4500D01*
D02*
G37*
G36*
X28625D02*
X27850D01*
Y4050D01*
X28625D01*
Y4500D01*
D02*
G37*
G36*
X33925Y4135D02*
X33590D01*
Y3725D01*
X33925D01*
Y4135D01*
D02*
G37*
G36*
X33060D02*
X32725D01*
Y3725D01*
X33060D01*
Y4135D01*
D02*
G37*
G36*
X11501Y2422D02*
X11500D01*
Y1795D01*
X11796D01*
Y2127D01*
X11773Y2240D01*
X11710Y2335D01*
X11614Y2399D01*
X11501Y2422D01*
D02*
G37*
G36*
X10231D02*
X10230D01*
Y1795D01*
X10526D01*
Y2127D01*
X10503Y2240D01*
X10440Y2335D01*
X10344Y2399D01*
X10231Y2422D01*
D02*
G37*
G36*
X9250Y2416D02*
X8960D01*
Y1795D01*
X9250D01*
Y2416D01*
D02*
G37*
G36*
X8430D02*
X8140D01*
Y1795D01*
X8430D01*
Y2416D01*
D02*
G37*
G36*
X10970Y2422D02*
X10969D01*
X10856Y2399D01*
X10761Y2335D01*
X10697Y2240D01*
X10674Y2127D01*
Y1795D01*
X10970D01*
Y2422D01*
D02*
G37*
G36*
X9700D02*
X9699D01*
X9586Y2399D01*
X9491Y2335D01*
X9427Y2240D01*
X9404Y2127D01*
Y1795D01*
X9700D01*
Y2422D01*
D02*
G37*
G36*
X48725Y3000D02*
X47000D01*
Y1275D01*
X47321Y1408D01*
X47710Y1647D01*
X48057Y1943D01*
X48353Y2290D01*
X48592Y2679D01*
X48725Y3000D01*
D02*
G37*
G36*
X45000D02*
X43275D01*
X43408Y2679D01*
X43647Y2290D01*
X43943Y1943D01*
X44290Y1647D01*
X44679Y1408D01*
X45000Y1275D01*
Y3000D01*
D02*
G37*
G36*
X6725D02*
X5000D01*
Y1275D01*
X5321Y1408D01*
X5710Y1647D01*
X6057Y1943D01*
X6353Y2290D01*
X6592Y2679D01*
X6725Y3000D01*
D02*
G37*
G36*
X3000D02*
X1275D01*
X1408Y2679D01*
X1647Y2290D01*
X1943Y1943D01*
X2290Y1647D01*
X2679Y1408D01*
X3000Y1275D01*
Y3000D01*
D02*
G37*
G36*
X9250Y1265D02*
X8960D01*
Y644D01*
X9250D01*
Y1265D01*
D02*
G37*
G36*
X8430D02*
X8140D01*
Y644D01*
X8430D01*
Y1265D01*
D02*
G37*
G36*
X11796D02*
X11500D01*
Y638D01*
X11501D01*
X11614Y661D01*
X11710Y724D01*
X11773Y820D01*
X11796Y933D01*
Y1265D01*
D02*
G37*
G36*
X10970D02*
X10674D01*
Y933D01*
X10697Y820D01*
X10761Y724D01*
X10856Y661D01*
X10969Y638D01*
X10970D01*
Y1265D01*
D02*
G37*
G36*
X10526D02*
X10230D01*
Y638D01*
X10231D01*
X10344Y661D01*
X10440Y724D01*
X10503Y820D01*
X10526Y933D01*
Y1265D01*
D02*
G37*
G36*
X9700D02*
X9404D01*
Y933D01*
X9427Y820D01*
X9491Y724D01*
X9586Y661D01*
X9699Y638D01*
X9700D01*
Y1265D01*
D02*
G37*
%LPD*%
G36*
X33900Y12700D02*
X33300Y12100D01*
X31577D01*
X31536Y12150D01*
X30950D01*
Y12350D01*
X31501D01*
X31518Y12436D01*
X31591Y12482D01*
X31642Y12492D01*
X31741Y12559D01*
X32116Y12934D01*
X32116Y12934D01*
X32130Y12954D01*
X32278Y13081D01*
Y14300D01*
X32654D01*
X32694Y14273D01*
X32850Y14242D01*
X33350D01*
X33506Y14273D01*
X33546Y14300D01*
X33900D01*
Y12700D01*
D02*
G37*
G36*
X44400Y12500D02*
X47600D01*
Y9100D01*
X43900D01*
X42400Y10700D01*
X38061D01*
X38026Y10724D01*
X37850Y10759D01*
X36950D01*
X36774Y10724D01*
X36739Y10700D01*
X36061D01*
X36026Y10724D01*
X35850Y10759D01*
X34950D01*
X34774Y10724D01*
X34739Y10700D01*
X31400D01*
X30797Y11303D01*
X30846Y11420D01*
X30850D01*
Y11750D01*
X30950D01*
Y11850D01*
X31556D01*
X31618Y11896D01*
X33300D01*
X33300Y11896D01*
X33378Y11912D01*
X33444Y11956D01*
X33588Y12100D01*
X33600D01*
X34200Y12700D01*
X34200Y14400D01*
X34609D01*
X34626Y14376D01*
X34774Y14276D01*
X34950Y14241D01*
X35850D01*
X36026Y14276D01*
X36174Y14376D01*
X36191Y14400D01*
X36609D01*
X36626Y14376D01*
X36774Y14276D01*
X36950Y14241D01*
X37850D01*
X38026Y14276D01*
X38174Y14376D01*
X38191Y14400D01*
X42400D01*
X44400Y12500D01*
D02*
G37*
G36*
X31944Y17277D02*
X31284Y16616D01*
X31217Y16517D01*
X31194Y16400D01*
X31194Y16400D01*
Y13627D01*
X31148Y13580D01*
X30693D01*
X30628Y13628D01*
X30580Y13693D01*
Y14238D01*
X30560Y14340D01*
X30556Y14346D01*
Y16923D01*
X31027Y17394D01*
X31896D01*
X31944Y17277D01*
D02*
G37*
G36*
X24422Y14700D02*
X25967Y13310D01*
Y13025D01*
X25998Y12869D01*
X26086Y12737D01*
X26219Y12648D01*
X26375Y12617D01*
X26736D01*
X26873Y12494D01*
X27046D01*
X27087Y12467D01*
X27204Y12444D01*
X27394D01*
X27469Y12350D01*
X28050D01*
Y12150D01*
X27502D01*
X27515Y12085D01*
X27572Y12000D01*
X27515Y11915D01*
X27502Y11850D01*
X28050D01*
Y11650D01*
X27502D01*
X27515Y11585D01*
X27555Y11525D01*
X27523Y11430D01*
X27499Y11398D01*
X27498Y11398D01*
X27275Y11175D01*
X27176Y11256D01*
X27252Y11369D01*
X27270Y11460D01*
X26890D01*
Y11120D01*
X27031Y11148D01*
X27144Y11224D01*
X27225Y11125D01*
X27100Y11000D01*
X26456Y10400D01*
X21800Y10400D01*
Y14700D01*
X24422Y14700D01*
D02*
G37*
G36*
X7491Y14700D02*
X11591D01*
X11626Y14524D01*
X11726Y14376D01*
X11874Y14276D01*
X12050Y14241D01*
X12950D01*
X13126Y14276D01*
X13274Y14376D01*
X13374Y14524D01*
X13409Y14700D01*
X13591D01*
X13626Y14524D01*
X13726Y14376D01*
X13874Y14276D01*
X14050Y14241D01*
X14950D01*
X15126Y14276D01*
X15274Y14376D01*
X15374Y14524D01*
X15409Y14700D01*
X18200D01*
Y10400D01*
X15389D01*
X15374Y10476D01*
X15274Y10624D01*
X15126Y10724D01*
X14950Y10759D01*
X14050D01*
X13874Y10724D01*
X13726Y10624D01*
X13626Y10476D01*
X13611Y10400D01*
X13389D01*
X13374Y10476D01*
X13274Y10624D01*
X13126Y10724D01*
X12950Y10759D01*
X12050D01*
X11874Y10724D01*
X11726Y10624D01*
X11626Y10476D01*
X11611Y10400D01*
X7400D01*
X5200Y12500D01*
X2400D01*
Y15900D01*
X6400D01*
X7491Y14700D01*
D02*
G37*
%LPC*%
G36*
X33365Y13955D02*
Y13615D01*
X33745D01*
X33727Y13706D01*
X33638Y13838D01*
X33506Y13927D01*
X33365Y13955D01*
D02*
G37*
G36*
X32835D02*
X32694Y13927D01*
X32562Y13838D01*
X32473Y13706D01*
X32455Y13615D01*
X32835D01*
Y13955D01*
D02*
G37*
G36*
X33745Y13085D02*
X33365D01*
Y12745D01*
X33506Y12773D01*
X33638Y12862D01*
X33727Y12994D01*
X33745Y13085D01*
D02*
G37*
G36*
X32835D02*
X32455D01*
X32473Y12994D01*
X32562Y12862D01*
X32694Y12773D01*
X32835Y12745D01*
Y13085D01*
D02*
G37*
G36*
X37850Y13959D02*
X37700D01*
Y13550D01*
X38299D01*
X38274Y13676D01*
X38174Y13824D01*
X38026Y13924D01*
X37850Y13959D01*
D02*
G37*
G36*
X35850D02*
X35700D01*
Y13550D01*
X36299D01*
X36274Y13676D01*
X36174Y13824D01*
X36026Y13924D01*
X35850Y13959D01*
D02*
G37*
G36*
X37100D02*
X36950D01*
X36774Y13924D01*
X36626Y13824D01*
X36526Y13676D01*
X36501Y13550D01*
X37100D01*
Y13959D01*
D02*
G37*
G36*
X35100D02*
X34950D01*
X34774Y13924D01*
X34626Y13824D01*
X34526Y13676D01*
X34501Y13550D01*
X35100D01*
Y13959D01*
D02*
G37*
G36*
X38299Y12950D02*
X37400D01*
X36501D01*
X36526Y12824D01*
X36626Y12676D01*
X36774Y12576D01*
X36832Y12565D01*
Y12435D01*
X36774Y12424D01*
X36626Y12324D01*
X36526Y12176D01*
X36501Y12050D01*
X38299D01*
X38274Y12176D01*
X38174Y12324D01*
X38026Y12424D01*
X37968Y12435D01*
Y12565D01*
X38026Y12576D01*
X38174Y12676D01*
X38274Y12824D01*
X38299Y12950D01*
D02*
G37*
G36*
X36299D02*
X35400D01*
X34501D01*
X34526Y12824D01*
X34626Y12676D01*
X34774Y12576D01*
X34832Y12565D01*
Y12435D01*
X34774Y12424D01*
X34626Y12324D01*
X34526Y12176D01*
X34501Y12050D01*
X36299D01*
X36274Y12176D01*
X36174Y12324D01*
X36026Y12424D01*
X35968Y12435D01*
Y12565D01*
X36026Y12576D01*
X36174Y12676D01*
X36274Y12824D01*
X36299Y12950D01*
D02*
G37*
G36*
X31498Y11650D02*
X31050D01*
Y11420D01*
X31237D01*
X31340Y11440D01*
X31427Y11498D01*
X31485Y11585D01*
X31498Y11650D01*
D02*
G37*
G36*
X47000Y11950D02*
X46300D01*
Y11250D01*
X47000D01*
Y11950D01*
D02*
G37*
G36*
X45300D02*
X44600D01*
Y11250D01*
X45300D01*
Y11950D01*
D02*
G37*
G36*
X38299Y11450D02*
X37700D01*
Y11041D01*
X37850D01*
X38026Y11076D01*
X38174Y11176D01*
X38274Y11324D01*
X38299Y11450D01*
D02*
G37*
G36*
X37100D02*
X36501D01*
X36526Y11324D01*
X36626Y11176D01*
X36774Y11076D01*
X36950Y11041D01*
X37100D01*
Y11450D01*
D02*
G37*
G36*
X36299D02*
X35700D01*
Y11041D01*
X35850D01*
X36026Y11076D01*
X36174Y11176D01*
X36274Y11324D01*
X36299Y11450D01*
D02*
G37*
G36*
X35100D02*
X34501D01*
X34526Y11324D01*
X34626Y11176D01*
X34774Y11076D01*
X34950Y11041D01*
X35100D01*
Y11450D01*
D02*
G37*
G36*
X47000Y10250D02*
X46300D01*
Y9550D01*
X47000D01*
Y10250D01*
D02*
G37*
G36*
X45300D02*
X44600D01*
Y9550D01*
X45300D01*
Y10250D01*
D02*
G37*
G36*
X24450Y14200D02*
X23975D01*
Y13100D01*
X24450D01*
Y14200D01*
D02*
G37*
G36*
X22775D02*
X22300D01*
Y13100D01*
X22775D01*
Y14200D01*
D02*
G37*
G36*
X26890Y12330D02*
Y11990D01*
X27270D01*
X27252Y12081D01*
X27163Y12213D01*
X27031Y12302D01*
X26890Y12330D01*
D02*
G37*
G36*
X26360D02*
X26219Y12302D01*
X26087Y12213D01*
X25998Y12081D01*
X25980Y11990D01*
X26360D01*
Y12330D01*
D02*
G37*
G36*
Y11460D02*
X25980D01*
X25998Y11369D01*
X26087Y11237D01*
X26219Y11148D01*
X26360Y11120D01*
Y11460D01*
D02*
G37*
G36*
X24450Y11900D02*
X23975D01*
Y10800D01*
X24450D01*
Y11900D01*
D02*
G37*
G36*
X22775D02*
X22300D01*
Y10800D01*
X22775D01*
Y11900D01*
D02*
G37*
G36*
X5325Y15450D02*
X4625D01*
Y14750D01*
X5325D01*
Y15450D01*
D02*
G37*
G36*
X3625D02*
X2925D01*
Y14750D01*
X3625D01*
Y15450D01*
D02*
G37*
G36*
X14950Y13959D02*
X14800D01*
Y13550D01*
X15399D01*
X15374Y13676D01*
X15274Y13824D01*
X15126Y13924D01*
X14950Y13959D01*
D02*
G37*
G36*
X12950D02*
X12800D01*
Y13550D01*
X13399D01*
X13374Y13676D01*
X13274Y13824D01*
X13126Y13924D01*
X12950Y13959D01*
D02*
G37*
G36*
X14200D02*
X14050D01*
X13874Y13924D01*
X13726Y13824D01*
X13626Y13676D01*
X13601Y13550D01*
X14200D01*
Y13959D01*
D02*
G37*
G36*
X12200D02*
X12050D01*
X11874Y13924D01*
X11726Y13824D01*
X11626Y13676D01*
X11601Y13550D01*
X12200D01*
Y13959D01*
D02*
G37*
G36*
X17700Y14200D02*
X17225D01*
Y13100D01*
X17700D01*
Y14200D01*
D02*
G37*
G36*
X16025D02*
X15550D01*
Y13100D01*
X16025D01*
Y14200D01*
D02*
G37*
G36*
X5325Y13750D02*
X4625D01*
Y13050D01*
X5325D01*
Y13750D01*
D02*
G37*
G36*
X3625D02*
X2925D01*
Y13050D01*
X3625D01*
Y13750D01*
D02*
G37*
G36*
X15399Y12950D02*
X14500D01*
X13601D01*
X13626Y12824D01*
X13726Y12676D01*
X13874Y12576D01*
X13932Y12565D01*
Y12435D01*
X13874Y12424D01*
X13726Y12324D01*
X13626Y12176D01*
X13601Y12050D01*
X15399D01*
X15374Y12176D01*
X15274Y12324D01*
X15126Y12424D01*
X15068Y12435D01*
Y12565D01*
X15126Y12576D01*
X15274Y12676D01*
X15374Y12824D01*
X15399Y12950D01*
D02*
G37*
G36*
X13399D02*
X12500D01*
X11601D01*
X11626Y12824D01*
X11726Y12676D01*
X11874Y12576D01*
X11932Y12565D01*
Y12435D01*
X11874Y12424D01*
X11726Y12324D01*
X11626Y12176D01*
X11601Y12050D01*
X13399D01*
X13374Y12176D01*
X13274Y12324D01*
X13126Y12424D01*
X13068Y12435D01*
Y12565D01*
X13126Y12576D01*
X13274Y12676D01*
X13374Y12824D01*
X13399Y12950D01*
D02*
G37*
G36*
X15399Y11450D02*
X14800D01*
Y11041D01*
X14950D01*
X15126Y11076D01*
X15274Y11176D01*
X15374Y11324D01*
X15399Y11450D01*
D02*
G37*
G36*
X14200D02*
X13601D01*
X13626Y11324D01*
X13726Y11176D01*
X13874Y11076D01*
X14050Y11041D01*
X14200D01*
Y11450D01*
D02*
G37*
G36*
X13399D02*
X12800D01*
Y11041D01*
X12950D01*
X13126Y11076D01*
X13274Y11176D01*
X13374Y11324D01*
X13399Y11450D01*
D02*
G37*
G36*
X12200D02*
X11601D01*
X11626Y11324D01*
X11726Y11176D01*
X11874Y11076D01*
X12050Y11041D01*
X12200D01*
Y11450D01*
D02*
G37*
G36*
X17700Y11900D02*
X17225D01*
Y10800D01*
X17700D01*
Y11900D01*
D02*
G37*
G36*
X16025D02*
X15550D01*
Y10800D01*
X16025D01*
Y11900D01*
D02*
G37*
%LPD*%
G36*
X13840Y8400D02*
X15380Y7000D01*
X16600Y7000D01*
X17600D01*
X17600Y5833D01*
X17467Y5700D01*
X17350Y5749D01*
Y5800D01*
X16725D01*
X16100D01*
Y5450D01*
X16924D01*
X16992Y5323D01*
X16976Y5300D01*
X15400Y5300D01*
X13474Y3300D01*
X13117D01*
X13110Y3314D01*
X13067Y3427D01*
X13140Y3602D01*
X13167Y3806D01*
Y4250D01*
X10600D01*
X8033D01*
Y3806D01*
X8060Y3602D01*
X8133Y3427D01*
X8090Y3314D01*
X8084Y3300D01*
X7500D01*
X7500Y8400D01*
X13840Y8400D01*
D02*
G37*
%LPC*%
G36*
X12771Y7962D02*
X12770D01*
Y7070D01*
X12240D01*
Y7962D01*
X12239D01*
X12126Y7939D01*
X12031Y7875D01*
X11967Y7780D01*
X11944Y7667D01*
Y7482D01*
X11796D01*
Y7667D01*
X11773Y7780D01*
X11710Y7875D01*
X11614Y7939D01*
X11501Y7962D01*
X11500D01*
Y7070D01*
X10970D01*
Y7962D01*
X10969D01*
X10856Y7939D01*
X10761Y7875D01*
X10697Y7780D01*
X10674Y7667D01*
Y7482D01*
X10526D01*
Y7667D01*
X10503Y7780D01*
X10440Y7875D01*
X10344Y7939D01*
X10231Y7962D01*
X10230D01*
Y7070D01*
X9700D01*
Y7962D01*
X9699D01*
X9586Y7939D01*
X9491Y7875D01*
X9427Y7780D01*
X9404Y7667D01*
Y7482D01*
X9256D01*
Y7667D01*
X9233Y7780D01*
X9170Y7875D01*
X9074Y7939D01*
X8961Y7962D01*
X8960D01*
Y7070D01*
X8430D01*
Y7962D01*
X8429D01*
X8316Y7939D01*
X8221Y7875D01*
X8157Y7780D01*
X8134Y7667D01*
Y7077D01*
X8060Y6898D01*
X8033Y6694D01*
Y6250D01*
X10600D01*
X13167D01*
Y6694D01*
X13140Y6898D01*
X13066Y7077D01*
Y7667D01*
X13043Y7780D01*
X12980Y7875D01*
X12884Y7939D01*
X12771Y7962D01*
D02*
G37*
G36*
X17350Y6750D02*
X17025D01*
Y6400D01*
X17350D01*
Y6750D01*
D02*
G37*
G36*
X16425D02*
X16100D01*
Y6400D01*
X16425D01*
Y6750D01*
D02*
G37*
%LPD*%
D11*
X38300Y17633D02*
Y21500D01*
X37867Y17200D02*
X38300Y17633D01*
Y21500D02*
X39100Y22300D01*
X40950Y13250D02*
X41400Y13700D01*
X39825Y17325D02*
Y20600D01*
X31800Y6175D02*
Y8800D01*
X29200Y8000D02*
X30900D01*
X32400Y16700D02*
X39200D01*
X32300Y17200D02*
X37867D01*
X37700Y23600D02*
X38200D01*
X17175Y15700D02*
X27600D01*
X16625Y15150D02*
X17175Y15700D01*
X16625Y12500D02*
Y15150D01*
X27200Y9600D02*
X28750D01*
X26400Y22300D02*
X27525D01*
X10100Y17300D02*
Y19700D01*
X7400Y21067D02*
X8008Y21675D01*
X7400Y17300D02*
Y21067D01*
X9675Y20125D02*
X10100Y19700D01*
X8800Y20125D02*
X9675D01*
X17000Y18500D02*
Y20100D01*
X13900Y2285D02*
Y2600D01*
X13145Y1530D02*
X13900Y2285D01*
X12505Y1530D02*
X13145D01*
X12340D02*
X12505D01*
X12340D02*
X12385Y1575D01*
X8008Y21675D02*
X8800D01*
X18325Y4475D02*
X19400Y5550D01*
X18325Y4400D02*
Y4475D01*
X19400Y5550D02*
Y7300D01*
X18325Y4325D02*
X18625Y4025D01*
X18325Y4325D02*
Y4400D01*
X32950Y5775D02*
X33275Y6100D01*
X32950Y5750D02*
Y5775D01*
X31675Y4475D02*
X32950Y5750D01*
X31675Y4400D02*
Y4475D01*
X17950Y5775D02*
X18275Y6100D01*
X17950Y5750D02*
Y5775D01*
X16675Y4475D02*
X17950Y5750D01*
X16675Y4400D02*
Y4475D01*
X31725Y6100D02*
X31800Y6175D01*
X8800Y21675D02*
X8819Y21656D01*
X9744D01*
X11050Y20350D01*
X12350D01*
X23000Y21800D02*
Y23500D01*
X18275Y6100D02*
X18325Y6050D01*
X23000Y23500D02*
X23000Y23500D01*
X12300Y20400D02*
X12350Y20350D01*
X16750Y23250D02*
X17000Y23500D01*
X12300Y23250D02*
X16750D01*
X9900Y14517D02*
X10380Y14037D01*
X11513D01*
X12300Y13250D02*
X12500D01*
X23000Y18500D02*
Y20100D01*
X9650Y11750D02*
X12500D01*
X18225Y6100D02*
Y6350D01*
X29075Y22275D02*
X30025D01*
X20875Y5000D02*
X25000D01*
X39100Y22300D02*
X39825D01*
X28050Y13250D02*
Y15250D01*
X27600Y15700D02*
X28050Y15250D01*
X16200Y12925D02*
X16625Y12500D01*
X41400Y18400D02*
Y20575D01*
X41375Y20600D02*
X41400Y20575D01*
X28750Y8450D02*
X29200Y8000D01*
X28750Y8450D02*
Y9600D01*
Y9704D01*
X30300Y19500D02*
Y22000D01*
Y18600D02*
Y19500D01*
X29050Y20575D02*
X29100Y20525D01*
Y18200D02*
Y20525D01*
X28750Y17850D02*
X29100Y18200D01*
X28750Y13950D02*
Y17850D01*
X30025Y22275D02*
X30300Y22000D01*
X29250Y17550D02*
X30300Y18600D01*
X29075Y22275D02*
Y22300D01*
X29250Y13950D02*
Y17550D01*
X33175Y18875D02*
Y20600D01*
X32500Y18200D02*
X33175Y18875D01*
X30700Y18200D02*
X32500D01*
X29750Y17250D02*
X30700Y18200D01*
X29750Y13950D02*
Y17250D01*
X35725Y18125D02*
Y20600D01*
X35300Y17700D02*
X35725Y18125D01*
X30900Y17700D02*
X35300D01*
X30250Y17050D02*
X30900Y17700D01*
X30250Y13950D02*
Y17050D01*
X37400Y13250D02*
X40950D01*
X37275Y23175D02*
X37700Y23600D01*
X37275Y22300D02*
Y23175D01*
X31500Y16400D02*
X32300Y17200D01*
X31500Y13500D02*
Y16400D01*
X31900Y16200D02*
X32400Y16700D01*
X31900Y13150D02*
Y16200D01*
X31525Y12775D02*
X31900Y13150D01*
X39200Y16700D02*
X39825Y17325D01*
X35725Y20600D02*
Y22300D01*
X11950Y23600D02*
X12300Y23250D01*
X27204Y12750D02*
X28050D01*
X26625Y13225D02*
X26729D01*
X27204Y12750D01*
X29050Y20575D02*
X29075Y20600D01*
X35700Y22275D02*
X35725Y22300D01*
X31575Y20600D02*
X31600Y20625D01*
Y22350D01*
X30950Y13250D02*
X31250D01*
X31500Y13500D01*
X30950Y12750D02*
X30975Y12775D01*
X31525D01*
X39825Y20600D02*
X39875Y20550D01*
X30950Y12250D02*
X30975Y12275D01*
X41300Y20525D02*
X41375Y20600D01*
X29250Y10204D02*
Y11050D01*
X28750Y9704D02*
X29250Y10204D01*
X37275Y22300D02*
X37325Y22350D01*
X30225Y11075D02*
X30250Y11050D01*
X28775Y11075D02*
Y11775D01*
X28750Y11050D02*
X28775Y11075D01*
Y11775D02*
X29500Y12500D01*
X29750Y12250D02*
X30225Y11775D01*
Y11075D02*
Y11775D01*
X29750Y11050D02*
Y12250D01*
X29500Y12500D02*
X29750Y12250D01*
X18175Y6100D02*
X18225Y6050D01*
X18525Y5850D02*
X18575Y5800D01*
D35*
X29125Y5000D02*
D03*
X20875D02*
D03*
D36*
X10600Y5250D02*
D03*
D37*
X12505Y7070D02*
D03*
X11235D02*
D03*
X9965D02*
D03*
X8695D02*
D03*
X12505Y1530D02*
D03*
X11235D02*
D03*
X9965D02*
D03*
D38*
X8695D02*
D03*
D39*
X17000Y20100D02*
D03*
Y23500D02*
D03*
X23000D02*
D03*
Y20100D02*
D03*
D40*
X35725Y20600D02*
D03*
X37275D02*
D03*
Y22300D02*
D03*
X35725D02*
D03*
X39825Y20600D02*
D03*
X41375D02*
D03*
X33175D02*
D03*
X31625D02*
D03*
X39825Y22300D02*
D03*
X41375D02*
D03*
X29075Y20600D02*
D03*
X27525D02*
D03*
X29075Y22300D02*
D03*
X27525D02*
D03*
X33275Y6100D02*
D03*
X31725D02*
D03*
X16725D02*
D03*
X18275D02*
D03*
D41*
X23375Y12500D02*
D03*
X16625D02*
D03*
D42*
X29500D02*
D03*
D43*
X28750Y13950D02*
D03*
X29250D02*
D03*
X29750D02*
D03*
X30250D02*
D03*
Y11050D02*
D03*
X29750D02*
D03*
X29250D02*
D03*
X28750D02*
D03*
D44*
X30950Y13250D02*
D03*
Y12750D02*
D03*
Y12250D02*
D03*
Y11750D02*
D03*
X28050D02*
D03*
Y12250D02*
D03*
Y12750D02*
D03*
D45*
Y13250D02*
D03*
D46*
X37400Y14950D02*
D03*
Y13250D02*
D03*
Y10050D02*
D03*
Y11750D02*
D03*
X35400Y14950D02*
D03*
Y13250D02*
D03*
X14500Y10050D02*
D03*
Y11750D02*
D03*
X12500Y14950D02*
D03*
Y13250D02*
D03*
Y10050D02*
D03*
Y11750D02*
D03*
X14500Y14950D02*
D03*
Y13250D02*
D03*
X35400Y10050D02*
D03*
Y11750D02*
D03*
D47*
X33100Y14850D02*
D03*
X33100Y13350D02*
D03*
X26625Y13225D02*
D03*
X26625Y11725D02*
D03*
D48*
X30250Y9600D02*
D03*
X28750Y9600D02*
D03*
X31650Y22300D02*
D03*
X33150Y22300D02*
D03*
D49*
X8800Y21675D02*
D03*
Y20125D02*
D03*
D50*
X12350Y20350D02*
D03*
X12300Y23250D02*
D03*
D51*
X33325Y4400D02*
D03*
X31675D02*
D03*
X18325D02*
D03*
X16675D02*
D03*
D52*
X4125Y10750D02*
D03*
X45800Y14250D02*
D03*
D53*
X4125D02*
D03*
X45800Y10750D02*
D03*
D54*
X4000Y4000D02*
D03*
X46000D02*
D03*
Y21000D02*
D03*
X4000D02*
D03*
D55*
X39000Y19200D02*
D03*
X38900Y15200D02*
D03*
X33900Y9800D02*
D03*
X34300Y9000D02*
D03*
X31800Y8800D02*
D03*
X38500Y16000D02*
D03*
X30900Y8000D02*
D03*
X36400Y9000D02*
D03*
X38400Y9000D02*
D03*
X38900Y9800D02*
D03*
X38200Y23600D02*
D03*
X41500Y12500D02*
D03*
Y13400D02*
D03*
Y11600D02*
D03*
X26600Y15000D02*
D03*
X31500Y19200D02*
D03*
X30900Y16800D02*
D03*
X37000Y18300D02*
D03*
X15900Y15300D02*
D03*
X48750Y15000D02*
D03*
Y10000D02*
D03*
X43750Y15000D02*
D03*
X42500Y7500D02*
D03*
Y2500D02*
D03*
X41250Y5000D02*
D03*
X38750D02*
D03*
X35000Y2500D02*
D03*
X30000D02*
D03*
X27500Y17500D02*
D03*
Y2500D02*
D03*
X25000Y17500D02*
D03*
Y7500D02*
D03*
Y2500D02*
D03*
X22500Y7500D02*
D03*
Y2500D02*
D03*
X21250Y15000D02*
D03*
Y10000D02*
D03*
X20000Y2500D02*
D03*
X18750Y15000D02*
D03*
Y10000D02*
D03*
X15000Y2500D02*
D03*
X13750Y20000D02*
D03*
X7500Y22500D02*
D03*
X27200Y9600D02*
D03*
X26400Y22300D02*
D03*
X8700Y13400D02*
D03*
X10100Y17300D02*
D03*
X7400Y17300D02*
D03*
X17000Y18500D02*
D03*
X13900Y2600D02*
D03*
X8700Y12500D02*
D03*
X9600Y11600D02*
D03*
Y13400D02*
D03*
Y12500D02*
D03*
X8700Y11600D02*
D03*
X10600Y4775D02*
D03*
X9700Y3875D02*
D03*
X10600D02*
D03*
X9700Y5675D02*
D03*
X10600D02*
D03*
X12400D02*
D03*
Y6575D02*
D03*
X11500Y5675D02*
D03*
Y6575D02*
D03*
X8800Y3875D02*
D03*
X12400Y4775D02*
D03*
X8800Y6575D02*
D03*
X10600D02*
D03*
X9700D02*
D03*
Y4775D02*
D03*
X8800Y5675D02*
D03*
Y4775D02*
D03*
X12400Y3875D02*
D03*
X11500Y4775D02*
D03*
Y3875D02*
D03*
X34300Y16000D02*
D03*
X36400D02*
D03*
X11000Y15300D02*
D03*
X11400Y16000D02*
D03*
X15500D02*
D03*
X13500D02*
D03*
X11000Y9800D02*
D03*
X16000D02*
D03*
X11400Y9000D02*
D03*
X15600D02*
D03*
X13500D02*
D03*
X19400Y7300D02*
D03*
X23000Y18500D02*
D03*
Y21800D02*
D03*
X25000Y5000D02*
D03*
X39800Y18400D02*
D03*
X41400D02*
D03*
X29000Y13000D02*
D03*
Y12000D02*
D03*
X30000Y13000D02*
D03*
Y12000D02*
D03*
X30300Y19500D02*
D03*
M02*
