G04*
G04 #@! TF.GenerationSoftware,Altium Limited,Altium Designer,19.1.6 (110)*
G04*
G04 Layer_Color=32896*
%FSLAX43Y43*%
%MOMM*%
G71*
G01*
G75*
G36*
X54064Y85669D02*
X54101Y85663D01*
X54134Y85653D01*
X54164Y85644D01*
X54189Y85634D01*
X54209Y85624D01*
X54214Y85622D01*
X54220Y85618D01*
X54222Y85616D01*
X54224D01*
X54261Y85591D01*
X54294Y85564D01*
X54324Y85533D01*
X54347Y85503D01*
X54369Y85478D01*
X54384Y85456D01*
X54388Y85449D01*
X54392Y85443D01*
X54396Y85439D01*
Y85437D01*
X54404Y85417D01*
X54406Y85406D01*
Y85396D01*
X54402Y85380D01*
X54396Y85369D01*
X54394Y85367D01*
Y85365D01*
X54376Y85353D01*
X54359Y85347D01*
X54351D01*
X54345Y85345D01*
X54339D01*
X54324Y85349D01*
X54310Y85353D01*
X54302Y85357D01*
X54300Y85359D01*
X54289Y85367D01*
X54279Y85376D01*
X54273Y85384D01*
X54271Y85388D01*
X54252Y85417D01*
X54232Y85441D01*
X54213Y85460D01*
X54195Y85476D01*
X54181Y85488D01*
X54170Y85495D01*
X54162Y85499D01*
X54160Y85501D01*
X54138Y85513D01*
X54117Y85521D01*
X54097Y85527D01*
X54080Y85531D01*
X54066Y85533D01*
X54055Y85535D01*
X54045D01*
X54015Y85533D01*
X53992Y85527D01*
X53982Y85525D01*
X53975Y85521D01*
X53971Y85519D01*
X53969D01*
X53945Y85505D01*
X53926Y85494D01*
X53914Y85482D01*
X53912Y85480D01*
X53910Y85478D01*
X53895Y85455D01*
X53883Y85431D01*
X53877Y85406D01*
X53875Y85384D01*
Y85365D01*
X53877Y85347D01*
X53879Y85337D01*
Y85336D01*
Y85334D01*
X53887Y85310D01*
X53895Y85291D01*
X53898Y85283D01*
X53900Y85277D01*
X53904Y85273D01*
Y85271D01*
X53926Y85240D01*
X53953Y85203D01*
X54655Y84432D01*
X54663Y84423D01*
X54669Y84411D01*
X54673Y84405D01*
Y84401D01*
X54675Y84389D01*
Y84387D01*
Y84386D01*
X54673Y84374D01*
X54669Y84362D01*
X54667Y84354D01*
X54665Y84352D01*
X54657Y84345D01*
X54649Y84339D01*
X54632Y84333D01*
X54620Y84329D01*
X54058D01*
X54035Y84333D01*
X54019Y84339D01*
X54008Y84345D01*
X54004Y84348D01*
X53990Y84364D01*
X53982Y84376D01*
X53978Y84386D01*
Y84389D01*
X53976Y84399D01*
Y84407D01*
X53980Y84423D01*
X53986Y84434D01*
X53988Y84436D01*
Y84438D01*
X53996Y84446D01*
X54004Y84452D01*
X54019Y84460D01*
X54031Y84462D01*
X54454D01*
X53848Y85129D01*
X53830Y85150D01*
X53815Y85170D01*
X53803Y85187D01*
X53791Y85203D01*
X53783Y85215D01*
X53778Y85224D01*
X53774Y85230D01*
X53772Y85232D01*
X53754Y85267D01*
X53748Y85283D01*
X53742Y85297D01*
X53738Y85308D01*
X53737Y85318D01*
X53735Y85324D01*
Y85326D01*
X53727Y85355D01*
X53725Y85378D01*
X53723Y85388D01*
Y85396D01*
Y85400D01*
Y85402D01*
X53725Y85437D01*
X53733Y85468D01*
X53744Y85497D01*
X53756Y85523D01*
X53768Y85542D01*
X53779Y85558D01*
X53787Y85568D01*
X53789Y85572D01*
X53807Y85589D01*
X53826Y85605D01*
X53846Y85618D01*
X53865Y85630D01*
X53904Y85648D01*
X53941Y85659D01*
X53975Y85665D01*
X53988Y85667D01*
X54002Y85669D01*
X54012Y85671D01*
X54025D01*
X54064Y85669D01*
D02*
G37*
G36*
X54767Y85665D02*
X54784Y85659D01*
X54794Y85653D01*
X54796Y85650D01*
X54798D01*
X55149Y85369D01*
X55157Y85359D01*
X55163Y85351D01*
X55170Y85337D01*
X55174Y85332D01*
Y85330D01*
X55178Y85320D01*
Y85316D01*
Y85314D01*
X55176Y85300D01*
X55172Y85291D01*
X55168Y85283D01*
X55166Y85281D01*
X55159Y85273D01*
X55151Y85267D01*
X55133Y85261D01*
X55125Y85259D01*
X55120Y85257D01*
X55114D01*
X55094Y85261D01*
X55079Y85267D01*
X55067Y85273D01*
X55065Y85277D01*
X55063D01*
X54872Y85429D01*
X55131Y84397D01*
Y84386D01*
Y84376D01*
X55125Y84360D01*
X55120Y84350D01*
X55116Y84347D01*
X55096Y84337D01*
X55083Y84331D01*
X55073Y84329D01*
X55071D01*
X55049Y84331D01*
X55032Y84339D01*
X55020Y84345D01*
X55018Y84347D01*
X55016D01*
X55003Y84360D01*
X54995Y84374D01*
X54991Y84386D01*
X54989Y84387D01*
Y84389D01*
X54687Y85599D01*
X54683Y85611D01*
Y85613D01*
Y85614D01*
X54685Y85626D01*
X54688Y85638D01*
X54694Y85646D01*
X54696Y85648D01*
X54704Y85655D01*
X54712Y85659D01*
X54729Y85667D01*
X54741Y85669D01*
X54747D01*
X54767Y85665D01*
D02*
G37*
G36*
X56294D02*
X56310Y85659D01*
X56321Y85652D01*
X56323Y85650D01*
X56325Y85648D01*
X56339Y85632D01*
X56349Y85618D01*
X56352Y85611D01*
X56354Y85607D01*
X56657Y84399D01*
X56659Y84391D01*
X56661Y84384D01*
Y84380D01*
Y84378D01*
X56659Y84364D01*
X56651Y84354D01*
X56645Y84348D01*
X56643Y84347D01*
X56624Y84337D01*
X56610Y84331D01*
X56600Y84329D01*
X56598D01*
X56577Y84331D01*
X56559Y84339D01*
X56548Y84345D01*
X56546Y84347D01*
X56544D01*
X56530Y84360D01*
X56520Y84374D01*
X56516Y84386D01*
X56514Y84387D01*
Y84389D01*
X56292Y85281D01*
X56099Y84368D01*
X56077Y84339D01*
X56042Y84329D01*
X56021Y84333D01*
X56001Y84339D01*
X55990Y84345D01*
X55988Y84348D01*
X55986D01*
X55978Y84358D01*
X55970Y84366D01*
X55962Y84378D01*
X55956Y84387D01*
Y84389D01*
X55654Y85597D01*
X55652Y85605D01*
X55650Y85611D01*
Y85614D01*
Y85616D01*
X55652Y85630D01*
X55658Y85642D01*
X55666Y85650D01*
X55668Y85652D01*
X55681Y85661D01*
X55697Y85667D01*
X55709Y85669D01*
X55724D01*
X55734Y85665D01*
X55752Y85659D01*
X55763Y85652D01*
X55765Y85650D01*
X55767Y85648D01*
X55781Y85632D01*
X55789Y85618D01*
X55793Y85611D01*
X55795Y85607D01*
X56019Y84715D01*
X56212Y85626D01*
X56218Y85642D01*
X56226Y85652D01*
X56233Y85657D01*
X56235Y85659D01*
X56249Y85665D01*
X56261Y85667D01*
X56269Y85669D01*
X56282D01*
X56294Y85665D01*
D02*
G37*
G36*
X58141Y85663D02*
X58159Y85657D01*
X58171Y85652D01*
X58172Y85648D01*
X58174D01*
X58188Y85634D01*
X58198Y85620D01*
X58202Y85609D01*
X58204Y85607D01*
Y85605D01*
X58206Y85589D01*
X58180Y84389D01*
X58178Y84370D01*
X58171Y84354D01*
X58161Y84345D01*
X58151Y84337D01*
X58139Y84333D01*
X58132Y84331D01*
X58124Y84329D01*
X58122D01*
X58104Y84331D01*
X58089Y84337D01*
X58075Y84347D01*
X58063Y84356D01*
X58053Y84364D01*
X58048Y84374D01*
X58044Y84380D01*
X58042Y84382D01*
X57418Y85581D01*
X57412Y85597D01*
X57410Y85609D01*
Y85611D01*
Y85613D01*
X57412Y85626D01*
X57416Y85636D01*
X57420Y85644D01*
X57421Y85646D01*
X57429Y85653D01*
X57437Y85657D01*
X57455Y85665D01*
X57462D01*
X57468Y85667D01*
X57474D01*
X57494Y85663D01*
X57507Y85657D01*
X57517Y85653D01*
X57521Y85652D01*
X57533Y85640D01*
X57540Y85630D01*
X57544Y85622D01*
X57546Y85620D01*
X58040Y84676D01*
X58059Y85614D01*
X58063Y85626D01*
X58067Y85634D01*
X58075Y85648D01*
X58083Y85653D01*
X58085Y85655D01*
X58096Y85663D01*
X58108Y85665D01*
X58116Y85667D01*
X58120D01*
X58141Y85663D01*
D02*
G37*
G36*
X53526D02*
X53543Y85657D01*
X53555Y85652D01*
X53557Y85648D01*
X53559D01*
X53573Y85634D01*
X53582Y85620D01*
X53586Y85609D01*
X53588Y85607D01*
Y85605D01*
X53590Y85589D01*
X53565Y84389D01*
X53563Y84370D01*
X53555Y84354D01*
X53545Y84345D01*
X53536Y84337D01*
X53524Y84333D01*
X53516Y84331D01*
X53508Y84329D01*
X53506D01*
X53489Y84331D01*
X53473Y84337D01*
X53460Y84347D01*
X53448Y84356D01*
X53438Y84364D01*
X53432Y84374D01*
X53428Y84380D01*
X53426Y84382D01*
X52802Y85581D01*
X52796Y85597D01*
X52794Y85609D01*
Y85611D01*
Y85613D01*
X52796Y85626D01*
X52800Y85636D01*
X52804Y85644D01*
X52806Y85646D01*
X52814Y85653D01*
X52822Y85657D01*
X52839Y85665D01*
X52847D01*
X52853Y85667D01*
X52859D01*
X52878Y85663D01*
X52892Y85657D01*
X52902Y85653D01*
X52906Y85652D01*
X52917Y85640D01*
X52925Y85630D01*
X52929Y85622D01*
X52931Y85620D01*
X53424Y84676D01*
X53444Y85614D01*
X53448Y85626D01*
X53452Y85634D01*
X53460Y85648D01*
X53467Y85653D01*
X53469Y85655D01*
X53481Y85663D01*
X53493Y85665D01*
X53501Y85667D01*
X53504D01*
X53526Y85663D01*
D02*
G37*
G36*
X56731Y85665D02*
X56748Y85659D01*
X56760Y85652D01*
X56762Y85650D01*
X56764Y85648D01*
X56778Y85632D01*
X56786Y85618D01*
X56789Y85611D01*
X56791Y85607D01*
X57094Y84399D01*
X57096Y84391D01*
X57098Y84384D01*
Y84380D01*
Y84378D01*
X57096Y84364D01*
X57090Y84354D01*
X57084Y84348D01*
X57082Y84347D01*
X57061Y84337D01*
X57047Y84331D01*
X57037Y84329D01*
X57035D01*
X57014Y84331D01*
X56998Y84339D01*
X56986Y84345D01*
X56985Y84347D01*
X56983D01*
X56969Y84360D01*
X56959Y84374D01*
X56955Y84386D01*
X56953Y84387D01*
Y84389D01*
X56651Y85597D01*
X56649Y85605D01*
Y85611D01*
Y85614D01*
Y85616D01*
X56651Y85630D01*
X56657Y85642D01*
X56663Y85650D01*
X56665Y85652D01*
X56678Y85661D01*
X56694Y85667D01*
X56706Y85669D01*
X56721D01*
X56731Y85665D01*
D02*
G37*
G36*
X119911Y85664D02*
X119929Y85658D01*
X119941Y85653D01*
X119943Y85649D01*
X119945D01*
X119958Y85635D01*
X119968Y85621D01*
X119972Y85610D01*
X119974Y85608D01*
Y85606D01*
X119976Y85590D01*
X119950Y84390D01*
X119949Y84371D01*
X119941Y84355D01*
X119931Y84346D01*
X119921Y84338D01*
X119910Y84334D01*
X119902Y84332D01*
X119894Y84330D01*
X119892D01*
X119874Y84332D01*
X119859Y84338D01*
X119845Y84347D01*
X119833Y84357D01*
X119824Y84365D01*
X119818Y84375D01*
X119814Y84381D01*
X119812Y84383D01*
X119188Y85582D01*
X119182Y85598D01*
X119180Y85610D01*
Y85612D01*
Y85614D01*
X119182Y85627D01*
X119186Y85637D01*
X119190Y85645D01*
X119192Y85647D01*
X119199Y85654D01*
X119207Y85658D01*
X119225Y85666D01*
X119233D01*
X119238Y85668D01*
X119244D01*
X119264Y85664D01*
X119277Y85658D01*
X119287Y85654D01*
X119291Y85653D01*
X119303Y85641D01*
X119311Y85631D01*
X119315Y85623D01*
X119316Y85621D01*
X119810Y84677D01*
X119830Y85615D01*
X119833Y85627D01*
X119837Y85635D01*
X119845Y85649D01*
X119853Y85654D01*
X119855Y85656D01*
X119867Y85664D01*
X119878Y85666D01*
X119886Y85668D01*
X119890D01*
X119911Y85664D01*
D02*
G37*
G36*
X114756D02*
X114773Y85658D01*
X114785Y85653D01*
X114787Y85649D01*
X114789D01*
X114803Y85635D01*
X114812Y85621D01*
X114816Y85610D01*
X114818Y85608D01*
Y85606D01*
X114820Y85590D01*
X114795Y84390D01*
X114793Y84371D01*
X114785Y84355D01*
X114775Y84346D01*
X114765Y84338D01*
X114754Y84334D01*
X114746Y84332D01*
X114738Y84330D01*
X114736D01*
X114719Y84332D01*
X114703Y84338D01*
X114689Y84347D01*
X114678Y84357D01*
X114668Y84365D01*
X114662Y84375D01*
X114658Y84381D01*
X114656Y84383D01*
X114032Y85582D01*
X114026Y85598D01*
X114024Y85610D01*
Y85612D01*
Y85614D01*
X114026Y85627D01*
X114030Y85637D01*
X114034Y85645D01*
X114036Y85647D01*
X114044Y85654D01*
X114051Y85658D01*
X114069Y85666D01*
X114077D01*
X114083Y85668D01*
X114089D01*
X114108Y85664D01*
X114122Y85658D01*
X114131Y85654D01*
X114135Y85653D01*
X114147Y85641D01*
X114155Y85631D01*
X114159Y85623D01*
X114161Y85621D01*
X114654Y84677D01*
X114674Y85615D01*
X114678Y85627D01*
X114682Y85635D01*
X114689Y85649D01*
X114697Y85654D01*
X114699Y85656D01*
X114711Y85664D01*
X114723Y85666D01*
X114730Y85668D01*
X114734D01*
X114756Y85664D01*
D02*
G37*
G36*
X117672Y85666D02*
X117690Y85660D01*
X117701Y85653D01*
X117703Y85651D01*
X117705Y85649D01*
X117719Y85633D01*
X117729Y85619D01*
X117732Y85612D01*
X117734Y85608D01*
X117976Y84630D01*
X117982Y84603D01*
X117986Y84580D01*
X117988Y84572D01*
Y84564D01*
Y84560D01*
Y84558D01*
X117986Y84529D01*
X117980Y84504D01*
X117972Y84480D01*
X117963Y84459D01*
X117953Y84441D01*
X117945Y84429D01*
X117939Y84420D01*
X117937Y84418D01*
X117924Y84402D01*
X117908Y84388D01*
X117875Y84367D01*
X117844Y84351D01*
X117812Y84342D01*
X117785Y84334D01*
X117764Y84332D01*
X117756Y84330D01*
X117651D01*
X117627Y84332D01*
X117604Y84334D01*
X117561Y84344D01*
X117520Y84357D01*
X117487Y84373D01*
X117457Y84388D01*
X117446Y84396D01*
X117436Y84402D01*
X117426Y84408D01*
X117420Y84412D01*
X117418Y84416D01*
X117416D01*
X117379Y84451D01*
X117348Y84486D01*
X117325Y84521D01*
X117305Y84552D01*
X117294Y84582D01*
X117284Y84605D01*
X117282Y84613D01*
X117280Y84619D01*
X117278Y84623D01*
Y84624D01*
X117034Y85600D01*
X117030Y85612D01*
Y85615D01*
Y85617D01*
X117032Y85631D01*
X117036Y85641D01*
X117042Y85649D01*
X117044Y85651D01*
X117060Y85662D01*
X117075Y85668D01*
X117087Y85670D01*
X117102D01*
X117114Y85666D01*
X117132Y85660D01*
X117143Y85653D01*
X117145Y85651D01*
X117147Y85649D01*
X117161Y85633D01*
X117169Y85619D01*
X117173Y85612D01*
X117175Y85608D01*
X117418Y84630D01*
X117428Y84605D01*
X117440Y84582D01*
X117454Y84560D01*
X117467Y84543D01*
X117479Y84529D01*
X117491Y84519D01*
X117498Y84511D01*
X117500Y84509D01*
X117524Y84494D01*
X117547Y84482D01*
X117569Y84474D01*
X117586Y84468D01*
X117604Y84465D01*
X117615Y84463D01*
X117721D01*
X117742Y84465D01*
X117760Y84470D01*
X117777Y84478D01*
X117791Y84486D01*
X117801Y84494D01*
X117811Y84502D01*
X117814Y84507D01*
X117816Y84509D01*
X117828Y84527D01*
X117836Y84546D01*
X117838Y84566D01*
X117840Y84585D01*
Y84601D01*
X117838Y84613D01*
X117836Y84621D01*
Y84624D01*
X117592Y85600D01*
X117590Y85612D01*
Y85621D01*
X117594Y85637D01*
X117600Y85647D01*
X117604Y85651D01*
X117619Y85662D01*
X117633Y85668D01*
X117645Y85670D01*
X117660D01*
X117672Y85666D01*
D02*
G37*
G36*
X118366D02*
X118409Y85656D01*
X118450Y85641D01*
X118485Y85625D01*
X118515Y85610D01*
X118526Y85602D01*
X118536Y85594D01*
X118544Y85588D01*
X118550Y85584D01*
X118554Y85582D01*
X118556Y85580D01*
X118593Y85547D01*
X118622Y85512D01*
X118645Y85477D01*
X118665Y85446D01*
X118677Y85416D01*
X118686Y85395D01*
X118688Y85387D01*
X118690Y85381D01*
X118692Y85377D01*
Y85376D01*
X118878Y84630D01*
X118883Y84603D01*
X118887Y84580D01*
X118889Y84572D01*
Y84564D01*
Y84560D01*
Y84558D01*
X118887Y84529D01*
X118881Y84504D01*
X118874Y84480D01*
X118864Y84459D01*
X118854Y84441D01*
X118846Y84429D01*
X118840Y84420D01*
X118839Y84418D01*
X118825Y84402D01*
X118809Y84388D01*
X118776Y84367D01*
X118745Y84351D01*
X118714Y84342D01*
X118686Y84334D01*
X118665Y84332D01*
X118657Y84330D01*
X118552D01*
X118528Y84332D01*
X118505Y84334D01*
X118462Y84344D01*
X118421Y84357D01*
X118388Y84373D01*
X118359Y84388D01*
X118347Y84396D01*
X118337Y84402D01*
X118327Y84408D01*
X118322Y84412D01*
X118320Y84416D01*
X118318D01*
X118281Y84451D01*
X118249Y84486D01*
X118226Y84521D01*
X118207Y84552D01*
X118195Y84582D01*
X118185Y84605D01*
X118183Y84613D01*
X118181Y84619D01*
X118179Y84623D01*
Y84624D01*
X117992Y85366D01*
X117986Y85395D01*
X117984Y85418D01*
X117982Y85428D01*
Y85434D01*
Y85438D01*
Y85440D01*
X117984Y85469D01*
X117990Y85495D01*
X117998Y85520D01*
X118006Y85539D01*
X118013Y85555D01*
X118021Y85569D01*
X118027Y85576D01*
X118029Y85578D01*
X118043Y85594D01*
X118058Y85610D01*
X118089Y85631D01*
X118123Y85649D01*
X118154Y85658D01*
X118183Y85666D01*
X118205Y85668D01*
X118214Y85670D01*
X118343D01*
X118366Y85666D01*
D02*
G37*
G36*
X116790Y85668D02*
X116802Y85666D01*
X116822Y85658D01*
X116833Y85649D01*
X116835Y85647D01*
X116837Y85645D01*
X116849Y85629D01*
X116857Y85617D01*
X116861Y85610D01*
Y85608D01*
X116862Y85590D01*
X116861Y85574D01*
X116857Y85565D01*
X116855Y85563D01*
Y85561D01*
X116847Y85553D01*
X116839Y85547D01*
X116822Y85541D01*
X116814Y85539D01*
X116808Y85537D01*
X116599D01*
X116882Y84400D01*
X116884Y84392D01*
X116886Y84385D01*
Y84381D01*
Y84379D01*
X116884Y84365D01*
X116878Y84355D01*
X116872Y84349D01*
X116870Y84347D01*
X116851Y84338D01*
X116835Y84332D01*
X116827Y84330D01*
X116823D01*
X116802Y84332D01*
X116786Y84340D01*
X116775Y84346D01*
X116773Y84347D01*
X116771D01*
X116757Y84361D01*
X116747Y84375D01*
X116743Y84386D01*
X116742Y84388D01*
Y84390D01*
X116455Y85537D01*
X116242D01*
X116219Y85541D01*
X116203Y85547D01*
X116191Y85553D01*
X116188Y85557D01*
X116174Y85573D01*
X116164Y85586D01*
X116160Y85596D01*
X116158Y85600D01*
Y85608D01*
Y85612D01*
X116160Y85625D01*
X116164Y85635D01*
X116168Y85643D01*
X116170Y85647D01*
X116178Y85654D01*
X116186Y85660D01*
X116201Y85668D01*
X116213Y85670D01*
X116779D01*
X116790Y85668D01*
D02*
G37*
G36*
X115491D02*
X115509Y85660D01*
X115522Y85651D01*
X115534Y85639D01*
X115542Y85627D01*
X115546Y85617D01*
X115550Y85610D01*
Y85608D01*
X115688Y85048D01*
X115690Y85036D01*
X115692Y85024D01*
X115686Y85007D01*
X115678Y84995D01*
X115667Y84987D01*
X115653Y84981D01*
X115641Y84980D01*
X115634Y84978D01*
X115397D01*
X115374Y84976D01*
X115355Y84970D01*
X115339Y84962D01*
X115325Y84954D01*
X115314Y84946D01*
X115306Y84939D01*
X115302Y84933D01*
X115300Y84931D01*
X115288Y84913D01*
X115282Y84894D01*
X115278Y84876D01*
Y84857D01*
Y84841D01*
X115280Y84829D01*
X115282Y84822D01*
Y84818D01*
X115327Y84632D01*
X115337Y84607D01*
X115349Y84584D01*
X115360Y84562D01*
X115374Y84545D01*
X115388Y84531D01*
X115397Y84521D01*
X115405Y84513D01*
X115407Y84511D01*
X115431Y84496D01*
X115452Y84484D01*
X115474Y84474D01*
X115495Y84468D01*
X115511Y84465D01*
X115524Y84463D01*
X115768D01*
X115782Y84461D01*
X115793Y84459D01*
X115811Y84451D01*
X115823Y84441D01*
X115825Y84439D01*
X115827Y84437D01*
X115840Y84422D01*
X115848Y84410D01*
X115850Y84402D01*
X115852Y84400D01*
X115854Y84388D01*
Y84385D01*
Y84383D01*
X115852Y84371D01*
X115850Y84361D01*
X115848Y84353D01*
X115846Y84351D01*
X115838Y84344D01*
X115829Y84340D01*
X115811Y84332D01*
X115803D01*
X115797Y84330D01*
X115559D01*
X115536Y84332D01*
X115513Y84334D01*
X115470Y84344D01*
X115431Y84357D01*
X115396Y84373D01*
X115366Y84388D01*
X115355Y84396D01*
X115345Y84402D01*
X115337Y84408D01*
X115329Y84412D01*
X115327Y84416D01*
X115325D01*
X115288Y84451D01*
X115257Y84486D01*
X115234Y84521D01*
X115214Y84552D01*
X115202Y84582D01*
X115193Y84605D01*
X115191Y84613D01*
X115189Y84619D01*
X115187Y84623D01*
Y84624D01*
X115140Y84810D01*
X115136Y84831D01*
X115134Y84853D01*
Y84894D01*
X115140Y84929D01*
X115148Y84960D01*
X115160Y84985D01*
X115169Y85005D01*
X115175Y85017D01*
X115179Y85019D01*
Y85020D01*
X115193Y85036D01*
X115206Y85052D01*
X115238Y85073D01*
X115271Y85091D01*
X115302Y85100D01*
X115329Y85108D01*
X115353Y85110D01*
X115362Y85112D01*
X115530D01*
X115423Y85537D01*
X115025D01*
X115001Y85541D01*
X114986Y85547D01*
X114974Y85553D01*
X114970Y85557D01*
X114957Y85573D01*
X114949Y85586D01*
X114945Y85596D01*
X114943Y85600D01*
X114941Y85610D01*
Y85612D01*
Y85614D01*
X114943Y85625D01*
X114947Y85635D01*
X114951Y85643D01*
X114953Y85645D01*
X114961Y85653D01*
X114968Y85660D01*
X114984Y85666D01*
X114996Y85670D01*
X115468D01*
X115491Y85668D01*
D02*
G37*
G36*
X113232Y72478D02*
X113250Y72472D01*
X113259Y72466D01*
X113261Y72462D01*
X113263D01*
X113615Y72182D01*
X113622Y72172D01*
X113628Y72164D01*
X113636Y72150D01*
X113640Y72145D01*
Y72143D01*
X113644Y72133D01*
Y72129D01*
Y72127D01*
X113642Y72113D01*
X113638Y72104D01*
X113634Y72096D01*
X113632Y72094D01*
X113624Y72086D01*
X113616Y72080D01*
X113599Y72074D01*
X113591Y72072D01*
X113585Y72070D01*
X113579D01*
X113560Y72074D01*
X113544Y72080D01*
X113533Y72086D01*
X113531Y72090D01*
X113529D01*
X113338Y72242D01*
X113597Y71210D01*
Y71198D01*
Y71189D01*
X113591Y71173D01*
X113585Y71163D01*
X113581Y71159D01*
X113562Y71150D01*
X113548Y71144D01*
X113538Y71142D01*
X113536D01*
X113515Y71144D01*
X113497Y71152D01*
X113486Y71157D01*
X113484Y71159D01*
X113482D01*
X113468Y71173D01*
X113460Y71187D01*
X113457Y71198D01*
X113455Y71200D01*
Y71202D01*
X113152Y72412D01*
X113148Y72423D01*
Y72425D01*
Y72427D01*
X113150Y72439D01*
X113154Y72451D01*
X113160Y72459D01*
X113162Y72461D01*
X113170Y72468D01*
X113178Y72472D01*
X113195Y72480D01*
X113207Y72482D01*
X113213D01*
X113232Y72478D01*
D02*
G37*
G36*
X108933D02*
X108950Y72472D01*
X108960Y72466D01*
X108962Y72462D01*
X108964D01*
X109315Y72182D01*
X109323Y72172D01*
X109329Y72164D01*
X109337Y72150D01*
X109340Y72145D01*
Y72143D01*
X109344Y72133D01*
Y72129D01*
Y72127D01*
X109342Y72113D01*
X109339Y72104D01*
X109335Y72096D01*
X109333Y72094D01*
X109325Y72086D01*
X109317Y72080D01*
X109300Y72074D01*
X109292Y72072D01*
X109286Y72070D01*
X109280D01*
X109261Y72074D01*
X109245Y72080D01*
X109233Y72086D01*
X109231Y72090D01*
X109229D01*
X109038Y72242D01*
X109298Y71210D01*
Y71198D01*
Y71189D01*
X109292Y71173D01*
X109286Y71163D01*
X109282Y71159D01*
X109262Y71150D01*
X109249Y71144D01*
X109239Y71142D01*
X109237D01*
X109216Y71144D01*
X109198Y71152D01*
X109186Y71157D01*
X109184Y71159D01*
X109182D01*
X109169Y71173D01*
X109161Y71187D01*
X109157Y71198D01*
X109155Y71200D01*
Y71202D01*
X108853Y72412D01*
X108849Y72423D01*
Y72425D01*
Y72427D01*
X108851Y72439D01*
X108855Y72451D01*
X108861Y72459D01*
X108863Y72461D01*
X108870Y72468D01*
X108878Y72472D01*
X108896Y72480D01*
X108907Y72482D01*
X108913D01*
X108933Y72478D01*
D02*
G37*
G36*
X117071Y72478D02*
X117089Y72472D01*
X117100Y72464D01*
X117102Y72462D01*
X117104Y72461D01*
X117118Y72445D01*
X117126Y72431D01*
X117130Y72423D01*
X117132Y72420D01*
X117237Y72000D01*
X117243Y71971D01*
X117245Y71938D01*
X117243Y71887D01*
X117239Y71868D01*
X117231Y71850D01*
X117225Y71832D01*
X117217Y71819D01*
X117212Y71807D01*
X117206Y71797D01*
X117202Y71791D01*
X117200Y71789D01*
X117184Y71774D01*
X117169Y71760D01*
X117136Y71737D01*
X117102Y71721D01*
X117071Y71709D01*
X117044Y71704D01*
X117022Y71700D01*
X117015Y71698D01*
X116753D01*
X116818Y71442D01*
X116827Y71417D01*
X116839Y71393D01*
X116853Y71372D01*
X116866Y71354D01*
X116878Y71341D01*
X116890Y71331D01*
X116898Y71323D01*
X116900Y71321D01*
X116923Y71306D01*
X116946Y71294D01*
X116968Y71286D01*
X116985Y71280D01*
X117003Y71276D01*
X117015Y71274D01*
X117258D01*
X117272Y71273D01*
X117284Y71271D01*
X117301Y71263D01*
X117313Y71253D01*
X117315Y71251D01*
X117317Y71249D01*
X117329Y71234D01*
X117336Y71222D01*
X117340Y71214D01*
Y71212D01*
X117344Y71200D01*
Y71196D01*
Y71195D01*
X117342Y71183D01*
X117340Y71173D01*
X117338Y71165D01*
X117336Y71163D01*
X117329Y71155D01*
X117319Y71152D01*
X117301Y71144D01*
X117294D01*
X117288Y71142D01*
X117050D01*
X117026Y71144D01*
X117003Y71146D01*
X116960Y71155D01*
X116919Y71169D01*
X116884Y71185D01*
X116855Y71200D01*
X116843Y71208D01*
X116833Y71214D01*
X116825Y71220D01*
X116820Y71224D01*
X116816Y71228D01*
X116814D01*
X116777Y71263D01*
X116745Y71298D01*
X116722Y71333D01*
X116703Y71364D01*
X116691Y71393D01*
X116681Y71417D01*
X116679Y71425D01*
X116677Y71431D01*
X116675Y71434D01*
Y71436D01*
X116431Y72412D01*
X116429Y72423D01*
Y72427D01*
Y72429D01*
X116431Y72443D01*
X116435Y72453D01*
X116441Y72461D01*
X116443Y72462D01*
X116459Y72474D01*
X116474Y72480D01*
X116486Y72482D01*
X116502D01*
X116511Y72478D01*
X116529Y72472D01*
X116541Y72464D01*
X116543Y72462D01*
X116545Y72461D01*
X116558Y72445D01*
X116568Y72431D01*
X116572Y72423D01*
X116574Y72420D01*
X116720Y71832D01*
X116980D01*
X117003Y71834D01*
X117022Y71840D01*
X117040Y71846D01*
X117054Y71856D01*
X117065Y71864D01*
X117073Y71869D01*
X117077Y71875D01*
X117079Y71877D01*
X117089Y71897D01*
X117095Y71916D01*
X117099Y71936D01*
Y71953D01*
Y71969D01*
X117097Y71983D01*
X117095Y71990D01*
Y71994D01*
X116991Y72412D01*
X116989Y72423D01*
Y72433D01*
X116993Y72449D01*
X116997Y72459D01*
X117001Y72462D01*
X117017Y72474D01*
X117032Y72480D01*
X117044Y72482D01*
X117059D01*
X117071Y72478D01*
D02*
G37*
G36*
X120253D02*
X120298Y72468D01*
X120339Y72453D01*
X120374Y72437D01*
X120403Y72422D01*
X120415Y72414D01*
X120424Y72406D01*
X120432Y72400D01*
X120438Y72396D01*
X120442Y72394D01*
X120444Y72392D01*
X120481Y72359D01*
X120510Y72324D01*
X120534Y72289D01*
X120551Y72258D01*
X120565Y72228D01*
X120573Y72207D01*
X120575Y72199D01*
X120577Y72193D01*
X120579Y72189D01*
Y72187D01*
X120766Y71442D01*
X120772Y71415D01*
X120774Y71393D01*
X120776Y71384D01*
Y71378D01*
Y71374D01*
Y71372D01*
X120774Y71343D01*
X120768Y71315D01*
X120760Y71292D01*
X120750Y71273D01*
X120742Y71255D01*
X120735Y71243D01*
X120729Y71234D01*
X120727Y71232D01*
X120713Y71216D01*
X120698Y71202D01*
X120664Y71179D01*
X120633Y71163D01*
X120602Y71154D01*
X120575Y71146D01*
X120551Y71144D01*
X120543Y71142D01*
X120300D01*
X120276Y71146D01*
X120261Y71152D01*
X120249Y71157D01*
X120245Y71161D01*
X120231Y71177D01*
X120222Y71189D01*
X120218Y71198D01*
X120216Y71202D01*
Y71212D01*
Y71220D01*
X120222Y71235D01*
X120227Y71247D01*
X120229Y71249D01*
Y71251D01*
X120235Y71259D01*
X120243Y71265D01*
X120259Y71273D01*
X120270Y71274D01*
X120508D01*
X120530Y71276D01*
X120549Y71282D01*
X120567Y71288D01*
X120581Y71298D01*
X120592Y71306D01*
X120600Y71312D01*
X120604Y71317D01*
X120606Y71319D01*
X120618Y71339D01*
X120623Y71358D01*
X120627Y71378D01*
Y71395D01*
Y71411D01*
X120625Y71425D01*
X120623Y71432D01*
Y71436D01*
X120438Y72180D01*
X120428Y72205D01*
X120417Y72228D01*
X120405Y72250D01*
X120391Y72267D01*
X120378Y72281D01*
X120368Y72293D01*
X120360Y72299D01*
X120358Y72301D01*
X120335Y72316D01*
X120311Y72328D01*
X120290Y72338D01*
X120270Y72343D01*
X120253Y72347D01*
X120241Y72349D01*
X119997D01*
X119974Y72353D01*
X119958Y72359D01*
X119947Y72365D01*
X119943Y72369D01*
X119929Y72384D01*
X119919Y72398D01*
X119915Y72408D01*
X119913Y72412D01*
Y72420D01*
Y72423D01*
X119915Y72437D01*
X119919Y72447D01*
X119923Y72455D01*
X119925Y72459D01*
X119933Y72466D01*
X119941Y72472D01*
X119956Y72480D01*
X119968Y72482D01*
X120229D01*
X120253Y72478D01*
D02*
G37*
G36*
X119683Y72480D02*
X119703Y72472D01*
X119716Y72462D01*
X119726Y72451D01*
X119734Y72439D01*
X119738Y72429D01*
X119742Y72422D01*
Y72420D01*
X120044Y71212D01*
X120046Y71204D01*
X120048Y71196D01*
Y71193D01*
Y71191D01*
X120046Y71177D01*
X120040Y71167D01*
X120034Y71161D01*
X120032Y71159D01*
X120011Y71150D01*
X119997Y71144D01*
X119988Y71142D01*
X119986D01*
X119964Y71144D01*
X119949Y71152D01*
X119937Y71157D01*
X119935Y71159D01*
X119933D01*
X119919Y71173D01*
X119909Y71187D01*
X119906Y71198D01*
X119904Y71200D01*
Y71202D01*
X119617Y72349D01*
X119203D01*
X119486Y71210D01*
X119488Y71198D01*
Y71189D01*
X119484Y71173D01*
X119478Y71163D01*
X119474Y71159D01*
X119453Y71150D01*
X119439Y71144D01*
X119430Y71142D01*
X119428D01*
X119406Y71144D01*
X119391Y71152D01*
X119379Y71157D01*
X119377Y71159D01*
X119375D01*
X119361Y71173D01*
X119352Y71187D01*
X119348Y71198D01*
X119346Y71200D01*
Y71202D01*
X119041Y72412D01*
X119039Y72420D01*
Y72425D01*
Y72429D01*
Y72431D01*
X119041Y72449D01*
X119049Y72461D01*
X119059Y72470D01*
X119071Y72476D01*
X119082Y72480D01*
X119092Y72482D01*
X119662D01*
X119683Y72480D01*
D02*
G37*
G36*
X118809D02*
X118827Y72472D01*
X118840Y72462D01*
X118852Y72451D01*
X118860Y72439D01*
X118864Y72429D01*
X118868Y72422D01*
Y72420D01*
X119170Y71212D01*
X119172Y71204D01*
Y71196D01*
Y71191D01*
Y71189D01*
X119170Y71173D01*
X119162Y71161D01*
X119153Y71154D01*
X119141Y71148D01*
X119129Y71144D01*
X119119Y71142D01*
X118786D01*
X118762Y71144D01*
X118739Y71146D01*
X118696Y71155D01*
X118655Y71169D01*
X118620Y71185D01*
X118591Y71200D01*
X118579Y71208D01*
X118569Y71214D01*
X118562Y71220D01*
X118556Y71224D01*
X118552Y71228D01*
X118550D01*
X118513Y71263D01*
X118482Y71298D01*
X118458Y71333D01*
X118439Y71364D01*
X118427Y71393D01*
X118417Y71417D01*
X118415Y71425D01*
X118413Y71431D01*
X118411Y71434D01*
Y71436D01*
X118365Y71622D01*
X118359Y71653D01*
X118357Y71684D01*
Y71735D01*
X118361Y71756D01*
X118368Y71774D01*
X118374Y71791D01*
X118382Y71805D01*
X118388Y71819D01*
X118394Y71827D01*
X118398Y71832D01*
X118400Y71834D01*
X118413Y71850D01*
X118429Y71864D01*
X118462Y71887D01*
X118495Y71903D01*
X118526Y71912D01*
X118554Y71920D01*
X118577Y71922D01*
X118587Y71924D01*
X118848D01*
X118741Y72349D01*
X118298D01*
X118275Y72353D01*
X118257Y72359D01*
X118246Y72365D01*
X118242Y72369D01*
X118228Y72384D01*
X118220Y72398D01*
X118216Y72408D01*
X118214Y72412D01*
X118212Y72420D01*
Y72423D01*
X118214Y72437D01*
X118218Y72447D01*
X118224Y72455D01*
X118226Y72459D01*
X118234Y72466D01*
X118242Y72472D01*
X118257Y72480D01*
X118269Y72482D01*
X118786D01*
X118809Y72480D01*
D02*
G37*
G36*
X117931D02*
X117951Y72472D01*
X117965Y72462D01*
X117974Y72451D01*
X117982Y72439D01*
X117986Y72429D01*
X117990Y72422D01*
Y72420D01*
X118292Y71212D01*
X118294Y71204D01*
X118296Y71196D01*
Y71193D01*
Y71191D01*
X118294Y71177D01*
X118288Y71167D01*
X118283Y71161D01*
X118281Y71159D01*
X118259Y71150D01*
X118246Y71144D01*
X118236Y71142D01*
X118234D01*
X118212Y71144D01*
X118197Y71152D01*
X118185Y71157D01*
X118183Y71159D01*
X118181D01*
X118168Y71173D01*
X118158Y71187D01*
X118154Y71198D01*
X118152Y71200D01*
Y71202D01*
X117865Y72349D01*
X117452D01*
X117734Y71210D01*
X117736Y71198D01*
Y71189D01*
X117732Y71173D01*
X117727Y71163D01*
X117723Y71159D01*
X117701Y71150D01*
X117688Y71144D01*
X117678Y71142D01*
X117676D01*
X117654Y71144D01*
X117639Y71152D01*
X117627Y71157D01*
X117625Y71159D01*
X117623D01*
X117610Y71173D01*
X117600Y71187D01*
X117596Y71198D01*
X117594Y71200D01*
Y71202D01*
X117290Y72412D01*
X117288Y72420D01*
Y72425D01*
Y72429D01*
Y72431D01*
X117290Y72449D01*
X117297Y72461D01*
X117307Y72470D01*
X117319Y72476D01*
X117331Y72480D01*
X117340Y72482D01*
X117910D01*
X117931Y72480D01*
D02*
G37*
G36*
X116496Y71273D02*
X116507Y71271D01*
X116525Y71263D01*
X116537Y71253D01*
X116539Y71251D01*
X116541Y71249D01*
X116554Y71234D01*
X116562Y71222D01*
X116564Y71214D01*
X116566Y71212D01*
X116568Y71200D01*
Y71196D01*
Y71195D01*
X116566Y71183D01*
X116564Y71173D01*
X116562Y71165D01*
X116560Y71163D01*
X116552Y71155D01*
X116543Y71152D01*
X116525Y71144D01*
X116517D01*
X116511Y71142D01*
X116505D01*
X116482Y71146D01*
X116466Y71152D01*
X116455Y71157D01*
X116451Y71161D01*
X116437Y71177D01*
X116429Y71189D01*
X116426Y71198D01*
X116424Y71202D01*
X116422Y71212D01*
Y71216D01*
X116424Y71228D01*
X116427Y71239D01*
X116431Y71247D01*
X116433Y71249D01*
X116441Y71257D01*
X116449Y71265D01*
X116465Y71271D01*
X116476Y71274D01*
X116482D01*
X116496Y71273D01*
D02*
G37*
G36*
X115817Y72480D02*
X115829Y72478D01*
X115846Y72470D01*
X115858Y72461D01*
X115860Y72459D01*
X115862Y72457D01*
X115875Y72441D01*
X115883Y72429D01*
X115885Y72422D01*
X115887Y72420D01*
X115889Y72402D01*
X115887Y72386D01*
X115883Y72377D01*
X115881Y72375D01*
Y72373D01*
X115873Y72365D01*
X115864Y72359D01*
X115846Y72353D01*
X115838Y72351D01*
X115832Y72349D01*
X115641D01*
X115618Y72347D01*
X115598Y72342D01*
X115581Y72334D01*
X115567Y72326D01*
X115555Y72318D01*
X115548Y72310D01*
X115544Y72304D01*
X115542Y72303D01*
X115532Y72285D01*
X115526Y72265D01*
X115522Y72246D01*
Y72228D01*
Y72211D01*
X115524Y72199D01*
X115526Y72191D01*
Y72187D01*
X115550Y72094D01*
X115557Y72068D01*
X115569Y72045D01*
X115583Y72024D01*
X115594Y72006D01*
X115608Y71992D01*
X115618Y71983D01*
X115626Y71975D01*
X115628Y71973D01*
X115651Y71957D01*
X115673Y71946D01*
X115694Y71936D01*
X115715Y71930D01*
X115731Y71926D01*
X115745Y71924D01*
X115756D01*
X115770Y71922D01*
X115782Y71920D01*
X115799Y71912D01*
X115811Y71903D01*
X115813Y71901D01*
X115815Y71899D01*
X115829Y71883D01*
X115836Y71871D01*
X115838Y71864D01*
X115840Y71862D01*
X115842Y71844D01*
X115840Y71828D01*
X115836Y71819D01*
X115834Y71817D01*
Y71815D01*
X115827Y71807D01*
X115817Y71801D01*
X115799Y71795D01*
X115792Y71793D01*
X115786Y71791D01*
X115733D01*
X115710Y71789D01*
X115690Y71784D01*
X115674Y71776D01*
X115661Y71768D01*
X115649Y71760D01*
X115641Y71752D01*
X115637Y71747D01*
X115635Y71745D01*
X115626Y71727D01*
X115618Y71708D01*
X115616Y71688D01*
X115614Y71670D01*
Y71653D01*
X115616Y71641D01*
X115618Y71633D01*
Y71630D01*
X115665Y71444D01*
X115674Y71419D01*
X115686Y71395D01*
X115698Y71374D01*
X115712Y71356D01*
X115725Y71343D01*
X115735Y71333D01*
X115743Y71325D01*
X115745Y71323D01*
X115768Y71308D01*
X115790Y71296D01*
X115811Y71286D01*
X115832Y71280D01*
X115848Y71276D01*
X115862Y71274D01*
X116106D01*
X116119Y71273D01*
X116131Y71271D01*
X116149Y71263D01*
X116160Y71253D01*
X116162Y71251D01*
X116164Y71249D01*
X116176Y71234D01*
X116184Y71222D01*
X116186Y71212D01*
X116188Y71210D01*
X116189Y71198D01*
Y71196D01*
Y71195D01*
X116188Y71183D01*
X116186Y71173D01*
X116184Y71165D01*
Y71163D01*
X116176Y71155D01*
X116166Y71152D01*
X116149Y71144D01*
X116141D01*
X116135Y71142D01*
X115897D01*
X115873Y71144D01*
X115850Y71146D01*
X115807Y71155D01*
X115766Y71169D01*
X115733Y71185D01*
X115704Y71200D01*
X115692Y71208D01*
X115682Y71214D01*
X115673Y71220D01*
X115667Y71224D01*
X115665Y71228D01*
X115663D01*
X115626Y71261D01*
X115594Y71296D01*
X115571Y71331D01*
X115552Y71364D01*
X115540Y71393D01*
X115530Y71417D01*
X115528Y71425D01*
X115526Y71431D01*
X115524Y71434D01*
Y71436D01*
X115477Y71620D01*
X115472Y71651D01*
X115470Y71680D01*
Y71708D01*
X115474Y71731D01*
X115477Y71750D01*
X115481Y71766D01*
X115483Y71776D01*
X115485Y71780D01*
X115495Y71805D01*
X115507Y71827D01*
X115518Y71844D01*
X115528Y71856D01*
X115536Y71866D01*
X115544Y71871D01*
X115548Y71875D01*
X115550D01*
X115518Y71901D01*
X115505Y71914D01*
X115493Y71928D01*
X115481Y71940D01*
X115474Y71949D01*
X115470Y71955D01*
X115468Y71957D01*
X115452Y71979D01*
X115440Y71998D01*
X115436Y72006D01*
X115435Y72012D01*
X115433Y72014D01*
Y72016D01*
X115423Y72033D01*
X115417Y72055D01*
X115407Y72086D01*
X115384Y72180D01*
X115378Y72207D01*
X115376Y72232D01*
X115374Y72240D01*
Y72248D01*
Y72252D01*
Y72254D01*
X115376Y72283D01*
X115382Y72308D01*
X115388Y72332D01*
X115396Y72351D01*
X115405Y72367D01*
X115411Y72381D01*
X115417Y72388D01*
X115419Y72390D01*
X115433Y72406D01*
X115446Y72422D01*
X115479Y72443D01*
X115513Y72461D01*
X115544Y72470D01*
X115573Y72478D01*
X115596Y72480D01*
X115606Y72482D01*
X115803D01*
X115817Y72480D01*
D02*
G37*
G36*
X115001D02*
X115013Y72478D01*
X115031Y72470D01*
X115042Y72461D01*
X115044Y72459D01*
X115046Y72457D01*
X115060Y72441D01*
X115068Y72429D01*
X115070Y72422D01*
X115072Y72420D01*
X115074Y72402D01*
X115072Y72386D01*
X115068Y72377D01*
X115066Y72375D01*
Y72373D01*
X115058Y72365D01*
X115048Y72359D01*
X115031Y72353D01*
X115023Y72351D01*
X115017Y72349D01*
X114826D01*
X114803Y72347D01*
X114783Y72342D01*
X114765Y72334D01*
X114752Y72326D01*
X114740Y72318D01*
X114732Y72310D01*
X114728Y72304D01*
X114726Y72303D01*
X114717Y72285D01*
X114711Y72265D01*
X114707Y72246D01*
Y72228D01*
Y72211D01*
X114709Y72199D01*
X114711Y72191D01*
Y72187D01*
X114734Y72094D01*
X114742Y72068D01*
X114754Y72045D01*
X114767Y72024D01*
X114779Y72006D01*
X114793Y71992D01*
X114803Y71983D01*
X114810Y71975D01*
X114812Y71973D01*
X114836Y71957D01*
X114857Y71946D01*
X114879Y71936D01*
X114900Y71930D01*
X114916Y71926D01*
X114929Y71924D01*
X114941D01*
X114955Y71922D01*
X114966Y71920D01*
X114984Y71912D01*
X114996Y71903D01*
X114998Y71901D01*
X115000Y71899D01*
X115013Y71883D01*
X115021Y71871D01*
X115023Y71864D01*
X115025Y71862D01*
X115027Y71844D01*
X115025Y71828D01*
X115021Y71819D01*
X115019Y71817D01*
Y71815D01*
X115011Y71807D01*
X115001Y71801D01*
X114984Y71795D01*
X114976Y71793D01*
X114970Y71791D01*
X114918D01*
X114894Y71789D01*
X114875Y71784D01*
X114859Y71776D01*
X114845Y71768D01*
X114834Y71760D01*
X114826Y71752D01*
X114822Y71747D01*
X114820Y71745D01*
X114810Y71727D01*
X114803Y71708D01*
X114801Y71688D01*
X114799Y71670D01*
Y71653D01*
X114801Y71641D01*
X114803Y71633D01*
Y71630D01*
X114849Y71444D01*
X114859Y71419D01*
X114871Y71395D01*
X114882Y71374D01*
X114896Y71356D01*
X114910Y71343D01*
X114920Y71333D01*
X114927Y71325D01*
X114929Y71323D01*
X114953Y71308D01*
X114974Y71296D01*
X114996Y71286D01*
X115017Y71280D01*
X115033Y71276D01*
X115046Y71274D01*
X115290D01*
X115304Y71273D01*
X115316Y71271D01*
X115333Y71263D01*
X115345Y71253D01*
X115347Y71251D01*
X115349Y71249D01*
X115360Y71234D01*
X115368Y71222D01*
X115370Y71212D01*
X115372Y71210D01*
X115374Y71198D01*
Y71196D01*
Y71195D01*
X115372Y71183D01*
X115370Y71173D01*
X115368Y71165D01*
Y71163D01*
X115360Y71155D01*
X115351Y71152D01*
X115333Y71144D01*
X115325D01*
X115319Y71142D01*
X115081D01*
X115058Y71144D01*
X115035Y71146D01*
X114992Y71155D01*
X114951Y71169D01*
X114918Y71185D01*
X114888Y71200D01*
X114877Y71208D01*
X114867Y71214D01*
X114857Y71220D01*
X114851Y71224D01*
X114849Y71228D01*
X114847D01*
X114810Y71261D01*
X114779Y71296D01*
X114756Y71331D01*
X114736Y71364D01*
X114724Y71393D01*
X114715Y71417D01*
X114713Y71425D01*
X114711Y71431D01*
X114709Y71434D01*
Y71436D01*
X114662Y71620D01*
X114656Y71651D01*
X114654Y71680D01*
Y71708D01*
X114658Y71731D01*
X114662Y71750D01*
X114666Y71766D01*
X114668Y71776D01*
X114670Y71780D01*
X114680Y71805D01*
X114691Y71827D01*
X114703Y71844D01*
X114713Y71856D01*
X114721Y71866D01*
X114728Y71871D01*
X114732Y71875D01*
X114734D01*
X114703Y71901D01*
X114689Y71914D01*
X114678Y71928D01*
X114666Y71940D01*
X114658Y71949D01*
X114654Y71955D01*
X114652Y71957D01*
X114637Y71979D01*
X114625Y71998D01*
X114621Y72006D01*
X114619Y72012D01*
X114617Y72014D01*
Y72016D01*
X114607Y72033D01*
X114602Y72055D01*
X114592Y72086D01*
X114568Y72180D01*
X114563Y72207D01*
X114561Y72232D01*
X114559Y72240D01*
Y72248D01*
Y72252D01*
Y72254D01*
X114561Y72283D01*
X114566Y72308D01*
X114572Y72332D01*
X114580Y72351D01*
X114590Y72367D01*
X114596Y72381D01*
X114602Y72388D01*
X114604Y72390D01*
X114617Y72406D01*
X114631Y72422D01*
X114664Y72443D01*
X114697Y72461D01*
X114728Y72470D01*
X114758Y72478D01*
X114781Y72480D01*
X114791Y72482D01*
X114988D01*
X115001Y72480D01*
D02*
G37*
G36*
X114186D02*
X114198Y72478D01*
X114215Y72470D01*
X114227Y72461D01*
X114229Y72459D01*
X114231Y72457D01*
X114245Y72441D01*
X114252Y72429D01*
X114254Y72422D01*
X114256Y72420D01*
X114258Y72402D01*
X114256Y72386D01*
X114252Y72377D01*
X114250Y72375D01*
Y72373D01*
X114243Y72365D01*
X114233Y72359D01*
X114215Y72353D01*
X114208Y72351D01*
X114202Y72349D01*
X114011D01*
X113987Y72347D01*
X113968Y72342D01*
X113950Y72334D01*
X113936Y72326D01*
X113925Y72318D01*
X113917Y72310D01*
X113913Y72304D01*
X113911Y72303D01*
X113901Y72285D01*
X113895Y72265D01*
X113892Y72246D01*
Y72228D01*
Y72211D01*
X113893Y72199D01*
X113895Y72191D01*
Y72187D01*
X113919Y72094D01*
X113927Y72068D01*
X113938Y72045D01*
X113952Y72024D01*
X113964Y72006D01*
X113977Y71992D01*
X113987Y71983D01*
X113995Y71975D01*
X113997Y71973D01*
X114020Y71957D01*
X114042Y71946D01*
X114063Y71936D01*
X114085Y71930D01*
X114100Y71926D01*
X114114Y71924D01*
X114126D01*
X114139Y71922D01*
X114151Y71920D01*
X114169Y71912D01*
X114180Y71903D01*
X114182Y71901D01*
X114184Y71899D01*
X114198Y71883D01*
X114206Y71871D01*
X114208Y71864D01*
X114209Y71862D01*
X114211Y71844D01*
X114209Y71828D01*
X114206Y71819D01*
X114204Y71817D01*
Y71815D01*
X114196Y71807D01*
X114186Y71801D01*
X114169Y71795D01*
X114161Y71793D01*
X114155Y71791D01*
X114102D01*
X114079Y71789D01*
X114059Y71784D01*
X114044Y71776D01*
X114030Y71768D01*
X114018Y71760D01*
X114011Y71752D01*
X114007Y71747D01*
X114005Y71745D01*
X113995Y71727D01*
X113987Y71708D01*
X113985Y71688D01*
X113983Y71670D01*
Y71653D01*
X113985Y71641D01*
X113987Y71633D01*
Y71630D01*
X114034Y71444D01*
X114044Y71419D01*
X114055Y71395D01*
X114067Y71374D01*
X114081Y71356D01*
X114094Y71343D01*
X114104Y71333D01*
X114112Y71325D01*
X114114Y71323D01*
X114137Y71308D01*
X114159Y71296D01*
X114180Y71286D01*
X114202Y71280D01*
X114217Y71276D01*
X114231Y71274D01*
X114475D01*
X114488Y71273D01*
X114500Y71271D01*
X114518Y71263D01*
X114529Y71253D01*
X114531Y71251D01*
X114533Y71249D01*
X114545Y71234D01*
X114553Y71222D01*
X114555Y71212D01*
X114557Y71210D01*
X114559Y71198D01*
Y71196D01*
Y71195D01*
X114557Y71183D01*
X114555Y71173D01*
X114553Y71165D01*
Y71163D01*
X114545Y71155D01*
X114535Y71152D01*
X114518Y71144D01*
X114510D01*
X114504Y71142D01*
X114266D01*
X114243Y71144D01*
X114219Y71146D01*
X114176Y71155D01*
X114135Y71169D01*
X114102Y71185D01*
X114073Y71200D01*
X114061Y71208D01*
X114051Y71214D01*
X114042Y71220D01*
X114036Y71224D01*
X114034Y71228D01*
X114032D01*
X113995Y71261D01*
X113964Y71296D01*
X113940Y71331D01*
X113921Y71364D01*
X113909Y71393D01*
X113899Y71417D01*
X113897Y71425D01*
X113895Y71431D01*
X113893Y71434D01*
Y71436D01*
X113847Y71620D01*
X113841Y71651D01*
X113839Y71680D01*
Y71708D01*
X113843Y71731D01*
X113847Y71750D01*
X113851Y71766D01*
X113853Y71776D01*
X113854Y71780D01*
X113864Y71805D01*
X113876Y71827D01*
X113888Y71844D01*
X113897Y71856D01*
X113905Y71866D01*
X113913Y71871D01*
X113917Y71875D01*
X113919D01*
X113888Y71901D01*
X113874Y71914D01*
X113862Y71928D01*
X113851Y71940D01*
X113843Y71949D01*
X113839Y71955D01*
X113837Y71957D01*
X113821Y71979D01*
X113810Y71998D01*
X113806Y72006D01*
X113804Y72012D01*
X113802Y72014D01*
Y72016D01*
X113792Y72033D01*
X113786Y72055D01*
X113776Y72086D01*
X113753Y72180D01*
X113747Y72207D01*
X113745Y72232D01*
X113743Y72240D01*
Y72248D01*
Y72252D01*
Y72254D01*
X113745Y72283D01*
X113751Y72308D01*
X113757Y72332D01*
X113765Y72351D01*
X113774Y72367D01*
X113780Y72381D01*
X113786Y72388D01*
X113788Y72390D01*
X113802Y72406D01*
X113815Y72422D01*
X113849Y72443D01*
X113882Y72461D01*
X113913Y72470D01*
X113942Y72478D01*
X113966Y72480D01*
X113975Y72482D01*
X114172D01*
X114186Y72480D01*
D02*
G37*
G36*
X112824Y72480D02*
X112842Y72472D01*
X112856Y72462D01*
X112867Y72451D01*
X112875Y72439D01*
X112879Y72429D01*
X112883Y72422D01*
Y72420D01*
X113021Y71860D01*
X113023Y71848D01*
X113025Y71836D01*
X113020Y71819D01*
X113012Y71807D01*
X113000Y71799D01*
X112986Y71793D01*
X112975Y71791D01*
X112967Y71789D01*
X112731D01*
X112707Y71788D01*
X112688Y71782D01*
X112672Y71774D01*
X112659Y71766D01*
X112647Y71758D01*
X112639Y71750D01*
X112635Y71745D01*
X112633Y71743D01*
X112622Y71725D01*
X112616Y71706D01*
X112612Y71688D01*
Y71669D01*
Y71653D01*
X112614Y71641D01*
X112616Y71633D01*
Y71630D01*
X112661Y71444D01*
X112670Y71419D01*
X112682Y71395D01*
X112694Y71374D01*
X112707Y71356D01*
X112721Y71343D01*
X112731Y71333D01*
X112739Y71325D01*
X112741Y71323D01*
X112764Y71308D01*
X112785Y71296D01*
X112807Y71286D01*
X112828Y71280D01*
X112844Y71276D01*
X112858Y71274D01*
X113101D01*
X113115Y71273D01*
X113127Y71271D01*
X113144Y71263D01*
X113156Y71253D01*
X113158Y71251D01*
X113160Y71249D01*
X113174Y71234D01*
X113181Y71222D01*
X113183Y71214D01*
X113185Y71212D01*
X113187Y71200D01*
Y71196D01*
Y71195D01*
X113185Y71183D01*
X113183Y71173D01*
X113181Y71165D01*
X113180Y71163D01*
X113172Y71155D01*
X113162Y71152D01*
X113144Y71144D01*
X113137D01*
X113131Y71142D01*
X112893D01*
X112869Y71144D01*
X112846Y71146D01*
X112803Y71155D01*
X112764Y71169D01*
X112729Y71185D01*
X112700Y71200D01*
X112688Y71208D01*
X112678Y71214D01*
X112670Y71220D01*
X112663Y71224D01*
X112661Y71228D01*
X112659D01*
X112622Y71263D01*
X112590Y71298D01*
X112567Y71333D01*
X112547Y71364D01*
X112536Y71393D01*
X112526Y71417D01*
X112524Y71425D01*
X112522Y71431D01*
X112520Y71434D01*
Y71436D01*
X112473Y71622D01*
X112469Y71643D01*
X112467Y71665D01*
Y71706D01*
X112473Y71741D01*
X112481Y71772D01*
X112493Y71797D01*
X112503Y71817D01*
X112508Y71828D01*
X112512Y71830D01*
Y71832D01*
X112526Y71848D01*
X112540Y71864D01*
X112571Y71885D01*
X112604Y71903D01*
X112635Y71912D01*
X112663Y71920D01*
X112686Y71922D01*
X112696Y71924D01*
X112863D01*
X112756Y72349D01*
X112358D01*
X112335Y72353D01*
X112319Y72359D01*
X112308Y72365D01*
X112304Y72369D01*
X112290Y72384D01*
X112282Y72398D01*
X112278Y72408D01*
X112276Y72412D01*
X112274Y72422D01*
Y72423D01*
Y72425D01*
X112276Y72437D01*
X112280Y72447D01*
X112284Y72455D01*
X112286Y72457D01*
X112294Y72464D01*
X112302Y72472D01*
X112317Y72478D01*
X112329Y72482D01*
X112801D01*
X112824Y72480D01*
D02*
G37*
G36*
X111818Y72478D02*
X111861Y72468D01*
X111902Y72453D01*
X111937Y72437D01*
X111966Y72422D01*
X111978Y72414D01*
X111988Y72406D01*
X111995Y72400D01*
X112001Y72396D01*
X112005Y72394D01*
X112007Y72392D01*
X112044Y72359D01*
X112073Y72324D01*
X112097Y72289D01*
X112116Y72258D01*
X112128Y72228D01*
X112138Y72207D01*
X112140Y72199D01*
X112142Y72193D01*
X112144Y72189D01*
Y72187D01*
X112329Y71442D01*
X112335Y71415D01*
X112337Y71392D01*
X112339Y71384D01*
Y71376D01*
Y71372D01*
Y71370D01*
X112337Y71341D01*
X112331Y71315D01*
X112323Y71292D01*
X112313Y71271D01*
X112306Y71253D01*
X112298Y71241D01*
X112292Y71232D01*
X112290Y71230D01*
X112276Y71214D01*
X112261Y71200D01*
X112228Y71179D01*
X112196Y71163D01*
X112165Y71154D01*
X112138Y71146D01*
X112116Y71144D01*
X112109Y71142D01*
X112003D01*
X111980Y71144D01*
X111956Y71146D01*
X111913Y71155D01*
X111873Y71169D01*
X111839Y71185D01*
X111810Y71200D01*
X111798Y71208D01*
X111789Y71214D01*
X111779Y71220D01*
X111773Y71224D01*
X111771Y71228D01*
X111769D01*
X111732Y71263D01*
X111701Y71298D01*
X111677Y71333D01*
X111658Y71364D01*
X111644Y71393D01*
X111635Y71417D01*
X111633Y71425D01*
X111631Y71431D01*
X111629Y71434D01*
Y71436D01*
X111443Y72178D01*
X111438Y72207D01*
X111436Y72230D01*
X111434Y72240D01*
Y72246D01*
Y72250D01*
Y72252D01*
X111436Y72281D01*
X111441Y72306D01*
X111449Y72332D01*
X111457Y72351D01*
X111465Y72367D01*
X111473Y72381D01*
X111478Y72388D01*
X111480Y72390D01*
X111494Y72406D01*
X111508Y72422D01*
X111541Y72443D01*
X111572Y72461D01*
X111605Y72470D01*
X111633Y72478D01*
X111656Y72480D01*
X111666Y72482D01*
X111795D01*
X111818Y72478D01*
D02*
G37*
G36*
X110792D02*
X110833Y72462D01*
X110872Y72445D01*
X110909Y72425D01*
X110944Y72406D01*
X110977Y72384D01*
X111008Y72363D01*
X111038Y72342D01*
X111065Y72320D01*
X111088Y72301D01*
X111110Y72281D01*
X111127Y72265D01*
X111143Y72250D01*
X111155Y72238D01*
X111162Y72228D01*
X111168Y72223D01*
X111170Y72221D01*
X111196Y72189D01*
X111219Y72158D01*
X111240Y72125D01*
X111260Y72094D01*
X111293Y72033D01*
X111319Y71977D01*
X111330Y71951D01*
X111338Y71928D01*
X111346Y71907D01*
X111352Y71889D01*
X111356Y71875D01*
X111359Y71866D01*
X111361Y71858D01*
Y71856D01*
X111465Y71442D01*
X111471Y71415D01*
X111475Y71392D01*
X111477Y71384D01*
Y71376D01*
Y71372D01*
Y71370D01*
X111475Y71341D01*
X111469Y71315D01*
X111461Y71292D01*
X111451Y71271D01*
X111441Y71253D01*
X111434Y71241D01*
X111428Y71232D01*
X111426Y71230D01*
X111412Y71214D01*
X111397Y71200D01*
X111363Y71179D01*
X111332Y71163D01*
X111301Y71154D01*
X111274Y71146D01*
X111252Y71144D01*
X111244Y71142D01*
X111139D01*
X111116Y71144D01*
X111092Y71146D01*
X111049Y71155D01*
X111008Y71169D01*
X110975Y71185D01*
X110946Y71200D01*
X110934Y71208D01*
X110924Y71214D01*
X110915Y71220D01*
X110909Y71224D01*
X110907Y71228D01*
X110905D01*
X110868Y71261D01*
X110839Y71296D01*
X110813Y71331D01*
X110796Y71364D01*
X110782Y71393D01*
X110772Y71417D01*
X110770Y71425D01*
X110768Y71431D01*
X110766Y71434D01*
Y71436D01*
X110720Y71622D01*
X110714Y71649D01*
X110712Y71674D01*
X110710Y71682D01*
Y71690D01*
Y71694D01*
Y71696D01*
X110712Y71725D01*
X110718Y71750D01*
X110724Y71774D01*
X110731Y71795D01*
X110741Y71811D01*
X110747Y71825D01*
X110753Y71832D01*
X110755Y71834D01*
X110768Y71850D01*
X110782Y71864D01*
X110815Y71887D01*
X110848Y71903D01*
X110880Y71912D01*
X110909Y71920D01*
X110932Y71922D01*
X110942Y71924D01*
X111200D01*
X111196Y71938D01*
X111188Y71953D01*
X111172Y71986D01*
X111164Y72002D01*
X111157Y72014D01*
X111153Y72022D01*
X111151Y72025D01*
X111135Y72051D01*
X111120Y72072D01*
X111106Y72094D01*
X111092Y72111D01*
X111081Y72127D01*
X111071Y72137D01*
X111065Y72145D01*
X111063Y72146D01*
X111036Y72176D01*
X111010Y72199D01*
X110987Y72221D01*
X110967Y72238D01*
X110950Y72254D01*
X110936Y72263D01*
X110928Y72269D01*
X110924Y72271D01*
X110895Y72289D01*
X110870Y72304D01*
X110860Y72310D01*
X110852Y72314D01*
X110848Y72318D01*
X110846D01*
X110804Y72338D01*
X110782Y72347D01*
X110763Y72353D01*
X110745Y72363D01*
X110733Y72371D01*
X110727Y72377D01*
X110726Y72379D01*
X110718Y72388D01*
X110712Y72400D01*
X110710Y72408D01*
X110708Y72410D01*
X110706Y72422D01*
Y72425D01*
Y72427D01*
X110708Y72439D01*
X110710Y72449D01*
X110712Y72455D01*
X110714Y72457D01*
X110722Y72466D01*
X110729Y72472D01*
X110747Y72480D01*
X110755Y72482D01*
X110761Y72484D01*
X110766D01*
X110792Y72478D01*
D02*
G37*
G36*
X110626Y71273D02*
X110638Y71271D01*
X110655Y71263D01*
X110667Y71253D01*
X110669Y71251D01*
X110671Y71249D01*
X110685Y71234D01*
X110692Y71222D01*
X110694Y71214D01*
X110696Y71212D01*
X110698Y71200D01*
Y71196D01*
Y71195D01*
X110696Y71183D01*
X110694Y71173D01*
X110692Y71165D01*
X110690Y71163D01*
X110683Y71155D01*
X110673Y71152D01*
X110655Y71144D01*
X110647D01*
X110642Y71142D01*
X110636D01*
X110612Y71146D01*
X110597Y71152D01*
X110585Y71157D01*
X110581Y71161D01*
X110567Y71177D01*
X110560Y71189D01*
X110556Y71198D01*
X110554Y71202D01*
X110552Y71212D01*
Y71216D01*
X110554Y71228D01*
X110558Y71239D01*
X110562Y71247D01*
X110564Y71249D01*
X110571Y71257D01*
X110579Y71265D01*
X110595Y71271D01*
X110607Y71274D01*
X110612D01*
X110626Y71273D01*
D02*
G37*
G36*
X109818Y72478D02*
X109861Y72468D01*
X109902Y72453D01*
X109937Y72437D01*
X109967Y72422D01*
X109978Y72414D01*
X109988Y72406D01*
X109996Y72400D01*
X110002Y72396D01*
X110006Y72394D01*
X110008Y72392D01*
X110045Y72359D01*
X110074Y72324D01*
X110097Y72289D01*
X110117Y72258D01*
X110129Y72228D01*
X110138Y72207D01*
X110140Y72199D01*
X110142Y72193D01*
X110144Y72189D01*
Y72187D01*
X110330Y71442D01*
X110335Y71415D01*
X110337Y71392D01*
X110339Y71384D01*
Y71376D01*
Y71372D01*
Y71370D01*
X110337Y71341D01*
X110331Y71315D01*
X110324Y71292D01*
X110314Y71271D01*
X110306Y71253D01*
X110298Y71241D01*
X110292Y71232D01*
X110290Y71230D01*
X110277Y71214D01*
X110261Y71200D01*
X110228Y71179D01*
X110197Y71163D01*
X110166Y71154D01*
X110138Y71146D01*
X110117Y71144D01*
X110109Y71142D01*
X110004D01*
X109980Y71144D01*
X109957Y71146D01*
X109914Y71155D01*
X109873Y71169D01*
X109840Y71185D01*
X109811Y71200D01*
X109799Y71208D01*
X109789Y71214D01*
X109779Y71220D01*
X109774Y71224D01*
X109772Y71228D01*
X109770D01*
X109733Y71263D01*
X109701Y71298D01*
X109678Y71333D01*
X109658Y71364D01*
X109645Y71393D01*
X109635Y71417D01*
X109633Y71425D01*
X109631Y71431D01*
X109629Y71434D01*
Y71436D01*
X109444Y72178D01*
X109438Y72207D01*
X109436Y72230D01*
X109434Y72240D01*
Y72246D01*
Y72250D01*
Y72252D01*
X109436Y72281D01*
X109442Y72306D01*
X109450Y72332D01*
X109458Y72351D01*
X109465Y72367D01*
X109473Y72381D01*
X109479Y72388D01*
X109481Y72390D01*
X109495Y72406D01*
X109508Y72422D01*
X109541Y72443D01*
X109573Y72461D01*
X109606Y72470D01*
X109633Y72478D01*
X109657Y72480D01*
X109666Y72482D01*
X109795D01*
X109818Y72478D01*
D02*
G37*
G36*
X108192D02*
X108232Y72462D01*
X108271Y72445D01*
X108309Y72425D01*
X108344Y72406D01*
X108377Y72384D01*
X108408Y72363D01*
X108437Y72342D01*
X108465Y72320D01*
X108488Y72301D01*
X108509Y72281D01*
X108527Y72265D01*
X108543Y72250D01*
X108554Y72238D01*
X108562Y72228D01*
X108568Y72223D01*
X108570Y72221D01*
X108595Y72189D01*
X108619Y72158D01*
X108640Y72125D01*
X108660Y72094D01*
X108693Y72033D01*
X108718Y71977D01*
X108730Y71951D01*
X108738Y71928D01*
X108746Y71907D01*
X108751Y71889D01*
X108755Y71875D01*
X108759Y71866D01*
X108761Y71858D01*
Y71856D01*
X108865Y71442D01*
X108870Y71415D01*
X108874Y71392D01*
X108876Y71384D01*
Y71376D01*
Y71372D01*
Y71370D01*
X108874Y71341D01*
X108868Y71315D01*
X108861Y71292D01*
X108851Y71271D01*
X108841Y71253D01*
X108833Y71241D01*
X108827Y71232D01*
X108826Y71230D01*
X108812Y71214D01*
X108796Y71200D01*
X108763Y71179D01*
X108732Y71163D01*
X108701Y71154D01*
X108673Y71146D01*
X108652Y71144D01*
X108644Y71142D01*
X108539D01*
X108515Y71144D01*
X108492Y71146D01*
X108449Y71155D01*
X108408Y71169D01*
X108375Y71185D01*
X108346Y71200D01*
X108334Y71208D01*
X108324Y71214D01*
X108314Y71220D01*
X108309Y71224D01*
X108307Y71228D01*
X108305D01*
X108268Y71261D01*
X108238Y71296D01*
X108213Y71331D01*
X108195Y71364D01*
X108182Y71393D01*
X108172Y71417D01*
X108170Y71425D01*
X108168Y71431D01*
X108166Y71434D01*
Y71436D01*
X108119Y71622D01*
X108113Y71649D01*
X108112Y71674D01*
X108110Y71682D01*
Y71690D01*
Y71694D01*
Y71696D01*
X108112Y71725D01*
X108117Y71750D01*
X108123Y71774D01*
X108131Y71795D01*
X108141Y71811D01*
X108147Y71825D01*
X108152Y71832D01*
X108154Y71834D01*
X108168Y71850D01*
X108182Y71864D01*
X108215Y71887D01*
X108248Y71903D01*
X108279Y71912D01*
X108309Y71920D01*
X108332Y71922D01*
X108342Y71924D01*
X108599D01*
X108595Y71938D01*
X108588Y71953D01*
X108572Y71986D01*
X108564Y72002D01*
X108556Y72014D01*
X108552Y72022D01*
X108550Y72025D01*
X108535Y72051D01*
X108519Y72072D01*
X108506Y72094D01*
X108492Y72111D01*
X108480Y72127D01*
X108470Y72137D01*
X108465Y72145D01*
X108463Y72146D01*
X108435Y72176D01*
X108410Y72199D01*
X108387Y72221D01*
X108367Y72238D01*
X108350Y72254D01*
X108336Y72263D01*
X108328Y72269D01*
X108324Y72271D01*
X108295Y72289D01*
X108270Y72304D01*
X108260Y72310D01*
X108252Y72314D01*
X108248Y72318D01*
X108246D01*
X108203Y72338D01*
X108182Y72347D01*
X108162Y72353D01*
X108145Y72363D01*
X108133Y72371D01*
X108127Y72377D01*
X108125Y72379D01*
X108117Y72388D01*
X108112Y72400D01*
X108110Y72408D01*
X108108Y72410D01*
X108106Y72422D01*
Y72425D01*
Y72427D01*
X108108Y72439D01*
X108110Y72449D01*
X108112Y72455D01*
X108113Y72457D01*
X108121Y72466D01*
X108129Y72472D01*
X108147Y72480D01*
X108154Y72482D01*
X108160Y72484D01*
X108166D01*
X108192Y72478D01*
D02*
G37*
%LPC*%
G36*
X118355Y85537D02*
X118249D01*
X118228Y85535D01*
X118208Y85530D01*
X118191Y85522D01*
X118177Y85514D01*
X118166Y85506D01*
X118158Y85498D01*
X118154Y85493D01*
X118152Y85491D01*
X118140Y85473D01*
X118134Y85454D01*
X118130Y85434D01*
Y85416D01*
Y85399D01*
X118132Y85387D01*
X118134Y85379D01*
Y85376D01*
X118320Y84630D01*
X118329Y84605D01*
X118341Y84582D01*
X118355Y84560D01*
X118368Y84543D01*
X118380Y84529D01*
X118392Y84519D01*
X118400Y84511D01*
X118402Y84509D01*
X118425Y84494D01*
X118448Y84482D01*
X118470Y84474D01*
X118487Y84468D01*
X118505Y84465D01*
X118517Y84463D01*
X118622D01*
X118643Y84465D01*
X118661Y84470D01*
X118679Y84478D01*
X118692Y84486D01*
X118702Y84494D01*
X118712Y84502D01*
X118716Y84507D01*
X118718Y84509D01*
X118729Y84527D01*
X118737Y84546D01*
X118739Y84566D01*
X118741Y84585D01*
Y84601D01*
X118739Y84613D01*
X118737Y84621D01*
Y84624D01*
X118552Y85368D01*
X118544Y85393D01*
X118532Y85416D01*
X118519Y85436D01*
X118505Y85454D01*
X118493Y85467D01*
X118482Y85479D01*
X118474Y85485D01*
X118472Y85487D01*
X118448Y85504D01*
X118425Y85516D01*
X118404Y85526D01*
X118384Y85532D01*
X118366Y85535D01*
X118355Y85537D01*
D02*
G37*
G36*
X118880Y71789D02*
X118622D01*
X118601Y71788D01*
X118583Y71782D01*
X118567Y71774D01*
X118554Y71766D01*
X118542Y71756D01*
X118534Y71749D01*
X118530Y71743D01*
X118528Y71741D01*
X118517Y71723D01*
X118509Y71704D01*
X118505Y71684D01*
X118503Y71669D01*
Y71653D01*
X118505Y71641D01*
X118507Y71631D01*
Y71630D01*
X118554Y71442D01*
X118562Y71417D01*
X118573Y71393D01*
X118587Y71372D01*
X118601Y71354D01*
X118612Y71341D01*
X118624Y71331D01*
X118632Y71323D01*
X118634Y71321D01*
X118657Y71306D01*
X118681Y71294D01*
X118702Y71286D01*
X118722Y71280D01*
X118739Y71276D01*
X118751Y71274D01*
X119010D01*
X118880Y71789D01*
D02*
G37*
G36*
X111806Y72349D02*
X111701D01*
X111679Y72347D01*
X111660Y72342D01*
X111642Y72334D01*
X111629Y72326D01*
X111617Y72318D01*
X111609Y72310D01*
X111605Y72304D01*
X111603Y72303D01*
X111592Y72285D01*
X111586Y72265D01*
X111582Y72246D01*
X111580Y72228D01*
Y72211D01*
X111582Y72199D01*
X111584Y72191D01*
Y72187D01*
X111771Y71442D01*
X111781Y71417D01*
X111793Y71393D01*
X111806Y71372D01*
X111820Y71354D01*
X111832Y71341D01*
X111843Y71331D01*
X111851Y71323D01*
X111853Y71321D01*
X111876Y71306D01*
X111900Y71294D01*
X111921Y71286D01*
X111939Y71280D01*
X111956Y71276D01*
X111968Y71274D01*
X112073D01*
X112095Y71276D01*
X112112Y71282D01*
X112130Y71290D01*
X112144Y71298D01*
X112153Y71306D01*
X112163Y71313D01*
X112167Y71319D01*
X112169Y71321D01*
X112181Y71339D01*
X112187Y71358D01*
X112190Y71378D01*
X112192Y71397D01*
Y71413D01*
X112190Y71425D01*
X112189Y71432D01*
Y71436D01*
X112001Y72180D01*
X111993Y72205D01*
X111982Y72228D01*
X111968Y72248D01*
X111956Y72265D01*
X111943Y72279D01*
X111933Y72291D01*
X111925Y72297D01*
X111923Y72299D01*
X111900Y72316D01*
X111876Y72328D01*
X111855Y72338D01*
X111835Y72343D01*
X111818Y72347D01*
X111806Y72349D01*
D02*
G37*
G36*
X111235Y71791D02*
X110977D01*
X110954Y71789D01*
X110934Y71784D01*
X110917Y71776D01*
X110903Y71768D01*
X110891Y71760D01*
X110884Y71752D01*
X110880Y71747D01*
X110878Y71745D01*
X110868Y71727D01*
X110862Y71708D01*
X110858Y71688D01*
Y71670D01*
Y71653D01*
X110860Y71641D01*
X110862Y71633D01*
Y71630D01*
X110907Y71444D01*
X110917Y71419D01*
X110928Y71395D01*
X110940Y71374D01*
X110954Y71356D01*
X110967Y71343D01*
X110977Y71333D01*
X110985Y71325D01*
X110987Y71323D01*
X111010Y71308D01*
X111032Y71296D01*
X111053Y71286D01*
X111075Y71280D01*
X111090Y71276D01*
X111104Y71274D01*
X111209D01*
X111231Y71276D01*
X111248Y71282D01*
X111266Y71290D01*
X111280Y71298D01*
X111289Y71306D01*
X111299Y71313D01*
X111303Y71319D01*
X111305Y71321D01*
X111317Y71339D01*
X111322Y71358D01*
X111326Y71378D01*
X111328Y71397D01*
Y71413D01*
X111326Y71425D01*
X111324Y71432D01*
Y71436D01*
X111235Y71791D01*
D02*
G37*
G36*
X109807Y72349D02*
X109701D01*
X109680Y72347D01*
X109660Y72342D01*
X109643Y72334D01*
X109629Y72326D01*
X109617Y72318D01*
X109610Y72310D01*
X109606Y72304D01*
X109604Y72303D01*
X109592Y72285D01*
X109586Y72265D01*
X109582Y72246D01*
X109580Y72228D01*
Y72211D01*
X109582Y72199D01*
X109584Y72191D01*
Y72187D01*
X109772Y71442D01*
X109781Y71417D01*
X109793Y71393D01*
X109807Y71372D01*
X109820Y71354D01*
X109832Y71341D01*
X109844Y71331D01*
X109852Y71323D01*
X109854Y71321D01*
X109877Y71306D01*
X109900Y71294D01*
X109922Y71286D01*
X109939Y71280D01*
X109957Y71276D01*
X109969Y71274D01*
X110074D01*
X110095Y71276D01*
X110113Y71282D01*
X110131Y71290D01*
X110144Y71298D01*
X110154Y71306D01*
X110164Y71313D01*
X110168Y71319D01*
X110170Y71321D01*
X110181Y71339D01*
X110187Y71358D01*
X110191Y71378D01*
X110193Y71397D01*
Y71413D01*
X110191Y71425D01*
X110189Y71432D01*
Y71436D01*
X110002Y72180D01*
X109994Y72205D01*
X109982Y72228D01*
X109969Y72248D01*
X109957Y72265D01*
X109943Y72279D01*
X109934Y72291D01*
X109926Y72297D01*
X109924Y72299D01*
X109900Y72316D01*
X109877Y72328D01*
X109855Y72338D01*
X109836Y72343D01*
X109818Y72347D01*
X109807Y72349D01*
D02*
G37*
G36*
X108634Y71791D02*
X108377D01*
X108353Y71789D01*
X108334Y71784D01*
X108316Y71776D01*
X108303Y71768D01*
X108291Y71760D01*
X108283Y71752D01*
X108279Y71747D01*
X108277Y71745D01*
X108268Y71727D01*
X108262Y71708D01*
X108258Y71688D01*
Y71670D01*
Y71653D01*
X108260Y71641D01*
X108262Y71633D01*
Y71630D01*
X108307Y71444D01*
X108316Y71419D01*
X108328Y71395D01*
X108340Y71374D01*
X108353Y71356D01*
X108367Y71343D01*
X108377Y71333D01*
X108385Y71325D01*
X108387Y71323D01*
X108410Y71308D01*
X108431Y71296D01*
X108453Y71286D01*
X108474Y71280D01*
X108490Y71276D01*
X108504Y71274D01*
X108609D01*
X108630Y71276D01*
X108648Y71282D01*
X108666Y71290D01*
X108679Y71298D01*
X108689Y71306D01*
X108699Y71313D01*
X108703Y71319D01*
X108705Y71321D01*
X108716Y71339D01*
X108722Y71358D01*
X108726Y71378D01*
X108728Y71397D01*
Y71413D01*
X108726Y71425D01*
X108724Y71432D01*
Y71436D01*
X108634Y71791D01*
D02*
G37*
%LPD*%
M02*
