M48
;Layer_Color=9474304
;FILE_FORMAT=4:3
METRIC,LZ
;TYPE=PLATED
T1F00S00C0.300
T2F00S00C1.400
%
T01
X012Y0072
X0121Y0074
X012Y0076
X0121Y0078
X0119
X0117
X0115
X0113
X0111
X0109
X0107
X0105
X0103
X0101
X0099
X0097
X0095
X0093
X0091
X0089
X0087
X0085
X0086Y0076
X0088
X009
X0092
X0094
X0096
X0098
X01
X0102
X0104
X0106
X0108
X011
X0112
X0114
X0116
X0118
X0119Y0074
X0117
X0115
X0113
X0111
X0109
X0107
X0105
X0103
X0101
X0099
X0097
X0095
X0093
X0091
X0089
X0087
X0085
X0086Y0072
X0088
X009
X0092
X0094
X0096
X0098
X01
X0102
X0104
X0106
X0108
X011
X0112
X0114
X0116
X0118
X0084
X0082
X008
Y0076
X0084
X0078
X0076
X0074
X0072
X007
X0068
X0066
X0064
X0062
X006
X0058
X0056
X0054
X0052
X0053Y0074
X0055
X0057
X0059
X0061
X0062Y0072
X0064
X0066
X0068
X007
X0072
X0074
X0076
X0078
X0079Y0074
X0077
X0075
Y0078
X0077
X0079
X0071Y0074
X0069
X0067
X0065
X006Y0072
X0058
X0056
X0054
X0052
X0057Y0078
X0059
X0061
X0059Y00805
Y0082
Y00835
Y0085
X0057Y0082
X0055
X0053
X0052Y0084
Y008
X0065Y00805
Y0082
X0067
Y00835
Y0085
X0068
X0069
Y0086
X0068
X0067
X00675Y00875
X00685
X0069Y009
X0067
X0068Y0092
X0069Y0094
X0071
X0073
X0075
X0077
X0079
X0078Y0096
X0076
X0074
X0072
X007
X0068
X0067Y0094
X0065
X00658Y0093
X0063Y0094
X0064Y0096
X0062
X00657Y00974
X0057Y0094
X0069Y00835
Y0082
Y00805
X0067
X0071
X00735Y00815
X0075Y00805
X00765
Y0082
Y00835
Y0085
X00755Y0086
X0074
X00725
X0079Y0082
X0078Y008
X0079Y009
X0081
X0083
X0084Y0092
X0082
X008
X0081Y0094
X0083
X0085
X0087
X0089
X0091
X0093
X0095
X0097
X0098Y0096
X0096
X0094
X0092
X009
X0088
X0086
X0084
X0082
X008
X009Y0092
X0092
X0094
X0096
X00962Y00905
Y00895
Y00885
X00952
Y00895
Y00875
X00962
Y00865
X0097Y0086
X00972Y00875
Y00885
Y00895
X0098Y0092
X0104
X0103Y0094
X0104Y0096
X0108Y0092
Y0088
Y0084
X011
X0111Y0082
X0113
X0115
X0117
X0119
X0118Y008
X0116
X0114
X0112
X011
X0108
X0106
X0104
X0102
X01
X0098
X0096
X0094
X0092
X009
X0088
X0086
X0084
X0082
X008
X0085Y0082
X0087
X0089
X0091
X0093
X0095
X0097
X0099
X0101
X0103
X0105
X0107
X0109
X0106Y0084
X0104
X0102
X0101Y0086
X0100659Y00868
X01007Y00876
X00996Y00849
X0096Y0084
X0095Y0086
X00919Y00851
Y0088
X0087Y0086
X0088Y0084
X01051Y00868
X0115Y0094
X012Y008
T02
X005375Y00914
Y00956
X005925
Y00914
X011325
Y00956
X011875
Y00914
M30
