M48
;Layer_Color=9474304
;FILE_FORMAT=4:3
METRIC,LZ
;TYPE=PLATED
T1F00S00C0.300
T2F00S00C1.000
T3F00S00C1.200
T4F00S00C2.200
%
T01
X00814Y00711
Y00718
Y00725
X00822Y00711
X00829
X00837
X00844Y00709
X00851
X00858
X00865
X00872
X00879
X00886
X00893
Y00717
Y00724
Y00731
X00864Y00716
X00838Y00719
X00834Y00774
Y00782
Y0079
X00876Y00786
X00918Y00789
Y00781
X00806Y00746
X00771Y00747
Y00739
X00761
Y00747
Y00756
Y00765
X00771
Y00756
X00768Y00773
Y0078
X00777
Y00773
X00757
Y0078
X00747
Y00773
X00751Y00765
Y00756
Y00747
Y00739
X00747Y00731
Y00724
X00756
Y00731
X00768
Y00724
X00777
Y00731
X00774Y00686
X00783
X00765
X00756
Y00694
Y00702
X00703Y00711
X00695
X00687
X00679
X0067
X00661
Y00719
Y00726
Y00734
Y00742
X0066Y00776
Y00785
Y00793
X00651Y00776
X00642
X00619Y00743
Y00734
Y00726
Y00718
X00625Y00711
X00633
X00643
X00652
X00703Y00719
Y00727
Y00735
X00713Y00744
X00603Y00643
X00627Y00821
X00641
X00652
X00663
Y00811
Y00802
X00834
X00843
X00851
X00859
X00867
X00876
Y00795
X00884Y00802
X00892
X00912Y00801
X00918Y00796
X00938Y0082
T02
X00589Y007575
Y007825
T03
X00996Y007525
Y007875
T04
X0101Y0064
X0054Y0086
M30
