G04*
G04 #@! TF.GenerationSoftware,Altium Limited,Altium Designer,19.1.6 (110)*
G04*
G04 Layer_Color=65535*
%FSLAX43Y43*%
%MOMM*%
G71*
G01*
G75*
%ADD10C,0.600*%
%ADD11C,0.250*%
%ADD12C,0.200*%
%ADD13C,0.100*%
%ADD14C,0.050*%
%ADD15C,0.254*%
%ADD16R,0.100X0.700*%
G36*
X96950Y85450D02*
D01*
D02*
G37*
G36*
X98525Y85550D02*
X98175Y85200D01*
X98525Y84850D01*
Y85550D01*
D02*
G37*
G36*
X94771Y88942D02*
X94769Y88952D01*
X94767Y88959D01*
X94764Y88963D01*
X94762Y88965D01*
X94753Y88972D01*
X94742Y88976D01*
X94732Y88978D01*
X94771D01*
Y88942D01*
D02*
G37*
G36*
X88553Y88942D02*
X88551Y88952D01*
X88550Y88959D01*
X88546Y88963D01*
X88544Y88965D01*
X88535Y88972D01*
X88524Y88976D01*
X88514Y88978D01*
X88553D01*
Y88942D01*
D02*
G37*
G36*
X94697Y88966D02*
X94680Y88950D01*
X93540Y87370D01*
X93536Y87363D01*
X93532Y87356D01*
X93531Y87350D01*
Y87348D01*
X93527Y87339D01*
Y87333D01*
X93529Y87326D01*
X93532Y87319D01*
X93534Y87315D01*
X93536Y87313D01*
X93545Y87306D01*
X93556Y87302D01*
X93564Y87300D01*
X93568D01*
X93581Y87304D01*
X93590Y87306D01*
X93595Y87309D01*
X93597D01*
X93605Y87315D01*
X93612Y87320D01*
X93616Y87328D01*
X93618Y87330D01*
X94643Y88748D01*
D01*
X94681Y88800D01*
X94760Y88909D01*
X94767Y88924D01*
X94769Y88929D01*
Y88931D01*
X94771Y88939D01*
Y88802D01*
Y88978D01*
X96300D01*
Y87300D01*
X84500D01*
Y87496D01*
Y87524D01*
X84502Y87515D01*
X84506Y87507D01*
X84513Y87502D01*
X84520Y87498D01*
X84533Y87494D01*
X84500D01*
X84950D01*
X84865D01*
X84885Y87496D01*
X84906Y87498D01*
X84944Y87507D01*
X84980Y87520D01*
X85013Y87537D01*
X85041Y87552D01*
X85052Y87559D01*
X85061Y87565D01*
X85068Y87570D01*
X85074Y87574D01*
X85078Y87578D01*
X85080D01*
X85100Y87594D01*
X85117Y87611D01*
X85146Y87644D01*
X85170Y87678D01*
X85189Y87707D01*
X85200Y87735D01*
X85209Y87756D01*
X85211Y87763D01*
X85213Y87768D01*
X85215Y87772D01*
Y87774D01*
X85261Y87959D01*
X85267Y87987D01*
X85268Y88015D01*
Y88039D01*
X85267Y88061D01*
X85263Y88080D01*
X85259Y88093D01*
X85257Y88102D01*
X85255Y88105D01*
X85244Y88130D01*
X85231Y88152D01*
X85218Y88168D01*
X85205Y88183D01*
X85194Y88194D01*
X85185Y88204D01*
X85178Y88207D01*
X85176Y88209D01*
X85198Y88226D01*
X85218Y88243D01*
X85235Y88259D01*
X85250Y88274D01*
X85261Y88287D01*
X85268Y88296D01*
X85274Y88304D01*
X85276Y88305D01*
X85289Y88326D01*
X85302Y88346D01*
X85311Y88367D01*
X85318Y88385D01*
X85324Y88402D01*
X85328Y88415D01*
X85331Y88422D01*
Y88426D01*
X85355Y88518D01*
X85361Y88548D01*
X85363Y88578D01*
D01*
X85361Y88629D01*
X85357Y88648D01*
X85352Y88665D01*
X85346Y88679D01*
X85339Y88692D01*
X85333Y88704D01*
X85328Y88711D01*
X85324Y88717D01*
X85322Y88718D01*
X85309Y88733D01*
X85296Y88746D01*
X85268Y88767D01*
X85239Y88781D01*
X85209Y88791D01*
X85183Y88798D01*
X85163Y88800D01*
X85155Y88802D01*
X84865D01*
X84848Y88800D01*
X84835Y88794D01*
X84824Y88785D01*
X84817Y88778D01*
X84811Y88768D01*
X84807Y88759D01*
X84806Y88754D01*
Y88752D01*
X84502Y87543D01*
X84500Y87530D01*
Y88802D01*
D01*
Y88978D01*
X87309D01*
D01*
X88511D01*
X88479Y88966D01*
X88463Y88950D01*
X87446Y87543D01*
X87412Y87494D01*
X87322Y87370D01*
X87318Y87363D01*
X87315Y87356D01*
X87313Y87350D01*
Y87348D01*
X87309Y87339D01*
Y87333D01*
X87311Y87326D01*
X87315Y87319D01*
X87316Y87315D01*
X87318Y87313D01*
X87327Y87306D01*
X87339Y87302D01*
X87346Y87300D01*
X87309D01*
D01*
X88553D01*
X87350D01*
X87363Y87304D01*
X87372Y87306D01*
X87377Y87309D01*
X87379D01*
X87387Y87315D01*
X87394Y87320D01*
X87398Y87328D01*
X87400Y87330D01*
X88318Y88599D01*
D01*
X88373Y88675D01*
X88542Y88909D01*
X88550Y88924D01*
X88551Y88929D01*
Y88931D01*
X88553Y88939D01*
Y88802D01*
X88670D01*
X88553D01*
Y88978D01*
X93527D01*
Y88978D01*
X94729D01*
X94697Y88966D01*
D02*
G37*
G36*
X85148Y88702D02*
X85172Y88696D01*
X85191Y88687D01*
X85207Y88678D01*
X85220Y88667D01*
X85230Y88659D01*
X85235Y88652D01*
X85237Y88650D01*
X85250Y88629D01*
X85257Y88607D01*
X85261Y88585D01*
X85263Y88565D01*
Y88548D01*
X85261Y88533D01*
X85259Y88524D01*
Y88520D01*
X85235Y88426D01*
X85226Y88398D01*
X85213Y88374D01*
X85198Y88352D01*
X85183Y88331D01*
X85168Y88317D01*
X85157Y88304D01*
X85150Y88296D01*
X85146Y88294D01*
X85120Y88276D01*
X85096Y88263D01*
X85072Y88254D01*
X85050Y88248D01*
X85031Y88244D01*
X85017Y88241D01*
X84774D01*
X84889Y88704D01*
X85120D01*
X85148Y88702D01*
D02*
G37*
G36*
X85054Y88143D02*
X85076Y88135D01*
X85094Y88128D01*
X85111Y88117D01*
X85124Y88107D01*
X85133Y88098D01*
X85139Y88091D01*
X85141Y88089D01*
X85154Y88067D01*
X85163Y88046D01*
X85168Y88024D01*
X85170Y88004D01*
Y87987D01*
X85168Y87974D01*
X85167Y87965D01*
Y87961D01*
X85120Y87774D01*
X85111Y87746D01*
X85098Y87720D01*
X85083Y87698D01*
X85068Y87680D01*
X85054Y87663D01*
X85043Y87652D01*
X85035Y87644D01*
X85031Y87643D01*
X85006Y87626D01*
X84980Y87613D01*
X84956Y87604D01*
X84933Y87598D01*
X84915Y87594D01*
X84900Y87591D01*
X84611D01*
X84750Y88144D01*
X85028D01*
X85054Y88143D01*
D02*
G37*
G36*
X94926Y62341D02*
X94948Y62339D01*
X94974Y62333D01*
X95005Y62324D01*
X95037Y62309D01*
X95070Y62291D01*
X95100Y62265D01*
X95103Y62261D01*
X95113Y62250D01*
X95126Y62231D01*
X95142Y62207D01*
X95159Y62174D01*
X95176Y62133D01*
X95189Y62087D01*
X95200Y62031D01*
X95009Y62005D01*
Y62007D01*
Y62011D01*
X95007Y62018D01*
X95005Y62028D01*
X95000Y62050D01*
X94989Y62076D01*
X94976Y62100D01*
X94955Y62122D01*
X94942Y62131D01*
X94929Y62139D01*
X94913Y62142D01*
X94896Y62144D01*
X94894D01*
X94885Y62142D01*
X94874Y62141D01*
X94859Y62135D01*
X94842Y62128D01*
X94826Y62115D01*
X94807Y62098D01*
X94790Y62074D01*
X94789Y62070D01*
X94787Y62067D01*
X94783Y62059D01*
X94781Y62052D01*
X94776Y62041D01*
X94772Y62028D01*
X94768Y62013D01*
X94763Y61994D01*
X94759Y61974D01*
X94753Y61950D01*
X94750Y61924D01*
X94746Y61896D01*
X94742Y61865D01*
X94739Y61830D01*
X94737Y61791D01*
X94739Y61792D01*
X94744Y61800D01*
X94752Y61809D01*
X94761Y61820D01*
X94774Y61833D01*
X94787Y61846D01*
X94802Y61859D01*
X94818Y61870D01*
X94820Y61872D01*
X94826Y61874D01*
X94837Y61880D01*
X94848Y61885D01*
X94863Y61889D01*
X94881Y61894D01*
X94900Y61896D01*
X94920Y61898D01*
X94931D01*
X94940Y61896D01*
X94952Y61894D01*
X94963Y61892D01*
X94992Y61883D01*
X95024Y61870D01*
X95042Y61861D01*
X95059Y61850D01*
X95077Y61837D01*
X95094Y61822D01*
X95113Y61805D01*
X95129Y61785D01*
X95131Y61783D01*
X95133Y61780D01*
X95139Y61774D01*
X95144Y61765D01*
X95150Y61754D01*
X95159Y61741D01*
X95166Y61724D01*
X95176Y61705D01*
X95183Y61685D01*
X95192Y61663D01*
X95200Y61639D01*
X95205Y61613D01*
X95213Y61583D01*
X95216Y61554D01*
X95218Y61520D01*
X95220Y61487D01*
Y61485D01*
Y61478D01*
Y61468D01*
X95218Y61456D01*
X95216Y61439D01*
X95214Y61418D01*
X95213Y61398D01*
X95209Y61374D01*
X95196Y61326D01*
X95179Y61274D01*
X95168Y61248D01*
X95155Y61224D01*
X95140Y61200D01*
X95124Y61178D01*
X95122Y61176D01*
X95120Y61172D01*
X95114Y61167D01*
X95107Y61161D01*
X95098Y61152D01*
X95087Y61143D01*
X95059Y61122D01*
X95026Y61102D01*
X94985Y61083D01*
X94963Y61078D01*
X94939Y61072D01*
X94914Y61069D01*
X94889Y61067D01*
X94881D01*
X94874Y61069D01*
X94863D01*
X94850Y61070D01*
X94835Y61074D01*
X94800Y61085D01*
X94779Y61093D01*
X94759Y61102D01*
X94737Y61113D01*
X94716Y61128D01*
X94694Y61144D01*
X94674Y61163D01*
X94653Y61185D01*
X94633Y61211D01*
X94631Y61213D01*
X94629Y61218D01*
X94624Y61228D01*
X94618Y61239D01*
X94611Y61256D01*
X94602Y61276D01*
X94592Y61298D01*
X94583Y61326D01*
X94574Y61357D01*
X94565Y61394D01*
X94557Y61433D01*
X94548Y61478D01*
X94542Y61526D01*
X94537Y61578D01*
X94535Y61635D01*
X94533Y61696D01*
Y61698D01*
Y61700D01*
Y61711D01*
Y61730D01*
X94535Y61752D01*
X94537Y61781D01*
X94539Y61813D01*
X94542Y61848D01*
X94546Y61887D01*
X94559Y61968D01*
X94577Y62050D01*
X94589Y62089D01*
X94603Y62126D01*
X94618Y62161D01*
X94637Y62191D01*
X94639Y62192D01*
X94642Y62198D01*
X94648Y62205D01*
X94655Y62215D01*
X94666Y62226D01*
X94679Y62239D01*
X94694Y62252D01*
X94711Y62267D01*
X94729Y62281D01*
X94750Y62294D01*
X94796Y62318D01*
X94822Y62328D01*
X94848Y62337D01*
X94877Y62341D01*
X94907Y62342D01*
X94918D01*
X94926Y62341D01*
D02*
G37*
G36*
X84836Y62357D02*
X84851Y62355D01*
X84867Y62354D01*
X84886Y62350D01*
X84906Y62344D01*
X84953Y62329D01*
X84977Y62320D01*
X85001Y62309D01*
X85025Y62294D01*
X85049Y62278D01*
X85073Y62259D01*
X85095Y62239D01*
X85097D01*
X85099Y62235D01*
X85103Y62229D01*
X85108Y62224D01*
X85115Y62215D01*
X85123Y62204D01*
X85132Y62191D01*
X85141Y62176D01*
X85151Y62159D01*
X85162Y62142D01*
X85171Y62122D01*
X85182Y62100D01*
X85191Y62074D01*
X85201Y62048D01*
X85210Y62020D01*
X85217Y61991D01*
X85012Y61931D01*
Y61933D01*
X85010Y61935D01*
Y61941D01*
X85008Y61948D01*
X85003Y61967D01*
X84995Y61989D01*
X84984Y62015D01*
X84969Y62041D01*
X84953Y62065D01*
X84932Y62087D01*
X84930Y62089D01*
X84923Y62096D01*
X84910Y62105D01*
X84893Y62115D01*
X84873Y62126D01*
X84851Y62133D01*
X84825Y62141D01*
X84795Y62142D01*
X84784D01*
X84777Y62141D01*
X84756Y62137D01*
X84730Y62130D01*
X84701Y62118D01*
X84669Y62100D01*
X84654Y62089D01*
X84640Y62076D01*
X84625Y62061D01*
X84610Y62042D01*
Y62041D01*
X84606Y62039D01*
X84604Y62031D01*
X84599Y62024D01*
X84593Y62013D01*
X84588Y62000D01*
X84582Y61983D01*
X84575Y61965D01*
X84567Y61944D01*
X84562Y61920D01*
X84556Y61892D01*
X84551Y61863D01*
X84547Y61831D01*
X84543Y61796D01*
X84540Y61757D01*
Y61717D01*
Y61715D01*
Y61705D01*
Y61694D01*
X84541Y61678D01*
Y61659D01*
X84543Y61637D01*
X84545Y61613D01*
X84549Y61587D01*
X84556Y61531D01*
X84569Y61476D01*
X84577Y61450D01*
X84586Y61424D01*
X84597Y61402D01*
X84608Y61381D01*
Y61380D01*
X84612Y61378D01*
X84621Y61367D01*
X84636Y61350D01*
X84658Y61333D01*
X84684Y61315D01*
X84714Y61298D01*
X84751Y61287D01*
X84769Y61285D01*
X84790Y61283D01*
X84793D01*
X84803Y61285D01*
X84819Y61287D01*
X84838Y61291D01*
X84860Y61298D01*
X84884Y61309D01*
X84908Y61326D01*
X84930Y61346D01*
X84932Y61350D01*
X84940Y61359D01*
X84951Y61374D01*
X84964Y61396D01*
X84978Y61424D01*
X84991Y61459D01*
X85006Y61500D01*
X85017Y61550D01*
X85219Y61472D01*
Y61470D01*
X85217Y61463D01*
X85214Y61452D01*
X85210Y61437D01*
X85204Y61420D01*
X85199Y61400D01*
X85191Y61378D01*
X85182Y61354D01*
X85160Y61304D01*
X85132Y61252D01*
X85101Y61204D01*
X85082Y61183D01*
X85062Y61163D01*
X85060Y61161D01*
X85056Y61159D01*
X85051Y61154D01*
X85041Y61148D01*
X85032Y61141D01*
X85019Y61133D01*
X85004Y61124D01*
X84988Y61115D01*
X84969Y61106D01*
X84949Y61096D01*
X84903Y61081D01*
X84851Y61070D01*
X84823Y61069D01*
X84793Y61067D01*
X84784D01*
X84775Y61069D01*
X84760D01*
X84743Y61072D01*
X84723Y61074D01*
X84701Y61080D01*
X84677Y61085D01*
X84651Y61094D01*
X84625Y61104D01*
X84599Y61117D01*
X84571Y61131D01*
X84543Y61150D01*
X84517Y61170D01*
X84491Y61193D01*
X84467Y61220D01*
X84466Y61222D01*
X84462Y61228D01*
X84454Y61239D01*
X84445Y61254D01*
X84434Y61270D01*
X84423Y61293D01*
X84410Y61318D01*
X84397Y61348D01*
X84382Y61380D01*
X84369Y61417D01*
X84358Y61456D01*
X84347Y61498D01*
X84338Y61544D01*
X84330Y61594D01*
X84327Y61646D01*
X84325Y61702D01*
Y61704D01*
Y61705D01*
Y61717D01*
X84327Y61733D01*
Y61754D01*
X84329Y61781D01*
X84332Y61813D01*
X84338Y61846D01*
X84343Y61883D01*
X84351Y61924D01*
X84360Y61965D01*
X84371Y62005D01*
X84386Y62048D01*
X84403Y62089D01*
X84421Y62128D01*
X84443Y62167D01*
X84469Y62202D01*
X84471Y62204D01*
X84475Y62209D01*
X84482Y62217D01*
X84491Y62226D01*
X84504Y62239D01*
X84519Y62252D01*
X84538Y62267D01*
X84558Y62281D01*
X84580Y62294D01*
X84606Y62309D01*
X84634Y62322D01*
X84664Y62335D01*
X84697Y62344D01*
X84730Y62352D01*
X84767Y62357D01*
X84806Y62359D01*
X84823D01*
X84836Y62357D01*
D02*
G37*
G36*
X88939Y61387D02*
Y61385D01*
X88935Y61380D01*
X88934Y61370D01*
X88928Y61359D01*
X88923Y61344D01*
X88915Y61328D01*
X88900Y61291D01*
X88880Y61250D01*
X88860Y61211D01*
X88837Y61174D01*
X88826Y61157D01*
X88815Y61143D01*
X88813Y61139D01*
X88804Y61131D01*
X88791Y61120D01*
X88774Y61107D01*
X88754Y61094D01*
X88730Y61083D01*
X88702Y61076D01*
X88671Y61072D01*
X88643D01*
X88623Y61074D01*
X88600Y61076D01*
X88576Y61078D01*
X88528Y61087D01*
Y61274D01*
X88556D01*
X88582Y61272D01*
X88617D01*
X88630Y61274D01*
X88647Y61276D01*
X88663Y61280D01*
X88680Y61285D01*
X88697Y61293D01*
X88710Y61302D01*
X88711Y61304D01*
X88715Y61309D01*
X88721Y61317D01*
X88730Y61331D01*
X88739Y61350D01*
X88748Y61372D01*
X88760Y61402D01*
X88771Y61439D01*
X88393Y62339D01*
X88624D01*
X88863Y61689D01*
X89071Y62339D01*
X89285D01*
X88939Y61387D01*
D02*
G37*
G36*
X91689Y62341D02*
X91700Y62339D01*
X91713Y62337D01*
X91746Y62329D01*
X91781Y62318D01*
X91818Y62300D01*
X91837Y62289D01*
X91856Y62276D01*
X91872Y62261D01*
X91889Y62242D01*
X91891Y62241D01*
X91893Y62239D01*
X91896Y62233D01*
X91902Y62226D01*
X91907Y62217D01*
X91915Y62205D01*
X91931Y62178D01*
X91946Y62144D01*
X91959Y62107D01*
X91968Y62067D01*
X91972Y62044D01*
Y62022D01*
Y62018D01*
Y62009D01*
X91970Y61992D01*
X91967Y61974D01*
X91963Y61950D01*
X91956Y61926D01*
X91946Y61900D01*
X91933Y61874D01*
X91931Y61870D01*
X91926Y61863D01*
X91918Y61852D01*
X91906Y61835D01*
X91891Y61818D01*
X91870Y61798D01*
X91848Y61778D01*
X91822Y61759D01*
X91824D01*
X91826Y61757D01*
X91837Y61754D01*
X91852Y61748D01*
X91872Y61739D01*
X91894Y61724D01*
X91917Y61707D01*
X91939Y61685D01*
X91961Y61657D01*
X91963Y61654D01*
X91970Y61643D01*
X91980Y61626D01*
X91989Y61604D01*
X92000Y61576D01*
X92007Y61543D01*
X92015Y61504D01*
X92017Y61461D01*
Y61459D01*
Y61454D01*
Y61444D01*
X92015Y61433D01*
X92013Y61418D01*
X92011Y61402D01*
X92007Y61383D01*
X92004Y61361D01*
X91991Y61317D01*
X91972Y61270D01*
X91961Y61246D01*
X91948Y61222D01*
X91931Y61200D01*
X91913Y61178D01*
X91911Y61176D01*
X91909Y61172D01*
X91902Y61167D01*
X91894Y61161D01*
X91885Y61152D01*
X91874Y61143D01*
X91844Y61122D01*
X91809Y61102D01*
X91769Y61083D01*
X91744Y61078D01*
X91720Y61072D01*
X91696Y61069D01*
X91670Y61067D01*
X91657D01*
X91648Y61069D01*
X91637Y61070D01*
X91622Y61072D01*
X91591Y61078D01*
X91556Y61089D01*
X91517Y61107D01*
X91496Y61117D01*
X91478Y61130D01*
X91459Y61144D01*
X91441Y61161D01*
X91439Y61163D01*
X91437Y61165D01*
X91432Y61170D01*
X91426Y61178D01*
X91419Y61189D01*
X91411Y61200D01*
X91402Y61213D01*
X91393Y61230D01*
X91383Y61246D01*
X91374Y61267D01*
X91365Y61287D01*
X91356Y61311D01*
X91343Y61361D01*
X91333Y61420D01*
X91524Y61448D01*
Y61446D01*
Y61444D01*
X91526Y61433D01*
X91528Y61418D01*
X91533Y61398D01*
X91539Y61376D01*
X91548Y61354D01*
X91559Y61331D01*
X91572Y61313D01*
X91574Y61311D01*
X91580Y61306D01*
X91589Y61298D01*
X91600Y61291D01*
X91613Y61281D01*
X91630Y61274D01*
X91648Y61268D01*
X91669Y61267D01*
X91680D01*
X91691Y61270D01*
X91704Y61274D01*
X91720Y61280D01*
X91739Y61289D01*
X91756Y61302D01*
X91772Y61320D01*
X91774Y61322D01*
X91780Y61331D01*
X91785Y61343D01*
X91794Y61361D01*
X91802Y61381D01*
X91807Y61409D01*
X91813Y61439D01*
X91815Y61474D01*
Y61476D01*
Y61478D01*
Y61489D01*
X91813Y61506D01*
X91809Y61526D01*
X91806Y61548D01*
X91798Y61572D01*
X91787Y61596D01*
X91774Y61617D01*
X91772Y61618D01*
X91767Y61626D01*
X91757Y61633D01*
X91746Y61644D01*
X91731Y61654D01*
X91715Y61663D01*
X91696Y61668D01*
X91676Y61670D01*
X91661D01*
X91652Y61668D01*
X91639Y61667D01*
X91622Y61663D01*
X91606Y61657D01*
X91587Y61652D01*
X91607Y61848D01*
X91620D01*
X91635Y61850D01*
X91652Y61852D01*
X91672Y61857D01*
X91693Y61863D01*
X91711Y61874D01*
X91730Y61887D01*
X91731Y61889D01*
X91737Y61894D01*
X91744Y61905D01*
X91752Y61918D01*
X91759Y61935D01*
X91767Y61955D01*
X91772Y61980D01*
X91774Y62007D01*
Y62011D01*
Y62018D01*
X91772Y62030D01*
X91770Y62044D01*
X91767Y62059D01*
X91759Y62076D01*
X91752Y62092D01*
X91741Y62107D01*
X91739Y62109D01*
X91735Y62113D01*
X91728Y62118D01*
X91719Y62126D01*
X91707Y62133D01*
X91693Y62139D01*
X91676Y62142D01*
X91657Y62144D01*
X91650D01*
X91639Y62142D01*
X91628Y62139D01*
X91615Y62133D01*
X91600Y62126D01*
X91585Y62117D01*
X91570Y62102D01*
X91569Y62100D01*
X91565Y62094D01*
X91559Y62083D01*
X91552Y62070D01*
X91544Y62054D01*
X91537Y62031D01*
X91531Y62007D01*
X91528Y61978D01*
X91346Y62015D01*
Y62017D01*
X91348Y62022D01*
X91350Y62031D01*
X91352Y62042D01*
X91356Y62057D01*
X91359Y62072D01*
X91370Y62109D01*
X91385Y62150D01*
X91404Y62191D01*
X91428Y62229D01*
X91441Y62248D01*
X91456Y62263D01*
X91457Y62265D01*
X91459Y62267D01*
X91470Y62276D01*
X91489Y62289D01*
X91513Y62304D01*
X91543Y62317D01*
X91580Y62329D01*
X91620Y62339D01*
X91643Y62342D01*
X91678D01*
X91689Y62341D01*
D02*
G37*
G36*
X90891Y62341D02*
X90902Y62339D01*
X90915Y62337D01*
X90948Y62329D01*
X90983Y62318D01*
X91020Y62300D01*
X91039Y62289D01*
X91057Y62276D01*
X91074Y62261D01*
X91091Y62242D01*
X91093Y62241D01*
X91094Y62239D01*
X91098Y62233D01*
X91104Y62226D01*
X91109Y62217D01*
X91117Y62205D01*
X91133Y62178D01*
X91148Y62144D01*
X91161Y62107D01*
X91170Y62067D01*
X91174Y62044D01*
Y62022D01*
Y62018D01*
Y62009D01*
X91172Y61992D01*
X91169Y61974D01*
X91165Y61950D01*
X91157Y61926D01*
X91148Y61900D01*
X91135Y61874D01*
X91133Y61870D01*
X91128Y61863D01*
X91120Y61852D01*
X91107Y61835D01*
X91093Y61818D01*
X91072Y61798D01*
X91050Y61778D01*
X91024Y61759D01*
X91026D01*
X91028Y61757D01*
X91039Y61754D01*
X91054Y61748D01*
X91074Y61739D01*
X91096Y61724D01*
X91119Y61707D01*
X91141Y61685D01*
X91163Y61657D01*
X91165Y61654D01*
X91172Y61643D01*
X91182Y61626D01*
X91191Y61604D01*
X91202Y61576D01*
X91209Y61543D01*
X91217Y61504D01*
X91219Y61461D01*
Y61459D01*
Y61454D01*
Y61444D01*
X91217Y61433D01*
X91215Y61418D01*
X91213Y61402D01*
X91209Y61383D01*
X91206Y61361D01*
X91193Y61317D01*
X91174Y61270D01*
X91163Y61246D01*
X91150Y61222D01*
X91133Y61200D01*
X91115Y61178D01*
X91113Y61176D01*
X91111Y61172D01*
X91104Y61167D01*
X91096Y61161D01*
X91087Y61152D01*
X91076Y61143D01*
X91046Y61122D01*
X91011Y61102D01*
X90970Y61083D01*
X90946Y61078D01*
X90922Y61072D01*
X90898Y61069D01*
X90872Y61067D01*
X90859D01*
X90850Y61069D01*
X90839Y61070D01*
X90824Y61072D01*
X90793Y61078D01*
X90757Y61089D01*
X90719Y61107D01*
X90698Y61117D01*
X90680Y61130D01*
X90661Y61144D01*
X90643Y61161D01*
X90641Y61163D01*
X90639Y61165D01*
X90633Y61170D01*
X90628Y61178D01*
X90620Y61189D01*
X90613Y61200D01*
X90604Y61213D01*
X90595Y61230D01*
X90585Y61246D01*
X90576Y61267D01*
X90567Y61287D01*
X90558Y61311D01*
X90545Y61361D01*
X90535Y61420D01*
X90726Y61448D01*
Y61446D01*
Y61444D01*
X90728Y61433D01*
X90730Y61418D01*
X90735Y61398D01*
X90741Y61376D01*
X90750Y61354D01*
X90761Y61331D01*
X90774Y61313D01*
X90776Y61311D01*
X90782Y61306D01*
X90791Y61298D01*
X90802Y61291D01*
X90815Y61281D01*
X90832Y61274D01*
X90850Y61268D01*
X90870Y61267D01*
X90882D01*
X90893Y61270D01*
X90906Y61274D01*
X90922Y61280D01*
X90941Y61289D01*
X90957Y61302D01*
X90974Y61320D01*
X90976Y61322D01*
X90982Y61331D01*
X90987Y61343D01*
X90996Y61361D01*
X91004Y61381D01*
X91009Y61409D01*
X91015Y61439D01*
X91017Y61474D01*
Y61476D01*
Y61478D01*
Y61489D01*
X91015Y61505D01*
X91011Y61526D01*
X91007Y61548D01*
X91000Y61572D01*
X90989Y61596D01*
X90976Y61617D01*
X90974Y61618D01*
X90969Y61626D01*
X90959Y61633D01*
X90948Y61644D01*
X90933Y61654D01*
X90917Y61663D01*
X90898Y61668D01*
X90878Y61670D01*
X90863D01*
X90854Y61668D01*
X90841Y61667D01*
X90824Y61663D01*
X90807Y61657D01*
X90789Y61652D01*
X90809Y61848D01*
X90822D01*
X90837Y61850D01*
X90854Y61852D01*
X90874Y61857D01*
X90895Y61863D01*
X90913Y61874D01*
X90932Y61887D01*
X90933Y61889D01*
X90939Y61894D01*
X90946Y61905D01*
X90954Y61918D01*
X90961Y61935D01*
X90969Y61955D01*
X90974Y61980D01*
X90976Y62007D01*
Y62011D01*
Y62018D01*
X90974Y62030D01*
X90972Y62044D01*
X90969Y62059D01*
X90961Y62076D01*
X90954Y62092D01*
X90943Y62107D01*
X90941Y62109D01*
X90937Y62113D01*
X90930Y62118D01*
X90920Y62126D01*
X90909Y62133D01*
X90895Y62139D01*
X90878Y62142D01*
X90859Y62144D01*
X90852D01*
X90841Y62142D01*
X90830Y62139D01*
X90817Y62133D01*
X90802Y62126D01*
X90787Y62117D01*
X90772Y62102D01*
X90770Y62100D01*
X90767Y62094D01*
X90761Y62083D01*
X90754Y62070D01*
X90746Y62054D01*
X90739Y62031D01*
X90733Y62007D01*
X90730Y61978D01*
X90548Y62015D01*
Y62017D01*
X90550Y62022D01*
X90552Y62031D01*
X90554Y62042D01*
X90558Y62057D01*
X90561Y62072D01*
X90572Y62109D01*
X90587Y62150D01*
X90606Y62191D01*
X90630Y62229D01*
X90643Y62248D01*
X90658Y62263D01*
X90659Y62265D01*
X90661Y62267D01*
X90672Y62276D01*
X90691Y62289D01*
X90715Y62304D01*
X90745Y62317D01*
X90782Y62329D01*
X90822Y62339D01*
X90845Y62342D01*
X90880D01*
X90891Y62341D01*
D02*
G37*
G36*
X90093D02*
X90104Y62339D01*
X90117Y62337D01*
X90150Y62329D01*
X90185Y62318D01*
X90222Y62300D01*
X90241Y62289D01*
X90259Y62276D01*
X90276Y62261D01*
X90293Y62242D01*
X90295Y62241D01*
X90296Y62239D01*
X90300Y62233D01*
X90306Y62226D01*
X90311Y62217D01*
X90319Y62205D01*
X90335Y62178D01*
X90350Y62144D01*
X90363Y62107D01*
X90372Y62067D01*
X90376Y62044D01*
Y62022D01*
Y62018D01*
Y62009D01*
X90374Y61992D01*
X90370Y61974D01*
X90367Y61950D01*
X90359Y61926D01*
X90350Y61900D01*
X90337Y61874D01*
X90335Y61870D01*
X90330Y61863D01*
X90322Y61852D01*
X90309Y61835D01*
X90295Y61818D01*
X90274Y61798D01*
X90252Y61778D01*
X90226Y61759D01*
X90228D01*
X90230Y61757D01*
X90241Y61754D01*
X90256Y61748D01*
X90276Y61739D01*
X90298Y61724D01*
X90321Y61707D01*
X90343Y61685D01*
X90365Y61657D01*
X90367Y61654D01*
X90374Y61643D01*
X90383Y61626D01*
X90393Y61604D01*
X90404Y61576D01*
X90411Y61543D01*
X90419Y61504D01*
X90420Y61461D01*
Y61459D01*
Y61454D01*
Y61444D01*
X90419Y61433D01*
X90417Y61418D01*
X90415Y61402D01*
X90411Y61383D01*
X90408Y61361D01*
X90395Y61317D01*
X90376Y61270D01*
X90365Y61246D01*
X90352Y61222D01*
X90335Y61200D01*
X90317Y61178D01*
X90315Y61176D01*
X90313Y61172D01*
X90306Y61167D01*
X90298Y61161D01*
X90289Y61152D01*
X90278Y61143D01*
X90248Y61122D01*
X90213Y61102D01*
X90172Y61083D01*
X90148Y61078D01*
X90124Y61072D01*
X90100Y61069D01*
X90074Y61067D01*
X90061D01*
X90052Y61069D01*
X90041Y61070D01*
X90026Y61072D01*
X89995Y61078D01*
X89959Y61089D01*
X89921Y61107D01*
X89900Y61117D01*
X89882Y61130D01*
X89863Y61144D01*
X89845Y61161D01*
X89843Y61163D01*
X89841Y61165D01*
X89835Y61170D01*
X89830Y61178D01*
X89822Y61189D01*
X89815Y61200D01*
X89806Y61213D01*
X89796Y61230D01*
X89787Y61246D01*
X89778Y61267D01*
X89769Y61287D01*
X89759Y61311D01*
X89746Y61361D01*
X89737Y61420D01*
X89928Y61448D01*
Y61446D01*
Y61444D01*
X89930Y61433D01*
X89932Y61418D01*
X89937Y61398D01*
X89943Y61376D01*
X89952Y61354D01*
X89963Y61331D01*
X89976Y61313D01*
X89978Y61311D01*
X89983Y61306D01*
X89993Y61298D01*
X90004Y61291D01*
X90017Y61281D01*
X90034Y61274D01*
X90052Y61268D01*
X90072Y61267D01*
X90083D01*
X90095Y61270D01*
X90108Y61274D01*
X90124Y61280D01*
X90143Y61289D01*
X90159Y61302D01*
X90176Y61320D01*
X90178Y61322D01*
X90183Y61331D01*
X90189Y61343D01*
X90198Y61361D01*
X90206Y61381D01*
X90211Y61409D01*
X90217Y61439D01*
X90219Y61474D01*
Y61476D01*
Y61478D01*
Y61489D01*
X90217Y61505D01*
X90213Y61526D01*
X90209Y61548D01*
X90202Y61572D01*
X90191Y61596D01*
X90178Y61617D01*
X90176Y61618D01*
X90171Y61626D01*
X90161Y61633D01*
X90150Y61644D01*
X90135Y61654D01*
X90119Y61663D01*
X90100Y61668D01*
X90080Y61670D01*
X90065D01*
X90056Y61668D01*
X90043Y61667D01*
X90026Y61663D01*
X90009Y61657D01*
X89991Y61652D01*
X90011Y61848D01*
X90024D01*
X90039Y61850D01*
X90056Y61852D01*
X90076Y61857D01*
X90096Y61863D01*
X90115Y61874D01*
X90133Y61887D01*
X90135Y61889D01*
X90141Y61894D01*
X90148Y61905D01*
X90156Y61918D01*
X90163Y61935D01*
X90171Y61955D01*
X90176Y61980D01*
X90178Y62007D01*
Y62011D01*
Y62018D01*
X90176Y62030D01*
X90174Y62044D01*
X90171Y62059D01*
X90163Y62076D01*
X90156Y62092D01*
X90145Y62107D01*
X90143Y62109D01*
X90139Y62113D01*
X90132Y62118D01*
X90122Y62126D01*
X90111Y62133D01*
X90096Y62139D01*
X90080Y62142D01*
X90061Y62144D01*
X90054D01*
X90043Y62142D01*
X90032Y62139D01*
X90019Y62133D01*
X90004Y62126D01*
X89989Y62117D01*
X89974Y62102D01*
X89972Y62100D01*
X89969Y62094D01*
X89963Y62083D01*
X89956Y62070D01*
X89948Y62054D01*
X89941Y62031D01*
X89935Y62007D01*
X89932Y61978D01*
X89750Y62015D01*
Y62017D01*
X89752Y62022D01*
X89754Y62031D01*
X89756Y62042D01*
X89759Y62057D01*
X89763Y62072D01*
X89774Y62109D01*
X89789Y62150D01*
X89808Y62191D01*
X89832Y62229D01*
X89845Y62248D01*
X89859Y62263D01*
X89861Y62265D01*
X89863Y62267D01*
X89874Y62276D01*
X89893Y62289D01*
X89917Y62304D01*
X89946Y62317D01*
X89983Y62329D01*
X90024Y62339D01*
X90046Y62342D01*
X90082D01*
X90093Y62341D01*
D02*
G37*
G36*
X93583Y62098D02*
X93213D01*
X93179Y61883D01*
X93183Y61885D01*
X93191Y61891D01*
X93204Y61896D01*
X93222Y61905D01*
X93242Y61913D01*
X93265Y61918D01*
X93289Y61924D01*
X93315Y61926D01*
X93326D01*
X93335Y61924D01*
X93346Y61922D01*
X93357Y61920D01*
X93387Y61915D01*
X93418Y61902D01*
X93454Y61885D01*
X93472Y61874D01*
X93489Y61861D01*
X93505Y61846D01*
X93522Y61830D01*
X93524Y61828D01*
X93528Y61824D01*
X93531Y61817D01*
X93539Y61807D01*
X93546Y61794D01*
X93555Y61780D01*
X93566Y61763D01*
X93576Y61744D01*
X93585Y61722D01*
X93596Y61698D01*
X93605Y61670D01*
X93613Y61643D01*
X93620Y61611D01*
X93626Y61580D01*
X93628Y61544D01*
X93629Y61507D01*
Y61506D01*
Y61500D01*
Y61491D01*
X93628Y61480D01*
Y61465D01*
X93624Y61448D01*
X93622Y61430D01*
X93618Y61407D01*
X93607Y61361D01*
X93591Y61309D01*
X93579Y61283D01*
X93568Y61257D01*
X93553Y61230D01*
X93537Y61204D01*
X93535Y61202D01*
X93533Y61198D01*
X93528Y61191D01*
X93520Y61181D01*
X93511Y61172D01*
X93500Y61161D01*
X93485Y61148D01*
X93470Y61135D01*
X93454Y61122D01*
X93433Y61109D01*
X93413Y61098D01*
X93389Y61089D01*
X93365Y61080D01*
X93337Y61072D01*
X93309Y61069D01*
X93278Y61067D01*
X93265D01*
X93255Y61069D01*
X93244D01*
X93229Y61072D01*
X93198Y61078D01*
X93163Y61089D01*
X93124Y61104D01*
X93087Y61126D01*
X93068Y61141D01*
X93050Y61156D01*
X93048Y61157D01*
X93046Y61159D01*
X93041Y61165D01*
X93035Y61172D01*
X93028Y61181D01*
X93020Y61193D01*
X93011Y61206D01*
X93002Y61220D01*
X92992Y61237D01*
X92983Y61257D01*
X92974Y61278D01*
X92965Y61300D01*
X92957Y61324D01*
X92950Y61352D01*
X92941Y61409D01*
X93137Y61435D01*
Y61431D01*
X93139Y61422D01*
X93142Y61406D01*
X93146Y61387D01*
X93152Y61367D01*
X93161Y61346D01*
X93172Y61324D01*
X93187Y61306D01*
X93189Y61304D01*
X93194Y61298D01*
X93204Y61291D01*
X93215Y61283D01*
X93228Y61274D01*
X93244Y61267D01*
X93261Y61261D01*
X93279Y61259D01*
X93281D01*
X93291Y61261D01*
X93302Y61263D01*
X93315Y61267D01*
X93331Y61274D01*
X93350Y61285D01*
X93366Y61298D01*
X93383Y61318D01*
X93385Y61322D01*
X93391Y61330D01*
X93398Y61344D01*
X93405Y61363D01*
X93413Y61389D01*
X93420Y61420D01*
X93426Y61459D01*
X93428Y61502D01*
Y61504D01*
Y61507D01*
Y61513D01*
Y61522D01*
X93426Y61543D01*
X93422Y61568D01*
X93416Y61596D01*
X93409Y61626D01*
X93398Y61652D01*
X93383Y61676D01*
X93381Y61678D01*
X93376Y61685D01*
X93366Y61694D01*
X93354Y61705D01*
X93339Y61715D01*
X93318Y61724D01*
X93298Y61731D01*
X93274Y61733D01*
X93270D01*
X93259Y61731D01*
X93244Y61728D01*
X93224Y61722D01*
X93200Y61711D01*
X93174Y61694D01*
X93161Y61685D01*
X93148Y61672D01*
X93135Y61659D01*
X93122Y61643D01*
X92963Y61670D01*
X93063Y62322D01*
X93583D01*
Y62098D01*
D02*
G37*
G36*
X96235Y61087D02*
X96037D01*
Y61992D01*
X96035Y61991D01*
X96031Y61987D01*
X96025Y61981D01*
X96016Y61972D01*
X96007Y61963D01*
X95994Y61950D01*
X95979Y61937D01*
X95963Y61924D01*
X95925Y61894D01*
X95883Y61863D01*
X95833Y61835D01*
X95781Y61811D01*
Y62030D01*
X95783D01*
X95785Y62031D01*
X95796Y62035D01*
X95811Y62044D01*
X95833Y62055D01*
X95859Y62072D01*
X95887Y62092D01*
X95918Y62117D01*
X95951Y62146D01*
X95953Y62148D01*
X95955Y62150D01*
X95966Y62161D01*
X95981Y62180D01*
X96000Y62204D01*
X96020Y62231D01*
X96040Y62265D01*
X96059Y62302D01*
X96074Y62342D01*
X96235D01*
Y61087D01*
D02*
G37*
G36*
X95568D02*
X95372D01*
Y61328D01*
X95568D01*
Y61087D01*
D02*
G37*
G36*
X92644D02*
X92446D01*
Y61992D01*
X92444Y61991D01*
X92441Y61987D01*
X92435Y61981D01*
X92426Y61972D01*
X92417Y61963D01*
X92404Y61950D01*
X92389Y61937D01*
X92372Y61924D01*
X92335Y61894D01*
X92293Y61863D01*
X92243Y61835D01*
X92191Y61811D01*
Y62030D01*
X92193D01*
X92194Y62031D01*
X92205Y62035D01*
X92220Y62044D01*
X92243Y62055D01*
X92268Y62072D01*
X92296Y62092D01*
X92328Y62117D01*
X92361Y62146D01*
X92363Y62148D01*
X92365Y62150D01*
X92376Y62161D01*
X92391Y62180D01*
X92409Y62204D01*
X92430Y62231D01*
X92450Y62265D01*
X92468Y62302D01*
X92483Y62342D01*
X92644D01*
Y61087D01*
D02*
G37*
G36*
X89584Y61087D02*
X89387D01*
Y61328D01*
X89584D01*
Y61087D01*
D02*
G37*
G36*
X88286D02*
X88078D01*
Y62128D01*
X87673D01*
Y61087D01*
X87465D01*
Y62339D01*
X88286D01*
Y61087D01*
D02*
G37*
G36*
X87206Y62128D02*
X86645D01*
Y61841D01*
X86954D01*
X86965Y61839D01*
X86978Y61837D01*
X86995Y61835D01*
X87032Y61828D01*
X87075Y61815D01*
X87117Y61796D01*
X87139Y61785D01*
X87160Y61772D01*
X87180Y61755D01*
X87199Y61737D01*
X87200Y61735D01*
X87202Y61731D01*
X87208Y61726D01*
X87213Y61718D01*
X87221Y61707D01*
X87228Y61694D01*
X87237Y61680D01*
X87247Y61663D01*
X87256Y61644D01*
X87265Y61624D01*
X87273Y61602D01*
X87280Y61578D01*
X87291Y61522D01*
X87293Y61493D01*
X87295Y61461D01*
Y61459D01*
Y61454D01*
Y61446D01*
X87293Y61437D01*
Y61424D01*
X87291Y61409D01*
X87287Y61391D01*
X87286Y61372D01*
X87275Y61331D01*
X87260Y61289D01*
X87241Y61244D01*
X87228Y61222D01*
X87213Y61200D01*
Y61198D01*
X87210Y61194D01*
X87204Y61189D01*
X87199Y61183D01*
X87189Y61174D01*
X87178Y61165D01*
X87163Y61154D01*
X87149Y61144D01*
X87130Y61133D01*
X87110Y61122D01*
X87088Y61113D01*
X87063Y61106D01*
X87036Y61098D01*
X87006Y61093D01*
X86973Y61089D01*
X86938Y61087D01*
X86438D01*
Y62339D01*
X87206D01*
Y62128D01*
D02*
G37*
G36*
X86219Y61087D02*
X86012D01*
Y62128D01*
X85606D01*
Y61087D01*
X85399D01*
Y62339D01*
X86219D01*
Y61087D01*
D02*
G37*
G36*
X96883Y62341D02*
X96896Y62339D01*
X96911Y62335D01*
X96946Y62324D01*
X96964Y62317D01*
X96985Y62307D01*
X97003Y62296D01*
X97024Y62283D01*
X97044Y62267D01*
X97064Y62246D01*
X97083Y62226D01*
X97101Y62200D01*
X97103Y62198D01*
X97105Y62192D01*
X97111Y62185D01*
X97116Y62172D01*
X97123Y62155D01*
X97131Y62137D01*
X97138Y62113D01*
X97148Y62085D01*
X97157Y62052D01*
X97164Y62017D01*
X97172Y61976D01*
X97179Y61930D01*
X97185Y61881D01*
X97190Y61826D01*
X97192Y61768D01*
X97194Y61704D01*
Y61702D01*
Y61700D01*
Y61694D01*
Y61689D01*
Y61670D01*
X97192Y61646D01*
Y61617D01*
X97188Y61585D01*
X97186Y61548D01*
X97183Y61509D01*
X97172Y61428D01*
X97155Y61344D01*
X97144Y61306D01*
X97133Y61270D01*
X97118Y61237D01*
X97101Y61207D01*
X97099Y61206D01*
X97098Y61202D01*
X97092Y61194D01*
X97085Y61185D01*
X97075Y61174D01*
X97064Y61163D01*
X97036Y61137D01*
X97001Y61111D01*
X96961Y61089D01*
X96938Y61080D01*
X96914Y61072D01*
X96888Y61069D01*
X96861Y61067D01*
X96853D01*
X96846Y61069D01*
X96837D01*
X96824Y61070D01*
X96809Y61074D01*
X96774Y61083D01*
X96755Y61091D01*
X96735Y61100D01*
X96716Y61111D01*
X96696Y61126D01*
X96675Y61141D01*
X96655Y61159D01*
X96637Y61181D01*
X96618Y61206D01*
X96616Y61207D01*
X96614Y61213D01*
X96611Y61220D01*
X96603Y61233D01*
X96598Y61250D01*
X96590Y61268D01*
X96581Y61293D01*
X96574Y61320D01*
X96564Y61354D01*
X96557Y61389D01*
X96548Y61430D01*
X96542Y61476D01*
X96537Y61526D01*
X96531Y61581D01*
X96529Y61641D01*
X96527Y61705D01*
Y61707D01*
Y61709D01*
Y61715D01*
Y61720D01*
Y61739D01*
X96529Y61763D01*
X96531Y61791D01*
X96533Y61824D01*
X96535Y61861D01*
X96538Y61900D01*
X96549Y61981D01*
X96566Y62063D01*
X96575Y62102D01*
X96588Y62137D01*
X96601Y62170D01*
X96618Y62200D01*
X96620Y62202D01*
X96622Y62205D01*
X96627Y62213D01*
X96635Y62222D01*
X96644Y62233D01*
X96655Y62244D01*
X96683Y62272D01*
X96718Y62298D01*
X96759Y62320D01*
X96781Y62329D01*
X96805Y62337D01*
X96831Y62341D01*
X96859Y62342D01*
X96874D01*
X96883Y62341D01*
D02*
G37*
G36*
X94090D02*
X94103Y62339D01*
X94118Y62335D01*
X94153Y62324D01*
X94172Y62317D01*
X94192Y62307D01*
X94211Y62296D01*
X94231Y62283D01*
X94252Y62267D01*
X94272Y62246D01*
X94290Y62226D01*
X94309Y62200D01*
X94311Y62198D01*
X94313Y62192D01*
X94318Y62185D01*
X94324Y62172D01*
X94331Y62155D01*
X94339Y62137D01*
X94346Y62113D01*
X94355Y62085D01*
X94365Y62052D01*
X94372Y62017D01*
X94379Y61976D01*
X94387Y61930D01*
X94392Y61881D01*
X94398Y61826D01*
X94400Y61768D01*
X94402Y61704D01*
Y61702D01*
Y61700D01*
Y61694D01*
Y61689D01*
Y61670D01*
X94400Y61646D01*
Y61617D01*
X94396Y61585D01*
X94394Y61548D01*
X94390Y61509D01*
X94379Y61428D01*
X94363Y61344D01*
X94352Y61306D01*
X94340Y61270D01*
X94326Y61237D01*
X94309Y61207D01*
X94307Y61206D01*
X94305Y61202D01*
X94300Y61194D01*
X94292Y61185D01*
X94283Y61174D01*
X94272Y61163D01*
X94244Y61137D01*
X94209Y61111D01*
X94168Y61089D01*
X94146Y61080D01*
X94122Y61072D01*
X94096Y61069D01*
X94068Y61067D01*
X94061D01*
X94053Y61069D01*
X94044D01*
X94031Y61070D01*
X94016Y61074D01*
X93981Y61083D01*
X93963Y61091D01*
X93942Y61100D01*
X93924Y61111D01*
X93903Y61126D01*
X93883Y61141D01*
X93863Y61159D01*
X93844Y61181D01*
X93826Y61206D01*
X93824Y61207D01*
X93822Y61213D01*
X93818Y61220D01*
X93811Y61233D01*
X93805Y61250D01*
X93798Y61268D01*
X93789Y61293D01*
X93781Y61320D01*
X93772Y61354D01*
X93765Y61389D01*
X93755Y61430D01*
X93750Y61476D01*
X93744Y61526D01*
X93739Y61581D01*
X93737Y61641D01*
X93735Y61705D01*
Y61707D01*
Y61709D01*
Y61715D01*
Y61720D01*
Y61739D01*
X93737Y61763D01*
X93739Y61791D01*
X93741Y61824D01*
X93742Y61861D01*
X93746Y61900D01*
X93757Y61981D01*
X93774Y62063D01*
X93783Y62102D01*
X93796Y62137D01*
X93809Y62170D01*
X93826Y62200D01*
X93828Y62202D01*
X93829Y62205D01*
X93835Y62213D01*
X93842Y62222D01*
X93852Y62233D01*
X93863Y62244D01*
X93891Y62272D01*
X93926Y62298D01*
X93966Y62320D01*
X93989Y62329D01*
X94013Y62337D01*
X94039Y62341D01*
X94066Y62342D01*
X94081D01*
X94090Y62341D01*
D02*
G37*
%LPC*%
G36*
X96193Y88800D02*
X96190D01*
D01*
D01*
D01*
X95670D01*
X96190D01*
X96177Y88796D01*
X96165Y88792D01*
X96158Y88791D01*
X96156Y88789D01*
X96147Y88779D01*
X96141Y88770D01*
X96138Y88765D01*
X96136Y88763D01*
X95599Y87735D01*
X95577Y88763D01*
X95571Y88778D01*
X95566Y88787D01*
X95562Y88791D01*
X95560Y88792D01*
X95554Y88796D01*
X95547Y88800D01*
X95670D01*
X95477D01*
X95540D01*
X95525Y88798D01*
X95512Y88792D01*
X95504Y88787D01*
X95501Y88785D01*
X95490Y88774D01*
X95482Y88763D01*
X95480Y88755D01*
X95478Y88752D01*
X95477Y88739D01*
D01*
X95503Y87537D01*
X95504Y87522D01*
X95508Y87513D01*
X95514Y87506D01*
X95521Y87500D01*
X95528Y87496D01*
X95534Y87494D01*
X95540D01*
X95553Y87496D01*
X95562Y87502D01*
X95573Y87507D01*
X95580Y87517D01*
X95588Y87524D01*
X95593Y87530D01*
X95595Y87535D01*
X95597Y87537D01*
X96221Y88737D01*
X96228Y88752D01*
Y87557D01*
Y88763D01*
X96227Y88772D01*
X96225Y88779D01*
X96223Y88785D01*
X96221Y88787D01*
X96210Y88794D01*
X96201Y88798D01*
X96193Y88800D01*
D02*
G37*
G36*
X91197Y88802D02*
Y88428D01*
D01*
Y88802D01*
D02*
G37*
G36*
X91694D02*
Y88389D01*
X91692Y88398D01*
X91690Y88407D01*
X91686Y88413D01*
X91684Y88415D01*
X91675Y88422D01*
X91666Y88426D01*
X91660Y88428D01*
X91518D01*
X91597Y88752D01*
X91599Y88761D01*
Y88768D01*
X91597Y88779D01*
X91594Y88787D01*
X91592Y88789D01*
X91583Y88796D01*
X91571Y88800D01*
X91566Y88802D01*
X91562D01*
X91547Y88800D01*
X91534Y88794D01*
X91527Y88787D01*
X91523Y88785D01*
X91514Y88772D01*
X91507Y88763D01*
X91503Y88755D01*
Y88752D01*
X91420Y88428D01*
X91377D01*
X91360Y88424D01*
X91347Y88418D01*
X91340Y88413D01*
X91336Y88409D01*
X91327Y88396D01*
X91322Y88389D01*
X91318Y88383D01*
Y88381D01*
Y88367D01*
Y88355D01*
X91320Y88348D01*
X91322Y88346D01*
X91331Y88337D01*
X91342Y88333D01*
X91351Y88331D01*
X91396D01*
X91199Y87543D01*
X91197Y87531D01*
Y87528D01*
Y87526D01*
X91199Y87517D01*
X91201Y87511D01*
D01*
X91203Y87507D01*
X91205Y87506D01*
X91220Y87500D01*
X91229Y87496D01*
X91234Y87494D01*
X91197D01*
D01*
X90799D01*
X90831Y87496D01*
X90862Y87504D01*
X90890Y87515D01*
X90914Y87526D01*
X90935Y87537D01*
X90949Y87548D01*
X90959Y87556D01*
X90962Y87557D01*
X90986Y87580D01*
X91005Y87604D01*
X91020Y87628D01*
X91033Y87650D01*
X91042Y87668D01*
X91047Y87685D01*
X91049Y87694D01*
X91051Y87698D01*
X91055Y87715D01*
X91057Y87730D01*
Y87743D01*
Y87756D01*
X91055Y87765D01*
Y87772D01*
X91053Y87778D01*
Y87780D01*
X91049Y87796D01*
X91044Y87809D01*
X91038Y87822D01*
X91033Y87833D01*
X91025Y87843D01*
X91022Y87848D01*
X91018Y87852D01*
X91016Y87854D01*
X90731Y88144D01*
X90722Y88157D01*
X90716Y88172D01*
X90712Y88185D01*
X90710Y88198D01*
Y88209D01*
Y88218D01*
X90712Y88224D01*
Y88226D01*
X90718Y88241D01*
X90725Y88255D01*
X90733Y88268D01*
X90740Y88280D01*
X90747Y88287D01*
X90755Y88294D01*
X90759Y88298D01*
X90760Y88300D01*
X90775Y88311D01*
X90790Y88318D01*
X90803Y88324D01*
X90818Y88328D01*
X90829Y88330D01*
X90838Y88331D01*
X90990D01*
X91003Y88330D01*
X91010Y88328D01*
X91014D01*
X91053Y88311D01*
X91075Y88294D01*
X91092Y88278D01*
X91097Y88270D01*
X91101Y88263D01*
X91105Y88259D01*
Y88257D01*
X91110Y88250D01*
X91112Y88246D01*
X91116Y88243D01*
X91118Y88241D01*
X91138Y88237D01*
X91153Y88239D01*
X91164Y88244D01*
X91173Y88248D01*
X91177Y88250D01*
X91188Y88263D01*
X91196Y88272D01*
X91199Y88280D01*
Y88283D01*
X91201Y88302D01*
X91197Y88312D01*
X91196Y88317D01*
X91184Y88335D01*
X91172Y88352D01*
X91159Y88367D01*
X91146Y88378D01*
X91134Y88387D01*
X91125Y88392D01*
X91118Y88396D01*
X91116Y88398D01*
X91096Y88407D01*
X91075Y88415D01*
X91055Y88420D01*
X91036Y88424D01*
X91020Y88426D01*
X91007Y88428D01*
X90868D01*
X90835Y88426D01*
X90805Y88418D01*
X90777Y88407D01*
X90753Y88396D01*
X90733Y88385D01*
X90718Y88374D01*
X90709Y88367D01*
X90705Y88365D01*
X90681Y88342D01*
X90662Y88320D01*
X90648Y88296D01*
X90635Y88274D01*
X90625Y88254D01*
X90620Y88239D01*
X90618Y88228D01*
X90616Y88226D01*
Y88224D01*
X90612Y88213D01*
X90610Y88200D01*
Y88191D01*
Y88189D01*
Y88187D01*
X90612Y88143D01*
X90616Y88128D01*
X90622Y88113D01*
X90629Y88102D01*
X90635Y88091D01*
X90642Y88081D01*
X90646Y88076D01*
X90649Y88072D01*
X90651Y88070D01*
X90936Y87778D01*
X90946Y87763D01*
X90951Y87748D01*
X90955Y87733D01*
X90957Y87722D01*
Y87711D01*
Y87704D01*
X90955Y87698D01*
Y87696D01*
X90949Y87681D01*
X90942Y87668D01*
X90935Y87656D01*
X90927Y87644D01*
X90920Y87635D01*
X90912Y87628D01*
X90909Y87624D01*
X90907Y87622D01*
X90892Y87611D01*
X90877Y87604D01*
X90864Y87598D01*
X90851Y87594D01*
X90838Y87593D01*
X90829Y87591D01*
X90694D01*
X90662Y87594D01*
X90648Y87596D01*
X90636Y87600D01*
X90627Y87604D01*
X90620Y87606D01*
X90616Y87609D01*
X90614D01*
X90601Y87620D01*
X90590Y87630D01*
X90581Y87641D01*
X90573Y87648D01*
X90568Y87656D01*
X90564Y87661D01*
X90562Y87663D01*
Y87665D01*
X90559Y87672D01*
X90553Y87676D01*
X90549Y87680D01*
X90548D01*
X90542Y87683D01*
X90536Y87685D01*
X90529D01*
X90514Y87681D01*
X90501Y87676D01*
X90494Y87670D01*
X90490Y87667D01*
X90488Y87664D01*
X90479Y87654D01*
X90472Y87644D01*
X90470Y87639D01*
X90468Y87637D01*
Y87620D01*
X90472Y87606D01*
X90485Y87585D01*
X90498Y87568D01*
X90510Y87556D01*
X90523Y87543D01*
X90535Y87533D01*
X90544Y87528D01*
X90549Y87524D01*
X90551Y87522D01*
X90572Y87513D01*
X90592Y87506D01*
X90610Y87502D01*
X90631Y87498D01*
X90648Y87496D01*
X90660Y87494D01*
X90488D01*
D01*
X90394D01*
X91694D01*
Y88802D01*
D02*
G37*
G36*
X86067Y88428D02*
X86028D01*
X86015Y88426D01*
X86002Y88420D01*
X85994Y88413D01*
X85991Y88411D01*
X85979Y88400D01*
X85974Y88391D01*
X85970Y88383D01*
Y88380D01*
X85770Y87591D01*
X85492D01*
X85480Y87593D01*
X85468Y87594D01*
X85450Y87604D01*
X85439Y87613D01*
X85437Y87615D01*
X85435Y87617D01*
X85430Y87628D01*
X85424Y87637D01*
X85422Y87648D01*
Y87659D01*
Y87668D01*
Y87676D01*
X85424Y87680D01*
Y87681D01*
X85598Y88380D01*
X85600Y88389D01*
Y88394D01*
X85598Y88405D01*
X85594Y88413D01*
X85592Y88415D01*
X85583Y88422D01*
X85572Y88426D01*
X85567Y88428D01*
X85363D01*
X85563D01*
X85548Y88426D01*
X85535Y88420D01*
X85528Y88413D01*
X85524Y88411D01*
X85515Y88400D01*
X85507Y88391D01*
X85504Y88383D01*
Y88380D01*
X85328Y87681D01*
X85324Y87663D01*
X85322Y87648D01*
D01*
Y87637D01*
Y87635D01*
Y87633D01*
X85324Y87617D01*
X85326Y87600D01*
X85331Y87585D01*
X85337Y87572D01*
X85341Y87563D01*
X85346Y87556D01*
X85348Y87550D01*
X85350Y87548D01*
X85363Y87534D01*
X85367Y87530D01*
X85385Y87517D01*
X85405Y87507D01*
X85426Y87502D01*
X85442Y87498D01*
X85457Y87494D01*
X85796D01*
X85813Y87496D01*
X85826Y87502D01*
X85837Y87509D01*
X85844Y87519D01*
X85850Y87528D01*
X85854Y87535D01*
X85855Y87541D01*
Y87543D01*
X86065Y88380D01*
X86067Y88389D01*
Y87681D01*
Y88392D01*
X86065Y88402D01*
X86063Y88411D01*
X86059Y88415D01*
X86057Y88417D01*
X86048Y88424D01*
X86039Y88426D01*
X86031Y88428D01*
X86067D01*
D02*
G37*
G36*
X95367Y87494D02*
X94771D01*
X95367D01*
D01*
D02*
G37*
G36*
X95160Y88802D02*
X95034D01*
X95014Y88798D01*
X94971Y88789D01*
X94934Y88774D01*
X94901Y88759D01*
X94873Y88744D01*
X94862Y88737D01*
X94853Y88729D01*
X94845Y88724D01*
X94840Y88720D01*
X94836Y88718D01*
X94834Y88717D01*
X94799Y88685D01*
X94771Y88650D01*
D01*
X94749Y88618D01*
X94732Y88587D01*
X94719Y88561D01*
X94712Y88539D01*
X94710Y88531D01*
X94708Y88526D01*
X94706Y88522D01*
Y88520D01*
X94658Y88333D01*
X94653Y88307D01*
X94649Y88283D01*
X94647Y88274D01*
Y88267D01*
Y88263D01*
Y88261D01*
X94649Y88235D01*
X94655Y88211D01*
X94660Y88189D01*
X94669Y88170D01*
X94677Y88155D01*
X94682Y88144D01*
X94688Y88137D01*
X94690Y88135D01*
X94703Y88120D01*
X94716Y88107D01*
X94743Y88087D01*
X94773Y88072D01*
X94803Y88063D01*
X94829Y88055D01*
X94851Y88054D01*
X94858Y88052D01*
X95145D01*
X95138Y88030D01*
X95129Y88007D01*
X95119Y87987D01*
X95110Y87967D01*
X95101Y87950D01*
X95095Y87937D01*
X95090Y87930D01*
X95088Y87926D01*
X95073Y87900D01*
X95056Y87878D01*
X95041Y87855D01*
X95027Y87837D01*
X95016Y87822D01*
X95006Y87809D01*
X94999Y87802D01*
X94997Y87800D01*
X94969Y87770D01*
X94943Y87746D01*
X94919Y87724D01*
X94899Y87707D01*
X94882Y87693D01*
X94867Y87681D01*
X94860Y87676D01*
X94856Y87674D01*
X94829Y87654D01*
X94814Y87646D01*
X94773Y87624D01*
X94771Y87623D01*
D01*
X94754Y87615D01*
X94738Y87607D01*
X94725Y87602D01*
X94712Y87596D01*
X94701Y87593D01*
X94693Y87589D01*
X94690Y87587D01*
X94688D01*
X94675Y87581D01*
X94666Y87576D01*
X94660Y87570D01*
X94658Y87568D01*
X94653Y87559D01*
X94649Y87552D01*
X94647Y87546D01*
X94645Y87544D01*
X94643Y87535D01*
Y87531D01*
Y87530D01*
X94645Y87520D01*
X94647Y87513D01*
X94649Y87509D01*
Y87507D01*
X94664Y87500D01*
X94673Y87496D01*
X94679Y87494D01*
D01*
D01*
X94680D01*
X94701Y87496D01*
X94740Y87511D01*
X94747Y87515D01*
X94779Y87530D01*
X94814Y87548D01*
X94849Y87568D01*
X94880Y87589D01*
X94912Y87609D01*
X94940Y87630D01*
X94966Y87650D01*
X94988Y87670D01*
X95008Y87689D01*
X95025Y87706D01*
X95040Y87720D01*
X95053Y87731D01*
X95060Y87741D01*
X95066Y87746D01*
X95067Y87748D01*
X95093Y87780D01*
X95116Y87811D01*
X95136Y87843D01*
X95154Y87872D01*
X95173Y87904D01*
X95188Y87933D01*
X95201Y87961D01*
X95214Y87989D01*
X95223Y88013D01*
X95232Y88035D01*
X95240Y88055D01*
X95245Y88072D01*
X95249Y88087D01*
X95253Y88096D01*
X95254Y88104D01*
Y88105D01*
X95360Y88520D01*
X95366Y88548D01*
X95367Y88578D01*
Y88641D01*
Y88630D01*
X95364Y88648D01*
X95358Y88665D01*
X95351Y88679D01*
X95345Y88692D01*
X95338Y88704D01*
X95334Y88711D01*
X95330Y88717D01*
X95329Y88718D01*
X95316Y88733D01*
X95303Y88746D01*
X95273Y88767D01*
X95243Y88781D01*
X95214Y88791D01*
X95188Y88798D01*
X95167Y88800D01*
X95160Y88802D01*
D02*
G37*
G36*
X93449D02*
X93001D01*
X93445D01*
X93416Y88792D01*
X93405Y88783D01*
X93397Y88774D01*
X93394Y88767D01*
X93392Y88765D01*
Y88763D01*
X92971Y87831D01*
X92968Y87822D01*
X92966Y87813D01*
Y87809D01*
Y87807D01*
X92968Y87798D01*
X92969Y87793D01*
X92971Y87789D01*
X92973Y87787D01*
X92982Y87778D01*
X92994Y87774D01*
X93001Y87772D01*
X93329D01*
X93271Y87543D01*
X93269Y87526D01*
X93271Y87515D01*
X93275Y87507D01*
X93277Y87506D01*
X93292Y87500D01*
X93301Y87496D01*
X93307Y87494D01*
X93184D01*
X93527D01*
X93308D01*
X93323Y87496D01*
X93334Y87500D01*
X93342Y87504D01*
X93345Y87506D01*
X93356Y87517D01*
X93362Y87530D01*
X93366Y87539D01*
X93368Y87541D01*
Y87543D01*
X93427Y87772D01*
X93527D01*
X93566D01*
X93581Y87774D01*
X93593Y87780D01*
X93601Y87785D01*
X93605Y87787D01*
X93616Y87800D01*
X93621Y87809D01*
X93625Y87817D01*
Y87820D01*
D01*
X93625Y87822D01*
D01*
X93627Y87828D01*
Y87830D01*
D01*
X93625Y87839D01*
X93623Y87848D01*
X93619Y87854D01*
X93618Y87855D01*
X93608Y87865D01*
X93599Y87868D01*
X93592Y87870D01*
X93527D01*
X93451D01*
X93506Y88102D01*
X93508Y88109D01*
Y88117D01*
X93506Y88128D01*
X93503Y88135D01*
X93501Y88137D01*
X93492Y88144D01*
X93481Y88148D01*
X93475Y88150D01*
X93471D01*
X93456Y88148D01*
X93444Y88143D01*
X93436Y88135D01*
X93432Y88133D01*
X93423Y88122D01*
X93416Y88111D01*
X93412Y88104D01*
Y88102D01*
X93353Y87870D01*
X93090D01*
X93481Y88742D01*
X93484Y88752D01*
X93486Y88768D01*
X93482Y88779D01*
X93479Y88787D01*
X93477Y88789D01*
X93468Y88796D01*
X93456Y88800D01*
X93449Y88802D01*
D02*
G37*
G36*
X92734D02*
X92721D01*
X92686Y88800D01*
X92651Y88794D01*
X92620Y88785D01*
X92594Y88776D01*
X92570Y88767D01*
X92553Y88757D01*
X92542Y88752D01*
X92540Y88750D01*
X92538D01*
X92503Y88726D01*
X92471Y88700D01*
X92444Y88670D01*
X92420Y88642D01*
X92399Y88618D01*
X92384Y88598D01*
X92381Y88591D01*
X92377Y88585D01*
X92373Y88581D01*
Y88579D01*
X92366Y88563D01*
X92364Y88548D01*
X92366Y88537D01*
X92370Y88530D01*
X92371Y88528D01*
X92383Y88520D01*
X92394Y88517D01*
X92401Y88515D01*
X92405D01*
X92416Y88517D01*
X92425Y88518D01*
X92431Y88522D01*
X92433D01*
X92442Y88530D01*
X92449Y88537D01*
X92453Y88544D01*
X92455Y88546D01*
X92477Y88576D01*
X92497Y88602D01*
X92518Y88624D01*
X92536Y88641D01*
X92553Y88654D01*
X92564Y88661D01*
X92573Y88667D01*
X92575Y88668D01*
X92599Y88679D01*
X92621Y88689D01*
X92644Y88694D01*
X92662Y88700D01*
X92679Y88702D01*
X92692Y88704D01*
X92703D01*
X92736Y88700D01*
X92751Y88698D01*
X92764Y88694D01*
X92775Y88691D01*
X92782Y88689D01*
X92788Y88685D01*
X92790D01*
X92818Y88670D01*
X92829Y88661D01*
X92838Y88654D01*
X92845Y88648D01*
X92853Y88642D01*
X92855Y88639D01*
X92857Y88637D01*
X92868Y88624D01*
X92875Y88613D01*
X92888Y88585D01*
X92894Y88559D01*
X92897Y88535D01*
X92895Y88513D01*
Y88496D01*
X92894Y88483D01*
X92892Y88481D01*
Y88480D01*
X92884Y88454D01*
X92875Y88431D01*
X92871Y88424D01*
X92868Y88417D01*
X92866Y88413D01*
X92864Y88411D01*
X92844Y88380D01*
X92814Y88342D01*
X92110Y87568D01*
X92105Y87561D01*
X92101Y87554D01*
X92097Y87548D01*
Y87546D01*
X92096Y87537D01*
Y87533D01*
X92097Y87524D01*
X92099Y87517D01*
X92101Y87511D01*
Y87509D01*
X92110Y87500D01*
X92121Y87496D01*
X92129Y87494D01*
X92096D01*
D01*
X92966D01*
D01*
X92688D01*
X92705Y87496D01*
X92716Y87502D01*
X92725Y87507D01*
X92727Y87509D01*
X92738Y87520D01*
X92744Y87531D01*
X92747Y87539D01*
Y87543D01*
X92749Y87554D01*
X92745Y87565D01*
X92742Y87572D01*
X92740Y87574D01*
X92731Y87583D01*
X92721Y87589D01*
X92716Y87591D01*
X92245D01*
X92882Y88289D01*
X92899Y88309D01*
X92914Y88330D01*
X92925Y88346D01*
X92936Y88361D01*
X92944Y88372D01*
X92949Y88381D01*
X92953Y88387D01*
X92955Y88389D01*
X92967Y88413D01*
Y88413D01*
D01*
X92968Y88415D01*
X92969Y88418D01*
D01*
X92970Y88420D01*
X92971Y88422D01*
D01*
Y88422D01*
X92972Y88424D01*
D01*
D01*
Y88424D01*
D01*
X92973Y88426D01*
X92974Y88428D01*
D01*
D01*
D01*
D01*
D01*
X92976Y88431D01*
D01*
X92979Y88437D01*
X92982Y88452D01*
X92986Y88463D01*
X92990Y88472D01*
X92992Y88478D01*
Y88480D01*
D01*
X92997Y88507D01*
D01*
X92999Y88530D01*
D01*
D01*
D01*
D01*
X93001Y88539D01*
Y88546D01*
Y88550D01*
Y88552D01*
X92999Y88583D01*
D01*
X92998Y88587D01*
D01*
X92997Y88591D01*
X92993Y88607D01*
D01*
X92992Y88613D01*
D01*
D01*
X92992Y88615D01*
X92982Y88641D01*
X92971Y88665D01*
X92966Y88673D01*
X92958Y88683D01*
X92949Y88698D01*
X92942Y88705D01*
X92940Y88709D01*
X92923Y88726D01*
X92907Y88741D01*
X92888Y88752D01*
X92871Y88763D01*
X92834Y88779D01*
X92799Y88791D01*
X92770Y88796D01*
X92755Y88800D01*
X92744D01*
X92734Y88802D01*
D02*
G37*
G36*
X90466Y88428D02*
X89861D01*
X90153D01*
X90123Y88426D01*
X90096Y88418D01*
X90072Y88409D01*
X90049Y88398D01*
X90031Y88387D01*
X90016Y88378D01*
X90009Y88370D01*
X90005Y88368D01*
X89981Y88346D01*
X89962Y88324D01*
X89948Y88304D01*
X89936Y88283D01*
X89929Y88267D01*
X89924Y88252D01*
X89920Y88244D01*
Y88241D01*
X89779Y87681D01*
X89775Y87663D01*
X89774Y87648D01*
Y87637D01*
Y87635D01*
Y87633D01*
X89775Y87617D01*
X89777Y87600D01*
X89783Y87585D01*
X89788Y87572D01*
X89792Y87563D01*
X89798Y87556D01*
X89799Y87550D01*
X89801Y87548D01*
X89818Y87530D01*
X89836Y87517D01*
X89857Y87507D01*
X89877Y87502D01*
X89894Y87498D01*
X89909Y87494D01*
X90107D01*
X90136Y87496D01*
X90164Y87504D01*
X90188Y87511D01*
X90211Y87522D01*
X90227Y87531D01*
X90242Y87541D01*
X90249Y87546D01*
X90253Y87548D01*
X90277Y87568D01*
X90296Y87593D01*
X90311Y87615D01*
X90322Y87635D01*
X90331Y87654D01*
X90336Y87668D01*
X90340Y87678D01*
Y87681D01*
X90468Y88189D01*
D01*
X90481Y88241D01*
X90481Y88243D01*
D01*
X90482Y88244D01*
X90482Y88248D01*
D01*
D01*
X90483Y88250D01*
D01*
X90483Y88252D01*
X90483Y88254D01*
D01*
D01*
X90484Y88257D01*
D01*
X90485Y88259D01*
D01*
D01*
X90488Y88274D01*
Y88285D01*
Y88287D01*
Y88289D01*
X90486Y88307D01*
D01*
Y88307D01*
D01*
D01*
X90486Y88313D01*
D01*
D01*
X90485Y88317D01*
D01*
X90485Y88318D01*
X90485Y88324D01*
D01*
D01*
D01*
D01*
D01*
D01*
D01*
D01*
D01*
X90484Y88326D01*
X90483Y88328D01*
D01*
D01*
D01*
D01*
D01*
D01*
D01*
D01*
X90482Y88330D01*
D01*
D01*
D01*
D01*
Y88330D01*
D01*
D01*
X90482Y88331D01*
X90482D01*
D01*
D01*
D01*
D01*
X90481Y88333D01*
X90480Y88335D01*
D01*
X90480Y88337D01*
X90479Y88339D01*
D01*
D01*
X90475Y88352D01*
X90470Y88361D01*
X90464Y88368D01*
X90462Y88374D01*
X90460Y88376D01*
X90444Y88392D01*
X90423Y88405D01*
X90403Y88415D01*
X90385Y88422D01*
X90368Y88426D01*
X90353Y88428D01*
X90466D01*
D02*
G37*
G36*
X89796Y87494D02*
X89774D01*
X89758D01*
X89796D01*
D02*
G37*
G36*
X89758Y88428D02*
X89066D01*
X89446D01*
X89416Y88426D01*
X89388Y88418D01*
X89364Y88409D01*
X89342Y88398D01*
X89324Y88387D01*
X89309Y88378D01*
X89301Y88370D01*
X89298Y88368D01*
X89274Y88346D01*
X89255Y88324D01*
X89240Y88304D01*
X89229Y88283D01*
X89222Y88267D01*
X89216Y88252D01*
X89212Y88244D01*
Y88241D01*
X89072Y87681D01*
X89068Y87663D01*
X89066Y87648D01*
Y87633D01*
X89068Y87617D01*
X89070Y87600D01*
X89075Y87585D01*
X89081Y87572D01*
X89085Y87563D01*
X89090Y87556D01*
X89092Y87550D01*
X89094Y87548D01*
X89111Y87530D01*
X89129Y87517D01*
X89150Y87507D01*
X89170Y87502D01*
X89187Y87498D01*
X89201Y87494D01*
X89399D01*
X89429Y87496D01*
X89457Y87504D01*
X89481Y87511D01*
X89503Y87522D01*
X89520Y87531D01*
X89535Y87541D01*
X89542Y87546D01*
X89546Y87548D01*
X89570Y87568D01*
X89588Y87593D01*
X89603Y87615D01*
X89614Y87635D01*
X89624Y87654D01*
X89629Y87668D01*
X89633Y87678D01*
Y87681D01*
X89774Y88241D01*
X89777Y88259D01*
X89781Y88274D01*
Y88285D01*
Y88287D01*
Y88289D01*
D01*
X89779Y88307D01*
X89777Y88324D01*
X89775Y88330D01*
X89774Y88334D01*
X89772Y88339D01*
X89768Y88352D01*
X89762Y88361D01*
X89757Y88368D01*
X89755Y88374D01*
X89753Y88376D01*
X89737Y88392D01*
X89716Y88405D01*
X89696Y88415D01*
X89677Y88422D01*
X89661Y88426D01*
X89646Y88428D01*
X89758D01*
D02*
G37*
G36*
X89062Y88802D02*
X88683D01*
X88668Y88800D01*
X88655Y88794D01*
X88648Y88787D01*
X88644Y88785D01*
X88635Y88774D01*
X88627Y88763D01*
X88624Y88755D01*
Y88754D01*
X88320Y87543D01*
X88318Y87530D01*
Y87526D01*
Y87524D01*
X88320Y87515D01*
X88324Y87507D01*
X88331Y87502D01*
X88338Y87498D01*
X88351Y87494D01*
X88553D01*
X88681D01*
X88711Y87496D01*
X88738Y87504D01*
X88764Y87511D01*
X88787Y87522D01*
X88803Y87531D01*
X88818Y87541D01*
X88825Y87546D01*
X88829Y87548D01*
X88853Y87570D01*
X88872Y87593D01*
X88887Y87615D01*
X88898Y87635D01*
X88907Y87654D01*
X88913Y87668D01*
X88916Y87678D01*
Y87681D01*
X89057Y88241D01*
X89061Y88259D01*
X89062Y88274D01*
Y88289D01*
X89061Y88307D01*
X89059Y88324D01*
X89053Y88339D01*
X89050Y88352D01*
X89044Y88361D01*
X89038Y88368D01*
X89037Y88374D01*
X89035Y88376D01*
X89018Y88392D01*
X89000Y88405D01*
X88979Y88415D01*
X88959Y88422D01*
X88942Y88426D01*
X88927Y88428D01*
X88638D01*
X88718Y88752D01*
X88720Y88761D01*
Y88768D01*
X88718Y88779D01*
X88714Y88787D01*
X88713Y88789D01*
X88703Y88796D01*
X88692Y88800D01*
X88687Y88802D01*
X89062D01*
D02*
G37*
G36*
X87107D02*
X87103D01*
X87089Y88800D01*
X87076Y88794D01*
X87068Y88787D01*
X87065Y88785D01*
X87053Y88774D01*
X87048Y88763D01*
X87044Y88755D01*
Y88754D01*
X86816Y87845D01*
X86762Y87628D01*
X86741Y87543D01*
X86739Y87531D01*
Y87528D01*
Y87526D01*
X86741Y87517D01*
X86742Y87511D01*
X86744Y87507D01*
X86746Y87506D01*
X86761Y87500D01*
X86770Y87496D01*
X86776Y87494D01*
X86742D01*
X86778D01*
X86792Y87496D01*
X86803Y87500D01*
X86811Y87504D01*
X86815Y87506D01*
D01*
X86826Y87517D01*
X86831Y87530D01*
X86835Y87539D01*
X86837Y87541D01*
Y87543D01*
X86913Y87844D01*
X87039Y87954D01*
X87207Y87517D01*
X87211Y87509D01*
X87216Y87502D01*
X87218Y87500D01*
X87220Y87498D01*
X87233Y87494D01*
X86887D01*
X87309D01*
X87240D01*
X87255Y87496D01*
X87266Y87502D01*
X87276Y87506D01*
X87279Y87507D01*
X87290Y87520D01*
X87298Y87530D01*
X87302Y87537D01*
Y87541D01*
Y87568D01*
X87124Y88028D01*
X87492Y88348D01*
X87503Y88359D01*
X87509Y88368D01*
X87513Y88376D01*
X87515Y88380D01*
Y88387D01*
Y88391D01*
X87513Y88400D01*
X87511Y88407D01*
X87509Y88413D01*
X87507Y88415D01*
X87498Y88424D01*
X87487Y88428D01*
X87481Y88430D01*
X87477D01*
X87463Y88428D01*
X87450Y88422D01*
X87440Y88415D01*
X87439Y88413D01*
X87437D01*
X87309Y88302D01*
D01*
X86948Y87989D01*
X87139Y88752D01*
X87140Y88761D01*
Y88768D01*
X87139Y88779D01*
X87135Y88787D01*
X87133Y88789D01*
X87124Y88796D01*
X87113Y88800D01*
X87107Y88802D01*
D02*
G37*
G36*
X86781Y88428D02*
X86739D01*
X86072D01*
X86452D01*
X86422Y88426D01*
X86394Y88418D01*
X86370Y88409D01*
X86348Y88398D01*
X86329Y88387D01*
X86315Y88378D01*
X86307Y88370D01*
X86304Y88368D01*
X86279Y88346D01*
X86261Y88324D01*
X86246Y88304D01*
X86235Y88283D01*
X86228Y88267D01*
X86222Y88252D01*
X86218Y88244D01*
Y88241D01*
X86078Y87681D01*
X86074Y87663D01*
X86072Y87648D01*
Y87633D01*
X86074Y87617D01*
X86076Y87600D01*
X86081Y87585D01*
X86087Y87572D01*
X86091Y87563D01*
X86096Y87556D01*
X86098Y87550D01*
X86100Y87548D01*
X86117Y87530D01*
X86135Y87517D01*
X86155Y87507D01*
X86176Y87502D01*
X86192Y87498D01*
X86207Y87494D01*
X86739D01*
D01*
X86546D01*
X86561Y87496D01*
X86574Y87502D01*
X86581Y87507D01*
X86585Y87509D01*
X86596Y87520D01*
X86602Y87531D01*
X86605Y87539D01*
Y87543D01*
Y87554D01*
X86603Y87565D01*
X86600Y87572D01*
X86598Y87574D01*
X86589Y87583D01*
X86579Y87589D01*
X86572Y87591D01*
X86242D01*
X86229Y87593D01*
X86218Y87594D01*
X86200Y87604D01*
X86189Y87613D01*
X86187Y87615D01*
X86185Y87617D01*
X86179Y87628D01*
X86176Y87637D01*
X86174Y87648D01*
X86172Y87659D01*
X86174Y87668D01*
Y87676D01*
X86176Y87680D01*
Y87681D01*
X86315Y88241D01*
X86318Y88254D01*
X86326Y88267D01*
X86339Y88287D01*
X86346Y88294D01*
X86352Y88300D01*
X86355Y88302D01*
X86357Y88304D01*
X86370Y88313D01*
X86383Y88320D01*
X86394Y88324D01*
X86405Y88328D01*
X86415Y88330D01*
X86422Y88331D01*
X86755D01*
X86770Y88333D01*
X86783Y88339D01*
X86790Y88344D01*
X86794Y88346D01*
X86805Y88359D01*
X86811Y88368D01*
X86815Y88376D01*
X86816Y88380D01*
Y88385D01*
Y88389D01*
X86815Y88398D01*
X86813Y88407D01*
X86811Y88409D01*
X86809Y88413D01*
X86807Y88415D01*
X86798Y88422D01*
X86789Y88426D01*
X86781Y88428D01*
D02*
G37*
%LPD*%
G36*
X91694Y87494D02*
X91236D01*
X91251Y87496D01*
X91262Y87500D01*
X91270Y87504D01*
X91273Y87506D01*
X91284Y87517D01*
X91290Y87530D01*
X91294Y87539D01*
X91296Y87541D01*
Y87543D01*
X91494Y88331D01*
X91633D01*
X91649Y88333D01*
X91660Y88339D01*
X91670Y88344D01*
X91671Y88346D01*
X91683Y88359D01*
X91688Y88368D01*
X91692Y88376D01*
X91694Y88380D01*
Y87494D01*
D02*
G37*
G36*
X95153Y88702D02*
X95177Y88696D01*
X95197Y88687D01*
X95214Y88678D01*
X95227Y88667D01*
X95236Y88659D01*
X95241Y88652D01*
X95243Y88650D01*
X95256Y88630D01*
X95264Y88607D01*
X95267Y88585D01*
Y88565D01*
Y88548D01*
X95266Y88533D01*
X95264Y88524D01*
Y88520D01*
X95171Y88150D01*
X94893D01*
X94867Y88152D01*
X94843Y88159D01*
X94825Y88167D01*
X94808Y88178D01*
X94793Y88187D01*
X94784Y88196D01*
X94779Y88202D01*
X94777Y88204D01*
X94771Y88212D01*
D01*
X94764Y88224D01*
D01*
X94756Y88246D01*
X94753Y88268D01*
X94751Y88289D01*
D01*
Y88307D01*
X94753Y88320D01*
X94754Y88330D01*
D01*
Y88333D01*
X94771Y88400D01*
X94801Y88518D01*
X94810Y88546D01*
X94823Y88572D01*
X94838Y88594D01*
X94853Y88613D01*
X94866Y88630D01*
X94877Y88641D01*
X94884Y88648D01*
X94888Y88650D01*
X94914Y88668D01*
X94938Y88681D01*
X94964Y88691D01*
X94986Y88696D01*
X95004Y88702D01*
X95019Y88704D01*
X95125D01*
X95153Y88702D01*
D02*
G37*
G36*
X90329Y88330D02*
X90342Y88328D01*
X90351Y88324D01*
X90359Y88318D01*
X90370Y88309D01*
X90373Y88307D01*
Y88305D01*
X90379Y88296D01*
X90385Y88285D01*
X90388Y88263D01*
Y88254D01*
X90386Y88248D01*
Y88243D01*
Y88241D01*
X90246Y87681D01*
X90242Y87667D01*
X90235Y87656D01*
X90220Y87635D01*
X90212Y87628D01*
X90207Y87622D01*
X90203Y87618D01*
X90201Y87617D01*
X90188Y87607D01*
X90177Y87602D01*
X90153Y87594D01*
X90144Y87593D01*
X90136Y87591D01*
X89944D01*
X89931Y87593D01*
X89918Y87594D01*
X89899Y87604D01*
X89894Y87609D01*
X89888Y87613D01*
X89886Y87615D01*
X89885Y87617D01*
X89879Y87628D01*
X89875Y87637D01*
X89874Y87659D01*
Y87668D01*
Y87676D01*
X89875Y87680D01*
Y87681D01*
X90016Y88241D01*
X90020Y88254D01*
X90027Y88267D01*
X90040Y88287D01*
X90048Y88294D01*
X90053Y88300D01*
X90057Y88302D01*
X90059Y88304D01*
X90072Y88313D01*
X90085Y88320D01*
X90096Y88324D01*
X90107Y88328D01*
X90116Y88330D01*
X90123Y88331D01*
X90316D01*
X90329Y88330D01*
D02*
G37*
G36*
X89622D02*
X89635Y88328D01*
X89644Y88324D01*
X89651Y88318D01*
X89662Y88309D01*
X89666Y88307D01*
Y88305D01*
X89672Y88296D01*
X89677Y88285D01*
X89681Y88263D01*
Y88254D01*
X89679Y88248D01*
Y88243D01*
Y88241D01*
X89538Y87681D01*
X89535Y87667D01*
X89527Y87656D01*
X89512Y87635D01*
X89505Y87628D01*
X89499Y87622D01*
X89496Y87618D01*
X89494Y87617D01*
X89481Y87607D01*
X89470Y87602D01*
X89446Y87594D01*
X89437Y87593D01*
X89429Y87591D01*
X89237D01*
X89224Y87593D01*
X89211Y87594D01*
X89192Y87604D01*
X89187Y87609D01*
X89181Y87613D01*
X89179Y87615D01*
X89177Y87617D01*
X89172Y87628D01*
X89168Y87637D01*
X89166Y87659D01*
Y87668D01*
Y87676D01*
X89168Y87680D01*
Y87681D01*
X89309Y88241D01*
X89312Y88254D01*
X89320Y88267D01*
X89333Y88287D01*
X89340Y88294D01*
X89346Y88300D01*
X89350Y88302D01*
X89351Y88304D01*
X89364Y88313D01*
X89377Y88320D01*
X89388Y88324D01*
X89399Y88328D01*
X89409Y88330D01*
X89416Y88331D01*
X89609D01*
X89622Y88330D01*
D02*
G37*
G36*
X88905D02*
X88916Y88328D01*
X88927Y88324D01*
X88935Y88318D01*
X88942Y88313D01*
X88946Y88309D01*
X88950Y88307D01*
Y88305D01*
X88955Y88296D01*
X88961Y88285D01*
X88963Y88274D01*
Y88263D01*
Y88254D01*
Y88248D01*
X88961Y88243D01*
Y88241D01*
X88822Y87681D01*
X88816Y87668D01*
X88811Y87656D01*
X88794Y87635D01*
X88787Y87628D01*
X88781Y87622D01*
X88777Y87618D01*
X88775Y87617D01*
X88763Y87607D01*
X88751Y87602D01*
X88727Y87594D01*
X88718Y87593D01*
X88711Y87591D01*
X88429D01*
X88553Y88087D01*
X88614Y88331D01*
X88890D01*
X88905Y88330D01*
D02*
G37*
%LPC*%
G36*
X94890Y61720D02*
X94881D01*
X94870Y61718D01*
X94857Y61713D01*
X94842Y61707D01*
X94826Y61698D01*
X94809Y61685D01*
X94794Y61667D01*
X94792Y61665D01*
X94789Y61657D01*
X94781Y61644D01*
X94776Y61626D01*
X94768Y61604D01*
X94761Y61578D01*
X94757Y61544D01*
X94755Y61507D01*
Y61506D01*
Y61502D01*
Y61496D01*
Y61489D01*
X94757Y61467D01*
X94761Y61441D01*
X94766Y61413D01*
X94774Y61383D01*
X94783Y61354D01*
X94798Y61328D01*
X94800Y61326D01*
X94805Y61318D01*
X94814Y61309D01*
X94827Y61298D01*
X94842Y61285D01*
X94859Y61276D01*
X94879Y61268D01*
X94900Y61267D01*
X94909D01*
X94918Y61268D01*
X94931Y61272D01*
X94946Y61280D01*
X94961Y61287D01*
X94976Y61300D01*
X94990Y61317D01*
X94992Y61318D01*
X94996Y61326D01*
X95002Y61339D01*
X95009Y61357D01*
X95016Y61381D01*
X95022Y61411D01*
X95026Y61446D01*
X95027Y61487D01*
Y61489D01*
Y61493D01*
Y61498D01*
Y61507D01*
X95026Y61528D01*
X95022Y61554D01*
X95018Y61583D01*
X95011Y61613D01*
X95000Y61639D01*
X94987Y61663D01*
X94985Y61665D01*
X94979Y61672D01*
X94972Y61681D01*
X94961Y61693D01*
X94946Y61702D01*
X94929Y61711D01*
X94911Y61718D01*
X94890Y61720D01*
D02*
G37*
G36*
X86871Y61630D02*
X86645D01*
Y61298D01*
X86891D01*
X86910Y61300D01*
X86949Y61304D01*
X86967Y61306D01*
X86984Y61309D01*
X86986D01*
X86991Y61311D01*
X86997Y61315D01*
X87006Y61320D01*
X87017Y61328D01*
X87028Y61335D01*
X87039Y61348D01*
X87050Y61361D01*
X87052Y61363D01*
X87056Y61368D01*
X87060Y61378D01*
X87065Y61389D01*
X87071Y61404D01*
X87076Y61420D01*
X87078Y61439D01*
X87080Y61459D01*
Y61461D01*
Y61467D01*
X87078Y61476D01*
X87076Y61485D01*
X87075Y61498D01*
X87069Y61513D01*
X87063Y61528D01*
X87054Y61544D01*
X87043Y61561D01*
X87028Y61576D01*
X87012Y61591D01*
X86991Y61604D01*
X86967Y61615D01*
X86939Y61622D01*
X86908Y61628D01*
X86871Y61630D01*
D02*
G37*
G36*
X96861Y62142D02*
X96859D01*
X96851Y62141D01*
X96840Y62139D01*
X96827Y62133D01*
X96812Y62124D01*
X96796Y62109D01*
X96781Y62091D01*
X96768Y62065D01*
X96766Y62061D01*
X96764Y62055D01*
X96762Y62048D01*
X96761Y62039D01*
X96757Y62026D01*
X96755Y62009D01*
X96751Y61991D01*
X96748Y61968D01*
X96746Y61942D01*
X96742Y61913D01*
X96740Y61880D01*
X96738Y61842D01*
X96737Y61802D01*
X96735Y61755D01*
Y61704D01*
Y61700D01*
Y61691D01*
Y61678D01*
Y61657D01*
X96737Y61635D01*
Y61609D01*
X96738Y61581D01*
Y61552D01*
X96742Y61491D01*
X96746Y61459D01*
X96749Y61431D01*
X96753Y61404D01*
X96757Y61380D01*
X96762Y61359D01*
X96768Y61343D01*
X96770Y61339D01*
X96774Y61331D01*
X96781Y61318D01*
X96792Y61306D01*
X96805Y61291D01*
X96822Y61278D01*
X96840Y61270D01*
X96861Y61267D01*
X96862D01*
X96870Y61268D01*
X96881Y61270D01*
X96894Y61276D01*
X96909Y61285D01*
X96924Y61298D01*
X96938Y61317D01*
X96951Y61343D01*
Y61344D01*
X96953Y61346D01*
X96955Y61352D01*
X96957Y61359D01*
X96959Y61368D01*
X96962Y61381D01*
X96966Y61398D01*
X96970Y61417D01*
X96972Y61439D01*
X96975Y61465D01*
X96979Y61494D01*
X96981Y61528D01*
X96983Y61565D01*
X96985Y61605D01*
X96986Y61652D01*
Y61704D01*
Y61707D01*
Y61717D01*
Y61731D01*
Y61750D01*
X96985Y61772D01*
Y61798D01*
X96983Y61826D01*
Y61855D01*
X96977Y61917D01*
X96975Y61948D01*
X96972Y61976D01*
X96968Y62004D01*
X96962Y62028D01*
X96957Y62048D01*
X96951Y62065D01*
X96949Y62068D01*
X96946Y62078D01*
X96938Y62089D01*
X96927Y62104D01*
X96914Y62118D01*
X96899Y62130D01*
X96881Y62139D01*
X96861Y62142D01*
D02*
G37*
G36*
X94068D02*
X94066D01*
X94059Y62141D01*
X94048Y62139D01*
X94035Y62133D01*
X94020Y62124D01*
X94003Y62109D01*
X93989Y62091D01*
X93976Y62065D01*
X93974Y62061D01*
X93972Y62055D01*
X93970Y62048D01*
X93968Y62039D01*
X93965Y62026D01*
X93963Y62009D01*
X93959Y61991D01*
X93955Y61968D01*
X93953Y61942D01*
X93950Y61913D01*
X93948Y61880D01*
X93946Y61842D01*
X93944Y61802D01*
X93942Y61755D01*
Y61704D01*
Y61700D01*
Y61691D01*
Y61678D01*
Y61657D01*
X93944Y61635D01*
Y61609D01*
X93946Y61581D01*
Y61552D01*
X93950Y61491D01*
X93953Y61459D01*
X93957Y61431D01*
X93961Y61404D01*
X93965Y61380D01*
X93970Y61359D01*
X93976Y61343D01*
X93978Y61339D01*
X93981Y61331D01*
X93989Y61318D01*
X94000Y61306D01*
X94013Y61291D01*
X94029Y61278D01*
X94048Y61270D01*
X94068Y61267D01*
X94070D01*
X94078Y61268D01*
X94089Y61270D01*
X94102Y61276D01*
X94116Y61285D01*
X94131Y61298D01*
X94146Y61317D01*
X94159Y61343D01*
Y61344D01*
X94161Y61346D01*
X94163Y61352D01*
X94165Y61359D01*
X94166Y61368D01*
X94170Y61381D01*
X94174Y61398D01*
X94178Y61417D01*
X94179Y61439D01*
X94183Y61465D01*
X94187Y61494D01*
X94189Y61528D01*
X94190Y61565D01*
X94192Y61605D01*
X94194Y61652D01*
Y61704D01*
Y61707D01*
Y61717D01*
Y61731D01*
Y61750D01*
X94192Y61772D01*
Y61798D01*
X94190Y61826D01*
Y61855D01*
X94185Y61917D01*
X94183Y61948D01*
X94179Y61976D01*
X94176Y62004D01*
X94170Y62028D01*
X94165Y62048D01*
X94159Y62065D01*
X94157Y62068D01*
X94153Y62078D01*
X94146Y62089D01*
X94135Y62104D01*
X94122Y62118D01*
X94107Y62130D01*
X94089Y62139D01*
X94068Y62142D01*
D02*
G37*
%LPD*%
D10*
X59901Y80000D02*
G03*
X59901Y80000I-1J0D01*
G01*
X103101Y72700D02*
G03*
X103101Y72700I-1J0D01*
G01*
D11*
X72425Y78900D02*
G03*
X72425Y78900I-125J0D01*
G01*
D12*
X92250Y75750D02*
G03*
X92750Y75250I500J0D01*
G01*
X93250D02*
G03*
X93750Y75750I0J500D01*
G01*
X93750Y77650D02*
G03*
X93250Y78150I-500J-0D01*
G01*
X92750D02*
G03*
X92250Y77650I0J-500D01*
G01*
X64800Y67371D02*
G03*
X64800Y67371I-100J0D01*
G01*
X55125Y67295D02*
G03*
X55125Y67295I-100J0D01*
G01*
X86600Y75100D02*
G03*
X87150Y75650I0J550D01*
G01*
X83850D02*
G03*
X84400Y75100I550J0D01*
G01*
Y79700D02*
G03*
X83850Y79150I0J-550D01*
G01*
X87150D02*
G03*
X86600Y79700I-550J0D01*
G01*
X90800Y75100D02*
G03*
X91350Y75650I0J550D01*
G01*
X88050D02*
G03*
X88600Y75100I550J0D01*
G01*
Y79700D02*
G03*
X88050Y79150I0J-550D01*
G01*
X91350D02*
G03*
X90800Y79700I-550J0D01*
G01*
X82950Y79250D02*
G03*
X82450Y79750I-500J-0D01*
G01*
X81950D02*
G03*
X81450Y79250I0J-500D01*
G01*
X81450Y77350D02*
G03*
X81950Y76850I500J0D01*
G01*
X82450D02*
G03*
X82950Y77350I0J500D01*
G01*
X71450Y79850D02*
G03*
X70950Y80350I-500J-0D01*
G01*
X70450D02*
G03*
X69950Y79850I0J-500D01*
G01*
X69950Y77950D02*
G03*
X70450Y77450I500J0D01*
G01*
X70950D02*
G03*
X71450Y77950I0J500D01*
G01*
X63000Y79550D02*
G03*
X62500Y79050I0J-500D01*
G01*
Y78550D02*
G03*
X63000Y78050I500J0D01*
G01*
X64900Y78050D02*
G03*
X65400Y78550I-0J500D01*
G01*
Y79050D02*
G03*
X64900Y79550I-500J0D01*
G01*
X97200Y85950D02*
G03*
X96850Y85600I0J-350D01*
G01*
Y84800D02*
G03*
X97200Y84450I350J-0D01*
G01*
X96850Y84800D02*
G03*
X97200Y84450I350J0D01*
G01*
Y85950D02*
G03*
X96850Y85600I0J-350D01*
G01*
X99400Y84450D02*
G03*
X99750Y84800I-0J350D01*
G01*
Y85600D02*
G03*
X99400Y85950I-350J0D01*
G01*
X83350Y73950D02*
G03*
X82850Y74450I-500J-0D01*
G01*
X82350D02*
G03*
X81850Y73950I0J-500D01*
G01*
X81850Y72050D02*
G03*
X82350Y71550I500J0D01*
G01*
X82850D02*
G03*
X83350Y72050I0J500D01*
G01*
X76800Y70650D02*
G03*
X76300Y70150I0J-500D01*
G01*
Y69650D02*
G03*
X76800Y69150I500J0D01*
G01*
X78700Y69150D02*
G03*
X79200Y69650I-0J500D01*
G01*
Y70150D02*
G03*
X78700Y70650I-500J0D01*
G01*
X67100Y76200D02*
G03*
X66550Y75650I0J-550D01*
G01*
X69850D02*
G03*
X69300Y76200I-550J0D01*
G01*
Y71600D02*
G03*
X69850Y72150I0J550D01*
G01*
X66550D02*
G03*
X67100Y71600I550J0D01*
G01*
X62900Y76200D02*
G03*
X62350Y75650I0J-550D01*
G01*
X65650D02*
G03*
X65100Y76200I-550J0D01*
G01*
Y71600D02*
G03*
X65650Y72150I0J550D01*
G01*
X62350D02*
G03*
X62900Y71600I550J0D01*
G01*
X51600Y80700D02*
X60400D01*
Y73300D02*
Y80700D01*
X51600Y73300D02*
X60400D01*
X51600D02*
Y80700D01*
X96100Y73400D02*
X103300D01*
Y80600D01*
X96100D02*
X103300D01*
X96100Y73400D02*
Y80600D01*
X74250Y78500D02*
X77950D01*
X74250Y71900D02*
X77950D01*
X92750Y75250D02*
X93250D01*
X92250Y75750D02*
Y77650D01*
X93750Y75750D02*
Y77650D01*
X92750Y78150D02*
X93250D01*
X67645Y61401D02*
Y61930D01*
X65270Y61401D02*
Y61901D01*
X67645Y66901D02*
Y67430D01*
X65270Y61401D02*
X67645D01*
X65270Y66901D02*
Y67430D01*
X65275D02*
X67645D01*
X57970Y61325D02*
Y61854D01*
X55595Y61325D02*
Y61825D01*
X57970Y66825D02*
Y67354D01*
X55595Y61325D02*
X57970D01*
X55595Y66825D02*
Y67354D01*
X55600D02*
X57970D01*
X72300Y88250D02*
X79900D01*
X72300Y81350D02*
X79900D01*
X72300Y86775D02*
Y88250D01*
X79900Y86775D02*
Y88250D01*
X72300Y81350D02*
Y82825D01*
X79900Y81350D02*
Y82825D01*
X96900Y83750D02*
X99800D01*
X96900Y82250D02*
Y83750D01*
X99800Y82250D02*
Y83750D01*
X96900Y82250D02*
X99800D01*
X87150Y75650D02*
Y79150D01*
X83850Y75650D02*
Y79150D01*
X84400Y79700D02*
X86600D01*
X84400Y75100D02*
X86600D01*
X91350Y75650D02*
Y79150D01*
X88050Y75650D02*
Y79150D01*
X88600Y79700D02*
X90800D01*
X88600Y75100D02*
X90800D01*
X81950Y79750D02*
X82450D01*
X82950Y77350D02*
Y79250D01*
X81450Y77350D02*
Y79250D01*
X81950Y76850D02*
X82450D01*
X70450Y80350D02*
X70950D01*
X71450Y77950D02*
Y79850D01*
X69950Y77950D02*
Y79850D01*
X70450Y77450D02*
X70950D01*
X62500Y78550D02*
Y79050D01*
X63000Y79550D02*
X64900D01*
X63000Y78050D02*
X64900D01*
X65400Y78550D02*
Y79050D01*
X63250Y81550D02*
X65150D01*
X63250Y80050D02*
X65150D01*
X63250Y81300D02*
Y81550D01*
X65150Y81300D02*
Y81550D01*
X63250Y80050D02*
Y80300D01*
X65150Y80050D02*
Y80300D01*
X96850Y84800D02*
Y85600D01*
X99800Y84650D02*
Y85750D01*
X99600Y85950D02*
Y85950D01*
X99800Y84650D02*
Y84650D01*
X99600Y84450D02*
X99800Y84650D01*
X99600Y85950D02*
X99800Y85750D01*
X96800Y84650D02*
X97000Y84450D01*
X96800Y85750D02*
X97000Y85950D01*
X96800Y85750D02*
Y85750D01*
X97000Y85950D02*
X99600D01*
X96800Y84650D02*
Y85750D01*
X97000Y84450D02*
X99600D01*
X96850Y84800D02*
Y85600D01*
X99750Y84800D02*
Y85600D01*
X82350Y74450D02*
X82850D01*
X83350Y72050D02*
Y73950D01*
X81850Y72050D02*
Y73950D01*
X82350Y71550D02*
X82850D01*
X87250Y71350D02*
Y74250D01*
Y71350D02*
X88750D01*
X87250Y74250D02*
X88750D01*
Y71350D02*
Y74250D01*
X84450Y71350D02*
Y74250D01*
Y71350D02*
X85950D01*
X84450Y74250D02*
X85950D01*
Y71350D02*
Y74250D01*
X76300Y69650D02*
Y70150D01*
X76800Y70650D02*
X78700D01*
X76800Y69150D02*
X78700D01*
X79200Y69650D02*
Y70150D01*
X66550Y72150D02*
Y75650D01*
X69850Y72150D02*
Y75650D01*
X67100Y71600D02*
X69300D01*
X67100Y76200D02*
X69300D01*
X62350Y72150D02*
Y75650D01*
X65650Y72150D02*
Y75650D01*
X62900Y71600D02*
X65100D01*
X62900Y76200D02*
X65100D01*
D13*
X62750Y81300D02*
G03*
X62750Y81300I-50J0D01*
G01*
X99600Y85950D02*
Y85950D01*
X97000Y84450D02*
Y84450D01*
D14*
X98175Y85200D02*
X98525Y84850D01*
X98175Y85200D02*
X98525Y85550D01*
Y84850D02*
Y85550D01*
X98075D02*
X98175D01*
X98075Y84850D02*
X98175D01*
Y85550D01*
X98075Y84850D02*
Y85550D01*
D15*
X72900Y80724D02*
Y79200D01*
X73662D01*
X73916Y79454D01*
Y80470D01*
X73662Y80724D01*
X72900D01*
X74424D02*
Y79200D01*
X75185D01*
X75439Y79454D01*
Y80470D01*
X75185Y80724D01*
X74424D01*
X75947Y79200D02*
X76455D01*
X76201D01*
Y80724D01*
X75947Y80470D01*
X51000Y71524D02*
X52016Y70000D01*
Y71524D02*
X51000Y70000D01*
X52524D02*
X53031D01*
X52777D01*
Y71524D01*
X52524Y71270D01*
X96100Y72424D02*
X97116Y70900D01*
Y72424D02*
X96100Y70900D01*
X98639D02*
X97624D01*
X98639Y71916D01*
Y72170D01*
X98385Y72424D01*
X97877D01*
X97624Y72170D01*
X62500Y86424D02*
Y85408D01*
X63008Y84900D01*
X63516Y85408D01*
Y86424D01*
X64024D02*
Y84900D01*
X64785D01*
X65039Y85154D01*
Y86170D01*
X64785Y86424D01*
X64024D01*
X65547Y84900D02*
X66055D01*
X65801D01*
Y86424D01*
X65547Y86170D01*
X61216Y62870D02*
X60962Y63124D01*
X60454D01*
X60200Y62870D01*
Y62616D01*
X60454Y62362D01*
X60962D01*
X61216Y62108D01*
Y61854D01*
X60962Y61600D01*
X60454D01*
X60200Y61854D01*
X62739Y61600D02*
X61724D01*
X62739Y62616D01*
Y62870D01*
X62485Y63124D01*
X61977D01*
X61724Y62870D01*
X70916D02*
X70662Y63124D01*
X70154D01*
X69900Y62870D01*
Y62616D01*
X70154Y62362D01*
X70662D01*
X70916Y62108D01*
Y61854D01*
X70662Y61600D01*
X70154D01*
X69900Y61854D01*
X71424Y61600D02*
X71931D01*
X71677D01*
Y63124D01*
X71424Y62870D01*
X100600Y82100D02*
Y83624D01*
X101362D01*
X101616Y83370D01*
Y82862D01*
X101362Y82608D01*
X100600D01*
X101108D02*
X101616Y82100D01*
X102123Y83370D02*
X102377Y83624D01*
X102885D01*
X103139Y83370D01*
Y83116D01*
X102885Y82862D01*
X102631D01*
X102885D01*
X103139Y82608D01*
Y82354D01*
X102885Y82100D01*
X102377D01*
X102123Y82354D01*
X88700Y81200D02*
Y82724D01*
X89462D01*
X89716Y82470D01*
Y81962D01*
X89462Y81708D01*
X88700D01*
X89208D02*
X89716Y81200D01*
X91239D02*
X90224D01*
X91239Y82216D01*
Y82470D01*
X90985Y82724D01*
X90477D01*
X90224Y82470D01*
X85600Y81200D02*
Y82724D01*
X86362D01*
X86616Y82470D01*
Y81962D01*
X86362Y81708D01*
X85600D01*
X86108D02*
X86616Y81200D01*
X87124D02*
X87631D01*
X87377D01*
Y82724D01*
X87124Y82470D01*
X69100Y88324D02*
Y86800D01*
X70116D01*
X70624D02*
X71131D01*
X70877D01*
Y88324D01*
X70624Y88070D01*
X100500Y85924D02*
Y84400D01*
Y85162D01*
X101516D01*
Y85924D01*
Y84400D01*
X102024Y85924D02*
Y84400D01*
X103039D01*
X103547D02*
X104055D01*
X103801D01*
Y85924D01*
X103547Y85670D01*
X92916Y84670D02*
X92662Y84924D01*
X92154D01*
X91900Y84670D01*
Y83654D01*
X92154Y83400D01*
X92662D01*
X92916Y83654D01*
X93424Y83400D02*
X93931D01*
X93677D01*
Y84924D01*
X93424Y84670D01*
X94693D02*
X94947Y84924D01*
X95455D01*
X95709Y84670D01*
Y83654D01*
X95455Y83400D01*
X94947D01*
X94693Y83654D01*
Y84670D01*
X89716D02*
X89462Y84924D01*
X88954D01*
X88700Y84670D01*
Y83654D01*
X88954Y83400D01*
X89462D01*
X89716Y83654D01*
X90224D02*
X90477Y83400D01*
X90985D01*
X91239Y83654D01*
Y84670D01*
X90985Y84924D01*
X90477D01*
X90224Y84670D01*
Y84416D01*
X90477Y84162D01*
X91239D01*
X86516Y84670D02*
X86262Y84924D01*
X85754D01*
X85500Y84670D01*
Y83654D01*
X85754Y83400D01*
X86262D01*
X86516Y83654D01*
X87024Y84670D02*
X87277Y84924D01*
X87785D01*
X88039Y84670D01*
Y84416D01*
X87785Y84162D01*
X88039Y83908D01*
Y83654D01*
X87785Y83400D01*
X87277D01*
X87024Y83654D01*
Y83908D01*
X87277Y84162D01*
X87024Y84416D01*
Y84670D01*
X87277Y84162D02*
X87785D01*
X83116Y84570D02*
X82862Y84824D01*
X82354D01*
X82100Y84570D01*
Y83554D01*
X82354Y83300D01*
X82862D01*
X83116Y83554D01*
X83624Y84824D02*
X84639D01*
Y84570D01*
X83624Y83554D01*
Y83300D01*
X83016Y82370D02*
X82762Y82624D01*
X82254D01*
X82000Y82370D01*
Y81354D01*
X82254Y81100D01*
X82762D01*
X83016Y81354D01*
X84539Y82624D02*
X84031Y82370D01*
X83524Y81862D01*
Y81354D01*
X83777Y81100D01*
X84285D01*
X84539Y81354D01*
Y81608D01*
X84285Y81862D01*
X83524D01*
X77416Y67570D02*
X77162Y67824D01*
X76654D01*
X76400Y67570D01*
Y66554D01*
X76654Y66300D01*
X77162D01*
X77416Y66554D01*
X78939Y67824D02*
X77924D01*
Y67062D01*
X78431Y67316D01*
X78685D01*
X78939Y67062D01*
Y66554D01*
X78685Y66300D01*
X78177D01*
X77924Y66554D01*
X68230Y78816D02*
X67976Y78562D01*
Y78054D01*
X68230Y77800D01*
X69246D01*
X69500Y78054D01*
Y78562D01*
X69246Y78816D01*
X69500Y80085D02*
X67976D01*
X68738Y79324D01*
Y80339D01*
X63516Y84070D02*
X63262Y84324D01*
X62754D01*
X62500Y84070D01*
Y83054D01*
X62754Y82800D01*
X63262D01*
X63516Y83054D01*
X64024Y84070D02*
X64277Y84324D01*
X64785D01*
X65039Y84070D01*
Y83816D01*
X64785Y83562D01*
X64531D01*
X64785D01*
X65039Y83308D01*
Y83054D01*
X64785Y82800D01*
X64277D01*
X64024Y83054D01*
X67816Y69970D02*
X67562Y70224D01*
X67054D01*
X66800Y69970D01*
Y68954D01*
X67054Y68700D01*
X67562D01*
X67816Y68954D01*
X69339Y68700D02*
X68324D01*
X69339Y69716D01*
Y69970D01*
X69085Y70224D01*
X68577D01*
X68324Y69970D01*
X63516Y70070D02*
X63262Y70324D01*
X62754D01*
X62500Y70070D01*
Y69054D01*
X62754Y68800D01*
X63262D01*
X63516Y69054D01*
X64024Y68800D02*
X64531D01*
X64277D01*
Y70324D01*
X64024Y70070D01*
D16*
X98125Y85200D02*
D03*
M02*
