G04*
G04 #@! TF.GenerationSoftware,Altium Limited,Altium Designer,19.1.6 (110)*
G04*
G04 Layer_Color=32896*
%FSLAX43Y43*%
%MOMM*%
G71*
G01*
G75*
G36*
X91576Y62339D02*
X91617Y62329D01*
X91654Y62317D01*
X91683Y62304D01*
X91707Y62289D01*
X91726Y62276D01*
X91737Y62267D01*
X91739Y62265D01*
X91741Y62263D01*
X91755Y62248D01*
X91768Y62229D01*
X91792Y62191D01*
X91811Y62150D01*
X91826Y62109D01*
X91837Y62072D01*
X91841Y62057D01*
X91844Y62042D01*
X91846Y62031D01*
X91848Y62022D01*
X91850Y62017D01*
Y62015D01*
X91668Y61978D01*
X91665Y62007D01*
X91659Y62031D01*
X91652Y62054D01*
X91644Y62070D01*
X91637Y62083D01*
X91631Y62094D01*
X91628Y62100D01*
X91626Y62102D01*
X91611Y62117D01*
X91596Y62126D01*
X91581Y62133D01*
X91568Y62139D01*
X91557Y62142D01*
X91546Y62144D01*
X91539D01*
X91520Y62142D01*
X91504Y62139D01*
X91489Y62133D01*
X91478Y62126D01*
X91468Y62118D01*
X91461Y62113D01*
X91457Y62109D01*
X91455Y62107D01*
X91444Y62092D01*
X91437Y62076D01*
X91429Y62059D01*
X91426Y62044D01*
X91424Y62030D01*
X91422Y62018D01*
Y62011D01*
Y62007D01*
X91424Y61980D01*
X91429Y61955D01*
X91437Y61935D01*
X91444Y61918D01*
X91452Y61905D01*
X91459Y61894D01*
X91465Y61889D01*
X91467Y61887D01*
X91485Y61874D01*
X91504Y61863D01*
X91524Y61857D01*
X91544Y61852D01*
X91561Y61850D01*
X91576Y61848D01*
X91589D01*
X91609Y61652D01*
X91591Y61657D01*
X91574Y61663D01*
X91557Y61667D01*
X91544Y61668D01*
X91535Y61670D01*
X91520D01*
X91500Y61668D01*
X91481Y61663D01*
X91465Y61654D01*
X91450Y61644D01*
X91439Y61633D01*
X91429Y61626D01*
X91424Y61618D01*
X91422Y61617D01*
X91409Y61596D01*
X91398Y61572D01*
X91391Y61548D01*
X91387Y61526D01*
X91383Y61505D01*
X91381Y61489D01*
Y61478D01*
Y61476D01*
Y61474D01*
X91383Y61439D01*
X91389Y61409D01*
X91394Y61381D01*
X91402Y61361D01*
X91411Y61343D01*
X91417Y61331D01*
X91422Y61322D01*
X91424Y61320D01*
X91441Y61302D01*
X91457Y61289D01*
X91476Y61280D01*
X91492Y61274D01*
X91505Y61270D01*
X91517Y61267D01*
X91528D01*
X91548Y61268D01*
X91566Y61274D01*
X91583Y61281D01*
X91596Y61291D01*
X91607Y61298D01*
X91617Y61306D01*
X91622Y61311D01*
X91624Y61313D01*
X91637Y61331D01*
X91648Y61354D01*
X91657Y61376D01*
X91663Y61398D01*
X91668Y61418D01*
X91670Y61433D01*
X91672Y61444D01*
Y61446D01*
Y61448D01*
X91863Y61420D01*
X91854Y61361D01*
X91841Y61311D01*
X91831Y61287D01*
X91822Y61267D01*
X91813Y61246D01*
X91804Y61230D01*
X91794Y61213D01*
X91785Y61200D01*
X91778Y61189D01*
X91770Y61178D01*
X91765Y61170D01*
X91759Y61165D01*
X91757Y61163D01*
X91755Y61161D01*
X91737Y61144D01*
X91718Y61130D01*
X91700Y61117D01*
X91679Y61107D01*
X91641Y61089D01*
X91605Y61078D01*
X91574Y61072D01*
X91559Y61070D01*
X91548Y61069D01*
X91539Y61067D01*
X91526D01*
X91500Y61069D01*
X91476Y61072D01*
X91452Y61078D01*
X91428Y61083D01*
X91387Y61102D01*
X91352Y61122D01*
X91322Y61143D01*
X91311Y61152D01*
X91302Y61161D01*
X91294Y61167D01*
X91287Y61172D01*
X91285Y61176D01*
X91283Y61178D01*
X91265Y61200D01*
X91248Y61222D01*
X91235Y61246D01*
X91224Y61270D01*
X91205Y61317D01*
X91192Y61361D01*
X91189Y61383D01*
X91185Y61402D01*
X91183Y61418D01*
X91181Y61433D01*
X91180Y61444D01*
Y61454D01*
Y61459D01*
Y61461D01*
X91181Y61504D01*
X91189Y61543D01*
X91196Y61576D01*
X91207Y61604D01*
X91217Y61626D01*
X91226Y61643D01*
X91233Y61654D01*
X91235Y61657D01*
X91257Y61685D01*
X91279Y61707D01*
X91302Y61724D01*
X91324Y61739D01*
X91344Y61748D01*
X91359Y61754D01*
X91370Y61757D01*
X91372Y61759D01*
X91374D01*
X91348Y61778D01*
X91326Y61798D01*
X91305Y61818D01*
X91291Y61835D01*
X91278Y61852D01*
X91270Y61863D01*
X91265Y61870D01*
X91263Y61874D01*
X91250Y61900D01*
X91241Y61926D01*
X91233Y61950D01*
X91229Y61974D01*
X91226Y61992D01*
X91224Y62009D01*
Y62018D01*
Y62022D01*
Y62044D01*
X91228Y62067D01*
X91237Y62107D01*
X91250Y62144D01*
X91265Y62178D01*
X91281Y62205D01*
X91289Y62217D01*
X91294Y62226D01*
X91300Y62233D01*
X91304Y62239D01*
X91305Y62241D01*
X91307Y62242D01*
X91324Y62261D01*
X91341Y62276D01*
X91359Y62289D01*
X91378Y62300D01*
X91415Y62318D01*
X91450Y62329D01*
X91483Y62337D01*
X91496Y62339D01*
X91507Y62341D01*
X91518Y62342D01*
X91554D01*
X91576Y62339D01*
D02*
G37*
G36*
X90778D02*
X90818Y62329D01*
X90855Y62317D01*
X90885Y62304D01*
X90909Y62289D01*
X90928Y62276D01*
X90939Y62267D01*
X90941Y62265D01*
X90942Y62263D01*
X90957Y62248D01*
X90970Y62229D01*
X90994Y62191D01*
X91013Y62150D01*
X91028Y62109D01*
X91039Y62072D01*
X91042Y62057D01*
X91046Y62042D01*
X91048Y62031D01*
X91050Y62022D01*
X91052Y62017D01*
Y62015D01*
X90870Y61978D01*
X90867Y62007D01*
X90861Y62031D01*
X90854Y62054D01*
X90846Y62070D01*
X90839Y62083D01*
X90833Y62094D01*
X90830Y62100D01*
X90828Y62102D01*
X90813Y62117D01*
X90798Y62126D01*
X90783Y62133D01*
X90770Y62139D01*
X90759Y62142D01*
X90748Y62144D01*
X90741D01*
X90722Y62142D01*
X90705Y62139D01*
X90691Y62133D01*
X90680Y62126D01*
X90670Y62118D01*
X90663Y62113D01*
X90659Y62109D01*
X90657Y62107D01*
X90646Y62092D01*
X90639Y62076D01*
X90631Y62059D01*
X90628Y62044D01*
X90626Y62030D01*
X90624Y62018D01*
Y62011D01*
Y62007D01*
X90626Y61980D01*
X90631Y61955D01*
X90639Y61935D01*
X90646Y61918D01*
X90654Y61905D01*
X90661Y61894D01*
X90667Y61889D01*
X90668Y61887D01*
X90687Y61874D01*
X90705Y61863D01*
X90726Y61857D01*
X90746Y61852D01*
X90763Y61850D01*
X90778Y61848D01*
X90791D01*
X90811Y61652D01*
X90793Y61657D01*
X90776Y61663D01*
X90759Y61667D01*
X90746Y61668D01*
X90737Y61670D01*
X90722D01*
X90702Y61668D01*
X90683Y61663D01*
X90667Y61654D01*
X90652Y61644D01*
X90641Y61633D01*
X90631Y61626D01*
X90626Y61618D01*
X90624Y61617D01*
X90611Y61596D01*
X90600Y61572D01*
X90593Y61548D01*
X90589Y61526D01*
X90585Y61505D01*
X90583Y61489D01*
Y61478D01*
Y61476D01*
Y61474D01*
X90585Y61439D01*
X90591Y61409D01*
X90596Y61381D01*
X90604Y61361D01*
X90613Y61343D01*
X90618Y61331D01*
X90624Y61322D01*
X90626Y61320D01*
X90643Y61302D01*
X90659Y61289D01*
X90678Y61280D01*
X90694Y61274D01*
X90707Y61270D01*
X90718Y61267D01*
X90730D01*
X90750Y61268D01*
X90768Y61274D01*
X90785Y61281D01*
X90798Y61291D01*
X90809Y61298D01*
X90818Y61306D01*
X90824Y61311D01*
X90826Y61313D01*
X90839Y61331D01*
X90850Y61354D01*
X90859Y61376D01*
X90865Y61398D01*
X90870Y61418D01*
X90872Y61433D01*
X90874Y61444D01*
Y61446D01*
Y61448D01*
X91065Y61420D01*
X91055Y61361D01*
X91042Y61311D01*
X91033Y61287D01*
X91024Y61267D01*
X91015Y61246D01*
X91005Y61230D01*
X90996Y61213D01*
X90987Y61200D01*
X90980Y61189D01*
X90972Y61178D01*
X90967Y61170D01*
X90961Y61165D01*
X90959Y61163D01*
X90957Y61161D01*
X90939Y61144D01*
X90920Y61130D01*
X90902Y61117D01*
X90881Y61107D01*
X90842Y61089D01*
X90807Y61078D01*
X90776Y61072D01*
X90761Y61070D01*
X90750Y61069D01*
X90741Y61067D01*
X90728D01*
X90702Y61069D01*
X90678Y61072D01*
X90654Y61078D01*
X90630Y61083D01*
X90589Y61102D01*
X90554Y61122D01*
X90524Y61143D01*
X90513Y61152D01*
X90504Y61161D01*
X90496Y61167D01*
X90489Y61172D01*
X90487Y61176D01*
X90485Y61178D01*
X90467Y61200D01*
X90450Y61222D01*
X90437Y61246D01*
X90426Y61270D01*
X90407Y61317D01*
X90394Y61361D01*
X90391Y61383D01*
X90387Y61402D01*
X90385Y61418D01*
X90383Y61433D01*
X90381Y61444D01*
Y61454D01*
Y61459D01*
Y61461D01*
X90383Y61504D01*
X90391Y61543D01*
X90398Y61576D01*
X90409Y61604D01*
X90418Y61626D01*
X90428Y61643D01*
X90435Y61654D01*
X90437Y61657D01*
X90459Y61685D01*
X90481Y61707D01*
X90504Y61724D01*
X90526Y61739D01*
X90546Y61748D01*
X90561Y61754D01*
X90572Y61757D01*
X90574Y61759D01*
X90576D01*
X90550Y61778D01*
X90528Y61798D01*
X90507Y61818D01*
X90493Y61835D01*
X90480Y61852D01*
X90472Y61863D01*
X90467Y61870D01*
X90465Y61874D01*
X90452Y61900D01*
X90443Y61926D01*
X90435Y61950D01*
X90431Y61974D01*
X90428Y61992D01*
X90426Y62009D01*
Y62018D01*
Y62022D01*
Y62044D01*
X90430Y62067D01*
X90439Y62107D01*
X90452Y62144D01*
X90467Y62178D01*
X90483Y62205D01*
X90491Y62217D01*
X90496Y62226D01*
X90502Y62233D01*
X90506Y62239D01*
X90507Y62241D01*
X90509Y62242D01*
X90526Y62261D01*
X90543Y62276D01*
X90561Y62289D01*
X90580Y62300D01*
X90617Y62318D01*
X90652Y62329D01*
X90685Y62337D01*
X90698Y62339D01*
X90709Y62341D01*
X90720Y62342D01*
X90755D01*
X90778Y62339D01*
D02*
G37*
G36*
X89980Y62339D02*
X90020Y62329D01*
X90057Y62317D01*
X90087Y62304D01*
X90111Y62289D01*
X90130Y62276D01*
X90141Y62267D01*
X90143Y62265D01*
X90144Y62263D01*
X90159Y62248D01*
X90172Y62229D01*
X90196Y62191D01*
X90215Y62150D01*
X90230Y62109D01*
X90241Y62072D01*
X90244Y62057D01*
X90248Y62042D01*
X90250Y62031D01*
X90252Y62022D01*
X90254Y62017D01*
Y62015D01*
X90072Y61978D01*
X90069Y62007D01*
X90063Y62031D01*
X90056Y62054D01*
X90048Y62070D01*
X90041Y62083D01*
X90035Y62094D01*
X90031Y62100D01*
X90030Y62102D01*
X90015Y62117D01*
X90000Y62126D01*
X89985Y62133D01*
X89972Y62139D01*
X89961Y62142D01*
X89950Y62144D01*
X89943D01*
X89924Y62142D01*
X89907Y62139D01*
X89893Y62133D01*
X89881Y62126D01*
X89872Y62118D01*
X89865Y62113D01*
X89861Y62109D01*
X89859Y62107D01*
X89848Y62092D01*
X89841Y62076D01*
X89833Y62059D01*
X89830Y62044D01*
X89828Y62030D01*
X89826Y62018D01*
Y62011D01*
Y62007D01*
X89828Y61980D01*
X89833Y61955D01*
X89841Y61935D01*
X89848Y61918D01*
X89856Y61905D01*
X89863Y61894D01*
X89869Y61889D01*
X89870Y61887D01*
X89889Y61874D01*
X89907Y61863D01*
X89928Y61857D01*
X89948Y61852D01*
X89965Y61850D01*
X89980Y61848D01*
X89993D01*
X90013Y61652D01*
X89994Y61657D01*
X89978Y61663D01*
X89961Y61667D01*
X89948Y61668D01*
X89939Y61670D01*
X89924D01*
X89904Y61668D01*
X89885Y61663D01*
X89869Y61654D01*
X89854Y61644D01*
X89843Y61633D01*
X89833Y61626D01*
X89828Y61618D01*
X89826Y61617D01*
X89813Y61596D01*
X89802Y61572D01*
X89794Y61548D01*
X89791Y61526D01*
X89787Y61505D01*
X89785Y61489D01*
Y61478D01*
Y61476D01*
Y61474D01*
X89787Y61439D01*
X89793Y61409D01*
X89798Y61381D01*
X89806Y61361D01*
X89815Y61343D01*
X89820Y61331D01*
X89826Y61322D01*
X89828Y61320D01*
X89844Y61302D01*
X89861Y61289D01*
X89880Y61280D01*
X89896Y61274D01*
X89909Y61270D01*
X89920Y61267D01*
X89931D01*
X89952Y61268D01*
X89970Y61274D01*
X89987Y61281D01*
X90000Y61291D01*
X90011Y61298D01*
X90020Y61306D01*
X90026Y61311D01*
X90028Y61313D01*
X90041Y61331D01*
X90052Y61354D01*
X90061Y61376D01*
X90067Y61398D01*
X90072Y61418D01*
X90074Y61433D01*
X90076Y61444D01*
Y61446D01*
Y61448D01*
X90267Y61420D01*
X90257Y61361D01*
X90244Y61311D01*
X90235Y61287D01*
X90226Y61267D01*
X90217Y61246D01*
X90207Y61230D01*
X90198Y61213D01*
X90189Y61200D01*
X90181Y61189D01*
X90174Y61178D01*
X90169Y61170D01*
X90163Y61165D01*
X90161Y61163D01*
X90159Y61161D01*
X90141Y61144D01*
X90122Y61130D01*
X90104Y61117D01*
X90083Y61107D01*
X90044Y61089D01*
X90009Y61078D01*
X89978Y61072D01*
X89963Y61070D01*
X89952Y61069D01*
X89943Y61067D01*
X89930D01*
X89904Y61069D01*
X89880Y61072D01*
X89856Y61078D01*
X89831Y61083D01*
X89791Y61102D01*
X89756Y61122D01*
X89726Y61143D01*
X89715Y61152D01*
X89706Y61161D01*
X89698Y61167D01*
X89691Y61172D01*
X89689Y61176D01*
X89687Y61178D01*
X89669Y61200D01*
X89652Y61222D01*
X89639Y61246D01*
X89628Y61270D01*
X89609Y61317D01*
X89596Y61361D01*
X89593Y61383D01*
X89589Y61402D01*
X89587Y61418D01*
X89585Y61433D01*
X89583Y61444D01*
Y61454D01*
Y61459D01*
Y61461D01*
X89585Y61504D01*
X89593Y61543D01*
X89600Y61576D01*
X89611Y61604D01*
X89620Y61626D01*
X89630Y61643D01*
X89637Y61654D01*
X89639Y61657D01*
X89661Y61685D01*
X89683Y61707D01*
X89706Y61724D01*
X89728Y61739D01*
X89748Y61748D01*
X89763Y61754D01*
X89774Y61757D01*
X89776Y61759D01*
X89778D01*
X89752Y61778D01*
X89730Y61798D01*
X89709Y61818D01*
X89694Y61835D01*
X89682Y61852D01*
X89674Y61863D01*
X89669Y61870D01*
X89667Y61874D01*
X89654Y61900D01*
X89644Y61926D01*
X89637Y61950D01*
X89633Y61974D01*
X89630Y61992D01*
X89628Y62009D01*
Y62018D01*
Y62022D01*
Y62044D01*
X89632Y62067D01*
X89641Y62107D01*
X89654Y62144D01*
X89669Y62178D01*
X89685Y62205D01*
X89693Y62217D01*
X89698Y62226D01*
X89704Y62233D01*
X89707Y62239D01*
X89709Y62241D01*
X89711Y62242D01*
X89728Y62261D01*
X89744Y62276D01*
X89763Y62289D01*
X89782Y62300D01*
X89819Y62318D01*
X89854Y62329D01*
X89887Y62337D01*
X89900Y62339D01*
X89911Y62341D01*
X89922Y62342D01*
X89957D01*
X89980Y62339D01*
D02*
G37*
G36*
X88637Y61670D02*
X88478Y61643D01*
X88465Y61659D01*
X88452Y61672D01*
X88439Y61685D01*
X88426Y61694D01*
X88400Y61711D01*
X88376Y61722D01*
X88356Y61728D01*
X88341Y61731D01*
X88330Y61733D01*
X88326D01*
X88302Y61731D01*
X88282Y61724D01*
X88261Y61715D01*
X88246Y61705D01*
X88234Y61694D01*
X88224Y61685D01*
X88219Y61678D01*
X88217Y61676D01*
X88202Y61652D01*
X88191Y61626D01*
X88184Y61596D01*
X88178Y61568D01*
X88174Y61543D01*
X88172Y61522D01*
Y61513D01*
Y61507D01*
Y61504D01*
Y61502D01*
X88174Y61459D01*
X88180Y61420D01*
X88187Y61389D01*
X88195Y61363D01*
X88202Y61344D01*
X88209Y61330D01*
X88215Y61322D01*
X88217Y61318D01*
X88234Y61298D01*
X88250Y61285D01*
X88269Y61274D01*
X88285Y61267D01*
X88298Y61263D01*
X88309Y61261D01*
X88319Y61259D01*
X88321D01*
X88339Y61261D01*
X88356Y61267D01*
X88372Y61274D01*
X88385Y61283D01*
X88396Y61291D01*
X88406Y61298D01*
X88411Y61304D01*
X88413Y61306D01*
X88428Y61324D01*
X88439Y61346D01*
X88448Y61367D01*
X88454Y61387D01*
X88458Y61405D01*
X88461Y61422D01*
X88463Y61431D01*
Y61435D01*
X88659Y61409D01*
X88650Y61352D01*
X88643Y61324D01*
X88635Y61300D01*
X88626Y61278D01*
X88617Y61257D01*
X88608Y61237D01*
X88598Y61220D01*
X88589Y61206D01*
X88580Y61193D01*
X88572Y61181D01*
X88565Y61172D01*
X88559Y61165D01*
X88554Y61159D01*
X88552Y61157D01*
X88550Y61156D01*
X88532Y61141D01*
X88513Y61126D01*
X88476Y61104D01*
X88437Y61089D01*
X88402Y61078D01*
X88371Y61072D01*
X88356Y61069D01*
X88345D01*
X88335Y61067D01*
X88322D01*
X88291Y61069D01*
X88263Y61072D01*
X88235Y61080D01*
X88211Y61089D01*
X88187Y61098D01*
X88167Y61109D01*
X88146Y61122D01*
X88130Y61135D01*
X88115Y61148D01*
X88100Y61161D01*
X88089Y61172D01*
X88080Y61181D01*
X88072Y61191D01*
X88067Y61198D01*
X88065Y61202D01*
X88063Y61204D01*
X88047Y61230D01*
X88032Y61257D01*
X88021Y61283D01*
X88009Y61309D01*
X87993Y61361D01*
X87982Y61407D01*
X87978Y61430D01*
X87976Y61448D01*
X87972Y61465D01*
Y61480D01*
X87971Y61491D01*
Y61500D01*
Y61505D01*
Y61507D01*
X87972Y61544D01*
X87974Y61580D01*
X87980Y61611D01*
X87987Y61643D01*
X87995Y61670D01*
X88004Y61698D01*
X88015Y61722D01*
X88024Y61744D01*
X88034Y61763D01*
X88045Y61780D01*
X88054Y61794D01*
X88061Y61807D01*
X88069Y61817D01*
X88072Y61824D01*
X88076Y61828D01*
X88078Y61830D01*
X88095Y61846D01*
X88111Y61861D01*
X88128Y61874D01*
X88146Y61885D01*
X88182Y61902D01*
X88213Y61915D01*
X88243Y61920D01*
X88254Y61922D01*
X88265Y61924D01*
X88274Y61926D01*
X88285D01*
X88311Y61924D01*
X88335Y61918D01*
X88358Y61913D01*
X88378Y61905D01*
X88396Y61896D01*
X88409Y61891D01*
X88417Y61885D01*
X88421Y61883D01*
X88387Y62098D01*
X88017D01*
Y62322D01*
X88537D01*
X88637Y61670D01*
D02*
G37*
G36*
X89132Y62302D02*
X89150Y62265D01*
X89170Y62231D01*
X89191Y62204D01*
X89209Y62179D01*
X89224Y62161D01*
X89235Y62150D01*
X89237Y62148D01*
X89239Y62146D01*
X89272Y62117D01*
X89304Y62092D01*
X89332Y62072D01*
X89357Y62055D01*
X89380Y62044D01*
X89395Y62035D01*
X89406Y62031D01*
X89407Y62030D01*
X89409D01*
Y61811D01*
X89357Y61835D01*
X89307Y61863D01*
X89265Y61894D01*
X89228Y61924D01*
X89211Y61937D01*
X89196Y61950D01*
X89183Y61963D01*
X89174Y61972D01*
X89165Y61981D01*
X89159Y61987D01*
X89156Y61991D01*
X89154Y61992D01*
Y61087D01*
X88956D01*
Y62342D01*
X89117D01*
X89132Y62302D01*
D02*
G37*
G36*
X85541D02*
X85560Y62265D01*
X85580Y62231D01*
X85600Y62204D01*
X85619Y62179D01*
X85634Y62161D01*
X85645Y62150D01*
X85647Y62148D01*
X85649Y62146D01*
X85682Y62117D01*
X85713Y62092D01*
X85741Y62072D01*
X85767Y62055D01*
X85789Y62044D01*
X85804Y62035D01*
X85815Y62031D01*
X85817Y62030D01*
X85819D01*
Y61811D01*
X85767Y61835D01*
X85717Y61863D01*
X85675Y61894D01*
X85637Y61924D01*
X85621Y61937D01*
X85606Y61950D01*
X85593Y61963D01*
X85584Y61972D01*
X85575Y61981D01*
X85569Y61987D01*
X85565Y61991D01*
X85563Y61992D01*
Y61087D01*
X85365D01*
Y62342D01*
X85526D01*
X85541Y62302D01*
D02*
G37*
G36*
X86723Y62341D02*
X86752Y62337D01*
X86778Y62328D01*
X86804Y62318D01*
X86850Y62294D01*
X86871Y62281D01*
X86889Y62267D01*
X86906Y62252D01*
X86921Y62239D01*
X86934Y62226D01*
X86945Y62215D01*
X86952Y62205D01*
X86958Y62198D01*
X86961Y62192D01*
X86963Y62191D01*
X86982Y62161D01*
X86997Y62126D01*
X87011Y62089D01*
X87023Y62050D01*
X87041Y61968D01*
X87054Y61887D01*
X87058Y61848D01*
X87061Y61813D01*
X87063Y61781D01*
X87065Y61752D01*
X87067Y61730D01*
Y61711D01*
Y61700D01*
Y61698D01*
Y61696D01*
X87065Y61635D01*
X87063Y61578D01*
X87058Y61526D01*
X87052Y61478D01*
X87043Y61433D01*
X87035Y61394D01*
X87026Y61357D01*
X87017Y61326D01*
X87008Y61298D01*
X86998Y61276D01*
X86989Y61256D01*
X86982Y61239D01*
X86976Y61228D01*
X86971Y61218D01*
X86969Y61213D01*
X86967Y61211D01*
X86947Y61185D01*
X86926Y61163D01*
X86906Y61144D01*
X86884Y61128D01*
X86863Y61113D01*
X86841Y61102D01*
X86821Y61093D01*
X86800Y61085D01*
X86765Y61074D01*
X86750Y61070D01*
X86737Y61069D01*
X86726D01*
X86719Y61067D01*
X86711D01*
X86686Y61069D01*
X86661Y61072D01*
X86637Y61078D01*
X86615Y61083D01*
X86574Y61102D01*
X86541Y61122D01*
X86513Y61143D01*
X86502Y61152D01*
X86493Y61161D01*
X86486Y61167D01*
X86480Y61172D01*
X86478Y61176D01*
X86476Y61178D01*
X86460Y61200D01*
X86445Y61224D01*
X86432Y61248D01*
X86421Y61274D01*
X86404Y61326D01*
X86391Y61374D01*
X86387Y61398D01*
X86386Y61418D01*
X86384Y61439D01*
X86382Y61456D01*
X86380Y61468D01*
Y61478D01*
Y61485D01*
Y61487D01*
X86382Y61520D01*
X86384Y61554D01*
X86387Y61583D01*
X86395Y61613D01*
X86400Y61639D01*
X86408Y61663D01*
X86417Y61685D01*
X86424Y61705D01*
X86434Y61724D01*
X86441Y61741D01*
X86450Y61754D01*
X86456Y61765D01*
X86461Y61774D01*
X86467Y61780D01*
X86469Y61783D01*
X86471Y61785D01*
X86487Y61805D01*
X86506Y61822D01*
X86523Y61837D01*
X86541Y61850D01*
X86558Y61861D01*
X86576Y61870D01*
X86608Y61883D01*
X86637Y61892D01*
X86648Y61894D01*
X86660Y61896D01*
X86669Y61898D01*
X86680D01*
X86700Y61896D01*
X86719Y61894D01*
X86737Y61889D01*
X86752Y61885D01*
X86763Y61880D01*
X86774Y61874D01*
X86780Y61872D01*
X86782Y61870D01*
X86798Y61859D01*
X86813Y61846D01*
X86826Y61833D01*
X86839Y61820D01*
X86848Y61809D01*
X86856Y61800D01*
X86861Y61792D01*
X86863Y61791D01*
X86861Y61830D01*
X86858Y61865D01*
X86854Y61896D01*
X86850Y61924D01*
X86847Y61950D01*
X86841Y61974D01*
X86837Y61994D01*
X86832Y62013D01*
X86828Y62028D01*
X86824Y62041D01*
X86819Y62052D01*
X86817Y62059D01*
X86813Y62067D01*
X86811Y62070D01*
X86810Y62074D01*
X86793Y62098D01*
X86774Y62115D01*
X86758Y62128D01*
X86741Y62135D01*
X86726Y62141D01*
X86715Y62142D01*
X86706Y62144D01*
X86704D01*
X86687Y62142D01*
X86671Y62139D01*
X86658Y62131D01*
X86645Y62122D01*
X86624Y62100D01*
X86611Y62076D01*
X86600Y62050D01*
X86595Y62028D01*
X86593Y62018D01*
X86591Y62011D01*
Y62007D01*
Y62005D01*
X86400Y62031D01*
X86411Y62087D01*
X86424Y62133D01*
X86441Y62174D01*
X86458Y62207D01*
X86474Y62231D01*
X86487Y62250D01*
X86497Y62261D01*
X86500Y62265D01*
X86530Y62291D01*
X86563Y62309D01*
X86595Y62324D01*
X86626Y62333D01*
X86652Y62339D01*
X86674Y62341D01*
X86682Y62342D01*
X86693D01*
X86723Y62341D01*
D02*
G37*
G36*
X92829Y61439D02*
X92840Y61402D01*
X92852Y61372D01*
X92861Y61350D01*
X92870Y61331D01*
X92879Y61317D01*
X92885Y61309D01*
X92889Y61304D01*
X92890Y61302D01*
X92903Y61293D01*
X92920Y61285D01*
X92937Y61280D01*
X92953Y61276D01*
X92970Y61274D01*
X92983Y61272D01*
X93018D01*
X93044Y61274D01*
X93072D01*
Y61087D01*
X93024Y61078D01*
X93000Y61076D01*
X92977Y61074D01*
X92957Y61072D01*
X92929D01*
X92898Y61076D01*
X92870Y61083D01*
X92846Y61094D01*
X92826Y61107D01*
X92809Y61120D01*
X92796Y61131D01*
X92787Y61139D01*
X92785Y61143D01*
X92774Y61157D01*
X92763Y61174D01*
X92740Y61211D01*
X92720Y61250D01*
X92700Y61291D01*
X92685Y61328D01*
X92677Y61344D01*
X92672Y61359D01*
X92666Y61370D01*
X92665Y61380D01*
X92661Y61385D01*
Y61387D01*
X92315Y62339D01*
X92529D01*
X92737Y61689D01*
X92976Y62339D01*
X93207D01*
X92829Y61439D01*
D02*
G37*
G36*
X96833Y62357D02*
X96870Y62352D01*
X96903Y62344D01*
X96936Y62335D01*
X96966Y62322D01*
X96994Y62309D01*
X97020Y62294D01*
X97042Y62281D01*
X97062Y62267D01*
X97081Y62252D01*
X97096Y62239D01*
X97109Y62226D01*
X97118Y62217D01*
X97125Y62209D01*
X97129Y62204D01*
X97131Y62202D01*
X97157Y62167D01*
X97179Y62128D01*
X97197Y62089D01*
X97214Y62048D01*
X97229Y62005D01*
X97240Y61965D01*
X97249Y61924D01*
X97257Y61883D01*
X97262Y61846D01*
X97268Y61813D01*
X97271Y61781D01*
X97273Y61754D01*
Y61733D01*
X97275Y61717D01*
Y61705D01*
Y61704D01*
Y61702D01*
X97273Y61646D01*
X97270Y61594D01*
X97262Y61544D01*
X97253Y61498D01*
X97242Y61456D01*
X97231Y61417D01*
X97218Y61380D01*
X97203Y61348D01*
X97190Y61318D01*
X97177Y61293D01*
X97166Y61270D01*
X97155Y61254D01*
X97146Y61239D01*
X97138Y61228D01*
X97134Y61222D01*
X97133Y61220D01*
X97109Y61193D01*
X97083Y61170D01*
X97057Y61150D01*
X97029Y61131D01*
X97001Y61117D01*
X96975Y61104D01*
X96949Y61094D01*
X96923Y61085D01*
X96899Y61080D01*
X96877Y61074D01*
X96857Y61072D01*
X96840Y61069D01*
X96825D01*
X96816Y61067D01*
X96807D01*
X96777Y61069D01*
X96749Y61070D01*
X96697Y61081D01*
X96651Y61096D01*
X96631Y61106D01*
X96612Y61115D01*
X96596Y61124D01*
X96581Y61133D01*
X96568Y61141D01*
X96559Y61148D01*
X96549Y61154D01*
X96544Y61159D01*
X96540Y61161D01*
X96538Y61163D01*
X96518Y61183D01*
X96499Y61204D01*
X96468Y61252D01*
X96440Y61304D01*
X96418Y61354D01*
X96409Y61378D01*
X96401Y61400D01*
X96396Y61420D01*
X96390Y61437D01*
X96386Y61452D01*
X96383Y61463D01*
X96381Y61470D01*
Y61472D01*
X96583Y61550D01*
X96594Y61500D01*
X96609Y61459D01*
X96622Y61424D01*
X96636Y61396D01*
X96649Y61374D01*
X96660Y61359D01*
X96668Y61350D01*
X96670Y61346D01*
X96692Y61326D01*
X96716Y61309D01*
X96740Y61298D01*
X96762Y61291D01*
X96781Y61287D01*
X96797Y61285D01*
X96807Y61283D01*
X96810D01*
X96831Y61285D01*
X96849Y61287D01*
X96886Y61298D01*
X96916Y61315D01*
X96942Y61333D01*
X96964Y61350D01*
X96979Y61367D01*
X96988Y61378D01*
X96992Y61380D01*
Y61381D01*
X97003Y61402D01*
X97014Y61424D01*
X97023Y61450D01*
X97031Y61476D01*
X97044Y61531D01*
X97051Y61587D01*
X97055Y61613D01*
X97057Y61637D01*
X97059Y61659D01*
Y61678D01*
X97060Y61694D01*
Y61705D01*
Y61715D01*
Y61717D01*
Y61757D01*
X97057Y61796D01*
X97053Y61831D01*
X97049Y61863D01*
X97044Y61892D01*
X97038Y61920D01*
X97033Y61944D01*
X97025Y61965D01*
X97018Y61983D01*
X97012Y62000D01*
X97007Y62013D01*
X97001Y62024D01*
X96996Y62031D01*
X96994Y62039D01*
X96990Y62041D01*
Y62042D01*
X96975Y62061D01*
X96960Y62076D01*
X96946Y62089D01*
X96931Y62100D01*
X96899Y62118D01*
X96870Y62130D01*
X96844Y62137D01*
X96823Y62141D01*
X96816Y62142D01*
X96805D01*
X96775Y62141D01*
X96749Y62133D01*
X96727Y62126D01*
X96707Y62115D01*
X96690Y62105D01*
X96677Y62096D01*
X96670Y62089D01*
X96668Y62087D01*
X96647Y62065D01*
X96631Y62041D01*
X96616Y62015D01*
X96605Y61989D01*
X96597Y61967D01*
X96592Y61948D01*
X96590Y61941D01*
Y61935D01*
X96588Y61933D01*
Y61931D01*
X96383Y61991D01*
X96390Y62020D01*
X96399Y62048D01*
X96409Y62074D01*
X96418Y62100D01*
X96429Y62122D01*
X96438Y62142D01*
X96449Y62159D01*
X96459Y62176D01*
X96468Y62191D01*
X96477Y62204D01*
X96485Y62215D01*
X96492Y62224D01*
X96497Y62229D01*
X96501Y62235D01*
X96503Y62239D01*
X96505D01*
X96527Y62259D01*
X96551Y62278D01*
X96575Y62294D01*
X96599Y62309D01*
X96623Y62320D01*
X96647Y62329D01*
X96694Y62344D01*
X96714Y62350D01*
X96733Y62354D01*
X96749Y62355D01*
X96764Y62357D01*
X96777Y62359D01*
X96794D01*
X96833Y62357D01*
D02*
G37*
G36*
X96201Y61087D02*
X95994D01*
Y62128D01*
X95588D01*
Y61087D01*
X95381D01*
Y62339D01*
X96201D01*
Y61087D01*
D02*
G37*
G36*
X95162D02*
X94662D01*
X94627Y61089D01*
X94594Y61093D01*
X94564Y61098D01*
X94537Y61106D01*
X94512Y61113D01*
X94490Y61122D01*
X94470Y61133D01*
X94451Y61144D01*
X94437Y61154D01*
X94422Y61165D01*
X94411Y61174D01*
X94401Y61183D01*
X94396Y61189D01*
X94390Y61194D01*
X94387Y61198D01*
Y61200D01*
X94372Y61222D01*
X94359Y61244D01*
X94340Y61289D01*
X94325Y61331D01*
X94314Y61372D01*
X94313Y61391D01*
X94309Y61409D01*
X94307Y61424D01*
Y61437D01*
X94305Y61446D01*
Y61454D01*
Y61459D01*
Y61461D01*
X94307Y61493D01*
X94309Y61522D01*
X94320Y61578D01*
X94327Y61602D01*
X94335Y61624D01*
X94344Y61644D01*
X94353Y61663D01*
X94363Y61680D01*
X94372Y61694D01*
X94379Y61707D01*
X94387Y61718D01*
X94392Y61726D01*
X94398Y61731D01*
X94400Y61735D01*
X94401Y61737D01*
X94420Y61755D01*
X94440Y61772D01*
X94461Y61785D01*
X94483Y61796D01*
X94525Y61815D01*
X94568Y61828D01*
X94605Y61835D01*
X94622Y61837D01*
X94635Y61839D01*
X94646Y61841D01*
X94955D01*
Y62128D01*
X94394D01*
Y62339D01*
X95162D01*
Y61087D01*
D02*
G37*
G36*
X94135D02*
X93927D01*
Y62128D01*
X93522D01*
Y61087D01*
X93314D01*
Y62339D01*
X94135D01*
Y61087D01*
D02*
G37*
G36*
X92213D02*
X92016D01*
Y61328D01*
X92213D01*
Y61087D01*
D02*
G37*
G36*
X86228Y61087D02*
X86032D01*
Y61328D01*
X86228D01*
Y61087D01*
D02*
G37*
G36*
X87561Y62341D02*
X87587Y62337D01*
X87611Y62329D01*
X87634Y62320D01*
X87674Y62298D01*
X87709Y62272D01*
X87737Y62244D01*
X87748Y62233D01*
X87758Y62222D01*
X87765Y62213D01*
X87771Y62205D01*
X87772Y62202D01*
X87774Y62200D01*
X87791Y62170D01*
X87804Y62137D01*
X87817Y62102D01*
X87826Y62063D01*
X87843Y61981D01*
X87854Y61900D01*
X87858Y61861D01*
X87859Y61824D01*
X87861Y61791D01*
X87863Y61763D01*
X87865Y61739D01*
Y61720D01*
Y61715D01*
Y61709D01*
Y61707D01*
Y61705D01*
X87863Y61641D01*
X87861Y61581D01*
X87856Y61526D01*
X87850Y61476D01*
X87845Y61430D01*
X87835Y61389D01*
X87828Y61354D01*
X87819Y61320D01*
X87811Y61293D01*
X87802Y61268D01*
X87795Y61250D01*
X87789Y61233D01*
X87782Y61220D01*
X87778Y61213D01*
X87776Y61207D01*
X87774Y61206D01*
X87756Y61181D01*
X87737Y61159D01*
X87717Y61141D01*
X87697Y61126D01*
X87676Y61111D01*
X87658Y61100D01*
X87637Y61091D01*
X87619Y61083D01*
X87584Y61074D01*
X87569Y61070D01*
X87556Y61069D01*
X87547D01*
X87539Y61067D01*
X87532D01*
X87504Y61069D01*
X87478Y61072D01*
X87454Y61080D01*
X87432Y61089D01*
X87391Y61111D01*
X87356Y61137D01*
X87328Y61163D01*
X87317Y61174D01*
X87308Y61185D01*
X87300Y61194D01*
X87295Y61202D01*
X87293Y61206D01*
X87291Y61207D01*
X87274Y61237D01*
X87260Y61270D01*
X87248Y61306D01*
X87237Y61344D01*
X87221Y61428D01*
X87210Y61509D01*
X87206Y61548D01*
X87204Y61585D01*
X87200Y61617D01*
Y61646D01*
X87198Y61670D01*
Y61689D01*
Y61694D01*
Y61700D01*
Y61702D01*
Y61704D01*
X87200Y61768D01*
X87202Y61826D01*
X87208Y61881D01*
X87213Y61930D01*
X87221Y61976D01*
X87228Y62017D01*
X87235Y62052D01*
X87245Y62085D01*
X87254Y62113D01*
X87261Y62137D01*
X87269Y62155D01*
X87276Y62172D01*
X87282Y62185D01*
X87287Y62192D01*
X87289Y62198D01*
X87291Y62200D01*
X87310Y62226D01*
X87328Y62246D01*
X87348Y62267D01*
X87369Y62283D01*
X87389Y62296D01*
X87408Y62307D01*
X87428Y62317D01*
X87447Y62324D01*
X87482Y62335D01*
X87497Y62339D01*
X87510Y62341D01*
X87519Y62342D01*
X87534D01*
X87561Y62341D01*
D02*
G37*
G36*
X84769D02*
X84795Y62337D01*
X84819Y62329D01*
X84841Y62320D01*
X84882Y62298D01*
X84917Y62272D01*
X84945Y62244D01*
X84956Y62233D01*
X84965Y62222D01*
X84973Y62213D01*
X84978Y62205D01*
X84980Y62202D01*
X84982Y62200D01*
X84999Y62170D01*
X85012Y62137D01*
X85025Y62102D01*
X85034Y62063D01*
X85051Y61981D01*
X85062Y61900D01*
X85065Y61861D01*
X85067Y61824D01*
X85069Y61791D01*
X85071Y61763D01*
X85073Y61739D01*
Y61720D01*
Y61715D01*
Y61709D01*
Y61707D01*
Y61705D01*
X85071Y61641D01*
X85069Y61581D01*
X85063Y61526D01*
X85058Y61476D01*
X85052Y61430D01*
X85043Y61389D01*
X85036Y61354D01*
X85026Y61320D01*
X85019Y61293D01*
X85010Y61268D01*
X85002Y61250D01*
X84997Y61233D01*
X84989Y61220D01*
X84986Y61213D01*
X84984Y61207D01*
X84982Y61206D01*
X84963Y61181D01*
X84945Y61159D01*
X84925Y61141D01*
X84904Y61126D01*
X84884Y61111D01*
X84865Y61100D01*
X84845Y61091D01*
X84826Y61083D01*
X84791Y61074D01*
X84776Y61070D01*
X84763Y61069D01*
X84754D01*
X84747Y61067D01*
X84739D01*
X84712Y61069D01*
X84686Y61072D01*
X84662Y61080D01*
X84639Y61089D01*
X84599Y61111D01*
X84564Y61137D01*
X84536Y61163D01*
X84525Y61174D01*
X84515Y61185D01*
X84508Y61194D01*
X84502Y61202D01*
X84501Y61206D01*
X84499Y61207D01*
X84482Y61237D01*
X84467Y61270D01*
X84456Y61306D01*
X84445Y61344D01*
X84428Y61428D01*
X84417Y61509D01*
X84414Y61548D01*
X84412Y61585D01*
X84408Y61617D01*
Y61646D01*
X84406Y61670D01*
Y61689D01*
Y61694D01*
Y61700D01*
Y61702D01*
Y61704D01*
X84408Y61768D01*
X84410Y61826D01*
X84415Y61881D01*
X84421Y61930D01*
X84428Y61976D01*
X84436Y62017D01*
X84443Y62052D01*
X84452Y62085D01*
X84462Y62113D01*
X84469Y62137D01*
X84477Y62155D01*
X84484Y62172D01*
X84489Y62185D01*
X84495Y62192D01*
X84497Y62198D01*
X84499Y62200D01*
X84517Y62226D01*
X84536Y62246D01*
X84556Y62267D01*
X84576Y62283D01*
X84597Y62296D01*
X84615Y62307D01*
X84636Y62317D01*
X84654Y62324D01*
X84689Y62335D01*
X84704Y62339D01*
X84717Y62341D01*
X84726Y62342D01*
X84741D01*
X84769Y62341D01*
D02*
G37*
%LPC*%
G36*
X86719Y61720D02*
X86710D01*
X86689Y61718D01*
X86671Y61711D01*
X86654Y61702D01*
X86639Y61693D01*
X86628Y61681D01*
X86621Y61672D01*
X86615Y61665D01*
X86613Y61663D01*
X86600Y61639D01*
X86589Y61613D01*
X86582Y61583D01*
X86578Y61554D01*
X86574Y61528D01*
X86573Y61507D01*
Y61498D01*
Y61493D01*
Y61489D01*
Y61487D01*
X86574Y61446D01*
X86578Y61411D01*
X86584Y61381D01*
X86591Y61357D01*
X86599Y61339D01*
X86604Y61326D01*
X86608Y61318D01*
X86610Y61317D01*
X86624Y61300D01*
X86639Y61287D01*
X86654Y61280D01*
X86669Y61272D01*
X86682Y61268D01*
X86691Y61267D01*
X86700D01*
X86721Y61268D01*
X86741Y61276D01*
X86758Y61285D01*
X86773Y61298D01*
X86786Y61309D01*
X86795Y61318D01*
X86800Y61326D01*
X86802Y61328D01*
X86817Y61354D01*
X86826Y61383D01*
X86834Y61413D01*
X86839Y61441D01*
X86843Y61467D01*
X86845Y61489D01*
Y61496D01*
Y61502D01*
Y61505D01*
Y61507D01*
X86843Y61544D01*
X86839Y61578D01*
X86832Y61604D01*
X86824Y61626D01*
X86819Y61644D01*
X86811Y61657D01*
X86808Y61665D01*
X86806Y61667D01*
X86791Y61685D01*
X86774Y61698D01*
X86758Y61707D01*
X86743Y61713D01*
X86730Y61718D01*
X86719Y61720D01*
D02*
G37*
G36*
X94955Y61630D02*
X94729D01*
X94692Y61628D01*
X94661Y61622D01*
X94633Y61615D01*
X94609Y61604D01*
X94588Y61591D01*
X94572Y61576D01*
X94557Y61561D01*
X94546Y61544D01*
X94537Y61528D01*
X94531Y61513D01*
X94525Y61498D01*
X94524Y61485D01*
X94522Y61476D01*
X94520Y61467D01*
Y61461D01*
Y61459D01*
X94522Y61439D01*
X94524Y61420D01*
X94529Y61404D01*
X94535Y61389D01*
X94540Y61378D01*
X94544Y61368D01*
X94548Y61363D01*
X94550Y61361D01*
X94561Y61348D01*
X94572Y61335D01*
X94583Y61328D01*
X94594Y61320D01*
X94603Y61315D01*
X94609Y61311D01*
X94614Y61309D01*
X94616D01*
X94633Y61306D01*
X94651Y61304D01*
X94690Y61300D01*
X94709Y61298D01*
X94955D01*
Y61630D01*
D02*
G37*
G36*
X87534Y62142D02*
X87532D01*
X87511Y62139D01*
X87493Y62130D01*
X87478Y62118D01*
X87465Y62104D01*
X87454Y62089D01*
X87447Y62078D01*
X87443Y62068D01*
X87441Y62065D01*
X87435Y62048D01*
X87430Y62028D01*
X87424Y62004D01*
X87421Y61976D01*
X87417Y61948D01*
X87415Y61917D01*
X87410Y61855D01*
Y61826D01*
X87408Y61798D01*
Y61772D01*
X87406Y61750D01*
Y61731D01*
Y61717D01*
Y61707D01*
Y61704D01*
Y61652D01*
X87408Y61605D01*
X87410Y61565D01*
X87411Y61528D01*
X87413Y61494D01*
X87417Y61465D01*
X87421Y61439D01*
X87422Y61417D01*
X87426Y61398D01*
X87430Y61381D01*
X87434Y61368D01*
X87435Y61359D01*
X87437Y61352D01*
X87439Y61346D01*
X87441Y61344D01*
Y61343D01*
X87454Y61317D01*
X87469Y61298D01*
X87484Y61285D01*
X87498Y61276D01*
X87511Y61270D01*
X87522Y61268D01*
X87530Y61267D01*
X87532D01*
X87552Y61270D01*
X87571Y61278D01*
X87587Y61291D01*
X87600Y61306D01*
X87611Y61318D01*
X87619Y61331D01*
X87622Y61339D01*
X87624Y61343D01*
X87630Y61359D01*
X87635Y61380D01*
X87639Y61404D01*
X87643Y61431D01*
X87647Y61459D01*
X87650Y61491D01*
X87654Y61552D01*
Y61581D01*
X87656Y61609D01*
Y61635D01*
X87658Y61657D01*
Y61678D01*
Y61691D01*
Y61700D01*
Y61704D01*
Y61755D01*
X87656Y61802D01*
X87654Y61842D01*
X87652Y61880D01*
X87650Y61913D01*
X87647Y61942D01*
X87645Y61968D01*
X87641Y61991D01*
X87637Y62009D01*
X87635Y62026D01*
X87632Y62039D01*
X87630Y62048D01*
X87628Y62055D01*
X87626Y62061D01*
X87624Y62065D01*
X87611Y62091D01*
X87597Y62109D01*
X87580Y62124D01*
X87565Y62133D01*
X87552Y62139D01*
X87541Y62141D01*
X87534Y62142D01*
D02*
G37*
G36*
X84741D02*
X84739D01*
X84719Y62139D01*
X84701Y62130D01*
X84686Y62118D01*
X84673Y62104D01*
X84662Y62089D01*
X84654Y62078D01*
X84651Y62068D01*
X84649Y62065D01*
X84643Y62048D01*
X84638Y62028D01*
X84632Y62004D01*
X84628Y61976D01*
X84625Y61948D01*
X84623Y61917D01*
X84617Y61855D01*
Y61826D01*
X84615Y61798D01*
Y61772D01*
X84614Y61750D01*
Y61731D01*
Y61717D01*
Y61707D01*
Y61704D01*
Y61652D01*
X84615Y61605D01*
X84617Y61565D01*
X84619Y61528D01*
X84621Y61494D01*
X84625Y61465D01*
X84628Y61439D01*
X84630Y61417D01*
X84634Y61398D01*
X84638Y61381D01*
X84641Y61368D01*
X84643Y61359D01*
X84645Y61352D01*
X84647Y61346D01*
X84649Y61344D01*
Y61343D01*
X84662Y61317D01*
X84676Y61298D01*
X84691Y61285D01*
X84706Y61276D01*
X84719Y61270D01*
X84730Y61268D01*
X84738Y61267D01*
X84739D01*
X84760Y61270D01*
X84778Y61278D01*
X84795Y61291D01*
X84808Y61306D01*
X84819Y61318D01*
X84826Y61331D01*
X84830Y61339D01*
X84832Y61343D01*
X84838Y61359D01*
X84843Y61380D01*
X84847Y61404D01*
X84851Y61431D01*
X84854Y61459D01*
X84858Y61491D01*
X84862Y61552D01*
Y61581D01*
X84863Y61609D01*
Y61635D01*
X84865Y61657D01*
Y61678D01*
Y61691D01*
Y61700D01*
Y61704D01*
Y61755D01*
X84863Y61802D01*
X84862Y61842D01*
X84860Y61880D01*
X84858Y61913D01*
X84854Y61942D01*
X84852Y61968D01*
X84849Y61991D01*
X84845Y62009D01*
X84843Y62026D01*
X84839Y62039D01*
X84838Y62048D01*
X84836Y62055D01*
X84834Y62061D01*
X84832Y62065D01*
X84819Y62091D01*
X84804Y62109D01*
X84788Y62124D01*
X84773Y62133D01*
X84760Y62139D01*
X84749Y62141D01*
X84741Y62142D01*
D02*
G37*
%LPD*%
M02*
