G04*
G04 #@! TF.GenerationSoftware,Altium Limited,Altium Designer,19.1.6 (110)*
G04*
G04 Layer_Physical_Order=1*
G04 Layer_Color=255*
%FSLAX43Y43*%
%MOMM*%
G71*
G01*
G75*
%ADD10C,0.200*%
%ADD11C,0.600*%
%ADD12C,0.250*%
G04:AMPARAMS|DCode=32|XSize=0.9mm|YSize=0.8mm|CornerRadius=0.2mm|HoleSize=0mm|Usage=FLASHONLY|Rotation=0.000|XOffset=0mm|YOffset=0mm|HoleType=Round|Shape=RoundedRectangle|*
%AMROUNDEDRECTD32*
21,1,0.900,0.400,0,0,0.0*
21,1,0.500,0.800,0,0,0.0*
1,1,0.400,0.250,-0.200*
1,1,0.400,-0.250,-0.200*
1,1,0.400,-0.250,0.200*
1,1,0.400,0.250,0.200*
%
%ADD32ROUNDEDRECTD32*%
%ADD33R,0.850X0.900*%
G04:AMPARAMS|DCode=34|XSize=0.5mm|YSize=0.5mm|CornerRadius=0.125mm|HoleSize=0mm|Usage=FLASHONLY|Rotation=270.000|XOffset=0mm|YOffset=0mm|HoleType=Round|Shape=RoundedRectangle|*
%AMROUNDEDRECTD34*
21,1,0.500,0.250,0,0,270.0*
21,1,0.250,0.500,0,0,270.0*
1,1,0.250,-0.125,-0.125*
1,1,0.250,-0.125,0.125*
1,1,0.250,0.125,0.125*
1,1,0.250,0.125,-0.125*
%
%ADD34ROUNDEDRECTD34*%
%ADD35R,0.900X0.850*%
%ADD36R,0.550X0.550*%
G04:AMPARAMS|DCode=37|XSize=0.28mm|YSize=0.3mm|CornerRadius=0.07mm|HoleSize=0mm|Usage=FLASHONLY|Rotation=90.000|XOffset=0mm|YOffset=0mm|HoleType=Round|Shape=RoundedRectangle|*
%AMROUNDEDRECTD37*
21,1,0.280,0.160,0,0,90.0*
21,1,0.140,0.300,0,0,90.0*
1,1,0.140,0.080,0.070*
1,1,0.140,0.080,-0.070*
1,1,0.140,-0.080,-0.070*
1,1,0.140,-0.080,0.070*
%
%ADD37ROUNDEDRECTD37*%
G04:AMPARAMS|DCode=38|XSize=0.9mm|YSize=0.8mm|CornerRadius=0.2mm|HoleSize=0mm|Usage=FLASHONLY|Rotation=90.000|XOffset=0mm|YOffset=0mm|HoleType=Round|Shape=RoundedRectangle|*
%AMROUNDEDRECTD38*
21,1,0.900,0.400,0,0,90.0*
21,1,0.500,0.800,0,0,90.0*
1,1,0.400,0.200,0.250*
1,1,0.400,0.200,-0.250*
1,1,0.400,-0.200,-0.250*
1,1,0.400,-0.200,0.250*
%
%ADD38ROUNDEDRECTD38*%
%ADD39R,2.010X6.000*%
G04:AMPARAMS|DCode=40|XSize=0.5mm|YSize=0.5mm|CornerRadius=0.125mm|HoleSize=0mm|Usage=FLASHONLY|Rotation=0.000|XOffset=0mm|YOffset=0mm|HoleType=Round|Shape=RoundedRectangle|*
%AMROUNDEDRECTD40*
21,1,0.500,0.250,0,0,0.0*
21,1,0.250,0.500,0,0,0.0*
1,1,0.250,0.125,-0.125*
1,1,0.250,-0.125,-0.125*
1,1,0.250,-0.125,0.125*
1,1,0.250,0.125,0.125*
%
%ADD40ROUNDEDRECTD40*%
G04:AMPARAMS|DCode=41|XSize=1.8mm|YSize=1mm|CornerRadius=0.25mm|HoleSize=0mm|Usage=FLASHONLY|Rotation=180.000|XOffset=0mm|YOffset=0mm|HoleType=Round|Shape=RoundedRectangle|*
%AMROUNDEDRECTD41*
21,1,1.800,0.500,0,0,180.0*
21,1,1.300,1.000,0,0,180.0*
1,1,0.500,-0.650,0.250*
1,1,0.500,0.650,0.250*
1,1,0.500,0.650,-0.250*
1,1,0.500,-0.650,-0.250*
%
%ADD41ROUNDEDRECTD41*%
%ADD42R,0.800X0.950*%
%ADD43O,0.900X0.250*%
%ADD44O,0.250X0.900*%
%ADD45R,2.050X3.050*%
%ADD46C,0.400*%
%ADD47C,0.500*%
%ADD48C,0.300*%
%ADD49C,1.000*%
%ADD50C,0.800*%
%ADD51R,1.900X1.900*%
%ADD52C,1.900*%
%ADD53C,2.000*%
%ADD54C,0.600*%
G36*
X82855Y70307D02*
X82448Y69901D01*
X77953D01*
Y75667D01*
X77974Y75717D01*
X82855D01*
Y70307D01*
D02*
G37*
G36*
X87745Y67322D02*
X78786D01*
Y68638D01*
X79844Y69697D01*
X82448D01*
X82526Y69712D01*
X82593Y69757D01*
X82593Y69757D01*
X82999Y70163D01*
X82999Y70163D01*
X83043Y70229D01*
X83059Y70307D01*
Y75717D01*
X83043Y75795D01*
X82999Y75862D01*
X82933Y75906D01*
X82855Y75921D01*
X77974D01*
X77896Y75906D01*
X77829Y75862D01*
X77785Y75795D01*
X77785Y75795D01*
X77764Y75745D01*
X77764Y75745D01*
X77749Y75667D01*
Y69901D01*
X77764Y69823D01*
X77808Y69757D01*
X77817Y69667D01*
X77580Y69430D01*
X77468Y69284D01*
X77398Y69113D01*
X77389Y69045D01*
X77353Y69033D01*
X77258Y69029D01*
X77183Y69141D01*
Y69507D01*
X76708D01*
X76233D01*
Y69141D01*
X76143Y69006D01*
X76096Y68772D01*
Y68126D01*
X76033D01*
Y67858D01*
X74709D01*
X74572Y67830D01*
X74457Y67753D01*
X74197Y67494D01*
X74080Y67542D01*
Y68309D01*
X74211Y68397D01*
X74300Y68530D01*
X74331Y68686D01*
Y69186D01*
X74300Y69342D01*
X74211Y69474D01*
X74207Y69477D01*
Y69962D01*
X74297D01*
Y71262D01*
X73052D01*
X73047Y71262D01*
X72925Y71273D01*
Y71350D01*
X72575D01*
Y70725D01*
Y70100D01*
X72920D01*
X72925Y70100D01*
X73047Y70089D01*
Y69962D01*
X73188D01*
Y69404D01*
X73146Y69342D01*
X73115Y69186D01*
Y68686D01*
X73146Y68530D01*
X73234Y68397D01*
X73366Y68309D01*
Y67519D01*
X73239Y67480D01*
X73204Y67533D01*
X73096Y67605D01*
X72970Y67630D01*
X72620D01*
Y68550D01*
X72925D01*
Y69800D01*
X71625D01*
Y68628D01*
X71603Y68537D01*
X71523Y68490D01*
X71468Y68480D01*
X71360Y68408D01*
X71329D01*
X71221Y68480D01*
X71195Y68485D01*
Y67848D01*
X70995D01*
Y68485D01*
X70968Y68480D01*
X70860Y68408D01*
X70829D01*
X70721Y68480D01*
X70695Y68485D01*
Y67848D01*
X70495D01*
Y68485D01*
X70468Y68480D01*
X70360Y68408D01*
X70329D01*
X70221Y68480D01*
X70095Y68505D01*
X70054Y68497D01*
X69898Y68652D01*
Y68932D01*
X69867Y69088D01*
X69779Y69221D01*
X69646Y69309D01*
X69490Y69340D01*
X68990D01*
X68834Y69309D01*
X68702Y69221D01*
X68670Y69174D01*
X68595Y69078D01*
X67378D01*
X67258Y69168D01*
X67259Y69183D01*
X67258Y69191D01*
X67260Y69200D01*
Y79184D01*
X87745D01*
Y67322D01*
D02*
G37*
G36*
X78435Y65075D02*
X78323Y65015D01*
X78306Y65027D01*
X78165Y65055D01*
Y64450D01*
Y63845D01*
X78224Y63857D01*
X78324Y63795D01*
X78244Y63703D01*
X76983D01*
X76875Y63830D01*
Y64075D01*
X75575D01*
Y63830D01*
X75575Y63750D01*
X75467Y63703D01*
X73379Y63703D01*
X73301Y63798D01*
X73276Y63925D01*
X73260Y63949D01*
X73212Y64048D01*
X73260Y64148D01*
X73276Y64172D01*
X73301Y64298D01*
X73276Y64425D01*
X73204Y64533D01*
Y64564D01*
X73276Y64672D01*
X73281Y64698D01*
X72645D01*
Y64898D01*
X73281D01*
X73276Y64925D01*
X73260Y64949D01*
X73212Y65048D01*
X73260Y65148D01*
X73276Y65172D01*
X73281Y65198D01*
X72645D01*
Y65398D01*
X73281D01*
X73276Y65425D01*
X73204Y65533D01*
Y65564D01*
X73276Y65672D01*
X73281Y65698D01*
X72645D01*
Y65898D01*
X73350D01*
X73401Y65949D01*
X73436Y65942D01*
X73507D01*
X73643Y65969D01*
X73759Y66046D01*
X74566Y66853D01*
X78435Y66853D01*
Y65075D01*
D02*
G37*
G36*
X61823Y67614D02*
X61809D01*
X61633Y67579D01*
X61484Y67479D01*
X61385Y67331D01*
X61360Y67205D01*
X62459D01*
Y66605D01*
X61360D01*
X61385Y66479D01*
X61484Y66331D01*
X61633Y66231D01*
X61809Y66196D01*
X61823D01*
Y65049D01*
X60764D01*
X60756Y65090D01*
X60684Y65198D01*
X60577Y65269D01*
X60490Y65287D01*
Y64838D01*
X60160D01*
Y65287D01*
X60073Y65269D01*
X59966Y65198D01*
X59953Y65178D01*
X59789Y65162D01*
X59758Y65194D01*
X59692Y65238D01*
X59614Y65253D01*
X58756D01*
Y65699D01*
X57506D01*
X56256D01*
Y65253D01*
X50410D01*
X50407Y65253D01*
X50404Y65253D01*
X50382Y65248D01*
X50355Y65255D01*
X50272Y65315D01*
X50255Y65340D01*
Y79184D01*
X61823D01*
Y67614D01*
D02*
G37*
G36*
X67056Y69200D02*
X67045Y69078D01*
X66929Y69078D01*
X66720D01*
Y68428D01*
Y67778D01*
X67045D01*
X67056Y67655D01*
Y66497D01*
X68309D01*
X68330Y66483D01*
X68384Y66398D01*
X69045D01*
Y66198D01*
X68408D01*
X68413Y66172D01*
X68429Y66148D01*
X68478Y66048D01*
X68429Y65949D01*
X68413Y65925D01*
X68408Y65898D01*
X69045D01*
Y65698D01*
X68408D01*
X68413Y65672D01*
X68485Y65564D01*
Y65533D01*
X68413Y65425D01*
X68408Y65398D01*
X69045D01*
Y65198D01*
X68408D01*
X68413Y65172D01*
X68429Y65148D01*
X68478Y65048D01*
X68429Y64949D01*
X68413Y64925D01*
X68408Y64898D01*
X69045D01*
Y64698D01*
X68379D01*
X68317Y64605D01*
X68096D01*
X68059Y64659D01*
X67952Y64731D01*
X67825Y64756D01*
X67575D01*
X67448Y64731D01*
X67341Y64659D01*
X67269Y64552D01*
X67265Y64531D01*
X67135D01*
X67131Y64552D01*
X67059Y64659D01*
X66952Y64731D01*
X66929Y64736D01*
D01*
X66865Y64748D01*
Y64300D01*
X66535D01*
Y64748D01*
X66448Y64731D01*
X66341Y64659D01*
X66269Y64552D01*
X66267Y64541D01*
X66244Y64425D01*
Y64424D01*
X66117Y64389D01*
X65964Y64541D01*
X65543D01*
X63545Y66540D01*
X63567Y66655D01*
Y67155D01*
X63532Y67331D01*
X63433Y67479D01*
X63284Y67579D01*
X63109Y67614D01*
X62027D01*
Y79184D01*
X67056D01*
Y69200D01*
D02*
G37*
G36*
X63984Y64659D02*
X63935Y64541D01*
X63340D01*
X63284Y64579D01*
X63109Y64614D01*
X62027D01*
Y66196D01*
X62446D01*
X63984Y64659D01*
D02*
G37*
G36*
X87745Y62890D02*
Y56694D01*
X50255D01*
Y64299D01*
X50358D01*
X50322Y64957D01*
X50410Y65049D01*
X57048D01*
X57073Y64922D01*
X56876Y64840D01*
X56614Y64640D01*
X56414Y64379D01*
X56381Y64299D01*
X57506D01*
X58631D01*
X58598Y64379D01*
X58398Y64640D01*
X58136Y64840D01*
X57939Y64922D01*
X57964Y65049D01*
X59614D01*
X59792Y64872D01*
X59766Y64846D01*
Y64299D01*
X59893D01*
X59919Y64263D01*
X59949Y64172D01*
X59894Y64090D01*
X59877Y64003D01*
X60773D01*
X60756Y64090D01*
X60701Y64172D01*
X60731Y64263D01*
X60757Y64299D01*
X61278D01*
X61356Y64205D01*
X62459D01*
X63562D01*
X63639Y64299D01*
X64343D01*
X65910Y62733D01*
X66075Y62623D01*
X66270Y62584D01*
X67031D01*
X67226Y62623D01*
X67320Y62686D01*
X67996D01*
X68152Y62717D01*
X68284Y62805D01*
X68373Y62938D01*
X68380Y62973D01*
X68655Y63248D01*
X68732Y63363D01*
X68740Y63405D01*
X68802Y63467D01*
X69370D01*
X69496Y63492D01*
X69604Y63564D01*
X69644Y63624D01*
X69763Y63574D01*
X69763Y63573D01*
Y62923D01*
X69788Y62797D01*
X69789Y62796D01*
Y62492D01*
X69417Y62120D01*
X69268D01*
X69141Y62094D01*
X69033Y62023D01*
X68962Y61915D01*
X68936Y61788D01*
Y61538D01*
X68962Y61411D01*
X69033Y61304D01*
X69141Y61232D01*
X69162Y61228D01*
Y61098D01*
X69141Y61094D01*
X69033Y61023D01*
X68962Y60915D01*
X68944Y60828D01*
X69841D01*
X69824Y60915D01*
X69752Y61023D01*
X69645Y61094D01*
X69624Y61098D01*
Y61228D01*
X69645Y61232D01*
X69752Y61304D01*
X69824Y61411D01*
X69849Y61538D01*
Y61687D01*
X70311Y62149D01*
X70311Y62149D01*
X70377Y62248D01*
X70400Y62365D01*
Y62521D01*
X70495Y62584D01*
Y63248D01*
X70695D01*
Y62612D01*
X70721Y62617D01*
X70829Y62689D01*
X70860D01*
X70968Y62617D01*
X70995Y62612D01*
Y63248D01*
X71195D01*
Y62612D01*
X71221Y62617D01*
X71329Y62689D01*
X71360D01*
X71468Y62617D01*
X71495Y62612D01*
Y63248D01*
X71595D01*
Y63348D01*
X71926D01*
Y63573D01*
X71926Y63574D01*
X72045Y63624D01*
X72085Y63564D01*
X72193Y63492D01*
X72320Y63467D01*
X72545D01*
Y63798D01*
X72745D01*
Y63467D01*
X72970D01*
X73096Y63492D01*
X73121Y63509D01*
X73224Y63554D01*
X73283Y63523D01*
X73293Y63520D01*
X73301Y63515D01*
X73330Y63509D01*
X73359Y63500D01*
X73369Y63501D01*
X73379Y63499D01*
X75467Y63499D01*
X75469Y63500D01*
X75478Y63493D01*
X75554Y63428D01*
X75574Y63394D01*
X75575Y63392D01*
Y62200D01*
X75692D01*
Y61925D01*
X75375D01*
Y60575D01*
X76575D01*
Y61925D01*
X76508D01*
Y62200D01*
X76875D01*
Y63393D01*
X76890Y63422D01*
X76932Y63466D01*
X76981Y63500D01*
X76983Y63499D01*
X77250D01*
X77317Y63372D01*
X77273Y63306D01*
X77255Y63215D01*
X77900D01*
X78545D01*
X78527Y63306D01*
X78438Y63438D01*
X78438Y63439D01*
X78422Y63477D01*
X78423Y63501D01*
X78425Y63600D01*
X78478Y63661D01*
X78486Y63675D01*
X78497Y63687D01*
X78506Y63709D01*
D01*
X78518Y63730D01*
X78520Y63746D01*
X78525Y63761D01*
X78525Y63785D01*
X78528Y63809D01*
X78523Y63825D01*
X78523Y63841D01*
X78513Y63863D01*
X78508Y63881D01*
X78507Y63886D01*
X78497Y63899D01*
X78490Y63913D01*
X78473Y63930D01*
X78458Y63949D01*
X78508Y64066D01*
X78527Y64094D01*
X78558Y64250D01*
Y64299D01*
Y64650D01*
X78527Y64806D01*
X78579Y64931D01*
X78585Y64939D01*
X78593Y64946D01*
X78607Y64972D01*
X78624Y64997D01*
X78626Y65007D01*
X78630Y65016D01*
X78633Y65046D01*
X78639Y65075D01*
Y66421D01*
X87745Y66421D01*
Y62890D01*
D02*
G37*
%LPC*%
G36*
X80991Y74918D02*
Y74342D01*
X81567D01*
X81533Y74423D01*
X81333Y74684D01*
X81072Y74884D01*
X80991Y74918D01*
D02*
G37*
G36*
X79891Y74918D02*
X79811Y74884D01*
X79550Y74684D01*
X79350Y74423D01*
X79316Y74342D01*
X79891D01*
Y74918D01*
D02*
G37*
G36*
X81567Y73242D02*
X80441D01*
X79316D01*
X79350Y73162D01*
X79550Y72901D01*
X79811Y72701D01*
X79886Y72669D01*
X79861Y72542D01*
X79191D01*
Y71842D01*
X80441D01*
X81691D01*
Y72542D01*
X81022D01*
X80997Y72669D01*
X81072Y72701D01*
X81333Y72901D01*
X81533Y73162D01*
X81567Y73242D01*
D02*
G37*
G36*
X81691Y70742D02*
X80991D01*
Y70042D01*
X81691D01*
Y70742D01*
D02*
G37*
G36*
X79891D02*
X79191D01*
Y70042D01*
X79891D01*
Y70742D01*
D02*
G37*
G36*
X86550Y78679D02*
Y78050D01*
X87179D01*
X87136Y78156D01*
X86927Y78427D01*
X86656Y78636D01*
X86550Y78679D01*
D02*
G37*
G36*
X85450D02*
X85344Y78636D01*
X85073Y78427D01*
X84864Y78156D01*
X84821Y78050D01*
X85450D01*
Y78679D01*
D02*
G37*
G36*
X87179Y76950D02*
X86550D01*
Y76321D01*
X86656Y76364D01*
X86927Y76573D01*
X87136Y76844D01*
X87179Y76950D01*
D02*
G37*
G36*
X85450D02*
X84821D01*
X84864Y76844D01*
X85073Y76573D01*
X85344Y76364D01*
X85450Y76321D01*
Y76950D01*
D02*
G37*
G36*
X76757Y71382D02*
Y71140D01*
X77007D01*
X76992Y71216D01*
X76932Y71305D01*
X76843Y71365D01*
X76757Y71382D01*
D02*
G37*
G36*
X71975Y71350D02*
X71625D01*
Y71025D01*
X71975D01*
Y71350D01*
D02*
G37*
G36*
X76557Y71382D02*
X76472Y71365D01*
X76383Y71305D01*
X76323Y71216D01*
X76302Y71110D01*
Y71078D01*
X76295Y70970D01*
X76180Y70957D01*
X75847D01*
Y71262D01*
X74597D01*
Y69962D01*
X75264D01*
X75387Y69937D01*
X76233D01*
Y69837D01*
X76708D01*
X77183D01*
Y70147D01*
X77007D01*
X76986Y70175D01*
X76951Y70274D01*
X76992Y70335D01*
X77012Y70440D01*
Y70580D01*
X76992Y70686D01*
X76932Y70775D01*
Y70776D01*
X76992Y70865D01*
X77007Y70940D01*
X76657D01*
Y71040D01*
X76557D01*
Y71382D01*
D02*
G37*
G36*
X69505Y70837D02*
Y70497D01*
X69885D01*
X69867Y70588D01*
X69779Y70721D01*
X69646Y70809D01*
X69505Y70837D01*
D02*
G37*
G36*
X68975D02*
X68834Y70809D01*
X68702Y70721D01*
X68613Y70588D01*
X68595Y70497D01*
X68975D01*
Y70837D01*
D02*
G37*
G36*
X71975Y70425D02*
X71625D01*
Y70100D01*
X71975D01*
Y70425D01*
D02*
G37*
G36*
X69885Y69967D02*
X69505D01*
Y69628D01*
X69646Y69656D01*
X69779Y69744D01*
X69867Y69876D01*
X69885Y69967D01*
D02*
G37*
G36*
X68975D02*
X68595D01*
X68613Y69876D01*
X68702Y69744D01*
X68834Y69656D01*
X68975Y69628D01*
Y69967D01*
D02*
G37*
G36*
X75488Y69581D02*
Y69201D01*
X75828D01*
X75800Y69342D01*
X75711Y69474D01*
X75579Y69563D01*
X75488Y69581D01*
D02*
G37*
G36*
X74958D02*
X74867Y69563D01*
X74734Y69474D01*
X74646Y69342D01*
X74618Y69201D01*
X74958D01*
Y69581D01*
D02*
G37*
G36*
X75828Y68671D02*
X75488D01*
Y68291D01*
X75579Y68309D01*
X75711Y68397D01*
X75800Y68530D01*
X75828Y68671D01*
D02*
G37*
G36*
X74958D02*
X74618D01*
X74646Y68530D01*
X74734Y68397D01*
X74867Y68309D01*
X74958Y68291D01*
Y68671D01*
D02*
G37*
G36*
X77333Y66576D02*
X76983D01*
Y66251D01*
X77333D01*
Y66576D01*
D02*
G37*
G36*
X76383D02*
X76033D01*
Y66251D01*
X76383D01*
Y66576D01*
D02*
G37*
G36*
X77333Y65651D02*
X76983D01*
Y65326D01*
X77333D01*
Y65651D01*
D02*
G37*
G36*
X76383D02*
X76033D01*
Y65326D01*
X76383D01*
Y65651D01*
D02*
G37*
G36*
X77635Y65055D02*
X77494Y65027D01*
X77361Y64938D01*
X77273Y64806D01*
X77255Y64715D01*
X77635D01*
Y65055D01*
D02*
G37*
G36*
X76875Y65000D02*
X76525D01*
Y64675D01*
X76875D01*
Y65000D01*
D02*
G37*
G36*
X75925D02*
X75575D01*
Y64675D01*
X75925D01*
Y65000D01*
D02*
G37*
G36*
X77635Y64185D02*
X77255D01*
X77273Y64094D01*
X77361Y63962D01*
X77494Y63873D01*
X77635Y63845D01*
Y64185D01*
D02*
G37*
G36*
X52000Y78710D02*
X51687Y78669D01*
X51395Y78548D01*
X51144Y78356D01*
X50952Y78105D01*
X50831Y77813D01*
X50790Y77500D01*
X50831Y77187D01*
X50952Y76895D01*
X51144Y76644D01*
X51395Y76452D01*
X51687Y76331D01*
X52000Y76290D01*
X52313Y76331D01*
X52605Y76452D01*
X52856Y76644D01*
X53048Y76895D01*
X53169Y77187D01*
X53210Y77500D01*
X53169Y77813D01*
X53048Y78105D01*
X52856Y78356D01*
X52605Y78548D01*
X52313Y78669D01*
X52000Y78710D01*
D02*
G37*
G36*
X61276Y77622D02*
X60771D01*
Y75122D01*
X61276D01*
Y77622D01*
D02*
G37*
G36*
X59371D02*
X58866D01*
Y75122D01*
X59371D01*
Y77622D01*
D02*
G37*
G36*
X61276Y73722D02*
X60771D01*
Y71222D01*
X61276D01*
Y73722D01*
D02*
G37*
G36*
X59371D02*
X58866D01*
Y71222D01*
X59371D01*
Y73722D01*
D02*
G37*
G36*
X58756Y67499D02*
X58056D01*
Y66799D01*
X58756D01*
Y67499D01*
D02*
G37*
G36*
X56956D02*
X56256D01*
Y66799D01*
X56956D01*
Y67499D01*
D02*
G37*
G36*
X65289Y77622D02*
X64784D01*
Y75122D01*
X65289D01*
Y77622D01*
D02*
G37*
G36*
X63384D02*
X62879D01*
Y75122D01*
X63384D01*
Y77622D01*
D02*
G37*
G36*
X65289Y73722D02*
X64784D01*
Y71222D01*
X65289D01*
Y73722D01*
D02*
G37*
G36*
X63384D02*
X62879D01*
Y71222D01*
X63384D01*
Y73722D01*
D02*
G37*
G36*
X66120Y69078D02*
X65795D01*
Y68728D01*
X66120D01*
Y69078D01*
D02*
G37*
G36*
Y68128D02*
X65795D01*
Y67778D01*
X66120D01*
Y68128D01*
D02*
G37*
G36*
X80991Y66129D02*
Y65554D01*
X81567D01*
X81533Y65634D01*
X81333Y65896D01*
X81072Y66096D01*
X80991Y66129D01*
D02*
G37*
G36*
X79891Y66129D02*
X79811Y66096D01*
X79550Y65896D01*
X79350Y65634D01*
X79316Y65554D01*
X79891D01*
Y66129D01*
D02*
G37*
G36*
X60773Y63673D02*
X60490D01*
Y63390D01*
X60577Y63407D01*
X60684Y63479D01*
X60756Y63586D01*
X60773Y63673D01*
D02*
G37*
G36*
X60160D02*
X59877D01*
X59894Y63586D01*
X59966Y63479D01*
X60073Y63407D01*
X60160Y63390D01*
Y63673D01*
D02*
G37*
G36*
X63557Y63605D02*
X62759D01*
Y63196D01*
X63109D01*
X63284Y63231D01*
X63433Y63331D01*
X63532Y63479D01*
X63557Y63605D01*
D02*
G37*
G36*
X62159D02*
X61360D01*
X61385Y63479D01*
X61484Y63331D01*
X61633Y63231D01*
X61809Y63196D01*
X62159D01*
Y63605D01*
D02*
G37*
G36*
X81567Y64454D02*
X80441D01*
X79316D01*
X79350Y64374D01*
X79407Y64299D01*
X79494Y64185D01*
X79550Y64112D01*
X79811Y63912D01*
X79886Y63881D01*
X79861Y63754D01*
X79191D01*
Y63054D01*
X80441D01*
X81691D01*
Y63754D01*
X81022D01*
X80997Y63881D01*
X81072Y63912D01*
X81333Y64112D01*
X81379Y64172D01*
X81533Y64374D01*
X81567Y64454D01*
D02*
G37*
G36*
X56956Y63199D02*
X56381D01*
X56414Y63118D01*
X56614Y62857D01*
X56876Y62657D01*
X56956Y62623D01*
Y63199D01*
D02*
G37*
G36*
X58631D02*
X58056D01*
Y62623D01*
X58136Y62657D01*
X58398Y62857D01*
X58598Y63118D01*
X58631Y63199D01*
D02*
G37*
G36*
X71926Y63148D02*
X71695D01*
Y62612D01*
X71721Y62617D01*
X71829Y62689D01*
X71901Y62797D01*
X71926Y62923D01*
Y63148D01*
D02*
G37*
G36*
X78545Y62685D02*
X78165D01*
Y62345D01*
X78306Y62373D01*
X78438Y62462D01*
X78527Y62594D01*
X78545Y62685D01*
D02*
G37*
G36*
X77635D02*
X77255D01*
X77273Y62594D01*
X77362Y62462D01*
X77494Y62373D01*
X77635Y62345D01*
Y62685D01*
D02*
G37*
G36*
X74925Y61925D02*
X74590D01*
Y61515D01*
X74925D01*
Y61925D01*
D02*
G37*
G36*
X74060D02*
X73725D01*
Y61515D01*
X74060D01*
Y61925D01*
D02*
G37*
G36*
X81691Y61954D02*
X80991D01*
Y61254D01*
X81691D01*
Y61954D01*
D02*
G37*
G36*
X79891D02*
X79191D01*
Y61254D01*
X79891D01*
Y61954D01*
D02*
G37*
G36*
X74925Y60985D02*
X74590D01*
Y60575D01*
X74925D01*
Y60985D01*
D02*
G37*
G36*
X74060D02*
X73725D01*
Y60575D01*
X74060D01*
Y60985D01*
D02*
G37*
G36*
X69841Y60498D02*
X69558D01*
Y60215D01*
X69645Y60232D01*
X69752Y60304D01*
X69824Y60411D01*
X69841Y60498D01*
D02*
G37*
G36*
X69228D02*
X68944D01*
X68962Y60411D01*
X69033Y60304D01*
X69141Y60232D01*
X69228Y60215D01*
Y60498D01*
D02*
G37*
G36*
X86550Y59679D02*
Y59050D01*
X87179D01*
X87136Y59156D01*
X86927Y59427D01*
X86656Y59636D01*
X86550Y59679D01*
D02*
G37*
G36*
X85450D02*
X85344Y59636D01*
X85073Y59427D01*
X84864Y59156D01*
X84821Y59050D01*
X85450D01*
Y59679D01*
D02*
G37*
G36*
X52550D02*
Y59050D01*
X53179D01*
X53136Y59156D01*
X52927Y59427D01*
X52656Y59636D01*
X52550Y59679D01*
D02*
G37*
G36*
X51450D02*
X51344Y59636D01*
X51073Y59427D01*
X50864Y59156D01*
X50821Y59050D01*
X51450D01*
Y59679D01*
D02*
G37*
G36*
X53179Y57950D02*
X52550D01*
Y57321D01*
X52656Y57364D01*
X52927Y57573D01*
X53136Y57844D01*
X53179Y57950D01*
D02*
G37*
G36*
X51450D02*
X50821D01*
X50864Y57844D01*
X51073Y57573D01*
X51344Y57364D01*
X51450Y57321D01*
Y57950D01*
D02*
G37*
G36*
X87179D02*
X86550D01*
Y57321D01*
X86656Y57364D01*
X86927Y57573D01*
X87136Y57844D01*
X87179Y57950D01*
D02*
G37*
G36*
X85450D02*
X84821D01*
X84864Y57844D01*
X85073Y57573D01*
X85344Y57364D01*
X85450Y57321D01*
Y57950D01*
D02*
G37*
%LPD*%
D10*
X71095Y67848D02*
X71595D01*
X70595D02*
X71095D01*
X71585Y67858D02*
X71595Y67848D01*
X72181Y69406D02*
X72194D01*
X72645Y66298D02*
X73436D01*
X72495D02*
X72645D01*
X72504Y66808D02*
X73297D01*
X73723Y67233D01*
X69175Y64299D02*
X69185Y64289D01*
X67701Y64299D02*
X69175D01*
X67700Y64300D02*
X67701Y64299D01*
X70095Y62365D02*
Y63398D01*
X69393Y61663D02*
X70095Y62365D01*
X68701Y63798D02*
X69195D01*
X68402Y63500D02*
X68701Y63798D01*
X72194Y69406D02*
X72275Y69325D01*
X72314Y67322D02*
Y69200D01*
Y67322D02*
X72337Y67298D01*
X72495D01*
X69185Y64289D02*
X69195Y64298D01*
X69240Y68732D02*
X69479Y68494D01*
X69624D01*
X70095Y68023D01*
Y67698D02*
Y68023D01*
X68482Y66798D02*
X69195D01*
X67970Y67310D02*
X68482Y66798D01*
X69240Y67322D02*
Y68732D01*
X69217Y67298D02*
X69240Y67322D01*
X69195Y67298D02*
X69217D01*
X72495Y66798D02*
X72504Y66808D01*
X72797Y63798D02*
X72820Y63775D01*
X72495Y63798D02*
X72797D01*
X76294Y70447D02*
X76317Y70470D01*
X76617D01*
X76657Y70510D01*
D11*
X66270Y63094D02*
X67031D01*
X75387Y70447D02*
X76294D01*
X75372Y70462D02*
X75387Y70447D01*
X75347Y70462D02*
X75372D01*
X75222Y70587D02*
X75347Y70462D01*
X75222Y70587D02*
Y70612D01*
X73672D02*
X73698Y70587D01*
Y68961D02*
Y70587D01*
Y68961D02*
X73723Y68936D01*
X62459Y66905D02*
X66270Y63094D01*
D12*
X71095Y63398D02*
Y64147D01*
X70595Y63398D02*
Y64147D01*
Y66949D02*
Y67698D01*
X71095Y66822D02*
Y67698D01*
D32*
X69240Y70232D02*
D03*
X69240Y68732D02*
D03*
X77900Y64450D02*
D03*
X77900Y62950D02*
D03*
D33*
X67970Y68428D02*
D03*
X66420D02*
D03*
X75222Y70612D02*
D03*
X73672D02*
D03*
D34*
X66700Y64300D02*
D03*
X67700D02*
D03*
D35*
X72275Y69175D02*
D03*
Y70725D02*
D03*
X76683Y67501D02*
D03*
Y65951D02*
D03*
X76225Y62825D02*
D03*
Y64375D02*
D03*
D36*
X76708Y69672D02*
D03*
Y68772D02*
D03*
D37*
X76657Y71040D02*
D03*
Y70510D02*
D03*
D38*
X75223Y68936D02*
D03*
X73723Y68936D02*
D03*
D39*
X64084Y74422D02*
D03*
X60071D02*
D03*
D40*
X60325Y64838D02*
D03*
Y63838D02*
D03*
X69393Y61663D02*
D03*
Y60663D02*
D03*
D41*
X62459Y66905D02*
D03*
Y63905D02*
D03*
D42*
X74325Y61250D02*
D03*
X75975D02*
D03*
D43*
X69045Y67298D02*
D03*
Y66798D02*
D03*
Y66298D02*
D03*
Y65798D02*
D03*
Y65298D02*
D03*
Y64798D02*
D03*
Y64298D02*
D03*
Y63798D02*
D03*
X72645D02*
D03*
Y64298D02*
D03*
Y64798D02*
D03*
Y65298D02*
D03*
Y65798D02*
D03*
Y66298D02*
D03*
Y66798D02*
D03*
Y67298D02*
D03*
D44*
X70095Y63248D02*
D03*
X70595D02*
D03*
X71095D02*
D03*
X71595D02*
D03*
Y67848D02*
D03*
X71095D02*
D03*
X70595D02*
D03*
X70095D02*
D03*
D45*
X70845Y65548D02*
D03*
D46*
X76100Y62612D02*
X76281Y62794D01*
X76100Y61375D02*
Y62612D01*
X75975Y61250D02*
X76100Y61375D01*
X67031Y63094D02*
X67996D01*
D47*
X76125Y62650D02*
X76300Y62825D01*
X76281Y62794D02*
X76300Y62813D01*
X62459Y63905D02*
X62859D01*
X63109Y63655D01*
D48*
X73507Y66298D02*
X74709Y67501D01*
X73436Y66298D02*
X73507D01*
X73723Y67233D02*
Y68936D01*
X74709Y67501D02*
X76683D01*
X67996Y63094D02*
X68402Y63500D01*
X67970Y67310D02*
Y68428D01*
D49*
X77140Y66091D02*
X78080Y67031D01*
Y68931D01*
X80441Y71292D01*
D50*
X76708Y67526D02*
Y68772D01*
X76683Y67501D02*
X76708Y67526D01*
X76683Y67501D02*
X76683D01*
D51*
X57506Y66249D02*
D03*
X80441Y62504D02*
D03*
Y71292D02*
D03*
D52*
X57506Y63749D02*
D03*
X80441Y65004D02*
D03*
Y73792D02*
D03*
D53*
X52000Y58500D02*
D03*
X86000D02*
D03*
Y77500D02*
D03*
X52000D02*
D03*
D54*
X65000Y60000D02*
D03*
X63000D02*
D03*
X61000Y62500D02*
D03*
X68000Y60000D02*
D03*
X78000D02*
D03*
X72000D02*
D03*
X61000D02*
D03*
X59000D02*
D03*
X57000D02*
D03*
X55000D02*
D03*
X84000Y58000D02*
D03*
X72000D02*
D03*
X74000D02*
D03*
X76000D02*
D03*
X78000D02*
D03*
X80000D02*
D03*
X82000D02*
D03*
X54000D02*
D03*
X56000D02*
D03*
X58000D02*
D03*
X60000D02*
D03*
X62000D02*
D03*
X64000D02*
D03*
X66000D02*
D03*
X68000D02*
D03*
X70000D02*
D03*
X76000Y72000D02*
D03*
X74000D02*
D03*
X72000D02*
D03*
X70000D02*
D03*
X68000D02*
D03*
Y74000D02*
D03*
X70000D02*
D03*
X72000D02*
D03*
X74000D02*
D03*
X76000D02*
D03*
Y76000D02*
D03*
X74000D02*
D03*
X72000D02*
D03*
X70000D02*
D03*
X68000D02*
D03*
X84000Y78000D02*
D03*
X82000D02*
D03*
X80000D02*
D03*
X78000D02*
D03*
X76000D02*
D03*
X74000D02*
D03*
X72000D02*
D03*
X70000D02*
D03*
X68000D02*
D03*
X71425Y64541D02*
D03*
X71450Y65608D02*
D03*
X70256Y64567D02*
D03*
Y65634D02*
D03*
X71450Y66650D02*
D03*
X70282Y66624D02*
D03*
M02*
