G04*
G04 #@! TF.GenerationSoftware,Altium Limited,Altium Designer,19.1.6 (110)*
G04*
G04 Layer_Color=32896*
%FSLAX43Y43*%
%MOMM*%
G71*
G01*
G75*
G36*
X77874Y58339D02*
X77915Y58329D01*
X77952Y58317D01*
X77981Y58304D01*
X78005Y58289D01*
X78024Y58276D01*
X78035Y58267D01*
X78037Y58265D01*
X78039Y58263D01*
X78053Y58248D01*
X78066Y58229D01*
X78091Y58191D01*
X78109Y58150D01*
X78124Y58109D01*
X78135Y58072D01*
X78139Y58057D01*
X78142Y58042D01*
X78144Y58031D01*
X78146Y58022D01*
X78148Y58017D01*
Y58015D01*
X77966Y57978D01*
X77963Y58007D01*
X77957Y58031D01*
X77950Y58054D01*
X77942Y58070D01*
X77935Y58083D01*
X77929Y58094D01*
X77926Y58100D01*
X77924Y58102D01*
X77909Y58117D01*
X77894Y58126D01*
X77879Y58133D01*
X77866Y58139D01*
X77855Y58142D01*
X77844Y58144D01*
X77837D01*
X77818Y58142D01*
X77802Y58139D01*
X77787Y58133D01*
X77776Y58126D01*
X77766Y58118D01*
X77759Y58113D01*
X77755Y58109D01*
X77754Y58107D01*
X77742Y58092D01*
X77735Y58076D01*
X77728Y58059D01*
X77724Y58044D01*
X77722Y58030D01*
X77720Y58018D01*
Y58011D01*
Y58007D01*
X77722Y57980D01*
X77728Y57955D01*
X77735Y57935D01*
X77742Y57918D01*
X77750Y57905D01*
X77757Y57894D01*
X77763Y57889D01*
X77765Y57887D01*
X77783Y57874D01*
X77802Y57863D01*
X77822Y57857D01*
X77842Y57852D01*
X77859Y57850D01*
X77874Y57848D01*
X77887D01*
X77907Y57652D01*
X77889Y57657D01*
X77872Y57663D01*
X77855Y57667D01*
X77842Y57668D01*
X77833Y57670D01*
X77818D01*
X77798Y57668D01*
X77779Y57663D01*
X77763Y57654D01*
X77748Y57644D01*
X77737Y57633D01*
X77728Y57626D01*
X77722Y57618D01*
X77720Y57617D01*
X77707Y57596D01*
X77696Y57572D01*
X77689Y57548D01*
X77685Y57526D01*
X77681Y57505D01*
X77679Y57489D01*
Y57478D01*
Y57476D01*
Y57474D01*
X77681Y57439D01*
X77687Y57409D01*
X77692Y57381D01*
X77700Y57361D01*
X77709Y57343D01*
X77715Y57331D01*
X77720Y57322D01*
X77722Y57320D01*
X77739Y57302D01*
X77755Y57289D01*
X77774Y57280D01*
X77791Y57274D01*
X77803Y57270D01*
X77815Y57267D01*
X77826D01*
X77846Y57268D01*
X77865Y57274D01*
X77881Y57281D01*
X77894Y57291D01*
X77905Y57298D01*
X77915Y57306D01*
X77920Y57311D01*
X77922Y57313D01*
X77935Y57331D01*
X77946Y57354D01*
X77955Y57376D01*
X77961Y57398D01*
X77966Y57418D01*
X77968Y57433D01*
X77970Y57444D01*
Y57446D01*
Y57448D01*
X78161Y57420D01*
X78152Y57361D01*
X78139Y57311D01*
X78129Y57287D01*
X78120Y57267D01*
X78111Y57246D01*
X78102Y57230D01*
X78092Y57213D01*
X78083Y57200D01*
X78076Y57189D01*
X78068Y57178D01*
X78063Y57170D01*
X78057Y57165D01*
X78055Y57163D01*
X78053Y57161D01*
X78035Y57144D01*
X78016Y57130D01*
X77998Y57117D01*
X77978Y57107D01*
X77939Y57089D01*
X77903Y57078D01*
X77872Y57072D01*
X77857Y57070D01*
X77846Y57069D01*
X77837Y57067D01*
X77824D01*
X77798Y57069D01*
X77774Y57072D01*
X77750Y57078D01*
X77726Y57083D01*
X77685Y57102D01*
X77650Y57122D01*
X77620Y57143D01*
X77609Y57152D01*
X77600Y57161D01*
X77592Y57167D01*
X77585Y57172D01*
X77583Y57176D01*
X77581Y57178D01*
X77563Y57200D01*
X77546Y57222D01*
X77533Y57246D01*
X77522Y57270D01*
X77504Y57317D01*
X77491Y57361D01*
X77487Y57383D01*
X77483Y57402D01*
X77481Y57418D01*
X77479Y57433D01*
X77478Y57444D01*
Y57454D01*
Y57459D01*
Y57461D01*
X77479Y57504D01*
X77487Y57543D01*
X77494Y57576D01*
X77505Y57604D01*
X77515Y57626D01*
X77524Y57643D01*
X77531Y57654D01*
X77533Y57657D01*
X77555Y57685D01*
X77578Y57707D01*
X77600Y57724D01*
X77622Y57739D01*
X77642Y57748D01*
X77657Y57754D01*
X77668Y57757D01*
X77670Y57759D01*
X77672D01*
X77646Y57778D01*
X77624Y57798D01*
X77604Y57818D01*
X77589Y57835D01*
X77576Y57852D01*
X77568Y57863D01*
X77563Y57870D01*
X77561Y57874D01*
X77548Y57900D01*
X77539Y57926D01*
X77531Y57950D01*
X77528Y57974D01*
X77524Y57992D01*
X77522Y58009D01*
Y58018D01*
Y58022D01*
Y58044D01*
X77526Y58067D01*
X77535Y58107D01*
X77548Y58144D01*
X77563Y58178D01*
X77579Y58205D01*
X77587Y58217D01*
X77592Y58226D01*
X77598Y58233D01*
X77602Y58239D01*
X77604Y58241D01*
X77605Y58242D01*
X77622Y58261D01*
X77639Y58276D01*
X77657Y58289D01*
X77676Y58300D01*
X77713Y58318D01*
X77748Y58329D01*
X77781Y58337D01*
X77794Y58339D01*
X77805Y58341D01*
X77816Y58342D01*
X77852D01*
X77874Y58339D01*
D02*
G37*
G36*
X77076D02*
X77117Y58329D01*
X77154Y58317D01*
X77183Y58304D01*
X77207Y58289D01*
X77226Y58276D01*
X77237Y58267D01*
X77239Y58265D01*
X77241Y58263D01*
X77255Y58248D01*
X77268Y58229D01*
X77292Y58191D01*
X77311Y58150D01*
X77326Y58109D01*
X77337Y58072D01*
X77341Y58057D01*
X77344Y58042D01*
X77346Y58031D01*
X77348Y58022D01*
X77350Y58017D01*
Y58015D01*
X77168Y57978D01*
X77165Y58007D01*
X77159Y58031D01*
X77152Y58054D01*
X77144Y58070D01*
X77137Y58083D01*
X77131Y58094D01*
X77128Y58100D01*
X77126Y58102D01*
X77111Y58117D01*
X77096Y58126D01*
X77081Y58133D01*
X77068Y58139D01*
X77057Y58142D01*
X77046Y58144D01*
X77039D01*
X77020Y58142D01*
X77004Y58139D01*
X76989Y58133D01*
X76978Y58126D01*
X76968Y58118D01*
X76961Y58113D01*
X76957Y58109D01*
X76955Y58107D01*
X76944Y58092D01*
X76937Y58076D01*
X76930Y58059D01*
X76926Y58044D01*
X76924Y58030D01*
X76922Y58018D01*
Y58011D01*
Y58007D01*
X76924Y57980D01*
X76930Y57955D01*
X76937Y57935D01*
X76944Y57918D01*
X76952Y57905D01*
X76959Y57894D01*
X76965Y57889D01*
X76967Y57887D01*
X76985Y57874D01*
X77004Y57863D01*
X77024Y57857D01*
X77044Y57852D01*
X77061Y57850D01*
X77076Y57848D01*
X77089D01*
X77109Y57652D01*
X77091Y57657D01*
X77074Y57663D01*
X77057Y57667D01*
X77044Y57668D01*
X77035Y57670D01*
X77020D01*
X77000Y57668D01*
X76981Y57663D01*
X76965Y57654D01*
X76950Y57644D01*
X76939Y57633D01*
X76930Y57626D01*
X76924Y57618D01*
X76922Y57617D01*
X76909Y57596D01*
X76898Y57572D01*
X76891Y57548D01*
X76887Y57526D01*
X76883Y57505D01*
X76881Y57489D01*
Y57478D01*
Y57476D01*
Y57474D01*
X76883Y57439D01*
X76889Y57409D01*
X76894Y57381D01*
X76902Y57361D01*
X76911Y57343D01*
X76917Y57331D01*
X76922Y57322D01*
X76924Y57320D01*
X76941Y57302D01*
X76957Y57289D01*
X76976Y57280D01*
X76992Y57274D01*
X77005Y57270D01*
X77017Y57267D01*
X77028D01*
X77048Y57268D01*
X77067Y57274D01*
X77083Y57281D01*
X77096Y57291D01*
X77107Y57298D01*
X77117Y57306D01*
X77122Y57311D01*
X77124Y57313D01*
X77137Y57331D01*
X77148Y57354D01*
X77157Y57376D01*
X77163Y57398D01*
X77168Y57418D01*
X77170Y57433D01*
X77172Y57444D01*
Y57446D01*
Y57448D01*
X77363Y57420D01*
X77354Y57361D01*
X77341Y57311D01*
X77331Y57287D01*
X77322Y57267D01*
X77313Y57246D01*
X77304Y57230D01*
X77294Y57213D01*
X77285Y57200D01*
X77278Y57189D01*
X77270Y57178D01*
X77265Y57170D01*
X77259Y57165D01*
X77257Y57163D01*
X77255Y57161D01*
X77237Y57144D01*
X77218Y57130D01*
X77200Y57117D01*
X77179Y57107D01*
X77141Y57089D01*
X77105Y57078D01*
X77074Y57072D01*
X77059Y57070D01*
X77048Y57069D01*
X77039Y57067D01*
X77026D01*
X77000Y57069D01*
X76976Y57072D01*
X76952Y57078D01*
X76928Y57083D01*
X76887Y57102D01*
X76852Y57122D01*
X76822Y57143D01*
X76811Y57152D01*
X76802Y57161D01*
X76794Y57167D01*
X76787Y57172D01*
X76785Y57176D01*
X76783Y57178D01*
X76765Y57200D01*
X76748Y57222D01*
X76735Y57246D01*
X76724Y57270D01*
X76705Y57317D01*
X76693Y57361D01*
X76689Y57383D01*
X76685Y57402D01*
X76683Y57418D01*
X76681Y57433D01*
X76680Y57444D01*
Y57454D01*
Y57459D01*
Y57461D01*
X76681Y57504D01*
X76689Y57543D01*
X76696Y57576D01*
X76707Y57604D01*
X76717Y57626D01*
X76726Y57643D01*
X76733Y57654D01*
X76735Y57657D01*
X76757Y57685D01*
X76780Y57707D01*
X76802Y57724D01*
X76824Y57739D01*
X76844Y57748D01*
X76859Y57754D01*
X76870Y57757D01*
X76872Y57759D01*
X76874D01*
X76848Y57778D01*
X76826Y57798D01*
X76805Y57818D01*
X76791Y57835D01*
X76778Y57852D01*
X76770Y57863D01*
X76765Y57870D01*
X76763Y57874D01*
X76750Y57900D01*
X76741Y57926D01*
X76733Y57950D01*
X76730Y57974D01*
X76726Y57992D01*
X76724Y58009D01*
Y58018D01*
Y58022D01*
Y58044D01*
X76728Y58067D01*
X76737Y58107D01*
X76750Y58144D01*
X76765Y58178D01*
X76781Y58205D01*
X76789Y58217D01*
X76794Y58226D01*
X76800Y58233D01*
X76804Y58239D01*
X76805Y58241D01*
X76807Y58242D01*
X76824Y58261D01*
X76841Y58276D01*
X76859Y58289D01*
X76878Y58300D01*
X76915Y58318D01*
X76950Y58329D01*
X76983Y58337D01*
X76996Y58339D01*
X77007Y58341D01*
X77018Y58342D01*
X77054D01*
X77076Y58339D01*
D02*
G37*
G36*
X76278Y58339D02*
X76318Y58329D01*
X76356Y58317D01*
X76385Y58304D01*
X76409Y58289D01*
X76428Y58276D01*
X76439Y58267D01*
X76441Y58265D01*
X76443Y58263D01*
X76457Y58248D01*
X76470Y58229D01*
X76494Y58191D01*
X76513Y58150D01*
X76528Y58109D01*
X76539Y58072D01*
X76543Y58057D01*
X76546Y58042D01*
X76548Y58031D01*
X76550Y58022D01*
X76552Y58017D01*
Y58015D01*
X76370Y57978D01*
X76367Y58007D01*
X76361Y58031D01*
X76354Y58054D01*
X76346Y58070D01*
X76339Y58083D01*
X76333Y58094D01*
X76330Y58100D01*
X76328Y58102D01*
X76313Y58117D01*
X76298Y58126D01*
X76283Y58133D01*
X76270Y58139D01*
X76259Y58142D01*
X76248Y58144D01*
X76241D01*
X76222Y58142D01*
X76206Y58139D01*
X76191Y58133D01*
X76180Y58126D01*
X76170Y58118D01*
X76163Y58113D01*
X76159Y58109D01*
X76157Y58107D01*
X76146Y58092D01*
X76139Y58076D01*
X76131Y58059D01*
X76128Y58044D01*
X76126Y58030D01*
X76124Y58018D01*
Y58011D01*
Y58007D01*
X76126Y57980D01*
X76131Y57955D01*
X76139Y57935D01*
X76146Y57918D01*
X76154Y57905D01*
X76161Y57894D01*
X76167Y57889D01*
X76168Y57887D01*
X76187Y57874D01*
X76206Y57863D01*
X76226Y57857D01*
X76246Y57852D01*
X76263Y57850D01*
X76278Y57848D01*
X76291D01*
X76311Y57652D01*
X76293Y57657D01*
X76276Y57663D01*
X76259Y57667D01*
X76246Y57668D01*
X76237Y57670D01*
X76222D01*
X76202Y57668D01*
X76183Y57663D01*
X76167Y57654D01*
X76152Y57644D01*
X76141Y57633D01*
X76131Y57626D01*
X76126Y57618D01*
X76124Y57617D01*
X76111Y57596D01*
X76100Y57572D01*
X76093Y57548D01*
X76089Y57526D01*
X76085Y57505D01*
X76083Y57489D01*
Y57478D01*
Y57476D01*
Y57474D01*
X76085Y57439D01*
X76091Y57409D01*
X76096Y57381D01*
X76104Y57361D01*
X76113Y57343D01*
X76118Y57331D01*
X76124Y57322D01*
X76126Y57320D01*
X76143Y57302D01*
X76159Y57289D01*
X76178Y57280D01*
X76194Y57274D01*
X76207Y57270D01*
X76218Y57267D01*
X76230D01*
X76250Y57268D01*
X76268Y57274D01*
X76285Y57281D01*
X76298Y57291D01*
X76309Y57298D01*
X76318Y57306D01*
X76324Y57311D01*
X76326Y57313D01*
X76339Y57331D01*
X76350Y57354D01*
X76359Y57376D01*
X76365Y57398D01*
X76370Y57418D01*
X76372Y57433D01*
X76374Y57444D01*
Y57446D01*
Y57448D01*
X76565Y57420D01*
X76555Y57361D01*
X76543Y57311D01*
X76533Y57287D01*
X76524Y57267D01*
X76515Y57246D01*
X76505Y57230D01*
X76496Y57213D01*
X76487Y57200D01*
X76480Y57189D01*
X76472Y57178D01*
X76467Y57170D01*
X76461Y57165D01*
X76459Y57163D01*
X76457Y57161D01*
X76439Y57144D01*
X76420Y57130D01*
X76402Y57117D01*
X76381Y57107D01*
X76343Y57089D01*
X76307Y57078D01*
X76276Y57072D01*
X76261Y57070D01*
X76250Y57069D01*
X76241Y57067D01*
X76228D01*
X76202Y57069D01*
X76178Y57072D01*
X76154Y57078D01*
X76130Y57083D01*
X76089Y57102D01*
X76054Y57122D01*
X76024Y57143D01*
X76013Y57152D01*
X76004Y57161D01*
X75996Y57167D01*
X75989Y57172D01*
X75987Y57176D01*
X75985Y57178D01*
X75967Y57200D01*
X75950Y57222D01*
X75937Y57246D01*
X75926Y57270D01*
X75907Y57317D01*
X75894Y57361D01*
X75891Y57383D01*
X75887Y57402D01*
X75885Y57418D01*
X75883Y57433D01*
X75881Y57444D01*
Y57454D01*
Y57459D01*
Y57461D01*
X75883Y57504D01*
X75891Y57543D01*
X75898Y57576D01*
X75909Y57604D01*
X75919Y57626D01*
X75928Y57643D01*
X75935Y57654D01*
X75937Y57657D01*
X75959Y57685D01*
X75981Y57707D01*
X76004Y57724D01*
X76026Y57739D01*
X76046Y57748D01*
X76061Y57754D01*
X76072Y57757D01*
X76074Y57759D01*
X76076D01*
X76050Y57778D01*
X76028Y57798D01*
X76007Y57818D01*
X75993Y57835D01*
X75980Y57852D01*
X75972Y57863D01*
X75967Y57870D01*
X75965Y57874D01*
X75952Y57900D01*
X75943Y57926D01*
X75935Y57950D01*
X75931Y57974D01*
X75928Y57992D01*
X75926Y58009D01*
Y58018D01*
Y58022D01*
Y58044D01*
X75930Y58067D01*
X75939Y58107D01*
X75952Y58144D01*
X75967Y58178D01*
X75983Y58205D01*
X75991Y58217D01*
X75996Y58226D01*
X76002Y58233D01*
X76006Y58239D01*
X76007Y58241D01*
X76009Y58242D01*
X76026Y58261D01*
X76043Y58276D01*
X76061Y58289D01*
X76080Y58300D01*
X76117Y58318D01*
X76152Y58329D01*
X76185Y58337D01*
X76198Y58339D01*
X76209Y58341D01*
X76220Y58342D01*
X76256D01*
X76278Y58339D01*
D02*
G37*
G36*
X71060Y58341D02*
X71086Y58339D01*
X71132Y58328D01*
X71173Y58315D01*
X71206Y58298D01*
X71234Y58281D01*
X71243Y58272D01*
X71252Y58267D01*
X71260Y58261D01*
X71265Y58255D01*
X71267Y58254D01*
X71269Y58252D01*
X71286Y58233D01*
X71299Y58215D01*
X71323Y58170D01*
X71341Y58124D01*
X71354Y58080D01*
X71360Y58057D01*
X71365Y58037D01*
X71367Y58018D01*
X71371Y58004D01*
X71373Y57991D01*
Y57981D01*
X71375Y57974D01*
Y57972D01*
X71178Y57946D01*
X71175Y57981D01*
X71169Y58011D01*
X71162Y58037D01*
X71152Y58059D01*
X71141Y58080D01*
X71130Y58094D01*
X71117Y58107D01*
X71104Y58118D01*
X71091Y58126D01*
X71080Y58131D01*
X71058Y58139D01*
X71050Y58141D01*
X71043Y58142D01*
X71038D01*
X71017Y58141D01*
X70997Y58135D01*
X70980Y58130D01*
X70967Y58122D01*
X70956Y58113D01*
X70949Y58107D01*
X70943Y58102D01*
X70941Y58100D01*
X70928Y58083D01*
X70919Y58063D01*
X70913Y58042D01*
X70908Y58022D01*
X70906Y58004D01*
X70904Y57989D01*
Y57980D01*
Y57978D01*
Y57976D01*
X70906Y57948D01*
X70912Y57920D01*
X70919Y57894D01*
X70926Y57872D01*
X70934Y57852D01*
X70941Y57837D01*
X70947Y57828D01*
X70949Y57824D01*
X70956Y57813D01*
X70965Y57800D01*
X70988Y57770D01*
X71013Y57739D01*
X71041Y57705D01*
X71067Y57674D01*
X71078Y57659D01*
X71089Y57648D01*
X71097Y57639D01*
X71104Y57631D01*
X71108Y57626D01*
X71110Y57624D01*
X71139Y57591D01*
X71165Y57557D01*
X71191Y57528D01*
X71213Y57500D01*
X71234Y57472D01*
X71250Y57448D01*
X71267Y57426D01*
X71280Y57405D01*
X71293Y57387D01*
X71304Y57372D01*
X71312Y57357D01*
X71319Y57346D01*
X71325Y57337D01*
X71326Y57331D01*
X71330Y57328D01*
Y57326D01*
X71349Y57283D01*
X71363Y57241D01*
X71376Y57200D01*
X71384Y57165D01*
X71389Y57133D01*
X71393Y57120D01*
X71395Y57109D01*
Y57100D01*
X71397Y57093D01*
Y57089D01*
Y57087D01*
X70706D01*
Y57309D01*
X71099D01*
X71086Y57333D01*
X71073Y57354D01*
X71067Y57361D01*
X71062Y57368D01*
X71060Y57372D01*
X71058Y57374D01*
X71045Y57391D01*
X71028Y57411D01*
X71008Y57433D01*
X70988Y57457D01*
X70969Y57480D01*
X70952Y57498D01*
X70947Y57505D01*
X70941Y57511D01*
X70939Y57513D01*
X70938Y57515D01*
X70902Y57555D01*
X70873Y57593D01*
X70847Y57624D01*
X70826Y57652D01*
X70812Y57672D01*
X70801Y57689D01*
X70795Y57698D01*
X70793Y57702D01*
X70778Y57730D01*
X70763Y57755D01*
X70752Y57780D01*
X70743Y57802D01*
X70738Y57820D01*
X70732Y57833D01*
X70728Y57842D01*
Y57846D01*
X70721Y57874D01*
X70715Y57900D01*
X70712Y57926D01*
X70708Y57948D01*
Y57968D01*
X70706Y57983D01*
Y57992D01*
Y57996D01*
Y58022D01*
X70710Y58046D01*
X70719Y58091D01*
X70732Y58131D01*
X70747Y58167D01*
X70763Y58196D01*
X70771Y58209D01*
X70776Y58218D01*
X70782Y58226D01*
X70786Y58231D01*
X70788Y58235D01*
X70789Y58237D01*
X70806Y58255D01*
X70823Y58272D01*
X70841Y58285D01*
X70862Y58298D01*
X70882Y58309D01*
X70902Y58317D01*
X70941Y58329D01*
X70978Y58337D01*
X70993Y58339D01*
X71008Y58341D01*
X71019Y58342D01*
X71034D01*
X71060Y58341D01*
D02*
G37*
G36*
X70262D02*
X70288Y58339D01*
X70334Y58328D01*
X70375Y58315D01*
X70408Y58298D01*
X70436Y58281D01*
X70445Y58272D01*
X70454Y58267D01*
X70462Y58261D01*
X70467Y58255D01*
X70469Y58254D01*
X70471Y58252D01*
X70488Y58233D01*
X70501Y58215D01*
X70525Y58170D01*
X70543Y58124D01*
X70556Y58080D01*
X70562Y58057D01*
X70567Y58037D01*
X70569Y58018D01*
X70573Y58004D01*
X70575Y57991D01*
Y57981D01*
X70576Y57974D01*
Y57972D01*
X70380Y57946D01*
X70377Y57981D01*
X70371Y58011D01*
X70364Y58037D01*
X70354Y58059D01*
X70343Y58080D01*
X70332Y58094D01*
X70319Y58107D01*
X70306Y58118D01*
X70293Y58126D01*
X70282Y58131D01*
X70260Y58139D01*
X70252Y58141D01*
X70245Y58142D01*
X70239D01*
X70219Y58141D01*
X70199Y58135D01*
X70182Y58130D01*
X70169Y58122D01*
X70158Y58113D01*
X70151Y58107D01*
X70145Y58102D01*
X70143Y58100D01*
X70130Y58083D01*
X70121Y58063D01*
X70115Y58042D01*
X70110Y58022D01*
X70108Y58004D01*
X70106Y57989D01*
Y57980D01*
Y57978D01*
Y57976D01*
X70108Y57948D01*
X70114Y57920D01*
X70121Y57894D01*
X70128Y57872D01*
X70136Y57852D01*
X70143Y57837D01*
X70149Y57828D01*
X70151Y57824D01*
X70158Y57813D01*
X70167Y57800D01*
X70189Y57770D01*
X70215Y57739D01*
X70243Y57705D01*
X70269Y57674D01*
X70280Y57659D01*
X70291Y57648D01*
X70299Y57639D01*
X70306Y57631D01*
X70310Y57626D01*
X70312Y57624D01*
X70341Y57591D01*
X70367Y57557D01*
X70393Y57528D01*
X70415Y57500D01*
X70436Y57472D01*
X70452Y57448D01*
X70469Y57426D01*
X70482Y57405D01*
X70495Y57387D01*
X70506Y57372D01*
X70514Y57357D01*
X70521Y57346D01*
X70526Y57337D01*
X70528Y57331D01*
X70532Y57328D01*
Y57326D01*
X70551Y57283D01*
X70565Y57241D01*
X70578Y57200D01*
X70586Y57165D01*
X70591Y57133D01*
X70595Y57120D01*
X70597Y57109D01*
Y57100D01*
X70599Y57093D01*
Y57089D01*
Y57087D01*
X69908D01*
Y57309D01*
X70301D01*
X70288Y57333D01*
X70275Y57354D01*
X70269Y57361D01*
X70264Y57368D01*
X70262Y57372D01*
X70260Y57374D01*
X70247Y57391D01*
X70230Y57411D01*
X70210Y57433D01*
X70189Y57457D01*
X70171Y57480D01*
X70154Y57498D01*
X70149Y57505D01*
X70143Y57511D01*
X70141Y57513D01*
X70139Y57515D01*
X70104Y57555D01*
X70075Y57593D01*
X70049Y57624D01*
X70028Y57652D01*
X70014Y57672D01*
X70002Y57689D01*
X69997Y57698D01*
X69995Y57702D01*
X69980Y57730D01*
X69965Y57755D01*
X69954Y57780D01*
X69945Y57802D01*
X69939Y57820D01*
X69934Y57833D01*
X69930Y57842D01*
Y57846D01*
X69923Y57874D01*
X69917Y57900D01*
X69914Y57926D01*
X69910Y57948D01*
Y57968D01*
X69908Y57983D01*
Y57992D01*
Y57996D01*
Y58022D01*
X69912Y58046D01*
X69921Y58091D01*
X69934Y58131D01*
X69949Y58167D01*
X69965Y58196D01*
X69973Y58209D01*
X69978Y58218D01*
X69984Y58226D01*
X69988Y58231D01*
X69990Y58235D01*
X69991Y58237D01*
X70008Y58255D01*
X70025Y58272D01*
X70043Y58285D01*
X70064Y58298D01*
X70084Y58309D01*
X70104Y58317D01*
X70143Y58329D01*
X70180Y58337D01*
X70195Y58339D01*
X70210Y58341D01*
X70221Y58342D01*
X70236D01*
X70262Y58341D01*
D02*
G37*
G36*
X74935Y57670D02*
X74776Y57643D01*
X74763Y57659D01*
X74750Y57672D01*
X74737Y57685D01*
X74724Y57694D01*
X74698Y57711D01*
X74674Y57722D01*
X74654Y57728D01*
X74639Y57731D01*
X74628Y57733D01*
X74624D01*
X74600Y57731D01*
X74580Y57724D01*
X74559Y57715D01*
X74545Y57705D01*
X74532Y57694D01*
X74522Y57685D01*
X74517Y57678D01*
X74515Y57676D01*
X74500Y57652D01*
X74489Y57626D01*
X74482Y57596D01*
X74476Y57568D01*
X74472Y57543D01*
X74471Y57522D01*
Y57513D01*
Y57507D01*
Y57504D01*
Y57502D01*
X74472Y57459D01*
X74478Y57420D01*
X74485Y57389D01*
X74493Y57363D01*
X74500Y57344D01*
X74508Y57330D01*
X74513Y57322D01*
X74515Y57318D01*
X74532Y57298D01*
X74548Y57285D01*
X74567Y57274D01*
X74583Y57267D01*
X74596Y57263D01*
X74608Y57261D01*
X74617Y57259D01*
X74619D01*
X74637Y57261D01*
X74654Y57267D01*
X74671Y57274D01*
X74683Y57283D01*
X74695Y57291D01*
X74704Y57298D01*
X74709Y57304D01*
X74711Y57306D01*
X74726Y57324D01*
X74737Y57346D01*
X74746Y57367D01*
X74752Y57387D01*
X74756Y57405D01*
X74759Y57422D01*
X74761Y57431D01*
Y57435D01*
X74957Y57409D01*
X74948Y57352D01*
X74941Y57324D01*
X74933Y57300D01*
X74924Y57278D01*
X74915Y57257D01*
X74906Y57237D01*
X74896Y57220D01*
X74887Y57206D01*
X74878Y57193D01*
X74870Y57181D01*
X74863Y57172D01*
X74858Y57165D01*
X74852Y57159D01*
X74850Y57157D01*
X74848Y57156D01*
X74830Y57141D01*
X74811Y57126D01*
X74774Y57104D01*
X74735Y57089D01*
X74700Y57078D01*
X74669Y57072D01*
X74654Y57069D01*
X74643D01*
X74633Y57067D01*
X74620D01*
X74589Y57069D01*
X74561Y57072D01*
X74533Y57080D01*
X74509Y57089D01*
X74485Y57098D01*
X74465Y57109D01*
X74445Y57122D01*
X74428Y57135D01*
X74413Y57148D01*
X74398Y57161D01*
X74387Y57172D01*
X74378Y57181D01*
X74371Y57191D01*
X74365Y57198D01*
X74363Y57202D01*
X74361Y57204D01*
X74345Y57230D01*
X74330Y57257D01*
X74319Y57283D01*
X74308Y57309D01*
X74291Y57361D01*
X74280Y57407D01*
X74276Y57430D01*
X74274Y57448D01*
X74271Y57465D01*
Y57480D01*
X74269Y57491D01*
Y57500D01*
Y57505D01*
Y57507D01*
X74271Y57544D01*
X74272Y57580D01*
X74278Y57611D01*
X74285Y57643D01*
X74293Y57670D01*
X74302Y57698D01*
X74313Y57722D01*
X74322Y57744D01*
X74332Y57763D01*
X74343Y57780D01*
X74352Y57794D01*
X74359Y57807D01*
X74367Y57817D01*
X74371Y57824D01*
X74374Y57828D01*
X74376Y57830D01*
X74393Y57846D01*
X74409Y57861D01*
X74426Y57874D01*
X74445Y57885D01*
X74480Y57902D01*
X74511Y57915D01*
X74541Y57920D01*
X74552Y57922D01*
X74563Y57924D01*
X74572Y57926D01*
X74583D01*
X74609Y57924D01*
X74633Y57918D01*
X74656Y57913D01*
X74676Y57905D01*
X74695Y57896D01*
X74708Y57891D01*
X74715Y57885D01*
X74719Y57883D01*
X74685Y58098D01*
X74315D01*
Y58322D01*
X74835D01*
X74935Y57670D01*
D02*
G37*
G36*
X75430Y58302D02*
X75448Y58265D01*
X75469Y58231D01*
X75489Y58204D01*
X75507Y58180D01*
X75522Y58161D01*
X75533Y58150D01*
X75535Y58148D01*
X75537Y58146D01*
X75570Y58117D01*
X75602Y58092D01*
X75630Y58072D01*
X75656Y58055D01*
X75678Y58044D01*
X75693Y58035D01*
X75704Y58031D01*
X75706Y58030D01*
X75707D01*
Y57811D01*
X75656Y57835D01*
X75606Y57863D01*
X75563Y57894D01*
X75526Y57924D01*
X75509Y57937D01*
X75494Y57950D01*
X75482Y57963D01*
X75472Y57972D01*
X75463Y57981D01*
X75457Y57987D01*
X75454Y57991D01*
X75452Y57992D01*
Y57087D01*
X75254D01*
Y58342D01*
X75415D01*
X75430Y58302D01*
D02*
G37*
G36*
X73021Y58341D02*
X73050Y58337D01*
X73076Y58328D01*
X73102Y58318D01*
X73148Y58294D01*
X73169Y58281D01*
X73187Y58267D01*
X73204Y58252D01*
X73219Y58239D01*
X73232Y58226D01*
X73243Y58215D01*
X73250Y58205D01*
X73256Y58198D01*
X73260Y58192D01*
X73261Y58191D01*
X73280Y58161D01*
X73295Y58126D01*
X73310Y58089D01*
X73321Y58050D01*
X73339Y57968D01*
X73352Y57887D01*
X73356Y57848D01*
X73360Y57813D01*
X73361Y57781D01*
X73363Y57752D01*
X73365Y57730D01*
Y57711D01*
Y57700D01*
Y57698D01*
Y57696D01*
X73363Y57635D01*
X73361Y57578D01*
X73356Y57526D01*
X73350Y57478D01*
X73341Y57433D01*
X73334Y57394D01*
X73324Y57357D01*
X73315Y57326D01*
X73306Y57298D01*
X73297Y57276D01*
X73287Y57256D01*
X73280Y57239D01*
X73274Y57228D01*
X73269Y57218D01*
X73267Y57213D01*
X73265Y57211D01*
X73245Y57185D01*
X73224Y57163D01*
X73204Y57144D01*
X73182Y57128D01*
X73161Y57113D01*
X73139Y57102D01*
X73119Y57093D01*
X73098Y57085D01*
X73063Y57074D01*
X73048Y57070D01*
X73035Y57069D01*
X73024D01*
X73017Y57067D01*
X73010D01*
X72984Y57069D01*
X72960Y57072D01*
X72935Y57078D01*
X72913Y57083D01*
X72873Y57102D01*
X72839Y57122D01*
X72811Y57143D01*
X72800Y57152D01*
X72791Y57161D01*
X72784Y57167D01*
X72778Y57172D01*
X72776Y57176D01*
X72774Y57178D01*
X72758Y57200D01*
X72743Y57224D01*
X72730Y57248D01*
X72719Y57274D01*
X72702Y57326D01*
X72689Y57374D01*
X72686Y57398D01*
X72684Y57418D01*
X72682Y57439D01*
X72680Y57456D01*
X72678Y57468D01*
Y57478D01*
Y57485D01*
Y57487D01*
X72680Y57520D01*
X72682Y57554D01*
X72686Y57583D01*
X72693Y57613D01*
X72698Y57639D01*
X72706Y57663D01*
X72715Y57685D01*
X72723Y57705D01*
X72732Y57724D01*
X72739Y57741D01*
X72748Y57754D01*
X72754Y57765D01*
X72760Y57774D01*
X72765Y57780D01*
X72767Y57783D01*
X72769Y57785D01*
X72786Y57805D01*
X72804Y57822D01*
X72821Y57837D01*
X72839Y57850D01*
X72856Y57861D01*
X72874Y57870D01*
X72906Y57883D01*
X72935Y57892D01*
X72947Y57894D01*
X72958Y57896D01*
X72967Y57898D01*
X72978D01*
X72998Y57896D01*
X73017Y57894D01*
X73035Y57889D01*
X73050Y57885D01*
X73061Y57880D01*
X73073Y57874D01*
X73078Y57872D01*
X73080Y57870D01*
X73097Y57859D01*
X73111Y57846D01*
X73124Y57833D01*
X73137Y57820D01*
X73147Y57809D01*
X73154Y57800D01*
X73160Y57792D01*
X73161Y57791D01*
X73160Y57830D01*
X73156Y57865D01*
X73152Y57896D01*
X73148Y57924D01*
X73145Y57950D01*
X73139Y57974D01*
X73135Y57994D01*
X73130Y58013D01*
X73126Y58028D01*
X73123Y58041D01*
X73117Y58052D01*
X73115Y58059D01*
X73111Y58067D01*
X73110Y58070D01*
X73108Y58074D01*
X73091Y58098D01*
X73073Y58115D01*
X73056Y58128D01*
X73039Y58135D01*
X73024Y58141D01*
X73013Y58142D01*
X73004Y58144D01*
X73002D01*
X72985Y58142D01*
X72969Y58139D01*
X72956Y58131D01*
X72943Y58122D01*
X72923Y58100D01*
X72910Y58076D01*
X72898Y58050D01*
X72893Y58028D01*
X72891Y58018D01*
X72889Y58011D01*
Y58007D01*
Y58005D01*
X72698Y58031D01*
X72710Y58087D01*
X72723Y58133D01*
X72739Y58174D01*
X72756Y58207D01*
X72773Y58231D01*
X72786Y58250D01*
X72795Y58261D01*
X72798Y58265D01*
X72828Y58291D01*
X72861Y58309D01*
X72893Y58324D01*
X72924Y58333D01*
X72950Y58339D01*
X72973Y58341D01*
X72980Y58342D01*
X72991D01*
X73021Y58341D01*
D02*
G37*
G36*
X79127Y57439D02*
X79139Y57402D01*
X79150Y57372D01*
X79159Y57350D01*
X79168Y57331D01*
X79177Y57317D01*
X79183Y57309D01*
X79187Y57304D01*
X79189Y57302D01*
X79202Y57293D01*
X79218Y57285D01*
X79235Y57280D01*
X79252Y57276D01*
X79268Y57274D01*
X79281Y57272D01*
X79316D01*
X79342Y57274D01*
X79370D01*
Y57087D01*
X79322Y57078D01*
X79298Y57076D01*
X79276Y57074D01*
X79255Y57072D01*
X79227D01*
X79196Y57076D01*
X79168Y57083D01*
X79144Y57094D01*
X79124Y57107D01*
X79107Y57120D01*
X79094Y57131D01*
X79085Y57139D01*
X79083Y57143D01*
X79072Y57157D01*
X79061Y57174D01*
X79039Y57211D01*
X79018Y57250D01*
X78998Y57291D01*
X78983Y57328D01*
X78976Y57344D01*
X78970Y57359D01*
X78965Y57370D01*
X78963Y57380D01*
X78959Y57385D01*
Y57387D01*
X78613Y58339D01*
X78827D01*
X79035Y57689D01*
X79274Y58339D01*
X79505D01*
X79127Y57439D01*
D02*
G37*
G36*
X83131Y58357D02*
X83168Y58352D01*
X83201Y58344D01*
X83234Y58335D01*
X83264Y58322D01*
X83292Y58309D01*
X83318Y58294D01*
X83340Y58281D01*
X83360Y58267D01*
X83379Y58252D01*
X83394Y58239D01*
X83407Y58226D01*
X83416Y58217D01*
X83423Y58209D01*
X83427Y58204D01*
X83429Y58202D01*
X83455Y58167D01*
X83477Y58128D01*
X83496Y58089D01*
X83512Y58048D01*
X83527Y58005D01*
X83538Y57965D01*
X83547Y57924D01*
X83555Y57883D01*
X83560Y57846D01*
X83566Y57813D01*
X83570Y57781D01*
X83571Y57754D01*
Y57733D01*
X83573Y57717D01*
Y57705D01*
Y57704D01*
Y57702D01*
X83571Y57646D01*
X83568Y57594D01*
X83560Y57544D01*
X83551Y57498D01*
X83540Y57456D01*
X83529Y57417D01*
X83516Y57380D01*
X83501Y57348D01*
X83488Y57318D01*
X83475Y57293D01*
X83464Y57270D01*
X83453Y57254D01*
X83444Y57239D01*
X83436Y57228D01*
X83433Y57222D01*
X83431Y57220D01*
X83407Y57193D01*
X83381Y57170D01*
X83355Y57150D01*
X83327Y57131D01*
X83299Y57117D01*
X83273Y57104D01*
X83247Y57094D01*
X83221Y57085D01*
X83197Y57080D01*
X83175Y57074D01*
X83155Y57072D01*
X83138Y57069D01*
X83123D01*
X83114Y57067D01*
X83105D01*
X83075Y57069D01*
X83047Y57070D01*
X82996Y57081D01*
X82949Y57096D01*
X82929Y57106D01*
X82910Y57115D01*
X82894Y57124D01*
X82879Y57133D01*
X82866Y57141D01*
X82857Y57148D01*
X82847Y57154D01*
X82842Y57159D01*
X82838Y57161D01*
X82836Y57163D01*
X82816Y57183D01*
X82797Y57204D01*
X82766Y57252D01*
X82738Y57304D01*
X82716Y57354D01*
X82707Y57378D01*
X82699Y57400D01*
X82694Y57420D01*
X82688Y57437D01*
X82684Y57452D01*
X82681Y57463D01*
X82679Y57470D01*
Y57472D01*
X82881Y57550D01*
X82892Y57500D01*
X82907Y57459D01*
X82920Y57424D01*
X82934Y57396D01*
X82947Y57374D01*
X82959Y57359D01*
X82966Y57350D01*
X82968Y57346D01*
X82990Y57326D01*
X83014Y57309D01*
X83038Y57298D01*
X83060Y57291D01*
X83079Y57287D01*
X83096Y57285D01*
X83105Y57283D01*
X83109D01*
X83129Y57285D01*
X83147Y57287D01*
X83184Y57298D01*
X83214Y57315D01*
X83240Y57333D01*
X83262Y57350D01*
X83277Y57367D01*
X83286Y57378D01*
X83290Y57380D01*
Y57381D01*
X83301Y57402D01*
X83312Y57424D01*
X83321Y57450D01*
X83329Y57476D01*
X83342Y57531D01*
X83349Y57587D01*
X83353Y57613D01*
X83355Y57637D01*
X83357Y57659D01*
Y57678D01*
X83358Y57694D01*
Y57705D01*
Y57715D01*
Y57717D01*
Y57757D01*
X83355Y57796D01*
X83351Y57831D01*
X83347Y57863D01*
X83342Y57892D01*
X83336Y57920D01*
X83331Y57944D01*
X83323Y57965D01*
X83316Y57983D01*
X83310Y58000D01*
X83305Y58013D01*
X83299Y58024D01*
X83294Y58031D01*
X83292Y58039D01*
X83288Y58041D01*
Y58042D01*
X83273Y58061D01*
X83258Y58076D01*
X83244Y58089D01*
X83229Y58100D01*
X83197Y58118D01*
X83168Y58130D01*
X83142Y58137D01*
X83121Y58141D01*
X83114Y58142D01*
X83103D01*
X83073Y58141D01*
X83047Y58133D01*
X83025Y58126D01*
X83005Y58115D01*
X82988Y58105D01*
X82975Y58096D01*
X82968Y58089D01*
X82966Y58087D01*
X82946Y58065D01*
X82929Y58041D01*
X82914Y58015D01*
X82903Y57989D01*
X82896Y57967D01*
X82890Y57948D01*
X82888Y57941D01*
Y57935D01*
X82886Y57933D01*
Y57931D01*
X82681Y57991D01*
X82688Y58020D01*
X82697Y58048D01*
X82707Y58074D01*
X82716Y58100D01*
X82727Y58122D01*
X82736Y58142D01*
X82747Y58159D01*
X82757Y58176D01*
X82766Y58191D01*
X82775Y58204D01*
X82783Y58215D01*
X82790Y58224D01*
X82796Y58229D01*
X82799Y58235D01*
X82801Y58239D01*
X82803D01*
X82825Y58259D01*
X82849Y58278D01*
X82873Y58294D01*
X82897Y58309D01*
X82921Y58320D01*
X82946Y58329D01*
X82992Y58344D01*
X83012Y58350D01*
X83031Y58354D01*
X83047Y58355D01*
X83062Y58357D01*
X83075Y58359D01*
X83092D01*
X83131Y58357D01*
D02*
G37*
G36*
X82499Y57087D02*
X82292D01*
Y58128D01*
X81886D01*
Y57087D01*
X81679D01*
Y58339D01*
X82499D01*
Y57087D01*
D02*
G37*
G36*
X81461D02*
X80961D01*
X80925Y57089D01*
X80892Y57093D01*
X80862Y57098D01*
X80835Y57106D01*
X80811Y57113D01*
X80788Y57122D01*
X80768Y57133D01*
X80749Y57144D01*
X80735Y57154D01*
X80720Y57165D01*
X80709Y57174D01*
X80700Y57183D01*
X80694Y57189D01*
X80688Y57194D01*
X80685Y57198D01*
Y57200D01*
X80670Y57222D01*
X80657Y57244D01*
X80638Y57289D01*
X80624Y57331D01*
X80612Y57372D01*
X80611Y57391D01*
X80607Y57409D01*
X80605Y57424D01*
Y57437D01*
X80603Y57446D01*
Y57454D01*
Y57459D01*
Y57461D01*
X80605Y57493D01*
X80607Y57522D01*
X80618Y57578D01*
X80625Y57602D01*
X80633Y57624D01*
X80642Y57644D01*
X80651Y57663D01*
X80661Y57680D01*
X80670Y57694D01*
X80677Y57707D01*
X80685Y57718D01*
X80690Y57726D01*
X80696Y57731D01*
X80698Y57735D01*
X80700Y57737D01*
X80718Y57755D01*
X80738Y57772D01*
X80759Y57785D01*
X80781Y57796D01*
X80824Y57815D01*
X80866Y57828D01*
X80903Y57835D01*
X80920Y57837D01*
X80933Y57839D01*
X80944Y57841D01*
X81253D01*
Y58128D01*
X80692D01*
Y58339D01*
X81461D01*
Y57087D01*
D02*
G37*
G36*
X80433D02*
X80225D01*
Y58128D01*
X79820D01*
Y57087D01*
X79613D01*
Y58339D01*
X80433D01*
Y57087D01*
D02*
G37*
G36*
X78511D02*
X78315D01*
Y57328D01*
X78511D01*
Y57087D01*
D02*
G37*
G36*
X72526Y57087D02*
X72330D01*
Y57328D01*
X72526D01*
Y57087D01*
D02*
G37*
G36*
X73859Y58341D02*
X73885Y58337D01*
X73909Y58329D01*
X73932Y58320D01*
X73972Y58298D01*
X74008Y58272D01*
X74035Y58244D01*
X74046Y58233D01*
X74056Y58222D01*
X74063Y58213D01*
X74069Y58205D01*
X74071Y58202D01*
X74072Y58200D01*
X74089Y58170D01*
X74102Y58137D01*
X74115Y58102D01*
X74124Y58063D01*
X74141Y57981D01*
X74152Y57900D01*
X74156Y57861D01*
X74158Y57824D01*
X74159Y57791D01*
X74161Y57763D01*
X74163Y57739D01*
Y57720D01*
Y57715D01*
Y57709D01*
Y57707D01*
Y57705D01*
X74161Y57641D01*
X74159Y57581D01*
X74154Y57526D01*
X74148Y57476D01*
X74143Y57430D01*
X74134Y57389D01*
X74126Y57354D01*
X74117Y57320D01*
X74109Y57293D01*
X74100Y57268D01*
X74093Y57250D01*
X74087Y57233D01*
X74080Y57220D01*
X74076Y57213D01*
X74074Y57207D01*
X74072Y57206D01*
X74054Y57181D01*
X74035Y57159D01*
X74015Y57141D01*
X73995Y57126D01*
X73974Y57111D01*
X73956Y57100D01*
X73935Y57091D01*
X73917Y57083D01*
X73882Y57074D01*
X73867Y57070D01*
X73854Y57069D01*
X73845D01*
X73837Y57067D01*
X73830D01*
X73802Y57069D01*
X73776Y57072D01*
X73752Y57080D01*
X73730Y57089D01*
X73689Y57111D01*
X73654Y57137D01*
X73626Y57163D01*
X73615Y57174D01*
X73606Y57185D01*
X73598Y57194D01*
X73593Y57202D01*
X73591Y57206D01*
X73589Y57207D01*
X73572Y57237D01*
X73558Y57270D01*
X73547Y57306D01*
X73535Y57344D01*
X73519Y57428D01*
X73508Y57509D01*
X73504Y57548D01*
X73502Y57585D01*
X73498Y57617D01*
Y57646D01*
X73497Y57670D01*
Y57689D01*
Y57694D01*
Y57700D01*
Y57702D01*
Y57704D01*
X73498Y57768D01*
X73500Y57826D01*
X73506Y57881D01*
X73511Y57930D01*
X73519Y57976D01*
X73526Y58017D01*
X73534Y58052D01*
X73543Y58085D01*
X73552Y58113D01*
X73560Y58137D01*
X73567Y58155D01*
X73574Y58172D01*
X73580Y58185D01*
X73585Y58192D01*
X73587Y58198D01*
X73589Y58200D01*
X73608Y58226D01*
X73626Y58246D01*
X73647Y58267D01*
X73667Y58283D01*
X73687Y58296D01*
X73706Y58307D01*
X73726Y58317D01*
X73745Y58324D01*
X73780Y58335D01*
X73795Y58339D01*
X73808Y58341D01*
X73817Y58342D01*
X73832D01*
X73859Y58341D01*
D02*
G37*
G36*
X71865D02*
X71891Y58337D01*
X71915Y58329D01*
X71937Y58320D01*
X71978Y58298D01*
X72013Y58272D01*
X72041Y58244D01*
X72052Y58233D01*
X72062Y58222D01*
X72069Y58213D01*
X72074Y58205D01*
X72076Y58202D01*
X72078Y58200D01*
X72095Y58170D01*
X72108Y58137D01*
X72121Y58102D01*
X72130Y58063D01*
X72147Y57981D01*
X72158Y57900D01*
X72161Y57861D01*
X72163Y57824D01*
X72165Y57791D01*
X72167Y57763D01*
X72169Y57739D01*
Y57720D01*
Y57715D01*
Y57709D01*
Y57707D01*
Y57705D01*
X72167Y57641D01*
X72165Y57581D01*
X72160Y57526D01*
X72154Y57476D01*
X72149Y57430D01*
X72139Y57389D01*
X72132Y57354D01*
X72123Y57320D01*
X72115Y57293D01*
X72106Y57268D01*
X72099Y57250D01*
X72093Y57233D01*
X72086Y57220D01*
X72082Y57213D01*
X72080Y57207D01*
X72078Y57206D01*
X72060Y57181D01*
X72041Y57159D01*
X72021Y57141D01*
X72000Y57126D01*
X71980Y57111D01*
X71962Y57100D01*
X71941Y57091D01*
X71923Y57083D01*
X71887Y57074D01*
X71873Y57070D01*
X71860Y57069D01*
X71850D01*
X71843Y57067D01*
X71836D01*
X71808Y57069D01*
X71782Y57072D01*
X71758Y57080D01*
X71736Y57089D01*
X71695Y57111D01*
X71660Y57137D01*
X71632Y57163D01*
X71621Y57174D01*
X71612Y57185D01*
X71604Y57194D01*
X71599Y57202D01*
X71597Y57206D01*
X71595Y57207D01*
X71578Y57237D01*
X71563Y57270D01*
X71552Y57306D01*
X71541Y57344D01*
X71525Y57428D01*
X71513Y57509D01*
X71510Y57548D01*
X71508Y57585D01*
X71504Y57617D01*
Y57646D01*
X71502Y57670D01*
Y57689D01*
Y57694D01*
Y57700D01*
Y57702D01*
Y57704D01*
X71504Y57768D01*
X71506Y57826D01*
X71512Y57881D01*
X71517Y57930D01*
X71525Y57976D01*
X71532Y58017D01*
X71539Y58052D01*
X71549Y58085D01*
X71558Y58113D01*
X71565Y58137D01*
X71573Y58155D01*
X71580Y58172D01*
X71586Y58185D01*
X71591Y58192D01*
X71593Y58198D01*
X71595Y58200D01*
X71613Y58226D01*
X71632Y58246D01*
X71652Y58267D01*
X71673Y58283D01*
X71693Y58296D01*
X71712Y58307D01*
X71732Y58317D01*
X71750Y58324D01*
X71786Y58335D01*
X71800Y58339D01*
X71813Y58341D01*
X71823Y58342D01*
X71837D01*
X71865Y58341D01*
D02*
G37*
%LPC*%
G36*
X73017Y57720D02*
X73008D01*
X72987Y57718D01*
X72969Y57711D01*
X72952Y57702D01*
X72937Y57693D01*
X72926Y57681D01*
X72919Y57672D01*
X72913Y57665D01*
X72911Y57663D01*
X72898Y57639D01*
X72887Y57613D01*
X72880Y57583D01*
X72876Y57554D01*
X72873Y57528D01*
X72871Y57507D01*
Y57498D01*
Y57493D01*
Y57489D01*
Y57487D01*
X72873Y57446D01*
X72876Y57411D01*
X72882Y57381D01*
X72889Y57357D01*
X72897Y57339D01*
X72902Y57326D01*
X72906Y57318D01*
X72908Y57317D01*
X72923Y57300D01*
X72937Y57287D01*
X72952Y57280D01*
X72967Y57272D01*
X72980Y57268D01*
X72989Y57267D01*
X72998D01*
X73019Y57268D01*
X73039Y57276D01*
X73056Y57285D01*
X73071Y57298D01*
X73084Y57309D01*
X73093Y57318D01*
X73098Y57326D01*
X73100Y57328D01*
X73115Y57354D01*
X73124Y57383D01*
X73132Y57413D01*
X73137Y57441D01*
X73141Y57467D01*
X73143Y57489D01*
Y57496D01*
Y57502D01*
Y57505D01*
Y57507D01*
X73141Y57544D01*
X73137Y57578D01*
X73130Y57604D01*
X73123Y57626D01*
X73117Y57644D01*
X73110Y57657D01*
X73106Y57665D01*
X73104Y57667D01*
X73089Y57685D01*
X73073Y57698D01*
X73056Y57707D01*
X73041Y57713D01*
X73028Y57718D01*
X73017Y57720D01*
D02*
G37*
G36*
X81253Y57630D02*
X81027D01*
X80990Y57628D01*
X80959Y57622D01*
X80931Y57615D01*
X80907Y57604D01*
X80887Y57591D01*
X80870Y57576D01*
X80855Y57561D01*
X80844Y57544D01*
X80835Y57528D01*
X80829Y57513D01*
X80824Y57498D01*
X80822Y57485D01*
X80820Y57476D01*
X80818Y57467D01*
Y57461D01*
Y57459D01*
X80820Y57439D01*
X80822Y57420D01*
X80827Y57404D01*
X80833Y57389D01*
X80838Y57378D01*
X80842Y57368D01*
X80846Y57363D01*
X80848Y57361D01*
X80859Y57348D01*
X80870Y57335D01*
X80881Y57328D01*
X80892Y57320D01*
X80901Y57315D01*
X80907Y57311D01*
X80912Y57309D01*
X80914D01*
X80931Y57306D01*
X80949Y57304D01*
X80988Y57300D01*
X81007Y57298D01*
X81253D01*
Y57630D01*
D02*
G37*
G36*
X73832Y58142D02*
X73830D01*
X73809Y58139D01*
X73791Y58130D01*
X73776Y58118D01*
X73763Y58104D01*
X73752Y58089D01*
X73745Y58078D01*
X73741Y58068D01*
X73739Y58065D01*
X73734Y58048D01*
X73728Y58028D01*
X73722Y58004D01*
X73719Y57976D01*
X73715Y57948D01*
X73713Y57917D01*
X73708Y57855D01*
Y57826D01*
X73706Y57798D01*
Y57772D01*
X73704Y57750D01*
Y57731D01*
Y57717D01*
Y57707D01*
Y57704D01*
Y57652D01*
X73706Y57605D01*
X73708Y57565D01*
X73709Y57528D01*
X73711Y57494D01*
X73715Y57465D01*
X73719Y57439D01*
X73721Y57417D01*
X73724Y57398D01*
X73728Y57381D01*
X73732Y57368D01*
X73734Y57359D01*
X73735Y57352D01*
X73737Y57346D01*
X73739Y57344D01*
Y57343D01*
X73752Y57317D01*
X73767Y57298D01*
X73782Y57285D01*
X73797Y57276D01*
X73809Y57270D01*
X73821Y57268D01*
X73828Y57267D01*
X73830D01*
X73850Y57270D01*
X73869Y57278D01*
X73885Y57291D01*
X73898Y57306D01*
X73909Y57318D01*
X73917Y57331D01*
X73921Y57339D01*
X73922Y57343D01*
X73928Y57359D01*
X73934Y57380D01*
X73937Y57404D01*
X73941Y57431D01*
X73945Y57459D01*
X73948Y57491D01*
X73952Y57552D01*
Y57581D01*
X73954Y57609D01*
Y57635D01*
X73956Y57657D01*
Y57678D01*
Y57691D01*
Y57700D01*
Y57704D01*
Y57755D01*
X73954Y57802D01*
X73952Y57842D01*
X73950Y57880D01*
X73948Y57913D01*
X73945Y57942D01*
X73943Y57968D01*
X73939Y57991D01*
X73935Y58009D01*
X73934Y58026D01*
X73930Y58039D01*
X73928Y58048D01*
X73926Y58055D01*
X73924Y58061D01*
X73922Y58065D01*
X73909Y58091D01*
X73895Y58109D01*
X73878Y58124D01*
X73863Y58133D01*
X73850Y58139D01*
X73839Y58141D01*
X73832Y58142D01*
D02*
G37*
G36*
X71837D02*
X71836D01*
X71815Y58139D01*
X71797Y58130D01*
X71782Y58118D01*
X71769Y58104D01*
X71758Y58089D01*
X71750Y58078D01*
X71747Y58068D01*
X71745Y58065D01*
X71739Y58048D01*
X71734Y58028D01*
X71728Y58004D01*
X71725Y57976D01*
X71721Y57948D01*
X71719Y57917D01*
X71713Y57855D01*
Y57826D01*
X71712Y57798D01*
Y57772D01*
X71710Y57750D01*
Y57731D01*
Y57717D01*
Y57707D01*
Y57704D01*
Y57652D01*
X71712Y57605D01*
X71713Y57565D01*
X71715Y57528D01*
X71717Y57494D01*
X71721Y57465D01*
X71725Y57439D01*
X71726Y57417D01*
X71730Y57398D01*
X71734Y57381D01*
X71737Y57368D01*
X71739Y57359D01*
X71741Y57352D01*
X71743Y57346D01*
X71745Y57344D01*
Y57343D01*
X71758Y57317D01*
X71773Y57298D01*
X71787Y57285D01*
X71802Y57276D01*
X71815Y57270D01*
X71826Y57268D01*
X71834Y57267D01*
X71836D01*
X71856Y57270D01*
X71874Y57278D01*
X71891Y57291D01*
X71904Y57306D01*
X71915Y57318D01*
X71923Y57331D01*
X71926Y57339D01*
X71928Y57343D01*
X71934Y57359D01*
X71939Y57380D01*
X71943Y57404D01*
X71947Y57431D01*
X71950Y57459D01*
X71954Y57491D01*
X71958Y57552D01*
Y57581D01*
X71960Y57609D01*
Y57635D01*
X71962Y57657D01*
Y57678D01*
Y57691D01*
Y57700D01*
Y57704D01*
Y57755D01*
X71960Y57802D01*
X71958Y57842D01*
X71956Y57880D01*
X71954Y57913D01*
X71950Y57942D01*
X71949Y57968D01*
X71945Y57991D01*
X71941Y58009D01*
X71939Y58026D01*
X71936Y58039D01*
X71934Y58048D01*
X71932Y58055D01*
X71930Y58061D01*
X71928Y58065D01*
X71915Y58091D01*
X71900Y58109D01*
X71884Y58124D01*
X71869Y58133D01*
X71856Y58139D01*
X71845Y58141D01*
X71837Y58142D01*
D02*
G37*
%LPD*%
M02*
