M48
;Layer_Color=9474304
;FILE_FORMAT=4:3
METRIC,LZ
;TYPE=PLATED
T1F00S00C0.300
T2F00S00C1.000
%
T01
X008Y0058
X0082
X0084
Y0078
X0082
X008
X0078
X0076
Y0076
Y0074
Y0072
X0074
X0072
Y0074
X0074
Y0076
X0072
Y0078
X0074
X007
Y0076
X0068
Y0078
Y0074
Y0072
X007
Y0074
X0070282Y0066624
X0070256Y0065634
Y0064567
X0071425Y0064541
X007145Y0065608
Y006665
X0072Y006
Y0058
X0074
X0076
X0078
Y006
X0068
Y0058
X007
X0066
X0064
X0062
X006
X0058
X0056
X0054
X0055Y006
X0057
X0059
X0061
X0063
X0065
X0061Y00625
T02
X0080441Y0062504
Y0065004
Y0071292
Y0073792
X0086Y00775
Y00585
X0057506Y0063749
Y0066249
X0052Y00585
Y00775
M30
