G04*
G04 #@! TF.GenerationSoftware,Altium Limited,Altium Designer,19.1.6 (110)*
G04*
G04 Layer_Physical_Order=2*
G04 Layer_Color=16711680*
%FSLAX43Y43*%
%MOMM*%
G71*
G01*
G75*
%ADD51R,1.900X1.900*%
%ADD52C,1.900*%
%ADD53C,2.000*%
%ADD54C,0.600*%
G36*
X87745Y67640D02*
X73609D01*
Y62814D01*
X72517Y61849D01*
X50255D01*
Y79184D01*
X87745D01*
Y67640D01*
D02*
G37*
G36*
X82245Y65684D02*
X87745D01*
Y56694D01*
X50255D01*
Y60681D01*
X74143D01*
X75413Y61951D01*
Y65684D01*
X78680D01*
X78665Y66507D01*
X78781Y66624D01*
X82245D01*
Y65684D01*
D02*
G37*
%LPC*%
G36*
X86550Y78679D02*
Y78050D01*
X87179D01*
X87136Y78156D01*
X86927Y78427D01*
X86656Y78636D01*
X86550Y78679D01*
D02*
G37*
G36*
X85450D02*
X85344Y78636D01*
X85073Y78427D01*
X84864Y78156D01*
X84821Y78050D01*
X85450D01*
Y78679D01*
D02*
G37*
G36*
X52550D02*
Y78050D01*
X53179D01*
X53136Y78156D01*
X52927Y78427D01*
X52656Y78636D01*
X52550Y78679D01*
D02*
G37*
G36*
X51450D02*
X51344Y78636D01*
X51073Y78427D01*
X50864Y78156D01*
X50821Y78050D01*
X51450D01*
Y78679D01*
D02*
G37*
G36*
X53179Y76950D02*
X52550D01*
Y76321D01*
X52656Y76364D01*
X52927Y76573D01*
X53136Y76844D01*
X53179Y76950D01*
D02*
G37*
G36*
X51450D02*
X50821D01*
X50864Y76844D01*
X51073Y76573D01*
X51344Y76364D01*
X51450Y76321D01*
Y76950D01*
D02*
G37*
G36*
X87179D02*
X86550D01*
Y76321D01*
X86656Y76364D01*
X86927Y76573D01*
X87136Y76844D01*
X87179Y76950D01*
D02*
G37*
G36*
X85450D02*
X84821D01*
X84864Y76844D01*
X85073Y76573D01*
X85344Y76364D01*
X85450Y76321D01*
Y76950D01*
D02*
G37*
G36*
X80441Y74952D02*
X80141Y74913D01*
X79861Y74797D01*
X79621Y74613D01*
X79437Y74372D01*
X79321Y74093D01*
X79281Y73792D01*
X79321Y73492D01*
X79437Y73212D01*
X79621Y72972D01*
X79861Y72788D01*
X80141Y72672D01*
X80441Y72632D01*
X80742Y72672D01*
X81021Y72788D01*
X81262Y72972D01*
X81446Y73212D01*
X81562Y73492D01*
X81601Y73792D01*
X81562Y74093D01*
X81446Y74372D01*
X81262Y74613D01*
X81021Y74797D01*
X80742Y74913D01*
X80441Y74952D01*
D02*
G37*
G36*
X81591Y72442D02*
X79291D01*
Y70142D01*
X81591D01*
Y72442D01*
D02*
G37*
G36*
X58656Y67399D02*
X56356D01*
Y65099D01*
X57211D01*
X57219Y64972D01*
X57180Y64966D01*
X56876Y64840D01*
X56614Y64640D01*
X56414Y64379D01*
X56381Y64299D01*
X57506D01*
X58631D01*
X58598Y64379D01*
X58398Y64640D01*
X58136Y64840D01*
X57832Y64966D01*
X57793Y64972D01*
X57801Y65099D01*
X58656D01*
Y67399D01*
D02*
G37*
G36*
X56956Y63199D02*
X56381D01*
X56414Y63118D01*
X56614Y62857D01*
X56876Y62657D01*
X56956Y62623D01*
Y63199D01*
D02*
G37*
G36*
X58631D02*
X58056D01*
Y62623D01*
X58136Y62657D01*
X58398Y62857D01*
X58598Y63118D01*
X58631Y63199D01*
D02*
G37*
G36*
X80991Y66129D02*
Y65554D01*
X81567D01*
X81533Y65634D01*
X81333Y65896D01*
X81072Y66096D01*
X80991Y66129D01*
D02*
G37*
G36*
X79891Y66129D02*
X79811Y66096D01*
X79550Y65896D01*
X79350Y65634D01*
X79316Y65554D01*
X79891D01*
Y66129D01*
D02*
G37*
G36*
X81567Y64454D02*
X80441D01*
D01*
X79316D01*
X79350Y64374D01*
X79550Y64112D01*
X79811Y63912D01*
X79886Y63881D01*
X79861Y63754D01*
X79191D01*
Y63054D01*
X80441D01*
X81691D01*
Y63754D01*
X81022D01*
X80997Y63881D01*
X81072Y63912D01*
X81333Y64112D01*
X81533Y64374D01*
X81535Y64379D01*
X81567Y64454D01*
D02*
G37*
G36*
X81691Y61954D02*
X80991D01*
Y61254D01*
X81691D01*
Y61954D01*
D02*
G37*
G36*
X79891D02*
X79191D01*
Y61254D01*
X79891D01*
Y61954D01*
D02*
G37*
G36*
X86550Y59679D02*
Y59050D01*
X87179D01*
X87136Y59156D01*
X86927Y59427D01*
X86656Y59636D01*
X86550Y59679D01*
D02*
G37*
G36*
X85450D02*
X85344Y59636D01*
X85073Y59427D01*
X84864Y59156D01*
X84821Y59050D01*
X85450D01*
Y59679D01*
D02*
G37*
G36*
X52550D02*
Y59050D01*
X53179D01*
X53136Y59156D01*
X52927Y59427D01*
X52656Y59636D01*
X52550Y59679D01*
D02*
G37*
G36*
X51450D02*
X51344Y59636D01*
X51073Y59427D01*
X50864Y59156D01*
X50821Y59050D01*
X51450D01*
Y59679D01*
D02*
G37*
G36*
X53179Y57950D02*
X52550D01*
Y57321D01*
X52656Y57364D01*
X52927Y57573D01*
X53136Y57844D01*
X53179Y57950D01*
D02*
G37*
G36*
X51450D02*
X50821D01*
X50864Y57844D01*
X51073Y57573D01*
X51344Y57364D01*
X51450Y57321D01*
Y57950D01*
D02*
G37*
G36*
X87179D02*
X86550D01*
Y57321D01*
X86656Y57364D01*
X86927Y57573D01*
X87136Y57844D01*
X87179Y57950D01*
D02*
G37*
G36*
X85450D02*
X84821D01*
X84864Y57844D01*
X85073Y57573D01*
X85344Y57364D01*
X85450Y57321D01*
Y57950D01*
D02*
G37*
%LPD*%
D51*
X57506Y66249D02*
D03*
X80441Y62504D02*
D03*
Y71292D02*
D03*
D52*
X57506Y63749D02*
D03*
X80441Y65004D02*
D03*
Y73792D02*
D03*
D53*
X52000Y58500D02*
D03*
X86000D02*
D03*
Y77500D02*
D03*
X52000D02*
D03*
D54*
X65000Y60000D02*
D03*
X63000D02*
D03*
X61000Y62500D02*
D03*
X68000Y60000D02*
D03*
X78000D02*
D03*
X72000D02*
D03*
X61000D02*
D03*
X59000D02*
D03*
X57000D02*
D03*
X55000D02*
D03*
X84000Y58000D02*
D03*
X72000D02*
D03*
X74000D02*
D03*
X76000D02*
D03*
X78000D02*
D03*
X80000D02*
D03*
X82000D02*
D03*
X54000D02*
D03*
X56000D02*
D03*
X58000D02*
D03*
X60000D02*
D03*
X62000D02*
D03*
X64000D02*
D03*
X66000D02*
D03*
X68000D02*
D03*
X70000D02*
D03*
X76000Y72000D02*
D03*
X74000D02*
D03*
X72000D02*
D03*
X70000D02*
D03*
X68000D02*
D03*
Y74000D02*
D03*
X70000D02*
D03*
X72000D02*
D03*
X74000D02*
D03*
X76000D02*
D03*
Y76000D02*
D03*
X74000D02*
D03*
X72000D02*
D03*
X70000D02*
D03*
X68000D02*
D03*
X84000Y78000D02*
D03*
X82000D02*
D03*
X80000D02*
D03*
X78000D02*
D03*
X76000D02*
D03*
X74000D02*
D03*
X72000D02*
D03*
X70000D02*
D03*
X68000D02*
D03*
X71425Y64541D02*
D03*
X71450Y65608D02*
D03*
X70256Y64567D02*
D03*
Y65634D02*
D03*
X71450Y66650D02*
D03*
X70282Y66624D02*
D03*
M02*
